<svg fill="currentColor" clip-rule="evenodd" fill-rule="evenodd" stroke-linejoin="round" stroke-miterlimit="2" viewBox="0 0 245 210" xmlns="http://www.w3.org/2000/svg"><path d="m7.144 3.567h7.776c1.298 0 2.556.471 3.554 1.331l12.589 10.352c1.267 1.093 2 2.712 2 4.419v6.263c0 1.186-.455 2.324-1.265 3.162-.81.839-1.909 1.311-3.055 1.311h-21.599c-1.146 0-2.244-.472-3.055-1.311-.81-.838-1.265-1.976-1.265-3.162v-17.892c0-1.187.455-2.324 1.265-3.163.811-.839 1.909-1.31 3.055-1.31zm0 2.226c-.575 0-1.127.237-1.534.658-.407.422-.636.993-.636 1.589v17.892c0 .595.229 1.167.636 1.588s.959.658 1.534.658h21.599c.576 0 1.128-.237 1.535-.658s.635-.993.635-1.588v-6.263c0-1.046-.449-2.038-1.226-2.708l-12.589-10.352c-.612-.527-1.382-.816-2.178-.816zm.285 3.491c-.56 0-1.015-.448-1.015-1s.455-1 1.015-1h7.043c.56 0 1.014.448 1.014 1s-.454 1-1.014 1zm15.719-2.401c-.33-.269-.459-.726-.322-1.137.138-.412.513-.688.933-.688h6.013c.491 0 .962.202 1.309.561.347.36.542.847.542 1.356v4.712c0 .391-.216.748-.556.919s-.745.126-1.042-.116z" transform="matrix(8.10206 0 0 7.82482 -22.8811 -27.9099)"/><path d="m343-353c-71.387 0-131.9-24.943-181.54-74.83-49.64-49.893-74.46-109.95-74.46-180.17 0-13.333 1.333-25.833 4-37.5s6-24.5 10-38.5c2.667-6 6.667-11.25 12-15.75s11.333-7.25 18-8.25c5.833-1.333 11.96-1.137 18.38.59 6.413 1.727 12.333 5.243 17.76 10.55l106.86 106.86 92-86-111.86-111.86c-5.307-5.427-8.823-11.287-10.55-17.58-1.727-6.3-1.923-12.433-.59-18.4 1.013-6.12 3.617-11.853 7.81-17.2 4.193-5.34 9.707-9.21 16.54-11.61 13.1-4.233 25.65-8.017 37.65-11.35s24.617-5 37.85-5c72.26 0 133.683 25.373 184.27 76.12 50.587 50.753 75.88 112.38 75.88 184.88 0 14.8-1.167 29.333-3.5 43.6s-5.833 29.067-10.5 44.4l234 233c22.667 22.667 33.667 49.5 33 80.5s-12.26 57.167-34.78 78.5c-21.82 20.667-47.813 30.833-77.98 30.5-30.16-.333-55.907-11.167-77.24-32.5l-236-237c-14 4.667-27.607 8.167-40.82 10.5s-28.607 3.5-46.18 3.5zm0-83c16.667 0 34.333-2.667 53-8s35-13.333 49-24l280 280c5.333 6 12 9 20 9s14.667-2.833 20-8.5 8-12.333 8-20-2.667-14.5-8-20.5l-276-276c10.667-14 18.667-30.5 24-49.5s8-37.167 8-54.5c0-50-18.5-92.333-55.5-127s-79.167-52.333-126.5-53l89 91c9.333 9.82 13.833 21.44 13.5 34.86-.333 13.427-5.167 24.807-14.5 34.14l-107 99c-10.427 9.333-22.183 14-35.27 14-13.093 0-24.003-4.667-32.73-14l-85-84c2 51.333 20.223 93.667 54.67 127s74.89 50 121.33 50z" fill-rule="nonzero" transform="matrix(.136145 0 0 .136145 58.3058 193.807)"/></svg>