<svg height="22" width="22" xmlns="http://www.w3.org/2000/svg">
  <defs>
    <style type="text/css" id="current-color-scheme">.ColorScheme-Highlight { color:#000000; }</style>
  </defs><path class="ColorScheme-Highlight" fill="currentColor" d="m4 4v.5 7.5h3v7h8v-7h3v-8h-6-1zm1 1h6v6h-6zm7 0h5v6h-2-3zm-6 1v1.5c0 .806.123 1.423.484 1.875.362.452.933.625 1.516.625s1.154-.173 1.516-.625c.361-.452.484-1.069.484-1.875v-1.5h-1v1.5c0 .694-.127 1.077-.266 1.25-.138.173-.317.25-.734.25s-.596-.077-.734-.25c-.139-.173-.266-.556-.266-1.25v-1.5zm8 0v4h1v-4zm-6 6h3 1 2v6h-6zm2 1h-1v4h1v-2.498l2 2.498h1v-4h-1v2.498z"/></svg>