<svg height="22" width="22" xmlns="http://www.w3.org/2000/svg">
  <defs>
    <style type="text/css" id="current-color-scheme">.ColorScheme-Highlight { color:#000000; }</style>
  </defs><path class="ColorScheme-Highlight" fill="currentColor" d="m3 3v16h16v-16zm7.51 1.902.98.196c-.01.05-.034.096-.047.146 1.877 2.289 5.733 3.787 5.733 3.787l-.352.938s-.808-.322-1.824-.838v.869h-3.5v2h2.5v1h-2.5v3h4.5v1h-10v-1h4.5v-3h-2.5v-1h2.5v-2h-3.5v-.824c-1.029.501-1.83.795-1.83.795l-.34-.942s1.341-.489 2.736-1.277c1.396-.789 2.758-1.92 2.944-2.85zm.49 1.33c-.668.997-1.846 1.772-2.941 2.391-.248.14-.484.256-.721.377h7.396c-1.191-.63-2.618-1.553-3.734-2.768z"/></svg>