<svg viewBox="0 0 22 22" xmlns="http://www.w3.org/2000/svg">
  <defs>
    <style type="text/css" id="current-color-scheme">.ColorScheme-Highlight { color:#000000; }</style>
  </defs><path class="ColorScheme-Highlight" fill="currentColor" d="m3 3.0019531v15.9980469h16v-15.9980469zm1 .9980469h14v14h-14zm1 1v1h4.4277344c-.0709945.6433848-.3181839 2.7368774-.8691406 4.642578-.6945502-.9627525-1.4866987-1.9808904-2.6679688-3.455078l-.78125.6269531c1.4174333 1.768857 2.2870807 2.8838839 3.0527344 3.9902349-1.2932813 3.342269-3.2636719 4.656249-3.2636719 4.65625l.5566406.832031s1.9707929-1.362982 3.3652344-4.488281c.4371629.686564.8829906 1.421585 1.4218755 2.375l.86914-.490235c-.698886-1.236488-1.255217-2.138636-1.8378905-3.011719.8964705-2.6078439 1.2246095-6.1289059 1.2246095-6.1289059l.050781-.5488281zm6 0v1h.589844c.101934.5915985.552462 3.1367245 1.310547 5.09375.265281.684811.549026 1.343749.886718 1.992188-1.288059 2.041728-3.068359 3.142578-3.068359 3.142578l.517578.855468s1.710317-1.050173 3.103516-3.037109c.655672 1.023639 1.52165 2.030149 2.802734 3.064453l.626953-.779297c-1.383561-1.117032-2.21998-2.147051-2.84375-3.230469.12558-.227385.256224-.447093.367188-.693359.87417-1.9401 1.707031-4.7616024 1.707031-6.908203v-.5zm1.607422 1h3.316406c-.108623 1.8531004-.786023 4.318047-1.542969 5.998047-.002464.005469-.005338.010166-.007812.015625-.18806-.413838-.365555-.833366-.539063-1.28125-.658202-1.6991618-1.087296-3.9669934-1.226562-4.732422z"/></svg>