<svg height="22" width="22" xmlns="http://www.w3.org/2000/svg">
  <defs>
    <style type="text/css" id="current-color-scheme">.ColorScheme-Highlight { color:#000000; }</style>
  </defs><path class="ColorScheme-Highlight" fill="currentColor" d="m6.02 3.465c-.313.703-.899 1.387-1.758 2.051l.82.644c.391-.273.762-.644 1.113-1.113h5.45v-.879h-4.864c.039-.117.098-.254.176-.41zm7.148 0c-.391 1.25-1.016 2.363-1.875 3.34l.703.761.586-.703c.352.586.762 1.094 1.231 1.524-.625.508-1.368.957-2.227 1.347l.82.879c.86-.468 1.602-.957 2.227-1.465.703.547 1.484 1.036 2.344 1.465l.761-.937c-.937-.391-1.738-.821-2.402-1.289.664-.742 1.133-1.582 1.406-2.52h.821v-.996h-3.868l.469-1.113zm-7.266 2.285-.351 1.699h-1.172v.938h.996l-.352 1.758h4.395v.351h.996l.059-.351h.527v-.879h-.469l.117-.879h.938v-.938h-.82l.234-1.699zm7.325.117h2.402c-.195.664-.547 1.289-1.055 1.875-.508-.508-.976-1.094-1.406-1.758.039-.039.059-.078.059-.117zm-6.446.703h.762c.195.235.391.528.586.879h-1.524zm1.699 0h1.465l-.117.879h-.762zm-1.992 1.817h.762c.195.234.41.527.645.879h-1.582zm1.758 0h1.465l-.176.879h-.762c-.156-.313-.332-.606-.527-.879zm5.684 1.933c-1.25.742-2.11 1.153-2.578 1.231-.704.117-1.954.195-3.75.234.625-.195 1.25-.488 1.875-.879l-.762-.527c-.781.547-1.758.976-2.93 1.289l.117.82c1.172 0 2.364-.039 3.575-.117-1.25.469-2.774.879-4.571 1.231l.176.937c1.758 0 3.535-.059 5.332-.176v1.231c0 .312-.117.469-.351.469-.43 0-.86-.059-1.29-.176l.176 1.054c.352.079.723.118 1.114.118.625 0 1.035-.098 1.23-.293.195-.196.293-.528.293-.996v-1.524c1.328-.117 2.656-.273 3.984-.469.313.313.586.645.821.996l1.113-.527c-.781-.937-1.719-1.797-2.813-2.578l-1.054.469c.429.273.82.586 1.172.937-1.563.313-3.965.528-7.207.645 2.617-.586 5.039-1.504 7.265-2.754zm-.879 4.278-.469.937c1.289.313 2.578.742 3.867 1.289l.469-.996c-1.211-.469-2.5-.879-3.867-1.23zm-4.688.117c-1.133.469-2.383.84-3.75 1.113l.703.996c1.485-.39 2.754-.898 3.809-1.523zm-5.363 3.285v1h16v-1z"/></svg>