<svg height="22" width="22" xmlns="http://www.w3.org/2000/svg">
  <defs>
    <style type="text/css" id="current-color-scheme">.ColorScheme-Highlight { color:#000000; }</style>
  </defs><path class="ColorScheme-Highlight" fill="currentColor" d="m3 3v16h16v-16zm2 2h5.548828l-.05078.5488281s-.328139 3.521106-1.2246095 6.1289059c.5826734.8731 1.1390045 1.775219 1.8378905 3.011719l-.86914.490235c-.5388845-.953401-.9847126-1.6884-1.4218755-2.375-1.3944413 3.1253-3.3652344 4.488281-3.3652344 4.488281l-.5566416-.832031s1.9703908-1.31395 3.2636719-4.65625c-.7656536-1.106401-1.6353013-2.2214347-3.0527344-3.9902349l.78125-.6269531c1.1812699 1.4742002 1.9734186 2.492278 2.6679688 3.455078.5509566-1.9057001.7981466-3.9991779.8691406-4.642578h-4.4277344zm6 0h6v.5c0 2.1466003-.832862 4.968103-1.707031 6.908203-.110964.2463-.241608.465959-.367188.693359.62377 1.083401 1.46019 2.113469 2.84375 3.230469l-.626953.779297c-1.281085-1.0343-2.147062-2.040853-2.802734-3.064453-1.393199 1.9869-3.103516 3.037109-3.103516 3.037109l-.517578-.855468s1.7803-1.100778 3.068359-3.142578c-.337692-.648401-.621437-1.307288-.886718-1.992188-.758085-1.9570002-1.208613-4.5021499-1.310547-5.09375h-.589844zm1.607422 1c.139266.7654001.568348 3.0333217 1.226562 4.732422.173508.4479.351003.86735.539063 1.28125.0025-.006.0053-.0056.0078-.01563.756947-1.68 1.434346-4.1449468 1.542969-5.998047h-3.316406z"/></svg>