<svg height="22" width="22" xmlns="http://www.w3.org/2000/svg">
  <defs>
    <style type="text/css" id="current-color-scheme">.ColorScheme-Highlight { color:#000000; }</style>
  </defs><path class="ColorScheme-Highlight" fill="currentColor" d="m3 3v.5 15.5h16v-16zm1 1h14v14h-14zm4.979 2.979v3 3 2h1v-2.293l2.293 2.293h.707.707.293v-2.293l2.293 2.293h1.414l-3-3 3-3h-1.414l-2.293 2.293v-4.293h-1v2h-.707l-2.293 2.293v-4.293zm0 6c0-.583-.154-1.111-.521-1.479-.368-.367-.896-.521-1.479-.521-.417 0-.639-.096-.771-.229-.133-.132-.229-.354-.229-.771s.096-.639.229-.771c.132-.133.354-.229.771-.229s.639.096.771.229c.133.132.229.354.229.771h1c0-.583-.154-1.111-.521-1.479-.368-.367-.896-.521-1.479-.521s-1.111.154-1.479.521c-.367.368-.521.896-.521 1.479s.154 1.111.521 1.479c.368.367.896.521 1.479.521.417 0 .639.096.771.229.133.132.229.354.229.771s-.096.639-.229.771c-.132.133-.354.229-.771.229s-.639-.096-.771-.229c-.133-.132-.229-.354-.229-.771h-1c0 .583.154 1.111.521 1.479.368.367.896.521 1.479.521s1.111-.154 1.479-.521c.367-.368.521-.896.521-1.479zm4-3.293v4.586l-2.293-2.293z"/></svg>