<svg fill="black" clip-rule="evenodd" fill-rule="evenodd" stroke-linejoin="round" stroke-miterlimit="2" viewBox="0 0 245 210" xmlns="http://www.w3.org/2000/svg"><path d="m7.144 3.567h7.776c1.298 0 2.556.471 3.554 1.331l12.589 10.352c1.267 1.093 2 2.712 2 4.419v6.263c0 1.186-.455 2.324-1.265 3.162-.81.839-1.909 1.311-3.055 1.311h-21.599c-1.146 0-2.244-.472-3.055-1.311-.81-.838-1.265-1.976-1.265-3.162v-17.892c0-1.187.455-2.324 1.265-3.163.811-.839 1.909-1.31 3.055-1.31zm0 2.226c-.575 0-1.127.237-1.534.658-.407.422-.636.993-.636 1.589v17.892c0 .595.229 1.167.636 1.588s.959.658 1.534.658h21.599c.576 0 1.128-.237 1.535-.658s.635-.993.635-1.588v-6.263c0-1.046-.449-2.038-1.226-2.708l-12.589-10.352c-.612-.527-1.382-.816-2.178-.816zm.285 3.491c-.56 0-1.015-.448-1.015-1s.455-1 1.015-1h7.043c.56 0 1.014.448 1.014 1s-.454 1-1.014 1zm15.719-2.401c-.33-.269-.459-.726-.322-1.137.138-.412.513-.688.933-.688h6.013c.491 0 .962.202 1.309.561.347.36.542.847.542 1.356v4.712c0 .391-.216.748-.556.919s-.745.126-1.042-.116z" transform="matrix(8.10206 0 0 7.82482 -22.8811 -27.9099)"/><path d="m214.67-137c-21.78 0-40.17-7.5-55.17-22.5s-22.5-33.39-22.5-55.17c0-21.787 7.5-40.12 22.5-55 15-14.887 33.39-22.33 55.17-22.33 21.787 0 40.12 7.443 55 22.33 14.887 14.88 22.33 33.213 22.33 55 0 21.78-7.443 40.17-22.33 55.17-14.88 15-33.213 22.5-55 22.5zm265.71 0c-21.587 0-39.88-7.5-54.88-22.5s-22.5-33.39-22.5-55.17c0-21.787 7.373-40.12 22.12-55 14.747-14.887 32.913-22.33 54.5-22.33s39.88 7.443 54.88 22.33c15 14.88 22.5 33.213 22.5 55 0 21.78-7.373 40.17-22.12 55.17s-32.913 22.5-54.5 22.5zm264.95 0c-21.787 0-40.12-7.5-55-22.5-14.887-15-22.33-33.39-22.33-55.17 0-21.787 7.443-40.12 22.33-55 14.88-14.887 33.213-22.33 55-22.33 21.78 0 40.17 7.443 55.17 22.33 15 14.88 22.5 33.213 22.5 55 0 21.78-7.5 40.17-22.5 55.17s-33.39 22.5-55.17 22.5zm-530.66-266c-21.78 0-40.17-7.373-55.17-22.12s-22.5-32.913-22.5-54.5 7.5-39.88 22.5-54.88 33.39-22.5 55.17-22.5c21.787 0 40.12 7.373 55 22.12 14.887 14.747 22.33 32.913 22.33 54.5s-7.443 39.88-22.33 54.88c-14.88 15-33.213 22.5-55 22.5zm265.71 0c-21.587 0-39.88-7.373-54.88-22.12s-22.5-32.913-22.5-54.5 7.373-39.88 22.12-54.88 32.913-22.5 54.5-22.5 39.88 7.373 54.88 22.12 22.5 32.913 22.5 54.5-7.373 39.88-22.12 54.88-32.913 22.5-54.5 22.5zm264.95 0c-21.787 0-40.12-7.373-55-22.12-14.887-14.747-22.33-32.913-22.33-54.5s7.443-39.88 22.33-54.88c14.88-15 33.213-22.5 55-22.5 21.78 0 40.17 7.373 55.17 22.12s22.5 32.913 22.5 54.5-7.5 39.88-22.5 54.88-33.39 22.5-55.17 22.5zm-530.66-265c-21.78 0-40.17-7.443-55.17-22.33-15-14.88-22.5-33.213-22.5-55 0-21.78 7.5-40.17 22.5-55.17s33.39-22.5 55.17-22.5c21.787 0 40.12 7.5 55 22.5 14.887 15 22.33 33.39 22.33 55.17 0 21.787-7.443 40.12-22.33 55-14.88 14.887-33.213 22.33-55 22.33zm265.71 0c-21.587 0-39.88-7.443-54.88-22.33-15-14.88-22.5-33.213-22.5-55 0-21.78 7.373-40.17 22.12-55.17s32.913-22.5 54.5-22.5 39.88 7.5 54.88 22.5 22.5 33.39 22.5 55.17c0 21.787-7.373 40.12-22.12 55-14.747 14.887-32.913 22.33-54.5 22.33zm264.95 0c-21.787 0-40.12-7.443-55-22.33-14.887-14.88-22.33-33.213-22.33-55 0-21.78 7.443-40.17 22.33-55.17 14.88-15 33.213-22.5 55-22.5 21.78 0 40.17 7.5 55.17 22.5s22.5 33.39 22.5 55.17c0 21.787-7.5 40.12-22.5 55-15 14.887-33.39 22.33-55.17 22.33z" fill-rule="nonzero" transform="matrix(.146921 0 0 .146921 51.9781 200.662)"/></svg>