<svg fill="black" width="100%" height="100%" viewBox="0 0 48 48" version="1.1" xmlns="http://www.w3.org/2000/svg" xmlns:xlink="http://www.w3.org/1999/xlink" xml:space="preserve" xmlns:serif="http://www.serif.com/" style="fill-rule:evenodd;clip-rule:evenodd;stroke-linejoin:round;stroke-miterlimit:2;">
    <g transform="matrix(2.18027,0,0,2.18027,-2.1633,-2.1633)">
        <path d="M22,12C22,17.523 17.523,22 12,22C6.477,22 2,17.523 2,12C2,6.477 6.477,2 12,2C17.523,2 22,6.477 22,12ZM20,12C20,7.582 16.418,4 12,4C7.582,4 4,7.582 4,12C4,16.418 7.582,20 12,20C16.418,20 20,16.418 20,12ZM6,11.6C6,10.795 6.061,10.4 6.218,10.092C6.41,9.716 6.716,9.41 7.092,9.218C7.4,9.061 7.795,9 8.6,9L15.4,9C16.205,9 16.6,9.061 16.908,9.218C17.284,9.41 17.59,9.716 17.782,10.092C17.939,10.4 18,10.795 18,11.6L18,12.4C18,13.205 17.939,13.6 17.782,13.908C17.59,14.284 17.284,14.59 16.908,14.782C16.6,14.939 16.205,15 15.4,15L8.6,15C7.795,15 7.4,14.939 7.092,14.782C6.716,14.59 6.41,14.284 6.218,13.908C6.061,13.6 6,13.205 6,12.4L6,11.6ZM8.968,11.013C8.435,11.029 8.011,11.466 8.011,11.999L8.012,12.003C8.012,12.535 8.434,12.971 8.966,12.987C10.499,12.989 13.498,12.989 15.032,12.987C15.565,12.971 15.989,12.534 15.989,12.001L15.988,11.997C15.988,11.465 15.565,11.029 15.034,11.013C13.501,11.011 10.502,11.011 8.968,11.013Z"/>
    </g>
</svg>
