<svg fill="black" width="100%" height="100%" viewBox="0 0 48 48" version="1.1" xmlns="http://www.w3.org/2000/svg" xmlns:xlink="http://www.w3.org/1999/xlink" xml:space="preserve" xmlns:serif="http://www.serif.com/" style="fill-rule:evenodd;clip-rule:evenodd;stroke-linejoin:round;stroke-miterlimit:2;">
    <g transform="matrix(0.05,0,0,0.05,0,48.025)">
        <path d="M139,-62C112.693,-62 90.283,-71.157 71.77,-89.47C53.257,-107.79 44,-129.967 44,-156L44,-803C44,-829.307 53.257,-851.883 71.77,-870.73C90.283,-889.577 112.693,-899 139,-899L823,-899C848.56,-899 870.45,-889.577 888.67,-870.73C906.89,-851.883 916,-829.307 916,-803L916,-156C916,-129.967 906.89,-107.79 888.67,-89.47C870.45,-71.157 848.56,-62 823,-62L139,-62ZM325,-218.152C325,-183.827 352.827,-156 387.152,-156C441.868,-156 521.132,-156 575.848,-156C610.173,-156 638,-183.827 638,-218.152C638,-341.775 638,-617.225 638,-740.848C638,-775.173 610.173,-803 575.848,-803C521.132,-803 441.868,-803 387.152,-803C352.827,-803 325,-775.173 325,-740.848C325,-617.225 325,-341.775 325,-218.152ZM325,-803L638,-803L325,-803ZM139,-190.023C139,-180.999 142.584,-172.345 148.965,-165.965C155.345,-159.584 163.999,-156 173.023,-156C180.526,-156 188.474,-156 195.977,-156C205.001,-156 213.655,-159.584 220.035,-165.965C226.416,-172.345 230,-180.999 230,-190.023C230,-197.526 230,-205.474 230,-212.977C230,-222.001 226.416,-230.655 220.035,-237.035C213.655,-243.416 205.001,-247 195.977,-247C188.474,-247 180.526,-247 173.023,-247C163.999,-247 155.345,-243.416 148.965,-237.035C142.584,-230.655 139,-222.001 139,-212.977L139,-190.023ZM731,-190.023C731,-180.999 734.584,-172.345 740.965,-165.965C747.345,-159.584 755.999,-156 765.023,-156C772.842,-156 781.158,-156 788.977,-156C798.001,-156 806.655,-159.584 813.035,-165.965C819.416,-172.345 823,-180.999 823,-190.023C823,-197.526 823,-205.474 823,-212.977C823,-222.001 819.416,-230.655 813.035,-237.035C806.655,-243.416 798.001,-247 788.977,-247C781.158,-247 772.842,-247 765.023,-247C755.999,-247 747.345,-243.416 740.965,-237.035C734.584,-230.655 731,-222.001 731,-212.977C731,-205.474 731,-197.526 731,-190.023ZM139,-374.023C139,-364.999 142.584,-356.345 148.965,-349.965C155.345,-343.584 163.999,-340 173.023,-340C180.526,-340 188.474,-340 195.977,-340C205.001,-340 213.655,-343.584 220.035,-349.965C226.416,-356.345 230,-364.999 230,-374.023C230,-381.842 230,-390.158 230,-397.977C230,-407.001 226.416,-415.655 220.035,-422.035C213.655,-428.416 205.001,-432 195.977,-432C188.474,-432 180.526,-432 173.023,-432C163.999,-432 155.345,-428.416 148.965,-422.035C142.584,-415.655 139,-407.001 139,-397.977C139,-390.158 139,-381.842 139,-374.023ZM731,-374.023C731,-364.999 734.584,-356.345 740.965,-349.965C747.345,-343.584 755.999,-340 765.023,-340C772.842,-340 781.158,-340 788.977,-340C798.001,-340 806.655,-343.584 813.035,-349.965C819.416,-356.345 823,-364.999 823,-374.023C823,-381.842 823,-390.158 823,-397.977C823,-407.001 819.416,-415.655 813.035,-422.035C806.655,-428.416 798.001,-432 788.977,-432C781.158,-432 772.842,-432 765.023,-432C755.999,-432 747.345,-428.416 740.965,-422.035C734.584,-415.655 731,-407.001 731,-397.977L731,-374.023ZM139,-560.023C139,-550.999 142.584,-542.345 148.965,-535.965C155.345,-529.584 163.999,-526 173.023,-526C180.526,-526 188.474,-526 195.977,-526C205.001,-526 213.655,-529.584 220.035,-535.965C226.416,-542.345 230,-550.999 230,-560.023C230,-567.842 230,-576.158 230,-583.977C230,-593.001 226.416,-601.655 220.035,-608.035C213.655,-614.416 205.001,-618 195.977,-618C188.474,-618 180.526,-618 173.023,-618C163.999,-618 155.345,-614.416 148.965,-608.035C142.584,-601.655 139,-593.001 139,-583.977C139,-576.158 139,-567.842 139,-560.023ZM731,-560.023C731,-550.999 734.584,-542.345 740.965,-535.965C747.345,-529.584 755.999,-526 765.023,-526C772.842,-526 781.158,-526 788.977,-526C798.001,-526 806.655,-529.584 813.035,-535.965C819.416,-542.345 823,-550.999 823,-560.023C823,-567.842 823,-576.158 823,-583.977C823,-593.001 819.416,-601.655 813.035,-608.035C806.655,-614.416 798.001,-618 788.977,-618C781.158,-618 772.842,-618 765.023,-618C755.999,-618 747.345,-614.416 740.965,-608.035C734.584,-601.655 731,-593.001 731,-583.977L731,-560.023ZM139,-746.023C139,-736.999 142.584,-728.345 148.965,-721.965C155.345,-715.584 163.999,-712 173.023,-712C180.526,-712 188.474,-712 195.977,-712C205.001,-712 213.655,-715.584 220.035,-721.965C226.416,-728.345 230,-736.999 230,-746.023C230,-753.526 230,-761.474 230,-768.977C230,-778.001 226.416,-786.655 220.035,-793.035C213.655,-799.416 205.001,-803 195.977,-803C188.474,-803 180.526,-803 173.023,-803C163.999,-803 155.345,-799.416 148.965,-793.035C142.584,-786.655 139,-778.001 139,-768.977L139,-746.023ZM731,-746.023C731,-736.999 734.584,-728.345 740.965,-721.965C747.345,-715.584 755.999,-712 765.023,-712C772.842,-712 781.158,-712 788.977,-712C798.001,-712 806.655,-715.584 813.035,-721.965C819.416,-728.345 823,-736.999 823,-746.023C823,-753.526 823,-761.474 823,-768.977C823,-778.001 819.416,-786.655 813.035,-793.035C806.655,-799.416 798.001,-803 788.977,-803C781.158,-803 772.842,-803 765.023,-803C755.999,-803 747.345,-799.416 740.965,-793.035C734.584,-786.655 731,-778.001 731,-768.977C731,-761.474 731,-753.526 731,-746.023Z" style="fill-rule:nonzero;"/>
    </g>
</svg>
