<svg fill="black" clip-rule="evenodd" fill-rule="evenodd" stroke-linejoin="round" stroke-miterlimit="2" viewBox="0 0 245 210" xmlns="http://www.w3.org/2000/svg"><path d="m7.144 3.567h7.776c1.298 0 2.556.471 3.554 1.331l12.589 10.352c1.267 1.093 2 2.712 2 4.419v6.263c0 1.186-.455 2.324-1.265 3.162-.81.839-1.909 1.311-3.055 1.311h-21.599c-1.146 0-2.244-.472-3.055-1.311-.81-.838-1.265-1.976-1.265-3.162v-17.892c0-1.187.455-2.324 1.265-3.163.811-.839 1.909-1.31 3.055-1.31zm0 2.226c-.575 0-1.127.237-1.534.658-.407.422-.636.993-.636 1.589v17.892c0 .595.229 1.167.636 1.588s.959.658 1.534.658h21.599c.576 0 1.128-.237 1.535-.658s.635-.993.635-1.588v-6.263c0-1.046-.449-2.038-1.226-2.708l-12.589-10.352c-.612-.527-1.382-.816-2.178-.816zm.285 3.491c-.56 0-1.015-.448-1.015-1s.455-1 1.015-1h7.043c.56 0 1.014.448 1.014 1s-.454 1-1.014 1zm15.719-2.401c-.33-.269-.459-.726-.322-1.137.138-.412.513-.688.933-.688h6.013c.491 0 .962.202 1.309.561.347.36.542.847.542 1.356v4.712c0 .391-.216.748-.556.919s-.745.126-1.042-.116z" transform="matrix(8.10206 0 0 7.82482 -22.8811 -27.9099)"/><path d="m843.135-841.239c.009 11.723 6.191 22.574 16.271 28.559 6.775 3.706 12.993 8.619 18.824 14.45 18.513 18.513 27.77 40.923 27.77 67.23v502c0 26.033-9.257 48.207-27.77 66.52-18.513 18.32-40.923 27.48-67.23 27.48h-662c-26.033 0-48.21-9.16-66.53-27.48-18.313-18.313-27.47-40.487-27.47-66.52v-502c0-26.307 9.157-48.717 27.47-67.23 5.899-5.961 12.198-10.963 18.897-15.005 9.995-5.917 16.125-16.67 16.125-28.285.373-59.474.373-227.57.373-227.57 0-19.96 16.178-36.14 36.135-36.14h653c19.957 0 36.135 16.18 36.135 36.14zm-694.135 188.239v424h662v-424l-304.9 204.97c-4.607 2.687-8.943 4.697-13.01 6.03-4.06 1.333-8.423 2-13.09 2s-9.03-.667-13.09-2c-4.067-1.333-8.403-3.343-13.01-6.03zm41.135-53.836 289.865 193.836 290.865-193.91v-326.05h-580.73zm84.112-113.713c-8.024 0-14.803-2.779-20.336-8.337-5.538-5.554-8.306-12.359-8.306-20.415 0-8.053 2.768-14.821 8.306-20.306 5.533-5.484 12.312-8.227 20.336-8.227h411.961c8.024 0 14.906 2.779 20.647 8.337 5.737 5.554 8.605 12.359 8.605 20.415 0 8.053-2.868 14.821-8.605 20.306-5.741 5.484-12.623 8.227-20.647 8.227zm0-105.031c-8.024 0-14.803-2.779-20.336-8.337-5.538-5.553-8.306-12.562-8.306-21.024 0-8.053 2.768-14.821 8.306-20.306 5.533-5.484 12.312-8.227 20.336-8.227h411.961c8.024 0 14.906 2.779 20.647 8.337 5.737 5.554 8.605 12.359 8.605 20.415 0 8.459-2.868 15.43-8.605 20.915-5.741 5.485-12.623 8.227-20.647 8.227zm0 213.393c-8.024 0-14.803-2.778-20.336-8.336-5.538-5.554-8.306-12.562-8.306-21.025 0-8.052 2.768-14.821 8.306-20.305 5.533-5.485 12.312-8.228 20.336-8.228h265.703c8.024 0 14.906 2.779 20.647 8.337 5.736 5.554 8.604 12.359 8.604 20.415 0 8.459-2.868 15.431-8.604 20.915-5.741 5.485-12.623 8.227-20.647 8.227z" transform="matrix(.10826 0 0 .10826 70.4812 195.149)"/></svg>