<svg height="32" viewBox="0 0 8.46666644 8.46666656" width="32" xmlns="http://www.w3.org/2000/svg"><path fill="rgb(165, 135, 95)" d="m4.864.395.029.207-.066.233c-.008.028-.015.055-.023.081l-.051.179-.023-.057c-.011-.026-.024-.055-.035-.087l-.043-.108.031-.202.072-.107.024-.272zm.276 5.405c.119.276.148.599.06.939-.133.517-.533.759-.943.857-.554.098-.989-.208-1.097-.605-.007-.056-.005-.129.007-.186.012-.053.04-.08.025-.073.044-.027.073-.073.08-.126.019-.133-.108-.238-.229-.188-.05.018-.154.06-.252.156-.038.037-.048.046-.069.069-.037-.072-.079-.135-.117-.195-.002-.002-.004-.002-.005-.004.019-.686.513-1.274 1.187-1.36.045-.006.089-.01.135-.011.517-.012.98.281 1.218.727zm-1.956.937c.003-.002.006-.004.008-.005-.003.002-.005.004-.008.005zm-.608-2.182.104.397-.036.227c-.116.162-.198.349-.242.544-.008-.016-.016-.031-.024-.048l-.109-.199.013-.399.114-.226-.016-.534zm2.025-2.582.011.982c.001.008.002.016.003.024l.042.276c-.016-.015-.03-.031-.045-.047l-.122-.128-.238-.39c.005-.021.011-.04.018-.058l.152-.48.106-.205c.035-.081.074-.159.119-.231zm-.546-.425c-.003.009-.006.018-.009.027l-.061.418.045.494.125.358c.012.022.024.044.037.065l.164.216c.009.01.019.02.029.031l.525.454c.178.141.363.289.542.468l.006.006.002.003c.08.08.157.166.232.261.233.294.388.614.463.918.093.373.125.817.023 1.247-.178.746-.714 1.407-1.614 1.632-1.329.356-2.526-.96-2.314-2.129-.002.013.022-.101.02-.088-.087.528.393.729.306.976.179-.051.182-.096.319-.225.081-.077.149-.099.204-.118-.096.057-.138.284-.111.452.137.512.706.876 1.382.759.479-.11.978-.401 1.14-1.007.308-1.148-.604-2.211-1.979-1.97-.122-.216-.134-.344-.197-.616h-.001v-.003c-.067-.286-.099-.591-.09-.899l.07-.613.186-.558.307-.508.285-.295.001-.001c.074-.063.152-.124.237-.183z"/></svg>