<svg height="48" width="48" xmlns="http://www.w3.org/2000/svg"><path fill="rgb(165, 135, 95)" d="m12.881 4h-.001c-.001 0-.001 0-.002 0zm-.001 0c4.707.001 8.234 2.353 8.234 13.529 0 9.118-2.454 12.36-5.829 13.246.426 3.649 3.476 2.636 3.476 2.636v2.353s-7.563 2.138-8.175-4.964c-3.432-.842-5.942-4.052-5.942-13.271 0-11.176 3.527-13.528 8.236-13.529zm-.002 2.352c-2.35 0-3.53 1.946-3.53 11.177 0 9.232 1.18 11.177 3.53 11.177 2.348 0 3.528-1.946 3.528-11.177 0-9.232-1.18-11.177-3.528-11.177zm12.944 37.648v-1.285h.002v-4.02h.004l15.872-15.871.004.002.002-.002 5.294 5.294-.002.002.002.002-7.995 7.997-7.877 7.876v.005zm1.173-37.648h3.529v4.706h2.349v2.353h-2.349v12.941c0 2.353 2.349.588 2.349.588v2.353s-7.058 4.116-7.058-2.941v-12.941h-1.18v-2.353h1.18z"/></svg>