<svg height="32" width="32" xmlns="http://www.w3.org/2000/svg">
  <defs>
    <style type="text/css" id="current-color-scheme">.ColorScheme-Highlight { color:#000000; } .ColorScheme-Text { color:#ffffff; }</style>
  </defs><path d="m27.123 5.516c.238-.116.379-.209.702-.284.252-.045.683-.114.683-.114.213-.034.427.05.56.219 0 0 .218.292.392.672.096.258.142.482.165.619.109.265.239.653.239 1.023 0 .42-.158.899-.408 1.316.906 1.921 1.438 4.127 1.438 6.389 0 4.07-1.7 7.869-4.362 10.532-2.663 2.662-6.462 4.362-10.532 4.362s-7.869-1.7-10.532-4.362c-2.662-2.663-4.362-6.462-4.362-10.532s1.7-7.869 4.362-10.53c2.663-2.662 6.453-4.336 10.522-4.361 5.099-.017 8.131 2.172 11.133 5.051zm-21.161 2.31c-.653 1.058-1.138 2.177-1.452 3.346.48-.178 1.143-.551 2.057-.786.867-.205 2.596-.964 3.139-1.267.817-.335 1.839-.034 2.824-.159 1.655-.443 2.08-.698 2.522-.973l-.025-.284c-.02-.208.073-.412.244-.535.169-.123.392-.148.585-.064 0 0 .189.113.734.146.443-.012 1.172.002 2.813.155 1.262.163 1.575-.028 2.516-.27.731-.181 1.954-.71 3.364-1.061-2.354-2.401-5.195-3.722-8.918-3.703-.003 0-.006 0-.009 0-4.214-.034-8.034 1.964-10.394 5.455zm-1.832 5.525c-.031.368-.046.739-.045 1.113 0 1.49.188 2.525.568 3.741-.014.006-.137.061.054-.024l-.002-.021c-.016-.161.035-.322.141-.445.106-.122.256-.197.419-.206 0 0 .408.062 1.042-.423.286-.296.147-.151.234-.242-.602-.575-1.111-1.171-1.813-2.352-.227-.382-.437-.778-.598-1.141zm.523 4.854c.001-.001.001-.001 0 0zm24.326-2.645c-.23.213-.525.412-.807.508-.531.123-2.964.722-3.407 1.092-.589.453-1.867 1.38-2.799 2.807-.25.598-.168 1.164-.168 1.164.015.167-.039.333-.153.457-.113.124-.273.194-.441.194h-.113c-.065.219-.094.292-.153.693-.061 1.704.449 3.094.449 3.094.063.179.037.38-.073.537-.108.157-.287.253-.478.256 0 0-.08-.056-.152.007-.028.293.019-.089-.036.332.938-.286 1.573-.53 2.68-1.178 3.443-2.239 5.507-5.887 5.651-9.963zm-.148-2.67c-.159-.975-.439-1.858-.84-2.792-.379.274-.63.394-1.035 1.066-.738 1.144-.726 1.232-.949 1.676.122.035-.134-.061.339.108.021-.033.044-.064.065-.09.078-.093.193-.209.289-.279.114-.085.437-.146.68-.144.01.006.018.012.027.019.061-.066.127-.128.19-.179.143-.05.297-.045.434.013.039.007.074.017.096.029.068.035.159.104.204.149.08.075.175.196.233.287.018.026.036.057.054.089zm-12.787-1.66c-.678.687-.412.564-.488.819.589-.115 1.097-.128 1.737-.537 1.01-.595 1.519-1.043 1.803-1.378-.188-.029-.407-.048-.651-.038-.798-.002-1.665.166-2.401 1.134zm-8.8 1.121c.004-.001.031.005.001.009-.324.003-.91.125-1.276.225.155.288.376.655.631 1.047.523.807 1.105 1.594 1.4 1.821.611.469 2.189.762 2.989.63.782-.113 1.204-.155 1.414-.197-.036-.115-.094-.272-.178-.495-.089-.358-.516-.641-1.157-.803-.654-.166-1.255-.156-1.795.474-.234.232-.61.232-.844 0l-.715-.715c-.203-.204-.232-.524-.068-.761.164-.084.037-.303-.125-.688-.157-.376-.249-.593-.277-.547z"/></svg>