<?xml version="1.0" encoding="utf-8"?>
<svg xmlns="http://www.w3.org/2000/svg" height="48" viewBox="0 -960 960 960" width="48">
  <path fill="rgb(0, 200, 170)" d="M 479.774 -175.5 C 433.304 -175.5 392.435 -192.767 360.926 -224.424 C 330.047 -256.719 313.323 -298.272 313.323 -345.57 C 313.323 -362.842 317 -381.35 323.728 -399.216 C 330.484 -416.895 340.226 -435.236 352.415 -453.339 C 364.563 -471.287 379.278 -489.801 396.09 -508.152 C 412.836 -526.424 431.848 -545.219 451.901 -563.464 C 455.976 -566.678 461.158 -569.528 465.423 -571.148 C 469.689 -572.512 475.042 -573.5 479.828 -573.5 C 484.607 -573.5 490.222 -572.416 494.465 -571.048 C 498.686 -569.429 504.019 -566.295 508.084 -563.088 C 528.138 -544.842 546.708 -526.428 563.455 -508.157 C 580.266 -489.806 594.987 -471.285 607.133 -453.337 C 619.316 -435.251 629.122 -416.949 636.017 -399.289 C 642.9 -381.41 646.677 -362.867 646.677 -345.57 C 646.677 -298.263 629.85 -256.691 598.822 -224.396 C 567.172 -192.747 526.24 -175.5 479.774 -175.5 Z M 479.838 -238.99 C 510.339 -238.99 533.594 -248.121 553.359 -269.232 C 573.786 -289.823 582.734 -314.015 582.734 -345.57 C 582.734 -365.963 574.305 -388.722 555.566 -416.598 C 536.739 -444.928 516.483 -468.846 479.774 -502.563 C 446.618 -471.447 422.808 -444.927 403.982 -416.597 C 385.244 -388.722 376.814 -365.963 376.814 -345.57 C 376.814 -314.018 385.778 -289.826 406.248 -269.237 C 426.061 -248.122 449.334 -238.99 479.838 -238.99 Z M 229 -55 C 202.967 -55 180.793 -64.157 162.48 -82.47 C 144.16 -100.79 135 -122.967 135 -149 L 135 -811 C 135 -837.307 144.16 -859.717 162.48 -878.23 C 180.793 -896.743 202.967 -906 229 -906 L 552 -906 C 565.04 -906 577.467 -903.333 589.28 -898 C 601.093 -892.667 611.333 -885.667 620 -877 L 797 -700 C 805.667 -691.333 812.667 -681.093 818 -669.28 C 823.333 -657.467 826 -645.04 826 -632 L 826 -149 C 826 -122.967 816.743 -100.79 798.23 -82.47 C 779.717 -64.157 757.307 -55 731 -55 Z M 542 -672 L 542 -811 L 229 -811 L 229 -149 L 731 -149 L 731 -625 L 589 -625 C 575.833 -625 564.71 -629.543 555.63 -638.63 C 546.543 -647.71 542 -658.833 542 -672 Z M 434.107 -276.77 C 417.987 -287.92 406.69 -306.93 402.216 -330.71 C 401.768 -335.72 403.308 -342.05 406.017 -346.34 C 409.78 -350.54 416.527 -354.26 422.571 -354.26 C 427.428 -354.26 433.312 -351.51 436.893 -348.61 C 439.909 -345.49 442.609 -340.71 443.659 -336.74 C 446.057 -323.62 450.162 -315.85 457.694 -310.6 C 465.058 -304.66 472.815 -302.5 483.742 -302.5 C 490.383 -302.5 497.305 -300.3 501.861 -297.21 C 506.069 -293.42 509.712 -286.94 509.712 -281.24 C 509.712 -275.61 505.678 -269.13 501.256 -265.51 C 496.751 -262.7 490.221 -260.76 484.134 -260.76 C 467.421 -260.76 449.913 -266.51 434.107 -276.77 Z"/>
</svg>