<?xml version="1.0" encoding="utf-8"?>
<svg xmlns="http://www.w3.org/2000/svg" height="48" viewBox="0 -960 960 960" width="48">
  <path fill="rgb(0, 200, 170)" d="M 229 -55 C 202.967 -55 180.793 -64.157 162.48 -82.47 C 144.16 -100.79 135 -122.967 135 -149 L 135 -811 C 135 -837.307 144.16 -859.717 162.48 -878.23 C 180.793 -896.743 202.967 -906 229 -906 L 552 -906 C 565.04 -906 577.467 -903.333 589.28 -898 C 601.093 -892.667 611.333 -885.667 620 -877 L 797 -700 C 805.667 -691.333 812.667 -681.093 818 -669.28 C 823.333 -657.467 826 -645.04 826 -632 L 826 -149 C 826 -122.967 816.743 -100.79 798.23 -82.47 C 779.717 -64.157 757.307 -55 731 -55 L 229 -55 Z M 542 -672 L 542 -811 L 229 -811 L 229 -149 L 731 -149 L 731 -625 L 589 -625 C 575.833 -625 564.71 -629.543 555.63 -638.63 C 546.543 -647.71 542 -658.833 542 -672 Z M 502.666 -480.58 C 510.853 -480.318 519.236 -476.959 525.195 -471.463 C 530.717 -465.568 534.448 -457.13 534.448 -448.9 C 534.448 -440.672 530.73 -432.243 525.219 -426.332 C 519.298 -420.778 510.91 -417.296 502.666 -417.01 L 328.306 -417.01 L 328.306 -296.65 L 631.575 -296.65 L 631.575 -330.48 C 632.076 -338.242 636.496 -345.856 642.804 -350.198 C 648.744 -353.484 656.175 -355.55 663.224 -355.55 C 671.434 -355.55 679.87 -351.868 685.945 -346.467 C 691.738 -340.555 695.36 -332.053 695.657 -323.76 L 695.657 -264.87 C 695.372 -256.716 691.827 -248.169 686.12 -242.092 C 680.051 -236.429 671.591 -232.868 663.359 -232.57 L 296.523 -232.57 C 288.243 -232.875 279.805 -236.49 273.895 -242.199 C 268.406 -248.271 265.007 -256.763 264.741 -264.87 L 264.741 -448.79 C 265.016 -457.03 268.473 -465.473 274.011 -471.38 C 279.907 -476.829 288.289 -480.294 296.523 -480.58 L 502.666 -480.58 Z M 609.822 -466.3 L 584.947 -466.3 C 578.637 -466.564 571.741 -469.394 567.07 -473.661 C 562.909 -478.351 559.881 -485.086 559.881 -491.58 C 559.881 -497.964 562.989 -504.776 567.229 -509.339 C 571.857 -513.451 578.637 -516.166 584.947 -516.43 L 662.962 -516.43 C 671.148 -516.151 679.551 -512.724 685.627 -507.22 C 691.372 -501.311 694.964 -492.837 695.259 -484.65 L 695.259 -406.12 C 694.974 -399.936 692.192 -393.175 687.978 -388.478 C 683.215 -384.084 676.317 -381.06 669.955 -381.06 C 663.575 -381.06 656.687 -384.159 652.047 -388.611 C 648.039 -393.294 645.393 -399.988 645.129 -406.12 L 645.129 -431.502 L 592.389 -379.084 C 587.828 -374.923 581.214 -371.76 575.182 -371.76 C 569.268 -371.76 562.626 -374.725 557.81 -378.999 C 553.313 -383.672 550.458 -390.555 550.328 -396.804 C 550.83 -402.847 553.739 -409.392 557.924 -413.992 L 609.822 -466.3 Z"/>
</svg>