<svg version="1.1" xmlns="http://www.w3.org/2000/svg" style="fill:rgba(0,0,0,1.0)" width="256" height="256" viewBox="0 0 37.03125 32.8125">
  <defs>
    <style type="text/css" id="current-color-scheme">.ColorScheme-Highlight { color:#000000; }</style>
  </defs><path class="ColorScheme-Highlight" fill="currentColor" d="M2.750000 32.812500 L30.703125 32.812500 C31.453129 32.812500 32.096351 32.544274 32.632812 32.007812 C33.169274 31.471351 33.437500 30.828129 33.437500 30.078125 L33.437500 2.734375 C33.437500 1.984371 33.169274 1.341149 32.632812 0.804688 C32.096351 0.268226 31.453129 -0.000000 30.703125 -0.000000 L2.734375 -0.000000 C1.984371 -0.000000 1.341149 0.268226 0.804688 0.804688 C0.268226 1.341149 0.000000 1.984371 0.000000 2.734375 L0.000000 30.093750 C0.000000 30.833337 0.270831 31.471351 0.812500 32.007812 C1.354169 32.544274 1.999996 32.812500 2.750000 32.812500 Z M0.937500 28.406250 L32.484375 28.406250 L32.484375 26.531250 L0.937500 26.531250 Z M0.937500 23.984375 L32.484375 23.984375 L32.484375 22.109375 L0.937500 22.109375 Z M0.937500 19.562500 L32.484375 19.562500 L32.484375 17.687500 L0.937500 17.687500 Z M3.062500 31.093750 C2.739582 31.093750 2.460939 30.979168 2.226562 30.750000 C1.992186 30.520832 1.875000 30.250002 1.875000 29.937500 L1.875000 2.890625 C1.875000 2.578123 1.992186 2.304689 2.226562 2.070312 C2.460939 1.835936 2.734373 1.718750 3.046875 1.718750 L30.390625 1.718750 C30.703127 1.718750 30.976561 1.835936 31.210938 2.070312 C31.445314 2.304689 31.562500 2.578123 31.562500 2.890625 L31.562500 29.921875 C31.562500 30.234377 31.445314 30.507811 31.210938 30.742188 C30.976561 30.976564 30.703127 31.093750 30.390625 31.093750 Z M0.937500 15.140625 L32.484375 15.140625 L32.484375 13.265625 L0.937500 13.265625 Z M0.937500 10.718750 L32.484375 10.718750 L32.484375 8.843750 L0.937500 8.843750 Z M0.937500 6.296875 L32.484375 6.296875 L32.484375 4.421875 L0.937500 4.421875 Z M37.031250 27.343750" /></svg>