<svg version="1.1" xmlns="http://www.w3.org/2000/svg" style="fill:rgba(0,0,0,1.0)" width="256" height="256" viewBox="0 0 38.125 32.8125">
  <defs>
    <style type="text/css" id="current-color-scheme">.ColorScheme-Highlight { color:#000000; }</style>
  </defs><path class="ColorScheme-Highlight" fill="currentColor" d="M17.812500 32.812500 C21.916687 29.677068 25.281237 26.770847 27.906250 24.093750 C30.531263 21.416653 32.473952 18.864595 33.734375 16.437500 C34.994798 14.010405 35.625000 11.609387 35.625000 9.234375 C35.625000 7.911452 35.398440 6.687506 34.945312 5.562500 C34.492185 4.437494 33.856775 3.458337 33.039062 2.625000 C32.221350 1.791663 31.255214 1.145836 30.140625 0.687500 C29.026036 0.229164 27.812507 -0.000000 26.500000 -0.000000 C25.249994 -0.000000 24.057297 0.226560 22.921875 0.679688 C21.786453 1.132815 20.778650 1.765621 19.898438 2.578125 C19.018225 3.390629 18.322919 4.338536 17.812500 5.421875 C17.312498 4.338536 16.619796 3.390629 15.734375 2.578125 C14.848954 1.765621 13.838547 1.132815 12.703125 0.679688 C11.567703 0.226560 10.375006 -0.000000 9.125000 -0.000000 C7.812493 -0.000000 6.598964 0.229164 5.484375 0.687500 C4.369786 1.145836 3.403650 1.791663 2.585938 2.625000 C1.768225 3.458337 1.132815 4.437494 0.679688 5.562500 C0.226560 6.687506 0.000000 7.911452 0.000000 9.234375 C0.000000 11.609387 0.630202 14.010405 1.890625 16.437500 C3.151048 18.864595 5.093737 21.416653 7.718750 24.093750 C10.343763 26.770847 13.708313 29.677068 17.812500 32.812500 Z M15.468750 30.593750 L20.156250 30.593750 L20.781250 28.718750 L14.843750 28.718750 Z M10.328125 26.203125 L25.281250 26.203125 L25.281250 24.328125 L10.328125 24.328125 Z M5.937500 21.968750 L29.671875 21.968750 L29.671875 20.093750 L5.937500 20.093750 Z M3.000000 17.750000 L32.609375 17.750000 L32.609375 15.875000 L3.000000 15.875000 Z M17.812500 30.468750 C14.249982 27.729153 11.289074 25.148450 8.929688 22.726562 C6.570301 20.304675 4.804693 17.981782 3.632812 15.757812 C2.460932 13.533843 1.875000 11.359386 1.875000 9.234375 C1.875000 7.817701 2.184893 6.554693 2.804688 5.445312 C3.424482 4.335932 4.281245 3.463545 5.375000 2.828125 C6.468755 2.192705 7.718743 1.875000 9.125000 1.875000 C10.562507 1.875000 11.817703 2.164060 12.890625 2.742188 C13.963547 3.320315 14.901038 4.122391 15.703125 5.148438 C16.505212 6.174484 17.208330 7.359368 17.812500 8.703125 C18.427086 7.359368 19.132809 6.174484 19.929688 5.148438 C20.726566 4.122391 21.664057 3.320315 22.742188 2.742188 C23.820318 2.164060 25.072910 1.875000 26.500000 1.875000 C27.916674 1.875000 29.169265 2.192705 30.257812 2.828125 C31.346360 3.463545 32.200518 4.335932 32.820312 5.445312 C33.440107 6.554693 33.750000 7.817701 33.750000 9.234375 C33.750000 11.359386 33.164068 13.533843 31.992188 15.757812 C30.820307 17.981782 29.054699 20.304675 26.695312 22.726562 C24.335926 25.148450 21.375018 27.729153 17.812500 30.468750 Z M2.718750 5.062500 L16.187500 5.062500 L15.718750 3.187500 L2.718750 3.187500 Z M1.234375 13.515625 L34.406250 13.515625 L34.406250 11.640625 L1.234375 11.640625 Z M1.078125 9.125000 L34.546875 9.125000 L34.546875 7.250000 L1.078125 7.250000 Z M19.437500 5.062500 L32.906250 5.062500 L32.906250 3.187500 L19.906250 3.187500 Z M38.125000 27.343750" /></svg>