<svg version="1.1" xmlns="http://www.w3.org/2000/svg" style="fill:rgba(0,0,0,1.0)" width="256" height="256" viewBox="0 0 36.71875 32.8125">
  <defs>
    <style type="text/css" id="current-color-scheme">.ColorScheme-Highlight { color:#000000; }</style>
  </defs><path class="ColorScheme-Highlight" fill="currentColor" d="M16.421875 32.812500 C14.151030 32.812500 12.023447 32.388025 10.039062 31.539062 C8.054678 30.690100 6.309903 29.513028 4.804688 28.007812 C3.299472 26.502597 2.122400 24.757822 1.273438 22.773438 C0.424475 20.789053 0.000000 18.666678 0.000000 16.406250 C0.000000 14.135405 0.424475 12.010427 1.273438 10.031250 C2.122400 8.052073 3.299472 6.309903 4.804688 4.804688 C6.309903 3.299472 8.054678 2.122400 10.039062 1.273438 C12.023447 0.424475 14.151030 -0.000000 16.421875 -0.000000 C18.682303 -0.000000 20.802073 0.424475 22.781250 1.273438 C24.760427 2.122400 26.502597 3.299472 28.007812 4.804688 C29.513028 6.309903 30.690100 8.052073 31.539062 10.031250 C32.388025 12.010427 32.812500 14.135405 32.812500 16.406250 C32.812500 18.666678 32.388025 20.789053 31.539062 22.773438 C30.690100 24.757822 29.513028 26.502597 28.007812 28.007812 C26.502597 29.513028 24.760427 30.690100 22.781250 31.539062 C20.802073 32.388025 18.682303 32.812500 16.421875 32.812500 Z M16.421875 30.937500 C18.421885 30.937500 20.299470 30.562504 22.054688 29.812500 C23.809905 29.062496 25.354160 28.020840 26.687500 26.687500 C28.020840 25.354160 29.062496 23.809905 29.812500 22.054688 C30.562504 20.299470 30.937500 18.416677 30.937500 16.406250 C30.937500 14.395823 30.562504 12.513030 29.812500 10.757812 C29.062496 9.002595 28.020840 7.458340 26.687500 6.125000 C25.354160 4.791660 23.809905 3.750004 22.054688 3.000000 C20.299470 2.249996 18.421885 1.875000 16.421875 1.875000 C14.411448 1.875000 12.526050 2.249996 10.765625 3.000000 C9.005200 3.750004 7.458340 4.791660 6.125000 6.125000 C4.791660 7.458340 3.750004 9.002595 3.000000 10.757812 C2.249996 12.513030 1.875000 14.395823 1.875000 16.406250 C1.875000 18.416677 2.249996 20.299470 3.000000 22.054688 C3.750004 23.809905 4.791660 25.354160 6.125000 26.687500 C7.458340 28.020840 9.005200 29.062496 10.765625 29.812500 C12.526050 30.562504 14.411448 30.937500 16.421875 30.937500 Z M27.125000 26.531250 L27.125000 28.406250 L5.609375 28.406250 L5.609375 26.531250 Z M31.796875 17.687500 L31.796875 19.562500 L1.171875 19.562500 L1.171875 17.687500 Z M30.390625 22.109375 L30.390625 23.984375 L2.421875 23.984375 L2.421875 22.109375 Z M27.125000 4.421875 L27.125000 6.296875 L5.609375 6.296875 L5.609375 4.421875 Z M31.796875 13.265625 L31.796875 15.140625 L1.171875 15.140625 L1.171875 13.265625 Z M30.390625 8.843750 L30.390625 10.718750 L2.421875 10.718750 L2.421875 8.843750 Z M36.718750 27.343750" /></svg>