<svg version="1.1" xmlns="http://www.w3.org/2000/svg" style="fill:rgba(0,0,0,1.0)" width="256" height="256" viewBox="0 0 36.71875 32.8125">
  <defs>
    <style type="text/css" id="current-color-scheme">.ColorScheme-Highlight { color:#000000; }</style>
  </defs><path class="ColorScheme-Highlight" fill="currentColor" d="M16.406250 32.812500 C14.145822 32.812500 12.023447 32.388025 10.039062 31.539062 C8.054678 30.690100 6.309903 29.513028 4.804688 28.007812 C3.299472 26.502597 2.122400 24.757822 1.273438 22.773438 C0.424475 20.789053 0.000000 18.661470 0.000000 16.390625 C0.000000 14.130197 0.424475 12.010427 1.273438 10.031250 C2.122400 8.052073 3.299472 6.309903 4.804688 4.804688 C6.309903 3.299472 8.054678 2.122400 10.039062 1.273438 C12.023447 0.424475 14.145822 -0.000000 16.406250 -0.000000 C18.677095 -0.000000 20.802073 0.424475 22.781250 1.273438 C24.760427 2.122400 26.502597 3.299472 28.007812 4.804688 C29.513028 6.309903 30.690100 8.052073 31.539062 10.031250 C32.388025 12.010427 32.812500 14.130197 32.812500 16.390625 C32.812500 18.661470 32.388025 20.789053 31.539062 22.773438 C30.690100 24.757822 29.513028 26.502597 28.007812 28.007812 C26.502597 29.513028 24.760427 30.690100 22.781250 31.539062 C20.802073 32.388025 18.677095 32.812500 16.406250 32.812500 Z M16.406250 26.109375 C17.750007 26.109375 19.007807 25.856773 20.179688 25.351562 C21.351568 24.846352 22.382808 24.151046 23.273438 23.265625 C24.164067 22.380204 24.859372 21.348964 25.359375 20.171875 C25.859378 18.994786 26.109375 17.734382 26.109375 16.390625 C26.109375 15.057285 25.859378 13.804693 25.359375 12.632812 C24.859372 11.460932 24.164067 10.429692 23.273438 9.539062 C22.382808 8.648433 21.351568 7.953128 20.179688 7.453125 C19.007807 6.953122 17.750007 6.703125 16.406250 6.703125 C15.062493 6.703125 13.804693 6.953122 12.632812 7.453125 C11.460932 7.953128 10.429692 8.648433 9.539062 9.539062 C8.648433 10.429692 7.953128 11.460932 7.453125 12.632812 C6.953122 13.804693 6.703125 15.057285 6.703125 16.390625 C6.703125 17.734382 6.953122 18.994786 7.453125 20.171875 C7.953128 21.348964 8.648433 22.380204 9.539062 23.265625 C10.429692 24.151046 11.460932 24.846352 12.632812 25.351562 C13.804693 25.856773 15.062493 26.109375 16.406250 26.109375 Z M36.718750 27.343750" /></svg>