<svg version="1.1" xmlns="http://www.w3.org/2000/svg" style="fill:rgba(0,0,0,1.0)" width="256" height="256" viewBox="0 0 38.125 32.8125">
  <defs>
    <style type="text/css" id="current-color-scheme">.ColorScheme-Highlight { color:#000000; }</style>
  </defs><path class="ColorScheme-Highlight" fill="currentColor" d="M17.812500 32.812500 C13.708313 29.677068 10.343763 26.770847 7.718750 24.093750 C5.093737 21.416653 3.151048 18.864595 1.890625 16.437500 C0.630202 14.010405 0.000000 11.609387 0.000000 9.234375 C0.000000 7.911452 0.226560 6.687506 0.679688 5.562500 C1.132815 4.437494 1.768225 3.458337 2.585938 2.625000 C3.403650 1.791663 4.369786 1.145836 5.484375 0.687500 C6.598964 0.229164 7.812493 -0.000000 9.125000 -0.000000 C10.375006 -0.000000 11.567703 0.226560 12.703125 0.679688 C13.838547 1.132815 14.848954 1.765621 15.734375 2.578125 C16.619796 3.390629 17.312498 4.338536 17.812500 5.421875 C18.322919 4.338536 19.018225 3.390629 19.898438 2.578125 C20.778650 1.765621 21.786453 1.132815 22.921875 0.679688 C24.057297 0.226560 25.249994 -0.000000 26.500000 -0.000000 C27.812507 -0.000000 29.026036 0.229164 30.140625 0.687500 C31.255214 1.145836 32.221350 1.791663 33.039062 2.625000 C33.856775 3.458337 34.492185 4.437494 34.945312 5.562500 C35.398440 6.687506 35.625000 7.911452 35.625000 9.234375 C35.625000 11.609387 34.994798 14.010405 33.734375 16.437500 C32.473952 18.864595 30.531263 21.416653 27.906250 24.093750 C25.281237 26.770847 21.916687 29.677068 17.812500 32.812500 Z M9.828125 26.062500 L9.828125 24.500000 L11.781250 24.500000 L11.781250 26.062500 Z M14.828125 30.281250 L14.828125 28.718750 L16.781250 28.718750 L16.781250 30.281250 Z M2.781250 17.593750 L2.781250 16.031250 L8.156250 16.031250 L8.156250 17.593750 Z M0.828125 13.375000 L0.828125 11.812500 L3.281250 11.812500 L3.281250 13.375000 Z M7.875000 21.828125 L7.875000 20.265625 L13.250000 20.265625 L13.250000 21.828125 Z M18.218750 30.281250 L18.218750 28.718750 L20.906250 28.718750 L20.906250 30.281250 Z M13.125000 26.062500 L13.125000 24.500000 L18.500000 24.500000 L18.500000 26.062500 Z M4.531250 13.375000 L4.531250 11.812500 L6.796875 11.812500 L6.796875 13.375000 Z M9.515625 17.593750 L9.515625 16.031250 L11.781250 16.031250 L11.781250 17.593750 Z M14.515625 21.828125 L14.515625 20.265625 L16.781250 20.265625 L16.781250 21.828125 Z M19.859375 26.062500 L19.859375 24.500000 L22.125000 24.500000 L22.125000 26.062500 Z M2.781250 9.140625 L2.781250 7.578125 L8.156250 7.578125 L8.156250 9.140625 Z M7.875000 13.375000 L7.875000 11.812500 L13.250000 11.812500 L13.250000 13.375000 Z M13.125000 17.593750 L13.125000 16.031250 L18.500000 16.031250 L18.500000 17.593750 Z M23.484375 26.062500 L23.484375 24.500000 L25.765625 24.500000 L25.765625 26.062500 Z M18.218750 21.828125 L18.218750 20.265625 L23.593750 20.265625 L23.593750 21.828125 Z M17.812500 30.468750 C21.375018 27.729153 24.335926 25.148450 26.695312 22.726562 C29.054699 20.304675 30.820307 17.981782 31.992188 15.757812 C33.164068 13.533843 33.750000 11.359386 33.750000 9.234375 C33.750000 7.817701 33.440107 6.554693 32.820312 5.445312 C32.200518 4.335932 31.346360 3.463545 30.257812 2.828125 C29.169265 2.192705 27.916674 1.875000 26.500000 1.875000 C25.072910 1.875000 23.820318 2.164060 22.742188 2.742188 C21.664057 3.320315 20.726566 4.122391 19.929688 5.148438 C19.132809 6.174484 18.427086 7.359368 17.812500 8.703125 C17.208330 7.359368 16.505212 6.174484 15.703125 5.148438 C14.901038 4.122391 13.963547 3.320315 12.890625 2.742188 C11.817703 2.164060 10.562507 1.875000 9.125000 1.875000 C7.718743 1.875000 6.468755 2.192705 5.375000 2.828125 C4.281245 3.463545 3.424482 4.335932 2.804688 5.445312 C2.184893 6.554693 1.875000 7.817701 1.875000 9.234375 C1.875000 11.359386 2.460932 13.533843 3.632812 15.757812 C4.804693 17.981782 6.570301 20.304675 8.929688 22.726562 C11.289074 25.148450 14.249982 27.729153 17.812500 30.468750 Z M4.609375 4.906250 L4.609375 3.343750 L6.796875 3.343750 L6.796875 4.906250 Z M9.515625 9.140625 L9.515625 7.578125 L11.781250 7.578125 L11.781250 9.140625 Z M14.515625 13.375000 L14.515625 11.812500 L16.781250 11.812500 L16.781250 13.375000 Z M19.859375 17.593750 L19.859375 16.031250 L22.125000 16.031250 L22.125000 17.593750 Z M24.859375 21.828125 L24.859375 20.265625 L27.125000 20.265625 L27.125000 21.828125 Z M8.062500 4.906250 L8.062500 3.343750 L13.437500 3.343750 L13.437500 4.906250 Z M13.125000 9.140625 L13.125000 7.578125 L18.500000 7.578125 L18.500000 9.140625 Z M18.218750 13.375000 L18.218750 11.812500 L23.593750 11.812500 L23.593750 13.375000 Z M28.578125 21.828125 L28.578125 20.265625 L29.921875 20.265625 L29.921875 21.828125 Z M23.484375 17.593750 L23.484375 16.031250 L28.859375 16.031250 L28.859375 17.593750 Z M14.640625 4.906250 L14.640625 3.343750 L16.265625 3.343750 L16.265625 4.906250 Z M19.859375 9.140625 L19.859375 7.578125 L22.125000 7.578125 L22.125000 9.140625 Z M24.859375 13.375000 L24.859375 11.812500 L27.125000 11.812500 L27.125000 13.375000 Z M30.218750 17.593750 L30.218750 16.031250 L32.484375 16.031250 L32.484375 17.593750 Z M19.375000 4.906250 L19.375000 3.343750 L23.593750 3.343750 L23.593750 4.906250 Z M23.484375 9.140625 L23.484375 7.578125 L28.859375 7.578125 L28.859375 9.140625 Z M28.578125 13.375000 L28.578125 11.812500 L33.953125 11.812500 L33.953125 13.375000 Z M24.859375 4.906250 L24.859375 3.343750 L27.125000 3.343750 L27.125000 4.906250 Z M30.218750 9.140625 L30.218750 7.578125 L32.484375 7.578125 L32.484375 9.140625 Z M28.375000 4.906250 L28.375000 3.343750 L33.437500 3.343750 L33.437500 4.906250 Z M38.125000 27.343750" /></svg>