<svg version="1.1" xmlns="http://www.w3.org/2000/svg" style="fill:rgba(0,0,0,1.0)" width="256" height="256" viewBox="0 0 36.71875 32.8125">
  <defs>
    <style type="text/css" id="current-color-scheme">.ColorScheme-Highlight { color:#000000; }</style>
  </defs><path class="ColorScheme-Highlight" fill="currentColor" d="M16.421875 32.812500 C18.682303 32.812500 20.802073 32.388025 22.781250 31.539062 C24.760427 30.690100 26.502597 29.513028 28.007812 28.007812 C29.513028 26.502597 30.690100 24.757822 31.539062 22.773438 C32.388025 20.789053 32.812500 18.666678 32.812500 16.406250 C32.812500 14.135405 32.388025 12.010427 31.539062 10.031250 C30.690100 8.052073 29.513028 6.309903 28.007812 4.804688 C26.502597 3.299472 24.760427 2.122400 22.781250 1.273438 C20.802073 0.424475 18.682303 -0.000000 16.421875 -0.000000 C14.151030 -0.000000 12.023447 0.424475 10.039062 1.273438 C8.054678 2.122400 6.309903 3.299472 4.804688 4.804688 C3.299472 6.309903 2.122400 8.052073 1.273438 10.031250 C0.424475 12.010427 0.000000 14.135405 0.000000 16.406250 C0.000000 18.666678 0.424475 20.789053 1.273438 22.773438 C2.122400 24.757822 3.299472 26.502597 4.804688 28.007812 C6.309903 29.513028 8.054678 30.690100 10.039062 31.539062 C12.023447 32.388025 14.151030 32.812500 16.421875 32.812500 Z M16.593750 32.265625 L17.687500 31.171875 L1.578125 15.078125 L0.484375 16.171875 Z M5.312500 27.828125 L6.875000 27.828125 L6.875000 5.062500 L5.312500 5.062500 Z M22.546875 30.921875 L23.640625 29.828125 L2.984375 9.171875 L1.890625 10.265625 Z M10.468750 31.015625 L12.031250 31.015625 L12.031250 1.796875 L10.468750 1.796875 Z M16.421875 30.937500 C14.411448 30.937500 12.526050 30.562504 10.765625 29.812500 C9.005200 29.062496 7.458340 28.020840 6.125000 26.687500 C4.791660 25.354160 3.750004 23.809905 3.000000 22.054688 C2.249996 20.299470 1.875000 18.416677 1.875000 16.406250 C1.875000 14.395823 2.249996 12.513030 3.000000 10.757812 C3.750004 9.002595 4.791660 7.458340 6.125000 6.125000 C7.458340 4.791660 9.005200 3.750004 10.765625 3.000000 C12.526050 2.249996 14.411448 1.875000 16.421875 1.875000 C18.421885 1.875000 20.299470 2.249996 22.054688 3.000000 C23.809905 3.750004 25.354160 4.791660 26.687500 6.125000 C28.020840 7.458340 29.062496 9.002595 29.812500 10.757812 C30.562504 12.513030 30.937500 14.395823 30.937500 16.406250 C30.937500 18.416677 30.562504 20.299470 29.812500 22.054688 C29.062496 23.809905 28.020840 25.354160 26.687500 26.687500 C25.354160 28.020840 23.809905 29.062496 22.054688 29.812500 C20.299470 30.562504 18.421885 30.937500 16.421875 30.937500 Z M26.625000 27.718750 L27.718750 26.625000 L6.187500 5.093750 L5.093750 6.187500 Z M15.625000 31.640625 L17.187500 31.640625 L17.187500 1.171875 L15.625000 1.171875 Z M20.781250 31.015625 L22.343750 31.015625 L22.343750 1.796875 L20.781250 1.796875 Z M29.828125 23.640625 L30.921875 22.546875 L10.265625 1.890625 L9.171875 2.984375 Z M25.937500 27.828125 L27.500000 27.828125 L27.500000 5.062500 L25.937500 5.062500 Z M31.171875 17.687500 L32.265625 16.593750 L16.171875 0.484375 L15.078125 1.578125 Z M36.718750 27.343750" /></svg>