<svg version="1.1" xmlns="http://www.w3.org/2000/svg" style="fill:rgba(0,0,0,1.0)" width="256" height="256" viewBox="0 0 38.125 32.8125">
  <defs>
    <style type="text/css" id="current-color-scheme">.ColorScheme-Highlight { color:#000000; }</style>
  </defs><path class="ColorScheme-Highlight" fill="currentColor" d="M17.812500 32.812500 C21.916687 29.677068 25.281237 26.770847 27.906250 24.093750 C30.531263 21.416653 32.473952 18.864595 33.734375 16.437500 C34.994798 14.010405 35.625000 11.609387 35.625000 9.234375 C35.625000 7.911452 35.398440 6.687506 34.945312 5.562500 C34.492185 4.437494 33.856775 3.458337 33.039062 2.625000 C32.221350 1.791663 31.255214 1.145836 30.140625 0.687500 C29.026036 0.229164 27.812507 -0.000000 26.500000 -0.000000 C25.249994 -0.000000 24.052089 0.226560 22.906250 0.679688 C21.760411 1.132815 20.744796 1.765621 19.859375 2.578125 C18.973954 3.390629 18.291669 4.338536 17.812500 5.421875 C17.312498 4.338536 16.619796 3.390629 15.734375 2.578125 C14.848954 1.765621 13.838547 1.132815 12.703125 0.679688 C11.567703 0.226560 10.375006 -0.000000 9.125000 -0.000000 C7.812493 -0.000000 6.598964 0.229164 5.484375 0.687500 C4.369786 1.145836 3.403650 1.791663 2.585938 2.625000 C1.768225 3.458337 1.132815 4.437494 0.679688 5.562500 C0.226560 6.687506 0.000000 7.911452 0.000000 9.234375 C0.000000 11.609387 0.630202 14.010405 1.890625 16.437500 C3.151048 18.864595 5.093737 21.416653 7.718750 24.093750 C10.343763 26.770847 13.708313 29.677068 17.812500 32.812500 Z M19.296875 31.218750 L20.234375 30.187500 L2.343750 13.718750 L1.468750 14.812500 Z M22.140625 28.734375 L23.078125 27.703125 L1.171875 7.531250 L0.234375 8.562500 Z M3.906250 18.703125 L5.468750 18.703125 L5.468750 2.234375 L3.906250 2.234375 Z M8.281250 24.109375 L9.843750 24.109375 L9.843750 1.046875 L8.281250 1.046875 Z M12.593750 27.609375 L14.156250 27.609375 L14.156250 1.562500 L12.593750 1.562500 Z M17.031250 31.734375 L18.593750 31.734375 L18.593750 6.015625 L17.031250 6.015625 Z M24.859375 26.218750 L25.828125 25.187500 L2.828125 3.921875 L1.859375 4.953125 Z M17.812500 30.468750 C14.249982 27.729153 11.289074 25.148450 8.929688 22.726562 C6.570301 20.304675 4.804693 17.981782 3.632812 15.757812 C2.460932 13.533843 1.875000 11.359386 1.875000 9.234375 C1.875000 7.817701 2.184893 6.554693 2.804688 5.445312 C3.424482 4.335932 4.281245 3.463545 5.375000 2.828125 C6.468755 2.192705 7.718743 1.875000 9.125000 1.875000 C10.562507 1.875000 11.817703 2.164060 12.890625 2.742188 C13.963547 3.320315 14.901038 4.122391 15.703125 5.148438 C16.505212 6.174484 17.208330 7.359368 17.812500 8.703125 C18.354169 7.359368 18.997392 6.174484 19.742188 5.148438 C20.486983 4.122391 21.403640 3.320315 22.492188 2.742188 C23.580735 2.164060 24.916659 1.875000 26.500000 1.875000 C27.916674 1.875000 29.169265 2.192705 30.257812 2.828125 C31.346360 3.463545 32.200518 4.335932 32.820312 5.445312 C33.440107 6.554693 33.750000 7.817701 33.750000 9.234375 C33.750000 11.359386 33.164068 13.533843 31.992188 15.757812 C30.820307 17.981782 29.054699 20.304675 26.695312 22.726562 C24.335926 25.148450 21.375018 27.729153 17.812500 30.468750 Z M27.484375 23.468750 L28.453125 22.437500 L5.906250 1.625000 L4.937500 2.656250 Z M21.406250 27.750000 L22.968750 27.750000 L22.968750 1.562500 L21.406250 1.562500 Z M29.921875 20.531250 L30.890625 19.500000 L10.109375 0.296875 L9.140625 1.328125 Z M25.781250 24.109375 L27.343750 24.109375 L27.343750 1.046875 L25.781250 1.046875 Z M31.906250 17.437500 L32.875000 16.406250 L19.718750 4.218750 L18.750000 5.250000 Z M30.156250 18.781250 L31.718750 18.781250 L31.718750 2.234375 L30.156250 2.234375 Z M33.421875 13.531250 L34.359375 12.500000 L22.812500 1.875000 L21.875000 2.906250 Z M34.203125 9.234375 L35.171875 8.203125 L26.609375 0.312500 L25.640625 1.343750 Z M38.125000 27.343750" /></svg>