<svg version="1.1" xmlns="http://www.w3.org/2000/svg" style="fill:rgba(0,0,0,1.0)" width="256" height="256" viewBox="0 0 36.71875 32.8125">
  <defs>
    <style type="text/css" id="current-color-scheme">.ColorScheme-Highlight { color:#000000; }</style>
  </defs><path class="ColorScheme-Highlight" fill="currentColor" d="M16.421875 32.812500 C18.682303 32.812500 20.802073 32.388025 22.781250 31.539062 C24.760427 30.690100 26.502597 29.513028 28.007812 28.007812 C29.513028 26.502597 30.690100 24.757822 31.539062 22.773438 C32.388025 20.789053 32.812500 18.666678 32.812500 16.406250 C32.812500 14.135405 32.388025 12.010427 31.539062 10.031250 C30.690100 8.052073 29.513028 6.309903 28.007812 4.804688 C26.502597 3.299472 24.760427 2.122400 22.781250 1.273438 C20.802073 0.424475 18.682303 -0.000000 16.421875 -0.000000 C14.151030 -0.000000 12.023447 0.424475 10.039062 1.273438 C8.054678 2.122400 6.309903 3.299472 4.804688 4.804688 C3.299472 6.309903 2.122400 8.052073 1.273438 10.031250 C0.424475 12.010427 0.000000 14.135405 0.000000 16.406250 C0.000000 18.666678 0.424475 20.789053 1.273438 22.773438 C2.122400 24.757822 3.299472 26.502597 4.804688 28.007812 C6.309903 29.513028 8.054678 30.690100 10.039062 31.539062 C12.023447 32.388025 14.151030 32.812500 16.421875 32.812500 Z M4.703125 26.703125 C4.942710 26.703125 5.151041 26.614584 5.328125 26.437500 C5.505209 26.260416 5.593750 26.052085 5.593750 25.812500 C5.593750 25.572915 5.505209 25.364584 5.328125 25.187500 C5.151041 25.010416 4.942710 24.921875 4.703125 24.921875 C4.463540 24.921875 4.255209 25.010416 4.078125 25.187500 C3.901041 25.364584 3.812500 25.572915 3.812500 25.812500 C3.812500 26.052085 3.901041 26.260416 4.078125 26.437500 C4.255209 26.614584 4.463540 26.703125 4.703125 26.703125 Z M3.281250 23.562500 C3.520835 23.562500 3.729166 23.473959 3.906250 23.296875 C4.083334 23.119791 4.171875 22.911460 4.171875 22.671875 C4.171875 22.432290 4.083334 22.223959 3.906250 22.046875 C3.729166 21.869791 3.520835 21.781250 3.281250 21.781250 C3.041665 21.781250 2.833334 21.869791 2.656250 22.046875 C2.479166 22.223959 2.390625 22.432290 2.390625 22.671875 C2.390625 22.911460 2.479166 23.119791 2.656250 23.296875 C2.833334 23.473959 3.041665 23.562500 3.281250 23.562500 Z M9.859375 29.843750 C10.098960 29.843750 10.307291 29.755209 10.484375 29.578125 C10.661459 29.401041 10.750000 29.192710 10.750000 28.953125 C10.750000 28.713540 10.661459 28.505209 10.484375 28.328125 C10.307291 28.151041 10.098960 28.062500 9.859375 28.062500 C9.619790 28.062500 9.411459 28.151041 9.234375 28.328125 C9.057291 28.505209 8.968750 28.713540 8.968750 28.953125 C8.968750 29.192710 9.057291 29.401041 9.234375 29.578125 C9.411459 29.755209 9.619790 29.843750 9.859375 29.843750 Z M8.000000 26.703125 C7.760415 26.703125 7.552084 26.614584 7.375000 26.437500 C7.197916 26.260416 7.109375 26.052085 7.109375 25.812500 C7.109375 25.572915 7.197916 25.364584 7.375000 25.187500 C7.552084 25.010416 7.760415 24.921875 8.000000 24.921875 C8.239585 24.921875 8.447916 25.010416 8.625000 25.187500 C8.802084 25.364584 8.890625 25.572915 8.890625 25.812500 C8.890625 26.052085 8.802084 26.260416 8.625000 26.437500 C8.447916 26.614584 8.239585 26.703125 8.000000 26.703125 Z M1.875000 20.437500 C2.114585 20.437500 2.322916 20.348959 2.500000 20.171875 C2.677084 19.994791 2.765625 19.786460 2.765625 19.546875 C2.765625 19.307290 2.677084 19.098959 2.500000 18.921875 C2.322916 18.744791 2.114585 18.656250 1.875000 18.656250 C1.635415 18.656250 1.427084 18.744791 1.250000 18.921875 C1.072916 19.098959 0.984375 19.307290 0.984375 19.546875 C0.984375 19.786460 1.072916 19.994791 1.250000 20.171875 C1.427084 20.348959 1.635415 20.437500 1.875000 20.437500 Z M6.578125 23.562500 C6.338540 23.562500 6.130209 23.473959 5.953125 23.296875 C5.776041 23.119791 5.687500 22.911460 5.687500 22.671875 C5.687500 22.432290 5.776041 22.223959 5.953125 22.046875 C6.130209 21.869791 6.338540 21.781250 6.578125 21.781250 C6.817710 21.781250 7.026041 21.869791 7.203125 22.046875 C7.380209 22.223959 7.468750 22.432290 7.468750 22.671875 C7.468750 22.911460 7.380209 23.119791 7.203125 23.296875 C7.026041 23.473959 6.817710 23.562500 6.578125 23.562500 Z M13.156250 29.843750 C12.916665 29.843750 12.708334 29.755209 12.531250 29.578125 C12.354166 29.401041 12.265625 29.192710 12.265625 28.953125 C12.265625 28.713540 12.354166 28.505209 12.531250 28.328125 C12.708334 28.151041 12.916665 28.062500 13.156250 28.062500 C13.395835 28.062500 13.604166 28.151041 13.781250 28.328125 C13.958334 28.505209 14.046875 28.713540 14.046875 28.953125 C14.046875 29.192710 13.958334 29.401041 13.781250 29.578125 C13.604166 29.755209 13.395835 29.843750 13.156250 29.843750 Z M4.703125 20.437500 C4.463540 20.437500 4.255209 20.348959 4.078125 20.171875 C3.901041 19.994791 3.812500 19.786460 3.812500 19.546875 C3.812500 19.307290 3.901041 19.098959 4.078125 18.921875 C4.255209 18.744791 4.463540 18.656250 4.703125 18.656250 C4.942710 18.656250 5.151041 18.744791 5.328125 18.921875 C5.505209 19.098959 5.593750 19.307290 5.593750 19.546875 C5.593750 19.786460 5.505209 19.994791 5.328125 20.171875 C5.151041 20.348959 4.942710 20.437500 4.703125 20.437500 Z M11.281250 26.703125 C11.041665 26.703125 10.833334 26.614584 10.656250 26.437500 C10.479166 26.260416 10.390625 26.052085 10.390625 25.812500 C10.390625 25.572915 10.479166 25.364584 10.656250 25.187500 C10.833334 25.010416 11.041665 24.921875 11.281250 24.921875 C11.520835 24.921875 11.729166 25.010416 11.906250 25.187500 C12.083334 25.364584 12.171875 25.572915 12.171875 25.812500 C12.171875 26.052085 12.083334 26.260416 11.906250 26.437500 C11.729166 26.614584 11.520835 26.703125 11.281250 26.703125 Z M3.281250 17.296875 C3.041665 17.296875 2.833334 17.208334 2.656250 17.031250 C2.479166 16.854166 2.390625 16.645835 2.390625 16.406250 C2.390625 16.166665 2.479166 15.958334 2.656250 15.781250 C2.833334 15.604166 3.041665 15.515625 3.281250 15.515625 C3.520835 15.515625 3.729166 15.604166 3.906250 15.781250 C4.083334 15.958334 4.171875 16.166665 4.171875 16.406250 C4.171875 16.645835 4.083334 16.854166 3.906250 17.031250 C3.729166 17.208334 3.520835 17.296875 3.281250 17.296875 Z M9.859375 23.562500 C9.619790 23.562500 9.411459 23.473959 9.234375 23.296875 C9.057291 23.119791 8.968750 22.911460 8.968750 22.671875 C8.968750 22.432290 9.057291 22.223959 9.234375 22.046875 C9.411459 21.869791 9.619790 21.781250 9.859375 21.781250 C10.098960 21.781250 10.307291 21.869791 10.484375 22.046875 C10.661459 22.223959 10.750000 22.432290 10.750000 22.671875 C10.750000 22.911460 10.661459 23.119791 10.484375 23.296875 C10.307291 23.473959 10.098960 23.562500 9.859375 23.562500 Z M16.406250 29.843750 C16.166665 29.843750 15.958334 29.755209 15.781250 29.578125 C15.604166 29.401041 15.515625 29.192710 15.515625 28.953125 C15.515625 28.713540 15.604166 28.505209 15.781250 28.328125 C15.958334 28.151041 16.166665 28.062500 16.406250 28.062500 C16.645835 28.062500 16.854166 28.151041 17.031250 28.328125 C17.208334 28.505209 17.296875 28.713540 17.296875 28.953125 C17.296875 29.192710 17.208334 29.401041 17.031250 29.578125 C16.854166 29.755209 16.645835 29.843750 16.406250 29.843750 Z M8.000000 20.437500 C7.760415 20.437500 7.552084 20.348959 7.375000 20.171875 C7.197916 19.994791 7.109375 19.786460 7.109375 19.546875 C7.109375 19.307290 7.197916 19.098959 7.375000 18.921875 C7.552084 18.744791 7.760415 18.656250 8.000000 18.656250 C8.239585 18.656250 8.447916 18.744791 8.625000 18.921875 C8.802084 19.098959 8.890625 19.307290 8.890625 19.546875 C8.890625 19.786460 8.802084 19.994791 8.625000 20.171875 C8.447916 20.348959 8.239585 20.437500 8.000000 20.437500 Z M1.875000 14.156250 C2.114585 14.156250 2.322916 14.067709 2.500000 13.890625 C2.677084 13.713541 2.765625 13.505210 2.765625 13.265625 C2.765625 13.026040 2.677084 12.817709 2.500000 12.640625 C2.322916 12.463541 2.114585 12.375000 1.875000 12.375000 C1.635415 12.375000 1.427084 12.463541 1.250000 12.640625 C1.072916 12.817709 0.984375 13.026040 0.984375 13.265625 C0.984375 13.505210 1.072916 13.713541 1.250000 13.890625 C1.427084 14.067709 1.635415 14.156250 1.875000 14.156250 Z M14.531250 26.703125 C14.291665 26.703125 14.083334 26.614584 13.906250 26.437500 C13.729166 26.260416 13.640625 26.052085 13.640625 25.812500 C13.640625 25.572915 13.729166 25.364584 13.906250 25.187500 C14.083334 25.010416 14.291665 24.921875 14.531250 24.921875 C14.781251 24.921875 14.992187 25.010416 15.164062 25.187500 C15.335938 25.364584 15.421875 25.572915 15.421875 25.812500 C15.421875 26.052085 15.333334 26.260416 15.156250 26.437500 C14.979166 26.614584 14.770835 26.703125 14.531250 26.703125 Z M6.578125 17.296875 C6.338540 17.296875 6.130209 17.208334 5.953125 17.031250 C5.776041 16.854166 5.687500 16.645835 5.687500 16.406250 C5.687500 16.166665 5.776041 15.958334 5.953125 15.781250 C6.130209 15.604166 6.338540 15.515625 6.578125 15.515625 C6.817710 15.515625 7.026041 15.604166 7.203125 15.781250 C7.380209 15.958334 7.468750 16.166665 7.468750 16.406250 C7.468750 16.645835 7.380209 16.854166 7.203125 17.031250 C7.026041 17.208334 6.817710 17.296875 6.578125 17.296875 Z M13.156250 23.562500 C12.916665 23.562500 12.708334 23.473959 12.531250 23.296875 C12.354166 23.119791 12.265625 22.911460 12.265625 22.671875 C12.265625 22.432290 12.354166 22.223959 12.531250 22.046875 C12.708334 21.869791 12.916665 21.781250 13.156250 21.781250 C13.395835 21.781250 13.604166 21.869791 13.781250 22.046875 C13.958334 22.223959 14.046875 22.432290 14.046875 22.671875 C14.046875 22.911460 13.958334 23.119791 13.781250 23.296875 C13.604166 23.473959 13.395835 23.562500 13.156250 23.562500 Z M19.703125 29.843750 C19.463540 29.843750 19.255209 29.755209 19.078125 29.578125 C18.901041 29.401041 18.812500 29.192710 18.812500 28.953125 C18.812500 28.713540 18.901041 28.505209 19.078125 28.328125 C19.255209 28.151041 19.463540 28.062500 19.703125 28.062500 C19.942710 28.062500 20.151041 28.151041 20.328125 28.328125 C20.505209 28.505209 20.593750 28.713540 20.593750 28.953125 C20.593750 29.192710 20.505209 29.401041 20.328125 29.578125 C20.151041 29.755209 19.942710 29.843750 19.703125 29.843750 Z M4.703125 14.156250 C4.463540 14.156250 4.255209 14.067709 4.078125 13.890625 C3.901041 13.713541 3.812500 13.505210 3.812500 13.265625 C3.812500 13.026040 3.901041 12.817709 4.078125 12.640625 C4.255209 12.463541 4.463540 12.375000 4.703125 12.375000 C4.942710 12.375000 5.151041 12.463541 5.328125 12.640625 C5.505209 12.817709 5.593750 13.026040 5.593750 13.265625 C5.593750 13.505210 5.505209 13.713541 5.328125 13.890625 C5.151041 14.067709 4.942710 14.156250 4.703125 14.156250 Z M11.281250 20.437500 C11.041665 20.437500 10.833334 20.348959 10.656250 20.171875 C10.479166 19.994791 10.390625 19.786460 10.390625 19.546875 C10.390625 19.307290 10.479166 19.098959 10.656250 18.921875 C10.833334 18.744791 11.041665 18.656250 11.281250 18.656250 C11.520835 18.656250 11.729166 18.744791 11.906250 18.921875 C12.083334 19.098959 12.171875 19.307290 12.171875 19.546875 C12.171875 19.786460 12.083334 19.994791 11.906250 20.171875 C11.729166 20.348959 11.520835 20.437500 11.281250 20.437500 Z M17.828125 26.703125 C17.588540 26.703125 17.380209 26.614584 17.203125 26.437500 C17.026041 26.260416 16.937500 26.052085 16.937500 25.812500 C16.937500 25.572915 17.026041 25.364584 17.203125 25.187500 C17.380209 25.010416 17.588540 24.921875 17.828125 24.921875 C18.067710 24.921875 18.276041 25.010416 18.453125 25.187500 C18.630209 25.364584 18.718750 25.572915 18.718750 25.812500 C18.718750 26.052085 18.630209 26.260416 18.453125 26.437500 C18.276041 26.614584 18.067710 26.703125 17.828125 26.703125 Z M3.281250 11.031250 C3.520835 11.031250 3.729166 10.942709 3.906250 10.765625 C4.083334 10.588541 4.171875 10.380210 4.171875 10.140625 C4.171875 9.901040 4.083334 9.692709 3.906250 9.515625 C3.729166 9.338541 3.520835 9.250000 3.281250 9.250000 C3.041665 9.250000 2.833334 9.338541 2.656250 9.515625 C2.479166 9.692709 2.390625 9.901040 2.390625 10.140625 C2.390625 10.380210 2.479166 10.588541 2.656250 10.765625 C2.833334 10.942709 3.041665 11.031250 3.281250 11.031250 Z M9.859375 17.296875 C9.619790 17.296875 9.411459 17.208334 9.234375 17.031250 C9.057291 16.854166 8.968750 16.645835 8.968750 16.406250 C8.968750 16.166665 9.057291 15.958334 9.234375 15.781250 C9.411459 15.604166 9.619790 15.515625 9.859375 15.515625 C10.098960 15.515625 10.307291 15.604166 10.484375 15.781250 C10.661459 15.958334 10.750000 16.166665 10.750000 16.406250 C10.750000 16.645835 10.661459 16.854166 10.484375 17.031250 C10.307291 17.208334 10.098960 17.296875 9.859375 17.296875 Z M16.406250 23.562500 C16.166665 23.562500 15.958334 23.473959 15.781250 23.296875 C15.604166 23.119791 15.515625 22.911460 15.515625 22.671875 C15.515625 22.432290 15.604166 22.223959 15.781250 22.046875 C15.958334 21.869791 16.166665 21.781250 16.406250 21.781250 C16.645835 21.781250 16.854166 21.869791 17.031250 22.046875 C17.208334 22.223959 17.296875 22.432290 17.296875 22.671875 C17.296875 22.911460 17.208334 23.119791 17.031250 23.296875 C16.854166 23.473959 16.645835 23.562500 16.406250 23.562500 Z M22.984375 29.843750 C23.223960 29.843750 23.432291 29.755209 23.609375 29.578125 C23.786459 29.401041 23.875000 29.192710 23.875000 28.953125 C23.875000 28.713540 23.786459 28.505209 23.609375 28.328125 C23.432291 28.151041 23.223960 28.062500 22.984375 28.062500 C22.744790 28.062500 22.536459 28.151041 22.359375 28.328125 C22.182291 28.505209 22.093750 28.713540 22.093750 28.953125 C22.093750 29.192710 22.182291 29.401041 22.359375 29.578125 C22.536459 29.755209 22.744790 29.843750 22.984375 29.843750 Z M8.000000 14.156250 C7.760415 14.156250 7.552084 14.067709 7.375000 13.890625 C7.197916 13.713541 7.109375 13.505210 7.109375 13.265625 C7.109375 13.026040 7.197916 12.817709 7.375000 12.640625 C7.552084 12.463541 7.760415 12.375000 8.000000 12.375000 C8.239585 12.375000 8.447916 12.463541 8.625000 12.640625 C8.802084 12.817709 8.890625 13.026040 8.890625 13.265625 C8.890625 13.505210 8.802084 13.713541 8.625000 13.890625 C8.447916 14.067709 8.239585 14.156250 8.000000 14.156250 Z M14.531250 20.437500 C14.291665 20.437500 14.083334 20.348959 13.906250 20.171875 C13.729166 19.994791 13.640625 19.786460 13.640625 19.546875 C13.640625 19.307290 13.729166 19.098959 13.906250 18.921875 C14.083334 18.744791 14.291665 18.656250 14.531250 18.656250 C14.770835 18.656250 14.979166 18.744791 15.156250 18.921875 C15.333334 19.098959 15.421875 19.307290 15.421875 19.546875 C15.421875 19.786460 15.333334 19.994791 15.156250 20.171875 C14.979166 20.348959 14.770835 20.437500 14.531250 20.437500 Z M21.109375 26.703125 C20.869790 26.703125 20.661459 26.614584 20.484375 26.437500 C20.307291 26.260416 20.218750 26.052085 20.218750 25.812500 C20.218750 25.572915 20.307291 25.364584 20.484375 25.187500 C20.661459 25.010416 20.869790 24.921875 21.109375 24.921875 C21.348960 24.921875 21.557291 25.010416 21.734375 25.187500 C21.911459 25.364584 22.000000 25.572915 22.000000 25.812500 C22.000000 26.052085 21.911459 26.260416 21.734375 26.437500 C21.557291 26.614584 21.348960 26.703125 21.109375 26.703125 Z M6.578125 11.031250 C6.338540 11.031250 6.130209 10.942709 5.953125 10.765625 C5.776041 10.588541 5.687500 10.380210 5.687500 10.140625 C5.687500 9.901040 5.776041 9.692709 5.953125 9.515625 C6.130209 9.338541 6.338540 9.250000 6.578125 9.250000 C6.817710 9.250000 7.026041 9.338541 7.203125 9.515625 C7.380209 9.692709 7.468750 9.901040 7.468750 10.140625 C7.468750 10.380210 7.380209 10.588541 7.203125 10.765625 C7.026041 10.942709 6.817710 11.031250 6.578125 11.031250 Z M13.156250 17.296875 C12.916665 17.296875 12.708334 17.208334 12.531250 17.031250 C12.354166 16.854166 12.265625 16.645835 12.265625 16.406250 C12.265625 16.166665 12.354166 15.958334 12.531250 15.781250 C12.708334 15.604166 12.916665 15.515625 13.156250 15.515625 C13.395835 15.515625 13.604166 15.604166 13.781250 15.781250 C13.958334 15.958334 14.046875 16.166665 14.046875 16.406250 C14.046875 16.645835 13.958334 16.854166 13.781250 17.031250 C13.604166 17.208334 13.395835 17.296875 13.156250 17.296875 Z M19.703125 23.562500 C19.463540 23.562500 19.255209 23.473959 19.078125 23.296875 C18.901041 23.119791 18.812500 22.911460 18.812500 22.671875 C18.812500 22.432290 18.901041 22.223959 19.078125 22.046875 C19.255209 21.869791 19.463540 21.781250 19.703125 21.781250 C19.942710 21.781250 20.151041 21.869791 20.328125 22.046875 C20.505209 22.223959 20.593750 22.432290 20.593750 22.671875 C20.593750 22.911460 20.505209 23.119791 20.328125 23.296875 C20.151041 23.473959 19.942710 23.562500 19.703125 23.562500 Z M4.703125 7.890625 C4.942710 7.890625 5.151041 7.802084 5.328125 7.625000 C5.505209 7.447916 5.593750 7.239585 5.593750 7.000000 C5.593750 6.760415 5.505209 6.552084 5.328125 6.375000 C5.151041 6.197916 4.942710 6.109375 4.703125 6.109375 C4.463540 6.109375 4.255209 6.197916 4.078125 6.375000 C3.901041 6.552084 3.812500 6.760415 3.812500 7.000000 C3.812500 7.239585 3.901041 7.447916 4.078125 7.625000 C4.255209 7.802084 4.463540 7.890625 4.703125 7.890625 Z M11.281250 14.156250 C11.041665 14.156250 10.833334 14.067709 10.656250 13.890625 C10.479166 13.713541 10.390625 13.505210 10.390625 13.265625 C10.390625 13.026040 10.479166 12.817709 10.656250 12.640625 C10.833334 12.463541 11.041665 12.375000 11.281250 12.375000 C11.520835 12.375000 11.729166 12.463541 11.906250 12.640625 C12.083334 12.817709 12.171875 13.026040 12.171875 13.265625 C12.171875 13.505210 12.083334 13.713541 11.906250 13.890625 C11.729166 14.067709 11.520835 14.156250 11.281250 14.156250 Z M17.828125 20.437500 C17.588540 20.437500 17.380209 20.348959 17.203125 20.171875 C17.026041 19.994791 16.937500 19.786460 16.937500 19.546875 C16.937500 19.307290 17.026041 19.098959 17.203125 18.921875 C17.380209 18.744791 17.588540 18.656250 17.828125 18.656250 C18.067710 18.656250 18.276041 18.744791 18.453125 18.921875 C18.630209 19.098959 18.718750 19.307290 18.718750 19.546875 C18.718750 19.786460 18.630209 19.994791 18.453125 20.171875 C18.276041 20.348959 18.067710 20.437500 17.828125 20.437500 Z M24.406250 26.703125 C24.166665 26.703125 23.958334 26.614584 23.781250 26.437500 C23.604166 26.260416 23.515625 26.052085 23.515625 25.812500 C23.515625 25.572915 23.604166 25.364584 23.781250 25.187500 C23.958334 25.010416 24.166665 24.921875 24.406250 24.921875 C24.645835 24.921875 24.854166 25.010416 25.031250 25.187500 C25.208334 25.364584 25.296875 25.572915 25.296875 25.812500 C25.296875 26.052085 25.208334 26.260416 25.031250 26.437500 C24.854166 26.614584 24.645835 26.703125 24.406250 26.703125 Z M9.859375 11.031250 C9.619790 11.031250 9.411459 10.942709 9.234375 10.765625 C9.057291 10.588541 8.968750 10.380210 8.968750 10.140625 C8.968750 9.901040 9.057291 9.692709 9.234375 9.515625 C9.411459 9.338541 9.619790 9.250000 9.859375 9.250000 C10.098960 9.250000 10.307291 9.338541 10.484375 9.515625 C10.661459 9.692709 10.750000 9.901040 10.750000 10.140625 C10.750000 10.380210 10.661459 10.588541 10.484375 10.765625 C10.307291 10.942709 10.098960 11.031250 9.859375 11.031250 Z M16.421875 30.937500 C14.411448 30.937500 12.526050 30.562504 10.765625 29.812500 C9.005200 29.062496 7.458340 28.020840 6.125000 26.687500 C4.791660 25.354160 3.750004 23.809905 3.000000 22.054688 C2.249996 20.299470 1.875000 18.416677 1.875000 16.406250 C1.875000 14.395823 2.249996 12.513030 3.000000 10.757812 C3.750004 9.002595 4.791660 7.458340 6.125000 6.125000 C7.458340 4.791660 9.005200 3.750004 10.765625 3.000000 C12.526050 2.249996 14.411448 1.875000 16.421875 1.875000 C18.421885 1.875000 20.299470 2.249996 22.054688 3.000000 C23.809905 3.750004 25.354160 4.791660 26.687500 6.125000 C28.020840 7.458340 29.062496 9.002595 29.812500 10.757812 C30.562504 12.513030 30.937500 14.395823 30.937500 16.406250 C30.937500 18.416677 30.562504 20.299470 29.812500 22.054688 C29.062496 23.809905 28.020840 25.354160 26.687500 26.687500 C25.354160 28.020840 23.809905 29.062496 22.054688 29.812500 C20.299470 30.562504 18.421885 30.937500 16.421875 30.937500 Z M16.406250 17.296875 C16.166665 17.296875 15.958334 17.208334 15.781250 17.031250 C15.604166 16.854166 15.515625 16.645835 15.515625 16.406250 C15.515625 16.166665 15.604166 15.958334 15.781250 15.781250 C15.958334 15.604166 16.166665 15.515625 16.406250 15.515625 C16.645835 15.515625 16.854166 15.604166 17.031250 15.781250 C17.208334 15.958334 17.296875 16.166665 17.296875 16.406250 C17.296875 16.645835 17.208334 16.854166 17.031250 17.031250 C16.854166 17.208334 16.645835 17.296875 16.406250 17.296875 Z M22.984375 23.562500 C22.744790 23.562500 22.536459 23.473959 22.359375 23.296875 C22.182291 23.119791 22.093750 22.911460 22.093750 22.671875 C22.093750 22.432290 22.182291 22.223959 22.359375 22.046875 C22.536459 21.869791 22.744790 21.781250 22.984375 21.781250 C23.223960 21.781250 23.432291 21.869791 23.609375 22.046875 C23.786459 22.223959 23.875000 22.432290 23.875000 22.671875 C23.875000 22.911460 23.786459 23.119791 23.609375 23.296875 C23.432291 23.473959 23.223960 23.562500 22.984375 23.562500 Z M8.000000 7.890625 C7.760415 7.890625 7.552084 7.802084 7.375000 7.625000 C7.197916 7.447916 7.109375 7.239585 7.109375 7.000000 C7.109375 6.760415 7.197916 6.552084 7.375000 6.375000 C7.552084 6.197916 7.760415 6.109375 8.000000 6.109375 C8.239585 6.109375 8.447916 6.197916 8.625000 6.375000 C8.802084 6.552084 8.890625 6.760415 8.890625 7.000000 C8.890625 7.239585 8.802084 7.447916 8.625000 7.625000 C8.447916 7.802084 8.239585 7.890625 8.000000 7.890625 Z M14.531250 14.156250 C14.291665 14.156250 14.083334 14.067709 13.906250 13.890625 C13.729166 13.713541 13.640625 13.505210 13.640625 13.265625 C13.640625 13.026040 13.729166 12.817709 13.906250 12.640625 C14.083334 12.463541 14.291665 12.375000 14.531250 12.375000 C14.770835 12.375000 14.979166 12.463541 15.156250 12.640625 C15.333334 12.817709 15.421875 13.026040 15.421875 13.265625 C15.421875 13.505210 15.333334 13.713541 15.156250 13.890625 C14.979166 14.067709 14.770835 14.156250 14.531250 14.156250 Z M21.109375 20.437500 C20.869790 20.437500 20.661459 20.348959 20.484375 20.171875 C20.307291 19.994791 20.218750 19.786460 20.218750 19.546875 C20.218750 19.307290 20.307291 19.098959 20.484375 18.921875 C20.661459 18.744791 20.869790 18.656250 21.109375 18.656250 C21.348960 18.656250 21.557291 18.744791 21.734375 18.921875 C21.911459 19.098959 22.000000 19.307290 22.000000 19.546875 C22.000000 19.786460 21.911459 19.994791 21.734375 20.171875 C21.557291 20.348959 21.348960 20.437500 21.109375 20.437500 Z M27.687500 26.703125 C27.927085 26.703125 28.135416 26.614584 28.312500 26.437500 C28.489584 26.260416 28.578125 26.052085 28.578125 25.812500 C28.578125 25.572915 28.489584 25.364584 28.312500 25.187500 C28.135416 25.010416 27.927085 24.921875 27.687500 24.921875 C27.447915 24.921875 27.239584 25.010416 27.062500 25.187500 C26.885416 25.364584 26.796875 25.572915 26.796875 25.812500 C26.796875 26.052085 26.885416 26.260416 27.062500 26.437500 C27.239584 26.614584 27.447915 26.703125 27.687500 26.703125 Z M13.156250 11.031250 C12.916665 11.031250 12.708334 10.942709 12.531250 10.765625 C12.354166 10.588541 12.265625 10.380210 12.265625 10.140625 C12.265625 9.901040 12.354166 9.692709 12.531250 9.515625 C12.708334 9.338541 12.916665 9.250000 13.156250 9.250000 C13.395835 9.250000 13.604166 9.338541 13.781250 9.515625 C13.958334 9.692709 14.046875 9.901040 14.046875 10.140625 C14.046875 10.380210 13.958334 10.588541 13.781250 10.765625 C13.604166 10.942709 13.395835 11.031250 13.156250 11.031250 Z M19.703125 17.296875 C19.463540 17.296875 19.255209 17.208334 19.078125 17.031250 C18.901041 16.854166 18.812500 16.645835 18.812500 16.406250 C18.812500 16.166665 18.901041 15.958334 19.078125 15.781250 C19.255209 15.604166 19.463540 15.515625 19.703125 15.515625 C19.942710 15.515625 20.151041 15.604166 20.328125 15.781250 C20.505209 15.958334 20.593750 16.166665 20.593750 16.406250 C20.593750 16.645835 20.505209 16.854166 20.328125 17.031250 C20.151041 17.208334 19.942710 17.296875 19.703125 17.296875 Z M26.281250 23.562500 C26.041665 23.562500 25.833334 23.473959 25.656250 23.296875 C25.479166 23.119791 25.390625 22.911460 25.390625 22.671875 C25.390625 22.432290 25.479166 22.223959 25.656250 22.046875 C25.833334 21.869791 26.041665 21.781250 26.281250 21.781250 C26.520835 21.781250 26.729166 21.869791 26.906250 22.046875 C27.083334 22.223959 27.171875 22.432290 27.171875 22.671875 C27.171875 22.911460 27.083334 23.119791 26.906250 23.296875 C26.729166 23.473959 26.520835 23.562500 26.281250 23.562500 Z M11.281250 7.890625 C11.041665 7.890625 10.833334 7.802084 10.656250 7.625000 C10.479166 7.447916 10.390625 7.239585 10.390625 7.000000 C10.390625 6.760415 10.479166 6.552084 10.656250 6.375000 C10.833334 6.197916 11.041665 6.109375 11.281250 6.109375 C11.520835 6.109375 11.729166 6.197916 11.906250 6.375000 C12.083334 6.552084 12.171875 6.760415 12.171875 7.000000 C12.171875 7.239585 12.083334 7.447916 11.906250 7.625000 C11.729166 7.802084 11.520835 7.890625 11.281250 7.890625 Z M17.828125 14.156250 C17.588540 14.156250 17.380209 14.067709 17.203125 13.890625 C17.026041 13.713541 16.937500 13.505210 16.937500 13.265625 C16.937500 13.026040 17.026041 12.817709 17.203125 12.640625 C17.380209 12.463541 17.588540 12.375000 17.828125 12.375000 C18.067710 12.375000 18.276041 12.463541 18.453125 12.640625 C18.630209 12.817709 18.718750 13.026040 18.718750 13.265625 C18.718750 13.505210 18.630209 13.713541 18.453125 13.890625 C18.276041 14.067709 18.067710 14.156250 17.828125 14.156250 Z M24.406250 20.437500 C24.166665 20.437500 23.958334 20.348959 23.781250 20.171875 C23.604166 19.994791 23.515625 19.786460 23.515625 19.546875 C23.515625 19.307290 23.604166 19.098959 23.781250 18.921875 C23.958334 18.744791 24.166665 18.656250 24.406250 18.656250 C24.645835 18.656250 24.854166 18.744791 25.031250 18.921875 C25.208334 19.098959 25.296875 19.307290 25.296875 19.546875 C25.296875 19.786460 25.208334 19.994791 25.031250 20.171875 C24.854166 20.348959 24.645835 20.437500 24.406250 20.437500 Z M9.859375 4.750000 C10.098960 4.750000 10.307291 4.661459 10.484375 4.484375 C10.661459 4.307291 10.750000 4.098960 10.750000 3.859375 C10.750000 3.619790 10.661459 3.411459 10.484375 3.234375 C10.307291 3.057291 10.098960 2.968750 9.859375 2.968750 C9.619790 2.968750 9.411459 3.057291 9.234375 3.234375 C9.057291 3.411459 8.968750 3.619790 8.968750 3.859375 C8.968750 4.098960 9.057291 4.307291 9.234375 4.484375 C9.411459 4.661459 9.619790 4.750000 9.859375 4.750000 Z M16.406250 11.031250 C16.166665 11.031250 15.958334 10.942709 15.781250 10.765625 C15.604166 10.588541 15.515625 10.380210 15.515625 10.140625 C15.515625 9.901040 15.604166 9.692709 15.781250 9.515625 C15.958334 9.338541 16.166665 9.250000 16.406250 9.250000 C16.645835 9.250000 16.854166 9.338541 17.031250 9.515625 C17.208334 9.692709 17.296875 9.901040 17.296875 10.140625 C17.296875 10.380210 17.208334 10.588541 17.031250 10.765625 C16.854166 10.942709 16.645835 11.031250 16.406250 11.031250 Z M22.984375 17.296875 C22.744790 17.296875 22.536459 17.208334 22.359375 17.031250 C22.182291 16.854166 22.093750 16.645835 22.093750 16.406250 C22.093750 16.166665 22.182291 15.958334 22.359375 15.781250 C22.536459 15.604166 22.744790 15.515625 22.984375 15.515625 C23.223960 15.515625 23.432291 15.604166 23.609375 15.781250 C23.786459 15.958334 23.875000 16.166665 23.875000 16.406250 C23.875000 16.645835 23.786459 16.854166 23.609375 17.031250 C23.432291 17.208334 23.223960 17.296875 22.984375 17.296875 Z M29.562500 23.562500 C29.802085 23.562500 30.010416 23.473959 30.187500 23.296875 C30.364584 23.119791 30.453125 22.911460 30.453125 22.671875 C30.453125 22.432290 30.364584 22.223959 30.187500 22.046875 C30.010416 21.869791 29.802085 21.781250 29.562500 21.781250 C29.322915 21.781250 29.114584 21.869791 28.937500 22.046875 C28.760416 22.223959 28.671875 22.432290 28.671875 22.671875 C28.671875 22.911460 28.760416 23.119791 28.937500 23.296875 C29.114584 23.473959 29.322915 23.562500 29.562500 23.562500 Z M14.531250 7.890625 C14.291665 7.890625 14.083334 7.802084 13.906250 7.625000 C13.729166 7.447916 13.640625 7.239585 13.640625 7.000000 C13.640625 6.760415 13.729166 6.552084 13.906250 6.375000 C14.083334 6.197916 14.291665 6.109375 14.531250 6.109375 C14.770835 6.109375 14.979166 6.197916 15.156250 6.375000 C15.333334 6.552084 15.421875 6.760415 15.421875 7.000000 C15.421875 7.239585 15.333334 7.447916 15.156250 7.625000 C14.979166 7.802084 14.770835 7.890625 14.531250 7.890625 Z M21.109375 14.156250 C20.869790 14.156250 20.661459 14.067709 20.484375 13.890625 C20.307291 13.713541 20.218750 13.505210 20.218750 13.265625 C20.218750 13.026040 20.307291 12.817709 20.484375 12.640625 C20.661459 12.463541 20.869790 12.375000 21.109375 12.375000 C21.348960 12.375000 21.557291 12.463541 21.734375 12.640625 C21.911459 12.817709 22.000000 13.026040 22.000000 13.265625 C22.000000 13.505210 21.911459 13.713541 21.734375 13.890625 C21.557291 14.067709 21.348960 14.156250 21.109375 14.156250 Z M27.687500 20.437500 C27.447915 20.437500 27.239584 20.348959 27.062500 20.171875 C26.885416 19.994791 26.796875 19.786460 26.796875 19.546875 C26.796875 19.307290 26.885416 19.098959 27.062500 18.921875 C27.239584 18.744791 27.447915 18.656250 27.687500 18.656250 C27.927085 18.656250 28.135416 18.744791 28.312500 18.921875 C28.489584 19.098959 28.578125 19.307290 28.578125 19.546875 C28.578125 19.786460 28.489584 19.994791 28.312500 20.171875 C28.135416 20.348959 27.927085 20.437500 27.687500 20.437500 Z M13.156250 4.750000 C12.916665 4.750000 12.708334 4.661459 12.531250 4.484375 C12.354166 4.307291 12.265625 4.098960 12.265625 3.859375 C12.265625 3.619790 12.354166 3.411459 12.531250 3.234375 C12.708334 3.057291 12.916665 2.968750 13.156250 2.968750 C13.395835 2.968750 13.604166 3.057291 13.781250 3.234375 C13.958334 3.411459 14.046875 3.619790 14.046875 3.859375 C14.046875 4.098960 13.958334 4.307291 13.781250 4.484375 C13.604166 4.661459 13.395835 4.750000 13.156250 4.750000 Z M19.703125 11.031250 C19.463540 11.031250 19.255209 10.942709 19.078125 10.765625 C18.901041 10.588541 18.812500 10.380210 18.812500 10.140625 C18.812500 9.901040 18.901041 9.692709 19.078125 9.515625 C19.255209 9.338541 19.463540 9.250000 19.703125 9.250000 C19.942710 9.250000 20.151041 9.338541 20.328125 9.515625 C20.505209 9.692709 20.593750 9.901040 20.593750 10.140625 C20.593750 10.380210 20.505209 10.588541 20.328125 10.765625 C20.151041 10.942709 19.942710 11.031250 19.703125 11.031250 Z M26.281250 17.296875 C26.041665 17.296875 25.833334 17.208334 25.656250 17.031250 C25.479166 16.854166 25.390625 16.645835 25.390625 16.406250 C25.390625 16.166665 25.479166 15.958334 25.656250 15.781250 C25.833334 15.604166 26.041665 15.515625 26.281250 15.515625 C26.520835 15.515625 26.729166 15.604166 26.906250 15.781250 C27.083334 15.958334 27.171875 16.166665 27.171875 16.406250 C27.171875 16.645835 27.083334 16.854166 26.906250 17.031250 C26.729166 17.208334 26.520835 17.296875 26.281250 17.296875 Z M17.828125 7.890625 C17.588540 7.890625 17.380209 7.802084 17.203125 7.625000 C17.026041 7.447916 16.937500 7.239585 16.937500 7.000000 C16.937500 6.760415 17.026041 6.552084 17.203125 6.375000 C17.380209 6.197916 17.588540 6.109375 17.828125 6.109375 C18.067710 6.109375 18.276041 6.197916 18.453125 6.375000 C18.630209 6.552084 18.718750 6.760415 18.718750 7.000000 C18.718750 7.239585 18.630209 7.447916 18.453125 7.625000 C18.276041 7.802084 18.067710 7.890625 17.828125 7.890625 Z M24.406250 14.156250 C24.166665 14.156250 23.958334 14.067709 23.781250 13.890625 C23.604166 13.713541 23.515625 13.505210 23.515625 13.265625 C23.515625 13.026040 23.604166 12.817709 23.781250 12.640625 C23.958334 12.463541 24.166665 12.375000 24.406250 12.375000 C24.645835 12.375000 24.854166 12.463541 25.031250 12.640625 C25.208334 12.817709 25.296875 13.026040 25.296875 13.265625 C25.296875 13.505210 25.208334 13.713541 25.031250 13.890625 C24.854166 14.067709 24.645835 14.156250 24.406250 14.156250 Z M30.937500 20.437500 C31.177085 20.437500 31.385416 20.348959 31.562500 20.171875 C31.739584 19.994791 31.828125 19.786460 31.828125 19.546875 C31.828125 19.307290 31.739584 19.098959 31.562500 18.921875 C31.385416 18.744791 31.177085 18.656250 30.937500 18.656250 C30.697915 18.656250 30.489584 18.744791 30.312500 18.921875 C30.135416 19.098959 30.046875 19.307290 30.046875 19.546875 C30.046875 19.786460 30.135416 19.994791 30.312500 20.171875 C30.489584 20.348959 30.697915 20.437500 30.937500 20.437500 Z M16.406250 4.750000 C16.166665 4.750000 15.958334 4.661459 15.781250 4.484375 C15.604166 4.307291 15.515625 4.098960 15.515625 3.859375 C15.515625 3.619790 15.604166 3.411459 15.781250 3.234375 C15.958334 3.057291 16.166665 2.968750 16.406250 2.968750 C16.645835 2.968750 16.854166 3.057291 17.031250 3.234375 C17.208334 3.411459 17.296875 3.619790 17.296875 3.859375 C17.296875 4.098960 17.208334 4.307291 17.031250 4.484375 C16.854166 4.661459 16.645835 4.750000 16.406250 4.750000 Z M22.984375 11.031250 C22.744790 11.031250 22.536459 10.942709 22.359375 10.765625 C22.182291 10.588541 22.093750 10.380210 22.093750 10.140625 C22.093750 9.901040 22.182291 9.692709 22.359375 9.515625 C22.536459 9.338541 22.744790 9.250000 22.984375 9.250000 C23.223960 9.250000 23.432291 9.338541 23.609375 9.515625 C23.786459 9.692709 23.875000 9.901040 23.875000 10.140625 C23.875000 10.380210 23.786459 10.588541 23.609375 10.765625 C23.432291 10.942709 23.223960 11.031250 22.984375 11.031250 Z M29.562500 17.296875 C29.322915 17.296875 29.114584 17.208334 28.937500 17.031250 C28.760416 16.854166 28.671875 16.645835 28.671875 16.406250 C28.671875 16.166665 28.760416 15.958334 28.937500 15.781250 C29.114584 15.604166 29.322915 15.515625 29.562500 15.515625 C29.802085 15.515625 30.010416 15.604166 30.187500 15.781250 C30.364584 15.958334 30.453125 16.166665 30.453125 16.406250 C30.453125 16.645835 30.364584 16.854166 30.187500 17.031250 C30.010416 17.208334 29.802085 17.296875 29.562500 17.296875 Z M21.109375 7.890625 C20.869790 7.890625 20.661459 7.802084 20.484375 7.625000 C20.307291 7.447916 20.218750 7.239585 20.218750 7.000000 C20.218750 6.760415 20.307291 6.552084 20.484375 6.375000 C20.661459 6.197916 20.869790 6.109375 21.109375 6.109375 C21.348960 6.109375 21.557291 6.197916 21.734375 6.375000 C21.911459 6.552084 22.000000 6.760415 22.000000 7.000000 C22.000000 7.239585 21.911459 7.447916 21.734375 7.625000 C21.557291 7.802084 21.348960 7.890625 21.109375 7.890625 Z M27.687500 14.156250 C27.447915 14.156250 27.239584 14.067709 27.062500 13.890625 C26.885416 13.713541 26.796875 13.505210 26.796875 13.265625 C26.796875 13.026040 26.885416 12.817709 27.062500 12.640625 C27.239584 12.463541 27.447915 12.375000 27.687500 12.375000 C27.927085 12.375000 28.135416 12.463541 28.312500 12.640625 C28.489584 12.817709 28.578125 13.026040 28.578125 13.265625 C28.578125 13.505210 28.489584 13.713541 28.312500 13.890625 C28.135416 14.067709 27.927085 14.156250 27.687500 14.156250 Z M19.703125 4.750000 C19.463540 4.750000 19.255209 4.661459 19.078125 4.484375 C18.901041 4.307291 18.812500 4.098960 18.812500 3.859375 C18.812500 3.619790 18.901041 3.411459 19.078125 3.234375 C19.255209 3.057291 19.463540 2.968750 19.703125 2.968750 C19.942710 2.968750 20.151041 3.057291 20.328125 3.234375 C20.505209 3.411459 20.593750 3.619790 20.593750 3.859375 C20.593750 4.098960 20.505209 4.307291 20.328125 4.484375 C20.151041 4.661459 19.942710 4.750000 19.703125 4.750000 Z M26.281250 11.031250 C26.041665 11.031250 25.833334 10.942709 25.656250 10.765625 C25.479166 10.588541 25.390625 10.380210 25.390625 10.140625 C25.390625 9.901040 25.479166 9.692709 25.656250 9.515625 C25.833334 9.338541 26.041665 9.250000 26.281250 9.250000 C26.520835 9.250000 26.729166 9.338541 26.906250 9.515625 C27.083334 9.692709 27.171875 9.901040 27.171875 10.140625 C27.171875 10.380210 27.083334 10.588541 26.906250 10.765625 C26.729166 10.942709 26.520835 11.031250 26.281250 11.031250 Z M24.406250 7.890625 C24.166665 7.890625 23.958334 7.802084 23.781250 7.625000 C23.604166 7.447916 23.515625 7.239585 23.515625 7.000000 C23.515625 6.760415 23.604166 6.552084 23.781250 6.375000 C23.958334 6.197916 24.166665 6.109375 24.406250 6.109375 C24.645835 6.109375 24.854166 6.197916 25.031250 6.375000 C25.208334 6.552084 25.296875 6.760415 25.296875 7.000000 C25.296875 7.239585 25.208334 7.447916 25.031250 7.625000 C24.854166 7.802084 24.645835 7.890625 24.406250 7.890625 Z M30.937500 14.156250 C31.177085 14.156250 31.385416 14.067709 31.562500 13.890625 C31.739584 13.713541 31.828125 13.505210 31.828125 13.265625 C31.828125 13.026040 31.739584 12.817709 31.562500 12.640625 C31.385416 12.463541 31.177085 12.375000 30.937500 12.375000 C30.697915 12.375000 30.489584 12.463541 30.312500 12.640625 C30.135416 12.817709 30.046875 13.026040 30.046875 13.265625 C30.046875 13.505210 30.135416 13.713541 30.312500 13.890625 C30.489584 14.067709 30.697915 14.156250 30.937500 14.156250 Z M22.984375 4.750000 C23.223960 4.750000 23.432291 4.661459 23.609375 4.484375 C23.786459 4.307291 23.875000 4.098960 23.875000 3.859375 C23.875000 3.619790 23.786459 3.411459 23.609375 3.234375 C23.432291 3.057291 23.223960 2.968750 22.984375 2.968750 C22.744790 2.968750 22.536459 3.057291 22.359375 3.234375 C22.182291 3.411459 22.093750 3.619790 22.093750 3.859375 C22.093750 4.098960 22.182291 4.307291 22.359375 4.484375 C22.536459 4.661459 22.744790 4.750000 22.984375 4.750000 Z M29.562500 11.031250 C29.802085 11.031250 30.010416 10.942709 30.187500 10.765625 C30.364584 10.588541 30.453125 10.380210 30.453125 10.140625 C30.453125 9.901040 30.364584 9.692709 30.187500 9.515625 C30.010416 9.338541 29.802085 9.250000 29.562500 9.250000 C29.322915 9.250000 29.114584 9.338541 28.937500 9.515625 C28.760416 9.692709 28.671875 9.901040 28.671875 10.140625 C28.671875 10.380210 28.760416 10.588541 28.937500 10.765625 C29.114584 10.942709 29.322915 11.031250 29.562500 11.031250 Z M27.687500 7.890625 C27.927085 7.890625 28.135416 7.802084 28.312500 7.625000 C28.489584 7.447916 28.578125 7.239585 28.578125 7.000000 C28.578125 6.760415 28.489584 6.552084 28.312500 6.375000 C28.135416 6.197916 27.927085 6.109375 27.687500 6.109375 C27.447915 6.109375 27.239584 6.197916 27.062500 6.375000 C26.885416 6.552084 26.796875 6.760415 26.796875 7.000000 C26.796875 7.239585 26.885416 7.447916 27.062500 7.625000 C27.239584 7.802084 27.447915 7.890625 27.687500 7.890625 Z M36.718750 27.343750" /></svg>