<svg version="1.1" xmlns="http://www.w3.org/2000/svg" style="fill:rgba(0,0,0,1.0)" width="256" height="256" viewBox="0 0 37.03125 32.8125">
  <defs>
    <style type="text/css" id="current-color-scheme">.ColorScheme-Highlight { color:#000000; }</style>
  </defs><path class="ColorScheme-Highlight" fill="currentColor" d="M2.750000 32.812500 L30.703125 32.812500 C31.453129 32.812500 32.096351 32.544274 32.632812 32.007812 C33.169274 31.471351 33.437500 30.828129 33.437500 30.078125 L33.437500 2.734375 C33.437500 1.984371 33.169274 1.341149 32.632812 0.804688 C32.096351 0.268226 31.453129 -0.000000 30.703125 -0.000000 L2.734375 -0.000000 C1.984371 -0.000000 1.341149 0.268226 0.804688 0.804688 C0.268226 1.341149 0.000000 1.984371 0.000000 2.734375 L0.000000 30.093750 C0.000000 30.833337 0.270831 31.471351 0.812500 32.007812 C1.354169 32.544274 1.999996 32.812500 2.750000 32.812500 Z M3.781250 29.843750 C3.541665 29.843750 3.333334 29.755209 3.156250 29.578125 C2.979166 29.401041 2.890625 29.192710 2.890625 28.953125 C2.890625 28.713540 2.979166 28.505209 3.156250 28.328125 C3.333334 28.151041 3.541665 28.062500 3.781250 28.062500 C4.020835 28.062500 4.229166 28.151041 4.406250 28.328125 C4.583334 28.505209 4.671875 28.713540 4.671875 28.953125 C4.671875 29.192710 4.583334 29.401041 4.406250 29.578125 C4.229166 29.755209 4.020835 29.843750 3.781250 29.843750 Z M1.906250 26.718750 C2.145835 26.718750 2.354166 26.630209 2.531250 26.453125 C2.708334 26.276041 2.796875 26.067710 2.796875 25.828125 C2.796875 25.588540 2.708334 25.380209 2.531250 25.203125 C2.354166 25.026041 2.145835 24.937500 1.906250 24.937500 C1.666665 24.937500 1.458334 25.026041 1.281250 25.203125 C1.104166 25.380209 1.015625 25.588540 1.015625 25.828125 C1.015625 26.067710 1.104166 26.276041 1.281250 26.453125 C1.458334 26.630209 1.666665 26.718750 1.906250 26.718750 Z M7.078125 29.843750 C6.838540 29.843750 6.630209 29.755209 6.453125 29.578125 C6.276041 29.401041 6.187500 29.192710 6.187500 28.953125 C6.187500 28.713540 6.276041 28.505209 6.453125 28.328125 C6.630209 28.151041 6.838540 28.062500 7.078125 28.062500 C7.317710 28.062500 7.526041 28.151041 7.703125 28.328125 C7.880209 28.505209 7.968750 28.713540 7.968750 28.953125 C7.968750 29.192710 7.880209 29.401041 7.703125 29.578125 C7.526041 29.755209 7.317710 29.843750 7.078125 29.843750 Z M5.203125 26.718750 C4.963540 26.718750 4.755209 26.630209 4.578125 26.453125 C4.401041 26.276041 4.312500 26.067710 4.312500 25.828125 C4.312500 25.588540 4.401041 25.380209 4.578125 25.203125 C4.755209 25.026041 4.963540 24.937500 5.203125 24.937500 C5.442710 24.937500 5.651041 25.026041 5.828125 25.203125 C6.005209 25.380209 6.093750 25.588540 6.093750 25.828125 C6.093750 26.067710 6.005209 26.276041 5.828125 26.453125 C5.651041 26.630209 5.442710 26.718750 5.203125 26.718750 Z M3.781250 23.578125 C3.541665 23.578125 3.333334 23.489584 3.156250 23.312500 C2.979166 23.135416 2.890625 22.927085 2.890625 22.687500 C2.890625 22.447915 2.979166 22.239584 3.156250 22.062500 C3.333334 21.885416 3.541665 21.796875 3.781250 21.796875 C4.020835 21.796875 4.229166 21.885416 4.406250 22.062500 C4.583334 22.239584 4.671875 22.447915 4.671875 22.687500 C4.671875 22.927085 4.583334 23.135416 4.406250 23.312500 C4.229166 23.489584 4.020835 23.578125 3.781250 23.578125 Z M10.359375 29.843750 C10.119790 29.843750 9.911459 29.755209 9.734375 29.578125 C9.557291 29.401041 9.468750 29.192710 9.468750 28.953125 C9.468750 28.713540 9.557291 28.505209 9.734375 28.328125 C9.911459 28.151041 10.119790 28.062500 10.359375 28.062500 C10.598960 28.062500 10.807291 28.151041 10.984375 28.328125 C11.161459 28.505209 11.250000 28.713540 11.250000 28.953125 C11.250000 29.192710 11.161459 29.401041 10.984375 29.578125 C10.807291 29.755209 10.598960 29.843750 10.359375 29.843750 Z M8.500000 26.718750 C8.260415 26.718750 8.052084 26.630209 7.875000 26.453125 C7.697916 26.276041 7.609375 26.067710 7.609375 25.828125 C7.609375 25.588540 7.697916 25.380209 7.875000 25.203125 C8.052084 25.026041 8.260415 24.937500 8.500000 24.937500 C8.739585 24.937500 8.947916 25.026041 9.125000 25.203125 C9.302084 25.380209 9.390625 25.588540 9.390625 25.828125 C9.390625 26.067710 9.302084 26.276041 9.125000 26.453125 C8.947916 26.630209 8.739585 26.718750 8.500000 26.718750 Z M2.375000 20.437500 C2.614585 20.437500 2.822916 20.348959 3.000000 20.171875 C3.177084 19.994791 3.265625 19.786460 3.265625 19.546875 C3.265625 19.307290 3.177084 19.098959 3.000000 18.921875 C2.822916 18.744791 2.614585 18.656250 2.375000 18.656250 C2.135415 18.656250 1.927084 18.744791 1.750000 18.921875 C1.572916 19.098959 1.484375 19.307290 1.484375 19.546875 C1.484375 19.786460 1.572916 19.994791 1.750000 20.171875 C1.927084 20.348959 2.135415 20.437500 2.375000 20.437500 Z M7.078125 23.578125 C6.838540 23.578125 6.630209 23.489584 6.453125 23.312500 C6.276041 23.135416 6.187500 22.927085 6.187500 22.687500 C6.187500 22.447915 6.276041 22.239584 6.453125 22.062500 C6.630209 21.885416 6.838540 21.796875 7.078125 21.796875 C7.317710 21.796875 7.526041 21.885416 7.703125 22.062500 C7.880209 22.239584 7.968750 22.447915 7.968750 22.687500 C7.968750 22.927085 7.880209 23.135416 7.703125 23.312500 C7.526041 23.489584 7.317710 23.578125 7.078125 23.578125 Z M13.656250 29.843750 C13.416665 29.843750 13.208334 29.755209 13.031250 29.578125 C12.854166 29.401041 12.765625 29.192710 12.765625 28.953125 C12.765625 28.713540 12.854166 28.505209 13.031250 28.328125 C13.208334 28.151041 13.416665 28.062500 13.656250 28.062500 C13.895835 28.062500 14.104166 28.151041 14.281250 28.328125 C14.458334 28.505209 14.546875 28.713540 14.546875 28.953125 C14.546875 29.192710 14.458334 29.401041 14.281250 29.578125 C14.104166 29.755209 13.895835 29.843750 13.656250 29.843750 Z M5.203125 20.437500 C4.963540 20.437500 4.755209 20.348959 4.578125 20.171875 C4.401041 19.994791 4.312500 19.786460 4.312500 19.546875 C4.312500 19.307290 4.401041 19.098959 4.578125 18.921875 C4.755209 18.744791 4.963540 18.656250 5.203125 18.656250 C5.442710 18.656250 5.651041 18.744791 5.828125 18.921875 C6.005209 19.098959 6.093750 19.307290 6.093750 19.546875 C6.093750 19.786460 6.005209 19.994791 5.828125 20.171875 C5.651041 20.348959 5.442710 20.437500 5.203125 20.437500 Z M11.781250 26.718750 C11.541665 26.718750 11.333334 26.630209 11.156250 26.453125 C10.979166 26.276041 10.890625 26.067710 10.890625 25.828125 C10.890625 25.588540 10.979166 25.380209 11.156250 25.203125 C11.333334 25.026041 11.541665 24.937500 11.781250 24.937500 C12.020835 24.937500 12.229166 25.026041 12.406250 25.203125 C12.583334 25.380209 12.671875 25.588540 12.671875 25.828125 C12.671875 26.067710 12.583334 26.276041 12.406250 26.453125 C12.229166 26.630209 12.020835 26.718750 11.781250 26.718750 Z M3.781250 17.296875 C3.541665 17.296875 3.333334 17.208334 3.156250 17.031250 C2.979166 16.854166 2.890625 16.645835 2.890625 16.406250 C2.890625 16.166665 2.979166 15.958334 3.156250 15.781250 C3.333334 15.604166 3.541665 15.515625 3.781250 15.515625 C4.020835 15.515625 4.229166 15.604166 4.406250 15.781250 C4.583334 15.958334 4.671875 16.166665 4.671875 16.406250 C4.671875 16.645835 4.583334 16.854166 4.406250 17.031250 C4.229166 17.208334 4.020835 17.296875 3.781250 17.296875 Z M10.359375 23.578125 C10.119790 23.578125 9.911459 23.489584 9.734375 23.312500 C9.557291 23.135416 9.468750 22.927085 9.468750 22.687500 C9.468750 22.447915 9.557291 22.239584 9.734375 22.062500 C9.911459 21.885416 10.119790 21.796875 10.359375 21.796875 C10.598960 21.796875 10.807291 21.885416 10.984375 22.062500 C11.161459 22.239584 11.250000 22.447915 11.250000 22.687500 C11.250000 22.927085 11.161459 23.135416 10.984375 23.312500 C10.807291 23.489584 10.598960 23.578125 10.359375 23.578125 Z M16.906250 29.843750 C16.666665 29.843750 16.458334 29.755209 16.281250 29.578125 C16.104166 29.401041 16.015625 29.192710 16.015625 28.953125 C16.015625 28.713540 16.104166 28.505209 16.281250 28.328125 C16.458334 28.151041 16.666665 28.062500 16.906250 28.062500 C17.145835 28.062500 17.354166 28.151041 17.531250 28.328125 C17.708334 28.505209 17.796875 28.713540 17.796875 28.953125 C17.796875 29.192710 17.708334 29.401041 17.531250 29.578125 C17.354166 29.755209 17.145835 29.843750 16.906250 29.843750 Z M1.906250 14.171875 C2.145835 14.171875 2.354166 14.083334 2.531250 13.906250 C2.708334 13.729166 2.796875 13.520835 2.796875 13.281250 C2.796875 13.041665 2.708334 12.833334 2.531250 12.656250 C2.354166 12.479166 2.145835 12.390625 1.906250 12.390625 C1.666665 12.390625 1.458334 12.479166 1.281250 12.656250 C1.104166 12.833334 1.015625 13.041665 1.015625 13.281250 C1.015625 13.520835 1.104166 13.729166 1.281250 13.906250 C1.458334 14.083334 1.666665 14.171875 1.906250 14.171875 Z M8.484375 20.437500 C8.244790 20.437500 8.036459 20.348959 7.859375 20.171875 C7.682291 19.994791 7.593750 19.786460 7.593750 19.546875 C7.593750 19.307290 7.682291 19.098959 7.859375 18.921875 C8.036459 18.744791 8.244790 18.656250 8.484375 18.656250 C8.723960 18.656250 8.932291 18.744791 9.109375 18.921875 C9.286459 19.098959 9.375000 19.307290 9.375000 19.546875 C9.375000 19.786460 9.286459 19.994791 9.109375 20.171875 C8.932291 20.348959 8.723960 20.437500 8.484375 20.437500 Z M15.078125 26.718750 C14.838540 26.718750 14.630209 26.630209 14.453125 26.453125 C14.276041 26.276041 14.187500 26.067710 14.187500 25.828125 C14.187500 25.588540 14.276041 25.380209 14.453125 25.203125 C14.630209 25.026041 14.838540 24.937500 15.078125 24.937500 C15.317710 24.937500 15.526041 25.026041 15.703125 25.203125 C15.880209 25.380209 15.968750 25.588540 15.968750 25.828125 C15.968750 26.067710 15.880209 26.276041 15.703125 26.453125 C15.526041 26.630209 15.317710 26.718750 15.078125 26.718750 Z M7.078125 17.296875 C6.838540 17.296875 6.630209 17.208334 6.453125 17.031250 C6.276041 16.854166 6.187500 16.645835 6.187500 16.406250 C6.187500 16.166665 6.276041 15.958334 6.453125 15.781250 C6.630209 15.604166 6.838540 15.515625 7.078125 15.515625 C7.317710 15.515625 7.526041 15.604166 7.703125 15.781250 C7.880209 15.958334 7.968750 16.166665 7.968750 16.406250 C7.968750 16.645835 7.880209 16.854166 7.703125 17.031250 C7.526041 17.208334 7.317710 17.296875 7.078125 17.296875 Z M13.656250 23.578125 C13.416665 23.578125 13.208334 23.489584 13.031250 23.312500 C12.854166 23.135416 12.765625 22.927085 12.765625 22.687500 C12.765625 22.447915 12.854166 22.239584 13.031250 22.062500 C13.208334 21.885416 13.416665 21.796875 13.656250 21.796875 C13.895835 21.796875 14.104166 21.885416 14.281250 22.062500 C14.458334 22.239584 14.546875 22.447915 14.546875 22.687500 C14.546875 22.927085 14.458334 23.135416 14.281250 23.312500 C14.104166 23.489584 13.895835 23.578125 13.656250 23.578125 Z M20.187500 29.843750 C19.947915 29.843750 19.739584 29.755209 19.562500 29.578125 C19.385416 29.401041 19.296875 29.192710 19.296875 28.953125 C19.296875 28.713540 19.385416 28.505209 19.562500 28.328125 C19.739584 28.151041 19.947915 28.062500 20.187500 28.062500 C20.427085 28.062500 20.635416 28.151041 20.812500 28.328125 C20.989584 28.505209 21.078125 28.713540 21.078125 28.953125 C21.078125 29.192710 20.989584 29.401041 20.812500 29.578125 C20.635416 29.755209 20.427085 29.843750 20.187500 29.843750 Z M5.203125 14.171875 C4.963540 14.171875 4.755209 14.083334 4.578125 13.906250 C4.401041 13.729166 4.312500 13.520835 4.312500 13.281250 C4.312500 13.041665 4.401041 12.833334 4.578125 12.656250 C4.755209 12.479166 4.963540 12.390625 5.203125 12.390625 C5.442710 12.390625 5.651041 12.479166 5.828125 12.656250 C6.005209 12.833334 6.093750 13.041665 6.093750 13.281250 C6.093750 13.520835 6.005209 13.729166 5.828125 13.906250 C5.651041 14.083334 5.442710 14.171875 5.203125 14.171875 Z M11.781250 20.437500 C11.541665 20.437500 11.333334 20.348959 11.156250 20.171875 C10.979166 19.994791 10.890625 19.786460 10.890625 19.546875 C10.890625 19.307290 10.979166 19.098959 11.156250 18.921875 C11.333334 18.744791 11.541665 18.656250 11.781250 18.656250 C12.020835 18.656250 12.229166 18.744791 12.406250 18.921875 C12.583334 19.098959 12.671875 19.307290 12.671875 19.546875 C12.671875 19.786460 12.583334 19.994791 12.406250 20.171875 C12.229166 20.348959 12.020835 20.437500 11.781250 20.437500 Z M18.359375 26.718750 C18.119790 26.718750 17.911459 26.630209 17.734375 26.453125 C17.557291 26.276041 17.468750 26.067710 17.468750 25.828125 C17.468750 25.588540 17.557291 25.380209 17.734375 25.203125 C17.911459 25.026041 18.119790 24.937500 18.359375 24.937500 C18.598960 24.937500 18.807291 25.026041 18.984375 25.203125 C19.161459 25.380209 19.250000 25.588540 19.250000 25.828125 C19.250000 26.067710 19.161459 26.276041 18.984375 26.453125 C18.807291 26.630209 18.598960 26.718750 18.359375 26.718750 Z M3.781250 11.031250 C3.541665 11.031250 3.333334 10.942709 3.156250 10.765625 C2.979166 10.588541 2.890625 10.380210 2.890625 10.140625 C2.890625 9.901040 2.979166 9.692709 3.156250 9.515625 C3.333334 9.338541 3.541665 9.250000 3.781250 9.250000 C4.020835 9.250000 4.229166 9.338541 4.406250 9.515625 C4.583334 9.692709 4.671875 9.901040 4.671875 10.140625 C4.671875 10.380210 4.583334 10.588541 4.406250 10.765625 C4.229166 10.942709 4.020835 11.031250 3.781250 11.031250 Z M10.359375 17.296875 C10.119790 17.296875 9.911459 17.208334 9.734375 17.031250 C9.557291 16.854166 9.468750 16.645835 9.468750 16.406250 C9.468750 16.166665 9.557291 15.958334 9.734375 15.781250 C9.911459 15.604166 10.119790 15.515625 10.359375 15.515625 C10.598960 15.515625 10.807291 15.604166 10.984375 15.781250 C11.161459 15.958334 11.250000 16.166665 11.250000 16.406250 C11.250000 16.645835 11.161459 16.854166 10.984375 17.031250 C10.807291 17.208334 10.598960 17.296875 10.359375 17.296875 Z M16.906250 23.578125 C16.666665 23.578125 16.458334 23.489584 16.281250 23.312500 C16.104166 23.135416 16.015625 22.927085 16.015625 22.687500 C16.015625 22.447915 16.104166 22.239584 16.281250 22.062500 C16.458334 21.885416 16.666665 21.796875 16.906250 21.796875 C17.145835 21.796875 17.354166 21.885416 17.531250 22.062500 C17.708334 22.239584 17.796875 22.447915 17.796875 22.687500 C17.796875 22.927085 17.708334 23.135416 17.531250 23.312500 C17.354166 23.489584 17.145835 23.578125 16.906250 23.578125 Z M23.484375 29.843750 C23.244790 29.843750 23.036459 29.755209 22.859375 29.578125 C22.682291 29.401041 22.593750 29.192710 22.593750 28.953125 C22.593750 28.713540 22.682291 28.505209 22.859375 28.328125 C23.036459 28.151041 23.244790 28.062500 23.484375 28.062500 C23.723960 28.062500 23.932291 28.151041 24.109375 28.328125 C24.286459 28.505209 24.375000 28.713540 24.375000 28.953125 C24.375000 29.192710 24.286459 29.401041 24.109375 29.578125 C23.932291 29.755209 23.723960 29.843750 23.484375 29.843750 Z M1.906250 7.890625 C2.145835 7.890625 2.354166 7.802084 2.531250 7.625000 C2.708334 7.447916 2.796875 7.239585 2.796875 7.000000 C2.796875 6.760415 2.708334 6.552084 2.531250 6.375000 C2.354166 6.197916 2.145835 6.109375 1.906250 6.109375 C1.666665 6.109375 1.458334 6.197916 1.281250 6.375000 C1.104166 6.552084 1.015625 6.760415 1.015625 7.000000 C1.015625 7.239585 1.104166 7.447916 1.281250 7.625000 C1.458334 7.802084 1.666665 7.890625 1.906250 7.890625 Z M8.500000 14.171875 C8.260415 14.171875 8.052084 14.083334 7.875000 13.906250 C7.697916 13.729166 7.609375 13.520835 7.609375 13.281250 C7.609375 13.041665 7.697916 12.833334 7.875000 12.656250 C8.052084 12.479166 8.260415 12.390625 8.500000 12.390625 C8.739585 12.390625 8.947916 12.479166 9.125000 12.656250 C9.302084 12.833334 9.390625 13.041665 9.390625 13.281250 C9.390625 13.520835 9.302084 13.729166 9.125000 13.906250 C8.947916 14.083334 8.739585 14.171875 8.500000 14.171875 Z M15.031250 20.437500 C14.791665 20.437500 14.583334 20.348959 14.406250 20.171875 C14.229166 19.994791 14.140625 19.786460 14.140625 19.546875 C14.140625 19.307290 14.229166 19.098959 14.406250 18.921875 C14.583334 18.744791 14.791665 18.656250 15.031250 18.656250 C15.270835 18.656250 15.479166 18.744791 15.656250 18.921875 C15.833334 19.098959 15.921875 19.307290 15.921875 19.546875 C15.921875 19.786460 15.833334 19.994791 15.656250 20.171875 C15.479166 20.348959 15.270835 20.437500 15.031250 20.437500 Z M21.656250 26.718750 C21.416665 26.718750 21.208334 26.630209 21.031250 26.453125 C20.854166 26.276041 20.765625 26.067710 20.765625 25.828125 C20.765625 25.588540 20.854166 25.380209 21.031250 25.203125 C21.208334 25.026041 21.416665 24.937500 21.656250 24.937500 C21.895835 24.937500 22.104166 25.026041 22.281250 25.203125 C22.458334 25.380209 22.546875 25.588540 22.546875 25.828125 C22.546875 26.067710 22.458334 26.276041 22.281250 26.453125 C22.104166 26.630209 21.895835 26.718750 21.656250 26.718750 Z M7.078125 11.031250 C6.838540 11.031250 6.630209 10.942709 6.453125 10.765625 C6.276041 10.588541 6.187500 10.380210 6.187500 10.140625 C6.187500 9.901040 6.276041 9.692709 6.453125 9.515625 C6.630209 9.338541 6.838540 9.250000 7.078125 9.250000 C7.317710 9.250000 7.526041 9.338541 7.703125 9.515625 C7.880209 9.692709 7.968750 9.901040 7.968750 10.140625 C7.968750 10.380210 7.880209 10.588541 7.703125 10.765625 C7.526041 10.942709 7.317710 11.031250 7.078125 11.031250 Z M13.656250 17.296875 C13.416665 17.296875 13.208334 17.208334 13.031250 17.031250 C12.854166 16.854166 12.765625 16.645835 12.765625 16.406250 C12.765625 16.166665 12.854166 15.958334 13.031250 15.781250 C13.208334 15.604166 13.416665 15.515625 13.656250 15.515625 C13.895835 15.515625 14.104166 15.604166 14.281250 15.781250 C14.458334 15.958334 14.546875 16.166665 14.546875 16.406250 C14.546875 16.645835 14.458334 16.854166 14.281250 17.031250 C14.104166 17.208334 13.895835 17.296875 13.656250 17.296875 Z M20.187500 23.578125 C19.947915 23.578125 19.739584 23.489584 19.562500 23.312500 C19.385416 23.135416 19.296875 22.927085 19.296875 22.687500 C19.296875 22.447915 19.385416 22.239584 19.562500 22.062500 C19.739584 21.885416 19.947915 21.796875 20.187500 21.796875 C20.427085 21.796875 20.635416 21.885416 20.812500 22.062500 C20.989584 22.239584 21.078125 22.447915 21.078125 22.687500 C21.078125 22.927085 20.989584 23.135416 20.812500 23.312500 C20.635416 23.489584 20.427085 23.578125 20.187500 23.578125 Z M26.765625 29.843750 C26.526040 29.843750 26.317709 29.755209 26.140625 29.578125 C25.963541 29.401041 25.875000 29.192710 25.875000 28.953125 C25.875000 28.713540 25.963541 28.505209 26.140625 28.328125 C26.317709 28.151041 26.526040 28.062500 26.765625 28.062500 C27.005210 28.062500 27.213541 28.151041 27.390625 28.328125 C27.567709 28.505209 27.656250 28.713540 27.656250 28.953125 C27.656250 29.192710 27.567709 29.401041 27.390625 29.578125 C27.213541 29.755209 27.005210 29.843750 26.765625 29.843750 Z M5.203125 7.890625 C4.963540 7.890625 4.755209 7.802084 4.578125 7.625000 C4.401041 7.447916 4.312500 7.239585 4.312500 7.000000 C4.312500 6.760415 4.401041 6.552084 4.578125 6.375000 C4.755209 6.197916 4.963540 6.109375 5.203125 6.109375 C5.442710 6.109375 5.651041 6.197916 5.828125 6.375000 C6.005209 6.552084 6.093750 6.760415 6.093750 7.000000 C6.093750 7.239585 6.005209 7.447916 5.828125 7.625000 C5.651041 7.802084 5.442710 7.890625 5.203125 7.890625 Z M11.781250 14.171875 C11.541665 14.171875 11.333334 14.083334 11.156250 13.906250 C10.979166 13.729166 10.890625 13.520835 10.890625 13.281250 C10.890625 13.041665 10.979166 12.833334 11.156250 12.656250 C11.333334 12.479166 11.541665 12.390625 11.781250 12.390625 C12.020835 12.390625 12.229166 12.479166 12.406250 12.656250 C12.583334 12.833334 12.671875 13.041665 12.671875 13.281250 C12.671875 13.520835 12.583334 13.729166 12.406250 13.906250 C12.229166 14.083334 12.020835 14.171875 11.781250 14.171875 Z M18.312500 20.437500 C18.072915 20.437500 17.864584 20.348959 17.687500 20.171875 C17.510416 19.994791 17.421875 19.786460 17.421875 19.546875 C17.421875 19.307290 17.510416 19.098959 17.687500 18.921875 C17.864584 18.744791 18.072915 18.656250 18.312500 18.656250 C18.552085 18.656250 18.760416 18.744791 18.937500 18.921875 C19.114584 19.098959 19.203125 19.307290 19.203125 19.546875 C19.203125 19.786460 19.114584 19.994791 18.937500 20.171875 C18.760416 20.348959 18.552085 20.437500 18.312500 20.437500 Z M24.937500 26.718750 C24.697915 26.718750 24.489584 26.630209 24.312500 26.453125 C24.135416 26.276041 24.046875 26.067710 24.046875 25.828125 C24.046875 25.588540 24.135416 25.380209 24.312500 25.203125 C24.489584 25.026041 24.697915 24.937500 24.937500 24.937500 C25.177085 24.937500 25.385416 25.026041 25.562500 25.203125 C25.739584 25.380209 25.828125 25.588540 25.828125 25.828125 C25.828125 26.067710 25.739584 26.276041 25.562500 26.453125 C25.385416 26.630209 25.177085 26.718750 24.937500 26.718750 Z M3.781250 4.750000 C3.541665 4.750000 3.333334 4.661459 3.156250 4.484375 C2.979166 4.307291 2.890625 4.098960 2.890625 3.859375 C2.890625 3.619790 2.979166 3.411459 3.156250 3.234375 C3.333334 3.057291 3.541665 2.968750 3.781250 2.968750 C4.020835 2.968750 4.229166 3.057291 4.406250 3.234375 C4.583334 3.411459 4.671875 3.619790 4.671875 3.859375 C4.671875 4.098960 4.583334 4.307291 4.406250 4.484375 C4.229166 4.661459 4.020835 4.750000 3.781250 4.750000 Z M10.359375 11.031250 C10.119790 11.031250 9.911459 10.942709 9.734375 10.765625 C9.557291 10.588541 9.468750 10.380210 9.468750 10.140625 C9.468750 9.901040 9.557291 9.692709 9.734375 9.515625 C9.911459 9.338541 10.119790 9.250000 10.359375 9.250000 C10.598960 9.250000 10.807291 9.338541 10.984375 9.515625 C11.161459 9.692709 11.250000 9.901040 11.250000 10.140625 C11.250000 10.380210 11.161459 10.588541 10.984375 10.765625 C10.807291 10.942709 10.598960 11.031250 10.359375 11.031250 Z M3.062500 31.093750 C2.739582 31.093750 2.460939 30.979168 2.226562 30.750000 C1.992186 30.520832 1.875000 30.250002 1.875000 29.937500 L1.875000 2.890625 C1.875000 2.578123 1.992186 2.304689 2.226562 2.070312 C2.460939 1.835936 2.734373 1.718750 3.046875 1.718750 L30.390625 1.718750 C30.703127 1.718750 30.976561 1.835936 31.210938 2.070312 C31.445314 2.304689 31.562500 2.578123 31.562500 2.890625 L31.562500 29.921875 C31.562500 30.234377 31.445314 30.507811 31.210938 30.742188 C30.976561 30.976564 30.703127 31.093750 30.390625 31.093750 Z M16.906250 17.296875 C16.666665 17.296875 16.458334 17.208334 16.281250 17.031250 C16.104166 16.854166 16.015625 16.645835 16.015625 16.406250 C16.015625 16.166665 16.104166 15.958334 16.281250 15.781250 C16.458334 15.604166 16.666665 15.515625 16.906250 15.515625 C17.145835 15.515625 17.354166 15.604166 17.531250 15.781250 C17.708334 15.958334 17.796875 16.166665 17.796875 16.406250 C17.796875 16.645835 17.708334 16.854166 17.531250 17.031250 C17.354166 17.208334 17.145835 17.296875 16.906250 17.296875 Z M23.484375 23.578125 C23.244790 23.578125 23.036459 23.489584 22.859375 23.312500 C22.682291 23.135416 22.593750 22.927085 22.593750 22.687500 C22.593750 22.447915 22.682291 22.239584 22.859375 22.062500 C23.036459 21.885416 23.244790 21.796875 23.484375 21.796875 C23.723960 21.796875 23.932291 21.885416 24.109375 22.062500 C24.286459 22.239584 24.375000 22.447915 24.375000 22.687500 C24.375000 22.927085 24.286459 23.135416 24.109375 23.312500 C23.932291 23.489584 23.723960 23.578125 23.484375 23.578125 Z M30.062500 29.843750 C29.822915 29.843750 29.614584 29.755209 29.437500 29.578125 C29.260416 29.401041 29.171875 29.192710 29.171875 28.953125 C29.171875 28.713540 29.260416 28.505209 29.437500 28.328125 C29.614584 28.151041 29.822915 28.062500 30.062500 28.062500 C30.302085 28.062500 30.510416 28.151041 30.687500 28.328125 C30.864584 28.505209 30.953125 28.713540 30.953125 28.953125 C30.953125 29.192710 30.864584 29.401041 30.687500 29.578125 C30.510416 29.755209 30.302085 29.843750 30.062500 29.843750 Z M8.500000 7.890625 C8.260415 7.890625 8.052084 7.802084 7.875000 7.625000 C7.697916 7.447916 7.609375 7.239585 7.609375 7.000000 C7.609375 6.760415 7.697916 6.552084 7.875000 6.375000 C8.052084 6.197916 8.260415 6.109375 8.500000 6.109375 C8.739585 6.109375 8.947916 6.197916 9.125000 6.375000 C9.302084 6.552084 9.390625 6.760415 9.390625 7.000000 C9.390625 7.239585 9.302084 7.447916 9.125000 7.625000 C8.947916 7.802084 8.739585 7.890625 8.500000 7.890625 Z M15.078125 14.171875 C14.838540 14.171875 14.630209 14.083334 14.453125 13.906250 C14.276041 13.729166 14.187500 13.520835 14.187500 13.281250 C14.187500 13.041665 14.276041 12.833334 14.453125 12.656250 C14.630209 12.479166 14.838540 12.390625 15.078125 12.390625 C15.317710 12.390625 15.526041 12.479166 15.703125 12.656250 C15.880209 12.833334 15.968750 13.041665 15.968750 13.281250 C15.968750 13.520835 15.880209 13.729166 15.703125 13.906250 C15.526041 14.083334 15.317710 14.171875 15.078125 14.171875 Z M21.609375 20.437500 C21.369790 20.437500 21.161459 20.348959 20.984375 20.171875 C20.807291 19.994791 20.718750 19.786460 20.718750 19.546875 C20.718750 19.307290 20.807291 19.098959 20.984375 18.921875 C21.161459 18.744791 21.369790 18.656250 21.609375 18.656250 C21.848960 18.656250 22.057291 18.744791 22.234375 18.921875 C22.411459 19.098959 22.500000 19.307290 22.500000 19.546875 C22.500000 19.786460 22.411459 19.994791 22.234375 20.171875 C22.057291 20.348959 21.848960 20.437500 21.609375 20.437500 Z M28.234375 26.718750 C27.994790 26.718750 27.786459 26.630209 27.609375 26.453125 C27.432291 26.276041 27.343750 26.067710 27.343750 25.828125 C27.343750 25.588540 27.432291 25.380209 27.609375 25.203125 C27.786459 25.026041 27.994790 24.937500 28.234375 24.937500 C28.473960 24.937500 28.682291 25.026041 28.859375 25.203125 C29.036459 25.380209 29.125000 25.588540 29.125000 25.828125 C29.125000 26.067710 29.036459 26.276041 28.859375 26.453125 C28.682291 26.630209 28.473960 26.718750 28.234375 26.718750 Z M7.078125 4.750000 C6.838540 4.750000 6.630209 4.661459 6.453125 4.484375 C6.276041 4.307291 6.187500 4.098960 6.187500 3.859375 C6.187500 3.619790 6.276041 3.411459 6.453125 3.234375 C6.630209 3.057291 6.838540 2.968750 7.078125 2.968750 C7.317710 2.968750 7.526041 3.057291 7.703125 3.234375 C7.880209 3.411459 7.968750 3.619790 7.968750 3.859375 C7.968750 4.098960 7.880209 4.307291 7.703125 4.484375 C7.526041 4.661459 7.317710 4.750000 7.078125 4.750000 Z M13.656250 11.031250 C13.416665 11.031250 13.208334 10.942709 13.031250 10.765625 C12.854166 10.588541 12.765625 10.380210 12.765625 10.140625 C12.765625 9.901040 12.854166 9.692709 13.031250 9.515625 C13.208334 9.338541 13.416665 9.250000 13.656250 9.250000 C13.895835 9.250000 14.104166 9.338541 14.281250 9.515625 C14.458334 9.692709 14.546875 9.901040 14.546875 10.140625 C14.546875 10.380210 14.458334 10.588541 14.281250 10.765625 C14.104166 10.942709 13.895835 11.031250 13.656250 11.031250 Z M20.187500 17.296875 C19.947915 17.296875 19.739584 17.208334 19.562500 17.031250 C19.385416 16.854166 19.296875 16.645835 19.296875 16.406250 C19.296875 16.166665 19.385416 15.958334 19.562500 15.781250 C19.739584 15.604166 19.947915 15.515625 20.187500 15.515625 C20.427085 15.515625 20.635416 15.604166 20.812500 15.781250 C20.989584 15.958334 21.078125 16.166665 21.078125 16.406250 C21.078125 16.645835 20.989584 16.854166 20.812500 17.031250 C20.635416 17.208334 20.427085 17.296875 20.187500 17.296875 Z M26.765625 23.578125 C26.526040 23.578125 26.317709 23.489584 26.140625 23.312500 C25.963541 23.135416 25.875000 22.927085 25.875000 22.687500 C25.875000 22.447915 25.963541 22.239584 26.140625 22.062500 C26.317709 21.885416 26.526040 21.796875 26.765625 21.796875 C27.005210 21.796875 27.213541 21.885416 27.390625 22.062500 C27.567709 22.239584 27.656250 22.447915 27.656250 22.687500 C27.656250 22.927085 27.567709 23.135416 27.390625 23.312500 C27.213541 23.489584 27.005210 23.578125 26.765625 23.578125 Z M11.781250 7.890625 C11.541665 7.890625 11.333334 7.802084 11.156250 7.625000 C10.979166 7.447916 10.890625 7.239585 10.890625 7.000000 C10.890625 6.760415 10.979166 6.552084 11.156250 6.375000 C11.333334 6.197916 11.541665 6.109375 11.781250 6.109375 C12.020835 6.109375 12.229166 6.197916 12.406250 6.375000 C12.583334 6.552084 12.671875 6.760415 12.671875 7.000000 C12.671875 7.239585 12.583334 7.447916 12.406250 7.625000 C12.229166 7.802084 12.020835 7.890625 11.781250 7.890625 Z M18.359375 14.171875 C18.119790 14.171875 17.911459 14.083334 17.734375 13.906250 C17.557291 13.729166 17.468750 13.520835 17.468750 13.281250 C17.468750 13.041665 17.557291 12.833334 17.734375 12.656250 C17.911459 12.479166 18.119790 12.390625 18.359375 12.390625 C18.598960 12.390625 18.807291 12.479166 18.984375 12.656250 C19.161459 12.833334 19.250000 13.041665 19.250000 13.281250 C19.250000 13.520835 19.161459 13.729166 18.984375 13.906250 C18.807291 14.083334 18.598960 14.171875 18.359375 14.171875 Z M24.906250 20.437500 C24.666665 20.437500 24.458334 20.348959 24.281250 20.171875 C24.104166 19.994791 24.015625 19.786460 24.015625 19.546875 C24.015625 19.307290 24.104166 19.098959 24.281250 18.921875 C24.458334 18.744791 24.666665 18.656250 24.906250 18.656250 C25.145835 18.656250 25.354166 18.744791 25.531250 18.921875 C25.708334 19.098959 25.796875 19.307290 25.796875 19.546875 C25.796875 19.786460 25.708334 19.994791 25.531250 20.171875 C25.354166 20.348959 25.145835 20.437500 24.906250 20.437500 Z M31.531250 26.718750 C31.770835 26.718750 31.979166 26.630209 32.156250 26.453125 C32.333334 26.276041 32.421875 26.067710 32.421875 25.828125 C32.421875 25.588540 32.333334 25.380209 32.156250 25.203125 C31.979166 25.026041 31.770835 24.937500 31.531250 24.937500 C31.291665 24.937500 31.083334 25.026041 30.906250 25.203125 C30.729166 25.380209 30.640625 25.588540 30.640625 25.828125 C30.640625 26.067710 30.729166 26.276041 30.906250 26.453125 C31.083334 26.630209 31.291665 26.718750 31.531250 26.718750 Z M10.359375 4.750000 C10.119790 4.750000 9.911459 4.661459 9.734375 4.484375 C9.557291 4.307291 9.468750 4.098960 9.468750 3.859375 C9.468750 3.619790 9.557291 3.411459 9.734375 3.234375 C9.911459 3.057291 10.119790 2.968750 10.359375 2.968750 C10.598960 2.968750 10.807291 3.057291 10.984375 3.234375 C11.161459 3.411459 11.250000 3.619790 11.250000 3.859375 C11.250000 4.098960 11.161459 4.307291 10.984375 4.484375 C10.807291 4.661459 10.598960 4.750000 10.359375 4.750000 Z M16.906250 11.031250 C16.666665 11.031250 16.458334 10.942709 16.281250 10.765625 C16.104166 10.588541 16.015625 10.380210 16.015625 10.140625 C16.015625 9.901040 16.104166 9.692709 16.281250 9.515625 C16.458334 9.338541 16.666665 9.250000 16.906250 9.250000 C17.145835 9.250000 17.354166 9.338541 17.531250 9.515625 C17.708334 9.692709 17.796875 9.901040 17.796875 10.140625 C17.796875 10.380210 17.708334 10.588541 17.531250 10.765625 C17.354166 10.942709 17.145835 11.031250 16.906250 11.031250 Z M23.484375 17.296875 C23.244790 17.296875 23.036459 17.208334 22.859375 17.031250 C22.682291 16.854166 22.593750 16.645835 22.593750 16.406250 C22.593750 16.166665 22.682291 15.958334 22.859375 15.781250 C23.036459 15.604166 23.244790 15.515625 23.484375 15.515625 C23.723960 15.515625 23.932291 15.604166 24.109375 15.781250 C24.286459 15.958334 24.375000 16.166665 24.375000 16.406250 C24.375000 16.645835 24.286459 16.854166 24.109375 17.031250 C23.932291 17.208334 23.723960 17.296875 23.484375 17.296875 Z M30.062500 23.578125 C29.822915 23.578125 29.614584 23.489584 29.437500 23.312500 C29.260416 23.135416 29.171875 22.927085 29.171875 22.687500 C29.171875 22.447915 29.260416 22.239584 29.437500 22.062500 C29.614584 21.885416 29.822915 21.796875 30.062500 21.796875 C30.302085 21.796875 30.510416 21.885416 30.687500 22.062500 C30.864584 22.239584 30.953125 22.447915 30.953125 22.687500 C30.953125 22.927085 30.864584 23.135416 30.687500 23.312500 C30.510416 23.489584 30.302085 23.578125 30.062500 23.578125 Z M15.078125 7.890625 C14.838540 7.890625 14.630209 7.802084 14.453125 7.625000 C14.276041 7.447916 14.187500 7.239585 14.187500 7.000000 C14.187500 6.760415 14.276041 6.552084 14.453125 6.375000 C14.630209 6.197916 14.838540 6.109375 15.078125 6.109375 C15.317710 6.109375 15.526041 6.197916 15.703125 6.375000 C15.880209 6.552084 15.968750 6.760415 15.968750 7.000000 C15.968750 7.239585 15.880209 7.447916 15.703125 7.625000 C15.526041 7.802084 15.317710 7.890625 15.078125 7.890625 Z M21.656250 14.171875 C21.416665 14.171875 21.208334 14.083334 21.031250 13.906250 C20.854166 13.729166 20.765625 13.520835 20.765625 13.281250 C20.765625 13.041665 20.854166 12.833334 21.031250 12.656250 C21.208334 12.479166 21.416665 12.390625 21.656250 12.390625 C21.895835 12.390625 22.104166 12.479166 22.281250 12.656250 C22.458334 12.833334 22.546875 13.041665 22.546875 13.281250 C22.546875 13.520835 22.458334 13.729166 22.281250 13.906250 C22.104166 14.083334 21.895835 14.171875 21.656250 14.171875 Z M28.187500 20.437500 C27.947915 20.437500 27.739584 20.348959 27.562500 20.171875 C27.385416 19.994791 27.296875 19.786460 27.296875 19.546875 C27.296875 19.307290 27.385416 19.098959 27.562500 18.921875 C27.739584 18.744791 27.947915 18.656250 28.187500 18.656250 C28.427085 18.656250 28.635416 18.744791 28.812500 18.921875 C28.989584 19.098959 29.078125 19.307290 29.078125 19.546875 C29.078125 19.786460 28.989584 19.994791 28.812500 20.171875 C28.635416 20.348959 28.427085 20.437500 28.187500 20.437500 Z M13.656250 4.750000 C13.416665 4.750000 13.208334 4.661459 13.031250 4.484375 C12.854166 4.307291 12.765625 4.098960 12.765625 3.859375 C12.765625 3.619790 12.854166 3.411459 13.031250 3.234375 C13.208334 3.057291 13.416665 2.968750 13.656250 2.968750 C13.895835 2.968750 14.104166 3.057291 14.281250 3.234375 C14.458334 3.411459 14.546875 3.619790 14.546875 3.859375 C14.546875 4.098960 14.458334 4.307291 14.281250 4.484375 C14.104166 4.661459 13.895835 4.750000 13.656250 4.750000 Z M20.187500 11.031250 C19.947915 11.031250 19.739584 10.942709 19.562500 10.765625 C19.385416 10.588541 19.296875 10.380210 19.296875 10.140625 C19.296875 9.901040 19.385416 9.692709 19.562500 9.515625 C19.739584 9.338541 19.947915 9.250000 20.187500 9.250000 C20.427085 9.250000 20.635416 9.338541 20.812500 9.515625 C20.989584 9.692709 21.078125 9.901040 21.078125 10.140625 C21.078125 10.380210 20.989584 10.588541 20.812500 10.765625 C20.635416 10.942709 20.427085 11.031250 20.187500 11.031250 Z M26.765625 17.296875 C26.526040 17.296875 26.317709 17.208334 26.140625 17.031250 C25.963541 16.854166 25.875000 16.645835 25.875000 16.406250 C25.875000 16.166665 25.963541 15.958334 26.140625 15.781250 C26.317709 15.604166 26.526040 15.515625 26.765625 15.515625 C27.005210 15.515625 27.213541 15.604166 27.390625 15.781250 C27.567709 15.958334 27.656250 16.166665 27.656250 16.406250 C27.656250 16.645835 27.567709 16.854166 27.390625 17.031250 C27.213541 17.208334 27.005210 17.296875 26.765625 17.296875 Z M18.359375 7.890625 C18.119790 7.890625 17.911459 7.802084 17.734375 7.625000 C17.557291 7.447916 17.468750 7.239585 17.468750 7.000000 C17.468750 6.760415 17.557291 6.552084 17.734375 6.375000 C17.911459 6.197916 18.119790 6.109375 18.359375 6.109375 C18.598960 6.109375 18.807291 6.197916 18.984375 6.375000 C19.161459 6.552084 19.250000 6.760415 19.250000 7.000000 C19.250000 7.239585 19.161459 7.447916 18.984375 7.625000 C18.807291 7.802084 18.598960 7.890625 18.359375 7.890625 Z M24.937500 14.171875 C24.697915 14.171875 24.489584 14.083334 24.312500 13.906250 C24.135416 13.729166 24.046875 13.520835 24.046875 13.281250 C24.046875 13.041665 24.135416 12.833334 24.312500 12.656250 C24.489584 12.479166 24.697915 12.390625 24.937500 12.390625 C25.177085 12.390625 25.385416 12.479166 25.562500 12.656250 C25.739584 12.833334 25.828125 13.041665 25.828125 13.281250 C25.828125 13.520835 25.739584 13.729166 25.562500 13.906250 C25.385416 14.083334 25.177085 14.171875 24.937500 14.171875 Z M31.437500 20.437500 C31.677085 20.437500 31.885416 20.348959 32.062500 20.171875 C32.239584 19.994791 32.328125 19.786460 32.328125 19.546875 C32.328125 19.307290 32.239584 19.098959 32.062500 18.921875 C31.885416 18.744791 31.677085 18.656250 31.437500 18.656250 C31.197915 18.656250 30.989584 18.744791 30.812500 18.921875 C30.635416 19.098959 30.546875 19.307290 30.546875 19.546875 C30.546875 19.786460 30.635416 19.994791 30.812500 20.171875 C30.989584 20.348959 31.197915 20.437500 31.437500 20.437500 Z M16.906250 4.750000 C16.666665 4.750000 16.458334 4.661459 16.281250 4.484375 C16.104166 4.307291 16.015625 4.098960 16.015625 3.859375 C16.015625 3.619790 16.104166 3.411459 16.281250 3.234375 C16.458334 3.057291 16.666665 2.968750 16.906250 2.968750 C17.145835 2.968750 17.354166 3.057291 17.531250 3.234375 C17.708334 3.411459 17.796875 3.619790 17.796875 3.859375 C17.796875 4.098960 17.708334 4.307291 17.531250 4.484375 C17.354166 4.661459 17.145835 4.750000 16.906250 4.750000 Z M23.484375 11.031250 C23.244790 11.031250 23.036459 10.942709 22.859375 10.765625 C22.682291 10.588541 22.593750 10.380210 22.593750 10.140625 C22.593750 9.901040 22.682291 9.692709 22.859375 9.515625 C23.036459 9.338541 23.244790 9.250000 23.484375 9.250000 C23.723960 9.250000 23.932291 9.338541 24.109375 9.515625 C24.286459 9.692709 24.375000 9.901040 24.375000 10.140625 C24.375000 10.380210 24.286459 10.588541 24.109375 10.765625 C23.932291 10.942709 23.723960 11.031250 23.484375 11.031250 Z M30.062500 17.296875 C29.822915 17.296875 29.614584 17.208334 29.437500 17.031250 C29.260416 16.854166 29.171875 16.645835 29.171875 16.406250 C29.171875 16.166665 29.260416 15.958334 29.437500 15.781250 C29.614584 15.604166 29.822915 15.515625 30.062500 15.515625 C30.302085 15.515625 30.510416 15.604166 30.687500 15.781250 C30.864584 15.958334 30.953125 16.166665 30.953125 16.406250 C30.953125 16.645835 30.864584 16.854166 30.687500 17.031250 C30.510416 17.208334 30.302085 17.296875 30.062500 17.296875 Z M21.656250 7.890625 C21.416665 7.890625 21.208334 7.802084 21.031250 7.625000 C20.854166 7.447916 20.765625 7.239585 20.765625 7.000000 C20.765625 6.760415 20.854166 6.552084 21.031250 6.375000 C21.208334 6.197916 21.416665 6.109375 21.656250 6.109375 C21.895835 6.109375 22.104166 6.197916 22.281250 6.375000 C22.458334 6.552084 22.546875 6.760415 22.546875 7.000000 C22.546875 7.239585 22.458334 7.447916 22.281250 7.625000 C22.104166 7.802084 21.895835 7.890625 21.656250 7.890625 Z M28.234375 14.171875 C27.994790 14.171875 27.786459 14.083334 27.609375 13.906250 C27.432291 13.729166 27.343750 13.520835 27.343750 13.281250 C27.343750 13.041665 27.432291 12.833334 27.609375 12.656250 C27.786459 12.479166 27.994790 12.390625 28.234375 12.390625 C28.473960 12.390625 28.682291 12.479166 28.859375 12.656250 C29.036459 12.833334 29.125000 13.041665 29.125000 13.281250 C29.125000 13.520835 29.036459 13.729166 28.859375 13.906250 C28.682291 14.083334 28.473960 14.171875 28.234375 14.171875 Z M20.187500 4.750000 C19.947915 4.750000 19.739584 4.661459 19.562500 4.484375 C19.385416 4.307291 19.296875 4.098960 19.296875 3.859375 C19.296875 3.619790 19.385416 3.411459 19.562500 3.234375 C19.739584 3.057291 19.947915 2.968750 20.187500 2.968750 C20.427085 2.968750 20.635416 3.057291 20.812500 3.234375 C20.989584 3.411459 21.078125 3.619790 21.078125 3.859375 C21.078125 4.098960 20.989584 4.307291 20.812500 4.484375 C20.635416 4.661459 20.427085 4.750000 20.187500 4.750000 Z M26.765625 11.031250 C26.526040 11.031250 26.317709 10.942709 26.140625 10.765625 C25.963541 10.588541 25.875000 10.380210 25.875000 10.140625 C25.875000 9.901040 25.963541 9.692709 26.140625 9.515625 C26.317709 9.338541 26.526040 9.250000 26.765625 9.250000 C27.005210 9.250000 27.213541 9.338541 27.390625 9.515625 C27.567709 9.692709 27.656250 9.901040 27.656250 10.140625 C27.656250 10.380210 27.567709 10.588541 27.390625 10.765625 C27.213541 10.942709 27.005210 11.031250 26.765625 11.031250 Z M24.937500 7.890625 C24.697915 7.890625 24.489584 7.802084 24.312500 7.625000 C24.135416 7.447916 24.046875 7.239585 24.046875 7.000000 C24.046875 6.760415 24.135416 6.552084 24.312500 6.375000 C24.489584 6.197916 24.697915 6.109375 24.937500 6.109375 C25.177085 6.109375 25.385416 6.197916 25.562500 6.375000 C25.739584 6.552084 25.828125 6.760415 25.828125 7.000000 C25.828125 7.239585 25.739584 7.447916 25.562500 7.625000 C25.385416 7.802084 25.177085 7.890625 24.937500 7.890625 Z M31.531250 14.171875 C31.770835 14.171875 31.979166 14.083334 32.156250 13.906250 C32.333334 13.729166 32.421875 13.520835 32.421875 13.281250 C32.421875 13.041665 32.333334 12.833334 32.156250 12.656250 C31.979166 12.479166 31.770835 12.390625 31.531250 12.390625 C31.291665 12.390625 31.083334 12.479166 30.906250 12.656250 C30.729166 12.833334 30.640625 13.041665 30.640625 13.281250 C30.640625 13.520835 30.729166 13.729166 30.906250 13.906250 C31.083334 14.083334 31.291665 14.171875 31.531250 14.171875 Z M23.484375 4.750000 C23.244790 4.750000 23.036459 4.661459 22.859375 4.484375 C22.682291 4.307291 22.593750 4.098960 22.593750 3.859375 C22.593750 3.619790 22.682291 3.411459 22.859375 3.234375 C23.036459 3.057291 23.244790 2.968750 23.484375 2.968750 C23.723960 2.968750 23.932291 3.057291 24.109375 3.234375 C24.286459 3.411459 24.375000 3.619790 24.375000 3.859375 C24.375000 4.098960 24.286459 4.307291 24.109375 4.484375 C23.932291 4.661459 23.723960 4.750000 23.484375 4.750000 Z M30.062500 11.031250 C29.822915 11.031250 29.614584 10.942709 29.437500 10.765625 C29.260416 10.588541 29.171875 10.380210 29.171875 10.140625 C29.171875 9.901040 29.260416 9.692709 29.437500 9.515625 C29.614584 9.338541 29.822915 9.250000 30.062500 9.250000 C30.302085 9.250000 30.510416 9.338541 30.687500 9.515625 C30.864584 9.692709 30.953125 9.901040 30.953125 10.140625 C30.953125 10.380210 30.864584 10.588541 30.687500 10.765625 C30.510416 10.942709 30.302085 11.031250 30.062500 11.031250 Z M28.234375 7.890625 C27.994790 7.890625 27.786459 7.802084 27.609375 7.625000 C27.432291 7.447916 27.343750 7.239585 27.343750 7.000000 C27.343750 6.760415 27.432291 6.552084 27.609375 6.375000 C27.786459 6.197916 27.994790 6.109375 28.234375 6.109375 C28.473960 6.109375 28.682291 6.197916 28.859375 6.375000 C29.036459 6.552084 29.125000 6.760415 29.125000 7.000000 C29.125000 7.239585 29.036459 7.447916 28.859375 7.625000 C28.682291 7.802084 28.473960 7.890625 28.234375 7.890625 Z M26.765625 4.750000 C26.526040 4.750000 26.317709 4.661459 26.140625 4.484375 C25.963541 4.307291 25.875000 4.098960 25.875000 3.859375 C25.875000 3.619790 25.963541 3.411459 26.140625 3.234375 C26.317709 3.057291 26.526040 2.968750 26.765625 2.968750 C27.005210 2.968750 27.213541 3.057291 27.390625 3.234375 C27.567709 3.411459 27.656250 3.619790 27.656250 3.859375 C27.656250 4.098960 27.567709 4.307291 27.390625 4.484375 C27.213541 4.661459 27.005210 4.750000 26.765625 4.750000 Z M31.531250 7.890625 C31.770835 7.890625 31.979166 7.802084 32.156250 7.625000 C32.333334 7.447916 32.421875 7.239585 32.421875 7.000000 C32.421875 6.760415 32.333334 6.552084 32.156250 6.375000 C31.979166 6.197916 31.770835 6.109375 31.531250 6.109375 C31.291665 6.109375 31.083334 6.197916 30.906250 6.375000 C30.729166 6.552084 30.640625 6.760415 30.640625 7.000000 C30.640625 7.239585 30.729166 7.447916 30.906250 7.625000 C31.083334 7.802084 31.291665 7.890625 31.531250 7.890625 Z M30.062500 4.750000 C29.822915 4.750000 29.614584 4.661459 29.437500 4.484375 C29.260416 4.307291 29.171875 4.098960 29.171875 3.859375 C29.171875 3.619790 29.260416 3.411459 29.437500 3.234375 C29.614584 3.057291 29.822915 2.968750 30.062500 2.968750 C30.302085 2.968750 30.510416 3.057291 30.687500 3.234375 C30.864584 3.411459 30.953125 3.619790 30.953125 3.859375 C30.953125 4.098960 30.864584 4.307291 30.687500 4.484375 C30.510416 4.661459 30.302085 4.750000 30.062500 4.750000 Z M37.031250 27.343750" /></svg>