<svg fill="rgb(0,125,255)" clip-rule="evenodd" fill-rule="evenodd" stroke-linejoin="round" stroke-miterlimit="2" viewBox="0 0 245 210" xmlns="http://www.w3.org/2000/svg"><path d="m7.144 3.567h7.776c1.298 0 2.556.471 3.554 1.331l12.589 10.352c1.267 1.093 2 2.712 2 4.419v6.263c0 1.186-.455 2.324-1.265 3.162-.81.839-1.909 1.311-3.055 1.311h-21.599c-1.146 0-2.244-.472-3.055-1.311-.81-.838-1.265-1.976-1.265-3.162v-17.892c0-1.187.455-2.324 1.265-3.163.811-.839 1.909-1.31 3.055-1.31zm0 2.226c-.575 0-1.127.237-1.534.658-.407.422-.636.993-.636 1.589v17.892c0 .595.229 1.167.636 1.588s.959.658 1.534.658h21.599c.576 0 1.128-.237 1.535-.658s.635-.993.635-1.588v-6.263c0-1.046-.449-2.038-1.226-2.708l-12.589-10.352c-.612-.527-1.382-.816-2.178-.816zm.285 3.491c-.56 0-1.015-.448-1.015-1s.455-1 1.015-1h7.043c.56 0 1.014.448 1.014 1s-.454 1-1.014 1zm15.719-2.401c-.33-.269-.459-.726-.322-1.137.138-.412.513-.688.933-.688h6.013c.491 0 .962.202 1.309.561.347.36.542.847.542 1.356v4.712c0 .391-.216.748-.556.919s-.745.126-1.042-.116z" transform="matrix(8.10206 0 0 7.82482 -22.8811 -27.9099)"/><path d="m57.571 7282.19c-.729.85-1.925 1.51-3.097 1.42-.159-1.15.431-2.35 1.108-3.09.753-.85 2.024-1.48 3.075-1.52.134 1.17-.357 2.35-1.086 3.19zm-9.693 15.33c-1.716-2.58-2.797-8.15-1.004-11.13.271-.45.605-.85.988-1.19.255-.25.526-.45.799-.62.616-.38 1.244-.56 1.743-.66.307-.05.565-.07.74-.08.132-.01.263-.02.394-.02.549-.01 1.085.11 1.583.27.715.22 1.35.52 1.83.63.48-.11 1.115-.41 1.83-.63.497-.16 1.034-.28 1.584-.27.13 0 .261.01.393.02.176.01.433.03.74.08.658.05 1.256.29 1.743.66.78.59 1.276 1.53 1.276 2.61 0 .5-.109.97-.303 1.4-.516 1.11-1.64 1.87-2.972 1.87h-1.629v2.04h1.629c1.112 0 2.08.53 2.669 1.35.383.54.606 1.2.606 1.92 0 .65-.18 1.25-.493 1.75-.045.07-.092.13-.138.2-.06.08-.121.16-.184.23-.186.21-.399.4-.634.55-.519.35-1.145.55-1.826.55-.166 0-.329-.02-.488-.04-.153 0-.309 0-.467-.01-1.299-.05-1.804-.79-3.336-.82-1.532.03-2.037.77-3.336.82-.158.01-.314.01-.467.01-.017 0-.032 0-.048 0h-.122c-.052 0-.105 0-.156 0-.528.01-1.01-.06-1.449-.24-.187-.07-.367-.16-.539-.27-.235-.15-.448-.34-.634-.55-.063-.07-.124-.15-.184-.23-.047-.07-.093-.13-.138-.2zm4.411-1.75v-1.63h-1.629c-.924 0-1.63.71-1.63 1.63s.706 1.63 1.63 1.63c.923 0 1.629-.71 1.629-1.63zm6.953-1.63h-1.629v1.63c0 .92.706 1.63 1.629 1.63.924 0 1.63-.71 1.63-1.63s-.706-1.63-1.63-1.63zm-3.274-3.68h-2.034v2.04h2.034zm.234-4.51c-.342.13-.65.24-.914.3-.222.05-.452.05-.674 0-.264-.06-.572-.17-.914-.3.152.38.234.8.234 1.24v1.63h2.034v-1.63c0-.44.082-.86.234-1.24zm1.411 1.24v1.63h1.629c.924 0 1.63-.71 1.63-1.63s-.706-1.63-1.63-1.63c-.923 0-1.629.71-1.629 1.63zm-3.821 9.55c.332-.07.702-.12 1.132-.12h.054c.429 0 .8.05 1.132.12-.093-.3-.142-.63-.142-.97v-1.63h-2.034v1.63c0 .34-.049.67-.142.97zm-1.503-9.55c0-.92-.706-1.63-1.629-1.63-.924 0-1.63.71-1.63 1.63s.706 1.63 1.63 1.63h1.629zm-4.601 1.4c-.158.72-.197 1.52-.16 2.32.046 1 .211 2.01.463 2.94.589-.82 1.557-1.35 2.669-1.35h1.629v-2.04h-1.629c-1.332 0-2.456-.76-2.972-1.87z" transform="matrix(5.2401 0 0 5.2401 -161.689 -38067.2)"/></svg>