<svg fill="rgb(0,125,255)" clip-rule="evenodd" fill-rule="evenodd" stroke-linejoin="round" stroke-miterlimit="2" viewBox="0 0 48 48" xmlns="http://www.w3.org/2000/svg"><path d="m19.006 4.056h9.28c2.377 0 4.303 1.997 4.303 4.457v6.925c.925 1.188 1.44 2.679 1.44 4.231v7.28c0 2.462-1.926 4.457-4.304 4.457h-23.563c-1.143 0-2.237-.47-3.044-1.306-.807-.835-1.26-1.969-1.26-3.151v-19.926c0-1.182.453-2.316 1.261-3.151.806-.836 1.9-1.306 3.043-1.306h8.758c1.487 0 2.929.527 4.086 1.49zm9.567 14.326-.005-.004-12.587-10.351-.015-.013c-.295-.252-.664-.391-1.046-.391h-7.301c-.233 0-.457.097-.621.267-.165.17-.257.401-.257.641v16.909c0 .24.092.471.257.641.164.17.388.267.621.267h20.649c.233 0 .456-.096.621-.266.165-.171.257-.402.257-.642v-5.771c0-.495-.21-.966-.573-1.287z" transform="matrix(.698323 0 0 .674429 2.17773 .969151)"/><path d="m19.006 4.056h9.28c2.377 0 4.303 1.997 4.303 4.457v6.925c.925 1.188 1.44 2.679 1.44 4.231v7.28c0 2.462-1.926 4.457-4.304 4.457h-23.563c-1.143 0-2.237-.47-3.044-1.306-.807-.835-1.26-1.969-1.26-3.151v-19.926c0-1.182.453-2.316 1.261-3.151.806-.836 1.9-1.306 3.043-1.306h8.758c1.487 0 2.929.527 4.086 1.49zm9.567 14.326-.005-.004-12.587-10.351-.015-.013c-.295-.252-.664-.391-1.046-.391h-7.301c-.233 0-.457.097-.621.267-.165.17-.257.401-.257.641v16.909c0 .24.092.471.257.641.164.17.388.267.621.267h20.649c.233 0 .456-.096.621-.266.165-.171.257-.402.257-.642v-5.771c0-.495-.21-.966-.573-1.287z" transform="matrix(.698323 0 0 .674429 21.0191 24.0692)"/><path d="m211-265c-14.667-18-27.417-36.833-38.25-56.5s-19.417-40.5-25.75-62.5c-4-11.333-2.177-22.423 5.47-33.27s17.823-17.09 30.53-18.73c12.667-1.333 24.333 1.5 35 8.5s18.667 16.5 24 28.5c3.333 10.667 7.5 21 12.5 31s10.667 19.667 17 29 13.63 17.67 21.89 25.01c8.253 7.347 17.123 14.343 26.61 20.99 9.333 9.333 15.333 20.333 18 33s.167 24.333-7.5 35c-7 11.333-16.833 18.333-29.5 21s-24-.333-34-9c-11.333-6.667-21.5-14.5-30.5-23.5s-17.5-18.5-25.5-28.5zm484-337c-7.333-12-15.833-23.167-25.5-33.5s-20.5-19.833-32.5-28.5c-10.233-9.473-16.123-20.673-17.67-33.6-1.553-12.933 1.337-24.733 8.67-35.4 8-11.333 18.123-18.167 30.37-20.5 12.24-2.333 23.45.833 33.63 9.5 14.073 8.96 27.257 19.7 39.55 32.22 12.3 12.52 23.117 25.447 32.45 38.78 15.333 22.667 28 46.333 38 71s16.667 50.333 20 77c2 12.6-1.257 23.25-9.77 31.95s-19.48 13.05-32.9 13.05c-12.767 0-24.18-4.333-34.24-13s-16.757-19.333-20.09-32c-2-14.087-5.42-27.617-10.26-40.59s-11.42-25.11-19.74-36.41z" fill-rule="nonzero" transform="matrix(.05 0 0 .05 0 48)"/></svg>