<?xml version="1.0" encoding="utf-8"?>
<svg clip-rule="evenodd" fill-rule="evenodd" stroke-linejoin="round" stroke-miterlimit="2" viewBox="0 0 245 210" xmlns="http://www.w3.org/2000/svg">
  <path d="M 98.002 0.001 C 108.518 0.001 118.711 3.687 126.796 10.416 L 228.793 91.419 C 239.059 99.971 244.997 112.64 244.997 125.996 L 244.997 175.003 C 244.997 184.284 241.311 193.188 234.748 199.745 C 228.186 206.31 219.281 210.004 209.996 210.004 L 35 210.004 C 25.715 210.004 16.819 206.31 10.248 199.745 C 3.686 193.188 -0.001 184.284 -0.001 175.003 L -0.001 35.002 C -0.001 25.714 3.686 16.817 10.248 10.252 C 16.819 3.687 25.715 0.001 35 0.001 L 98.002 0.001 Z M 35 17.419 C 30.341 17.419 25.869 19.274 22.571 22.568 C 19.274 25.87 17.419 30.338 17.419 35.002 L 17.419 175.003 C 17.419 179.659 19.274 184.135 22.571 187.429 C 25.869 190.723 30.341 192.578 35 192.578 L 209.996 192.578 C 214.663 192.578 219.136 190.723 222.433 187.429 C 225.731 184.135 227.578 179.659 227.578 175.003 L 227.578 125.996 C 227.578 117.812 223.94 110.05 217.645 104.807 L 115.648 23.804 C 110.689 19.681 104.451 17.419 98.002 17.419 L 35 17.419 Z M 37.309 44.736 C 32.772 44.736 29.086 41.23 29.086 36.911 C 29.086 32.592 32.772 29.086 37.309 29.086 L 94.372 29.086 C 98.909 29.086 102.587 32.592 102.587 36.911 C 102.587 41.23 98.909 44.736 94.372 44.736 L 37.309 44.736 Z M 164.665 25.948 C 161.992 23.843 160.947 20.268 162.057 17.052 C 163.175 13.828 166.213 11.668 169.616 11.668 L 218.333 11.668 C 222.312 11.668 226.128 13.249 228.939 16.058 C 231.75 18.875 233.33 22.685 233.33 26.668 L 233.33 63.539 C 233.33 66.598 231.58 69.392 228.826 70.73 C 226.071 72.068 222.79 71.716 220.383 69.822 L 164.665 25.948 Z M 91.455 180.535 C 88.247 180.535 85.508 179.401 83.248 177.14 C 80.987 174.878 79.853 172.147 79.853 168.931 L 79.853 87.225 C 79.853 83.977 80.987 81.207 83.248 78.922 C 85.508 76.638 88.247 75.495 91.455 75.495 L 131.325 75.495 C 132.938 75.495 134.469 75.824 135.927 76.481 C 137.386 77.146 138.65 78.007 139.719 79.079 L 161.562 100.926 C 162.632 101.99 163.499 103.258 164.155 104.713 C 164.811 106.176 165.143 107.71 165.143 109.314 L 165.143 168.931 C 165.143 172.147 164.001 174.878 161.716 177.14 C 159.431 179.401 156.669 180.535 153.42 180.535 L 91.455 180.535 Z M 130.094 104.377 L 130.094 87.225 L 91.455 87.225 L 91.455 168.931 L 153.42 168.931 L 153.42 110.183 L 135.895 110.183 C 134.266 110.183 132.897 109.619 131.771 108.5 C 130.653 107.373 130.094 106.004 130.094 104.377 Z"/>
</svg>