<?xml version="1.0" encoding="utf-8"?>
<svg clip-rule="evenodd" fill-rule="evenodd" stroke-linejoin="round" stroke-miterlimit="2" viewBox="0 0 245 210" xmlns="http://www.w3.org/2000/svg">
  <path d="M 98.002 0.001 C 108.518 0.001 118.711 3.687 126.796 10.416 L 228.793 91.419 C 239.059 99.971 244.997 112.64 244.997 125.996 L 244.997 175.003 C 244.997 184.284 241.311 193.188 234.748 199.745 C 228.186 206.31 219.281 210.004 209.996 210.004 L 35 210.004 C 25.715 210.004 16.819 206.31 10.248 199.745 C 3.686 193.188 -0.001 184.284 -0.001 175.003 L -0.001 35.002 C -0.001 25.714 3.686 16.817 10.248 10.252 C 16.819 3.687 25.715 0.001 35 0.001 L 98.002 0.001 Z M 35 17.419 C 30.341 17.419 25.869 19.274 22.571 22.568 C 19.274 25.87 17.419 30.338 17.419 35.002 L 17.419 175.003 C 17.419 179.659 19.274 184.135 22.571 187.429 C 25.869 190.723 30.341 192.578 35 192.578 L 209.996 192.578 C 214.663 192.578 219.136 190.723 222.433 187.429 C 225.731 184.135 227.578 179.659 227.578 175.003 L 227.578 125.996 C 227.578 117.812 223.94 110.05 217.645 104.807 L 115.648 23.804 C 110.689 19.681 104.451 17.419 98.002 17.419 L 35 17.419 Z M 37.309 44.736 C 32.772 44.736 29.086 41.23 29.086 36.911 C 29.086 32.592 32.772 29.086 37.309 29.086 L 94.372 29.086 C 98.909 29.086 102.587 32.592 102.587 36.911 C 102.587 41.23 98.909 44.736 94.372 44.736 L 37.309 44.736 Z M 164.665 25.948 C 161.992 23.843 160.947 20.268 162.057 17.052 C 163.175 13.828 166.213 11.668 169.616 11.668 L 218.333 11.668 C 222.312 11.668 226.128 13.249 228.939 16.058 C 231.75 18.875 233.33 22.685 233.33 26.668 L 233.33 63.539 C 233.33 66.598 231.58 69.392 228.826 70.73 C 226.071 72.068 222.79 71.716 220.383 69.822 L 164.665 25.948 Z M 75.413 177.226 C 73.209 175.027 72.107 172.319 72.107 169.119 C 72.107 165.919 73.209 163.227 75.413 161.044 C 77.617 158.853 80.315 157.757 83.515 157.757 C 86.715 157.757 89.413 158.853 91.601 161.044 C 93.789 163.227 94.882 165.919 94.882 169.119 C 94.882 172.319 93.789 175.027 91.601 177.226 C 89.413 179.432 86.715 180.535 83.515 180.535 C 80.315 180.535 77.617 179.432 75.413 177.226 Z M 122.559 180.535 C 119.383 180.535 116.693 179.432 114.489 177.226 C 112.286 175.027 111.184 172.319 111.184 169.119 C 111.184 165.919 112.269 163.227 114.441 161.044 C 116.604 158.853 119.27 157.757 122.446 157.757 C 125.613 157.757 128.303 158.853 130.507 161.044 C 132.711 163.227 133.813 165.919 133.813 169.119 C 133.813 172.319 132.727 175.027 130.564 177.226 C 128.401 179.432 125.727 180.535 122.559 180.535 Z M 161.481 180.535 C 158.281 180.535 155.591 179.432 153.404 177.226 C 151.216 175.027 150.122 172.319 150.122 169.119 C 150.122 165.919 151.216 163.227 153.404 161.044 C 155.591 158.853 158.281 157.757 161.481 157.757 C 164.682 157.757 167.388 158.853 169.591 161.044 C 171.795 163.227 172.897 165.919 172.897 169.119 C 172.897 172.319 171.795 175.027 169.591 177.226 C 167.388 179.432 164.682 180.535 161.481 180.535 Z M 83.515 141.451 C 80.315 141.451 77.617 140.371 75.413 138.203 C 73.209 136.036 72.107 133.367 72.107 130.198 C 72.107 127.022 73.209 124.338 75.413 122.131 C 77.617 119.932 80.315 118.829 83.515 118.829 C 86.715 118.829 89.413 119.909 91.601 122.076 C 93.789 124.244 94.882 126.912 94.882 130.081 C 94.882 133.258 93.789 135.942 91.601 138.148 C 89.413 140.347 86.715 141.451 83.515 141.451 Z M 114.489 138.203 C 112.286 136.036 111.184 133.367 111.184 130.198 C 111.184 127.022 112.269 124.338 114.441 122.131 C 116.604 119.932 119.27 118.829 122.446 118.829 C 125.613 118.829 128.303 119.909 130.507 122.076 C 132.711 124.244 133.813 126.912 133.813 130.081 C 133.813 133.258 132.727 135.942 130.564 138.148 C 128.401 140.347 125.727 141.451 122.559 141.451 C 119.383 141.451 116.693 140.371 114.489 138.203 Z M 161.481 141.451 C 158.281 141.451 155.591 140.371 153.404 138.203 C 151.216 136.036 150.122 133.367 150.122 130.198 C 150.122 127.022 151.216 124.338 153.404 122.131 C 155.591 119.932 158.281 118.829 161.481 118.829 C 164.682 118.829 167.388 119.909 169.591 122.076 C 171.795 124.244 172.897 126.912 172.897 130.081 C 172.897 133.258 171.795 135.942 169.591 138.148 C 167.388 140.347 164.682 141.451 161.481 141.451 Z M 83.515 102.522 C 80.315 102.522 77.617 101.427 75.413 99.236 C 73.209 97.052 72.107 94.361 72.107 91.16 C 72.107 87.96 73.209 85.253 75.413 83.054 C 77.617 80.847 80.315 79.744 83.515 79.744 C 86.715 79.744 89.413 80.847 91.601 83.054 C 93.789 85.253 94.882 87.96 94.882 91.16 C 94.882 94.361 93.789 97.052 91.601 99.236 C 89.413 101.427 86.715 102.522 83.515 102.522 Z M 114.489 99.236 C 112.286 97.052 111.184 94.361 111.184 91.16 C 111.184 87.96 112.269 85.253 114.441 83.054 C 116.604 80.847 119.27 79.744 122.446 79.744 C 125.613 79.744 128.303 80.847 130.507 83.054 C 132.711 85.253 133.813 87.96 133.813 91.16 C 133.813 94.361 132.727 97.052 130.564 99.236 C 128.401 101.427 125.727 102.522 122.559 102.522 C 119.383 102.522 116.693 101.427 114.489 99.236 Z M 161.481 102.522 C 158.281 102.522 155.591 101.427 153.404 99.236 C 151.216 97.052 150.122 94.361 150.122 91.16 C 150.122 87.96 151.216 85.253 153.404 83.054 C 155.591 80.847 158.281 79.744 161.481 79.744 C 164.682 79.744 167.388 80.847 169.591 83.054 C 171.795 85.253 172.897 87.96 172.897 91.16 C 172.897 94.361 171.795 97.052 169.591 99.236 C 167.388 101.427 164.682 102.522 161.481 102.522 Z"/>
</svg>