<?xml version="1.0" encoding="utf-8"?>
<svg clip-rule="evenodd" fill-rule="evenodd" stroke-linejoin="round" stroke-miterlimit="2" viewBox="0 0 245 210" xmlns="http://www.w3.org/2000/svg">
  <path d="M 98.002 0.001 C 108.518 0.001 118.711 3.687 126.796 10.416 L 228.793 91.419 C 239.059 99.971 244.997 112.64 244.997 125.996 L 244.997 175.003 C 244.997 184.284 241.311 193.188 234.748 199.745 C 228.186 206.31 219.281 210.004 209.996 210.004 L 35 210.004 C 25.715 210.004 16.819 206.31 10.248 199.745 C 3.686 193.188 -0.001 184.284 -0.001 175.003 L -0.001 35.002 C -0.001 25.714 3.686 16.817 10.248 10.252 C 16.819 3.687 25.715 0.001 35 0.001 L 98.002 0.001 Z M 35 17.419 C 30.341 17.419 25.869 19.274 22.571 22.568 C 19.274 25.87 17.419 30.338 17.419 35.002 L 17.419 175.003 C 17.419 179.659 19.274 184.135 22.571 187.429 C 25.869 190.723 30.341 192.578 35 192.578 L 209.996 192.578 C 214.663 192.578 219.136 190.723 222.433 187.429 C 225.731 184.135 227.578 179.659 227.578 175.003 L 227.578 125.996 C 227.578 117.812 223.94 110.05 217.645 104.807 L 115.648 23.804 C 110.689 19.681 104.451 17.419 98.002 17.419 L 35 17.419 Z M 37.309 44.736 C 32.772 44.736 29.086 41.23 29.086 36.911 C 29.086 32.592 32.772 29.086 37.309 29.086 L 94.372 29.086 C 98.909 29.086 102.587 32.592 102.587 36.911 C 102.587 41.23 98.909 44.736 94.372 44.736 L 37.309 44.736 Z M 164.665 25.948 C 161.992 23.843 160.947 20.268 162.057 17.052 C 163.175 13.828 166.213 11.668 169.616 11.668 L 218.333 11.668 C 222.312 11.668 226.128 13.249 228.939 16.058 C 231.75 18.875 233.33 22.685 233.33 26.668 L 233.33 63.539 C 233.33 66.598 231.58 69.392 228.826 70.73 C 226.071 72.068 222.79 71.716 220.383 69.822 L 164.665 25.948 Z M 102.134 176.396 C 95.757 173.642 90.183 169.878 85.411 165.105 C 80.639 160.332 76.871 154.761 74.117 148.383 C 71.362 142.014 69.985 135.245 69.985 128.086 C 69.985 120.676 71.354 113.79 74.109 107.428 C 76.863 101.074 80.671 95.519 85.524 90.769 C 90.386 86.019 96.057 82.287 102.539 79.572 C 109.02 76.857 115.956 75.495 123.353 75.495 C 130.232 75.495 136.786 76.669 143.025 79.008 C 149.263 81.348 154.757 84.603 159.504 88.758 C 164.252 92.921 168.028 97.843 170.823 103.539 C 173.618 109.236 175.02 115.394 175.02 122.029 C 175.02 131.411 172.387 139.103 167.12 145.113 C 161.854 151.114 154.53 154.119 145.148 154.119 L 137.993 154.119 C 136.673 154.119 135.522 154.659 134.534 155.723 C 133.545 156.795 133.051 157.984 133.051 159.307 C 133.051 161.365 133.464 162.804 134.291 163.626 C 135.109 164.448 135.522 165.723 135.522 167.452 C 135.522 171.067 134.299 174.158 131.844 176.709 C 129.389 179.26 126.254 180.535 122.437 180.535 C 115.275 180.535 108.51 179.158 102.134 176.396 Z M 90.467 129.432 C 89.235 128.203 88.619 126.763 88.619 125.112 C 88.619 123.469 89.235 122.029 90.467 120.793 C 91.706 119.564 93.149 118.946 94.793 118.946 C 96.438 118.946 97.88 119.564 99.112 120.793 C 100.343 122.029 100.959 123.469 100.959 125.112 C 100.959 126.763 100.343 128.203 99.112 129.432 C 97.88 130.668 96.438 131.286 94.793 131.286 C 93.149 131.286 91.706 130.668 90.467 129.432 Z M 105.464 109.314 C 104.273 108.085 103.681 106.622 103.681 104.932 C 103.681 103.25 104.273 101.81 105.464 100.613 C 106.663 99.423 108.121 98.829 109.847 98.829 C 111.492 98.829 112.934 99.423 114.165 100.613 C 115.405 101.81 116.021 103.265 116.021 104.995 C 116.021 106.646 115.405 108.085 114.165 109.314 C 112.934 110.55 111.475 111.168 109.79 111.168 C 108.097 111.168 106.663 110.55 105.464 109.314 Z M 130.766 109.314 C 129.575 108.085 128.976 106.622 128.976 104.932 C 128.976 103.25 129.575 101.81 130.766 100.613 C 131.965 99.423 133.424 98.829 135.15 98.829 C 136.794 98.829 138.236 99.423 139.468 100.613 C 140.708 101.81 141.323 103.265 141.323 104.995 C 141.323 106.646 140.708 108.085 139.468 109.314 C 138.236 110.55 136.778 111.168 135.093 111.168 C 133.4 111.168 131.965 110.55 130.766 109.314 Z M 146.071 129.432 C 144.88 128.203 144.281 126.763 144.281 125.112 C 144.281 123.469 144.88 122.029 146.071 120.793 C 147.27 119.564 148.729 118.946 150.454 118.946 C 152.099 118.946 153.541 119.564 154.773 120.793 C 156.012 122.029 156.628 123.469 156.628 125.112 C 156.628 126.763 156.012 128.203 154.773 129.432 C 153.541 130.668 152.099 131.286 150.454 131.286 C 148.729 131.286 147.27 130.668 146.071 129.432 Z M 123.41 168.493 C 123.75 168.204 123.92 167.711 123.92 167.014 C 123.92 165.825 123.304 164.847 122.065 164.088 C 120.833 163.329 120.217 161.365 120.217 158.196 C 120.217 154.15 121.571 150.519 124.285 147.319 C 126.999 144.119 130.361 142.515 134.38 142.515 L 145.148 142.515 C 151.24 142.515 155.786 140.707 158.783 137.084 C 161.789 133.469 163.296 128.696 163.296 122.773 C 163.296 111.912 159.237 103.265 151.127 96.849 C 143.009 90.433 133.764 87.225 123.377 87.225 C 111.718 87.225 101.834 91.184 93.732 99.118 C 85.638 107.045 81.587 116.716 81.587 128.133 C 81.587 139.455 85.533 149.08 93.424 157.022 C 101.323 164.964 110.827 168.931 121.943 168.931 C 122.583 168.931 123.069 168.783 123.41 168.493 Z"/>
</svg>