<?xml version="1.0" encoding="utf-8"?>
<svg clip-rule="evenodd" fill-rule="evenodd" stroke-linejoin="round" stroke-miterlimit="2" viewBox="0 0 245 210" xmlns="http://www.w3.org/2000/svg">
  <path d="M 98.002 0.001 C 108.518 0.001 118.711 3.687 126.796 10.416 L 228.793 91.419 C 239.059 99.971 244.997 112.64 244.997 125.996 L 244.997 175.003 C 244.997 184.284 241.311 193.188 234.748 199.745 C 228.186 206.31 219.281 210.004 209.996 210.004 L 35 210.004 C 25.715 210.004 16.819 206.31 10.248 199.745 C 3.686 193.188 -0.001 184.284 -0.001 175.003 L -0.001 35.002 C -0.001 25.714 3.686 16.817 10.248 10.252 C 16.819 3.687 25.715 0.001 35 0.001 L 98.002 0.001 Z M 35 17.419 C 30.341 17.419 25.869 19.274 22.571 22.568 C 19.274 25.87 17.419 30.338 17.419 35.002 L 17.419 175.003 C 17.419 179.659 19.274 184.135 22.571 187.429 C 25.869 190.723 30.341 192.578 35 192.578 L 209.996 192.578 C 214.663 192.578 219.136 190.723 222.433 187.429 C 225.731 184.135 227.578 179.659 227.578 175.003 L 227.578 125.996 C 227.578 117.812 223.94 110.05 217.645 104.807 L 115.648 23.804 C 110.689 19.681 104.451 17.419 98.002 17.419 L 35 17.419 Z M 37.309 44.736 C 32.772 44.736 29.086 41.23 29.086 36.911 C 29.086 32.592 32.772 29.086 37.309 29.086 L 94.372 29.086 C 98.909 29.086 102.587 32.592 102.587 36.911 C 102.587 41.23 98.909 44.736 94.372 44.736 L 37.309 44.736 Z M 164.665 25.948 C 161.992 23.843 160.947 20.268 162.057 17.052 C 163.175 13.828 166.213 11.668 169.616 11.668 L 218.333 11.668 C 222.312 11.668 226.128 13.249 228.939 16.058 C 231.75 18.875 233.33 22.685 233.33 26.668 L 233.33 63.539 C 233.33 66.598 231.58 69.392 228.826 70.73 C 226.071 72.068 222.79 71.716 220.383 69.822 L 164.665 25.948 Z M 89.827 137.436 L 89.827 174.088 C 89.762 175.238 89.219 176.56 88.474 177.327 C 87.712 178.071 86.367 178.611 85.225 178.673 L 68.453 178.673 C 67.311 178.611 65.974 178.078 65.221 177.327 C 64.459 176.568 63.932 175.215 63.868 174.072 L 63.868 137.413 C 63.932 136.27 64.459 134.932 65.221 134.181 C 65.974 133.422 67.327 132.89 68.478 132.828 L 85.241 132.828 C 86.383 132.89 87.712 133.438 88.474 134.181 C 89.219 134.948 89.762 136.286 89.827 137.436 Z M 74.514 143.469 L 74.514 168.031 L 79.189 168.031 L 79.189 143.469 L 74.514 143.469 Z M 81.368 85.135 L 164.884 85.135 C 166.829 85.198 168.959 86.09 170.377 87.42 C 171.714 88.836 172.589 90.965 172.646 92.905 L 172.646 108.023 C 172.589 109.916 171.714 111.998 170.418 113.383 C 169.041 114.682 166.958 115.535 165.062 115.589 L 105.796 115.589 C 105.285 115.519 105.091 115.668 104.718 116.051 C 104.329 116.435 104.184 116.661 104.256 117.17 L 104.256 173 C 104.192 174.456 103.527 176.044 102.587 177.006 C 101.631 177.945 100.027 178.673 98.569 178.673 C 97.167 178.673 95.555 177.938 94.534 176.999 C 93.594 175.974 92.938 174.377 92.881 172.985 L 92.881 132.483 C 92.938 131.967 92.841 131.74 92.444 131.419 C 92.427 131.403 92.411 131.388 92.395 131.372 C 92.071 130.973 91.82 130.879 91.301 130.934 L 81.368 130.934 C 79.367 130.871 77.268 129.987 75.948 128.68 C 74.652 127.366 73.76 125.253 73.695 123.25 L 73.695 92.796 C 73.752 90.887 74.579 88.743 75.94 87.381 C 77.301 86.019 79.456 85.19 81.368 85.135 Z M 93.61 120.519 L 93.61 117.17 L 93.837 114.87 C 93.845 114.776 93.87 114.666 93.894 114.572 L 94.526 112.553 C 94.55 112.467 94.599 112.366 94.631 112.287 L 95.628 110.456 C 95.668 110.394 95.733 110.284 95.798 110.214 L 97.094 108.641 C 97.151 108.571 97.224 108.5 97.281 108.445 L 98.877 107.131 C 98.95 107.068 99.039 107.013 99.104 106.974 L 100.943 105.981 C 101.024 105.934 101.129 105.895 101.202 105.871 L 103.227 105.237 C 103.325 105.214 103.438 105.19 103.527 105.182 L 105.674 104.963 C 105.707 104.956 105.78 104.956 105.828 104.956 L 162.008 104.956 L 162.008 95.777 L 84.333 95.777 L 84.333 120.292 L 91.301 120.292 L 93.546 120.511 C 93.57 120.511 93.594 120.511 93.61 120.519 Z M 109.345 166.052 L 177.791 166.052 C 178.739 166.114 179.881 166.584 180.529 167.202 C 181.145 167.836 181.672 168.994 181.672 169.964 C 181.672 172.249 180.659 174.596 179.249 176.099 C 177.799 177.586 175.506 178.603 173.294 178.673 L 113.801 178.673 C 111.597 178.603 109.312 177.586 107.862 176.099 C 106.444 174.596 105.431 172.249 105.431 169.964 C 105.431 168.994 105.966 167.836 106.574 167.202 C 107.222 166.584 108.397 166.114 109.345 166.052 Z M 178.261 124.862 L 178.261 157.382 C 178.196 158.955 177.475 160.668 176.454 161.717 C 175.409 162.742 173.683 163.454 172.103 163.516 L 114.222 163.516 C 112.642 163.454 110.933 162.734 109.879 161.717 C 108.858 160.668 108.145 158.947 108.081 157.366 L 108.081 124.846 C 108.145 123.273 108.867 121.56 109.887 120.511 C 110.933 119.486 112.658 118.774 114.238 118.712 L 172.119 118.712 C 173.699 118.774 175.409 119.494 176.454 120.511 C 177.475 121.56 178.196 123.281 178.261 124.862 Z M 118.727 129.353 L 118.727 152.875 L 167.615 152.875 L 167.615 129.353 L 118.727 129.353 Z"/>
</svg>