<?xml version="1.0" encoding="utf-8"?>
<svg clip-rule="evenodd" fill-rule="evenodd" stroke-linejoin="round" stroke-miterlimit="2" viewBox="0 0 245 210" xmlns="http://www.w3.org/2000/svg">
  <path d="M 98.002 0.001 C 108.518 0.001 118.711 3.687 126.796 10.416 L 228.793 91.419 C 239.059 99.971 244.997 112.64 244.997 125.996 L 244.997 175.003 C 244.997 184.284 241.311 193.188 234.748 199.745 C 228.186 206.31 219.281 210.004 209.996 210.004 L 35 210.004 C 25.715 210.004 16.819 206.31 10.248 199.745 C 3.686 193.188 -0.001 184.284 -0.001 175.003 L -0.001 35.002 C -0.001 25.714 3.686 16.817 10.248 10.252 C 16.819 3.687 25.715 0.001 35 0.001 L 98.002 0.001 Z M 35 17.419 C 30.341 17.419 25.869 19.274 22.571 22.568 C 19.274 25.87 17.419 30.338 17.419 35.002 L 17.419 175.003 C 17.419 179.659 19.274 184.135 22.571 187.429 C 25.869 190.723 30.341 192.578 35 192.578 L 209.996 192.578 C 214.663 192.578 219.136 190.723 222.433 187.429 C 225.731 184.135 227.578 179.659 227.578 175.003 L 227.578 125.996 C 227.578 117.812 223.94 110.05 217.645 104.807 L 115.648 23.804 C 110.689 19.681 104.451 17.419 98.002 17.419 L 35 17.419 Z M 37.309 44.736 C 32.772 44.736 29.086 41.23 29.086 36.911 C 29.086 32.592 32.772 29.086 37.309 29.086 L 94.372 29.086 C 98.909 29.086 102.587 32.592 102.587 36.911 C 102.587 41.23 98.909 44.736 94.372 44.736 L 37.309 44.736 Z M 164.665 25.948 C 161.992 23.843 160.947 20.268 162.057 17.052 C 163.175 13.828 166.213 11.668 169.616 11.668 L 218.333 11.668 C 222.312 11.668 226.128 13.249 228.939 16.058 C 231.75 18.875 233.33 22.685 233.33 26.668 L 233.33 63.539 C 233.33 66.598 231.58 69.392 228.826 70.73 C 226.071 72.068 222.79 71.716 220.383 69.822 L 164.665 25.948 Z M 133.375 149.847 L 155.713 161.341 L 144.321 138.892 C 144.127 138.508 144.2 138.039 144.507 137.734 L 156.466 125.777 L 146.185 115.503 C 145.998 115.316 145.893 115.057 145.893 114.799 L 145.893 100.143 L 131.244 100.143 C 130.977 100.143 130.718 100.034 130.531 99.846 L 120.258 89.572 L 109.985 99.846 C 109.798 100.034 109.539 100.143 109.28 100.143 L 94.745 100.143 L 94.745 114.799 C 94.745 115.065 94.639 115.316 94.445 115.503 L 84.058 125.777 L 94.445 136.051 C 94.639 136.239 94.745 136.497 94.745 136.763 L 94.745 151.294 L 109.28 151.294 C 109.539 151.294 109.798 151.404 109.985 151.591 L 120.266 161.983 L 132.217 150.027 C 132.516 149.721 132.994 149.651 133.375 149.847 Z M 174.048 179.448 C 173.051 180.442 171.73 181.154 170.369 181.42 C 168.968 181.701 167.42 181.365 166.051 180.59 L 135.19 164.862 L 125.103 175.058 C 123.807 176.31 122.073 177.061 120.258 177.061 C 118.443 177.061 116.701 176.302 115.405 175.058 L 104.491 163.908 L 88.846 163.908 C 87.056 163.876 85.346 163.172 84.082 161.959 C 82.859 160.692 82.162 158.978 82.13 157.186 L 82.13 141.544 L 70.973 130.621 C 69.734 129.322 68.98 127.593 68.98 125.777 C 68.98 123.962 69.734 122.225 70.981 120.926 L 82.13 109.893 L 82.13 94.369 C 82.162 92.577 82.859 90.855 84.066 89.548 C 85.338 88.289 87.048 87.561 88.846 87.522 L 104.491 87.522 L 115.413 76.497 C 116.709 75.253 118.443 74.494 120.258 74.494 C 122.073 74.494 123.807 75.253 125.103 76.497 L 136.138 87.522 L 151.67 87.522 C 153.468 87.561 155.194 88.281 156.499 89.533 C 157.754 90.847 158.475 92.569 158.516 94.369 L 158.516 109.893 L 169.543 120.934 C 170.791 122.233 171.536 123.962 171.536 125.777 C 171.536 127.593 170.791 129.322 169.543 130.621 L 159.464 140.699 L 175.206 171.474 C 175.903 172.914 176.178 174.503 175.903 175.888 C 175.636 177.241 174.963 178.525 174.048 179.448 Z"/>
</svg>