<?xml version="1.0" encoding="utf-8"?>
<svg clip-rule="evenodd" fill-rule="evenodd" stroke-linejoin="round" stroke-miterlimit="2" viewBox="0 0 245 210" xmlns="http://www.w3.org/2000/svg">
  <path d="M 98.002 0.001 C 108.518 0.001 118.711 3.687 126.796 10.416 L 228.793 91.419 C 239.059 99.971 244.997 112.64 244.997 125.996 L 244.997 175.003 C 244.997 184.284 241.311 193.188 234.748 199.745 C 228.186 206.31 219.281 210.004 209.996 210.004 L 35 210.004 C 25.715 210.004 16.819 206.31 10.248 199.745 C 3.686 193.188 -0.001 184.284 -0.001 175.003 L -0.001 35.002 C -0.001 25.714 3.686 16.817 10.248 10.252 C 16.819 3.687 25.715 0.001 35 0.001 L 98.002 0.001 Z M 35 17.419 C 30.341 17.419 25.869 19.274 22.571 22.568 C 19.274 25.87 17.419 30.338 17.419 35.002 L 17.419 175.003 C 17.419 179.659 19.274 184.135 22.571 187.429 C 25.869 190.723 30.341 192.578 35 192.578 L 209.996 192.578 C 214.663 192.578 219.136 190.723 222.433 187.429 C 225.731 184.135 227.578 179.659 227.578 175.003 L 227.578 125.996 C 227.578 117.812 223.94 110.05 217.645 104.807 L 115.648 23.804 C 110.689 19.681 104.451 17.419 98.002 17.419 L 35 17.419 Z M 37.309 44.736 C 32.772 44.736 29.086 41.23 29.086 36.911 C 29.086 32.592 32.772 29.086 37.309 29.086 L 94.372 29.086 C 98.909 29.086 102.587 32.592 102.587 36.911 C 102.587 41.23 98.909 44.736 94.372 44.736 L 37.309 44.736 Z M 164.665 25.948 C 161.992 23.843 160.947 20.268 162.057 17.052 C 163.175 13.828 166.213 11.668 169.616 11.668 L 218.333 11.668 C 222.312 11.668 226.128 13.249 228.939 16.058 C 231.75 18.875 233.33 22.685 233.33 26.668 L 233.33 63.539 C 233.33 66.598 231.58 69.392 228.826 70.73 C 226.071 72.068 222.79 71.716 220.383 69.822 L 164.665 25.948 Z M 137.159 116.231 C 137.208 113.954 136.324 112.084 134.817 110.589 C 133.319 109.087 131.447 108.203 129.178 108.242 C 125.946 108.203 123.207 109.478 121.076 111.607 C 118.954 113.735 117.673 116.474 117.722 119.698 C 117.673 124.126 119.44 127.945 122.356 130.864 C 125.265 133.774 129.089 135.535 133.513 135.496 C 139.436 135.535 144.613 133.172 148.51 129.275 C 152.407 125.378 154.773 120.198 154.732 114.275 C 154.765 106.724 151.897 99.799 146.533 94.486 C 141.218 89.118 134.291 86.246 126.74 86.286 C 116.612 86.239 107.619 90.323 100.967 96.982 C 94.307 103.633 90.272 112.624 90.272 122.749 C 90.272 134.619 95.563 146.803 103.9 156.717 C 112.229 166.623 123.28 173.963 135.036 175.927 C 135.692 176.044 136.446 176.435 136.835 176.905 C 137.232 177.374 137.483 178.18 137.483 178.845 C 137.41 179.51 137.07 180.293 136.632 180.715 C 136.187 181.138 135.417 181.435 134.753 181.49 C 134.744 181.498 134.744 181.506 134.744 181.506 C 134.728 181.506 134.68 181.514 134.599 181.529 C 120.007 180.833 106.104 174.698 95.717 164.362 C 84.682 153.274 78.484 138.391 78.484 122.749 C 78.484 109.517 83.953 97.326 92.63 88.649 C 101.315 79.963 113.501 74.54 126.74 74.494 C 137.289 74.533 147.376 78.711 154.862 86.153 C 162.3 93.633 166.48 103.727 166.521 114.275 C 166.472 123.305 162.761 131.685 156.839 137.609 C 150.916 143.524 142.539 147.241 133.513 147.28 C 125.978 147.241 118.962 144.134 114.019 139.197 C 109.077 134.259 105.974 127.233 105.934 119.705 C 105.974 113.367 108.591 107.428 112.747 103.273 C 116.896 99.118 122.834 96.497 129.178 96.458 C 134.558 96.497 139.581 98.735 143.057 102.256 C 146.533 105.785 148.704 110.855 148.753 116.231 C 148.68 122.139 145.577 127.53 140.951 130.425 C 140.246 130.84 139.306 131.09 138.544 131.02 C 137.783 130.957 136.892 130.566 136.268 130.042 C 135.684 129.471 135.198 128.626 135.052 127.874 C 134.915 127.123 135.028 126.216 135.368 125.48 C 136.397 123.086 137.175 120.073 137.159 116.231 Z"/>
</svg>