<?xml version="1.0" encoding="utf-8"?>
<svg clip-rule="evenodd" fill-rule="evenodd" stroke-linejoin="round" stroke-miterlimit="2" viewBox="0 0 245 210" xmlns="http://www.w3.org/2000/svg">
  <path d="M 98.002 0.001 C 108.518 0.001 118.711 3.687 126.796 10.416 L 228.793 91.419 C 239.059 99.971 244.997 112.64 244.997 125.996 L 244.997 175.003 C 244.997 184.284 241.311 193.188 234.748 199.745 C 228.186 206.31 219.281 210.004 209.996 210.004 L 35 210.004 C 25.715 210.004 16.819 206.31 10.248 199.745 C 3.686 193.188 -0.001 184.284 -0.001 175.003 L -0.001 35.002 C -0.001 25.714 3.686 16.817 10.248 10.252 C 16.819 3.687 25.715 0.001 35 0.001 L 98.002 0.001 Z M 35 17.419 C 30.341 17.419 25.869 19.274 22.571 22.568 C 19.274 25.87 17.419 30.338 17.419 35.002 L 17.419 175.003 C 17.419 179.659 19.274 184.135 22.571 187.429 C 25.869 190.723 30.341 192.578 35 192.578 L 209.996 192.578 C 214.663 192.578 219.136 190.723 222.433 187.429 C 225.731 184.135 227.578 179.659 227.578 175.003 L 227.578 125.996 C 227.578 117.812 223.94 110.05 217.645 104.807 L 115.648 23.804 C 110.689 19.681 104.451 17.419 98.002 17.419 L 35 17.419 Z M 37.309 44.736 C 32.772 44.736 29.086 41.23 29.086 36.911 C 29.086 32.592 32.772 29.086 37.309 29.086 L 94.372 29.086 C 98.909 29.086 102.587 32.592 102.587 36.911 C 102.587 41.23 98.909 44.736 94.372 44.736 L 37.309 44.736 Z M 164.665 25.948 C 161.992 23.843 160.947 20.268 162.057 17.052 C 163.175 13.828 166.213 11.668 169.616 11.668 L 218.333 11.668 C 222.312 11.668 226.128 13.249 228.939 16.058 C 231.75 18.875 233.33 22.685 233.33 26.668 L 233.33 63.539 C 233.33 66.598 231.58 69.392 228.826 70.73 C 226.071 72.068 222.79 71.716 220.383 69.822 L 164.665 25.948 Z M 137.248 149.753 C 135.976 149.721 134.736 149.244 133.886 148.462 C 133.092 147.616 132.573 146.38 132.573 145.097 C 132.573 143.861 133.108 142.632 133.926 141.763 C 134.793 140.942 136.025 140.441 137.248 140.402 L 146.436 140.402 C 147.724 140.441 148.972 140.942 149.822 141.763 C 150.6 142.632 151.111 143.861 151.111 145.113 C 151.111 146.364 150.576 147.601 149.749 148.454 C 148.883 149.236 147.659 149.721 146.436 149.753 L 137.248 149.753 Z M 146.436 136.278 L 137.248 136.278 C 135.976 136.247 134.736 135.77 133.886 134.987 C 133.092 134.142 132.573 132.898 132.573 131.623 C 132.573 130.386 133.108 129.158 133.926 128.281 C 134.793 127.468 136.025 126.967 137.248 126.928 L 146.436 126.928 C 147.724 126.967 148.972 127.468 149.822 128.281 C 150.608 129.158 151.111 130.386 151.111 131.638 C 151.111 132.89 150.576 134.126 149.749 134.979 C 148.883 135.762 147.659 136.239 146.436 136.278 Z M 118.111 147.679 C 120.161 148.172 122.113 148.939 123.718 149.862 C 124.803 150.59 125.711 151.435 126.326 152.264 C 126.934 153.149 127.331 154.221 127.331 155.183 C 127.331 156.2 126.813 157.257 126.075 157.969 C 125.297 158.61 124.22 159.017 123.167 159.041 L 99.071 159.041 C 98.002 159.017 96.908 158.649 96.122 158.047 C 95.352 157.351 94.801 156.247 94.801 155.144 C 94.801 154.213 95.198 153.164 95.806 152.272 C 96.438 151.419 97.443 150.559 98.666 149.831 C 100.254 148.908 102.134 148.172 104.159 147.679 C 106.193 147.194 108.551 146.936 111.119 146.936 C 113.687 146.936 116.061 147.194 118.111 147.679 Z M 105.156 140.379 C 103.584 138.782 102.668 136.654 102.668 134.353 C 102.668 132.115 103.584 130.003 105.156 128.383 C 106.776 126.818 108.883 125.903 111.127 125.903 C 113.363 125.903 115.47 126.826 117.09 128.399 C 118.654 130.018 119.569 132.131 119.569 134.369 C 119.569 136.677 118.654 138.798 117.074 140.394 C 115.445 141.92 113.347 142.812 111.111 142.812 C 108.875 142.812 106.768 141.912 105.156 140.379 Z M 88.66 178.744 C 85.808 178.704 83.191 177.625 81.157 175.645 C 79.181 173.618 78.103 170.997 78.062 168.149 L 78.062 81.888 C 78.103 79.001 79.181 76.364 81.157 74.329 C 83.191 72.31 85.808 71.231 88.66 71.191 L 156.239 71.191 C 159.115 71.231 161.757 72.31 163.807 74.329 C 165.808 76.364 166.902 79.001 166.934 81.888 L 166.934 168.149 C 166.902 170.997 165.808 173.618 163.807 175.653 C 161.757 177.625 159.115 178.704 156.239 178.744 L 88.66 178.744 Z M 155.243 88.351 L 155.243 82.89 L 89.657 82.89 L 89.657 88.351 L 155.243 88.351 Z M 89.657 106.208 L 155.243 106.208 L 155.243 100.049 L 89.657 100.049 L 89.657 106.208 Z M 89.657 167.147 L 155.243 167.147 L 155.243 117.906 L 89.657 117.906 L 89.657 167.147 Z"/>
</svg>