<?xml version="1.0" encoding="utf-8"?>
<svg clip-rule="evenodd" fill-rule="evenodd" stroke-linejoin="round" stroke-miterlimit="2" viewBox="0 0 245 210" xmlns="http://www.w3.org/2000/svg">
  <path d="M 98.002 0.001 C 108.518 0.001 118.711 3.687 126.796 10.416 L 228.793 91.419 C 239.059 99.971 244.997 112.64 244.997 125.996 L 244.997 175.003 C 244.997 184.284 241.311 193.188 234.748 199.745 C 228.186 206.31 219.281 210.004 209.996 210.004 L 35 210.004 C 25.715 210.004 16.819 206.31 10.248 199.745 C 3.686 193.188 -0.001 184.284 -0.001 175.003 L -0.001 35.002 C -0.001 25.714 3.686 16.817 10.248 10.252 C 16.819 3.687 25.715 0.001 35 0.001 L 98.002 0.001 Z M 35 17.419 C 30.341 17.419 25.869 19.274 22.571 22.568 C 19.274 25.87 17.419 30.338 17.419 35.002 L 17.419 175.003 C 17.419 179.659 19.274 184.135 22.571 187.429 C 25.869 190.723 30.341 192.578 35 192.578 L 209.996 192.578 C 214.663 192.578 219.136 190.723 222.433 187.429 C 225.731 184.135 227.578 179.659 227.578 175.003 L 227.578 125.996 C 227.578 117.812 223.94 110.05 217.645 104.807 L 115.648 23.804 C 110.689 19.681 104.451 17.419 98.002 17.419 L 35 17.419 Z M 37.309 44.736 C 32.772 44.736 29.086 41.23 29.086 36.911 C 29.086 32.592 32.772 29.086 37.309 29.086 L 94.372 29.086 C 98.909 29.086 102.587 32.592 102.587 36.911 C 102.587 41.23 98.909 44.736 94.372 44.736 L 37.309 44.736 Z M 164.665 25.948 C 161.992 23.843 160.947 20.268 162.057 17.052 C 163.175 13.828 166.213 11.668 169.616 11.668 L 218.333 11.668 C 222.312 11.668 226.128 13.249 228.939 16.058 C 231.75 18.875 233.33 22.685 233.33 26.668 L 233.33 63.539 C 233.33 66.598 231.58 69.392 228.826 70.73 C 226.071 72.068 222.79 71.716 220.383 69.822 L 164.665 25.948 Z M 178.836 115.949 L 181.267 117.444 L 180.821 118.359 C 180.051 120.081 179.832 120.543 179.719 120.77 C 175.409 129.392 166.91 129.502 162.932 129.392 C 152.893 154.565 131.463 168.47 102.531 168.47 C 89.178 168.47 79.019 164.221 72.172 155.833 C 66.566 148.97 64.419 140.472 63.762 133.915 C 63.552 131.607 64.329 129.322 65.893 127.608 C 67.457 125.895 69.669 124.917 71.986 124.917 L 143.981 124.917 C 147.084 125.003 150.163 124.291 152.917 122.859 C 151.589 120.746 150.795 118.336 150.6 115.848 C 150.236 111.348 151.281 106.849 153.582 102.968 L 155.348 100.323 L 157.892 102.17 C 162.316 105.73 164.852 109.76 165.403 114.353 C 170.15 113.438 176.227 114.118 178.876 115.957 L 178.836 115.949 Z M 126.035 90.276 L 126.035 98.218 C 126.035 99.721 124.819 100.934 123.321 100.934 L 114.619 100.934 C 113.12 100.934 111.905 99.721 111.905 98.218 L 111.905 90.276 C 111.905 88.774 113.12 87.561 114.619 87.561 L 123.321 87.561 C 124.819 87.561 126.035 88.774 126.035 90.276 Z M 106.622 90.276 L 106.622 98.218 C 106.622 99.721 105.407 100.934 103.908 100.934 L 95.206 100.934 C 93.708 100.934 92.492 99.721 92.492 98.218 L 92.492 90.276 C 92.492 88.774 93.708 87.561 95.206 87.561 L 103.908 87.561 C 105.407 87.561 106.622 88.774 106.622 90.276 Z M 87.04 109.032 L 87.04 116.974 C 87.04 118.477 85.824 119.69 84.325 119.69 L 75.624 119.69 C 74.125 119.69 72.91 118.477 72.91 116.974 L 72.91 109.032 C 72.91 107.538 74.125 106.317 75.624 106.317 L 84.325 106.317 C 85.824 106.317 87.04 107.538 87.04 109.032 Z M 106.444 109.032 L 106.444 116.974 C 106.444 118.477 105.229 119.69 103.73 119.69 L 95.028 119.69 C 93.529 119.69 92.314 118.477 92.314 116.974 L 92.314 109.032 C 92.314 107.538 93.529 106.317 95.028 106.317 L 103.73 106.317 C 105.229 106.317 106.444 107.538 106.444 109.032 Z M 125.865 109.032 L 125.865 116.974 C 125.865 118.477 124.649 119.69 123.15 119.69 L 114.449 119.69 C 112.95 119.69 111.735 118.477 111.735 116.974 L 111.735 109.032 C 111.735 107.538 112.95 106.317 114.449 106.317 L 123.15 106.317 C 124.649 106.317 125.865 107.538 125.865 109.032 Z M 145.277 109.032 L 145.277 116.974 C 145.277 118.477 144.062 119.69 142.563 119.69 L 133.869 119.69 C 132.371 119.69 131.155 118.477 131.155 116.974 L 131.155 109.032 C 131.155 107.538 132.371 106.317 133.869 106.317 L 142.563 106.317 C 144.062 106.317 145.277 107.538 145.277 109.032 Z"/>
</svg>