<?xml version="1.0" encoding="utf-8"?>
<svg clip-rule="evenodd" fill-rule="evenodd" stroke-linejoin="round" stroke-miterlimit="2" viewBox="0 0 245 210" xmlns="http://www.w3.org/2000/svg">
  <path d="M 98.002 0.001 C 108.518 0.001 118.711 3.687 126.796 10.416 L 228.793 91.419 C 239.059 99.971 244.997 112.64 244.997 125.996 L 244.997 175.003 C 244.997 184.284 241.311 193.188 234.748 199.745 C 228.186 206.31 219.281 210.004 209.996 210.004 L 35 210.004 C 25.715 210.004 16.819 206.31 10.248 199.745 C 3.686 193.188 -0.001 184.284 -0.001 175.003 L -0.001 35.002 C -0.001 25.714 3.686 16.817 10.248 10.252 C 16.819 3.687 25.715 0.001 35 0.001 L 98.002 0.001 Z M 35 17.419 C 30.341 17.419 25.869 19.274 22.571 22.568 C 19.274 25.87 17.419 30.338 17.419 35.002 L 17.419 175.003 C 17.419 179.659 19.274 184.135 22.571 187.429 C 25.869 190.723 30.341 192.578 35 192.578 L 209.996 192.578 C 214.663 192.578 219.136 190.723 222.433 187.429 C 225.731 184.135 227.578 179.659 227.578 175.003 L 227.578 125.996 C 227.578 117.812 223.94 110.05 217.645 104.807 L 115.648 23.804 C 110.689 19.681 104.451 17.419 98.002 17.419 L 35 17.419 Z M 37.309 44.736 C 32.772 44.736 29.086 41.23 29.086 36.911 C 29.086 32.592 32.772 29.086 37.309 29.086 L 94.372 29.086 C 98.909 29.086 102.587 32.592 102.587 36.911 C 102.587 41.23 98.909 44.736 94.372 44.736 L 37.309 44.736 Z M 164.665 25.948 C 161.992 23.843 160.947 20.268 162.057 17.052 C 163.175 13.828 166.213 11.668 169.616 11.668 L 218.333 11.668 C 222.312 11.668 226.128 13.249 228.939 16.058 C 231.75 18.875 233.33 22.685 233.33 26.668 L 233.33 63.539 C 233.33 66.598 231.58 69.392 228.826 70.73 C 226.071 72.068 222.79 71.716 220.383 69.822 L 164.665 25.948 Z M 124.884 133.688 C 125.095 129.948 126.934 126.654 129.697 124.314 C 132.597 121.904 136.268 120.59 140.035 120.621 C 144.013 120.621 147.659 122.021 150.373 124.314 C 153.136 126.654 154.967 129.948 155.178 133.688 C 155.389 137.53 153.841 141.098 151.135 143.751 C 148.145 146.599 144.167 148.18 140.035 148.133 C 135.903 148.18 131.917 146.599 128.927 143.751 C 126.221 141.098 124.674 137.53 124.884 133.688 Z M 100.773 141.247 C 100.74 139.792 101.064 137.366 101.064 137.366 L 79.075 155.355 C 75.235 158.462 70.066 158.454 67.635 155.34 C 65.245 152.272 66.468 147.436 70.268 144.526 L 70.43 144.408 L 110.722 113.477 L 88.141 113.524 L 88.141 113.516 C 84.309 113.5 81.814 110.926 82.535 107.812 C 83.232 104.76 86.772 102.342 90.459 102.334 L 90.515 102.334 L 135.06 102.287 L 120.452 90.401 L 120.461 90.394 C 118.184 88.531 118.476 85.566 121.028 83.782 C 123.564 82.013 127.428 82.005 129.729 83.774 L 129.818 83.844 L 164.868 110.754 L 164.86 110.754 C 168.287 113.399 171.22 116.63 173.513 120.3 C 175.984 124.252 177.612 128.68 178.261 133.297 C 178.949 138.109 178.552 143.023 177.094 147.663 C 175.579 152.452 173.035 156.858 169.656 160.574 C 166.018 164.581 161.587 167.781 156.636 169.964 C 151.256 172.359 145.431 173.587 139.541 173.579 C 133.651 173.611 127.825 172.398 122.437 170.027 C 117.487 167.851 113.047 164.667 109.409 160.668 C 106.015 156.967 103.479 152.57 101.964 147.781 C 101.259 145.559 100.789 142.718 100.764 141.247 L 100.773 141.247 Z M 157.284 149.385 C 159.415 147.225 161.068 144.635 162.121 141.787 C 163.102 139.08 163.482 136.192 163.239 133.321 C 162.996 130.519 162.162 127.804 160.793 125.347 C 159.48 122.953 157.657 120.785 155.413 118.954 C 151.005 115.378 145.399 113.453 139.525 113.461 C 133.659 113.477 128.06 115.417 123.653 119.001 C 121.465 120.777 119.634 122.953 118.265 125.41 C 115.486 130.449 115 136.45 116.944 141.857 C 117.998 144.706 119.65 147.296 121.789 149.44 C 126.326 154.048 132.662 156.654 139.541 156.631 C 146.403 156.623 152.739 154.002 157.276 149.385 L 157.284 149.385 Z"/>
</svg>