<?xml version="1.0" encoding="utf-8"?>
<svg clip-rule="evenodd" fill-rule="evenodd" stroke-linejoin="round" stroke-miterlimit="2" viewBox="0 0 245 210" xmlns="http://www.w3.org/2000/svg">
  <path d="M 98.002 0.001 C 108.518 0.001 118.711 3.687 126.796 10.416 L 228.793 91.419 C 239.059 99.971 244.997 112.64 244.997 125.996 L 244.997 175.003 C 244.997 184.284 241.311 193.188 234.748 199.745 C 228.186 206.31 219.281 210.004 209.996 210.004 L 35 210.004 C 25.715 210.004 16.819 206.31 10.248 199.745 C 3.686 193.188 -0.001 184.284 -0.001 175.003 L -0.001 35.002 C -0.001 25.714 3.686 16.817 10.248 10.252 C 16.819 3.687 25.715 0.001 35 0.001 L 98.002 0.001 Z M 35 17.419 C 30.341 17.419 25.869 19.274 22.571 22.568 C 19.274 25.87 17.419 30.338 17.419 35.002 L 17.419 175.003 C 17.419 179.659 19.274 184.135 22.571 187.429 C 25.869 190.723 30.341 192.578 35 192.578 L 209.996 192.578 C 214.663 192.578 219.136 190.723 222.433 187.429 C 225.731 184.135 227.578 179.659 227.578 175.003 L 227.578 125.996 C 227.578 117.812 223.94 110.05 217.645 104.807 L 115.648 23.804 C 110.689 19.681 104.451 17.419 98.002 17.419 L 35 17.419 Z M 37.309 44.736 C 32.772 44.736 29.086 41.23 29.086 36.911 C 29.086 32.592 32.772 29.086 37.309 29.086 L 94.372 29.086 C 98.909 29.086 102.587 32.592 102.587 36.911 C 102.587 41.23 98.909 44.736 94.372 44.736 L 37.309 44.736 Z M 164.665 25.948 C 161.992 23.843 160.947 20.268 162.057 17.052 C 163.175 13.828 166.213 11.668 169.616 11.668 L 218.333 11.668 C 222.312 11.668 226.128 13.249 228.939 16.058 C 231.75 18.875 233.33 22.685 233.33 26.668 L 233.33 63.539 C 233.33 66.598 231.58 69.392 228.826 70.73 C 226.071 72.068 222.79 71.716 220.383 69.822 L 164.665 25.948 Z M 70.584 91.794 C 70.584 88.578 71.702 85.84 73.939 83.578 C 76.175 81.317 78.881 80.19 82.065 80.19 L 162.94 80.19 C 166.148 80.19 168.887 81.317 171.147 83.578 C 173.408 85.84 174.542 88.578 174.542 91.794 L 174.542 148.235 C 174.542 151.412 173.408 154.119 171.147 156.357 C 168.887 158.595 166.148 159.714 162.94 159.714 L 82.065 159.714 C 78.881 159.714 76.175 158.595 73.939 156.357 C 71.702 154.119 70.584 151.412 70.584 148.235 L 70.584 91.794 Z M 162.94 91.794 L 82.065 91.794 L 82.065 113.907 L 103.001 113.907 C 103.633 113.907 104.256 114.071 104.856 114.392 C 105.464 114.721 105.925 115.206 106.25 115.863 L 113.007 129.666 L 128.854 101.442 C 129.097 100.793 129.543 100.323 130.199 100.042 C 130.847 99.752 131.528 99.611 132.225 99.611 C 132.93 99.611 133.578 99.744 134.177 100.01 C 134.785 100.276 135.247 100.714 135.571 101.325 L 141.745 113.907 L 162.94 113.907 L 162.94 91.794 Z M 82.065 148.235 L 162.94 148.235 L 162.94 121.231 L 140.821 121.231 C 139.695 121.231 138.682 120.949 137.767 120.378 C 136.851 119.807 136.162 119.032 135.692 118.062 L 132.03 110.973 L 116.15 138.579 C 115.842 139.314 115.389 139.862 114.781 140.23 C 114.173 140.598 113.541 140.778 112.869 140.778 C 112.124 140.778 111.443 140.621 110.835 140.292 C 110.22 139.964 109.758 139.479 109.426 138.829 L 100.635 121.231 L 82.065 121.231 L 82.065 148.235 Z M 70.212 175.841 C 69.004 175.841 67.984 175.418 67.165 174.573 C 66.347 173.728 65.942 172.687 65.942 171.435 C 65.942 170.222 66.363 169.189 67.206 168.329 C 68.048 167.476 69.093 167.045 70.333 167.045 L 174.785 167.045 C 176 167.045 177.013 167.484 177.831 168.352 C 178.65 169.221 179.063 170.269 179.063 171.482 C 179.063 172.695 178.641 173.728 177.799 174.573 C 176.956 175.418 175.911 175.841 174.663 175.841 L 70.212 175.841 Z"/>
</svg>