<?xml version="1.0" encoding="utf-8"?>
<svg clip-rule="evenodd" fill-rule="evenodd" stroke-linejoin="round" stroke-miterlimit="2" viewBox="0 0 245 210" xmlns="http://www.w3.org/2000/svg">
  <path d="M 98.002 0.001 C 108.518 0.001 118.711 3.687 126.796 10.416 L 228.793 91.419 C 239.059 99.971 244.997 112.64 244.997 125.996 L 244.997 175.003 C 244.997 184.284 241.311 193.188 234.748 199.745 C 228.186 206.31 219.281 210.004 209.996 210.004 L 35 210.004 C 25.715 210.004 16.819 206.31 10.248 199.745 C 3.686 193.188 -0.001 184.284 -0.001 175.003 L -0.001 35.002 C -0.001 25.714 3.686 16.817 10.248 10.252 C 16.819 3.687 25.715 0.001 35 0.001 L 98.002 0.001 Z M 35 17.419 C 30.341 17.419 25.869 19.274 22.571 22.568 C 19.274 25.87 17.419 30.338 17.419 35.002 L 17.419 175.003 C 17.419 179.659 19.274 184.135 22.571 187.429 C 25.869 190.723 30.341 192.578 35 192.578 L 209.996 192.578 C 214.663 192.578 219.136 190.723 222.433 187.429 C 225.731 184.135 227.578 179.659 227.578 175.003 L 227.578 125.996 C 227.578 117.812 223.94 110.05 217.645 104.807 L 115.648 23.804 C 110.689 19.681 104.451 17.419 98.002 17.419 L 35 17.419 Z M 37.309 44.736 C 32.772 44.736 29.086 41.23 29.086 36.911 C 29.086 32.592 32.772 29.086 37.309 29.086 L 94.372 29.086 C 98.909 29.086 102.587 32.592 102.587 36.911 C 102.587 41.23 98.909 44.736 94.372 44.736 L 37.309 44.736 Z M 164.665 25.948 C 161.992 23.843 160.947 20.268 162.057 17.052 C 163.175 13.828 166.213 11.668 169.616 11.668 L 218.333 11.668 C 222.312 11.668 226.128 13.249 228.939 16.058 C 231.75 18.875 233.33 22.685 233.33 26.668 L 233.33 63.539 C 233.33 66.598 231.58 69.392 228.826 70.73 C 226.071 72.068 222.79 71.716 220.383 69.822 L 164.665 25.948 Z M 143.884 89.987 C 141.412 90.542 136.162 93.907 130.28 100.214 C 129.146 101.466 127.542 102.178 125.857 102.178 C 122.583 102.178 119.893 99.486 119.893 96.215 C 119.893 95.284 120.112 94.353 120.533 93.523 C 120.809 92.984 121.157 92.498 121.554 92.076 C 128.579 84.548 134.866 79.791 141.283 78.351 L 141.291 78.351 C 142.134 78.163 143.009 78.038 143.892 78.007 C 146.598 77.889 149.369 78.547 151.613 80.229 C 154.554 82.444 156.126 85.871 156.725 89.595 C 157.876 96.583 156.191 105.018 152.869 114.564 C 149.604 123.97 144.597 134.322 138.317 144.283 C 137.24 146.012 135.32 147.069 133.278 147.069 C 130.005 147.069 127.315 144.377 127.315 141.114 C 127.315 139.979 127.631 138.876 128.23 137.929 C 134.032 128.72 138.666 119.087 141.599 110.652 C 144.475 102.389 145.561 95.167 144.953 91.505 C 144.832 90.73 144.597 90.167 144.475 89.893 C 144.321 89.908 144.11 89.94 143.884 89.987 Z M 78.8 128.407 C 80.396 130.206 85.873 133.141 94.323 135.112 C 97.021 135.754 98.941 138.164 98.941 140.926 C 98.941 144.197 96.243 146.897 92.97 146.897 C 92.517 146.897 92.071 146.842 91.625 146.74 C 81.506 144.377 74.23 141.255 69.847 136.278 C 67.489 133.587 66.015 129.854 66.647 126.153 C 67.262 122.514 69.547 119.549 72.577 117.194 C 78.281 112.78 86.691 110.034 96.843 108.211 C 104.354 106.849 112.796 106.09 121.546 106.051 C 124.455 106.028 127.404 106.082 130.361 106.231 C 133.529 106.395 136.049 109.032 136.049 112.194 C 136.049 115.464 133.351 118.148 130.078 118.148 L 129.786 118.148 C 118.832 117.616 107.975 118.313 98.958 119.94 C 90.118 121.529 83.029 124.189 79.885 126.622 C 79.124 127.209 78.686 127.757 78.5 128.031 C 78.581 128.14 78.686 128.274 78.8 128.407 Z M 144.694 165.653 C 145.464 163.352 145.253 157.1 142.717 148.751 C 142.539 148.172 142.45 147.577 142.45 146.975 C 142.45 143.712 145.139 141.012 148.413 141.012 C 150.406 141.012 152.261 142.014 153.379 143.665 L 153.387 143.688 C 153.703 144.181 153.946 144.713 154.117 145.285 C 157.155 155.261 158.119 163.149 155.988 169.463 C 154.854 172.859 152.326 176.005 148.793 177.319 C 145.318 178.595 141.599 178.086 138.034 176.615 C 131.342 173.861 124.73 167.914 118.062 159.98 C 111.467 152.178 104.986 142.413 99.573 131.81 C 99.136 130.973 98.917 130.042 98.917 129.087 C 98.917 125.824 101.599 123.133 104.864 123.133 C 107.108 123.125 109.166 124.377 110.187 126.364 C 115.186 136.153 121.246 145.261 127.177 152.296 C 133.003 159.205 138.868 164.072 142.579 165.59 L 142.579 165.598 C 143.495 165.981 144.2 166.075 144.524 166.091 C 144.58 165.981 144.637 165.817 144.694 165.653 Z M 100.173 90.8 C 99.833 92.138 99.711 94.423 100.084 97.436 L 100.084 97.475 C 100.108 97.671 100.116 97.866 100.116 98.07 C 100.116 101.34 97.418 104.024 94.153 104.024 C 91.196 104.024 88.668 101.826 88.255 98.891 L 88.247 98.868 C 87.736 94.705 87.801 91.082 88.619 87.866 C 89.486 84.455 91.407 81.27 94.518 79.486 C 96.487 78.359 98.682 77.921 100.894 77.991 C 102.19 78.03 103.479 78.257 104.726 78.602 C 107.919 79.517 111.078 81.301 114.441 83.836 C 115.032 84.259 115.543 84.791 115.923 85.401 C 116.555 86.364 116.879 87.491 116.879 88.641 C 116.879 91.912 114.198 94.595 110.924 94.595 C 109.596 94.595 108.299 94.157 107.254 93.344 C 104.824 91.505 102.806 90.456 101.461 90.081 C 101.064 89.963 100.7 89.916 100.497 89.901 C 100.416 90.081 100.27 90.409 100.173 90.8 Z M 165.905 127.303 C 164.917 126.333 162.996 125.073 160.201 123.884 C 157.981 122.96 156.515 120.785 156.515 118.375 C 156.515 115.112 159.213 112.42 162.478 112.42 L 162.559 112.42 C 163.353 112.428 164.139 112.608 164.86 112.921 C 168.741 114.58 171.852 116.435 174.242 118.774 C 176.762 121.239 178.544 124.541 178.496 128.14 C 178.447 131.748 176.608 134.979 174.056 137.413 C 171.641 139.713 168.506 141.56 164.609 143.203 C 163.831 143.563 162.988 143.743 162.121 143.743 C 158.856 143.743 156.158 141.059 156.158 137.788 C 156.158 135.316 157.69 133.094 160.015 132.209 C 162.851 131.028 164.803 129.76 165.832 128.79 C 166.164 128.469 166.391 128.172 166.505 128 C 166.391 127.851 166.18 127.569 165.905 127.303 Z M 101.518 165.919 C 102.911 165.504 105.026 164.401 107.538 162.476 L 107.538 162.468 C 108.575 161.685 109.831 161.263 111.127 161.263 C 114.4 161.263 117.098 163.955 117.098 167.218 C 117.098 169.056 116.247 170.786 114.805 171.913 L 114.797 171.92 C 111.378 174.557 108.145 176.388 104.905 177.359 C 101.469 178.368 97.686 178.345 94.518 176.529 C 91.35 174.714 89.43 171.459 88.579 167.984 C 87.777 164.698 87.744 160.997 88.295 156.725 C 88.384 156.005 88.595 155.3 88.935 154.643 L 88.944 154.635 C 89.997 152.648 92.079 151.412 94.331 151.451 C 97.556 151.513 100.181 154.181 100.181 157.413 C 100.181 157.703 100.165 157.992 100.116 158.297 C 99.711 161.412 99.808 163.767 100.149 165.16 C 100.254 165.574 100.4 165.934 100.489 166.122 C 100.692 166.099 101.072 166.052 101.518 165.919 Z"/>
</svg>