<?xml version="1.0" encoding="utf-8"?>
<svg clip-rule="evenodd" fill-rule="evenodd" stroke-linejoin="round" stroke-miterlimit="2" viewBox="0 0 245 210" xmlns="http://www.w3.org/2000/svg">
  <path d="M 98.002 0.001 C 108.518 0.001 118.711 3.687 126.796 10.416 L 228.793 91.419 C 239.059 99.971 244.997 112.64 244.997 125.996 L 244.997 175.003 C 244.997 184.284 241.311 193.188 234.748 199.745 C 228.186 206.31 219.281 210.004 209.996 210.004 L 35 210.004 C 25.715 210.004 16.819 206.31 10.248 199.745 C 3.686 193.188 -0.001 184.284 -0.001 175.003 L -0.001 35.002 C -0.001 25.714 3.686 16.817 10.248 10.252 C 16.819 3.687 25.715 0.001 35 0.001 L 98.002 0.001 Z M 35 17.419 C 30.341 17.419 25.869 19.274 22.571 22.568 C 19.274 25.87 17.419 30.338 17.419 35.002 L 17.419 175.003 C 17.419 179.659 19.274 184.135 22.571 187.429 C 25.869 190.723 30.341 192.578 35 192.578 L 209.996 192.578 C 214.663 192.578 219.136 190.723 222.433 187.429 C 225.731 184.135 227.578 179.659 227.578 175.003 L 227.578 125.996 C 227.578 117.812 223.94 110.05 217.645 104.807 L 115.648 23.804 C 110.689 19.681 104.451 17.419 98.002 17.419 L 35 17.419 Z M 37.309 44.736 C 32.772 44.736 29.086 41.23 29.086 36.911 C 29.086 32.592 32.772 29.086 37.309 29.086 L 94.372 29.086 C 98.909 29.086 102.587 32.592 102.587 36.911 C 102.587 41.23 98.909 44.736 94.372 44.736 L 37.309 44.736 Z M 164.665 25.948 C 161.992 23.843 160.947 20.268 162.057 17.052 C 163.175 13.828 166.213 11.668 169.616 11.668 L 218.333 11.668 C 222.312 11.668 226.128 13.249 228.939 16.058 C 231.75 18.875 233.33 22.685 233.33 26.668 L 233.33 63.539 C 233.33 66.598 231.58 69.392 228.826 70.73 C 226.071 72.068 222.79 71.716 220.383 69.822 L 164.665 25.948 Z M 114.441 97.24 C 114.473 95.088 115.3 93.077 116.766 91.567 C 118.281 90.104 120.299 89.251 122.454 89.251 C 124.609 89.251 126.61 90.112 128.117 91.567 C 129.567 93.085 130.377 95.088 130.418 97.24 L 130.418 158.79 C 130.377 160.942 129.551 162.945 128.085 164.463 C 126.57 165.927 124.552 166.779 122.397 166.779 C 120.242 166.779 118.241 165.919 116.734 164.455 C 115.291 162.945 114.473 160.942 114.441 158.79 L 114.441 97.24 Z M 89.308 146.451 L 89.308 109.877 C 89.349 107.733 90.167 105.707 91.625 104.142 C 93.149 102.632 95.166 101.74 97.321 101.74 C 99.484 101.74 101.51 102.624 103.065 104.134 C 104.556 105.699 105.399 107.726 105.431 109.877 L 105.431 146.451 C 105.391 148.602 104.54 150.621 103.017 152.131 C 101.453 153.587 99.42 154.44 97.272 154.44 C 95.117 154.44 93.108 153.579 91.609 152.116 C 90.159 150.606 89.349 148.595 89.308 146.451 Z M 139.565 109.877 C 139.606 107.733 140.424 105.707 141.882 104.142 C 143.406 102.624 145.472 101.74 147.732 101.74 C 149.887 101.74 151.905 102.632 153.404 104.15 C 154.846 105.707 155.656 107.733 155.688 109.877 L 155.688 146.451 C 155.656 148.602 154.829 150.606 153.363 152.124 C 151.84 153.579 149.831 154.44 147.675 154.44 C 145.431 154.44 143.373 153.579 141.866 152.116 C 140.416 150.606 139.606 148.595 139.565 146.451 L 139.565 109.877 Z M 64.184 125.934 C 64.216 123.79 65.042 121.779 66.509 120.261 C 68.032 118.805 70.041 117.945 72.197 117.945 C 74.352 117.945 76.353 118.805 77.86 120.269 C 79.31 121.779 80.12 123.79 80.161 125.934 L 80.161 130.245 C 80.12 132.389 79.294 134.4 77.828 135.918 C 76.312 137.374 74.295 138.235 72.14 138.235 C 69.985 138.235 67.984 137.374 66.477 135.911 C 65.034 134.4 64.216 132.389 64.184 130.245 L 64.184 125.934 Z M 164.698 130.245 L 164.698 125.934 C 164.73 123.79 165.557 121.779 167.023 120.261 C 168.538 118.805 170.556 117.945 172.711 117.945 C 174.858 117.945 176.883 118.798 178.439 120.253 C 179.938 121.771 180.78 123.782 180.821 125.934 L 180.821 130.245 C 180.78 132.397 179.922 134.416 178.406 135.926 C 176.835 137.382 174.809 138.235 172.654 138.235 C 170.499 138.235 168.498 137.374 166.991 135.911 C 165.54 134.4 164.73 132.389 164.698 130.245 Z"/>
</svg>