<?xml version="1.0" encoding="utf-8"?>
<svg clip-rule="evenodd" fill-rule="evenodd" stroke-linejoin="round" stroke-miterlimit="2" viewBox="0 0 245 210" xmlns="http://www.w3.org/2000/svg">
  <path d="M 98.002 0.001 C 108.518 0.001 118.711 3.687 126.796 10.416 L 228.793 91.419 C 239.059 99.971 244.997 112.64 244.997 125.996 L 244.997 175.003 C 244.997 184.284 241.311 193.188 234.748 199.745 C 228.186 206.31 219.281 210.004 209.996 210.004 L 35 210.004 C 25.715 210.004 16.819 206.31 10.248 199.745 C 3.686 193.188 -0.001 184.284 -0.001 175.003 L -0.001 35.002 C -0.001 25.714 3.686 16.817 10.248 10.252 C 16.819 3.687 25.715 0.001 35 0.001 L 98.002 0.001 Z M 35 17.419 C 30.341 17.419 25.869 19.274 22.571 22.568 C 19.274 25.87 17.419 30.338 17.419 35.002 L 17.419 175.003 C 17.419 179.659 19.274 184.135 22.571 187.429 C 25.869 190.723 30.341 192.578 35 192.578 L 209.996 192.578 C 214.663 192.578 219.136 190.723 222.433 187.429 C 225.731 184.135 227.578 179.659 227.578 175.003 L 227.578 125.996 C 227.578 117.812 223.94 110.05 217.645 104.807 L 115.648 23.804 C 110.689 19.681 104.451 17.419 98.002 17.419 L 35 17.419 Z M 37.309 44.736 C 32.772 44.736 29.086 41.23 29.086 36.911 C 29.086 32.592 32.772 29.086 37.309 29.086 L 94.372 29.086 C 98.909 29.086 102.587 32.592 102.587 36.911 C 102.587 41.23 98.909 44.736 94.372 44.736 L 37.309 44.736 Z M 164.665 25.948 C 161.992 23.843 160.947 20.268 162.057 17.052 C 163.175 13.828 166.213 11.668 169.616 11.668 L 218.333 11.668 C 222.312 11.668 226.128 13.249 228.939 16.058 C 231.75 18.875 233.33 22.685 233.33 26.668 L 233.33 63.539 C 233.33 66.598 231.58 69.392 228.826 70.73 C 226.071 72.068 222.79 71.716 220.383 69.822 L 164.665 25.948 Z M 166.027 98.79 L 166.027 122.147 C 166.018 125.652 165.711 129.197 165.079 132.702 C 164.455 136.208 163.507 139.573 162.259 142.742 C 161.57 144.94 160.234 146.591 158.484 147.405 C 156.774 148.102 154.951 148.282 153.371 147.82 C 151.807 147.358 150.39 146.271 149.377 144.839 C 148.38 143.266 148.251 141.208 149.028 139.173 C 150.082 136.756 150.868 133.962 151.435 130.699 C 152.01 127.413 152.285 124.588 152.285 122.147 L 152.285 99.486 L 122.275 88.367 L 105.342 94.658 C 104.143 95.175 102.766 95.308 101.469 95.002 C 100.222 94.666 99.006 93.993 98.091 93.077 C 96.43 91.419 95.765 89.134 96.276 86.841 C 96.778 84.556 98.374 82.757 100.538 81.794 L 117.892 75.229 C 119.278 74.799 120.777 74.548 122.243 74.501 C 123.742 74.454 125.281 74.72 126.699 75.245 L 157.698 86.732 C 160.144 87.631 162.267 89.251 163.75 91.434 C 165.233 93.617 166.002 96.176 166.027 98.79 Z M 118.346 179.675 C 106.177 175.402 96.406 167.914 89.316 157.366 C 82.227 146.818 78.662 134.964 78.638 122.108 L 78.638 98.837 L 69.669 89.861 C 68.656 88.789 68.032 87.373 68.081 85.973 C 68.129 84.58 68.769 83.187 69.806 82.193 C 70.844 81.199 72.261 80.62 73.647 80.62 C 75.024 80.62 76.45 81.223 77.503 82.146 L 167.493 172.132 C 168.417 173.204 168.976 174.604 168.927 175.989 C 168.878 177.366 168.279 178.767 167.29 179.8 C 166.302 180.841 164.9 181.482 163.515 181.529 C 162.113 181.576 160.695 180.958 159.626 179.941 L 146.865 167.304 C 144.119 170.019 141.348 172.28 137.758 174.581 C 134.161 176.881 130.272 178.689 126.254 179.949 C 125.654 180.121 125.006 180.269 124.35 180.402 C 123.669 180.528 122.964 180.606 122.332 180.606 C 121.271 180.606 119.885 180.269 118.346 179.675 Z M 115.559 109.29 C 116.296 108.391 117.293 107.569 118.411 106.99 C 119.553 106.395 120.914 106.074 122.243 106.074 C 125.087 106.074 127.704 107.131 129.656 109.079 C 131.601 111.028 132.662 113.641 132.662 116.489 C 132.662 117.82 132.338 119.181 131.747 120.323 C 131.163 121.442 130.345 122.436 129.446 123.172 C 129.049 123.493 128.473 123.461 128.117 123.101 L 115.632 110.621 C 115.275 110.261 115.243 109.69 115.559 109.29 Z M 122.219 167.163 C 125.508 165.817 128.222 164.409 130.734 162.711 C 133.246 161.013 135.109 159.455 137.159 157.484 L 123.831 144.15 L 118.686 144.15 C 117.479 144.111 116.264 143.61 115.551 142.734 C 114.838 141.85 114.643 140.652 114.854 139.549 L 115.405 135.723 L 92.257 112.46 L 92.257 122.147 C 92.233 132.131 95.117 141.177 100.943 149.62 C 106.776 158.07 113.525 163.767 122.219 167.163 Z"/>
</svg>