<?xml version="1.0" encoding="utf-8"?>
<svg clip-rule="evenodd" fill-rule="evenodd" stroke-linejoin="round" stroke-miterlimit="2" viewBox="0 0 245 210" xmlns="http://www.w3.org/2000/svg">
  <path d="M 98.002 0.001 C 108.518 0.001 118.711 3.687 126.796 10.416 L 228.793 91.419 C 239.059 99.971 244.997 112.64 244.997 125.996 L 244.997 175.003 C 244.997 184.284 241.311 193.188 234.748 199.745 C 228.186 206.31 219.281 210.004 209.996 210.004 L 35 210.004 C 25.715 210.004 16.819 206.31 10.248 199.745 C 3.686 193.188 -0.001 184.284 -0.001 175.003 L -0.001 35.002 C -0.001 25.714 3.686 16.817 10.248 10.252 C 16.819 3.687 25.715 0.001 35 0.001 L 98.002 0.001 Z M 35 17.419 C 30.341 17.419 25.869 19.274 22.571 22.568 C 19.274 25.87 17.419 30.338 17.419 35.002 L 17.419 175.003 C 17.419 179.659 19.274 184.135 22.571 187.429 C 25.869 190.723 30.341 192.578 35 192.578 L 209.996 192.578 C 214.663 192.578 219.136 190.723 222.433 187.429 C 225.731 184.135 227.578 179.659 227.578 175.003 L 227.578 125.996 C 227.578 117.812 223.94 110.05 217.645 104.807 L 115.648 23.804 C 110.689 19.681 104.451 17.419 98.002 17.419 L 35 17.419 Z M 37.309 44.736 C 32.772 44.736 29.086 41.23 29.086 36.911 C 29.086 32.592 32.772 29.086 37.309 29.086 L 94.372 29.086 C 98.909 29.086 102.587 32.592 102.587 36.911 C 102.587 41.23 98.909 44.736 94.372 44.736 L 37.309 44.736 Z M 164.665 25.948 C 161.992 23.843 160.947 20.268 162.057 17.052 C 163.175 13.828 166.213 11.668 169.616 11.668 L 218.333 11.668 C 222.312 11.668 226.128 13.249 228.939 16.058 C 231.75 18.875 233.33 22.685 233.33 26.668 L 233.33 63.539 C 233.33 66.598 231.58 69.392 228.826 70.73 C 226.071 72.068 222.79 71.716 220.383 69.822 L 164.665 25.948 Z M 81.279 181.537 C 79.367 181.498 77.544 180.794 76.24 179.495 C 74.935 178.188 74.23 176.365 74.198 174.448 L 74.198 168.626 C 74.206 166.881 74.562 165.105 75.251 163.509 C 75.932 161.92 76.944 160.387 78.111 159.111 L 153.825 83.531 C 154.919 82.365 156.142 81.395 157.39 80.746 C 158.654 80.096 160.08 79.728 161.408 79.728 C 162.737 79.728 164.171 80.088 165.484 80.746 C 166.764 81.387 168.044 82.342 169.219 83.5 L 172.443 86.465 C 173.537 87.483 174.461 88.719 175.068 90.018 C 175.668 91.317 176 92.741 176 94.063 C 176 95.378 175.7 96.786 175.141 98.085 C 174.582 99.384 173.651 100.699 172.468 101.888 L 96.722 177.64 C 95.441 178.814 93.943 179.8 92.355 180.481 C 90.75 181.169 88.976 181.521 87.234 181.537 L 81.279 181.537 Z M 85.516 170.34 L 88.247 170.34 L 146.792 111.669 L 145.423 110.308 L 144.167 108.962 L 85.516 167.617 L 85.516 170.34 Z M 124.39 179.878 C 123.353 178.837 122.737 177.359 122.737 175.872 C 122.737 174.385 123.361 172.914 124.406 171.913 C 125.443 170.927 126.869 170.34 128.271 170.34 C 133.075 170.34 136.964 169.456 140.205 167.625 C 143.389 165.825 144.742 164.017 144.742 161.631 C 144.742 160.512 144.159 159.534 142.644 158.258 C 141.064 156.928 138.877 155.629 136.081 154.361 C 134.769 153.579 133.829 152.202 133.683 150.598 C 133.537 149.056 133.902 147.507 134.688 146.325 C 135.498 145.105 136.892 144.283 138.399 144.134 C 139.833 143.994 141.299 144.299 142.555 144.94 C 147.043 146.975 150.462 149.432 152.618 152.217 C 154.789 155.019 155.939 158.274 155.939 161.631 C 155.939 167.93 152.966 173.063 147.367 176.467 C 141.85 179.823 135.385 181.537 128.271 181.537 C 126.861 181.537 125.427 180.919 124.39 179.878 Z M 99.104 92.968 C 97.491 91.669 95.093 91.051 91.504 91.051 C 89.251 91.051 87.477 91.309 86.019 91.833 C 84.577 92.358 83.402 93.077 82.284 94.22 C 81.263 95.284 79.877 95.996 78.435 96.098 C 77.001 96.2 75.559 95.707 74.449 94.846 C 73.201 93.836 72.375 92.428 72.318 90.996 C 72.269 89.603 72.772 88.21 73.631 87.107 C 75.283 85.026 77.763 83.203 80.874 81.825 C 84.001 80.44 87.615 79.728 91.504 79.728 C 97.694 79.728 102.887 81.325 106.703 84.423 C 110.536 87.537 112.569 91.959 112.569 97.17 C 112.569 101.403 111.151 105.128 108.47 107.898 C 105.812 110.644 100.692 113.234 93.367 115.597 C 87.542 117.483 83.92 118.993 82.332 120.175 C 80.769 121.333 80.21 122.1 80.21 122.929 C 80.21 123.712 80.525 124.236 81.506 124.987 C 82.543 125.785 84.115 126.536 86.383 127.288 C 87.834 127.734 89.097 128.665 89.802 129.964 C 90.491 131.255 90.661 132.851 90.272 134.322 C 89.883 135.793 88.911 137.076 87.663 137.781 C 86.408 138.485 84.787 138.61 83.313 138.25 C 79.691 137.1 76.377 135.378 73.55 133.164 C 70.6 130.864 69.021 127.272 69.021 122.929 C 69.021 119.651 70.22 116.442 72.48 113.688 C 74.765 110.902 80.412 108.023 89.025 105.143 C 94.493 103.524 97.872 102.131 99.355 100.926 C 100.797 99.752 101.38 98.664 101.38 97.17 C 101.38 95.503 100.716 94.267 99.104 92.968 Z"/>
</svg>