<?xml version="1.0" encoding="utf-8"?>
<svg clip-rule="evenodd" fill-rule="evenodd" stroke-linejoin="round" stroke-miterlimit="2" viewBox="0 0 245 210" xmlns="http://www.w3.org/2000/svg">
  <path d="M 98.002 0.001 C 108.518 0.001 118.711 3.687 126.796 10.416 L 228.793 91.419 C 239.059 99.971 244.997 112.64 244.997 125.996 L 244.997 175.003 C 244.997 184.284 241.311 193.188 234.748 199.745 C 228.186 206.31 219.281 210.004 209.996 210.004 L 35 210.004 C 25.715 210.004 16.819 206.31 10.248 199.745 C 3.686 193.188 -0.001 184.284 -0.001 175.003 L -0.001 35.002 C -0.001 25.714 3.686 16.817 10.248 10.252 C 16.819 3.687 25.715 0.001 35 0.001 L 98.002 0.001 Z M 35 17.419 C 30.341 17.419 25.869 19.274 22.571 22.568 C 19.274 25.87 17.419 30.338 17.419 35.002 L 17.419 175.003 C 17.419 179.659 19.274 184.135 22.571 187.429 C 25.869 190.723 30.341 192.578 35 192.578 L 209.996 192.578 C 214.663 192.578 219.136 190.723 222.433 187.429 C 225.731 184.135 227.578 179.659 227.578 175.003 L 227.578 125.996 C 227.578 117.812 223.94 110.05 217.645 104.807 L 115.648 23.804 C 110.689 19.681 104.451 17.419 98.002 17.419 L 35 17.419 Z M 37.309 44.736 C 32.772 44.736 29.086 41.23 29.086 36.911 C 29.086 32.592 32.772 29.086 37.309 29.086 L 94.372 29.086 C 98.909 29.086 102.587 32.592 102.587 36.911 C 102.587 41.23 98.909 44.736 94.372 44.736 L 37.309 44.736 Z M 164.665 25.948 C 161.992 23.843 160.947 20.268 162.057 17.052 C 163.175 13.828 166.213 11.668 169.616 11.668 L 218.333 11.668 C 222.312 11.668 226.128 13.249 228.939 16.058 C 231.75 18.875 233.33 22.685 233.33 26.668 L 233.33 63.539 C 233.33 66.598 231.58 69.392 228.826 70.73 C 226.071 72.068 222.79 71.716 220.383 69.822 L 164.665 25.948 Z M 87.218 180.535 C 84.001 180.535 81.303 179.44 79.116 177.257 C 76.936 175.066 75.834 172.366 75.834 169.158 L 75.834 111.294 C 74.384 110.425 73.217 109.181 72.326 107.569 C 71.443 105.957 70.997 104.212 70.997 102.342 L 70.997 89.024 C 70.997 85.777 72.091 83.054 74.279 80.839 C 76.466 78.633 79.164 77.522 82.373 77.522 L 162.502 77.522 C 165.751 77.522 168.481 78.633 170.693 80.839 C 172.897 83.054 174.007 85.777 174.007 89.024 L 174.007 102.342 C 174.007 104.212 173.537 105.949 172.614 107.553 C 171.682 109.157 170.531 110.409 169.162 111.294 L 169.162 169.158 C 169.162 172.366 168.06 175.066 165.848 177.257 C 163.636 179.44 160.906 180.535 157.665 180.535 L 87.218 180.535 Z M 82.373 102.342 L 162.632 102.342 L 162.632 89.024 L 82.373 89.024 L 82.373 102.342 Z M 87.218 113.719 L 87.218 169.276 L 157.787 169.276 L 157.787 113.719 L 87.218 113.719 Z M 107.765 137.139 C 106.817 136.208 106.339 135.073 106.339 133.735 C 106.339 132.389 106.817 131.239 107.765 130.284 C 108.713 129.33 109.855 128.845 111.184 128.845 L 133.821 128.845 C 135.15 128.845 136.284 129.314 137.24 130.238 C 138.188 131.169 138.658 132.303 138.658 133.641 C 138.658 134.987 138.188 136.137 137.24 137.092 C 136.284 138.047 135.15 138.532 133.821 138.532 L 111.184 138.532 C 109.855 138.532 108.713 138.07 107.765 137.139 Z"/>
</svg>