<svg clip-rule="evenodd" fill-rule="evenodd" stroke-linejoin="round" stroke-miterlimit="2" viewBox="0 0 245 210" xmlns="http://www.w3.org/2000/svg"><path d="m7.144 3.567h7.776c1.298 0 2.556.471 3.554 1.331l12.589 10.352c1.267 1.093 2 2.712 2 4.419v6.263c0 1.186-.455 2.324-1.265 3.162-.81.839-1.909 1.311-3.055 1.311h-21.599c-1.146 0-2.244-.472-3.055-1.311-.81-.838-1.265-1.976-1.265-3.162v-17.892c0-1.187.455-2.324 1.265-3.163.811-.839 1.909-1.31 3.055-1.31zm0 2.226c-.575 0-1.127.237-1.534.658-.407.422-.636.993-.636 1.589v17.892c0 .595.229 1.167.636 1.588s.959.658 1.534.658h21.599c.576 0 1.128-.237 1.535-.658s.635-.993.635-1.588v-6.263c0-1.046-.449-2.038-1.226-2.708l-12.589-10.352c-.612-.527-1.382-.816-2.178-.816zm.285 3.491c-.56 0-1.015-.448-1.015-1s.455-1 1.015-1h7.043c.56 0 1.014.448 1.014 1s-.454 1-1.014 1zm15.719-2.401c-.33-.269-.459-.726-.322-1.137.138-.412.513-.688.933-.688h6.013c.491 0 .962.202 1.309.561.347.36.542.847.542 1.356v4.712c0 .391-.216.748-.556.919s-.745.126-1.042-.116z" transform="matrix(8.10206 0 0 7.82482 -22.8811 -27.9099)"/><path d="m372-312c-76.773 0-141.8-26.667-195.08-80s-79.92-117.667-79.92-193 26.667-139.667 80-193 117.833-80 193.5-80 140 26.667 193 80 79.5 117.717 79.5 193.15c0 29.9-4.167 57.683-12.5 83.35s-20.833 49.833-37.5 72.5l236 234c9.333 9.707 14 21.133 14 34.28s-4.667 24.387-14 33.72c-9.687 10-21.183 15-34.49 15-13.3 0-24.47-5-33.51-15l-235-234c-19.333 15.28-42.153 27.267-68.46 35.96s-54.82 13.04-85.54 13.04zm-.65-94c49.933 0 92.027-17.417 126.28-52.25 34.247-34.833 51.37-77.083 51.37-126.75s-17.173-91.917-51.52-126.75-76.39-52.25-126.13-52.25c-50.287 0-92.917 17.417-127.89 52.25s-52.46 77.083-52.46 126.75 17.437 91.917 52.31 126.75 77.553 52.25 128.04 52.25z" fill-rule="nonzero" transform="matrix(.1408 0 0 .1408 56.324 196.303)"/></svg>