<?xml version="1.0" encoding="utf-8"?>
<svg clip-rule="evenodd" fill-rule="evenodd" stroke-linejoin="round" stroke-miterlimit="2" viewBox="0 0 245 210" xmlns="http://www.w3.org/2000/svg">
  <path d="M 98.002 0.001 C 108.518 0.001 118.711 3.687 126.796 10.416 L 228.793 91.419 C 239.059 99.971 244.997 112.64 244.997 125.996 L 244.997 175.003 C 244.997 184.284 241.311 193.188 234.748 199.745 C 228.186 206.31 219.281 210.004 209.996 210.004 L 35 210.004 C 25.715 210.004 16.819 206.31 10.248 199.745 C 3.686 193.188 -0.001 184.284 -0.001 175.003 L -0.001 35.002 C -0.001 25.714 3.686 16.817 10.248 10.252 C 16.819 3.687 25.715 0.001 35 0.001 L 98.002 0.001 Z M 35 17.419 C 30.341 17.419 25.869 19.274 22.571 22.568 C 19.274 25.87 17.419 30.338 17.419 35.002 L 17.419 175.003 C 17.419 179.659 19.274 184.135 22.571 187.429 C 25.869 190.723 30.341 192.578 35 192.578 L 209.996 192.578 C 214.663 192.578 219.136 190.723 222.433 187.429 C 225.731 184.135 227.578 179.659 227.578 175.003 L 227.578 125.996 C 227.578 117.812 223.94 110.05 217.645 104.807 L 115.648 23.804 C 110.689 19.681 104.451 17.419 98.002 17.419 L 35 17.419 Z M 37.309 44.736 C 32.772 44.736 29.086 41.23 29.086 36.911 C 29.086 32.592 32.772 29.086 37.309 29.086 L 94.372 29.086 C 98.909 29.086 102.587 32.592 102.587 36.911 C 102.587 41.23 98.909 44.736 94.372 44.736 L 37.309 44.736 Z M 164.665 25.948 C 161.992 23.843 160.947 20.268 162.057 17.052 C 163.175 13.828 166.213 11.668 169.616 11.668 L 218.333 11.668 C 222.312 11.668 226.128 13.249 228.939 16.058 C 231.75 18.875 233.33 22.685 233.33 26.668 L 233.33 63.539 C 233.33 66.598 231.58 69.392 228.826 70.73 C 226.071 72.068 222.79 71.716 220.383 69.822 L 164.665 25.948 Z M 117.746 127.89 L 100.708 174.549 L 100.011 175.809 L 95.952 179.581 C 94.931 180.512 93.764 180.762 92.444 180.324 C 91.131 179.894 90.394 178.994 90.224 177.625 L 89.527 172.312 L 89.665 170.778 L 107.408 122.295 C 108.81 123.884 110.414 125.12 112.229 126.004 C 114.044 126.889 115.891 127.514 117.746 127.89 Z M 122.502 125.652 C 117.236 125.652 112.731 123.774 108.98 120.026 C 105.237 116.278 103.357 111.771 103.357 106.513 C 103.357 102.045 104.621 98.132 107.133 94.775 C 109.644 91.426 112.861 89.22 116.774 88.156 L 116.774 81.223 C 116.774 79.611 117.317 78.257 118.419 77.154 C 119.521 76.051 120.866 75.495 122.47 75.495 C 124.074 75.495 125.435 76.051 126.553 77.154 C 127.671 78.257 128.23 79.611 128.23 81.223 L 128.23 88.156 C 132.144 89.22 135.352 91.426 137.864 94.775 C 140.384 98.132 141.639 102.045 141.639 106.513 C 141.639 111.771 139.768 116.278 136.017 120.026 C 132.265 123.774 127.761 125.652 122.502 125.652 Z M 122.518 114.056 C 124.552 114.056 126.318 113.305 127.809 111.802 C 129.3 110.308 130.045 108.539 130.045 106.497 C 130.045 104.455 129.292 102.694 127.793 101.2 C 126.294 99.713 124.528 98.97 122.486 98.97 C 120.444 98.97 118.678 99.721 117.187 101.215 C 115.705 102.718 114.959 104.486 114.959 106.528 C 114.959 108.563 115.705 110.331 117.204 111.818 C 118.702 113.312 120.477 114.056 122.518 114.056 Z M 126.975 128.023 C 128.83 127.655 130.693 127.029 132.557 126.137 C 134.42 125.253 136.049 124.025 137.451 122.436 L 155.332 170.778 C 155.518 171.154 155.518 171.662 155.332 172.312 L 154.773 177.625 C 154.611 178.994 153.865 179.894 152.553 180.324 C 151.24 180.762 150.065 180.512 149.045 179.581 L 144.994 175.809 C 144.524 175.34 144.297 174.925 144.297 174.549 L 126.975 128.023 Z"/>
</svg>