<?xml version="1.0" encoding="utf-8"?>
<svg clip-rule="evenodd" fill-rule="evenodd" stroke-linejoin="round" stroke-miterlimit="2" viewBox="0 0 245 210" xmlns="http://www.w3.org/2000/svg">
  <path d="M 98.002 0.001 C 108.518 0.001 118.711 3.687 126.796 10.416 L 228.793 91.419 C 239.059 99.971 244.997 112.64 244.997 125.996 L 244.997 175.003 C 244.997 184.284 241.311 193.188 234.748 199.745 C 228.186 206.31 219.281 210.004 209.996 210.004 L 35 210.004 C 25.715 210.004 16.819 206.31 10.248 199.745 C 3.686 193.188 -0.001 184.284 -0.001 175.003 L -0.001 35.002 C -0.001 25.714 3.686 16.817 10.248 10.252 C 16.819 3.687 25.715 0.001 35 0.001 L 98.002 0.001 Z M 35 17.419 C 30.341 17.419 25.869 19.274 22.571 22.568 C 19.274 25.87 17.419 30.338 17.419 35.002 L 17.419 175.003 C 17.419 179.659 19.274 184.135 22.571 187.429 C 25.869 190.723 30.341 192.578 35 192.578 L 209.996 192.578 C 214.663 192.578 219.136 190.723 222.433 187.429 C 225.731 184.135 227.578 179.659 227.578 175.003 L 227.578 125.996 C 227.578 117.812 223.94 110.05 217.645 104.807 L 115.648 23.804 C 110.689 19.681 104.451 17.419 98.002 17.419 L 35 17.419 Z M 37.309 44.736 C 32.772 44.736 29.086 41.23 29.086 36.911 C 29.086 32.592 32.772 29.086 37.309 29.086 L 94.372 29.086 C 98.909 29.086 102.587 32.592 102.587 36.911 C 102.587 41.23 98.909 44.736 94.372 44.736 L 37.309 44.736 Z M 164.665 25.948 C 161.992 23.843 160.947 20.268 162.057 17.052 C 163.175 13.828 166.213 11.668 169.616 11.668 L 218.333 11.668 C 222.312 11.668 226.128 13.249 228.939 16.058 C 231.75 18.875 233.33 22.685 233.33 26.668 L 233.33 63.539 C 233.33 66.598 231.58 69.392 228.826 70.73 C 226.071 72.068 222.79 71.716 220.383 69.822 L 164.665 25.948 Z M 172.451 115.84 C 175.263 118.931 176.843 122.984 176.843 127.209 L 176.843 148.649 C 176.843 154.268 172.289 158.822 166.667 158.822 L 94.826 158.822 C 92.128 158.822 89.535 157.75 87.631 155.848 C 85.719 153.939 84.649 151.349 84.649 148.649 L 84.649 89.971 C 84.649 87.271 85.719 84.689 87.631 82.78 C 89.535 80.871 92.128 79.799 94.826 79.799 L 121.53 79.799 C 125.484 79.799 129.324 81.184 132.362 83.719 L 132.954 84.188 L 162.283 84.188 C 167.898 84.188 172.451 88.743 172.451 94.361 L 172.451 115.84 Z M 164.989 121.114 L 126.594 90.62 C 125.168 89.439 123.377 88.789 121.53 88.789 L 99.266 88.789 C 97.775 88.789 96.349 89.392 95.296 90.441 C 94.234 91.497 93.643 92.921 93.643 94.416 L 93.643 144.205 C 93.643 145.692 94.234 147.123 95.296 148.18 C 96.349 149.228 97.775 149.823 99.266 149.823 L 162.227 149.823 C 163.717 149.823 165.143 149.228 166.205 148.18 C 167.258 147.123 167.85 145.692 167.85 144.205 L 167.85 127.209 C 167.85 124.87 166.812 122.647 165.022 121.145 L 164.989 121.114 Z M 78.322 176.232 C 75.486 176.232 73.088 175.246 71.111 173.282 C 69.142 171.31 68.154 168.939 68.154 166.177 L 68.154 106.716 C 68.154 105.308 68.648 104.118 69.62 103.148 C 70.592 102.17 71.783 101.685 73.193 101.685 C 74.603 101.685 75.81 102.17 76.815 103.148 C 77.819 104.118 78.322 105.308 78.322 106.716 L 78.322 166.177 L 159.723 166.177 C 161.125 166.177 162.324 166.662 163.337 167.64 C 164.349 168.61 164.86 169.808 164.86 171.224 C 164.86 172.64 164.349 173.822 163.337 174.784 C 162.324 175.747 161.125 176.232 159.723 176.232 L 78.322 176.232 Z"/>
</svg>