<?xml version="1.0" encoding="utf-8"?>
<svg clip-rule="evenodd" fill-rule="evenodd" stroke-linejoin="round" stroke-miterlimit="2" viewBox="0 0 245 210" xmlns="http://www.w3.org/2000/svg">
  <path d="M 98.002 0.001 C 108.518 0.001 118.711 3.687 126.796 10.416 L 228.793 91.419 C 239.059 99.971 244.997 112.64 244.997 125.996 L 244.997 175.003 C 244.997 184.284 241.311 193.188 234.748 199.745 C 228.186 206.31 219.281 210.004 209.996 210.004 L 35 210.004 C 25.715 210.004 16.819 206.31 10.248 199.745 C 3.686 193.188 -0.001 184.284 -0.001 175.003 L -0.001 35.002 C -0.001 25.714 3.686 16.817 10.248 10.252 C 16.819 3.687 25.715 0.001 35 0.001 L 98.002 0.001 Z M 35 17.419 C 30.341 17.419 25.869 19.274 22.571 22.568 C 19.274 25.87 17.419 30.338 17.419 35.002 L 17.419 175.003 C 17.419 179.659 19.274 184.135 22.571 187.429 C 25.869 190.723 30.341 192.578 35 192.578 L 209.996 192.578 C 214.663 192.578 219.136 190.723 222.433 187.429 C 225.731 184.135 227.578 179.659 227.578 175.003 L 227.578 125.996 C 227.578 117.812 223.94 110.05 217.645 104.807 L 115.648 23.804 C 110.689 19.681 104.451 17.419 98.002 17.419 L 35 17.419 Z M 37.309 44.736 C 32.772 44.736 29.086 41.23 29.086 36.911 C 29.086 32.592 32.772 29.086 37.309 29.086 L 94.372 29.086 C 98.909 29.086 102.587 32.592 102.587 36.911 C 102.587 41.23 98.909 44.736 94.372 44.736 L 37.309 44.736 Z M 164.665 25.948 C 161.992 23.843 160.947 20.268 162.057 17.052 C 163.175 13.828 166.213 11.668 169.616 11.668 L 218.333 11.668 C 222.312 11.668 226.128 13.249 228.939 16.058 C 231.75 18.875 233.33 22.685 233.33 26.668 L 233.33 63.539 C 233.33 66.598 231.58 69.392 228.826 70.73 C 226.071 72.068 222.79 71.716 220.383 69.822 L 164.665 25.948 Z M 122.559 90.409 L 139.849 76.035 C 140.667 75.393 141.777 74.947 142.766 74.893 C 143.746 74.838 144.904 75.151 145.788 75.699 L 174.655 94.595 C 175.887 95.464 176.778 97.021 176.916 98.524 C 176.94 100.026 176.219 101.669 175.085 102.663 L 159.853 115.136 L 175.052 127.35 C 176.195 128.344 176.932 129.987 176.916 131.497 C 176.786 133.008 175.887 134.572 174.655 135.441 L 156.952 147.03 L 156.952 158.634 C 156.887 160.285 155.915 162.014 154.53 162.922 L 125.435 180.434 C 123.912 181.263 121.814 181.271 120.282 180.442 L 91.107 163.008 C 89.713 162.108 88.733 160.371 88.668 158.712 L 88.668 147.17 L 70.349 135.206 C 69.102 134.33 68.154 132.749 68.081 131.239 C 68.016 129.721 68.826 128.062 69.985 127.084 L 85.314 115.018 L 69.952 102.694 C 68.802 101.7 68.065 100.049 68.081 98.531 C 68.218 97.021 69.118 95.456 70.366 94.588 L 99.541 75.691 C 100.44 75.143 101.591 74.83 102.579 74.893 C 103.56 74.955 104.67 75.409 105.488 76.058 L 122.559 90.409 Z M 102.879 115.034 L 122.608 127.194 L 142.369 115.089 L 122.543 102.819 L 102.879 115.034 Z M 96.414 140.269 L 101.891 143.845 L 114.011 133.657 L 93.708 121.153 L 81.66 130.637 L 96.414 140.269 Z M 146.938 153.579 L 145.869 154.283 C 145.844 154.299 145.812 154.322 145.788 154.338 C 144.896 154.886 143.746 155.199 142.766 155.144 C 141.777 155.089 140.667 154.643 139.849 153.994 L 122.518 139.596 L 105.488 153.908 C 104.67 154.557 103.552 155.011 102.571 155.074 C 101.583 155.128 100.424 154.815 99.525 154.268 L 98.682 153.712 L 98.682 155.872 L 122.843 170.301 L 146.938 155.801 L 146.938 153.579 Z M 131.139 133.704 L 143.47 143.884 L 163.41 130.84 L 151.475 121.255 L 131.139 133.704 Z M 101.883 86.106 L 81.627 99.22 L 93.724 108.931 L 114.036 96.325 L 101.883 86.106 Z M 163.466 99.236 L 143.397 86.106 L 131.09 96.333 L 151.54 108.993 L 163.466 99.236 Z"/>
</svg>