<?xml version="1.0" encoding="utf-8"?>
<svg clip-rule="evenodd" fill-rule="evenodd" stroke-linejoin="round" stroke-miterlimit="2" viewBox="0 0 48 48" xmlns="http://www.w3.org/2000/svg">
  <path d="M 7.783 29.013 L 13.03 29.013 L 13.03 23.768 C 13.03 23.279 13.426 22.885 13.913 22.885 L 34.087 22.885 C 34.574 22.885 34.97 23.279 34.97 23.768 L 34.97 29.013 L 40.217 29.013 C 40.705 29.013 41.1 29.409 41.1 29.896 L 41.1 36.104 C 41.1 36.591 40.705 36.987 40.217 36.987 L 34.087 36.987 C 33.6 36.987 33.204 36.591 33.204 36.104 L 33.204 30.779 L 14.796 30.779 L 14.796 36.104 C 14.796 36.591 14.4 36.987 13.913 36.987 L 7.783 36.987 C 7.295 36.987 6.9 36.591 6.9 36.104 L 6.9 29.896 C 6.9 29.409 7.295 29.013 7.783 29.013 Z M 11.431 11.013 L 17.637 11.013 C 18.126 11.013 18.52 11.408 18.52 11.896 L 18.52 18.801 C 18.52 19.288 18.126 19.684 17.637 19.684 L 11.431 19.684 C 10.943 19.684 10.548 19.288 10.548 18.801 L 10.548 11.896 C 10.548 11.408 10.943 11.013 11.431 11.013 Z M 30.441 11.013 L 36.569 11.013 C 37.057 11.013 37.452 11.408 37.452 11.896 L 37.452 18.801 C 37.452 19.288 37.057 19.684 36.569 19.684 L 30.441 19.684 C 29.952 19.684 29.558 19.288 29.558 18.801 L 29.558 11.896 C 29.558 11.408 29.952 11.013 30.441 11.013 Z"/>
</svg>