<?xml version="1.0" encoding="utf-8"?>
<svg clip-rule="evenodd" fill-rule="evenodd" stroke-linejoin="round" stroke-miterlimit="2" viewBox="0 0 48 48" xmlns="http://www.w3.org/2000/svg">
  <path d="M 17.465 37.822 C 16.38 38.908 15.173 39.456 13.846 39.464 C 12.52 39.472 11.311 38.931 10.22 37.84 C 9.128 36.747 8.588 35.526 8.598 34.174 C 8.608 32.823 9.141 31.619 10.2 30.56 L 16.76 24 L 10.354 17.593 C 9.309 16.55 8.764 15.346 8.718 13.979 C 8.672 12.616 9.193 11.388 10.285 10.296 C 11.319 9.262 12.539 8.747 13.943 8.753 C 15.35 8.76 16.574 9.285 17.617 10.33 L 24.024 16.736 L 30.583 10.178 C 31.669 9.091 32.874 8.543 34.202 8.535 C 35.528 8.527 36.738 9.067 37.829 10.159 C 38.92 11.251 39.443 12.489 39.4 13.875 C 39.356 15.259 38.835 16.453 37.837 17.451 L 31.288 24 L 37.675 30.386 C 38.741 31.453 39.262 32.665 39.236 34.026 C 39.211 35.385 38.669 36.594 37.612 37.652 C 36.554 38.71 35.338 39.225 33.968 39.194 C 32.594 39.164 31.387 38.626 30.34 37.579 L 24.024 31.264 L 17.465 37.822 Z" fill-rule="nonzero" style=""/>
</svg>