<svg clip-rule="evenodd" fill-rule="evenodd" stroke-linejoin="round" stroke-miterlimit="2" viewBox="0 0 48 48" xmlns="http://www.w3.org/2000/svg"><path d="m31.623 15.807c.921 1.05 1.44 2.425 1.44 3.862v7.28c0 1.909-1.494 3.456-3.338 3.456h-23.563c-.886 0-1.735-.364-2.36-1.012-.626-.648-.978-1.527-.978-2.444v-19.926c0-.917.352-1.796.978-2.444.625-.648 1.474-1.012 2.36-1.012h8.758c1.298 0 2.556.471 3.554 1.331l.194.159h9.618c1.843 0 3.337 1.548 3.337 3.456zm-2.449 1.791-12.592-10.355c-.468-.401-1.055-.621-1.662-.621h-7.301c-.489 0-.958.202-1.304.56-.346.357-.54.843-.54 1.349v16.909c0 .506.194.992.54 1.349.346.358.815.56 1.304.56h20.649c.489 0 .958-.202 1.304-.559.346-.358.54-.844.54-1.35v-5.771c0-.795-.339-1.549-.926-2.061z" transform="matrix(1.49809 0 0 1.44683 -2.88106 -.60089)"/><path d="m480.37-276c11.087 0 20.463-3.71 28.13-11.13 7.667-7.413 11.5-16.703 11.5-27.87v-140l26 26c7.333 7.333 15.833 11 25.5 11s18.833-4.667 27.5-14c8-7.333 12-16.29 12-26.87 0-10.573-4-19.95-12-28.13l-85-85c-9.82-9.333-21.273-14-34.36-14-13.093 0-24.307 4.667-33.64 14l-85 85c-8 8.18-12 17.557-12 28.13 0 10.58 4.667 20.537 14 29.87 7.673 7.333 16.26 11 25.76 11 9.493 0 17.907-3.667 25.24-11l26-26v140c0 11.167 3.957 20.457 11.87 27.87 7.913 7.42 17.413 11.13 28.5 11.13z" fill-rule="nonzero" transform="matrix(.0453374 0 0 .0453374 2.23806 47.4907)"/></svg>