<svg height="48" width="48" xmlns="http://www.w3.org/2000/svg"><path fill="rgb(255, 255, 255)" d="m24 4c-1.117.001-2.232.096-3.334.284v28.044c0 .923-.742 1.667-1.666 1.667h-1.666c-.923 0-1.666-.744-1.666-1.667v-26.483c-7.099 3.254-11.654 10.342-11.665 18.151 0 11.044 8.953 19.996 19.997 19.996s19.996-8.952 19.996-19.996-8.952-19.996-19.996-19.996m-.828 9.997c.14.002.277.042.398.114l14.997 9.09c.56.341.573 1.216.023 1.575-.008.005-.015.009-.023.014l-14.997 9.09c-.555.335-1.236-.103-1.236-.794v-18.18c0-.505.376-.912.838-.909"/></svg>