<?xml version="1.0" encoding="utf-8"?>
<svg viewBox="0 0 48 48" xmlns="http://www.w3.org/2000/svg">
  <path fill="rgb(255, 255, 255)" d="M 2.407 26.326 L 2.407 14.452 C 2.407 13.54 2.645 12.642 3.096 11.849 C 3.113 11.83 3.125 11.809 3.137 11.788 C 3.623 10.961 4.301 10.322 5.17 9.873 L 21.463 1.021 C 21.842 0.796 22.25 0.627 22.688 0.514 C 23.125 0.401 23.563 0.344 24 0.344 C 24.438 0.344 24.875 0.401 25.312 0.514 C 25.75 0.627 26.177 0.796 26.593 1.021 L 42.83 9.873 C 43.699 10.322 44.377 10.961 44.863 11.788 C 45.162 12.296 45.368 12.832 45.484 13.396 C 45.521 13.585 45.54 13.777 45.542 13.969 C 45.554 14.332 45.585 26.326 45.585 26.326 C 45.54 26.747 45.299 27.126 44.931 27.346 L 24.993 39.231 C 24.381 39.596 23.619 39.596 23.007 39.231 L 3.069 27.346 C 2.701 27.126 2.46 26.747 2.415 26.326 Z M 27.15 20.528 C 26.28 19.664 25.228 19.231 23.993 19.231 C 22.795 19.231 21.754 19.666 20.871 20.535 C 19.988 21.405 19.546 22.457 19.546 23.693 C 19.546 24.89 19.99 25.931 20.878 26.814 C 21.767 27.697 22.81 28.139 24.007 28.139 C 25.243 28.139 26.293 27.695 27.157 26.807 C 28.022 25.918 28.454 24.875 28.454 23.678 C 28.454 22.443 28.019 21.393 27.15 20.528 Z M 35.689 27.959 C 37.522 26.912 39.096 26.127 39.909 25.654 C 40.358 25.412 40.494 25.241 40.494 24.803 L 40.494 24.785 C 40.494 24.308 40.331 23.968 39.899 23.762 C 39.5 23.496 39.108 23.501 38.715 23.774 C 38.715 23.774 35.361 25.773 33.769 26.723 C 33.258 27.028 32.846 27.473 32.581 28.005 C 32.321 28.546 31.992 29.061 31.581 29.581 C 30.241 31.226 28.089 32.354 26.47 32.894 C 24.928 33.392 23.072 33.392 21.53 32.894 C 19.912 32.354 17.761 31.226 16.419 29.581 C 16.008 29.062 15.68 28.547 15.409 28.01 C 15.145 27.479 14.734 27.035 14.225 26.732 C 12.637 25.771 9.285 23.773 9.285 23.773 C 8.893 23.5 8.5 23.496 8.101 23.762 C 7.67 23.967 7.472 24.307 7.506 24.784 L 7.506 24.803 C 7.449 25.241 7.642 25.411 8.09 25.654 C 8.903 26.128 10.478 26.912 12.334 27.92 C 13.313 28.458 14.152 29.22 14.782 30.144 C 16.771 33.11 20.162 35.039 24 35.039 C 27.838 35.039 31.229 33.11 33.255 30.169 C 33.881 29.251 34.715 28.494 35.689 27.959 Z M 27.552 15.341 C 28.642 15.83 29.638 16.506 30.54 17.371 L 35.791 14.253 C 36.19 14.016 36.43 13.583 36.418 13.12 C 36.407 12.656 36.146 12.235 35.736 12.018 L 25.969 6.854 C 24.737 6.203 23.263 6.203 22.032 6.854 L 12.264 12.018 C 11.854 12.235 11.593 12.656 11.582 13.12 C 11.57 13.583 11.81 14.016 12.209 14.253 L 17.46 17.371 C 18.362 16.506 19.358 15.83 20.448 15.341 C 21.538 14.853 22.722 14.608 24 14.608 C 25.278 14.608 26.462 14.853 27.552 15.341 Z M 40.544 18.426 C 40.527 18.068 40.306 17.688 40.003 17.497 C 39.683 17.336 39.242 17.343 38.927 17.514 C 36.818 18.791 32.566 21.371 32.566 21.371 L 32.611 21.548 C 32.721 21.987 32.783 22.364 32.8 22.71 C 32.81 22.887 32.816 23.055 32.821 23.219 L 32.834 23.643 C 32.834 23.643 38.513 20.259 40.024 19.357 C 40.316 19.165 40.528 18.792 40.544 18.444 Z M 15.167 23.643 L 15.18 23.219 C 15.185 23.055 15.191 22.887 15.201 22.711 C 15.218 22.364 15.28 21.987 15.39 21.548 L 15.435 21.371 C 15.435 21.371 11.183 18.791 9.073 17.514 C 8.759 17.343 8.319 17.336 7.998 17.497 C 7.696 17.688 7.474 18.068 7.457 18.426 L 7.457 18.444 C 7.473 18.792 7.686 19.165 7.978 19.357 Z M 2.407 32.998 L 2.407 32.083 C 2.407 31.61 2.66 31.173 3.069 30.937 C 3.479 30.7 3.983 30.7 4.393 30.937 C 8.892 33.536 19.729 39.797 23.03 41.704 C 23.63 42.051 24.37 42.051 24.97 41.704 C 28.271 39.796 39.108 33.532 43.607 30.932 C 44.016 30.695 44.521 30.695 44.931 30.931 C 45.34 31.167 45.593 31.604 45.593 32.077 L 45.593 32.998 C 45.593 33.967 45.359 34.857 44.891 35.647 C 44.653 36.05 44.363 36.413 44.021 36.736 C 43.691 37.048 43.313 37.324 42.887 37.563 L 26.65 46.922 C 26.443 47.033 26.232 47.133 26.016 47.222 C 25.796 47.313 25.571 47.391 25.341 47.457 C 24.884 47.587 24.437 47.657 24 47.657 C 23.562 47.657 23.116 47.587 22.659 47.457 C 22.42 47.389 22.191 47.307 21.973 47.211 C 21.776 47.125 21.587 47.029 21.407 46.922 L 5.113 37.563 C 4.744 37.356 4.411 37.122 4.115 36.86 C 3.713 36.507 3.378 36.102 3.109 35.647 C 2.641 34.857 2.407 33.967 2.407 32.998 Z"/>
</svg>