<svg height="48" width="48" xmlns="http://www.w3.org/2000/svg"><path fill="rgb(255, 255, 255)" d="m17.37 17.781c-.569 0-1.03.451-1.03 1.007s.461 1.007 1.03 1.007 1.03-.451 1.03-1.007-.461-1.007-1.03-1.007zm13.936 23.561c-.184-.085-.364-.156-.557-.222-.288-.1-.582-.202-.876-.314l-1.069-.397c-.355-.124-.93-.343-1.281-.472l-.55-.205-4.788.225c-2.69.13-5.138.241-5.419.261-.147.005-.293.008-.398.005-.057-.002-.127-.006-.175-.014-.033-.005-.101-.021-.144-.038-.035-.015-.115-.061-.157-.1-.064-.059-.164-.256-.164-.373 0-.182.511-1.017 1.579-2.671l.267-.416.012-3.725.016-3.918.266-2.65c.145-1.446.275-2.51.283-2.43l-.002-.024.029.071c-.05-.126-.101-.331-.085-.424.014-.081.074-.199.125-.281-.006-.007-.011-.018-.013-.058l.497-.047c0-.001 0-.001 0-.001l-.349.033c-.052.003-.1.007-.148.013-.001-.034.001-.09.008-.182l-.015.183c-.085.011-.167.028-.259.05-.178.052-.377.099-.591.115-1.327.115-2.34.351-3.169.735-.149.061-.301.121-.452.182l-.243.096.058-.061c.023-.024-2.573 1.23-3.038 1.479-.529.296-.676.341-.88.386-.045.03-.075.051-.138.112-.35.285-1.033.555-1.577.63-.31.03-.608.001-.99-.108-.468-.153-.671-.282-1.15-.725-.419-.399-.638-.688-.84-1.078-.223-.479-.27-.673-.286-1.258-.004-.556.048-.789.212-1.109.261-.401.879-.843 1.33-.943.153-.036.22-.054.316-.142.158-.138.517-.421.796-.626 2.118-1.571 2.864-2.15 2.864-2.128 0-.197 1.129-2.124 1.318-2.385.229-.285.87-.791 1.325-1.019.396-.203 1.323-.543 1.844-.68.024-.007.048-.013.071-.018-.264-.3-.64-.723-1.047-1.172-.747-.825-1.434-1.618-1.509-1.753-.061-.111-.332-.726-.602-1.347-.268-.627-.542-1.25-.61-1.395-.322-.694-.411-.949-.411-1.271 0-.45.305-.848.673-1.071.287-.126.71-.191 1.076.031.278.168.627.516 1.143 1.066.655.687 1.32 1.358 2.002 2.014 1.077 1.035 2.193 2.322 2.494 2.88.146.274.826 1.122 1.132 1.392.177.166.203.188.151.188.199 0 .516-.22 1.15-.861 1.346-1.367 2.482-2.43 2.941-2.763.583-.437 3.004-1.591 4.214-2.049.46-.157.885-.321.944-.347.086-.036.27-.099.431-.139.104-.038.157-.057.228-.094.086-.047.243-.117.389-.117-.026 0 .362-.133.881-.312 1.707-.609 1.993-.578 2.548-.248.178.153.359.387.424.589.068.21.042.518-.03.736-.24.585-1.88 2.789-2.782 3.75-1.123 1.168-1.801 1.607-3.698 2.379-2.116.854-2.123.853-2.696 1.452-.083.079-.184.209-.288.362 1.21-.451 1.814-.655 2.628-.899.624-.179 1.164-.338 1.207-.359l.019-.009.033-.009c.167-.051.354-.103.555-.133.191-.046.361-.094.393-.107.095-.035.482-.106.846-.149.254-.029.457-.049.68-.104.138-.029.784-.039 1.418-.019 1.023.034 1.321.09 1.761.215 1.873.632 3.572 1.799 5.408 3.765.773.834 1.32 1.601 1.794 2.512.603 1.189.694 1.517.879 3.317.238 2.328.561 5.252.725 6.559.31 2.458.498 3.866.526 3.943.022.087.072.411.111.706.037.294.163 1.113.283 1.819.121.706.225 1.428.225 1.594 0 .116-.033.42-.21.574-.141.123-.382.163-.526.183-.173.02-.349.041-.553.042-.085-.019-.043-.022-.365.274-.263.236-.659.517-.847.517-.23 0-.589-.377-.762-.662l-.12-.188h-.071c-.25-.008-.203-.021-.566.244-.188.117-.375.255-.573.395l.028-.022c-.115.088-.47.176-.695.19-.185-.138-.395-.405-.45-.591-.031-.104-.057-.234-.073-.365l.494-.06-.39.047c-.031.003-.066.006-.105.011-.01-.085-.017-.171-.019-.251l.004.252c-.218.026-.52.075-.722.122-.312.057-.603.093-.774.048-.082-.021-.241-.112-.308-.197-.077-.096-.128-.314-.115-.414.015-.125.096-.274.154-.36.069-.101.427-.62.794-1.159l.57-.854-.081-.687c-.05-.413-.096-.845-.137-1.257-.009-.088-.021-.162-.034-.223-.006-.027-.006-.028-.007-.031.006.017.036.041.084.085-.133-.164-.191-.339-.191-.473 0 .021-.098-.23-.258-.561l-.504-1.029c-.103-.21-.324-.614-.497-.921l-.165-.282-.093.003c-.177-.093-.304-.176-.391-.243.046.067.1.157.155.273-.025.253-.094.563-.15.702-.016.023-.013.008-.009.041-.008.125-.054.375-.112.564-.076.292-.132.54-.176.824-.054.332-.125.735-.159.905-.032.167-.089.508-.128.755-.041.253-.1.585-.131.747-.028.142-.082.471-.121.719-.04.258-.103.592-.137.742-.148.347-.165.19.896 1.415.197.23.365.436.475.583.058.077.113.157.146.214.021.036.053.103.068.151.012.04.028.142.022.207-.01.108-.215.328-.323.428-.207.078-.431.138-.641.174-.974.218-1.249.289-1.894.487-.64.19-.98.195-1.359.036zm-7.058-3.155c.136-.14.272-.281.406-.423.814-.844 1.015-1.082 1.134-1.344.406-.861.497-1.051.87-1.894.209-.465.364-.835.348-.828.017-.018-1.108-2.8-1.285-3.207-.611-.182-1.168-.34-1.835-.508-.051-.013-.106-.031-.16-.052-.081.069-.194.176-.362.339l-.292.304.01.085c.071.586.156 1.223.219 1.584.034.202.149.916.255 1.587.104.679.217 1.393.25 1.594.036.208.149.927.253 1.597.068.436.138.874.189 1.166zm1.884-7.895h-.001l-.607-.38c-.002-.001-.003-.001-.004-.001z"/></svg>