<svg fill="rgb(255,205,0)" clip-rule="evenodd" fill-rule="evenodd" stroke-linejoin="round" stroke-miterlimit="2" viewBox="0 0 245 210" xmlns="http://www.w3.org/2000/svg"><path d="m7.144 3.567h7.776c1.298 0 2.556.471 3.554 1.331l12.589 10.352c1.267 1.093 2 2.712 2 4.419v6.263c0 1.186-.455 2.324-1.265 3.162-.81.839-1.909 1.311-3.055 1.311h-21.599c-1.146 0-2.244-.472-3.055-1.311-.81-.838-1.265-1.976-1.265-3.162v-17.892c0-1.187.455-2.324 1.265-3.163.811-.839 1.909-1.31 3.055-1.31zm0 2.226c-.575 0-1.127.237-1.534.658-.407.422-.636.993-.636 1.589v17.892c0 .595.229 1.167.636 1.588s.959.658 1.534.658h21.599c.576 0 1.128-.237 1.535-.658s.635-.993.635-1.588v-6.263c0-1.046-.449-2.038-1.226-2.708l-12.589-10.352c-.612-.527-1.382-.816-2.178-.816zm.285 3.491c-.56 0-1.015-.448-1.015-1s.455-1 1.015-1h7.043c.56 0 1.014.448 1.014 1s-.454 1-1.014 1zm15.719-2.401c-.33-.269-.459-.726-.322-1.137.138-.412.513-.688.933-.688h6.013c.491 0 .962.202 1.309.561.347.36.542.847.542 1.356v4.712c0 .391-.216.748-.556.919s-.745.126-1.042-.116z" transform="matrix(8.10206 0 0 7.82482 -22.8811 -27.9099)"/><path d="m11 3c4.418 0 8 3.582 8 8s-3.582 8-8 8-8-3.582-8-8 3.582-8 8-8zm-4.801 12.389c1.19 1.301 2.901 2.117 4.801 2.117 3.591 0 6.506-2.915 6.506-6.506s-2.915-6.506-6.506-6.506c-1.855 0-3.53.778-4.715 2.025.548.157.928.282 1.068.328 0-.032.006-.137.014-.273.009-.237.119-.458.303-.607s.424-.211.657-.169c1.574.276 4.797.919 6.377 1.84.258.152.385.311.545.474.577.596 1.342 3.079 1.423 3.592l-.033.054c-.03.01-.103.061-.197.126-.487.341-1.626 1.138-3.085 1.008-1.313-.117-3.026-.87-5.092-2.231.091.215.521 1.235.592 1.406l.029.036c.299.155 3.169 1.617 4.594 1.588 1.149-.023 2.376-.583 2.866-.878l.157-.028c.044.034.04.102.024.162-.03.141-.099.399-.145.519l-.039.1c-.056.149-.11.291-.215.377-.289.264-.753.473-1.476.79-1.119.489-2.932.803-4.617.787-.604-.014-1.188-.081-1.701-.138-.872-.1-1.611-.184-2.135.007zm6.661-7.633c-.528.008-1.024.205-1.412.568-.415.385-.654.911-.675 1.477-.038 1.166.881 2.152 2.048 2.195.569.018 1.107-.184 1.521-.572.412-.385.65-.908.672-1.473.04-1.168-.879-2.154-2.048-2.195-.034-.001-.07-.001-.106 0zm-.056.624c.049-.004.094-.003.145 0 .815.029 1.456.713 1.429 1.53-.012.393-.18.761-.469 1.031-.289.269-.664.411-1.06.395-.815-.03-1.453-.717-1.427-1.532.013-.395.182-.76.469-1.029.251-.235.573-.373.913-.395zm.389.74c-.363 0-.657.197-.657.439 0 .241.294.439.657.439.362 0 .654-.198.654-.439.001-.242-.292-.439-.654-.439z" transform="matrix(6.5648 0 0 6.5648 50.2872 55.8023)"/></svg>