<svg fill="rgb(255,205,0)" clip-rule="evenodd" fill-rule="evenodd" stroke-linejoin="round" stroke-miterlimit="2" viewBox="0 0 48 48" xmlns="http://www.w3.org/2000/svg"><path d="m31.623 15.807c.921 1.05 1.44 2.425 1.44 3.862v7.28c0 1.909-1.494 3.456-3.338 3.456h-23.563c-.886 0-1.735-.364-2.36-1.012-.626-.648-.978-1.527-.978-2.444v-19.926c0-.917.352-1.796.978-2.444.625-.648 1.474-1.012 2.36-1.012h8.758c1.298 0 2.556.471 3.554 1.331l.194.159h9.618c1.843 0 3.337 1.548 3.337 3.456zm-2.449 1.791-12.592-10.355c-.468-.401-1.055-.621-1.662-.621h-7.301c-.489 0-.958.202-1.304.56-.346.357-.54.843-.54 1.349v16.909c0 .506.194.992.54 1.349.346.358.815.56 1.304.56h20.649c.489 0 .958-.202 1.304-.559.346-.358.54-.844.54-1.35v-5.771c0-.795-.339-1.549-.926-2.061z" transform="matrix(1.49809 0 0 1.44683 -2.88106 -.60089)"/><path d="m548.856-577.144c.036-9.134 3.445-17.331 10.557-24.443 7.15-7.15 15.394-10.557 24.587-10.557h33c8.772 0 17.052 3.234 24.627 10.211 7.815 7.198 11.479 15.544 11.517 24.789h72.856c10.791 0 19.683 3.831 26.748 11.304 6.976 7.39 10.396 15.985 10.396 25.72 0 10.739-3.637 19.557-10.619 26.569-7.01 7.04-15.816 10.695-26.525 10.695h-2.856v162.856c0 17.255-6.059 31.921-18.137 44.007-12.086 12.078-26.752 18.137-44.007 18.137h-120c-17.255 0-31.921-6.059-44.007-18.137-12.078-12.086-18.137-26.752-18.137-44.007v-162.856h-2.856c-10.681 0-19.463-3.601-26.455-10.505-7.074-6.994-10.689-15.648-10.689-26.019 0-10.11 3.444-18.868 10.333-26.272 7.08-7.61 15.996-11.492 26.811-11.492zm34.698 74.288c-8.065 0-15.8 3.204-21.503 8.907s-8.907 13.438-8.907 21.503v89.892c.001 16.795 13.616 30.41 30.41 30.41h34.892c16.795 0 30.41-13.615 30.41-30.41 0-26.166 0-63.726 0-89.892-.001-16.795-13.616-30.41-30.411-30.41-11.143 0-23.748 0-34.891 0z" transform="matrix(.041172 0 0 .041172 -.744446 46.011)"/></svg>