<svg fill="rgb(255,205,0)" clip-rule="evenodd" fill-rule="evenodd" stroke-linejoin="round" stroke-miterlimit="2" viewBox="0 0 245 210" xmlns="http://www.w3.org/2000/svg"><path d="m7.144 3.567h7.776c1.298 0 2.556.471 3.554 1.331l12.589 10.352c1.267 1.093 2 2.712 2 4.419v6.263c0 1.186-.455 2.324-1.265 3.162-.81.839-1.909 1.311-3.055 1.311h-21.599c-1.146 0-2.244-.472-3.055-1.311-.81-.838-1.265-1.976-1.265-3.162v-17.892c0-1.187.455-2.324 1.265-3.163.811-.839 1.909-1.31 3.055-1.31zm0 2.226c-.575 0-1.127.237-1.534.658-.407.422-.636.993-.636 1.589v17.892c0 .595.229 1.167.636 1.588s.959.658 1.534.658h21.599c.576 0 1.128-.237 1.535-.658s.635-.993.635-1.588v-6.263c0-1.046-.449-2.038-1.226-2.708l-12.589-10.352c-.612-.527-1.382-.816-2.178-.816zm.285 3.491c-.56 0-1.015-.448-1.015-1s.455-1 1.015-1h7.043c.56 0 1.014.448 1.014 1s-.454 1-1.014 1zm15.719-2.401c-.33-.269-.459-.726-.322-1.137.138-.412.513-.688.933-.688h6.013c.491 0 .962.202 1.309.561.347.36.542.847.542 1.356v4.712c0 .391-.216.748-.556.919s-.745.126-1.042-.116z" transform="matrix(8.10206 0 0 7.82482 -22.8811 -27.9099)"/><path d="m26.078 33.266h.031c2.658.012 5.318.009 7.979.006 2.862-.003 5.726-.006 8.589.009v.005c.896-.063 1.722.346 2.309.974.597.637.987 1.532 1.007 2.506h.003c0 .005-.001.01 0 .016 0 .005.001.011.001.017h-.003c.058 1.033-.31 2.019-.919 2.721-.594.686-1.469 1.149-2.435 1.034-1.731 0-3.463.001-5.195.003-4.048.003-8.097.006-12.145-.008v-.001c-.937.08-1.771-.409-2.334-1.081-.578-.689-.941-1.639-.906-2.617h-.001c0-.003.001-.006.001-.009.001-.005-.001-.009-.001-.013h.001c.017-1.311.704-2.644 1.833-3.21l-.001-.001c.003-.002.006-.002.008-.004.005-.002.01-.006.015-.008l.001.002c.625-.328 1.297-.327 1.778-.332.138-.002.263-.003.384-.009zm-23.971 1.735.007-.013.006-.014c1.134-2.405 9.053-19.393 10.175-21.806 1.207-2.595 2.414-5.192 3.638-7.781l.005.002c.321-.838 1.04-1.414 1.858-1.681.83-.271 1.805-.246 2.697.147l.001-.003c.005.002.009.005.014.007l.016.006-.001.002c.961.385 1.699 1.135 2.078 1.984.37.828.42 1.817-.092 2.643-.731 1.569-1.462 3.14-2.193 4.71-1.708 3.669-10.214 21.918-11.937 25.581l-.001-.001c-.324.883-1.119 1.432-1.966 1.658-.868.233-1.883.16-2.754-.285l-.001.002-.008-.006c-.004-.002-.008-.002-.012-.004l.001-.001c-1.181-.569-2.1-1.756-2.135-3.018l-.002.001c0-.003.001-.006.001-.009-.001-.006-.002-.012-.002-.017l.003-.001c-.034-.704.251-1.313.45-1.751.057-.126.108-.239.154-.352z" transform="matrix(2.44748 0 0 2.44748 64.3665 74.0482)"/></svg>