<svg fill="rgb(255,205,0)" clip-rule="evenodd" fill-rule="evenodd" stroke-linejoin="round" stroke-miterlimit="2" viewBox="0 0 245 210" xmlns="http://www.w3.org/2000/svg"><path d="m7.144 3.567h7.776c1.298 0 2.556.471 3.554 1.331l12.589 10.352c1.267 1.093 2 2.712 2 4.419v6.263c0 1.186-.455 2.324-1.265 3.162-.81.839-1.909 1.311-3.055 1.311h-21.599c-1.146 0-2.244-.472-3.055-1.311-.81-.838-1.265-1.976-1.265-3.162v-17.892c0-1.187.455-2.324 1.265-3.163.811-.839 1.909-1.31 3.055-1.31zm0 2.226c-.575 0-1.127.237-1.534.658-.407.422-.636.993-.636 1.589v17.892c0 .595.229 1.167.636 1.588s.959.658 1.534.658h21.599c.576 0 1.128-.237 1.535-.658s.635-.993.635-1.588v-6.263c0-1.046-.449-2.038-1.226-2.708l-12.589-10.352c-.612-.527-1.382-.816-2.178-.816zm.285 3.491c-.56 0-1.015-.448-1.015-1s.455-1 1.015-1h7.043c.56 0 1.014.448 1.014 1s-.454 1-1.014 1zm15.719-2.401c-.33-.269-.459-.726-.322-1.137.138-.412.513-.688.933-.688h6.013c.491 0 .962.202 1.309.561.347.36.542.847.542 1.356v4.712c0 .391-.216.748-.556.919s-.745.126-1.042-.116z" transform="matrix(8.10206 0 0 7.82482 -22.8811 -27.9099)"/><path d="m189-95c-26.033 0-48.21-9.157-66.53-27.47-18.313-18.32-27.47-40.497-27.47-66.53v-582c0-26.307 9.157-48.717 27.47-67.23 18.32-18.513 40.497-27.77 66.53-27.77h582c26.307 0 48.717 9.257 67.23 27.77s27.77 40.923 27.77 67.23v582c0 26.033-9.257 48.21-27.77 66.53-18.513 18.313-40.923 27.47-67.23 27.47zm0-94h582v-132h-137c-17.333 26.667-39.833 47.167-67.5 61.5s-56.5 21.5-86.5 21.5-58.833-7.167-86.5-21.5-50.167-34.833-67.5-61.5h-137zm291.02-109c21.733 0 42.277-5.017 61.63-15.05 19.347-10.033 34.13-25.017 44.35-44.95 5.487-7.733 12.843-13.5 22.07-17.3s19.3-5.7 30.22-5.7h132.71v-390h-582v390h134c9.967 0 19.587 1.9 28.86 5.7s16.653 9.567 22.14 17.3c10.22 19.933 25.01 34.917 44.37 44.95s39.91 15.05 61.65 15.05zm-291.02 109h582z" fill-rule="nonzero" transform="matrix(.13309 0 0 .13309 58.5502 193.739)"/></svg>