<svg fill="rgb(0,200,170)" clip-rule="evenodd" fill-rule="evenodd" stroke-linejoin="round" stroke-miterlimit="2" viewBox="0 0 48 48" xmlns="http://www.w3.org/2000/svg"><path d="m14.104.08c-.042.002-.081.008-.12.014s-.074.015-.111.023l.004-.004-.293.055h-.002c-.962.188-1.929.374-2.889.559-1.556.299-3.103.597-4.66.91-.278.016-.5.179-.64.383-.141.203-.213.456-.198.697.002 1.028.001 2.056 0 3.094 0 1.56 0 3.112.006 4.671-.649-.322-1.407-.439-2.107-.232-1.115.317-1.968 1.337-2.073 2.484v.002c-.116 1.004.347 2.039 1.167 2.627.736.548 1.739.72 2.617.428.883-.273 1.591-.993 1.881-1.857.133-.307.159-.625.156-.928-.002-.14-.008-.278-.016-.412-.001-.013-.001-.025-.002-.037-.008-.148-.015-.291-.013-.43 0-.705 0-1.411 0-2.111-.001-1.126 0-2.252.002-3.377.375-.078.755-.14 1.136-.2h.004c.432-.066.867-.136 1.303-.232h.004c.277-.062 3.532-.615 3.82-.66.034-.005.068-.01.102-.016.322-.05.648-.104.973-.189h.005l.002-.002c.193-.059.364-.189.477-.355.113-.169.17-.387.102-.608h.002l-.006-.015-.008-.014c-.084-.16-.212-.317-.377-.424-.166-.107-.376-.166-.598-.103-.116.023-.232.046-.347.07-.483.099-3.932.703-4.415.754h-.004l-.006.001c-.319.052-.636.112-.951.174-.08.016-.16.032-.24.047-.33.064-.658.122-.988.168.001-.304.002-.609.002-.908v-.041c-.001-.337-.001-.672.002-1.008.155-.029.311-.058.466-.088 2.046-.385 4.09-.774 6.127-1.201.008 1.315.007 2.632.006 3.947-.001 1.127-.002 2.262.002 3.389-.792-.318-1.729-.257-2.431.26-.844.59-1.246 1.715-.955 2.693.237.898 1.008 1.624 1.925 1.801.816.171 1.697-.099 2.278-.69.591-.584.821-1.436.761-2.226-.004-1.848-.003-3.695-.002-5.533.001-1.498.002-2.995 0-4.492.031-.365-.239-.632-.47-.78l-.01-.006-.012-.006c-.131-.06-.265-.073-.388-.066zm-1.682 10.379c.179-.005.361.045.521.139.256.149.439.402.461.691v.01l.002.012c.057.287-.054.579-.263.791-.21.212-.503.33-.795.283h-.012c-.535-.052-.951-.635-.822-1.154l.002-.006c.062-.304.294-.571.586-.694l.002-.002h.003c.1-.044.207-.067.315-.07zm-8.518 1.238c.547-.002 1.099.332 1.272.852.046.325.041.663.01 1.004-.22.627-.98 1.006-1.631.81h-.006l-.002-.002c-.651-.172-1.104-.895-.965-1.547v-.006c.086-.477.452-.895.914-1.043l.035-.011c.121-.038.247-.056.373-.057z" fill-rule="nonzero" transform="matrix(2.72509 0 0 2.72509 2.20028 2.18538)"/></svg>