<svg fill="rgb(0,200,170)" clip-rule="evenodd" fill-rule="evenodd" stroke-linejoin="round" stroke-miterlimit="2" viewBox="0 0 245 210" xmlns="http://www.w3.org/2000/svg"><path d="m7.144 3.567h7.776c1.298 0 2.556.471 3.554 1.331l12.589 10.352c1.267 1.093 2 2.712 2 4.419v6.263c0 1.186-.455 2.324-1.265 3.162-.81.839-1.909 1.311-3.055 1.311h-21.599c-1.146 0-2.244-.472-3.055-1.311-.81-.838-1.265-1.976-1.265-3.162v-17.892c0-1.187.455-2.324 1.265-3.163.811-.839 1.909-1.31 3.055-1.31zm0 2.226c-.575 0-1.127.237-1.534.658-.407.422-.636.993-.636 1.589v17.892c0 .595.229 1.167.636 1.588s.959.658 1.534.658h21.599c.576 0 1.128-.237 1.535-.658s.635-.993.635-1.588v-6.263c0-1.046-.449-2.038-1.226-2.708l-12.589-10.352c-.612-.527-1.382-.816-2.178-.816zm.285 3.491c-.56 0-1.015-.448-1.015-1s.455-1 1.015-1h7.043c.56 0 1.014.448 1.014 1s-.454 1-1.014 1zm15.719-2.401c-.33-.269-.459-.726-.322-1.137.138-.412.513-.688.933-.688h6.013c.491 0 .962.202 1.309.561.347.36.542.847.542 1.356v4.712c0 .391-.216.748-.556.919s-.745.126-1.042-.116z" transform="matrix(8.10206 0 0 7.82482 -22.8811 -27.9099)"/><path d="m23.772 42.597h-.006c-.698 0-1.345-.099-1.909-.307-1.333-.487-2.18-1.48-2.425-2.77-.136-.034-.327-.078-.498-.109-.982-.177-2.179-.465-3.079-1.426-1.408-1.475-.928-3.036-.247-4.121-.516-.181-1.055-.356-1.479-.496-2.6-.859-4.206-1.52-5.019-2.364-.68-.697-.964-1.603-.808-2.524.1-.589.362-1.095.756-1.537-1.14-.332-2.239-.715-3.085-1.263-.929-.601-1.592-1.39-1.874-2.432v-.002c-.249-.927-.13-1.833.217-2.676.422-1.027 1.206-1.955 1.895-2.656l12.889-13.426.015-.015c1.253-1.265 2.935-1.96 4.707-1.94h.025c1.721 0 3.388.662 4.666 1.872l.044.043 13.405 13.95c1.75 1.783 2.321 3.573 1.935 5.224-.298 1.287-1.137 2.334-2.355 3.185-1.484 1.036-3.579 1.789-5.638 2.509l-.428.149.111.114c.851.905 1.275 2.028.728 3.418-.947 2.448-2.684 2.993-4.266 3.418-.29.078-.586.153-.887.259.127.26.218.551.259.88.084.664.006 1.682-1.111 2.651l-.015.012c-1.55 1.305-4.252 2.356-6.447 2.38-.018 0-.043 0-.076 0zm0 0h.076c.056-.001.035 0-.076 0zm4.712-31.081-3.453-3.594c-.322-.289-.763-.453-1.223-.453h-.057c-.421 0-.822.165-1.114.457l-6.855 7.139 2.77.01 1.372-3.018c.321-.71 1.052-1.142 1.832-1.061.77.075 1.411.628 1.595 1.379l.549 2.238 1.351-.869c.524-.337 1.177-.378 1.741-.126l.1-.619c.104-.643.548-1.183 1.16-1.413.076-.029.153-.052.232-.07zm-16.185 7.177-2.545 2.651-.012.012c-.148.151-.278.298-.389.433.612.219 1.455.512 1.913.637 1.486.405 3.016.849 4.121 1.563l.013.008c1.316.873 1.349 2.068 1.32 2.535-.054.869-.459 1.548-1.137 2.109l.088.029c2.539.839 4.105 1.48 4.901 2.291l.011.011c1.313 1.369 1.028 2.795.45 3.857 1.14.35 2.384 1.057 2.996 2.777.279-.048.657-.121 1.053-.223-.039-.124-.071-.253-.094-.39l-.001-.005c-.106-.638-.094-1.628.886-2.634 1.539-1.58 3.036-2.178 4.245-2.536-.254-.165-.49-.336-.695-.519-.626-.559-1.017-1.228-1.071-2.073-.048-.573.057-1.665 1.24-2.518l.004-.004c1.09-.779 2.826-1.412 4.669-2.057 1.222-.427 2.82-.978 3.958-1.604.255-.14.549-.364.727-.507-.13-.185-.338-.475-.481-.636-.028-.024-.055-.05-.081-.077l-5.294-5.51-.094.14c-.28.427-.74.719-1.252.793-.492.077-1.027-.071-1.424-.396l-.004-.003-.143-.12-.002.011c-.093.583-.466 1.085-.998 1.345-.534.261-1.155.246-1.674-.046l-1.19-.652-2.587 1.663c-.294.189-.625.285-.96.29l-.029.006c-.221 0-.447-.045-.661-.124l-.013-.006c-.48-.191-.853-.576-1.031-1.052-.337.35-.805.557-1.309.557h-.007zm-2.27 21.774c-.697-.001-1.352-.248-1.893-.721-1.167-1.004-.966-2.088-.825-2.511.462-1.374 2.168-2.09 3.56-2.173h.073c1.223-.056 2.261.363 2.856 1.159.26.348.32.807.164 1.215-.567 1.435-1.845 2.617-3.186 2.94-.252.06-.5.09-.747.091zm26.953.819c-.836 0-1.633-.343-2.145-.996-.683-.877-.789-2.299.517-3.509.295-.272.696-.391 1.099-.313 1.873.371 2.758 1.573 2.945 2.489.148.728-.101 1.414-.651 1.789-.007.008-.025.013-.033.023-.542.355-1.152.527-1.744.527zm4.266-5.667c-1.22 0-2.455-.227-3.081-.532-.902-.439-1-1.145-1-1.429 0-.106.025-.212.037-.313.396-1.55 1.856-2.647 3.648-2.753.033-.005.066-.007.101-.012 1.939-.079 3.426.988 3.743 2.646.137.656-.11 1.299-.655 1.725-.61.479-1.697.663-2.793.663z" transform="matrix(2.6217 0 0 2.6217 58.6618 68.857)"/></svg>