<svg fill="rgb(0,200,170)" clip-rule="evenodd" fill-rule="evenodd" stroke-linejoin="round" stroke-miterlimit="2" viewBox="0 0 245 210" xmlns="http://www.w3.org/2000/svg"><path d="m7.144 3.567h7.776c1.298 0 2.556.471 3.554 1.331l12.589 10.352c1.267 1.093 2 2.712 2 4.419v6.263c0 1.186-.455 2.324-1.265 3.162-.81.839-1.909 1.311-3.055 1.311h-21.599c-1.146 0-2.244-.472-3.055-1.311-.81-.838-1.265-1.976-1.265-3.162v-17.892c0-1.187.455-2.324 1.265-3.163.811-.839 1.909-1.31 3.055-1.31zm0 2.226c-.575 0-1.127.237-1.534.658-.407.422-.636.993-.636 1.589v17.892c0 .595.229 1.167.636 1.588s.959.658 1.534.658h21.599c.576 0 1.128-.237 1.535-.658s.635-.993.635-1.588v-6.263c0-1.046-.449-2.038-1.226-2.708l-12.589-10.352c-.612-.527-1.382-.816-2.178-.816z" transform="matrix(8.10206 0 0 7.82482 -22.8811 -27.9099)"/><path d="m149.252 440.022h6.943c.552 0 1-.448 1-1s-.448-1-1-1h-6.943c-.552 0-1 .448-1 1s.448 1 1 1z" fill-rule="nonzero" transform="matrix(8.21834 0 0 7.82482 -1189.3 -3398.35)"/><path d="m23.559 6.614c-.301-.251-.419-.677-.293-1.061.125-.384.466-.642.849-.642h5.475c.447 0 .876.189 1.192.524s.494.79.494 1.264v4.395c0 .365-.197.698-.507.858-.309.159-.678.117-.948-.109-1.661-1.387-4.39-3.665-6.262-5.229z" transform="matrix(8.89795 0 0 8.38938 -44.9582 -29.5368)"/></svg>