<svg fill="rgb(0,200,170)" clip-rule="evenodd" fill-rule="evenodd" stroke-linejoin="round" stroke-miterlimit="2" viewBox="0 0 245 210" xmlns="http://www.w3.org/2000/svg"><path d="m7.144 3.567h7.776c1.298 0 2.556.471 3.554 1.331l12.589 10.352c1.267 1.093 2 2.712 2 4.419v6.263c0 1.186-.455 2.324-1.265 3.162-.81.839-1.909 1.311-3.055 1.311h-21.599c-1.146 0-2.244-.472-3.055-1.311-.81-.838-1.265-1.976-1.265-3.162v-17.892c0-1.187.455-2.324 1.265-3.163.811-.839 1.909-1.31 3.055-1.31zm0 2.226c-.575 0-1.127.237-1.534.658-.407.422-.636.993-.636 1.589v17.892c0 .595.229 1.167.636 1.588s.959.658 1.534.658h21.599c.576 0 1.128-.237 1.535-.658s.635-.993.635-1.588v-6.263c0-1.046-.449-2.038-1.226-2.708l-12.589-10.352c-.612-.527-1.382-.816-2.178-.816zm.285 3.491c-.56 0-1.015-.448-1.015-1s.455-1 1.015-1h7.043c.56 0 1.014.448 1.014 1s-.454 1-1.014 1zm15.719-2.401c-.33-.269-.459-.726-.322-1.137.138-.412.513-.688.933-.688h6.013c.491 0 .962.202 1.309.561.347.36.542.847.542 1.356v4.712c0 .391-.216.748-.556.919s-.745.126-1.042-.116z" transform="matrix(8.10206 0 0 7.82482 -22.8811 -27.9099)"/><path d="m433-489v-414c0-13.167 4.56-24.293 13.68-33.38 9.113-9.08 20.28-13.62 33.5-13.62 13.213 0 24.32 4.54 33.32 13.62 9 9.087 13.5 20.213 13.5 33.38v414c0 13.167-4.56 24.29-13.68 33.37-9.113 9.087-20.28 13.63-33.5 13.63-13.213 0-24.32-4.543-33.32-13.63-9-9.08-13.5-20.203-13.5-33.37zm-169-83v-246c0-13.167 4.56-24.46 13.68-33.88 9.113-9.413 20.28-14.12 33.5-14.12 13.213 0 24.487 4.707 33.82 14.12 9.333 9.42 14 20.713 14 33.88v246c0 13.167-4.727 24.29-14.18 33.37-9.447 9.087-20.78 13.63-34 13.63-13.213 0-24.32-4.543-33.32-13.63-9-9.08-13.5-20.203-13.5-33.37zm338 0v-246c0-13.167 4.56-24.46 13.68-33.88 9.113-9.413 20.613-14.12 34.5-14.12 13.213 0 24.32 4.707 33.32 14.12 9 9.42 13.5 20.713 13.5 33.88v246c0 13.167-4.56 24.29-13.68 33.37-9.113 9.087-20.28 13.63-33.5 13.63-13.88 0-25.32-4.543-34.32-13.63-9-9.08-13.5-20.203-13.5-33.37zm-507-109v-29c0-13.167 4.56-24.293 13.68-33.38 9.113-9.08 20.28-13.62 33.5-13.62 13.213 0 24.32 4.54 33.32 13.62 9 9.087 13.5 20.213 13.5 33.38v29c0 13.167-4.56 24.29-13.68 33.37-9.113 9.087-20.28 13.63-33.5 13.63-13.213 0-24.32-4.543-33.32-13.63-9-9.08-13.5-20.203-13.5-33.37zm676 0v-29c0-13.167 4.56-24.293 13.68-33.38 9.113-9.08 20.28-13.62 33.5-13.62 13.213 0 24.487 4.54 33.82 13.62 9.333 9.087 14 20.213 14 33.38v29c0 13.167-4.727 24.29-14.18 33.37-9.447 9.087-20.78 13.63-34 13.63-13.213 0-24.32-4.543-33.32-13.63-9-9.08-13.5-20.203-13.5-33.37z" fill-rule="nonzero" transform="matrix(.148688 0 0 .148688 51.0554 231.502)"/></svg>