<svg height="48" width="48" xmlns="http://www.w3.org/2000/svg"><path fill="rgb(50, 190, 200)" d="m43.023 24.359c-.001-.067-.005-.133-.01-.2-.008.233-.013.466-.013.698 0 3.561 1.075 7.353 1.649 9.123h.003c.204.625.348 1.02.348 1.02-3.887 0-6.227-3.102-7.543-5.864-.136-.285-.26-.566-.375-.84-2.101 4.811-7.568 10.728-13.433 12.876-1.49.546-3.005.848-4.497.828-4.828-.072-9.259-2.846-12.064-7.035-.22.023-.418.035-.588.035-1.933 0-3.5-1.567-3.5-3.5 0-1.155.559-2.179 1.422-2.817-.275-1.265-.422-2.581-.422-3.928 0-4.573 1.482-8.636 4.041-11.616.254-3.24 1.738-7.139 5.703-7.139 1.828.056 3.128.879 4.051 2.08.405-.042.816-.069 1.234-.08 7.633.097 15.317 8.523 17.981 13.767 1.2-2.895 3.606-6.738 7.941-6.767h.049s-.007.018-.02.052c-.201.523-1.837 4.902-1.957 9.307zm-35.023-7.36c-.001 2.859 1.144 5.501 3.002 6.929 4 3.077 8.999-.773 8.998-6.929 0-.005 0-.009 0-.014v.015c-.975-.871-4.135-6.008-11.57-3.006-.276.914-.43 1.924-.43 3.005zm8 1.005c-.001 1.54-1.669 2.501-3.001 1.73-.618-.357-.999-1.016-.999-1.73 0-.001 0-.002 0-.003-.001-1.54 1.665-2.503 2.999-1.734.62.357 1.002 1.018 1.001 1.734v.001z"/></svg>