<svg height="48" width="48" xmlns="http://www.w3.org/2000/svg"><path fill="rgb(50, 190, 200)" d="m13.549 3.952c-.002 0 .001 0 0 0zm.003 0c4.888.001 8.552 2.445 8.552 14.052 0 9.471-2.549 12.838-6.054 13.757.442 3.789 3.61 2.737 3.61 2.737v2.444s-7.855 2.221-8.491-5.155c-3.564-.874-6.171-4.208-6.171-13.783 0-11.607 3.663-14.051 8.554-14.052zm-.003 2.443c-2.439 0-3.665 2.021-3.665 11.609s1.226 11.607 3.665 11.607 3.665-2.02 3.665-11.607c0-9.589-1.226-11.609-3.665-11.609zm14.663 0h3.665v4.887h2.439v2.444h-2.439v13.44c0 2.444 2.439.612 2.439.612v2.443s-7.329 4.276-7.329-3.055v-13.44h-1.226v-2.444h1.226zm5.788 36.303v1.302l-.001-.001v.001l-5.999-5 .779-.651 5.22-4.35v3l8.977 1.497.005-.001.896.151 2.122.354-.011.002.012.002-12 2v-.004h-.001v1.697zm13.22-11.35.78.652-5.999 4.999v-.002l-.002.002v-3h-.002l-11.997-1.999 3.019-.504h.001l8.979-1.497v-3l5.219 4.35z"/></svg>