<svg fill="rgb(55,200,90)" width="100%" height="100%" viewBox="0 0 245 210" version="1.1" xmlns="http://www.w3.org/2000/svg" xmlns:xlink="http://www.w3.org/1999/xlink" xml:space="preserve" xmlns:serif="http://www.serif.com/" style="fill-rule:evenodd;clip-rule:evenodd;stroke-linejoin:round;stroke-miterlimit:2;">
    <g transform="matrix(8.10206,0,0,7.82482,-22.8811,-27.9099)">
        <path d="M7.144,3.567L14.92,3.567C16.218,3.567 17.476,4.038 18.474,4.898L31.063,15.25C32.33,16.343 33.063,17.962 33.063,19.669L33.063,25.932C33.063,27.118 32.608,28.256 31.798,29.094C30.988,29.933 29.889,30.405 28.743,30.405L7.144,30.405C5.998,30.405 4.9,29.933 4.089,29.094C3.279,28.256 2.824,27.118 2.824,25.932L2.824,8.04C2.824,6.853 3.279,5.716 4.089,4.877C4.9,4.038 5.998,3.567 7.144,3.567ZM7.144,5.793C6.569,5.793 6.017,6.03 5.61,6.451C5.203,6.873 4.974,7.444 4.974,8.04L4.974,25.932C4.974,26.527 5.203,27.099 5.61,27.52C6.017,27.941 6.569,28.178 7.144,28.178L28.743,28.178C29.319,28.178 29.871,27.941 30.278,27.52C30.685,27.099 30.913,26.527 30.913,25.932L30.913,19.669C30.913,18.623 30.464,17.631 29.687,16.961L17.098,6.609C16.486,6.082 15.716,5.793 14.92,5.793L7.144,5.793ZM7.429,9.284C6.869,9.284 6.414,8.836 6.414,8.284C6.414,7.732 6.869,7.284 7.429,7.284L14.472,7.284C15.032,7.284 15.486,7.732 15.486,8.284C15.486,8.836 15.032,9.284 14.472,9.284L7.429,9.284ZM23.148,6.883C22.818,6.614 22.689,6.157 22.826,5.746C22.964,5.334 23.339,5.058 23.759,5.058L29.772,5.058C30.263,5.058 30.734,5.26 31.081,5.619C31.428,5.979 31.623,6.466 31.623,6.975L31.623,11.687C31.623,12.078 31.407,12.435 31.067,12.606C30.727,12.777 30.322,12.732 30.025,12.49L23.148,6.883Z"/>
    </g>
    <g transform="matrix(2.41128,0,0,2.41128,69.4519,65.9302)">
        <path d="M38.003,47.528L5.997,47.528C2.948,47.528 0.472,45.052 0.472,42.003L0.472,10.706C0.472,7.657 2.948,5.181 5.997,5.181L38.003,5.181C41.053,5.181 43.528,7.657 43.528,10.706L43.528,42.004C43.528,45.053 41.053,47.528 38.003,47.528ZM27.34,10.231L32.384,16.866C32.875,17.511 33.059,18.337 32.89,19.129C32.721,19.921 32.216,20.6 31.505,20.988L31.323,21.088C30.245,21.677 28.898,21.399 28.143,20.429L21.597,12.031C21.302,11.656 20.965,11.361 20.649,11.025L20.434,10.795C20.141,10.484 19.558,10.231 19.131,10.231L7.997,10.231C6.631,10.231 5.522,11.34 5.522,12.706L5.522,40.003C5.522,41.369 6.631,42.478 7.997,42.478L36.003,42.479C37.369,42.479 38.478,41.37 38.478,40.004L38.478,12.706C38.478,11.34 37.369,10.231 36.003,10.231L27.34,10.231ZM10.647,37.482C10.33,37.17 10.135,36.736 10.135,36.255L10.149,32.52L10.149,18.19C10.149,18.018 10.17,17.87 10.204,17.746L10.329,17.439L10.527,17.188L10.827,16.994L11.177,16.917L11.496,16.953L11.803,17.081C11.914,17.145 12.034,17.235 12.156,17.357L30.771,35.973C30.893,36.095 30.983,36.215 31.047,36.326L31.175,36.633L31.211,36.952L31.134,37.302L30.94,37.602L30.689,37.8L30.382,37.925C30.258,37.959 30.11,37.98 29.938,37.98L15.609,37.98L11.874,37.994C11.393,37.994 10.959,37.798 10.647,37.482ZM21.883,33.467L14.662,26.246L14.662,33.467L21.883,33.467Z"/>
    </g>
</svg>
