<svg fill="rgb(55,200,90)" clip-rule="evenodd" fill-rule="evenodd" stroke-linejoin="round" stroke-miterlimit="2" viewBox="0 0 245 210" xmlns="http://www.w3.org/2000/svg"><path d="m7.144 3.567h7.776c1.298 0 2.556.471 3.554 1.331l12.589 10.352c1.267 1.093 2 2.712 2 4.419v6.263c0 1.186-.455 2.324-1.265 3.162-.81.839-1.909 1.311-3.055 1.311h-21.599c-1.146 0-2.244-.472-3.055-1.311-.81-.838-1.265-1.976-1.265-3.162v-17.892c0-1.187.455-2.324 1.265-3.163.811-.839 1.909-1.31 3.055-1.31zm0 2.226c-.575 0-1.127.237-1.534.658-.407.422-.636.993-.636 1.589v17.892c0 .595.229 1.167.636 1.588s.959.658 1.534.658h21.599c.576 0 1.128-.237 1.535-.658s.635-.993.635-1.588v-6.263c0-1.046-.449-2.038-1.226-2.708l-12.589-10.352c-.612-.527-1.382-.816-2.178-.816zm.285 3.491c-.56 0-1.015-.448-1.015-1s.455-1 1.015-1h7.043c.56 0 1.014.448 1.014 1s-.454 1-1.014 1zm15.719-2.401c-.33-.269-.459-.726-.322-1.137.138-.412.513-.688.933-.688h6.013c.491 0 .962.202 1.309.561.347.36.542.847.542 1.356v4.712c0 .391-.216.748-.556.919s-.745.126-1.042-.116z" transform="matrix(8.10206 0 0 7.82482 -22.8811 -27.9099)"/><path d="m407.17-325.19c15.147 15.46 37.073 22.69 65.78 21.69 28.7-1 50.05-11.833 64.05-32.5l166-255c8-11.333 7.333-21.667-2-31s-19.667-10-31-2l-252 168c-20 14-30.667 35.517-32 64.55s5.723 51.12 21.17 66.26zm70.83-499.81c27.36 0 56.707 3.66 88.04 10.98 31.34 7.32 62.66 18.993 93.96 35.02 12 5.333 17 14.103 15 26.31s-6.667 24.04-14 35.5-14.667 18.857-22 22.19-17.333 3-30-1c-22.667-12-45.773-20.667-69.32-26s-44.107-8-61.68-8c-90.32 0-167.733 32.493-232.24 97.48-64.507 64.993-96.76 143.713-96.76 236.16 0 30.24 3.833 59.36 11.5 87.36s18.833 54.667 33.5 80h566.84c14.773-24 25.993-50.5 33.66-79.5s11.5-58.833 11.5-89.5c0-18.947-2.333-39.517-7-61.71s-12.667-43.957-24-65.29c-4.667-12.667-5.5-25.833-2.5-39.5s10.103-24.247 21.31-31.74c11.22-7.173 23.39-9.093 36.51-5.76s22.013 11.333 26.68 24c14.087 29.133 24.773 58.417 32.06 87.85 7.293 29.433 11.273 58.017 11.94 85.75.667 41.6-3.92 81.33-13.76 119.19-9.847 37.86-24.26 72.93-43.24 105.21-11.333 19.333-23.137 31.667-35.41 37-12.267 5.333-27.463 8-45.59 8h-571c-16 0-31.5-4-46.5-12s-26.167-19-33.5-33c-18-32.667-32-66.957-42-102.87s-15-73.647-15-113.2c0-58.62 11.027-113.73 33.08-165.33 22.047-51.607 52.27-96.97 90.67-136.09s83.437-70.15 135.11-93.09c51.667-22.947 106.38-34.42 164.14-34.42z" fill-rule="nonzero" transform="matrix(.129637 0 0 .129637 60.5293 190.241)"/></svg>