<svg height="48" width="48" xmlns="http://www.w3.org/2000/svg"><path fill="rgb(255, 60, 110)" d="m44 4.005c0-.056-.64.381-1.422.971-7.362 5.552-16.563 10.407-21.715 11.458l-.972.199-.368.967c-1.283 3.373-4.931 5.765-10.649 6.983-.903.193-1.872.467-2.153.61-.868.441-1.877 1.451-2.333 2.335-.368.715-.425 1.023-.369 1.991.047.815.159 1.247.389 1.497.31.336 1.082.513.887.203-.154-.245.573-1.022 1.291-1.383 1.164-.583 2.971-.859 4.862-.834.338.006.744.021 1.024.043 1.416.1 2.824.367 3.992.803.629.235 1.161.517 1.593.833 1.612.826 2.968 1.901 4.108 3.141 0-.041.005-.08.005-.122.007-.816.035-1.483.061-1.483.026-.001.129.208.228.465.24.621.366 1.274.389 1.932 2.163 2.686 3.442 5.994 4.193 9.188 1-1.705 1.948-3.959 1.953-4.88.006-1.363.966 1.312 1.269 3.537l.21 1.541.38-.933c.635-1.56.933-3.191.935-5.111.001-.993-.049-1.966-.113-2.162-.063-.196-.046-.357.039-.357.208 0 1.862 1.657 2.285 2.29.4.597.43.336.102-.876-.868-3.205-3.357-6.224-6.909-8.38l-1.372-.834.683-.02c.375-.01.915-.071 1.2-.135l.517-.115-.69-.231-.69-.231 1.106-.222c.608-.123 1.656-.479 2.329-.792l1.222-.569-1.552.06-1.553.061 1.208-.401c1.68-.557 4.903-2.221 4.696-2.424-.029-.029-.632.096-1.34.277-2.081.531-2.301.415-.674-.358 1.583-.752 3.811-2.166 4.906-3.114l.69-.598-1.293.573c-1.099.487-3.606 1.288-4.034 1.288-.072 0 .37-.257.982-.57 1.752-.898 3.335-2.087 5.293-3.974l1.811-1.746-1.465.762c-1.387.719-4.312 2.011-4.312 1.904 0-.027.369-.306.819-.619 1.748-1.215 4.844-4.425 6.676-6.923l.665-.907-1.631 1.253c-1.742 1.339-5.299 3.607-5.44 3.469-.046-.046.127-.219.385-.386.762-.49 4.114-4.213 5.957-6.615.94-1.225 1.709-2.273 1.709-2.329z"/></svg>