<svg height="48" width="48" xmlns="http://www.w3.org/2000/svg"><path fill="rgb(255, 60, 110)" d="m28.183 6.44h3.66v4.88h2.435v2.441h-2.435v12.238h16.156v13h-.002v.001h-8.997l-5.998 4.999v-.001l-.002.002v-1.302l.002-.002v-3.697h-4.002v-7.718c-1.155-.41-2.04-1.554-2.04-4.1v-13.42h-1.225v-2.441h1.225zm-14.642-2.44c-.002 0 .001 0 0 0zm.003 0c4.881.001 8.54 2.441 8.54 14.031 0 9.457-2.545 12.82-6.045 13.738.441 3.784 3.605 2.733 3.605 2.733v2.44s-7.844 2.218-8.479-5.147c-3.559-.874-6.163-4.202-6.163-13.764 0-11.59 3.659-14.03 8.542-14.031zm-3.663 14.031c0 9.576 1.225 11.591 3.66 11.591 2.436 0 3.66-2.017 3.66-11.591s-1.224-11.591-3.66-11.591c-2.435 0-3.66 2.018-3.66 11.591z"/></svg>