<svg height="48" viewBox="0 -960 960 960" width="48" xmlns="http://www.w3.org/2000/svg"><path fill="rgb(255, 60, 110)" d="m149-347q-39.05 0-66.53-27.48-27.47-27.47-27.47-66.52v-370q0-39.46 27.47-67.23 27.48-27.77 66.53-27.77h370q39.46 0 67.23 27.77 27.77 27.77 27.77 67.23v370q0 39.05-27.77 66.52-27.77 27.48-67.23 27.48zm-7-87h385v-385h-385zm173-80-47-58q-4.31-5-10.15-5-5.85 0-10.01 5.22l-41.84 59.78q-4 5 0 11.5t10 6.5h235q6 0 10-6.5t0-11.5l-63.88-85.84q-4.43-5.16-10.27-4.66-5.85.5-8.85 5.5zm386.88 459q-52.38 0-87.63-35.37-35.25-35.37-35.25-87.75t35.33-88.13q35.34-35.75 87.67-35.75 10.3 0 19.65 2 9.35 2 17.35 7v-161q0-19.63 13.63-33.81 13.62-14.19 33.37-14.19h76q18.05 0 31.03 12.96 12.97 12.97 12.97 31 0 18.04-12.97 30.54-12.98 12.5-31.03 12.5h-36v237q0 52.33-35.87 87.67-35.87 35.33-88.25 35.33zm-559.88-379v-385z"/></svg>