<?xml version="1.0" encoding="utf-8"?>
<svg clip-rule="evenodd" fill-rule="evenodd" stroke-linejoin="round" stroke-miterlimit="2" viewBox="0 0 250 250" xmlns="http://www.w3.org/2000/svg">
  <path d="M 124.695 239.908 C 93.115 239.908 66.121 228.601 43.709 205.986 C 21.298 183.371 10.093 156.579 10.093 125.611 C 10.093 93.653 21.296 66.409 43.703 43.88 C 66.11 21.355 93.21 10.092 125.001 10.092 C 156.376 10.092 183.371 21.355 205.986 43.88 C 228.601 66.409 239.909 93.653 239.909 125.611 C 239.909 156.579 228.601 183.371 205.986 205.986 C 183.371 228.601 156.275 239.908 124.695 239.908 Z M 109.109 142.725 L 109.109 171.843 C 109.109 176.635 110.828 180.62 114.268 183.799 C 117.711 186.977 121.724 188.566 126.309 188.566 C 130.897 188.566 134.78 186.855 137.958 183.432 C 141.137 180.009 142.726 176.016 142.726 171.452 L 142.726 142.725 L 171.844 142.725 C 176.636 142.725 180.621 141.006 183.799 137.566 C 186.978 134.123 188.567 130.11 188.567 125.526 C 188.567 120.937 186.978 117.054 183.799 113.876 C 180.621 110.698 176.636 109.108 171.844 109.108 L 142.726 109.108 L 142.726 79.99 C 142.726 75.198 141.137 71.213 137.958 68.035 C 134.78 64.857 130.897 63.267 126.309 63.267 C 121.724 63.267 117.711 64.857 114.268 68.035 C 110.828 71.213 109.109 75.198 109.109 79.99 L 109.109 109.108 L 79.991 109.108 C 75.199 109.108 71.214 110.698 68.036 113.876 C 64.857 117.054 63.268 120.937 63.268 125.526 C 63.268 130.11 64.979 134.123 68.402 137.566 C 71.825 141.006 75.818 142.725 80.382 142.725 L 109.109 142.725 Z" style="stroke-width: 0.611;"/>
  <path d="M 109.109 142.725 L 109.109 171.843 C 109.109 176.635 110.828 180.62 114.268 183.799 C 117.711 186.977 121.724 188.566 126.309 188.566 C 130.897 188.566 134.78 186.855 137.958 183.432 C 141.137 180.009 142.726 176.016 142.726 171.452 L 142.726 142.725 L 171.844 142.725 C 176.636 142.725 180.621 141.006 183.799 137.566 C 186.978 134.123 188.567 130.11 188.567 125.526 C 188.567 120.937 186.978 117.054 183.799 113.876 C 180.621 110.698 176.636 109.108 171.844 109.108 L 142.726 109.108 L 142.726 79.99 C 142.726 75.198 141.137 71.213 137.958 68.035 C 134.78 64.857 130.897 63.267 126.309 63.267 C 121.724 63.267 117.711 64.857 114.268 68.035 C 110.828 71.213 109.109 75.198 109.109 79.99 L 109.109 109.108 L 79.991 109.108 C 75.199 109.108 71.214 110.698 68.036 113.876 C 64.857 117.054 63.268 120.937 63.268 125.526 C 63.268 130.11 64.979 134.123 68.402 137.566 C 71.825 141.006 75.818 142.725 80.382 142.725 L 109.109 142.725 Z" fill="#fff" style="stroke-width: 0.611;"/>
</svg>