<svg clip-rule="evenodd" fill-rule="evenodd" stroke-linejoin="round" stroke-miterlimit="2" viewBox="0 0 250 250" xmlns="http://www.w3.org/2000/svg"><g transform="matrix(.295854 0 0 .295854 -17.1577 267.158)"><path d="m223-726 36-46h440.59l36.41 46zm548 87v450h-582v-450z" fill="#fff"/><path d="m189-95c-26.533 0-48.833-9.033-66.9-27.1s-27.1-40.367-27.1-66.9v-493c0-10.587 1.833-20.94 5.5-31.06s8.897-19.42 15.69-27.9l72.81-95.04c8.5-10.687 18.703-18.36 30.61-23.02 11.907-4.653 24.703-6.98 38.39-6.98h444c13 0 25.457 2.327 37.37 6.98 11.913 4.66 22.123 12.333 30.63 23.02l74.81 95.04c6.127 8.48 11.19 17.78 15.19 27.9s6 20.473 6 31.06v493c0 26.533-9.13 48.833-27.39 66.9-18.267 18.067-40.803 27.1-67.61 27.1zm34-631h513l-36.41-46h-440.59zm548 87h-582v450h582zm-290.961 398.237c-47.609 0-88.308-17.047-122.095-51.141-33.787-34.095-50.681-74.486-50.681-121.174 0-48.181 16.891-89.254 50.672-123.22 33.781-33.959 74.636-50.939 122.565-50.939 47.302 0 88.001 16.98 122.095 50.939 34.095 33.966 51.142 75.039 51.142 123.22 0 46.688-17.047 87.079-51.142 121.174-34.094 34.094-74.946 51.141-122.556 51.141zm-66.807-146.514h138.046c7.12 0 13.076-2.592 17.868-7.777 4.791-5.191 7.187-11.242 7.187-18.153 0-6.917-2.396-12.772-7.187-17.564-4.792-4.791-10.757-7.187-17.895-7.187h-138.737c-7.139 0-13.104 2.396-17.895 7.187-4.792 4.792-7.188 10.647-7.188 17.564 0 6.911 2.58 12.962 7.741 18.153 5.16 5.185 11.18 7.777 18.06 7.777z"/></g></svg>