<svg fill="rgb(0,200,170)" width="100%" height="100%" viewBox="0 0 245 210" version="1.1" xmlns="http://www.w3.org/2000/svg" xmlns:xlink="http://www.w3.org/1999/xlink" xml:space="preserve" xmlns:serif="http://www.serif.com/" style="fill-rule:evenodd;clip-rule:evenodd;stroke-linejoin:round;stroke-miterlimit:2;">
    <g transform="matrix(8.10206,0,0,7.82482,-22.8811,-27.9099)">
        <path d="M7.144,3.567L14.92,3.567C16.218,3.567 17.476,4.038 18.474,4.898L31.063,15.25C32.33,16.343 33.063,17.962 33.063,19.669L33.063,25.932C33.063,27.118 32.608,28.256 31.798,29.094C30.988,29.933 29.889,30.405 28.743,30.405L7.144,30.405C5.998,30.405 4.9,29.933 4.089,29.094C3.279,28.256 2.824,27.118 2.824,25.932L2.824,8.04C2.824,6.853 3.279,5.716 4.089,4.877C4.9,4.038 5.998,3.567 7.144,3.567ZM7.144,5.793C6.569,5.793 6.017,6.03 5.61,6.451C5.203,6.873 4.974,7.444 4.974,8.04L4.974,25.932C4.974,26.527 5.203,27.099 5.61,27.52C6.017,27.941 6.569,28.178 7.144,28.178L28.743,28.178C29.319,28.178 29.871,27.941 30.278,27.52C30.685,27.099 30.913,26.527 30.913,25.932L30.913,19.669C30.913,18.623 30.464,17.631 29.687,16.961L17.098,6.609C16.486,6.082 15.716,5.793 14.92,5.793L7.144,5.793ZM7.429,9.284C6.869,9.284 6.414,8.836 6.414,8.284C6.414,7.732 6.869,7.284 7.429,7.284L14.472,7.284C15.032,7.284 15.486,7.732 15.486,8.284C15.486,8.836 15.032,9.284 14.472,9.284L7.429,9.284ZM23.148,6.883C22.818,6.614 22.689,6.157 22.826,5.746C22.964,5.334 23.339,5.058 23.759,5.058L29.772,5.058C30.263,5.058 30.734,5.26 31.081,5.619C31.428,5.979 31.623,6.466 31.623,6.975L31.623,11.687C31.623,12.078 31.407,12.435 31.067,12.606C30.727,12.777 30.322,12.732 30.025,12.49L23.148,6.883Z"/>
    </g>
    <g transform="matrix(2.86863,0,0,2.86863,-32.8537,-20797.5)">
        <path d="M58.461,7281.82C57.598,7282.82 56.172,7283.58 54.785,7283.48C54.458,7283.45 54.192,7283.2 54.147,7282.88C53.96,7281.53 54.63,7280.11 55.426,7279.23C56.299,7278.25 57.776,7277.53 58.993,7277.48C59.357,7277.47 59.669,7277.74 59.711,7278.1C59.868,7279.46 59.31,7280.84 58.461,7281.82ZM46.129,7286.47C47.337,7285.46 48.865,7284.87 50.476,7284.85C51.387,7284.84 52.279,7285.1 53.076,7285.39C53.351,7285.5 53.767,7285.64 53.938,7285.7C54.137,7285.63 54.661,7285.44 55.022,7285.31C55.942,7284.98 57,7284.71 58.062,7284.81C58.769,7284.84 60.332,7285.05 61.773,7286.06C62.309,7286.44 62.828,7286.93 63.281,7287.57C63.582,7287.99 63.693,7288.52 63.586,7289.03C63.479,7289.53 63.164,7289.98 62.718,7290.24C62.66,7290.28 61.356,7290.96 61.37,7292.43C61.387,7294.21 63.209,7295.47 66.103,7295.86C68.381,7296.16 69.866,7296.88 71.212,7298.36C72.558,7299.83 73.23,7301.64 73.23,7303.77C73.23,7305.96 72.461,7307.83 70.922,7309.37C69.383,7310.91 67.516,7311.68 65.321,7311.68L44.805,7311.68C42.139,7311.68 39.852,7310.74 37.944,7308.87C36.036,7307 35.082,7304.72 35.082,7302.04C35.082,7299.73 35.783,7297.66 37.183,7295.84C38.584,7294.01 40.411,7292.9 42.663,7292.52C43.078,7290.79 43.788,7289.27 44.793,7287.94C45.17,7287.39 45.621,7286.89 46.129,7286.47ZM57.869,7288.92L57.703,7288.91C57.249,7288.87 56.808,7289.05 56.414,7289.19C56.047,7289.32 55.515,7289.51 55.312,7289.58L53.962,7289.82L52.61,7289.6C52.417,7289.53 51.945,7289.37 51.634,7289.25C51.298,7289.13 50.934,7288.96 50.549,7288.97L50.491,7288.97C49.85,7288.99 49.245,7289.23 48.764,7289.64C48.552,7289.81 48.364,7290.02 48.207,7290.25L48.153,7290.33L48.069,7290.44L48.072,7290.44C47.404,7291.32 46.944,7292.33 46.669,7293.48L46.217,7294.6L45.477,7295.53L44.505,7296.2L43.356,7296.58C42.162,7296.78 41.195,7297.38 40.452,7298.34C39.618,7299.43 39.202,7300.66 39.202,7302.04C39.202,7303.56 39.743,7304.86 40.83,7305.93C41.936,7307.01 43.26,7307.56 44.805,7307.56L65.321,7307.56C66.373,7307.56 67.271,7307.19 68.009,7306.45C68.747,7305.72 69.111,7304.82 69.111,7303.77C69.111,7302.74 68.82,7301.85 68.169,7301.14C67.489,7300.39 66.706,7300.1 65.555,7299.94C63.32,7299.64 61.528,7298.92 60.263,7298.02C58.257,7296.58 57.271,7294.65 57.25,7292.47C57.236,7291.03 57.693,7289.86 58.273,7288.97C58.108,7288.94 57.968,7288.93 57.869,7288.92Z"/>
    </g>
</svg>
