<svg fill="grey" clip-rule="evenodd" fill-rule="evenodd" stroke-linejoin="round" stroke-miterlimit="2" viewBox="0 0 245 210" xmlns="http://www.w3.org/2000/svg"><path d="m7.144 3.567h7.776c1.298 0 2.556.471 3.554 1.331l12.589 10.352c1.267 1.093 2 2.712 2 4.419v6.263c0 1.186-.455 2.324-1.265 3.162-.81.839-1.909 1.311-3.055 1.311h-21.599c-1.146 0-2.244-.472-3.055-1.311-.81-.838-1.265-1.976-1.265-3.162v-17.892c0-1.187.455-2.324 1.265-3.163.811-.839 1.909-1.31 3.055-1.31zm0 2.226c-.575 0-1.127.237-1.534.658-.407.422-.636.993-.636 1.589v17.892c0 .595.229 1.167.636 1.588s.959.658 1.534.658h21.599c.576 0 1.128-.237 1.535-.658s.635-.993.635-1.588v-6.263c0-1.046-.449-2.038-1.226-2.708l-12.589-10.352c-.612-.527-1.382-.816-2.178-.816zm.285 3.491c-.56 0-1.015-.448-1.015-1s.455-1 1.015-1h7.043c.56 0 1.014.448 1.014 1s-.454 1-1.014 1zm15.719-2.401c-.33-.269-.459-.726-.322-1.137.138-.412.513-.688.933-.688h6.013c.491 0 .962.202 1.309.561.347.36.542.847.542 1.356v4.712c0 .391-.216.748-.556.919s-.745.126-1.042-.116z" transform="matrix(8.10206 0 0 7.82482 -22.8811 -27.9099)"/><path d="m480.45-95c-108.3 0-199.617-17.833-273.95-53.5s-111.5-79.5-111.5-131.5v-400c0-51.133 37.5-94.917 112.5-131.35s165.76-54.65 272.28-54.65c105.853 0 196.687 18.217 272.5 54.65s113.72 80.217 113.72 131.35v400c0 52-37.35 95.833-112.05 131.5-74.693 35.667-165.86 53.5-273.5 53.5zm-.46-514c56.893 0 114.95-8.667 174.17-26 59.227-17.333 98.507-37 117.84-59-20-21.333-60-40.833-120-58.5-59.993-17.667-117.49-26.5-172.49-26.5-57.007 0-115.01 8.667-174.01 26s-98.167 37-117.5 59c19.333 23.333 57.943 43.333 115.83 60 57.88 16.667 116.6 25 176.16 25zm-.99 213c27.333 0 54.543-1.667 81.63-5s53.187-8.167 78.3-14.5c25.107-6.333 49.563-14.167 73.37-23.5 23.8-9.333 46.033-19.667 66.7-31v-122c-20.667 10.667-42.833 20.333-66.5 29s-48.167 15.833-73.5 21.5-51.333 10-78 13-54.12 4.5-82.36 4.5c-26.9 0-53.967-1.5-81.2-4.5-27.227-3-53.607-7.5-79.14-13.5s-49.967-13.167-73.3-21.5-44.333-17.833-63-28.5v122c18 11.333 38.667 21.5 62 30.5s47.833 16.833 73.5 23.5 52.22 11.667 79.66 15c27.433 3.333 54.713 5 81.84 5zm1 214c30.667.667 62.333-1.667 95-7s63.167-12.5 91.5-21.5 52.667-19.333 73-31 33.5-23.5 39.5-35.5v-103c-20 11.333-41.5 21.5-64.5 30.5s-47.397 16.5-73.19 22.5c-25.787 6-52.25 10.5-79.39 13.5-27.133 3-54.773 4.5-82.92 4.5-27.793 0-55.407-1.667-82.84-5-27.44-3.333-53.827-8-79.16-14s-49.5-13.5-72.5-22.5-43.833-18.833-62.5-29.5v103.95c5.333 11.367 18 22.717 38 34.05s44.167 21.5 72.5 30.5 58.833 16.167 91.5 21.5 64.667 8 96 8z" fill-rule="nonzero" transform="matrix(.136234 0 0 .136234 57.0393 193.476)"/></svg>