<svg fill="grey" clip-rule="evenodd" fill-rule="evenodd" stroke-linejoin="round" stroke-miterlimit="2" viewBox="0 0 48 48" xmlns="http://www.w3.org/2000/svg"><g transform="matrix(.0630061 0 0 .0630061 -7.50308 -7.43094)"><path d="m328.938 232.458c-14.437 1.585-25.265 13.945-24.937 28.436v475.99c-.164 10.117 5.14 19.468 13.89 24.554 8.695 5.141 19.523 5.141 28.218 0 8.75-5.086 14.055-14.437 13.891-24.554v-475.99c.109-7.601-2.844-14.874-8.203-20.233-5.36-5.36-12.633-8.313-20.234-8.203-.875-.055-1.75-.055-2.625 0zm335.992 0c-14.437 1.585-25.265 13.945-24.937 28.436v475.99c-.164 10.117 5.141 19.468 13.891 24.554 8.695 5.141 19.523 5.141 28.218 0 8.75-5.086 14.054-14.437 13.89-24.554v-475.99c.11-7.601-2.844-14.874-8.203-20.233-5.359-5.36-12.632-8.313-20.234-8.203-.875-.055-1.75-.055-2.625 0zm-419.99 125.997c-14.438 1.586-25.265 13.945-24.937 28.437v223.995c-.164 10.117 5.14 19.468 13.89 24.554 8.695 5.14 19.523 5.14 28.218 0 8.75-5.086 14.055-14.437 13.89-24.554v-223.995c.11-7.602-2.843-14.875-8.202-20.234-5.36-5.36-12.633-8.313-20.234-8.203-.875-.055-1.75-.055-2.625 0zm503.988 0c-14.437 1.586-25.265 13.945-24.936 28.437v223.995c-.165 10.117 5.14 19.468 13.89 24.554 8.695 5.14 19.523 5.14 28.218 0 8.75-5.086 14.054-14.437 13.89-24.554v-223.995c.11-7.602-2.843-14.875-8.203-20.234-5.359-5.36-12.632-8.313-20.234-8.203-.875-.055-1.75-.055-2.625 0zm-335.992 13.999c-14.437 1.586-25.265 13.945-24.937 28.437v195.996c-.164 10.117 5.141 19.468 13.89 24.554 8.695 5.141 19.523 5.141 28.218 0 8.75-5.086 14.055-14.437 13.891-24.554v-195.996c.109-7.601-2.844-14.874-8.203-20.234-5.359-5.359-12.633-8.312-20.234-8.203-.875-.054-1.75-.054-2.625 0zm167.996 0c-14.437 1.586-25.265 13.945-24.937 28.437v195.996c-.164 10.117 5.141 19.468 13.891 24.554 8.695 5.141 19.523 5.141 28.218 0 8.75-5.086 14.054-14.437 13.89-24.554v-195.996c.109-7.601-2.844-14.874-8.203-20.234-5.359-5.359-12.632-8.312-20.234-8.203-.875-.054-1.75-.054-2.625 0zm-83.998 69.999c-14.437 1.586-25.265 13.945-24.937 28.437v55.999c-.164 10.117 5.141 19.468 13.89 24.554 8.696 5.14 19.523 5.14 28.219 0 8.749-5.086 14.054-14.437 13.89-24.554v-55.999c.109-7.602-2.844-14.875-8.203-20.234s-12.633-8.312-20.234-8.203c-.875-.055-1.75-.055-2.625 0z"/><path d="m829.569 433.967c7.601-.109 14.875 2.844 20.234 8.203s8.312 12.632 8.203 20.234v77.747c.164 10.117-5.141 19.468-13.89 24.554-8.696 5.14-19.523 5.14-28.219 0-8.749-5.086-14.054-14.437-13.89-24.554v-77.747c-.328-14.492 10.5-26.851 24.937-28.437.875-.055 1.75-.055 2.625 0zm-660.009-2.485c7.601-.109 14.875 2.844 20.234 8.203s8.312 12.632 8.203 20.234v77.747c.164 10.117-5.141 19.468-13.89 24.554-8.696 5.14-19.523 5.14-28.219 0-8.749-5.086-14.054-14.437-13.89-24.554v-77.747c-.328-14.492 10.5-26.851 24.937-28.437.875-.055 1.75-.055 2.625 0z"/></g></svg>