<?xml version="1.0" encoding="utf-8"?>
<svg clip-rule="evenodd" fill-rule="evenodd" stroke-linejoin="round" stroke-miterlimit="2" viewBox="0 0 250 250" xmlns="http://www.w3.org/2000/svg">
  <path d="M 36.791 24.525 L 213.21 24.525 C 232.217 24.525 247.541 39.831 247.541 58.839 L 247.541 191.162 C 247.541 210.169 232.217 225.476 213.21 225.476 L 36.791 225.476 C 17.783 225.476 2.459 210.169 2.459 191.162 L 2.459 58.839 C 2.459 39.831 17.783 24.525 36.791 24.525 Z M 222.679 83.893 C 222.661 78.333 218.144 73.833 212.584 73.833 L 37.416 73.833 C 31.857 73.85 27.339 78.333 27.322 83.91 L 27.009 191.162 C 27.009 196.582 31.37 200.926 36.791 200.926 L 213.21 200.926 C 218.63 200.926 222.991 196.582 222.991 191.162 L 222.679 83.893 Z M 125.018 166.125 C 128.232 166.125 130.96 167.237 133.201 169.479 C 135.425 171.72 136.554 174.465 136.554 177.679 C 136.554 180.946 135.425 183.708 133.184 185.967 C 130.942 188.225 128.215 189.355 124.983 189.355 C 121.769 189.355 119.041 188.225 116.8 185.949 C 114.576 183.673 113.446 180.911 113.446 177.644 C 113.446 174.395 114.576 171.65 116.817 169.444 C 119.058 167.22 121.786 166.125 125.018 166.125 Z M 125.018 87.003 C 127.485 87.003 129.587 87.871 131.307 89.591 C 133.027 91.329 133.896 93.431 133.896 95.898 L 133.896 143.956 C 133.896 146.423 133.027 148.525 131.29 150.245 C 129.57 151.983 127.467 152.851 124.983 152.851 C 122.516 152.851 120.413 151.983 118.693 150.245 C 116.973 148.525 116.105 146.423 116.105 143.956 L 116.105 95.898 C 116.105 93.431 116.973 91.329 118.711 89.591 C 120.431 87.871 122.533 87.003 125.018 87.003 Z"/>
</svg>