<svg height="48" width="48" xmlns="http://www.w3.org/2000/svg">
  <defs>
    <style type="text/css" id="current-color-scheme">.ColorScheme-Highlight { color:#000000; }</style>
  </defs><path class="ColorScheme-Highlight" fill="currentColor" d="m1.865 40.293 20.811-37.881c.264-.481.769-.779 1.317-.778s1.052.3 1.315.781l20.654 37.845c.262.482.241 1.068-.055 1.529-.296.462-.82.725-1.367.686 0 0-1.96-.138-4.679-.257-1.194-.058-1.65-.025-2.591-.135-.851-.1-2.113-.324-5.019-.863-4.614-.892-7.691-2.629-13.339-2.415-6.407.085-15.177 3.607-15.177 3.607-.458.181-.975.126-1.384-.147l-.003-.002c-.648-.432-.858-1.288-.483-1.97zm13.284-14.209c.078-.018.159-.031.24-.036.091-.007.181-.005.27.005.221-.613.57-1.219.954-1.617.188-.097.395-.153.606-.165.097.019.205.046.317.079.034-.064.068-.125.103-.177.203-.302.904-.649 1.386-.789.282.06.646.187.948.342.284-.158.619-.294.889-.368.51.148 1.244.516 1.439.826.031.051.062.108.092.17.088-.033.173-.062.253-.086.459.104 1.156.399 1.385.69.172.217.341.589.414.828 0 .003.001.006.002.008.009-.002.018-.003.027-.005.423.121 1.062.423 1.275.698.163.21.328.566.398.795.054.175.099.384.135.607.42.128 1.018.411 1.21.662.148.193.298.523.358.72.032.105.061.225.086.352.016-.003.032-.006.048-.009.381.075.996.295 1.223.526.179.183.374.521.45.717.062.162.115.363.156.57.343.059.776.183.974.341.204.162.443.494.532.679.105.218.189.52.243.789.508.127 1.169.428 1.396.733.145.196.275.485.358.73.047-.01.092-.019.134-.026.432.103 1.083.386 1.312.662.064.077.126.172.183.272.124-.032.245-.058.353-.076.543.207 1.161.602 1.443.927.191-.083.388-.154.57-.203.426.132.839.329 1.174.527l-14.521-26.878z"/></svg>