<svg height="48" width="48" xmlns="http://www.w3.org/2000/svg">
  <defs>
    <style type="text/css" id="current-color-scheme">.ColorScheme-Highlight { color:#000000; }</style>
  </defs>
  <defs>
    <style type="text/css" id="current-color-scheme">.ColorScheme-Highlight { color:#000000; } .ColorScheme-Text { color:#ffffff; }</style>
  </defs><path class="ColorScheme-Highlight" fill="currentColor" d="m21.24 12.795c-1.523 1.592 2.675 2.125 1.017.653.891-1.072 2.345.697 1.313 1.668.93-.449.489-1.942-.395-2.324.071-.662 1.478.109 1.827 1.032-.125-.88-.456-1.859.689-.791.167-.318-1.807-1.905-2.937-1.536-.591.204-1.196.766-1.514 1.298zm3.728 1.86c-.006.011-.012.022-.019.033.007-.01.013-.021.019-.033zm.034-.831c.046.327.064.642-.034.831.147-.268.138-.556.034-.831zm-7.964 4.669c.333.748 1.048 1.89.139 2.135-.224 1.85-.054 4.069 1.335 5.487.245.363.335.523.335.566 0 0-.001 0-.002 0s0 0 0 0 .002.001.002 0c0-.011 0-.011 0-.011.015-.014.037-.025.052-.04.411.646 1.873 2.501 3.473 1.62 1.544-.697 3.216-1.251 4.539-2.312.871-1.129 2.194-1.712 3.431-2.395 1.762-1.488-.193-3.054-1.752-3.586-1.941-1.075-3.93.646-5.899.731-2.082.016-4.097-.952-5.653-2.205zm8.315-11.342c-.601 1.475-1.67 2.271-3.663 1.69-1.041.611-1.638-.736-2.768-.355-1.717.009-3.199 1.243-4.435 2.342-.78 1.559-2.329 3.047-2.057 4.931.35.865 2.324 3.731 2.745 2.059-1.589.126-1.845-1.451-1.345-2.654.192-1.527 1.024-2.832 1.686-4.194.645-1.274 2.732-2.335 3.94-1.304-.344.739-2.061 1.899-1.848 3.358.166 1.601.361 3.622 1.655 4.682 2.002-.039 4.046.058 6.036.448 1.865-.066 3.646.872 5.503.598.582-1.359-1.996-.633-2.851-1.007-1.55.127-2.959-.665-4.452-.708 2.157-.527 3.505-2.244 3.785-4.364.331.657.886 3.445 2.566 3.831 1.875.855 3.177 2.861 2.439 4.911.829.509-.173 2.981.664 2.53.926-1.522 2.587-2.771 4.445-2.122 1.33.112.284-.059-.368-.122-2.164-.393.029-2.728.923-3.403-.976-.387-3.038.962-3.277 2.357.298 1.206-2.712 1.65-1.226.816 1.427-1.066.609-2.914.353-4.326-.055-1.987-.794-3.875-1.954-5.475-1.484-1.65-2.476-4.124-4.873-4.604-2.335.001-.671 2.444.438 3.046 1.095 1.501-1.214 1.011-.934 2.524.457 2.123-1.541 3.613-3.299 4.235-1.403-.288-3.933 1.296-4.141-.869-.984-1.422-1.279-3.302-.183-4.786.85-1.74 3.094-1.454 4.691-1.272 1.35.306 1.387-.482.058-.714 1.485-.007 1.459-1.714 2.34-2.592-.247.108-.425.311-.593.513zm-12.392 3.353c-.361.041-.713.153-1.035.32-1.939.978-2.316 3.562-1.314 5.347.159 1.363 3.427 3.649.889 3.87-1.99-.103-3.35-1.983-4.095-3.656-.788.939 1.208 2.976 2.402 3.764 1.458.848 2.132 2.491 3.672 3.213 1.369 1.471 1.436-.489 1.506-1.709.414-1.929-1.371-2.914-2.388-4.214-1.595-2.067-.493-4.796.363-6.935zm13.737-5.483c1.365.053 3.837 1.518 5.311 3.117 2.307 1.74 2.931 4.655 3.783 7.232.315 3.241 3.376.618 4.99.633 2.475-.271 2.774 2.785 1.418 4.199-1.267 1.26-1.419 3.274-2.867 4.364-2.234.604-.662 2.849-1.696 4.295-1.334.867-2.732 2.7-3.846 3.202-1.629-1.419-2.407 1.87-4.149.729-.672-.512-1.484-1.122-2.315-1.474.066.183.129.367.177.543.174.644.352 1.299.56 2.063.157.581.186.997.335 1.546.135.497.448 1.009.448 1.547 0 .629.112.825.112.825.519-.479 2.455-1.266 2.014-.724-.112.137-.204.291-.335.412-.353.325-.484.694-.484 1.137 0 .565-.112 1.115-.112 1.547 0 .519-.11 1.143 0 1.65.035.162-.042 2.136-.042 2.136h-2c-.261 0 .353-1.601.088-1.724-.351-.161-.813-.206-1.455-.206-1.579-.06-4.629.866-6.633 1.93.045-2.56 2.034-4.425 5.178-4 1.527.19 1.724 1.421 2.238 1.658.75.345.896.254.896-.516 0-.657-.195-.819-.336-1.341-.112-.411-.308-.928-.448-1.443-.123-.454-.109-1.13-.335-1.547-.198-.364-.332-.712-.56-1.237-.243-.561-.401-.964-.56-1.547-.134-.495-.191-.807-.335-1.341-.108-.397-.202-.845-.336-1.34-.016-.06-.035-.126-.056-.196-.516.19-.998.616-1.411 1.377-.774 1.37.412 4.296-1.903 4.473-2.315-.129-5.145-3.232-5.71-5.938-.962-1.461.839-1.997 1.694-2.837l-.086-.109c-.212-.173-.839-.9-1.132-1.119-1.697-.554-3.555-.557-5.179-1.345-2.213-1.38-4.025-3.358-5.452-5.518-1.16-1.41-1.429-3.338-.922-5.061.705-2.792 4.607-4.604 6.216-4.808 2.085.23 2.558-3.233 4.67-3.185 2.276.837 4.792.904 6.806.92 1.664.022 2.242-2.65 3.761-2.979z"/></svg>