<svg fill="rgb(255,60,100)" width="100%" height="100%" viewBox="0 0 48 48" version="1.1" xmlns="http://www.w3.org/2000/svg" xmlns:xlink="http://www.w3.org/1999/xlink" xml:space="preserve" xmlns:serif="http://www.serif.com/" style="fill-rule:evenodd;clip-rule:evenodd;stroke-linejoin:round;stroke-miterlimit:2;">
    <g transform="matrix(0.0230532,0,0,0.0230532,1.86893,1.86893)">
        <path d="M213.333,960C213.333,845.892 239.366,737.833 285.548,641.098C301.057,609.867 330.653,588.012 365.066,582.379C399.478,576.746 434.498,588.025 459.155,612.682C659.5,810.327 1109.67,1260.5 1308.67,1459.5C1333.78,1484.58 1345.27,1520.23 1339.54,1555.26C1333.81,1590.29 1311.56,1620.41 1279.77,1636.2C1182.17,1680.63 1074.11,1706.67 960,1706.67C548.373,1706.67 213.333,1371.63 213.333,960M1706.67,960C1706.67,1074.11 1680.63,1182.17 1634.45,1278.9C1618.94,1310.13 1589.35,1331.99 1554.93,1337.62C1520.52,1343.25 1485.5,1331.98 1460.85,1307.32C1260.5,1109.67 810.327,659.5 611.332,460.505C586.223,435.416 574.733,399.771 580.462,364.741C586.192,329.712 608.439,299.585 640.232,283.802C737.833,239.366 845.892,213.333 960,213.333C1371.63,213.333 1706.67,548.373 1706.67,960M960,0C429.76,0 0,429.76 0,960C0,1490.24 429.76,1920 960,1920C1490.24,1920 1920,1490.24 1920,960C1920,429.76 1490.24,0 960,0"/>
    </g>
</svg>
