<svg fill="rgb(255,60,100)" clip-rule="evenodd" fill-rule="evenodd" stroke-linejoin="round" stroke-miterlimit="2" viewBox="0 0 245 210" xmlns="http://www.w3.org/2000/svg"><path d="m7.144 3.567h7.776c1.298 0 2.556.471 3.554 1.331l12.589 10.352c1.267 1.093 2 2.712 2 4.419v6.263c0 1.186-.455 2.324-1.265 3.162-.81.839-1.909 1.311-3.055 1.311h-21.599c-1.146 0-2.244-.472-3.055-1.311-.81-.838-1.265-1.976-1.265-3.162v-17.892c0-1.187.455-2.324 1.265-3.163.811-.839 1.909-1.31 3.055-1.31zm0 2.226c-.575 0-1.127.237-1.534.658-.407.422-.636.993-.636 1.589v17.892c0 .595.229 1.167.636 1.588s.959.658 1.534.658h21.599c.576 0 1.128-.237 1.535-.658s.635-.993.635-1.588v-6.263c0-1.046-.449-2.038-1.226-2.708l-12.589-10.352c-.612-.527-1.382-.816-2.178-.816zm.285 3.491c-.56 0-1.015-.448-1.015-1s.455-1 1.015-1h7.043c.56 0 1.014.448 1.014 1s-.454 1-1.014 1zm15.719-2.401c-.33-.269-.459-.726-.322-1.137.138-.412.513-.688.933-.688h6.013c.491 0 .962.202 1.309.561.347.36.542.847.542 1.356v4.712c0 .391-.216.748-.556.919s-.745.126-1.042-.116z" transform="matrix(8.10206 0 0 7.82482 -22.8811 -27.9099)"/><path d="m271.649 162.285c-.002 15.824-3.285 28.578-7.458 38.399-2.311 4.614-1.257 10.202 2.575 13.658 3.832 3.455 9.499 3.927 13.85 1.153 17.796-10.825 29.228-30.671 29.231-53.211-.006-41.243-32.763-74.797-74.008-74.797-48.867.002-88.625 39.761-88.625 88.631.007 58.39 47.517 105.899 105.912 105.905 70.303-.006 127.502-57.207 127.508-127.51 0-41.271-16.072-80.073-45.256-109.256-29.18-29.186-67.979-45.258-109.253-45.257-103.809 0-188.265 84.455-188.265 188.264 0 61.557 23.972 119.429 67.499 162.956 40.768 40.77 94.847 64.655 152.276 67.262.015.001.119-.055.298-.16 3.762-.053 6.841-3.011 7.043-6.768.202-3.758-2.542-7.029-6.277-7.484-95.19-16.208-181.839-119.667-181.839-215.805 0-82.305 66.96-149.264 149.266-149.264 30.854-.001 59.859 12.015 81.678 33.832 21.818 21.818 33.834 50.827 33.834 81.68-.002 48.801-39.707 88.506-88.506 88.512-36.893-.006-66.908-30.021-66.914-66.909 0-27.363 22.263-49.626 49.626-49.628 19.738 0 35.808 16.061 35.805 35.797z" fill-rule="nonzero" transform="matrix(.250995 0 0 .250995 69.9801 75.4967)"/></svg>