<svg fill="grey" clip-rule="evenodd" fill-rule="evenodd" stroke-linejoin="round" stroke-miterlimit="2" viewBox="0 0 48 48" xmlns="http://www.w3.org/2000/svg"><path d="m31.623 15.807c.921 1.05 1.44 2.425 1.44 3.862v7.28c0 1.909-1.494 3.456-3.338 3.456h-23.563c-.886 0-1.735-.364-2.36-1.012-.626-.648-.978-1.527-.978-2.444v-19.926c0-.917.352-1.796.978-2.444.625-.648 1.474-1.012 2.36-1.012h8.758c1.298 0 2.556.471 3.554 1.331l.194.159h9.618c1.843 0 3.337 1.548 3.337 3.456zm-2.449 1.791-12.592-10.355c-.468-.401-1.055-.621-1.662-.621h-7.301c-.489 0-.958.202-1.304.56-.346.357-.54.843-.54 1.349v16.909c0 .506.194.992.54 1.349.346.358.815.56 1.304.56h20.649c.489 0 .958-.202 1.304-.559.346-.358.54-.844.54-1.35v-5.771c0-.795-.339-1.549-.926-2.061z" transform="matrix(1.49809 0 0 1.44683 -2.88106 -.60089)"/><path d="m595.603-351.403-53.496 37.492c-7.995 5.76-16.042 5.791-24.141.031-7.729-5.497-10.694-13.12-8.495-23.015l.206-.764 21.249-66.519-56.218-48.854c-3.962-2.74-6.349-6.054-7.517-9.65-1.231-3.786-1.177-8.065.669-12.802 3.359-8.611 10.027-13.253 20.43-13.253h65.562l22.903-64.157c3.449-10.217 10.121-14.843 19.245-14.843 9.163 0 15.852 4.666 19.265 14.904l21.967 64.096h65.478c10.403 0 17.071 4.642 20.43 13.253 1.846 4.737 1.9 9.016.669 12.802-1.165 3.586-3.542 6.893-7.466 9.614l-56.329 48.942 20.342 66.573.179.683c2.244 10.244-.818 17.676-8.111 22.657-3.952 2.694-7.896 3.757-11.697 3.583-3.691-.168-7.386-1.503-10.93-4.34z" transform="matrix(.054441 0 0 .054441 -8.41973 51.8312)"/></svg>