<svg fill="rgb(255,50,50)" clip-rule="evenodd" fill-rule="evenodd" stroke-linejoin="round" stroke-miterlimit="2" viewBox="0 0 48 48" xmlns="http://www.w3.org/2000/svg"><path d="m31.623 15.807c.921 1.05 1.44 2.425 1.44 3.862v7.28c0 1.909-1.494 3.456-3.338 3.456h-23.563c-.886 0-1.735-.364-2.36-1.012-.626-.648-.978-1.527-.978-2.444v-19.926c0-.917.352-1.796.978-2.444.625-.648 1.474-1.012 2.36-1.012h8.758c1.298 0 2.556.471 3.554 1.331l.194.159h9.618c1.843 0 3.337 1.548 3.337 3.456zm-2.449 1.791-12.592-10.355c-.468-.401-1.055-.621-1.662-.621h-7.301c-.489 0-.958.202-1.304.56-.346.357-.54.843-.54 1.349v16.909c0 .506.194.992.54 1.349.346.358.815.56 1.304.56h20.649c.489 0 .958-.202 1.304-.559.346-.358.54-.844.54-1.35v-5.771c0-.795-.339-1.549-.926-2.061z" transform="matrix(1.49809 0 0 1.44683 -2.88106 -.60089)"/><path d="m439-292h320v-4c0-27.333-14.167-50-42.5-68s-67.5-27-117.5-27-89.167 9-117.5 27-42.5 40.667-42.5 68zm159.92-159c20.053 0 37.247-6.973 51.58-20.92s21.5-31.28 21.5-52c0-20.053-7.14-37.247-21.42-51.58s-31.447-21.5-51.5-21.5-37.247 7.14-51.58 21.42-21.5 31.447-21.5 51.5c0 20.72 7.14 38.08 21.42 52.08s31.447 21 51.5 21z" fill-rule="nonzero" transform="matrix(.0451256 0 0 .0451256 -3.03033 47.7478)"/></svg>