<svg fill="rgb(255,50,50)" clip-rule="evenodd" fill-rule="evenodd" stroke-linejoin="round" stroke-miterlimit="2" viewBox="0 0 48 48" xmlns="http://www.w3.org/2000/svg"><g fill-rule="nonzero"><path d="m100.298 74.498c4.355-15.094 15.775-27.128 30.621-32.266 27.894-9.452 76.122-19.67 125.207-.895 23.189 8.706 35.756 33.806 28.834 57.589-8.045 31.026-20.863 75.065-29.232 103.819-1.975 6.777-6.816 12.351-13.249 15.257-6.434 2.906-13.816 2.852-20.207-.146-19.337-10.651-47.164-21.958-70.369-19.633-20.368 2.046-43.987 7.954-62.47 13.335-6.303 1.754-13.062-.04-17.666-4.689s-6.331-11.425-4.516-17.711c9.673-33.733 24.612-85.457 33.047-114.66zm-90.12 312.394c-1.82 6.35-.041 13.188 4.645 17.845 4.685 4.657 11.534 6.395 17.873 4.536 18.293-4.67 39.8-7.574 63.154-9.53 22.325-1.863 49.853 9.04 69.318 18.707 6.239 2.81 13.39 2.778 19.603-.089 6.214-2.866 10.88-8.285 12.791-14.855 8.915-28.748 21.941-73.514 31.068-104.878 6.935-23.817-5.291-49.017-28.291-58.309-14.698-4.888-31.985-9.883-50.844-11.232-25.972-1.857-54.976 5.646-75.097 12.432-15.036 4.912-26.658 16.958-31.027 32.16-8.91 28.728-23.515 79.542-33.193 113.213z" transform="matrix(-.0827841 0 0 -.0827841 45.188 45.1926)"/><path d="m100.298 74.498c4.355-15.094 15.775-27.128 30.621-32.266 27.894-9.452 76.122-19.67 125.207-.895 23.189 8.706 35.756 33.806 28.834 57.589-8.045 31.026-20.863 75.065-29.232 103.819-1.975 6.777-6.816 12.351-13.249 15.257-6.434 2.906-13.816 2.852-20.207-.146-19.337-10.651-47.164-21.958-70.369-19.633-20.368 2.046-43.987 7.954-62.47 13.335-6.303 1.754-13.062-.04-17.666-4.689s-6.331-11.425-4.516-17.711c9.673-33.733 24.612-85.457 33.047-114.66zm-90.12 312.394c-1.82 6.35-.041 13.188 4.645 17.845 4.685 4.657 11.534 6.395 17.873 4.536 18.293-4.67 39.8-7.574 63.154-9.53 22.325-1.863 49.853 9.04 69.318 18.707 6.239 2.81 13.39 2.778 19.603-.089 6.214-2.866 10.88-8.285 12.791-14.855 8.915-28.748 21.941-73.514 31.068-104.878 6.935-23.817-5.291-49.017-28.291-58.309-14.698-4.888-31.985-9.883-50.844-11.232-25.972-1.857-54.976 5.646-75.097 12.432-15.036 4.912-26.658 16.958-31.027 32.16-8.91 28.728-23.515 79.542-33.193 113.213z" transform="matrix(.0827841 0 0 .0827841 2.81201 2.80742)"/></g></svg>