<svg viewBox="0 0 22 22" xmlns="http://www.w3.org/2000/svg">
  <defs>
    <style type="text/css" id="current-color-scheme">.ColorScheme-Highlight { color:#000000; }</style>
  </defs><path class="ColorScheme-Highlight" fill="currentColor" d="m14.5 3v6c0 .276-.224.5-.5.5h-6c-.276 0-.5-.224-.5-.5v-6c0-.276.224-.5.5-.5h6c.276 0 .5.224.5.5zm-5 10v6c0 .276-.224.5-.5.5h-6c-.276 0-.5-.224-.5-.5v-6c0-.276.224-.5.5-.5h6c.276 0 .5.224.5.5zm10 0v6c0 .276-.224.5-.5.5h-6c-.276 0-.5-.224-.5-.5v-6c0-.276.224-.5.5-.5h6c.276 0 .5.224.5.5z"/></svg>