<svg viewBox="0 0 22 22" xmlns="http://www.w3.org/2000/svg">
  <defs>
    <style type="text/css" id="current-color-scheme">.ColorScheme-Highlight { color:#000000; }</style>
  </defs><path class="ColorScheme-Highlight" fill="currentColor" d="m14.5 3v3c0 .276-.224.5-.5.5h-1c-.276 0-.5-.224-.5-.5v-1.5h-3v8h.5c.276 0 .5.224.5.5v1c0 .276-.224.5-.5.5h-3c-.276 0-.5-.224-.5-.5v-1c0-.276.224-.5.5-.5h.5v-8h-3v1.5c0 .276-.224.5-.5.5h-1c-.276 0-.5-.224-.5-.5v-3c0-.276.224-.5.5-.5h11c.276 0 .5.224.5.5zm3 11v1.5h1.5c.276 0 .5.224.5.5v1c0 .276-.224.5-.5.5h-1.5v1.5c0 .276-.224.5-.5.5h-1c-.276 0-.5-.224-.5-.5v-1.5h-1.5c-.276 0-.5-.224-.5-.5v-1c0-.276.224-.5.5-.5h1.5v-1.5c0-.276.224-.5.5-.5h1c.276 0 .5.224.5.5z"/></svg>