<svg fill="rgb(50,175,200)" clip-rule="evenodd" fill-rule="evenodd" stroke-linejoin="round" stroke-miterlimit="2" viewBox="0 0 245 210" xmlns="http://www.w3.org/2000/svg"><path d="m7.144 3.567h7.736c1.259 0 2.481.443 3.465 1.256l12.629 10.436c1.32 1.091 2.089 2.745 2.089 4.495v6.178c0 1.186-.455 2.324-1.265 3.162-.81.839-1.909 1.311-3.055 1.311h-21.599c-2.386 0-4.32-2.003-4.32-4.473v-17.892c0-2.471 1.934-4.473 4.32-4.473zm0 2.226c-1.198 0-2.17 1.006-2.17 2.247v17.892c0 1.24.972 2.246 2.17 2.246h21.599c.576 0 1.128-.237 1.535-.658s.635-.993.635-1.588v-6.178c0-1.072-.471-2.086-1.28-2.755l-12.629-10.436c-.603-.498-1.352-.77-2.124-.77z" transform="matrix(8.10206 0 0 7.82482 -22.8811 -27.9099)"/><path d="m7.144 3.567h7.776c1.298 0 2.556.471 3.554 1.331l12.589 10.352c1.267 1.093 2 2.712 2 4.419v6.263c0 1.186-.455 2.324-1.265 3.162-.81.839-1.909 1.311-3.055 1.311h-21.599c-1.146 0-2.244-.472-3.055-1.311-.81-.838-1.265-1.976-1.265-3.162v-17.892c0-1.187.455-2.324 1.265-3.163.811-.839 1.909-1.31 3.055-1.31zm.285 5.717h7.043c.56 0 1.014-.448 1.014-1s-.454-1-1.014-1h-7.043c-.56 0-1.015.448-1.015 1s.455 1 1.015 1z" transform="matrix(8.10206 0 0 7.82482 -22.8811 -27.9099)"/><path d="m23.559 6.614c-.301-.251-.419-.677-.293-1.061.125-.384.466-.642.849-.642h5.475c.447 0 .876.189 1.192.524s.494.79.494 1.264v4.395c0 .365-.197.698-.507.858-.309.159-.678.117-.948-.109-1.661-1.387-4.39-3.665-6.262-5.229z" transform="matrix(8.89795 0 0 8.38938 -44.9582 -29.5368)"/></svg>