<?xml version="1.0" encoding="UTF-8" standalone="no"?>
<!DOCTYPE svg PUBLIC "-//W3C//DTD SVG 1.1//EN" "http://www.w3.org/Graphics/SVG/1.1/DTD/svg11.dtd">
<svg width="100%" height="100%" viewBox="0 0 245 210" version="1.1" xmlns="http://www.w3.org/2000/svg" xmlns:xlink="http://www.w3.org/1999/xlink" xml:space="preserve" xmlns:serif="http://www.serif.com/" style="fill-rule:evenodd;clip-rule:evenodd;stroke-linejoin:round;stroke-miterlimit:2;">
    <g transform="matrix(8.10206,0,0,7.82482,-22.8811,-27.9099)">
        <path d="M7.144,3.567L14.92,3.567C16.218,3.567 17.476,4.038 18.474,4.898L31.063,15.25C32.33,16.343 33.063,17.962 33.063,19.669L33.063,25.932C33.063,27.118 32.608,28.256 31.798,29.094C30.988,29.933 29.889,30.405 28.743,30.405L7.144,30.405C5.998,30.405 4.9,29.933 4.089,29.094C3.279,28.256 2.824,27.118 2.824,25.932L2.824,8.04C2.824,6.853 3.279,5.716 4.089,4.877C4.9,4.038 5.998,3.567 7.144,3.567ZM7.144,5.793C6.569,5.793 6.017,6.03 5.61,6.451C5.203,6.873 4.974,7.444 4.974,8.04L4.974,25.932C4.974,26.527 5.203,27.099 5.61,27.52C6.017,27.941 6.569,28.178 7.144,28.178L28.743,28.178C29.319,28.178 29.871,27.941 30.278,27.52C30.685,27.099 30.913,26.527 30.913,25.932L30.913,19.669C30.913,18.623 30.464,17.631 29.687,16.961L17.098,6.609C16.486,6.082 15.716,5.793 14.92,5.793L7.144,5.793ZM7.429,9.284C6.869,9.284 6.414,8.836 6.414,8.284C6.414,7.732 6.869,7.284 7.429,7.284L14.472,7.284C15.032,7.284 15.486,7.732 15.486,8.284C15.486,8.836 15.032,9.284 14.472,9.284L7.429,9.284ZM23.148,6.883C22.818,6.614 22.689,6.157 22.826,5.746C22.964,5.334 23.339,5.058 23.759,5.058L29.772,5.058C30.263,5.058 30.734,5.26 31.081,5.619C31.428,5.979 31.623,6.466 31.623,6.975L31.623,11.687C31.623,12.078 31.407,12.435 31.067,12.606C30.727,12.777 30.322,12.732 30.025,12.49L23.148,6.883Z"/>
    </g>
    <g transform="matrix(3.12942,0,0,3.12942,-1054.16,-1533.72)">
        <path d="M388,522.214C390.643,522.214 392.786,524.357 392.786,527L392.786,543C392.786,545.643 390.643,547.786 388,547.786L364,547.786C361.357,547.786 359.214,545.643 359.214,543L359.214,527C359.214,524.357 361.357,522.214 364,522.214L370.726,522.214L364.036,517.612C363.24,517.063 363,515.934 363.516,515.087C364.056,514.199 365.179,513.959 366.012,514.533L376.02,521.363C378.056,520.011 385.985,514.535 385.985,514.535L385.986,514.534C386.824,513.959 387.944,514.199 388.484,515.087C389,515.934 388.76,517.063 387.964,517.612L381.274,522.214L388,522.214ZM389.214,543L389.214,527C389.214,526.33 388.67,525.786 388,525.786L364,525.786C363.33,525.786 362.786,526.33 362.786,527L362.786,543C362.786,543.67 363.33,544.214 364,544.214L388,544.214C388.67,544.214 389.214,543.67 389.214,543ZM383.881,528.021C385.191,528.021 386.254,529.084 386.254,530.394L386.254,539.912C386.254,541.222 385.191,542.284 383.881,542.284L368.119,542.284C366.809,542.284 365.746,541.222 365.746,539.912L365.746,530.394C365.746,529.084 366.809,528.021 368.119,528.021L383.881,528.021ZM383.096,539.119L383.096,531.187C383.096,531.183 383.092,531.179 383.088,531.179L368.912,531.179C368.908,531.179 368.904,531.183 368.904,531.187L368.904,539.119C368.904,539.123 368.908,539.126 368.912,539.126L383.088,539.126C383.092,539.126 383.095,539.123 383.096,539.119Z"/>
    </g>
</svg>
