<?xml version="1.0" encoding="utf-8"?>
<svg xmlns="http://www.w3.org/2000/svg" height="48" viewBox="0 -960 960 960" width="48">
  <path fill="rgb(255, 60, 110)" d="M 229 -55 C 202.967 -55 180.793 -64.157 162.48 -82.47 C 144.16 -100.79 135 -122.967 135 -149 L 135 -811 C 135 -837.307 144.16 -859.717 162.48 -878.23 C 180.793 -896.743 202.967 -906 229 -906 L 552 -906 C 565.04 -906 577.467 -903.333 589.28 -898 C 601.093 -892.667 611.333 -885.667 620 -877 L 797 -700 C 805.667 -691.333 812.667 -681.093 818 -669.28 C 823.333 -657.467 826 -645.04 826 -632 L 826 -149 C 826 -122.967 816.743 -100.79 798.23 -82.47 C 779.717 -64.157 757.307 -55 731 -55 Z M 542 -672 L 542 -811 L 229 -811 L 229 -149 L 731 -149 L 731 -625 L 589 -625 C 575.833 -625 564.71 -629.543 555.63 -638.63 C 546.543 -647.71 542 -658.833 542 -672 Z M 538.572 -415.39 C 538.77 -420.225 540.87 -425.471 544.139 -429.206 C 547.759 -432.714 553.104 -435.24 558.18 -435.24 C 563.22 -435.24 568.744 -432.925 572.35 -429.318 C 575.943 -425.724 578.043 -420.28 578.264 -415.39 L 578.264 -387.534 L 581.242 -390.513 C 584.917 -394.008 590.222 -396.5 595.172 -396.5 C 600.068 -396.5 605.817 -393.786 609.82 -390.4 C 613.209 -386.435 615.563 -381.03 615.563 -376.37 C 615.563 -371.53 613.124 -366.37 609.65 -362.731 L 578.098 -331.171 C 572.731 -326.079 565.473 -322.87 558.285 -322.87 C 551.097 -322.87 543.724 -326.122 538.241 -331.191 L 507.472 -362.465 C 503.609 -366.106 500.795 -371.433 500.795 -376.37 C 500.795 -381.122 503.42 -386.585 507.171 -390.56 C 510.759 -394.016 515.878 -396.337 520.693 -396.689 C 525.448 -396.587 531.041 -394.327 535.053 -391.066 L 538.572 -387.542 Z M 321.479 -203.78 C 307.972 -203.99 295.403 -209.214 285.758 -218.502 C 276.406 -228.204 271.234 -240.763 271.027 -254.24 L 271.027 -494.3 C 271.231 -507.849 276.393 -520.487 285.737 -530.267 C 295.409 -539.799 307.974 -545.011 321.479 -545.22 L 638.042 -545.22 C 651.663 -545.015 664.324 -539.813 674.087 -530.288 C 683.534 -520.508 688.762 -507.861 688.971 -494.3 L 688.971 -254.24 C 688.759 -240.752 683.496 -228.158 674.042 -218.457 C 664.304 -209.175 651.665 -203.986 638.042 -203.78 Z M 326.979 -259.74 L 632.542 -259.74 L 632.542 -488.8 L 326.979 -488.8 Z M 384.36 -331.32 C 384.172 -326.792 382.186 -321.914 379.371 -318.699 C 376.234 -315.909 371.455 -313.77 366.963 -313.77 C 362.469 -313.77 357.605 -315.973 354.446 -318.752 C 351.567 -321.979 349.643 -326.783 349.452 -331.32 L 349.452 -410.51 C 349.714 -416.181 352.592 -422.519 357.293 -427.404 C 362.164 -432.05 368.403 -434.959 374.079 -435.24 L 461.589 -435.24 C 467.257 -434.959 473.495 -432.051 478.375 -427.404 C 483.065 -422.525 485.952 -416.185 486.216 -410.51 L 486.216 -331.24 C 486.028 -326.792 484.041 -321.913 481.226 -318.698 C 478.089 -315.909 473.31 -313.77 468.819 -313.77 C 464.324 -313.77 459.461 -315.972 456.303 -318.751 C 453.422 -321.98 451.499 -326.784 451.308 -331.24 L 451.308 -400.31 L 433.616 -400.31 L 433.616 -358.49 C 433.415 -354.299 431.574 -349.686 428.828 -346.441 C 425.588 -343.28 420.715 -341.02 416.217 -341.02 C 411.715 -341.02 406.844 -343.26 403.581 -346.408 C 400.774 -349.668 398.909 -354.293 398.706 -358.49 L 398.706 -400.31 L 384.36 -400.31 Z"/>
</svg>