<?xml version="1.0" encoding="utf-8"?>
<svg xmlns="http://www.w3.org/2000/svg" height="48" viewBox="0 -960 960 960" width="48">
  <path d="M 54.5 -529.5 L 54.5 -710.5 C 54.5 -736.81 63.657 -759.22 81.97 -777.73 C 100.29 -796.24 122.467 -805.5 148.5 -805.5 L 810.5 -805.5 C 836.807 -805.5 859.217 -796.24 877.73 -777.73 C 896.243 -759.22 905.5 -736.81 905.5 -710.5 L 905.5 -529.5 L 810.5 -529.5 L 810.5 -710.5 L 148.5 -710.5 L 148.5 -529.5 L 54.5 -529.5 Z M 148.5 -154.5 C 122.467 -154.5 100.29 -163.66 81.97 -181.98 C 63.657 -200.29 54.5 -222.47 54.5 -248.5 L 54.5 -469.5 L 148.5 -469.5 L 148.5 -248.5 L 810.5 -248.5 L 810.5 -469.5 L 905.5 -469.5 L 905.5 -248.5 C 905.5 -222.47 896.243 -200.29 877.73 -181.98 C 859.217 -163.66 836.807 -154.5 810.5 -154.5 L 148.5 -154.5 Z M 479.5 -479.5 Z M 54.5 -469.5 L 54.5 -529.5 L 319.89 -529.5 C 325.07 -529.5 330.133 -528.17 335.08 -525.5 C 340.027 -522.83 343.833 -518.83 346.5 -513.5 L 401.78 -400.5 L 531.5 -631.5 C 533.5 -636.83 537.167 -640.67 542.5 -643 C 547.833 -645.33 553.373 -646.5 559.12 -646.5 C 564.867 -646.5 570.2 -645.42 575.12 -643.25 C 580.04 -641.08 583.833 -637.5 586.5 -632.5 L 637.05 -529.5 L 905.5 -529.5 L 905.5 -469.5 L 629.5 -469.5 C 620.28 -469.5 611.933 -471.83 604.46 -476.5 C 596.987 -481.17 591.333 -487.5 587.5 -495.5 L 557.5 -553.5 L 427.5 -327.5 C 425.02 -321.5 421.297 -317 416.33 -314 C 411.363 -311 406.15 -309.5 400.69 -309.5 C 394.563 -309.5 389 -310.83 384 -313.5 C 379 -316.17 375.167 -320.17 372.5 -325.5 L 300.5 -469.5 L 54.5 -469.5 Z"/>
</svg>