<?xml version="1.0" encoding="utf-8"?>
<svg clip-rule="evenodd" fill-rule="evenodd" stroke-linejoin="round" stroke-miterlimit="2" viewBox="0 0 48 48" xmlns="http://www.w3.org/2000/svg">
  <path d="M 18.812 6.476 L 22.687 2.6 C 22.889 2.399 23.092 2.255 23.298 2.166 C 23.504 2.079 23.728 2.035 23.967 2.035 C 24.208 2.035 24.43 2.079 24.637 2.166 C 24.843 2.255 25.047 2.399 25.247 2.6 L 29.123 6.476 C 29.475 6.827 29.65 7.241 29.65 7.718 C 29.65 8.194 29.475 8.609 29.123 8.959 C 28.747 9.336 28.34 9.524 27.9 9.524 C 27.461 9.524 27.066 9.361 26.714 9.035 L 25.736 8.094 L 25.736 12.234 C 25.736 12.73 25.567 13.148 25.228 13.49 C 24.89 13.832 24.472 14.003 23.975 14.003 C 23.477 14.003 23.057 13.832 22.714 13.49 C 22.37 13.148 22.199 12.73 22.199 12.234 L 22.199 8.094 L 21.22 9.073 C 20.869 9.374 20.48 9.53 20.053 9.543 C 19.627 9.556 19.251 9.399 18.925 9.073 C 18.523 8.671 18.316 8.225 18.304 7.737 C 18.291 7.247 18.461 6.827 18.812 6.476 Z M 34.595 5.938 C 34.853 5.841 35.134 5.793 35.439 5.793 L 37.647 5.793 C 38.906 5.793 39.964 6.218 40.822 7.066 C 41.68 7.914 42.109 8.962 42.109 10.209 L 42.109 37.741 C 42.109 38.988 41.68 40.035 40.822 40.884 C 39.964 41.733 38.906 42.157 37.647 42.157 L 35.439 42.157 C 35.134 42.157 34.853 42.109 34.595 42.012 C 34.329 41.912 34.088 41.761 33.871 41.558 C 33.444 41.159 33.231 40.644 33.231 40.015 C 33.231 39.387 33.434 38.859 33.839 38.43 C 34.245 38.002 34.762 37.788 35.392 37.788 L 37.694 37.788 L 37.694 26.181 L 10.259 26.181 L 10.259 37.788 L 12.514 37.788 C 13.14 37.788 13.664 37.988 14.087 38.387 C 14.511 38.787 14.722 39.3 14.722 39.929 C 14.722 40.558 14.511 41.086 14.087 41.514 C 13.865 41.739 13.615 41.905 13.337 42.012 C 13.086 42.109 12.811 42.157 12.514 42.157 L 10.306 42.157 C 9.06 42.157 8.012 41.733 7.164 40.884 C 6.315 40.035 5.891 38.988 5.891 37.741 L 5.891 10.209 C 5.891 8.962 6.315 7.914 7.164 7.066 C 8.012 6.218 9.06 5.793 10.306 5.793 L 12.514 5.793 C 12.811 5.793 13.086 5.841 13.337 5.938 C 13.615 6.045 13.865 6.211 14.087 6.436 C 14.511 6.864 14.722 7.392 14.722 8.021 C 14.722 8.649 14.511 9.163 14.087 9.562 C 13.664 9.963 13.14 10.162 12.514 10.162 L 10.259 10.162 L 10.259 21.765 L 37.694 21.765 L 37.694 10.162 L 35.392 10.162 C 34.762 10.162 34.245 9.948 33.839 9.519 C 33.434 9.091 33.231 8.563 33.231 7.934 C 33.231 7.306 33.444 6.792 33.871 6.392 C 34.088 6.19 34.329 6.038 34.595 5.938 Z M 18.812 41.474 C 18.461 41.123 18.291 40.703 18.304 40.214 C 18.316 39.724 18.523 39.279 18.925 38.878 C 19.251 38.552 19.627 38.395 20.053 38.407 C 20.48 38.419 20.869 38.576 21.22 38.878 L 22.199 39.856 L 22.199 35.716 C 22.199 35.221 22.37 34.802 22.714 34.46 C 23.057 34.118 23.477 33.947 23.975 33.947 C 24.472 33.947 24.89 34.118 25.228 34.46 C 25.567 34.802 25.736 35.221 25.736 35.716 L 25.736 39.856 L 26.714 38.915 C 27.066 38.589 27.461 38.426 27.9 38.426 C 28.34 38.426 28.747 38.614 29.123 38.99 C 29.475 39.342 29.65 39.755 29.65 40.232 C 29.65 40.709 29.475 41.123 29.123 41.474 L 25.247 45.351 C 25.047 45.551 24.843 45.696 24.637 45.783 C 24.43 45.871 24.208 45.915 23.967 45.915 C 23.728 45.915 23.504 45.871 23.298 45.783 C 23.092 45.696 22.889 45.551 22.687 45.351 L 18.812 41.474 Z" style=""/>
</svg>