<?xml version="1.0" encoding="utf-8"?>
<svg xmlns="http://www.w3.org/2000/svg" height="48" viewBox="0 -960 960 960" width="48">
  <path d="M 363.252 -199.16 C 354.531 -199.16 347.201 -202.16 341.261 -208.16 C 335.321 -214.15 332.35 -221.5 332.35 -230.19 L 332.35 -729.14 C 332.35 -737.8 335.36 -745.23 341.38 -751.46 C 347.394 -757.7 354.764 -760.84 363.49 -760.84 C 372.21 -760.84 379.541 -757.7 385.481 -751.46 C 391.421 -745.23 394.391 -737.8 394.391 -729.14 L 394.391 -230.19 C 394.391 -221.5 391.382 -214.15 385.363 -208.16 C 379.347 -202.16 371.977 -199.16 363.252 -199.16 Z M 103.486 -393.28 C 99.276 -393.47 93.036 -394.46 89.17 -396.03 C 85.272 -397.62 80.091 -401.33 76.986 -404.13 C 74.106 -407.29 70.324 -412.54 68.728 -416.46 C 67.147 -420.35 66.171 -426.59 65.985 -430.78 L 65.985 -552.88 C 66.173 -557.08 67.157 -563.33 68.743 -567.21 C 70.341 -571.12 74.188 -576.42 76.981 -579.51 C 80.089 -582.33 85.259 -586.03 89.16 -587.62 C 93.031 -589.2 99.276 -590.19 103.486 -590.38 L 225.594 -590.38 C 229.804 -590.19 236.049 -589.2 239.92 -587.62 C 243.821 -586.03 249.148 -582.17 252.256 -579.36 C 255.048 -576.27 258.74 -571.11 260.337 -567.21 C 261.924 -563.33 262.907 -557.08 263.095 -552.88 L 263.095 -430.78 C 262.909 -426.59 261.934 -420.35 260.352 -416.46 C 258.758 -412.54 254.956 -407.27 252.077 -404.12 C 248.971 -401.32 243.807 -397.62 239.909 -396.03 C 236.043 -394.46 229.804 -393.47 225.594 -393.28 Z M 164.54 -541.771 C 136.958 -541.771 114.599 -519.412 114.599 -491.83 C 114.599 -464.248 136.958 -441.889 164.54 -441.889 C 192.122 -441.889 214.481 -464.248 214.481 -491.83 C 214.481 -519.412 192.122 -541.771 164.54 -541.771 Z M 504.612 -531.82 C 492.326 -531.82 481.885 -536.12 473.288 -544.73 C 464.69 -553.34 460.392 -563.8 460.392 -576.12 C 460.392 -588.41 464.69 -598.85 473.288 -607.4 C 481.885 -615.97 492.326 -620.26 504.612 -620.26 L 849.134 -620.26 C 861.601 -620.26 872.192 -615.95 880.927 -607.33 C 889.652 -598.71 894.015 -588.26 894.015 -575.95 C 894.015 -563.64 889.652 -553.21 880.927 -544.65 C 872.192 -536.1 861.601 -531.82 849.134 -531.82 Z M 504.612 -339.09 C 492.326 -339.09 481.885 -343.39 473.288 -352.01 C 464.69 -360.62 460.392 -371.08 460.392 -383.38 C 460.392 -395.69 464.69 -406.12 473.288 -414.69 C 481.885 -423.24 492.326 -427.52 504.612 -427.52 L 690.734 -427.52 C 703.198 -427.52 713.796 -423.22 722.526 -414.6 C 731.251 -406 735.614 -395.55 735.614 -383.23 C 735.614 -370.93 731.251 -360.5 722.526 -351.93 C 713.796 -343.38 703.198 -339.09 690.734 -339.09 Z" style=""/>
</svg>