<?xml version="1.0" encoding="utf-8"?>
<svg xmlns="http://www.w3.org/2000/svg" height="48" viewBox="0 -960 960 960" width="48">
  <path d="M 552.839 -865.1 C 557.036 -864.91 563.274 -863.9 567.152 -862.29 C 571.031 -860.7 576.209 -857.09 579.327 -854.1 C 582.206 -851.1 585.985 -845.71 587.584 -841.9 C 589.164 -837.92 590.123 -831.72 590.323 -827.5 L 590.323 -705.56 C 590.123 -701.36 589.143 -695.18 587.565 -691.17 C 585.965 -687.36 582.127 -681.96 579.327 -678.97 C 576.229 -675.98 571.051 -672.38 567.152 -670.77 C 563.274 -669.19 557.036 -668.17 552.839 -667.98 L 430.767 -667.98 C 426.568 -668.17 420.331 -669.19 416.452 -670.77 C 412.553 -672.38 407.236 -676.17 404.116 -678.97 C 401.337 -682.18 397.639 -687.36 396.04 -691.17 C 394.461 -695.18 393.481 -701.36 393.281 -705.56 L 393.281 -827.5 C 393.481 -831.72 394.44 -837.92 396.02 -841.9 C 397.619 -845.71 401.418 -851.1 404.296 -854.31 C 407.395 -857.09 412.574 -860.7 416.472 -862.29 C 420.331 -863.9 426.568 -864.91 430.767 -865.1 Z M 491.802 -716.57 C 519.372 -716.57 541.723 -738.94 541.723 -766.54 C 541.723 -794.14 519.372 -816.53 491.802 -816.53 C 464.234 -816.53 441.881 -794.14 441.881 -766.54 C 441.881 -738.94 464.234 -716.57 491.802 -716.57 Z M 199.162 -567.82 C 199.162 -576.55 202.162 -583.87 208.162 -589.81 C 214.152 -595.75 221.502 -598.73 230.192 -598.73 L 729.142 -598.73 C 737.802 -598.73 745.232 -595.71 751.462 -589.69 C 757.702 -583.69 760.842 -576.31 760.842 -567.58 C 760.842 -558.87 757.702 -551.54 751.462 -545.6 C 745.232 -539.65 737.802 -536.69 729.142 -536.69 L 230.192 -536.69 C 221.502 -536.69 214.152 -539.69 208.162 -545.71 C 202.162 -551.73 199.162 -559.1 199.162 -567.82 Z M 620.246 -298.18 C 620.246 -285.72 615.966 -275.12 607.406 -266.39 C 598.846 -257.67 588.406 -253.3 576.116 -253.3 C 563.786 -253.3 553.346 -257.67 544.736 -266.39 C 536.116 -275.12 531.826 -285.72 531.826 -298.18 L 531.826 -428.26 C 531.826 -440.55 536.106 -450.99 544.646 -459.59 C 553.226 -468.19 563.646 -472.49 575.966 -472.49 C 588.256 -472.49 598.726 -468.19 607.336 -459.59 C 615.956 -450.99 620.246 -440.55 620.246 -428.26 Z M 427.517 -139.782 C 427.517 -127.322 423.237 -116.732 414.707 -107.992 C 406.127 -99.272 395.717 -94.902 383.387 -94.902 C 371.097 -94.902 360.627 -99.272 352.007 -107.992 C 343.387 -116.732 339.097 -127.322 339.097 -139.782 L 339.097 -428.272 C 339.097 -440.552 343.367 -450.992 351.957 -459.592 C 360.487 -468.192 370.947 -472.49 383.237 -472.49 C 395.537 -472.49 405.997 -468.192 414.617 -459.592 C 423.237 -450.992 427.517 -440.552 427.517 -428.272 Z" style=""/>
</svg>