<?xml version="1.0" encoding="utf-8"?>
<svg xmlns="http://www.w3.org/2000/svg" height="48" viewBox="0 -960 960 960" width="48">
  <path d="M 489.52 -167.83 C 477.25 -167.83 466.8 -172.11 458.21 -180.73 C 449.61 -189.35 445.31 -199.81 445.31 -212.11 C 445.31 -224.4 449.61 -234.86 458.21 -243.39 C 466.8 -251.98 477.25 -256.25 489.52 -256.25 L 778.01 -256.25 C 790.48 -256.25 801.07 -251.96 809.81 -243.34 C 818.53 -234.72 822.9 -224.25 822.9 -211.96 C 822.9 -199.63 818.53 -189.22 809.81 -180.64 C 801.07 -172.11 790.48 -167.83 778.01 -167.83 L 489.52 -167.83 Z M 284.96 -342.22 C 284.96 -354.64 289.24 -365.25 297.76 -374.03 C 306.34 -382.63 316.76 -387.04 329.08 -387.04 C 341.38 -387.04 351.84 -382.63 360.46 -374.03 C 369.08 -365.25 373.38 -354.64 373.38 -342.22 L 373.38 -212.05 C 373.38 -199.64 369.1 -189.44 360.52 -180.84 C 351.98 -172.04 341.52 -167.83 329.24 -167.83 C 316.94 -167.83 306.48 -172.04 297.86 -180.84 C 289.24 -189.44 284.96 -199.64 284.96 -212.05 L 284.96 -342.22 Z M 311.66 -593.06 C 324.06 -593.06 334.66 -588.77 343.47 -580.26 C 352.06 -571.68 356.43 -561.25 356.43 -548.94 C 356.43 -536.63 352.06 -526.18 343.47 -517.55 C 334.66 -508.93 324.06 -504.64 311.66 -504.64 L 181.31 -504.64 C 169.06 -504.64 158.72 -508.92 150.09 -517.5 C 141.47 -526.04 137.1 -536.49 137.1 -548.77 C 137.1 -561.08 141.47 -571.53 150.09 -580.16 C 158.72 -588.77 169.06 -593.06 181.31 -593.06 L 311.66 -593.06 Z M 598.31 -365.42 C 586.06 -365.42 575.72 -369.7 567.09 -378.32 C 558.47 -386.94 554.1 -397.4 554.1 -409.7 C 554.1 -421.98 558.47 -432.44 567.09 -440.98 C 575.72 -449.56 586.06 -453.84 598.31 -453.84 L 728.65 -453.84 C 741.05 -453.84 751.65 -449.54 760.46 -440.92 C 769.05 -432.3 773.42 -421.84 773.42 -409.54 C 773.42 -397.22 769.05 -386.8 760.46 -378.22 C 751.65 -369.7 741.05 -365.42 728.65 -365.42 L 598.31 -365.42 Z M 410.7 -747.29 C 410.7 -759.75 414.98 -770.35 423.54 -779.08 C 432.1 -787.8 442.54 -792.17 454.83 -792.17 C 467.16 -792.17 477.6 -787.8 486.21 -779.08 C 494.83 -770.35 499.12 -759.75 499.12 -747.29 L 499.12 -478.75 C 499.12 -466.46 494.84 -456.02 486.3 -447.42 C 477.72 -438.82 467.3 -434.52 454.98 -434.52 C 442.69 -434.52 432.22 -438.82 423.61 -447.42 C 414.99 -456.02 410.7 -466.46 410.7 -478.75 L 410.7 -747.29 Z" style=""/>
</svg>