<?xml version="1.0" encoding="utf-8"?>
<svg xmlns="http://www.w3.org/2000/svg" height="48" viewBox="0 -960 960 960" width="48">
  <path d="M 186.481 -480.25 C 186.481 -462.46 179.991 -447.2 167.511 -434.46 C 154.821 -421.73 139.211 -415.37 121.001 -415.37 C 102.761 -415.37 87.181 -421.87 74.701 -434.87 C 62.221 -447.85 56.241 -463.32 56.241 -481.31 C 56.241 -499.25 62.471 -514.72 74.931 -527.63 C 87.661 -540.6 103.241 -547.06 121.481 -547.06 C 139.931 -547.06 155.301 -540.51 167.761 -527.34 C 180.241 -514.17 186.481 -498.46 186.481 -480.25 Z M 479.902 -254.83 C 479.802 -254.83 479.729 -254.83 479.662 -254.83 C 416.951 -254.83 363.603 -276.36 319.7 -320.15 C 289.573 -349.9 269.809 -384.09 260.337 -423.08 C 255.997 -440.83 253.804 -459.64 253.804 -479.15 L 253.804 -479.82 C 253.804 -530.59 268.266 -575.05 297.191 -613.38 C 303.999 -622.45 311.613 -631.18 320.032 -639.57 C 356.67 -676.07 399.815 -697.28 449.505 -703.35 C 459.381 -704.56 469.513 -705.17 479.902 -705.17 C 479.944 -705.17 479.986 -705.17 480.028 -705.17 C 480.07 -705.17 480.112 -705.17 480.154 -705.17 C 494.454 -705.17 508.267 -704.02 521.592 -701.72 C 566.661 -693.99 606.142 -673.26 640.038 -639.51 C 651.887 -627.71 662.14 -615.24 670.795 -602.09 C 694.412 -566.37 706.225 -525.66 706.225 -479.81 L 706.225 -479.21 C 706.225 -459.61 704.024 -440.8 699.687 -423.22 C 690.208 -384.2 670.448 -350.02 640.334 -320.21 C 596.438 -276.42 543.086 -254.83 480.394 -254.83 C 480.315 -254.83 480.255 -254.83 480.154 -254.83 C 480.138 -254.83 480.123 -254.83 480.108 -254.83 C 480.052 -254.83 479.992 -254.83 479.933 -254.83 C 479.923 -254.83 479.912 -254.83 479.902 -254.83 Z M 572.967 -385.99 C 576.84 -389.85 580.416 -393.84 583.697 -397.96 C 593.294 -410.08 600.365 -423.32 604.912 -437.71 C 608.949 -450.55 610.967 -464.31 610.967 -478.99 C 610.967 -515.78 598.36 -546.84 573.147 -572.17 C 563.904 -581.45 553.885 -589.04 543.089 -594.92 C 528.283 -602.96 512.03 -607.83 494.332 -609.51 C 489.703 -609.95 484.975 -610.17 480.147 -610.17 C 449.041 -610.17 422.03 -601.15 399.114 -583.13 C 394.904 -579.79 390.834 -576.15 386.905 -572.19 C 361.71 -546.78 349.09 -515.79 349.09 -478.99 C 349.09 -442.22 361.77 -411.2 387.086 -386.01 C 412.423 -360.81 443.479 -348.22 480.255 -348.22 C 485.685 -348.22 490.988 -348.49 496.166 -349.04 C 525.884 -352.3 551.485 -364.61 572.967 -385.99 Z M 792.252 -527.39 C 804.712 -540.61 820.071 -547.18 838.529 -547.18 C 856.765 -547.18 872.342 -540.61 885.061 -527.58 C 897.521 -514.78 903.759 -499.19 903.759 -481.39 C 903.759 -463.4 897.78 -447.81 885.302 -434.82 C 872.823 -422.01 857.245 -415.41 839.006 -415.41 C 820.789 -415.41 805.193 -421.8 792.493 -434.6 C 780.014 -447.21 773.536 -462.39 773.536 -480.19 C 773.536 -498.4 779.776 -514.21 792.252 -527.39 Z" style="stroke-width: 0.05;"/>
</svg>