<?xml version="1.0" encoding="utf-8"?>
<svg xmlns="http://www.w3.org/2000/svg" height="48" viewBox="0 -960 960 960" width="48">
  <path d="M 760.84 -392.18 C 760.84 -383.45 757.84 -376.13 751.84 -370.19 C 745.85 -364.25 738.5 -361.27 729.81 -361.27 L 230.86 -361.27 C 222.2 -361.27 214.77 -364.29 208.54 -370.31 C 202.3 -376.31 199.16 -383.69 199.16 -392.42 C 199.16 -401.13 202.3 -408.46 208.54 -414.4 C 214.77 -420.35 222.2 -423.31 230.86 -423.31 L 729.81 -423.31 C 738.5 -423.31 745.85 -420.31 751.84 -414.29 C 757.84 -408.27 760.84 -400.9 760.84 -392.18 Z M 620.905 -531.74 C 620.905 -519.45 616.615 -509.01 607.995 -500.41 C 599.385 -491.81 588.915 -487.51 576.625 -487.51 C 564.305 -487.51 553.885 -491.81 545.305 -500.41 C 536.765 -509.01 532.485 -519.45 532.485 -531.74 L 532.485 -661.82 C 532.485 -674.28 536.775 -684.88 545.395 -693.61 C 554.005 -702.33 564.445 -706.7 576.775 -706.7 C 589.065 -706.7 599.505 -702.33 608.065 -693.61 C 616.625 -684.88 620.905 -674.28 620.905 -661.82 L 620.905 -531.74 Z M 428.171 -531.73 C 428.171 -519.45 423.891 -509.01 415.271 -500.41 C 406.651 -491.81 396.191 -487.51 383.891 -487.51 C 371.601 -487.51 361.141 -491.81 352.611 -500.41 C 344.021 -509.01 339.751 -519.45 339.751 -531.73 L 339.751 -820.22 C 339.751 -832.68 344.041 -843.27 352.661 -852.01 C 361.281 -860.73 371.751 -865.1 384.041 -865.1 C 396.371 -865.1 406.781 -860.73 415.361 -852.01 C 423.891 -843.27 428.171 -832.68 428.171 -820.22 L 428.171 -531.73 Z M 566.719 -132.41 C 566.529 -128.21 565.539 -121.95 563.969 -118.09 C 562.379 -114.19 558.669 -109.02 555.869 -105.91 C 552.709 -103.03 547.459 -99.25 543.539 -97.655 C 539.649 -96.075 533.409 -95.095 529.219 -94.905 L 407.119 -94.905 C 402.919 -95.095 396.669 -96.075 392.789 -97.665 C 388.879 -99.27 383.579 -103.11 380.489 -105.91 C 377.669 -109.02 373.969 -114.19 372.379 -118.08 C 370.799 -121.95 369.809 -128.21 369.619 -132.41 L 369.619 -254.51 C 369.809 -258.73 370.799 -264.98 372.379 -268.85 C 373.969 -272.75 377.829 -278.07 380.639 -281.19 C 383.729 -283.98 388.889 -287.67 392.789 -289.26 C 396.669 -290.85 402.919 -291.83 407.119 -292.02 L 529.219 -292.02 C 533.409 -291.83 539.649 -290.86 543.539 -289.27 C 547.459 -287.69 552.729 -283.88 555.879 -281 C 558.679 -277.89 562.379 -272.74 563.969 -268.83 C 565.539 -264.96 566.529 -258.73 566.719 -254.51 L 566.719 -132.41 Z" style=""/>
</svg>