<?xml version="1.0" encoding="utf-8"?>
<svg xmlns="http://www.w3.org/2000/svg" height="48" viewBox="0 -960 960 960" width="48">
  <path d="M 760.84 -437.63 C 760.84 -428.91 757.84 -421.58 751.84 -415.64 C 745.85 -409.7 738.5 -406.73 729.81 -406.73 L 230.86 -406.73 C 222.2 -406.73 214.77 -409.74 208.54 -415.76 C 202.3 -421.77 199.16 -429.14 199.16 -437.87 C 199.16 -446.59 202.3 -453.92 208.54 -459.86 C 214.77 -465.8 222.2 -468.77 230.86 -468.77 L 729.81 -468.77 C 738.5 -468.77 745.85 -465.76 751.84 -459.74 C 757.84 -453.73 760.84 -446.36 760.84 -437.63 Z M 566.719 -177.87 C 566.529 -173.66 565.539 -167.41 563.969 -163.55 C 562.379 -159.65 558.669 -154.47 555.869 -151.36 C 552.709 -148.48 547.459 -144.7 543.539 -143.11 C 539.649 -141.53 533.409 -140.55 529.219 -140.36 L 407.119 -140.36 C 402.919 -140.55 396.669 -141.53 392.789 -143.12 C 388.879 -144.72 383.579 -148.57 380.489 -151.36 C 377.669 -154.47 373.969 -159.64 372.379 -163.54 C 370.799 -167.41 369.809 -173.66 369.619 -177.87 L 369.619 -299.97 C 369.809 -304.18 370.799 -310.43 372.379 -314.3 C 373.969 -318.2 377.829 -323.53 380.639 -326.64 C 383.729 -329.43 388.889 -333.12 392.789 -334.72 C 396.669 -336.3 402.919 -337.29 407.119 -337.48 L 529.219 -337.48 C 533.409 -337.29 539.649 -336.31 543.539 -334.73 C 547.459 -333.14 552.729 -329.34 555.879 -326.46 C 558.679 -323.35 562.379 -318.19 563.969 -314.29 C 565.539 -310.42 566.529 -304.18 566.719 -299.97 L 566.719 -177.87 Z M 307.734 -731.21 C 295.448 -731.21 285.007 -735.5 276.41 -744.11 C 267.812 -752.73 263.514 -763.19 263.514 -775.5 C 263.514 -787.79 267.812 -798.24 276.41 -806.78 C 285.007 -815.36 295.448 -819.64 307.734 -819.64 L 652.256 -819.64 C 664.723 -819.64 675.314 -815.34 684.049 -806.72 C 692.774 -798.1 697.137 -787.64 697.137 -775.34 C 697.137 -763.02 692.774 -752.6 684.049 -744.03 C 675.314 -735.49 664.723 -731.21 652.256 -731.21 L 307.734 -731.21 Z M 307.739 -538.48 C 295.453 -538.48 285.012 -542.77 276.415 -551.39 C 267.817 -560 263.519 -570.47 263.519 -582.76 C 263.519 -595.08 267.817 -605.5 276.415 -614.08 C 285.012 -622.62 295.453 -626.9 307.739 -626.9 L 493.861 -626.9 C 506.325 -626.9 516.923 -622.61 525.653 -613.99 C 534.378 -605.38 538.741 -594.94 538.741 -582.61 C 538.741 -570.32 534.378 -559.88 525.653 -551.32 C 516.923 -542.76 506.325 -538.48 493.861 -538.48 L 307.739 -538.48 Z" style=""/>
</svg>