<?xml version="1.0" encoding="utf-8"?>
<svg xmlns="http://www.w3.org/2000/svg" height="48" viewBox="0 -960 960 960" width="48">
  <path d="M 479.75 -186.48 C 497.54 -186.48 512.8 -179.99 525.54 -167.51 C 538.27 -154.82 544.63 -139.21 544.63 -121 C 544.63 -102.76 538.13 -87.181 525.13 -74.701 C 512.15 -62.221 496.68 -56.241 478.69 -56.241 C 460.75 -56.241 445.28 -62.471 432.37 -74.931 C 419.4 -87.661 412.94 -103.24 412.94 -121.48 C 412.94 -139.93 419.49 -155.3 432.66 -167.76 C 445.83 -180.24 461.54 -186.48 479.75 -186.48 Z M 705.17 -479.9 C 705.17 -479.8 705.17 -479.73 705.17 -479.66 C 705.17 -416.95 683.64 -363.6 639.85 -319.7 C 610.1 -289.57 575.91 -269.81 536.92 -260.34 C 519.17 -256 500.36 -253.8 480.85 -253.8 L 480.18 -253.8 C 429.41 -253.8 384.95 -268.27 346.62 -297.19 C 337.55 -304 328.82 -311.61 320.43 -320.03 C 283.93 -356.67 262.72 -399.81 256.65 -449.5 C 255.44 -459.38 254.83 -469.51 254.83 -479.9 C 254.83 -479.94 254.83 -479.99 254.83 -480.03 C 254.83 -480.07 254.83 -480.11 254.83 -480.15 C 254.83 -494.45 255.98 -508.27 258.28 -521.59 C 266.01 -566.66 286.74 -606.14 320.49 -640.04 C 332.29 -651.89 344.76 -662.14 357.91 -670.79 C 393.63 -694.41 434.34 -706.23 480.19 -706.23 L 480.79 -706.23 C 500.39 -706.23 519.2 -704.02 536.78 -699.69 C 575.8 -690.21 609.98 -670.45 639.79 -640.33 C 683.58 -596.44 705.17 -543.09 705.17 -480.39 C 705.17 -480.31 705.17 -480.25 705.17 -480.15 C 705.17 -480.14 705.17 -480.12 705.17 -480.11 C 705.17 -480.05 705.17 -479.99 705.17 -479.93 C 705.17 -479.92 705.17 -479.91 705.17 -479.9 Z M 574.01 -572.97 C 570.15 -576.84 566.16 -580.42 562.04 -583.7 C 549.92 -593.29 536.68 -600.37 522.29 -604.91 C 509.45 -608.95 495.69 -610.97 481.01 -610.97 C 444.22 -610.97 413.16 -598.36 387.83 -573.15 C 378.55 -563.9 370.96 -553.88 365.08 -543.09 C 357.04 -528.28 352.17 -512.03 350.49 -494.33 C 350.05 -489.7 349.83 -484.98 349.83 -480.15 C 349.83 -449.04 358.85 -422.03 376.87 -399.11 C 380.21 -394.9 383.85 -390.83 387.81 -386.9 C 413.22 -361.71 444.21 -349.09 481.01 -349.09 C 517.78 -349.09 548.8 -361.77 573.99 -387.09 C 599.19 -412.42 611.78 -443.48 611.78 -480.25 C 611.78 -485.69 611.51 -490.99 610.96 -496.17 C 607.7 -525.88 595.39 -551.49 574.01 -572.97 Z M 432.61 -792.25 C 419.39 -804.71 412.82 -820.07 412.82 -838.53 C 412.82 -856.76 419.39 -872.34 432.42 -885.06 C 445.22 -897.52 460.81 -903.76 478.61 -903.76 C 496.6 -903.76 512.19 -897.78 525.18 -885.3 C 537.99 -872.82 544.59 -857.25 544.59 -839.01 C 544.59 -820.79 538.2 -805.19 525.4 -792.49 C 512.79 -780.01 497.61 -773.54 479.81 -773.54 C 461.6 -773.54 445.79 -779.78 432.61 -792.25 Z" style="stroke-width: 0.05;"/>
</svg>