<?xml version="1.0" encoding="utf-8"?>
<svg xmlns="http://www.w3.org/2000/svg" height="48" viewBox="0 -960 960 960" width="48">
  <path d="M 751.84 -502.66 C 745.85 -496.64 738.5 -493.63 729.81 -493.63 L 230.86 -493.63 C 222.2 -493.63 214.77 -496.6 208.54 -502.54 C 202.3 -508.48 199.16 -515.81 199.16 -524.53 C 199.16 -533.26 202.3 -540.63 208.54 -546.64 C 214.77 -552.66 222.2 -555.67 230.86 -555.67 L 729.81 -555.67 C 738.5 -555.67 745.85 -552.7 751.84 -546.76 C 757.84 -540.82 760.84 -533.49 760.84 -524.77 C 760.84 -516.04 757.84 -508.67 751.84 -502.66 Z M 307.739 -137.94 C 295.453 -137.94 285.012 -142.23 276.415 -150.85 C 267.817 -159.46 263.519 -169.93 263.519 -182.22 C 263.519 -194.54 267.817 -204.96 276.415 -213.54 C 285.012 -222.08 295.453 -226.36 307.739 -226.36 L 493.861 -226.36 C 506.325 -226.36 516.923 -222.07 525.653 -213.45 C 534.378 -204.84 538.741 -194.4 538.741 -182.07 C 538.741 -169.78 534.378 -159.34 525.653 -150.78 C 516.923 -142.22 506.325 -137.94 493.861 -137.94 L 307.739 -137.94 Z M 307.734 -330.67 C 295.448 -330.67 285.007 -334.96 276.41 -343.57 C 267.812 -352.19 263.514 -362.65 263.514 -374.96 C 263.514 -387.25 267.812 -397.7 276.41 -406.24 C 285.007 -414.82 295.448 -419.1 307.734 -419.1 L 652.256 -419.1 C 664.723 -419.1 675.314 -414.8 684.049 -406.18 C 692.774 -397.56 697.137 -387.1 697.137 -374.8 C 697.137 -362.48 692.774 -352.06 684.049 -343.49 C 675.314 -334.95 664.723 -330.67 652.256 -330.67 L 307.734 -330.67 Z M 566.719 -662.46 C 566.529 -658.26 565.539 -652.06 563.969 -648.16 C 562.379 -644.26 558.679 -639.06 555.879 -635.96 C 552.729 -633.06 547.459 -629.26 543.539 -627.66 C 539.649 -626.06 533.409 -625.06 529.219 -624.96 L 407.119 -624.96 C 402.919 -625.06 396.669 -626.06 392.789 -627.66 C 388.889 -629.26 383.729 -632.96 380.639 -635.76 C 377.829 -638.86 373.969 -644.26 372.379 -648.16 C 370.799 -651.96 369.809 -658.26 369.619 -662.46 L 369.619 -784.56 C 369.809 -788.76 370.799 -795.06 372.379 -798.86 C 373.969 -802.76 377.669 -807.96 380.489 -811.06 C 383.579 -813.86 388.879 -817.66 392.789 -819.36 C 396.669 -820.86 402.919 -821.86 407.119 -822.06 L 529.219 -822.06 C 533.409 -821.86 539.649 -820.86 543.539 -819.36 C 547.459 -817.76 552.709 -813.96 555.869 -811.06 C 558.669 -807.96 562.379 -802.76 563.969 -798.86 C 565.539 -795.06 566.529 -788.76 566.719 -784.56 L 566.719 -662.46 Z" style=""/>
</svg>