<?xml version="1.0" encoding="utf-8"?>
<svg xmlns="http://www.w3.org/2000/svg" height="48" viewBox="0 -960 960 960" width="48">
  <path d="M 734.406 -393.28 C 730.196 -393.47 723.957 -394.46 720.091 -396.03 C 716.193 -397.62 711.029 -401.32 707.923 -404.12 C 705.044 -407.27 701.242 -412.54 699.648 -416.46 C 698.066 -420.35 697.091 -426.59 696.905 -430.78 L 696.905 -552.88 C 697.093 -557.08 698.076 -563.33 699.663 -567.21 C 701.26 -571.11 704.952 -576.27 707.744 -579.36 C 710.852 -582.17 716.179 -586.03 720.08 -587.62 C 723.951 -589.2 730.196 -590.19 734.406 -590.38 L 856.514 -590.38 C 860.724 -590.19 866.969 -589.2 870.84 -587.62 C 874.741 -586.03 879.911 -582.33 883.019 -579.51 C 885.812 -576.42 889.659 -571.12 891.257 -567.21 C 892.843 -563.33 893.827 -557.08 894.015 -552.88 L 894.015 -430.78 C 893.829 -426.59 892.853 -420.35 891.272 -416.46 C 889.676 -412.54 885.894 -407.29 883.014 -404.13 C 879.909 -401.33 874.728 -397.62 870.83 -396.03 C 866.964 -394.46 860.724 -393.47 856.514 -393.28 L 734.406 -393.28 Z M 745.519 -491.83 C 745.519 -464.25 767.878 -441.89 795.46 -441.89 C 823.042 -441.89 845.401 -464.25 845.401 -491.83 C 845.401 -519.41 823.042 -541.77 795.46 -541.77 C 767.878 -541.77 745.519 -519.41 745.519 -491.83 Z M 574.637 -208.16 C 568.618 -214.15 565.609 -221.5 565.609 -230.19 L 565.609 -729.14 C 565.609 -737.8 568.579 -745.23 574.519 -751.46 C 580.459 -757.7 587.79 -760.84 596.51 -760.84 C 605.236 -760.84 612.606 -757.7 618.62 -751.46 C 624.64 -745.23 627.65 -737.8 627.65 -729.14 L 627.65 -230.19 C 627.65 -221.5 624.679 -214.15 618.739 -208.16 C 612.799 -202.16 605.469 -199.16 596.748 -199.16 C 588.023 -199.16 580.653 -202.16 574.637 -208.16 Z M 269.266 -339.09 C 256.802 -339.09 246.204 -343.38 237.474 -351.93 C 228.749 -360.5 224.386 -370.93 224.386 -383.23 C 224.386 -395.55 228.749 -406 237.474 -414.6 C 246.204 -423.22 256.802 -427.52 269.266 -427.52 L 455.388 -427.52 C 467.674 -427.52 478.115 -423.24 486.712 -414.69 C 495.31 -406.12 499.608 -395.69 499.608 -383.38 C 499.608 -371.08 495.31 -360.62 486.712 -352.01 C 478.115 -343.39 467.674 -339.09 455.388 -339.09 L 269.266 -339.09 Z M 110.866 -531.82 C 98.399 -531.82 87.808 -536.1 79.073 -544.65 C 70.348 -553.21 65.985 -563.64 65.985 -575.95 C 65.985 -588.26 70.348 -598.71 79.073 -607.33 C 87.808 -615.95 98.399 -620.26 110.866 -620.26 L 455.388 -620.26 C 467.674 -620.26 478.115 -615.97 486.712 -607.4 C 495.31 -598.85 499.608 -588.41 499.608 -576.12 C 499.608 -563.8 495.31 -553.34 486.712 -544.73 C 478.115 -536.12 467.674 -531.82 455.388 -531.82 L 110.866 -531.82 Z" style=""/>
</svg>