<?xml version="1.0" encoding="utf-8"?>
<svg xmlns="http://www.w3.org/2000/svg" height="48" viewBox="0 -960 960 960" width="48">
  <path d="M 480 -55 C 442.822 -55 407.149 -59.319 372.981 -67.956 C 362.45 -59.374 349.863 -55 335.203 -55 L 129.439 -55 C 116.737 -55 106.144 -59.572 97.685 -68.464 C 89.226 -77.355 84.983 -88.023 84.983 -100.73 C 84.983 -113.43 89.226 -124.1 97.685 -132.49 C 106.144 -140.86 117.17 -145.18 130.709 -145.18 L 216.405 -145.18 C 203.119 -155.639 190.484 -166.912 178.5 -179 C 161.991 -195.653 146.996 -213.542 133.516 -232.669 C 116.006 -254.96 101.311 -277.706 89.429 -300.91 C 62.756 -352.98 49.42 -411.41 49.42 -476.69 C 49.42 -563.06 73.121 -641.56 120.548 -712.42 C 129.642 -725.963 139.295 -738.842 149.508 -751.06 C 158.589 -762.195 168.252 -772.842 178.5 -783 C 216.833 -821 261.833 -851 313.5 -873 C 365.167 -895 420.667 -906 480 -906 C 518.159 -906 554.732 -901.45 589.72 -892.351 C 600.556 -901.51 613.942 -906 629.877 -906 L 834.372 -906 C 847.074 -906 857.869 -901.68 866.76 -893.29 C 875.651 -884.92 880.097 -874.25 880.097 -861.54 C 880.097 -848.85 875.651 -838.18 866.76 -829.29 C 857.869 -820.39 847.074 -815.82 834.372 -815.82 L 744.202 -815.82 C 757.267 -805.638 769.699 -794.698 781.5 -783 C 819.833 -745 850.167 -700.167 872.5 -648.5 C 878.489 -634.645 883.675 -620.515 888.058 -606.108 C 903.073 -564.369 910.58 -523.768 910.58 -484.31 C 910.58 -398.7 887.718 -321.23 841.993 -251.37 C 796.268 -181.51 734.869 -128.16 657.82 -91.834 C 653.834 -89.815 649.866 -88.456 645.915 -87.751 C 594.414 -65.917 539.109 -55 480 -55 Z M 479 -146 C 500.333 -169.333 518.667 -196.167 534 -226.5 C 549.333 -256.833 562.333 -293.333 573 -336 L 388 -336 C 396.667 -296 408.667 -260.333 424 -229 C 439.333 -197.667 457.667 -170 479 -146 Z M 397 -158 C 379.667 -182 365.5 -208.667 354.5 -238 C 343.5 -267.333 334 -300 326 -336 L 180 -336 C 204 -289.333 232.333 -252.833 265 -226.5 C 297.667 -200.167 341.667 -177.333 397 -158 Z M 562 -159 C 608.667 -173.667 650.833 -196.167 688.5 -226.5 C 726.167 -256.833 756.333 -293.333 779 -336 L 635 -336 C 626.333 -300.667 616.333 -268.333 605 -239 C 593.667 -209.667 579.333 -183 562 -159 Z M 161 -393 L 315 -393 C 313 -411 311.833 -427 311.5 -441 C 311.167 -455 311 -468.667 311 -482 C 311 -498.667 311.333 -513.167 312 -525.5 C 312.667 -537.833 314 -552 316 -568 L 161 -568 C 156.333 -552 153.167 -538 151.5 -526 C 149.833 -514 149 -499.333 149 -482 C 149 -465.333 149.833 -450.333 151.5 -437 C 153.167 -423.667 156.333 -409 161 -393 Z M 377 -393 L 584 -393 C 586 -413.667 587.167 -430.333 587.5 -443 C 587.833 -455.667 588 -468.667 588 -482 C 588 -495.333 587.833 -507.833 587.5 -519.5 C 587.167 -531.167 586 -547.333 584 -568 L 377 -568 C 374.333 -547.333 372.667 -531.167 372 -519.5 C 371.333 -507.833 371 -495.333 371 -482 C 371 -468.667 371.333 -455.667 372 -443 C 372.667 -430.333 374.333 -413.667 377 -393 Z M 644 -393 L 798 -393 C 802 -409 805 -423.667 807 -437 C 809 -450.333 810 -465.333 810 -482 C 810 -499.333 809 -514 807 -526 C 805 -538 802 -552 798 -568 L 645 -568 C 645.667 -544 646.333 -526.333 647 -515 C 647.667 -503.667 648 -492.667 648 -482 C 648 -468 647.5 -454.667 646.5 -442 C 645.5 -429.333 644.667 -413 644 -393 Z M 634 -626 L 779 -626 C 757.667 -670.667 728.167 -708.167 690.5 -738.5 C 652.833 -768.833 609.667 -790 561 -802 C 578.333 -778 592.667 -751.833 604 -723.5 C 615.333 -695.167 625.333 -662.667 634 -626 Z M 388 -626 L 574 -626 C 567.333 -660 555.333 -693.5 538 -726.5 C 520.667 -759.5 501 -788 479 -812 C 459.667 -794.667 442.833 -771.667 428.5 -743 C 414.167 -714.333 400.667 -675.333 388 -626 Z M 180 -626 L 327 -626 C 334.333 -660.667 343.167 -692 353.5 -720 C 363.833 -748 378 -775 396 -801 C 346.667 -789 303.833 -768.333 267.5 -739 C 231.167 -709.667 202 -672 180 -626 Z"/>
</svg>