<?xml version="1.0" encoding="utf-8"?>
<svg clip-rule="evenodd" fill-rule="evenodd" stroke-linejoin="round" stroke-miterlimit="2" viewBox="0 0 48 48" xmlns="http://www.w3.org/2000/svg">
  <defs>
    <style type="text/css" id="current-color-scheme">.ColorScheme-Highlight { color:#000000; } .ColorScheme-Text { color:#ffffff; }</style>
  </defs>
  <path d="M 21.296 6.771 L 11.209 6.771 C 9.872 6.771 8.786 7.858 8.786 9.196 L 8.786 38.804 C 8.786 40.143 9.872 41.229 11.209 41.229 L 36.791 41.229 C 38.128 41.229 39.214 40.143 39.214 38.804 L 39.214 9.196 C 39.214 7.858 38.128 6.771 36.791 6.771 L 26.704 6.771 C 26.526 6.771 26.424 6.968 26.424 7.171 C 26.424 7.994 25.805 8.626 25.09 8.626 L 22.91 8.626 C 22.195 8.626 21.576 7.994 21.576 7.171 C 21.576 6.968 21.474 6.771 21.296 6.771 Z M 4.029 6.984 C 4.029 3.98 6.469 1.54 9.472 1.54 L 38.528 1.54 C 41.532 1.54 43.971 3.98 43.971 6.984 L 43.971 41.016 C 43.971 44.02 41.532 46.46 38.528 46.46 L 9.472 46.46 C 6.469 46.46 4.029 44.02 4.029 41.016 Z M 23.718 14.992 L 24.282 14.992 C 25.444 14.992 26.424 16.04 26.424 17.374 C 26.424 18.708 25.444 19.756 24.282 19.756 L 23.718 19.756 C 22.556 19.756 21.576 18.708 21.576 17.374 C 21.576 16.04 22.556 14.992 23.718 14.992 Z M 23.718 9.427 L 24.282 9.427 C 25.444 9.427 26.424 10.475 26.424 11.809 C 26.424 13.143 25.444 14.191 24.282 14.191 L 23.718 14.191 C 22.556 14.191 21.576 13.143 21.576 11.809 C 21.576 10.475 22.556 9.427 23.718 9.427 Z M 26.331 28.64 L 26.331 34.066 C 26.331 34.716 26.107 35.264 25.656 35.712 C 25.207 36.16 24.656 36.384 24.004 36.384 C 23.352 36.384 22.805 36.16 22.361 35.712 C 21.917 35.264 21.695 34.716 21.695 34.066 L 21.695 28.64 L 20.412 29.873 C 19.952 30.301 19.434 30.515 18.859 30.515 C 18.283 30.515 17.749 30.268 17.255 29.775 C 16.795 29.314 16.565 28.772 16.565 28.147 C 16.565 27.522 16.795 26.98 17.255 26.519 L 22.336 21.439 C 22.598 21.176 22.866 20.987 23.136 20.871 C 23.405 20.756 23.698 20.699 24.013 20.699 C 24.328 20.699 24.62 20.756 24.89 20.871 C 25.16 20.987 25.427 21.176 25.69 21.439 L 30.771 26.519 C 31.231 26.98 31.453 27.531 31.436 28.172 C 31.42 28.813 31.149 29.397 30.622 29.923 C 30.195 30.35 29.701 30.556 29.143 30.539 C 28.584 30.523 28.074 30.317 27.614 29.923 Z"/>
</svg>