<?xml version="1.0" encoding="utf-8"?>
<svg clip-rule="evenodd" fill-rule="evenodd" stroke-linejoin="round" stroke-miterlimit="2" viewBox="0 0 48 48" xmlns="http://www.w3.org/2000/svg">
  <defs>
    <style type="text/css" id="current-color-scheme">.ColorScheme-Highlight { color:#000000; } .ColorScheme-Text { color:#ffffff; }</style>
  </defs>
  <path d="M 4.029 6.984 C 4.029 3.98 6.469 1.54 9.472 1.54 L 38.528 1.54 C 41.532 1.54 43.971 3.98 43.971 6.984 L 43.971 41.016 C 43.971 44.02 41.532 46.46 38.528 46.46 L 9.472 46.46 C 6.469 46.46 4.029 44.02 4.029 41.016 Z M 21.296 6.771 L 11.209 6.771 C 9.872 6.771 8.786 7.858 8.786 9.196 L 8.786 38.804 C 8.786 40.143 9.872 41.229 11.209 41.229 L 36.791 41.229 C 38.128 41.229 39.214 40.143 39.214 38.804 L 39.214 9.196 C 39.214 7.858 38.128 6.771 36.791 6.771 L 26.704 6.771 C 26.526 6.771 26.424 6.968 26.424 7.171 C 26.424 7.994 25.805 8.626 25.09 8.626 L 22.91 8.626 C 22.195 8.626 21.576 7.994 21.576 7.171 C 21.576 6.968 21.474 6.771 21.296 6.771 Z M 23.718 9.427 L 24.282 9.427 C 25.444 9.427 26.424 10.475 26.424 11.809 C 26.424 13.143 25.444 14.191 24.282 14.191 L 23.718 14.191 C 22.556 14.191 21.576 13.143 21.576 11.809 C 21.576 10.475 22.556 9.427 23.718 9.427 Z M 23.718 14.992 L 24.282 14.992 C 25.444 14.992 26.424 16.04 26.424 17.374 C 26.424 18.708 25.444 19.756 24.282 19.756 L 23.718 19.756 C 22.556 19.756 21.576 18.708 21.576 17.374 C 21.576 16.04 22.556 14.992 23.718 14.992 Z M 18.437 26.268 C 17.995 25.825 17.772 25.286 17.77 24.646 C 17.769 24.009 17.995 23.463 18.448 23.01 C 18.901 22.557 19.45 22.327 20.097 22.319 C 20.744 22.313 21.289 22.531 21.732 22.973 L 24.024 25.266 L 26.268 23.022 C 26.725 22.565 27.269 22.324 27.9 22.297 C 28.532 22.27 29.083 22.493 29.555 22.965 C 30.013 23.423 30.244 23.982 30.245 24.642 C 30.247 25.302 30.02 25.86 29.564 26.317 L 27.319 28.561 L 29.564 30.805 C 30.006 31.248 30.225 31.791 30.22 32.437 C 30.215 33.082 29.983 33.633 29.525 34.091 C 29.079 34.537 28.536 34.76 27.895 34.762 C 27.253 34.763 26.712 34.542 26.269 34.1 L 24.025 31.855 L 21.78 34.101 C 21.324 34.557 20.772 34.79 20.125 34.801 C 19.477 34.811 18.917 34.581 18.445 34.109 C 17.973 33.637 17.748 33.082 17.77 32.445 C 17.79 31.808 18.028 31.261 18.485 30.805 L 20.73 28.56 Z"/>
</svg>