<?xml version="1.0" encoding="utf-8"?>
<svg xmlns="http://www.w3.org/2000/svg" height="48" viewBox="0 -960 960 960" width="48">
  <path d="M 883 -703 L 441 -261 L 457 -244 C 473 -218.667 474.333 -195.667 461 -175 C 447.667 -154.333 432.333 -135.333 415 -118 C 410.333 -113.333 405.167 -111 399.5 -111 C 393.833 -111 388.667 -113.333 384 -118 L 311 -190 L 200 -78 C 190.667 -68.667 179.5 -64 166.5 -64 C 153.5 -64 142.333 -68.667 133 -78 L 74 -137 C 64 -146.333 59 -157.667 59 -171 C 59 -184.333 64 -195.667 74 -205 L 186 -316 L 113 -388 C 108.333 -393.333 106 -398.667 106 -404 C 106 -409.333 108.333 -414.667 113 -420 C 130.333 -437.333 149.333 -452.667 170 -466 C 190.667 -479.333 214 -477.667 240 -461 L 257 -445 L 684 -873 C 692.667 -881.667 703 -888.5 715 -893.5 C 727 -898.5 739.333 -901 752 -901 L 850 -901 C 863.333 -901 874.5 -896.5 883.5 -887.5 C 892.5 -878.5 897 -867.333 897 -854 L 897 -735 C 897 -729 895.833 -723.333 893.5 -718 C 891.167 -712.667 887.667 -707.667 883 -703 Z M 382 -327 L 810 -754 L 810 -814 L 750 -814 L 321 -388 L 382 -327 Z M 382 -327 L 353 -359 L 321 -388 L 353 -359 L 382 -327 Z"/>
</svg>