<?xml version="1.0" encoding="utf-8"?>
<svg xmlns="http://www.w3.org/2000/svg" height="48" viewBox="0 -960 960 960" width="48">
  <path d="M 479.915 -116.58 C 429.313 -116.58 382.019 -126 338.033 -144.83 C 294.047 -163.68 255.562 -189.59 222.576 -222.58 C 189.592 -255.56 163.679 -294.03 144.838 -337.98 C 126.002 -381.94 116.584 -429.23 116.584 -479.88 C 116.584 -530.53 126.002 -577.88 144.838 -621.92 C 163.679 -665.94 189.546 -704.32 222.441 -737.05 C 255.334 -769.78 293.777 -795.69 337.768 -814.78 C 381.766 -833.86 429.113 -843.42 479.812 -843.42 C 530.511 -843.42 577.91 -833.89 622.01 -814.85 C 666.104 -795.8 704.495 -769.95 737.184 -737.29 C 769.874 -704.63 795.749 -666.23 814.813 -622.1 C 833.881 -577.95 843.416 -530.52 843.416 -479.81 C 843.416 -429.12 833.87 -381.79 814.779 -337.81 C 795.686 -293.83 769.776 -255.43 737.047 -222.63 C 704.313 -189.82 665.927 -163.95 621.89 -145 C 577.848 -126.06 530.523 -116.58 479.915 -116.58 Z M 479.573 -196.87 C 550.964 -196.87 612.512 -219.64 664.219 -265.2 C 713.729 -308.81 744.235 -362.35 755.735 -425.8 C 749.374 -419.02 741.907 -413.6 733.333 -409.54 C 723.715 -404.99 713.15 -402.7 701.637 -402.7 L 637.58 -402.7 C 616.677 -402.7 598.781 -410.18 583.892 -425.11 C 569.008 -440.06 561.566 -458.03 561.566 -479 L 561.566 -517.15 L 409.537 -517.15 L 409.537 -587.69 C 409.537 -609.2 417.008 -627.31 431.949 -642.01 C 446.89 -656.71 464.852 -664.06 485.834 -664.06 L 523.986 -664.06 L 523.986 -682.84 C 523.986 -694.99 528.257 -708.85 536.797 -724.42 C 545.338 -739.98 555.303 -748.04 566.691 -748.61 C 553.013 -752.35 538.901 -755.55 524.353 -758.25 C 509.799 -760.94 494.975 -762.29 479.881 -762.29 C 401.099 -762.29 334.235 -734.86 279.289 -680.02 C 224.342 -625.18 196.869 -558.36 196.869 -479.58 C 196.869 -477.29 197.011 -475.16 197.295 -473.17 C 197.58 -471.17 197.722 -469.04 197.722 -466.76 L 286.548 -466.76 C 328.683 -466.76 364.556 -451.96 394.164 -422.35 C 423.772 -392.74 438.577 -357.02 438.577 -315.19 L 438.577 -277.16 L 324.982 -277.16 L 324.982 -236.16 C 347.758 -224.2 372.194 -214.66 398.289 -207.55 C 424.379 -200.42 451.474 -196.87 479.573 -196.87 Z M 479.908 -36.913 C 420.236 -36.913 359.081 -49.679 306.662 -71.548 C 255.01 -94.152 205.479 -127.58 166.127 -166.28 C 127.434 -205.63 94.071 -255.2 71.469 -306.8 C 49.591 -359.2 36.916 -420.14 36.916 -479.87 C 36.916 -539.58 49.676 -600.79 71.549 -653.26 C 94.163 -704.98 127.587 -754.44 166.224 -793.55 C 205.422 -831.92 254.816 -865.19 306.377 -888.03 C 358.851 -910.2 419.954 -923.09 479.797 -923.09 C 539.621 -923.09 600.95 -910.16 653.519 -888.04 C 705.221 -865.24 754.573 -831.92 793.596 -793.58 C 831.976 -754.59 865.277 -705.15 888.097 -653.41 C 910.244 -600.79 923.084 -539.62 923.084 -479.79 C 923.084 -419.96 910.122 -358.67 887.934 -306.2 C 865.092 -254.64 831.736 -205.34 793.35 -166.23 C 754.257 -127.7 704.793 -94.381 653.115 -71.667 C 600.62 -49.665 539.61 -36.913 479.908 -36.913 Z M 633.409 -117.62 C 681.071 -138.14 722.586 -166.11 758.015 -201.6 C 793.428 -237.11 821.48 -278.68 842.148 -326.29 C 862.834 -373.97 873.084 -425.02 873.084 -479.79 C 873.084 -534.58 862.787 -585.81 842.183 -633.61 C 821.545 -681.38 793.545 -722.94 758.184 -758.28 C 722.8 -793.62 681.252 -821.6 633.519 -842.22 C 585.761 -862.79 534.577 -873.09 479.797 -873.09 C 425.016 -873.09 373.885 -862.76 326.236 -842.14 C 278.618 -821.48 236.995 -793.42 201.385 -758 C 165.815 -722.58 137.85 -681.09 117.453 -633.45 C 97.092 -585.75 86.916 -534.59 86.916 -479.87 C 86.916 -425.13 97.041 -374.1 117.451 -326.44 C 137.847 -278.88 165.882 -237.26 201.562 -201.56 C 237.264 -165.87 278.892 -137.84 326.497 -117.44 C 374.138 -97.09 425.232 -86.913 479.908 -86.913 C 534.59 -86.913 585.657 -97.094 633.409 -117.62 Z"/>
</svg>