<?xml version="1.0" encoding="utf-8"?>
<svg xmlns="http://www.w3.org/2000/svg" height="48" viewBox="0 -960 960 960" width="48">
  <path d="M 142 -95 C 128.833 -95 117.71 -99.56 108.63 -108.68 C 99.543 -117.793 95 -128.96 95 -142.18 C 95 -155.393 99.543 -166.5 108.63 -175.5 C 117.71 -184.5 128.833 -189 142 -189 L 180 -189 L 180 -771 L 142 -771 C 128.833 -771 117.71 -775.56 108.63 -784.68 C 99.543 -793.793 95 -804.93 95 -818.09 C 95 -831.243 99.543 -842.517 108.63 -851.91 C 117.71 -861.303 128.833 -866 142 -866 L 311 -866 C 324.167 -866 335.293 -861.247 344.38 -851.74 C 353.46 -842.227 358 -830.893 358 -817.74 C 358 -804.58 353.46 -793.5 344.38 -784.5 C 335.293 -775.5 324.167 -771 311 -771 L 274 -771 L 274 -189 L 311 -189 C 324.167 -189 335.293 -184.44 344.38 -175.32 C 353.46 -166.207 358 -155.04 358 -141.82 C 358 -128.607 353.46 -117.5 344.38 -108.5 C 335.293 -99.5 324.167 -95 311 -95 Z M 732.147 -480.55 L 471.159 -741.53 C 461.976 -750.83 457.24 -762.03 456.947 -775.63 C 456.672 -789.06 461.116 -800.43 470.297 -809.58 C 480.066 -819.38 491.833 -824.22 505.613 -824.22 C 519.395 -824.22 530.885 -819.38 540.067 -809.58 L 813.976 -537.39 C 822.021 -529.46 827.911 -520.51 831.633 -510.68 C 835.372 -501.03 837.233 -490.86 837.233 -480.55 C 837.233 -470.21 835.372 -460.2 831.633 -450.38 C 827.911 -440.75 822.021 -431.78 813.976 -423.69 L 540.067 -149.78 C 530.318 -140.13 518.826 -135.32 505.613 -135.65 C 492.416 -135.81 480.927 -140.98 471.159 -150.63 C 461.976 -160.46 457.24 -171.99 456.947 -185.1 C 456.672 -198.37 461.408 -209.91 471.159 -219.54 Z"/>
</svg>