<?xml version="1.0" encoding="utf-8"?>
<svg xmlns="http://www.w3.org/2000/svg" height="48" viewBox="0 -960 960 960" width="48">
  <path d="M 377.62 -851 C 365.46 -851 355.567 -855.06 347.94 -863.18 C 340.313 -871.29 336.5 -881.29 336.5 -893.18 C 336.5 -905.06 340.313 -914.83 347.94 -922.5 C 355.567 -930.17 365.46 -934 377.62 -934 L 581.38 -934 C 593.547 -934 603.44 -930.17 611.06 -922.51 C 618.687 -914.85 622.5 -904.95 622.5 -892.82 C 622.5 -880.94 618.687 -871 611.06 -863 C 603.44 -855 593.547 -851 581.38 -851 Z M 749.5 -742 C 758.167 -750.67 768 -755 779 -755 C 790 -755 799.833 -750.5 808.5 -741.5 C 817.167 -732.5 821.5 -722.5 821.5 -711.5 C 821.5 -700.5 817.167 -690.67 808.5 -682 L 778.983 -652.483 C 801.156 -624.848 819.519 -594.169 834.075 -560.37 C 854.344 -513.37 864.468 -463.15 864.468 -409.53 C 864.468 -355.89 854.264 -305.67 833.834 -258.87 C 813.425 -212.05 785.804 -171.08 750.973 -135.93 C 716.16 -100.77 675.142 -73.247 627.896 -53.174 C 580.669 -33.075 530.249 -23.026 476.655 -23.026 C 377.985 -23.026 292.752 -55.369 220.918 -119.85 C 149.106 -184.54 107.503 -264.69 96.114 -360.5 C 94.104 -372.56 97.298 -383.41 105.656 -393.05 C 114.033 -402.88 124.939 -408.1 138.398 -408.72 C 151.054 -409.32 162.242 -405.89 171.945 -398.08 C 181.668 -390.44 188.195 -380.19 191.53 -367.54 C 200.912 -297.22 232.208 -237.97 285.439 -189.76 C 338.673 -141.56 402.452 -117.43 476.777 -117.43 C 558.693 -117.43 627.896 -145.77 684.361 -202.42 C 740.828 -259.06 769.051 -328.18 769.051 -409.53 C 769.051 -490.88 740.828 -559.98 684.361 -616.83 C 627.896 -673.68 558.693 -701.99 476.777 -701.99 C 436.901 -701.99 398.816 -693.97 362.497 -677.9 C 326.199 -661.81 293.977 -639.33 265.856 -610.59 L 313.061 -610.59 C 323.306 -610.59 331.903 -607.19 338.834 -600.15 C 345.764 -593.11 349.218 -584.48 349.218 -574.23 C 349.218 -563.59 345.764 -554.76 338.834 -547.72 C 331.903 -540.69 323.306 -537.29 313.061 -537.29 L 167.425 -537.29 C 153.544 -537.29 142.035 -541.9 132.915 -550.93 C 123.795 -560.18 119.216 -571.22 119.216 -584.48 L 119.216 -730.11 C 119.216 -739.97 122.691 -748.39 129.641 -755.23 C 136.59 -761.87 145.188 -765.26 155.452 -765.26 C 165.436 -765.26 173.954 -761.87 180.984 -755.23 C 188.016 -748.39 191.53 -739.97 191.53 -730.11 L 191.53 -669.87 C 229.035 -710.04 272.383 -741.38 321.597 -763.66 C 370.814 -786.17 422.398 -797.42 476.354 -797.42 C 530.329 -797.42 580.891 -787.16 628.035 -766.67 C 661.615 -752.219 692.107 -733.998 719.512 -712.012 Z M 510.254 -418.16 L 621.678 -310.2 C 630.078 -301.77 634.278 -292.74 634.278 -282.89 C 634.278 -272.85 630.3 -263.98 622.401 -256.34 C 614.461 -248.1 605.58 -243.92 595.791 -243.92 C 585.964 -243.92 577.101 -248.1 569.161 -256.34 L 450.325 -373.14 C 445.502 -377.33 442.044 -382.16 439.973 -388 C 437.923 -393.64 436.88 -400.06 436.88 -407.3 L 436.88 -577.71 C 436.88 -588.17 440.456 -596.83 447.631 -603.65 C 454.787 -610.49 463.568 -613.88 473.98 -613.88 C 484.37 -613.88 493.031 -610.49 499.926 -603.65 C 506.799 -596.83 510.254 -588.17 510.254 -577.71 Z"/>
</svg>