<?xml version="1.0" encoding="utf-8"?>
<svg xmlns="http://www.w3.org/2000/svg" height="48" viewBox="0 -960 960 960" width="48">
  <path d="M 480 -212 L 306 -138 C 274.667 -124.667 245 -127.313 217 -145.94 C 189 -164.567 175 -190.92 175 -225 L 175 -776 C 175 -802.307 184.16 -824.717 202.48 -843.23 C 220.793 -861.743 242.967 -871 269 -871 L 613.279 -871 C 626.446 -871 637.572 -866.247 646.659 -856.74 C 655.739 -847.227 660.279 -835.893 660.279 -822.74 C 660.279 -809.58 655.739 -798.5 646.659 -789.5 C 637.572 -780.5 626.446 -776 613.279 -776 L 269 -776 L 269 -225 L 480 -313.16 L 691 -225 L 691 -499 C 691 -512.087 695.56 -523.357 704.68 -532.81 C 713.793 -542.27 724.93 -547 738.09 -547 C 751.243 -547 762.517 -542.27 771.91 -532.81 C 781.303 -523.357 786 -512.087 786 -499 L 786 -225 C 786 -190.92 771.833 -164.567 743.5 -145.94 C 715.167 -127.313 685.333 -124.667 654 -138 L 480 -212 Z M 688.139 -653.77 L 688.139 -699.63 C 688.139 -702.94 688.822 -706.22 690.197 -709.39 C 691.574 -712.45 693.632 -715.51 696.373 -718.46 L 820.249 -842.44 C 824.649 -847.03 829.555 -850.33 834.941 -852.43 C 840.329 -854.43 845.893 -855.49 851.645 -855.49 C 857.139 -855.49 862.632 -854.33 868.148 -851.97 C 873.654 -849.6 878.547 -846.21 882.817 -841.97 L 904.578 -820.21 C 908.825 -815.86 912.037 -811.03 914.236 -805.61 C 916.424 -800.34 917.518 -794.92 917.518 -789.62 C 917.518 -783.74 916.342 -777.98 913.989 -772.57 C 911.637 -767.04 908.284 -762.1 903.944 -757.74 L 780.479 -633.77 C 777.62 -630.95 774.609 -629.06 771.445 -627.88 C 768.28 -626.7 765.023 -626.13 761.658 -626.13 L 715.782 -626.13 C 708.042 -626.13 701.501 -628.71 696.162 -634.12 C 690.81 -639.4 688.139 -646 688.139 -653.77 Z"/>
</svg>