<?xml version="1.0" encoding="utf-8"?>
<svg xmlns="http://www.w3.org/2000/svg" height="48" viewBox="0 -960 960 960" width="48">
  <path d="M 480 -212 L 306 -138 C 274.667 -124.667 245 -127.313 217 -145.94 C 189 -164.567 175 -190.92 175 -225 L 175 -776 C 175 -802.307 184.16 -824.717 202.48 -843.23 C 220.793 -861.743 242.967 -871 269 -871 L 691 -871 C 717.307 -871 739.717 -861.743 758.23 -843.23 C 776.743 -824.717 786 -802.307 786 -776 L 786 -225 C 786 -190.92 771.833 -164.567 743.5 -145.94 C 715.167 -127.313 685.333 -124.667 654 -138 L 480 -212 Z"/>
</svg>