<?xml version="1.0" encoding="utf-8"?>
<svg xmlns="http://www.w3.org/2000/svg" height="48" viewBox="0 -960 960 960" width="48">
  <path d="M 510.378 -857.83 C 572.606 -795.61 617.457 -731.17 644.947 -664.47 C 672.446 -597.74 686.397 -525.84 686.827 -448.69 C 686.39 -446.57 686.199 -444.2 686.189 -441.66 C 686.18 -439.12 685.969 -436.76 685.553 -434.61 L 771.85 -377.73 C 784.21 -369.64 793.711 -359.07 800.306 -346.08 C 806.9 -333.1 810.425 -319.55 810.856 -305.48 L 810.209 -134.8 C 810.217 -119.45 804.033 -107.51 791.672 -98.988 C 779.31 -90.458 766.098 -89.388 752.035 -95.798 L 595.399 -157.82 L 573.282 -157.88 C 568.824 -138.538 560.732 -119.434 550.08 -103.85 C 536.481 -85.279 522.06 -66.822 507.544 -49.374 C 500.524 -40.944 490.124 -36.065 479.153 -36.056 C 468.183 -36.047 457.775 -40.909 450.743 -49.328 C 436.04 -66.939 421.481 -85.418 407.706 -103.94 C 396.786 -119.667 388.504 -138.961 383.994 -158.394 L 363.333 -158.45 L 206.704 -95.138 C 192.635 -88.768 179.437 -90.038 167.067 -98.988 C 154.709 -107.93 148.734 -119.89 149.165 -134.8 L 149.161 -306.14 C 149.174 -320.62 152.261 -333.94 158.439 -346.08 C 164.615 -358.23 173.896 -368.35 186.257 -376.44 L 272.554 -434.64 L 272.557 -440.38 C 272.557 -442.51 272.764 -444.64 273.189 -446.79 C 273.195 -525.19 286.836 -597.44 314.106 -663.51 C 341.385 -729.55 385.921 -793.92 447.72 -856.57 C 451.981 -860.85 456.777 -863.93 462.106 -865.85 C 467.447 -867.75 473.084 -868.7 479.044 -868.74 C 485.44 -869.14 491.307 -868.39 496.628 -866.48 C 501.969 -864.55 506.537 -861.69 510.378 -857.83 Z M 520.598 -469.16 C 531.678 -480.24 537.449 -493.66 537.868 -509.42 C 537.862 -525.63 532.11 -539.48 520.613 -550.97 C 509.096 -562.49 495.247 -568.24 479.052 -568.24 C 463.275 -567.82 449.849 -562.06 438.765 -550.99 C 427.686 -539.91 421.936 -526.48 421.515 -510.71 C 421.511 -494.51 427.265 -480.65 438.782 -469.15 C 450.279 -457.63 464.127 -451.89 480.332 -451.89 C 496.108 -452.31 509.516 -458.07 520.598 -469.16 Z" style=""/>
</svg>