<?xml version="1.0" encoding="utf-8"?>
<svg xmlns="http://www.w3.org/2000/svg" height="48" viewBox="0 -960 960 960" width="48">
  <path d="M 510.378 -857.83 C 572.606 -795.61 617.457 -731.17 644.947 -664.47 C 672.446 -597.74 686.397 -525.84 686.827 -448.69 C 686.39 -446.57 686.199 -444.2 686.189 -441.66 C 686.18 -439.12 685.969 -436.76 685.553 -434.61 L 771.85 -377.73 C 784.21 -369.64 793.711 -359.07 800.306 -346.08 C 806.9 -333.1 810.425 -319.55 810.856 -305.48 L 810.209 -134.8 C 810.217 -119.45 804.033 -107.51 791.672 -98.987 C 779.31 -90.467 766.098 -89.397 752.035 -95.797 L 595.399 -157.82 L 363.333 -158.45 L 206.704 -95.147 C 192.635 -88.767 179.437 -90.037 167.067 -98.987 C 154.709 -107.93 148.734 -119.89 149.165 -134.8 L 149.161 -306.14 C 149.174 -320.62 152.261 -333.94 158.439 -346.08 C 164.615 -358.23 173.896 -368.35 186.257 -376.44 L 272.554 -434.64 L 272.557 -440.38 C 272.557 -442.51 272.764 -444.64 273.189 -446.79 C 273.195 -525.19 286.836 -597.44 314.106 -663.51 C 341.385 -729.55 385.921 -793.92 447.72 -856.57 C 451.981 -860.85 456.777 -863.93 462.106 -865.85 C 467.447 -867.75 473.084 -868.7 479.044 -868.74 C 485.44 -869.14 491.307 -868.39 496.628 -866.48 C 501.969 -864.55 506.537 -861.69 510.378 -857.83 Z M 464.338 -742.79 C 424.714 -695.46 397.12 -648.46 381.567 -601.79 C 366.005 -555.13 358.221 -500.68 358.227 -438.46 C 358.228 -412.89 361.52 -384.02 368.133 -351.84 C 374.735 -319.65 384.638 -283.32 397.864 -242.82 L 560.248 -242.84 C 573.023 -282.92 583.037 -318.92 590.292 -350.87 C 597.526 -382.84 601.16 -411.61 601.168 -437.18 C 600.735 -499.83 592.64 -554.38 576.855 -600.86 C 561.098 -647.29 533.607 -694.4 494.386 -742.14 C 492.264 -745.11 489.924 -747.24 487.354 -748.53 C 484.806 -749.8 482.039 -750.66 479.055 -751.07 C 476.071 -750.66 473.411 -749.92 471.067 -748.83 C 468.712 -747.78 466.479 -745.76 464.338 -742.79 Z M 480.332 -451.89 C 464.127 -451.89 450.279 -457.63 438.782 -469.15 C 427.265 -480.65 421.511 -494.51 421.515 -510.71 C 421.936 -526.48 427.686 -539.91 438.765 -550.99 C 449.849 -562.06 463.275 -567.82 479.052 -568.24 C 495.247 -568.24 509.096 -562.49 520.613 -550.97 C 532.11 -539.48 537.862 -525.63 537.868 -509.42 C 537.449 -493.66 531.678 -480.24 520.598 -469.16 C 509.516 -458.07 496.108 -452.31 480.332 -451.89 Z" style=""/>
</svg>