<?xml version="1.0" encoding="utf-8"?>
<svg xmlns="http://www.w3.org/2000/svg" height="48" viewBox="0 -960 960 960" width="48">
  <path d="M 797 -95 C 715.6 -95 633.25 -114.333 549.95 -153 C 466.65 -191.667 389.5 -246.5 318.5 -317.5 C 247.5 -388.5 192.5 -465.82 153.5 -549.46 C 114.5 -633.1 95 -715.28 95 -796 C 95 -815.62 101.667 -832.19 115 -845.71 C 128.333 -859.237 144.667 -866 164 -866 L 304 -866 C 324.667 -866 341.5 -860.5 354.5 -849.5 C 367.5 -838.5 376.333 -822.667 381 -802 L 407.93 -692.36 C 410.643 -674.787 410.167 -659.333 406.5 -646 C 402.833 -632.667 395.59 -621.257 384.77 -611.77 L 281 -517 C 295.667 -493 311.333 -470.333 328 -449 C 344.667 -427.667 363.667 -407 385 -387 C 407 -363.667 429.167 -343.333 451.5 -326 C 473.833 -308.667 496.667 -294 520 -282 L 620 -383 C 631.333 -395 644.05 -403 658.15 -407 C 672.25 -411 687.2 -411 703 -407 L 802 -384 C 822.667 -378 838.5 -368.32 849.5 -354.96 C 860.5 -341.593 866 -324.94 866 -305 L 866 -164 C 866 -144.287 859.213 -127.857 845.64 -114.71 C 832.073 -101.57 815.86 -95 797 -95 Z M 234 -600 Z M 606 -233 Z"/>
</svg>