<?xml version="1.0" encoding="utf-8"?>
<svg xmlns="http://www.w3.org/2000/svg" height="48" viewBox="0 -960 960 960" width="48">
  <path d="M 134 -285 L 41 -378 C 30.333 -388.667 25 -402.667 25 -420 C 25 -437.333 30.333 -451.667 41 -463 C 99 -525 164.167 -571.833 236.5 -603.5 C 308.833 -635.167 390 -651 480 -651 C 570 -651 651.5 -635.333 724.5 -604 C 797.5 -572.667 862.667 -525.667 920 -463 C 930 -451.667 935 -437.333 935 -420 C 935 -402.667 930 -388.667 920 -378 L 826 -285 C 818.667 -277 807 -272.833 791 -272.5 C 775 -272.167 761.667 -276 751 -284 L 647 -361 C 640.333 -365.333 635.5 -370.833 632.5 -377.5 C 629.5 -384.167 628 -391.333 628 -399 L 628 -545.19 C 602.667 -554.397 577.9 -560.667 553.7 -564 C 529.507 -567.333 504.94 -569 480 -569 C 455.06 -569 430.493 -567.333 406.3 -564 C 382.1 -560.667 357.333 -554.397 332 -545.19 L 332 -399 C 332 -391.333 330.5 -384.167 327.5 -377.5 C 324.5 -370.833 320 -365.333 314 -361 L 208.81 -283.72 C 198.27 -275.907 185.27 -271.973 169.81 -271.92 C 154.357 -271.873 142.42 -276.233 134 -285 Z M 244 -513 Z M 711 -517 Z"/>
</svg>