<?xml version="1.0" encoding="utf-8"?>
<svg xmlns="http://www.w3.org/2000/svg" height="48" viewBox="0 -960 960 960" width="48">
  <path d="M 48.243 -126.28 L 48.243 -385.28 C 48.243 -398.37 52.786 -409.64 61.873 -419.09 C 70.953 -428.55 82.41 -433.28 96.243 -433.28 L 356.243 -433.28 C 369.41 -433.28 380.536 -428.55 389.623 -419.09 C 398.703 -409.64 403.243 -398.37 403.243 -385.28 L 403.243 -126.28 C 403.243 -112.45 398.703 -101 389.623 -91.915 C 380.536 -82.828 369.41 -78.285 356.243 -78.285 L 96.243 -78.285 C 82.41 -78.285 70.953 -82.828 61.873 -91.915 C 52.786 -101 48.243 -112.45 48.243 -126.28 Z M 143.243 -173.28 L 309.243 -173.28 L 309.243 -338.28 L 143.243 -338.28 L 143.243 -173.28 Z M 247.243 -590.28 L 427.243 -880.28 C 431.91 -887.62 437.726 -893.12 444.693 -896.78 C 451.653 -900.45 459.153 -902.28 467.193 -902.28 C 475.226 -902.28 482.743 -900.45 489.743 -896.78 C 496.743 -893.12 502.576 -887.62 507.243 -880.28 L 688.243 -590.28 C 692.91 -582.04 695.076 -573.64 694.743 -565.1 C 694.41 -556.55 692.41 -548.62 688.743 -541.28 C 685.076 -533.95 679.51 -528.12 672.043 -523.78 C 664.576 -519.45 656.31 -517.28 647.243 -517.28 L 287.243 -517.28 C 278.063 -517.28 269.696 -519.42 262.143 -523.71 C 254.59 -527.99 249.123 -533.85 245.743 -541.28 C 242.076 -548.58 240.076 -556.44 239.743 -564.88 C 239.41 -573.31 241.91 -581.78 247.243 -590.28 Z M 372.243 -612.28 L 562.243 -612.28 L 467.243 -767.28 L 372.243 -612.28 Z M 491.072 -91.121 L 491.072 -217.3 C 491.072 -223.68 493.286 -229.17 497.713 -233.77 C 502.136 -238.38 507.718 -240.68 514.457 -240.68 L 641.123 -240.68 C 647.537 -240.68 652.958 -238.38 657.385 -233.77 C 661.808 -229.17 664.02 -223.68 664.02 -217.3 L 664.02 -91.121 C 664.02 -84.383 661.808 -78.8 657.385 -74.377 C 652.958 -69.953 647.537 -67.736 641.123 -67.736 L 514.457 -67.736 C 507.718 -67.736 502.136 -69.953 497.713 -74.377 C 493.286 -78.8 491.072 -84.383 491.072 -91.121 Z M 537.354 -114.02 L 618.225 -114.02 L 618.225 -194.4 L 537.354 -194.4 L 537.354 -114.02 Z M 588.02 -317.17 L 675.712 -458.45 C 677.986 -462.02 680.819 -464.7 684.213 -466.49 C 687.604 -468.28 691.258 -469.17 695.175 -469.17 C 699.088 -469.17 702.75 -468.28 706.161 -466.49 C 709.571 -464.7 712.412 -462.02 714.686 -458.45 L 802.865 -317.17 C 805.139 -313.16 806.194 -309.06 806.032 -304.9 C 805.869 -300.74 804.895 -296.87 803.109 -293.3 C 801.322 -289.73 798.61 -286.88 794.973 -284.77 C 791.335 -282.66 787.308 -281.61 782.891 -281.61 L 607.507 -281.61 C 603.035 -281.61 598.959 -282.65 595.279 -284.73 C 591.6 -286.82 588.936 -289.68 587.29 -293.3 C 585.503 -296.85 584.529 -300.68 584.367 -304.79 C 584.204 -308.9 585.422 -313.03 588.02 -317.17 Z M 648.917 -327.89 L 741.481 -327.89 L 695.199 -403.4 L 648.917 -327.89 Z M 762.883 -188.42 L 803.18 -253.34 C 804.228 -255 805.526 -256.21 807.088 -257.06 C 808.647 -257.87 810.326 -258.27 812.125 -258.27 C 813.921 -258.27 815.604 -257.87 817.171 -257.06 C 818.739 -256.21 820.046 -255 821.089 -253.34 L 861.609 -188.42 C 862.656 -186.59 863.14 -184.7 863.064 -182.78 C 862.993 -180.9 862.545 -179.11 861.721 -177.46 C 860.902 -175.84 859.657 -174.5 857.983 -173.56 C 856.312 -172.57 854.463 -172.08 852.431 -172.08 L 771.838 -172.08 C 769.783 -172.08 767.912 -172.57 766.219 -173.56 C 764.531 -174.5 763.304 -175.79 762.548 -177.46 C 761.728 -179.11 761.281 -180.86 761.205 -182.73 C 761.133 -184.66 761.693 -186.54 762.883 -188.42 Z M 707.848 -74.06 L 707.848 -132.04 C 707.848 -135 708.864 -137.5 710.901 -139.61 C 712.934 -141.76 715.499 -142.79 718.593 -142.79 L 776.799 -142.79 C 779.749 -142.79 782.238 -141.76 784.271 -139.61 C 786.304 -137.5 787.321 -135 787.321 -132.04 L 787.321 -74.06 C 787.321 -70.971 786.304 -68.418 784.271 -66.406 C 782.238 -64.346 779.749 -63.318 776.799 -63.318 L 718.593 -63.318 C 715.499 -63.318 712.934 -64.346 710.901 -66.406 C 708.864 -68.418 707.848 -70.971 707.848 -74.06 Z M 867.13 -57.72 C 854.593 -57.72 844.044 -62.017 835.488 -70.659 C 826.936 -79.253 822.656 -89.82 822.656 -102.31 C 822.656 -114.85 826.928 -125.42 835.466 -134.06 C 844 -142.75 854.562 -147.04 867.143 -147.04 C 879.72 -147.04 890.304 -142.75 898.885 -134.1 C 907.464 -125.46 911.756 -114.85 911.756 -102.31 C 911.756 -89.771 907.454 -79.209 898.841 -70.611 C 890.237 -62.017 879.666 -57.72 867.13 -57.72 Z"/>
</svg>