<?xml version="1.0" encoding="UTF-8" standalone="no"?>
<!DOCTYPE svg PUBLIC "-//W3C//DTD SVG 1.1//EN" "http://www.w3.org/Graphics/SVG/1.1/DTD/svg11.dtd">
<svg width="100%" height="100%" viewBox="0 0 48 48" version="1.1" xmlns="http://www.w3.org/2000/svg" xmlns:xlink="http://www.w3.org/1999/xlink" xml:space="preserve" xmlns:serif="http://www.serif.com/" style="fill-rule:evenodd;clip-rule:evenodd;stroke-linejoin:round;stroke-miterlimit:2;">
    <g transform="matrix(4.85723e-17,-0.0386605,0.0386605,4.85723e-17,42.541,40.0351)">
        <path d="M945,-480C945,-439.333 937.333,-400.5 922,-363.5C906.667,-326.5 884.333,-293.667 855,-265C819.667,-229.667 778.333,-204.5 731,-189.5C683.667,-174.5 636,-172.667 588,-184C574.667,-186 564,-192 556,-202C548,-212 545,-223.333 547,-236C548.333,-248.667 553.833,-259.167 563.5,-267.5C573.167,-275.833 584.667,-279 598,-277C632.667,-269 667,-269.833 701,-279.5C735,-289.167 764.667,-307 790,-333C809.333,-352.333 824.167,-374.667 834.5,-400C844.833,-425.333 850,-452 850,-480C850,-508 844.833,-534.833 834.5,-560.5C824.167,-586.167 809.333,-609 790,-629C764.667,-654.333 735,-671.833 701,-681.5C667,-691.167 632.667,-691.667 598,-683C584.667,-681 573.167,-684.167 563.5,-692.5C553.833,-700.833 548.333,-711.333 547,-724C545,-736.667 548,-748 556,-758C564,-768 574.667,-773.667 588,-775C636,-785.667 683.667,-783.833 731,-769.5C778.333,-755.167 819.667,-730.333 855,-695C884.333,-666.333 906.667,-633.5 922,-596.5C937.333,-559.5 945,-520.667 945,-480ZM36.104,-1003.91C71.323,-1024.24 108.787,-1037.02 148.496,-1042.24C188.206,-1047.46 227.807,-1044.53 267.3,-1033.46C315.566,-1020.53 358.028,-997.319 394.685,-963.827C431.342,-930.335 456.763,-889.971 470.948,-842.735C475.882,-830.188 476.019,-817.951 471.359,-806.022C466.699,-794.094 458.384,-785.83 446.414,-781.228C434.778,-776.05 422.935,-775.563 410.885,-779.768C398.834,-783.973 390.342,-792.349 385.407,-804.896C375.002,-838.918 357.114,-868.235 331.742,-892.846C306.371,-917.458 276.093,-934.233 240.91,-943.172C214.5,-950.249 187.742,-951.928 160.636,-948.211C133.53,-944.493 107.853,-935.634 83.604,-921.634C59.355,-907.634 38.7,-889.743 21.639,-867.961C4.578,-846.178 -7.78,-821.916 -15.434,-795.172C-24.706,-760.566 -25.028,-726.124 -16.4,-691.846C-7.772,-657.568 8.962,-627.584 33.801,-601.896C42.2,-591.349 45.207,-579.806 42.824,-567.268C40.44,-554.729 34.097,-544.716 23.794,-537.228C13.824,-529.163 2.509,-526.094 -10.151,-528.022C-22.811,-529.951 -33.052,-536.355 -40.873,-547.235C-74.111,-583.471 -96.357,-625.668 -107.61,-673.827C-118.864,-721.985 -118.024,-770.198 -105.091,-818.464C-94.932,-858.201 -77.664,-893.959 -53.288,-925.738C-28.912,-957.517 0.886,-983.573 36.104,-1003.91ZM36.638,44.737C1.419,24.404 -28.378,-1.652 -52.754,-33.431C-77.131,-65.21 -94.398,-100.968 -104.558,-140.705C-117.491,-188.971 -118.619,-237.35 -107.943,-285.842C-97.266,-334.334 -75.021,-376.531 -41.206,-412.434C-32.807,-422.981 -22.278,-429.218 -9.617,-431.146C3.043,-433.075 14.358,-430.006 24.328,-421.941C34.631,-414.453 40.974,-404.44 43.357,-391.901C45.741,-379.363 42.733,-367.82 34.335,-357.273C10.073,-331.251 -6.372,-301.101 -15,-266.823C-23.629,-232.545 -23.018,-197.936 -13.168,-162.997C-6.092,-136.587 5.833,-112.574 22.606,-90.958C39.378,-69.343 59.889,-51.535 84.138,-37.535C108.386,-23.535 134.208,-14.593 161.603,-10.708C188.997,-6.824 216.188,-8.253 243.176,-14.997C277.781,-24.269 307.77,-41.211 333.142,-65.823C358.513,-90.434 376.113,-119.918 385.941,-154.273C390.875,-166.82 399.368,-175.196 411.418,-179.401C423.468,-183.606 435.312,-183.119 446.948,-177.941C458.918,-173.339 467.233,-165.075 471.893,-153.146C476.553,-141.218 476.127,-129.147 470.615,-116.934C455.853,-70.031 430.432,-29.667 394.352,4.158C358.272,37.983 316.099,61.362 267.833,74.295C228.34,85.365 188.739,88.29 149.03,83.069C109.32,77.848 71.856,65.071 36.638,44.737ZM147.867,-442.598C171.903,-432.848 194.824,-426.625 220.467,-428.413C245.839,-430.182 269.834,-437.305 292.462,-449.742C301.855,-454.904 313.261,-454.792 322.551,-449.445C331.84,-444.098 337.667,-434.291 337.921,-423.576C338.528,-397.946 344.353,-373.772 355.435,-351.062C366.739,-327.899 384.792,-309.356 405.37,-293.249L416.45,-289.04C425.319,-286.017 432.322,-279.107 435.462,-270.278C438.603,-261.45 437.537,-251.67 432.57,-243.725C429.551,-238.897 413.106,-223.194 406.065,-219.991L405.091,-219.568C371.127,-205.513 336.081,-199.769 299.963,-202.287C263.943,-204.798 229.961,-215.238 198.036,-233.669C166.112,-252.101 140.08,-276.31 119.895,-306.249C99.655,-336.27 87.107,-369.492 82.297,-405.934L82.176,-406.988C81.443,-414.551 86.344,-437.353 89.157,-442.631C93.471,-450.726 101.181,-456.467 110.173,-458.28C119.165,-460.093 128.496,-457.789 135.61,-451.998L147.867,-442.598ZM469.147,-332.016C465.573,-357.707 459.501,-380.668 445.131,-401.982C430.913,-423.071 412.747,-440.289 390.663,-453.667C381.495,-459.22 375.889,-469.155 375.875,-479.873C375.861,-490.592 381.441,-500.541 390.594,-506.118C412.486,-519.459 430.509,-536.591 444.635,-557.544C459.043,-578.914 466.075,-603.82 469.735,-629.695L467.84,-641.395C466.024,-650.587 468.507,-660.106 474.582,-667.24C480.658,-674.375 489.66,-678.342 499.024,-678.012C504.714,-677.812 526.536,-671.422 532.831,-666.925L533.684,-666.294C562.838,-643.907 585.335,-616.429 601.214,-583.891C617.05,-551.441 625,-516.791 625,-479.928C625,-443.065 617.05,-408.416 601.214,-375.966C585.335,-343.428 562.838,-315.949 533.684,-293.563L532.831,-292.931C526.648,-288.515 504.451,-281.358 498.473,-281.155C489.305,-280.844 480.479,-284.65 474.413,-291.531C468.347,-298.412 465.677,-307.645 467.134,-316.702L469.147,-332.016ZM404.055,-664.483C383.593,-648.543 366.744,-631.804 355.47,-608.702C344.316,-585.845 338.488,-561.503 337.944,-535.689C337.719,-524.973 331.918,-515.151 322.643,-509.779C313.367,-504.408 301.961,-504.265 292.554,-509.403C270.055,-521.692 246.207,-528.734 220.998,-530.492C195.287,-532.284 170.202,-525.921 145.963,-516.153L136.778,-508.663C129.726,-502.493 120.24,-499.884 111.024,-501.578C101.808,-503.273 93.872,-509.085 89.475,-517.36C86.803,-522.388 81.426,-544.481 82.173,-552.181L82.294,-553.235C87.104,-589.677 99.652,-622.899 119.892,-652.92C140.076,-682.859 166.108,-707.068 198.033,-725.5C229.957,-743.931 263.939,-754.371 299.959,-756.882C336.078,-759.4 371.123,-753.656 405.088,-739.601L406.061,-739.178C412.977,-736.032 430.274,-720.386 433.438,-715.311C438.292,-707.527 439.409,-697.98 436.483,-689.286C433.557,-680.593 426.896,-673.663 418.324,-670.398L404.055,-664.483Z"/>
    </g>
</svg>
