<?xml version="1.0" encoding="utf-8"?>
<svg viewBox="0 0 22 22" xmlns="http://www.w3.org/2000/svg">
  <path d="M 14 7.5 L 14 11.789 C 14.742 11.304 15.248 11.024 16.5 11 C 17.707 11.022 18.895 11.531 19.682 12.318 C 20.469 13.105 21 14.293 21 15.5 C 21 16.707 20.469 17.895 19.682 18.682 C 18.895 19.469 17.706 19.978 16.499 20 C 15.247 19.976 14.742 19.696 14 19.211 L 14 19.5 C 14 19.776 13.776 20 13.5 20 L 12.5 20 C 12.224 20 12 19.776 12 19.5 L 12 7.5 C 12 7.224 12.224 7 12.5 7 L 13.5 7 C 13.776 7 14 7.224 14 7.5 Z M 8 11.789 L 8 11.5 C 8 11.224 8.224 11 8.5 11 L 9.5 11 C 9.776 11 10 11.224 10 11.5 L 10 19.5 C 10 19.776 9.776 20 9.5 20 L 8.5 20 C 8.224 20 8 19.776 8 19.5 L 8 19.211 C 7.258 19.696 6.752 19.976 5.5 20 C 4.293 19.978 3.105 19.469 2.318 18.682 C 1.531 17.895 1 16.707 1 15.5 C 1 14.293 1.531 13.105 2.318 12.318 C 3.105 11.531 4.294 11.022 5.501 11 C 6.753 11.024 7.258 11.304 8 11.789 Z M 3.732 13.732 C 3.252 14.212 3 14.774 3 15.5 C 3 16.226 3.252 16.788 3.732 17.268 C 4.212 17.748 4.774 18 5.5 18 C 6.226 18 6.788 17.748 7.268 17.268 C 7.748 16.788 8 16.226 8 15.5 C 8 14.774 7.748 14.212 7.268 13.732 C 6.788 13.252 6.226 13 5.5 13 C 4.774 13 4.212 13.252 3.732 13.732 Z M 14.732 13.732 C 14.252 14.212 14 14.774 14 15.5 C 14 16.226 14.252 16.788 14.732 17.268 C 15.212 17.748 15.774 18 16.5 18 C 17.226 18 17.788 17.748 18.268 17.268 C 18.748 16.788 19 16.226 19 15.5 C 19 14.774 18.748 14.212 18.268 13.732 C 17.788 13.252 17.226 13 16.5 13 C 15.774 13 15.212 13.252 14.732 13.732 Z M 19.9 2.8 L 16.9 6.8 C 16.806 6.926 16.657 7 16.5 7 C 16.343 7 16.194 6.926 16.1 6.8 L 13.1 2.8 C 12.986 2.648 12.968 2.446 13.053 2.276 C 13.137 2.107 13.311 2 13.5 2 L 19.5 2 C 19.689 2 19.863 2.107 19.947 2.276 C 20.032 2.446 20.014 2.648 19.9 2.8 Z"/>
</svg>