<?xml version="1.0" encoding="utf-8"?>
<svg xmlns="http://www.w3.org/2000/svg" height="48" viewBox="0 -960 960 960" width="48">
  <path d="M 62 -107 L 62 -366 C 62 -379.087 66.543 -390.357 75.63 -399.81 C 84.71 -409.27 96.167 -414 110 -414 L 370 -414 C 383.167 -414 394.293 -409.27 403.38 -399.81 C 412.46 -390.357 417 -379.087 417 -366 L 417 -107 C 417 -93.167 412.46 -81.71 403.38 -72.63 C 394.293 -63.543 383.167 -59 370 -59 L 110 -59 C 96.167 -59 84.71 -63.543 75.63 -72.63 C 66.543 -81.71 62 -93.167 62 -107 Z M 157 -154 L 323 -154 L 323 -319 L 157 -319 L 157 -154 Z M 261 -571 L 441 -861 C 445.667 -868.333 451.483 -873.833 458.45 -877.5 C 465.41 -881.167 472.91 -883 480.95 -883 C 488.983 -883 496.5 -881.167 503.5 -877.5 C 510.5 -873.833 516.333 -868.333 521 -861 L 702 -571 C 706.667 -562.753 708.833 -554.357 708.5 -545.81 C 708.167 -537.27 706.167 -529.333 702.5 -522 C 698.833 -514.667 693.267 -508.833 685.8 -504.5 C 678.333 -500.167 670.067 -498 661 -498 L 301 -498 C 291.82 -498 283.453 -500.14 275.9 -504.42 C 268.347 -508.707 262.88 -514.567 259.5 -522 C 255.833 -529.293 253.833 -537.157 253.5 -545.59 C 253.167 -554.03 255.667 -562.5 261 -571 Z M 386 -593 L 576 -593 L 481 -748 L 386 -593 Z M 619.932 -306.715 L 702.646 -439.975 C 704.797 -443.385 707.462 -445.855 710.669 -447.605 C 713.868 -449.275 717.314 -450.085 721.008 -450.085 C 724.694 -450.085 728.149 -449.275 731.366 -447.605 C 734.583 -445.855 737.266 -443.385 739.408 -439.975 L 822.581 -306.715 C 824.731 -302.955 825.724 -299.085 825.568 -295.145 C 825.421 -291.275 824.502 -287.605 822.811 -284.215 C 821.129 -280.905 818.574 -278.145 815.137 -276.215 C 811.709 -274.185 807.913 -273.185 803.741 -273.185 L 638.313 -273.185 C 634.095 -273.185 630.253 -274.185 626.779 -276.215 C 623.314 -278.145 620.796 -280.795 619.243 -284.215 C 617.561 -287.605 616.642 -291.195 616.486 -295.045 C 616.339 -299.005 617.488 -302.855 619.932 -306.715 Z M 506.963 -71.98 L 506.963 -191 C 506.963 -197.06 509.049 -202.21 513.231 -206.53 C 517.403 -210.94 522.669 -213.06 529.02 -213.06 L 648.495 -213.06 C 654.552 -213.06 659.661 -210.94 663.834 -206.53 C 668.006 -202.21 670.093 -197.06 670.093 -191 L 670.093 -71.98 C 670.093 -65.639 668.006 -60.4 663.834 -56.264 C 659.661 -52.037 654.552 -49.923 648.495 -49.923 L 529.02 -49.923 C 522.669 -49.923 517.403 -52.037 513.231 -56.264 C 509.049 -60.4 506.963 -65.639 506.963 -71.98 Z M 833.913 -38.435 C 808.179 -38.435 786.527 -47.258 768.964 -64.995 C 751.41 -82.641 742.624 -104.33 742.624 -129.97 C 742.624 -155.71 751.392 -177.4 768.918 -195.13 C 786.435 -212.97 808.115 -221.78 833.94 -221.78 C 859.756 -221.78 881.482 -212.97 899.091 -195.22 C 916.709 -177.49 925.513 -155.71 925.513 -129.97 C 925.513 -104.23 916.681 -82.549 899.008 -64.903 C 881.344 -47.258 859.646 -38.435 833.913 -38.435 Z"/>
</svg>