<?xml version="1.0" encoding="utf-8"?>
<svg xmlns="http://www.w3.org/2000/svg" height="48" viewBox="0 -960 960 960" width="48">
  <path d="M 155.939 -140.6 C 140.792 -140.6 128.059 -145.81 117.741 -156.22 C 107.424 -166.63 102.265 -179.38 102.265 -194.49 L 102.265 -520.7 C 102.265 -603.62 131.212 -674.22 189.104 -732.5 C 246.997 -790.76 317.786 -819.9 401.473 -819.9 C 484.394 -819.9 554.993 -790.76 613.268 -732.5 C 671.542 -674.22 700.68 -603.62 700.68 -520.7 L 700.68 -323.51 L 766.024 -388.87 C 776.723 -399.56 789.143 -404.92 803.282 -404.92 C 817.42 -404.92 830.222 -399.56 841.686 -388.87 C 852.385 -378.17 857.735 -365.56 857.735 -351.04 C 857.735 -336.51 852.385 -323.9 841.686 -313.2 L 684.63 -157.29 C 679.28 -151.94 673.307 -147.75 666.712 -144.69 C 660.109 -141.63 653.039 -140.09 645.504 -140.09 C 638.726 -140.09 631.897 -141.63 625.018 -144.69 C 618.14 -147.75 612.408 -151.94 607.822 -157.29 L 450.767 -313.2 C 440.068 -323.9 434.718 -336.32 434.718 -350.45 C 434.718 -364.6 440.45 -377.39 451.914 -388.87 C 462.613 -399.56 474.65 -405.11 488.025 -405.49 C 501.4 -405.87 513.819 -400.7 525.282 -390 L 591.773 -323.51 L 591.773 -520.7 C 591.773 -573.26 573.179 -618.13 535.99 -655.27 C 498.801 -692.42 453.9 -711 401.289 -711 C 347.913 -711 302.692 -692.42 265.626 -655.27 C 228.559 -618.13 210.026 -573.26 210.026 -520.7 L 210.026 -194.49 C 210.026 -179.38 204.798 -166.63 194.343 -156.22 C 183.896 -145.81 171.094 -140.6 155.939 -140.6 Z" style=""/>
</svg>