<?xml version="1.0" encoding="utf-8"?>
<svg xmlns="http://www.w3.org/2000/svg" height="48" viewBox="0 -960 960 960" width="48">
  <path d="M 311 -263 C 297.833 -263 286.71 -267.56 277.63 -276.68 C 268.543 -285.793 264 -296.96 264 -310.18 C 264 -323.393 268.543 -334.5 277.63 -343.5 C 286.71 -352.5 297.833 -357 311 -357 L 507 -357 C 497.667 -367 489.333 -379 482 -393 C 474.667 -407 470.333 -420.333 469 -433 L 391 -433 C 377.833 -433 366.71 -437.56 357.63 -446.68 C 348.543 -455.793 344 -466.96 344 -480.18 C 344 -493.393 348.543 -504.5 357.63 -513.5 C 366.71 -522.5 377.833 -527 391 -527 L 469 -527 C 470.333 -539 474.5 -552 481.5 -566 C 488.5 -580 497 -592.333 507 -603 L 150 -603 C 136.833 -603 125.71 -607.56 116.63 -616.68 C 107.543 -625.793 103 -636.96 103 -650.18 C 103 -663.393 107.543 -674.5 116.63 -683.5 C 125.71 -692.5 136.833 -697 150 -697 L 680 -697 C 740 -697 791.167 -675.833 833.5 -633.5 C 875.833 -591.167 897 -540 897 -480 C 897 -420 875.833 -368.833 833.5 -326.5 C 791.167 -284.167 740 -263 680 -263 L 311 -263 Z M 110 -433 C 96.833 -433 85.71 -437.56 76.63 -446.68 C 67.543 -455.793 63 -466.96 63 -480.18 C 63 -493.393 67.543 -504.5 76.63 -513.5 C 85.71 -522.5 96.833 -527 110 -527 L 267 -527 C 280.167 -527 291.293 -522.44 300.38 -513.32 C 309.46 -504.207 314 -493.04 314 -479.82 C 314 -466.607 309.46 -455.5 300.38 -446.5 C 291.293 -437.5 280.167 -433 267 -433 L 110 -433 Z M 150 -263 C 136.833 -263 125.71 -267.56 116.63 -276.68 C 107.543 -285.793 103 -296.96 103 -310.18 C 103 -323.393 107.543 -334.5 116.63 -343.5 C 125.71 -352.5 136.833 -357 150 -357 L 187 -357 C 200.167 -357 211.293 -352.44 220.38 -343.32 C 229.46 -334.207 234 -323.04 234 -309.82 C 234 -296.607 229.46 -285.5 220.38 -276.5 C 211.293 -267.5 200.167 -263 187 -263 L 150 -263 Z M 680 -480 Z"/>
</svg>