<?xml version="1.0" encoding="utf-8"?>
<svg viewBox="0 0 22 22" xmlns="http://www.w3.org/2000/svg">
  <path d="M 9.903 2.52 C 9.924 2.516 10.545 3 10.545 3 L 10.545 4.184 C 10.545 4.46 10.321 4.684 10.045 4.684 C 9.782 4.681 9.661 4.7 9.554 4.745 C 9.472 4.78 9.496 4.757 9.456 4.846 C 9.345 5.089 9.344 5.53 9.344 6.395 L 9.344 8.428 C 9.343 8.868 9.283 9.474 9.086 10.011 C 8.888 10.546 8.739 10.71 8.442 11.011 C 8.737 11.312 8.888 11.473 9.086 12.007 C 9.283 12.544 9.343 13.15 9.344 13.59 L 9.344 15.605 C 9.344 16.47 9.345 16.911 9.456 17.154 C 9.496 17.243 9.472 17.22 9.554 17.255 C 9.661 17.3 9.782 17.319 10.045 17.316 C 10.321 17.316 10.545 17.54 10.545 17.816 L 10.545 19 C 10.545 19.276 10.321 19.5 10.045 19.5 C 9.089 19.491 8.261 19.264 7.767 18.778 C 7.273 18.291 7.034 17.463 7.023 16.49 L 7.023 14.049 C 7.023 13.495 7.016 12.965 6.903 12.566 C 6.849 12.378 6.812 12.301 6.731 12.221 C 6.653 12.145 6.654 12.124 6.508 12.145 L 6 12.145 C 5.724 12.145 5.5 11.921 5.5 11.645 L 5.5 10.355 C 5.5 10.079 5.724 9.855 6 9.855 L 6.508 9.855 C 6.654 9.876 6.653 9.855 6.731 9.779 C 6.812 9.699 6.849 9.622 6.903 9.434 C 7.016 9.035 7.023 8.505 7.023 7.951 L 7.023 5.51 C 7.034 4.537 7.273 3.709 7.767 3.222 C 8.019 2.975 8.387 2.769 8.76 2.659 C 9.12 2.553 9.903 2.52 9.903 2.52 Z M 11.439 3 L 11.939 2.5 C 12.895 2.509 13.725 2.735 14.223 3.221 C 14.722 3.707 14.966 4.536 14.977 5.51 L 14.977 7.951 C 14.976 8.501 14.991 9.028 15.111 9.428 C 15.167 9.617 15.206 9.697 15.29 9.778 C 15.369 9.855 15.368 9.876 15.51 9.855 L 16 9.855 C 16.276 9.855 16.5 10.079 16.5 10.355 L 16.5 11.645 C 16.5 11.921 16.276 12.145 16 12.145 L 15.51 12.145 C 15.368 12.124 15.369 12.145 15.29 12.222 C 15.206 12.303 15.167 12.383 15.111 12.572 C 14.991 12.972 14.976 13.499 14.977 14.049 L 14.977 16.49 C 14.966 17.464 14.722 18.293 14.223 18.779 C 13.725 19.265 12.895 19.491 11.939 19.5 C 11.663 19.5 11.439 19.276 11.439 19 L 11.439 17.816 C 11.439 17.54 11.663 17.316 11.939 17.316 C 12.203 17.319 12.326 17.3 12.434 17.254 C 12.519 17.219 12.497 17.239 12.539 17.15 C 12.652 16.906 12.656 16.468 12.656 15.605 L 12.656 13.59 C 12.657 13.15 12.717 12.544 12.914 12.007 C 13.112 11.473 13.261 11.309 13.558 11.008 C 13.263 10.707 13.112 10.546 12.914 10.011 C 12.717 9.474 12.657 8.868 12.656 8.428 L 12.656 6.395 C 12.656 5.532 12.652 5.094 12.539 4.85 C 12.497 4.761 12.519 4.782 12.434 4.746 C 12.326 4.7 12.203 4.681 11.939 4.684 C 11.663 4.684 11.439 4.46 11.439 4.184 L 11.439 3 Z"/>
</svg>