<?xml version="1.0" encoding="utf-8"?>
<svg xmlns="http://www.w3.org/2000/svg" height="48" viewBox="0 -960 960 960" width="48">
  <path d="M 479.9 -55 C 381.46 -55 299.367 -88.72 233.62 -156.16 C 167.873 -223.607 135 -307.553 135 -408 C 135 -444 142.167 -480.833 156.5 -518.5 C 170.833 -556.167 191.167 -594.5 217.5 -633.5 C 243.833 -672.5 275.333 -712 312 -752 C 348.667 -792 389 -832 433 -872 C 440.333 -878 447.933 -882.333 455.8 -885 C 463.673 -887.667 471.78 -889 480.12 -889 C 488.46 -889 496.523 -887.667 504.31 -885 C 512.103 -882.333 519.667 -878 527 -872 C 571 -832 611.333 -792 648 -752 C 684.667 -712 716.167 -672.5 742.5 -633.5 C 768.833 -594.5 789.333 -556.167 804 -518.5 C 818.667 -480.833 826 -444 826 -408 C 826 -307.553 792.927 -223.607 726.78 -156.16 C 660.633 -88.72 578.34 -55 479.9 -55 Z M 479.93 -149 C 491.752 -149 503.246 -149.664 514.412 -150.991 L 514.412 -218.69 L 444.75 -218.69 L 444.75 -151.075 C 456.134 -149.692 467.861 -149 479.93 -149 Z M 659.5 -222.94 C 679.014 -243.12 694.533 -265.376 706.059 -289.71 L 656.288 -289.71 L 656.288 -219.674 C 657.365 -220.75 658.435 -221.839 659.5 -222.94 Z M 667 -578 C 624.333 -642 562 -711.667 480 -787 C 398 -711.667 335.667 -642 293 -578 C 260.114 -528.671 239.901 -483.698 232.363 -443.082 L 232.363 -361.528 C 232.412 -361.205 232.461 -360.883 232.51 -360.56 L 302.876 -360.56 L 302.876 -289.71 L 253.917 -289.71 C 265.431 -265.376 280.935 -243.12 300.43 -222.94 C 301.382 -221.955 302.338 -220.979 303.3 -220.014 L 303.3 -290.05 L 373.389 -290.05 L 373.389 -360.56 L 444.75 -360.56 L 444.75 -290.05 L 514.412 -290.05 L 514.412 -218.69 L 584.925 -218.69 L 584.925 -170.087 C 610.709 -181.585 634.166 -197.786 655.298 -218.69 L 585.351 -218.69 L 585.351 -290.05 L 656.288 -290.05 L 656.288 -360.56 L 584.925 -360.56 L 584.925 -431.92 L 656.288 -431.92 L 656.288 -360.9 L 726.8 -360.9 L 726.8 -447.358 C 718.67 -486.848 698.737 -530.395 667 -578 Z M 444.75 -360.56 L 444.75 -431.92 L 514.412 -431.92 L 514.412 -360.56 Z M 373.389 -218.69 L 304.628 -218.69 C 325.311 -198.21 348.232 -182.244 373.389 -170.792 Z M 514.412 -290.05 L 514.412 -360.56 L 584.925 -360.56 L 584.925 -290.05 Z M 302.876 -360.56 L 302.876 -431.92 L 373.389 -431.92 L 373.389 -360.56 Z M 373.66 -218.69 L 444.037 -218.69 L 444.037 -290.05 L 373.66 -290.05 Z"/>
</svg>