<?xml version="1.0" encoding="utf-8"?>
<svg xmlns="http://www.w3.org/2000/svg" height="48" viewBox="0 -960 960 960" width="48">
  <path d="M 480 -55 C 381.627 -55 299.533 -88.747 233.72 -156.24 C 167.907 -223.74 135 -307.66 135 -408 C 135 -444 142.167 -480.833 156.5 -518.5 C 170.833 -556.167 191.167 -594.5 217.5 -633.5 C 243.833 -672.5 275.333 -712 312 -752 C 348.667 -792 389 -832 433 -872 C 440.333 -878 447.873 -882.333 455.62 -885 C 463.36 -887.667 471.527 -889 480.12 -889 C 488.707 -889 496.833 -887.667 504.5 -885 C 512.167 -882.333 519.667 -878 527 -872 C 571 -832 611.333 -792 648 -752 C 684.667 -712 716.167 -672.5 742.5 -633.5 C 768.833 -594.5 789.333 -556.167 804 -518.5 C 818.667 -480.833 826 -444 826 -408 C 826 -307.66 792.927 -223.74 726.78 -156.24 C 660.633 -88.747 578.373 -55 480 -55 Z M 481 -212 C 493.667 -212 503.833 -214.643 511.5 -219.93 C 519.167 -225.217 523 -232.24 523 -241 C 523 -250.333 519.333 -257.833 512 -263.5 C 504.667 -269.167 494 -272 480 -272 C 448.667 -272 421.833 -280.5 399.5 -297.5 C 377.167 -314.5 362.333 -341.333 355 -378 C 353.667 -384.667 350.167 -390.667 344.5 -396 C 338.833 -401.333 332 -404 324 -404 C 313.46 -404 305.657 -400.5 300.59 -393.5 C 295.53 -386.5 293.667 -379 295 -371 C 305 -314.333 328.723 -273.667 366.17 -249 C 403.617 -224.333 441.893 -212 481 -212 Z"/>
</svg>