<?xml version="1.0" encoding="utf-8"?>
<svg xmlns="http://www.w3.org/2000/svg" height="48" viewBox="0 -960 960 960" width="48">
  <path d="M 480 -55 C 421.973 -55 367.133 -66.167 315.48 -88.5 C 263.827 -110.833 218.667 -141.333 180 -180 C 141.333 -218.667 110.833 -263.82 88.5 -315.46 C 66.167 -367.1 55 -421.923 55 -479.93 C 55 -539.977 66.15 -595.76 88.45 -647.28 C 110.743 -698.793 141.577 -743.793 180.95 -782.28 C 220.317 -820.76 266.257 -851 318.77 -873 C 371.283 -895 427.487 -906 487.38 -906 C 543.127 -906 596.263 -896.513 646.79 -877.54 C 697.317 -858.573 741.817 -832.24 780.29 -798.54 C 818.763 -764.847 849.333 -724.933 872 -678.8 C 894.667 -632.667 906 -582.733 906 -529 C 906 -453 884.667 -390.667 842 -342 C 829.368 -327.591 815.274 -315.315 799.72 -305.173 C 805.823 -302.393 811.845 -299.322 817.786 -295.96 C 852.362 -276.44 879.622 -248.93 899.583 -213.27 C 901.494 -210 903.033 -206.42 904.218 -202.57 C 905.414 -198.73 906 -194.74 906 -190.32 C 906 -185.91 905.516 -181.91 904.531 -178.34 C 903.548 -174.78 902.136 -170.94 900.297 -166.93 C 880.82 -131.73 853.559 -104.35 818.511 -84.664 C 783.481 -64.851 745.81 -55 705.475 -55 C 665.367 -55 628.082 -64.986 593.592 -84.811 C 584.799 -89.863 576.491 -95.408 568.666 -101.446 C 565.07 -96.053 560.915 -90.905 556.2 -86 C 536.333 -65.333 510.933 -55 480 -55 Z M 221 -469 C 211 -479 206 -490.667 206 -504 C 206 -517.333 211 -529 221 -539 C 231 -549 242.667 -554 256 -554 C 269.333 -554 281 -549 291 -539 C 301 -529 306 -517.333 306 -504 C 306 -490.667 301 -479 291 -469 C 281 -459 269.333 -454 256 -454 C 242.667 -454 231 -459 221 -469 Z M 342.5 -632 C 332.833 -642 328 -653.833 328 -667.5 C 328 -681.167 332.833 -692.833 342.5 -702.5 C 352.167 -712.167 364 -717 378 -717 C 391.333 -717 403 -712.167 413 -702.5 C 423 -692.833 428 -681 428 -667 C 428 -653.667 423 -642 413 -632 C 403 -622 391.167 -617 377.5 -617 C 363.833 -617 352.167 -622 342.5 -632 Z M 547.5 -632 C 537.833 -642 533 -653.833 533 -667.5 C 533 -681.167 537.833 -692.833 547.5 -702.5 C 557.167 -712.167 569 -717 583 -717 C 596.333 -717 608 -712.167 618 -702.5 C 628 -692.833 633 -681 633 -667 C 633 -653.667 628 -642 618 -632 C 608 -622 596.167 -617 582.5 -617 C 568.833 -617 557.167 -622 547.5 -632 Z M 671.5 -469 C 661.833 -479 657 -490.667 657 -504 C 657 -517.333 661.833 -529 671.5 -539 C 681.167 -549 693 -554 707 -554 C 720.333 -554 732 -549 742 -539 C 752 -529 757 -517.333 757 -504 C 757 -490.667 752 -479 742 -469 C 732 -459 720.333 -454 707 -454 C 693 -454 681.167 -459 671.5 -469 Z M 476 -149 C 481.167 -149 485.127 -150.183 487.88 -152.55 C 490.627 -154.91 492 -158.913 492 -164.56 C 492 -174.187 487 -182.083 477 -188.25 C 467 -194.417 462 -210.333 462 -236 C 462 -268.78 472.993 -298.143 494.98 -324.09 C 516.967 -350.03 544.223 -363 576.75 -363 L 664 -363 C 713.333 -363 750.167 -377.667 774.5 -407 C 798.833 -436.333 811 -475 811 -523 C 811 -611 778.137 -681 712.41 -733 C 646.677 -785 571.733 -811 487.58 -811 C 393.127 -811 313.083 -778.877 247.45 -714.63 C 181.817 -650.383 149 -572.013 149 -479.52 C 149 -387.84 180.987 -309.833 244.96 -245.5 C 308.933 -181.167 385.947 -149 476 -149 Z M 705.675 -112.05 C 733.106 -112.05 759.34 -119.04 784.35 -133.14 C 809.372 -147.11 830.919 -166.24 848.968 -190.47 C 830.919 -214.28 809.358 -233.25 784.309 -247.49 C 759.256 -261.75 733.007 -268.87 705.531 -268.87 C 678.071 -268.87 651.977 -261.75 627.254 -247.49 C 602.545 -233.25 581.401 -214.28 563.805 -190.47 C 581.401 -166.64 602.573 -147.68 627.356 -133.42 C 652.135 -119.17 678.24 -112.05 705.675 -112.05 Z M 706.031 -149.11 C 694.395 -149.11 684.644 -153.11 676.802 -160.94 C 668.96 -168.79 665.038 -178.47 665.038 -190.19 C 665.038 -201.73 669.002 -211.58 676.901 -219.39 C 684.801 -227.25 694.395 -231.11 705.675 -231.11 C 717.566 -231.11 727.418 -227.12 735.259 -219.26 C 743.102 -211.44 747.023 -201.73 747.023 -190.47 C 747.023 -178.62 743.102 -168.79 735.259 -160.94 C 727.418 -153.11 717.678 -149.11 706.031 -149.11 Z"/>
</svg>