<?xml version="1.0" encoding="utf-8"?>
<svg xmlns="http://www.w3.org/2000/svg" height="48" viewBox="0 -960 960 960" width="48">
  <path d="M 134.5 -434 C 134.5 -481.28 143.49 -525.83 161.47 -567.65 C 179.45 -609.48 204.793 -645.93 237.5 -677 L 430.5 -867 C 437.167 -874.33 445 -879.67 454 -883 C 463 -886.33 471.833 -888 480.5 -888 C 489.167 -888 498 -886.33 507 -883 C 516 -879.67 523.833 -874.33 530.5 -867 L 723.5 -677 C 756.167 -645.67 781.333 -609.17 799 -567.5 C 815.344 -528.95 824.127 -487.9 825.351 -444.36 C 825.784 -437.07 826 -429.72 826 -422.3 C 826 -327.3 792.179 -247.1 724.499 -181.7 C 656.84 -116.29 575.74 -83.5 481.24 -83.5 C 386.06 -83.5 304.56 -116.5 236.74 -182.3 C 171.554 -245.35 137.686 -321.9 135.154 -411.57 C 134.718 -418.95 134.5 -426.43 134.5 -434 Z M 658 -259.68 C 707 -306.8 731.5 -364.91 731.5 -434 C 731.5 -436.05 731.478 -438.08 731.433 -440.11 C 729.654 -467.4 723.68 -492.9 713.5 -516.5 C 701.179 -545.3 683.34 -571.11 660 -594.5 L 481 -771.5 L 481 -189 C 550.117 -189.11 609.118 -212.67 658 -259.68 Z" style=""/>
</svg>