<?xml version="1.0" encoding="utf-8"?>
<svg width="100%" height="100%" viewBox="0 0 48 48" version="1.1" xmlns="http://www.w3.org/2000/svg" style="fill-rule:evenodd;clip-rule:evenodd;stroke-linejoin:round;stroke-miterlimit:2;">
  <path d="M 3.73 38.64 C 2.944 37.278 2.45 35.83 2.248 34.294 C 2.046 32.759 2.159 31.228 2.587 29.701 C 3.087 27.835 3.984 26.194 5.279 24.777 C 6.574 23.36 8.134 22.377 9.961 21.828 C 10.446 21.638 10.919 21.632 11.38 21.812 C 11.841 21.993 12.161 22.314 12.339 22.777 C 12.539 23.227 12.558 23.685 12.395 24.15 C 12.232 24.616 11.909 24.945 11.424 25.135 C 10.108 25.538 8.975 26.229 8.023 27.21 C 7.072 28.191 6.423 29.362 6.078 30.722 C 5.804 31.743 5.739 32.777 5.883 33.825 C 6.027 34.873 6.369 35.866 6.91 36.803 C 7.452 37.741 8.143 38.539 8.985 39.199 C 9.828 39.858 10.766 40.336 11.799 40.632 C 13.137 40.991 14.469 41.003 15.794 40.669 C 17.119 40.336 18.279 39.689 19.272 38.729 C 19.679 38.404 20.126 38.288 20.61 38.38 C 21.095 38.472 21.482 38.717 21.772 39.116 C 22.084 39.501 22.202 39.938 22.128 40.428 C 22.053 40.917 21.805 41.313 21.385 41.616 C 19.984 42.901 18.353 43.761 16.491 44.196 C 14.629 44.631 12.765 44.598 10.899 44.098 C 9.363 43.706 7.98 43.038 6.752 42.096 C 5.523 41.153 4.516 40.001 3.73 38.64 Z M 34.768 26.81 C 34.768 32.757 29.947 37.578 24 37.578 C 18.053 37.578 13.232 32.757 13.232 26.81 C 13.232 20.863 18.053 16.042 24 16.042 C 29.947 16.042 34.768 20.863 34.768 26.81 Z M 21.906 28.935 L 21.906 31.829 C 21.906 32.418 22.105 32.924 22.502 33.347 C 22.899 33.772 23.403 33.984 24.011 33.984 C 24.619 33.984 25.129 33.772 25.539 33.347 C 25.949 32.924 26.155 32.418 26.155 31.829 L 26.155 28.935 L 29.049 28.935 C 29.619 28.935 30.112 28.728 30.524 28.313 C 30.937 27.898 31.143 27.404 31.143 26.83 C 31.143 26.239 30.937 25.734 30.524 25.315 C 30.112 24.896 29.619 24.686 29.049 24.686 L 26.155 24.686 L 26.155 21.792 C 26.155 21.204 25.942 20.697 25.516 20.274 C 25.089 19.849 24.58 19.637 23.989 19.637 C 23.381 19.637 22.882 19.849 22.491 20.274 C 22.101 20.697 21.906 21.204 21.906 21.792 L 21.906 24.686 L 18.951 24.686 C 18.381 24.686 17.889 24.897 17.477 25.319 C 17.064 25.74 16.857 26.243 16.857 26.828 C 16.857 27.411 17.064 27.909 17.477 28.319 C 17.889 28.729 18.381 28.935 18.951 28.935 Z M 23.984 3.501 C 25.556 3.501 27.058 3.798 28.488 4.39 C 29.919 4.983 31.188 5.847 32.296 6.981 C 33.662 8.347 34.635 9.945 35.215 11.775 C 35.795 13.604 35.866 15.447 35.428 17.303 C 35.35 17.818 35.118 18.231 34.732 18.54 C 34.345 18.849 33.907 18.965 33.417 18.888 C 32.928 18.837 32.522 18.624 32.2 18.25 C 31.877 17.876 31.755 17.432 31.832 16.916 C 32.142 15.576 32.109 14.249 31.736 12.934 C 31.362 11.62 30.672 10.473 29.667 9.494 C 28.92 8.746 28.056 8.173 27.077 7.773 C 26.098 7.374 25.067 7.174 23.984 7.174 C 22.902 7.174 21.864 7.374 20.872 7.773 C 19.88 8.173 18.997 8.746 18.224 9.494 C 17.244 10.473 16.568 11.62 16.194 12.934 C 15.82 14.249 15.801 15.576 16.136 16.916 C 16.213 17.432 16.091 17.876 15.769 18.25 C 15.447 18.624 15.041 18.837 14.551 18.888 C 14.061 18.965 13.623 18.849 13.237 18.54 C 12.85 18.231 12.631 17.818 12.579 17.303 C 12.167 15.447 12.238 13.604 12.792 11.775 C 13.346 9.945 14.306 8.347 15.672 6.981 C 16.78 5.847 18.05 4.983 19.48 4.39 C 20.911 3.798 22.412 3.501 23.984 3.501 Z M 44.271 38.618 C 43.485 39.98 42.478 41.132 41.249 42.074 C 40.021 43.017 38.638 43.684 37.102 44.077 C 35.236 44.577 33.366 44.621 31.491 44.208 C 29.616 43.795 27.985 42.935 26.597 41.628 C 26.189 41.303 25.948 40.896 25.873 40.407 C 25.799 39.917 25.917 39.48 26.229 39.094 C 26.519 38.696 26.906 38.451 27.391 38.359 C 27.875 38.266 28.322 38.383 28.729 38.707 C 29.735 39.645 30.901 40.281 32.226 40.615 C 33.551 40.948 34.889 40.925 36.24 40.544 C 37.261 40.27 38.189 39.809 39.025 39.161 C 39.861 38.512 40.549 37.719 41.09 36.782 C 41.632 35.845 41.977 34.846 42.128 33.787 C 42.278 32.728 42.223 31.677 41.962 30.633 C 41.603 29.296 40.948 28.136 39.997 27.155 C 39.045 26.174 37.906 25.494 36.577 25.114 C 36.092 24.923 35.768 24.595 35.606 24.129 C 35.443 23.663 35.462 23.205 35.662 22.756 C 35.84 22.293 36.16 21.971 36.621 21.791 C 37.082 21.611 37.549 21.627 38.021 21.841 C 39.834 22.411 41.395 23.394 42.702 24.789 C 44.01 26.184 44.914 27.814 45.414 29.68 C 45.842 31.207 45.955 32.738 45.753 34.273 C 45.551 35.808 45.057 37.257 44.271 38.618 Z" style="stroke-width: 0.039;"/>
</svg>