<?xml version="1.0" encoding="utf-8"?>
<svg clip-rule="evenodd" fill-rule="evenodd" stroke-linejoin="round" stroke-miterlimit="2" viewBox="0 0 250 250" xmlns="http://www.w3.org/2000/svg">
  <path d="M 102.741 114.55 L 89.9 114.55 C 86.212 114.55 83.519 112.873 81.846 109.482 C 80.167 106.076 80.552 102.856 83.075 99.829 L 83.116 99.781 L 121.673 53.629 C 123.436 51.378 125.718 50.268 128.503 50.268 C 131.251 50.268 133.574 51.355 135.446 53.588 L 173.91 99.785 L 173.947 99.829 C 176.47 102.856 176.856 106.076 175.176 109.482 C 173.503 112.873 170.81 114.55 167.122 114.55 L 154.281 114.55 L 154.281 177.217 C 154.281 179.71 153.412 181.811 151.693 183.53 C 149.973 185.25 147.871 186.119 145.379 186.119 L 111.643 186.119 C 109.151 186.119 107.049 185.25 105.331 183.53 C 103.611 181.811 102.741 179.71 102.741 177.217 L 102.741 114.55 Z M 120.677 160.453 C 120.677 162.503 121.491 164.47 122.941 165.919 C 124.391 167.369 126.357 168.183 128.408 168.183 L 128.747 168.183 C 133.016 168.183 136.477 164.722 136.477 160.453 L 136.477 100.322 C 136.477 98.827 137.689 97.614 139.185 97.614 L 143.692 97.614 C 144.413 97.614 145.066 97.191 145.361 96.533 C 145.657 95.875 145.538 95.105 145.058 94.567 C 145.058 94.567 136.971 84.023 132.104 77.678 C 131.247 76.56 129.919 75.905 128.511 75.905 C 127.103 75.905 125.775 76.56 124.918 77.678 C 120.051 84.023 111.964 94.567 111.964 94.567 C 111.484 95.105 111.366 95.875 111.661 96.533 C 111.956 97.191 112.609 97.614 113.33 97.614 L 117.969 97.614 C 119.464 97.614 120.677 98.827 120.677 100.322 L 120.677 160.453 Z M 34.014 209.415 C 25.215 200.814 20.817 190.391 20.817 178.147 C 20.817 170.578 22.641 163.539 26.284 157.027 C 28.847 152.445 32.078 148.495 35.976 145.176 L 33.077 145.176 C 30.02 145.176 27.396 144.078 25.211 141.875 C 23.035 139.678 21.948 137.04 21.948 133.963 C 21.948 130.868 23.046 128.251 25.234 126.111 C 27.414 123.982 30.028 122.917 33.077 122.917 L 69.263 122.917 C 72.833 122.917 75.85 124.201 78.314 126.766 C 80.755 129.307 81.975 132.338 81.975 135.856 L 81.975 172.041 C 81.975 175.177 80.854 177.782 78.632 179.864 C 76.446 181.913 73.824 182.944 70.762 182.944 C 67.657 182.944 65.086 181.886 63.032 179.808 C 60.986 177.74 59.942 175.156 59.942 172.041 L 59.942 156.71 C 55.464 157.829 51.663 160.135 48.54 163.633 C 44.895 167.717 43.076 172.54 43.076 178.097 C 43.076 184.211 45.286 189.429 49.7 193.754 C 54.13 198.098 59.522 200.262 65.87 200.262 C 68.93 200.262 71.553 201.36 73.737 203.564 C 75.913 205.761 77 208.398 77 211.476 C 77 214.595 75.886 217.182 73.68 219.246 C 71.511 221.275 68.909 222.295 65.87 222.295 C 53.413 222.295 42.796 217.999 34.014 209.415 Z M 213.057 11.104 C 220.369 11.104 226.598 13.704 231.744 18.904 C 236.887 24.104 239.459 30.399 239.459 37.788 L 239.459 119.256 C 239.459 122.954 238.195 126.079 235.668 128.629 C 233.14 131.181 230.02 132.457 226.309 132.457 C 222.595 132.457 219.459 131.181 216.899 128.629 C 214.338 126.079 213.057 122.954 213.057 119.256 L 213.057 37.788 L 49.303 37.788 L 49.303 90.593 C 49.303 94.291 48.022 97.415 45.461 99.965 C 42.901 102.518 39.764 103.794 36.051 103.794 C 32.34 103.794 29.22 102.518 26.692 99.965 C 24.164 97.415 22.9 94.291 22.9 90.593 L 22.9 37.787 C 22.9 30.398 25.472 24.104 30.616 18.904 C 35.762 13.704 41.991 11.104 49.303 11.104 L 213.057 11.104 Z M 195.666 212.594 C 193.303 211.972 191.064 211.04 188.95 209.796 C 186.836 208.552 184.908 207.059 183.167 205.319 L 180.742 206.811 C 179.001 207.557 177.229 207.618 175.425 206.997 C 173.622 206.376 172.223 205.257 171.228 203.639 L 170.109 201.961 C 169.114 200.343 168.772 198.571 169.082 196.644 C 169.393 194.717 170.357 193.131 171.974 191.887 L 174.213 190.208 C 173.342 187.969 172.907 185.669 172.907 183.305 C 172.907 180.942 173.342 178.642 174.213 176.403 L 171.974 174.538 C 170.357 173.418 169.393 171.894 169.082 169.967 C 168.772 168.04 169.114 166.204 170.109 164.463 L 171.228 162.785 C 172.223 161.168 173.622 160.048 175.425 159.427 C 177.229 158.806 179.001 158.929 180.742 159.8 L 183.167 161.105 C 185.033 159.489 186.991 158.089 189.044 156.909 C 191.096 155.727 193.303 154.825 195.666 154.203 L 195.853 150.846 C 196.101 148.98 196.941 147.426 198.371 146.182 C 199.801 144.938 201.388 144.317 203.128 144.317 L 205.367 144.317 C 207.108 144.317 208.663 144.909 210.031 146.089 C 211.399 147.269 212.207 148.732 212.456 150.473 L 212.829 154.203 C 215.192 154.825 217.399 155.727 219.451 156.909 C 221.504 158.089 223.462 159.489 225.327 161.105 L 227.566 159.8 C 229.308 159.054 231.049 158.96 232.789 159.52 C 234.531 160.08 235.961 161.168 237.081 162.785 L 238.2 164.463 C 239.319 166.204 239.692 168.04 239.319 169.967 C 238.946 171.894 238.013 173.48 236.521 174.724 L 234.282 176.403 C 235.029 178.642 235.402 180.942 235.402 183.305 C 235.402 185.669 235.029 187.969 234.282 190.208 L 236.521 191.887 C 238.013 193.131 238.946 194.747 239.319 196.737 C 239.692 198.728 239.319 200.53 238.2 202.147 L 237.267 203.826 C 236.272 205.444 234.842 206.5 232.976 206.997 C 231.111 207.496 229.308 207.371 227.566 206.625 L 225.327 205.319 C 223.587 207.059 221.659 208.552 219.545 209.796 C 217.43 211.04 215.192 211.972 212.829 212.594 L 212.456 215.952 C 212.207 217.818 211.399 219.342 210.031 220.522 C 208.663 221.703 207.108 222.295 205.367 222.295 L 203.128 222.295 C 201.388 222.295 199.801 221.703 198.371 220.522 C 196.941 219.342 196.101 217.818 195.853 215.952 L 195.666 212.594 Z M 204.287 197.11 C 208.025 197.11 211.261 195.768 213.993 193.084 C 216.726 190.399 218.091 187.141 218.091 183.306 C 218.091 179.471 216.726 176.213 213.993 173.528 C 211.261 170.843 208.025 169.501 204.287 169.501 C 200.453 169.501 197.169 170.843 194.437 173.528 C 191.705 176.213 190.339 179.471 190.339 183.306 C 190.339 187.141 191.705 190.399 194.437 193.084 C 197.169 195.768 200.453 197.11 204.287 197.11 Z"/>
</svg>