<?xml version="1.0" encoding="utf-8"?>
<svg viewBox="0 0 22 22" xmlns="http://www.w3.org/2000/svg">
  <path d="M 9.086 2.651 L 9.086 12.651 L 19.539 12.651 C 20.091 12.651 20.539 13.099 20.539 13.651 L 20.539 14.324 C 20.539 14.876 20.092 15.323 19.54 15.324 L 8.335 15.337 C 7.012 16.66 3.605 20.057 3.605 20.057 C 3.393 20.269 3.097 20.374 2.8 20.344 C 2.494 20.207 1.771 19.664 1.771 19.664 C 1.576 19.478 1.464 19.221 1.461 18.952 C 1.458 18.683 1.563 18.424 1.754 18.233 L 6.539 13.446 L 6.539 2.651 C 6.539 2.099 6.987 1.651 7.539 1.651 L 8.086 1.651 C 8.638 1.651 9.086 2.099 9.086 2.651 Z"/>
</svg>