<?xml version="1.0" encoding="utf-8"?>
<svg viewBox="0 0 22 22" xmlns="http://www.w3.org/2000/svg">
  <path d="M 8.714 2.16 L 8.714 10.803 L 17.749 10.803 C 18.226 10.803 18.613 11.191 18.613 11.668 L 18.613 12.249 C 18.613 12.726 18.227 13.113 17.75 13.114 L 8.065 13.125 C 6.922 14.268 3.977 17.204 3.977 17.204 C 3.794 17.388 3.538 17.478 3.281 17.452 C 3.017 17.334 2.392 16.865 2.392 16.865 C 2.223 16.704 2.127 16.482 2.124 16.249 C 2.121 16.017 2.212 15.793 2.377 15.628 L 6.513 11.49 L 6.513 2.16 C 6.513 1.683 6.9 1.296 7.377 1.296 L 7.85 1.296 C 8.327 1.296 8.714 1.683 8.714 2.16 Z M 8.668 14.04 L 19.012 14.05 C 19.489 14.05 19.876 14.437 19.876 14.914 L 19.876 15.496 C 19.876 15.973 19.49 16.359 19.012 16.36 L 9.328 16.371 C 8.184 17.515 5.24 20.451 5.24 20.451 C 5.057 20.634 4.801 20.725 4.544 20.699 C 4.28 20.58 3.655 20.111 3.655 20.111 C 3.486 19.95 3.389 19.728 3.387 19.496 C 3.384 19.263 3.475 19.039 3.64 18.874 L 8.668 14.04 Z"/>
</svg>