<?xml version="1.0" encoding="utf-8"?>
<svg xmlns="http://www.w3.org/2000/svg" height="48" viewBox="0 -960 960 960" width="48">
  <path d="M 480.14 -55 C 421.38 -55 366.17 -66.027 314.51 -88.08 C 262.857 -110.14 217.72 -140.48 179.1 -179.1 C 140.48 -217.72 110.14 -262.81 88.08 -314.37 C 66.027 -365.937 55 -421.1 55 -479.86 C 55 -539.287 66.027 -594.83 88.08 -646.49 C 110.14 -698.143 140.427 -743.133 178.94 -781.46 C 217.453 -819.78 262.517 -850.117 314.13 -872.47 C 365.75 -894.823 420.967 -906 479.78 -906 C 539.26 -906 594.87 -894.85 646.61 -872.55 C 698.343 -850.243 743.347 -819.973 781.62 -781.74 C 819.893 -743.507 850.19 -698.55 872.51 -646.87 C 894.837 -595.183 906 -539.56 906 -480 C 906 -421.147 894.823 -365.897 872.47 -314.25 C 850.117 -262.603 819.78 -217.51 781.46 -178.97 C 743.133 -140.437 698.19 -110.14 646.63 -88.08 C 595.063 -66.027 539.567 -55 480.14 -55 Z M 714.5 -245.37 C 767.488 -298.287 798.655 -360.677 807.999 -432.54 L 725.618 -432.54 C 722.281 -415.074 717.129 -398.127 710.329 -382.15 C 697.325 -352.45 678.956 -325.23 656.903 -302.82 C 634.63 -280.7 607.415 -262.3 577.699 -249.47 C 561.531 -242.61 544.295 -237.457 526.47 -234.165 L 526.47 -151.88 C 598.611 -161.066 661.288 -192.229 714.5 -245.37 Z M 714.5 -714.5 C 661.372 -767.628 598.695 -798.819 526.47 -808.073 L 526.47 -725.759 C 544.306 -722.432 561.558 -717.248 577.736 -710.4 C 607.502 -697.38 634.71 -679.1 656.972 -657.09 C 679.031 -634.86 697.369 -607.64 710.359 -577.94 C 717.271 -561.686 722.473 -544.379 725.797 -526.48 L 808.115 -526.48 C 798.915 -598.617 767.71 -661.29 714.5 -714.5 Z M 245.5 -714.5 C 192.374 -661.374 161.183 -598.7 151.929 -526.48 L 234.182 -526.48 C 237.465 -544.266 242.59 -561.479 249.39 -577.67 C 262.248 -607.4 280.624 -634.69 302.823 -657.02 C 325.184 -679 352.446 -697.38 382.144 -710.42 C 397.79 -717.053 414.398 -722.123 431.53 -725.455 L 431.53 -807.9 C 360.313 -798.437 298.303 -767.303 245.5 -714.5 Z M 245.37 -245.5 C 298.285 -192.514 360.672 -161.348 432.53 -152.002 L 432.53 -234.346 C 415.141 -237.643 398.273 -242.73 382.377 -249.46 C 352.624 -262.29 325.21 -280.59 302.868 -302.92 C 280.525 -325.25 262.252 -352.6 249.39 -382.33 C 242.814 -397.932 237.805 -414.481 234.513 -431.55 L 152.093 -431.55 C 161.541 -360.325 192.633 -298.308 245.37 -245.5 Z M 598.065 -361.35 C 619.903 -382.592 633.839 -405.828 640.963 -432.54 L 526.47 -432.54 L 526.47 -318.395 C 553.304 -325.494 576.669 -339.454 598.065 -361.35 Z M 598.058 -598.11 C 576.695 -619.962 553.333 -633.914 526.47 -641.023 L 526.47 -526.48 L 641.058 -526.48 C 633.963 -553.319 619.998 -576.695 598.058 -598.11 Z M 361.391 -598.11 C 339.485 -576.723 325.527 -553.338 318.42 -526.48 L 431.53 -526.48 L 431.53 -640.693 C 405.337 -633.488 382.434 -619.633 361.391 -598.11 Z M 361.314 -361.44 C 382.576 -339.587 405.821 -325.634 432.53 -318.498 L 432.53 -431.55 L 318.738 -431.55 C 325.929 -405.327 339.771 -382.433 361.314 -361.44 Z"/>
</svg>