<?xml version="1.0" encoding="utf-8"?>
<svg viewBox="0 0 22 22" xmlns="http://www.w3.org/2000/svg">
  <path d="M 16 5.5 C 16.931 5.522 17.869 5.919 18.475 6.525 C 19.081 7.131 19.5 8.069 19.5 9 C 19.5 9.931 19.081 10.869 18.475 11.475 C 17.869 12.081 16.931 12.478 16 12.5 L 7 12.5 C 6.55 12.478 6.238 12.64 5.939 12.939 C 5.64 13.238 5.5 13.55 5.5 14 C 5.5 14.45 5.64 14.762 5.939 15.061 C 6.238 15.36 6.55 15.522 7 15.5 L 13.681 15.5 C 13.837 15.068 14.083 14.675 14.379 14.379 C 14.894 13.863 15.707 13.5 16.5 13.5 C 17.293 13.5 18.106 13.863 18.621 14.379 C 19.137 14.894 19.5 15.707 19.5 16.5 C 19.5 17.293 19.137 18.106 18.621 18.621 C 18.106 19.137 17.293 19.5 16.5 19.5 C 15.707 19.5 14.894 19.137 14.379 18.621 C 14.083 18.325 13.837 17.932 13.681 17.5 L 7 17.5 C 6.069 17.478 5.131 17.081 4.525 16.475 C 3.919 15.869 3.5 14.931 3.5 14 C 3.5 13.069 3.919 12.131 4.525 11.525 C 5.131 10.919 6.069 10.522 7 10.5 L 16 10.5 C 16.45 10.522 16.762 10.36 17.061 10.061 C 17.36 9.762 17.5 9.45 17.5 9 C 17.5 8.55 17.36 8.238 17.061 7.939 C 16.762 7.64 16.45 7.478 16 7.5 L 8.319 7.5 C 8.163 7.932 7.917 8.325 7.621 8.621 C 7.106 9.137 6.293 9.5 5.5 9.5 C 4.707 9.5 3.894 9.137 3.379 8.621 C 2.863 8.106 2.5 7.293 2.5 6.5 C 2.5 5.707 2.863 4.894 3.379 4.379 C 3.894 3.863 4.707 3.5 5.5 3.5 C 6.293 3.5 7.106 3.863 7.621 4.379 C 7.917 4.675 8.163 5.068 8.319 5.5 Z M 4.793 5.793 C 4.584 6.001 4.5 6.188 4.5 6.5 C 4.5 6.812 4.584 6.999 4.793 7.207 C 5.001 7.416 5.188 7.5 5.5 7.5 C 5.812 7.5 5.999 7.416 6.207 7.207 C 6.416 6.999 6.5 6.812 6.5 6.5 C 6.5 6.188 6.416 6.001 6.207 5.793 C 5.999 5.584 5.812 5.5 5.5 5.5 C 5.188 5.5 5.001 5.584 4.793 5.793 Z M 15.793 15.793 C 15.584 16.001 15.5 16.188 15.5 16.5 C 15.5 16.812 15.584 16.999 15.793 17.207 C 16.001 17.416 16.188 17.5 16.5 17.5 C 16.812 17.5 16.999 17.416 17.207 17.207 C 17.416 16.999 17.5 16.812 17.5 16.5 C 17.5 16.188 17.416 16.001 17.207 15.793 C 16.999 15.584 16.812 15.5 16.5 15.5 C 16.188 15.5 16.001 15.584 15.793 15.793 Z"/>
</svg>