<?xml version="1.0" encoding="utf-8"?>
<svg xmlns="http://www.w3.org/2000/svg" height="48" viewBox="0 -960 960 960" width="48">
  <path d="M 715 -448 L 715 -311 L 754 -311 L 754 -448 L 860 -448 L 860 -512 L 544.513 -512 C 545.869 -501.22 546.547 -490.337 546.547 -479.35 C 546.547 -468.679 545.962 -458.309 544.814 -448 Z M 849 -594 C 874.867 -594 897 -584.8 915.4 -566.4 C 933.8 -548 943 -525.867 943 -500 L 943 -460 C 943 -438.093 936.96 -419.617 924.88 -404.57 C 912.793 -389.523 898.833 -379 883 -373 L 837 -373 L 837 -319 C 836.333 -293.833 827.037 -272.543 809.11 -255.13 C 791.177 -237.71 769.14 -229 743 -229 L 723 -229 C 696.307 -229 674.467 -237.543 657.48 -254.63 C 640.493 -271.71 631.333 -290.5 630 -311 L 630 -366 L 495.418 -370.069 C 487.852 -369.326 480.211 -370.543 472.496 -373.72 C 461.028 -378.86 453.365 -387.33 449.509 -399.42 C 445.653 -411.48 445.43 -423.32 448.866 -435.41 C 450.571 -442.33 451.858 -449.54 452.723 -457.25 C 453.562 -464.96 454.007 -472.4 454.007 -479.88 C 454.007 -503.26 449.706 -525.37 441.154 -545.94 C 432.602 -566.51 420.169 -584.75 403.881 -601.21 C 389.298 -615.86 372.812 -626.91 354.398 -634.63 C 335.958 -642.33 316.877 -647.48 297.202 -650.05 L 311.34 -635.91 C 320.757 -626.39 325.479 -615.35 325.479 -602.49 C 325.479 -589.64 320.757 -578.84 311.34 -569.84 C 301.898 -560.84 291.097 -556.22 278.97 -556.22 C 266.813 -556.22 256.169 -560.84 247.071 -570.36 L 164.809 -650.05 C 152.804 -662.13 146.816 -676.53 146.816 -693.24 C 146.816 -710.18 152.804 -724.85 164.809 -737.44 L 247.071 -818.43 C 256.478 -826.9 267.146 -831.27 279.022 -831.27 C 290.875 -831.27 301.601 -826.9 311.142 -817.91 C 320.684 -808.91 325.479 -798.1 325.479 -785.76 C 325.479 -773.16 321.178 -762.39 312.626 -752.87 L 302.343 -741.31 C 333.19 -739.49 363.147 -732.32 392.314 -719.45 C 421.43 -706.61 447.136 -689.12 469.431 -666.76 C 490.397 -645.348 507.318 -621.09 520.227 -594 Z M 252.212 -323.58 C 242.778 -332.31 238.073 -343.36 238.073 -356.2 C 238.073 -369.07 242.778 -379.87 252.212 -388.87 C 261.619 -397.61 272.468 -401.99 284.671 -401.99 C 296.905 -401.99 307.929 -397.61 317.767 -389.14 L 398.74 -308.17 C 410.703 -296.08 416.735 -281.67 416.735 -264.95 C 416.735 -248 410.703 -233.34 398.74 -220.74 L 316.482 -141.05 C 307.409 -131.56 296.756 -126.91 284.522 -126.91 C 272.287 -126.91 261.567 -131.56 252.393 -141.05 C 242.829 -149.54 238.073 -160.08 238.073 -172.69 C 238.073 -185.02 242.778 -195.82 252.212 -205.34 L 262.495 -216.91 C 230.772 -218.69 200.645 -225.88 172.06 -239 C 143.474 -252.1 117.768 -269.84 94.966 -292.22 C 69.595 -317.65 50.264 -346.2 36.949 -378.33 C 23.658 -410.46 17 -443.88 17 -479.11 C 17 -492.72 18.184 -506.33 20.522 -519.97 C 22.887 -533.61 25.996 -546.95 29.851 -560.07 C 33.297 -572.93 41.163 -581.41 53.452 -585.78 C 65.714 -590.13 77.846 -589.64 89.801 -584.5 C 101.16 -579.61 109.209 -571.38 113.964 -559.56 C 118.72 -547.74 119.388 -535.38 115.969 -522.8 C 113.913 -515.1 112.317 -507.63 111.214 -500.44 C 110.081 -492.97 109.542 -485.79 109.542 -478.32 C 109.542 -454.93 113.808 -432.84 122.371 -412.27 C 130.931 -391.95 143.371 -373.44 159.668 -356.99 C 174.22 -342.34 190.516 -331.3 208.51 -323.58 C 226.506 -315.88 245.785 -311.23 266.35 -309.44 Z M 322.082 -480 C 322.082 -453.601 300.681 -432.2 274.282 -432.2 C 247.883 -432.2 226.482 -453.601 226.482 -480 C 226.482 -506.399 247.883 -527.8 274.282 -527.8 C 300.681 -527.8 322.082 -506.399 322.082 -480 Z"/>
</svg>