<?xml version="1.0" encoding="utf-8"?>
<svg xmlns="http://www.w3.org/2000/svg" height="48" viewBox="0 -960 960 960" width="48">
  <path d="M 480.09 -95 C 431.117 -95 385.527 -107 343.32 -131 C 301.107 -155 270.333 -189.333 251 -234 L 171.38 -234 C 160.36 -234 151.543 -237.327 144.93 -243.98 C 138.31 -250.627 135 -259.36 135 -270.18 C 135 -280.993 138.31 -289.667 144.93 -296.2 C 151.543 -302.733 160.233 -306 171 -306 L 226 -306 C 221.833 -321.333 219.793 -336.89 219.88 -352.67 C 219.96 -368.443 220 -384.22 220 -400 L 170 -400 C 159.233 -400 150.543 -403.327 143.93 -409.98 C 137.31 -416.627 134 -425.36 134 -436.18 C 134 -446.993 137.31 -455.667 143.93 -462.2 C 150.543 -468.733 159.233 -472 170 -472 L 220 -472 C 220 -489.333 220.127 -506.5 220.38 -523.5 C 220.627 -540.5 223.167 -557.333 228 -574 L 171 -574 C 160.233 -574 151.543 -577.327 144.93 -583.98 C 138.31 -590.627 135 -599.36 135 -610.18 C 135 -620.993 138.31 -629.667 144.93 -636.2 C 151.543 -642.733 160.233 -646 171 -646 L 258 -646 C 266 -666.667 277.833 -684.5 293.5 -699.5 C 309.167 -714.5 326.667 -727 346 -737 L 293.23 -787.78 C 285.743 -795.26 282.167 -803.597 282.5 -812.79 C 282.833 -821.977 286.473 -830.093 293.42 -837.14 C 300.567 -844.38 308.617 -848 317.57 -848 C 326.523 -848 334.773 -844.28 342.32 -836.84 L 412 -768 C 433.147 -777.333 455.1 -782.333 477.86 -783 C 500.62 -783.667 523 -779.333 545 -770 L 616 -841 C 622.56 -848.333 630.69 -852 640.39 -852 C 650.09 -852 658.227 -848.527 664.8 -841.58 C 671.6 -834.433 675 -826.26 675 -817.06 C 675 -807.867 671.667 -799.847 665 -793 L 615 -743 C 636.333 -731.667 654.847 -717.127 670.54 -699.38 C 686.233 -681.633 699.06 -661.84 709.02 -640 L 794 -640 C 802.5 -640 810.127 -636.703 816.88 -630.11 C 823.627 -623.517 827 -615.753 827 -606.82 C 827 -597.887 823.627 -590.183 816.88 -583.71 C 810.127 -577.237 802.5 -574 794 -574 L 732 -574 C 737.5 -557.553 740.21 -540.72 740.13 -523.5 C 740.043 -506.28 740 -489.113 740 -472 L 791 -472 C 801.2 -472 809.75 -468.673 816.65 -462.02 C 823.55 -455.373 827 -446.64 827 -435.82 C 827 -425.007 823.55 -416.333 816.65 -409.8 C 809.75 -403.267 801.2 -400 791 -400 L 740 -400 L 740 -352.67 C 740 -337.11 738 -321.553 734 -306 L 791 -306 C 801.2 -306 809.75 -302.673 816.65 -296.02 C 823.55 -289.373 827 -280.64 827 -269.82 C 827 -259.007 823.55 -250.333 816.65 -243.8 C 809.75 -237.267 801.2 -234 791 -234 L 711 -234 C 691 -189.333 659.883 -155 617.65 -131 C 575.41 -107 529.557 -95 480.09 -95 Z M 480.16 -189 C 528.053 -189 567.5 -205.737 598.5 -239.21 C 629.5 -272.677 645 -313.273 645 -361 L 645 -511 C 645 -559.273 629.447 -600.343 598.34 -634.21 C 567.233 -668.07 527.733 -685 479.84 -685 C 431.947 -685 392.5 -668.07 361.5 -634.21 C 330.5 -600.343 315 -559.273 315 -511 L 315 -361 C 315 -313.273 330.553 -272.677 361.66 -239.21 C 392.767 -205.737 432.267 -189 480.16 -189 Z M 480.146 -244.9 C 464.538 -244.9 449.44 -251.51 438.37 -262.07 C 427.839 -273.13 421.286 -288.29 421.286 -303.88 C 421.286 -319.49 427.884 -334.6 438.441 -345.7 C 449.55 -356.19 464.656 -362.71 480.238 -362.71 C 495.829 -362.71 510.939 -356.17 522.033 -345.6 C 532.556 -334.49 539.098 -319.4 539.098 -303.81 C 539.098 -288.22 532.524 -273.04 521.949 -261.97 C 510.865 -251.5 495.759 -244.9 480.146 -244.9 Z M 452.093 -488.92 L 452.093 -593.12 C 452.462 -600.09 455.419 -608.24 460.332 -613.09 C 465.192 -617.89 473.266 -621.22 480.261 -621.22 C 487.264 -621.22 495.347 -617.87 500.167 -613.05 C 505.017 -608.19 507.93 -600.07 508.291 -593.12 L 508.291 -488.91 L 515.574 -496.2 C 520.892 -500.87 528.67 -504.42 535.421 -504.42 C 542.203 -504.42 549.935 -500.79 555.13 -496.07 C 559.723 -490.97 563.011 -483.37 563.548 -476.51 C 563.316 -469.42 560.104 -461.44 555.423 -456.16 L 500.216 -400.96 C 495.019 -396.42 487.164 -392.77 480.122 -392.77 C 473.071 -392.77 465.164 -396.53 460.028 -401.1 L 404.555 -456.57 C 399.882 -461.81 396.697 -469.72 396.451 -476.74 C 396.991 -483.53 400.347 -491.27 404.936 -496.47 C 410.152 -501.18 417.937 -504.81 424.739 -504.81 C 431.55 -504.81 439.307 -501.2 444.519 -496.49 Z"/>
</svg>