<?xml version="1.0" encoding="utf-8"?>
<svg xmlns="http://www.w3.org/2000/svg" height="48" viewBox="0 -960 960 960" width="48">
  <path d="M 479.59 -95 C 430.617 -95 385.027 -107 342.82 -131 C 300.607 -155 269.833 -189.33 250.5 -234 L 170.88 -234 C 159.86 -234 151.043 -237.33 144.43 -243.98 C 137.81 -250.63 134.5 -259.36 134.5 -270.18 C 134.5 -280.99 137.81 -289.67 144.43 -296.2 C 151.043 -302.73 159.733 -306 170.5 -306 L 225.5 -306 C 221.333 -321.33 219.293 -336.89 219.38 -352.67 C 219.46 -368.44 219.5 -384.22 219.5 -400 L 169.5 -400 C 158.733 -400 150.043 -403.33 143.43 -409.98 C 136.81 -416.63 133.5 -425.36 133.5 -436.18 C 133.5 -446.99 136.81 -455.67 143.43 -462.2 C 150.043 -468.73 158.733 -472 169.5 -472 L 219.5 -472 C 219.5 -489.33 219.627 -506.5 219.88 -523.5 C 220.127 -540.5 222.667 -557.33 227.5 -574 L 170.5 -574 C 159.733 -574 151.043 -577.33 144.43 -583.98 C 137.81 -590.63 134.5 -599.36 134.5 -610.18 C 134.5 -620.99 137.81 -629.67 144.43 -636.2 C 151.043 -642.73 159.733 -646 170.5 -646 L 257.5 -646 C 265.5 -666.67 277.333 -684.5 293 -699.5 C 308.667 -714.5 326.167 -727 345.5 -737 L 292.73 -787.78 C 285.243 -795.26 281.667 -803.6 282 -812.79 C 282.333 -821.98 285.973 -830.09 292.92 -837.14 C 300.067 -844.38 308.117 -848 317.07 -848 C 326.023 -848 334.273 -844.28 341.82 -836.84 L 411.5 -768 C 432.647 -777.33 454.6 -782.33 477.36 -783 C 500.12 -783.67 522.5 -779.33 544.5 -770 L 615.5 -841 C 622.06 -848.33 630.19 -852 639.89 -852 C 649.59 -852 657.727 -848.53 664.3 -841.58 C 671.1 -834.43 674.5 -826.26 674.5 -817.06 C 674.5 -807.87 671.167 -799.85 664.5 -793 L 614.5 -743 C 635.833 -731.67 654.347 -717.13 670.04 -699.38 C 685.733 -681.63 698.56 -661.84 708.52 -640 L 793.5 -640 C 802 -640 809.627 -636.7 816.38 -630.11 C 823.127 -623.52 826.5 -615.75 826.5 -606.82 C 826.5 -597.89 823.127 -590.18 816.38 -583.71 C 809.627 -577.24 802 -574 793.5 -574 L 731.5 -574 C 737 -557.55 739.71 -540.72 739.63 -523.5 C 739.543 -506.28 739.5 -489.11 739.5 -472 L 790.5 -472 C 800.7 -472 809.25 -468.67 816.15 -462.02 C 823.05 -455.37 826.5 -446.64 826.5 -435.82 C 826.5 -425.01 823.05 -416.33 816.15 -409.8 C 809.25 -403.27 800.7 -400 790.5 -400 L 739.5 -400 L 739.5 -352.67 C 739.5 -337.11 737.5 -321.55 733.5 -306 L 790.5 -306 C 800.7 -306 809.25 -302.67 816.15 -296.02 C 823.05 -289.37 826.5 -280.64 826.5 -269.82 C 826.5 -259.01 823.05 -250.33 816.15 -243.8 C 809.25 -237.27 800.7 -234 790.5 -234 L 710.5 -234 C 690.5 -189.33 659.383 -155 617.15 -131 C 574.91 -107 529.057 -95 479.59 -95 Z M 479.66 -189 C 527.553 -189 567 -205.74 598 -239.21 C 629 -272.68 644.5 -313.27 644.5 -361 L 644.5 -511 C 644.5 -559.27 628.947 -600.34 597.84 -634.21 C 566.733 -668.07 527.233 -685 479.34 -685 C 431.447 -685 392 -668.07 361 -634.21 C 330 -600.34 314.5 -559.27 314.5 -511 L 314.5 -361 C 314.5 -313.27 330.053 -272.68 361.16 -239.21 C 392.267 -205.74 431.767 -189 479.66 -189 Z M 479.954 -531.08 C 466.048 -531.08 454.295 -536.02 444.658 -545.62 C 435.033 -555.23 430.214 -567.02 430.214 -580.98 C 430.214 -595.07 435.044 -606.97 444.715 -616.69 C 454.374 -626.43 466.151 -631.2 480.056 -631.2 C 493.951 -631.2 505.717 -626.43 515.342 -616.59 C 524.979 -606.86 529.786 -594.94 529.786 -580.87 C 529.786 -566.8 524.956 -555.01 515.296 -545.4 C 505.636 -535.9 493.848 -531.08 479.954 -531.08 Z M 479.931 -242.273 C 469.264 -242.273 460.222 -246.053 452.795 -253.493 C 445.378 -260.943 441.659 -269.983 441.659 -280.633 L 441.659 -435.53 C 441.659 -446.17 445.401 -455.31 452.864 -462.77 C 460.337 -470.21 469.401 -473.86 480.068 -473.86 C 490.735 -473.86 499.788 -470.21 507.205 -462.77 C 514.632 -455.31 518.34 -446.17 518.34 -435.53 L 518.34 -280.633 C 518.34 -269.983 514.609 -260.943 507.136 -253.493 C 499.674 -246.053 490.609 -242.273 479.931 -242.273 Z"/>
</svg>