<?xml version="1.0" encoding="utf-8"?>
<svg xmlns="http://www.w3.org/2000/svg" height="48" viewBox="0 -960 960 960" width="48">
  <path d="M 479.59 -61 C 430.617 -61 385.027 -73 342.82 -97 C 300.607 -121 269.833 -155.33 250.5 -200 L 170.88 -200 C 159.86 -200 151.043 -203.33 144.43 -209.98 C 137.81 -216.63 134.5 -225.36 134.5 -236.18 C 134.5 -246.99 137.81 -255.67 144.43 -262.2 C 151.043 -268.73 159.733 -272 170.5 -272 L 225.5 -272 C 221.333 -287.33 219.293 -302.89 219.38 -318.67 C 219.46 -334.44 219.5 -350.22 219.5 -366 L 169.5 -366 C 158.733 -366 150.043 -369.33 143.43 -375.98 C 136.81 -382.63 133.5 -391.36 133.5 -402.18 C 133.5 -412.99 136.81 -421.67 143.43 -428.2 C 150.043 -434.73 158.733 -438 169.5 -438 L 219.5 -438 C 219.5 -455.33 219.627 -472.5 219.88 -489.5 C 220.127 -506.5 222.667 -523.33 227.5 -540 L 170.5 -540 C 159.733 -540 151.043 -543.33 144.43 -549.98 C 137.81 -556.63 134.5 -565.36 134.5 -576.18 C 134.5 -586.99 137.81 -595.67 144.43 -602.2 C 151.043 -608.73 159.733 -612 170.5 -612 L 257.5 -612 C 265.5 -632.67 277.333 -650.5 293 -665.5 C 308.667 -680.5 326.167 -693 345.5 -703 L 292.73 -753.78 C 285.243 -761.26 281.667 -769.6 282 -778.79 C 282.333 -787.98 285.973 -796.09 292.92 -803.14 C 300.067 -810.38 308.117 -814 317.07 -814 C 326.023 -814 334.273 -810.28 341.82 -802.84 L 409.414 -736.06 C 410.822 -735.77 412.235 -735.39 413.638 -734.93 C 422.646 -738.77 431.8 -741.83 441.1 -744.1 L 441.1 -860.04 C 441.6 -869.74 445.731 -880.87 452.591 -887.88 C 459.36 -894.62 470.591 -899 480.348 -899 C 490.107 -899 501.367 -894.29 508.084 -887.66 C 514.865 -880.87 518.934 -869.58 519.434 -860.04 L 519.434 -744.43 C 527.843 -742.33 536.199 -739.52 544.5 -736 L 615.5 -807 C 622.06 -814.33 630.19 -818 639.89 -818 C 649.59 -818 657.727 -814.53 664.3 -807.58 C 671.1 -800.43 674.5 -792.26 674.5 -783.06 C 674.5 -773.87 671.167 -765.85 664.5 -759 L 614.5 -709 C 635.833 -697.67 654.347 -683.13 670.04 -665.38 C 685.733 -647.63 698.56 -627.84 708.52 -606 L 793.5 -606 C 802 -606 809.627 -602.7 816.38 -596.11 C 823.127 -589.52 826.5 -581.75 826.5 -572.82 C 826.5 -563.89 823.127 -556.18 816.38 -549.71 C 809.627 -543.24 802 -540 793.5 -540 L 731.5 -540 C 737 -523.55 739.71 -506.72 739.63 -489.5 C 739.543 -472.28 739.5 -455.11 739.5 -438 L 790.5 -438 C 800.7 -438 809.25 -434.67 816.15 -428.02 C 823.05 -421.37 826.5 -412.64 826.5 -401.82 C 826.5 -391.01 823.05 -382.33 816.15 -375.8 C 809.25 -369.27 800.7 -366 790.5 -366 L 739.5 -366 L 739.5 -318.67 C 739.5 -303.11 737.5 -287.55 733.5 -272 L 790.5 -272 C 800.7 -272 809.25 -268.67 816.15 -262.02 C 823.05 -255.37 826.5 -246.64 826.5 -235.82 C 826.5 -225.01 823.05 -216.33 816.15 -209.8 C 809.25 -203.27 800.7 -200 790.5 -200 L 710.5 -200 C 690.5 -155.33 659.383 -121 617.15 -97 C 574.91 -73 529.057 -61 479.59 -61 Z M 479.66 -155 C 527.553 -155 567 -171.74 598 -205.21 C 629 -238.68 644.5 -279.27 644.5 -327 L 644.5 -477 C 644.5 -525.27 628.947 -566.34 597.84 -600.21 C 584.018 -615.25 568.539 -626.96 551.403 -635.32 L 508.174 -592.07 C 500.923 -585.75 489.965 -580.74 480.151 -580.74 C 470.34 -580.74 459.305 -585.96 452.165 -592.07 L 408.478 -635.87 C 390.909 -627.48 375.083 -615.59 361 -600.21 C 330 -566.34 314.5 -525.27 314.5 -477 L 314.5 -327 C 314.5 -279.27 330.053 -238.68 361.16 -205.21 C 392.267 -171.74 431.767 -155 479.66 -155 Z M 479.954 -440.38 C 466.048 -440.38 454.295 -445.32 444.658 -454.92 C 435.033 -464.53 430.214 -476.32 430.214 -490.28 C 430.214 -504.37 435.044 -516.27 444.715 -525.99 C 454.374 -535.73 466.151 -540.5 480.056 -540.5 C 493.951 -540.5 505.717 -535.73 515.342 -525.89 C 524.979 -516.16 529.786 -504.24 529.786 -490.17 C 529.786 -476.1 524.956 -464.31 515.296 -454.7 C 505.636 -445.2 493.848 -440.38 479.954 -440.38 Z M 479.931 -208.27 C 469.264 -208.27 460.222 -212.05 452.795 -219.49 C 445.378 -226.94 441.659 -235.98 441.659 -246.63 L 441.659 -344.83 C 441.659 -355.47 445.401 -364.61 452.864 -372.07 C 460.337 -379.51 469.401 -383.16 480.068 -383.16 C 490.735 -383.16 499.788 -379.51 507.205 -372.07 C 514.632 -364.61 518.34 -355.47 518.34 -344.83 L 518.34 -246.63 C 518.34 -235.98 514.609 -226.94 507.136 -219.49 C 499.674 -212.05 490.609 -208.27 479.931 -208.27 Z"/>
</svg>