<?xml version="1.0" encoding="utf-8"?>
<svg xmlns="http://www.w3.org/2000/svg" height="48" viewBox="0 -960 960 960" width="48">
  <path d="M 480.09 -95 C 431.117 -95 385.527 -107 343.32 -131 C 301.107 -155 270.333 -189.333 251 -234 L 171.38 -234 C 160.36 -234 151.543 -237.327 144.93 -243.98 C 138.31 -250.627 135 -259.36 135 -270.18 C 135 -280.993 138.31 -289.667 144.93 -296.2 C 151.543 -302.733 160.233 -306 171 -306 L 226 -306 C 221.833 -321.333 219.793 -336.89 219.88 -352.67 C 219.96 -368.443 220 -384.22 220 -400 L 170 -400 C 159.233 -400 150.543 -403.327 143.93 -409.98 C 137.31 -416.627 134 -425.36 134 -436.18 C 134 -446.993 137.31 -455.667 143.93 -462.2 C 150.543 -468.733 159.233 -472 170 -472 L 220 -472 C 220 -489.333 220.127 -506.5 220.38 -523.5 C 220.627 -540.5 223.167 -557.333 228 -574 L 171 -574 C 160.233 -574 151.543 -577.327 144.93 -583.98 C 138.31 -590.627 135 -599.36 135 -610.18 C 135 -620.993 138.31 -629.667 144.93 -636.2 C 151.543 -642.733 160.233 -646 171 -646 L 258 -646 C 266 -666.667 277.833 -684.5 293.5 -699.5 C 309.167 -714.5 326.667 -727 346 -737 L 293.23 -787.78 C 285.743 -795.26 282.167 -803.597 282.5 -812.79 C 282.833 -821.977 286.473 -830.093 293.42 -837.14 C 300.567 -844.38 308.617 -848 317.57 -848 C 326.523 -848 334.773 -844.28 342.32 -836.84 L 412 -768 C 433.147 -777.333 455.1 -782.333 477.86 -783 C 500.62 -783.667 523 -779.333 545 -770 L 616 -841 C 622.56 -848.333 630.69 -852 640.39 -852 C 650.09 -852 658.227 -848.527 664.8 -841.58 C 671.6 -834.433 675 -826.26 675 -817.06 C 675 -807.867 671.667 -799.847 665 -793 L 615 -743 C 636.333 -731.667 654.847 -717.127 670.54 -699.38 C 686.233 -681.633 699.06 -661.84 709.02 -640 L 794 -640 C 802.5 -640 810.127 -636.703 816.88 -630.11 C 823.627 -623.517 827 -615.753 827 -606.82 C 827 -597.887 823.627 -590.183 816.88 -583.71 C 810.127 -577.237 802.5 -574 794 -574 L 732 -574 C 737.5 -557.553 740.21 -540.72 740.13 -523.5 C 740.043 -506.28 740 -489.113 740 -472 L 791 -472 C 801.2 -472 809.75 -468.673 816.65 -462.02 C 823.55 -455.373 827 -446.64 827 -435.82 C 827 -425.007 823.55 -416.333 816.65 -409.8 C 809.75 -403.267 801.2 -400 791 -400 L 740 -400 L 740 -352.67 C 740 -337.11 738 -321.553 734 -306 L 791 -306 C 801.2 -306 809.75 -302.673 816.65 -296.02 C 823.55 -289.373 827 -280.64 827 -269.82 C 827 -259.007 823.55 -250.333 816.65 -243.8 C 809.75 -237.267 801.2 -234 791 -234 L 711 -234 C 691 -189.333 659.883 -155 617.65 -131 C 575.41 -107 529.557 -95 480.09 -95 Z M 480.16 -189 C 528.053 -189 567.5 -205.737 598.5 -239.21 C 629.5 -272.677 645 -313.273 645 -361 L 645 -511 C 645 -559.273 629.447 -600.343 598.34 -634.21 C 567.233 -668.07 527.733 -685 479.84 -685 C 431.947 -685 392.5 -668.07 361.5 -634.21 C 330.5 -600.343 315 -559.273 315 -511 L 315 -361 C 315 -313.273 330.553 -272.677 361.66 -239.21 C 392.767 -205.737 432.267 -189 480.16 -189 Z M 444.519 -369.63 C 439.307 -364.92 431.55 -361.31 424.739 -361.31 C 417.937 -361.31 410.152 -364.94 404.936 -369.65 C 400.347 -374.85 396.991 -382.59 396.451 -389.38 C 396.697 -396.4 399.882 -404.31 404.555 -409.55 L 460.028 -465.02 C 465.164 -469.59 473.071 -473.35 480.122 -473.35 C 487.164 -473.35 495.019 -469.7 500.216 -465.16 L 555.423 -409.96 C 560.104 -404.68 563.316 -396.7 563.548 -389.61 C 563.011 -382.75 559.723 -375.15 555.13 -370.05 C 549.935 -365.33 542.203 -361.7 535.421 -361.7 C 528.67 -361.7 520.892 -365.25 515.574 -369.92 L 508.291 -377.21 L 508.291 -273 C 507.93 -266.05 505.017 -257.93 500.167 -253.07 C 495.347 -248.25 487.264 -244.9 480.261 -244.9 C 473.266 -244.9 465.192 -248.23 460.332 -253.03 C 455.419 -257.88 452.462 -266.03 452.093 -273 L 452.093 -377.2 Z M 521.949 -604.15 C 532.524 -593.08 539.098 -577.9 539.098 -562.31 C 539.098 -546.72 532.556 -531.63 522.033 -520.52 C 510.939 -509.95 495.829 -503.41 480.238 -503.41 C 464.656 -503.41 449.55 -509.93 438.441 -520.42 C 427.884 -531.52 421.286 -546.63 421.286 -562.24 C 421.286 -577.83 427.839 -592.99 438.37 -604.05 C 449.44 -614.61 464.538 -621.22 480.146 -621.22 C 495.759 -621.22 510.865 -614.62 521.949 -604.15 Z"/>
</svg>