<?xml version="1.0" encoding="utf-8"?>
<svg xmlns="http://www.w3.org/2000/svg" height="48" viewBox="0 -960 960 960" width="48">
  <path d="M 476.14 -95 C 378.08 -95 293.377 -127.333 222.03 -192 C 150.677 -256.667 109.667 -336.667 99 -432 C 96.333 -444.087 99.333 -454.773 108 -464.06 C 116.667 -473.353 127.647 -478.333 140.94 -479 C 153.647 -479.667 164.833 -476.167 174.5 -468.5 C 184.167 -460.833 190.667 -450.667 194 -438 C 203.333 -368 234.213 -309 286.64 -261 C 339.073 -213 402.193 -189 476 -189 C 557.333 -189 626.667 -217.773 684 -275.32 C 741.333 -332.867 770 -402.7 770 -484.82 C 770 -564.94 741.21 -632.667 683.63 -688 C 626.043 -743.333 556.833 -771 476 -771 C 436 -771 398.167 -762.833 362.5 -746.5 C 326.833 -730.167 295.333 -708 268 -680 L 316 -680 C 326.1 -680 334.627 -676.527 341.58 -669.58 C 348.527 -662.627 352 -654.1 352 -644 C 352 -633.333 348.527 -624.5 341.58 -617.5 C 334.627 -610.5 326.1 -607 316 -607 L 170 -607 C 156.667 -607 145.5 -611.5 136.5 -620.5 C 127.5 -629.5 123 -640.667 123 -654 L 123 -799 C 123 -809.1 126.333 -817.46 133 -824.08 C 139.667 -830.693 148.167 -834 158.5 -834 C 168.833 -834 177.333 -830.693 184 -824.08 C 190.667 -817.46 194 -809.1 194 -799 L 194 -739 C 230.667 -778.333 273.167 -809.333 321.5 -832 C 369.833 -854.667 421.333 -866 476 -866 C 529.333 -866 579.5 -855.833 626.5 -835.5 C 673.5 -815.167 714.747 -787.663 750.24 -752.99 C 785.733 -718.317 813.567 -677.817 833.74 -631.49 C 853.913 -585.163 864 -535.333 864 -482 C 864 -428.667 853.913 -378.503 833.74 -331.51 C 813.567 -284.517 785.733 -243.517 750.24 -208.51 C 714.747 -173.503 673.5 -145.833 626.5 -125.5 C 579.5 -105.167 529.38 -95 476.14 -95 Z M 445.248 -647 C 445.248 -657.29 448.682 -665.94 455.531 -672.71 C 462.382 -679.5 471.001 -683 481.346 -683 C 491.714 -683 500.455 -679.5 507.572 -672.71 C 514.709 -665.94 518.269 -657.29 518.269 -647 L 518.269 -477.31 C 518.269 -470.11 517.24 -463.73 515.183 -458.17 C 513.127 -452.42 509.691 -447.49 504.898 -443.37 L 386.625 -327.15 C 378.726 -318.93 369.902 -314.81 360.131 -314.81 C 350.382 -314.81 341.557 -318.93 333.659 -327.15 C 325.781 -334.76 321.832 -343.6 321.832 -353.48 C 321.832 -363.35 326.007 -372.41 334.379 -380.84 L 445.248 -488.21 Z"/>
</svg>