<?xml version="1.0" encoding="utf-8"?>
<svg xmlns="http://www.w3.org/2000/svg" height="48" viewBox="0 -960 960 960" width="48">
  <path d="M 189 -95 C 162.967 -95 140.79 -104.157 122.47 -122.47 C 104.157 -140.79 95 -162.967 95 -189 L 95 -305 C 95 -318.167 99.56 -329.293 108.68 -338.38 C 117.793 -347.46 128.96 -352 142.18 -352 C 155.393 -352 166.5 -347.46 175.5 -338.38 C 184.5 -329.293 189 -318.167 189 -305 L 189 -189 L 305 -189 C 318.167 -189 329.293 -184.44 338.38 -175.32 C 347.46 -166.207 352 -155.04 352 -141.82 C 352 -128.607 347.46 -117.5 338.38 -108.5 C 329.293 -99.5 318.167 -95 305 -95 Z M 771 -95 L 655 -95 C 641.833 -95 630.71 -99.56 621.63 -108.68 C 612.543 -117.793 608 -128.96 608 -142.18 C 608 -155.393 612.543 -166.5 621.63 -175.5 C 630.71 -184.5 641.833 -189 655 -189 L 771 -189 L 771 -305 C 771 -318.167 775.56 -329.293 784.68 -338.38 C 793.793 -347.46 804.93 -352 818.09 -352 C 831.243 -352 842.517 -347.46 851.91 -338.38 C 861.303 -329.293 866 -318.167 866 -305 L 866 -189 C 866 -162.967 856.743 -140.79 838.23 -122.47 C 819.717 -104.157 797.307 -95 771 -95 Z M 95 -655 L 95 -771 C 95 -797.307 104.157 -819.717 122.47 -838.23 C 140.79 -856.743 162.967 -866 189 -866 L 305 -866 C 318.167 -866 329.293 -861.247 338.38 -851.74 C 347.46 -842.227 352 -830.893 352 -817.74 C 352 -804.58 347.46 -793.5 338.38 -784.5 C 329.293 -775.5 318.167 -771 305 -771 L 189 -771 L 189 -655 C 189 -641.833 184.44 -630.71 175.32 -621.63 C 166.207 -612.543 155.04 -608 141.82 -608 C 128.607 -608 117.5 -612.543 108.5 -621.63 C 99.5 -630.71 95 -641.833 95 -655 Z M 771 -655 L 771 -771 L 655 -771 C 641.833 -771 630.71 -775.56 621.63 -784.68 C 612.543 -793.793 608 -804.93 608 -818.09 C 608 -831.243 612.543 -842.517 621.63 -851.91 C 630.71 -861.303 641.833 -866 655 -866 L 771 -866 C 797.307 -866 819.717 -856.743 838.23 -838.23 C 856.743 -819.717 866 -797.307 866 -771 L 866 -655 C 866 -641.833 861.247 -630.71 851.74 -621.63 C 842.227 -612.543 830.893 -608 817.74 -608 C 804.58 -608 793.5 -612.543 784.5 -621.63 C 775.5 -630.71 771 -641.833 771 -655 Z M 565.51 -643.018 C 567.226 -644.901 568.661 -646.066 571.117 -648.039 C 580.328 -655.937 588.2 -658.659 601.548 -658.59 C 602.146 -658.59 602.743 -658.59 603.297 -658.59 C 604.45 -658.59 604.682 -658.611 605.792 -658.611 C 620.627 -658.448 630.947 -653.927 641.374 -643.019 C 642.327 -642.223 642.513 -642.087 642.815 -641.842 C 654.461 -630.615 658.807 -620.081 658.314 -603.038 C 659.248 -586.149 655.101 -575.812 643.15 -564.768 L 570.744 -492.658 C 567.263 -489.191 565.303 -484.48 565.299 -479.566 C 565.295 -474.652 567.246 -469.939 570.721 -466.465 L 641.552 -395.674 C 654.088 -383.92 659.043 -372.959 659.055 -356.303 C 660.509 -340.743 656.559 -330.384 644.869 -319.086 C 644.315 -318.645 643.784 -318.172 643.279 -317.666 C 631.843 -305.187 620.77 -301.35 603.469 -301.35 C 587.14 -301.35 576.912 -304.439 565.968 -315.404 C 565.195 -316.143 564.359 -316.98 563.677 -317.689 L 492.765 -388.519 C 485.542 -395.734 473.84 -395.734 466.617 -388.519 L 395.648 -317.631 C 384.845 -305.652 374.217 -302.21 357.28 -302.21 C 340.774 -302.21 330.068 -305.92 318.76 -318.009 C 318.624 -318.165 318.483 -318.322 318.339 -318.476 C 318.125 -318.705 317.764 -319.048 317.324 -319.436 C 317.418 -319.349 317.511 -319.26 317.604 -319.17 C 317.514 -319.251 317.424 -319.332 317.333 -319.411 C 317.26 -319.48 317.187 -319.55 317.115 -319.62 C 316.541 -320.116 315.863 -320.665 315.21 -321.135 C 315.824 -320.711 316.415 -320.249 316.979 -319.75 C 305.761 -330.559 301.622 -341.078 302.134 -357.666 C 301.477 -371.57 304.619 -380.504 313.363 -390.613 C 314.889 -392.489 316.196 -393.975 317.905 -395.748 L 388.662 -466.465 C 395.887 -473.686 395.892 -485.397 388.673 -492.624 L 317.457 -563.921 C 305.3 -575.02 300.712 -586.119 300.891 -603.171 C 300.037 -620.172 304.364 -631.278 317.117 -643.036 C 329.101 -655.608 339.958 -660.143 355.991 -658.606 C 373.005 -658.477 384.057 -653.908 395.247 -641.799 C 395.513 -641.534 395.785 -641.278 396.065 -641.032 L 466.617 -570.561 C 473.833 -563.354 485.52 -563.345 492.746 -570.542 Z"/>
</svg>