<?xml version="1.0" encoding="utf-8"?>
<svg xmlns="http://www.w3.org/2000/svg" height="48" viewBox="0 -960 960 960" width="48">
  <path d="M 834.22 -321.43 L 785.657 -321.43 C 778.555 -321.43 772.799 -327.19 772.799 -334.29 C 773.361 -345.01 769.503 -352.31 762.327 -359.49 C 755.148 -366.69 747.849 -369.99 737.074 -369.99 C 726.309 -369.99 719.008 -366.69 711.827 -359.49 C 704.646 -352.31 700.785 -345.01 701.349 -334.29 L 701.349 -292.35 C 712.966 -296.29 718.398 -298.56 737.074 -298.56 C 766.5 -298.56 795.628 -285.62 814.84 -266.46 C 834.047 -247.29 847.077 -218.15 847.077 -188.56 C 847.077 -159.22 834.053 -130.08 814.856 -110.86 C 795.66 -91.632 766.526 -78.542 737.074 -78.542 C 707.602 -78.542 678.468 -91.632 659.276 -110.86 C 640.082 -130.08 627.63 -159.22 627.07 -188.56 L 627.07 -334.29 C 627.632 -363.88 640.088 -393.02 659.292 -412.19 C 678.498 -431.35 707.627 -444.29 737.074 -444.29 C 766.5 -444.29 795.628 -431.35 814.84 -412.19 C 834.047 -393.02 846.516 -363.88 847.077 -334.29 C 847.077 -327.19 841.321 -321.43 834.22 -321.43 Z M 711.827 -213.76 C 704.646 -206.58 701.349 -199.28 701.349 -188.56 C 701.349 -177.84 704.648 -170.52 711.829 -163.34 C 719.01 -156.14 726.309 -152.83 737.074 -152.83 C 747.849 -152.83 755.148 -156.14 762.327 -163.34 C 769.503 -170.52 772.799 -177.82 772.799 -188.56 C 772.799 -199.28 769.503 -206.58 762.327 -213.76 C 755.148 -220.96 747.849 -224.26 737.074 -224.26 C 726.309 -224.26 719.008 -220.96 711.827 -213.76 Z M 166.466 -849.36 C 185.679 -868.53 214.811 -881.46 244.247 -881.46 C 273.694 -881.46 302.824 -868.53 322.029 -849.36 C 341.233 -830.19 354.251 -801.05 354.251 -771.46 C 354.251 -741.14 348.819 -719.28 326.191 -698.65 C 343.444 -678.61 354.251 -656.59 354.251 -625.73 C 354.251 -596.4 341.239 -567.26 322.045 -548.04 C 302.851 -528.81 273.72 -515.73 244.247 -515.73 C 214.787 -515.73 185.649 -528.81 166.45 -548.04 C 147.248 -567.26 134.786 -596.4 134.224 -625.73 C 134.865 -656.57 145.197 -678.59 162.321 -698.63 C 145.181 -718.76 134.847 -741.12 134.224 -771.44 C 134.786 -801.03 147.254 -830.19 166.466 -849.36 Z M 244.247 -661.46 C 233.473 -661.46 226.173 -658.15 218.995 -650.95 C 211.818 -643.77 208.522 -636.47 208.522 -625.73 C 208.522 -614.99 211.818 -607.69 218.995 -600.51 C 226.173 -593.31 233.473 -590.01 244.247 -590.01 C 255.022 -590.01 262.322 -593.31 269.5 -600.51 C 276.677 -607.69 279.972 -614.99 279.972 -625.73 C 279.972 -636.47 276.677 -643.77 269.5 -650.95 C 262.322 -658.15 255.022 -661.46 244.247 -661.46 Z M 244.247 -807.19 C 233.473 -807.19 226.173 -803.88 218.995 -796.68 C 211.818 -789.5 208.522 -782.2 208.522 -771.46 C 208.522 -760.72 211.818 -753.42 218.995 -746.24 C 226.173 -739.04 233.473 -735.74 244.247 -735.74 C 255.022 -735.74 262.322 -739.04 269.5 -746.24 C 276.677 -753.42 279.972 -760.72 279.972 -771.46 C 279.972 -782.2 276.677 -789.5 269.5 -796.68 C 262.322 -803.88 255.022 -807.19 244.247 -807.19 Z M 290.021 -309.99 L 290.021 -379.25 C 290.021 -389.34 293.504 -397.67 300.432 -404.2 C 307.38 -410.73 315.829 -413.91 325.765 -413.91 C 335.719 -413.91 344.131 -410.73 351.001 -403.81 C 357.848 -397.07 361.271 -388.55 361.271 -378.47 L 361.271 -218.15 C 361.271 -204.9 356.818 -193.81 347.912 -184.9 C 339.005 -176.01 327.624 -171.46 313.771 -171.46 L 154.448 -171.46 C 144.571 -171.46 136.18 -174.81 129.234 -181.35 C 122.308 -187.87 118.824 -196.19 118.824 -206.28 C 118.824 -216.17 122.308 -224.68 129.234 -231.42 C 136.18 -238.35 144.571 -241.71 154.448 -241.71 L 224.709 -241.71 C 201.632 -262.9 180.356 -286.64 160.88 -313.16 C 141.424 -339.49 126.423 -366.6 115.854 -394.1 C 111.243 -406.78 112.075 -418.84 118.328 -430.32 C 124.603 -441.81 134.339 -449.13 147.521 -452.09 C 160.069 -455.07 172.103 -453.29 183.642 -446.75 C 195.199 -440.03 203.928 -430.91 209.865 -418.84 C 217.781 -397.86 228.173 -378.47 241.037 -361.05 C 253.901 -343.65 270.229 -326.61 290.021 -309.99 Z M 563.296 -431.43 L 563.296 -91.39 C 563.296 -84.29 557.539 -78.54 550.438 -78.54 L 501.867 -78.54 C 494.765 -78.54 489.009 -84.29 489.009 -91.39 L 489.009 -369.99 L 453.292 -369.99 C 446.191 -369.99 440.434 -375.75 440.434 -382.85 L 440.434 -431.43 C 440.434 -438.53 446.191 -444.29 453.292 -444.29 L 550.438 -444.29 C 557.539 -444.29 563.296 -438.53 563.296 -431.43 Z M 568.093 -695.93 L 568.093 -626.66 C 568.093 -616.76 564.63 -608.45 557.684 -601.92 C 550.757 -595.38 542.306 -592.02 532.35 -592.02 C 522.395 -592.02 514.003 -595.58 507.136 -602.31 C 500.287 -609.04 496.843 -617.56 496.843 -627.65 L 496.843 -788.16 C 496.843 -801.22 501.296 -812.29 510.204 -821.2 C 519.108 -830.12 530.49 -834.47 544.344 -834.47 L 703.667 -834.47 C 713.542 -834.47 721.954 -831.3 728.901 -824.77 C 735.829 -818.24 739.292 -809.93 739.292 -799.84 C 739.292 -789.94 735.829 -781.43 728.901 -774.71 C 721.954 -767.78 713.542 -764.41 703.667 -764.41 L 633.407 -764.41 C 656.501 -743.23 677.779 -719.47 697.233 -693.16 C 716.709 -666.63 731.711 -639.71 742.261 -611.8 C 746.892 -599.34 746.061 -587.26 739.787 -575.79 C 733.531 -564.31 723.795 -557 710.594 -554.02 C 698.065 -551.05 686.032 -552.83 674.474 -559.56 C 662.935 -566.1 654.189 -575.41 648.251 -587.09 C 640.334 -608.26 629.944 -627.65 617.078 -645.07 C 604.213 -662.47 587.885 -679.5 568.093 -695.93 Z" style=""/>
</svg>