<?xml version="1.0" encoding="utf-8"?>
<svg xmlns="http://www.w3.org/2000/svg" height="48" viewBox="0 -960 960 960" width="48">
  <path d="M 669.979 -650.01 L 669.979 -580.75 C 669.979 -570.66 666.496 -562.33 659.568 -555.8 C 652.62 -549.27 644.171 -546.09 634.235 -546.09 C 624.281 -546.09 615.869 -549.27 608.999 -556.19 C 602.152 -562.93 598.729 -571.45 598.729 -581.53 L 598.729 -741.85 C 598.729 -755.1 603.182 -766.19 612.088 -775.1 C 620.995 -783.99 632.376 -788.54 646.229 -788.54 L 805.552 -788.54 C 815.429 -788.54 823.82 -785.19 830.766 -778.65 C 837.692 -772.13 841.176 -763.81 841.176 -753.72 C 841.176 -743.83 837.692 -735.32 830.766 -728.58 C 823.82 -721.65 815.429 -718.29 805.552 -718.29 L 735.291 -718.29 C 758.368 -697.1 779.644 -673.36 799.12 -646.84 C 818.576 -620.51 833.577 -593.4 844.146 -565.9 C 848.757 -553.22 847.925 -541.16 841.672 -529.68 C 835.397 -518.19 825.661 -510.87 812.479 -507.91 C 799.931 -504.93 787.897 -506.71 776.358 -513.25 C 764.801 -519.97 756.072 -529.09 750.135 -541.16 C 742.219 -562.14 731.827 -581.53 718.963 -598.95 C 706.099 -616.35 689.771 -633.39 669.979 -650.01 Z M 391.907 -264.07 L 391.907 -333.34 C 391.907 -343.24 395.37 -351.55 402.316 -358.08 C 409.243 -364.62 417.694 -367.98 427.65 -367.98 C 437.605 -367.98 445.997 -364.42 452.864 -357.69 C 459.713 -350.96 463.157 -342.44 463.157 -332.35 L 463.157 -171.84 C 463.157 -158.78 458.704 -147.71 449.796 -138.8 C 440.892 -129.88 429.51 -125.53 415.656 -125.53 L 256.333 -125.53 C 246.458 -125.53 238.046 -128.7 231.099 -135.23 C 224.171 -141.76 220.708 -150.07 220.708 -160.16 C 220.708 -170.06 224.171 -178.57 231.099 -185.29 C 238.046 -192.22 246.458 -195.59 256.333 -195.59 L 326.593 -195.59 C 303.499 -216.77 282.221 -240.53 262.767 -266.84 C 243.291 -293.37 228.289 -320.29 217.739 -348.2 C 213.108 -360.66 213.939 -372.74 220.213 -384.21 C 226.469 -395.69 236.205 -403 249.406 -405.98 C 261.935 -408.95 273.968 -407.17 285.526 -400.44 C 297.065 -393.9 305.811 -384.59 311.749 -372.91 C 319.666 -351.74 330.056 -332.35 342.922 -314.93 C 355.787 -297.53 372.115 -280.5 391.907 -264.07 Z M 235.785 -868.6 L 235.785 -528.56 C 235.785 -521.46 230.028 -515.71 222.927 -515.71 L 174.356 -515.71 C 167.254 -515.71 161.498 -521.46 161.498 -528.56 L 161.498 -807.16 L 125.781 -807.16 C 118.68 -807.16 112.923 -812.92 112.923 -820.02 L 112.923 -868.6 C 112.923 -875.7 118.68 -881.46 125.781 -881.46 L 222.927 -881.46 C 230.028 -881.46 235.785 -875.7 235.785 -868.6 Z M 506.709 -758.6 L 458.146 -758.6 C 451.044 -758.6 445.288 -764.36 445.288 -771.46 C 445.85 -782.18 441.992 -789.48 434.816 -796.66 C 427.637 -803.86 420.338 -807.16 409.563 -807.16 C 398.798 -807.16 391.497 -803.86 384.316 -796.66 C 377.135 -789.48 373.274 -782.18 373.838 -771.46 L 373.838 -729.52 C 385.455 -733.46 390.887 -735.73 409.563 -735.73 C 438.989 -735.73 468.117 -722.79 487.329 -703.63 C 506.536 -684.46 519.566 -655.32 519.566 -625.73 C 519.566 -596.39 506.542 -567.25 487.345 -548.03 C 468.149 -528.8 439.015 -515.71 409.563 -515.71 C 380.091 -515.71 350.957 -528.8 331.765 -548.03 C 312.571 -567.25 300.119 -596.39 299.559 -625.73 L 299.559 -771.46 C 300.121 -801.05 312.577 -830.19 331.781 -849.36 C 350.987 -868.52 380.116 -881.46 409.563 -881.46 C 438.989 -881.46 468.117 -868.52 487.329 -849.36 C 506.536 -830.19 519.005 -801.05 519.566 -771.46 C 519.566 -764.36 513.81 -758.6 506.709 -758.6 Z M 384.316 -650.93 C 377.135 -643.75 373.838 -636.45 373.838 -625.73 C 373.838 -615.01 377.137 -607.69 384.318 -600.51 C 391.499 -593.31 398.798 -590 409.563 -590 C 420.338 -590 427.637 -593.31 434.816 -600.51 C 441.992 -607.69 445.288 -614.99 445.288 -625.73 C 445.288 -636.45 441.992 -643.75 434.816 -650.93 C 427.637 -658.13 420.338 -661.43 409.563 -661.43 C 398.798 -661.43 391.497 -658.13 384.316 -650.93 Z M 825.776 -334.25 C 825.153 -303.93 814.819 -281.57 797.679 -261.44 C 814.803 -241.4 825.135 -219.38 825.776 -188.54 C 825.214 -159.21 812.752 -130.07 793.55 -110.85 C 774.351 -91.626 745.213 -78.541 715.753 -78.541 C 686.28 -78.541 657.149 -91.626 637.955 -110.85 C 618.761 -130.07 605.749 -159.21 605.749 -188.54 C 605.749 -219.4 616.556 -241.42 633.809 -261.46 C 611.181 -282.09 605.749 -303.95 605.749 -334.27 C 605.749 -363.86 618.767 -393 637.971 -412.17 C 657.176 -431.34 686.306 -444.27 715.753 -444.27 C 745.189 -444.27 774.321 -431.34 793.534 -412.17 C 812.746 -393 825.214 -363.84 825.776 -334.25 Z M 690.5 -359.49 C 683.323 -352.31 680.028 -345.01 680.028 -334.27 C 680.028 -323.53 683.323 -316.23 690.5 -309.05 C 697.678 -301.85 704.978 -298.55 715.753 -298.55 C 726.527 -298.55 733.827 -301.85 741.005 -309.05 C 748.182 -316.23 751.478 -323.53 751.478 -334.27 C 751.478 -345.01 748.182 -352.31 741.005 -359.49 C 733.827 -366.69 726.527 -370 715.753 -370 C 704.978 -370 697.678 -366.69 690.5 -359.49 Z M 690.5 -213.76 C 683.323 -206.58 680.028 -199.28 680.028 -188.54 C 680.028 -177.8 683.323 -170.5 690.5 -163.32 C 697.678 -156.12 704.978 -152.82 715.753 -152.82 C 726.527 -152.82 733.827 -156.12 741.005 -163.32 C 748.182 -170.5 751.478 -177.8 751.478 -188.54 C 751.478 -199.28 748.182 -206.58 741.005 -213.76 C 733.827 -220.96 726.527 -224.27 715.753 -224.27 C 704.978 -224.27 697.678 -220.96 690.5 -213.76 Z" style=""/>
</svg>