<?xml version="1.0" encoding="utf-8"?>
<svg xmlns="http://www.w3.org/2000/svg" height="48" viewBox="0 -960 960 960" width="48">
  <path d="M 149 -135 C 122.967 -135 100.79 -144.16 82.47 -162.48 C 64.157 -180.793 55 -202.967 55 -229 L 55 -731 C 55 -757.307 64.157 -779.717 82.47 -798.23 C 100.79 -816.743 122.967 -826 149 -826 L 811 -826 C 837.307 -826 859.717 -816.743 878.23 -798.23 C 896.743 -779.717 906 -757.307 906 -731 L 906 -229 C 906 -202.967 896.743 -180.793 878.23 -162.48 C 859.717 -144.16 837.307 -135 811 -135 L 149 -135 Z M 149 -229 L 811 -229 L 811 -731 L 149 -731 L 149 -229 Z M 149 -229 L 149 -731 L 149 -229 Z M 279.37 -358 L 678.206 -358 C 686.953 -358 694.203 -360.893 699.956 -366.68 C 705.703 -372.46 708.576 -379.627 708.576 -388.18 C 708.576 -396.727 705.703 -403.833 699.956 -409.5 C 694.203 -415.167 686.953 -418 678.206 -418 L 279.37 -418 C 270.623 -418 263.377 -415.107 257.63 -409.32 C 251.877 -403.54 249 -396.373 249 -387.82 C 249 -379.273 251.877 -372.167 257.63 -366.5 C 263.377 -360.833 270.623 -358 279.37 -358 Z M 279.597 -478 L 680.63 -478 C 689.377 -478 696.627 -480.893 702.38 -486.68 C 708.127 -492.46 711 -499.627 711 -508.18 C 711 -516.727 708.127 -523.833 702.38 -529.5 C 696.627 -535.167 689.377 -538 680.63 -538 L 279.597 -538 C 270.85 -538 263.604 -535.107 257.857 -529.32 C 252.104 -523.54 249.227 -516.373 249.227 -507.82 C 249.227 -499.273 252.104 -492.167 257.857 -486.5 C 263.604 -480.833 270.85 -478 279.597 -478 Z"/>
</svg>