<?xml version="1.0" encoding="utf-8"?>
<svg xmlns="http://www.w3.org/2000/svg" height="48" viewBox="0 -960 960 960" width="48">
  <title>divide</title>
  <path d="M 767.928 -428.46 L 192.073 -428.46 C 178.855 -429.147 163.777 -434.906 155.374 -443.307 C 146.971 -451.708 140.522 -466.787 140.522 -480.01 C 140.522 -493.228 146.971 -508.306 155.373 -516.708 C 163.775 -525.11 178.853 -530.873 192.073 -531.56 L 767.928 -531.56 C 781.148 -530.873 796.226 -525.11 804.628 -516.708 C 813.03 -508.306 819.479 -493.228 819.479 -480.01 C 819.479 -466.787 813.03 -451.708 804.627 -443.307 C 796.224 -434.906 781.146 -429.147 767.928 -428.46 Z M 480.005 -117.5 C 448.536 -117.5 416.636 -131.873 396.003 -152.507 C 375.369 -173.141 360.997 -205.042 360.997 -236.51 C 360.997 -267.979 375.369 -299.877 396.003 -320.509 C 416.637 -341.14 448.537 -355.51 480.005 -355.51 C 511.472 -355.51 543.372 -341.14 564.006 -320.509 C 584.64 -299.877 599.012 -267.979 599.012 -236.51 C 599.012 -204.217 584.616 -172.268 563.939 -151.821 C 543.249 -131.361 511.368 -117.5 480.005 -117.5 Z M 515.265 -271.765 C 507.17 -279.86 492.543 -286.41 480.005 -286.41 C 467.467 -286.41 452.84 -279.86 444.745 -271.765 C 436.649 -263.67 430.099 -249.044 430.099 -236.51 C 430.099 -223.972 436.648 -209.344 444.744 -201.247 C 452.839 -193.151 467.467 -186.6 480.005 -186.6 C 492.543 -186.6 507.171 -193.151 515.266 -201.248 C 523.361 -209.344 529.91 -223.972 529.91 -236.51 C 529.91 -249.043 523.36 -263.67 515.265 -271.765 Z M 480.005 -604.5 C 448.536 -604.5 416.636 -618.873 396.003 -639.507 C 375.369 -660.141 360.997 -692.042 360.997 -723.51 C 360.997 -754.969 375.37 -786.865 396.003 -807.496 C 416.637 -828.128 448.536 -842.5 480.005 -842.5 C 511.473 -842.5 543.373 -828.128 564.006 -807.496 C 584.639 -786.865 599.012 -754.969 599.012 -723.51 C 599.012 -692.042 584.64 -660.141 564.007 -639.507 C 543.373 -618.873 511.473 -604.5 480.005 -604.5 Z M 515.264 -758.77 C 507.167 -766.864 492.541 -773.41 480.005 -773.41 C 467.469 -773.41 452.843 -766.864 444.746 -758.77 C 436.65 -750.676 430.099 -736.049 430.099 -723.51 C 430.099 -710.972 436.648 -696.344 444.744 -688.247 C 452.839 -680.151 467.467 -673.6 480.005 -673.6 C 492.543 -673.6 507.171 -680.151 515.266 -688.248 C 523.361 -696.344 529.91 -710.972 529.91 -723.51 C 529.91 -736.048 523.36 -750.676 515.264 -758.77 Z" style=""/>
</svg>