<?xml version="1.0" encoding="utf-8"?>
<svg xmlns="http://www.w3.org/2000/svg" height="48" viewBox="0 -960 960 960" width="48">
  <path d="M 865.5 -189.5 C 865.5 -163.19 856.34 -140.78 838.03 -122.27 C 819.71 -103.76 797.53 -94.5 771.5 -94.5 L 189.5 -94.5 C 163.19 -94.5 140.78 -103.76 122.27 -122.27 C 103.76 -140.78 94.5 -163.19 94.5 -189.5 L 94.5 -770.5 C 94.5 -796.81 103.76 -819.22 122.27 -837.73 C 140.78 -856.24 163.19 -865.5 189.5 -865.5 L 771.5 -865.5 C 797.53 -865.5 819.71 -856.24 838.03 -837.73 C 856.34 -819.22 865.5 -796.81 865.5 -770.5 L 865.5 -189.5 Z M 771.5 -189.5 L 771.5 -770.5 L 189.5 -770.5 L 189.5 -189.5 L 771.5 -189.5 Z M 706.87 -536.13 C 697.79 -527.04 686.67 -522.5 673.5 -522.5 L 461.5 -522.5 C 448.33 -522.5 437.21 -527.04 428.12 -536.13 C 419.04 -545.21 414.5 -556.33 414.5 -569.5 L 414.5 -672.5 C 414.5 -685.67 419.04 -696.79 428.12 -705.88 C 437.21 -714.96 448.33 -719.5 461.5 -719.5 L 673.5 -719.5 C 686.67 -719.5 697.79 -714.96 706.87 -705.88 C 715.96 -696.79 720.5 -685.67 720.5 -672.5 L 720.5 -569.5 C 720.5 -556.33 715.96 -545.21 706.87 -536.13 Z M 476.87 -253.13 C 467.79 -244.04 456.67 -239.5 443.5 -239.5 L 287.5 -239.5 C 274.33 -239.5 263.21 -244.04 254.12 -253.13 C 245.04 -262.21 240.5 -273.33 240.5 -286.5 L 240.5 -445.5 C 240.5 -458.67 245.04 -469.79 254.12 -478.88 C 263.21 -487.96 274.33 -492.5 287.5 -492.5 L 443.5 -492.5 C 456.67 -492.5 467.79 -487.96 476.87 -478.88 C 485.96 -469.79 490.5 -458.67 490.5 -445.5 L 490.5 -286.5 C 490.5 -273.33 485.96 -262.21 476.87 -253.13 Z M 371.87 -535.13 C 363.46 -526.71 353.33 -522.5 341.5 -522.5 L 287.5 -522.5 C 274.33 -522.5 263.21 -527.04 254.12 -536.13 C 245.04 -545.21 240.5 -556.33 240.5 -569.5 L 240.5 -672.5 C 240.5 -685.67 245.04 -696.79 254.12 -705.88 C 263.21 -714.96 274.33 -719.5 287.5 -719.5 L 341.5 -719.5 C 353.33 -719.5 363.46 -715.29 371.87 -706.88 C 380.29 -698.46 384.5 -688.33 384.5 -676.5 L 384.5 -565.5 C 384.5 -553.67 380.29 -543.54 371.87 -535.13 Z M 706.87 -253.13 C 697.79 -244.04 686.67 -239.5 673.5 -239.5 L 567.5 -239.5 C 554.33 -239.5 543.21 -244.04 534.12 -253.13 C 525.04 -262.21 520.5 -273.33 520.5 -286.5 L 520.5 -445.5 C 520.5 -458.67 525.04 -469.79 534.12 -478.88 C 543.21 -487.96 554.33 -492.5 567.5 -492.5 L 673.5 -492.5 C 686.67 -492.5 697.79 -487.96 706.87 -478.88 C 715.96 -469.79 720.5 -458.67 720.5 -445.5 L 720.5 -286.5 C 720.5 -273.33 715.96 -262.21 706.87 -253.13 Z" style=""/>
</svg>