<?xml version="1.0" encoding="utf-8"?>
<svg xmlns="http://www.w3.org/2000/svg" height="48" viewBox="0 -960 960 960" width="48">
  <path d="M 184.762 -134.5 C 158.729 -134.5 136.552 -143.66 118.232 -161.98 C 99.919 -180.29 90.762 -202.47 90.762 -228.5 L 90.762 -730.5 C 90.762 -756.81 99.919 -779.22 118.232 -797.73 C 136.552 -816.24 158.729 -825.5 184.762 -825.5 L 774.239 -825.5 C 800.546 -825.5 822.956 -816.24 841.469 -797.73 C 859.982 -779.22 869.239 -756.81 869.239 -730.5 L 869.239 -228.5 C 869.239 -202.47 859.982 -180.29 841.469 -161.98 C 822.956 -143.66 800.546 -134.5 774.239 -134.5 Z M 184.762 -228.5 L 774.239 -228.5 L 774.239 -726.72 L 184.762 -726.72 Z M 336.978 -488 L 253.978 -571 C 247.978 -577 245.145 -584 245.478 -592 C 245.811 -600 248.978 -607 254.978 -613 C 260.978 -619 267.978 -622 275.978 -622 C 283.978 -622 290.978 -619 296.978 -613 L 387.978 -522 C 397.311 -512.43 401.978 -501.03 401.978 -487.82 C 401.978 -474.61 397.311 -463.33 387.978 -454 L 296.978 -363 C 290.978 -357 283.978 -354 275.978 -354 C 267.978 -354 260.978 -357 254.978 -363 C 248.978 -369 245.978 -376 245.978 -384 C 245.978 -392 248.978 -399 254.978 -405 Z M 495.978 -338 C 487.311 -338 480.145 -340.83 474.478 -346.5 C 468.811 -352.17 465.978 -359.33 465.978 -368 C 465.978 -376.67 468.811 -383.83 474.478 -389.5 C 480.145 -395.17 487.311 -398 495.978 -398 L 684.548 -398 C 693.215 -398 700.381 -395.17 706.048 -389.5 C 711.715 -383.83 714.548 -376.67 714.548 -368 C 714.548 -359.33 711.715 -352.17 706.048 -346.5 C 700.381 -340.83 693.215 -338 684.548 -338 Z"/>
</svg>