<?xml version="1.0" encoding="utf-8"?>
<svg xmlns="http://www.w3.org/2000/svg" height="48" viewBox="0 -960 960 960" width="48">
  <path d="M 724.995 -694.36 C 717.033 -694.36 710.305 -697.14 704.811 -702.59 C 699.305 -708.16 696.558 -714.82 696.558 -722.81 L 696.558 -769.99 C 696.558 -773.5 697.26 -776.77 698.676 -780.04 C 700.092 -783.32 702.209 -786.34 705.028 -789.35 L 833.07 -916.91 C 837.62 -921.38 842.642 -924.76 848.136 -926.95 C 853.63 -929.24 859.196 -930.34 864.848 -930.34 C 870.85 -930.34 876.573 -929.12 882.019 -926.71 C 887.453 -924.29 892.595 -920.89 897.436 -916.42 L 919.823 -894.04 C 924.264 -889.68 927.483 -884.72 929.504 -879.27 C 931.525 -873.83 932.529 -868.25 932.529 -862.57 C 932.529 -856.51 931.416 -850.71 929.189 -845.14 C 926.95 -839.58 923.61 -834.49 919.169 -829.89 L 792.156 -702.22 C 789.179 -699.45 786.094 -697.38 782.887 -696.19 C 779.68 -694.97 776.122 -694.36 772.189 -694.36 Z M 741.937 -739.73 L 764.929 -739.73 L 836.326 -811.62 L 834.503 -813.563 L 836.326 -811.74 L 825.434 -823.23 L 813.938 -834.13 L 834.503 -813.563 L 825.434 -823.23 L 813.938 -834.13 L 741.937 -762.85 Z M 225.602 -481 L 389.602 -317 C 398.935 -307 403.269 -295.83 402.602 -283.5 C 401.935 -271.17 396.769 -260 387.102 -250 C 377.435 -240 366.269 -235.17 353.602 -235.5 C 340.935 -235.83 329.935 -240.67 320.602 -250 L 123.602 -446 C 118.995 -450.78 115.345 -456.18 112.652 -462.19 C 109.952 -468.21 108.602 -474.18 108.602 -480.11 C 108.602 -486.04 109.952 -491.98 112.652 -497.95 C 115.345 -503.92 118.995 -509.27 123.602 -514 L 323.602 -714 C 333.202 -723.33 344.435 -728 357.302 -728 C 370.169 -728 381.269 -723.33 390.602 -714 C 399.935 -704.67 404.602 -693.4 404.602 -680.2 C 404.602 -667 399.935 -655.6 390.602 -646 Z M 735.399 -479 L 571.399 -643 C 561.399 -653 556.732 -664.17 557.399 -676.5 C 558.065 -688.83 563.232 -700 572.899 -710 C 582.565 -720 593.732 -724.83 606.399 -724.5 C 619.065 -724.17 630.065 -719.33 639.399 -710 L 836.399 -514 C 841.005 -509.22 844.655 -503.82 847.349 -497.81 C 850.049 -491.79 851.399 -485.82 851.399 -479.89 C 851.399 -473.96 850.049 -468.02 847.349 -462.05 C 844.655 -456.08 841.005 -450.73 836.399 -446 L 636.399 -246 C 627.005 -236.67 615.989 -232 603.349 -232 C 590.715 -232 579.732 -237 570.399 -247 C 560.399 -256.42 555.399 -267.61 555.399 -280.57 C 555.399 -293.52 560.399 -304.67 570.399 -314 Z" style="stroke-width: 0.05;"/>
</svg>