<?xml version="1.0" encoding="utf-8"?>
<svg viewBox="0 0 16 16" xmlns="http://www.w3.org/2000/svg">
  <path d="M 11.494 8.501 C 11.937 8.521 12.428 8.709 12.713 8.996 C 13.001 9.283 13.197 9.767 13.216 10.209 L 13.216 11.068 L 13.645 11.068 C 13.882 11.068 14.074 11.26 14.074 11.497 L 14.074 14.071 C 14.074 14.308 13.882 14.5 13.645 14.5 L 9.355 14.5 C 9.118 14.5 8.926 14.308 8.926 14.071 L 8.926 11.497 C 8.926 11.26 9.118 11.068 9.355 11.068 L 9.784 11.068 L 9.784 10.209 C 9.803 9.767 9.999 9.283 10.287 8.996 C 10.432 8.851 10.639 8.709 10.832 8.628 C 11.023 8.547 11.493 8.5 11.493 8.5 L 11.494 8.501 Z M 11.071 10.209 L 11.071 11.131 L 11.929 11.131 L 11.929 10.209 C 11.929 9.973 11.737 9.78 11.5 9.78 C 11.263 9.78 11.071 9.973 11.071 10.209 Z M 14.5 2 L 14.5 7 C 14.5 7.276 14.276 7.5 14 7.5 L 9 7.5 C 8.724 7.5 8.5 7.276 8.5 7 L 8.5 2 C 8.5 1.724 8.724 1.5 9 1.5 L 14 1.5 C 14.276 1.5 14.5 1.724 14.5 2 Z M 7.5 2 L 7.5 7 C 7.5 7.276 7.276 7.5 7 7.5 L 2 7.5 C 1.724 7.5 1.5 7.276 1.5 7 L 1.5 2 C 1.5 1.724 1.724 1.5 2 1.5 L 7 1.5 C 7.276 1.5 7.5 1.724 7.5 2 Z M 7.5 9 L 7.5 14 C 7.5 14.276 7.276 14.5 7 14.5 L 2 14.5 C 1.724 14.5 1.5 14.276 1.5 14 L 1.5 9 C 1.5 8.724 1.724 8.5 2 8.5 L 7 8.5 C 7.276 8.5 7.5 8.724 7.5 9 Z M 3.5 5.5 L 5.5 5.5 L 5.5 3.5 L 3.5 3.5 L 3.5 5.5 Z M 10.5 5.5 L 12.5 5.5 L 12.5 3.5 L 10.5 3.5 L 10.5 5.5 Z M 3.5 12.5 L 5.5 12.5 L 5.5 10.5 L 3.5 10.5 L 3.5 12.5 Z"/>
</svg>