<?xml version="1.0" encoding="utf-8"?>
<svg xmlns="http://www.w3.org/2000/svg" height="48" viewBox="0 -960 960 960" width="48">
  <path d="M 906 -101.82 C 906 -88.607 901.457 -77.5 892.37 -68.5 C 883.29 -59.5 872.167 -55 859 -55 L 103 -55 C 89.83 -55 78.71 -59.56 69.62 -68.68 C 60.54 -77.793 56 -88.96 56 -102.18 C 56 -115.39 60.54 -126.5 69.62 -135.5 C 78.71 -144.5 89.83 -149 103 -149 L 859 -149 C 872.167 -149 883.29 -144.44 892.37 -135.32 C 901.457 -126.21 906 -115.04 906 -101.82 Z M 906 -857.74 C 906 -844.58 901.46 -833.5 892.37 -824.5 C 883.29 -815.5 872.17 -811 859 -811 L 103 -811 C 89.9 -811 78.6 -815.56 69.2 -824.68 C 59.7 -833.79 55 -844.93 55 -858.09 C 55 -871.24 59.7 -882.52 69.2 -891.91 C 78.6 -901.3 89.9 -906 103 -906 L 859 -906 C 872.17 -906 883.29 -901.25 892.37 -891.74 C 901.46 -882.23 906 -870.89 906 -857.74 Z M 481 -602.01 C 548.55 -602.01 603.08 -547.39 603.08 -480 C 603.08 -412.62 548.55 -357.99 481 -357.99 C 413.73 -357.99 358.91 -412.62 358.91 -480 C 358.91 -547.39 413.73 -602.01 481 -602.01 Z" style=""/>
</svg>