<?xml version="1.0" encoding="utf-8"?>
<svg xmlns="http://www.w3.org/2000/svg" height="48" viewBox="0 -960 960 960" width="48">
  <path d="M 609.5 -619.81 C 642.84 -653.48 683.67 -670.31 732 -670.31 C 780.34 -670.31 821.34 -653.48 855 -619.81 C 888.68 -586.14 905.5 -545.14 905.5 -496.81 C 905.5 -448.48 888.68 -407.48 855 -373.81 C 821.34 -340.14 780.34 -323.31 732 -323.31 C 683.67 -323.31 642.84 -340.14 609.5 -373.81 C 576.17 -407.48 559.5 -448.48 559.5 -496.81 C 559.5 -545.14 576.17 -586.14 609.5 -619.81 Z M 104.999 -858.34 C 138.669 -892 179.669 -908.84 227.999 -908.84 C 276.329 -908.84 317.169 -892 350.499 -858.34 C 383.829 -824.66 400.499 -783.66 400.499 -735.34 C 400.499 -687 383.829 -646.16 350.499 -612.84 C 317.169 -579.5 276.329 -562.84 227.999 -562.84 C 179.669 -562.84 138.669 -579.5 104.999 -612.84 C 71.329 -646.16 54.499 -687 54.499 -735.34 C 54.499 -783.66 71.329 -824.66 104.999 -858.34 Z M 238.5 -347.17 C 271.83 -380.5 312.68 -397.17 361 -397.17 C 409.34 -397.17 450.34 -380.5 484 -347.17 C 517.669 -313.84 534.499 -273 534.499 -224.67 C 534.499 -176.34 517.669 -135.34 484 -101.67 C 450.34 -67.999 409.34 -51.166 361 -51.166 C 312.68 -51.166 271.83 -67.999 238.5 -101.67 C 205.18 -135.34 188.5 -176.34 188.5 -224.67 C 188.5 -273 205.18 -313.84 238.5 -347.17 Z M 675.5 -439.61 C 690.17 -424.74 708.9 -417.31 731.71 -417.31 C 754.51 -417.31 773.35 -424.81 788.21 -439.81 C 803.08 -454.81 810.5 -473.71 810.5 -496.51 C 810.5 -519.32 803.01 -538.15 788.03 -553.01 C 773.04 -567.88 754.14 -575.31 731.34 -575.31 C 708.8 -575.31 690.2 -567.81 675.51 -552.81 C 660.85 -537.81 653.5 -518.91 653.5 -496.11 C 653.5 -473.3 660.84 -454.47 675.5 -439.61 Z M 305.179 -168.63 C 320.299 -153.66 339.079 -146.17 361.539 -146.17 C 383.719 -146.17 402.419 -153.66 417.659 -168.65 C 432.879 -183.63 440.499 -202.47 440.499 -225.17 C 440.499 -247.09 432.849 -265.57 417.529 -280.61 C 402.219 -295.65 383.379 -303.17 361.039 -303.17 C 338.979 -303.17 320.379 -295.67 305.229 -280.67 C 290.069 -265.67 282.499 -246.99 282.499 -224.63 C 282.499 -202.28 290.069 -183.61 305.179 -168.63 Z M 171.979 -679.51 C 186.969 -664.39 205.629 -656.84 227.999 -656.84 C 250.089 -656.84 268.699 -664.34 283.819 -679.34 C 298.939 -694.34 306.499 -713.01 306.499 -735.38 C 306.499 -757.73 298.999 -776.57 283.999 -791.88 C 268.999 -807.18 250.489 -814.84 228.459 -814.84 C 205.619 -814.84 186.749 -807.17 171.849 -791.87 C 156.949 -776.54 149.499 -757.71 149.499 -735.34 C 149.499 -713.25 156.999 -694.63 171.979 -679.51 Z" style=""/>
</svg>