<?xml version="1.0" encoding="utf-8"?>
<svg xmlns="http://www.w3.org/2000/svg" height="48" viewBox="0 -960 960 960" width="48">
  <path d="M 826 -149 C 826 -122.97 816.84 -100.79 798.52 -82.47 C 780.21 -64.157 758.03 -55 732 -55 L 230 -55 C 203.69 -55 181.28 -64.157 162.77 -82.47 C 144.26 -100.79 135 -122.97 135 -149 L 135 -811 C 135 -837.31 144.26 -859.72 162.77 -878.23 C 181.28 -896.74 203.69 -906 230 -906 L 732 -906 C 758.03 -906 780.21 -896.74 798.52 -878.23 C 816.84 -859.72 826 -837.31 826 -811 L 826 -149 Z M 732 -149 L 732 -440 L 230 -440 L 230 -149 L 732 -149 Z M 732 -520 L 732 -811 L 230 -811 L 230 -520 L 732 -520 Z M 288.74 -340.05 C 282.987 -345.71 280.11 -352.81 280.11 -361.37 C 280.11 -369.92 282.987 -377.08 288.74 -382.87 C 294.487 -388.65 301.61 -391.55 310.11 -391.55 L 649.889 -391.55 C 658.389 -391.55 665.516 -388.71 671.269 -383.05 C 677.016 -377.38 679.889 -370.27 679.889 -361.73 C 679.889 -353.18 677.016 -346 671.269 -340.23 C 665.516 -334.44 658.389 -331.55 649.889 -331.55 L 310.11 -331.55 C 301.61 -331.55 294.487 -334.38 288.74 -340.05 Z M 288.74 -211.04 C 282.987 -216.72 280.11 -223.81 280.11 -232.37 C 280.11 -240.91 282.987 -248.09 288.74 -253.87 C 294.487 -259.65 301.61 -262.55 310.11 -262.55 L 649.889 -262.55 C 658.389 -262.55 665.516 -259.71 671.269 -254.04 C 677.016 -248.38 679.889 -241.28 679.889 -232.72 C 679.889 -224.18 677.016 -217 671.269 -211.22 C 665.516 -205.44 658.389 -202.54 649.889 -202.54 L 310.11 -202.54 C 301.61 -202.54 294.487 -205.38 288.74 -211.04 Z M 288.74 -705.96 C 282.987 -711.63 280.11 -718.74 280.11 -727.27 C 280.11 -735.84 282.987 -743 288.74 -748.77 C 294.487 -754.57 301.61 -757.46 310.11 -757.46 L 649.889 -757.46 C 658.389 -757.46 665.516 -754.63 671.269 -748.96 C 677.016 -743.29 679.889 -736.18 679.889 -727.63 C 679.889 -719.09 677.016 -711.91 671.269 -706.13 C 665.516 -700.36 658.389 -697.46 649.889 -697.46 L 310.11 -697.46 C 301.61 -697.46 294.487 -700.29 288.74 -705.96 Z M 288.74 -576.96 C 282.987 -582.63 280.11 -589.74 280.11 -598.27 C 280.11 -606.84 282.987 -614 288.74 -619.77 C 294.487 -625.57 301.61 -628.46 310.11 -628.46 L 649.889 -628.46 C 658.389 -628.46 665.516 -625.63 671.269 -619.96 C 677.016 -614.29 679.889 -607.18 679.889 -598.63 C 679.889 -590.09 677.016 -582.91 671.269 -577.13 C 665.516 -571.36 658.389 -568.46 649.889 -568.46 L 310.11 -568.46 C 301.61 -568.46 294.487 -571.29 288.74 -576.96 Z" style=""/>
</svg>