<?xml version="1.0" encoding="utf-8"?>
<svg xmlns="http://www.w3.org/2000/svg" height="48" viewBox="0 -960 960 960" width="48">
  <path d="M 637.859 -243.66 C 644.111 -261.21 654.354 -277.08 668.583 -291.31 C 682.501 -305.12 698.051 -315.14 715.228 -321.38 L 715.242 -445.64 L 714.878 -445.64 L 714.857 -638.66 C 697.778 -644.77 682.316 -654.73 668.467 -668.32 C 654.077 -682.82 643.797 -698.92 637.553 -716.82 L 471.794 -716.87 L 447.429 -716.86 L 447.429 -243.93 L 637.859 -243.66 Z M 638.983 -808.75 C 645.312 -825.04 655.153 -839.83 668.508 -853.22 C 693.92 -878.42 724.794 -891.02 761.071 -891.02 C 761.079 -891.02 761.087 -891.02 761.095 -891.02 C 761.103 -891.02 761.111 -891.02 761.119 -891.02 C 797.379 -891.02 828.239 -878.36 853.629 -853.08 C 878.783 -828.04 891.462 -797.74 891.686 -762.02 C 891.689 -761.65 891.69 -761.28 891.69 -760.92 L 891.69 -760.52 C 891.69 -759.61 891.682 -758.7 891.666 -757.8 C 891.46 -745.99 889.877 -734.8 886.928 -724.31 C 881.152 -703.28 870.037 -684.73 853.613 -668.32 C 842.341 -657.17 829.996 -648.55 816.577 -642.43 C 813.495 -641.02 810.357 -639.73 807.163 -638.58 L 807.067 -321.27 C 824.202 -314.98 839.709 -304.91 853.584 -291.14 C 878.995 -265.75 891.69 -234.95 891.69 -198.95 L 891.69 -198.77 C 891.69 -187.36 890.43 -176.56 887.912 -166.37 C 882.474 -143.77 871.037 -123.77 853.623 -106.4 C 828.27 -81.377 797.461 -68.987 761.213 -68.987 C 761.173 -68.987 761.134 -68.987 761.113 -68.987 C 761.052 -68.987 761.033 -68.987 760.973 -68.987 C 724.725 -68.987 693.934 -81.377 668.544 -106.4 C 655.061 -119.98 645.189 -134.93 638.852 -151.67 L 445.923 -151.94 C 442.485 -131.56 433.162 -113.65 417.953 -98.444 C 398.283 -78.814 374.659 -68.984 347.043 -68.984 C 346.983 -68.984 198.952 -68.984 198.891 -68.984 L 168.697 -68.984 C 141.101 -68.984 117.457 -78.814 97.808 -98.444 C 78.157 -118.09 68.311 -142.24 68.311 -170.43 L 68.311 -760.42 C 68.311 -760.62 68.311 -760.62 68.311 -760.62 L 68.311 -789.57 C 68.311 -817.55 78.157 -841.47 97.808 -861.33 C 117.457 -881.19 141.101 -891.02 168.697 -891.02 C 168.705 -891.02 198.901 -891.02 198.909 -891.02 L 347.043 -891.02 C 374.659 -891.02 398.283 -881.19 417.953 -861.33 C 432.958 -846.16 442.233 -828.63 445.781 -808.73 L 638.983 -808.75 Z M 723.616 -723.15 C 727.705 -719.09 732.292 -715.81 737.178 -713.32 C 738.024 -712.89 738.879 -712.5 739.741 -712.12 C 740.049 -711.97 740.359 -711.83 740.669 -711.69 C 747.199 -708.93 754.161 -707.53 761.119 -707.53 C 762.035 -707.53 762.951 -707.55 763.865 -707.59 C 776.485 -708.28 788.916 -713.62 798.588 -723.12 C 814.574 -739.05 818.246 -762.65 809.643 -782.22 C 807.069 -788.02 803.404 -793.44 798.649 -798.18 C 795.047 -801.82 791.062 -804.81 786.826 -807.16 C 782.209 -809.68 777.29 -811.48 772.242 -812.55 C 771.384 -812.72 770.523 -812.88 769.659 -813.01 C 755.059 -815.37 739.679 -811.63 727.626 -801.94 C 726.206 -800.75 724.816 -799.57 723.516 -798.18 C 722.869 -797.62 722.274 -796.72 721.675 -796.29 C 720.78 -795.3 719.929 -794.28 719.121 -793.25 C 702.998 -772.17 704.481 -742.16 723.616 -723.15 Z M 800.679 -234.35 C 800.041 -234.75 799.419 -235.75 798.721 -236.36 C 797.421 -237.76 796.042 -238.93 794.622 -240.15 C 782.565 -249.75 767.17 -253.54 752.575 -251.15 C 741.978 -249.53 731.782 -244.74 723.565 -236.36 C 704.172 -216.95 702.912 -186.16 719.886 -165.37 C 721.006 -163.97 722.205 -162.37 723.465 -161.37 C 728.303 -156.56 733.882 -152.98 739.8 -150.18 C 746.578 -146.97 753.816 -145.57 761.113 -145.57 C 774.688 -145.57 788.245 -151.18 798.62 -161.37 C 818.694 -181.37 819.353 -213.35 800.679 -234.35 Z"/>
</svg>