<?xml version="1.0" encoding="utf-8"?>
<svg xmlns="http://www.w3.org/2000/svg" height="48" viewBox="0 -960 960 960" width="48">
  <path d="M 658.685 -235.66 C 658.685 -235.58 658.685 -235.53 658.685 -235.47 C 658.685 -185.71 641.6 -143.37 606.85 -108.54 C 583.242 -84.626 556.11 -68.946 525.169 -61.431 C 511.084 -57.987 496.157 -56.241 480.675 -56.241 L 480.143 -56.241 C 439.854 -56.241 404.572 -67.724 374.155 -90.673 C 366.958 -96.077 360.03 -102.12 353.372 -108.8 C 324.407 -137.87 307.576 -172.11 302.759 -211.54 C 301.799 -219.38 301.315 -227.42 301.315 -235.66 C 301.315 -235.69 301.315 -235.74 301.315 -235.77 C 301.315 -235.8 301.315 -235.83 301.315 -235.86 C 301.315 -247.21 302.228 -258.18 304.053 -268.75 C 310.187 -304.51 326.637 -335.84 353.42 -362.74 C 362.784 -372.15 372.679 -380.28 383.115 -387.14 C 411.461 -405.89 443.766 -415.27 480.151 -415.27 L 480.627 -415.27 C 496.181 -415.27 511.107 -413.51 525.058 -410.08 C 556.023 -402.56 583.146 -386.88 606.802 -362.97 C 641.552 -328.14 658.685 -285.81 658.685 -236.05 C 658.685 -235.99 658.685 -235.94 658.685 -235.86 C 658.685 -235.85 658.685 -235.84 658.685 -235.83 C 658.685 -235.78 658.685 -235.74 658.685 -235.69 C 658.685 -235.68 658.685 -235.67 658.685 -235.66 Z M 554.602 -309.52 C 551.539 -312.59 548.373 -315.43 545.103 -318.03 C 535.485 -325.64 524.979 -331.26 513.559 -334.87 C 503.37 -338.07 492.451 -339.68 480.801 -339.68 C 451.607 -339.68 426.959 -329.67 406.858 -309.66 C 399.494 -302.32 393.471 -294.37 388.805 -285.81 C 382.424 -274.06 378.56 -261.16 377.227 -247.11 C 376.877 -243.44 376.703 -239.69 376.703 -235.86 C 376.703 -211.17 383.861 -189.74 398.161 -171.55 C 400.811 -168.21 403.7 -164.98 406.842 -161.86 C 427.006 -141.87 451.599 -131.86 480.801 -131.86 C 509.981 -131.86 534.597 -141.92 554.586 -162.01 C 574.584 -182.11 584.575 -206.76 584.575 -235.94 C 584.575 -240.26 584.361 -244.46 583.924 -248.57 C 581.337 -272.15 571.568 -292.47 554.602 -309.52 Z M 658.685 -724.15 C 658.685 -724.07 658.685 -724.02 658.685 -723.96 C 658.685 -674.2 641.6 -631.86 606.85 -597.03 C 583.242 -573.11 556.11 -557.43 525.169 -549.92 C 511.084 -546.47 496.157 -544.73 480.675 -544.73 L 480.143 -544.73 C 439.854 -544.73 404.572 -556.21 374.155 -579.16 C 366.958 -584.56 360.03 -590.61 353.372 -597.29 C 324.407 -626.36 307.576 -660.6 302.759 -700.03 C 301.799 -707.87 301.315 -715.91 301.315 -724.15 C 301.315 -724.18 301.315 -724.23 301.315 -724.26 C 301.315 -724.29 301.315 -724.32 301.315 -724.35 C 301.315 -735.7 302.228 -746.67 304.053 -757.24 C 310.187 -793 326.637 -824.33 353.42 -851.23 C 362.784 -860.64 372.679 -868.77 383.115 -875.63 C 411.461 -894.38 443.766 -903.76 480.151 -903.76 L 480.627 -903.76 C 496.181 -903.76 511.107 -902 525.058 -898.57 C 556.023 -891.05 583.146 -875.37 606.802 -851.46 C 641.552 -816.63 658.685 -774.3 658.685 -724.54 C 658.685 -724.48 658.685 -724.43 658.685 -724.35 C 658.685 -724.34 658.685 -724.33 658.685 -724.32 C 658.685 -724.27 658.685 -724.23 658.685 -724.18 C 658.685 -724.17 658.685 -724.16 658.685 -724.15 Z M 554.602 -798.01 C 551.539 -801.08 548.373 -803.92 545.103 -806.52 C 535.485 -814.13 524.979 -819.75 513.559 -823.36 C 503.37 -826.56 492.451 -828.17 480.801 -828.17 C 451.607 -828.17 426.959 -818.16 406.858 -798.15 C 399.494 -790.81 393.471 -782.86 388.805 -774.3 C 382.424 -762.55 378.56 -749.65 377.227 -735.6 C 376.877 -731.93 376.703 -728.18 376.703 -724.35 C 376.703 -699.66 383.861 -678.23 398.161 -660.04 C 400.811 -656.7 403.7 -653.47 406.842 -650.35 C 427.006 -630.36 451.599 -620.35 480.801 -620.35 C 509.981 -620.35 534.597 -630.41 554.586 -650.5 C 574.584 -670.6 584.575 -695.25 584.575 -724.43 C 584.575 -728.75 584.361 -732.95 583.924 -737.06 C 581.337 -760.64 571.568 -780.96 554.602 -798.01 Z" style="stroke-width: 0.05;"/>
</svg>