<?xml version="1.0" encoding="utf-8"?>
<svg xmlns="http://www.w3.org/2000/svg" height="48" viewBox="0 -960 960 960" width="48">
  <path d="M 660.79 -269.35 C 660.79 -247.09 653.12 -228.38 638 -213.21 C 622.73 -198.05 604.12 -190.46 581.87 -190.46 L 380.08 -190.46 C 357.85 -190.46 339.09 -198.05 323.92 -213.21 C 308.67 -228.38 301.22 -247.09 301.22 -269.35 L 301.22 -379.95 C 301.22 -402.2 308.67 -420.92 323.92 -436.1 C 339.09 -451.26 357.85 -458.83 380.08 -458.83 L 581.87 -458.83 C 604.12 -458.83 622.73 -451.26 638 -436.1 C 653.12 -420.92 660.79 -402.2 660.79 -379.95 L 660.79 -269.35 Z M 660.79 -580.04 C 660.79 -557.79 653.12 -539.07 638 -523.91 C 622.73 -508.75 604.12 -501.16 581.87 -501.16 L 380.08 -501.16 C 357.85 -501.16 339.09 -508.75 323.92 -523.91 C 308.67 -539.07 301.22 -557.79 301.22 -580.04 L 301.22 -690.64 C 301.22 -712.9 308.67 -731.61 323.92 -746.79 C 339.09 -761.95 357.85 -769.53 380.08 -769.53 L 581.87 -769.53 C 604.12 -769.53 622.73 -761.95 638 -746.79 C 653.12 -731.61 660.79 -712.9 660.79 -690.64 L 660.79 -580.04 Z M 566.56 -595.9 L 566.56 -673.93 L 396.21 -673.93 L 396.21 -595.9 L 566.56 -595.9 Z M 566.56 -285.21 L 566.56 -363.24 L 396.21 -363.24 L 396.21 -285.21 L 566.56 -285.21 Z M 859 -150 C 872.17 -150 883.29 -145.44 892.37 -136.32 C 901.46 -127.21 906 -116.07 906 -102.91 C 906 -89.76 901.46 -78.48 892.37 -69.09 C 883.29 -59.7 872.17 -55 859 -55 L 103 -55 C 89.91 -55 78.64 -59.75 69.19 -69.26 C 59.73 -78.77 55 -90.11 55 -103.26 C 55 -116.42 59.73 -127.5 69.19 -136.5 C 78.64 -145.5 89.91 -150 103 -150 L 859 -150 Z M 858 -906 C 871.83 -906 883.29 -901.44 892.37 -892.32 C 901.46 -883.21 906 -872.04 906 -858.82 C 906 -845.61 901.46 -834.5 892.37 -825.5 C 883.29 -816.5 871.83 -812 858 -812 L 103 -812 C 89.9 -812 78.6 -816.56 69.2 -825.68 C 59.7 -834.79 55 -845.96 55 -859.18 C 55 -872.39 59.7 -883.5 69.2 -892.5 C 78.6 -901.5 89.9 -906 103 -906 L 858 -906 Z" style=""/>
</svg>