<?xml version="1.0" encoding="utf-8"?>
<svg xmlns="http://www.w3.org/2000/svg" height="48" viewBox="0 -960 960 960" width="48">
  <path d="M 906 -103 C 906 -89.167 901.44 -77.71 892.32 -68.63 C 883.21 -59.543 872.04 -55 858.82 -55 C 845.61 -55 834.5 -59.543 825.5 -68.63 C 816.5 -77.71 812 -89.167 812 -103 L 812 -858 C 812 -871.09 816.56 -882.36 825.68 -891.81 C 834.79 -901.27 845.96 -906 859.18 -906 C 872.39 -906 883.5 -901.27 892.5 -891.81 C 901.5 -882.36 906 -871.09 906 -858 L 906 -103 Z M 150 -102 C 150 -88.83 145.44 -77.71 136.32 -68.63 C 127.21 -59.54 116.07 -55 102.91 -55 C 89.76 -55 78.48 -59.54 69.09 -68.63 C 59.7 -77.71 55 -88.83 55 -102 L 55 -858 C 55 -871.09 59.75 -882.36 69.26 -891.81 C 78.77 -901.27 90.11 -906 103.26 -906 C 116.42 -906 127.5 -901.27 136.5 -891.81 C 145.5 -882.36 150 -871.09 150 -858 L 150 -102 Z M 414 -330 C 414 -311.13 407.38 -295.25 394.61 -282.34 C 381.59 -269.47 365.79 -263 346.79 -263 C 327.79 -263 311.99 -269.47 299.21 -282.34 C 286.4 -295.25 280 -311.13 280 -330 L 280 -630 C 280 -648.9 286.4 -664.78 299.39 -677.68 C 312.2 -690.56 328.21 -697 347 -697 C 366 -697 381.8 -690.56 394.61 -677.68 C 407.38 -664.78 414 -648.9 414 -630 L 414 -330 Z" style=""/>
</svg>