<?xml version="1.0" encoding="utf-8"?>
<svg xmlns="http://www.w3.org/2000/svg" height="48" viewBox="0 -960 960 960" width="48">
  <path d="M 101.82 -55 C 88.607 -55 77.5 -59.543 68.5 -68.63 C 59.5 -77.71 55 -88.833 55 -102 L 55 -858 C 55 -871.167 59.56 -882.293 68.68 -891.38 C 77.793 -900.46 88.96 -905 102.18 -905 C 115.393 -905 126.5 -900.46 135.5 -891.38 C 144.5 -882.293 149 -871.167 149 -858 L 149 -102 C 149 -88.833 144.44 -77.71 135.32 -68.63 C 126.207 -59.543 115.04 -55 101.82 -55 Z M 857.74 -55 C 844.58 -55 833.5 -59.543 824.5 -68.63 C 815.5 -77.71 811 -88.833 811 -102 L 811 -858 C 811 -871.087 815.56 -882.357 824.68 -891.81 C 833.793 -901.27 844.93 -906 858.09 -906 C 871.243 -906 882.517 -901.27 891.91 -891.81 C 901.303 -882.357 906 -871.087 906 -858 L 906 -102 C 906 -88.833 901.247 -77.71 891.74 -68.63 C 882.227 -59.543 870.893 -55 857.74 -55 Z M 602.011 -480 C 602.011 -412.46 547.389 -357.92 480.001 -357.92 C 412.612 -357.92 357.99 -412.46 357.99 -480 C 357.99 -547.28 412.612 -602.09 480.001 -602.09 C 547.389 -602.09 602.011 -547.28 602.011 -480 Z"/>
</svg>