<?xml version="1.0" encoding="utf-8"?>
<svg xmlns="http://www.w3.org/2000/svg" height="48" viewBox="0 -960 960 960" width="48">
  <path d="M 103 -55 C 89.167 -55 77.71 -59.56 68.63 -68.68 C 59.543 -77.793 55 -88.96 55 -102.18 C 55 -115.393 59.543 -126.5 68.63 -135.5 C 77.71 -144.5 89.167 -149 103 -149 L 858 -149 C 871.087 -149 882.357 -144.44 891.81 -135.32 C 901.27 -126.207 906 -115.04 906 -101.82 C 906 -88.607 901.27 -77.5 891.81 -68.5 C 882.357 -59.5 871.087 -55 858 -55 L 103 -55 Z M 102 -811 C 88.833 -811 77.71 -815.56 68.63 -824.68 C 59.543 -833.793 55 -844.93 55 -858.09 C 55 -871.243 59.543 -882.517 68.63 -891.91 C 77.71 -901.303 88.833 -906 102 -906 L 858 -906 C 871.087 -906 882.357 -901.247 891.81 -891.74 C 901.27 -882.227 906 -870.893 906 -857.74 C 906 -844.58 901.27 -833.5 891.81 -824.5 C 882.357 -815.5 871.087 -811 858 -811 L 102 -811 Z M 330 -279 C 311.113 -279 295.223 -285.46 282.33 -298.37 C 269.443 -311.28 263 -327.2 263 -346.12 C 263 -365.04 269.443 -380.92 282.33 -393.75 C 295.223 -406.58 311.113 -413 330 -413 L 630 -413 C 648.887 -413 664.777 -406.54 677.67 -393.63 C 690.557 -380.72 697 -364.8 697 -345.88 C 697 -326.96 690.557 -311.08 677.67 -298.25 C 664.777 -285.42 648.887 -279 630 -279 L 330 -279 Z"/>
</svg>