<?xml version="1.0" encoding="utf-8"?>
<svg xmlns="http://www.w3.org/2000/svg" height="48" viewBox="0 -960 960 960" width="48">
  <path d="M 906 -103 C 906 -89.167 901.44 -77.71 892.32 -68.63 C 883.21 -59.543 872.04 -55 858.82 -55 C 845.61 -55 834.5 -59.543 825.5 -68.63 C 816.5 -77.71 812 -89.167 812 -103 L 812 -858 C 812 -871.09 816.56 -882.36 825.68 -891.81 C 834.79 -901.27 845.96 -906 859.18 -906 C 872.39 -906 883.5 -901.27 892.5 -891.81 C 901.5 -882.36 906 -871.09 906 -858 L 906 -103 Z M 150 -102 C 150 -88.83 145.44 -77.71 136.32 -68.63 C 127.21 -59.54 116.07 -55 102.91 -55 C 89.76 -55 78.48 -59.54 69.09 -68.63 C 59.7 -77.71 55 -88.83 55 -102 L 55 -858 C 55 -871.09 59.75 -882.36 69.26 -891.81 C 78.77 -901.27 90.11 -906 103.26 -906 C 116.42 -906 127.5 -901.27 136.5 -891.81 C 145.5 -882.36 150 -871.09 150 -858 L 150 -102 Z M 682 -330 C 682 -311.11 675.54 -295.22 662.63 -282.33 C 649.72 -269.44 633.8 -263 614.88 -263 C 595.96 -263 580.08 -269.44 567.25 -282.33 C 554.42 -295.22 548 -311.11 548 -330 L 548 -630 C 548 -648.89 554.46 -664.78 567.37 -677.67 C 580.28 -690.56 596.2 -697 615.12 -697 C 634.04 -697 649.92 -690.56 662.75 -677.67 C 675.58 -664.78 682 -648.89 682 -630 L 682 -330 Z" style=""/>
</svg>