<?xml version="1.0" encoding="utf-8"?>
<svg xmlns="http://www.w3.org/2000/svg" height="48" viewBox="0 -960 960 960" width="48">
  <path d="M 55 -859.18 C 55 -872.39 59.54 -883.5 68.63 -892.5 C 77.71 -901.5 88.83 -906 102 -906 L 858 -906 C 871.2 -906 882.3 -901.44 891.4 -892.32 C 900.5 -883.21 905 -872.04 905 -858.82 C 905 -845.61 900.5 -834.5 891.4 -825.5 C 882.3 -816.5 871.2 -812 858 -812 L 102 -812 C 88.83 -812 77.71 -816.56 68.63 -825.68 C 59.54 -834.79 55 -845.96 55 -859.18 Z M 55 -103.26 C 55 -116.42 59.543 -127.5 68.63 -136.5 C 77.71 -145.5 88.833 -150 102 -150 L 858 -150 C 871.09 -150 882.36 -145.44 891.81 -136.32 C 901.27 -127.21 906 -116.07 906 -102.91 C 906 -89.757 901.27 -78.483 891.81 -69.09 C 882.36 -59.697 871.09 -55 858 -55 L 102 -55 C 88.833 -55 77.71 -59.753 68.63 -69.26 C 59.543 -78.773 55 -90.107 55 -103.26 Z M 263 -481.12 C 263 -500.04 269.44 -515.92 282.33 -528.75 C 295.22 -541.58 311.11 -548 330 -548 L 630 -548 C 648.89 -548 664.78 -541.54 677.67 -528.63 C 690.56 -515.72 697 -499.8 697 -480.88 C 697 -461.96 690.56 -446.08 677.67 -433.25 C 664.78 -420.42 648.89 -414 630 -414 L 330 -414 C 311.11 -414 295.22 -420.46 282.33 -433.37 C 269.44 -446.28 263 -462.2 263 -481.12 Z" style=""/>
</svg>