<?xml version="1.0" encoding="utf-8"?>
<svg xmlns="http://www.w3.org/2000/svg" height="48" viewBox="0 -960 960 960" width="48">
  <path d="M 580.048 -300.21 C 557.796 -300.21 539.079 -307.88 523.915 -323 C 508.752 -338.27 501.165 -356.88 501.165 -379.13 L 501.165 -580.92 C 501.165 -603.15 508.752 -621.91 523.915 -637.07 C 539.079 -652.32 557.796 -659.78 580.048 -659.78 L 690.648 -659.78 C 712.901 -659.78 731.617 -652.32 746.796 -637.07 C 761.959 -621.91 769.532 -603.15 769.532 -580.92 L 769.532 -379.13 C 769.532 -356.88 761.959 -338.27 746.796 -323 C 731.617 -307.88 712.901 -300.21 690.648 -300.21 Z M 595.91 -394.44 L 673.939 -394.44 L 673.939 -564.79 L 595.91 -564.79 Z M 269.352 -300.21 C 247.099 -300.21 228.383 -307.88 213.219 -323 C 198.056 -338.27 190.468 -356.88 190.468 -379.13 L 190.468 -580.92 C 190.468 -603.15 198.056 -621.91 213.219 -637.07 C 228.383 -652.32 247.099 -659.78 269.352 -659.78 L 379.952 -659.78 C 402.204 -659.78 420.921 -652.32 436.1 -637.07 C 451.263 -621.91 458.835 -603.15 458.835 -580.92 L 458.835 -379.13 C 458.835 -356.88 451.263 -338.27 436.1 -323 C 420.921 -307.88 402.204 -300.21 379.952 -300.21 Z M 285.214 -394.44 L 363.242 -394.44 L 363.242 -564.79 L 285.214 -564.79 Z M 906 -103 C 906 -89.167 901.44 -77.71 892.32 -68.63 C 883.21 -59.543 872.04 -55 858.82 -55 C 845.61 -55 834.5 -59.543 825.5 -68.63 C 816.5 -77.71 812 -89.167 812 -103 L 812 -858 C 812 -871.09 816.56 -882.36 825.68 -891.81 C 834.79 -901.27 845.96 -906 859.18 -906 C 872.39 -906 883.5 -901.27 892.5 -891.81 C 901.5 -882.36 906 -871.09 906 -858 Z M 150 -102 C 150 -88.83 145.44 -77.71 136.32 -68.63 C 127.21 -59.54 116.07 -55 102.91 -55 C 89.76 -55 78.48 -59.54 69.09 -68.63 C 59.7 -77.71 55 -88.83 55 -102 L 55 -858 C 55 -871.09 59.75 -882.36 69.26 -891.81 C 78.77 -901.27 90.11 -906 103.26 -906 C 116.42 -906 127.5 -901.27 136.5 -891.81 C 145.5 -882.36 150 -871.09 150 -858 Z" style=""/>
</svg>