<?xml version="1.0" encoding="utf-8"?>
<svg xmlns="http://www.w3.org/2000/svg" height="48" viewBox="0 -960 960 960" width="48">
  <path d="M 183 -871 L 550 -871 C 576.81 -871 599.34 -861.87 617.61 -843.61 C 635.87 -825.34 645 -802.81 645 -776 L 645 -644 L 776 -644 C 802.81 -644 825.34 -634.97 843.61 -616.9 C 861.87 -598.83 871 -576.53 871 -550 L 871 -184 C 871 -157.19 861.87 -134.66 843.61 -116.39 C 825.34 -98.13 802.81 -89 776 -89 L 183 -89 C 156.47 -89 134.17 -98.13 116.1 -116.39 C 98.03 -134.66 89 -157.19 89 -184 L 89 -776 C 89 -802.81 98.03 -825.34 116.1 -843.61 C 134.17 -861.87 156.47 -871 183 -871 Z M 183 -776 L 183 -644 L 550 -644 L 550 -776 L 183 -776 Z M 183 -550 L 183 -184 L 776 -184 L 776 -550 L 183 -550 Z" style=""/>
</svg>