<?xml version="1.0" encoding="utf-8"?>
<svg xmlns="http://www.w3.org/2000/svg" height="48" viewBox="0 -960 960 960" width="48">
  <path d="M 724.14 -301.31 C 712.79 -301.31 701.82 -302.23 691.25 -304.05 C 655.49 -310.19 624.16 -326.64 597.26 -353.42 C 587.85 -362.78 579.72 -372.68 572.86 -383.12 C 554.11 -411.46 544.73 -443.77 544.73 -480.15 L 544.73 -480.63 C 544.73 -496.18 546.49 -511.11 549.92 -525.06 C 557.44 -556.02 573.12 -583.15 597.03 -606.8 C 631.86 -641.55 674.19 -658.68 723.95 -658.68 C 723.964 -658.68 723.978 -658.68 723.991 -658.68 C 723.991 -658.68 723.991 -658.68 723.991 -658.68 C 724.035 -658.68 724.079 -658.68 724.14 -658.68 C 724.15 -658.68 724.16 -658.68 724.17 -658.68 C 724.174 -658.68 724.177 -658.68 724.181 -658.68 C 724.191 -658.68 724.201 -658.68 724.211 -658.68 C 724.244 -658.68 724.274 -658.68 724.31 -658.68 C 724.32 -658.68 724.33 -658.68 724.34 -658.68 C 724.344 -658.68 724.347 -658.68 724.351 -658.68 C 724.361 -658.68 724.371 -658.68 724.381 -658.68 C 724.439 -658.68 724.481 -658.68 724.53 -658.68 C 724.543 -658.68 724.557 -658.68 724.571 -658.68 C 774.331 -658.68 816.671 -641.6 851.501 -606.85 C 875.41 -583.24 891.09 -556.11 898.61 -525.17 C 902.05 -511.08 903.8 -496.16 903.8 -480.68 L 903.8 -480.14 C 903.8 -439.85 892.31 -404.57 869.37 -374.15 C 863.96 -366.96 857.921 -360.03 851.241 -353.37 C 822.171 -324.41 787.931 -307.58 748.501 -302.76 C 740.661 -301.8 732.621 -301.31 724.381 -301.31 C 724.37 -301.31 724.355 -301.31 724.34 -301.31 C 724.321 -301.31 724.295 -301.31 724.271 -301.31 C 724.257 -301.31 724.244 -301.31 724.23 -301.31 C 724.214 -301.31 724.197 -301.31 724.181 -301.31 C 724.167 -301.31 724.154 -301.31 724.14 -301.31 Z M 788.45 -398.16 C 791.79 -400.81 795.02 -403.7 798.14 -406.84 C 818.13 -427.01 828.14 -451.6 828.14 -480.8 C 828.14 -509.98 818.08 -534.6 797.99 -554.59 C 777.895 -574.58 753.251 -584.57 724.08 -584.58 C 719.768 -584.57 715.574 -584.36 711.471 -583.92 C 687.891 -581.34 667.571 -571.57 650.521 -554.6 C 647.451 -551.54 644.611 -548.37 642.011 -545.1 C 634.401 -535.49 628.781 -524.98 625.171 -513.56 C 621.971 -503.37 620.361 -492.45 620.361 -480.8 C 620.361 -451.61 630.371 -426.96 650.381 -406.86 C 657.721 -399.49 665.671 -393.47 674.231 -388.81 C 685.981 -382.42 698.881 -378.56 712.931 -377.23 C 716.594 -376.88 720.338 -376.7 724.161 -376.7 C 748.842 -376.71 770.265 -383.87 788.45 -398.16 Z M 235.85 -301.31 C 235.847 -301.31 235.844 -301.31 235.841 -301.31 C 235.841 -301.31 235.841 -301.31 235.741 -301.31 C 235.741 -301.31 235.74 -301.31 235.74 -301.31 C 235.737 -301.31 235.721 -301.31 235.65 -301.31 C 235.647 -301.31 235.644 -301.31 235.641 -301.31 C 234.886 -301.31 234.133 -301.32 233.381 -301.33 C 222.837 -301.44 212.624 -302.35 202.76 -304.05 C 167 -310.19 135.67 -326.64 108.77 -353.42 C 99.36 -362.78 91.23 -372.68 84.37 -383.12 C 65.62 -411.46 56.24 -443.77 56.24 -480.15 L 56.24 -480.63 C 56.24 -496.18 58 -511.11 61.43 -525.06 C 68.95 -556.02 84.63 -583.15 108.54 -606.8 C 143.37 -641.55 185.7 -658.68 235.46 -658.68 C 235.488 -658.68 235.513 -658.68 235.541 -658.68 C 235.541 -658.68 235.541 -658.68 235.541 -658.68 C 235.573 -658.68 235.607 -658.68 235.65 -658.68 C 235.661 -658.68 235.671 -658.68 235.68 -658.68 C 235.702 -658.68 235.721 -658.68 235.741 -658.68 C 235.763 -658.68 235.791 -658.68 235.82 -658.68 C 235.83 -658.68 235.84 -658.68 235.85 -658.68 C 235.938 -658.68 236.029 -658.68 236.04 -658.68 C 236.041 -658.68 236.041 -658.68 236.041 -658.68 C 285.841 -658.68 328.141 -641.6 363.041 -606.85 C 386.941 -583.24 402.641 -556.11 410.141 -525.17 C 413.541 -511.08 415.341 -496.16 415.341 -480.68 L 415.341 -480.14 C 415.341 -439.85 403.841 -404.57 380.841 -374.15 C 375.441 -366.96 369.441 -360.03 362.741 -353.37 C 333.641 -324.41 299.441 -307.58 260.041 -302.76 C 252.574 -301.85 245.018 -301.37 237.204 -301.32 C 236.753 -301.32 236.302 -301.31 235.85 -301.31 Z M 161.85 -406.86 C 162.257 -406.45 162.666 -406.05 163.077 -405.64 C 170.119 -398.83 177.618 -393.21 185.741 -388.81 C 197.441 -382.42 210.341 -378.56 224.441 -377.23 C 227.79 -376.91 231.138 -376.74 234.561 -376.71 C 234.922 -376.7 235.283 -376.7 235.646 -376.7 C 239.622 -376.7 243.516 -376.89 247.326 -377.26 C 267.159 -379.19 284.7 -386.16 299.96 -398.16 C 302.832 -400.44 305.622 -402.89 308.331 -405.54 C 308.77 -405.97 309.206 -406.4 309.641 -406.84 C 329.641 -427.01 339.641 -451.6 339.641 -480.8 C 339.641 -488 339.033 -494.92 337.814 -501.56 C 334.077 -521.84 324.635 -539.53 309.5 -554.59 C 289.408 -574.58 264.77 -584.57 235.605 -584.58 C 233.203 -584.57 230.86 -584.51 228.561 -584.38 C 226.812 -584.28 225.082 -584.14 223.367 -583.97 C 223.225 -583.95 223.083 -583.94 222.941 -583.92 C 199.441 -581.34 179.041 -571.57 162.041 -554.6 C 158.941 -551.54 156.141 -548.37 153.541 -545.1 C 145.941 -535.49 140.241 -524.98 136.641 -513.56 C 133.441 -503.37 131.841 -492.45 131.841 -480.8 C 131.841 -460.65 136.603 -442.67 146.127 -426.86 C 150.407 -419.75 155.648 -413.09 161.85 -406.86 Z" style="stroke-width: 0.05;"/>
</svg>