<?xml version="1.0" encoding="utf-8"?>
<svg xmlns="http://www.w3.org/2000/svg" height="48" viewBox="0 -960 960 960" width="48">
  <path d="M 189 -55 C 162.967 -55 140.79 -64.157 122.47 -82.47 C 104.157 -100.79 95 -122.967 95 -149 L 95 -811 C 95 -837.307 104.157 -859.717 122.47 -878.23 C 140.79 -896.743 162.967 -906 189 -906 L 512 -906 C 525.04 -906 537.467 -903.333 549.28 -898 C 561.093 -892.667 571.333 -885.667 580 -877 L 757 -700 C 765.667 -691.333 772.667 -681.093 778 -669.28 C 783.333 -657.467 786 -645.04 786 -632 L 786 -547 C 786 -534.947 781.08 -525.1 771.24 -517.46 C 761.393 -509.82 716.333 -509.377 707 -516.13 C 697.667 -522.877 691.333 -531.833 688 -543 L 688 -625 L 549 -625 C 535.833 -625 524.71 -629.543 515.63 -638.63 C 506.543 -647.71 502 -658.833 502 -672 L 502 -811 L 189 -811 L 189 -149 L 467 -149 C 480.4 -149 491.417 -144.44 500.05 -135.32 C 508.683 -126.207 513 -115.04 513 -101.82 C 513 -88.607 508.683 -77.5 500.05 -68.5 C 491.417 -59.5 480.4 -55 467 -55 Z M 549.311 -335.124 C 539.196 -345.239 534.189 -357.628 534.083 -372.13 C 534.197 -386.851 539.275 -399.211 549.74 -409.676 C 559.986 -419.922 572.565 -425.219 587.272 -425.319 C 601.993 -425.432 614.397 -420.44 624.512 -410.324 L 676.834 -358.002 L 728.071 -409.239 C 738.536 -419.704 750.918 -425.198 765.459 -425.916 C 779.758 -426.438 792.315 -421.292 803.085 -410.522 C 813.549 -400.058 818.847 -387.349 818.98 -372.395 C 818.916 -357.2 813.75 -344.491 803.285 -334.025 L 752.048 -282.789 L 803.279 -231.557 C 813.372 -221.464 818.579 -209.271 818.252 -194.339 C 818.152 -179.632 812.877 -167.032 802.411 -156.566 C 792.385 -146.54 779.996 -141.477 765.283 -141.369 C 750.562 -141.255 738.171 -146.263 728.078 -156.356 L 676.847 -207.588 L 625.822 -156.563 C 615.357 -146.098 602.784 -140.808 587.881 -140.425 C 573.196 -140.303 560.494 -145.608 549.725 -156.378 C 538.933 -167.169 533.736 -179.762 534.12 -194.185 C 534.722 -208.871 540.143 -221.311 550.608 -231.776 L 601.633 -282.801 Z"/>
</svg>