<?xml version="1.0" encoding="utf-8"?>
<svg xmlns="http://www.w3.org/2000/svg" height="48" viewBox="0 -960 960 960" width="48">
  <path d="M 189 -55 C 162.967 -55 140.79 -64.157 122.47 -82.47 C 104.157 -100.79 95 -122.967 95 -149 L 95 -811 C 95 -837.307 104.157 -859.717 122.47 -878.23 C 140.79 -896.743 162.967 -906 189 -906 L 512 -906 C 525.04 -906 537.467 -903.333 549.28 -898 C 561.093 -892.667 571.333 -885.667 580 -877 L 757 -700 C 765.667 -691.333 772.667 -681.093 778 -669.28 C 783.333 -657.467 786 -645.04 786 -632 L 786 -547 C 786 -534.947 781.08 -525.1 771.24 -517.46 C 761.393 -509.82 716.333 -509.377 707 -516.13 C 697.667 -522.877 691.333 -531.833 688 -543 L 688 -625 L 549 -625 C 535.833 -625 524.71 -629.543 515.63 -638.63 C 506.543 -647.71 502 -658.833 502 -672 L 502 -811 L 189 -811 L 189 -149 L 467 -149 C 480.4 -149 491.417 -144.44 500.05 -135.32 C 508.683 -126.207 513 -115.04 513 -101.82 C 513 -88.607 508.683 -77.5 500.05 -68.5 C 491.417 -59.5 480.4 -55 467 -55 Z M 549.997 -230.12 C 535.692 -230.12 523.391 -235.34 513.062 -245.52 C 502.733 -256.01 497.584 -268.34 497.584 -283.14 C 497.584 -297.63 502.733 -310.27 513.062 -320.74 C 523.391 -331.23 535.692 -336.47 549.997 -336.47 L 623.992 -336.47 L 623.992 -408.93 C 623.992 -423.73 628.862 -436.37 638.637 -447.16 C 648.379 -457.64 660.897 -462.88 676.127 -462.88 C 690.926 -462.88 703.659 -457.64 714.327 -447.16 C 725.026 -436.37 730.36 -423.73 730.36 -408.93 L 730.36 -336.47 L 802.812 -336.47 C 817.086 -336.47 829.389 -331.53 839.717 -320.74 C 850.045 -310.27 855.225 -297.63 855.225 -282.83 C 855.225 -268.65 850.045 -256.31 839.717 -245.83 C 829.389 -235.34 817.086 -230.12 802.812 -230.12 L 730.36 -230.12 L 730.36 -157.96 C 730.36 -143.16 725.21 -130.53 714.943 -119.72 C 704.645 -109.25 691.912 -104.02 676.682 -104.02 C 661.42 -104.02 648.841 -109.25 638.914 -119.72 C 628.955 -130.53 623.992 -143.16 623.992 -157.96 L 623.992 -230.12 Z"/>
</svg>