<?xml version="1.0" encoding="utf-8"?>
<svg xmlns="http://www.w3.org/2000/svg" height="48" viewBox="0 -960 960 960" width="48">
  <path d="M 325.42 -84.395 C 306.757 -84.925 288.182 -92.595 274.647 -105.36 C 261.87 -118.91 254.195 -137.5 253.664 -156.16 L 253.664 -563.04 C 254.183 -581.84 261.833 -600.54 274.597 -614.2 C 288.131 -627.12 306.731 -634.87 325.42 -635.4 L 523.946 -635.4 C 533.429 -635.25 544.009 -633.13 552.615 -629.24 C 560.976 -625.47 569.292 -619.66 575.628 -613.49 L 684.404 -504.71 C 690.569 -498.38 696.303 -490.01 700.178 -481.67 C 703.921 -473 706.18 -462.5 706.335 -453.04 L 706.335 -156.16 C 705.796 -137.46 698.413 -118.47 685.122 -105.31 C 671.841 -92.175 652.773 -84.905 633.963 -84.395 L 325.42 -84.395 Z M 503.817 -477.61 L 503.817 -549.07 L 339.403 -549.07 L 339.403 -170.13 L 619.98 -170.13 L 619.98 -434.74 L 546.686 -434.74 C 535.957 -435.25 524.18 -440.08 516.286 -447.2 C 509.174 -455.08 504.335 -466.88 503.817 -477.61 Z M 798.487 -572.52 L 700.68 -572.52 C 691.014 -572.52 682.905 -576.02 676.376 -582.64 C 669.828 -589.49 666.573 -597.87 666.573 -607.8 C 666.573 -617.34 669.789 -625.55 676.239 -631.96 C 682.691 -638.6 691.15 -641.73 701.656 -641.73 L 721.502 -641.73 C 695.501 -686.54 659.991 -721.63 614.911 -746.59 C 569.848 -771.51 521.142 -784 468.792 -784 C 410.536 -784 357.347 -769 309.285 -738.77 C 261.201 -708.55 225.787 -667.84 203.062 -616.38 C 195.909 -602.74 186.321 -594.15 174.315 -590.64 C 162.289 -587.14 151.239 -587.92 141.181 -592.99 C 129.799 -598.25 122.004 -606.25 117.793 -616.98 C 113.565 -627.67 113.72 -638.6 118.28 -649.51 C 146.6 -718.33 192.636 -773.08 256.37 -814.21 C 320.121 -855.13 391.026 -875.61 469.103 -875.61 C 530.128 -875.61 587.759 -862.52 642.04 -836.24 C 696.301 -809.9 740.661 -771.32 775.099 -720.65 L 775.099 -776.18 C 775.099 -785.93 778.471 -794.13 785.196 -800.55 C 791.939 -807.17 800.28 -810.3 810.239 -810.3 C 819.927 -810.3 828.19 -807.17 835.012 -800.55 C 841.852 -794.13 845.264 -785.93 845.264 -776.18 L 845.264 -618.34 C 845.264 -605.66 840.644 -594.74 831.426 -586 C 822.227 -577.01 811.235 -572.52 798.487 -572.52 Z" style="stroke-width: 22px;"/>
</svg>