<?xml version="1.0" encoding="utf-8"?>
<svg xmlns="http://www.w3.org/2000/svg" height="48" viewBox="0 -960 960 960" width="48">
  <path d="M 189 -95 C 162.967 -95 140.79 -104.157 122.47 -122.47 C 104.157 -140.79 95 -162.967 95 -189 L 95 -771 C 95 -797.307 104.157 -819.717 122.47 -838.23 C 140.79 -856.743 162.967 -866 189 -866 L 654 -866 C 667.04 -866 679.467 -863.333 691.28 -858 C 703.093 -852.667 713.333 -845.667 722 -837 L 837 -722 C 845.667 -713.333 852.667 -703.093 858 -691.28 C 863.333 -679.467 866 -667.04 866 -654 L 866 -189 C 866 -162.967 856.743 -140.79 838.23 -122.47 C 819.717 -104.157 797.307 -95 771 -95 Z M 479.76 -254 C 508.587 -254 533.167 -264.087 553.5 -284.26 C 573.833 -304.44 584 -328.94 584 -357.76 C 584 -386.587 573.913 -411.167 553.74 -431.5 C 533.56 -451.833 509.06 -462 480.24 -462 C 451.413 -462 426.833 -451.913 406.5 -431.74 C 386.167 -411.56 376 -387.06 376 -358.24 C 376 -329.413 386.087 -304.833 406.26 -284.5 C 426.44 -264.167 450.94 -254 479.76 -254 Z M 289 -575 L 553 -575 C 566.167 -575 577.293 -579.543 586.38 -588.63 C 595.46 -597.71 600 -608.833 600 -622 L 600 -671 C 600 -684.167 595.46 -695.293 586.38 -704.38 C 577.293 -713.46 566.167 -718 553 -718 L 289 -718 C 275.833 -718 264.71 -713.46 255.63 -704.38 C 246.543 -695.293 242 -684.167 242 -671 L 242 -622 C 242 -608.833 246.543 -597.71 255.63 -588.63 C 264.71 -579.543 275.833 -575 289 -575 Z"/>
</svg>