<?xml version="1.0" encoding="utf-8"?>
<svg xmlns="http://www.w3.org/2000/svg" height="48" viewBox="0 -960 960 960" width="48">
  <path d="M 189 -55 C 162.967 -55 140.79 -64.157 122.47 -82.47 C 104.157 -100.79 95 -122.967 95 -149 L 95 -811 C 95 -837.307 104.157 -859.717 122.47 -878.23 C 140.79 -896.743 162.967 -906 189 -906 L 512 -906 C 525.04 -906 537.467 -903.333 549.28 -898 C 561.093 -892.667 571.333 -885.667 580 -877 L 757 -700 C 765.667 -691.333 772.667 -681.093 778 -669.28 C 783.333 -657.467 786 -645.04 786 -632 L 786 -547 C 786 -534.947 781.08 -525.1 771.24 -517.46 C 761.393 -509.82 750.227 -506 737.74 -506 C 726.58 -506 716.333 -509.377 707 -516.13 C 697.667 -522.877 691.333 -531.833 688 -543 L 688 -625 L 549 -625 C 535.833 -625 524.71 -629.543 515.63 -638.63 C 506.543 -647.71 502 -658.833 502 -672 L 502 -811 L 189 -811 L 189 -149 L 467 -149 C 480.4 -149 491.417 -144.44 500.05 -135.32 C 508.683 -126.207 513 -115.04 513 -101.82 C 513 -88.607 508.683 -77.5 500.05 -68.5 C 491.417 -59.5 480.4 -55 467 -55 Z M 605.621 -62.279 C 594.666 -62.279 585.47 -66.061 578.069 -73.464 C 570.667 -80.866 566.966 -90.074 566.966 -100.93 C 566.966 -111.95 570.667 -121.17 578.069 -128.56 C 585.47 -135.97 594.666 -139.58 605.621 -139.58 L 674.945 -139.58 C 708.517 -139.58 736.925 -151.59 760.168 -175.44 C 783.409 -199.13 795.023 -228.09 795.023 -262.13 C 795.023 -295.69 783.409 -324.47 760.168 -348.48 C 736.925 -372.67 708.517 -384.68 674.945 -384.68 L 452.883 -384.68 L 506.342 -331.22 C 514.023 -323.32 517.856 -314.11 517.856 -303.91 C 517.856 -293.72 514.023 -284.5 506.342 -276.61 C 498.677 -268.71 489.63 -264.61 479.201 -264.61 C 468.79 -264.61 459.743 -268.71 452.06 -276.93 L 331.982 -395.36 C 328.2 -399.31 325.205 -403.75 322.984 -408.69 C 320.763 -413.79 319.646 -418.56 319.646 -423.51 C 319.646 -428.42 320.763 -433.2 322.984 -438.14 C 325.205 -443.07 328.2 -447.51 331.982 -451.29 L 452.06 -570.55 C 459.743 -578.28 468.79 -582.07 479.201 -582.07 C 489.63 -582.07 498.677 -578.12 506.342 -570.22 C 514.023 -562.33 517.856 -553.28 517.856 -543.09 C 517.856 -532.88 514.023 -524 506.342 -516.27 L 452.883 -461.99 L 674.123 -461.99 C 728.832 -461.99 775.678 -442.58 814.662 -403.6 C 853.663 -364.78 873.155 -317.73 873.155 -262.62 C 873.155 -207.52 853.663 -160.32 814.662 -121.17 C 775.678 -82.017 728.832 -62.279 674.123 -62.279 Z"/>
</svg>