<?xml version="1.0" encoding="utf-8"?>
<svg xmlns="http://www.w3.org/2000/svg" height="48" viewBox="0 -960 960 960" width="48">
  <path d="M 189 -55 C 162.967 -55 140.79 -64.157 122.47 -82.47 C 104.157 -100.79 95 -122.967 95 -149 L 95 -811 C 95 -837.307 104.157 -859.717 122.47 -878.23 C 140.79 -896.743 162.967 -906 189 -906 L 512 -906 C 525.04 -906 537.467 -903.333 549.28 -898 C 561.093 -892.667 571.333 -885.667 580 -877 L 757 -700 C 765.667 -691.333 772.667 -681.093 778 -669.28 C 783.333 -657.467 786 -645.04 786 -632 L 786 -547 C 786 -534.947 781.08 -525.1 771.24 -517.46 C 761.393 -509.82 750.227 -506 737.74 -506 C 726.58 -506 716.333 -509.377 707 -516.13 C 697.667 -522.877 691.333 -531.833 688 -543 L 688 -625 L 549 -625 C 535.833 -625 524.71 -629.543 515.63 -638.63 C 506.543 -647.71 502 -658.833 502 -672 L 502 -811 L 189 -811 L 189 -149 L 467 -149 C 480.4 -149 491.417 -144.44 500.05 -135.32 C 508.683 -126.207 513 -115.04 513 -101.82 C 513 -88.607 508.683 -77.5 500.05 -68.5 C 491.417 -59.5 480.4 -55 467 -55 Z M 637.481 -123.57 L 599.84 -207.42 L 516.004 -245.05 C 498.896 -252.92 490.341 -265.92 490.341 -284.4 C 490.341 -302.55 498.896 -315.54 516.004 -323.76 L 599.84 -359.69 L 637.481 -445.24 C 644.325 -460.97 656.883 -469.19 675.121 -469.19 C 693.359 -469.19 706.5 -460.97 714.472 -445.24 L 752.113 -359.69 L 835.948 -323.76 C 853.057 -315.54 861.612 -302.55 861.612 -284.4 C 861.612 -265.92 853.057 -252.92 835.948 -245.05 L 752.113 -207.42 L 714.472 -123.57 C 706.5 -106.47 693.359 -97.924 675.121 -97.924 C 656.883 -97.924 644.325 -106.47 637.481 -123.57 Z"/>
</svg>