<?xml version="1.0" encoding="utf-8"?>
<svg xmlns="http://www.w3.org/2000/svg" height="48" viewBox="0 -960 960 960" width="48">
  <path d="M 189 -55 C 162.967 -55 140.79 -64.157 122.47 -82.47 C 104.157 -100.79 95 -122.967 95 -149 L 95 -811 C 95 -837.307 104.157 -859.717 122.47 -878.23 C 140.79 -896.743 162.967 -906 189 -906 L 512 -906 C 525.04 -906 537.467 -903.333 549.28 -898 C 561.093 -892.667 571.333 -885.667 580 -877 L 757 -700 C 765.667 -691.333 772.667 -681.093 778 -669.28 C 783.333 -657.467 786 -645.04 786 -632 L 786 -522.826 C 786 -510.773 781.08 -500.926 771.24 -493.286 C 761.393 -485.646 750.227 -481.826 737.74 -481.826 C 726.58 -481.826 716.333 -485.203 707 -491.956 C 697.667 -498.703 691.333 -507.659 688 -518.826 L 688 -625 L 549 -625 C 535.833 -625 524.71 -629.543 515.63 -638.63 C 506.543 -647.71 502 -658.833 502 -672 L 502 -811 L 189 -811 L 189 -149 L 467 -149 C 480.4 -149 491.417 -144.44 500.05 -135.32 C 508.683 -126.207 513 -115.04 513 -101.82 C 513 -88.607 508.683 -77.5 500.05 -68.5 C 491.417 -59.5 480.4 -55 467 -55 Z M 698.217 -260.89 L 624.874 -186.59 C 615.977 -177.64 605.347 -173.44 592.964 -173.64 C 580.582 -174.02 569.818 -178.59 560.675 -187.55 C 552.026 -196.31 547.721 -206.79 547.721 -218.97 C 547.721 -230.98 552.159 -241.46 561.055 -250.41 L 635.351 -324.7 L 567.723 -324.7 C 555.169 -324.7 544.577 -329.09 535.928 -337.66 C 527.279 -346.42 522.955 -357.09 522.955 -369.66 C 522.955 -382.24 527.279 -392.72 535.928 -401.29 C 544.577 -409.86 555.169 -414.24 567.723 -414.24 L 742.985 -414.24 C 755.52 -414.24 766.112 -409.86 774.78 -401.29 C 783.429 -392.52 787.753 -382.05 787.753 -369.47 L 787.753 -194.21 C 787.753 -181.63 783.41 -170.97 774.723 -162.39 C 766.036 -153.82 755.406 -149.44 742.814 -149.44 C 730.221 -149.44 719.649 -153.82 711.076 -162.39 C 702.503 -170.97 698.217 -181.63 698.217 -194.21 Z"/>
</svg>