<?xml version="1.0" encoding="utf-8"?>
<svg xmlns="http://www.w3.org/2000/svg" height="48" viewBox="0 -960 960 960" width="48">
  <path d="M 189 -55 C 162.967 -55 140.79 -64.157 122.47 -82.47 C 104.157 -100.79 95 -122.967 95 -149 L 95 -811 C 95 -837.307 104.157 -859.717 122.47 -878.23 C 140.79 -896.743 162.967 -906 189 -906 L 512 -906 C 525.04 -906 537.467 -903.333 549.28 -898 C 561.093 -892.667 571.333 -885.667 580 -877 L 757 -700 C 765.667 -691.333 772.667 -681.093 778 -669.28 C 783.333 -657.467 786 -645.04 786 -632 L 786 -572.273 C 786 -560.22 781.08 -550.373 771.24 -542.733 C 761.393 -535.093 750.227 -531.273 737.74 -531.273 C 726.58 -531.273 716.333 -534.65 707 -541.403 C 697.667 -548.15 691.333 -557.106 688 -568.273 L 688 -625 L 549 -625 C 535.833 -625 524.71 -629.543 515.63 -638.63 C 506.543 -647.71 502 -658.833 502 -672 L 502 -811 L 189 -811 L 189 -149 L 374.698 -149 C 388.098 -149 399.115 -144.44 407.748 -135.32 C 416.381 -126.207 420.698 -115.04 420.698 -101.82 C 420.698 -88.607 416.381 -77.5 407.748 -68.5 C 399.115 -59.5 388.098 -55 374.698 -55 Z M 528.954 -189.06 L 553.128 -164.88 C 559.25 -157.9 563.414 -148.42 563.414 -139.75 C 563.414 -131.03 559.293 -121.98 553.348 -115.41 C 546.842 -108.79 537.449 -104.13 528.235 -104.13 C 519.126 -104.13 509.687 -108.49 503.108 -114.62 L 418.182 -199.54 C 415.111 -202.79 412.226 -206.93 410.32 -210.86 C 408.499 -214.98 407.215 -220.37 407.215 -225.03 C 407.215 -229.41 408.539 -234.65 410.353 -238.71 C 412.226 -242.47 415.128 -246.61 418.275 -249.82 L 503.37 -335 C 510.018 -340.72 519.221 -344.38 528.032 -344.93 C 537.204 -344.79 546.735 -340.83 553.246 -334.64 C 559.272 -327.94 563.414 -318.51 563.414 -309.52 C 563.414 -300.43 559.239 -291.31 552.949 -284.87 L 528.78 -260.43 L 635.872 -260.43 C 644.98 -260.1 654.421 -256.24 661.151 -250.16 C 667.466 -243.6 671.838 -234.08 671.838 -224.91 C 671.838 -215.35 667.467 -205.68 661.125 -199.08 C 654.357 -193.09 644.911 -189.37 635.872 -189.06 Z M 761.11 -333.44 L 653.85 -333.44 C 644.795 -333.76 635.35 -337.57 628.709 -343.75 C 622.616 -350.42 618.446 -359.98 618.446 -369.42 C 618.446 -378.51 622.658 -388 628.775 -394.56 C 635.336 -400.6 644.744 -404.47 653.85 -404.81 L 761.286 -404.81 L 736.769 -429.25 C 730.596 -435.95 726.307 -445.29 726.307 -454.01 C 726.307 -462.67 730.525 -472.17 736.496 -479.03 C 743.005 -485.23 752.416 -489.52 761.487 -489.52 C 770.553 -489.52 779.95 -485.31 786.614 -479.03 L 871.41 -394.25 C 874.552 -391.04 877.484 -386.87 879.394 -382.91 C 881.24 -378.79 882.506 -373.51 882.506 -369.3 C 882.506 -364.64 881.228 -359.24 879.384 -355.08 C 877.51 -351.29 874.515 -347.05 871.422 -343.81 L 786.58 -259.53 C 779.951 -253.41 770.65 -249.43 761.711 -248.85 C 752.457 -249 743.01 -253.1 736.453 -259.73 C 730.474 -266.14 726.307 -275.2 726.307 -284.25 C 726.307 -293.29 730.667 -302.81 736.854 -309.53 Z"/>
</svg>