<?xml version="1.0" encoding="utf-8"?>
<svg xmlns="http://www.w3.org/2000/svg" height="48" viewBox="0 -960 960 960" width="48">
  <path d="M 550 -53 C 550 -42.8 546.5 -34.25 539.5 -27.35 C 532.5 -20.45 524.03 -17 514.09 -17 C 504.15 -17 495.817 -20.35 489.09 -27.06 C 482.363 -33.77 479 -42.09 479 -52 L 479 -907 C 479 -917.2 482.337 -925.75 489.01 -932.65 C 495.683 -939.55 503.99 -943 513.93 -943 C 524.15 -943 532.717 -939.65 539.63 -932.94 C 546.543 -926.23 550 -917.92 550 -908 L 550 -866 L 772 -866 C 798.033 -866 820.21 -856.74 838.53 -838.23 C 856.843 -819.72 866 -797.31 866 -771 L 866 -189 C 866 -162.97 856.843 -140.79 838.53 -122.47 C 820.21 -104.16 798.033 -95 772 -95 L 550 -95 L 550 -53 Z M 550 -486 L 550 -231 L 773 -231 L 550 -486 Z M 190 -95 C 163.693 -95 141.283 -104.16 122.77 -122.47 C 104.257 -140.79 95 -162.97 95 -189 L 95 -771 C 95 -797.31 104.257 -819.72 122.77 -838.23 C 141.283 -856.74 163.693 -866 190 -866 L 408 -866 L 408 -771 L 190 -771 L 190 -233 L 408 -482 L 408 -95 L 190 -95 Z" style=""/>
</svg>