<?xml version="1.0" encoding="utf-8"?>
<svg viewBox="0 0 16 16" xmlns="http://www.w3.org/2000/svg">
  <path d="M 5 3 C 5 3.397 4.849 3.848 4.632 4.154 C 4.415 4.46 4.251 4.568 4 4.719 L 4 10.5 C 3.978 10.674 4.029 10.735 4.147 10.853 C 4.265 10.971 4.326 11.022 4.5 11 L 5 11 L 5 10.5 C 5 10.311 5.107 10.137 5.276 10.053 C 5.446 9.968 5.648 9.986 5.8 10.1 L 7.8 11.6 C 7.926 11.694 8 11.843 8 12 C 8 12.157 7.926 12.306 7.8 12.4 L 5.8 13.9 C 5.648 14.014 5.446 14.032 5.276 13.947 C 5.107 13.863 5 13.689 5 13.5 L 5 13 L 4.5 13 C 3.845 12.978 3.157 12.693 2.732 12.268 C 2.307 11.843 2.022 11.155 2 10.5 L 2 4.716 C 1.752 4.564 1.585 4.46 1.368 4.154 C 1.151 3.848 1 3.397 1 3 C 1 2.484 1.251 1.92 1.586 1.586 C 1.92 1.251 2.484 1 3 1 C 3.516 1 4.08 1.251 4.414 1.586 C 4.749 1.92 5 2.484 5 3 Z M 9 2 L 9.5 2 C 10.155 2.022 10.843 2.307 11.268 2.732 C 11.693 3.157 11.978 3.845 12 4.5 L 12 6.024 C 12 6.3 11.776 6.524 11.5 6.524 L 10.5 6.524 C 10.224 6.524 10 6.3 10 6.024 L 10 4.5 C 10.022 4.326 9.971 4.265 9.853 4.147 C 9.735 4.029 9.674 3.978 9.5 4 L 9 4 L 9 4.5 C 9 4.689 8.893 4.863 8.724 4.947 C 8.554 5.032 8.352 5.014 8.2 4.9 L 6.2 3.4 C 6.074 3.306 6 3.157 6 3 C 6 2.843 6.074 2.694 6.2 2.6 L 8.2 1.1 C 8.352 0.986 8.554 0.968 8.724 1.053 C 8.893 1.137 9 1.311 9 1.5 L 9 2 Z M 14.5 12 L 11.768 12 L 9.916 14.777 C 9.794 14.961 9.566 15.042 9.355 14.979 C 9.144 14.915 9 14.72 9 14.5 L 9 7.5 C 9 7.308 9.11 7.133 9.283 7.049 C 9.457 6.966 9.662 6.99 9.812 7.11 L 14.812 11.11 C 14.978 11.242 15.042 11.465 14.972 11.666 C 14.902 11.866 14.712 12 14.5 12 Z M 2.5 3 C 2.5 3.276 2.724 3.5 3 3.5 C 3.276 3.5 3.5 3.276 3.5 3 C 3.5 2.724 3.276 2.5 3 2.5 C 2.724 2.5 2.5 2.724 2.5 3 Z"/>
</svg>