<?xml version="1.0" encoding="utf-8"?>
<svg clip-rule="evenodd" fill-rule="evenodd" stroke-linejoin="round" stroke-miterlimit="2" viewBox="0 0 250 250" xmlns="http://www.w3.org/2000/svg">
  <path d="M 142.189 184.676 C 141.178 187.02 141.657 189.742 143.409 191.6 C 143.416 191.603 143.422 191.609 143.427 191.615 C 143.424 191.671 143.452 191.7 143.479 191.729 C 145.607 193.861 147.318 196.395 148.545 199.19 L 212.843 199.19 C 215.579 199.19 218.204 200.277 220.138 202.212 C 222.074 204.147 223.16 206.772 223.16 209.508 L 223.16 209.509 C 223.16 212.245 222.074 214.87 220.138 216.805 C 218.204 218.74 215.579 219.827 212.843 219.827 L 148.545 219.827 C 144.567 228.882 135.517 235.212 125 235.212 C 114.484 235.212 105.433 228.882 101.455 219.827 L 37.158 219.827 C 34.421 219.827 31.797 218.74 29.862 216.805 C 27.927 214.87 26.84 212.245 26.84 209.509 L 26.84 209.508 C 26.84 206.772 27.927 204.147 29.862 202.212 C 31.797 200.277 34.421 199.19 37.158 199.19 L 101.455 199.19 C 102.683 196.396 104.394 193.861 106.481 191.691 L 106.486 191.686 C 106.596 191.571 106.702 191.45 106.805 191.323 C 108.407 189.429 108.763 186.779 107.719 184.53 C 106.675 182.281 104.422 180.842 101.942 180.842 C 95.9 180.822 122.849 180.817 138.137 180.815 L 75.934 180.815 C 70.856 180.815 66.531 179.028 62.958 175.456 C 59.382 171.882 57.595 167.555 57.595 162.476 L 57.595 33.324 C 57.595 28.191 59.382 23.819 62.958 20.208 C 66.531 16.597 70.856 14.788 75.934 14.788 L 138.95 14.788 C 141.494 14.788 143.919 15.309 146.223 16.351 C 148.528 17.391 150.526 18.756 152.217 20.448 L 186.748 54.98 C 188.439 56.671 189.804 58.669 190.845 60.973 C 191.886 63.277 192.406 65.702 192.406 68.246 L 192.406 162.476 C 192.406 167.555 190.6 171.882 186.988 175.456 C 183.376 179.028 179.004 180.815 173.872 180.815 L 147.977 180.815 C 145.458 180.848 143.19 182.358 142.189 184.676 Z M 114.682 207.138 L 114.682 211.878 C 115.759 216.581 119.973 220.094 125 220.094 C 130.028 220.094 134.241 216.581 135.319 211.878 L 135.319 207.138 C 134.241 202.435 130.028 198.923 125 198.923 C 119.973 198.923 115.759 202.435 114.682 207.138 Z M 97.379 93.452 C 96.089 92.177 95.445 90.485 95.445 88.376 C 95.445 86.265 96.117 84.561 97.464 83.264 C 98.81 81.966 100.477 81.317 102.468 81.317 L 147.339 81.317 C 149.439 81.317 151.136 81.954 152.427 83.229 C 153.717 84.504 154.363 86.196 154.363 88.306 C 154.363 90.417 153.69 92.12 152.344 93.417 C 150.997 94.715 149.329 95.364 147.339 95.364 L 102.468 95.364 C 100.367 95.364 98.671 94.726 97.379 93.452 Z M 97.379 119.205 C 96.089 117.93 95.445 116.238 95.445 114.128 C 95.445 112.017 96.117 110.313 97.464 109.017 C 98.81 107.719 100.477 107.069 102.468 107.069 L 147.339 107.069 C 149.439 107.069 151.136 107.707 152.427 108.981 C 153.717 110.256 154.363 111.948 154.363 114.058 C 154.363 116.169 153.69 117.873 152.344 119.169 C 150.997 120.467 149.329 121.117 147.339 121.117 L 102.468 121.117 C 100.367 121.117 98.671 120.479 97.379 119.205 Z M 97.379 144.957 C 96.089 143.682 95.445 141.99 95.445 139.88 C 95.445 137.769 96.117 136.066 97.464 134.769 C 98.81 133.471 100.477 132.822 102.468 132.822 L 123.928 132.822 C 126.028 132.822 127.725 133.459 129.016 134.734 C 130.306 136.008 130.951 137.701 130.951 139.81 C 130.951 141.921 130.278 143.625 128.932 144.922 C 127.586 146.219 125.918 146.869 123.928 146.869 L 102.468 146.869 C 100.367 146.869 98.671 146.232 97.379 144.957 Z M 173.872 64.929 L 155.533 64.929 C 151.761 64.929 148.51 63.564 145.778 60.832 C 143.047 58.101 141.682 54.849 141.682 51.078 L 141.682 33.324 L 75.934 33.324 L 75.934 162.476 L 173.872 162.476 L 173.872 64.929 Z"/>
</svg>