<?xml version="1.0" encoding="utf-8"?>
<svg xmlns="http://www.w3.org/2000/svg" height="48" viewBox="0 -960 960 960" width="48">
  <path d="M 731 -55 L 229 -55 C 202.967 -55 180.793 -64.157 162.48 -82.47 C 144.16 -100.79 135 -122.967 135 -149 L 135 -811 C 135 -837.307 144.16 -859.717 162.48 -878.23 C 180.793 -896.743 202.967 -906 229 -906 L 532 -906 C 545.04 -906 557.467 -903.333 569.28 -898 C 581.093 -892.667 591.333 -885.667 600 -877 L 797 -680 C 805.667 -671.333 812.667 -661.093 818 -649.28 C 823.333 -637.467 826 -625.04 826 -612 L 826 -149 C 826 -122.967 816.743 -100.79 798.23 -82.47 C 779.717 -64.157 757.307 -55 731 -55 Z M 731 -149 L 731 -610.18 L 529.58 -811 L 229 -811 L 229 -149 Z M 601.784 -209.23 C 579.55 -209.23 558.956 -218.01 543.182 -233.35 C 527.903 -249.09 519.108 -269.69 519.108 -292.08 C 519.108 -314.36 527.94 -334.99 543.225 -350.81 C 559.008 -366.05 579.564 -374.84 601.713 -374.84 C 623.865 -374.84 644.47 -366.06 660.38 -350.74 C 675.814 -335 684.714 -314.38 684.714 -292.25 C 684.714 -269.79 675.865 -249.08 660.496 -233.34 C 644.645 -218 624.015 -209.23 601.784 -209.23 Z M 601.685 -266.49 C 609.467 -266.49 614.491 -268.23 619.887 -273.96 C 625.72 -279.15 627.443 -284.15 627.443 -292.25 C 627.443 -299.99 625.73 -304.9 619.891 -310.1 C 614.504 -315.84 609.476 -317.55 601.685 -317.55 C 593.901 -317.55 588.992 -315.88 583.768 -310.18 C 578.069 -304.99 576.38 -299.95 576.38 -292.08 C 576.38 -284.11 578.068 -279.09 583.768 -273.89 C 589.001 -268.19 593.91 -266.49 601.685 -266.49 Z M 446.156 -261.6 L 302.161 -261.6 C 294.496 -261.93 286.306 -265.33 280.721 -270.46 C 275.63 -276.06 271.945 -284.36 271.945 -292.16 C 271.945 -299.88 275.646 -308.23 280.759 -313.82 C 286.366 -318.86 294.553 -322.16 302.161 -322.48 L 446.156 -322.48 C 453.761 -322.14 462.021 -318.76 467.686 -313.79 C 472.964 -308.16 476.822 -299.88 476.822 -291.98 C 476.822 -284.09 472.93 -275.78 467.621 -270.21 C 461.949 -265.24 453.754 -261.93 446.156 -261.6 Z M 359.135 -398.36 C 336.901 -398.36 316.307 -407.15 300.532 -422.49 C 285.253 -438.23 276.458 -458.83 276.458 -481.21 C 276.458 -503.5 285.291 -524.13 300.576 -539.95 C 316.359 -555.19 336.914 -563.98 359.063 -563.98 C 381.217 -563.98 401.82 -555.2 417.731 -539.88 C 433.162 -524.15 442.065 -503.61 442.065 -481.39 C 442.065 -458.92 433.215 -438.22 417.846 -422.48 C 401.995 -407.14 381.366 -398.36 359.135 -398.36 Z M 359.036 -455.63 C 366.821 -455.63 371.846 -457.36 377.238 -463.09 C 383.071 -468.28 384.793 -473.28 384.793 -481.39 C 384.793 -489.12 383.081 -494.03 377.242 -499.23 C 371.85 -504.97 366.821 -506.7 359.036 -506.7 C 351.256 -506.7 346.59 -504.77 341.119 -499.31 C 335.67 -493.86 333.73 -489.08 333.73 -481.21 C 333.73 -473.24 335.669 -468.47 341.119 -463.02 C 346.59 -457.56 351.256 -455.63 359.036 -455.63 Z M 657.387 -450.73 L 513.392 -450.73 C 505.728 -451.07 497.538 -454.46 491.954 -459.59 C 486.861 -465.19 483.177 -473.5 483.177 -481.21 C 483.177 -489.01 486.878 -497.36 491.991 -502.95 C 497.598 -507.99 505.785 -511.29 513.392 -511.6 L 657.387 -511.6 C 664.994 -511.27 673.253 -507.89 678.916 -502.92 C 684.196 -497.3 688.055 -489.01 688.055 -481.11 C 688.055 -473.23 684.164 -464.92 678.852 -459.35 C 673.178 -454.37 664.987 -451.06 657.387 -450.73 Z" style=""/>
</svg>