<?xml version="1.0" encoding="utf-8"?>
<svg xmlns="http://www.w3.org/2000/svg" height="48" viewBox="0 -960 960 960" width="48">
  <path d="M 189 -95 C 162.967 -95 140.79 -104.157 122.47 -122.47 C 104.157 -140.79 95 -162.967 95 -189 L 95 -791 C 95 -817.307 104.157 -839.717 122.47 -858.23 C 140.79 -876.743 162.967 -886 189 -886 L 654 -886 C 667.04 -886 679.467 -883.333 691.28 -878 C 703.093 -872.667 713.333 -865.667 722 -857 L 837 -742 C 845.667 -733.333 852.667 -723.093 858 -711.28 C 863.333 -699.467 866 -687.04 866 -674 L 866 -548 C 866 -534.6 861.247 -523.583 851.74 -514.95 C 842.227 -506.317 830.893 -502 817.74 -502 C 804.58 -502 793.5 -506.543 784.5 -515.63 C 775.5 -524.71 771 -535.833 771 -549 L 771 -672 L 652 -791 L 189 -791 L 189 -189 L 491 -189 C 504.32 -189 515.483 -184.44 524.49 -175.32 C 533.497 -166.207 538 -155.04 538 -141.82 C 538 -128.607 533.497 -117.5 524.49 -108.5 C 515.483 -99.5 504.32 -95 491 -95 Z M 255.63 -588.63 C 246.543 -597.71 242 -608.833 242 -622 L 242 -671 C 242 -684.167 246.543 -695.293 255.63 -704.38 C 264.71 -713.46 275.833 -718 289 -718 L 553 -718 C 566.167 -718 577.293 -713.46 586.38 -704.38 C 595.46 -695.293 600 -684.167 600 -671 L 600 -622 C 600 -608.833 595.46 -597.71 586.38 -588.63 C 577.293 -579.543 566.167 -575 553 -575 L 289 -575 C 275.833 -575 264.71 -579.543 255.63 -588.63 Z M 706.957 -106.13 L 668.828 -191.04 L 583.895 -229.12 C 566.551 -237.03 557.899 -250.19 557.899 -269.04 C 557.899 -287.27 566.551 -300.64 583.895 -308.94 L 668.828 -345.21 L 706.957 -431.93 C 713.886 -447.95 726.61 -456.25 745.089 -456.25 C 763.566 -456.25 776.879 -447.95 784.941 -431.93 L 823.071 -345.21 L 908.004 -308.94 C 925.327 -300.64 934 -287.27 934 -269.04 C 934 -250.19 925.327 -237.03 908.004 -229.12 L 823.071 -191.04 L 784.941 -106.13 C 776.879 -88.719 763.566 -80 745.089 -80 C 726.61 -80 713.886 -88.719 706.957 -106.13 Z"/>
</svg>