<?xml version="1.0" encoding="utf-8"?>
<svg xmlns="http://www.w3.org/2000/svg" height="48" viewBox="0 -960 960 960" width="48">
  <path d="M 189 -55 C 162.967 -55 140.79 -64.157 122.47 -82.47 C 104.157 -100.79 95 -122.967 95 -149 L 95 -811 C 95 -837.307 104.157 -859.717 122.47 -878.23 C 140.79 -896.743 162.967 -906 189 -906 L 512 -906 C 525.04 -906 537.467 -903.333 549.28 -898 C 561.093 -892.667 571.333 -885.667 580 -877 L 757 -700 C 765.667 -691.333 772.667 -681.093 778 -669.28 C 783.333 -657.467 786 -645.04 786 -632 L 786 -556.89 C 786 -544.837 781.08 -534.99 771.24 -527.35 C 761.393 -519.71 750.227 -515.89 737.74 -515.89 C 726.58 -515.89 716.333 -519.267 707 -526.02 C 697.667 -532.767 691.333 -541.723 688 -552.89 L 688 -625 L 549 -625 C 535.833 -625 524.71 -629.543 515.63 -638.63 C 506.543 -647.71 502 -658.833 502 -672 L 502 -811 L 189 -811 L 189 -149 L 570.291 -149 C 583.691 -149 594.708 -144.44 603.341 -135.32 C 611.974 -126.207 616.291 -115.04 616.291 -101.82 C 616.291 -88.607 611.974 -77.5 603.341 -68.5 C 594.708 -59.5 583.691 -55 570.291 -55 Z M 752.784 -95.849 C 731.7 -95.849 714.154 -102.63 700.148 -115.99 C 686.142 -129.36 678.499 -145.93 677.257 -165.51 C 677.257 -166.82 677.407 -167.96 677.726 -168.89 C 678.028 -169.83 678.197 -170.96 678.197 -172.09 L 600.071 -217.29 C 595.196 -214.26 589.585 -212.01 583.28 -210.69 C 576.954 -209.56 570.628 -208.81 564.303 -208.81 C 542.804 -208.81 524.882 -215.95 510.537 -230.46 C 496.173 -244.76 489 -262.65 489 -283.74 C 489 -305.01 496.173 -322.69 510.537 -337.01 C 524.882 -351.32 542.804 -358.47 564.303 -358.47 C 570.628 -358.47 576.897 -357.53 583.127 -355.64 C 589.359 -353.76 595.007 -351.69 600.09 -349.06 L 678.197 -394.8 C 677.557 -415.89 684.466 -433.59 698.906 -448.46 C 713.326 -463.13 731.361 -470.48 753.03 -470.48 C 773.341 -470.48 790.887 -463.33 805.684 -449.02 C 820.462 -434.72 827.861 -416.83 827.861 -395.55 C 827.861 -374.46 820.443 -356.77 805.627 -342.46 C 790.831 -327.97 773.022 -320.82 752.22 -320.82 C 745.31 -320.82 738.777 -321.76 732.622 -323.44 C 726.447 -325.15 720.856 -327.79 715.848 -331.17 L 646.194 -288.81 L 646.194 -278.46 L 715.848 -236.1 C 720.856 -238.75 726.447 -240.82 732.622 -242.69 C 738.777 -244.57 745.424 -245.51 752.558 -245.51 C 773.266 -245.51 790.981 -238.36 805.74 -224.05 C 820.48 -209.74 827.861 -191.86 827.861 -170.59 C 827.861 -149.5 820.425 -131.62 805.533 -117.31 C 790.661 -103.01 773.077 -95.849 752.784 -95.849 Z"/>
</svg>