<?xml version="1.0" encoding="utf-8"?>
<svg xmlns="http://www.w3.org/2000/svg" height="48" viewBox="0 -960 960 960" width="48">
  <path d="M 189 -55 C 162.967 -55 140.79 -64.157 122.47 -82.47 C 104.157 -100.79 95 -122.967 95 -149 L 95 -811 C 95 -837.307 104.157 -859.717 122.47 -878.23 C 140.79 -896.743 162.967 -906 189 -906 L 512 -906 C 525.04 -906 537.467 -903.333 549.28 -898 C 561.093 -892.667 571.333 -885.667 580 -877 L 757 -700 C 765.667 -691.333 772.667 -681.093 778 -669.28 C 783.333 -657.467 786 -645.04 786 -632 L 786 -547 C 786 -534.947 781.08 -525.1 771.24 -517.46 C 761.393 -509.82 750.227 -506 737.74 -506 C 726.58 -506 716.333 -509.377 707 -516.13 C 697.667 -522.877 691.333 -531.833 688 -543 L 688 -625 L 549 -625 C 535.833 -625 524.71 -629.543 515.63 -638.63 C 506.543 -647.71 502 -658.833 502 -672 L 502 -811 L 189 -811 L 189 -149 L 467 -149 C 480.4 -149 491.417 -144.44 500.05 -135.32 C 508.683 -126.207 513 -115.04 513 -101.82 C 513 -88.607 508.683 -77.5 500.05 -68.5 C 491.417 -59.5 480.4 -55 467 -55 Z M 676.308 -97.735 C 624.395 -97.735 580.541 -115.77 544.742 -151.84 C 508.944 -187.91 491.045 -231.64 491.045 -282.99 C 491.045 -334.16 508.944 -377.88 544.742 -413.94 C 580.541 -450.01 624.395 -468.26 676.308 -468.26 C 727.555 -468.26 771.254 -450.01 807.385 -413.94 C 843.497 -377.88 861.572 -334.16 861.572 -282.99 C 861.572 -231.64 843.497 -187.91 807.385 -151.84 C 771.254 -115.77 727.555 -97.735 676.308 -97.735 Z M 692.972 -287.31 L 692.972 -376.9 C 692.972 -383.56 690.542 -389.05 685.699 -393.76 C 680.857 -398.27 675.211 -400.61 668.742 -400.61 C 662.017 -400.61 656.038 -398.06 650.822 -393.38 C 645.588 -388.46 642.981 -382.39 642.981 -374.94 L 642.981 -287.89 C 642.981 -281.43 644.118 -275.54 646.411 -270.24 C 648.685 -264.76 651.802 -259.85 655.724 -255.55 L 715.518 -193.79 C 720.086 -189.08 725.81 -186.93 732.672 -186.93 C 739.534 -186.93 745.238 -189.48 749.826 -194.76 C 754.394 -200.06 756.845 -205.95 757.178 -212.41 C 757.491 -218.88 755.041 -224.76 749.826 -230.07 Z"/>
</svg>