<?xml version="1.0" encoding="utf-8"?>
<svg xmlns="http://www.w3.org/2000/svg" height="48" viewBox="0 -960 960 960" width="48">
  <path d="M 501.155 -55 C 487.755 -55 476.738 -59.5 468.105 -68.5 C 459.472 -77.5 455.155 -88.61 455.155 -101.82 C 455.155 -115.04 459.472 -126.21 468.105 -135.32 C 476.738 -144.44 487.755 -149 501.155 -149 L 779.155 -149 L 779.155 -811 L 466.155 -811 L 466.155 -672 C 466.155 -658.83 461.612 -647.71 452.525 -638.63 C 443.445 -629.54 432.322 -625 419.155 -625 L 280.155 -625 L 280.155 -543 C 276.822 -531.83 270.488 -522.88 261.155 -516.13 C 251.822 -509.38 241.575 -506 230.415 -506 C 217.928 -506 206.762 -509.82 196.915 -517.46 C 187.075 -525.1 182.155 -534.95 182.155 -547 L 182.155 -632 C 182.155 -645.04 184.822 -657.47 190.155 -669.28 C 195.488 -681.09 202.488 -691.33 211.155 -700 L 388.155 -877 C 396.822 -885.67 407.062 -892.67 418.875 -898 C 430.688 -903.33 443.115 -906 456.155 -906 L 779.155 -906 C 805.188 -906 827.365 -896.74 845.685 -878.23 C 863.998 -859.72 873.155 -837.31 873.155 -811 L 873.155 -149 C 873.155 -122.97 863.998 -100.79 845.685 -82.47 C 827.365 -64.16 805.188 -55 779.155 -55 L 501.155 -55 Z M 294.032 -62.279 C 239.323 -62.279 192.477 -82.019 153.493 -121.17 C 114.492 -160.32 95 -207.52 95 -262.62 C 95 -317.73 114.492 -364.78 153.493 -403.6 C 192.477 -442.58 239.323 -461.99 294.032 -461.99 L 515.272 -461.99 L 461.813 -516.27 C 454.132 -524 450.299 -532.88 450.299 -543.09 C 450.299 -553.28 454.132 -562.33 461.813 -570.22 C 469.478 -578.12 478.525 -582.07 488.954 -582.07 C 499.365 -582.07 508.412 -578.28 516.095 -570.55 L 636.173 -451.29 C 639.955 -447.51 642.95 -443.07 645.171 -438.14 C 647.392 -433.2 648.509 -428.42 648.509 -423.51 C 648.509 -418.56 647.392 -413.79 645.171 -408.69 C 642.95 -403.75 639.955 -399.31 636.173 -395.36 L 516.095 -276.93 C 508.412 -268.71 499.365 -264.61 488.954 -264.61 C 478.525 -264.61 469.478 -268.71 461.813 -276.61 C 454.132 -284.5 450.299 -293.72 450.299 -303.91 C 450.299 -314.11 454.132 -323.32 461.813 -331.22 L 515.272 -384.68 L 293.21 -384.68 C 259.638 -384.68 231.23 -372.67 207.987 -348.48 C 184.746 -324.47 173.132 -295.69 173.132 -262.13 C 173.132 -228.09 184.746 -199.13 207.987 -175.44 C 231.23 -151.59 259.638 -139.58 293.21 -139.58 L 362.534 -139.58 C 373.489 -139.58 382.685 -135.97 390.086 -128.56 C 397.488 -121.17 401.189 -111.95 401.189 -100.93 C 401.189 -90.079 397.488 -80.869 390.086 -73.469 C 382.685 -66.059 373.489 -62.279 362.534 -62.279 L 294.032 -62.279 Z" style=""/>
</svg>