<?xml version="1.0" encoding="utf-8"?>
<svg xmlns="http://www.w3.org/2000/svg" height="48" viewBox="0 -960 960 960" width="48">
  <path d="M 189 -55 C 162.967 -55 140.79 -64.157 122.47 -82.47 C 104.157 -100.79 95 -122.967 95 -149 L 95 -811 C 95 -837.307 104.157 -859.717 122.47 -878.23 C 140.79 -896.743 162.967 -906 189 -906 L 512 -906 C 525.04 -906 537.467 -903.333 549.28 -898 C 561.093 -892.667 571.333 -885.667 580 -877 L 757 -700 C 765.667 -691.333 772.667 -681.093 778 -669.28 C 783.333 -657.467 786 -645.04 786 -632 L 786 -547 C 786 -534.947 781.08 -525.1 771.24 -517.46 C 761.393 -509.82 750.227 -506 737.74 -506 C 726.58 -506 716.333 -509.377 707 -516.13 C 697.667 -522.877 691.333 -531.833 688 -543 L 688 -625 L 549 -625 C 535.833 -625 524.71 -629.543 515.63 -638.63 C 506.543 -647.71 502 -658.833 502 -672 L 502 -811 L 189 -811 L 189 -149 L 467 -149 C 480.4 -149 491.417 -144.44 500.05 -135.32 C 508.683 -126.207 513 -115.04 513 -101.82 C 513 -88.607 508.683 -77.5 500.05 -68.5 C 491.417 -59.5 480.4 -55 467 -55 L 189 -55 Z"/>
  <path d="M 610.868 -55 C 600.289 -55 591.232 -58.77 583.706 -66.296 C 576.178 -73.822 572.415 -82.82 572.415 -93.459 L 572.415 -263.63 C 572.415 -274.26 576.178 -283.42 583.706 -291.04 C 591.232 -298.65 600.289 -302.49 610.868 -302.49 L 757.316 -302.49 L 757.316 -361.17 C 757.316 -373.93 753.119 -384.57 744.733 -393.07 C 736.347 -401.58 725.949 -405.93 713.546 -405.93 C 703.826 -405.93 695.326 -403.06 688.044 -397.41 C 680.753 -391.77 675.755 -384.65 673.047 -376.07 C 670.813 -371.64 667.737 -368.04 663.802 -365.34 C 659.874 -362.64 655.415 -361.34 650.441 -361.34 C 644.805 -361.34 640.412 -363.71 637.27 -368.45 C 634.119 -373.28 633.367 -378.52 635.004 -384.24 C 639.634 -401.91 649.141 -416.48 663.516 -427.76 C 677.883 -439.15 694.565 -444.78 713.546 -444.78 C 736.503 -444.78 755.943 -436.69 771.871 -420.47 C 787.801 -404.29 795.77 -384.57 795.77 -361.34 L 795.77 -302.49 L 816.223 -302.49 C 826.908 -302.49 836.056 -298.65 843.663 -291.04 C 851.272 -283.42 855.085 -274.26 855.085 -263.63 L 855.085 -93.459 C 855.085 -82.82 851.272 -73.822 843.663 -66.296 C 836.056 -58.77 826.908 -55 816.223 -55 L 610.868 -55 Z" style="stroke: rgb(0, 0, 0); stroke-width: 23px;"/>
</svg>