<?xml version="1.0" encoding="utf-8"?>
<svg xmlns="http://www.w3.org/2000/svg" height="48" viewBox="0 -960 960 960" width="48">
  <path d="M 189 -55 C 162.967 -55 140.79 -64.157 122.47 -82.47 C 104.157 -100.79 95 -122.967 95 -149 L 95 -811 C 95 -837.307 104.157 -859.717 122.47 -878.23 C 140.79 -896.743 162.967 -906 189 -906 L 512 -906 C 525.04 -906 537.467 -903.333 549.28 -898 C 561.093 -892.667 571.333 -885.667 580 -877 L 757 -700 C 765.667 -691.333 772.667 -681.093 778 -669.28 C 783.333 -657.467 786 -645.04 786 -632 L 786 -522.826 C 786 -510.773 781.08 -500.926 771.24 -493.286 C 761.393 -485.646 750.227 -481.826 737.74 -481.826 C 726.58 -481.826 716.333 -485.203 707 -491.956 C 697.667 -498.703 691.333 -507.659 688 -518.826 L 688 -625 L 549 -625 C 535.833 -625 524.71 -629.543 515.63 -638.63 C 506.543 -647.71 502 -658.833 502 -672 L 502 -811 L 189 -811 L 189 -149 L 467 -149 C 480.4 -149 491.417 -144.44 500.05 -135.32 C 508.683 -126.207 513 -115.04 513 -101.82 C 513 -88.607 508.683 -77.5 500.05 -68.5 C 491.417 -59.5 480.4 -55 467 -55 Z M 612.057 -328.826 L 684.865 -402.47 C 693.679 -411.41 704.238 -415.57 716.525 -415.37 C 728.813 -414.98 739.491 -410.41 748.562 -401.47 C 757.158 -392.94 761.425 -382.42 761.425 -370.306 C 761.425 -358.396 757.018 -348.076 748.186 -339.146 L 674.463 -265.506 L 741.575 -265.506 C 754.042 -265.506 764.541 -261.136 773.138 -252.596 C 781.712 -243.876 786 -233.356 786 -220.836 C 786 -208.326 781.712 -198.016 773.138 -189.486 C 764.541 -180.936 754.042 -176.576 741.575 -176.576 L 567.632 -176.576 C 555.186 -176.576 544.686 -180.936 536.072 -189.486 C 527.496 -198.216 523.209 -208.526 523.209 -221.036 L 523.209 -394.92 C 523.209 -407.43 527.516 -417.96 536.131 -426.48 C 544.745 -435.02 555.305 -439.39 567.811 -439.39 C 580.296 -439.39 590.796 -435.02 599.292 -426.48 C 607.809 -417.96 612.057 -407.43 612.057 -394.92 Z"/>
</svg>