<?xml version="1.0" encoding="utf-8"?>
<svg xmlns="http://www.w3.org/2000/svg" height="48" viewBox="0 -960 960 960" width="48">
  <path d="M 581 -666.03 C 581 -692.997 572.183 -714.733 554.55 -731.24 C 536.91 -747.747 513.973 -756 485.74 -756 C 467.373 -756 450.6 -752.323 435.42 -744.97 C 420.24 -737.617 407.1 -726.96 396 -713 C 382 -697.667 365.477 -688.5 346.43 -685.5 C 327.39 -682.5 310.913 -686 297 -696 C 281 -706 272.167 -719.58 270.5 -736.74 C 268.833 -753.893 274.333 -770.98 287 -788 C 310.347 -818.987 338.89 -842.4 372.63 -858.24 C 406.37 -874.08 444.16 -882 486 -882 C 554 -882 608.833 -862.323 650.5 -822.97 C 692.167 -783.623 713 -732.3 713 -669 C 713 -635.667 704.333 -602 687 -568 C 669.667 -534 644 -499.333 610 -464 C 596.667 -450 586 -437.093 578 -425.28 C 570 -413.467 563.667 -400.707 559 -387 C 551 -370.333 540.46 -357.333 527.38 -348 C 514.307 -338.667 500.913 -334 487.2 -334 C 470.007 -334 455.007 -339.667 442.2 -351 C 429.4 -362.333 423 -375.91 423 -391.73 C 423 -418.297 430.167 -444.65 444.5 -470.79 C 458.833 -496.93 479.12 -519.74 505.36 -539.22 C 531.12 -559.073 550.167 -579.333 562.5 -600 C 574.833 -620.667 581 -642.677 581 -666.03 Z M 497.825 -293.22 C 531.183 -293.22 559.608 -281.43 583.122 -257.63 C 606.635 -233.81 618.383 -205.46 618.383 -172.51 C 618.383 -139.19 606.635 -110.84 583.122 -87.216 C 559.608 -63.799 531.183 -52 497.825 -52 C 464.888 -52 436.558 -63.799 412.853 -87.216 C 389.13 -110.84 377.269 -139.19 377.269 -172.51 C 377.269 -205.46 389.13 -233.81 412.853 -257.63 C 436.558 -281.43 464.888 -293.22 497.825 -293.22 Z M 497.728 -207.31 L 473.995 -231.02 C 473.951 -231.02 473.895 -231.02 473.838 -231.16 C 469.11 -235.86 463.355 -238.29 456.587 -238.58 C 449.903 -238.73 443.964 -236.45 438.965 -231.44 C 433.982 -226.45 431.625 -220.45 431.682 -213.72 C 431.853 -206.89 434.324 -201.02 439.066 -196.32 L 462.885 -172.47 L 439.164 -148.61 C 438.48 -148.05 437.851 -147.32 437.266 -146.62 C 433.838 -142.34 432.067 -137.34 432.111 -131.48 C 432.167 -124.77 434.509 -119.06 439.164 -114.34 C 439.208 -114.34 439.265 -114.2 439.322 -114.2 C 444.15 -109.34 449.96 -106.92 456.76 -106.92 C 463.57 -106.92 469.326 -109.2 473.995 -113.92 L 497.728 -137.63 L 521.463 -113.92 C 521.734 -113.64 522.02 -113.35 522.319 -113.06 C 526.975 -108.77 532.588 -106.63 539.157 -106.63 C 546.124 -106.63 552.022 -109.05 556.864 -113.92 C 556.878 -113.92 556.878 -113.92 556.891 -113.92 C 561.876 -118.91 564.233 -124.77 563.947 -131.48 C 563.661 -138.06 561.12 -143.91 556.291 -148.61 L 532.558 -172.47 L 556.807 -196.61 C 561.476 -201.31 563.776 -207.02 563.704 -213.88 C 563.633 -220.74 561.205 -226.58 556.408 -231.44 C 556.236 -231.59 556.051 -231.72 555.878 -231.87 C 551.422 -236.15 546.225 -238.29 540.227 -238.44 C 539.856 -238.58 539.484 -238.58 539.099 -238.58 C 538.914 -238.58 538.714 -238.58 538.515 -238.58 C 533.13 -238.44 528.503 -236.88 524.506 -233.72 C 523.619 -233.01 522.777 -232.29 521.963 -231.44 Z"/>
</svg>