<?xml version="1.0" encoding="utf-8"?>
<svg viewBox="0 0 22 22" xmlns="http://www.w3.org/2000/svg">
  <path d="M 16.354 7.354 L 15.354 8.353 L 9.027 14.712 L 8.664 15.045 L 7.965 15.774 L 7.598 16.111 L 7.356 16.354 C 7.262 16.447 7.135 16.5 7.002 16.5 L 3.002 16.5 C 2.726 16.5 2.502 16.276 2.502 16 L 2.502 12 C 2.502 11.867 2.555 11.74 2.648 11.646 L 2.897 11.398 L 4.305 9.959 L 11.649 2.646 C 11.845 2.451 12.161 2.451 12.356 2.647 L 16.354 6.647 C 16.549 6.842 16.549 7.158 16.354 7.354 Z M 7.863 9.252 L 9.724 11.136 L 13.292 7.593 L 11.408 5.707 Z M 18.444 14.304 C 18.813 14.634 19.084 15.081 19.236 15.422 C 19.389 15.77 19.481 16.101 19.498 16.455 C 19.502 17.392 18.95 18.481 18.011 19.068 C 17.588 19.282 16.844 19.467 15.999 19.473 C 15.723 19.472 15.5 19.249 15.5 18.973 L 15.5 18.004 C 15.5 17.866 15.557 17.733 15.658 17.639 C 15.759 17.544 15.895 17.496 16.033 17.505 C 16.463 17.536 16.732 17.562 16.939 17.388 C 17.414 17.015 17.554 16.988 17.498 16.481 C 17.498 16.5 17.498 16.52 17.5 16.539 C 17.459 16.203 17.391 16.093 17.132 15.841 C 16.989 15.72 16.822 15.609 16.663 15.548 C 16.613 15.518 16.573 15.515 16.514 15.506 C 16.491 15.502 16.479 15.501 16.465 15.5 C 16.462 15.499 16.456 15.499 16.449 15.498 C 15.97 15.483 15.502 15.65 15.052 15.923 C 14.842 16.018 14.563 16.19 14.114 16.438 C 13.805 16.608 13.07 16.972 12.76 17.116 C 12.03 17.429 11.137 17.799 10.32 18.097 C 9.796 18.279 9.242 18.475 8.925 18.593 C 6.412 19.516 2.995 19.5 2.995 19.5 C 2.721 19.497 2.5 19.274 2.5 19 L 2.5 18 C 2.5 17.725 2.722 17.501 2.997 17.5 C 2.997 17.5 6.194 17.498 8.231 16.72 C 8.747 16.527 9.489 16.29 10.167 16.032 C 10.884 15.76 11.142 15.671 11.945 15.297 C 12.221 15.169 12.962 14.798 13.165 14.687 C 13.547 14.477 13.849 14.287 14.225 14.11 C 15.422 13.57 16.263 13.502 16.541 13.502 C 17.573 13.631 17.949 13.87 18.444 14.304 Z"/>
</svg>