<?xml version="1.0" encoding="utf-8"?>
<svg version="1.1" viewBox="0 0 16 16" xmlns="http://www.w3.org/2000/svg">
  <defs>
  </defs>
  <path class="ColorScheme-Text" d="M 5.924 4.574 C 5.146 4.902 4.576 5.369 4.143 5.968 C 3.713 6.562 3.488 7.171 3.5 7.883 C 3.471 8.937 3.954 9.792 4.788 10.499 C 5.629 11.212 6.708 11.622 8 11.622 C 9.292 11.622 10.371 11.212 11.212 10.499 C 12.046 9.792 12.529 8.937 12.5 7.883 C 12.501 7.629 12.473 7.406 12.41 7.156 C 12.373 7.007 12.407 6.849 12.501 6.728 C 12.596 6.607 12.741 6.536 12.895 6.536 L 13.91 6.536 C 14.147 6.536 14.352 6.702 14.4 6.935 C 14.461 7.239 14.497 7.574 14.5 7.883 C 14.471 9.404 13.723 10.88 12.566 11.861 C 11.417 12.835 9.746 13.469 8 13.469 C 6.254 13.469 4.583 12.835 3.434 11.861 C 2.277 10.88 1.529 9.403 1.5 7.882 C 1.55 5.894 2.878 3.971 4.882 2.994 C 5.077 2.903 5.309 2.947 5.457 3.104 L 6.088 3.772 C 6.2 3.89 6.248 4.056 6.215 4.216 C 6.182 4.375 6.073 4.509 5.924 4.574 Z"/>
</svg>