<?xml version="1.0" encoding="utf-8"?>
<svg version="1.1" viewBox="0 0 22 22" xmlns="http://www.w3.org/2000/svg">
  <defs>
  </defs>
  <path class="ColorScheme-Text" d="M 10.805 2.539 C 10.865 2.514 10.931 2.5 11 2.5 C 13.318 2.522 15.506 3.475 17.016 4.984 C 18.525 6.494 19.5 8.682 19.5 11 C 19.5 13.318 18.525 15.506 17.016 17.016 C 15.506 18.525 13.318 19.5 11 19.5 C 8.682 19.5 6.494 18.525 4.984 17.016 C 3.475 15.506 2.5 13.318 2.5 11 C 2.5 8.682 3.475 6.494 4.984 4.984 C 5.741 4.228 6.683 3.589 7.686 3.166 C 8.679 2.747 10.771 2.543 10.805 2.539 Z M 10.333 4.533 C 10.109 4.556 9.902 4.588 9.686 4.632 C 9.254 4.72 8.861 4.842 8.464 5.009 C 7.672 5.343 6.999 5.8 6.399 6.399 C 5.197 7.601 4.5 9.163 4.5 11 C 4.5 12.837 5.197 14.399 6.399 15.601 C 7.601 16.803 9.163 17.5 11 17.5 C 12.837 17.5 14.399 16.803 15.601 15.601 C 16.803 14.399 17.5 12.837 17.5 11 C 17.5 9.163 16.803 7.601 15.601 6.399 C 14.399 5.197 12.837 4.478 11 4.5 C 10.993 4.5 10.986 4.5 10.98 4.5 C 10.835 4.504 10.504 4.516 10.333 4.533 Z M 10.805 7.54 C 10.865 7.514 10.931 7.5 11 7.5 C 11.931 7.522 12.869 7.919 13.475 8.525 C 14.081 9.131 14.5 10.069 14.5 11 C 14.5 11.931 14.081 12.869 13.475 13.475 C 12.869 14.081 11.931 14.5 11 14.5 C 10.069 14.5 9.131 14.081 8.525 13.475 C 7.919 12.869 7.5 11.931 7.5 11 C 7.5 10.069 7.919 9.131 8.525 8.525 C 8.83 8.221 9.234 7.946 9.637 7.775 C 10.035 7.607 10.785 7.541 10.805 7.54 Z M 10.416 9.618 C 10.222 9.7 10.087 9.792 9.939 9.939 C 9.64 10.238 9.5 10.55 9.5 11 C 9.5 11.45 9.64 11.762 9.939 12.061 C 10.238 12.36 10.55 12.5 11 12.5 C 11.45 12.5 11.762 12.36 12.061 12.061 C 12.36 11.762 12.5 11.45 12.5 11 C 12.5 10.55 12.36 10.238 12.061 9.939 C 11.762 9.64 11.45 9.478 11 9.5 C 10.982 9.5 10.963 9.499 10.945 9.497 C 10.762 9.527 10.527 9.571 10.416 9.618 Z"/>
</svg>