<?xml version="1.0" encoding="utf-8"?>
<svg viewBox="0 0 22 22" xmlns="http://www.w3.org/2000/svg">
  <path d="M 17.505 2.5 C 18.021 2.523 18.582 2.751 18.915 3.085 C 19.25 3.419 19.5 3.983 19.5 4.5 C 19.5 5.017 19.25 5.581 18.915 5.915 C 18.581 6.25 18.017 6.5 17.5 6.5 C 17.091 6.5 16.637 6.343 16.334 6.123 C 16.03 5.903 15.931 5.744 15.785 5.5 L 8.262 5.5 C 9.899 6.974 11 8.579 11 11.5 C 11 13.791 10.31 15.13 9.224 16.5 L 11.5 16.5 L 11.5 16 C 11.5 15.724 11.724 15.5 12 15.5 L 15 15.5 C 15.276 15.5 15.5 15.724 15.5 16 L 15.5 19 C 15.5 19.276 15.276 19.5 15 19.5 L 12 19.5 C 11.724 19.5 11.5 19.276 11.5 19 L 11.5 18.5 L 8.213 18.5 C 8.066 18.741 7.97 18.903 7.666 19.123 C 7.363 19.343 6.909 19.5 6.5 19.5 C 5.983 19.5 5.419 19.25 5.085 18.915 C 4.75 18.581 4.5 18.017 4.5 17.5 C 4.5 16.983 4.75 16.419 5.085 16.085 C 5.419 15.75 5.983 15.5 6.5 15.5 C 6.913 15.5 7.047 15.57 7.297 15.677 C 8.385 14.594 9 13.296 9 11.5 C 9 9.801 8.358 8.365 7.247 7.253 C 6.135 6.142 4.699 5.478 3 5.5 C 2.724 5.5 2.5 5.276 2.5 5 L 2.5 4 C 2.5 3.724 2.724 3.5 3 3.5 L 15.787 3.5 C 15.934 3.259 16.031 3.097 16.334 2.877 C 16.487 2.766 16.692 2.66 16.877 2.6 C 17.059 2.539 17.5 2.496 17.5 2.496 C 17.502 2.496 17.503 2.497 17.505 2.5 Z M 13 18 L 14 18 L 14 17 L 13 17 Z M 6 17.5 C 6 17.777 6.223 18 6.5 18 C 6.777 18 7 17.777 7 17.5 C 7 17.223 6.777 17 6.5 17 C 6.223 17 6 17.223 6 17.5 Z M 17.039 4.305 C 17.014 4.365 17 4.431 17 4.5 C 17 4.708 17.125 4.885 17.305 4.961 C 17.365 4.986 17.431 5 17.5 5 C 17.777 5 18 4.777 18 4.5 C 18 4.223 17.777 4 17.5 4 C 17.292 4 17.115 4.125 17.039 4.305 Z"/>
</svg>