<?xml version="1.0" encoding="utf-8"?>
<svg xmlns="http://www.w3.org/2000/svg" height="48" viewBox="0 -960 960 960" width="48">
  <path d="M 155.038 -81.27 C 141.705 -81.27 130.538 -85.77 121.538 -94.77 C 112.538 -103.77 108.038 -114.94 108.038 -128.27 L 108.038 -173.27 C 108.038 -185.94 110.538 -198.1 115.538 -209.77 C 120.538 -221.44 127.371 -231.94 136.038 -241.27 L 721.038 -825.27 C 729.038 -833.94 737.538 -840.6 746.538 -845.27 C 755.538 -849.94 764.705 -852.27 774.038 -852.27 C 783.371 -852.27 792.705 -849.94 802.038 -845.27 C 811.371 -840.6 820.371 -833.94 829.038 -825.27 L 854.038 -802.27 C 862.038 -794.94 868.205 -786.6 872.538 -777.27 C 876.871 -767.94 879.038 -758.6 879.038 -749.27 C 879.038 -739.94 877.038 -730.6 873.038 -721.27 C 869.038 -711.94 862.705 -702.94 854.038 -694.27 L 269.038 -109.27 C 259.705 -100.6 249.205 -93.77 237.538 -88.77 C 225.871 -83.77 213.705 -81.27 201.038 -81.27 L 155.038 -81.27 Z M 180.038 -152.27 L 212.038 -152.27 L 672.038 -613.27 L 656.038 -629.27 L 641.038 -645.27 L 180.038 -184.27 L 180.038 -152.27 Z M 214.94 -608.78 L 200.596 -552.68 C 198.679 -546.45 194.378 -539.89 189.361 -535.57 C 183.873 -531.49 176.406 -528.6 170.011 -528.6 C 160.601 -528.6 150.84 -533.68 144.618 -540.6 C 139.17 -548.29 136.948 -559.09 138.924 -568.64 L 149.141 -608.78 L 112.734 -608.78 C 103.308 -609.25 93.544 -613.89 87.34 -620.79 C 81.895 -628.48 79.702 -639.4 81.678 -648.95 C 83.556 -655.09 87.623 -661.56 92.368 -665.98 C 97.713 -670.22 105.596 -673.17 112.734 -673.49 L 165.609 -673.49 L 180.698 -733.84 L 144.236 -733.84 C 134.818 -734.31 125.063 -738.93 118.848 -745.85 C 113.401 -753.53 111.207 -764.44 113.179 -774.01 C 115.061 -780.15 119.123 -786.6 123.863 -791.01 C 129.225 -795.27 137.108 -798.22 144.236 -798.53 L 197.04 -798.53 L 210.552 -854.68 C 212.499 -860.91 216.905 -867.49 221.85 -871.82 C 227.184 -875.73 234.631 -878.73 241.129 -878.73 C 250.648 -878.73 260.374 -873.42 266.389 -866.49 C 271.611 -858.95 273.849 -848.38 272.242 -839.24 L 262.338 -798.53 L 322.094 -798.53 L 335.607 -854.68 C 337.554 -860.91 341.954 -867.48 346.904 -871.82 C 352.238 -875.73 359.686 -878.73 366.182 -878.73 C 375.701 -878.73 385.426 -873.42 391.439 -866.49 C 396.666 -858.95 398.903 -848.37 397.297 -839.24 L 387.391 -798.53 L 423.937 -798.53 C 433.422 -798.03 443.171 -793.32 449.322 -786.43 C 454.782 -778.74 456.979 -767.84 454.998 -758.39 C 453.15 -752.28 449.064 -745.71 444.303 -741.25 C 438.867 -736.97 430.995 -734.12 423.937 -733.84 L 371.494 -733.84 L 356.045 -673.49 L 392.434 -673.49 C 401.929 -672.99 411.686 -668.26 417.827 -661.38 C 423.285 -653.67 425.476 -642.8 423.496 -633.34 C 421.651 -627.23 417.572 -620.66 412.8 -616.19 C 407.376 -611.92 399.504 -609.06 392.434 -608.78 L 339.993 -608.78 L 325.65 -552.67 C 323.733 -546.45 319.433 -539.89 314.413 -535.57 C 308.926 -531.49 301.459 -528.6 295.064 -528.6 C 285.652 -528.6 275.892 -533.68 269.671 -540.6 C 264.226 -548.29 262 -559.09 263.977 -568.64 L 274.193 -608.78 L 214.94 -608.78 Z M 230.993 -673.49 L 290.664 -673.49 L 305.753 -733.84 L 246.44 -733.84 L 230.993 -673.49 Z"/>
</svg>