<?xml version="1.0" encoding="utf-8"?>
<svg viewBox="0 0 22 22" xmlns="http://www.w3.org/2000/svg">
  <path d="M 19.5 3 L 19.5 9 C 19.5 9.276 19.276 9.5 19 9.5 L 18 9.5 C 17.724 9.5 17.5 9.276 17.5 9 L 17.5 5.894 L 6.5 16.894 L 6.5 19 C 6.5 19.276 6.276 19.5 6 19.5 L 3 19.5 C 2.724 19.5 2.5 19.276 2.5 19 L 2.5 16 C 2.5 15.724 2.724 15.5 3 15.5 L 5.106 15.5 L 16.106 4.5 L 13 4.5 C 12.724 4.5 12.5 4.276 12.5 4 L 12.5 3 C 12.5 2.724 12.724 2.5 13 2.5 L 19 2.5 C 19.276 2.5 19.5 2.724 19.5 3 Z M 4 18 L 5 18 L 5 17 L 4 17 Z"/>
</svg>