<?xml version="1.0" encoding="utf-8"?>
<svg viewBox="0 0 22 22" xmlns="http://www.w3.org/2000/svg">
  <path d="M 14.5 6.106 L 14.5 3 C 14.5 2.724 14.724 2.5 15 2.5 L 19 2.5 C 19.276 2.5 19.5 2.724 19.5 3 L 19.5 7 C 19.5 7.276 19.276 7.5 19 7.5 L 15.895 7.5 L 7.5 15.895 L 7.5 19 C 7.5 19.276 7.276 19.5 7 19.5 L 3 19.5 C 2.724 19.5 2.5 19.276 2.5 19 L 2.5 15 C 2.5 14.724 2.724 14.5 3 14.5 L 6.106 14.5 Z M 4.5 17.5 L 5.5 17.5 L 5.5 16.5 L 4.5 16.5 Z M 16.5 5.5 L 17.5 5.5 L 17.5 4.5 L 16.5 4.5 Z" style="stroke-linecap: round; stroke-linejoin: round;"/>
</svg>