<?xml version="1.0" encoding="utf-8"?>
<svg version="1.1" viewBox="0 0 22 22" xmlns="http://www.w3.org/2000/svg">
  <defs>
  </defs>
  <path class="ColorScheme-Text" d="M 12.81 6.033 L 12.925 5.802 C 13.011 5.631 13.187 5.523 13.379 5.525 C 13.571 5.528 13.744 5.639 13.826 5.813 L 15.869 10.166 L 20.449 10.875 C 20.634 10.904 20.788 11.033 20.847 11.211 C 20.906 11.388 20.862 11.584 20.731 11.718 L 17.406 15.132 L 18.179 19.946 C 18.209 20.135 18.129 20.325 17.972 20.435 C 17.815 20.545 17.609 20.555 17.442 20.462 L 13.373 18.192 L 9.304 20.462 C 9.137 20.555 8.932 20.545 8.775 20.436 C 8.618 20.326 8.537 20.137 8.566 19.948 L 8.789 18.522 L 4.997 18.5 C 4.79 18.499 4.605 18.37 4.532 18.176 L 1.532 10.176 C 1.458 9.979 1.515 9.757 1.675 9.62 L 8.675 3.62 C 8.847 3.472 9.098 3.46 9.285 3.589 Z M 3.646 10.31 L 5.856 16.627 L 9.102 16.648 L 9.34 15.133 L 6.015 11.718 C 5.884 11.584 5.839 11.388 5.899 11.211 C 5.958 11.033 6.111 10.904 6.296 10.875 L 10.874 10.166 L 11.996 7.724 L 9.002 5.61 Z M 12.201 11.456 C 12.129 11.608 11.987 11.715 11.82 11.739 L 9.166 12.128 L 11.106 14.114 C 11.217 14.227 11.267 14.387 11.241 14.544 L 10.782 17.344 L 13.133 16.056 C 13.282 15.974 13.463 15.974 13.613 16.056 L 15.963 17.344 L 15.504 14.544 C 15.479 14.387 15.529 14.227 15.64 14.114 L 17.58 12.128 L 14.925 11.739 C 14.759 11.715 14.616 11.608 14.545 11.456 L 13.373 8.954 Z"/>
</svg>