<?xml version="1.0" encoding="utf-8"?>
<svg version="1.1" viewBox="0 0 22 22" xmlns="http://www.w3.org/2000/svg">
  <defs>
  </defs>
  <path class="ColorScheme-Text" d="M 4.984 8.484 C 6.493 6.975 8.682 6 11 6 C 13.318 6 15.507 6.975 17.016 8.484 C 17.145 8.613 17.269 8.746 17.39 8.885 C 17.983 9.562 18.483 10.353 18.834 11.186 C 18.892 11.324 18.946 11.483 18.996 11.654 C 19.312 12.548 19.49 13.507 19.5 14.49 C 19.5 14.493 19.5 14.497 19.5 14.5 L 19.5 15.5 C 19.5 15.776 19.276 16 19 16 L 3 16 C 2.724 16 2.5 15.776 2.5 15.5 L 2.5 14.5 C 2.5 14.497 2.5 14.493 2.5 14.49 C 2.51 13.507 2.688 12.548 3.004 11.654 C 3.054 11.483 3.108 11.324 3.166 11.186 C 3.517 10.353 4.017 9.562 4.61 8.885 C 4.731 8.746 4.855 8.613 4.984 8.484 Z M 17.466 13.832 C 17.444 13.609 17.412 13.402 17.368 13.185 C 17.28 12.754 17.158 12.361 16.991 11.964 C 16.656 11.171 16.2 10.499 15.6 9.899 C 14.398 8.697 12.837 8 11 8 C 9.163 8 7.602 8.697 6.4 9.899 C 5.8 10.499 5.344 11.171 5.009 11.964 C 4.842 12.361 4.72 12.754 4.632 13.185 C 4.588 13.402 4.556 13.609 4.534 13.832 C 4.529 13.879 4.525 13.937 4.521 14 L 17.479 14 C 17.475 13.937 17.471 13.879 17.466 13.832 Z"/>
</svg>