<?xml version="1.0" encoding="utf-8"?>
<svg version="1.1" viewBox="0 0 22 22" xmlns="http://www.w3.org/2000/svg">
  <defs>
  </defs>
  <path class="ColorScheme-Text" d="M 10.31 19.988 L 9.97 19.777 L 6.156 17.239 L 4.356 16.042 C 4.355 16.041 4.353 16.04 4.353 16.04 C 4.35 16.039 4.347 16.036 4.344 16.034 L 4.344 16.034 C 4.339 16.031 4.33 16.025 4.316 16.016 C 4.289 15.998 4.244 15.968 4.175 15.922 C 4.037 15.83 3.806 15.677 3.442 15.434 C 3.261 15.314 3.152 15.111 3.152 14.893 L 3.152 7.57 C 3.152 7.351 3.263 7.146 3.446 7.026 C 3.458 7.026 3.469 7.025 3.48 7.025 C 3.524 6.992 3.552 6.972 3.57 6.959 C 3.545 6.98 3.536 6.991 3.57 6.959 C 3.571 6.958 3.572 6.957 3.574 6.956 C 3.575 6.955 3.576 6.954 3.577 6.953 C 3.61 6.924 3.694 6.861 3.937 6.682 C 4.857 6.069 4.927 6.021 5.566 5.597 C 6.05 5.275 6.862 4.737 8.626 3.566 L 9.869 2.736 C 9.884 2.728 9.898 2.72 9.913 2.712 C 10.128 2.569 10.354 2.419 10.591 2.262 C 10.7 2.19 10.825 2.154 10.95 2.154 C 11.075 2.154 11.2 2.19 11.309 2.262 C 11.546 2.419 11.772 2.569 11.987 2.712 C 12.002 2.72 12.016 2.728 12.031 2.736 L 13.274 3.566 C 15.038 4.737 15.85 5.275 16.334 5.597 C 16.973 6.021 17.043 6.069 17.963 6.682 C 18.206 6.861 18.29 6.924 18.323 6.953 C 18.324 6.954 18.325 6.955 18.326 6.956 C 18.328 6.957 18.329 6.958 18.33 6.959 C 18.364 6.991 18.355 6.98 18.33 6.959 C 18.348 6.972 18.376 6.992 18.42 7.025 C 18.431 7.025 18.442 7.026 18.454 7.026 C 18.637 7.146 18.748 7.351 18.748 7.57 L 18.748 14.893 C 18.748 15.111 18.639 15.314 18.458 15.434 C 18.094 15.677 17.863 15.83 17.725 15.922 C 17.656 15.968 17.611 15.998 17.584 16.016 C 17.57 16.025 17.561 16.031 17.556 16.034 L 17.556 16.034 C 17.553 16.036 17.55 16.039 17.547 16.04 C 17.547 16.04 17.545 16.041 17.544 16.042 L 15.744 17.239 L 11.93 19.777 L 11.59 19.988 C 11.589 19.987 11.588 19.987 11.587 19.986 C 11.517 20.027 11.493 20.038 11.481 20.043 C 11.372 20.085 11.416 20.039 11.309 20.161 C 11.307 20.164 11.304 20.167 11.302 20.171 C 11.208 20.232 11.101 20.266 10.994 20.273 C 10.979 20.274 10.965 20.274 10.95 20.274 C 10.935 20.274 10.921 20.274 10.906 20.273 C 10.799 20.266 10.692 20.232 10.598 20.171 C 10.596 20.167 10.593 20.164 10.591 20.161 C 10.484 20.039 10.528 20.085 10.419 20.043 C 10.407 20.038 10.383 20.027 10.313 19.986 C 10.312 19.987 10.311 19.987 10.31 19.988 Z M 3.574 6.956 C 3.572 6.957 3.571 6.958 3.57 6.959 C 3.571 6.957 3.573 6.956 3.575 6.954 C 3.574 6.955 3.574 6.955 3.574 6.956 Z M 18.325 6.954 C 18.327 6.956 18.329 6.957 18.33 6.959 C 18.329 6.958 18.328 6.957 18.326 6.956 C 18.326 6.955 18.326 6.955 18.325 6.954 Z M 10.95 10.753 L 15.594 7.656 L 10.95 4.555 L 6.306 7.656 Z M 16.654 14.097 L 16.654 9.603 L 11.997 12.708 L 11.997 17.202 Z M 9.903 12.708 L 5.246 9.603 L 5.246 14.097 L 9.903 17.202 Z"/>
</svg>