<?xml version="1.0" encoding="utf-8"?>
<svg version="1.1" viewBox="0 0 22 22" xmlns="http://www.w3.org/2000/svg">
  <defs>
  </defs>
  <path class="ColorScheme-Text" d="M 8.484 17.016 C 6.975 15.507 6 13.318 6 11 C 6 8.682 6.975 6.493 8.484 4.984 C 8.613 4.855 8.746 4.731 8.885 4.61 C 9.562 4.017 10.353 3.517 11.186 3.166 C 11.324 3.108 11.483 3.054 11.654 3.004 C 12.548 2.688 13.507 2.51 14.49 2.5 C 14.493 2.5 14.497 2.5 14.5 2.5 L 15.5 2.5 C 15.776 2.5 16 2.724 16 3 L 16 19 C 16 19.276 15.776 19.5 15.5 19.5 C 15.497 19.5 14.493 19.5 14.49 19.5 C 13.507 19.49 12.548 19.312 11.654 18.996 C 11.483 18.946 11.324 18.892 11.186 18.834 C 10.353 18.483 9.562 17.983 8.885 17.39 C 8.746 17.269 8.613 17.145 8.484 17.016 Z M 13.832 4.534 C 13.609 4.556 13.402 4.588 13.185 4.632 C 12.754 4.72 12.361 4.842 11.964 5.009 C 11.171 5.344 10.499 5.8 9.899 6.4 C 8.697 7.602 8 9.163 8 11 C 8 12.837 8.697 14.398 9.899 15.6 C 10.499 16.2 11.171 16.656 11.964 16.991 C 12.361 17.158 12.754 17.28 13.185 17.368 C 13.402 17.412 13.609 17.444 13.832 17.466 C 13.879 17.471 13.937 17.475 14 17.479 L 14 4.521 C 13.937 4.525 13.879 4.529 13.832 4.534 Z"/>
</svg>