<?xml version="1.0" encoding="utf-8"?>
<svg viewBox="0 0 22 22" xmlns="http://www.w3.org/2000/svg">
  <path d="M 6.5 3 L 6.5 3.5 L 15.5 3.5 L 15.5 3 C 15.5 2.724 15.724 2.5 16 2.5 L 19 2.5 C 19.276 2.5 19.5 2.724 19.5 3 L 19.5 6 C 19.5 6.276 19.276 6.5 19 6.5 L 18.5 6.5 L 18.5 15.5 L 19 15.5 C 19.276 15.5 19.5 15.724 19.5 16 L 19.5 19 C 19.5 19.276 19.276 19.5 19 19.5 L 16 19.5 C 15.724 19.5 15.5 19.276 15.5 19 L 15.5 18.5 L 6.5 18.5 L 6.5 19 C 6.5 19.276 6.276 19.5 6 19.5 L 3 19.5 C 2.724 19.5 2.5 19.276 2.5 19 L 2.5 16 C 2.5 15.724 2.724 15.5 3 15.5 L 3.5 15.5 L 3.5 6.5 L 3 6.5 C 2.724 6.5 2.5 6.276 2.5 6 L 2.5 3 C 2.5 2.724 2.724 2.5 3 2.5 L 6 2.5 C 6.276 2.5 6.5 2.724 6.5 3 Z M 6.5 6 C 6.5 6.276 6.276 6.5 6 6.5 L 5.5 6.5 L 5.5 15.5 L 6 15.5 C 6.276 15.5 6.5 15.724 6.5 16 L 6.5 16.5 L 15.5 16.5 L 15.5 16 C 15.5 15.724 15.724 15.5 16 15.5 L 16.5 15.5 L 16.5 6.5 L 16 6.5 C 15.724 6.5 15.5 6.276 15.5 6 L 15.5 5.5 L 6.5 5.5 Z M 15.367 7.52 L 15.367 9.067 C 15.367 9.343 15.143 9.567 14.867 9.567 L 12.274 9.567 L 12.274 14.481 C 12.274 14.757 12.05 14.981 11.774 14.981 L 10.226 14.981 C 9.95 14.981 9.726 14.757 9.726 14.481 L 9.726 9.567 L 7.133 9.567 C 6.857 9.567 6.633 9.343 6.633 9.067 L 6.633 7.52 C 6.633 7.244 6.857 7.02 7.133 7.02 L 14.867 7.02 C 15.143 7.02 15.367 7.244 15.367 7.52 Z M 4 18 L 5 18 L 5 17 L 4 17 Z M 17 5 L 18 5 L 18 4 L 17 4 Z M 4 5 L 5 5 L 5 4 L 4 4 Z M 17 18 L 18 18 L 18 17 L 17 17 Z"/>
</svg>