<?xml version="1.0" encoding="utf-8"?>
<svg version="1.1" viewBox="0 0 22 22" xmlns="http://www.w3.org/2000/svg">
  <defs>
  </defs>
  <path class="ColorScheme-Text" d="M 2.208 17.612 L 10.564 2.755 C 10.652 2.597 10.819 2.5 11 2.5 C 11.18 2.5 11.347 2.597 11.435 2.755 L 19.792 17.612 L 20.435 18.754 C 20.523 18.909 20.521 19.099 20.431 19.252 C 20.342 19.406 20.177 19.5 20 19.5 L 2.009 19.5 C 1.963 19.501 1.918 19.495 1.873 19.484 C 1.814 19.468 1.759 19.442 1.71 19.408 C 1.651 19.366 1.603 19.312 1.568 19.252 C 1.533 19.192 1.51 19.124 1.502 19.052 C 1.496 18.993 1.5 18.932 1.516 18.873 C 1.528 18.828 1.546 18.786 1.568 18.747 L 2.208 17.612 Z M 4.646 17.357 L 17.2 17.357 L 10.995 6.324 L 4.646 17.357 Z"/>
</svg>