<?xml version="1.0" encoding="utf-8"?>
<svg version="1.1" viewBox="0 0 22 22" xmlns="http://www.w3.org/2000/svg">
  <defs>
  </defs>
  <path class="ColorScheme-Text" d="M 4.61 13.115 C 4.017 12.438 3.517 11.647 3.166 10.814 C 3.108 10.676 3.054 10.517 3.004 10.346 C 2.688 9.452 2.51 8.493 2.5 7.51 C 2.5 7.507 2.5 6.503 2.5 6.5 C 2.5 6.224 2.724 6 3 6 L 19 6 C 19.276 6 19.5 6.224 19.5 6.5 C 19.5 6.503 19.5 7.507 19.5 7.51 C 19.49 8.493 19.312 9.452 18.996 10.346 C 18.946 10.517 18.892 10.676 18.834 10.814 C 18.483 11.647 17.983 12.438 17.39 13.115 C 17.269 13.254 17.145 13.387 17.016 13.516 C 15.507 15.025 13.318 16 11 16 C 8.682 16 6.493 15.025 4.984 13.516 C 4.855 13.387 4.731 13.254 4.61 13.115 Z M 17.479 8 L 4.521 8 C 4.525 8.063 4.529 8.121 4.534 8.168 C 4.556 8.391 4.588 8.598 4.632 8.815 C 4.72 9.246 4.842 9.639 5.009 10.036 C 5.344 10.829 5.8 11.501 6.4 12.101 C 7.602 13.303 9.163 14 11 14 C 12.837 14 14.398 13.303 15.6 12.101 C 16.2 11.501 16.656 10.829 16.991 10.036 C 17.158 9.639 17.28 9.246 17.368 8.815 C 17.412 8.598 17.444 8.391 17.466 8.168 C 17.471 8.121 17.475 8.063 17.479 8 Z"/>
</svg>