<?xml version="1.0" encoding="utf-8"?>
<svg xmlns="http://www.w3.org/2000/svg" height="48" viewBox="0 -960 960 960" width="48">
  <path d="M 542.982 -416.08 C 534.626 -407.8 524.395 -403.57 512.269 -403.57 L 396.337 -403.57 C 391.204 -403.57 385.997 -404.68 380.714 -406.72 C 375.452 -408.91 370.538 -412.23 365.975 -416.48 L 116.633 -665.8 C 108.058 -674.46 101.764 -684.02 97.771 -694.52 C 93.796 -705.19 91.79 -716.03 91.79 -727.08 C 91.79 -738.14 93.796 -749.34 97.771 -760.39 C 101.764 -771.6 108.352 -781.35 117.553 -790.02 L 170.917 -842.46 C 179.548 -851.11 189.08 -857.56 199.477 -861.78 C 209.892 -866 220.602 -868.21 231.643 -868.21 C 242.003 -868.21 252.714 -866.19 263.79 -862.15 C 274.868 -858.28 284.713 -852.03 293.289 -843.38 L 543.552 -593.13 C 547.857 -588.33 550.913 -583.38 552.752 -578.2 C 554.592 -573.06 555.513 -567.9 555.513 -562.77 L 555.513 -446.82 C 555.513 -434.66 551.335 -424.56 542.982 -416.08 Z M 482.826 -551.15 L 337.453 -694.33 L 300.65 -658.45 L 263.846 -622.57 L 410.471 -477.19 L 482.826 -477.19 L 482.826 -551.15 Z M 809.59 -289.76 C 842.47 -272.24 864.81 -237.63 864.81 -197.8 C 864.81 -140.29 818.24 -93.675 760.61 -93.675 C 720.08 -93.675 684.97 -116.87 667.8 -150.73 L 290.97 -150.82 C 274.06 -115.87 238.22 -91.788 196.51 -91.788 C 138.72 -91.788 91.79 -138.75 91.79 -196.7 C 91.79 -254.64 138.72 -301.63 196.51 -301.63 C 237.79 -301.63 273.45 -277.87 290.78 -243.31 L 667 -243.27 C 677.48 -264.85 695.19 -282.26 716.97 -292.36 L 717.15 -669.02 C 682.33 -686.1 658.36 -721.89 658.36 -763.28 C 658.36 -821.23 705.29 -868.21 763.27 -868.21 C 821.27 -868.21 868.21 -821.23 868.21 -763.28 C 868.21 -721.97 844.24 -686.22 809.59 -669.12 L 809.59 -289.76 Z" style="stroke-width: 1;"/>
</svg>