<?xml version="1.0" encoding="utf-8"?>
<svg viewBox="0 0 22 22" xmlns="http://www.w3.org/2000/svg">
  <path d="M 19.354 7.354 C 18.354 8.354 9.354 17.354 8.354 18.354 L 7.354 19.354 C 7.26 19.447 7.133 19.5 7 19.5 L 3 19.5 C 2.724 19.5 2.5 19.276 2.5 19 L 2.5 15 C 2.5 14.867 2.553 14.74 2.646 14.646 L 14.646 2.646 C 14.842 2.451 15.158 2.451 15.354 2.646 L 19.354 6.646 C 19.549 6.842 19.549 7.158 19.354 7.354 Z M 13.354 6.76 L 6.925 13.218 L 8.354 14.646 L 8.782 15.075 L 15.241 8.646 L 16.887 7 L 15 5.114 Z M 4 17.313 L 4 18 L 4.688 18 L 7.156 15.531 L 6.469 14.844 Z"/>
</svg>