<?xml version="1.0" encoding="utf-8"?>
<svg version="1.1" viewBox="0 0 22 22" xmlns="http://www.w3.org/2000/svg">
  <defs>
  </defs>
  <path class="ColorScheme-Text" d="M 7.686 3.166 C 8.679 2.747 10.931 2.5 11 2.5 C 13.318 2.522 15.506 3.475 17.016 4.984 C 18.525 6.494 19.5 8.682 19.5 11 C 19.5 13.318 18.525 15.506 17.016 17.016 C 15.506 18.525 13.318 19.5 11 19.5 C 8.682 19.5 6.494 18.525 4.984 17.016 C 3.475 15.506 2.5 13.318 2.5 11 C 2.5 8.682 3.475 6.494 4.984 4.984 C 5.741 4.228 6.683 3.589 7.686 3.166 Z M 10.333 4.533 C 10.109 4.556 9.902 4.588 9.686 4.632 C 9.254 4.72 8.861 4.842 8.464 5.009 C 7.672 5.343 6.999 5.8 6.399 6.399 C 5.197 7.601 4.5 9.163 4.5 11 C 4.5 12.837 5.197 14.399 6.399 15.601 C 7.601 16.803 9.163 17.5 11 17.5 C 12.837 17.5 14.399 16.803 15.601 15.601 C 16.803 14.399 17.5 12.837 17.5 11 C 17.5 9.163 16.803 7.601 15.601 6.399 C 14.399 5.197 12.837 4.478 11 4.5 C 10.993 4.5 10.986 4.5 10.98 4.5 C 10.835 4.504 10.504 4.516 10.333 4.533 Z"/>
</svg>