<?xml version="1.0" encoding="utf-8"?>
<svg viewBox="0 0 22 22" xmlns="http://www.w3.org/2000/svg">
  <path d="M 19.2 2.803 C 19.468 3.17 19.55 3.788 19.373 4.356 C 19.208 4.887 18.864 5.564 18.403 6.289 C 17.492 7.721 16.025 9.513 14.25 11.288 C 12.855 12.682 11.379 13.951 10.073 14.884 C 9.943 14.977 9.777 15.002 9.625 14.951 C 9.473 14.901 9.355 14.781 9.306 14.628 C 9.026 13.653 8.349 12.976 7.374 12.696 C 7.221 12.647 7.101 12.529 7.051 12.377 C 7 12.226 7.025 12.059 7.118 11.929 C 8.05 10.623 9.321 9.147 10.715 7.751 C 13.848 4.625 17.2 2.402 18.578 2.512 C 18.789 2.55 19.046 2.673 19.2 2.803 Z M 19.154 15.121 C 19.357 15.517 19.5 16.008 19.5 16.5 C 19.5 17.294 19.138 18.108 18.623 18.623 C 18.108 19.138 17.294 19.5 16.5 19.5 C 15.706 19.5 14.892 19.138 14.377 18.623 C 13.862 18.108 13.5 17.294 13.5 16.5 C 13.5 16.006 13.65 15.513 13.848 15.121 C 14.408 13.894 15.58 12.477 16.019 10.863 C 16.08 10.648 16.277 10.5 16.5 10.5 C 16.723 10.5 16.92 10.648 16.981 10.863 C 17.42 12.476 18.592 13.896 19.154 15.121 Z M 8.5 15.664 C 8.5 16.46 7.867 17.522 6.779 18.249 C 5.724 18.952 4.081 19.487 2 19.5 C 1.774 19.5 1.576 19.348 1.517 19.129 C 1.458 18.911 1.554 18.68 1.75 18.567 C 2.428 18.197 2.688 17.833 2.865 17.397 C 3.038 16.974 3.064 16.529 3.129 16.021 C 3.194 15.512 3.318 14.901 3.717 14.396 C 4.096 13.917 4.801 13.48 5.871 13.181 C 5.921 13.167 5.974 13.162 6.027 13.165 C 7.186 13.262 7.908 13.704 8.204 14.199 C 8.516 14.719 8.5 15.341 8.5 15.664 Z"/>
</svg>