<?xml version="1.0" encoding="utf-8"?>
<svg viewBox="0 0 22 22" xmlns="http://www.w3.org/2000/svg">
  <path d="M 18.31 2.551 C 18.844 2.551 19.046 2.673 19.2 2.803 C 19.468 3.17 19.55 3.788 19.373 4.356 C 19.208 4.887 18.864 5.564 18.403 6.289 C 17.492 7.721 16.025 9.513 14.25 11.288 C 12.855 12.682 11.379 13.951 10.073 14.884 C 9.943 14.977 9.777 15.002 9.625 14.951 C 9.473 14.901 9.355 14.781 9.306 14.628 C 9.026 13.653 8.349 12.976 7.374 12.696 C 7.221 12.647 7.101 12.529 7.051 12.377 C 7 12.226 7.025 12.059 7.118 11.929 C 8.05 10.623 9.321 9.147 10.715 7.751 C 12.279 6.188 13.874 4.846 15.218 3.926 C 15.895 3.462 16.537 3.088 17.074 2.848 C 17.626 2.602 18.31 2.551 18.31 2.551 Z M 8.5 15.664 C 8.5 16.403 8.181 17.452 7.334 18.206 C 6.52 18.93 5.094 19.482 3 19.5 C 2.774 19.5 2.576 19.348 2.517 19.129 C 2.458 18.911 2.554 18.68 2.75 18.567 C 3.415 18.215 3.593 17.891 3.684 17.479 C 3.772 17.076 3.693 16.653 3.629 16.148 C 3.565 15.641 3.528 14.995 3.83 14.461 C 4.116 13.954 4.789 13.487 5.871 13.181 C 5.921 13.167 5.974 13.162 6.027 13.165 C 7.186 13.262 7.908 13.704 8.204 14.199 C 8.516 14.719 8.5 15.341 8.5 15.664 Z"/>
</svg>