<?xml version="1.0" encoding="utf-8"?>
<svg version="1.1" viewBox="0 0 16 16" xmlns="http://www.w3.org/2000/svg">
  <defs>
  </defs>
  <path class="ColorScheme-Text" d="M 5.482 3.319 C 5.483 3.321 5.485 3.322 5.487 3.325 C 5.504 3.342 5.528 3.367 5.557 3.398 C 5.616 3.459 5.694 3.541 5.773 3.623 C 5.931 3.786 6.09 3.951 6.09 3.951 L 8.696 6.665 L 13.911 6.665 C 14.147 6.665 14.351 6.831 14.4 7.062 C 14.462 7.361 14.498 7.694 14.501 7.997 C 14.471 9.494 13.721 10.949 12.564 11.912 C 11.414 12.868 9.745 13.49 8.001 13.49 C 6.257 13.49 4.588 12.868 3.438 11.912 C 2.281 10.949 1.531 9.493 1.501 7.996 C 1.552 6.049 2.86 4.167 4.85 3.205 L 4.877 3.191 C 5.088 3.087 5.337 3.146 5.482 3.319 Z M 4.447 5.761 C 4.236 5.982 4.074 6.197 3.928 6.448 C 3.638 6.95 3.492 7.434 3.5 7.998 C 3.47 9.028 3.951 9.861 4.784 10.555 C 5.626 11.255 6.707 11.658 8 11.658 C 9.293 11.658 10.374 11.255 11.216 10.555 C 12.049 9.861 12.363 9.305 12.474 8.497 L 8 8.497 C 7.864 8.497 7.734 8.442 7.64 8.344 L 4.829 5.423 C 4.684 5.542 4.534 5.67 4.447 5.761 Z"/>
</svg>