<?xml version="1.0" encoding="utf-8"?>
<svg version="1.1" viewBox="0 0 22 22" xmlns="http://www.w3.org/2000/svg">
  <defs>
  </defs>
  <path class="ColorScheme-Text" d="M 13.115 17.39 C 12.438 17.983 11.647 18.483 10.814 18.834 C 10.676 18.892 10.517 18.946 10.346 18.996 C 9.452 19.312 8.493 19.49 7.51 19.5 C 7.507 19.5 6.503 19.5 6.5 19.5 C 6.224 19.5 6 19.276 6 19 L 6 3 C 6 2.724 6.224 2.5 6.5 2.5 C 6.503 2.5 7.507 2.5 7.51 2.5 C 8.493 2.51 9.452 2.688 10.346 3.004 C 10.517 3.054 10.676 3.108 10.814 3.166 C 11.647 3.517 12.438 4.017 13.115 4.61 C 13.254 4.731 13.387 4.855 13.516 4.984 C 15.025 6.493 16 8.682 16 11 C 16 13.318 15.025 15.507 13.516 17.016 C 13.387 17.145 13.254 17.269 13.115 17.39 Z M 8 4.521 L 8 17.479 C 8.063 17.475 8.121 17.471 8.168 17.466 C 8.391 17.444 8.598 17.412 8.815 17.368 C 9.246 17.28 9.639 17.158 10.036 16.991 C 10.829 16.656 11.501 16.2 12.101 15.6 C 13.303 14.398 14 12.837 14 11 C 14 9.163 13.303 7.602 12.101 6.4 C 11.501 5.8 10.829 5.344 10.036 5.009 C 9.639 4.842 9.246 4.72 8.815 4.632 C 8.598 4.588 8.391 4.556 8.168 4.534 C 8.121 4.529 8.063 4.525 8 4.521 Z"/>
</svg>