<?xml version="1.0" encoding="utf-8"?>
<svg version="1.1" viewBox="0 0 22 22" xmlns="http://www.w3.org/2000/svg">
  <defs>
  </defs>
  <path class="ColorScheme-Text" d="M 8.5 3 C 8.5 2.724 8.724 2.5 9 2.5 L 13 2.5 C 13.276 2.5 13.5 2.724 13.5 3 L 13.5 8.5 L 19 8.5 C 19.276 8.5 19.5 8.724 19.5 9 L 19.5 13 C 19.5 13.276 19.276 13.5 19 13.5 L 13.5 13.5 L 13.5 19 C 13.5 19.276 13.276 19.5 13 19.5 L 9 19.5 C 8.724 19.5 8.5 19.276 8.5 19 L 8.5 13.5 L 3 13.5 C 2.724 13.5 2.5 13.276 2.5 13 L 2.5 9 C 2.5 8.724 2.724 8.5 3 8.5 L 8.5 8.5 L 8.5 3 Z M 10.5 10 C 10.5 10.276 10.276 10.5 10 10.5 L 4.5 10.5 L 4.5 11.5 L 10 11.5 C 10.276 11.5 10.5 11.724 10.5 12 L 10.5 17.5 L 11.5 17.5 L 11.5 12 C 11.5 11.724 11.724 11.5 12 11.5 L 17.5 11.5 L 17.5 10.5 L 12 10.5 C 11.724 10.5 11.5 10.276 11.5 10 L 11.5 4.5 L 10.5 4.5 L 10.5 10 Z"/>
</svg>