<?xml version="1.0" encoding="utf-8"?>
<svg version="1.1" viewBox="0 0 22 22" xmlns="http://www.w3.org/2000/svg">
  <defs>
  </defs>
  <path class="ColorScheme-Text" d="M 13.812 7.814 L 19.075 8.617 C 19.261 8.645 19.415 8.775 19.474 8.953 C 19.534 9.13 19.489 9.326 19.358 9.461 L 15.534 13.38 L 16.437 18.92 C 16.468 19.109 16.388 19.299 16.231 19.409 C 16.075 19.519 15.869 19.53 15.701 19.438 L 11 16.839 L 6.299 19.438 C 6.131 19.53 5.925 19.519 5.769 19.409 C 5.612 19.299 5.532 19.109 5.563 18.92 L 6.466 13.38 L 2.642 9.461 C 2.511 9.326 2.466 9.13 2.526 8.953 C 2.585 8.775 2.739 8.645 2.925 8.617 L 8.188 7.814 L 10.547 2.788 C 10.63 2.612 10.806 2.5 11 2.5 C 11.194 2.5 11.37 2.612 11.453 2.788 L 13.812 7.814 Z M 9.602 9.319 C 9.533 9.474 9.39 9.583 9.222 9.608 L 6.071 10.091 L 8.348 12.299 C 8.465 12.412 8.519 12.575 8.494 12.736 L 7.944 16.233 L 10.758 14.676 C 10.909 14.593 11.091 14.593 11.242 14.676 L 14.056 16.233 L 13.506 12.736 C 13.481 12.575 13.535 12.412 13.652 12.299 L 15.929 10.091 L 12.778 9.608 C 12.61 9.583 12.467 9.474 12.398 9.319 L 11 6.217 L 9.602 9.319 Z"/>
</svg>