<?xml version="1.0" encoding="utf-8"?>
<svg viewBox="0 0 22 22" xmlns="http://www.w3.org/2000/svg">
  <path d="M 9.5 3 L 9.5 4.718 L 15.826 8.531 C 15.88 8.511 15.939 8.5 16 8.5 L 19 8.5 C 19.276 8.5 19.5 8.724 19.5 9 L 19.5 12 C 19.5 12.276 19.276 12.5 19 12.5 L 16 12.5 C 15.724 12.5 15.5 12.276 15.5 12 L 15.5 10.63 L 8.676 6.5 L 8.058 6.5 L 5.875 15.5 L 6 15.5 C 6.276 15.5 6.5 15.724 6.5 16 L 6.5 16.5 L 9.5 16.5 L 9.5 16 C 9.5 15.724 9.724 15.5 10 15.5 L 13 15.5 C 13.276 15.5 13.5 15.724 13.5 16 L 13.5 19 C 13.5 19.276 13.276 19.5 13 19.5 L 10 19.5 C 9.724 19.5 9.5 19.276 9.5 19 L 9.5 18.5 L 6.5 18.5 L 6.5 19 C 6.5 19.276 6.276 19.5 6 19.5 L 3 19.5 C 2.724 19.5 2.5 19.276 2.5 19 L 2.5 16 C 2.5 15.724 2.724 15.5 3 15.5 L 3.846 15.5 L 6.029 6.5 L 6 6.5 C 5.724 6.5 5.5 6.276 5.5 6 L 5.5 3 C 5.5 2.724 5.724 2.5 6 2.5 L 9 2.5 C 9.276 2.5 9.5 2.724 9.5 3 Z M 11 18 L 12 18 L 12 17 L 11 17 Z M 4 18 L 5 18 L 5 17 L 4 17 Z M 17 11 L 18 11 L 18 10 L 17 10 Z M 7 5 L 8 5 L 8 4 L 7 4 Z"/>
</svg>