<?xml version="1.0" encoding="utf-8"?>
<svg version="1.1" viewBox="0 0 22 22" xmlns="http://www.w3.org/2000/svg">
  <defs>
  </defs>
  <path class="ColorScheme-Text" d="M 5.248 3.138 L 18.248 10.566 C 18.404 10.655 18.5 10.82 18.5 11 C 18.5 11.179 18.404 11.345 18.248 11.434 L 5.248 18.862 L 4.248 19.434 C 4.093 19.522 3.903 19.522 3.749 19.432 C 3.595 19.343 3.5 19.178 3.5 19 L 3.5 3.009 C 3.499 2.963 3.504 2.917 3.516 2.871 C 3.532 2.812 3.558 2.757 3.593 2.709 C 3.635 2.65 3.689 2.602 3.749 2.567 C 3.809 2.532 3.877 2.51 3.949 2.502 C 4.008 2.496 4.069 2.501 4.128 2.517 C 4.174 2.529 4.216 2.547 4.256 2.57 L 5.248 3.138 Z M 5.5 5.455 L 5.5 16.41 L 14.977 10.995 L 5.5 5.455 Z"/>
</svg>