<?xml version="1.0" encoding="utf-8"?>
<svg version="1.1" viewBox="0 0 22 22" xmlns="http://www.w3.org/2000/svg">
  <defs>
  </defs>
  <path class="ColorScheme-Text" d="M 19.464 19.193 C 19.386 19.38 19.204 19.502 19.002 19.502 L 18.993 19.502 L 17.591 19.498 L 2.998 19.498 C 2.722 19.498 2.498 19.274 2.498 18.998 L 2.498 2.998 C 2.498 2.796 2.62 2.613 2.807 2.536 C 2.993 2.459 3.208 2.501 3.351 2.644 L 19.355 18.64 C 19.449 18.734 19.502 18.861 19.502 18.994 C 19.502 18.995 19.502 18.996 19.502 18.998 C 19.502 19.063 19.49 19.13 19.464 19.193 Z M 4.498 17.498 L 15.385 17.498 L 4.498 6.611 L 4.498 17.498 Z"/>
</svg>