<?xml version="1.0" encoding="utf-8"?>
<svg viewBox="0 0 22 22" xmlns="http://www.w3.org/2000/svg">
  <path d="M 19.354 7.354 L 11.354 15.354 C 11.158 15.549 10.842 15.549 10.646 15.354 L 6.646 11.354 C 6.451 11.158 6.451 10.842 6.646 10.646 L 14.646 2.646 C 14.842 2.451 15.158 2.451 15.354 2.646 L 19.354 6.646 C 19.549 6.842 19.549 7.158 19.354 7.354 Z M 9.354 17.354 L 7.354 19.354 C 7.158 19.549 6.842 19.549 6.646 19.354 L 2.646 15.354 C 2.451 15.158 2.451 14.842 2.646 14.646 L 4.646 12.646 C 4.842 12.451 5.158 12.451 5.354 12.646 L 9.354 16.646 C 9.549 16.842 9.549 17.158 9.354 17.354 Z"/>
</svg>