<?xml version="1.0" encoding="utf-8"?>
<svg version="1.1" viewBox="0 0 22 22" xmlns="http://www.w3.org/2000/svg">
  <defs>
  </defs>
  <path class="ColorScheme-Text" d="M 13.5 5 C 15.125 5.022 16.689 5.696 17.746 6.754 C 18.804 7.811 19.5 9.375 19.5 11 C 19.5 12.625 18.804 14.189 17.746 15.246 C 16.689 16.304 15.125 16.978 13.5 17 L 8.5 17 C 6.875 16.978 5.311 16.304 4.254 15.246 C 3.196 14.189 2.5 12.625 2.5 11 C 2.5 9.375 3.196 7.811 4.254 6.754 C 5.311 5.696 6.875 5.022 8.5 5 Z M 5.669 8.169 C 4.919 8.919 4.5 9.855 4.5 11 C 4.5 12.145 4.919 13.081 5.669 13.831 C 6.419 14.581 7.355 15.022 8.5 15 L 13.5 15 C 14.645 15.022 15.581 14.581 16.331 13.831 C 17.081 13.081 17.5 12.145 17.5 11 C 17.5 9.855 17.081 8.919 16.331 8.169 C 15.581 7.419 14.645 6.978 13.5 7 L 8.5 7 C 7.355 6.978 6.419 7.419 5.669 8.169 Z"/>
</svg>