<?xml version="1.0" encoding="utf-8"?>
<svg version="1.1" viewBox="0 0 22 22" xmlns="http://www.w3.org/2000/svg">
  <defs>
  </defs>
  <path class="ColorScheme-Text" d="M 15 2.5 C 15.276 2.5 15.5 2.724 15.5 3 L 15.5 5.5 C 15.478 5.814 15.584 6 15.792 6.208 C 16 6.416 16.186 6.522 16.5 6.5 L 19 6.5 C 19.276 6.5 19.5 6.724 19.5 7 L 19.5 15 C 19.5 15.276 19.276 15.5 19 15.5 L 16.5 15.5 C 16.186 15.478 16 15.584 15.792 15.792 C 15.584 16 15.478 16.186 15.5 16.5 L 15.5 19 C 15.5 19.276 15.276 19.5 15 19.5 L 7 19.5 C 6.724 19.5 6.5 19.276 6.5 19 L 6.5 16.5 C 6.522 16.186 6.416 16 6.208 15.792 C 6 15.584 5.814 15.478 5.5 15.5 L 3 15.5 C 2.724 15.5 2.5 15.276 2.5 15 L 2.5 7 C 2.5 6.724 2.724 6.5 3 6.5 L 5.5 6.5 C 5.814 6.522 6 6.416 6.208 6.208 C 6.416 6 6.522 5.814 6.5 5.5 L 6.5 3 C 6.5 2.724 6.724 2.5 7 2.5 L 15 2.5 Z M 8.5 5.5 C 8.478 6.294 8.138 7.108 7.623 7.623 C 7.108 8.138 6.294 8.478 5.5 8.5 L 4.5 8.5 L 4.5 13.5 L 5.5 13.5 C 6.294 13.522 7.108 13.862 7.623 14.377 C 8.138 14.892 8.478 15.706 8.5 16.5 L 8.5 17.5 L 13.5 17.5 L 13.5 16.5 C 13.522 15.706 13.862 14.892 14.377 14.377 C 14.892 13.862 15.706 13.522 16.5 13.5 L 17.5 13.5 L 17.5 8.5 L 16.5 8.5 C 15.706 8.478 14.892 8.138 14.377 7.623 C 13.862 7.108 13.522 6.294 13.5 5.5 L 13.5 4.5 L 8.5 4.5 L 8.5 5.5 Z"/>
</svg>