<?xml version="1.0" encoding="utf-8"?>
<svg version="1.1" viewBox="0 0 22 22" xmlns="http://www.w3.org/2000/svg">
  <defs>
  </defs>
  <path class="ColorScheme-Text" d="M 10.924 4.506 C 10.948 4.502 10.974 4.5 11 4.5 C 13.289 4.513 15.446 5.224 16.957 6.357 C 18.48 7.5 19.5 9.215 19.5 11 C 19.5 12.785 18.48 14.5 16.957 15.643 C 15.446 16.776 13.289 17.5 11 17.5 C 8.711 17.5 6.554 16.776 5.043 15.643 C 3.52 14.5 2.5 12.785 2.5 11 C 2.5 9.215 3.52 7.5 5.043 6.357 C 5.801 5.789 6.739 5.311 7.735 4.995 C 8.232 4.837 8.772 4.711 9.312 4.628 C 9.844 4.546 10.895 4.507 10.924 4.506 Z M 10.32 6.525 C 10.094 6.541 9.881 6.564 9.662 6.596 C 9.224 6.66 8.821 6.75 8.42 6.872 C 7.62 7.113 6.94 7.443 6.341 7.871 C 5.152 8.721 4.5 9.752 4.5 11 C 4.5 12.248 5.152 13.279 6.341 14.129 C 7.545 14.989 9.143 15.5 11 15.5 C 12.857 15.5 14.455 14.989 15.659 14.129 C 16.848 13.279 17.5 12.248 17.5 11 C 17.5 9.752 16.848 8.721 15.659 7.871 C 14.455 7.011 12.857 6.488 11 6.5 C 10.995 6.5 10.99 6.5 10.985 6.5 C 10.853 6.503 10.502 6.511 10.32 6.524 Z"/>
</svg>