<?xml version="1.0" encoding="utf-8"?>
<svg version="1.1" viewBox="0 0 22 22" xmlns="http://www.w3.org/2000/svg">
  <defs>
  </defs>
  <path class="ColorScheme-Text" d="M 1.568 3.253 C 1.546 3.214 1.528 3.172 1.516 3.127 C 1.5 3.068 1.496 3.007 1.502 2.948 C 1.51 2.875 1.533 2.807 1.568 2.748 C 1.603 2.688 1.651 2.634 1.71 2.592 C 1.759 2.558 1.814 2.532 1.873 2.516 C 1.918 2.504 1.963 2.499 2.009 2.5 L 20 2.5 C 20.177 2.5 20.342 2.594 20.431 2.748 C 20.521 2.901 20.523 3.091 20.435 3.245 L 19.792 4.388 L 11.435 19.245 C 11.347 19.402 11.18 19.5 11 19.5 C 10.819 19.5 10.652 19.402 10.564 19.245 L 2.208 4.388 L 1.568 3.253 Z M 10.995 15.676 L 17.2 4.643 L 4.646 4.643 L 10.995 15.676 Z"/>
</svg>