<?xml version="1.0" encoding="utf-8"?>
<svg viewBox="0 0 22 22" xmlns="http://www.w3.org/2000/svg">
  <path d="M 19.5 1 L 19.5 6 C 19.5 6.276 19.276 6.5 19 6.5 L 18 6.5 C 17.724 6.5 17.5 6.276 17.5 6 L 17.5 2.5 L 16.5 2.5 L 16.5 6 C 16.5 6.276 16.276 6.5 16 6.5 L 15 6.5 C 14.724 6.5 14.5 6.276 14.5 6 L 14.5 2.5 L 13.5 2.5 L 13.5 6 C 13.5 6.276 13.276 6.5 13 6.5 L 12 6.5 C 11.724 6.5 11.5 6.276 11.5 6 L 11.5 2.5 L 10.5 2.5 L 10.5 6 C 10.5 6.276 10.276 6.5 10 6.5 L 9 6.5 C 8.724 6.5 8.5 6.276 8.5 6 L 8.5 2.5 L 7.5 2.5 L 7.5 6 C 7.5 6.276 7.276 6.5 7 6.5 L 6 6.5 C 5.724 6.5 5.5 6.276 5.5 6 L 5.5 2.5 L 4.5 2.5 L 4.5 6 C 4.5 6.276 4.276 6.5 4 6.5 L 3 6.5 C 2.724 6.5 2.5 6.276 2.5 6 L 2.5 1 C 2.5 0.724 2.724 0.5 3 0.5 L 19 0.5 C 19.276 0.5 19.5 0.724 19.5 1 Z M 19.447 9.224 L 16.947 14.224 C 16.863 14.393 16.689 14.5 16.5 14.5 C 16.311 14.5 16.137 14.393 16.053 14.224 L 13.553 9.224 C 13.475 9.069 13.484 8.885 13.575 8.737 C 13.666 8.59 13.827 8.5 14 8.5 L 19 8.5 C 19.173 8.5 19.334 8.59 19.425 8.737 C 19.516 8.885 19.525 9.069 19.447 9.224 Z M 4.5 16 L 4.5 19.5 L 5.5 19.5 L 5.5 16 C 5.5 15.724 5.724 15.5 6 15.5 L 7 15.5 C 7.276 15.5 7.5 15.724 7.5 16 L 7.5 19.5 L 8.5 19.5 L 8.5 16 C 8.5 15.724 8.724 15.5 9 15.5 L 10 15.5 C 10.276 15.5 10.5 15.724 10.5 16 L 10.5 19.5 L 11.5 19.5 L 11.5 16 C 11.5 15.724 11.724 15.5 12 15.5 L 13 15.5 C 13.276 15.5 13.5 15.724 13.5 16 L 13.5 19.5 L 14.5 19.5 L 14.5 16 C 14.5 15.724 14.724 15.5 15 15.5 L 16 15.5 C 16.276 15.5 16.5 15.724 16.5 16 L 16.5 19.5 L 17.5 19.5 L 17.5 16 C 17.5 15.724 17.724 15.5 18 15.5 L 19 15.5 C 19.276 15.5 19.5 15.724 19.5 16 L 19.5 21 C 19.5 21.276 19.276 21.5 19 21.5 L 3 21.5 C 2.724 21.5 2.5 21.276 2.5 21 L 2.5 16 C 2.5 15.724 2.724 15.5 3 15.5 L 4 15.5 C 4.276 15.5 4.5 15.724 4.5 16 Z M 12.5 8 L 12.5 9 C 12.5 9.276 12.276 9.5 12 9.5 L 11.926 9.5 L 8.926 12.5 L 10.074 12.5 L 11.646 10.928 C 11.789 10.785 12.005 10.742 12.191 10.819 C 12.378 10.897 12.5 11.079 12.5 11.281 L 12.5 12.719 C 12.5 12.767 12.493 12.814 12.48 12.859 C 12.493 12.904 12.5 12.951 12.5 13 L 12.5 14 C 12.5 14.276 12.276 14.5 12 14.5 L 2 14.5 C 1.724 14.5 1.5 14.276 1.5 14 L 1.5 13 C 1.5 12.724 1.724 12.5 2 12.5 L 2.086 12.5 L 2.588 11.998 C 2.605 11.973 2.625 11.949 2.646 11.928 L 5.074 9.5 L 2 9.5 C 1.724 9.5 1.5 9.276 1.5 9 L 1.5 8 C 1.5 7.724 1.724 7.5 2 7.5 L 12 7.5 C 12.276 7.5 12.5 7.724 12.5 8 Z M 4.926 12.5 L 6.074 12.5 L 9.074 9.5 L 7.926 9.5 Z"/>
</svg>