<?xml version="1.0" encoding="utf-8"?>
<svg xmlns="http://www.w3.org/2000/svg" height="48" viewBox="0 -960 960 960" width="48">
  <path d="M 804.056 -666.63 C 827.38 -666.63 847.249 -658.51 863.663 -642.27 C 880.077 -626.03 888.284 -606.37 888.284 -583.29 L 888.284 -102.75 C 888.284 -79.42 880.077 -59.551 863.663 -43.14 C 847.249 -26.729 827.38 -18.519 804.056 -18.519 L 429.907 -18.519 C 406.825 -18.519 387.166 -26.729 370.929 -43.14 C 354.687 -59.551 346.565 -79.42 346.565 -102.75 L 346.565 -583.29 C 346.565 -606.37 354.687 -626.03 370.929 -642.27 C 387.166 -658.51 406.825 -666.63 429.907 -666.63 L 804.056 -666.63 Z M 429.907 -102.75 L 804.056 -102.75 L 804.056 -583.29 L 429.907 -583.29 L 429.907 -102.75 Z M 709.19 -804.06 C 720.864 -804.06 730.728 -800.07 738.785 -792.09 C 746.835 -784.11 750.86 -774.12 750.86 -762.1 C 750.86 -750.09 746.835 -740.03 738.785 -731.96 C 730.728 -723.87 720.864 -719.83 709.19 -719.83 L 293.369 -719.83 L 293.369 -197.61 C 293.369 -185.94 289.38 -176.08 281.4 -168.02 C 273.421 -159.97 263.426 -155.94 251.415 -155.94 C 239.399 -155.94 229.35 -159.97 221.27 -168.02 C 213.184 -176.08 209.142 -185.94 209.142 -197.61 L 209.142 -719.83 C 209.142 -743.15 217.349 -763.02 233.763 -779.43 C 250.176 -795.85 270.045 -804.06 293.369 -804.06 L 709.19 -804.06 Z M 571.764 -941.48 C 583.432 -941.48 593.291 -937.4 601.359 -929.42 C 609.41 -921.44 613.435 -911.51 613.435 -899.45 C 613.435 -887.4 609.41 -877.47 601.359 -869.31 C 593.291 -861.31 583.432 -857.25 571.764 -857.25 L 155.943 -857.25 L 155.943 -335.03 C 155.943 -323.33 151.953 -313.41 143.975 -305.43 C 135.994 -297.26 125.994 -293.37 113.989 -293.37 C 101.967 -293.37 91.913 -297.26 83.845 -305.43 C 75.759 -313.41 71.716 -323.33 71.716 -335.03 L 71.716 -857.25 C 71.716 -880.47 79.926 -900.33 96.328 -916.82 C 112.747 -933.14 132.608 -941.48 155.943 -941.48 L 571.764 -941.48 Z" style=""/>
</svg>