<?xml version="1.0" encoding="utf-8"?>
<svg xmlns="http://www.w3.org/2000/svg" height="48" viewBox="0 -960 960 960" width="48">
  <path d="M 479.82 -95 C 466.607 -95 455.5 -99.62 446.5 -108.86 C 437.5 -118.1 433 -129.1 433 -141.86 C 433 -154.62 437.56 -165.667 446.68 -175 C 455.793 -184.333 466.96 -189 480.18 -189 C 493.393 -189 504.5 -184.313 513.5 -174.94 C 522.5 -165.567 527 -154.4 527 -141.44 C 527 -128.48 522.44 -117.5 513.32 -108.5 C 504.207 -99.5 493.04 -95 479.82 -95 Z M 649.44 -95 C 636.48 -95 625.333 -99.62 616 -108.86 C 606.667 -118.1 602 -129.1 602 -141.86 C 602 -154.62 606.747 -165.667 616.24 -175 C 625.733 -184.333 637.047 -189 650.18 -189 C 663.027 -189 674.04 -184.313 683.22 -174.94 C 692.407 -165.567 697 -154.4 697 -141.44 C 697 -128.48 692.313 -117.5 682.94 -108.5 C 673.567 -99.5 662.4 -95 649.44 -95 Z M 817.82 -95 C 804.973 -95 793.96 -99.62 784.78 -108.86 C 775.593 -118.1 771 -129.1 771 -141.86 C 771 -154.62 775.687 -165.667 785.06 -175 C 794.433 -184.333 805.6 -189 818.56 -189 C 831.52 -189 842.667 -184.313 852 -174.94 C 861.333 -165.567 866 -154.4 866 -141.44 C 866 -128.48 861.253 -117.5 851.76 -108.5 C 842.267 -99.5 830.953 -95 817.82 -95 Z M 142 -95 C 128.833 -95 117.71 -99.56 108.63 -108.68 C 99.543 -117.793 95 -128.96 95 -142.18 C 95 -155.393 99.543 -166.5 108.63 -175.5 C 117.71 -184.5 128.833 -189 142 -189 L 180 -189 L 180 -771 L 142 -771 C 128.833 -771 117.71 -775.56 108.63 -784.68 C 99.543 -793.793 95 -804.93 95 -818.09 C 95 -831.243 99.543 -842.517 108.63 -851.91 C 117.71 -861.303 128.833 -866 142 -866 L 311 -866 C 324.167 -866 335.293 -861.247 344.38 -851.74 C 353.46 -842.227 358 -830.893 358 -817.74 C 358 -804.58 353.46 -793.5 344.38 -784.5 C 335.293 -775.5 324.167 -771 311 -771 L 274 -771 L 274 -189 L 311 -189 C 324.167 -189 335.293 -184.44 344.38 -175.32 C 353.46 -166.207 358 -155.04 358 -141.82 C 358 -128.607 353.46 -117.5 344.38 -108.5 C 335.293 -99.5 324.167 -95 311 -95 Z M 521.747 -257.68 C 495.36 -257.68 472.864 -266.92 454.303 -285.37 C 435.721 -304.04 426.431 -326.51 426.431 -353 L 426.431 -770.68 C 426.431 -796.98 435.721 -819.43 454.303 -838.1 C 472.864 -856.57 495.36 -866 521.747 -866 L 770.678 -866 C 797.086 -866 819.565 -856.57 838.147 -838.1 C 856.698 -819.43 866 -796.98 866 -770.68 L 866 -353 C 866 -326.51 856.698 -304.04 838.147 -285.37 C 819.565 -266.92 797.086 -257.68 770.678 -257.68 Z M 521.747 -353 L 770.678 -353 L 770.678 -770.68 L 521.747 -770.68 Z"/>
</svg>