<?xml version="1.0" encoding="utf-8"?>
<svg viewBox="0 0 22 22" xmlns="http://www.w3.org/2000/svg">
  <path d="M 20 20.5 L 1 20.5 C 0.724 20.5 0.5 20.276 0.5 20 L 0.5 4 C 0.5 3.724 0.724 3.5 1 3.5 L 2 3.5 C 2.276 3.5 2.5 3.724 2.5 4 L 2.5 13.5 L 4.5 13.5 L 4.5 10 C 4.5 9.724 4.724 9.5 5 9.5 L 6 9.5 C 6.276 9.5 6.5 9.724 6.5 10 L 6.5 13.5 L 8.5 13.5 L 8.5 10 C 8.5 9.724 8.724 9.5 9 9.5 L 10 9.5 C 10.276 9.5 10.5 9.724 10.5 10 L 10.5 13.5 L 12.5 13.5 L 12.5 4 C 12.5 3.724 12.724 3.5 13 3.5 L 14 3.5 C 14.276 3.5 14.5 3.724 14.5 4 L 14.5 13.5 L 15.5 13.5 L 15.5 10 C 15.5 9.724 15.724 9.5 16 9.5 L 17 9.5 C 17.276 9.5 17.5 9.724 17.5 10 L 17.5 13.5 L 18.5 13.5 L 18.5 10 C 18.5 9.724 18.724 9.5 19 9.5 L 20 9.5 C 20.276 9.5 20.5 9.724 20.5 10 L 20.5 20 C 20.5 20.276 20.276 20.5 20 20.5 Z M 2.5 18.5 L 4.5 18.5 L 4.5 15.5 L 2.5 15.5 Z M 6.5 18.5 L 8.5 18.5 L 8.5 15.5 L 6.5 15.5 Z M 10.5 18.5 L 12.5 18.5 L 12.5 15.5 L 10.5 15.5 Z M 14.5 18.5 L 15.5 18.5 L 15.5 15.5 L 14.5 15.5 Z M 17.5 18.5 L 18.5 18.5 L 18.5 15.5 L 17.5 15.5 Z M 21.425 8.263 C 21.334 8.41 21.173 8.5 21 8.5 L 16 8.5 C 15.827 8.5 15.666 8.41 15.575 8.263 C 15.484 8.115 15.475 7.931 15.553 7.776 L 18.053 2.776 C 18.137 2.607 18.311 2.5 18.5 2.5 C 18.689 2.5 18.863 2.607 18.947 2.776 L 21.447 7.776 C 21.525 7.931 21.516 8.115 21.425 8.263 Z M 2.87 8 L 2.87 7 C 2.87 6.724 3.094 6.5 3.37 6.5 L 6.456 6.5 L 3.456 3.5 L 3.37 3.5 C 3.094 3.5 2.87 3.276 2.87 3 L 2.87 2 C 2.87 1.724 3.094 1.5 3.37 1.5 L 11.37 1.5 C 11.646 1.5 11.87 1.724 11.87 2 L 11.87 3 C 11.87 3.276 11.646 3.5 11.37 3.5 L 10.284 3.5 L 11.724 4.939 C 11.817 5.033 11.87 5.16 11.87 5.293 L 11.87 6.707 C 11.87 6.757 11.862 6.807 11.848 6.853 C 11.862 6.9 11.87 6.949 11.87 7 L 11.87 8 C 11.87 8.276 11.646 8.5 11.37 8.5 L 3.37 8.5 C 3.094 8.5 2.87 8.276 2.87 8 Z M 10.456 6.5 L 7.456 3.5 L 6.284 3.5 L 9.284 6.5 Z"/>
</svg>