<?xml version="1.0" encoding="utf-8"?>
<svg xmlns="http://www.w3.org/2000/svg" height="48" viewBox="0 -960 960 960" width="48">
  <path d="M 189 -95 C 162.967 -95 140.79 -104.157 122.47 -122.47 C 104.157 -140.79 95 -162.967 95 -189 L 95 -305 C 95 -318.167 99.56 -329.293 108.68 -338.38 C 117.793 -347.46 128.96 -352 142.18 -352 C 155.393 -352 166.5 -347.46 175.5 -338.38 C 184.5 -329.293 189 -318.167 189 -305 L 189 -189 L 305 -189 C 318.167 -189 329.293 -184.44 338.38 -175.32 C 347.46 -166.207 352 -155.04 352 -141.82 C 352 -128.607 347.46 -117.5 338.38 -108.5 C 329.293 -99.5 318.167 -95 305 -95 Z M 475.579 -630.5 C 466.964 -630.5 461.579 -629.37 455.155 -625.37 C 447.912 -621.19 444.003 -618.14 438.945 -611.06 C 432.456 -601.74 421.416 -593.14 410.346 -589.1 C 398.602 -585.98 384.98 -587.14 374.706 -591.5 C 363.225 -596.46 352.731 -605.87 347.854 -617.25 C 345.364 -623.04 343.884 -631.15 344.384 -637.14 C 344.891 -643.19 347.459 -650.02 350.775 -655.31 C 363.775 -676.54 382.448 -694.89 403.665 -707.33 C 425.194 -719.33 450.686 -726.33 475.857 -726.33 C 511.931 -726.33 546.323 -712.97 573.386 -689.76 C 599.886 -665.28 615.713 -631.7 615.713 -595.94 C 615.713 -585.32 614.157 -573.94 611.609 -564.21 C 608.772 -554.45 603.387 -543.3 597.267 -534.24 C 585.861 -518.88 572.659 -504.58 558.745 -492.72 C 546.634 -482.39 536.969 -470.3 529.345 -456.07 C 528.792 -455.75 528.2 -453.44 526.071 -444.82 C 523.55 -433.63 517.605 -421.78 510.349 -413.48 C 501.697 -405.23 488.017 -398.49 475.579 -398.49 C 462.375 -398.49 447.973 -405.14 438.653 -413.99 C 430.649 -423.69 425.727 -438.33 426.031 -450.78 C 426.9 -458.3 428.259 -465.86 429.91 -472.49 C 431.886 -480.01 435.318 -488.33 439.629 -495.66 C 449.22 -512.1 462.693 -527.62 477.872 -539.49 C 490.844 -549.56 501.515 -560.74 510.968 -573.98 C 511.665 -573.88 513.01 -580.53 516.513 -596.68 C 517.319 -607.89 514.213 -611.67 504.581 -619.33 C 495.604 -628.13 487.831 -630.5 475.579 -630.5 Z M 475.695 -233.67 C 459.963 -233.67 443.176 -241.28 431.579 -251.64 C 420.818 -263.23 413.163 -280 413.163 -296.07 C 413.163 -311.13 420.934 -327.48 431.563 -339.12 C 443.208 -349.78 459.938 -357.34 475.648 -357.34 C 491.42 -357.34 508.222 -349.44 519.548 -338.66 C 529.676 -326.98 536.836 -310.68 536.836 -295.63 C 536.836 -280.32 529.645 -264.05 519.514 -252.52 C 508.116 -241.42 491.46 -233.67 475.695 -233.67 Z M 771 -655 L 771 -771 L 655 -771 C 641.833 -771 630.71 -775.56 621.63 -784.68 C 612.543 -793.793 608 -804.93 608 -818.09 C 608 -831.243 612.543 -842.517 621.63 -851.91 C 630.71 -861.303 641.833 -866 655 -866 L 771 -866 C 797.307 -866 819.717 -856.743 838.23 -838.23 C 856.743 -819.717 866 -797.307 866 -771 L 866 -655 C 866 -641.833 861.247 -630.71 851.74 -621.63 C 842.227 -612.543 830.893 -608 817.74 -608 C 804.58 -608 793.5 -612.543 784.5 -621.63 C 775.5 -630.71 771 -641.833 771 -655 Z M 95 -655 L 95 -771 C 95 -797.307 104.157 -819.717 122.47 -838.23 C 140.79 -856.743 162.967 -866 189 -866 L 305 -866 C 318.167 -866 329.293 -861.247 338.38 -851.74 C 347.46 -842.227 352 -830.893 352 -817.74 C 352 -804.58 347.46 -793.5 338.38 -784.5 C 329.293 -775.5 318.167 -771 305 -771 L 189 -771 L 189 -655 C 189 -641.833 184.44 -630.71 175.32 -621.63 C 166.207 -612.543 155.04 -608 141.82 -608 C 128.607 -608 117.5 -612.543 108.5 -621.63 C 99.5 -630.71 95 -641.833 95 -655 Z M 771 -95 L 655 -95 C 641.833 -95 630.71 -99.56 621.63 -108.68 C 612.543 -117.793 608 -128.96 608 -142.18 C 608 -155.393 612.543 -166.5 621.63 -175.5 C 630.71 -184.5 641.833 -189 655 -189 L 771 -189 L 771 -305 C 771 -318.167 775.56 -329.293 784.68 -338.38 C 793.793 -347.46 804.93 -352 818.09 -352 C 831.243 -352 842.517 -347.46 851.91 -338.38 C 861.303 -329.293 866 -318.167 866 -305 L 866 -189 C 866 -162.967 856.743 -140.79 838.23 -122.47 C 819.717 -104.157 797.307 -95 771 -95 Z"/>
</svg>