<?xml version="1.0" encoding="utf-8"?>
<svg xmlns="http://www.w3.org/2000/svg" height="48" viewBox="0 -960 960 960" width="48">
  <path d="M 189 -95 C 162.967 -95 140.79 -104.157 122.47 -122.47 C 104.157 -140.79 95 -162.967 95 -189 L 95 -305 C 95 -318.167 99.56 -329.293 108.68 -338.38 C 117.793 -347.46 128.96 -352 142.18 -352 C 155.393 -352 166.5 -347.46 175.5 -338.38 C 184.5 -329.293 189 -318.167 189 -305 L 189 -189 L 305 -189 C 318.167 -189 329.293 -184.44 338.38 -175.32 C 347.46 -166.207 352 -155.04 352 -141.82 C 352 -128.607 347.46 -117.5 338.38 -108.5 C 329.293 -99.5 318.167 -95 305 -95 Z M 771 -655 L 771 -771 L 655 -771 C 641.833 -771 630.71 -775.56 621.63 -784.68 C 612.543 -793.793 608 -804.93 608 -818.09 C 608 -831.243 612.543 -842.517 621.63 -851.91 C 630.71 -861.303 641.833 -866 655 -866 L 771 -866 C 797.307 -866 819.717 -856.743 838.23 -838.23 C 856.743 -819.717 866 -797.307 866 -771 L 866 -655 C 866 -641.833 861.247 -630.71 851.74 -621.63 C 842.227 -612.543 830.893 -608 817.74 -608 C 804.58 -608 793.5 -612.543 784.5 -621.63 C 775.5 -630.71 771 -641.833 771 -655 Z M 95 -655 L 95 -771 C 95 -797.307 104.157 -819.717 122.47 -838.23 C 140.79 -856.743 162.967 -866 189 -866 L 305 -866 C 318.167 -866 329.293 -861.247 338.38 -851.74 C 347.46 -842.227 352 -830.893 352 -817.74 C 352 -804.58 347.46 -793.5 338.38 -784.5 C 329.293 -775.5 318.167 -771 305 -771 L 189 -771 L 189 -655 C 189 -641.833 184.44 -630.71 175.32 -621.63 C 166.207 -612.543 155.04 -608 141.82 -608 C 128.607 -608 117.5 -612.543 108.5 -621.63 C 99.5 -630.71 95 -641.833 95 -655 Z M 771 -95 L 655 -95 C 641.833 -95 630.71 -99.56 621.63 -108.68 C 612.543 -117.793 608 -128.96 608 -142.18 C 608 -155.393 612.543 -166.5 621.63 -175.5 C 630.71 -184.5 641.833 -189 655 -189 L 771 -189 L 771 -305 C 771 -318.167 775.56 -329.293 784.68 -338.38 C 793.793 -347.46 804.93 -352 818.09 -352 C 831.243 -352 842.517 -347.46 851.91 -338.38 C 861.303 -329.293 866 -318.167 866 -305 L 866 -189 C 866 -162.967 856.743 -140.79 838.23 -122.47 C 819.717 -104.157 797.307 -95 771 -95 Z M 419.064 -355.19 C 400.427 -363.901 383.764 -377.6 371.09 -394.771 C 365.884 -402.874 364.262 -413.945 366.884 -423.122 C 368.625 -427.458 371.759 -432.42 375.099 -435.075 C 378.582 -437.843 384.563 -439.84 389.179 -439.84 C 394.478 -439.84 400.935 -437.756 405.725 -434.907 C 409.67 -432.353 413.975 -428.515 416.82 -425.34 C 424.305 -415.32 432.72 -408.998 444.168 -404.859 C 455.941 -400.153 467.298 -398.16 480.163 -398.16 C 492.928 -398.16 504.093 -400.303 515.694 -405.311 C 527.185 -410.005 535.719 -416.462 543.336 -426.116 L 543.691 -426.566 L 544.139 -427.001 C 547.256 -430.021 551.315 -433.189 554.961 -435.5 C 559.353 -437.886 565.651 -439.84 571.181 -439.84 C 579.879 -439.84 588.917 -433.166 593.599 -425.354 C 595.484 -421.212 596.852 -415.567 596.473 -411.314 C 596.091 -407.033 594.067 -402.228 591.441 -398.544 C 578.95 -380.501 561.953 -365.854 542.544 -356.409 C 523.177 -347.342 501.388 -342.42 479.421 -342.42 C 458.489 -342.42 437.615 -346.971 419.064 -355.19 Z M 528.94 -509.862 C 521.257 -518.441 516.104 -530.175 516.104 -541.65 C 516.104 -553.12 521.318 -564.998 529.096 -573.449 C 537.407 -581.399 549.107 -586.89 560.47 -586.89 C 572.157 -586.89 584.114 -581.458 592.63 -573.523 C 600.623 -564.986 605.995 -553.05 605.995 -541.65 C 605.995 -530.117 600.587 -518.264 592.63 -509.677 C 584.063 -501.698 572.204 -496.42 560.76 -496.42 C 549.218 -496.42 537.322 -501.825 528.94 -509.862 Z M 366.725 -509.732 C 358.768 -518.323 353.427 -530.123 353.427 -541.65 C 353.427 -553.044 358.797 -564.992 366.79 -573.534 C 375.287 -581.46 387.141 -586.89 398.661 -586.89 C 410.258 -586.89 422.105 -581.377 430.415 -573.394 C 438.134 -564.87 443.318 -552.998 443.318 -541.54 C 443.318 -530.056 438.1 -518.274 430.344 -509.781 C 421.963 -501.768 410.252 -496.42 398.951 -496.42 C 387.317 -496.42 375.312 -501.744 366.725 -509.732 Z M 479.791 -223.17 C 444.749 -223.17 410.723 -230.061 379.786 -243.109 C 349.006 -256.315 321.207 -274.915 298.028 -298.029 C 274.988 -321.168 256.318 -348.992 243.115 -379.61 C 230.058 -410.505 223.169 -444.535 223.169 -479.6 C 223.169 -514.656 230.059 -548.677 243.115 -579.59 C 256.319 -610.311 274.972 -638.15 297.933 -661.39 C 321.026 -684.376 348.763 -703.181 379.511 -716.517 C 410.439 -729.813 444.488 -736.83 479.584 -736.83 C 514.667 -736.83 548.74 -729.82 579.732 -716.639 C 610.559 -703.312 638.364 -684.493 661.502 -661.51 C 684.528 -638.388 703.272 -610.583 716.638 -579.85 C 729.85 -548.945 736.832 -514.785 736.832 -479.71 C 736.832 -444.52 729.836 -410.467 716.599 -379.564 C 703.222 -348.841 684.454 -321.028 661.404 -297.906 C 638.212 -274.909 610.429 -256.316 579.721 -243.111 C 548.829 -230.062 514.836 -223.17 479.791 -223.17 Z M 479.71 -298.58 C 531.123 -298.58 572.706 -315.181 608.149 -351.195 C 644.17 -386.647 660.834 -428.214 660.834 -479.71 C 660.834 -531.095 644.171 -572.653 608.149 -608.095 C 572.696 -644.122 531.112 -660.84 479.71 -660.84 C 428.299 -660.84 386.728 -644.123 351.262 -608.094 C 315.239 -572.654 298.588 -531.096 298.588 -479.71 C 298.588 -428.213 315.239 -386.645 351.263 -351.194 C 386.719 -315.18 428.288 -298.58 479.71 -298.58 Z"/>
</svg>