<?xml version="1.0" encoding="utf-8"?>
<svg xmlns="http://www.w3.org/2000/svg" height="48" viewBox="0 -960 960 960" width="48">
  <path d="M 375.708 -445.92 C 364.527 -445.92 355.173 -449.74 347.647 -457.37 C 340.12 -465 336.357 -474.41 336.357 -485.6 C 336.357 -496.78 340.174 -506.13 347.809 -513.66 C 355.439 -521.18 364.847 -524.95 376.033 -524.95 C 387.215 -524.95 396.568 -521.13 404.095 -513.5 C 411.621 -505.87 415.384 -496.46 415.384 -485.27 C 415.384 -474.09 411.567 -464.74 403.932 -457.21 C 396.303 -449.68 386.894 -445.92 375.708 -445.92 Z M 548.58 -445.92 C 537.399 -445.92 528.045 -449.74 520.519 -457.37 C 512.992 -465 509.229 -474.41 509.229 -485.6 C 509.229 -496.78 513.046 -506.13 520.681 -513.66 C 528.31 -521.18 537.719 -524.95 548.905 -524.95 C 560.086 -524.95 569.558 -521.13 577.319 -513.5 C 585.081 -505.87 588.962 -496.46 588.962 -485.27 C 588.962 -474.09 585.027 -464.74 577.157 -457.21 C 569.292 -449.68 559.766 -445.92 548.58 -445.92 Z M 462.568 -215.9 C 421.097 -215.9 382.17 -223.77 345.784 -239.53 C 309.394 -255.29 277.545 -276.74 250.239 -303.88 C 222.932 -331.03 201.411 -362.77 185.676 -399.12 C 169.941 -435.46 162.074 -474.34 162.074 -515.76 C 162.074 -557.16 169.922 -596.12 185.62 -632.64 C 201.317 -669.15 222.786 -701.04 250.027 -728.31 C 277.268 -755.58 309.126 -777.08 345.6 -792.79 C 382.075 -808.5 421.095 -816.36 462.659 -816.36 C 504.214 -816.36 543.23 -808.51 579.704 -792.81 C 616.179 -777.12 647.922 -755.64 674.932 -728.4 C 701.942 -701.15 723.296 -669.29 738.993 -632.82 C 754.691 -596.35 762.539 -557.33 762.539 -515.77 C 762.539 -474.31 754.684 -435.38 738.972 -398.99 C 723.256 -362.6 701.879 -330.82 674.84 -303.64 C 647.807 -276.46 616.033 -255.04 579.521 -239.38 C 543.008 -223.73 504.024 -215.9 462.568 -215.9 Z M 461.643 -282.22 C 526.765 -282.22 582.141 -304.79 627.77 -349.92 C 673.399 -395.04 696.213 -450.03 696.213 -514.89 C 696.213 -581.33 673.72 -637.02 628.736 -681.94 C 583.747 -726.87 528.193 -749.33 462.074 -749.33 C 396.462 -749.33 341.231 -726.91 296.378 -682.08 C 251.53 -637.24 229.106 -581.57 229.106 -515.07 C 229.106 -450.16 251.706 -395.13 296.907 -349.97 C 342.108 -304.8 397.02 -282.22 461.643 -282.22 Z M 679.598 -151.69 C 668.514 -151.69 658.963 -155.52 650.942 -163.67 C 642.923 -171.56 638.901 -181.14 638.901 -192.62 C 638.901 -203.88 642.923 -213.7 650.942 -221.83 C 658.963 -230.21 668.514 -234.28 679.598 -234.28 L 737.053 -234.28 L 737.053 -290.53 C 737.053 -301.79 740.859 -311.84 748.425 -319.99 C 756.014 -328.13 765.709 -332.44 777.536 -332.44 C 789.026 -332.44 798.913 -328.13 807.22 -319.99 C 815.503 -311.84 819.645 -301.79 819.645 -290.53 L 819.645 -234.28 L 875.903 -234.28 C 887.011 -234.28 896.563 -230.21 904.583 -222.08 C 912.602 -213.93 916.601 -204.12 916.601 -192.62 C 916.601 -181.37 912.602 -171.8 904.583 -163.67 C 896.563 -155.76 887.011 -151.69 875.903 -151.69 L 819.645 -151.69 L 819.645 -95.438 C 819.645 -83.938 815.671 -74.128 807.675 -65.758 C 799.704 -57.618 789.792 -53.538 777.966 -53.538 C 766.14 -53.538 756.373 -57.618 748.64 -65.758 C 740.932 -74.128 737.053 -83.938 737.053 -95.438 L 737.053 -151.69 L 679.598 -151.69 Z" style=""/>
</svg>