<?xml version="1.0" encoding="utf-8"?>
<svg viewBox="0 0 22 22" xmlns="http://www.w3.org/2000/svg">
  <path d="m3 3v1 14 1h15 1v-16h-1zm1 1h2v3 1h-1.0996094-.9003906zm3 0h1 1 1 2 1 1 1v3 1h-1v1h1v4h-1v1h1v4h-1-1-1-2-1-1-1v-4h1v-1h-1v-4h1v-1h-1v-1zm9 0h2v4h-1-1v-1zm-12 5h2v4h-2zm12 0h1 1v4h-1-1zm-12 5h2v4h-2zm12 0h1 1v4h-2v-3z"/>
  <path d="M 19.5 3 L 19.5 19 C 19.5 19.276 19.276 19.5 19 19.5 L 3 19.5 C 2.724 19.5 2.5 19.276 2.5 19 L 2.5 3 C 2.5 2.724 2.724 2.5 3 2.5 L 19 2.5 C 19.276 2.5 19.5 2.724 19.5 3 Z M 3.5 3.5 L 3.5 4 C 3.5 3.724 3.724 3.5 4 3.5 Z M 3.5 18.5 L 4 18.5 C 3.724 18.5 3.5 18.276 3.5 18 Z M 7 18.5 C 6.724 18.5 6.5 18.276 6.5 18 C 6.5 18.276 6.276 18.5 6 18.5 Z M 7 13.5 C 6.724 13.5 6.5 13.276 6.5 13 C 6.5 13.276 6.276 13.5 6 13.5 C 6.276 13.5 6.5 13.724 6.5 14 C 6.5 13.724 6.724 13.5 7 13.5 Z M 3.5 14 C 3.5 13.724 3.724 13.5 4 13.5 C 3.724 13.5 3.5 13.276 3.5 13 Z M 7 8.5 C 6.724 8.5 6.5 8.276 6.5 8 C 6.5 8.276 6.276 8.5 6 8.5 C 6.276 8.5 6.5 8.724 6.5 9 C 6.5 8.724 6.724 8.5 7 8.5 Z M 3.5 9 C 3.5 8.724 3.724 8.5 4 8.5 C 3.724 8.5 3.5 8.276 3.5 8 Z M 18.5 18.5 L 18.5 18 C 18.5 18.276 18.276 18.5 18 18.5 Z M 18.5 13 C 18.5 13.276 18.276 13.5 18 13.5 C 18.276 13.5 18.5 13.724 18.5 14 Z M 15.5 13 C 15.5 13.276 15.276 13.5 15 13.5 C 15.276 13.5 15.5 13.724 15.5 14 C 15.5 13.724 15.724 13.5 16 13.5 C 15.724 13.5 15.5 13.276 15.5 13 Z M 15 18.5 L 16 18.5 C 15.724 18.5 15.5 18.276 15.5 18 C 15.5 18.276 15.276 18.5 15 18.5 Z M 18.5 8 C 18.5 8.276 18.276 8.5 18 8.5 C 18.276 8.5 18.5 8.724 18.5 9 Z M 15.5 8 C 15.5 8.276 15.276 8.5 15 8.5 C 15.276 8.5 15.5 8.724 15.5 9 C 15.5 8.724 15.724 8.5 16 8.5 C 15.724 8.5 15.5 8.276 15.5 8 Z M 15.5 9 C 15.5 9 15.5 9 15.5 9 C 15.5 9 15.5 9 15.5 9 Z M 18.5 3.5 L 18 3.5 C 18.276 3.5 18.5 3.724 18.5 4 Z M 15 3.5 C 15.276 3.5 15.5 3.724 15.5 4 C 15.5 3.724 15.724 3.5 16 3.5 Z M 6 3.5 C 6.276 3.5 6.5 3.724 6.5 4 C 6.5 3.724 6.724 3.5 7 3.5 Z M 4.5 7.5 L 5.5 7.5 L 5.5 4.5 L 4.5 4.5 Z M 16.5 7.5 L 17.5 7.5 L 17.5 4.5 L 16.5 4.5 Z M 4.5 12.5 L 5.5 12.5 L 5.5 9.5 L 4.5 9.5 Z M 16.5 12.5 L 17.5 12.5 L 17.5 9.5 L 16.5 9.5 Z M 4.5 17.5 L 5.5 17.5 L 5.5 14.5 L 4.5 14.5 Z M 16.5 17.5 L 17.5 17.5 L 17.5 14.5 L 16.5 14.5 Z M 12.5 14.914 L 9.914 17.5 L 12.5 17.5 Z M 9.5 7.086 L 12.086 4.5 L 9.5 4.5 Z M 13.354 4.647 L 12.654 5.346 C 12.797 5.209 13.008 5.169 13.191 5.245 C 13.378 5.322 13.5 5.505 13.5 5.707 L 13.5 4.5 L 13.455 4.5 C 13.431 4.554 13.396 4.604 13.354 4.647 Z M 8.809 8.755 C 8.622 8.678 8.5 8.495 8.5 8.293 L 8.5 9.707 C 8.5 9.574 8.553 9.447 8.646 9.353 L 9.346 8.654 C 9.203 8.791 8.992 8.831 8.809 8.755 Z M 8.646 13.353 L 9.346 12.654 C 9.203 12.791 8.992 12.831 8.809 12.755 C 8.622 12.678 8.5 12.495 8.5 12.293 L 8.5 13.707 C 8.5 13.574 8.553 13.447 8.646 13.353 Z M 13.191 9.245 C 13.378 9.322 13.5 9.505 13.5 9.707 L 13.5 8.293 C 13.5 8.426 13.447 8.553 13.354 8.647 L 12.654 9.346 C 12.797 9.209 13.008 9.169 13.191 9.245 Z M 8.646 17.353 L 9.346 16.654 C 9.203 16.791 8.992 16.831 8.809 16.755 C 8.622 16.678 8.5 16.495 8.5 16.293 L 8.5 17.5 L 8.545 17.5 C 8.569 17.446 8.604 17.396 8.646 17.353 Z M 13.191 13.245 C 13.378 13.322 13.5 13.505 13.5 13.707 L 13.5 12.293 C 13.5 12.426 13.447 12.553 13.354 12.647 L 12.654 13.346 C 12.797 13.209 13.008 13.169 13.191 13.245 Z M 12.5 12.086 L 12.5 10.914 L 9.5 13.914 L 9.5 15.086 Z M 12.5 8.086 L 12.5 6.914 L 9.5 9.914 L 9.5 11.086 Z"/>
  <path d="m14 18v-5.29297-4-4-.70703h-.70703-.29297v.29297l-4 4v-4.29297h-1v14h1v-.29297l4-4v4.29297zm-5-1.70703v-2.58594l4-4v2.58594zm0-4v-2.58594l4-4v2.58594z"/>
</svg>