<?xml version="1.0" encoding="utf-8"?>
<svg xmlns="http://www.w3.org/2000/svg" height="48" viewBox="0 -960 960 960" width="48">
  <path d="M 189 -95 C 162.967 -95 140.79 -104.157 122.47 -122.47 C 104.157 -140.79 95 -162.967 95 -189 L 95 -305 C 95 -318.167 99.56 -329.293 108.68 -338.38 C 117.793 -347.46 128.96 -352 142.18 -352 C 155.393 -352 166.5 -347.46 175.5 -338.38 C 184.5 -329.293 189 -318.167 189 -305 L 189 -189 L 305 -189 C 318.167 -189 329.293 -184.44 338.38 -175.32 C 347.46 -166.207 352 -155.04 352 -141.82 C 352 -128.607 347.46 -117.5 338.38 -108.5 C 329.293 -99.5 318.167 -95 305 -95 Z M 771 -95 L 655 -95 C 641.833 -95 630.71 -99.56 621.63 -108.68 C 612.543 -117.793 608 -128.96 608 -142.18 C 608 -155.393 612.543 -166.5 621.63 -175.5 C 630.71 -184.5 641.833 -189 655 -189 L 771 -189 L 771 -305 C 771 -318.167 775.56 -329.293 784.68 -338.38 C 793.793 -347.46 804.93 -352 818.09 -352 C 831.243 -352 842.517 -347.46 851.91 -338.38 C 861.303 -329.293 866 -318.167 866 -305 L 866 -189 C 866 -162.967 856.743 -140.79 838.23 -122.47 C 819.717 -104.157 797.307 -95 771 -95 Z M 95 -655 L 95 -771 C 95 -797.307 104.157 -819.717 122.47 -838.23 C 140.79 -856.743 162.967 -866 189 -866 L 305 -866 C 318.167 -866 329.293 -861.247 338.38 -851.74 C 347.46 -842.227 352 -830.893 352 -817.74 C 352 -804.58 347.46 -793.5 338.38 -784.5 C 329.293 -775.5 318.167 -771 305 -771 L 189 -771 L 189 -655 C 189 -641.833 184.44 -630.71 175.32 -621.63 C 166.207 -612.543 155.04 -608 141.82 -608 C 128.607 -608 117.5 -612.543 108.5 -621.63 C 99.5 -630.71 95 -641.833 95 -655 Z M 771 -655 L 771 -771 L 655 -771 C 641.833 -771 630.71 -775.56 621.63 -784.68 C 612.543 -793.793 608 -804.93 608 -818.09 C 608 -831.243 612.543 -842.517 621.63 -851.91 C 630.71 -861.303 641.833 -866 655 -866 L 771 -866 C 797.307 -866 819.717 -856.743 838.23 -838.23 C 856.743 -819.717 866 -797.307 866 -771 L 866 -655 C 866 -641.833 861.247 -630.71 851.74 -621.63 C 842.227 -612.543 830.893 -608 817.74 -608 C 804.58 -608 793.5 -612.543 784.5 -621.63 C 775.5 -630.71 771 -641.833 771 -655 Z M 247.72 -383.13 C 237.48 -383.13 228.812 -386.69 221.746 -393.85 C 214.681 -400.86 211.148 -409.57 211.148 -419.85 C 211.148 -430.13 214.681 -438.82 221.746 -445.83 C 228.812 -452.83 237.48 -456.26 247.72 -456.26 L 509.96 -456.26 C 520.2 -456.26 528.869 -452.83 535.934 -445.68 C 543 -438.5 546.532 -429.81 546.532 -419.52 C 546.532 -409.27 543 -400.69 535.934 -393.69 C 528.869 -386.69 520.2 -383.13 509.96 -383.13 Z M 247.72 -502.95 C 237.48 -502.95 228.812 -506.51 221.746 -513.67 C 214.681 -520.7 211.148 -529.4 211.148 -539.67 C 211.148 -549.95 214.681 -558.82 221.746 -565.99 C 228.812 -573.29 237.48 -576.88 247.72 -576.88 L 711.501 -576.88 C 721.742 -576.88 730.535 -573.29 737.865 -565.84 C 745.195 -558.5 748.852 -549.79 748.852 -539.38 C 748.852 -529.11 745.195 -520.53 737.865 -513.53 C 730.535 -506.51 721.742 -502.95 711.501 -502.95 Z"/>
</svg>