<?xml version="1.0" encoding="utf-8"?>
<svg viewBox="0 0 22 22" xmlns="http://www.w3.org/2000/svg">
  <path d="M 7.5 2 L 7.5 3 C 7.5 3.276 7.276 3.5 7 3.5 L 3.5 3.5 L 3.5 7 C 3.5 7.276 3.276 7.5 3 7.5 L 2 7.5 C 1.724 7.5 1.5 7.276 1.5 7 L 1.5 2 C 1.5 1.724 1.724 1.5 2 1.5 L 7 1.5 C 7.276 1.5 7.5 1.724 7.5 2 Z M 20.5 2 L 20.5 7 C 20.5 7.276 20.276 7.5 20 7.5 L 19 7.5 C 18.724 7.5 18.5 7.276 18.5 7 L 18.5 3.5 L 15 3.5 C 14.724 3.5 14.5 3.276 14.5 3 L 14.5 2 C 14.5 1.724 14.724 1.5 15 1.5 L 20 1.5 C 20.276 1.5 20.5 1.724 20.5 2 Z M 10.5 5 L 10.5 10 C 10.5 10.276 10.276 10.5 10 10.5 L 5 10.5 C 4.724 10.5 4.5 10.276 4.5 10 L 4.5 5 C 4.5 4.724 4.724 4.5 5 4.5 L 10 4.5 C 10.276 4.5 10.5 4.724 10.5 5 Z M 17.5 5 L 17.5 10 C 17.5 10.276 17.276 10.5 17 10.5 L 12 10.5 C 11.724 10.5 11.5 10.276 11.5 10 L 11.5 5 C 11.5 4.724 11.724 4.5 12 4.5 L 17 4.5 C 17.276 4.5 17.5 4.724 17.5 5 Z M 6.5 8.5 L 8.5 8.5 L 8.5 6.5 L 6.5 6.5 Z M 13.5 8.5 L 15.5 8.5 L 15.5 6.5 L 13.5 6.5 Z M 10.5 12 L 10.5 17 C 10.5 17.276 10.276 17.5 10 17.5 L 5 17.5 C 4.724 17.5 4.5 17.276 4.5 17 L 4.5 12 C 4.5 11.724 4.724 11.5 5 11.5 L 10 11.5 C 10.276 11.5 10.5 11.724 10.5 12 Z M 6.5 15.5 L 8.5 15.5 L 8.5 13.5 L 6.5 13.5 Z M 3.5 15 L 3.5 18.5 L 7 18.5 C 7.276 18.5 7.5 18.724 7.5 19 L 7.5 20 C 7.5 20.276 7.276 20.5 7 20.5 L 2 20.5 C 1.724 20.5 1.5 20.276 1.5 20 L 1.5 15 C 1.5 14.724 1.724 14.5 2 14.5 L 3 14.5 C 3.276 14.5 3.5 14.724 3.5 15 Z M 16 14.303 L 17.656 12.646 C 17.851 12.451 18.168 12.451 18.363 12.646 L 19.354 13.637 C 19.447 13.73 19.5 13.858 19.5 13.99 C 19.5 14.123 19.447 14.25 19.354 14.344 L 17.697 16 L 19.354 17.656 C 19.447 17.75 19.5 17.877 19.5 18.01 C 19.5 18.142 19.447 18.27 19.354 18.363 L 18.363 19.354 C 18.168 19.549 17.851 19.549 17.656 19.354 L 16 17.697 L 14.344 19.354 C 14.149 19.549 13.832 19.549 13.637 19.354 L 12.646 18.363 C 12.451 18.168 12.451 17.851 12.646 17.656 L 14.303 16 L 12.646 14.344 C 12.451 14.149 12.451 13.832 12.646 13.637 L 13.637 12.646 C 13.832 12.451 14.149 12.451 14.344 12.646 Z"/>
</svg>