<?xml version="1.0" encoding="utf-8"?>
<svg viewBox="0 0 22 22" xmlns="http://www.w3.org/2000/svg">
  <path d="M 8.732 3.634 L 19.317 3.634 C 19.617 3.673 20.058 3.83 20.248 4.02 C 20.438 4.21 20.595 4.651 20.634 4.951 L 20.634 17.048 C 20.595 17.348 20.438 17.789 20.248 17.98 C 20.058 18.169 19.617 18.326 19.317 18.365 L 8.732 18.365 C 8.445 18.331 8.026 18.158 7.804 17.983 L 2.466 12.644 L 1.752 11.932 C 1.575 11.708 1.366 11.286 1.366 11 C 1.366 10.713 1.575 10.292 1.752 10.068 L 2.466 9.355 L 7.8 4.02 C 7.914 3.905 8.578 3.653 8.732 3.634 Z M 9.933 9.284 L 11.65 11 L 9.933 12.715 C 9.762 12.887 9.762 13.164 9.933 13.337 L 10.932 14.335 C 11.104 14.506 11.381 14.506 11.553 14.335 L 13.268 12.618 L 14.984 14.335 C 15.156 14.506 15.433 14.506 15.605 14.335 L 16.603 13.337 C 16.775 13.164 16.775 12.887 16.603 12.715 L 14.887 11 L 16.603 9.284 C 16.775 9.112 16.775 8.835 16.603 8.663 L 15.605 7.665 C 15.433 7.493 15.156 7.493 14.984 7.665 L 13.268 9.381 L 11.553 7.665 C 11.381 7.493 11.104 7.493 10.932 7.665 L 9.933 8.663 C 9.762 8.835 9.762 9.112 9.933 9.284 Z"/>
</svg>