<?xml version="1.0" encoding="utf-8"?>
<svg viewBox="0 0 22 22" xmlns="http://www.w3.org/2000/svg">
  <path d="M 14.2 4.02 L 19.534 9.355 L 20.248 10.068 C 20.425 10.292 20.634 10.713 20.634 11 C 20.634 11.286 20.425 11.708 20.248 11.932 L 19.534 12.644 L 14.196 17.983 C 13.974 18.158 13.555 18.331 13.268 18.365 L 2.683 18.365 C 2.383 18.326 1.942 18.169 1.752 17.98 C 1.562 17.789 1.405 17.348 1.366 17.048 L 1.366 4.951 C 1.405 4.651 1.562 4.21 1.752 4.02 C 1.942 3.83 2.383 3.673 2.683 3.634 L 13.268 3.634 C 13.422 3.653 14.086 3.905 14.2 4.02 Z M 12.067 8.663 L 11.068 7.665 C 10.896 7.493 10.619 7.493 10.447 7.665 L 8.732 9.381 L 7.016 7.665 C 6.844 7.493 6.567 7.493 6.395 7.665 L 5.397 8.663 C 5.225 8.835 5.225 9.112 5.397 9.284 L 7.113 11 L 5.397 12.715 C 5.225 12.887 5.225 13.164 5.397 13.337 L 6.395 14.335 C 6.567 14.506 6.844 14.506 7.016 14.335 L 8.732 12.618 L 10.447 14.335 C 10.619 14.506 10.896 14.506 11.068 14.335 L 12.067 13.337 C 12.238 13.164 12.238 12.887 12.067 12.715 L 10.35 11 L 12.067 9.284 C 12.238 9.112 12.238 8.835 12.067 8.663 Z"/>
</svg>