<?xml version="1.0" encoding="utf-8"?>
<svg viewBox="0 0 22 22" xmlns="http://www.w3.org/2000/svg">
  <path d="M 20.5 2 L 20.5 12 C 20.5 12.276 20.276 12.5 20 12.5 L 19 12.5 C 18.724 12.5 18.5 12.276 18.5 12 L 18.5 8.5 L 17.5 8.5 L 17.5 12 C 17.5 12.276 17.276 12.5 17 12.5 L 16 12.5 C 15.724 12.5 15.5 12.276 15.5 12 L 15.5 8.5 L 14.5 8.5 L 14.5 18 C 14.5 18.276 14.276 18.5 14 18.5 L 13 18.5 C 12.724 18.5 12.5 18.276 12.5 18 L 12.5 8.5 L 10.5 8.5 L 10.5 12 C 10.5 12.276 10.276 12.5 10 12.5 L 9 12.5 C 8.724 12.5 8.5 12.276 8.5 12 L 8.5 8.5 L 6.5 8.5 L 6.5 12 C 6.5 12.276 6.276 12.5 6 12.5 L 5 12.5 C 4.724 12.5 4.5 12.276 4.5 12 L 4.5 8.5 L 2.5 8.5 L 2.5 18 C 2.5 18.276 2.276 18.5 2 18.5 L 1 18.5 C 0.724 18.5 0.5 18.276 0.5 18 L 0.5 2 C 0.5 1.724 0.724 1.5 1 1.5 L 20 1.5 C 20.276 1.5 20.5 1.724 20.5 2 Z M 2.5 6.5 L 4.5 6.5 L 4.5 3.5 L 2.5 3.5 Z M 6.5 6.5 L 8.5 6.5 L 8.5 3.5 L 6.5 3.5 Z M 10.5 6.5 L 12.5 6.5 L 12.5 3.5 L 10.5 3.5 Z M 14.5 6.5 L 15.5 6.5 L 15.5 3.5 L 14.5 3.5 Z M 17.5 6.5 L 18.5 6.5 L 18.5 3.5 L 17.5 3.5 Z M 21.447 14.224 L 18.947 19.224 C 18.863 19.393 18.689 19.5 18.5 19.5 C 18.311 19.5 18.137 19.393 18.053 19.224 L 15.553 14.224 C 15.475 14.069 15.484 13.885 15.575 13.737 C 15.666 13.59 15.827 13.5 16 13.5 L 21 13.5 C 21.173 13.5 21.334 13.59 21.425 13.737 C 21.516 13.885 21.525 14.069 21.447 14.224 Z M 3.37 13.5 L 11.37 13.5 C 11.646 13.5 11.87 13.724 11.87 14 L 11.87 15 C 11.87 15.051 11.862 15.1 11.848 15.147 C 11.862 15.193 11.87 15.243 11.87 15.293 L 11.87 16.707 C 11.87 16.84 11.817 16.967 11.724 17.061 L 10.284 18.5 L 11.37 18.5 C 11.646 18.5 11.87 18.724 11.87 19 L 11.87 20 C 11.87 20.276 11.646 20.5 11.37 20.5 L 3.37 20.5 C 3.094 20.5 2.87 20.276 2.87 20 L 2.87 19 C 2.87 18.724 3.094 18.5 3.37 18.5 L 3.456 18.5 L 6.456 15.5 L 3.37 15.5 C 3.094 15.5 2.87 15.276 2.87 15 L 2.87 14 C 2.87 13.724 3.094 13.5 3.37 13.5 Z M 9.284 15.5 L 6.284 18.5 L 7.456 18.5 L 10.456 15.5 Z"/>
</svg>