<?xml version="1.0" encoding="utf-8"?>
<svg xmlns="http://www.w3.org/2000/svg" height="48" viewBox="0 -960 960 960" width="48">
  <path d="M 546.097 -491 C 555.43 -481 560.097 -469.83 560.097 -457.5 C 560.097 -445.17 555.43 -434.33 546.097 -425 C 536.764 -415 525.764 -410 513.097 -410 C 500.43 -410 489.43 -415 480.097 -425 L 334.097 -569 C 329.43 -573.67 325.764 -579 323.097 -585 C 320.43 -591 319.097 -597 319.097 -603 C 319.097 -609 320.43 -615 323.097 -621 C 325.764 -627 329.43 -632.33 334.097 -637 L 480.097 -782 C 489.43 -791.33 500.43 -796 513.097 -796 C 525.764 -796 536.764 -791.33 546.097 -782 C 555.43 -772 560.097 -760.83 560.097 -748.5 C 560.097 -736.17 555.43 -725.33 546.097 -716 L 480.097 -650 L 531.428 -650 C 598.095 -650 654.928 -626.17 701.928 -578.5 C 748.928 -530.83 772.428 -473.67 772.428 -407 C 772.428 -339.67 748.928 -282.33 701.928 -235 C 654.928 -187.67 598.095 -164 531.428 -164 L 262.428 -164 C 249.095 -164 237.928 -168.5 228.928 -177.5 C 219.928 -186.5 215.428 -197.67 215.428 -211 C 215.428 -224.33 219.928 -235.5 228.928 -244.5 C 237.928 -253.5 249.095 -258 262.428 -258 L 532.428 -258 C 573.095 -258 607.595 -272.5 635.928 -301.5 C 664.261 -330.5 678.428 -365.67 678.428 -407 C 678.428 -448.33 664.261 -483.5 635.928 -512.5 C 607.595 -541.5 573.095 -556 532.428 -556 L 480.097 -556 L 546.097 -491 Z M 281.242 -482.01 C 280.142 -470.55 274.682 -456.26 267.322 -448.94 C 259.942 -441.66 245.752 -435.35 234.262 -435.35 C 222.822 -435.35 208.612 -441.74 201.232 -449.06 C 193.892 -456.4 188.702 -470.65 187.572 -482.01 L 187.582 -717.26 C 188.712 -728.65 193.902 -742.87 201.242 -750.22 C 208.622 -757.54 222.832 -763.93 234.272 -763.93 C 245.762 -763.93 259.952 -757.62 267.332 -750.33 C 274.692 -743.01 280.152 -728.73 281.252 -717.26 L 281.242 -482.01 Z" style=""/>
</svg>