<?xml version="1.0" encoding="utf-8"?>
<svg viewBox="0 0 22 22" xmlns="http://www.w3.org/2000/svg">
  <path d="M 1.5 20 L 1.5 1 C 1.5 0.724 1.724 0.5 2 0.5 L 18 0.5 C 18.276 0.5 18.5 0.724 18.5 1 L 18.5 2 C 18.5 2.276 18.276 2.5 18 2.5 L 8.5 2.5 L 8.5 4.5 L 12 4.5 C 12.276 4.5 12.5 4.724 12.5 5 L 12.5 6 C 12.5 6.276 12.276 6.5 12 6.5 L 8.5 6.5 L 8.5 8.5 L 12 8.5 C 12.276 8.5 12.5 8.724 12.5 9 L 12.5 10 C 12.5 10.276 12.276 10.5 12 10.5 L 8.5 10.5 L 8.5 12.5 L 18 12.5 C 18.276 12.5 18.5 12.724 18.5 13 L 18.5 14 C 18.5 14.276 18.276 14.5 18 14.5 L 8.5 14.5 L 8.5 15.5 L 12 15.5 C 12.276 15.5 12.5 15.724 12.5 16 L 12.5 17 C 12.5 17.276 12.276 17.5 12 17.5 L 8.5 17.5 L 8.5 18.5 L 12 18.5 C 12.276 18.5 12.5 18.724 12.5 19 L 12.5 20 C 12.5 20.276 12.276 20.5 12 20.5 L 2 20.5 C 1.724 20.5 1.5 20.276 1.5 20 Z M 3.5 2.5 L 3.5 4.5 L 6.5 4.5 L 6.5 2.5 L 3.5 2.5 Z M 3.5 6.5 L 3.5 8.5 L 6.5 8.5 L 6.5 6.5 L 3.5 6.5 Z M 3.5 10.5 L 3.5 12.5 L 6.5 12.5 L 6.5 10.5 L 3.5 10.5 Z M 3.5 14.5 L 3.5 15.5 L 6.5 15.5 L 6.5 14.5 L 3.5 14.5 Z M 3.5 17.5 L 3.5 18.5 L 6.5 18.5 L 6.5 17.5 L 3.5 17.5 Z M 13.737 21.425 C 13.59 21.334 13.5 21.173 13.5 21 L 13.5 16 C 13.5 15.827 13.59 15.666 13.737 15.575 C 13.885 15.484 14.069 15.475 14.224 15.553 L 19.224 18.053 C 19.393 18.137 19.5 18.311 19.5 18.5 C 19.5 18.689 19.393 18.863 19.224 18.947 L 14.224 21.447 C 14.069 21.525 13.885 21.516 13.737 21.425 Z M 14 2.87 L 15 2.87 C 15.276 2.87 15.5 3.094 15.5 3.37 L 15.5 6.456 L 18.5 3.456 L 18.5 3.37 C 18.5 3.094 18.724 2.87 19 2.87 L 20 2.87 C 20.276 2.87 20.5 3.094 20.5 3.37 L 20.5 11.37 C 20.5 11.646 20.276 11.87 20 11.87 L 19 11.87 C 18.724 11.87 18.5 11.646 18.5 11.37 L 18.5 10.284 L 17.061 11.724 C 16.967 11.817 16.84 11.87 16.707 11.87 L 15.293 11.87 C 15.243 11.87 15.193 11.862 15.147 11.848 C 15.1 11.862 15.051 11.87 15 11.87 L 14 11.87 C 13.724 11.87 13.5 11.646 13.5 11.37 L 13.5 3.37 C 13.5 3.094 13.724 2.87 14 2.87 Z M 15.5 10.456 L 18.5 7.456 L 18.5 6.284 L 15.5 9.284 L 15.5 10.456 Z"/>
</svg>