<?xml version="1.0" encoding="utf-8"?>
<svg viewBox="0 0 22 22" xmlns="http://www.w3.org/2000/svg">
  <path d="M 20 20.5 L 10 20.5 C 9.724 20.5 9.5 20.276 9.5 20 L 9.5 19 C 9.5 18.724 9.724 18.5 10 18.5 L 13.5 18.5 L 13.5 17.5 L 10 17.5 C 9.724 17.5 9.5 17.276 9.5 17 L 9.5 16 C 9.5 15.724 9.724 15.5 10 15.5 L 13.5 15.5 L 13.5 14.5 L 4 14.5 C 3.724 14.5 3.5 14.276 3.5 14 L 3.5 13 C 3.5 12.724 3.724 12.5 4 12.5 L 13.5 12.5 L 13.5 10.5 L 10 10.5 C 9.724 10.5 9.5 10.276 9.5 10 L 9.5 9 C 9.5 8.724 9.724 8.5 10 8.5 L 13.5 8.5 L 13.5 6.5 L 10 6.5 C 9.724 6.5 9.5 6.276 9.5 6 L 9.5 5 C 9.5 4.724 9.724 4.5 10 4.5 L 13.5 4.5 L 13.5 2.5 L 4 2.5 C 3.724 2.5 3.5 2.276 3.5 2 L 3.5 1 C 3.5 0.724 3.724 0.5 4 0.5 L 20 0.5 C 20.276 0.5 20.5 0.724 20.5 1 L 20.5 20 C 20.5 20.276 20.276 20.5 20 20.5 Z M 15.5 2.5 L 15.5 4.5 L 18.5 4.5 L 18.5 2.5 Z M 15.5 6.5 L 15.5 8.5 L 18.5 8.5 L 18.5 6.5 Z M 15.5 10.5 L 15.5 12.5 L 18.5 12.5 L 18.5 10.5 Z M 15.5 14.5 L 15.5 15.5 L 18.5 15.5 L 18.5 14.5 Z M 15.5 17.5 L 15.5 18.5 L 18.5 18.5 L 18.5 17.5 Z M 7.776 21.447 L 2.776 18.947 C 2.607 18.863 2.5 18.689 2.5 18.5 C 2.5 18.311 2.607 18.137 2.776 18.053 L 7.776 15.553 C 7.931 15.475 8.115 15.484 8.263 15.575 C 8.41 15.666 8.5 15.827 8.5 16 L 8.5 21 C 8.5 21.173 8.41 21.334 8.263 21.425 C 8.115 21.516 7.931 21.525 7.776 21.447 Z M 8.5 3.37 L 8.5 11.37 C 8.5 11.646 8.276 11.87 8 11.87 L 7 11.87 C 6.949 11.87 6.9 11.862 6.853 11.848 C 6.807 11.862 6.757 11.87 6.707 11.87 L 5.293 11.87 C 5.16 11.87 5.033 11.817 4.939 11.724 L 3.5 10.284 L 3.5 11.37 C 3.5 11.646 3.276 11.87 3 11.87 L 2 11.87 C 1.724 11.87 1.5 11.646 1.5 11.37 L 1.5 3.37 C 1.5 3.094 1.724 2.87 2 2.87 L 3 2.87 C 3.276 2.87 3.5 3.094 3.5 3.37 L 3.5 3.456 L 6.5 6.456 L 6.5 3.37 C 6.5 3.094 6.724 2.87 7 2.87 L 8 2.87 C 8.276 2.87 8.5 3.094 8.5 3.37 Z M 6.5 9.284 L 3.5 6.284 L 3.5 7.456 L 6.5 10.456 Z"/>
</svg>