<?xml version="1.0" encoding="utf-8"?>
<svg viewBox="0 0 16 16" xmlns="http://www.w3.org/2000/svg">
  <path d="M 5.32 1.625 L 5.32 2.625 C 5.32 2.901 5.096 3.125 4.82 3.125 L 3.32 3.125 L 3.32 4.625 C 3.32 4.901 3.096 5.125 2.82 5.125 L 1.82 5.125 C 1.544 5.125 1.32 4.901 1.32 4.625 L 1.32 1.625 C 1.32 1.349 1.544 1.125 1.82 1.125 L 4.82 1.125 C 5.096 1.125 5.32 1.349 5.32 1.625 Z M 14.679 1.625 L 14.679 4.625 C 14.679 4.901 14.455 5.125 14.179 5.125 L 13.179 5.125 C 12.903 5.125 12.679 4.901 12.679 4.625 L 12.679 3.125 L 11.179 3.125 C 10.903 3.125 10.679 2.901 10.679 2.625 L 10.679 1.625 C 10.679 1.349 10.903 1.125 11.179 1.125 L 14.179 1.125 C 14.455 1.125 14.679 1.349 14.679 1.625 Z M 14.679 11.376 L 14.679 14.376 C 14.679 14.652 14.455 14.876 14.179 14.876 L 11.179 14.876 C 10.903 14.876 10.679 14.652 10.679 14.376 L 10.679 13.376 C 10.679 13.1 10.903 12.876 11.179 12.876 L 12.679 12.876 L 12.679 11.376 C 12.679 11.1 12.903 10.876 13.179 10.876 L 14.179 10.876 C 14.455 10.876 14.679 11.1 14.679 11.376 Z M 3.32 11.376 L 3.32 12.876 L 4.82 12.876 C 5.096 12.876 5.32 13.1 5.32 13.376 L 5.32 14.376 C 5.32 14.652 5.096 14.876 4.82 14.876 L 1.82 14.876 C 1.544 14.876 1.32 14.652 1.32 14.376 L 1.32 11.376 C 1.32 11.1 1.544 10.876 1.82 10.876 L 2.82 10.876 C 3.096 10.876 3.32 11.1 3.32 11.376 Z M 11.713 5.122 L 9.194 7.641 C 9.1 7.734 8.973 7.787 8.84 7.787 L 4.641 7.787 C 4.439 7.787 4.256 7.665 4.179 7.478 C 4.102 7.292 4.144 7.076 4.287 6.933 L 6.806 4.414 C 6.9 4.321 7.027 4.268 7.16 4.268 L 11.359 4.268 C 11.561 4.268 11.744 4.39 11.821 4.577 C 11.898 4.763 11.856 4.979 11.713 5.122 Z M 11.713 9.067 L 9.194 11.586 C 9.1 11.679 8.973 11.732 8.84 11.732 L 4.641 11.732 C 4.439 11.732 4.256 11.61 4.179 11.423 C 4.102 11.237 4.144 11.021 4.287 10.878 L 6.806 8.359 C 6.9 8.266 7.027 8.213 7.16 8.213 L 11.359 8.213 C 11.561 8.213 11.744 8.335 11.821 8.522 C 11.898 8.708 11.856 8.924 11.713 9.067 Z"/>
</svg>