<?xml version="1.0" encoding="utf-8"?>
<svg xmlns="http://www.w3.org/2000/svg" height="48" viewBox="0 -960 960 960" width="48">
  <path d="M 96.343 -839.56 C 98.339 -842.12 100.442 -844.62 102.653 -847.07 C 104.133 -848.12 105.603 -850.38 107.201 -851.74 C 110.413 -855.17 113.846 -858.09 117.355 -861.03 C 147.131 -884.96 185.128 -894.2 221.196 -888.37 C 223.331 -888.05 225.458 -887.68 227.577 -887.24 C 240.048 -884.59 252.201 -880.15 263.607 -873.95 C 274.072 -868.14 283.916 -860.73 292.816 -851.74 C 304.563 -840.05 313.617 -826.63 319.976 -812.3 C 320.372 -811.4 320.757 -810.497 321.132 -809.59 L 669.122 -809.59 C 686.224 -844.24 721.972 -868.21 763.282 -868.21 C 821.227 -868.21 868.215 -821.27 868.215 -763.27 C 868.215 -705.29 821.227 -658.36 763.282 -658.36 C 721.893 -658.36 686.102 -682.33 669.021 -717.15 L 323.837 -716.958 L 323.861 -715.869 C 317.557 -697.746 307.16 -680.746 292.665 -666.3 C 278.909 -652.788 262.894 -642.684 245.831 -636.221 L 243.27 -636.229 L 243.307 -290.78 C 277.869 -273.45 301.633 -237.79 301.633 -196.51 C 301.633 -138.72 254.645 -91.79 196.701 -91.79 C 138.756 -91.79 91.786 -138.72 91.786 -196.51 C 91.786 -238.22 115.875 -274.06 150.819 -290.97 L 150.726 -637.61 C 150.343 -637.768 149.96 -637.928 149.577 -638.09 C 148.812 -638.41 148.045 -638.78 147.285 -639.13 C 145.155 -640.07 143.042 -641.05 140.952 -642.08 C 128.881 -648.24 117.549 -656.37 107.448 -666.38 C 60.176 -713.33 56.512 -787.48 96.343 -839.56 Z M 163.069 -722.2 C 167.158 -718.14 171.745 -714.86 176.631 -712.37 C 177.477 -711.94 178.332 -711.54 179.194 -711.17 C 179.502 -711.02 179.812 -710.88 180.122 -710.74 C 186.652 -707.98 193.614 -706.58 200.572 -706.58 C 201.488 -706.58 202.404 -706.6 203.318 -706.64 C 215.938 -707.33 228.369 -712.67 238.041 -722.17 C 254.027 -738.1 257.699 -761.7 249.096 -781.26 C 246.522 -787.07 242.857 -792.49 238.102 -797.23 C 234.5 -800.87 230.515 -803.86 226.279 -806.21 C 221.662 -808.73 216.743 -810.53 211.695 -811.6 C 210.837 -811.77 209.976 -811.93 209.112 -812.06 C 194.512 -814.42 179.132 -810.68 167.079 -800.99 C 165.659 -799.8 164.269 -798.62 162.969 -797.23 C 162.322 -796.67 161.727 -795.77 161.128 -795.34 C 160.233 -794.35 159.382 -793.33 158.574 -792.29 C 142.451 -771.22 143.934 -741.21 163.069 -722.2 Z M 404.492 -135.04 L 404.492 -250.98 C 404.492 -256.11 405.413 -261.28 407.253 -266.42 C 409.092 -271.59 412.148 -276.55 416.453 -281.34 L 666.716 -531.59 C 675.292 -540.25 685.137 -546.5 696.215 -550.36 C 707.291 -554.41 718.002 -556.43 728.362 -556.43 C 739.403 -556.43 750.113 -554.22 760.528 -550 C 770.925 -545.77 780.457 -539.32 789.088 -530.67 L 842.452 -478.24 C 851.653 -469.57 858.241 -459.82 862.234 -448.6 C 866.209 -437.56 868.215 -426.35 868.215 -415.29 C 868.215 -404.25 866.209 -393.4 862.234 -382.73 C 858.241 -372.23 851.947 -362.67 843.372 -354.02 L 594.03 -104.69 C 589.467 -100.44 584.553 -97.13 579.291 -94.93 C 574.008 -92.9 568.801 -91.79 563.668 -91.79 L 447.736 -91.79 C 435.61 -91.79 425.379 -96.02 417.023 -104.3 C 408.67 -112.78 404.492 -122.88 404.492 -135.04 Z M 477.179 -165.41 L 549.534 -165.41 L 696.159 -310.78 L 659.355 -346.66 L 622.552 -382.54 L 477.179 -239.36 Z" style="stroke-width: 1;"/>
</svg>