<?xml version="1.0" encoding="utf-8"?>
<svg xmlns="http://www.w3.org/2000/svg" height="48" viewBox="0 -960 960 960" width="48">
  <path d="M 252.741 -773.1 C 252.741 -795.46 260.259 -814.28 275.286 -829.53 C 290.465 -844.77 308.987 -852.38 331.189 -852.38 L 686.704 -851.87 C 709.073 -851.87 727.931 -844.26 743.11 -829.02 C 758.306 -813.77 765.983 -794.95 765.983 -772.59 L 765.983 -498.02 C 765.983 -487.04 761.985 -477.74 753.963 -470.16 C 746.126 -462.58 736.608 -458.8 725.764 -458.8 C 714.743 -458.8 705.402 -462.58 697.884 -470.16 C 690.383 -477.74 686.704 -487.04 686.704 -498.02 L 686.704 -772.59 L 331.189 -773.1 L 331.189 -316.78 L 610.322 -316.27 C 621.343 -316.27 630.524 -312.47 638.202 -304.86 C 645.703 -297.25 649.55 -287.93 649.55 -276.9 C 649.55 -265.86 645.703 -256.6 638.202 -249.09 C 630.524 -241.58 621.343 -237.82 610.322 -237.82 L 331.189 -238.34 C 308.987 -238.34 290.465 -246.01 275.286 -261.39 C 260.259 -276.76 252.741 -295.22 252.741 -316.78 L 252.741 -773.1 Z M 202.34 -107.62 C 180.242 -107.62 161.418 -115.4 145.867 -130.95 C 130.316 -146.5 122.54 -165.32 122.54 -187.42 L 122.54 -682.19 C 122.54 -693.25 126.37 -702.59 134.031 -710.23 C 141.686 -717.85 151.207 -721.67 162.591 -721.67 C 173.971 -721.67 183.44 -717.85 191 -710.23 C 198.56 -702.59 202.34 -693.25 202.34 -682.19 L 202.34 -187.42 L 596.303 -187.42 C 607.363 -187.42 616.709 -183.59 624.342 -175.93 C 631.969 -168.28 635.783 -158.76 635.783 -147.37 C 635.783 -135.99 631.969 -126.52 624.342 -118.96 C 616.709 -111.4 607.363 -107.62 596.303 -107.62 L 202.34 -107.62 Z M 742.397 -144.67 C 731.502 -144.67 722.296 -148.49 714.778 -156.1 C 707.261 -163.54 703.486 -172.83 703.486 -183.58 L 703.486 -285.41 C 703.486 -293.52 705.737 -300.81 710.226 -307.27 C 714.713 -313.73 720.74 -318.36 728.324 -321.01 L 740.741 -321.01 L 740.741 -356.12 C 740.741 -376.97 747.844 -394.85 762.052 -409.76 C 776.275 -424.67 793.661 -431.95 814.21 -431.95 C 834.773 -431.95 852.245 -424.67 866.584 -409.76 C 880.94 -394.85 888.105 -376.97 888.105 -356.12 L 888.105 -321.01 L 900.527 -321.01 C 907.558 -318.36 913.471 -313.73 918.226 -307.27 C 922.997 -300.81 925.366 -293.52 925.366 -285.41 L 925.366 -183.58 C 925.366 -172.83 921.451 -163.54 913.631 -156.1 C 905.794 -148.49 896.471 -144.67 885.627 -144.67 L 742.397 -144.67 Z M 782.964 -324.33 L 845.886 -324.33 L 845.886 -362.41 C 845.886 -372.17 842.921 -380.13 836.957 -386.74 C 831.017 -393.2 823.648 -396.52 814.839 -396.52 C 806.047 -396.52 798.529 -393.2 792.303 -386.74 C 786.077 -380.13 782.964 -372.17 782.964 -362.41 L 782.964 -324.33 Z" style=""/>
</svg>