<?xml version="1.0" encoding="utf-8"?>
<svg xmlns="http://www.w3.org/2000/svg" height="48" viewBox="0 -960 960 960" width="48">
  <path d="M 802.5 -17 L 312.5 -17 C 286.193 -17 263.783 -26.257 245.27 -44.77 C 226.757 -63.283 217.5 -85.693 217.5 -112 L 217.5 -695 C 217.5 -721.03 226.757 -743.21 245.27 -761.53 C 263.783 -779.84 286.193 -789 312.5 -789 L 610.5 -789 C 623.3 -789 635.5 -786.5 647.1 -781.5 C 658.7 -776.5 669.167 -769.67 678.5 -761 L 868.5 -571 C 877.167 -561.67 884 -551.2 889 -539.6 C 894 -528 896.5 -515.8 896.5 -503 L 896.5 -112 C 896.5 -85.693 887.167 -63.283 868.5 -44.77 C 849.833 -26.257 827.833 -17 802.5 -17 Z M 802.5 -527 L 701.5 -527 C 681.667 -527 664.877 -533.88 651.13 -547.63 C 637.377 -561.38 630.5 -578.17 630.5 -598 L 630.5 -695 L 312.5 -695 L 312.5 -112 L 802.5 -112 L 802.5 -527 Z M 615.499 -943 C 628.66 -943 639.8 -938.4 648.879 -929.6 C 657.96 -920.4 662.5 -909.4 662.5 -896.2 C 662.5 -883 657.96 -871.8 648.879 -862.6 C 639.8 -853.6 628.66 -849 615.499 -849 L 157.5 -849 L 157.5 -286.03 C 157.5 -272.84 153 -261.83 144 -252.64 C 135 -243.64 123.9 -239.04 110.679 -239.04 C 97.46 -239.04 86.301 -243.64 77.18 -252.64 C 68.06 -261.83 63.5 -272.84 63.5 -286.03 L 63.5 -849 C 63.5 -875 72.66 -897.2 90.96 -915.6 C 109.28 -933.8 131.46 -943 157.5 -943 L 615.499 -943 Z"/>
</svg>