<?xml version="1.0" encoding="utf-8"?>
<svg viewBox="0 0 22 22" xmlns="http://www.w3.org/2000/svg">
  <path d="m3 3v15 1h16v-1-15h-1-14zm1 1h4v2h-4zm5 0h4v2h-4zm5 0h4v2h-3-1v-1.0996094zm-10 3h4v1h1v-1h4v1h1v-1h1 3v1 1 1 2 1 1 1h-3-1v-1h-1v1h-4v-1h-1v1h-4v-1-1-1-2-1-1zm0 9h3 1v1 1h-4zm5 0h4v1 1h-4v-1zm5 0h1 3v2h-4v-1z"/>
  <path d="M 19.5 3 L 19.5 19 C 19.5 19.276 19.276 19.5 19 19.5 L 3 19.5 C 2.724 19.5 2.5 19.276 2.5 19 L 2.5 3 C 2.5 2.724 2.724 2.5 3 2.5 L 19 2.5 C 19.276 2.5 19.5 2.724 19.5 3 Z M 3.5 3.5 L 3.5 4 C 3.5 3.724 3.724 3.5 4 3.5 Z M 3.5 18.5 L 4 18.5 C 3.724 18.5 3.5 18.276 3.5 18 Z M 18.5 18.5 L 18.5 18 C 18.5 18.276 18.276 18.5 18 18.5 Z M 18.5 15 C 18.5 15.276 18.276 15.5 18 15.5 C 18.276 15.5 18.5 15.724 18.5 16 Z M 13.5 15 C 13.5 15.276 13.276 15.5 13 15.5 C 13.276 15.5 13.5 15.724 13.5 16 C 13.5 15.724 13.724 15.5 14 15.5 C 13.724 15.5 13.5 15.276 13.5 15 Z M 13 18.5 L 14 18.5 C 13.724 18.5 13.5 18.276 13.5 18 C 13.5 18.276 13.276 18.5 13 18.5 Z M 8.5 15 C 8.5 15.276 8.276 15.5 8 15.5 C 8.276 15.5 8.5 15.724 8.5 16 C 8.5 15.724 8.724 15.5 9 15.5 C 8.724 15.5 8.5 15.276 8.5 15 Z M 8 18.5 L 9 18.5 C 8.724 18.5 8.5 18.276 8.5 18 C 8.5 18.276 8.276 18.5 8 18.5 Z M 3.5 16 C 3.5 15.724 3.724 15.5 4 15.5 C 3.724 15.5 3.5 15.276 3.5 15 Z M 18.5 6 C 18.5 6.276 18.276 6.5 18 6.5 C 18.276 6.5 18.5 6.724 18.5 7 Z M 13.5 6 C 13.5 6.276 13.276 6.5 13 6.5 C 13.276 6.5 13.5 6.724 13.5 7 C 13.5 6.724 13.724 6.5 14 6.5 C 13.724 6.5 13.5 6.276 13.5 6 Z M 8.5 6 C 8.5 6.276 8.276 6.5 8 6.5 C 8.276 6.5 8.5 6.724 8.5 7 C 8.5 6.724 8.724 6.5 9 6.5 C 8.724 6.5 8.5 6.276 8.5 6 Z M 3.5 7 C 3.5 6.724 3.724 6.5 4 6.5 C 3.724 6.5 3.5 6.276 3.5 6 Z M 18.5 3.5 L 18 3.5 C 18.276 3.5 18.5 3.724 18.5 4 Z M 13 3.5 C 13.276 3.5 13.5 3.724 13.5 4 C 13.5 3.724 13.724 3.5 14 3.5 Z M 8 3.5 C 8.276 3.5 8.5 3.724 8.5 4 C 8.5 3.724 8.724 3.5 9 3.5 Z M 4.5 5.5 L 7.5 5.5 L 7.5 4.5 L 4.5 4.5 Z M 9.5 5.5 L 12.5 5.5 L 12.5 4.5 L 9.5 4.5 Z M 14.5 5.5 L 17.5 5.5 L 17.5 4.5 L 14.5 4.5 Z M 4.5 17.5 L 7.5 17.5 L 7.5 16.5 L 4.5 16.5 Z M 9.5 17.5 L 12.5 17.5 L 12.5 16.5 L 9.5 16.5 Z M 14.5 17.5 L 17.5 17.5 L 17.5 16.5 L 14.5 16.5 Z M 7.086 12.5 L 4.5 9.914 L 4.5 12.5 Z M 14.914 9.5 L 17.5 12.086 L 17.5 9.5 Z M 17.353 13.354 L 16.654 12.654 C 16.791 12.797 16.831 13.008 16.755 13.191 C 16.678 13.378 16.495 13.5 16.293 13.5 L 17.5 13.5 L 17.5 13.455 C 17.446 13.431 17.396 13.396 17.353 13.354 Z M 13.245 8.809 C 13.322 8.622 13.505 8.5 13.707 8.5 L 12.293 8.5 C 12.426 8.5 12.553 8.553 12.647 8.646 L 13.346 9.346 C 13.209 9.203 13.169 8.992 13.245 8.809 Z M 8.647 8.646 L 9.346 9.346 C 9.209 9.203 9.169 8.992 9.245 8.809 C 9.322 8.622 9.505 8.5 9.707 8.5 L 8.293 8.5 C 8.426 8.5 8.553 8.553 8.647 8.646 Z M 12.755 13.191 C 12.678 13.378 12.495 13.5 12.293 13.5 L 13.707 13.5 C 13.574 13.5 13.447 13.447 13.353 13.354 L 12.654 12.654 C 12.791 12.797 12.831 13.008 12.755 13.191 Z M 4.647 8.646 L 5.346 9.346 C 5.209 9.203 5.169 8.992 5.245 8.809 C 5.322 8.622 5.505 8.5 5.707 8.5 L 4.5 8.5 L 4.5 8.545 C 4.554 8.569 4.604 8.604 4.647 8.646 Z M 5.707 8.5 C 5.707 8.5 5.707 8.5 5.707 8.5 Z M 8.755 13.191 C 8.678 13.378 8.495 13.5 8.293 13.5 L 9.707 13.5 C 9.574 13.5 9.447 13.447 9.353 13.354 L 8.654 12.654 C 8.791 12.797 8.831 13.008 8.755 13.191 Z M 9.914 12.5 L 11.086 12.5 L 8.086 9.5 L 6.914 9.5 Z M 13.914 12.5 L 15.086 12.5 L 12.086 9.5 L 10.914 9.5 Z"/>
  <path d="m4 14h5.29297 4 4 .70703v-.70703-.29297h-.29297l-4-4h4.29297v-1h-14v1h.29297l4 4h-4.29297zm1.70703-5h2.58594l4 4h-2.58594zm4 0h2.58594l4 4h-2.58594z"/>
</svg>