<?xml version="1.0" encoding="utf-8"?>
<svg viewBox="0 0 22 22" xmlns="http://www.w3.org/2000/svg">
  <path d="M 19.5 3 L 19.5 19 C 19.5 19.276 19.276 19.5 19 19.5 L 3 19.5 C 2.724 19.5 2.5 19.276 2.5 19 L 2.5 3 C 2.5 2.724 2.724 2.5 3 2.5 L 19 2.5 C 19.276 2.5 19.5 2.724 19.5 3 Z M 4.5 5.5 L 7.5 5.5 L 7.5 4.5 L 4.5 4.5 Z M 9.5 5.5 L 12.5 5.5 L 12.5 4.5 L 9.5 4.5 Z M 14.5 5.5 L 17.5 5.5 L 17.5 4.5 L 14.5 4.5 Z M 4.5 8.5 L 7 8.5 C 7.276 8.5 7.5 8.724 7.5 9 L 7.5 10 C 7.5 10.276 7.276 10.5 7 10.5 L 4.5 10.5 L 4.5 11.5 L 7 11.5 C 7.276 11.5 7.5 11.724 7.5 12 L 7.5 13 C 7.5 13.276 7.276 13.5 7 13.5 L 4.5 13.5 L 4.5 14.5 L 7.5 14.5 L 7.5 14 C 7.5 13.724 7.724 13.5 8 13.5 L 9 13.5 C 9.276 13.5 9.5 13.724 9.5 14 L 9.5 14.5 L 12.5 14.5 L 12.5 14 C 12.5 13.724 12.724 13.5 13 13.5 L 14 13.5 C 14.276 13.5 14.5 13.724 14.5 14 L 14.5 14.5 L 17.5 14.5 L 17.5 13.5 L 15 13.5 C 14.724 13.5 14.5 13.276 14.5 13 L 14.5 12 C 14.5 11.724 14.724 11.5 15 11.5 L 17.5 11.5 L 17.5 10.5 L 15 10.5 C 14.724 10.5 14.5 10.276 14.5 10 L 14.5 9 C 14.5 8.724 14.724 8.5 15 8.5 L 17.5 8.5 L 17.5 7.5 L 14.5 7.5 L 14.5 8 C 14.5 8.276 14.276 8.5 14 8.5 L 13 8.5 C 12.724 8.5 12.5 8.276 12.5 8 L 12.5 7.5 L 9.5 7.5 L 9.5 8 C 9.5 8.276 9.276 8.5 9 8.5 L 8 8.5 C 7.724 8.5 7.5 8.276 7.5 8 L 7.5 7.5 L 4.5 7.5 Z M 9.646 13.354 L 7.646 11.354 C 7.451 11.158 7.451 10.842 7.646 10.646 L 9.646 8.646 C 9.789 8.503 10.005 8.461 10.191 8.538 C 10.378 8.615 10.5 8.798 10.5 9 L 10.5 13 C 10.5 13.202 10.378 13.385 10.191 13.462 C 10.005 13.539 9.789 13.497 9.646 13.354 Z M 14.354 11.354 L 12.354 13.354 C 12.211 13.497 11.995 13.539 11.809 13.462 C 11.622 13.385 11.5 13.202 11.5 13 L 11.5 9 C 11.5 8.798 11.622 8.615 11.809 8.538 C 11.995 8.461 12.211 8.503 12.354 8.646 L 14.354 10.646 C 14.549 10.842 14.549 11.158 14.354 11.354 Z M 4.5 17.5 L 7.5 17.5 L 7.5 16.5 L 4.5 16.5 Z M 9.5 17.5 L 12.5 17.5 L 12.5 16.5 L 9.5 16.5 Z M 14.5 17.5 L 17.5 17.5 L 17.5 16.5 L 14.5 16.5 Z"/>
</svg>