<?xml version="1.0" encoding="utf-8"?>
<svg xmlns="http://www.w3.org/2000/svg" height="48" viewBox="0 -960 960 960" width="48">
  <path d="M 408.65 -297 C 479.55 -297 540 -322.077 590 -372.23 C 640 -422.39 665 -483.293 665 -554.94 C 665 -626.593 639.853 -687.35 589.56 -737.21 C 539.267 -787.07 478.6 -812 407.56 -812 C 336.52 -812 275.833 -786.923 225.5 -736.77 C 175.167 -686.61 150 -625.707 150 -554.06 C 150 -482.407 175.147 -421.65 225.44 -371.79 C 275.733 -321.93 336.803 -297 408.65 -297 Z M 409 -203 C 310.72 -203 227.317 -237.267 158.79 -305.8 C 90.263 -374.333 56 -457.4 56 -555 C 56 -652.593 90.337 -735.493 159.01 -803.7 C 227.683 -871.9 310.92 -906 408.72 -906 C 506.247 -906 589.173 -871.9 657.5 -803.7 C 725.833 -735.5 760 -652.6 760 -555 C 760 -514.293 753.5 -475.95 740.5 -439.97 C 727.5 -403.99 709.667 -371 687 -341 L 873 -155 C 882.333 -145.8 887 -134.913 887 -122.34 C 887 -109.76 882.317 -98.56 872.95 -88.74 C 863.977 -79.58 852.897 -75 839.71 -75 C 826.523 -75 815.287 -79.667 806 -89 L 621 -275 C 590.44 -252.42 557.473 -234.777 522.1 -222.07 C 486.72 -209.357 449.02 -203 409 -203 Z M 409 -555 Z"/>
</svg>