<?xml version="1.0" encoding="utf-8"?>
<svg height="22" width="22" xmlns="http://www.w3.org/2000/svg">
  <path d="M 19.5 4 L 19.5 5 C 19.5 5.276 19.276 5.5 19 5.5 L 17.5 5.5 L 17.5 18.5 L 19 18.5 C 19.276 18.5 19.5 18.724 19.5 19 L 19.5 20 C 19.5 20.276 19.276 20.5 19 20.5 L 14 20.5 C 13.724 20.5 13.5 20.276 13.5 20 L 13.5 19 C 13.5 18.724 13.724 18.5 14 18.5 L 15.5 18.5 L 15.5 5.5 L 14 5.5 C 13.724 5.5 13.5 5.276 13.5 5 L 13.5 4 C 13.5 3.724 13.724 3.5 14 3.5 L 19 3.5 C 19.276 3.5 19.5 3.724 19.5 4 Z M 9.462 4.808 L 14.462 16.808 C 14.526 16.962 14.509 17.138 14.416 17.277 C 14.323 17.416 14.167 17.5 14 17.5 L 12.918 17.5 C 12.716 17.5 12.534 17.379 12.456 17.192 L 10.919 13.5 L 6.081 13.5 L 4.544 17.192 C 4.466 17.379 4.284 17.5 4.082 17.5 L 3 17.5 C 2.833 17.5 2.677 17.416 2.584 17.277 C 2.491 17.138 2.474 16.962 2.538 16.808 L 7.538 4.808 C 7.616 4.621 7.798 4.5 8 4.5 L 9 4.5 C 9.202 4.5 9.384 4.621 9.462 4.808 Z M 6.914 11.5 L 10.086 11.5 L 8.5 7.695 Z"/>
</svg>