<?xml version="1.0" encoding="utf-8"?>
<svg xmlns="http://www.w3.org/2000/svg" height="48" viewBox="0 -960 960 960" width="48">
  <path d="M 149 -135 C 131.982 -135 116.612 -138.914 102.89 -146.743 C 95.618 -150.881 88.809 -156.106 82.464 -162.41 C 75.676 -169.231 70.146 -176.577 65.874 -184.446 C 58.625 -197.769 55 -212.621 55 -229 L 55 -731 C 55 -757.307 64.157 -779.717 82.47 -798.23 C 100.79 -816.743 122.967 -826 149 -826 L 812.001 -826 C 838.041 -826 860.221 -816.6 878.539 -798.2 C 896.84 -779.59 906 -757.19 906 -731 L 906 -229 C 906 -203 896.84 -180.8 878.539 -162.4 C 860.221 -144.2 838.041 -135 812.001 -135 Z M 811.025 -509.279 C 811.008 -509.849 811 -510.422 811 -511 L 811 -631 L 150.004 -631 L 150.004 -510.99 C 150.004 -507.343 149.671 -503.859 149.004 -500.538 L 149.004 -229 L 812.001 -229 L 812.001 -500.543 C 811.44 -503.339 811.114 -506.251 811.025 -509.279 Z"/>
</svg>