<?xml version="1.0" encoding="utf-8"?>
<svg xmlns="http://www.w3.org/2000/svg" height="48" viewBox="0 -960 960 960" width="48">
  <path d="M 280 -217 C 207.553 -217 145.61 -242.747 94.17 -294.24 C 42.723 -345.727 17 -407.727 17 -480.24 C 17 -552.747 42.723 -614.667 94.17 -666 C 145.61 -717.333 207.553 -743 280 -743 C 339.333 -743 388.667 -728.333 428 -699 C 467.333 -669.667 495 -634.667 511 -594 L 849 -594 C 874.867 -594 897 -584.8 915.4 -566.4 C 933.8 -548 943 -525.867 943 -500 L 943 -460 C 943 -438.093 936.96 -419.617 924.88 -404.57 C 912.793 -389.523 898.833 -379 883 -373 L 837 -373 L 837 -319 C 836.333 -293.833 827.037 -272.543 809.11 -255.13 C 791.177 -237.71 769.14 -229 743 -229 L 723 -229 C 696.307 -229 674.467 -237.543 657.48 -254.63 C 640.493 -271.71 631.333 -290.5 630 -311 L 630 -366 L 511 -366 C 495 -325.333 467.333 -290.333 428 -261 C 388.667 -231.667 339.333 -217 280 -217 Z M 280 -300 C 330.667 -300 371.333 -317.333 402 -352 C 432.667 -386.667 449.217 -418.667 451.65 -448 L 715 -448 L 715 -311 L 754 -311 L 754 -448 L 860 -448 L 860 -512 L 452 -512 C 449.333 -541.333 432.667 -573.333 402 -608 C 371.333 -642.667 330.667 -660 280 -660 C 230 -660 187.5 -642.5 152.5 -607.5 C 117.5 -572.5 100 -530 100 -480 C 100 -430 117.5 -387.5 152.5 -352.5 C 187.5 -317.5 230 -300 280 -300 Z M 186.963 -440.18 C 176.276 -440.18 167.066 -444.11 159.333 -451.73 C 151.601 -459.34 147.723 -468.8 147.723 -479.67 C 147.723 -490.73 151.601 -499.96 159.333 -508.03 C 167.066 -515.89 176.276 -519.82 186.963 -519.82 L 242.362 -519.82 L 242.362 -574.06 C 242.362 -585.13 246.031 -594.61 253.327 -602.44 C 260.643 -610.53 269.992 -614.46 281.395 -614.46 C 292.474 -614.46 302.008 -610.53 310.018 -602.44 C 318.004 -594.61 321.997 -585.13 321.997 -574.06 L 321.997 -519.82 L 376.242 -519.82 C 386.952 -519.82 396.162 -515.89 403.895 -508.03 C 411.627 -500.2 415.482 -490.73 415.482 -479.67 C 415.482 -468.8 411.627 -459.56 403.895 -451.94 C 396.162 -444.11 386.952 -440.18 376.242 -440.18 L 321.997 -440.18 L 321.997 -385.95 C 321.997 -374.86 318.166 -365.4 310.457 -357.54 C 302.77 -349.47 293.213 -345.54 281.81 -345.54 C 270.408 -345.54 260.989 -349.47 253.534 -357.54 C 246.101 -365.4 242.362 -374.86 242.362 -385.95 L 242.362 -440.18 Z"/>
</svg>