<?xml version="1.0" encoding="utf-8"?>
<svg xmlns="http://www.w3.org/2000/svg" height="48" viewBox="0 -960 960 960" width="48">
  <path d="M 280 -217 C 207.553 -217 145.61 -242.747 94.17 -294.24 C 42.723 -345.727 17 -407.727 17 -480.24 C 17 -552.747 42.723 -614.667 94.17 -666 C 145.61 -717.333 207.553 -743 280 -743 C 339.333 -743 388.667 -728.333 428 -699 C 467.333 -669.667 495 -634.667 511 -594 L 849 -594 C 874.867 -594 897 -584.8 915.4 -566.4 C 933.8 -548 943 -525.867 943 -500 L 943 -460 C 943 -438.093 936.96 -419.617 924.88 -404.57 C 912.793 -389.523 898.833 -379 883 -373 L 837 -373 L 837 -319 C 836.333 -293.833 827.037 -272.543 809.11 -255.13 C 791.177 -237.71 769.14 -229 743 -229 L 723 -229 C 696.307 -229 674.467 -237.543 657.48 -254.63 C 640.493 -271.71 631.333 -290.5 630 -311 L 630 -366 L 511 -366 C 495 -325.333 467.333 -290.333 428 -261 C 388.667 -231.667 339.333 -217 280 -217 Z M 280 -300 C 330.667 -300 371.333 -317.333 402 -352 C 432.667 -386.667 449.217 -418.667 451.65 -448 L 715 -448 L 715 -311 L 754 -311 L 754 -448 L 860 -448 L 860 -512 L 452 -512 C 449.333 -541.333 432.667 -573.333 402 -608 C 371.333 -642.667 330.667 -660 280 -660 C 230 -660 187.5 -642.5 152.5 -607.5 C 117.5 -572.5 100 -530 100 -480 C 100 -430 117.5 -387.5 152.5 -352.5 C 187.5 -317.5 230 -300 280 -300 Z M 186.525 -518.763 C 178.968 -526.32 175.235 -535.611 175.155 -546.468 C 175.069 -557.316 179.016 -566.748 186.702 -574.434 C 194.523 -582.254 203.791 -586.039 214.965 -586.278 C 225.991 -586.368 235.282 -582.634 242.839 -575.077 L 282.012 -535.904 L 320.366 -574.258 C 328.193 -582.085 337.491 -586.194 348.187 -586.572 C 359.081 -587.119 368.47 -583.287 376.533 -575.224 C 384.367 -567.39 388.33 -557.87 388.273 -546.485 C 388.384 -535.302 384.504 -525.775 376.676 -517.947 L 338.323 -479.594 L 376.68 -441.237 C 384.253 -433.664 387.986 -424.372 387.897 -413.346 C 387.827 -402.342 383.857 -392.92 376.036 -385.1 C 368.35 -377.413 359.09 -373.606 348.235 -373.685 C 337.23 -373.616 327.939 -377.35 320.366 -384.923 L 282.009 -423.28 L 243.662 -384.933 C 235.82 -377.092 226.422 -373.111 215.413 -373.004 C 204.272 -372.734 194.735 -376.713 186.672 -384.776 C 178.609 -392.838 174.728 -402.277 175.163 -413.255 C 175.465 -424.069 179.51 -433.402 187.352 -441.244 L 225.698 -479.59 Z"/>
</svg>