<?xml version="1.0" encoding="utf-8"?>
<svg xmlns="http://www.w3.org/2000/svg" height="48" viewBox="0 -960 960 960" width="48">
  <path d="M 392.401 -192.78 C 366.807 -185.93 341.264 -184.08 315.775 -187.25 C 290.285 -190.41 266.205 -198.72 243.536 -212.18 C 221.1 -224.77 202.168 -241.19 186.74 -261.47 C 171.31 -281.75 160.109 -304.9 153.134 -330.93 C 143.254 -367.8 143.523 -403.67 153.939 -438.55 C 164.355 -473.42 182.885 -501.87 209.533 -523.88 C 213.01 -543.88 220.304 -563.5 231.42 -582.75 C 242.534 -602 256.357 -618.95 272.886 -633.61 C 279.065 -667.82 294.897 -698.09 320.381 -724.45 C 345.865 -750.81 376.393 -768.75 411.964 -778.28 C 437.558 -785.14 462.993 -786.96 488.266 -783.74 C 513.539 -780.51 537.293 -772.12 559.528 -758.54 C 581.644 -745.4 600.635 -728.76 616.498 -708.6 C 632.361 -688.44 643.722 -665.56 650.579 -639.96 C 659.878 -605.26 660.526 -571.62 652.523 -539.02 C 644.52 -506.41 625.231 -476.02 594.658 -447.84 C 591.585 -429.81 584.237 -409.95 572.62 -388.23 C 561.002 -366.52 547.229 -349.81 531.303 -338.11 C 525.241 -303.47 510.118 -273.15 485.938 -247.14 C 461.754 -221.13 430.576 -203.01 392.401 -192.78 Z M 379.23 -247.14 C 395.398 -251.01 410.33 -258.62 424.029 -269.96 C 437.728 -281.3 447.071 -294.15 452.058 -308.51 C 426.93 -299.91 401.685 -296.52 376.327 -298.33 C 350.968 -300.13 327.129 -307.11 304.81 -319.26 C 282.374 -331.86 264.202 -348.49 250.291 -369.17 C 236.38 -389.85 226.862 -413.22 221.741 -439.28 C 212.586 -426.59 206.789 -411.79 204.35 -394.87 C 201.91 -377.94 202.841 -361.46 207.143 -345.4 C 212.141 -326.74 220.073 -310.16 230.939 -295.63 C 241.804 -281.11 255.43 -269.3 271.815 -260.21 C 287.65 -251.43 304.711 -245.89 322.996 -243.59 C 341.281 -241.28 360.026 -242.47 379.23 -247.14 Z M 439.076 -351.75 C 454.692 -355.94 469.003 -363.26 482.009 -373.72 C 495.015 -384.18 504.937 -396.6 511.776 -410.98 C 487.081 -402.51 461.995 -399.39 436.52 -401.63 C 411.045 -403.87 387.249 -411.56 365.132 -424.7 C 342.464 -438.15 323.929 -455.27 309.526 -476.05 C 295.124 -496.83 285.794 -520.37 281.539 -546.66 C 271.176 -528.08 265.048 -511.91 263.155 -498.15 C 261.262 -484.39 262.814 -468.19 267.812 -449.53 C 272.812 -430.88 280.852 -414.32 291.934 -399.85 C 303.017 -385.38 316.534 -373.55 332.485 -364.34 C 348.435 -355.13 365.525 -349.48 383.753 -347.39 C 401.981 -345.3 420.421 -346.76 439.076 -351.75 Z M 500.524 -458.19 C 507.898 -460.16 514.665 -462.67 520.823 -465.72 C 526.981 -468.76 534.15 -473.24 542.331 -479.15 C 543.311 -504.99 537.707 -528.94 525.516 -551.01 C 513.326 -573.08 495.187 -590.89 471.101 -604.43 C 449.533 -617.25 424.785 -623.29 396.854 -622.54 C 368.924 -621.8 344.711 -615.43 324.214 -603.43 C 324.137 -595.04 324.594 -587.26 325.587 -580.08 C 326.58 -572.91 328.354 -564.56 330.912 -555.01 C 335.676 -537.23 343.522 -520.96 354.446 -506.22 C 365.369 -491.49 379.025 -479.56 395.409 -470.47 C 411.593 -460.39 428.603 -454.61 446.439 -453.11 C 464.276 -451.61 482.305 -453.3 500.524 -458.19 Z M 586.354 -533.49 C 595.074 -546.06 600.238 -559.76 601.84 -574.6 C 603.441 -589.45 601.628 -606.63 596.397 -626.15 C 591.515 -644.37 583.671 -660.63 572.863 -674.94 C 562.054 -689.25 548.617 -701.22 532.55 -710.86 C 516.166 -719.95 499.046 -725.71 481.194 -728.14 C 463.343 -730.56 445.523 -729.38 427.737 -724.62 C 409.951 -719.86 394.439 -712.68 381.201 -703.09 C 367.963 -693.49 357.274 -681.33 349.133 -666.6 C 373.511 -674.52 398.685 -677.32 424.651 -674.97 C 450.617 -672.64 475.368 -664.86 498.903 -651.63 C 522.44 -638.42 541.567 -621.69 556.287 -601.45 C 571.008 -581.21 581.03 -558.57 586.354 -533.49 Z M 70.992 -113.14 C 61.184 -113.14 52.952 -116.55 46.269 -123.23 C 39.592 -130.06 36.251 -138.22 36.251 -148.02 L 38.784 -811.96 C 38.784 -821.76 42.165 -830.07 48.937 -836.75 C 55.7 -843.42 63.986 -846.86 73.795 -846.86 C 83.61 -846.86 91.843 -843.42 98.523 -836.75 C 105.201 -830.07 108.54 -821.76 108.54 -811.96 L 106.008 -148.02 C 106.008 -138.22 102.624 -130.06 95.856 -123.23 C 89.087 -116.55 80.807 -113.14 70.992 -113.14 Z M 803.536 -476.65 L 710.265 -476.65 C 700.499 -476.65 692.232 -480.06 685.494 -486.9 C 678.756 -493.58 675.387 -501.89 675.387 -511.68 C 675.387 -521.47 678.756 -529.79 685.494 -536.46 C 692.232 -543.15 700.499 -546.4 710.265 -546.4 L 803.536 -546.4 L 716.71 -634.72 C 709.289 -641.7 705.698 -649.86 705.95 -659.21 C 706.202 -668.7 709.779 -676.87 716.71 -683.7 C 723.641 -690.67 731.67 -694.08 740.827 -694.08 C 749.985 -694.08 758.266 -690.67 765.687 -683.7 L 912.621 -536.77 C 916.076 -533.35 918.811 -529.34 920.785 -524.89 C 922.759 -520.28 923.749 -515.84 923.749 -511.53 C 923.749 -507.09 922.759 -502.63 920.785 -498.17 C 918.811 -493.73 916.076 -489.87 912.621 -486.3 L 765.687 -339.36 C 758.267 -332.54 749.941 -328.82 740.709 -328.68 C 731.477 -328.38 723.434 -331.65 716.591 -338.32 C 709.244 -345.45 705.578 -353.91 705.578 -363.85 C 705.578 -373.8 709.036 -382.12 715.968 -389.08 L 803.536 -476.65 Z" style=""/>
</svg>