<?xml version="1.0" encoding="utf-8"?>
<svg xmlns="http://www.w3.org/2000/svg" height="48" viewBox="0 -960 960 960" width="48">
  <path d="M 378.246 -645 C 368.916 -654.33 364.246 -665.33 364.246 -678 C 364.246 -690.67 368.916 -701.67 378.246 -711 C 387.576 -720.33 398.576 -725 411.246 -725 C 423.916 -725 434.916 -720.33 444.246 -711 L 642.246 -514 C 646.916 -509.33 650.576 -504 653.246 -498 C 655.916 -492 657.246 -486 657.246 -480 C 657.246 -474 655.916 -468 653.246 -462 C 650.576 -456 646.916 -450.67 642.246 -446 L 444.246 -249 C 434.916 -239.67 423.916 -235 411.246 -235 C 398.576 -235 387.576 -239.67 378.246 -249 C 369.576 -258.33 365.076 -269.33 364.746 -282 C 364.416 -294.67 368.916 -305.67 378.246 -315 L 544.246 -480 L 378.246 -645 Z M 206.931 -337.23 C 199.317 -344.62 195.5 -354.01 195.5 -365 C 195.5 -376 199.257 -385.38 206.791 -392.98 C 214.305 -400.56 223.576 -404.37 234.607 -404.37 C 245.637 -404.37 254.969 -400.56 262.562 -393.19 C 270.176 -385.58 273.992 -376.38 273.992 -365.4 C 273.992 -354.4 270.235 -345.01 262.722 -337.23 C 255.208 -329.83 245.936 -326.04 234.906 -326.04 C 223.856 -326.04 214.544 -329.63 206.931 -337.23 Z M 206.931 -465.92 C 199.317 -473.31 195.5 -483.1 195.5 -494.69 L 195.5 -594.79 C 195.5 -605.78 199.257 -614.98 206.791 -622.77 C 214.305 -630.17 223.576 -633.97 234.607 -633.97 C 245.637 -633.97 254.969 -630.17 262.562 -622.77 C 270.176 -614.98 273.992 -605.78 273.992 -594.79 L 273.992 -494.69 C 273.992 -483.1 270.235 -473.31 262.722 -465.92 C 255.208 -458.31 245.936 -454.52 234.906 -454.52 C 223.856 -454.52 214.544 -458.31 206.931 -465.92 Z" style=""/>
</svg>