<?xml version="1.0" encoding="utf-8"?>
<svg xmlns="http://www.w3.org/2000/svg" height="48" viewBox="0 -960 960 960" width="48">
  <path d="M 308.5 -480 L 474.5 -315 C 483.83 -305.67 488.33 -294.67 488 -282 C 487.67 -269.33 483.17 -258.33 474.5 -249 C 465.17 -239.67 454.17 -235 441.5 -235 C 428.83 -235 417.83 -239.67 408.5 -249 L 210.5 -446 C 205.83 -450.67 202.17 -456 199.5 -462 C 196.83 -468 195.5 -474 195.5 -480 C 195.5 -486 196.83 -492 199.5 -498 C 202.17 -504 205.83 -509.33 210.5 -514 L 408.5 -711 C 417.83 -720.33 428.83 -725 441.5 -725 C 454.17 -725 465.17 -720.33 474.5 -711 C 483.83 -701.67 488.5 -690.67 488.5 -678 C 488.5 -665.33 483.83 -654.33 474.5 -645 Z M 617.84 -326.04 C 606.81 -326.04 597.538 -329.83 590.024 -337.23 C 582.511 -345.01 578.754 -354.4 578.754 -365.4 C 578.754 -376.38 582.57 -385.58 590.184 -393.19 C 597.777 -400.56 607.109 -404.37 618.139 -404.37 C 629.17 -404.37 638.441 -400.56 645.955 -392.98 C 653.489 -385.38 657.246 -376 657.246 -365 C 657.246 -354.01 653.429 -344.62 645.815 -337.23 C 638.202 -329.63 628.89 -326.04 617.84 -326.04 Z M 617.84 -454.52 C 606.81 -454.52 597.538 -458.31 590.024 -465.92 C 582.511 -473.31 578.754 -483.1 578.754 -494.69 L 578.754 -594.79 C 578.754 -605.78 582.57 -614.98 590.184 -622.77 C 597.777 -630.17 607.109 -633.97 618.139 -633.97 C 629.17 -633.97 638.441 -630.17 645.955 -622.77 C 653.489 -614.98 657.246 -605.78 657.246 -594.79 L 657.246 -494.69 C 657.246 -483.1 653.429 -473.31 645.815 -465.92 C 638.202 -458.31 628.89 -454.52 617.84 -454.52 Z" style=""/>
</svg>