<?xml version="1.0" encoding="utf-8"?>
<svg xmlns="http://www.w3.org/2000/svg" viewBox="0 0 22 22">
  <defs id="defs3051">
  </defs>
  <path d="M 19.5 3 L 19.5 19 C 19.5 19.276 19.276 19.5 19 19.5 L 3 19.5 C 2.724 19.5 2.5 19.276 2.5 19 L 2.5 3 C 2.5 2.724 2.724 2.5 3 2.5 L 19 2.5 C 19.276 2.5 19.5 2.724 19.5 3 Z M 4.5 17.5 L 9.5 17.5 L 9.5 14.156 C 8.973 13.895 8.554 13.594 8.157 13.042 C 7.761 12.491 7.5 11.735 7.5 11 C 7.5 10.069 7.919 9.131 8.525 8.525 C 9.131 7.919 10.069 7.5 11 7.5 C 11.931 7.5 12.869 7.919 13.475 8.525 C 14.081 9.131 14.5 10.069 14.5 11 C 14.5 11.735 14.239 12.491 13.843 13.042 C 13.446 13.594 13.025 13.893 12.5 14.155 L 12.5 17.5 L 17.5 17.5 L 17.5 4.5 L 4.5 4.5 Z M 10.647 10.647 C 10.529 10.765 10.5 10.826 10.5 11 C 10.5 11.174 10.529 11.235 10.647 11.353 C 10.765 11.471 10.826 11.5 11 11.5 C 11.174 11.5 11.235 11.471 11.353 11.353 C 11.471 11.235 11.5 11.174 11.5 11 C 11.5 10.826 11.471 10.765 11.353 10.647 C 11.235 10.529 11.174 10.5 11 10.5 C 10.826 10.5 10.765 10.529 10.647 10.647 Z" class="ColorScheme-Text"/>
</svg>