<?xml version="1.0" encoding="utf-8"?>
<svg xmlns="http://www.w3.org/2000/svg" viewBox="0 0 22 22">
  <defs id="defs3051">
  </defs>
  <path d="M 19.5 3 L 19.5 19 C 19.5 19.276 19.276 19.5 19 19.5 L 3 19.5 C 2.724 19.5 2.5 19.276 2.5 19 L 2.5 3 C 2.5 2.724 2.724 2.5 3 2.5 L 19 2.5 C 19.276 2.5 19.5 2.724 19.5 3 Z M 4.5 17.5 L 17.5 17.5 L 17.5 12.5 L 14.156 12.5 C 13.895 13.027 13.594 13.446 13.042 13.843 C 12.491 14.239 11.735 14.5 11 14.5 C 10.265 14.5 9.509 14.239 8.958 13.843 C 8.406 13.446 8.107 13.025 7.845 12.5 L 4.5 12.5 Z M 17.5 9.5 L 17.5 4.5 L 4.5 4.5 L 4.5 9.5 L 7.844 9.5 C 8.105 8.973 8.406 8.554 8.958 8.157 C 9.509 7.761 10.265 7.5 11 7.5 C 11.735 7.5 12.491 7.761 13.042 8.157 C 13.594 8.554 13.893 8.975 14.155 9.5 Z M 10.647 10.647 C 10.529 10.765 10.5 10.826 10.5 11 C 10.5 11.174 10.529 11.235 10.647 11.353 C 10.765 11.471 10.826 11.5 11 11.5 C 11.174 11.5 11.235 11.471 11.353 11.353 C 11.471 11.235 11.5 11.174 11.5 11 C 11.5 10.826 11.471 10.765 11.353 10.647 C 11.235 10.529 11.174 10.5 11 10.5 C 10.826 10.5 10.765 10.529 10.647 10.647 Z" class="ColorScheme-Text"/>
</svg>