<?xml version="1.0" encoding="utf-8"?>
<svg viewBox="0 0 22 22" xmlns="http://www.w3.org/2000/svg">
  <path d="M 11 6.303 L 11 6.303 L 11 6.303 Z M 12.5 9.5 L 17 9.5 C 17.191 9.5 17.365 9.609 17.449 9.78 C 17.533 9.952 17.512 10.156 17.395 10.307 L 10.395 19.307 C 10.264 19.476 10.04 19.542 9.838 19.473 C 9.636 19.404 9.5 19.214 9.5 19 L 9.5 13.5 L 5 13.5 C 4.814 13.5 4.643 13.396 4.557 13.231 C 4.47 13.066 4.483 12.866 4.59 12.713 L 11.59 2.713 C 11.716 2.534 11.942 2.458 12.15 2.523 C 12.358 2.589 12.5 2.782 12.5 3 Z M 10.5 11.5 L 10.5 7.015 L 7.351 11.5 Z M 11.5 14.339 L 13.918 11.5 L 11.5 11.5 Z"/>
</svg>