<?xml version="1.0" encoding="utf-8"?>
<svg xmlns="http://www.w3.org/2000/svg" height="48" viewBox="0 -960 960 960" width="48">
  <path d="M 617.993 -637.36 L 617.993 -568.1 C 617.993 -558 614.51 -549.67 607.582 -543.14 C 600.634 -536.62 592.185 -533.43 582.249 -533.43 C 572.295 -533.43 563.883 -536.62 557.013 -543.53 C 550.166 -550.27 546.743 -558.79 546.743 -568.88 L 546.743 -729.2 C 546.743 -742.45 551.196 -753.53 560.102 -762.45 C 569.009 -771.34 580.39 -775.88 594.243 -775.88 L 753.566 -775.88 C 763.443 -775.88 771.834 -772.53 778.78 -766 C 785.706 -759.48 789.19 -751.15 789.19 -741.07 C 789.19 -731.17 785.706 -722.66 778.78 -715.92 C 771.834 -709 763.443 -705.63 753.566 -705.63 L 683.305 -705.63 C 706.382 -684.45 727.658 -660.71 747.134 -634.18 C 766.59 -607.86 781.591 -580.75 792.16 -553.25 C 796.771 -540.57 795.939 -528.5 789.686 -517.02 C 783.411 -505.54 773.675 -498.21 760.493 -495.25 C 747.945 -492.27 735.911 -494.06 724.372 -500.6 C 712.815 -507.31 704.086 -516.43 698.149 -528.5 C 690.233 -549.49 679.841 -568.88 666.977 -586.29 C 654.113 -603.7 637.785 -620.74 617.993 -637.36 Z M 339.921 -251.41 L 339.921 -320.69 C 339.921 -330.58 343.384 -338.89 350.33 -345.43 C 357.257 -351.96 365.708 -355.32 375.664 -355.32 C 385.619 -355.32 394.011 -351.76 400.878 -345.04 C 407.727 -338.31 411.171 -329.79 411.171 -319.69 L 411.171 -159.19 C 411.171 -146.13 406.718 -135.06 397.81 -126.14 C 388.906 -117.22 377.524 -112.88 363.67 -112.88 L 204.347 -112.88 C 194.472 -112.88 186.06 -116.05 179.113 -122.58 C 172.185 -129.1 168.722 -137.41 168.722 -147.5 C 168.722 -157.41 172.185 -165.91 179.113 -172.63 C 186.06 -179.56 194.472 -182.94 204.347 -182.94 L 274.607 -182.94 C 251.513 -204.12 230.235 -227.88 210.781 -254.19 C 191.305 -280.71 176.303 -307.63 165.753 -335.55 C 161.122 -348 161.953 -360.08 168.227 -371.56 C 174.483 -383.04 184.219 -390.35 197.42 -393.32 C 209.949 -396.3 221.982 -394.51 233.54 -387.79 C 245.079 -381.25 253.825 -371.94 259.763 -360.25 C 267.68 -339.08 278.07 -319.69 290.936 -302.27 C 303.801 -284.88 320.129 -267.85 339.921 -251.41 Z M 250.586 -489.4 C 198.088 -489.4 153.353 -507.93 116.383 -544.8 C 79.412 -581.88 60.937 -626.52 60.937 -678.93 C 60.937 -732.04 79.412 -776.87 116.365 -813.75 C 153.318 -850.47 198.017 -868.8 250.445 -868.8 C 303.509 -868.8 348.437 -850.47 385.195 -813.75 C 421.954 -777.04 440.342 -732.23 440.342 -679.11 C 440.342 -626.52 421.988 -581.88 385.302 -545 C 348.631 -507.93 303.721 -489.4 250.586 -489.4 Z M 250.745 -573.24 C 280.374 -573.24 305.555 -583.47 326.29 -603.93 C 347.026 -624.4 357.402 -649.63 357.402 -679.28 C 357.402 -708.93 347.026 -733.99 326.29 -754.8 C 305.555 -775.63 280.374 -785.88 250.745 -785.88 C 221.063 -785.88 195.988 -775.63 175.482 -754.8 C 154.994 -733.99 144.758 -708.93 144.758 -679.28 C 144.758 -649.63 154.994 -624.4 175.482 -603.93 C 195.988 -583.47 221.063 -573.24 250.745 -573.24 Z M 615.663 -465.98 C 627.393 -467.03 638.913 -463.11 647.573 -455.18 C 656.213 -447.26 661.203 -436.04 661.203 -424.28 L 661.203 -177.46 C 661.203 -167.41 657.743 -158.92 650.823 -152 C 643.913 -145.06 634.883 -141.59 624.513 -141.59 C 614.323 -141.59 605.873 -145.06 598.963 -152 C 592.043 -158.92 588.773 -167.41 588.773 -177.46 L 588.773 -353.06 L 534.593 -298.86 C 527.293 -291.74 519.033 -288.16 509.613 -288.16 C 500.013 -288.16 491.365 -291.64 483.875 -298.56 C 476.955 -305.38 473.495 -313.77 473.495 -323.74 C 473.495 -333.73 476.955 -342.23 484.065 -349.24 L 588.583 -453.8 C 595.693 -460.73 604.723 -465.02 614.513 -465.88 L 615.663 -465.98 Z M 756.883 -91.364 C 745.163 -90.308 733.633 -94.227 724.803 -102.16 C 716.153 -110.08 711.343 -121.3 711.343 -133.06 L 711.343 -379.88 C 711.343 -389.93 714.803 -398.43 721.733 -405.34 C 728.643 -412.28 737.483 -415.75 748.043 -415.75 C 758.223 -415.75 766.683 -412.28 773.603 -405.34 C 780.513 -398.43 783.773 -389.93 783.773 -379.88 L 783.773 -204.28 L 837.963 -258.48 C 845.073 -265.61 853.333 -269.18 862.943 -269.18 C 872.543 -269.18 881.003 -265.7 888.503 -258.79 C 895.603 -251.96 899.063 -243.57 899.063 -233.6 C 899.063 -223.61 895.603 -215.11 888.303 -208.1 L 783.773 -103.55 C 776.863 -96.61 767.833 -92.325 758.033 -91.46 L 756.883 -91.364 Z" style=""/>
</svg>