<?xml version="1.0" encoding="utf-8"?>
<svg xmlns="http://www.w3.org/2000/svg" height="48" viewBox="0 -960 960 960" width="48">
  <path d="M 635.593 -650.01 L 635.593 -580.75 C 635.593 -570.66 632.11 -562.33 625.182 -555.8 C 618.234 -549.27 609.785 -546.09 599.849 -546.09 C 589.895 -546.09 581.483 -549.27 574.613 -556.19 C 567.766 -562.93 564.343 -571.45 564.343 -581.53 L 564.343 -741.85 C 564.343 -755.1 568.796 -766.19 577.702 -775.1 C 586.609 -783.99 597.99 -788.54 611.843 -788.54 L 771.166 -788.54 C 781.043 -788.54 789.434 -785.19 796.38 -778.65 C 803.306 -772.13 806.79 -763.81 806.79 -753.72 C 806.79 -743.83 803.306 -735.32 796.38 -728.58 C 789.434 -721.65 781.043 -718.29 771.166 -718.29 L 700.905 -718.29 C 723.982 -697.1 745.258 -673.36 764.734 -646.84 C 784.19 -620.51 799.191 -593.4 809.76 -565.9 C 814.371 -553.22 813.539 -541.16 807.286 -529.68 C 801.011 -518.19 791.275 -510.87 778.093 -507.91 C 765.545 -504.93 753.511 -506.71 741.972 -513.25 C 730.415 -519.97 721.686 -529.09 715.749 -541.16 C 707.833 -562.14 697.441 -581.53 684.577 -598.95 C 671.713 -616.35 655.385 -633.39 635.593 -650.01 Z M 357.521 -264.07 L 357.521 -333.34 C 357.521 -343.24 360.984 -351.55 367.93 -358.08 C 374.857 -364.62 383.308 -367.98 393.264 -367.98 C 403.219 -367.98 411.611 -364.42 418.478 -357.69 C 425.327 -350.96 428.771 -342.44 428.771 -332.35 L 428.771 -171.84 C 428.771 -158.78 424.318 -147.71 415.41 -138.8 C 406.506 -129.88 395.124 -125.53 381.27 -125.53 L 221.947 -125.53 C 212.072 -125.53 203.66 -128.7 196.713 -135.23 C 189.785 -141.76 186.322 -150.07 186.322 -160.16 C 186.322 -170.06 189.785 -178.57 196.713 -185.29 C 203.66 -192.22 212.072 -195.59 221.947 -195.59 L 292.207 -195.59 C 269.113 -216.77 247.835 -240.53 228.381 -266.84 C 208.905 -293.37 193.903 -320.29 183.353 -348.2 C 178.722 -360.66 179.553 -372.74 185.827 -384.21 C 192.083 -395.69 201.819 -403 215.02 -405.98 C 227.549 -408.95 239.582 -407.17 251.14 -400.44 C 262.679 -393.9 271.425 -384.59 277.363 -372.91 C 285.28 -351.74 295.67 -332.35 308.536 -314.93 C 321.401 -297.53 337.729 -280.5 357.521 -264.07 Z M 268.186 -502.06 C 215.688 -502.06 170.953 -520.58 133.983 -557.46 C 97.012 -594.53 78.537 -639.18 78.537 -691.59 C 78.537 -744.7 97.012 -789.52 133.965 -826.41 C 170.918 -863.12 215.617 -881.46 268.045 -881.46 C 321.109 -881.46 366.037 -863.12 402.795 -826.41 C 439.554 -789.7 457.942 -744.88 457.942 -691.76 C 457.942 -639.18 439.588 -594.53 402.902 -557.65 C 366.231 -520.58 321.321 -502.06 268.186 -502.06 Z M 268.345 -585.89 C 297.974 -585.89 323.155 -596.12 343.89 -616.59 C 364.626 -637.06 375.002 -662.29 375.002 -691.94 C 375.002 -721.59 364.626 -746.64 343.89 -767.46 C 323.155 -788.29 297.974 -798.53 268.345 -798.53 C 238.663 -798.53 213.588 -788.29 193.082 -767.46 C 172.594 -746.64 162.358 -721.59 162.358 -691.94 C 162.358 -662.29 172.594 -637.06 193.082 -616.59 C 213.588 -596.12 238.663 -585.89 268.345 -585.89 Z M 621.174 -78.541 C 597.528 -78.541 577.64 -86.657 561.529 -102.72 C 545.399 -118.78 537.352 -138.71 537.352 -162.36 L 537.352 -339.71 C 537.352 -362.48 545.399 -382.06 561.529 -398.29 C 577.64 -414.53 597.528 -422.64 621.174 -422.64 L 798.523 -422.64 C 821.323 -422.64 840.841 -414.53 857.093 -398.29 C 873.346 -382.06 881.463 -362.48 881.463 -339.71 L 881.463 -162.36 C 881.463 -138.71 873.346 -118.78 857.093 -102.72 C 840.841 -86.657 821.323 -78.541 798.523 -78.541 L 621.174 -78.541 Z M 621.174 -162.36 L 798.523 -162.36 L 798.523 -339.71 L 621.174 -339.71 L 621.174 -162.36 Z" style=""/>
</svg>