<?xml version="1.0" encoding="utf-8"?>
<svg xmlns="http://www.w3.org/2000/svg" height="48" viewBox="0 -960 960 960" width="48">
  <path d="M 354.636 -269 C 372.056 -256.14 391.446 -245.75 412.426 -237.83 C 424.496 -231.9 433.616 -223.17 440.336 -211.61 C 446.876 -200.07 448.656 -188.04 445.676 -175.49 C 442.716 -162.31 435.396 -152.57 423.906 -146.3 C 412.426 -140.04 400.366 -139.21 387.686 -143.82 C 360.186 -154.39 333.076 -169.39 306.746 -188.85 C 280.226 -208.32 256.486 -229.6 235.296 -252.68 L 235.296 -182.42 C 235.296 -172.54 231.936 -164.15 225.006 -157.2 C 218.266 -150.28 209.756 -146.79 199.866 -146.79 C 189.776 -146.79 181.456 -150.28 174.936 -157.2 C 168.396 -164.15 165.046 -172.54 165.046 -182.42 L 165.046 -341.74 C 165.046 -355.59 169.596 -366.97 178.486 -375.88 C 187.396 -384.79 198.486 -389.24 211.736 -389.24 L 372.056 -389.24 C 382.136 -389.24 390.656 -385.82 397.396 -378.97 C 404.316 -372.1 407.496 -363.69 407.496 -353.73 C 407.496 -343.8 404.316 -335.35 397.786 -328.4 C 391.256 -321.47 382.926 -317.99 372.836 -317.99 L 303.576 -317.99 C 320.196 -298.2 337.236 -281.87 354.636 -269 Z M 621.174 -78.541 C 597.528 -78.541 577.64 -86.657 561.529 -102.72 C 545.399 -118.78 537.352 -138.71 537.352 -162.36 L 537.352 -339.71 C 537.352 -362.48 545.399 -382.06 561.529 -398.29 C 577.64 -414.53 597.528 -422.64 621.174 -422.64 L 798.523 -422.64 C 821.323 -422.64 840.841 -414.53 857.093 -398.29 C 873.346 -382.06 881.463 -362.48 881.463 -339.71 L 881.463 -162.36 C 881.463 -138.71 873.346 -118.78 857.093 -102.72 C 840.841 -86.657 821.323 -78.541 798.523 -78.541 L 621.174 -78.541 Z M 621.174 -162.36 L 798.523 -162.36 L 798.523 -339.71 L 621.174 -339.71 L 621.174 -162.36 Z M 268.186 -502.06 C 215.688 -502.06 170.953 -520.58 133.983 -557.46 C 97.012 -594.53 78.537 -639.18 78.537 -691.59 C 78.537 -744.7 97.012 -789.52 133.965 -826.41 C 170.918 -863.12 215.617 -881.46 268.045 -881.46 C 321.109 -881.46 366.037 -863.12 402.795 -826.41 C 439.554 -789.7 457.942 -744.88 457.942 -691.76 C 457.942 -639.18 439.588 -594.53 402.902 -557.65 C 366.231 -520.58 321.321 -502.06 268.186 -502.06 Z M 268.345 -585.89 C 297.974 -585.89 323.155 -596.12 343.89 -616.59 C 364.626 -637.06 375.002 -662.29 375.002 -691.94 C 375.002 -721.59 364.626 -746.64 343.89 -767.46 C 323.155 -788.29 297.974 -798.53 268.345 -798.53 C 238.663 -798.53 213.588 -788.29 193.082 -767.46 C 172.594 -746.64 162.358 -721.59 162.358 -691.94 C 162.358 -662.29 172.594 -637.06 193.082 -616.59 C 213.588 -596.12 238.663 -585.89 268.345 -585.89 Z M 638.658 -645.05 C 621.238 -657.91 601.848 -668.3 580.678 -676.22 C 568.998 -682.16 559.688 -690.91 553.148 -702.45 C 546.418 -714 544.638 -726.04 547.608 -738.57 C 550.588 -751.77 557.898 -761.5 569.378 -767.76 C 580.848 -774.03 592.928 -774.86 605.388 -770.23 C 633.298 -759.68 660.218 -744.68 686.748 -725.2 C 713.058 -705.75 736.818 -684.47 757.998 -661.38 L 757.998 -731.64 C 757.998 -741.51 761.368 -749.92 768.298 -756.87 C 775.018 -763.8 783.528 -767.26 793.428 -767.26 C 803.518 -767.26 811.828 -763.8 818.358 -756.87 C 824.888 -749.92 828.058 -741.51 828.058 -731.64 L 828.058 -572.32 C 828.058 -558.46 823.708 -547.08 814.788 -538.17 C 805.878 -529.27 794.808 -524.81 781.748 -524.81 L 621.238 -524.81 C 611.148 -524.81 602.628 -528.26 595.898 -535.11 C 589.168 -541.97 585.608 -550.37 585.608 -560.32 C 585.608 -570.28 588.968 -578.73 595.508 -585.65 C 602.038 -592.6 610.348 -596.06 620.248 -596.06 L 689.518 -596.06 C 673.088 -615.86 656.058 -632.18 638.658 -645.05 Z" style=""/>
</svg>