<?xml version="1.0" encoding="utf-8"?>
<svg xmlns="http://www.w3.org/2000/svg" height="48" viewBox="0 -960 960 960" width="48">
  <path d="M 479.04 -118 C 467.213 -118 455.773 -119.957 444.72 -123.87 C 433.667 -127.783 423.67 -134.243 414.73 -143.25 L 361 -194 C 279 -268.667 207.5 -341.833 146.5 -413.5 C 85.5 -485.167 55 -561.667 55 -643 C 55 -710.507 77.307 -766.883 121.92 -812.13 C 166.54 -857.377 222.233 -880 289 -880 C 322.333 -880 355.333 -872.833 388 -858.5 C 420.667 -844.167 451 -819.667 479 -785 C 510.333 -819.667 541.333 -844.167 572 -858.5 C 602.667 -872.833 635 -880 669 -880 C 736.587 -880 792.983 -857.377 838.19 -812.13 C 883.397 -766.883 906 -710.507 906 -643 C 906 -561.667 875 -485.167 813 -413.5 C 751 -341.833 679.333 -268.333 598 -193 L 544 -143 C 535.167 -134.08 525.137 -127.683 513.91 -123.81 C 502.683 -119.937 491.06 -118 479.04 -118 Z M 480 -499 Z"/>
</svg>