<?xml version="1.0" encoding="utf-8"?>
<svg xmlns="http://www.w3.org/2000/svg" height="48" viewBox="0 -960 960 960" width="48">
  <path d="M 275.286 -829.53 C 290.465 -844.77 308.987 -852.38 331.189 -852.38 L 333.39 -852.377 C 333.649 -852.379 333.909 -852.38 334.169 -852.38 L 526.734 -852.38 C 538.147 -852.38 549.036 -850.11 559.36 -845.38 C 569.704 -840.65 578.666 -834.52 586.245 -827.01 L 741.146 -672.09 C 748.742 -664.58 754.87 -655.48 759.524 -645.15 C 764.196 -634.83 766.525 -623.97 766.525 -612.58 L 766.525 -555.66 L 765.983 -556.128 L 765.983 -511.206 C 765.983 -500.226 761.985 -490.926 753.963 -483.346 C 746.126 -475.766 736.608 -471.986 725.764 -471.986 C 714.743 -471.986 705.402 -475.766 697.884 -483.346 C 690.383 -490.926 686.704 -500.226 686.704 -511.206 L 686.704 -624.594 L 683.385 -627.46 L 601.123 -627.46 C 584.214 -627.46 569.618 -633.59 557.365 -645.87 C 545.112 -658.09 538.987 -672.62 538.987 -689.61 L 538.987 -769.24 L 331.189 -769.24 L 331.189 -316.78 L 655.374 -316.27 C 666.395 -316.27 675.576 -312.47 683.254 -304.86 C 690.755 -297.25 694.602 -287.93 694.602 -276.9 C 694.602 -265.86 690.755 -256.6 683.254 -249.09 C 675.576 -241.58 666.395 -237.82 655.374 -237.82 L 331.189 -238.34 C 308.987 -238.34 290.465 -246.01 275.286 -261.39 C 260.259 -276.76 252.741 -295.22 252.741 -316.78 L 252.741 -748.905 L 251.904 -769.24 C 251.904 -776.408 252.688 -783.252 254.256 -789.772 C 257.143 -804.976 264.154 -818.233 275.286 -829.53 Z M 202.34 -107.62 C 180.242 -107.62 161.418 -115.4 145.867 -130.95 C 130.316 -146.5 122.54 -165.32 122.54 -187.42 L 122.54 -682.19 C 122.54 -693.25 126.37 -702.59 134.031 -710.23 C 141.686 -717.85 151.207 -721.67 162.591 -721.67 C 173.971 -721.67 183.44 -717.85 191 -710.23 C 198.56 -702.59 202.34 -693.25 202.34 -682.19 L 202.34 -187.42 L 656.739 -187.42 C 667.799 -187.42 677.145 -183.59 684.778 -175.93 C 692.405 -168.28 696.219 -158.76 696.219 -147.37 C 696.219 -135.99 692.405 -126.52 684.778 -118.96 C 677.145 -111.4 667.799 -107.62 656.739 -107.62 Z M 782.045 -369.92 L 778.536 -366.48 C 773.515 -361.99 766.009 -358.52 759.345 -358.52 C 752.771 -358.52 745.255 -362 740.233 -366.49 C 735.715 -371.51 732.235 -379.03 732.235 -385.68 C 732.235 -392.38 735.6 -399.63 740.218 -404.47 L 789.597 -453.85 C 792.105 -456.24 795.815 -458.65 798.9 -459.96 C 801.93 -461.05 805.858 -461.89 809.005 -461.89 C 812.177 -461.89 816.262 -460.96 819.246 -459.85 C 822.14 -458.53 825.567 -456.22 827.992 -453.91 L 876.846 -405.06 C 881.653 -400.01 884.932 -392.29 885.188 -385.44 C 884.657 -378.69 881.37 -371.53 876.753 -366.6 C 871.904 -362.07 864.522 -358.52 857.855 -358.52 C 851.245 -358.52 843.988 -361.82 839.14 -366.45 L 835.985 -369.54 L 835.985 -234.52 L 839.806 -238.34 C 844.662 -242.65 852.186 -245.6 858.929 -245.8 C 865.434 -245.29 872.875 -242.06 877.83 -237.61 C 882.06 -232.82 885.415 -225.45 885.415 -218.84 C 885.415 -212.27 881.91 -204.59 877.777 -199.64 L 827.483 -149.75 C 825.149 -147.82 821.854 -145.81 819.114 -144.61 C 816.095 -143.48 812.16 -142.62 809.005 -142.62 C 805.874 -142.62 801.942 -143.45 798.879 -144.56 C 795.954 -145.76 792.075 -148.22 789.658 -150.23 L 739.946 -199.95 C 735.846 -204.85 732.595 -212.16 732.595 -218.65 C 732.595 -225.21 736.022 -232.49 740.462 -237.48 C 745.239 -242.01 752.578 -245.28 759.113 -245.8 C 765.842 -245.58 773.494 -242.5 778.563 -238 L 782.045 -234.52 Z" style=""/>
</svg>