<?xml version="1.0" encoding="utf-8"?>
<svg xmlns="http://www.w3.org/2000/svg" height="48" viewBox="0 -960 960 960" width="48">
  <path d="M 423.598 -89.796 C 448.151 -99.291 469.215 -113.62 490.595 -135.296 L 587.606 -234.409 L 603.276 -250.418 L 691.587 -164.728 C 697.069 -158.972 701.563 -156.048 707.913 -153.382 C 714.237 -150.727 718.912 -149.82 726.567 -149.82 C 741.914 -149.82 751.565 -153.028 763.222 -164.987 C 769.359 -170.461 772.209 -174.718 775.029 -181.092 C 777.83 -187.421 778.766 -192.018 778.766 -199.75 C 778.766 -207.609 777.849 -212.395 775.198 -218.73 C 772.55 -225.059 769.957 -229.175 764.256 -234.487 L 704.622 -294.132 L 688.715 -310.043 L 785.357 -406.671 C 797.134 -417.31 801.308 -427.227 801.174 -443.939 C 801.701 -452.047 800.65 -457.024 797.953 -463.761 C 795.24 -470.539 792.369 -475.157 786.16 -481.095 C 779.994 -487.598 775.021 -490.917 768.184 -493.914 C 761.443 -496.869 756.563 -497.87 748.726 -497.87 C 740.922 -497.87 735.992 -496.84 729.083 -493.784 C 722.041 -490.669 716.826 -487.195 710.296 -480.426 L 636.591 -406.72 L 620.681 -390.811 L 497.981 -513.504 L 546.933 -565.52 C 566.549 -584.706 579.115 -604.803 586.463 -629.406 C 594.594 -654.996 598.181 -677.681 598.181 -700.81 C 598.181 -727.946 594.022 -750.464 584.955 -772.85 C 575.908 -795.187 563.739 -813.666 545.301 -831.762 C 527.155 -850.166 508.658 -862.316 486.351 -871.341 C 464.002 -880.385 441.563 -884.53 414.558 -884.53 C 387.539 -884.53 364.985 -880.377 342.449 -871.321 C 319.946 -862.279 301.159 -850.067 282.661 -831.63 C 263.901 -813.528 251.522 -795.048 242.326 -772.726 C 233.114 -750.365 228.896 -727.912 228.896 -700.81 C 228.896 -678.261 233.435 -656.546 244.155 -631.35 C 254.436 -606.167 268.3 -585.586 288.168 -566.008 L 322.633 -529.4 L 337.592 -513.505 L 220.181 -396.09 C 200.195 -376.92 185.621 -357.04 174.631 -333.706 C 163.434 -311.048 158.786 -288.507 158.786 -261.16 C 158.786 -234.089 163.076 -211.6 172.458 -189.084 C 181.833 -166.587 194.498 -147.827 213.641 -129.364 C 232.505 -110.605 251.734 -98.149 274.767 -88.939 C 297.84 -79.714 321.022 -75.47 348.74 -75.47 C 375.375 -75.47 398.938 -79.781 423.598 -89.796 Z M 352.645 -640.707 C 348.18 -648.245 344.069 -656.119 340.929 -663.117 C 337.246 -672.412 334.738 -686.553 334.738 -700.94 C 334.738 -719.121 343.235 -739.25 355.152 -753.939 C 362.037 -761.375 372.082 -768.931 381.417 -772.752 C 390.533 -776.483 402.805 -778.68 413.687 -778.68 C 424.568 -778.68 436.835 -776.485 445.933 -772.754 C 455.257 -768.931 465.274 -761.356 472.12 -753.914 C 483.961 -739.194 492.339 -718.793 492.339 -700.09 C 492.339 -687.462 490.686 -675.026 488.124 -666.19 C 485.495 -658.065 481.286 -648.787 476.554 -640.705 L 475.313 -638.584 L 414.6 -574.835 L 353.926 -638.544 Z M 291.962 -204.816 C 279.707 -219.301 271.001 -240.154 271.001 -259.79 C 271.001 -269.516 274.877 -282.095 279.986 -292.25 C 284.727 -301.139 291.699 -311.232 296.713 -317.45 L 416.726 -437.461 L 527.321 -326.849 L 409.365 -211.366 C 401.532 -202.836 390.95 -195.002 378.854 -189.512 C 367.425 -184.728 355.077 -181.3 346.233 -181.3 C 336.491 -181.3 324.999 -183.547 316.515 -187.205 C 307.995 -190.878 298.651 -197.89 291.962 -204.816 Z" style="stroke-width: 45px;"/>
</svg>