<?xml version="1.0" encoding="utf-8"?>
<svg xmlns="http://www.w3.org/2000/svg" height="48" viewBox="0 -960 960 960" width="48">
  <path d="M 307.86 -696.006 L 480.494 -696.006 C 490.694 -696.006 499.244 -699.333 506.144 -705.986 C 513.044 -712.633 516.494 -721.366 516.494 -732.186 C 516.494 -742.999 513.187 -751.673 506.574 -758.206 C 499.954 -764.739 491.261 -768.006 480.494 -768.006 L 307.86 -768.006 C 297.66 -768.006 289.11 -764.679 282.21 -758.026 C 275.31 -751.379 271.86 -742.646 271.86 -731.826 C 271.86 -721.013 275.167 -712.339 281.78 -705.806 C 288.4 -699.273 297.093 -696.006 307.86 -696.006 Z M 229 -55 C 202.967 -55 180.793 -64.157 162.48 -82.47 C 144.16 -100.79 135 -122.967 135 -149 L 135 -811 C 135 -837.307 144.16 -859.717 162.48 -878.23 C 180.793 -896.743 202.967 -906 229 -906 L 552 -906 C 565.04 -906 577.467 -903.333 589.28 -898 C 601.093 -892.667 611.333 -885.667 620 -877 L 797 -700 C 805.667 -691.333 812.667 -681.093 818 -669.28 C 823.333 -657.467 826 -645.04 826 -632 L 826 -149 C 826 -122.967 816.743 -100.79 798.23 -82.47 C 779.717 -64.157 757.307 -55 731 -55 L 229 -55 Z M 731 -649 L 637 -649 C 617.667 -649 601 -656 587 -670 C 573 -684 566 -700.667 566 -720 L 566 -811 L 229 -811 L 229 -149 L 731 -149 L 731 -649 Z M 229 -811 L 229 -649 L 229 -811 L 229 -149 L 229 -811 Z"/>
</svg>