<?xml version="1.0" encoding="utf-8"?>
<svg xmlns="http://www.w3.org/2000/svg" height="48" viewBox="0 -960 960 960" width="48">
  <path d="M 360.334 -137.17 C 356.994 -131.39 353.125 -126.33 348.728 -122.01 C 340.762 -114.17 331.061 -108.73 319.624 -105.69 C 301.882 -100.96 284.828 -103.32 268.494 -112.75 C 252.178 -122.17 241.477 -135.83 236.425 -153.72 C 234.919 -159.06 234.055 -164.31 233.833 -169.5 C 233.308 -181.72 236.342 -193.53 242.935 -204.95 L 599.667 -822.83 C 609.061 -839.1 622.844 -849.47 641.011 -853.96 C 659.163 -858.44 676.405 -855.96 692.739 -846.53 C 708.1 -837.66 718.293 -825.16 723.317 -809.01 C 723.633 -807.99 723.929 -806.97 724.204 -805.92 C 724.638 -804.27 725.01 -802.62 725.32 -800.98 C 728.33 -785.1 725.578 -769.79 717.065 -755.05 L 360.334 -137.17 Z" style=""/>
</svg>