<?xml version="1.0" encoding="utf-8"?>
<svg clip-rule="evenodd" fill-rule="evenodd" stroke-linejoin="round" stroke-miterlimit="2" viewBox="0 0 250 250" xmlns="http://www.w3.org/2000/svg">
  <path d="M 3.875 123.096 L 3.878 122.384 C 4.074 92.51 16.595 65.082 36.92 45.436 C 43.853 38.73 51.709 32.92 60.322 28.228 C 67.396 24.372 74.965 21.279 82.929 19.065 C 92.489 16.397 102.577 15.012 112.994 15.108 C 113.775 15.115 114.554 15.132 115.333 15.155 C 152.5 16.296 186.148 36.435 204.868 67.876 C 206.85 71.246 207.274 75.309 206.035 79.017 C 204.794 82.725 202.009 85.714 198.397 87.213 C 198.196 87.407 197.955 87.507 197.714 87.606 C 191.83 90.05 185.045 87.751 181.856 82.234 C 180.771 80.369 179.616 78.556 178.396 76.797 C 178.179 76.539 177.971 76.269 177.772 75.987 C 176.9 74.764 175.996 73.566 175.062 72.399 C 174.939 72.261 174.818 72.117 174.7 71.969 C 159.535 53.272 136.77 42.353 112.745 42.132 L 112.595 42.13 L 112.384 42.13 C 108.361 42.111 104.303 42.39 100.24 42.987 C 95.032 43.748 90.012 44.992 85.219 46.664 C 67.784 52.772 53.046 64.68 43.344 80.085 C 41.112 83.633 39.151 87.359 37.485 91.227 C 33.361 100.818 31.033 111.367 30.932 122.453 C 30.666 151.34 45.573 176.857 68.213 191.426 C 74.059 195.181 80.395 198.195 87.07 200.359 C 94.697 202.824 102.819 204.189 111.253 204.267 C 113.737 204.289 116.216 204.198 118.683 203.994 C 125.642 203.416 132.48 201.944 139.032 199.625 C 139.153 199.581 139.275 199.539 139.397 199.499 C 140.867 198.97 142.323 198.399 143.761 197.787 C 149.94 195.104 157.15 197.385 160.659 203.135 L 160.751 203.08 C 162.803 206.441 163.3 210.524 162.116 214.281 C 160.931 218.035 158.18 221.095 154.571 222.669 C 152.831 223.391 151.074 224.071 149.301 224.709 C 148.964 224.864 148.618 225.006 148.266 225.134 C 145.582 226.055 142.866 226.88 140.122 227.604 C 139.681 227.771 139.229 227.915 138.768 228.036 C 132.96 229.45 127.048 230.423 121.084 230.917 C 111.088 231.77 101.257 231.218 91.799 229.417 C 83.346 227.813 75.211 225.215 67.533 221.741 C 65.611 220.872 63.719 219.947 61.858 218.971 C 53.735 214.707 46.198 209.434 39.427 203.305 C 30.624 195.343 23.1 185.917 17.269 175.337 C 10.135 162.407 5.551 147.802 4.251 132.144 C 3.999 129.108 3.875 126.09 3.875 123.096 Z M 83.977 124.992 C 83.933 124.246 83.917 123.494 83.929 122.735 C 84.09 106.643 96.905 93.385 113.146 92.837 C 129.709 92.279 143.607 105.144 144.375 121.648 C 144.475 123.417 144.421 125.219 144.2 127.039 C 142.187 143.619 127.115 155.428 110.535 153.416 C 95.724 151.618 84.72 139.398 83.977 124.992 Z M 104.1 123.566 C 104.374 129.051 108.999 133.321 114.508 133.134 C 119.871 132.953 124.115 128.614 124.244 123.317 C 124.248 123.036 124.239 122.757 124.22 122.482 C 123.804 117.847 120.201 113.972 115.394 113.389 C 109.867 112.718 104.844 116.654 104.173 122.18 C 104.116 122.646 104.092 123.109 104.1 123.566 Z M 116.05 57.701 C 121.61 57.861 125.996 62.506 125.835 68.067 C 125.675 73.63 121.031 78.014 115.469 77.854 C 90.427 77.133 69.544 96.849 68.823 121.891 C 68.662 127.452 64.019 131.836 58.457 131.678 C 52.896 131.518 48.511 126.872 48.671 121.312 C 49.711 85.139 79.877 56.661 116.05 57.701 Z M 200.038 196.042 C 188.765 196.042 179.22 192.131 171.4 184.308 C 163.582 176.485 159.672 166.938 159.672 155.668 C 159.672 146.457 162.545 137.384 168.289 128.452 C 174.035 119.518 181.968 111.798 192.092 105.291 C 194.181 103.924 196.33 103.875 198.54 105.14 C 200.749 106.405 201.854 108.383 201.854 111.075 L 201.854 118.492 C 201.854 120.728 202.624 122.602 204.162 124.112 C 205.7 125.626 207.583 126.381 209.809 126.381 C 211.014 126.381 212.137 126.121 213.181 125.602 C 214.223 125.082 215.147 124.3 215.955 123.247 C 216.749 122.23 217.73 121.554 218.9 121.218 C 220.07 120.885 221.177 121.038 222.222 121.68 C 227.857 125.701 232.299 130.683 235.548 136.627 C 238.796 142.572 240.421 148.919 240.421 155.668 C 240.421 166.938 236.509 176.485 228.684 184.308 C 220.86 192.131 211.311 196.042 200.038 196.042 Z M 201.356 151.343 C 200.625 150.624 199.45 150.629 198.725 151.354 L 190.511 159.575 C 189.19 160.826 188.1 162.337 187.444 163.833 C 186.836 165.33 186.471 167.13 186.471 168.873 C 186.471 172.432 187.995 175.799 190.523 178.297 C 193.132 180.675 196.528 182.09 200.071 182.09 C 203.618 182.09 207.059 180.706 209.606 178.253 C 212.166 175.788 213.622 172.357 213.622 168.794 C 213.622 167.143 213.261 165.393 212.663 163.901 C 212.03 162.423 211.013 160.91 209.81 159.659 Z"/>
</svg>