<?xml version="1.0" encoding="utf-8"?>
<svg xmlns="http://www.w3.org/2000/svg" height="48" viewBox="0 -960 960 960" width="48">
  <path d="M 275.286 -829.53 C 290.465 -844.77 308.987 -852.38 331.189 -852.38 L 333.39 -852.377 C 333.649 -852.379 333.909 -852.38 334.169 -852.38 L 526.734 -852.38 C 538.147 -852.38 549.036 -850.11 559.36 -845.38 C 569.704 -840.65 578.666 -834.52 586.245 -827.01 L 741.146 -672.09 C 748.742 -664.58 754.87 -655.48 759.524 -645.15 C 764.196 -634.83 766.525 -623.97 766.525 -612.58 L 766.525 -555.66 L 765.983 -556.128 L 765.983 -522.194 C 765.983 -511.214 761.985 -501.914 753.963 -494.334 C 746.126 -486.754 736.608 -482.974 725.764 -482.974 C 714.743 -482.974 705.402 -486.754 697.884 -494.334 C 690.383 -501.914 686.704 -511.214 686.704 -522.194 L 686.704 -624.594 L 683.385 -627.46 L 601.123 -627.46 C 584.214 -627.46 569.618 -633.59 557.365 -645.87 C 545.112 -658.09 538.987 -672.62 538.987 -689.61 L 538.987 -769.24 L 331.189 -769.24 L 331.189 -316.78 L 483.955 -316.27 C 494.976 -316.27 504.157 -312.47 511.835 -304.86 C 519.336 -297.25 523.183 -287.93 523.183 -276.9 C 523.183 -265.86 519.336 -256.6 511.835 -249.09 C 504.157 -241.58 494.976 -237.82 483.955 -237.82 L 331.189 -238.34 C 308.987 -238.34 290.465 -246.01 275.286 -261.39 C 260.259 -276.76 252.741 -295.22 252.741 -316.78 L 252.741 -748.905 L 251.904 -769.24 C 251.904 -776.408 252.688 -783.252 254.256 -789.772 C 257.143 -804.976 264.154 -818.233 275.286 -829.53 Z M 202.34 -107.62 C 180.242 -107.62 161.418 -115.4 145.867 -130.95 C 130.316 -146.5 122.54 -165.32 122.54 -187.42 L 122.54 -682.19 C 122.54 -693.25 126.37 -702.59 134.031 -710.23 C 141.686 -717.85 151.207 -721.67 162.591 -721.67 C 173.971 -721.67 183.44 -717.85 191 -710.23 C 198.56 -702.59 202.34 -693.25 202.34 -682.19 L 202.34 -187.42 L 485.32 -187.42 C 496.38 -187.42 505.726 -183.59 513.359 -175.93 C 520.986 -168.28 524.8 -158.76 524.8 -147.37 C 524.8 -135.99 520.986 -126.52 513.359 -118.96 C 505.726 -111.4 496.38 -107.62 485.32 -107.62 Z M 643.138 -195.53 L 601.578 -195.53 C 593.611 -195.93 584.794 -199.62 579 -204.809 C 573.756 -210.691 569.802 -219.461 569.802 -227.4 C 569.802 -235.386 573.815 -244.091 579.08 -249.891 C 584.874 -255.08 593.611 -258.69 601.578 -259.09 L 643.138 -259.09 L 643.138 -311.42 L 601.578 -311.42 C 593.619 -311.817 584.806 -315.492 579 -320.699 C 573.757 -326.578 569.802 -335.338 569.802 -343.29 C 569.802 -351.232 573.721 -359.956 578.92 -365.889 C 584.794 -371.34 593.611 -375.03 601.578 -375.43 L 643.138 -375.43 L 643.138 -416.53 C 643.538 -424.52 647.197 -433.27 652.45 -439.118 C 658.27 -444.319 667.012 -448.31 674.996 -448.31 C 682.988 -448.31 691.8 -444.218 697.581 -438.997 C 702.763 -433.152 706.3 -424.498 706.691 -416.53 L 706.691 -375.43 L 759.026 -375.43 L 759.026 -416.53 C 759.426 -424.521 763.088 -433.272 768.339 -439.119 C 774.159 -444.319 782.901 -448.31 790.884 -448.31 C 798.853 -448.31 807.668 -444.298 813.558 -439.135 C 818.938 -433.28 822.616 -424.558 823.032 -416.53 L 823.032 -375.43 L 864.138 -375.43 C 872.179 -374.999 881.004 -371.211 886.805 -365.791 C 892.015 -359.828 895.915 -351.022 895.915 -343.11 C 895.915 -335.158 891.922 -326.362 886.641 -320.534 C 880.76 -315.298 872.023 -311.786 864.138 -311.42 L 823.032 -311.42 L 823.032 -259.09 L 864.138 -259.09 C 872.106 -258.69 880.84 -255.058 886.674 -249.76 C 891.938 -243.927 895.915 -235.159 895.915 -227.22 C 895.915 -219.268 891.919 -210.467 886.637 -204.639 C 880.768 -199.419 872.031 -195.9 864.138 -195.53 L 823.032 -195.53 L 823.032 -153.97 C 822.607 -145.93 818.798 -137.107 813.354 -131.246 C 807.431 -126.112 798.678 -122.2 790.721 -122.2 C 782.729 -122.2 773.905 -126.305 768.128 -131.511 C 762.949 -137.363 759.417 -146.012 759.026 -153.97 L 759.026 -195.53 L 706.691 -195.53 L 706.691 -153.97 C 706.291 -145.989 702.616 -137.225 697.369 -131.372 C 691.553 -126.186 682.816 -122.2 674.833 -122.2 C 666.84 -122.2 658.015 -126.306 652.238 -131.512 C 647.06 -137.364 643.529 -146.012 643.138 -153.97 Z M 706.691 -259.09 L 759.026 -259.09 L 759.026 -311.42 L 706.691 -311.42 Z" style=""/>
</svg>