<?xml version="1.0" encoding="utf-8"?>
<svg xmlns="http://www.w3.org/2000/svg" height="48" viewBox="0 -960 960 960" width="48">
  <path d="M 863.744 -188.5 C 863.744 -162.47 854.587 -140.29 836.274 -121.97 C 817.954 -103.66 795.774 -94.5 769.744 -94.5 L 251.256 -94.5 C 224.946 -94.5 202.536 -103.66 184.026 -121.97 C 165.516 -140.29 156.256 -162.47 156.256 -188.5 L 156.256 -244.5 L 137.256 -244.5 C 126.086 -244.5 116.466 -248.63 108.376 -256.89 C 100.296 -265.16 96.256 -274.76 96.256 -285.69 C 96.256 -296.91 100.296 -306.52 108.376 -314.51 C 116.466 -322.5 126.086 -326.5 137.256 -326.5 L 156.256 -326.5 L 156.256 -632.5 L 137.256 -632.5 C 126.086 -632.5 116.466 -636.63 108.376 -644.89 C 100.296 -653.16 96.256 -662.76 96.256 -673.69 C 96.256 -684.92 100.296 -694.52 108.376 -702.51 C 116.466 -710.5 126.086 -714.5 137.256 -714.5 L 156.256 -714.5 L 156.256 -770.5 C 156.256 -796.81 165.516 -819.22 184.026 -837.73 C 202.536 -856.24 224.946 -865.5 251.256 -865.5 L 769.744 -865.5 C 795.774 -865.5 817.954 -856.24 836.274 -837.73 C 854.587 -819.22 863.744 -796.81 863.744 -770.5 L 863.744 -188.5 Z M 301.93 -188.5 L 301.93 -770.5 L 251.256 -770.5 L 251.256 -188.5 L 301.93 -188.5 Z M 769.744 -188.5 L 769.744 -770.5 L 361.93 -770.5 L 361.93 -188.5 L 769.744 -188.5 Z M 441.965 -642.16 C 432.052 -642.16 423.738 -645.61 417.025 -652.53 C 410.318 -659.44 406.965 -668.01 406.965 -678.23 C 406.965 -688.17 410.318 -696.64 417.025 -703.65 C 423.738 -710.65 432.052 -714.16 441.965 -714.16 L 684.058 -714.16 C 693.978 -714.16 702.291 -710.59 708.998 -703.47 C 715.705 -696.33 719.058 -687.8 719.058 -677.86 C 719.058 -667.92 715.705 -659.48 708.998 -652.55 C 702.291 -645.62 693.978 -642.16 684.058 -642.16 L 441.965 -642.16 Z M 441.965 -465.16 C 432.052 -465.16 423.738 -468.48 417.025 -475.14 C 410.318 -481.78 406.965 -490.35 406.965 -500.84 C 406.965 -511.04 410.318 -519.47 417.025 -526.15 C 423.738 -532.82 432.052 -536.16 441.965 -536.16 L 563.058 -536.16 C 572.978 -536.16 581.291 -532.78 587.998 -526.04 C 594.705 -519.29 598.058 -510.93 598.058 -500.97 C 598.058 -490.43 594.705 -481.82 587.998 -475.16 C 581.291 -468.49 572.978 -465.16 563.058 -465.16 L 441.965 -465.16 Z" style=""/>
</svg>