<?xml version="1.0" encoding="utf-8"?>
<svg xmlns="http://www.w3.org/2000/svg" height="48" viewBox="0 -960 960 960" width="48">
  <path d="M 291.5 -123.5 C 255.667 -123.5 224.873 -136.38 199.12 -162.13 C 173.373 -187.88 160.5 -218.67 160.5 -254.5 L 160.5 -741.5 C 160.5 -768 169.707 -790.46 188.12 -808.88 C 206.54 -827.29 229 -836.5 255.5 -836.5 L 591.5 -836.5 C 612.227 -836.5 629.91 -829.18 644.55 -814.55 C 659.183 -799.91 666.5 -781.89 666.5 -760.5 L 666.5 -326.5 L 752.5 -326.5 C 765.667 -326.5 776.79 -321.96 785.87 -312.88 C 794.957 -303.79 799.5 -292.67 799.5 -279.5 L 799.5 -218.5 C 799.5 -192.5 790.333 -170.17 772 -151.5 C 753.667 -132.83 731.5 -123.5 705.5 -123.5 L 291.5 -123.5 Z M 572.5 -741.5 L 255.5 -741.5 L 255.5 -254.5 C 255.5 -243.17 258.833 -234.33 265.5 -228 C 272.167 -221.67 280.833 -218.5 291.5 -218.5 C 302.167 -218.5 310.833 -221.67 317.5 -228 C 324.167 -234.33 327.5 -243.17 327.5 -254.5 L 327.5 -279.5 C 327.5 -292.67 332.04 -303.79 341.12 -312.88 C 350.207 -321.96 361.333 -326.5 374.5 -326.5 L 572.5 -326.5 L 572.5 -741.5 Z M 418 -232.5 C 415.667 -225.83 412.167 -221.17 407.5 -218.5 L 705.5 -218.5 L 705.5 -255.5 L 421.5 -255.5 C 421.5 -246.83 420.333 -239.17 418 -232.5 Z M 379.227 -413.23 C 369.451 -413.43 357.987 -415.41 349.342 -418.96 C 340.689 -422.53 331.155 -429.23 324.112 -435.97 C 317.35 -443.02 310.652 -452.55 307.082 -461.2 C 303.514 -469.85 301.336 -481.31 301.336 -491.07 C 301.336 -499.66 303.213 -509.73 305.854 -517.67 C 308.827 -525.55 314.055 -534.67 319.227 -541.27 L 345.631 -572.61 L 335.582 -593 C 333.678 -597.39 331.561 -604.91 331.803 -609.82 C 332.043 -614.7 334.801 -621.88 337.068 -626.03 C 339.768 -629.77 344.831 -635.17 348.943 -637.52 C 353.126 -639.9 360.648 -641.46 365.386 -641.79 L 465.85 -641.79 C 470.59 -641.46 478.114 -639.9 482.298 -637.52 C 486.41 -635.17 491.465 -629.77 494.163 -626.03 C 496.427 -621.88 499.187 -614.71 499.43 -609.84 C 499.676 -604.92 497.772 -597.81 495.864 -593.42 L 485.559 -572.51 L 511.543 -541.25 C 516.935 -534.59 522.133 -525.66 525.196 -517.84 C 527.909 -510 529.788 -499.54 530.139 -491.12 C 529.942 -481.32 527.945 -469.83 524.356 -461.17 C 520.765 -452.51 514.025 -442.97 507.237 -435.93 C 500.166 -429.18 490.613 -422.51 481.94 -418.95 C 473.276 -415.4 461.802 -413.43 452.01 -413.23 L 379.227 -413.23 Z" style=""/>
</svg>