<?xml version="1.0" encoding="utf-8"?>
<svg viewBox="0 0 22 22" xmlns="http://www.w3.org/2000/svg">
  <path d="M 19.5 11 C 19.478 13.311 18.521 15.5 17.01 17.01 C 15.5 18.521 13.311 19.5 11 19.5 C 8.689 19.5 6.5 18.521 4.99 17.01 C 3.479 15.5 2.522 13.311 2.5 11 C 2.522 8.689 3.479 6.5 4.99 4.99 C 6.5 3.479 8.689 2.5 11 2.5 C 13.311 2.5 15.5 3.479 17.01 4.99 C 18.521 6.5 19.478 8.689 19.5 11 Z M 7.174 5.748 L 11 9.574 L 14.831 5.743 C 13.718 4.912 12.412 4.487 11 4.5 C 9.59 4.489 8.284 4.916 7.174 5.748 Z M 5.744 7.17 C 4.913 8.282 4.487 9.589 4.5 11 C 4.489 12.41 4.914 13.705 5.749 14.825 L 9.574 11 Z M 16.252 7.174 L 12.426 11 L 16.257 14.831 C 17.088 13.719 17.513 12.412 17.5 11 C 17.511 9.59 17.084 8.284 16.252 7.174 Z M 7.171 16.255 C 8.282 17.086 9.588 17.513 11 17.5 C 12.41 17.511 13.716 17.083 14.826 16.252 L 11 12.426 Z"/>
</svg>