<?xml version="1.0" encoding="utf-8"?>
<svg xmlns="http://www.w3.org/2000/svg" height="48" viewBox="0 -960 960 960" width="48">
  <path d="M 400.961 -353.61 C 430.325 -346.56 456.339 -336.5 479 -323.44 C 494.073 -313.39 505.631 -302.81 513.67 -291.63 C 519.292 -283.833 528.322 -251.686 533.244 -229 L 810.992 -229 L 810.992 -504 L 521.406 -503.708 C 485.604 -503.708 456.58 -532.732 456.58 -568.534 C 456.58 -604.336 485.604 -633.36 521.406 -633.36 L 810.992 -633 L 810.992 -731 L 148.999 -731 L 148.999 -335.837 C 165.186 -343.057 182.803 -348.982 201.848 -353.61 C 230.851 -360.62 263.943 -364.14 301.126 -364.14 C 338.309 -364.14 371.586 -360.62 400.961 -353.61 Z M 223.374 -486.24 C 201.848 -507.36 191.086 -533.52 191.086 -564.75 C 191.086 -594.98 201.889 -620.87 223.496 -642.38 C 245.1 -663.91 271.019 -674.67 301.246 -674.67 C 331.475 -674.67 357.352 -663.88 378.878 -642.26 C 400.403 -620.65 411.166 -594.74 411.166 -564.51 C 411.166 -533.26 400.363 -507.13 378.758 -486.13 C 357.151 -465.1 331.233 -454.58 301.006 -454.58 C 270.778 -454.58 244.899 -465.14 223.374 -486.24 Z M 905.993 -731 L 905.993 -229 C 905.993 -202.99 896.732 -180.79 878.211 -162.41 C 859.692 -144.19 837.293 -135 810.992 -135 L 148.999 -135 C 122.958 -135 100.779 -144.19 82.459 -162.41 C 64.14 -180.79 55 -202.99 55 -229 L 55 -731 C 55 -757.2 64.14 -779.59 82.459 -798.19 C 100.779 -816.81 122.958 -826 148.999 -826 L 810.992 -826 C 837.293 -826 859.692 -816.81 878.211 -798.19 C 896.732 -779.59 905.993 -757.2 905.993 -731 Z"/>
</svg>