<?xml version="1.0" encoding="utf-8"?>
<svg xmlns="http://www.w3.org/2000/svg" height="48" viewBox="0 -960 960 960" width="48">
  <path d="M 404.249 -510.84 C 371.858 -511.34 341.716 -523.74 318.55 -546.21 C 296.116 -569.37 283.161 -599.53 283.161 -631.84 C 283.161 -645.9 285.731 -660.53 290.204 -673.41 C 294.856 -686.2 302.189 -699.14 310.81 -709.9 L 374.549 -785.53 L 346.203 -843.05 C 343.765 -848.13 341.899 -855.09 342.167 -860.46 C 342.432 -865.79 344.903 -872.51 347.777 -877.4 C 350.908 -882.04 355.756 -887.08 360.333 -889.69 C 364.952 -892.31 371.873 -893.85 377.428 -894.06 L 572.104 -894.06 C 577.659 -893.85 584.58 -892.31 589.201 -889.69 C 593.78 -887.08 598.639 -882.03 601.772 -877.4 C 604.647 -872.49 607.11 -865.78 607.372 -860.45 C 607.636 -855.08 605.933 -848.44 603.496 -843.37 L 574.957 -785.47 L 637.806 -709.89 C 646.786 -699.06 654.259 -686.25 659.08 -673.44 C 663.693 -660.62 666.416 -645.86 666.835 -631.94 C 666.327 -599.42 653.81 -569.25 631.254 -546.18 C 607.988 -523.73 577.768 -511.33 545.285 -510.84 L 404.249 -510.84 Z M 404.249 -580.55 L 544.823 -580.55 C 560.152 -580.05 570.668 -584.35 581.123 -595.63 C 592.337 -606.26 596.216 -616.83 596.216 -632.03 C 596.216 -638.51 595.467 -643.58 593.292 -649.39 C 591.332 -655.2 588.792 -659.55 584.507 -664.55 L 517.297 -745.29 L 431.802 -745.29 L 365.103 -664.59 C 360.76 -659.55 358.048 -655.04 355.945 -649.1 C 353.64 -643.22 352.855 -638.32 352.855 -631.94 C 352.855 -616.84 356.742 -606.31 368.062 -595.68 C 378.672 -584.45 389.161 -580.04 404.249 -580.55 Z M 49.821 -213.64 C 42.907 -246.76 39.003 -272.72 39.003 -288.36 C 39.003 -301.56 42.165 -316.55 47.089 -328.3 C 52.012 -340.03 61.013 -353 69.807 -362.38 C 88.915 -379.76 117.491 -391.49 143.274 -392.73 L 254.71 -392.73 C 259.634 -397.88 261.504 -400.12 273.674 -409.23 C 285.97 -417.71 302.117 -425.61 317.145 -430.36 C 322.031 -431.39 329.927 -431.95 334.508 -430.84 C 339.087 -429.73 345.891 -425.61 349.765 -422.49 C 353.053 -418.74 357.402 -412.15 358.691 -407.61 C 359.98 -403.07 359.747 -395.16 358.916 -390.26 C 356.515 -380.92 354.8 -373.38 353.532 -366.36 C 352.301 -359.78 353.376 -365.51 353.409 -365.7 L 392.221 -326.88 L 402.909 -326.88 C 406.733 -326.65 412.608 -325.64 415.856 -324.28 C 419.168 -322.87 423.956 -319.61 426.419 -317.15 C 428.882 -314.69 432.135 -309.9 433.536 -306.59 C 434.91 -303.33 435.911 -297.46 436.158 -293.63 L 436.158 -218.4 C 435.544 -212.4 433.012 -203.22 429.716 -198.73 C 426.423 -194.25 418.442 -189.08 412.904 -186.69 L 380.131 -176.37 L 355.74 -95.017 C 353.395 -89.377 348.257 -81.247 343.742 -77.887 C 339.225 -74.527 329.965 -71.927 323.89 -71.307 L 275.443 -71.307 C 271.619 -71.557 265.744 -72.557 262.496 -73.927 C 259.184 -75.327 254.396 -78.587 251.933 -81.047 C 249.47 -83.507 246.217 -88.287 244.816 -91.607 C 243.442 -94.857 242.441 -100.74 242.194 -104.56 L 242.194 -108.94 L 192.985 -108.94 L 192.985 -104.56 C 192.739 -100.74 191.737 -94.857 190.363 -91.607 C 188.963 -88.287 185.71 -83.507 183.246 -81.047 C 180.784 -78.587 175.996 -75.327 172.684 -73.927 C 169.436 -72.557 163.561 -71.557 159.737 -71.307 L 111.291 -71.307 C 105.106 -71.967 95.708 -74.637 91.166 -78.097 C 86.624 -81.557 81.532 -89.887 79.254 -95.657 C 66.606 -141.24 56.709 -180.83 49.821 -213.64 Z M 353.409 -365.7 C 353.41 -365.71 353.41 -365.71 353.409 -365.7 Z M 114.905 -227.3 C 119.379 -205.89 134.606 -164.07 136.227 -165.68 C 138.689 -168.16 143.477 -171.41 146.789 -172.82 C 150.037 -174.19 155.913 -175.17 159.737 -175.43 L 275.443 -175.43 C 279.267 -175.17 285.143 -174.19 288.39 -172.82 C 291.702 -171.41 296.49 -168.16 298.953 -165.68 C 300.911 -163.74 321.495 -212.32 321.495 -212.32 C 323.145 -216.6 326.604 -223.01 329.667 -226.12 C 332.73 -229.23 339.079 -232.76 343.323 -234.48 L 369.66 -242.77 L 369.66 -261.72 C 368.179 -262.08 366.805 -262.47 365.712 -262.92 C 362.431 -264.29 357.679 -267.72 354.937 -270.14 L 294.737 -330.33 C 293.792 -331.4 292.714 -332.77 291.661 -334.26 C 289.919 -332.65 288.165 -331.28 286.636 -330.43 C 282.673 -328.23 275.257 -326.63 270.495 -326.25 L 143.274 -326.25 C 136.58 -326.59 133.13 -325.95 128.582 -324.06 C 124.03 -322.15 121.48 -320.54 116.976 -315.52 C 112.066 -311.14 109.784 -307.89 107.913 -303.29 C 106.031 -298.67 105.501 -295.36 105.501 -288.36 C 105.501 -277.65 108.333 -258.5 114.905 -227.3 Z M 677.379 -212.57 C 705.033 -234.77 725.07 -255.31 742.526 -280.63 C 759.959 -305.94 768.125 -329.34 768.125 -352.75 C 768.125 -367.08 765.834 -377.58 760.532 -386.41 C 755.923 -395.01 751.362 -397.63 744.03 -397.63 C 726.024 -397.63 711.194 -384.74 696.628 -354.9 C 681.559 -324.8 674.299 -289.94 674.299 -249.33 C 674.299 -240.98 674.682 -232.86 675.517 -224.99 C 676.304 -217.34 676.567 -216.63 677.379 -212.57 Z M 726.238 -65.939 C 709.857 -65.939 694.192 -70.479 680.986 -78.351 C 668.043 -86.244 659.015 -94.824 649.797 -106.53 C 644.306 -103.2 640.509 -100.8 633.655 -97.219 C 626.943 -93.887 620.09 -90.055 612.998 -86.473 C 605.093 -81.704 596.042 -80.267 587.541 -81.933 C 579.159 -84.328 571.661 -89.826 567.005 -97.698 C 562.848 -105.57 561.511 -114.9 563.35 -123.48 C 565.714 -132.08 571.518 -139.72 579.35 -144.99 L 579.59 -144.99 L 579.971 -145.22 C 587.208 -148.8 594.251 -152.62 601.344 -156.68 C 608.556 -160.99 612.472 -163.36 617.774 -166.72 C 614.265 -178.17 611.78 -188.44 609.654 -202.54 C 607.505 -216.63 606.43 -231.67 606.43 -246.96 C 606.43 -307.12 619.207 -359.19 644.402 -400.98 C 669.834 -443.01 704.173 -465.46 743.863 -465.46 C 771.253 -465.46 794.586 -453.99 811.278 -433.45 C 827.374 -412.69 835.994 -385.22 835.994 -353.21 C 835.994 -317.41 823.623 -280.63 799.982 -244.81 C 776.316 -209.22 745.773 -177.94 705.989 -147.14 C 709.284 -143.31 711.1 -141.41 716.425 -138.29 C 721.44 -135.19 726.238 -134 732.544 -134 C 744.03 -134 754.395 -137.33 765.522 -145.45 C 776.89 -153.58 787.135 -165.76 797.308 -182.96 C 801.271 -189.4 807.648 -194.41 814.335 -197.04 C 821.068 -198.7 829.38 -198.47 836.566 -195.6 C 843.756 -192.02 850.037 -186.06 853.833 -179.13 C 857.248 -172.21 858.944 -163.84 858.608 -156.2 C 858.179 -152.62 858.011 -149.03 858.011 -144.99 L 858.011 -143.56 L 855.982 -141.87 C 858.346 -143.56 860.352 -145.22 862.478 -147.14 C 867.087 -152.62 873.438 -156.68 880.627 -158.82 C 887.885 -160.74 896.245 -160.26 903.384 -158.11 C 910.429 -155.24 916.471 -149.28 919.528 -142.35 C 922.06 -134.96 921.296 -126.58 917.426 -120.15 C 906.632 -102.72 894.835 -89.347 882.895 -80.267 C 870.621 -71.187 856.961 -65.939 843.899 -65.939 C 831.91 -65.939 820.614 -70.229 812.161 -77.393 C 804.066 -84.807 802.323 -89.097 799.48 -96.74 C 789.38 -87.91 781.737 -82.183 768.483 -75.727 C 755.086 -69.521 740.543 -65.939 726.238 -65.939 Z" style=""/>
</svg>