<?xml version="1.0" encoding="utf-8"?>
<svg xmlns="http://www.w3.org/2000/svg" height="48" viewBox="0 -960 960 960" width="48">
  <path d="M 91 -184.85 C 81.667 -194.18 77 -205.85 77 -219.85 C 77 -233.85 81.667 -245.52 91 -254.85 L 313 -476.85 C 331.667 -495.52 353.833 -504.85 379.5 -504.85 C 405.167 -504.85 427.333 -495.52 446 -476.85 L 539 -384.85 L 805 -682.85 C 813.667 -692.85 824.5 -698.35 837.5 -699.35 C 850.5 -700.35 861.667 -696.18 871 -686.85 C 880.333 -678.18 885.333 -667.35 886 -654.35 C 886.667 -641.35 883 -630.18 875 -620.85 L 608 -318.85 C 590 -298.18 567.333 -287.52 540 -286.85 C 512.667 -286.18 489.333 -295.52 470 -314.85 L 380 -403.85 L 161 -184.85 C 151.667 -175.52 140 -170.85 126 -170.85 C 112 -170.85 100.333 -175.52 91 -184.85 Z M 599.432 -644.86 L 573.713 -702.15 L 516.427 -727.87 C 504.736 -733.25 498.89 -742.37 498.89 -754.76 C 498.89 -767.15 504.736 -776.27 516.427 -781.65 L 573.713 -806.21 L 599.432 -864.65 C 604.108 -875.64 612.69 -881.02 625.152 -881.02 C 637.614 -881.02 646.593 -875.64 652.042 -864.65 L 677.761 -806.21 L 735.046 -781.65 C 746.737 -776.27 752.583 -767.15 752.583 -754.76 C 752.583 -742.37 746.737 -733.25 735.046 -727.87 L 677.761 -702.15 L 652.042 -644.86 C 646.593 -633.18 637.614 -627.34 625.152 -627.34 C 612.69 -627.34 604.108 -633.18 599.432 -644.86 Z"/>
</svg>