<?xml version="1.0" encoding="utf-8"?>
<svg xmlns="http://www.w3.org/2000/svg" height="48" width="48">
  <path d="M 6.5 41.2 C 6 40.733 5.75 40.15 5.75 39.45 C 5.75 38.75 6 38.167 6.5 37.7 L 19.3 24.9 C 19.533 24.667 19.792 24.492 20.075 24.375 C 20.358 24.258 20.65 24.2 20.95 24.2 C 21.25 24.2 21.542 24.258 21.825 24.375 C 22.108 24.492 22.367 24.667 22.6 24.9 L 28.9 31.2 L 42.2 16.35 C 42.633 15.85 43.183 15.575 43.85 15.525 C 44.517 15.475 45.083 15.683 45.55 16.15 C 46.017 16.583 46.25 17.117 46.25 17.75 C 46.25 18.383 46.05 18.933 45.65 19.4 L 30.65 36.35 C 30.417 36.617 30.158 36.817 29.875 36.95 C 29.592 37.083 29.3 37.15 29 37.15 C 28.7 37.183 28.383 37.142 28.05 37.025 C 27.717 36.908 27.433 36.733 27.2 36.5 L 20.95 30.25 L 10 41.2 C 9.533 41.667 8.95 41.9 8.25 41.9 C 7.55 41.9 6.967 41.667 6.5 41.2 Z M 11.127 21.996 C 10.46 21.983 9.678 21.848 9.089 21.606 C 8.499 21.362 7.848 20.905 7.368 20.446 C 6.907 19.966 6.45 19.315 6.208 18.726 C 5.964 18.136 5.815 17.354 5.815 16.689 C 5.815 16.104 5.943 15.416 6.123 14.875 C 6.326 14.338 6.682 13.716 7.036 13.266 L 8.836 11.129 L 8.151 9.739 C 8.02 9.439 7.877 8.927 7.893 8.593 C 7.91 8.26 8.098 7.77 8.252 7.487 C 8.436 7.232 8.781 6.863 9.062 6.704 C 9.347 6.542 9.86 6.435 10.183 6.412 L 17.033 6.412 C 17.356 6.435 17.869 6.542 18.154 6.704 C 18.435 6.863 18.78 7.232 18.964 7.487 C 19.118 7.77 19.306 8.258 19.322 8.591 C 19.339 8.927 19.209 9.411 19.08 9.711 L 18.377 11.136 L 20.149 13.267 C 20.516 13.721 20.87 14.331 21.079 14.864 C 21.264 15.399 21.392 16.112 21.417 16.686 C 21.403 17.354 21.267 18.137 21.022 18.727 C 20.777 19.318 20.318 19.968 19.854 20.448 C 19.373 20.909 18.721 21.363 18.13 21.606 C 17.539 21.849 16.757 21.983 16.089 21.996 Z"/>
</svg>