<?xml version="1.0" encoding="utf-8"?>
<svg xmlns="http://www.w3.org/2000/svg" height="48" viewBox="0 -960 960 960" width="48">
  <path d="M 269 -404 L 269 -142 C 269 -128.833 264.44 -117.71 255.32 -108.63 C 246.207 -99.543 235.04 -95 221.82 -95 C 208.607 -95 197.5 -99.543 188.5 -108.63 C 179.5 -117.71 175 -128.833 175 -142 L 175 -778 C 175 -791.167 179.543 -802.46 188.63 -811.88 C 197.71 -821.293 208.833 -826 222 -826 L 526 -826 C 537 -826 546.917 -822.167 555.75 -814.5 C 564.583 -806.833 570 -797.667 572 -787 L 583 -740 L 778 -740 C 791.167 -740 802.46 -735.293 811.88 -725.88 C 821.293 -716.46 826 -705.167 826 -692 L 826 -366 C 826 -352.833 821.293 -341.71 811.88 -332.63 C 802.46 -323.543 791.167 -319 778 -319 L 561 -319 C 550 -319 540.083 -322.5 531.25 -329.5 C 522.417 -336.5 517 -345.333 515 -356 L 504 -404 L 269 -404 Z"/>
</svg>