<?xml version="1.0" encoding="utf-8"?>
<svg viewBox="0 0 22 22" xmlns="http://www.w3.org/2000/svg">
  <g>
    <path d="M 13.586 4.761 C 13.854 4.695 13.869 4.658 14.641 4.555 C 15.404 4.453 16.494 4.475 17.01 4.99 C 17.525 5.506 17.547 6.596 17.445 7.359 C 17.342 8.131 17.306 8.148 17.24 8.416 C 17.476 8.558 17.513 8.544 18.132 9.017 C 18.744 9.484 19.5 10.271 19.5 11 C 19.5 11.729 18.744 12.516 18.132 12.983 C 17.513 13.456 17.476 13.444 17.239 13.586 C 17.305 13.854 17.342 13.869 17.445 14.641 C 17.547 15.404 17.525 16.494 17.01 17.01 C 16.494 17.525 15.404 17.547 14.641 17.445 C 13.869 17.342 13.852 17.306 13.584 17.24 C 13.442 17.476 13.456 17.513 12.983 18.132 C 12.516 18.744 11.729 19.5 11 19.5 C 10.271 19.5 9.484 18.744 9.017 18.132 C 8.544 17.513 8.556 17.476 8.414 17.239 C 8.146 17.305 8.131 17.342 7.359 17.445 C 6.596 17.547 5.506 17.525 4.99 17.01 C 4.475 16.494 4.453 15.404 4.555 14.641 C 4.658 13.869 4.694 13.852 4.76 13.584 C 4.524 13.442 4.487 13.456 3.868 12.983 C 3.256 12.516 2.5 11.729 2.5 11 C 2.5 10.271 3.256 9.484 3.868 9.017 C 4.487 8.544 4.524 8.556 4.761 8.414 C 4.695 8.146 4.658 8.131 4.555 7.359 C 4.453 6.596 4.475 5.506 4.99 4.99 C 5.506 4.475 6.596 4.453 7.359 4.555 C 8.131 4.658 8.148 4.694 8.416 4.76 C 8.558 4.524 8.544 4.487 9.017 3.868 C 9.484 3.256 10.271 2.5 11 2.5 C 11.729 2.5 12.516 3.256 12.983 3.868 C 13.456 4.487 13.444 4.524 13.586 4.761 Z M 8.525 8.525 C 7.864 9.186 7.5 9.998 7.5 11 C 7.5 12.002 7.864 12.814 8.525 13.475 C 9.186 14.136 9.998 14.5 11 14.5 C 12.002 14.5 12.814 14.136 13.475 13.475 C 14.136 12.814 14.5 12.002 14.5 11 C 14.5 9.998 14.136 9.186 13.475 8.525 C 12.814 7.864 12.002 7.5 11 7.5 C 9.998 7.5 9.186 7.864 8.525 8.525 Z"/>
  </g>
</svg>