<?xml version="1.0" encoding="utf-8"?>
<svg xmlns="http://www.w3.org/2000/svg" height="48" viewBox="0 -960 960 960" width="48">
  <path d="M 149 -134.5 C 122.87 -134.52 100.515 -143.921 82.113 -162.63 C 63.748 -181.356 54.519 -203.537 54.5 -229 L 54.5 -731 C 54.519 -756.735 63.747 -779.152 82.111 -798.079 C 100.513 -816.981 122.869 -826.48 149 -826.5 L 410.209 -826.5 L 481.209 -754.5 L 811 -754.5 C 836.737 -754.481 859.156 -745.085 878.082 -726.385 C 896.983 -707.653 906.48 -685.465 906.5 -660 L 906.5 -493 C 906.481 -478.852 901.65 -467.156 892.083 -458.096 C 882.491 -449.073 870.985 -444.5 857.74 -444.5 C 844.485 -444.5 833.228 -449.136 824.145 -458.278 C 815.091 -467.44 810.518 -478.739 810.5 -492 L 810.5 -659.5 L 441.793 -659.5 L 370.793 -730.5 L 149.5 -730.5 L 149.5 -229.5 L 425 -229.5 C 438.262 -229.481 449.565 -224.848 458.734 -215.673 C 467.869 -206.478 472.5 -195.134 472.5 -181.82 C 472.5 -168.512 467.867 -157.228 458.732 -148.145 C 449.563 -139.091 438.261 -134.518 425 -134.5 Z M 591.075 -96.35 C 576.343 -96.369 563.797 -101.555 553.619 -111.609 C 543.467 -121.919 538.322 -134.344 538.303 -149.1 L 538.303 -285.91 C 538.314 -296.644 541.384 -306.596 547.446 -315.325 C 553.528 -324.071 561.743 -330.383 571.995 -334.199 L 572.079 -334.23 L 714.052 -334.23 L 714.052 -402.66 C 714.461 -410.349 712.711 -414.649 707.253 -419.581 C 702.486 -425.054 698.124 -426.29 690.294 -426.29 C 682.449 -426.29 678.091 -425.039 673.319 -419.564 C 667.832 -414.65 666.109 -410.358 666.514 -402.66 L 666.514 -392.67 C 666.514 -386.595 661.589 -381.67 655.514 -381.67 L 597.55 -381.67 C 591.475 -381.67 586.55 -386.595 586.55 -392.67 L 586.55 -402.66 C 586.965 -430.026 597.641 -455.911 616.968 -475.835 C 636.846 -495.169 662.557 -506.36 690.132 -506.36 C 717.723 -506.36 743.446 -495.181 763.436 -475.856 C 782.853 -455.932 793.579 -430.033 793.997 -402.66 L 793.997 -334.23 L 803.593 -334.23 L 803.682 -334.194 C 813.197 -330.379 821.245 -324.075 827.677 -315.336 C 834.117 -306.605 837.348 -296.647 837.36 -285.91 L 837.36 -149.1 C 837.34 -134.342 832.011 -121.908 821.433 -111.598 C 810.836 -101.547 798.14 -96.369 783.476 -96.35 Z M 232.912 -424.704 C 226.004 -432.752 220.684 -445.762 219.942 -456.43 L 219.942 -477.054 L 207.403 -489.668 C 203.652 -493.683 199.544 -499.989 197.416 -504.896 C 195.803 -509.556 194.392 -516.168 194.392 -521.15 C 194.392 -526.082 195.834 -532.8 197.413 -537.468 C 199.537 -542.376 203.627 -548.64 207.302 -552.643 L 219.942 -565.346 L 219.943 -586.014 C 220.685 -596.732 226.006 -609.717 232.839 -617.784 L 232.863 -617.813 L 232.892 -617.837 C 240.901 -624.78 253.905 -630.142 264.619 -630.91 L 285.336 -630.91 L 298.031 -643.368 C 301.965 -646.974 308.317 -651.063 313.477 -653.253 C 318.235 -654.872 324.746 -656.21 329.716 -656.21 C 334.881 -656.21 341.926 -654.542 346.802 -652.683 C 351.434 -650.503 357.272 -646.529 361.019 -643.096 L 373.381 -630.91 L 394.207 -630.909 C 404.969 -630.15 418.036 -624.74 426.088 -617.829 L 426.117 -617.804 L 426.141 -617.776 C 433.05 -609.708 438.355 -596.738 439.107 -585.98 L 439.107 -565.274 L 451.524 -552.609 C 455.165 -548.667 459.197 -542.491 461.375 -537.524 C 463.01 -532.824 464.398 -526.221 464.398 -521.2 C 464.398 -516.259 462.987 -509.572 461.361 -504.861 C 459.232 -499.956 455.357 -493.906 451.591 -489.87 L 439.107 -477.146 L 439.106 -456.396 C 438.353 -445.697 432.947 -432.65 425.962 -424.612 L 425.937 -424.583 L 425.909 -424.559 C 418.315 -418.129 406.736 -413.236 396.545 -411.976 L 396.545 -321.813 C 396.496 -309.019 389.077 -298.899 379.195 -294.098 C 369.313 -289.298 356.776 -289.722 346.681 -297.605 L 329.831 -310.179 L 312.979 -297.605 C 302.883 -289.722 290.347 -289.298 280.465 -294.098 C 270.583 -298.899 263.165 -309.019 263.116 -321.813 L 263.116 -411.878 C 252.765 -412.98 240.732 -418.01 232.966 -424.65 L 232.937 -424.675 Z" style=""/>
</svg>