<?xml version="1.0" encoding="utf-8"?>
<svg xmlns="http://www.w3.org/2000/svg" height="48" viewBox="0 -960 960 960" width="48">
  <path d="M 149 -135 C 122.967 -135 100.79 -144.327 82.47 -162.98 C 64.157 -181.627 55 -203.633 55 -229 L 55 -731 C 55 -756.64 64.157 -778.883 82.47 -797.73 C 100.79 -816.577 122.967 -826 149 -826 L 371 -826 C 383.46 -826 395.573 -823.333 407.34 -818 C 419.113 -812.667 429.363 -805.637 438.09 -796.91 L 481.45 -754 L 811 -754 C 836.64 -754 858.883 -744.677 877.73 -726.03 C 896.577 -707.377 906 -685.367 906 -660 L 906 -229 C 906 -203.633 896.577 -181.627 877.73 -162.98 C 858.883 -144.327 836.64 -135 811 -135 Z M 149 -229 L 811 -229 L 811 -660 L 442 -660 L 371 -731 L 149 -731 Z M 584.616 -298.24 C 546.251 -298.24 513.841 -311.57 487.384 -338.23 C 460.929 -365.03 447.701 -397.34 447.701 -435.16 C 447.701 -473.11 460.929 -505.28 487.384 -532.08 C 513.841 -558.74 546.251 -572.07 584.616 -572.07 C 622.489 -572.07 654.784 -558.74 681.486 -532.08 C 708.187 -505.28 721.531 -473.11 721.531 -435.16 C 721.531 -397.34 708.187 -365.03 681.486 -338.23 C 654.784 -311.57 622.489 -298.24 584.616 -298.24 Z M 596.931 -438.34 L 596.931 -504.7 C 596.931 -509.48 595.149 -513.68 591.571 -517.01 C 587.978 -520.49 583.804 -522.08 579.038 -522.08 C 574.069 -522.08 569.65 -520.35 565.781 -516.72 C 561.913 -513.25 559.986 -508.61 559.986 -503.25 L 559.986 -438.78 C 559.986 -434 560.826 -429.65 562.521 -425.73 C 564.217 -421.83 566.505 -418.2 569.403 -414.87 L 613.593 -369.23 C 616.968 -365.9 621.199 -364.16 626.271 -364.16 C 631.341 -364.16 635.572 -366.19 638.948 -370.1 C 642.324 -374.01 644.134 -378.37 644.38 -383.15 C 644.627 -387.93 642.816 -392.12 638.948 -396.03 Z"/>
</svg>