<?xml version="1.0" encoding="utf-8"?>
<svg xmlns="http://www.w3.org/2000/svg" height="48" viewBox="0 -960 960 960" width="48">
  <path d="M 149 -135 C 122.967 -135 100.79 -144.327 82.47 -162.98 C 64.157 -181.627 55 -203.633 55 -229 L 55 -731 C 55 -756.64 64.157 -778.883 82.47 -797.73 C 100.79 -816.577 122.967 -826 149 -826 L 410 -826 L 481 -754 L 811 -754 C 836.64 -754 858.883 -744.677 877.73 -726.03 C 896.577 -707.377 906 -685.367 906 -660 L 906 -493 C 906 -478.947 901.247 -467.433 891.74 -458.46 C 882.227 -449.487 870.893 -445 857.74 -445 C 844.58 -445 833.5 -449.543 824.5 -458.63 C 815.5 -467.71 811 -478.833 811 -492 L 811 -660 L 442 -660 L 371 -731 L 149 -731 L 149 -229 L 425 -229 C 438.167 -229 449.293 -224.44 458.38 -215.32 C 467.46 -206.207 472 -195.04 472 -181.82 C 472 -168.607 467.46 -157.5 458.38 -148.5 C 449.293 -139.5 438.167 -135 425 -135 Z M 591.075 -96.85 C 576.438 -96.85 564.072 -101.96 553.975 -111.96 C 543.876 -122.19 538.803 -134.44 538.803 -149.1 L 538.803 -285.91 C 538.803 -296.57 541.828 -306.38 547.857 -315.04 C 553.885 -323.73 561.982 -329.95 572.169 -333.73 L 588.852 -333.73 L 588.852 -380.88 C 588.852 -408.93 598.394 -432.93 617.479 -452.72 C 636.584 -472.74 659.938 -482.76 687.542 -482.76 C 715.168 -482.76 738.636 -472.74 757.899 -452.72 C 777.183 -432.93 786.814 -408.93 786.814 -380.88 L 786.814 -333.73 L 803.496 -333.73 C 812.95 -329.95 820.89 -323.73 827.274 -315.04 C 833.678 -306.38 836.86 -296.57 836.86 -285.91 L 836.86 -149.1 C 836.86 -134.44 831.611 -122.19 821.089 -111.96 C 810.569 -101.96 798.046 -96.85 783.476 -96.85 Z M 645.57 -338.16 L 730.095 -338.16 L 730.095 -389.32 C 730.095 -402.24 726.112 -413.14 718.105 -421.82 C 710.119 -430.49 700.222 -434.94 688.388 -434.94 C 676.579 -434.94 666.48 -430.49 658.114 -421.82 C 649.751 -413.14 645.57 -402.24 645.57 -389.32 Z M 233.291 -425.03 C 226.425 -433.01 221.166 -445.84 220.442 -456.43 L 220.442 -477.26 L 207.768 -490.01 C 204.044 -493.99 199.996 -500.19 197.888 -505.06 C 196.284 -509.69 194.892 -516.22 194.892 -521.15 C 194.892 -526.03 196.301 -532.63 197.872 -537.27 C 199.976 -542.14 204.007 -548.32 207.656 -552.29 L 220.442 -565.14 L 220.442 -585.98 C 221.166 -596.62 226.428 -609.46 233.22 -617.46 C 241.16 -624.36 253.983 -629.66 264.619 -630.41 L 285.54 -630.41 L 298.369 -643 C 302.27 -646.58 308.516 -650.61 313.638 -652.78 C 318.366 -654.39 324.796 -655.71 329.716 -655.71 C 334.824 -655.71 341.745 -654.08 346.589 -652.23 C 351.187 -650.07 356.949 -646.15 360.668 -642.74 L 373.176 -630.41 L 394.172 -630.41 C 404.856 -629.67 417.777 -624.32 425.762 -617.45 C 432.629 -609.45 437.873 -596.66 438.607 -585.98 L 438.607 -565.07 L 451.157 -552.27 C 454.772 -548.36 458.745 -542.29 460.903 -537.36 C 462.529 -532.69 463.898 -526.17 463.898 -521.2 C 463.898 -516.31 462.52 -509.74 460.902 -505.06 C 458.792 -500.19 454.972 -494.22 451.234 -490.22 L 438.607 -477.35 L 438.607 -456.43 C 437.873 -445.81 432.528 -432.91 425.585 -424.94 C 418.056 -418.55 406.27 -413.57 396.045 -412.42 L 396.045 -321.813 C 396.045 -296.523 366.883 -282.333 346.984 -298.003 L 329.831 -310.803 L 312.676 -298.003 C 292.776 -282.333 263.616 -296.523 263.616 -321.813 L 263.616 -412.33 C 253.241 -413.31 240.991 -418.43 233.291 -425.03 Z"/>
</svg>