<?xml version="1.0" encoding="utf-8"?>
<svg xmlns="http://www.w3.org/2000/svg" height="48" viewBox="0 -960 960 960" width="48">
  <path d="M 149 -135 C 122.967 -135 100.79 -144.327 82.47 -162.98 C 64.157 -181.627 55 -203.633 55 -229 L 55 -731 C 55 -756.64 64.157 -778.883 82.47 -797.73 C 100.79 -816.577 122.967 -826 149 -826 L 371 -826 C 383.46 -826 395.573 -823.333 407.34 -818 C 419.113 -812.667 429.363 -805.637 438.09 -796.91 L 481.45 -754 L 811 -754 C 836.64 -754 858.883 -744.677 877.73 -726.03 C 896.577 -707.377 906 -685.367 906 -660 L 906 -229 C 906 -203.633 896.577 -181.627 877.73 -162.98 C 858.883 -144.327 836.64 -135 811 -135 Z M 149 -229 L 811 -229 L 811 -660 L 442 -660 L 371 -731 L 149 -731 Z M 320.127 -385.95 L 320.127 -446.62 C 320.127 -468.32 337.745 -485.92 359.452 -485.92 L 600.548 -485.92 C 622.255 -485.92 639.873 -468.32 639.873 -446.62 L 639.873 -385.95 C 639.873 -364.24 622.255 -346.62 600.548 -346.62 C 578.841 -346.62 561.222 -364.24 561.222 -385.95 L 561.222 -407.29 L 398.778 -407.29 L 398.778 -385.95 C 398.778 -364.24 381.159 -346.62 359.452 -346.62 C 337.745 -346.62 320.127 -364.24 320.127 -385.95 Z"/>
  <title>cabinet-filing</title>
</svg>