<?xml version="1.0" encoding="utf-8"?>
<svg viewBox="0 0 22 22" xmlns="http://www.w3.org/2000/svg">
  <path d="M 11.5 1.5 C 12.557 1.522 13.61 1.97 14.303 2.657 C 14.996 3.344 15.366 4.199 15.469 5.149 C 16.735 5.809 17.449 7.014 17.5 8.5 C 17.484 9.384 17.171 10.276 16.671 10.921 C 16.171 11.567 15.554 11.977 14.84 12.246 L 11.939 19.989 C 11.902 20.079 11.835 20.203 11.772 20.278 C 11.561 20.533 11.11 20.673 10.835 20.626 C 10.559 20.58 10.22 20.286 10.065 19.99 L 7.158 12.246 C 6.446 11.976 5.827 11.566 5.328 10.92 C 4.829 10.275 4.5 9.383 4.5 8.5 C 4.5 7.512 4.915 6.533 5.528 5.867 C 6.14 5.201 6.839 4.849 7.657 4.657 C 7.792 3.709 8.201 3.14 8.867 2.528 C 9.533 1.915 10.512 1.52 11.5 1.5 Z M 12.916 4.083 C 12.528 3.695 12.091 3.5 11.5 3.5 C 10.908 3.5 10.472 3.695 10.084 4.084 C 9.695 4.472 9.478 4.908 9.5 5.5 C 9.478 5.74 9.361 6.054 9.207 6.207 C 9.054 6.361 8.74 6.478 8.5 6.5 C 7.908 6.478 7.472 6.695 7.084 7.084 C 6.695 7.472 6.5 7.908 6.5 8.5 C 6.5 9.092 6.695 9.528 7.084 9.916 C 7.472 10.305 7.908 10.522 8.5 10.5 C 9.22 10.529 9.792 10.222 10.164 9.604 C 10.366 9.365 10.734 9.153 11 9.153 C 11.266 9.153 11.634 9.365 11.836 9.604 C 12.208 10.221 12.779 10.529 13.5 10.5 C 14.092 10.522 14.528 10.305 14.916 9.916 C 15.305 9.528 15.522 9.092 15.5 8.5 C 15.512 8.048 15.382 7.698 15.131 7.345 C 14.881 6.992 14.593 6.754 14.162 6.617 C 13.978 6.537 13.752 6.372 13.651 6.216 C 13.55 6.06 13.492 5.786 13.494 5.586 C 13.497 5.548 13.499 5.519 13.5 5.482 C 13.521 4.89 13.304 4.471 12.916 4.083 Z M 9.339 12.366 L 10.998 16.796 L 12.659 12.366 C 11.883 12.158 11.648 12.032 11.006 11.499 C 10.473 11.968 10.116 12.159 9.339 12.366 Z"/>
</svg>