<?xml version="1.0" encoding="utf-8"?>
<svg xmlns="http://www.w3.org/2000/svg" height="48" viewBox="0 -960 960 960" width="48">
  <path d="M 286.625 -775.6 C 286.625 -800.67 295.663 -822.36 313.74 -840.72 C 331.814 -859.03 353.699 -868.35 379.37 -868.35 L 583.61 -868.35 C 609.301 -868.35 631.186 -859.03 649.26 -840.72 C 667.317 -822.36 676.355 -800.67 676.355 -775.6 L 676.355 -705.38 L 773.54 -705.38 C 796.905 -705.38 816.809 -697.15 833.251 -680.71 C 849.694 -664.27 857.916 -644.36 857.916 -621 L 857.916 -175.14 C 857.916 -152.02 849.694 -132.32 833.251 -116.06 C 816.809 -99.79 796.905 -91.65 773.54 -91.65 L 185.572 -91.65 C 162.45 -91.65 142.753 -99.79 126.482 -116.06 C 110.217 -132.32 102.084 -152.02 102.084 -175.14 L 102.084 -621 C 102.084 -644.36 110.217 -664.27 126.482 -680.71 C 142.753 -697.15 162.45 -705.38 185.572 -705.38 L 286.625 -705.38 Z M 583.61 -775.6 L 379.37 -775.6 L 379.37 -705.38 L 583.61 -705.38 Z M 439.793 -344.78 C 457.094 -340.63 472.421 -334.71 485.773 -327.02 C 494.655 -321.09 501.464 -314.85 506.201 -308.27 C 510.938 -301.7 513.306 -294.92 513.306 -287.94 C 513.306 -280.85 510.642 -274.93 505.313 -270.19 C 499.984 -265.44 493.471 -263.07 485.773 -263.07 L 276.165 -263.07 C 268.219 -263.07 261.495 -265.31 255.995 -269.79 C 250.495 -274.27 247.744 -280.44 247.744 -288.28 C 247.744 -294.92 250.113 -301.55 254.849 -308.19 C 259.586 -314.82 266.988 -321.09 277.053 -327.02 C 290.24 -334.71 305.38 -340.63 322.474 -344.78 C 339.563 -348.92 359.061 -351 380.969 -351 C 402.878 -351 422.485 -348.92 439.793 -344.78 Z M 335.157 -422.94 C 322.474 -435.37 316.133 -450.79 316.133 -469.19 C 316.133 -487 322.498 -502.25 335.229 -514.93 C 347.959 -527.62 363.23 -533.96 381.04 -533.96 C 398.851 -533.96 414.098 -527.59 426.781 -514.86 C 439.464 -502.13 445.806 -486.86 445.806 -469.05 C 445.806 -450.65 439.44 -435.25 426.71 -422.87 C 413.98 -410.48 398.709 -404.28 380.898 -404.28 C 363.088 -404.28 347.841 -410.5 335.157 -422.94 Z M 185.572 -175.14 L 773.54 -175.14 L 773.54 -621 L 185.572 -621 Z M 662.858 -493.45 C 663.963 -494.44 665.106 -495.61 666.29 -496.38 C 671.74 -500.64 678.022 -502.78 685.334 -502.96 C 685.605 -502.96 685.858 -502.96 686.129 -502.96 C 686.653 -502.96 687.158 -502.96 687.661 -502.96 C 695.807 -502.58 702.866 -499.66 708.917 -493.86 C 709.148 -493.67 709.402 -493.45 709.634 -493.26 C 716.15 -486.68 719.447 -478.91 719.544 -469.62 C 719.641 -460.29 716.519 -452.36 710.157 -446.14 L 677.247 -413.17 L 709.478 -380.99 C 716.034 -374.38 719.486 -366.62 719.874 -357.52 C 720.262 -348.39 717.061 -340.45 710.293 -333.66 C 710.274 -333.66 710.274 -333.66 710.255 -333.66 C 703.681 -327.25 695.651 -323.95 686.207 -323.78 C 677.286 -323.78 669.664 -326.67 663.342 -332.49 C 662.934 -332.88 662.547 -333.28 662.178 -333.66 L 629.946 -365.87 L 597.714 -333.66 C 591.373 -327.25 583.557 -324.16 574.287 -324.16 C 565.075 -324.36 557.182 -327.66 550.628 -334.05 C 550.55 -334.24 550.472 -334.24 550.414 -334.24 C 544.092 -340.64 540.911 -348.39 540.834 -357.71 C 540.776 -365.67 543.181 -372.26 547.834 -378.07 C 548.63 -379.05 549.483 -380 550.414 -380.99 L 582.626 -413.17 L 550.278 -445.56 C 543.839 -451.96 540.484 -459.91 540.252 -469.22 C 540.174 -478.54 543.375 -486.68 550.143 -493.45 C 556.93 -500.25 564.998 -503.36 574.074 -503.15 C 583.266 -502.78 591.082 -499.27 597.502 -492.87 C 597.578 -492.87 597.656 -492.87 597.714 -492.69 L 629.946 -460.51 Z" style="stroke-width: 0.05;"/>
</svg>