<?xml version="1.0" encoding="utf-8"?>
<svg xmlns="http://www.w3.org/2000/svg" height="48" viewBox="0 -960 960 960" width="48">
  <path d="M 286.625 -775.6 C 286.625 -800.67 295.663 -822.36 313.74 -840.72 C 331.814 -859.03 353.699 -868.35 379.37 -868.35 L 583.61 -868.35 C 609.301 -868.35 631.186 -859.03 649.26 -840.72 C 667.317 -822.36 676.355 -800.67 676.355 -775.6 L 676.355 -705.38 L 773.54 -705.38 C 796.905 -705.38 816.809 -697.15 833.251 -680.71 C 849.694 -664.27 857.916 -644.36 857.916 -621 L 857.916 -175.14 C 857.916 -152.02 849.694 -132.32 833.251 -116.06 C 816.809 -99.79 796.905 -91.65 773.54 -91.65 L 185.572 -91.65 C 162.45 -91.65 142.753 -99.79 126.482 -116.06 C 110.217 -132.32 102.084 -152.02 102.084 -175.14 L 102.084 -621 C 102.084 -644.36 110.217 -664.27 126.482 -680.71 C 142.753 -697.15 162.45 -705.38 185.572 -705.38 L 286.625 -705.38 L 286.625 -775.6 Z M 583.61 -775.6 L 379.37 -775.6 L 379.37 -705.38 L 583.61 -705.38 L 583.61 -775.6 Z M 439.793 -344.78 C 457.094 -340.63 472.421 -334.71 485.773 -327.02 C 494.655 -321.09 501.464 -314.85 506.201 -308.27 C 510.938 -301.7 513.306 -294.92 513.306 -287.94 C 513.306 -280.85 510.642 -274.93 505.313 -270.19 C 499.984 -265.44 493.471 -263.07 485.773 -263.07 L 276.165 -263.07 C 268.219 -263.07 261.495 -265.31 255.995 -269.79 C 250.495 -274.27 247.744 -280.44 247.744 -288.28 C 247.744 -294.92 250.113 -301.55 254.849 -308.19 C 259.586 -314.82 266.988 -321.09 277.053 -327.02 C 290.24 -334.71 305.38 -340.63 322.474 -344.78 C 339.563 -348.92 359.061 -351 380.969 -351 C 402.878 -351 422.485 -348.92 439.793 -344.78 Z M 335.157 -422.94 C 322.474 -435.37 316.133 -450.79 316.133 -469.19 C 316.133 -487 322.498 -502.25 335.229 -514.93 C 347.959 -527.62 363.23 -533.96 381.04 -533.96 C 398.851 -533.96 414.098 -527.59 426.781 -514.86 C 439.464 -502.13 445.806 -486.86 445.806 -469.05 C 445.806 -450.65 439.44 -435.25 426.71 -422.87 C 413.98 -410.48 398.709 -404.28 380.898 -404.28 C 363.088 -404.28 347.841 -410.5 335.157 -422.94 Z M 185.572 -175.14 L 773.54 -175.14 L 773.54 -621 L 185.572 -621 L 185.572 -175.14 Z M 578.276 -412.01 L 659.055 -493.55 C 666.107 -500.63 674.531 -504.11 684.346 -504.11 C 694.161 -504.11 702.6 -500.63 709.637 -493.85 C 716.688 -486.59 720.206 -477.99 720.206 -468.17 C 720.206 -458.36 716.688 -450.06 709.637 -442.96 L 603.189 -336.51 C 595.911 -329.57 587.427 -325.95 577.732 -325.95 C 568.024 -325.95 559.659 -329.57 552.608 -336.51 L 509.576 -379.55 C 502.54 -386.79 499.007 -395.25 499.007 -405.06 C 499.007 -414.72 502.601 -423.03 509.803 -430.13 C 516.476 -436.62 524.781 -440.09 534.716 -440.39 C 544.636 -440.54 553.121 -437.22 560.158 -430.13 L 578.276 -412.01 Z" style="stroke-width: 0.05;"/>
</svg>