<?xml version="1.0" encoding="utf-8"?>
<svg xmlns="http://www.w3.org/2000/svg" height="48" viewBox="0 -960 960 960" width="48">
  <path d="M 237 -143 C 210.967 -143 188.793 -152.16 170.48 -170.48 C 152.16 -188.793 143 -210.967 143 -237 L 143 -803 C 143 -829.033 152.16 -851.21 170.48 -869.53 C 188.793 -887.843 210.967 -897 237 -897 L 506 -897 C 518.747 -897 530.893 -894.513 542.44 -889.54 C 553.993 -884.573 564.18 -877.727 573 -869 L 749 -693 C 757.727 -684.18 764.573 -673.993 769.54 -662.44 C 774.513 -650.893 777 -638.747 777 -626 L 777 -544.68 C 777 -531.513 772.44 -520.39 763.32 -511.31 C 754.207 -502.223 743.04 -497.68 729.82 -497.68 C 716.607 -497.68 705.5 -502.223 696.5 -511.31 C 687.5 -520.39 683 -531.513 683 -544.68 L 683 -614 L 565 -614 C 545.667 -614 529 -621 515 -635 C 501 -649 494 -665.667 494 -685 L 494 -803 L 237 -803 L 237 -237 L 525.744 -237 C 538.911 -237 550.037 -232.44 559.124 -223.32 C 568.204 -214.207 572.744 -203.04 572.744 -189.82 C 572.744 -176.607 568.204 -165.5 559.124 -156.5 C 550.037 -147.5 538.911 -143 525.744 -143 Z M 601.26 -266.05 C 595.007 -266.05 590.195 -268.96 586.847 -274.81 C 583.484 -280.5 583.427 -286.21 586.665 -291.76 L 665.194 -451.59 C 668.906 -459.11 674.923 -461.88 683.262 -459.94 C 691.602 -458.13 695.772 -452.3 695.772 -442.58 L 695.772 -335.54 L 761.096 -335.54 C 767.156 -335.54 771.687 -332.77 774.675 -327.21 C 777.664 -321.64 777.773 -316.09 774.994 -310.53 L 702.025 -152.07 C 697.855 -144.31 691.602 -141.51 683.262 -143.74 C 674.923 -146.09 670.753 -151.96 670.753 -161.12 L 670.753 -266.05 Z"/>
</svg>