<?xml version="1.0" encoding="utf-8"?>
<svg xmlns="http://www.w3.org/2000/svg" height="48" viewBox="0 -960 960 960" width="48">
  <path d="M 96.343 -839.56 C 98.339 -842.12 100.442 -844.62 102.653 -847.07 C 104.133 -848.12 105.603 -850.38 107.201 -851.74 C 110.413 -855.17 113.846 -858.09 117.355 -861.03 C 147.131 -884.96 185.128 -894.2 221.196 -888.37 C 223.331 -888.05 225.458 -887.68 227.577 -887.24 C 240.048 -884.59 252.201 -880.15 263.607 -873.95 C 274.072 -868.14 283.916 -860.73 292.816 -851.74 C 304.563 -840.05 313.617 -826.63 319.976 -812.3 C 320.372 -811.4 320.757 -810.497 321.132 -809.59 L 669.122 -809.59 C 686.224 -844.24 721.972 -868.21 763.282 -868.21 C 821.227 -868.21 868.215 -821.27 868.215 -763.27 C 868.215 -705.29 821.227 -658.36 763.282 -658.36 C 721.893 -658.36 686.102 -682.33 669.021 -717.15 L 323.837 -716.958 L 323.861 -715.869 C 317.557 -697.746 307.16 -680.746 292.665 -666.3 C 278.909 -652.788 262.894 -642.684 245.831 -636.221 L 243.27 -636.229 L 243.307 -290.78 C 277.869 -273.45 301.633 -237.79 301.633 -196.51 C 301.633 -138.72 254.645 -91.79 196.701 -91.79 C 138.756 -91.79 91.786 -138.72 91.786 -196.51 C 91.786 -238.22 115.875 -274.06 150.819 -290.97 L 150.726 -637.61 C 150.343 -637.768 149.96 -637.928 149.577 -638.09 C 148.812 -638.41 148.045 -638.78 147.285 -639.13 C 145.155 -640.07 143.042 -641.05 140.952 -642.08 C 128.881 -648.24 117.549 -656.37 107.448 -666.38 C 60.176 -713.33 56.512 -787.48 96.343 -839.56 Z M 163.069 -722.2 C 167.158 -718.14 171.745 -714.86 176.631 -712.37 C 177.477 -711.94 178.332 -711.54 179.194 -711.17 C 179.502 -711.02 179.812 -710.88 180.122 -710.74 C 186.652 -707.98 193.614 -706.58 200.572 -706.58 C 201.488 -706.58 202.404 -706.6 203.318 -706.64 C 215.938 -707.33 228.369 -712.67 238.041 -722.17 C 254.027 -738.1 257.699 -761.7 249.096 -781.26 C 246.522 -787.07 242.857 -792.49 238.102 -797.23 C 234.5 -800.87 230.515 -803.86 226.279 -806.21 C 221.662 -808.73 216.743 -810.53 211.695 -811.6 C 210.837 -811.77 209.976 -811.93 209.112 -812.06 C 194.512 -814.42 179.132 -810.68 167.079 -800.99 C 165.659 -799.8 164.269 -798.62 162.969 -797.23 C 162.322 -796.67 161.727 -795.77 161.128 -795.34 C 160.233 -794.35 159.382 -793.33 158.574 -792.29 C 142.451 -771.22 143.934 -741.21 163.069 -722.2 Z" style="stroke-width: 1;"/>
</svg>