<?xml version="1.0" encoding="utf-8"?>
<svg width="100%" height="100%" viewBox="0 0 48 48" version="1.1" xmlns="http://www.w3.org/2000/svg" style="fill-rule:evenodd;clip-rule:evenodd;stroke-linejoin:round;stroke-miterlimit:2;">
  <path d="M 12.152 34.59 C 13.436 35.53 14.271 37.048 14.271 38.76 C 14.271 41.622 11.955 43.934 9.1 43.934 C 6.244 43.934 3.929 41.622 3.929 38.76 C 3.929 36.547 5.323 34.658 7.282 33.923 C 7.811 31.054 8.701 28.32 9.951 25.721 C 11.651 22.187 13.86 19.071 16.576 16.371 C 19.293 13.671 22.435 11.488 26.001 9.821 C 28.588 8.612 31.296 7.754 34.128 7.247 C 34.907 5.379 36.749 4.066 38.896 4.066 C 41.759 4.066 44.071 6.381 44.071 9.237 C 44.071 12.091 41.759 14.407 38.896 14.407 C 37.112 14.407 35.538 13.501 34.61 12.122 C 32.288 12.578 30.07 13.316 27.957 14.338 C 24.924 15.805 22.249 17.705 19.932 20.038 C 17.616 22.371 15.732 25.063 14.282 28.113 C 13.301 30.177 12.591 32.336 12.152 34.59 Z" style="stroke-width: 0.05;"/>
</svg>