<?xml version="1.0" encoding="utf-8"?>
<svg xmlns="http://www.w3.org/2000/svg" height="48" viewBox="0 -960 960 960" width="48">
  <path d="M 602 -648.82 C 602 -662.04 606.667 -673.21 616 -682.32 C 625.333 -691.44 636.48 -696 649.44 -696 C 662.4 -696 673.567 -691.5 682.94 -682.5 C 692.313 -673.5 697 -662.39 697 -649.18 C 697 -649.15 697 -649.12 697 -649.1 C 697 -649.07 697 -649.04 697 -649.01 C 697 -635.8 692.42 -624.8 683.239 -615.61 C 675.632 -608 666.778 -603.68 656.679 -602.41 C 654.567 -602.14 652.401 -602 650.18 -602 C 647.393 -602 644.688 -602.2 642.065 -602.61 C 632.326 -604.09 623.725 -608.32 616.24 -615.4 C 606.739 -624.4 602 -635.59 602 -648.81 C 602 -648.81 602 -648.82 602 -648.82 C 602 -648.82 602 -648.82 602 -648.82 Z M 864.532 -153.77 C 864.862 -152.49 865.136 -151.2 865.355 -149.88 C 865.618 -148.32 865.8 -146.7 865.902 -145.04 C 865.967 -143.99 866 -142.93 866 -141.86 C 866 -141.85 866 -141.84 866 -141.83 C 866 -141.82 866 -141.81 866 -141.8 C 866 -129 861.499 -118 852.501 -108.81 C 844.901 -101.03 835.892 -96.544 825.469 -95.336 C 823.548 -95.112 821.578 -95 819.56 -95 C 818.423 -95 817.3 -95.035 816.191 -95.104 C 804.656 -95.811 794.617 -100.2 786.06 -108.4 C 783.16 -111.19 780.701 -114.21 778.7 -117.39 L 310.586 -585.54 L 118.536 -777.59 C 118.439 -777.65 118.343 -777.71 118.247 -777.76 C 115.217 -779.47 112.343 -781.68 109.623 -784.41 C 109.495 -784.53 109.367 -784.66 109.24 -784.78 C 108.87 -785.14 108.507 -785.5 108.152 -785.86 C 99.379 -794.65 95 -805.31 95 -817.79 C 95 -817.8 95 -817.8 95 -817.81 C 95 -817.81 95 -817.82 95 -817.82 C 95 -830.95 99.667 -842.27 109 -851.76 C 118.333 -861.25 129.48 -866 142.44 -866 C 151.964 -866 160.52 -863.48 168.107 -858.44 C 171.812 -856.35 175.283 -853.72 178.52 -850.54 C 178.64 -850.43 178.76 -850.32 178.88 -850.2 L 284.666 -744.4 L 851.386 -177.68 C 858.378 -170.69 862.759 -162.72 864.532 -153.77 Z M 95 -141.44 C 95 -154.4 99.667 -165.57 109 -174.94 C 116.537 -182.51 125.257 -187.02 135.16 -188.48 C 137.519 -188.83 139.946 -189.01 142.44 -189.01 C 144.858 -189.01 147.213 -188.84 149.506 -188.51 C 159.444 -187.1 168.21 -182.64 175.802 -175.14 C 175.848 -175.09 175.894 -175.05 175.94 -175 C 176.041 -174.9 176.142 -174.8 176.242 -174.7 C 185.414 -165.43 190 -154.48 190 -141.86 C 190 -141.85 190 -141.84 190 -141.83 C 190 -141.82 190 -141.81 190 -141.8 C 190 -129 185.399 -118 176.221 -108.81 C 168.547 -101.11 159.588 -96.633 149.354 -95.373 C 147.345 -95.124 145.287 -95 143.18 -95 C 142.045 -95 140.924 -95.034 139.817 -95.101 C 128.101 -95.798 117.92 -100.19 109.24 -108.4 C 99.741 -117.39 95 -128.4 95 -141.39 C 95 -141.4 95 -141.41 95 -141.42 C 95 -141.42 95 -141.43 95 -141.44 Z M 264 -141.44 C 264 -154.4 268.593 -165.57 277.78 -174.94 C 285.215 -182.53 293.853 -187.05 303.693 -188.49 C 306.003 -188.84 308.379 -189.01 310.82 -189.01 C 313.309 -189.01 315.732 -188.84 318.09 -188.5 C 328.114 -187.07 336.958 -182.62 344.62 -175.14 C 344.666 -175.09 344.713 -175.05 344.76 -175 C 344.864 -174.9 344.968 -174.8 345.071 -174.69 C 354.357 -165.43 359 -154.48 359 -141.86 C 359 -141.85 359 -141.84 359 -141.83 C 359 -141.82 359 -141.81 359 -141.8 C 359 -129 354.34 -118 345.001 -108.81 C 337.109 -101.02 327.934 -96.538 317.462 -95.334 C 315.538 -95.111 313.571 -95 311.56 -95 C 310.405 -95 309.264 -95.036 308.137 -95.107 C 296.625 -95.825 286.605 -100.21 278.06 -108.4 C 268.68 -117.39 264 -128.4 264 -141.39 C 264 -141.4 264 -141.41 264 -141.42 C 264 -141.42 264 -141.43 264 -141.44 Z M 143.18 -264 C 141.281 -264 139.42 -264.1 137.597 -264.29 C 126.81 -265.38 117.367 -269.73 109.24 -277.61 C 99.741 -286.81 95 -297.8 95 -310.81 C 95 -310.81 95 -310.81 95 -310.82 C 95 -310.82 95 -310.82 95 -310.82 C 95 -323.95 99.667 -335.27 109 -344.76 C 117.272 -353.17 126.969 -357.86 138.091 -358.82 C 139.517 -358.94 140.967 -359 142.44 -359 C 143.407 -359 144.363 -358.98 145.31 -358.92 C 156.692 -358.3 166.632 -353.92 175.129 -345.79 C 175.401 -345.54 175.671 -345.27 175.94 -345.01 C 176.533 -344.42 177.107 -343.82 177.663 -343.21 C 185.887 -334.25 190 -323.7 190 -311.56 C 190 -311.53 190 -311.51 190 -311.48 C 190 -311.45 190 -311.43 190 -311.4 C 190 -298.6 185.399 -287.4 176.221 -278 C 169.091 -270.7 160.851 -266.3 151.51 -264.7 C 148.825 -264.23 146.048 -264 143.18 -264 Z M 143.18 -433 C 142.101 -433 141.035 -433.03 139.98 -433.09 C 128.196 -433.76 117.96 -438.14 109.24 -446.4 C 99.741 -455.41 95 -466.6 95 -479.8 C 95 -479.81 95 -479.81 95 -479.81 C 95 -479.81 95 -479.82 95 -479.82 C 95 -493.04 99.667 -504.21 109 -513.32 C 117.146 -521.28 126.674 -525.77 137.583 -526.78 C 139.173 -526.93 140.792 -527 142.44 -527 C 143.53 -527 144.608 -526.97 145.672 -526.9 C 157.266 -526.21 167.355 -521.74 175.94 -513.5 C 184.967 -504.83 189.648 -494.21 189.981 -481.63 C 189.994 -481.16 190 -480.68 190 -480.2 C 190 -480.2 190 -480.19 190 -480.19 C 190 -480.19 190 -480.18 190 -480.18 C 190 -479.5 189.988 -478.83 189.964 -478.16 C 189.516 -465.69 184.928 -455.33 176.221 -446.6 C 167.659 -438.02 157.495 -433.62 145.747 -433.06 C 144.9 -433.02 144.044 -433 143.18 -433 Z M 819.56 -433 C 818.481 -433 817.415 -433.03 816.361 -433.09 C 804.755 -433.77 794.659 -438.15 786.06 -446.4 C 776.679 -455.41 771.999 -466.6 771.999 -479.8 C 771.999 -480.81 772.026 -481.8 772.08 -482.79 C 772.733 -494.72 777.373 -504.9 786 -513.32 C 794.118 -521.25 803.533 -525.74 814.243 -526.77 C 815.846 -526.92 817.478 -527 819.139 -527 C 820.202 -527 821.253 -526.97 822.292 -526.91 C 833.72 -526.22 843.67 -521.75 852.14 -513.5 C 861.057 -504.81 865.672 -494.16 865.983 -481.56 C 865.994 -481.11 866 -480.66 866 -480.2 C 866 -480.2 866 -480.19 866 -480.19 C 866 -480.19 866 -480.18 866 -480.18 C 866 -479.55 865.99 -478.92 865.969 -478.3 C 865.559 -465.76 861.069 -455.36 852.501 -446.6 C 844.102 -438.02 833.982 -433.61 822.135 -433.06 C 821.286 -433.02 820.427 -433 819.56 -433 Z M 786.06 -616 C 786.017 -616.04 785.975 -616.09 785.933 -616.13 C 776.637 -625.29 771.999 -636.47 771.999 -649.4 C 771.999 -649.97 772.008 -650.53 772.025 -651.09 C 772.406 -663.35 777.065 -673.97 786 -682.94 C 795.333 -692.31 806.38 -697 819.14 -697 C 831.9 -697 842.9 -692.41 852.14 -683.22 C 860.38 -675.03 864.945 -665.39 865.838 -654.29 C 865.946 -652.94 866 -651.58 866 -650.19 C 866 -650.19 866 -650.19 866 -650.19 C 866 -650.18 866 -650.18 866 -650.18 C 866 -649.3 865.98 -648.43 865.939 -647.57 C 865.377 -635.49 860.897 -624.97 852.501 -616.2 C 845.049 -608.25 836.242 -603.74 826.076 -602.42 C 823.963 -602.14 821.791 -602 819.56 -602 C 816.199 -602 812.959 -602.31 809.84 -602.94 C 801.062 -604.69 793.239 -608.91 786.365 -615.7 C 786.263 -615.8 786.161 -615.9 786.06 -616 Z M 616.24 -784.78 C 615.874 -785.13 615.515 -785.49 615.163 -785.85 C 606.381 -794.64 602 -805.3 602 -817.79 C 602 -817.8 602 -817.8 602 -817.81 C 602 -817.81 602 -817.82 602 -817.82 C 602 -830.95 606.667 -842.27 616 -851.76 C 625.333 -861.25 636.48 -866 649.44 -866 C 662.4 -866 673.567 -861.33 682.94 -852 C 692.313 -842.67 697 -831.52 697 -818.56 C 697 -818.53 697 -818.51 697 -818.48 C 697 -818.45 697 -818.43 697 -818.4 C 697 -805.6 692.42 -794.4 683.239 -785 C 674.041 -775.6 663.021 -770.99 650.18 -770.99 C 644.693 -770.99 639.527 -771.8 634.679 -773.4 C 627.915 -775.64 621.769 -779.43 616.24 -784.78 Z M 786.06 -784.78 C 785.699 -785.13 785.344 -785.49 784.997 -785.85 C 776.325 -794.64 771.999 -805.3 771.999 -817.79 C 771.999 -818.26 772.005 -818.72 772.017 -819.18 C 772.331 -831.74 776.992 -842.6 786 -851.76 C 795.273 -861.19 806.238 -865.94 818.894 -866 C 818.976 -866 819.057 -866 819.139 -866 C 819.139 -866 819.14 -866 819.14 -866 C 831.9 -866 842.9 -861.33 852.14 -852 C 861.38 -842.67 866 -831.52 866 -818.56 C 866 -818.53 866 -818.51 866 -818.48 C 866 -818.45 866 -818.43 866 -818.4 C 866 -805.6 861.499 -794.4 852.501 -785 C 843.5 -775.6 832.521 -770.99 819.559 -770.99 C 814.463 -770.99 809.645 -771.71 805.105 -773.13 C 798.096 -775.32 791.748 -779.2 786.06 -784.78 Z M 264 -310.82 C 264 -324.04 268.593 -335.21 277.78 -344.32 C 285.714 -352.2 295.017 -356.68 305.689 -357.75 C 307.366 -357.92 309.076 -358 310.82 -358 C 312.008 -358 313.182 -357.96 314.34 -357.89 C 325.985 -357.15 336.126 -352.69 344.76 -344.5 C 354.253 -335.5 359 -324.39 359 -311.18 C 359 -311.15 359 -311.12 359 -311.09 C 359 -311.05 359 -311.02 359 -310.99 C 359 -297.8 354.34 -286.61 345.001 -277.61 C 337.159 -269.87 328.052 -265.54 317.663 -264.35 C 315.676 -264.12 313.641 -264 311.56 -264 C 308.986 -264 306.483 -264.18 304.05 -264.53 C 294.238 -265.94 285.578 -270.18 278.06 -277.41 C 268.68 -286.4 264 -297.6 264 -310.81 C 264 -310.81 264 -310.81 264 -310.82 C 264 -310.82 264 -310.82 264 -310.82 Z M 447.562 -108.6 C 446.466 -109.65 445.435 -110.73 444.467 -111.83 C 437.165 -120.16 433.5 -129.92 433.5 -141.39 C 433.5 -154.4 438.1 -165.6 447.281 -175 C 456.461 -184.4 467.481 -189.01 480.32 -189.01 C 493.46 -189.01 504.78 -184.4 514.26 -175 C 523.76 -165.6 528.499 -154.61 528.499 -141.8 C 528.499 -135.5 527.335 -129.61 525.005 -124.11 C 522.673 -118.61 519.172 -113.5 514.499 -108.8 C 512.81 -107.14 511.061 -105.62 509.252 -104.25 C 503.145 -99.64 496.353 -96.758 488.885 -95.594 C 486.354 -95.198 483.746 -95 481.06 -95 C 468.1 -95 456.941 -99.41 447.562 -108.6 Z M 446.933 -851.85 C 456.159 -861.3 467.226 -865.95 480.111 -866 C 480.18 -866 480.25 -866 480.32 -866 C 480.321 -866 480.322 -866 480.323 -866 C 493.602 -866 505.042 -861.35 514.623 -851.85 C 523.144 -843.4 527.876 -833.67 528.818 -822.52 C 528.94 -821.11 529.001 -819.67 529.001 -818.2 C 529.001 -805.39 524.28 -794.4 514.859 -784.8 C 505.44 -775.6 494.159 -770.99 481.08 -770.99 C 467.98 -770.99 456.7 -775.4 447.219 -784.6 C 437.76 -793.79 433 -804.6 433 -817.79 C 433 -819.1 433.046 -820.39 433.137 -821.66 C 433.95 -833.21 438.554 -843.27 446.933 -851.85 Z" style=""/>
</svg>