<?xml version="1.0" encoding="utf-8"?>
<svg xmlns="http://www.w3.org/2000/svg" height="48" viewBox="0 -960 960 960" width="48">
  <path d="M 390 -197 C 390 -179.33 383.92 -164.58 371.76 -152.75 C 359.607 -140.92 344.903 -135 327.65 -135 C 310.39 -135 295.967 -140.81 284.38 -152.42 C 272.793 -164.03 267 -178.55 267 -196 L 267 -702 L 117 -702 C 99.78 -702 85.14 -707.83 73.08 -719.5 C 61.027 -731.17 55 -745.73 55 -763.18 C 55 -780.63 61.027 -795.46 73.08 -807.68 C 85.14 -819.89 99.78 -826 117 -826 L 540 -826 C 557.667 -826 572.417 -820.01 584.25 -808.03 C 596.083 -796.05 602 -781.33 602 -763.88 C 602 -746.43 596.083 -731.76 584.25 -719.85 C 572.417 -707.95 557.667 -702 540 -702 L 390 -702 L 390 -197 Z M 776 -197 C 776 -179.33 770 -164.58 758 -152.75 C 746 -140.92 731.373 -135 714.12 -135 C 696.867 -135 682.2 -140.81 670.12 -152.42 C 658.04 -164.03 652 -178.55 652 -196 L 652 -478 L 583 -478 C 565.553 -478 551.027 -483.91 539.42 -495.74 C 527.807 -507.56 522 -522.2 522 -539.65 C 522 -557.1 527.807 -571.68 539.42 -583.41 C 551.027 -595.14 565.553 -601 583 -601 L 845 -601 C 862.447 -601 876.973 -595.18 888.58 -583.53 C 900.193 -571.88 906 -557.33 906 -539.88 C 906 -522.43 900.193 -507.76 888.58 -495.85 C 876.973 -483.95 862.447 -478 845 -478 L 776 -478 L 776 -197 Z" style=""/>
</svg>