<?xml version="1.0" encoding="utf-8"?>
<svg xmlns="http://www.w3.org/2000/svg" height="48" viewBox="0 -960 960 960" width="48">
  <path d="M 361.458 -785.98 L 318.987 -761.5 C 321.598 -743.34 320.382 -724.73 315.304 -705.64 C 305.333 -668.17 283.517 -639.72 249.655 -620.17 C 249.456 -620.05 249.456 -620.05 249.283 -619.95 C 249.283 -619.95 249.283 -619.95 249.084 -619.84 C 234.846 -611.62 220.307 -606.04 205.657 -603.18 C 185.103 -599.06 163.916 -599.85 142.286 -605.7 C 105.063 -615.91 76.741 -638.03 57.136 -671.98 C 57.115 -672.02 57.093 -672.06 57.072 -672.09 C 57.05 -672.13 57.029 -672.17 57.007 -672.21 C 37.415 -706.14 32.403 -741.76 42.179 -779.09 C 49.049 -804.79 61.388 -826.18 79.535 -843.49 C 87.772 -851.38 97.274 -858.44 107.814 -864.52 L 108.186 -864.74 C 141.857 -884.18 177.591 -888.95 215.033 -878.84 C 233.422 -873.85 249.714 -865.99 263.879 -855.25 L 306.089 -879.62 C 365.689 -914.03 428.108 -923.24 493.391 -907.27 C 558.627 -891.25 609.388 -853.39 644.477 -795.7 L 644.479 -795.69 C 676.945 -736.4 684.312 -673.58 665.564 -609.05 C 646.784 -544.48 607.556 -495.11 547.956 -460.7 L 461.76 -410.93 C 443.929 -400.64 429.317 -387.93 417.844 -373.02 C 408.688 -360.24 401.533 -345.95 396.592 -329.75 C 385.432 -293.42 391.979 -252.32 408.765 -218.5 C 429.593 -187.17 458.458 -166.93 495.517 -158.42 C 512.042 -154.64 528.088 -153.55 543.681 -155.16 C 562.366 -157.6 580.599 -163.96 598.431 -174.25 L 642.678 -199.75 C 640.058 -217.81 641.207 -236.3 646.166 -255.23 C 653.034 -280.94 665.383 -302.33 683.494 -319.62 C 691.767 -327.53 701.242 -334.58 711.816 -340.68 L 712.172 -340.89 C 745.851 -360.33 781.594 -365.1 819.02 -354.98 C 856.381 -344.85 885.116 -322.9 904.731 -288.92 C 924.347 -254.95 929.28 -219.28 919.291 -181.79 C 909.316 -144.32 887.503 -115.86 853.633 -96.31 C 853.442 -96.2 853.442 -96.2 853.277 -96.105 C 853.277 -96.105 853.277 -96.105 853.087 -95.995 C 838.832 -87.765 824.287 -82.178 809.65 -79.33 C 789.097 -75.209 767.918 -76.011 746.272 -81.843 C 727.818 -86.907 711.563 -94.902 697.469 -105.81 L 653.796 -80.597 C 594.205 -46.192 531.759 -36.971 466.514 -52.979 C 401.626 -68.868 351.658 -105.38 316.602 -162.51 L 316.568 -162.49 L 311.25 -171.7 C 278.784 -231 272.008 -292.81 290.738 -357.37 C 309.512 -421.91 348.767 -471.3 408.358 -505.71 L 494.554 -555.47 C 512.385 -565.77 527.055 -578.26 538.455 -593.39 C 547.706 -605.95 554.76 -620.43 559.716 -636.67 C 570.897 -673.04 568.111 -708.05 551.411 -741.71 L 551.304 -741.9 L 551.286 -741.89 C 551.258 -741.94 551.223 -742 551.194 -742.05 C 530.389 -773.38 501.453 -793.3 464.371 -801.81 C 447.852 -805.58 431.806 -806.67 416.207 -805.07 C 397.514 -802.63 379.298 -796.28 361.458 -785.98 Z M 123.185 -757.14 C 118.982 -741.76 121.523 -726.28 128.874 -713.55 C 132.806 -706.74 138.017 -700.69 144.472 -695.93 C 150.256 -691.89 156.774 -688.72 163.826 -686.75 C 165.655 -686.2 167.586 -685.84 169.485 -685.53 C 198.261 -680.95 226.47 -698.79 234.093 -727.44 C 237.436 -739.61 236.559 -751.81 232.303 -762.6 C 226.65 -777.58 214.768 -789.93 199.191 -796.02 C 197.296 -796.7 195.459 -797.34 193.453 -797.83 C 192.527 -798.14 191.273 -798.23 190.368 -798.5 C 160.64 -804.65 131.04 -786.7 123.185 -757.14 Z M 727.171 -233.29 C 722.976 -217.91 725.5 -202.42 732.851 -189.69 C 736.783 -182.88 742.003 -176.84 748.449 -172.07 C 754.249 -168.04 760.751 -164.87 767.812 -162.9 C 769.632 -162.34 771.571 -161.98 773.453 -161.66 C 802.255 -157.1 830.472 -174.94 838.079 -203.59 C 841.423 -215.76 840.545 -227.96 836.263 -238.73 C 830.619 -253.71 818.763 -266.08 803.168 -272.16 C 801.282 -272.84 799.452 -273.49 797.439 -273.98 C 796.52 -274.29 795.258 -274.38 794.346 -274.64 C 764.634 -280.8 735.034 -262.85 727.171 -233.29 Z" style=""/>
</svg>