<?xml version="1.0" encoding="utf-8"?>
<svg viewBox="0 0 22 22" xmlns="http://www.w3.org/2000/svg">
  <g>
    <path d="M 10.5 2.5 L 10.5 10.5 C 10.478 10.952 10.64 11.264 10.938 11.562 C 11.236 11.86 11.548 12 12 12 C 12.452 12 12.764 11.86 13.062 11.562 C 13.36 11.264 13.522 10.952 13.5 10.5 L 13.5 2.5 C 13.5 2.224 13.724 2 14 2 L 16 2 C 16.276 2 16.5 2.224 16.5 2.5 L 16.5 9.5 C 16.478 10.987 15.859 12.425 14.892 13.392 C 13.925 14.359 12.487 15 11 15 C 9.513 15 8.075 14.359 7.108 13.392 C 6.141 12.425 5.522 10.987 5.5 9.5 L 5.5 2.5 C 5.5 2.224 5.724 2 6 2 L 10 2 C 10.276 2 10.5 2.224 10.5 2.5 Z M 6.98 16.009 L 7.165 16.038 C 8.23 16.376 8.827 17.299 9.416 17.832 C 9.593 18.01 9.605 18.219 9.57 18 C 10.287 17.539 10.833 16.445 12.019 16.04 C 12.553 15.96 13.108 16.102 13.487 16.345 C 13.862 16.584 14.189 16.929 14.44 17.217 C 14.8 17.596 14.952 17.931 15.251 18.009 C 15.346 17.966 15.368 17.843 15.617 17.597 C 16.162 17.027 16.874 16.139 17.985 16 C 18.12 15.996 18.251 16.047 18.348 16.141 C 18.445 16.235 18.5 16.365 18.5 16.5 L 18.5 17.042 C 18.5 17.278 18.498 17.432 18.484 17.523 C 18.471 17.614 18.388 17.802 18.293 17.883 C 18.162 17.993 18.163 17.961 18.098 17.98 C 17.771 18.054 17.59 18.408 17.246 18.779 C 16.997 19.06 16.676 19.403 16.308 19.644 C 15.936 19.887 15.368 20.032 14.836 19.961 C 13.77 19.624 13.173 18.702 12.584 18.168 C 12.407 17.99 12.395 17.782 12.429 18.001 C 11.711 18.461 11.167 19.555 9.981 19.96 C 9.447 20.04 8.891 19.897 8.513 19.655 C 8.138 19.415 7.812 19.071 7.561 18.784 C 7.199 18.405 7.049 18.07 6.752 17.991 C 6.648 18.034 6.621 18.169 6.364 18.423 C 5.827 18.991 5.114 19.863 4.015 20 C 3.88 20.004 3.749 19.953 3.652 19.859 C 3.555 19.765 3.5 19.635 3.5 19.5 L 3.5 18.5 C 3.5 18.25 3.684 18.039 3.932 18.005 C 4.151 18.068 4.256 17.744 4.553 17.447 C 5.061 16.89 5.821 16.092 6.881 16.001 L 6.98 16.009 Z"/>
  </g>
</svg>