<?xml version="1.0" encoding="utf-8"?>
<svg xmlns="http://www.w3.org/2000/svg" height="48" viewBox="0 -960 960 960" width="48">
  <path d="M 744.57 -512.33 C 757.928 -550.92 794.572 -578.63 837.686 -578.63 C 892.1 -578.63 936.207 -534.52 936.207 -480 C 936.207 -425.67 892.1 -381.43 837.686 -381.43 C 794.32 -381.43 757.501 -409.52 744.339 -448.44 L 664.335 -448.44 L 552.354 -336.48 C 546.583 -330.71 539.657 -327.82 531.597 -327.82 C 523.539 -327.82 516.635 -330.71 510.84 -336.48 C 505.069 -342.25 502.073 -349.13 501.85 -356.9 C 501.651 -364.68 504.448 -371.55 510.219 -377.34 L 612.495 -479.67 L 510.219 -582.01 C 504.448 -587.78 501.54 -594.66 501.54 -602.66 C 501.54 -610.87 504.448 -617.54 510.219 -623.52 C 516.014 -629.31 522.918 -632.18 530.976 -632.18 C 539.035 -632.18 545.983 -629.31 551.733 -623.52 L 662.909 -512.33 Z M 215.661 -448.44 C 202.499 -409.52 165.68 -381.43 122.314 -381.43 C 67.9 -381.43 23.794 -425.67 23.794 -480 C 23.794 -534.52 67.9 -578.63 122.314 -578.63 C 165.429 -578.63 202.072 -550.92 215.43 -512.33 L 297.109 -512.33 L 408.245 -623.52 C 414.018 -629.31 420.944 -632.18 429.002 -632.18 C 437.06 -632.18 443.966 -629.31 449.759 -623.52 C 455.532 -617.54 458.44 -610.87 458.44 -602.66 C 458.44 -594.66 455.532 -587.78 449.759 -581.78 L 347.506 -479.67 L 449.759 -377.34 C 455.532 -371.55 458.329 -364.68 458.128 -356.9 C 457.928 -349.13 454.909 -342.25 449.138 -336.48 C 443.366 -330.71 436.439 -327.82 428.381 -327.82 C 420.321 -327.82 413.395 -330.71 407.624 -336.48 L 295.683 -448.44 Z" style="stroke-width: 0.05;"/>
</svg>