<?xml version="1.0" encoding="utf-8"?>
<svg viewBox="0 0 22 22" xmlns="http://www.w3.org/2000/svg">
  <path d="M 19.5 3 L 19.5 5 C 19.5 5.276 19.276 5.5 19 5.5 L 16.439 5.5 L 15.587 15.727 C 15.575 16.06 15.603 16.246 15.659 16.4 C 15.702 16.518 15.668 16.482 15.711 16.5 C 15.838 16.551 15.965 16.484 16.345 16.212 C 17.154 15.633 18.081 14.482 18.553 13.526 C 18.67 13.292 18.949 13.188 19.191 13.288 C 19.434 13.388 19.557 13.659 19.474 13.908 L 18.474 16.908 C 18.185 17.733 17.663 18.426 17.091 18.842 C 16.511 19.264 15.763 19.5 15.125 19.5 C 14.479 19.5 13.759 19.245 13.294 18.798 C 12.836 18.358 12.523 17.56 12.502 16.709 L 13.435 5.5 L 10.454 5.5 L 9.516 16.725 C 9.37 18.002 8.59 18.971 7.683 19.311 C 6.777 19.652 5.565 19.46 4.696 18.834 C 4.572 18.739 4.5 18.592 4.5 18.437 C 4.591 17.373 5.329 16.641 6.031 14.972 C 6.762 13.232 7.447 10.581 7.488 5.498 C 5.078 5.54 4.399 6.291 3.447 8.224 C 3.344 8.431 3.111 8.54 2.885 8.487 C 2.659 8.433 2.5 8.232 2.5 8 C 2.573 5.323 3.956 3.838 5.276 3.178 C 6.626 2.503 8 2.5 8 2.5 L 19 2.5 C 19.276 2.5 19.5 2.724 19.5 3 Z"/>
</svg>