<?xml version="1.0" encoding="utf-8"?>
<svg xmlns="http://www.w3.org/2000/svg" height="48" viewBox="0 -960 960 960" width="48">
  <path d="M 258.682 -174.5 C 238.602 -174.5 223.915 -183 214.622 -200 C 205.329 -217 206.015 -233.83 216.682 -250.5 L 369.682 -491.5 L 230.682 -708.5 C 220.682 -724.5 220.172 -741.33 229.152 -759 C 238.132 -776.67 252.549 -785.5 272.402 -785.5 C 281.569 -785.5 289.862 -783.36 297.282 -779.07 C 304.695 -774.78 310.829 -768.93 315.682 -761.5 L 432.178 -577.87 L 548.682 -762.5 C 552.609 -769.1 558.425 -774.58 566.132 -778.95 C 573.845 -783.32 581.569 -785.5 589.302 -785.5 C 609.789 -785.5 624.809 -776.67 634.362 -759 C 643.909 -741.33 643.349 -724.5 632.682 -708.5 L 493.682 -491.5 L 646.682 -250.5 C 657.349 -233.83 657.962 -217 648.522 -200 C 639.089 -183 625.005 -174.5 606.272 -174.5 C 597.152 -174.5 588.572 -176.44 580.532 -180.31 C 572.499 -184.18 566.215 -189.91 561.682 -197.5 L 432.176 -404.12 L 301.682 -197.5 C 297.089 -190.58 290.935 -185.02 283.222 -180.81 C 275.509 -176.6 267.329 -174.5 258.682 -174.5 Z M 804.849 -616.92 L 694.012 -616.92 C 688.998 -617.34 682.76 -619.94 679.015 -623.11 C 675.744 -626.95 673.136 -633.29 672.751 -638.26 L 672.751 -655.58 C 673.133 -658.54 674.629 -663.24 676.697 -667.46 L 677.339 -668.77 L 678.342 -669.88 L 750.869 -749.84 C 758.106 -757.51 762.871 -763.63 765.874 -769.16 C 768.842 -774.16 769.689 -777.63 769.689 -782.02 C 769.689 -789.11 769.089 -792.24 765.51 -795.21 C 762.569 -798.82 759.835 -799.4 753.529 -799.4 C 748.617 -799.4 745.4 -798.86 741.642 -796.97 C 737.84 -795.37 735.799 -793.7 733.488 -790.46 C 729.645 -785.72 723.419 -781.38 717.708 -779.31 C 711.745 -777.81 703.604 -778.29 697.846 -780.11 C 691.705 -783.07 685.762 -788.5 682.576 -793.97 C 680.034 -800.5 680.436 -809.52 683.587 -815.87 C 691.141 -827.89 701.961 -838.17 714 -844.54 C 725.976 -850.54 739.975 -854.03 753.615 -854.03 C 773.26 -854.03 791.524 -846.62 804.745 -834.27 C 817.388 -821.28 825.041 -802.83 825.041 -782.88 C 825.041 -770.57 821.854 -757.66 816.128 -746.96 C 810.665 -736.75 801.907 -724.88 790.877 -712.63 L 751.671 -670.13 L 804.849 -670.13 C 811.403 -669.74 819.022 -666.56 823.822 -662.34 C 828.015 -657.5 831.456 -650.01 831.456 -643.4 C 831.456 -636.83 827.952 -629.32 823.691 -624.54 C 818.819 -620.29 811.332 -617.29 804.849 -616.92 Z"/>
</svg>