<?xml version="1.0" encoding="utf-8"?>
<svg xmlns="http://www.w3.org/2000/svg" height="48" viewBox="0 -960 960 960" width="48">
  <path d="M 614.999 -430.29 L 614.999 -416.73 C 614.999 -397.19 607.939 -380.25 593.818 -366.38 C 579.714 -352.37 562.757 -345.36 542.947 -345.36 L 417.053 -345.36 C 396.969 -345.36 379.936 -352.37 365.967 -366.38 C 351.985 -380.25 345.016 -397.19 345.016 -416.73 L 345.016 -430.29 L 227.321 -430.153 C 218.981 -414.728 207.284 -402.179 192.219 -392.42 C 188.393 -389.93 184.446 -387.74 180.392 -385.82 C 166.144 -378.69 150.454 -375.06 133.333 -375.06 C 103.971 -375.06 79.114 -385.18 58.731 -405.41 C 38.363 -425.66 28.163 -450.56 28.16 -479.9 C 28.164 -509.45 38.36 -534.35 58.728 -554.59 C 79.108 -575.04 103.967 -585.37 133.337 -585.36 C 149.39 -585.36 164.198 -582.28 177.729 -575.96 C 182.729 -573.8 187.558 -571.22 192.217 -568.2 C 207.423 -558.345 219.197 -545.508 227.547 -529.85 L 345.016 -529.85 L 345.016 -543.28 C 345.016 -562.96 351.985 -579.73 365.967 -593.75 C 379.936 -607.63 396.969 -614.64 417.053 -614.64 L 542.947 -614.64 C 562.757 -614.64 579.714 -607.63 593.818 -593.75 C 607.939 -579.73 614.999 -562.96 614.999 -543.28 L 614.999 -529.85 L 728.502 -529.85 C 736.853 -545.508 748.625 -558.344 763.831 -568.19 C 775.818 -575.96 788.932 -580.86 803.177 -582.96 C 810.683 -584.56 818.518 -585.36 826.68 -585.36 C 856.052 -585.36 880.906 -575.04 901.269 -554.59 C 921.656 -534.35 931.832 -509.45 931.836 -479.89 C 931.831 -450.56 921.651 -425.66 901.271 -405.4 C 880.904 -385.18 856.049 -375.06 826.684 -375.06 C 818.581 -375.06 810.797 -375.87 803.342 -377.48 C 789.037 -379.61 775.864 -384.61 763.827 -392.41 C 748.717 -402.209 736.994 -414.799 728.65 -430.29 Z M 417.053 -416.72 L 542.947 -416.72 L 542.947 -543.28 L 417.053 -543.28 Z" style="stroke-width: 0.003;"/>
</svg>