<?xml version="1.0" encoding="utf-8"?>
<svg xmlns="http://www.w3.org/2000/svg" height="48" viewBox="0 -960 960 960" width="48">
  <path d="M 483.503 -233.04 C 521.301 -233.04 550.69 -241.02 571.669 -256.98 C 592.648 -272.95 603.138 -294.43 603.138 -321.42 C 603.138 -349.15 592.876 -372.59 572.353 -391.75 C 551.83 -410.9 515.573 -431.43 463.582 -453.32 C 400.645 -477.95 354.126 -504.6 324.026 -533.29 C 293.925 -561.98 278.875 -600.08 278.875 -647.6 C 278.875 -687.74 291.645 -722.63 317.185 -752.27 C 342.724 -781.91 380.122 -800.84 429.377 -809.05 L 429.377 -826.84 C 429.377 -839.79 433.646 -850.55 442.183 -859.13 C 450.711 -867.7 461.429 -871.99 474.336 -871.99 L 475.704 -871.99 C 488.601 -871.99 499.383 -867.7 508.048 -859.13 C 516.713 -850.55 521.046 -839.79 521.046 -826.84 L 521.046 -809.53 C 550.234 -804.65 576.002 -795.82 598.349 -783.05 C 620.696 -770.28 639.623 -751.13 655.129 -725.59 C 661.514 -716.11 662.426 -705.76 657.866 -694.54 C 653.305 -683.32 645.333 -674.97 633.95 -669.49 C 623.442 -664.93 612.715 -664.25 601.77 -667.44 C 590.824 -670.63 581.247 -676.34 573.037 -684.54 C 559.355 -700.96 544.077 -712.82 527.203 -720.12 C 510.328 -727.41 491.858 -731.06 471.791 -731.06 C 440.778 -731.06 416.151 -724.09 397.908 -710.13 C 379.666 -696.16 370.544 -677.15 370.544 -653.08 C 370.544 -625.71 381.718 -603.36 404.065 -586.03 C 426.412 -568.7 463.431 -549.09 515.122 -527.2 C 580.43 -500.75 626.703 -471.79 653.939 -440.32 C 681.184 -408.85 694.807 -369.4 694.807 -321.97 C 694.807 -296.43 690.702 -273.86 682.493 -254.25 C 674.284 -234.64 662.522 -217.76 647.207 -203.62 C 631.902 -189.49 613.431 -178.31 591.795 -170.1 C 570.169 -161.89 545.673 -156.42 518.31 -153.68 L 518.31 -133.16 C 518.31 -120.21 514.041 -109.45 505.503 -100.87 C 496.975 -92.3 486.257 -88.01 473.351 -88.01 C 460.453 -88.01 449.444 -92.52 440.322 -101.55 C 431.201 -110.58 426.64 -121.58 426.64 -134.53 L 426.64 -156.42 C 394.716 -164.63 365.528 -178.77 339.076 -198.83 C 312.624 -218.9 289.365 -246.26 269.298 -280.93 C 263.825 -290.96 263.825 -300.99 269.298 -311.03 C 274.771 -321.06 283.418 -328.36 295.239 -332.92 C 306.221 -336.57 316.729 -336.34 326.762 -332.23 C 336.795 -328.13 345.005 -320.6 351.39 -309.66 C 364.159 -285.03 382.174 -266.1 405.433 -252.88 C 428.693 -239.65 454.716 -233.04 483.503 -233.04 Z" style=""/>
</svg>