<?xml version="1.0" encoding="utf-8"?>
<svg xmlns="http://www.w3.org/2000/svg" height="48" viewBox="0 -960 960 960" width="48">
  <path d="M 774.62 -54.5 C 738.26 -54.5 707.317 -67.14 681.79 -92.42 C 656.263 -117.69 643.5 -148.39 643.5 -184.5 C 643.5 -194.05 644.5 -203.25 646.5 -212.12 C 648.5 -220.99 651.167 -229.13 654.5 -236.56 L 237.5 -656.5 C 229.5 -652.5 221.06 -649.33 212.18 -647 C 203.293 -644.67 194.067 -643.5 184.5 -643.5 C 148.22 -643.5 117.483 -656.35 92.29 -682.04 C 67.097 -707.73 54.5 -738.55 54.5 -774.5 C 54.5 -810.45 67.093 -841.27 92.28 -866.96 C 117.467 -892.65 148.05 -905.5 184.03 -905.5 C 220.29 -905.5 251.267 -892.76 276.96 -867.29 C 302.653 -841.82 315.5 -810.89 315.5 -774.5 C 315.5 -765.01 314.333 -755.85 312 -747.03 C 309.667 -738.22 306.833 -729.71 303.5 -721.5 L 720.5 -302.5 C 728.5 -306.5 736.95 -309.67 745.85 -312 C 754.75 -314.33 764.3 -315.5 774.5 -315.5 C 810.887 -315.5 841.817 -302.81 867.29 -277.43 C 892.763 -252.05 905.5 -221.23 905.5 -184.97 C 905.5 -148.38 892.777 -117.48 867.33 -92.29 C 841.877 -67.097 810.973 -54.5 774.62 -54.5 Z M 221.463 -813.2 C 200.652 -834.01 166.909 -834.01 146.097 -813.2 C 125.285 -792.38 125.285 -758.64 146.097 -737.83 C 166.909 -717.02 200.652 -717.02 221.463 -737.83 C 242.275 -758.64 242.275 -792.38 221.463 -813.2 Z M 812.236 -222.43 C 791.423 -243.24 757.679 -243.24 736.867 -222.43 C 716.054 -201.61 716.054 -167.87 736.867 -147.06 C 757.679 -126.25 791.423 -126.25 812.236 -147.06 C 833.049 -167.87 833.049 -201.61 812.236 -222.43 Z" style=""/>
</svg>