<?xml version="1.0" encoding="utf-8"?>
<svg xmlns="http://www.w3.org/2000/svg" height="48" viewBox="0 -960 960 960" width="48">
  <path d="M 430 -181 C 416.167 -181 404.71 -185.56 395.63 -194.68 C 386.543 -203.793 382 -214.96 382 -228.18 C 382 -241.393 386.543 -252.5 395.63 -261.5 C 404.71 -270.5 416.167 -275 430 -275 L 715.808 -275 C 728.895 -275 740.165 -270.44 749.618 -261.32 C 759.078 -252.207 763.808 -241.04 763.808 -227.82 C 763.808 -214.607 759.078 -203.5 749.618 -194.5 C 740.165 -185.5 728.895 -181 715.808 -181 L 430 -181 Z M 430 -433 C 416.167 -433 404.71 -437.56 395.63 -446.68 C 386.543 -455.793 382 -466.96 382 -480.18 C 382 -493.393 386.543 -504.5 395.63 -513.5 C 404.71 -522.5 416.167 -527 430 -527 L 764.157 -527 C 777.244 -527 788.514 -522.44 797.967 -513.32 C 807.427 -504.207 812.157 -493.04 812.157 -479.82 C 812.157 -466.607 807.427 -455.5 797.967 -446.5 C 788.514 -437.5 777.244 -433 764.157 -433 L 430 -433 Z M 430 -686 C 416.167 -686 404.71 -690.56 395.63 -699.68 C 386.543 -708.793 382 -719.96 382 -733.18 C 382 -746.393 386.543 -757.5 395.63 -766.5 C 404.71 -775.5 416.167 -780 430 -780 L 818 -780 C 831.087 -780 842.357 -775.44 851.81 -766.32 C 861.27 -757.207 866 -746.04 866 -732.82 C 866 -719.607 861.27 -708.5 851.81 -699.5 C 842.357 -690.5 831.087 -686 818 -686 L 430 -686 Z M 178.42 -145 C 155.44 -145 135.79 -152.923 119.47 -168.77 C 103.157 -184.617 95 -204.273 95 -227.74 C 95 -250.58 103.08 -270.167 119.24 -286.5 C 135.4 -302.833 155.12 -311 178.4 -311 C 201.687 -311 221.107 -302.747 236.66 -286.24 C 252.22 -269.733 260 -249.893 260 -226.72 C 260 -204.087 252.013 -184.81 236.04 -168.89 C 220.06 -152.963 200.853 -145 178.42 -145 Z M 178.42 -397 C 155.44 -397 135.79 -405.153 119.47 -421.46 C 103.157 -437.773 95 -457.38 95 -480.28 C 95 -503.187 103.237 -522.7 119.71 -538.82 C 136.19 -554.94 155.92 -563 178.9 -563 C 201.333 -563 220.46 -554.847 236.28 -538.54 C 252.093 -522.227 260 -502.62 260 -479.72 C 260 -456.813 252.013 -437.3 236.04 -421.18 C 220.06 -405.06 200.853 -397 178.42 -397 Z M 177.42 -650 C 154.713 -650 135.3 -658.153 119.18 -674.46 C 103.06 -690.773 95 -710.38 95 -733.28 C 95 -756.187 103.14 -775.7 119.42 -791.82 C 135.7 -807.94 155.193 -816 177.9 -816 C 200.607 -816 219.967 -807.847 235.98 -791.54 C 251.993 -775.227 260 -755.62 260 -732.72 C 260 -709.813 251.913 -690.3 235.74 -674.18 C 219.573 -658.06 200.133 -650 177.42 -650 Z"/>
</svg>