<?xml version="1.0" encoding="utf-8"?>
<svg viewBox="0 0 22 22" xmlns="http://www.w3.org/2000/svg">
  <path d="M 13.597 4.909 L 13.588 4.941 L 13.597 4.939 L 13.597 4.909 Z M 9.813 15.682 L 9.656 15.411 L 9.813 15.682 Z M 18.791 4.075 L 18.791 4.941 C 18.791 5.419 18.403 5.807 17.926 5.807 L 14.252 5.807 L 10.945 18.15 C 10.855 18.488 10.569 18.739 10.222 18.784 C 9.875 18.83 9.534 18.662 9.36 18.359 L 6.61 13.598 L 4.074 13.598 C 3.597 13.598 3.209 13.21 3.209 12.732 L 3.209 11.866 C 3.209 11.389 3.597 11.001 4.074 11.001 L 7.61 11.001 C 7.919 11.001 8.205 11.166 8.36 11.434 L 9.518 13.439 L 12.086 3.851 C 12.188 3.473 12.531 3.209 12.923 3.209 L 17.926 3.209 C 18.403 3.209 18.791 3.597 18.791 4.075 Z"/>
</svg>