<?xml version="1.0" encoding="utf-8"?>
<svg xmlns="http://www.w3.org/2000/svg" height="48" viewBox="0 -960 960 960" width="48">
  <path d="M 320.815 -320.29 C 292.535 -348.38 273.277 -380.13 263.045 -415.59 L 159.986 -415.59 C 140.729 -415.59 124.781 -421.71 112.156 -434.5 C 99.531 -447.31 93.226 -462.62 93.226 -481.25 C 93.226 -499.6 99.531 -514.91 112.156 -527.42 C 124.781 -539.94 140.729 -546.33 159.986 -546.33 L 263.892 -546.33 C 274.322 -580.72 293.297 -611.65 320.815 -639.09 C 350.376 -668.73 383.917 -688.4 421.416 -698.19 C 439.881 -703.06 459.29 -705.5 479.644 -705.5 C 479.761 -705.5 479.879 -705.5 479.996 -705.5 C 480.114 -705.5 480.231 -705.5 480.349 -705.5 C 512.963 -705.5 543.14 -699.29 570.898 -686.82 C 595.625 -675.79 618.39 -659.88 639.194 -639.08 C 666.686 -611.6 685.648 -580.67 696.078 -546.3 L 800.014 -546.3 C 819.274 -546.3 835.214 -539.9 847.854 -527.5 C 860.474 -514.9 866.774 -499.69 866.774 -481.3 C 866.774 -462.69 860.474 -447.3 847.854 -434.5 C 835.214 -421.69 819.274 -415.7 800.014 -415.7 L 697.004 -415.7 C 686.79 -380.16 667.52 -348.37 639.194 -320.31 C 612.335 -293.71 582.206 -275.17 548.809 -264.7 C 527.321 -257.91 504.503 -254.5 480.349 -254.5 C 480.232 -254.5 480.114 -254.5 479.997 -254.5 C 479.879 -254.5 479.762 -254.5 479.644 -254.5 C 449.088 -254.5 420.66 -259.93 394.36 -270.79 C 367.595 -281.76 343.076 -298.27 320.815 -320.29 Z M 435.208 -434.54 L 435.208 -372.63 C 435.208 -359.98 439.476 -349.18 447.96 -340.23 C 456.47 -331 467.22 -326.52 480.236 -326.52 C 493.253 -326.52 504.161 -331 512.936 -340.23 C 521.736 -349.18 526.109 -359.98 526.109 -372.63 L 526.109 -434.54 L 588.03 -434.54 C 600.255 -434.54 610.769 -439.03 619.596 -447.72 C 628.423 -456.69 632.822 -467.22 632.822 -479.6 C 632.822 -492.25 628.423 -503.06 619.596 -512.02 C 610.769 -520.97 600.255 -525.45 588.03 -525.45 L 526.109 -525.45 L 526.109 -587.37 C 526.109 -600.01 521.552 -610.83 512.435 -619.78 C 503.319 -629 492.41 -633.48 479.763 -633.48 C 466.746 -633.48 456.075 -629 447.723 -619.78 C 439.396 -610.83 435.208 -600.01 435.208 -587.37 L 435.208 -525.45 L 371.969 -525.45 C 359.77 -525.45 349.258 -520.97 340.431 -512.02 C 331.604 -502.8 327.177 -492.25 327.177 -479.6 C 327.177 -467.22 331.604 -456.42 340.431 -447.72 C 349.258 -439.03 359.77 -434.54 371.969 -434.54 Z" style="stroke-width: 0.05;"/>
</svg>