<?xml version="1.0" encoding="utf-8"?>
<svg xmlns="http://www.w3.org/2000/svg" height="48" viewBox="0 -960 960 960" width="48">
  <path d="M 310.82 -602 C 297.973 -602 286.957 -606.56 277.77 -615.68 C 268.59 -624.793 264 -635.96 264 -649.18 C 264 -662.393 268.687 -673.5 278.06 -682.5 C 287.433 -691.5 298.6 -696 311.56 -696 C 324.52 -696 335.667 -691.44 345 -682.32 C 354.333 -673.207 359 -662.04 359 -648.82 C 359 -635.607 354.253 -624.5 344.76 -615.5 C 335.267 -606.5 323.953 -602 310.82 -602 Z M 109.614 -177.681 L 782.112 -850.179 C 785.453 -853.52 789.047 -856.274 792.893 -858.439 C 800.48 -863.48 809.036 -866 818.56 -866 C 831.52 -866 842.667 -861.253 852 -851.76 C 861.333 -842.267 866 -830.953 866 -817.82 C 866 -804.973 861.253 -793.96 851.76 -784.78 C 848.834 -781.948 845.735 -779.553 842.464 -777.595 L 182.299 -117.43 C 180.295 -114.264 177.842 -111.287 174.94 -108.5 C 165.567 -99.5 154.4 -95 141.44 -95 C 128.48 -95 117.5 -99.62 108.5 -108.86 C 99.5 -118.1 95 -129.1 95 -141.86 C 95 -146.012 95.489 -149.983 96.468 -153.772 C 98.241 -162.72 102.622 -170.689 109.614 -177.681 Z M 817.82 -95 C 804.973 -95 793.96 -99.62 784.78 -108.86 C 775.593 -118.1 771 -129.1 771 -141.86 C 771 -154.62 775.687 -165.667 785.06 -175 C 794.433 -184.333 805.6 -189 818.56 -189 C 831.52 -189 842.667 -184.313 852 -174.94 C 861.333 -165.567 866 -154.4 866 -141.44 C 866 -128.48 861.253 -117.5 851.76 -108.5 C 842.267 -99.5 830.953 -95 817.82 -95 Z M 649.44 -95 C 636.48 -95 625.333 -99.62 616 -108.86 C 606.667 -118.1 602 -129.1 602 -141.86 C 602 -154.62 606.747 -165.667 616.24 -175 C 625.733 -184.333 637.047 -189 650.18 -189 C 663.027 -189 674.04 -184.313 683.22 -174.94 C 692.407 -165.567 697 -154.4 697 -141.44 C 697 -128.48 692.313 -117.5 682.94 -108.5 C 673.567 -99.5 662.4 -95 649.44 -95 Z M 784.78 -278.06 C 775.593 -287.433 771 -298.6 771 -311.56 C 771 -324.52 775.687 -335.667 785.06 -345 C 794.433 -354.333 805.6 -359 818.56 -359 C 831.52 -359 842.667 -354.253 852 -344.76 C 861.333 -335.267 866 -323.953 866 -310.82 C 866 -297.973 861.253 -286.957 851.76 -277.77 C 842.267 -268.59 830.953 -264 817.82 -264 C 804.973 -264 793.96 -268.687 784.78 -278.06 Z M 784.78 -446.68 C 775.593 -455.793 771 -466.96 771 -480.18 C 771 -493.393 775.687 -504.5 785.06 -513.5 C 794.433 -522.5 805.6 -527 818.56 -527 C 831.52 -527 842.667 -522.44 852 -513.32 C 861.333 -504.207 866 -493.04 866 -479.82 C 866 -466.607 861.253 -455.5 851.76 -446.5 C 842.267 -437.5 830.953 -433 817.82 -433 C 804.973 -433 793.96 -437.56 784.78 -446.68 Z M 108.5 -446.68 C 99.5 -455.793 95 -466.96 95 -480.18 C 95 -493.393 99.62 -504.5 108.86 -513.5 C 118.1 -522.5 129.1 -527 141.86 -527 C 154.62 -527 165.667 -522.44 175 -513.32 C 184.333 -504.207 189 -493.04 189 -479.82 C 189 -466.607 184.313 -455.5 174.94 -446.5 C 165.567 -437.5 154.4 -433 141.44 -433 C 128.48 -433 117.5 -437.56 108.5 -446.68 Z M 141.44 -602 C 128.48 -602 117.5 -606.747 108.5 -616.24 C 99.5 -625.733 95 -637.047 95 -650.18 C 95 -663.027 99.62 -674.04 108.86 -683.22 C 118.1 -692.407 129.1 -697 141.86 -697 C 154.62 -697 165.667 -692.313 175 -682.94 C 184.333 -673.567 189 -662.4 189 -649.44 C 189 -636.48 184.313 -625.333 174.94 -616 C 165.567 -606.667 154.4 -602 141.44 -602 Z M 277.77 -785.06 C 268.59 -794.433 264 -805.6 264 -818.56 C 264 -831.52 268.687 -842.667 278.06 -852 C 287.433 -861.333 298.6 -866 311.56 -866 C 324.52 -866 335.667 -861.253 345 -851.76 C 354.333 -842.267 359 -830.953 359 -817.82 C 359 -804.973 354.253 -793.96 344.76 -784.78 C 335.267 -775.593 323.953 -771 310.82 -771 C 297.973 -771 286.957 -775.687 277.77 -785.06 Z M 108.5 -785.06 C 99.5 -794.433 95 -805.6 95 -818.56 C 95 -831.52 99.62 -842.667 108.86 -852 C 118.1 -861.333 129.1 -866 141.86 -866 C 154.62 -866 165.667 -861.253 175 -851.76 C 184.333 -842.267 189 -830.953 189 -817.82 C 189 -804.973 184.313 -793.96 174.94 -784.78 C 165.567 -775.593 154.4 -771 141.44 -771 C 128.48 -771 117.5 -775.687 108.5 -785.06 Z M 649.44 -264 C 636.48 -264 625.333 -268.56 616 -277.68 C 606.667 -286.793 602 -297.96 602 -311.18 C 602 -324.393 606.747 -335.5 616.24 -344.5 C 625.733 -353.5 637.047 -358 650.18 -358 C 663.027 -358 674.04 -353.44 683.22 -344.32 C 692.407 -335.207 697 -324.04 697 -310.82 C 697 -297.607 692.313 -286.5 682.94 -277.5 C 673.567 -268.5 662.4 -264 649.44 -264 Z M 479.94 -95 C 466.98 -95 455.82 -99.61 446.501 -108.8 C 437.162 -118.2 432.502 -129.21 432.502 -141.8 C 432.502 -154.6 437.242 -165.6 446.741 -175 C 456.22 -184.4 467.54 -189 480.68 -189 C 493.52 -189 504.539 -184.4 513.719 -175 C 522.898 -165.6 527.498 -154.4 527.498 -141.41 C 527.498 -128.4 522.799 -117.6 513.438 -108.6 C 504.059 -99.41 492.9 -95 479.94 -95 Z M 479.929 -771 C 466.832 -771 455.554 -775.65 446.135 -784.95 C 436.716 -794.45 432.006 -805.57 432.006 -818.3 C 432.006 -831.23 436.797 -842.35 446.377 -851.85 C 455.958 -861.35 467.398 -866 480.677 -866 C 493.653 -866 504.79 -861.35 514.067 -851.85 C 523.345 -842.35 527.994 -831.03 527.994 -817.89 C 527.994 -804.76 523.244 -793.84 513.784 -784.75 C 504.305 -775.45 493.026 -771 479.929 -771 Z"/>
</svg>