<?xml version="1.0" encoding="utf-8"?>
<svg xmlns="http://www.w3.org/2000/svg" height="48" viewBox="0 -960 960 960" width="48">
  <path d="M 478.423 -386.02 C 478.395 -385.99 478.367 -385.96 478.337 -385.93 C 478.309 -385.91 478.281 -385.88 478.253 -385.85 C 452.017 -359.61 420.546 -346.46 384.013 -346.26 C 358.818 -346.25 336.237 -352.26 315.976 -364.63 C 306.863 -370.11 297.949 -377.19 289.937 -385.2 L 289.64 -385.5 C 275.131 -400.01 264.625 -416.17 258.166 -433.95 L 229.283 -433.96 C 220.855 -416.78 208.505 -402.97 192.219 -392.42 C 188.393 -389.93 184.446 -387.74 180.392 -385.82 C 166.144 -378.69 150.454 -375.06 133.333 -375.06 C 103.971 -375.06 79.114 -385.18 58.731 -405.41 C 38.363 -425.66 28.163 -450.56 28.16 -479.9 C 28.164 -509.45 38.36 -534.35 58.728 -554.59 C 79.108 -575.04 103.967 -585.37 133.337 -585.36 C 149.39 -585.36 164.198 -582.28 177.729 -575.96 C 182.729 -573.8 187.558 -571.22 192.217 -568.2 C 208.573 -557.6 220.958 -543.55 229.382 -526.25 L 258.393 -526.25 C 264.87 -543.92 275.321 -560.02 289.787 -574.48 C 316.051 -600.75 347.551 -613.93 384.261 -614.02 C 420.956 -614.08 452.478 -600.96 478.648 -574.79 C 478.789 -574.65 478.789 -574.65 478.931 -574.5 C 478.931 -574.5 478.931 -574.5 479.086 -574.35 C 489.955 -563.48 498.603 -551.54 504.797 -538.85 C 506.836 -534.74 508.635 -530.54 510.208 -526.25 L 726.667 -526.25 C 735.092 -543.55 747.475 -557.6 763.831 -568.19 C 775.818 -575.96 788.932 -580.86 803.177 -582.96 C 810.683 -584.56 818.518 -585.36 826.68 -585.36 C 856.052 -585.36 880.906 -575.04 901.269 -554.59 C 921.656 -534.35 931.832 -509.45 931.836 -479.89 C 931.831 -450.56 921.651 -425.66 901.271 -405.4 C 880.904 -385.18 856.049 -375.06 826.684 -375.06 C 818.581 -375.06 810.797 -375.87 803.342 -377.48 C 789.037 -379.61 775.864 -384.61 763.827 -392.41 C 747.544 -402.97 735.194 -416.77 726.768 -433.95 L 509.843 -433.96 C 503.304 -416.42 492.836 -400.43 478.423 -386.02 Z M 384.224 -425.72 C 399.32 -425.64 412.861 -431.76 422.687 -441.58 C 427.967 -446.86 432.212 -453.12 434.977 -460.17 C 437.408 -466.32 438.556 -473.21 438.638 -480.13 C 438.72 -481.91 438.568 -483.78 438.399 -485.58 C 435.498 -513.06 412.429 -534.32 384.361 -534.27 C 372.264 -534.49 361.307 -530.69 352.478 -524.15 C 340.19 -515.3 331.763 -501.44 330.192 -485.56 C 330.039 -483.65 329.872 -481.82 329.948 -479.86 C 329.885 -478.92 329.978 -477.91 329.951 -477.02 C 331.607 -448.32 355.251 -425.65 384.224 -425.72 Z" style="stroke-width: 0.003;"/>
</svg>