<?xml version="1.0" encoding="utf-8"?>
<svg xmlns="http://www.w3.org/2000/svg" height="48" viewBox="0 -960 960 960" width="48">
  <path d="M 203 -644 L 154 -595 C 144.667 -586.333 133.667 -582 121 -582 C 108.333 -582 97.333 -586.667 88 -596 C 78.667 -605.333 74 -616.333 74 -629 C 74 -641.667 78.667 -652.667 88 -662 L 217 -791 C 221.667 -795.667 226.833 -799.333 232.5 -802 C 238.167 -804.667 244.333 -806 251 -806 C 257 -806 262.833 -804.667 268.5 -802 C 274.167 -799.333 279.333 -795.667 284 -791 L 413 -662 C 422.333 -652 426.833 -640.667 426.5 -628 C 426.167 -615.333 421.667 -604.667 413 -596 C 403.667 -586 392.5 -581.333 379.5 -582 C 366.5 -582.667 355.667 -587.333 347 -596 L 298 -644 L 298 -314 L 347 -363 C 356.333 -371.667 367.333 -376 380 -376 C 392.667 -376 403.667 -371.667 413 -363 C 422.333 -353 427 -341.833 427 -329.5 C 427 -317.167 422.333 -306.333 413 -297 L 284 -167 C 279.333 -162.333 274.167 -158.667 268.5 -156 C 262.833 -153.333 257 -152 251 -152 C 244.333 -152 238.167 -153.333 232.5 -156 C 226.833 -158.667 221.667 -162.333 217 -167 L 88 -297 C 78 -306.333 73.167 -317.333 73.5 -330 C 73.833 -342.667 78.667 -353.667 88 -363 C 97.333 -372.333 108.5 -376.667 121.5 -376 C 134.5 -375.333 145.333 -370.667 154 -362 L 203 -314 Z M 572 -562 C 558.667 -562 547.5 -566.5 538.5 -575.5 C 529.5 -584.5 525 -595.67 525 -609 C 525 -622.33 529.5 -633.5 538.5 -642.5 C 547.5 -651.5 558.667 -656 572 -656 L 858 -656 C 871.333 -656 882.667 -651.5 892 -642.5 C 901.333 -633.5 906 -622.33 906 -609 C 906 -595.67 901.333 -584.5 892 -575.5 C 882.667 -566.5 871.333 -562 858 -562 Z M 572 -304 C 558.667 -304 547.5 -308.5 538.5 -317.5 C 529.5 -326.5 525 -337.67 525 -351 C 525 -364.33 529.5 -375.5 538.5 -384.5 C 547.5 -393.5 558.667 -398 572 -398 L 858 -398 C 871.333 -398 882.667 -393.5 892 -384.5 C 901.333 -375.5 906 -364.33 906 -351 C 906 -337.67 901.333 -326.5 892 -317.5 C 882.667 -308.5 871.333 -304 858 -304 Z"/>
</svg>