<?xml version="1.0" encoding="utf-8"?>
<svg width="100%" height="100%" viewBox="0 0 48 48" version="1.1" xmlns="http://www.w3.org/2000/svg" style="fill-rule:evenodd;clip-rule:evenodd;stroke-linejoin:round;stroke-miterlimit:2;">
  <path d="M 25.097 22.912 C 25.096 22.91 25.095 22.909 25.093 22.907 C 25.092 22.906 25.09 22.905 25.089 22.903 C 23.792 21.606 23.139 20.054 23.13 18.246 C 23.129 17.539 23.225 16.873 23.42 16.247 C 22.348 15.545 21.223 14.908 20.044 14.338 C 17.931 13.316 15.713 12.578 13.391 12.122 C 12.462 13.501 10.889 14.407 9.105 14.407 C 6.242 14.407 3.93 12.091 3.93 9.237 C 3.929 6.381 6.242 4.066 9.104 4.066 C 11.252 4.066 13.094 5.379 13.873 7.246 C 16.705 7.753 19.413 8.612 22 9.821 C 23.622 10.579 25.156 11.445 26.604 12.417 C 27.542 11.901 28.586 11.644 29.734 11.645 C 31.548 11.648 33.11 12.295 34.408 13.593 C 35.706 14.891 36.361 16.445 36.364 18.261 C 36.365 19.415 36.105 20.463 35.582 21.406 C 36.499 22.767 37.32 24.206 38.049 25.721 C 39.3 28.32 40.189 31.054 40.719 33.923 C 42.677 34.658 44.071 36.547 44.071 38.76 C 44.072 41.622 41.757 43.934 38.9 43.934 C 36.046 43.934 33.73 41.622 33.73 38.759 C 33.73 37.048 34.565 35.53 35.849 34.59 C 35.41 32.336 34.7 30.177 33.718 28.113 C 33.132 26.877 32.473 25.701 31.743 24.583 C 31.118 24.777 30.454 24.875 29.756 24.872 C 27.948 24.863 26.395 24.209 25.097 22.912 Z M 27.055 18.26 C 27.055 19.001 27.356 19.673 27.842 20.159 C 28.103 20.42 28.412 20.63 28.762 20.765 C 29.066 20.884 29.401 20.947 29.745 20.95 C 29.834 20.952 29.926 20.945 30.016 20.935 C 31.372 20.793 32.428 19.65 32.425 18.263 C 32.431 17.669 32.245 17.126 31.922 16.689 C 31.485 16.081 30.799 15.666 30.017 15.583 C 29.924 15.576 29.832 15.569 29.735 15.573 C 29.689 15.569 29.638 15.575 29.594 15.574 C 28.176 15.655 27.051 16.828 27.055 18.26 Z" style="stroke-width: 0.003;"/>
</svg>