<?xml version="1.0" encoding="utf-8"?>
<svg viewBox="0 0 22 22" xmlns="http://www.w3.org/2000/svg">
  <path d="M 10.5 3 L 10.5 11 C 10.478 11.452 10.64 11.764 10.938 12.062 C 11.236 12.36 11.548 12.5 12 12.5 C 12.452 12.5 12.764 12.36 13.062 12.062 C 13.36 11.764 13.522 11.452 13.5 11 L 13.5 3 C 13.5 2.724 13.724 2.5 14 2.5 L 16 2.5 C 16.276 2.5 16.5 2.724 16.5 3 L 16.5 10 C 16.478 11.487 15.859 12.925 14.892 13.892 C 13.925 14.859 12.487 15.5 11 15.5 C 9.513 15.5 8.075 14.859 7.108 13.892 C 6.141 12.925 5.522 11.487 5.5 10 L 5.5 3 C 5.5 2.724 5.724 2.5 6 2.5 L 10 2.5 C 10.276 2.5 10.5 2.724 10.5 3 Z M 18.5 18 L 18.5 19 C 18.5 19.276 18.276 19.5 18 19.5 L 4 19.5 C 3.724 19.5 3.5 19.276 3.5 19 L 3.5 18 C 3.5 17.724 3.724 17.5 4 17.5 L 18 17.5 C 18.276 17.5 18.5 17.724 18.5 18 Z"/>
</svg>