<?xml version="1.0" encoding="utf-8"?>
<svg xmlns="http://www.w3.org/2000/svg" height="48" viewBox="0 -960 960 960" width="48">
  <path d="M 320.815 -320.29 C 292.535 -348.38 273.277 -380.13 263.045 -415.59 L 159.986 -415.59 C 140.729 -415.59 124.781 -421.71 112.156 -434.5 C 99.531 -447.31 93.226 -462.62 93.226 -481.25 C 93.226 -499.6 99.531 -514.91 112.156 -527.42 C 124.781 -539.94 140.729 -546.33 159.986 -546.33 L 263.892 -546.33 C 274.322 -580.72 293.297 -611.65 320.815 -639.09 C 350.376 -668.73 383.917 -688.4 421.416 -698.19 C 439.881 -703.06 459.29 -705.5 479.644 -705.5 C 479.761 -705.5 479.879 -705.5 479.996 -705.5 C 480.114 -705.5 480.231 -705.5 480.349 -705.5 C 512.963 -705.5 543.14 -699.29 570.898 -686.82 C 595.625 -675.79 618.39 -659.88 639.194 -639.08 C 666.686 -611.6 685.648 -580.67 696.078 -546.3 L 800.014 -546.3 C 819.274 -546.3 835.214 -539.9 847.854 -527.5 C 860.474 -514.9 866.774 -499.69 866.774 -481.3 C 866.774 -462.69 860.474 -447.3 847.854 -434.5 C 835.214 -421.69 819.274 -415.7 800.014 -415.7 L 697.004 -415.7 C 686.79 -380.16 667.52 -348.37 639.194 -320.31 C 612.335 -293.71 582.206 -275.17 548.809 -264.7 C 527.321 -257.91 504.503 -254.5 480.349 -254.5 C 480.232 -254.5 480.114 -254.5 479.997 -254.5 C 479.879 -254.5 479.762 -254.5 479.644 -254.5 C 449.088 -254.5 420.66 -259.93 394.36 -270.79 C 367.595 -281.76 343.076 -298.27 320.815 -320.29 Z M 416.182 -479.527 L 372.405 -435.75 C 363.46 -426.805 358.841 -416.151 358.512 -403.823 C 358.003 -391.279 362.436 -380.51 371.64 -371.306 C 380.844 -362.102 391.725 -357.556 404.457 -357.878 C 417.008 -357.984 427.737 -362.529 436.682 -371.474 L 480.459 -415.251 L 524.244 -371.466 C 532.888 -362.821 543.497 -358.562 555.884 -358.465 C 568.468 -358.566 579.025 -362.901 587.779 -371.655 C 596.723 -380.6 601.257 -391.355 601.351 -403.932 C 601.438 -416.502 597.171 -427.104 588.527 -435.749 L 544.742 -479.534 L 588.526 -523.318 C 597.464 -532.256 601.892 -543.129 601.774 -555.904 C 601.848 -568.87 597.302 -579.751 588.359 -588.694 C 579.155 -597.898 568.441 -602.276 556.016 -601.662 C 543.799 -601.222 533.187 -596.532 524.249 -587.594 L 480.465 -543.81 L 435.748 -588.527 C 427.122 -597.153 416.521 -601.418 403.951 -601.331 C 391.19 -601.054 380.6 -596.724 371.655 -587.779 C 362.901 -579.025 358.394 -568.258 358.484 -555.864 C 358.581 -543.478 362.839 -532.87 371.465 -524.244 Z" style="stroke-width: 0.05;"/>
</svg>