<?xml version="1.0" encoding="utf-8"?>
<svg viewBox="0 0 22 22" xmlns="http://www.w3.org/2000/svg">
  <path d="M 18.5 3 L 18.5 4 C 18.5 4.276 18.276 4.5 18 4.5 L 15.33 4.5 L 9.758 17.5 L 14 17.5 C 14.276 17.5 14.5 17.724 14.5 18 L 14.5 19 C 14.5 19.276 14.276 19.5 14 19.5 L 4 19.5 C 3.724 19.5 3.5 19.276 3.5 19 L 3.5 18 C 3.5 17.724 3.724 17.5 4 17.5 L 6.67 17.5 L 12.242 4.5 L 8 4.5 C 7.724 4.5 7.5 4.276 7.5 4 L 7.5 3 C 7.5 2.724 7.724 2.5 8 2.5 L 18 2.5 C 18.276 2.5 18.5 2.724 18.5 3 Z"/>
</svg>