<?xml version="1.0" encoding="utf-8"?>
<svg xmlns="http://www.w3.org/2000/svg" height="48" viewBox="0 -960 960 960" width="48">
  <path d="M 203 -644 L 154 -595 C 144.667 -586.333 133.667 -582 121 -582 C 108.333 -582 97.333 -586.667 88 -596 C 78.667 -605.333 74 -616.333 74 -629 C 74 -641.667 78.667 -652.667 88 -662 L 217 -791 C 221.667 -795.667 226.833 -799.333 232.5 -802 C 238.167 -804.667 244.333 -806 251 -806 C 257 -806 262.833 -804.667 268.5 -802 C 274.167 -799.333 279.333 -795.667 284 -791 L 413 -662 C 422.333 -652 426.833 -640.667 426.5 -628 C 426.167 -615.333 421.667 -604.667 413 -596 C 403.667 -586 392.5 -581.333 379.5 -582 C 366.5 -582.667 355.667 -587.333 347 -596 L 298 -644 L 298 -314 L 347 -363 C 356.333 -371.667 367.333 -376 380 -376 C 392.667 -376 403.667 -371.667 413 -363 C 422.333 -353 427 -341.833 427 -329.5 C 427 -317.167 422.333 -306.333 413 -297 L 284 -167 C 279.333 -162.333 274.167 -158.667 268.5 -156 C 262.833 -153.333 257 -152 251 -152 C 244.333 -152 238.167 -153.333 232.5 -156 C 226.833 -158.667 221.667 -162.333 217 -167 L 88 -297 C 78 -306.333 73.167 -317.333 73.5 -330 C 73.833 -342.667 78.667 -353.667 88 -363 C 97.333 -372.333 108.5 -376.667 121.5 -376 C 134.5 -375.333 145.333 -370.667 154 -362 L 203 -314 L 203 -644 Z M 572 -563.23 C 558.667 -563.23 547.5 -567.73 538.5 -576.73 C 529.5 -585.73 525 -596.897 525 -610.23 C 525 -623.563 529.5 -634.73 538.5 -643.73 C 547.5 -652.73 558.667 -657.23 572 -657.23 L 858 -657.23 C 871.333 -657.23 882.667 -652.73 892 -643.73 C 901.333 -634.73 906 -623.563 906 -610.23 C 906 -596.897 901.333 -585.73 892 -576.73 C 882.667 -567.73 871.333 -563.23 858 -563.23 L 572 -563.23 Z M 572 -304.23 C 558.667 -304.23 547.5 -308.73 538.5 -317.73 C 529.5 -326.73 525 -337.897 525 -351.23 C 525 -364.563 529.5 -375.73 538.5 -384.73 C 547.5 -393.73 558.667 -398.23 572 -398.23 L 858 -398.23 C 871.333 -398.23 882.667 -393.73 892 -384.73 C 901.333 -375.73 906 -364.563 906 -351.23 C 906 -337.897 901.333 -326.73 892 -317.73 C 882.667 -308.73 871.333 -304.23 858 -304.23 L 572 -304.23 Z M 572 -46.23 C 558.667 -46.23 547.5 -50.73 538.5 -59.73 C 529.5 -68.73 525 -79.897 525 -93.23 C 525 -106.563 529.5 -117.73 538.5 -126.73 C 547.5 -135.73 558.667 -140.23 572 -140.23 L 858 -140.23 C 871.333 -140.23 882.667 -135.73 892 -126.73 C 901.333 -117.73 906 -106.563 906 -93.23 C 906 -79.897 901.333 -68.73 892 -59.73 C 882.667 -50.73 871.333 -46.23 858 -46.23 L 572 -46.23 Z M 572 -822.23 C 558.661 -822.23 547.5 -826.82 538.5 -835.83 C 529.499 -844.63 525 -855.83 525 -869.24 C 525 -882.63 529.499 -893.83 538.5 -902.63 C 547.5 -911.83 558.661 -916.23 572 -916.23 L 858.001 -916.23 C 871.32 -916.23 882.66 -911.83 892.001 -902.63 C 901.32 -893.83 906 -882.63 906 -869.24 C 906 -855.83 901.32 -844.63 892.001 -835.83 C 882.66 -826.82 871.32 -822.23 858.001 -822.23 L 572 -822.23 Z"/>
</svg>