<?xml version="1.0" encoding="utf-8"?>
<svg xmlns="http://www.w3.org/2000/svg" height="48" viewBox="0 -960 960 960" width="48">
  <path d="M 594.671 -376.48 C 586.11 -376.48 578.649 -379.74 572.277 -386.04 L 503.258 -455.05 C 496.413 -461.95 492.979 -470.17 492.979 -479.88 C 492.979 -489.56 496.413 -497.92 503.258 -504.98 L 572.277 -573.99 C 578.649 -580.48 586.11 -583.52 594.671 -583.52 C 603.247 -583.52 610.708 -580.48 617.065 -573.99 C 623.439 -567.67 626.744 -560.36 626.978 -552.11 C 627.226 -543.88 624.407 -536.85 618.533 -530.67 L 600.912 -512.33 L 744.57 -512.33 C 757.928 -550.92 794.572 -578.63 837.686 -578.63 C 892.1 -578.63 936.207 -534.52 936.207 -480 C 936.207 -425.67 892.1 -381.43 837.686 -381.43 C 794.32 -381.43 757.501 -409.52 744.339 -448.44 L 601.646 -448.44 L 619.269 -430.82 C 624.658 -424.06 627.256 -416.44 627.066 -408.06 C 626.89 -399.83 623.585 -392.48 617.153 -386.04 C 610.737 -379.74 603.247 -376.48 594.671 -376.48 Z M 342.848 -386.04 C 336.415 -392.48 333.11 -399.83 332.934 -408.06 C 332.744 -416.44 335.342 -424.06 340.731 -430.82 L 358.354 -448.44 L 215.661 -448.44 C 202.499 -409.52 165.68 -381.43 122.314 -381.43 C 67.9 -381.43 23.794 -425.67 23.794 -480 C 23.794 -534.52 67.9 -578.63 122.314 -578.63 C 165.429 -578.63 202.072 -550.92 215.43 -512.33 L 359.089 -512.33 L 341.467 -530.67 C 335.593 -536.85 332.774 -543.88 333.022 -552.11 C 333.256 -560.36 336.561 -567.67 342.935 -573.99 C 349.292 -580.48 356.753 -583.52 365.329 -583.52 C 373.89 -583.52 381.351 -580.48 387.723 -573.99 L 456.742 -504.98 C 463.587 -497.92 467.021 -489.56 467.021 -479.88 C 467.021 -470.17 463.587 -461.95 456.742 -455.05 L 387.723 -386.04 C 381.351 -379.74 373.89 -376.48 365.329 -376.48 C 356.753 -376.48 349.263 -379.74 342.848 -386.04 Z" style="stroke-width: 0.05;"/>
</svg>