<?xml version="1.0" encoding="utf-8"?>
<svg xmlns="http://www.w3.org/2000/svg" height="48" viewBox="0 -960 960 960" width="48">
  <path d="M 480.11 -346.68 C 480.07 -346.68 480.031 -346.68 479.988 -346.68 C 479.948 -346.68 479.909 -346.68 479.869 -346.68 C 442.766 -346.68 411.209 -359.63 385.234 -385.32 C 367.413 -403.13 355.699 -423.35 350.115 -446.42 C 347.547 -456.74 346.251 -468.05 346.251 -479.38 L 346.251 -479.8 C 346.251 -500.325 350.254 -519.182 358.259 -536.324 L 220.514 -674.07 C 202.405 -667.88 183.91 -666.85 164.929 -670.9 C 160.468 -671.85 156.125 -673.09 151.903 -674.6 C 136.782 -679.63 123.124 -688.16 111.021 -700.27 C 90.257 -721.03 79.834 -745.76 79.728 -774.48 C 79.643 -803.2 90.038 -828.02 110.784 -848.77 C 131.679 -869.66 156.499 -880.06 185.214 -879.97 C 214.085 -880.02 238.961 -869.74 259.726 -848.97 C 271.079 -837.62 279.37 -824.97 284.466 -810.93 C 286.478 -805.87 288.066 -800.63 289.225 -795.2 C 293.297 -776.14 292.121 -757.45 285.845 -739.26 L 423.681 -601.422 C 440.761 -609.337 459.531 -613.33 479.988 -613.33 C 517.131 -613.33 548.729 -600.38 574.745 -574.48 C 600.74 -548.58 613.748 -517.01 613.748 -480 C 613.748 -479.8 613.748 -479.8 613.748 -479.6 C 613.748 -479.6 613.748 -479.6 613.748 -479.38 C 613.748 -464.01 611.419 -449.45 606.828 -436.1 C 605.362 -431.754 603.666 -427.507 601.74 -423.361 L 739.259 -285.84 C 757.453 -292.12 776.146 -293.3 795.196 -289.22 C 809.168 -286.24 821.905 -280.43 833.46 -271.84 C 839.905 -267.67 846.006 -262.69 851.778 -256.92 C 872.546 -236.15 882.825 -211.28 882.763 -182.42 C 882.864 -153.69 872.456 -128.89 851.561 -107.99 C 830.814 -87.246 806.008 -76.838 777.276 -76.932 C 748.573 -77.026 723.842 -87.445 703.074 -108.21 C 697.344 -113.94 692.417 -120.02 688.283 -126.43 C 679.673 -138.05 673.894 -150.9 670.901 -164.93 C 666.853 -183.91 667.878 -202.4 674.072 -220.51 L 536.225 -358.358 C 519.197 -350.584 500.493 -346.68 480.11 -346.68 Z M 441.572 -441.36 C 452.192 -430.63 466.091 -425.38 479.988 -425.38 C 487.455 -425.38 494.878 -426.8 501.818 -429.83 C 507.886 -432.46 513.569 -436.52 518.526 -441.36 C 519.841 -442.56 521.056 -443.99 522.207 -445.38 C 539.585 -466.86 538.311 -498.21 518.426 -518.02 C 510.029 -526.73 499.593 -531.79 488.727 -533.41 C 473.779 -535.84 458.021 -532 445.679 -521.88 C 444.223 -520.64 442.807 -519.46 441.474 -518.02 C 440.765 -517.4 440.117 -516.62 439.469 -516.01 C 420.351 -494.55 421.039 -461.8 441.572 -441.36 Z" style="stroke-width: 0.003;"/>
</svg>