<?xml version="1.0" encoding="utf-8"?>
<svg xmlns="http://www.w3.org/2000/svg" height="48" viewBox="0 -960 960 960" width="48">
  <path d="M 249.384 -388.56 C 241.965 -388.56 235.273 -391.43 229.281 -397 C 224.17 -402.44 221.395 -408.81 220.954 -416.06 C 220.526 -423.2 222.899 -429.81 228.088 -435.9 L 243.651 -452.13 L 212.61 -452.13 C 201.016 -417.7 168.463 -392.92 130.122 -392.92 C 82.064 -392.92 43.108 -431.87 43.108 -479.88 C 43.108 -528.07 82.064 -567.01 130.122 -567.01 C 168.163 -567.01 200.506 -542.61 212.334 -508.54 L 243.003 -508.54 L 227.439 -524.11 C 222.692 -529.82 220.526 -536.3 220.954 -543.68 C 221.395 -551.09 224.196 -557.57 229.384 -563.01 C 235.442 -568.73 242.16 -571.43 249.554 -571.43 C 256.946 -571.43 263.418 -568.73 268.944 -563.01 L 329.903 -502.06 C 335.961 -495.95 338.983 -488.69 338.983 -480.13 C 338.983 -471.57 335.961 -464.19 329.903 -457.96 L 268.944 -397 C 263.328 -391.43 256.804 -388.56 249.384 -388.56 Z M 710.832 -388.56 C 703.271 -388.56 696.681 -391.43 691.053 -397 L 630.092 -457.96 C 624.047 -464.05 621.013 -471.31 621.013 -479.88 C 621.013 -488.43 624.047 -495.82 630.092 -502.06 L 691.053 -563.01 C 696.681 -568.73 703.271 -571.43 710.832 -571.43 C 718.406 -571.43 724.996 -568.73 730.611 -563.01 C 736.241 -557.43 739.16 -550.96 739.367 -543.68 C 739.586 -536.42 737.096 -530.2 731.908 -524.75 L 716.344 -508.54 L 747.63 -508.54 C 759.428 -542.64 791.793 -567.09 829.874 -567.09 C 877.935 -567.09 916.891 -528.15 916.891 -480 C 916.891 -432 877.935 -392.92 829.874 -392.92 C 791.571 -392.92 759.051 -417.74 747.426 -452.13 L 716.993 -452.13 L 732.558 -436.55 C 737.318 -430.58 739.613 -423.85 739.445 -416.45 C 739.289 -409.19 736.37 -402.7 730.689 -397 C 725.022 -391.43 718.406 -388.56 710.832 -388.56 Z M 481.255 -371.39 C 481.222 -371.39 481.19 -371.39 481.156 -371.39 C 481.124 -371.39 481.091 -371.39 481.057 -371.39 C 450.81 -371.39 425.065 -381.79 403.889 -402.75 C 389.359 -417.24 379.827 -433.74 375.258 -452.54 C 373.163 -461.13 372.107 -470.19 372.107 -479.58 L 372.107 -479.93 C 372.107 -509.94 382.711 -535.66 403.922 -556.78 C 425.116 -577.88 450.876 -588.61 481.156 -588.61 C 511.436 -588.61 537.181 -578.07 558.391 -556.93 C 579.585 -535.83 590.189 -510.26 590.189 -480.08 C 590.189 -479.93 590.189 -479.93 590.189 -479.76 C 590.189 -479.76 590.189 -479.76 590.189 -479.58 C 590.189 -466.89 588.308 -455.01 584.564 -444.13 C 579.386 -428.8 570.677 -414.94 558.424 -402.75 C 537.23 -381.79 511.519 -371.39 481.255 -371.39 Z M 449.822 -448.42 C 458.479 -439.69 469.809 -435.38 481.156 -435.38 C 487.226 -435.38 493.278 -436.56 498.951 -439.01 C 503.883 -441.33 508.517 -444.46 512.558 -448.42 C 513.631 -449.4 514.621 -450.57 515.561 -451.73 C 529.727 -469.19 528.688 -494.94 512.475 -511.1 C 505.632 -518.01 497.137 -522.13 488.281 -523.47 C 476.094 -525.42 463.246 -522.32 453.169 -514.23 C 451.981 -513.24 450.843 -512.25 449.738 -511.1 C 449.177 -510.61 448.633 -509.76 448.106 -509.27 C 432.52 -491.8 433.096 -465.06 449.822 -448.42 Z" style="stroke-width: 0.05;"/>
</svg>