<?xml version="1.0" encoding="utf-8"?>
<svg xmlns="http://www.w3.org/2000/svg" height="48" viewBox="0 -960 960 960" width="48">
  <path d="M 304.586 -300.81 C 256.273 -300.81 217.514 -319.76 188.307 -357.66 C 159.1 -395.57 144.496 -443.15 144.496 -500.42 C 144.496 -558.84 159.1 -606.71 188.307 -644.04 C 217.514 -681.38 256.273 -700.04 304.586 -700.04 C 352.899 -700.04 391.659 -681.09 420.865 -643.19 C 450.072 -605.29 464.676 -557.7 464.676 -500.42 C 464.676 -443.15 450.072 -395.57 420.865 -357.66 C 391.659 -319.76 352.899 -300.81 304.586 -300.81 Z M 304.586 -361.42 C 336.428 -361.42 360.31 -375.36 376.231 -403.25 C 392.152 -431.14 400.113 -463.54 400.113 -500.42 C 400.113 -537.32 392.152 -569.71 376.231 -597.6 C 360.31 -625.49 336.428 -639.43 304.586 -639.43 C 272.744 -639.43 248.862 -625.49 232.94 -597.6 C 217.02 -569.71 209.059 -537.32 209.059 -500.42 C 209.059 -463.54 217.02 -431.14 232.94 -403.25 C 248.862 -375.36 272.744 -361.42 304.586 -361.42 Z M 661.938 -300.81 C 613.634 -300.81 574.87 -319.78 545.658 -357.73 C 516.46 -395.53 501.848 -443.11 501.848 -500.42 C 501.848 -558.79 516.46 -606.75 545.658 -644.04 C 574.87 -681.34 613.634 -700.04 661.938 -700.04 C 710.254 -700.04 749.019 -681.07 778.216 -643.26 C 807.427 -605.32 822.026 -557.74 822.026 -500.42 C 822.026 -443.11 807.427 -395.53 778.216 -357.73 C 749.019 -319.78 710.254 -300.81 661.938 -300.81 Z M 661.938 -361.42 C 693.785 -361.42 717.659 -375.38 733.59 -403.32 C 749.506 -431.12 757.463 -463.54 757.463 -500.42 C 757.463 -537.32 749.506 -569.73 733.59 -597.66 C 717.659 -625.47 693.785 -639.43 661.938 -639.43 C 630.105 -639.43 606.217 -625.47 590.3 -597.66 C 574.37 -569.73 566.412 -537.32 566.412 -500.42 C 566.412 -463.54 574.37 -431.12 590.3 -403.32 C 606.217 -375.38 630.105 -361.42 661.938 -361.42 Z M 789.727 -233.74 C 782.26 -233.96 774.821 -236.92 769.673 -241.86 C 764.982 -247.03 761.901 -254.34 761.901 -261.56 C 761.901 -268.81 765.043 -276.08 769.701 -281.3 C 774.768 -286.11 782.205 -289.16 789.727 -289.4 L 918.012 -289.4 C 925.292 -289.16 932.634 -286.12 937.806 -281.24 C 942.634 -276.08 945.834 -268.73 945.834 -261.46 C 945.834 -254.18 942.612 -246.93 937.811 -241.8 C 932.582 -236.89 925.237 -233.96 918.012 -233.74 L 789.727 -233.74 Z M 113.084 -300.81 C 104.597 -300.81 97.297 -303.83 91.176 -309.88 C 85.059 -315.86 82 -323.26 82 -331.91 C 82 -340.51 85.069 -347.84 91.21 -353.82 C 97.349 -359.81 104.725 -362.79 113.33 -362.79 C 121.87 -362.79 129.201 -359.81 135.322 -353.82 C 141.437 -347.88 144.496 -340.56 144.496 -331.85 C 144.496 -323.3 141.418 -315.97 135.265 -309.88 C 129.107 -303.83 121.711 -300.81 113.084 -300.81 Z" style=""/>
</svg>