<?xml version="1.0" encoding="utf-8"?>
<svg xmlns="http://www.w3.org/2000/svg" height="48" viewBox="0 -960 960 960" width="48">
  <path d="M 96.343 -839.56 C 98.339 -842.12 100.442 -844.62 102.653 -847.07 C 104.133 -848.12 105.603 -850.38 107.201 -851.74 C 110.413 -855.17 113.846 -858.09 117.355 -861.03 C 147.131 -884.96 185.128 -894.2 221.196 -888.37 C 223.331 -888.05 225.458 -887.68 227.577 -887.24 C 240.048 -884.59 252.201 -880.15 263.607 -873.95 C 274.072 -868.14 283.916 -860.73 292.816 -851.74 C 304.563 -840.05 313.617 -826.63 319.976 -812.3 C 320.637 -810.797 321.269 -809.284 321.871 -807.763 L 639.578 -807.797 C 644.005 -818.953 650.005 -829.65 657.576 -839.55 C 659.572 -842.11 661.675 -844.61 663.886 -847.06 C 665.366 -848.11 666.836 -850.37 668.434 -851.73 C 671.646 -855.16 675.079 -858.08 678.588 -861.02 C 708.364 -884.95 746.361 -894.19 782.429 -888.36 C 784.564 -888.04 786.691 -887.67 788.81 -887.23 C 801.281 -884.58 813.434 -880.14 824.84 -873.94 C 835.305 -868.13 845.149 -860.72 854.049 -851.73 C 865.796 -840.04 874.85 -826.62 881.209 -812.29 C 902.462 -763.97 893.391 -705.65 853.898 -666.29 C 830.003 -642.82 799.293 -629.63 768.115 -627.95 C 765.857 -627.83 763.595 -627.77 761.332 -627.77 C 744.142 -627.77 726.942 -631.26 710.81 -638.08 C 710.045 -638.4 709.278 -638.77 708.518 -639.12 C 706.388 -640.06 704.275 -641.04 702.185 -642.07 C 690.114 -648.23 678.782 -656.36 668.681 -666.37 C 654.173 -680.779 643.772 -697.751 637.476 -715.86 L 323.861 -715.869 C 317.557 -697.746 307.16 -680.746 292.665 -666.3 C 278.909 -652.788 262.894 -642.684 245.831 -636.221 L 245.464 -322.369 C 251.671 -320.115 257.738 -317.39 263.607 -314.2 C 274.072 -308.39 283.916 -300.98 292.816 -291.99 C 304.563 -280.3 313.617 -266.88 319.976 -252.55 C 341.229 -204.23 332.158 -145.91 292.665 -106.55 C 268.77 -83.077 238.06 -69.887 206.882 -68.207 C 204.624 -68.087 202.362 -68.027 200.099 -68.027 C 182.909 -68.027 165.709 -71.517 149.577 -78.337 C 148.812 -78.657 148.045 -79.027 147.285 -79.377 C 145.155 -80.317 143.042 -81.297 140.952 -82.327 C 128.881 -88.487 117.549 -96.617 107.448 -106.63 C 60.176 -153.58 56.512 -227.73 96.343 -279.81 C 98.339 -282.37 100.442 -284.87 102.653 -287.32 C 104.133 -288.37 105.603 -290.63 107.201 -291.99 C 110.413 -295.42 113.846 -298.34 117.355 -301.28 C 128.474 -310.216 140.739 -317.104 153.623 -321.923 L 153.527 -636.495 C 152.204 -637.004 150.887 -637.536 149.577 -638.09 C 148.812 -638.41 148.045 -638.78 147.285 -639.13 C 145.155 -640.07 143.042 -641.05 140.952 -642.08 C 128.881 -648.24 117.549 -656.37 107.448 -666.38 C 60.176 -713.33 56.512 -787.48 96.343 -839.56 Z M 724.302 -722.19 C 728.391 -718.137 732.978 -714.852 737.864 -712.36 C 738.71 -711.938 739.565 -711.539 740.427 -711.16 C 740.735 -711.014 741.045 -710.873 741.355 -710.735 C 747.885 -707.976 754.847 -706.57 761.805 -706.57 C 762.721 -706.57 763.637 -706.592 764.551 -706.636 C 777.171 -707.324 789.602 -712.66 799.274 -722.16 C 815.26 -738.091 818.932 -761.698 810.329 -781.258 C 807.755 -787.059 804.09 -792.485 799.335 -797.22 C 795.733 -800.861 791.748 -803.856 787.512 -806.206 C 782.895 -808.721 777.976 -810.522 772.928 -811.592 C 772.07 -811.767 771.209 -811.92 770.345 -812.05 C 755.745 -814.41 740.365 -810.67 728.312 -800.98 C 726.892 -799.79 725.502 -798.61 724.202 -797.22 C 723.555 -796.667 722.96 -795.761 722.361 -795.329 C 721.466 -794.341 720.615 -793.327 719.807 -792.289 C 703.684 -771.213 705.167 -741.201 724.302 -722.19 Z M 163.069 -722.2 C 167.158 -718.14 171.745 -714.86 176.631 -712.37 C 177.477 -711.94 178.332 -711.54 179.194 -711.17 C 179.502 -711.02 179.812 -710.88 180.122 -710.74 C 186.652 -707.98 193.614 -706.58 200.572 -706.58 C 201.488 -706.58 202.404 -706.6 203.318 -706.64 C 215.938 -707.33 228.369 -712.67 238.041 -722.17 C 254.027 -738.1 257.699 -761.7 249.096 -781.26 C 246.522 -787.07 242.857 -792.49 238.102 -797.23 C 234.5 -800.87 230.515 -803.86 226.279 -806.21 C 221.662 -808.73 216.743 -810.53 211.695 -811.6 C 210.837 -811.77 209.976 -811.93 209.112 -812.06 C 194.512 -814.42 179.132 -810.68 167.079 -800.99 C 165.659 -799.8 164.269 -798.62 162.969 -797.23 C 162.322 -796.67 161.727 -795.77 161.128 -795.34 C 160.233 -794.35 159.382 -793.33 158.574 -792.29 C 142.451 -771.22 143.934 -741.21 163.069 -722.2 Z M 163.069 -162.45 C 167.158 -158.39 171.745 -155.11 176.631 -152.62 C 177.477 -152.19 178.332 -151.8 179.194 -151.42 C 179.502 -151.27 179.812 -151.13 180.122 -150.99 C 186.652 -148.23 193.614 -146.83 200.572 -146.83 C 201.488 -146.83 202.404 -146.85 203.318 -146.89 C 215.938 -147.58 228.369 -152.92 238.041 -162.42 C 254.027 -178.35 257.699 -201.96 249.096 -221.51 C 246.522 -227.32 242.857 -232.74 238.102 -237.48 C 234.5 -241.12 230.515 -244.11 226.279 -246.46 C 221.662 -248.98 216.743 -250.78 211.695 -251.85 C 210.837 -252.02 209.976 -252.18 209.112 -252.31 C 194.512 -254.67 179.132 -250.93 167.079 -241.24 C 165.659 -240.05 164.269 -238.87 162.969 -237.48 C 162.322 -236.92 161.727 -236.02 161.128 -235.59 C 160.233 -234.6 159.382 -233.58 158.574 -232.55 C 142.451 -211.47 143.934 -181.46 163.069 -162.45 Z M 736.264 -175.9 L 663.694 -175.9 C 650.611 -175.9 639.558 -180.48 630.53 -189.44 C 621.484 -198.58 616.972 -209.91 616.972 -223.22 C 616.972 -236.76 621.484 -247.88 630.53 -256.84 C 639.558 -265.77 650.611 -270.35 663.694 -270.35 L 736.264 -270.35 L 736.264 -342.92 C 736.264 -356.05 740.797 -366.97 749.863 -376.13 C 758.929 -385.06 770.023 -389.65 783.164 -389.65 C 796.307 -389.65 807.341 -385.06 816.289 -376.13 C 825.236 -366.97 829.708 -356.05 829.708 -342.92 L 829.708 -270.35 L 902.278 -270.35 C 915.381 -270.35 926.434 -265.77 935.462 -256.84 C 944.487 -247.68 949 -236.35 949 -223.04 C 949 -209.52 944.487 -198.17 935.462 -189.24 C 926.434 -180.28 915.381 -175.9 902.278 -175.9 L 829.708 -175.9 L 829.708 -104.33 C 829.708 -90.608 825.175 -79.288 816.109 -70.148 C 807.063 -61.188 795.948 -56.608 782.808 -56.608 C 769.685 -56.608 758.631 -61.188 749.682 -70.148 C 740.736 -79.288 736.264 -90.608 736.264 -104.33 Z M 828.31 -504.195 C 828.31 -490.984 823.71 -479.893 814.51 -470.901 C 805.13 -461.907 794.14 -457.412 781.35 -457.412 C 768.76 -457.412 757.57 -461.968 748.37 -471.081 C 738.97 -480.193 734.38 -491.346 734.38 -504.554 C 734.38 -517.764 738.97 -528.855 748.37 -537.847 C 757.76 -546.841 768.95 -551.337 781.94 -551.337 C 794.74 -551.337 805.72 -546.78 814.73 -537.668 C 823.71 -528.555 828.31 -517.404 828.31 -504.195 Z M 553.313 -219.72 C 553.313 -206.771 548.703 -195.801 539.513 -186.807 C 530.533 -177.815 519.333 -173.317 506.143 -173.317 C 492.963 -173.317 481.753 -177.934 472.763 -187.168 C 463.783 -196.4 459.373 -207.391 459.373 -220.141 C 459.373 -232.89 463.963 -243.923 472.983 -253.254 C 482.173 -262.587 493.353 -267.244 506.543 -267.244 C 519.733 -267.244 530.723 -262.567 539.733 -253.195 C 548.703 -243.822 553.313 -232.671 553.313 -219.72 Z" style="stroke-width: 1;"/>
</svg>