<?xml version="1.0" encoding="utf-8"?>
<svg xmlns="http://www.w3.org/2000/svg" height="48" viewBox="0 -960 960 960" width="48">
  <path d="M 402.788 -402.83 C 388.268 -417.32 378.743 -433.81 374.178 -452.6 C 372.085 -461 371.046 -470.24 371.046 -479.46 C 371.046 -479.65 371.046 -479.69 371.046 -479.69 C 371.046 -479.72 371.046 -479.86 371.046 -479.9 C 371.046 -510.11 381.647 -535.9 402.806 -556.9 C 418.023 -572.11 435.568 -581.77 455.45 -586.01 C 463.273 -587.71 471.456 -588.57 480 -588.57 C 510.259 -588.57 535.985 -578.01 557.179 -556.92 C 578.356 -535.83 588.954 -510.11 588.954 -479.95 C 588.954 -479.8 588.954 -479.8 588.954 -479.63 C 588.954 -479.63 588.954 -479.63 588.954 -479.46 C 588.954 -468.25 587.447 -457.56 584.446 -447.64 C 581.001 -436.03 575.582 -425.29 568.178 -415.44 C 564.908 -411.06 561.253 -406.86 557.212 -402.83 C 547.181 -392.92 536.137 -385.33 524.076 -380.09 C 510.67 -374.25 496.005 -371.31 480.088 -371.31 C 480.067 -371.31 480.028 -371.31 479.988 -371.31 C 479.967 -371.31 479.927 -371.31 479.888 -371.31 C 463.484 -371.31 448.422 -374.43 434.692 -380.63 C 423.106 -385.85 412.469 -393.25 402.788 -402.83 Z M 448.686 -448.48 C 454.348 -442.77 461.152 -438.96 468.357 -437 C 472.162 -436 476.075 -435.5 479.988 -435.5 C 491.328 -435.5 502.647 -439.7 511.307 -448.5 C 517.814 -454.96 521.874 -462.97 523.488 -471.36 C 526.151 -485.28 522.088 -500.19 511.296 -510.94 C 509.812 -512.49 508.249 -513.89 506.62 -515.15 C 501.289 -519.16 495.26 -521.83 489.007 -523.14 C 488.38 -523.26 487.75 -523.37 487.119 -523.47 C 475.174 -525.41 462.595 -522.43 452.615 -514.54 C 451.261 -513.44 449.955 -512.22 448.706 -510.9 C 437.725 -499.94 433.711 -484.75 436.652 -470.63 C 438.357 -462.5 442.368 -454.77 448.686 -448.48 Z M 762.181 -511.61 C 775.208 -549.24 810.94 -576.15 852.99 -576.15 C 906.039 -576.15 949.066 -533.25 949.066 -480.01 C 949.066 -426.94 906.039 -383.85 852.99 -383.85 C 810.686 -383.85 774.798 -411.33 761.945 -449.19 L 716.897 -449.19 L 607.696 -339.95 C 602.078 -334.5 595.31 -331.57 587.451 -331.57 C 579.589 -331.57 572.861 -334.5 567.204 -339.95 C 561.589 -345.63 558.663 -352.45 558.447 -359.87 C 558.253 -367.46 560.982 -374.27 566.6 -379.94 L 666.342 -479.62 L 566.6 -579.46 C 560.982 -585.13 558.136 -591.76 558.136 -599.57 C 558.136 -607.54 560.982 -614.18 566.6 -620.04 C 572.257 -625.68 578.985 -628.42 586.844 -628.42 C 594.706 -628.42 601.492 -625.68 607.089 -620.04 L 715.513 -511.61 Z M 244.326 -511.55 L 352.748 -619.98 C 358.351 -625.59 365.131 -628.37 372.992 -628.37 C 380.848 -628.37 387.569 -625.59 393.231 -619.98 C 398.851 -614.18 401.692 -607.37 401.692 -599.57 C 401.692 -591.77 398.851 -585.19 393.231 -579.39 L 293.49 -479.58 L 393.231 -379.97 C 398.851 -374.17 401.59 -367.35 401.39 -359.78 C 401.171 -352.38 398.251 -345.56 392.632 -339.96 C 386.969 -334.35 380.249 -331.57 372.392 -331.57 C 364.531 -331.57 357.748 -334.35 352.129 -339.96 L 242.927 -449.17 L 197.886 -449.17 C 185.025 -411.35 149.146 -383.77 106.844 -383.77 C 53.781 -383.77 10.762 -426.75 10.762 -479.97 C 10.762 -533.18 53.781 -576.17 106.844 -576.17 C 148.883 -576.17 184.625 -549.17 197.647 -511.55 Z" style="stroke-width: 0.05;"/>
</svg>