<?xml version="1.0" encoding="utf-8"?>
<svg xmlns="http://www.w3.org/2000/svg" height="48" viewBox="0 -960 960 960" width="48">
  <path d="M 183 -135 C 169.167 -135 157.71 -139.54 148.63 -148.63 C 139.543 -157.71 135 -168.83 135 -182 L 135 -403 C 135 -416.17 139.543 -427.46 148.63 -436.88 C 157.71 -446.29 169.167 -451 183 -451 L 251 -451 C 264.167 -451 275.46 -446.29 284.88 -436.88 C 294.293 -427.46 299 -416.17 299 -403 L 299 -182 C 299 -168.83 294.293 -157.71 284.88 -148.63 C 275.46 -139.54 264.167 -135 251 -135 Z M 709.58 -135 C 696.251 -135 684.99 -139.59 675.798 -148.79 C 666.599 -157.98 662 -169.24 662 -182.57 L 662 -785.93 C 662 -799.26 666.599 -810.69 675.798 -820.23 C 684.99 -829.76 696.251 -834.52 709.58 -834.52 L 778.42 -834.52 C 791.749 -834.52 803.013 -829.76 812.212 -820.23 C 821.404 -810.69 826 -799.26 826 -785.93 L 826 -182.57 C 826 -169.24 821.404 -157.98 812.212 -148.79 C 803.013 -139.59 791.749 -135 778.42 -135 Z M 445.711 -138.01 C 432.614 -138.01 421.56 -142.59 412.537 -151.53 C 403.512 -160.47 399 -171.6 399 -184.72 L 399 -578.29 C 399 -591.39 403.512 -602.53 412.537 -611.87 C 421.56 -621.22 432.614 -625.99 445.711 -625.99 L 514.289 -625.99 C 527.367 -625.99 538.44 -621.22 547.463 -611.87 C 556.488 -602.53 561 -591.39 561 -578.29 L 561 -184.72 C 561 -171.6 556.488 -160.47 547.463 -151.53 C 538.44 -142.59 527.367 -138.01 514.289 -138.01 Z"/>
</svg>