<?xml version="1.0" encoding="utf-8"?>
<svg viewBox="0 0 22 22" xmlns="http://www.w3.org/2000/svg">
  <path d="M 19.5 3 L 19.5 19 C 19.5 19.276 19.276 19.5 19 19.5 L 3 19.5 C 2.724 19.5 2.5 19.276 2.5 19 L 2.5 3 C 2.5 2.724 2.724 2.5 3 2.5 L 19 2.5 C 19.276 2.5 19.5 2.724 19.5 3 Z M 16 18 L 18 18 L 18 16 L 16 16 L 16 18 Z M 13 18 L 15 18 L 15 16 L 13 16 L 13 18 Z M 10 18 L 12 18 L 12 16 L 10 16 L 10 18 Z M 7 18 L 9 18 L 9 16 L 7 16 L 7 18 Z M 4 18 L 6 18 L 6 16 L 4 16 L 4 18 Z M 16 15 L 18 15 L 18 13 L 16 13 L 16 15 Z M 13 15 L 15 15 L 15 13 L 13 13 L 13 15 Z M 10 15 L 12 15 L 12 13 L 10 13 L 10 15 Z M 7 15 L 9 15 L 9 13 L 7 13 L 7 15 Z M 4 15 L 6 15 L 6 13 L 4 13 L 4 15 Z M 16 12 L 18 12 L 18 10 L 16 10 L 16 12 Z M 13 12 L 15 12 L 15 10 L 13 10 L 13 12 Z M 10 12 L 12 12 L 12 10 L 10 10 L 10 12 Z M 7 12 L 9 12 L 9 10 L 7 10 L 7 12 Z M 4 12 L 6 12 L 6 10 L 4 10 L 4 12 Z M 16 9 L 18 9 L 18 7 L 16 7 L 16 9 Z M 13 9 L 15 9 L 15 7 L 13 7 L 13 9 Z M 10 9 L 12 9 L 12 7 L 10 7 L 10 9 Z M 7 9 L 9 9 L 9 7 L 7 7 L 7 9 Z M 4 9 L 6 9 L 6 7 L 4 7 L 4 9 Z M 16 6 L 18 6 L 18 4 L 16 4 L 16 6 Z M 13 6 L 15 6 L 15 4 L 13 4 L 13 6 Z M 10 6 L 12 6 L 12 4 L 10 4 L 10 6 Z M 7 6 L 9 6 L 9 4 L 7 4 L 7 6 Z M 4 6 L 6 6 L 6 4 L 4 4 L 4 6 Z"/>
</svg>