<?xml version="1.0" encoding="utf-8"?>
<svg xmlns="http://www.w3.org/2000/svg" height="48" viewBox="0 -960 960 960" width="48">
  <path d="M 189.5 -94.5 C 163.193 -94.5 140.783 -103.66 122.27 -121.97 C 103.757 -140.29 94.5 -162.47 94.5 -188.5 L 94.5 -770.5 C 94.5 -796.81 103.757 -819.22 122.27 -837.73 C 140.783 -856.24 163.193 -865.5 189.5 -865.5 L 770.5 -865.5 C 796.807 -865.5 819.217 -856.24 837.73 -837.73 C 856.243 -819.22 865.5 -796.81 865.5 -770.5 L 865.5 -188.5 C 865.5 -162.47 856.243 -140.29 837.73 -121.97 C 819.217 -103.66 796.807 -94.5 770.5 -94.5 L 189.5 -94.5 Z M 189.5 -188.5 L 770.5 -188.5 L 770.5 -770.5 L 189.5 -770.5 L 189.5 -188.5 Z M 286.5 -239.5 L 445.5 -239.5 C 458.667 -239.5 469.793 -244.04 478.88 -253.13 C 487.96 -262.21 492.5 -273.33 492.5 -286.5 L 492.5 -392.5 C 492.5 -405.67 487.96 -416.79 478.88 -425.88 C 469.793 -434.96 458.667 -439.5 445.5 -439.5 L 286.5 -439.5 C 273.333 -439.5 262.21 -434.96 253.13 -425.88 C 244.043 -416.79 239.5 -405.67 239.5 -392.5 L 239.5 -286.5 C 239.5 -273.33 244.043 -262.21 253.13 -253.13 C 262.21 -244.04 273.333 -239.5 286.5 -239.5 Z M 565.5 -575.5 L 676.5 -575.5 C 688.333 -575.5 698.46 -579.71 706.88 -588.13 C 715.293 -596.54 719.5 -606.67 719.5 -618.5 L 719.5 -672.5 C 719.5 -685.67 714.96 -696.79 705.88 -705.88 C 696.793 -714.96 685.667 -719.5 672.5 -719.5 L 569.5 -719.5 C 556.333 -719.5 545.21 -714.96 536.13 -705.88 C 527.043 -696.79 522.5 -685.67 522.5 -672.5 L 522.5 -618.5 C 522.5 -606.67 526.71 -596.54 535.13 -588.13 C 543.543 -579.71 553.667 -575.5 565.5 -575.5 Z M 286.5 -469.5 L 445.5 -469.5 C 458.667 -469.5 469.793 -474.04 478.88 -483.13 C 487.96 -492.21 492.5 -503.33 492.5 -516.5 L 492.5 -672.5 C 492.5 -685.67 487.96 -696.79 478.88 -705.88 C 469.793 -714.96 458.667 -719.5 445.5 -719.5 L 286.5 -719.5 C 273.333 -719.5 262.21 -714.96 253.13 -705.88 C 244.043 -696.79 239.5 -685.67 239.5 -672.5 L 239.5 -516.5 C 239.5 -503.33 244.043 -492.21 253.13 -483.13 C 262.21 -474.04 273.333 -469.5 286.5 -469.5 Z M 569.5 -239.5 L 672.5 -239.5 C 685.667 -239.5 696.793 -244.04 705.88 -253.13 C 714.96 -262.21 719.5 -273.33 719.5 -286.5 L 719.5 -498.5 C 719.5 -511.67 714.96 -522.79 705.88 -531.88 C 696.793 -540.96 685.667 -545.5 672.5 -545.5 L 569.5 -545.5 C 556.333 -545.5 545.21 -540.96 536.13 -531.88 C 527.043 -522.79 522.5 -511.67 522.5 -498.5 L 522.5 -286.5 C 522.5 -273.33 527.043 -262.21 536.13 -253.13 C 545.21 -244.04 556.333 -239.5 569.5 -239.5 Z M 189.5 -770.5 L 189.5 -188.5 L 189.5 -770.5 Z"/>
</svg>