<?xml version="1.0" encoding="utf-8"?>
<svg viewBox="0 0 22 22" xmlns="http://www.w3.org/2000/svg">
  <g>
    <path d="M 14 10.5 L 11.5 10.5 L 11.5 19 C 11.5 19.276 11.276 19.5 11 19.5 L 10 19.5 C 9.724 19.5 9.5 19.276 9.5 19 L 9.5 10.5 L 7 10.5 C 6.827 10.5 6.666 10.41 6.575 10.263 C 6.484 10.115 6.475 9.931 6.553 9.776 L 10.053 2.776 C 10.137 2.607 10.311 2.5 10.5 2.5 C 10.689 2.5 10.863 2.607 10.947 2.776 L 14.447 9.776 C 14.525 9.931 14.516 10.115 14.425 10.263 C 14.334 10.41 14.173 10.5 14 10.5 Z M 9.426 8.5 L 11.574 8.5 L 10.5 6.354 Z"/>
  </g>
</svg>