<?xml version="1.0" encoding="utf-8"?>
<svg xmlns="http://www.w3.org/2000/svg" height="48" viewBox="0 -960 960 960" width="48">
  <path d="M 392 -255 L 280 -255 C 217.26 -255 164.073 -276.807 120.44 -320.42 C 76.813 -364.033 55 -417.127 55 -479.7 C 55 -542.267 76.813 -595.623 120.44 -639.77 C 164.073 -683.923 217.26 -706 280 -706 L 392 -706 C 404.3 -706 415.21 -701.147 424.73 -691.44 C 434.243 -681.733 439 -670.42 439 -657.5 C 439 -644.867 434.243 -633.96 424.73 -624.78 C 415.21 -615.593 404.3 -611 392 -611 L 280 -611 C 243.113 -611 212.057 -598.413 186.83 -573.24 C 161.61 -548.06 149 -517.06 149 -480.24 C 149 -443.413 161.61 -412.333 186.83 -387 C 212.057 -361.667 243.113 -349 280 -349 L 392 -349 C 404.3 -349 415.21 -344.333 424.73 -335 C 434.243 -325.667 439 -314.5 439 -301.5 C 439 -288.5 434.243 -277.5 424.73 -268.5 C 415.21 -259.5 404.3 -255 392 -255 Z M 344 -444 C 333.8 -444 325.25 -447.327 318.35 -453.98 C 311.45 -460.627 308 -469.36 308 -480.18 C 308 -490.993 311.307 -499.667 317.92 -506.2 C 324.54 -512.733 333.343 -516 344.33 -516 L 579 -516 C 589.2 -516 597.75 -512.673 604.65 -506.02 C 611.55 -499.373 615 -490.64 615 -479.82 C 615 -469.007 611.55 -460.333 604.65 -453.8 C 597.75 -447.267 589.2 -444 579 -444 Z M 906 -480 L 811 -480 C 811 -516.667 798.397 -547.667 773.19 -573 C 747.983 -598.333 716.947 -611 680.08 -611 L 566 -611 C 553.333 -611 542.5 -615.67 533.5 -625.01 C 524.5 -634.35 520 -645.477 520 -658.39 C 520 -670.797 524.543 -681.833 533.63 -691.5 C 542.71 -701.167 553.833 -706 567 -706 L 680 -706 C 742.527 -706 795.827 -683.967 839.9 -639.9 C 883.967 -595.827 906 -542.527 906 -480 Z M 726.528 -248.69 L 600.513 -248.69 C 588.583 -248.69 578.502 -252.87 570.27 -261.21 C 562.02 -269.35 557.904 -279.52 557.904 -291.47 C 557.904 -303.62 562.02 -313.6 570.27 -321.76 C 578.502 -329.92 588.583 -334.09 600.513 -334.09 L 726.528 -334.09 L 691.172 -370.36 C 683.92 -378.5 680.292 -387.94 680.292 -398.64 C 680.292 -409.34 683.92 -418.21 691.172 -425.47 C 700.238 -434.54 710.826 -439.43 722.903 -440.16 C 734.995 -440.7 745.276 -436.72 753.726 -428.38 L 860.702 -321.21 C 869.17 -312.14 873.394 -302.17 873.394 -290.94 C 873.394 -279.7 869.17 -269.9 860.702 -261.56 L 753.726 -154.59 C 745.276 -145.52 734.995 -141.16 722.903 -141.71 C 710.826 -142.44 700.238 -147.52 691.172 -157.3 C 683.321 -164.56 679.386 -173.63 679.386 -184.5 C 679.386 -195.38 683.321 -204.62 691.172 -212.43 Z"/>
</svg>