<?xml version="1.0" encoding="utf-8"?>
<svg xmlns="http://www.w3.org/2000/svg" height="48" viewBox="0 -960 960 960" width="48">
  <path d="M 729.436 -496.64 L 729.436 -617 C 729.436 -619.16 729.511 -621.31 729.659 -623.45 L 568 -811 L 229 -811 L 229 -149 L 391.221 -149 C 406.888 -149 418.304 -144.19 425.471 -134.56 C 432.638 -124.93 436.554 -114.13 437.221 -102.18 C 437.221 -90.06 433.471 -79.167 425.971 -69.5 C 418.471 -59.833 406.888 -55 391.221 -55 L 229 -55 C 202.967 -55 180.793 -64.157 162.48 -82.47 C 144.16 -100.79 135 -122.97 135 -149 L 135 -811 C 135 -837.31 144.16 -859.72 162.48 -878.23 C 180.793 -896.74 202.967 -906 229 -906 L 560 -906 C 573.747 -906 586.77 -903.03 599.07 -897.1 C 611.363 -891.17 622.007 -883.14 631 -873 L 802 -678 C 810.033 -669.66 816.043 -660.22 820.03 -649.67 C 824.01 -639.12 826 -628.23 826 -617 L 826 -496.64 C 826 -476.33 816.57 -461.99 797.709 -453.61 C 791.384 -450.14 784.67 -448.52 777.569 -448.73 C 770.814 -448.58 764.41 -450.11 758.36 -453.3 C 739.084 -461.72 729.436 -476.04 729.436 -496.64 Z M 548.504 -138.37 L 496.32 -138.37 C 488.208 -138.64 480.022 -142.04 474.197 -147.54 C 468.747 -153.33 465.132 -161.55 465.132 -169.66 C 465.132 -177.78 468.773 -186.02 474.223 -191.82 C 480.076 -197.23 488.261 -200.5 496.32 -200.75 L 548.504 -200.75 L 548.504 -270.12 L 496.32 -270.12 C 488.208 -270.39 480.019 -273.79 474.197 -279.28 C 468.762 -285.08 465.132 -293.3 465.132 -301.41 C 465.132 -309.53 468.539 -317.9 474.116 -323.67 C 479.762 -329.52 488.213 -332.75 496.32 -333.01 L 548.504 -333.01 L 548.504 -384.68 C 548.763 -392.8 552.152 -401.05 557.628 -406.85 C 563.445 -412.23 571.646 -415.87 579.785 -415.87 C 587.929 -415.87 596.116 -412.21 601.881 -406.82 C 607.286 -401.02 610.627 -392.79 610.88 -384.68 L 610.88 -333.01 L 680.252 -333.01 L 680.252 -384.68 C 680.511 -392.8 683.9 -401.05 689.376 -406.85 C 695.193 -412.23 703.394 -415.87 711.533 -415.87 C 719.659 -415.87 727.893 -412.26 733.797 -406.91 C 739.405 -401.1 742.874 -392.82 743.143 -384.68 L 743.143 -333.01 L 794.812 -333.01 C 802.929 -332.75 811.171 -329.3 817.053 -323.53 C 822.462 -317.56 826 -309.29 826 -301.21 C 826 -293.07 822.556 -284.73 816.918 -279.15 C 811.304 -273.58 802.934 -270.39 794.812 -270.12 L 743.143 -270.12 L 743.143 -200.75 L 794.812 -200.75 C 802.934 -200.48 811.173 -197.05 816.971 -191.67 C 822.398 -185.79 826 -177.56 826 -169.46 C 826 -161.34 822.36 -153.19 816.918 -147.4 C 811.121 -142.02 802.934 -138.64 794.812 -138.37 L 743.143 -138.37 L 743.143 -86.19 C 742.859 -78.02 739.318 -69.8 733.674 -63.933 C 727.719 -58.594 719.468 -55 711.348 -55 C 703.215 -55 694.961 -58.719 689.194 -64.108 C 683.825 -69.968 680.513 -78.075 680.252 -86.19 L 680.252 -138.37 L 610.88 -138.37 L 610.88 -86.19 C 610.613 -78.059 607.2 -69.884 601.762 -64.022 C 595.951 -58.645 587.736 -55 579.599 -55 C 571.467 -55 563.211 -58.72 557.444 -64.108 C 552.077 -69.969 548.765 -78.075 548.504 -86.19 Z M 610.88 -200.75 L 680.252 -200.75 L 680.252 -270.12 L 610.88 -270.12 Z M 420.465 -538.63 L 381.343 -538.63 C 376.866 -538.63 373.083 -540.19 369.994 -543.26 C 366.905 -546.38 365.353 -550.2 365.353 -554.69 C 365.353 -559.18 366.905 -562.92 369.994 -565.98 C 373.083 -569.04 376.866 -570.61 381.343 -570.61 L 420.465 -570.61 L 420.465 -625.72 L 381.343 -625.72 C 376.866 -625.72 373.083 -627.28 369.994 -630.35 C 366.905 -633.48 365.353 -637.29 365.353 -641.78 C 365.353 -646.27 366.905 -650.08 369.994 -653.28 C 373.083 -656.47 376.866 -658.04 381.343 -658.04 L 420.465 -658.04 L 420.465 -696.82 C 420.465 -701.31 422.017 -705.05 425.119 -708.18 C 428.222 -711.25 432.018 -712.81 436.516 -712.81 C 441.013 -712.81 444.79 -711.25 447.851 -708.18 C 450.913 -705.05 452.444 -701.31 452.444 -696.82 L 452.444 -658.04 L 507.556 -658.04 L 507.556 -696.82 C 507.556 -701.31 509.107 -705.05 512.21 -708.18 C 515.312 -711.25 519.109 -712.81 523.606 -712.81 C 528.104 -712.81 531.941 -711.25 535.112 -708.18 C 538.289 -705.05 539.875 -701.31 539.875 -696.82 L 539.875 -658.04 L 578.657 -658.04 C 583.141 -658.04 586.924 -656.41 590.013 -653.21 C 593.102 -650.01 594.646 -646.13 594.646 -641.64 C 594.646 -637.15 593.102 -633.34 590.013 -630.28 C 586.924 -627.22 583.141 -625.72 578.657 -625.72 L 539.875 -625.72 L 539.875 -570.61 L 578.657 -570.61 C 583.141 -570.61 586.924 -569.04 590.013 -565.91 C 593.102 -562.85 594.646 -559.04 594.646 -554.55 C 594.646 -550.06 593.102 -546.25 590.013 -543.19 C 586.924 -540.13 583.141 -538.63 578.657 -538.63 L 539.875 -538.63 L 539.875 -499.51 C 539.875 -495.02 538.269 -491.27 535.051 -488.14 C 531.839 -485.08 527.981 -483.52 523.484 -483.52 C 518.993 -483.52 515.21 -485.08 512.149 -488.14 C 509.087 -491.27 507.556 -495.02 507.556 -499.51 L 507.556 -538.63 L 452.444 -538.63 L 452.444 -499.51 C 452.444 -495.02 450.893 -491.27 447.79 -488.14 C 444.694 -485.08 440.891 -483.52 436.393 -483.52 C 431.903 -483.52 428.12 -485.08 425.058 -488.14 C 421.996 -491.27 420.465 -495.02 420.465 -499.51 Z M 452.444 -570.61 L 507.556 -570.61 L 507.556 -625.72 L 452.444 -625.72 Z" style="stroke-width: 0.05;"/>
</svg>