<?xml version="1.0" encoding="utf-8"?>
<svg viewBox="0 0 22 22" xmlns="http://www.w3.org/2000/svg">
  <path d="M 17 2.5 C 17.656 2.522 18.344 2.806 18.769 3.231 C 19.194 3.656 19.478 4.344 19.5 5 L 19.5 17 C 19.478 17.656 19.194 18.344 18.769 18.769 C 18.344 19.194 17.656 19.478 17 19.5 L 5 19.5 C 4.344 19.478 3.656 19.194 3.231 18.769 C 2.806 18.344 2.522 17.656 2.5 17 L 2.5 5 C 2.522 4.344 2.806 3.656 3.231 3.231 C 3.656 2.806 4.344 2.522 5 2.5 Z M 4.646 4.646 C 4.528 4.763 4.478 4.825 4.5 5 L 4.5 17 C 4.478 17.175 4.528 17.237 4.646 17.354 C 4.763 17.472 4.825 17.522 5 17.5 L 17 17.5 C 17.175 17.522 17.237 17.472 17.354 17.354 C 17.472 17.237 17.522 17.175 17.5 17 L 17.5 5 C 17.522 4.825 17.472 4.763 17.354 4.646 C 17.237 4.528 17.175 4.478 17 4.5 L 5 4.5 C 4.825 4.478 4.763 4.528 4.646 4.646 Z M 15 5.5 C 15.379 5.522 15.817 5.695 16.061 5.939 C 16.305 6.183 16.478 6.621 16.5 7 L 16.5 15 C 16.478 15.379 16.305 15.817 16.061 16.061 C 15.817 16.305 15.379 16.478 15 16.5 L 7 16.5 C 6.621 16.478 6.183 16.305 5.939 16.061 C 5.695 15.817 5.522 15.379 5.5 15 L 5.5 7 C 5.522 6.621 5.695 6.183 5.939 5.939 C 6.183 5.695 6.621 5.522 7 5.5 Z"/>
</svg>