<?xml version="1.0" encoding="utf-8"?>
<svg viewBox="0 0 22 22" xmlns="http://www.w3.org/2000/svg">
  <path d="M 14 7.5 L 12.5 7.5 L 12.5 8.5 L 19 8.5 C 19.276 8.5 19.5 8.724 19.5 9 L 19.5 13 C 19.5 13.276 19.276 13.5 19 13.5 L 12.5 13.5 L 12.5 14.5 L 14 14.5 C 14.189 14.5 14.363 14.607 14.447 14.776 C 14.532 14.946 14.514 15.148 14.4 15.3 L 11.4 19.3 C 11.306 19.426 11.157 19.5 11 19.5 C 10.843 19.5 10.694 19.426 10.6 19.3 L 7.6 15.3 C 7.486 15.148 7.468 14.946 7.553 14.776 C 7.637 14.607 7.811 14.5 8 14.5 L 9.5 14.5 L 9.5 13.5 L 3 13.5 C 2.724 13.5 2.5 13.276 2.5 13 L 2.5 9 C 2.5 8.724 2.724 8.5 3 8.5 L 9.5 8.5 L 9.5 7.5 L 8 7.5 C 7.811 7.5 7.637 7.393 7.553 7.224 C 7.468 7.054 7.486 6.852 7.6 6.7 L 10.6 2.7 C 10.694 2.574 10.843 2.5 11 2.5 C 11.157 2.5 11.306 2.574 11.4 2.7 L 14.4 6.7 C 14.514 6.852 14.532 7.054 14.447 7.224 C 14.363 7.393 14.189 7.5 14 7.5 Z M 4.5 11.5 L 5.5 11.5 L 5.5 10.5 L 4.5 10.5 Z M 7.5 11.5 L 8.5 11.5 L 8.5 10.5 L 7.5 10.5 Z M 10.5 11.5 L 11.5 11.5 L 11.5 10.5 L 10.5 10.5 Z M 13.5 11.5 L 14.5 11.5 L 14.5 10.5 L 13.5 10.5 Z M 16.5 11.5 L 17.5 11.5 L 17.5 10.5 L 16.5 10.5 Z"/>
</svg>