<?xml version="1.0" encoding="utf-8"?>
<svg viewBox="0 0 22 22" xmlns="http://www.w3.org/2000/svg">
  <path d="M 13.5 3 L 13.5 9.5 L 14.5 9.5 L 14.5 8 C 14.5 7.811 14.607 7.637 14.776 7.553 C 14.946 7.468 15.148 7.486 15.3 7.6 L 19.3 10.6 C 19.426 10.694 19.5 10.843 19.5 11 C 19.5 11.157 19.426 11.306 19.3 11.4 L 15.3 14.4 C 15.148 14.514 14.946 14.532 14.776 14.447 C 14.607 14.363 14.5 14.189 14.5 14 L 14.5 12.5 L 13.5 12.5 L 13.5 19 C 13.5 19.276 13.276 19.5 13 19.5 L 9 19.5 C 8.724 19.5 8.5 19.276 8.5 19 L 8.5 12.5 L 7.5 12.5 L 7.5 14 C 7.5 14.189 7.393 14.363 7.224 14.447 C 7.054 14.532 6.852 14.514 6.7 14.4 L 2.7 11.4 C 2.574 11.306 2.5 11.157 2.5 11 C 2.5 10.843 2.574 10.694 2.7 10.6 L 6.7 7.6 C 6.852 7.486 7.054 7.468 7.224 7.553 C 7.393 7.637 7.5 7.811 7.5 8 L 7.5 9.5 L 8.5 9.5 L 8.5 3 C 8.5 2.724 8.724 2.5 9 2.5 L 13 2.5 C 13.276 2.5 13.5 2.724 13.5 3 Z M 10 6 L 12 6 L 12 4 L 10 4 Z M 10 9 L 12 9 L 12 7 L 10 7 Z M 10 12 L 12 12 L 12 10 L 10 10 Z M 10 15 L 12 15 L 12 13 L 10 13 Z M 10 18 L 12 18 L 12 16 L 10 16 Z"/>
</svg>