<?xml version="1.0" encoding="utf-8"?>
<svg xmlns="http://www.w3.org/2000/svg" height="48" viewBox="0 -960 960 960" width="48">
  <path d="M 138 -30.169 C 126.253 -30.169 116.15 -34.422 107.69 -42.929 C 99.23 -51.442 95 -61.609 95 -73.429 C 95 -85.256 99.23 -95.502 107.69 -104.169 C 116.15 -112.836 126.253 -117.169 138 -117.169 L 822 -117.169 C 834.033 -117.169 844.377 -112.849 853.03 -104.209 C 861.677 -95.562 866 -85.229 866 -73.209 C 866 -61.182 861.677 -51.002 853.03 -42.669 C 844.377 -34.336 834.033 -30.169 822 -30.169 L 138 -30.169 Z M 138 -201.169 C 126.253 -201.169 116.15 -205.422 107.69 -213.929 C 99.23 -222.442 95 -232.609 95 -244.429 C 95 -256.256 99.23 -266.502 107.69 -275.169 C 116.15 -283.836 126.253 -288.169 138 -288.169 L 582 -288.169 C 594.033 -288.169 604.377 -283.849 613.03 -275.209 C 621.677 -266.562 626 -256.229 626 -244.209 C 626 -232.182 621.677 -222.002 613.03 -213.669 C 604.377 -205.336 594.033 -201.169 582 -201.169 L 138 -201.169 Z M 138 -437 C 126.253 -437 116.15 -441.253 107.69 -449.76 C 99.23 -458.273 95 -468.44 95 -480.26 C 95 -492.087 99.23 -502.333 107.69 -511 C 116.15 -519.667 126.253 -524 138 -524 L 822 -524 C 834.033 -524 844.377 -519.68 853.03 -511.04 C 861.677 -502.393 866 -492.06 866 -480.04 C 866 -468.013 861.677 -457.833 853.03 -449.5 C 844.377 -441.167 834.033 -437 822 -437 L 138 -437 Z M 138 -667.337 C 126.253 -667.337 116.15 -671.591 107.69 -680.097 C 99.23 -688.611 95 -698.777 95 -710.597 C 95 -722.424 99.23 -732.671 107.69 -741.337 C 116.15 -750.004 126.253 -754.337 138 -754.337 L 582 -754.337 C 594.033 -754.337 604.377 -750.017 613.03 -741.377 C 621.677 -732.731 626 -722.397 626 -710.377 C 626 -698.351 621.677 -688.171 613.03 -679.837 C 604.377 -671.504 594.033 -667.337 582 -667.337 L 138 -667.337 Z M 138 -838.337 C 126.253 -838.337 116.15 -842.591 107.69 -851.097 C 99.23 -859.611 95 -869.777 95 -881.597 C 95 -893.424 99.23 -903.671 107.69 -912.337 C 116.15 -921.004 126.253 -925.337 138 -925.337 L 822 -925.337 C 834.033 -925.337 844.377 -921.017 853.03 -912.377 C 861.677 -903.731 866 -893.397 866 -881.377 C 866 -869.351 861.677 -859.171 853.03 -850.837 C 844.377 -842.504 834.033 -838.337 822 -838.337 L 138 -838.337 Z"/>
</svg>