<?xml version="1.0" encoding="utf-8"?>
<svg xmlns="http://www.w3.org/2000/svg" height="48" viewBox="0 -960 960 960" width="48">
  <path d="M 446.5 -616.24 C 437.5 -625.733 433 -637.047 433 -650.18 C 433 -663.027 437.56 -674.04 446.68 -683.22 C 455.793 -692.407 466.96 -697 480.18 -697 C 493.393 -697 504.5 -692.313 513.5 -682.94 C 522.5 -673.567 527 -662.4 527 -649.44 C 527 -636.48 522.44 -625.333 513.32 -616 C 504.207 -606.667 493.04 -602 479.82 -602 C 466.607 -602 455.5 -606.747 446.5 -616.24 Z M 142 -95 C 128.833 -95 117.71 -99.56 108.63 -108.68 C 100.236 -117.098 95.72 -127.268 95.079 -139.19 L 95 -139.19 L 95 -316.07 L 95.134 -316.07 C 95.946 -327.601 100.441 -337.493 108.62 -345.6 C 117.143 -354.051 127.484 -358.446 139.608 -358.951 C 140.353 -358.984 141.103 -359 141.86 -359 C 141.882 -359 141.904 -359 141.926 -359 C 141.949 -359 141.973 -359 141.996 -359 L 817.997 -359 C 818.092 -359 818.186 -359 818.281 -358.999 C 818.374 -359 818.467 -359 818.56 -359 C 825.623 -359 832.148 -357.59 838.134 -354.77 C 843.049 -352.526 847.604 -349.397 851.797 -345.4 C 860.22 -337.217 864.902 -327.44 865.827 -316.07 L 865.998 -316.07 L 865.998 -142.29 C 865.999 -142.134 866 -141.977 866 -141.82 C 866 -141.663 865.999 -141.507 865.998 -141.35 L 865.998 -139.19 L 865.936 -139.19 C 865.344 -127.127 860.636 -116.896 851.81 -108.5 C 842.357 -99.5 831.087 -95 818 -95 L 142 -95 Z M 784.78 -446.68 C 775.593 -455.793 771 -466.96 771 -480.18 C 771 -493.393 775.687 -504.5 785.06 -513.5 C 794.433 -522.5 805.6 -527 818.56 -527 C 831.52 -527 842.667 -522.44 852 -513.32 C 861.333 -504.207 866 -493.04 866 -479.82 C 866 -466.607 861.253 -455.5 851.76 -446.5 C 842.267 -437.5 830.953 -433 817.82 -433 C 804.973 -433 793.96 -437.56 784.78 -446.68 Z M 108.5 -446.68 C 99.5 -455.793 95 -466.96 95 -480.18 C 95 -493.393 99.62 -504.5 108.86 -513.5 C 118.1 -522.5 129.1 -527 141.86 -527 C 154.62 -527 165.667 -522.44 175 -513.32 C 184.333 -504.207 189 -493.04 189 -479.82 C 189 -466.607 184.313 -455.5 174.94 -446.5 C 165.567 -437.5 154.4 -433 141.44 -433 C 128.48 -433 117.5 -437.56 108.5 -446.68 Z M 817.82 -602 C 804.973 -602 793.96 -606.747 784.78 -616.24 C 775.593 -625.733 771 -637.047 771 -650.18 C 771 -663.027 775.687 -674.04 785.06 -683.22 C 794.433 -692.407 805.6 -697 818.56 -697 C 831.52 -697 842.667 -692.313 852 -682.94 C 861.333 -673.567 866 -662.4 866 -649.44 C 866 -636.48 861.253 -625.333 851.76 -616 C 842.267 -606.667 830.953 -602 817.82 -602 Z M 141.44 -602 C 128.48 -602 117.5 -606.747 108.5 -616.24 C 99.5 -625.733 95 -637.047 95 -650.18 C 95 -663.027 99.62 -674.04 108.86 -683.22 C 118.1 -692.407 129.1 -697 141.86 -697 C 154.62 -697 165.667 -692.313 175 -682.94 C 184.333 -673.567 189 -662.4 189 -649.44 C 189 -636.48 184.313 -625.333 174.94 -616 C 165.567 -606.667 154.4 -602 141.44 -602 Z M 817.82 -771 C 804.973 -771 793.96 -775.687 784.78 -785.06 C 775.593 -794.433 771 -805.6 771 -818.56 C 771 -831.52 775.687 -842.667 785.06 -852 C 794.433 -861.333 805.6 -866 818.56 -866 C 831.52 -866 842.667 -861.253 852 -851.76 C 861.333 -842.267 866 -830.953 866 -817.82 C 866 -804.973 861.253 -793.96 851.76 -784.78 C 842.267 -775.593 830.953 -771 817.82 -771 Z M 649.44 -771 C 636.48 -771 625.333 -775.687 616 -785.06 C 606.667 -794.433 602 -805.6 602 -818.56 C 602 -831.52 606.747 -842.667 616.24 -852 C 625.733 -861.333 637.047 -866 650.18 -866 C 663.027 -866 674.04 -861.253 683.22 -851.76 C 692.407 -842.267 697 -830.953 697 -817.82 C 697 -804.973 692.313 -793.96 682.94 -784.78 C 673.567 -775.593 662.4 -771 649.44 -771 Z M 479.82 -771 C 466.607 -771 455.5 -775.687 446.5 -785.06 C 437.5 -794.433 433 -805.6 433 -818.56 C 433 -831.52 437.56 -842.667 446.68 -852 C 455.793 -861.333 466.96 -866 480.18 -866 C 493.393 -866 504.5 -861.253 513.5 -851.76 C 522.5 -842.267 527 -830.953 527 -817.82 C 527 -804.973 522.44 -793.96 513.32 -784.78 C 504.207 -775.593 493.04 -771 479.82 -771 Z M 310.82 -771 C 297.973 -771 286.957 -775.687 277.77 -785.06 C 268.59 -794.433 264 -805.6 264 -818.56 C 264 -831.52 268.687 -842.667 278.06 -852 C 287.433 -861.333 298.6 -866 311.56 -866 C 324.52 -866 335.667 -861.253 345 -851.76 C 354.333 -842.267 359 -830.953 359 -817.82 C 359 -804.973 354.253 -793.96 344.76 -784.78 C 335.267 -775.593 323.953 -771 310.82 -771 Z M 141.44 -771 C 128.48 -771 117.5 -775.687 108.5 -785.06 C 99.5 -794.433 95 -805.6 95 -818.56 C 95 -831.52 99.62 -842.667 108.86 -852 C 118.1 -861.333 129.1 -866 141.86 -866 C 154.62 -866 165.667 -861.253 175 -851.76 C 184.333 -842.267 189 -830.953 189 -817.82 C 189 -804.973 184.313 -793.96 174.94 -784.78 C 165.567 -775.593 154.4 -771 141.44 -771 Z M 649.44 -433 C 636.48 -433 625.333 -437.56 616 -446.68 C 606.667 -455.793 602 -466.96 602 -480.18 C 602 -493.393 606.747 -504.5 616.24 -513.5 C 625.733 -522.5 637.047 -527 650.18 -527 C 663.027 -527 674.04 -522.44 683.22 -513.32 C 692.407 -504.207 697 -493.04 697 -479.82 C 697 -466.607 692.313 -455.5 682.94 -446.5 C 673.567 -437.5 662.4 -433 649.44 -433 Z M 446.5 -446.68 C 437.5 -455.793 433 -466.96 433 -480.18 C 433 -493.393 437.56 -504.5 446.68 -513.5 C 455.793 -522.5 466.96 -527 480.18 -527 C 493.393 -527 504.5 -522.44 513.5 -513.32 C 522.5 -504.207 527 -493.04 527 -479.82 C 527 -466.607 522.44 -455.5 513.32 -446.5 C 504.207 -437.5 493.04 -433 479.82 -433 C 466.607 -433 455.5 -437.56 446.5 -446.68 Z M 310.82 -433 C 297.973 -433 286.957 -437.56 277.77 -446.68 C 268.59 -455.793 264 -466.96 264 -480.18 C 264 -493.393 268.687 -504.5 278.06 -513.5 C 287.433 -522.5 298.6 -527 311.56 -527 C 324.52 -527 335.667 -522.44 345 -513.32 C 354.333 -504.207 359 -493.04 359 -479.82 C 359 -466.607 354.253 -455.5 344.76 -446.5 C 335.267 -437.5 323.953 -433 310.82 -433 Z"/>
</svg>