<?xml version="1.0" encoding="utf-8"?>
<svg xmlns="http://www.w3.org/2000/svg" height="48" viewBox="0 -960 960 960" width="48">
  <path d="M 392 -255 L 280 -255 C 217.26 -255 164.073 -276.807 120.44 -320.42 C 76.813 -364.033 55 -417.127 55 -479.7 C 55 -542.267 76.813 -595.623 120.44 -639.77 C 164.073 -683.923 217.26 -706 280 -706 L 392 -706 C 404.3 -706 415.21 -701.147 424.73 -691.44 C 434.243 -681.733 439 -670.42 439 -657.5 C 439 -644.867 434.243 -633.96 424.73 -624.78 C 415.21 -615.593 404.3 -611 392 -611 L 280 -611 C 243.113 -611 212.057 -598.413 186.83 -573.24 C 161.61 -548.06 149 -517.06 149 -480.24 C 149 -443.413 161.61 -412.333 186.83 -387 C 212.057 -361.667 243.113 -349 280 -349 L 392 -349 C 404.3 -349 415.21 -344.333 424.73 -335 C 434.243 -325.667 439 -314.5 439 -301.5 C 439 -288.5 434.243 -277.5 424.73 -268.5 C 415.21 -259.5 404.3 -255 392 -255 Z M 740.126 -212.428 C 747.977 -204.618 751.912 -195.378 751.912 -184.498 C 751.912 -173.628 747.977 -164.558 740.126 -157.298 C 731.06 -147.518 720.472 -142.438 708.395 -141.708 C 696.303 -141.158 686.022 -145.518 677.572 -154.588 L 570.596 -261.558 C 562.128 -269.898 557.904 -279.698 557.904 -290.938 C 557.904 -302.168 562.128 -312.138 570.596 -321.208 L 677.572 -428.378 C 686.022 -436.718 696.303 -440.698 708.395 -440.158 C 720.472 -439.428 731.06 -434.538 740.126 -425.468 C 747.378 -418.208 751.006 -409.338 751.006 -398.638 C 751.006 -387.938 747.378 -378.498 740.126 -370.358 L 704.77 -334.088 L 830.785 -334.088 C 842.715 -334.088 852.796 -329.918 861.028 -321.758 C 869.278 -313.598 873.394 -303.618 873.394 -291.468 C 873.394 -279.518 869.278 -269.348 861.028 -261.208 C 852.796 -252.868 842.715 -248.688 830.785 -248.688 L 704.77 -248.688 Z M 906 -480 L 811 -480 C 811 -516.667 798.397 -547.667 773.19 -573 C 747.983 -598.333 716.947 -611 680.08 -611 L 566 -611 C 553.333 -611 542.5 -615.67 533.5 -625.01 C 524.5 -634.35 520 -645.477 520 -658.39 C 520 -670.797 524.543 -681.833 533.63 -691.5 C 542.71 -701.167 553.833 -706 567 -706 L 680 -706 C 742.527 -706 795.827 -683.967 839.9 -639.9 C 883.967 -595.827 906 -542.527 906 -480 Z M 344 -444 C 333.8 -444 325.25 -447.327 318.35 -453.98 C 311.45 -460.627 308 -469.36 308 -480.18 C 308 -490.993 311.307 -499.667 317.92 -506.2 C 324.54 -512.733 333.343 -516 344.33 -516 L 579 -516 C 589.2 -516 597.75 -512.673 604.65 -506.02 C 611.55 -499.373 615 -490.64 615 -479.82 C 615 -469.007 611.55 -460.333 604.65 -453.8 C 597.75 -447.267 589.2 -444 579 -444 Z"/>
</svg>