<?xml version="1.0" encoding="utf-8"?>
<svg viewBox="0 0 22 22" xmlns="http://www.w3.org/2000/svg">
  <path d="M 7.914 14.611 L 11 17.107 L 14.086 14.611 C 14.19 14.526 14.325 14.488 14.459 14.503 C 14.593 14.519 14.714 14.589 14.797 14.695 L 15.397 15.476 C 15.562 15.692 15.525 16 15.313 16.171 C 13.979 17.243 12.614 18.289 11.323 19.382 C 11.137 19.539 10.863 19.539 10.677 19.382 C 9.389 18.291 7.993 17.244 6.686 16.189 C 6.476 16.02 6.439 15.715 6.6 15.5 L 7.2 14.7 C 7.281 14.591 7.404 14.521 7.538 14.504 C 7.673 14.487 7.809 14.526 7.914 14.611 Z M 11.31 2.608 C 12.653 3.67 13.983 4.75 15.312 5.809 C 15.523 5.978 15.562 6.284 15.4 6.5 L 14.8 7.3 C 14.719 7.409 14.596 7.479 14.462 7.496 C 14.327 7.513 14.191 7.474 14.086 7.389 L 11 4.893 L 7.914 7.389 C 7.809 7.474 7.673 7.513 7.538 7.496 C 7.404 7.479 7.281 7.409 7.2 7.3 L 6.6 6.5 C 6.441 6.288 6.475 5.989 6.677 5.818 C 7.987 4.711 9.353 3.665 10.69 2.608 C 10.872 2.464 11.128 2.464 11.31 2.608 Z M 15.5 10 L 15.5 12 C 15.5 12.276 15.276 12.5 15 12.5 L 7 12.5 C 6.724 12.5 6.5 12.276 6.5 12 L 6.5 10 C 6.5 9.724 6.724 9.5 7 9.5 L 15 9.5 C 15.276 9.5 15.5 9.724 15.5 10 Z"/>
</svg>