<?xml version="1.0" encoding="utf-8"?>
<svg xmlns="http://www.w3.org/2000/svg" height="48" viewBox="0 -960 960 960" width="48">
  <path d="M 479.836 -300.81 C 471.349 -300.81 464.049 -303.83 457.928 -309.88 C 451.811 -315.86 448.752 -323.26 448.752 -331.91 C 448.752 -340.51 451.821 -347.84 457.962 -353.82 C 464.101 -359.81 471.477 -362.79 480.082 -362.79 C 488.622 -362.79 495.953 -359.81 502.074 -353.82 C 508.189 -347.88 511.248 -340.56 511.248 -331.85 C 511.248 -323.3 508.17 -315.97 502.017 -309.88 C 495.859 -303.83 488.463 -300.81 479.836 -300.81 Z M 658.677 -300.81 C 610.373 -300.81 571.609 -319.78 542.397 -357.73 C 513.199 -395.53 498.587 -443.11 498.587 -500.42 C 498.587 -558.79 513.199 -606.75 542.397 -644.04 C 571.609 -681.34 610.373 -700.04 658.677 -700.04 C 706.993 -700.04 745.758 -681.07 774.955 -643.26 C 804.166 -605.32 818.765 -557.74 818.765 -500.42 C 818.765 -443.11 804.166 -395.53 774.955 -357.73 C 745.758 -319.78 706.993 -300.81 658.677 -300.81 Z M 658.677 -361.42 C 690.524 -361.42 714.398 -375.38 730.329 -403.32 C 746.245 -431.12 754.202 -463.54 754.202 -500.42 C 754.202 -537.32 746.245 -569.73 730.329 -597.66 C 714.398 -625.47 690.524 -639.43 658.677 -639.43 C 626.844 -639.43 602.956 -625.47 587.039 -597.66 C 571.109 -569.73 563.151 -537.32 563.151 -500.42 C 563.151 -463.54 571.109 -431.12 587.039 -403.32 C 602.956 -375.38 626.844 -361.42 658.677 -361.42 Z M 301.325 -300.81 C 253.012 -300.81 214.253 -319.76 185.046 -357.66 C 155.839 -395.57 141.235 -443.15 141.235 -500.42 C 141.235 -558.84 155.839 -606.71 185.046 -644.04 C 214.253 -681.38 253.012 -700.04 301.325 -700.04 C 349.638 -700.04 388.398 -681.09 417.604 -643.19 C 446.811 -605.29 461.415 -557.7 461.415 -500.42 C 461.415 -443.15 446.811 -395.57 417.604 -357.66 C 388.398 -319.76 349.638 -300.81 301.325 -300.81 Z M 301.325 -361.42 C 333.167 -361.42 357.049 -375.36 372.97 -403.25 C 388.891 -431.14 396.852 -463.54 396.852 -500.42 C 396.852 -537.32 388.891 -569.71 372.97 -597.6 C 357.049 -625.49 333.167 -639.43 301.325 -639.43 C 269.483 -639.43 245.601 -625.49 229.679 -597.6 C 213.759 -569.71 205.798 -537.32 205.798 -500.42 C 205.798 -463.54 213.759 -431.14 229.679 -403.25 C 245.601 -375.36 269.483 -361.42 301.325 -361.42 Z" style=""/>
</svg>