<?xml version="1.0" encoding="utf-8"?>
<svg viewBox="0 0 22 22" xmlns="http://www.w3.org/2000/svg">
  <path d="M 7.5 3 L 7.5 7 C 7.5 7.276 7.276 7.5 7 7.5 L 3 7.5 C 2.724 7.5 2.5 7.276 2.5 7 L 2.5 3 C 2.5 2.724 2.724 2.5 3 2.5 L 7 2.5 C 7.276 2.5 7.5 2.724 7.5 3 Z M 7.5 15 L 7.5 19 C 7.5 19.276 7.276 19.5 7 19.5 L 3 19.5 C 2.724 19.5 2.5 19.276 2.5 19 L 2.5 15 C 2.5 14.724 2.724 14.5 3 14.5 L 7 14.5 C 7.276 14.5 7.5 14.724 7.5 15 Z M 7.5 9 L 7.5 13 C 7.5 13.276 7.276 13.5 7 13.5 L 3 13.5 C 2.724 13.5 2.5 13.276 2.5 13 L 2.5 9 C 2.5 8.724 2.724 8.5 3 8.5 L 7 8.5 C 7.276 8.5 7.5 8.724 7.5 9 Z M 19.5 3 L 19.5 7 C 19.5 7.276 19.276 7.5 19 7.5 L 15 7.5 C 14.724 7.5 14.5 7.276 14.5 7 L 14.5 3 C 14.5 2.724 14.724 2.5 15 2.5 L 19 2.5 C 19.276 2.5 19.5 2.724 19.5 3 Z M 13.5 3 L 13.5 7 C 13.5 7.276 13.276 7.5 13 7.5 L 9 7.5 C 8.724 7.5 8.5 7.276 8.5 7 L 8.5 3 C 8.5 2.724 8.724 2.5 9 2.5 L 13 2.5 C 13.276 2.5 13.5 2.724 13.5 3 Z M 17.5 9 L 17.5 13.5 C 17.478 14.571 17.027 15.635 16.331 16.331 C 15.635 17.027 14.571 17.5 13.5 17.5 C 12.403 17.5 12.093 17.282 11.5 16.934 L 11.5 17 C 11.5 17.276 11.276 17.5 11 17.5 L 10 17.5 C 9.724 17.5 9.5 17.276 9.5 17 L 9.5 14 C 9.5 13.724 9.724 13.5 10 13.5 L 13 13.5 C 13.276 13.5 13.5 13.724 13.5 14 L 13.5 15 C 13.5 15.223 13.354 15.411 13.153 15.476 C 13.263 15.492 13.379 15.5 13.5 15.5 C 14.091 15.5 14.527 15.304 14.916 14.916 C 15.304 14.527 15.522 14.091 15.5 13.5 L 15.5 9 C 15.5 8.724 15.724 8.5 16 8.5 L 17 8.5 C 17.276 8.5 17.5 8.724 17.5 9 Z M 4 6 L 6 6 L 6 4 L 4 4 Z M 16 6 L 18 6 L 18 4 L 16 4 Z M 4 12 L 6 12 L 6 10 L 4 10 Z"/>
</svg>