<?xml version="1.0" encoding="utf-8"?>
<svg xmlns="http://www.w3.org/2000/svg" height="48" viewBox="0 -960 960 960" width="48">
  <path d="M 446.5 -446.68 C 437.5 -455.793 433 -466.96 433 -480.18 C 433 -493.393 437.56 -504.5 446.68 -513.5 C 455.793 -522.5 466.96 -527 480.18 -527 C 493.393 -527 504.5 -522.44 513.5 -513.32 C 522.5 -504.207 527 -493.04 527 -479.82 C 527 -466.607 522.44 -455.5 513.32 -446.5 C 504.207 -437.5 493.04 -433 479.82 -433 C 466.607 -433 455.5 -437.56 446.5 -446.68 Z M 95 -823 L 95.141 -823 C 95.942 -834.6 100.44 -844.6 108.62 -852.61 C 117.043 -860.906 127.249 -865.291 139.194 -865.978 L 139.194 -866 C 139.954 -866 141.101 -866 141.86 -866 C 141.899 -866 141.979 -866 142.001 -866 C 342.353 -866 818.206 -866 818.273 -866 C 818.372 -866 818.452 -866 818.552 -866 C 818.553 -866 818.555 -866 818.556 -866 C 818.557 -866 818.559 -866 818.56 -866 C 818.777 -866 818.994 -865.999 819.211 -865.996 L 822.993 -865.996 L 822.993 -865.855 C 834.593 -865.055 844.593 -860.556 852.593 -852.376 C 860.62 -844.234 864.985 -834.431 865.889 -823 L 865.992 -823 C 865.992 -822.988 865.992 -822.44 865.992 -821.416 C 865.992 -821.409 865.993 -821.403 865.993 -821.396 C 865.993 -820.636 865.993 -819.896 865.993 -819.136 C 865.993 -819.116 865.993 -819.096 865.993 -819.076 C 865.993 -819.036 865.993 -819.016 865.993 -818.996 C 865.993 -818.995 865.993 -818.894 865.993 -818.695 C 865.997 -818.404 866 -818.112 866 -817.82 C 866 -817.537 865.997 -817.254 865.993 -816.972 C 865.993 -804.682 865.993 -737.668 865.993 -650.303 C 865.997 -650.017 866 -649.729 866 -649.44 C 866 -649.154 865.997 -648.869 865.993 -648.585 C 865.993 -597.23 865.993 -538.964 865.993 -480.704 C 865.998 -480.41 866 -480.116 866 -479.82 C 866 -479.527 865.998 -479.235 865.993 -478.944 C 865.993 -422.483 865.993 -366.092 865.993 -316.07 L 865.998 -316.07 L 865.998 -142.29 C 865.999 -142.134 866 -141.977 866 -141.82 C 866 -141.663 865.999 -141.507 865.998 -141.35 L 865.998 -139.19 L 865.936 -139.19 C 865.344 -127.127 860.636 -116.896 851.81 -108.5 C 850.686 -107.43 849.537 -106.424 848.362 -105.481 C 841.04 -99.402 832.575 -95.965 822.993 -95.183 L 822.993 -95.003 C 822.974 -95.003 821.407 -95.003 818.584 -95.003 C 818.39 -95.001 818.195 -95 818 -95 L 142 -95 C 141.627 -95 141.255 -95.004 140.885 -95.011 L 139.194 -95.011 L 139.194 -95.071 C 138.983 -95.081 138.773 -95.093 138.563 -95.106 C 138.151 -95.132 137.74 -95.163 137.332 -95.198 C 126.184 -96.164 116.616 -100.658 108.63 -108.68 C 100.236 -117.098 95.72 -127.268 95.079 -139.19 L 95 -139.19 L 95 -316.07 L 95.004 -316.07 L 95.004 -479.499 C 95.001 -479.725 95 -479.952 95 -480.18 C 95 -480.404 95.001 -480.628 95.004 -480.852 L 95.004 -646.21 L 95 -646.21 Z M 601.993 -359 L 601.993 -602 L 359.004 -602 C 359.004 -524.261 359.004 -436.678 359.004 -359 Z"/>
</svg>