<?xml version="1.0" encoding="utf-8"?>
<svg xmlns="http://www.w3.org/2000/svg" height="48" viewBox="0 -960 960 960" width="48">
  <path d="M 446.5 -616.24 C 437.5 -625.733 433 -637.047 433 -650.18 C 433 -663.027 437.56 -674.04 446.68 -683.22 C 455.793 -692.407 466.96 -697 480.18 -697 C 493.393 -697 504.5 -692.313 513.5 -682.94 C 522.5 -673.567 527 -662.4 527 -649.44 C 527 -636.48 522.44 -625.333 513.32 -616 C 504.207 -606.667 493.04 -602 479.82 -602 C 466.607 -602 455.5 -606.747 446.5 -616.24 Z M 142 -95 C 128.833 -95 117.71 -99.56 108.63 -108.68 C 99.543 -117.793 95 -128.96 95 -142.18 C 95 -155.393 99.543 -166.5 108.63 -175.5 C 117.71 -184.5 128.833 -189 142 -189 L 818 -189 C 831.087 -189 842.357 -184.44 851.81 -175.32 C 861.27 -166.207 866 -155.04 866 -141.82 C 866 -128.607 861.27 -117.5 851.81 -108.5 C 842.357 -99.5 831.087 -95 818 -95 Z M 784.78 -446.68 C 775.593 -455.793 771 -466.96 771 -480.18 C 771 -493.393 775.687 -504.5 785.06 -513.5 C 794.433 -522.5 805.6 -527 818.56 -527 C 831.52 -527 842.667 -522.44 852 -513.32 C 861.333 -504.207 866 -493.04 866 -479.82 C 866 -466.607 861.253 -455.5 851.76 -446.5 C 842.267 -437.5 830.953 -433 817.82 -433 C 804.973 -433 793.96 -437.56 784.78 -446.68 Z M 108.5 -446.68 C 99.5 -455.793 95 -466.96 95 -480.18 C 95 -493.393 99.62 -504.5 108.86 -513.5 C 118.1 -522.5 129.1 -527 141.86 -527 C 154.62 -527 165.667 -522.44 175 -513.32 C 184.333 -504.207 189 -493.04 189 -479.82 C 189 -466.607 184.313 -455.5 174.94 -446.5 C 165.567 -437.5 154.4 -433 141.44 -433 C 128.48 -433 117.5 -437.56 108.5 -446.68 Z M 817.82 -602 C 804.973 -602 793.96 -606.747 784.78 -616.24 C 775.593 -625.733 771 -637.047 771 -650.18 C 771 -663.027 775.687 -674.04 785.06 -683.22 C 794.433 -692.407 805.6 -697 818.56 -697 C 831.52 -697 842.667 -692.313 852 -682.94 C 861.333 -673.567 866 -662.4 866 -649.44 C 866 -636.48 861.253 -625.333 851.76 -616 C 842.267 -606.667 830.953 -602 817.82 -602 Z M 141.44 -602 C 128.48 -602 117.5 -606.747 108.5 -616.24 C 99.5 -625.733 95 -637.047 95 -650.18 C 95 -663.027 99.62 -674.04 108.86 -683.22 C 118.1 -692.407 129.1 -697 141.86 -697 C 154.62 -697 165.667 -692.313 175 -682.94 C 184.333 -673.567 189 -662.4 189 -649.44 C 189 -636.48 184.313 -625.333 174.94 -616 C 165.567 -606.667 154.4 -602 141.44 -602 Z M 817.82 -771 C 804.973 -771 793.96 -775.687 784.78 -785.06 C 775.593 -794.433 771 -805.6 771 -818.56 C 771 -831.52 775.687 -842.667 785.06 -852 C 794.433 -861.333 805.6 -866 818.56 -866 C 831.52 -866 842.667 -861.253 852 -851.76 C 861.333 -842.267 866 -830.953 866 -817.82 C 866 -804.973 861.253 -793.96 851.76 -784.78 C 842.267 -775.593 830.953 -771 817.82 -771 Z M 649.44 -771 C 636.48 -771 625.333 -775.687 616 -785.06 C 606.667 -794.433 602 -805.6 602 -818.56 C 602 -831.52 606.747 -842.667 616.24 -852 C 625.733 -861.333 637.047 -866 650.18 -866 C 663.027 -866 674.04 -861.253 683.22 -851.76 C 692.407 -842.267 697 -830.953 697 -817.82 C 697 -804.973 692.313 -793.96 682.94 -784.78 C 673.567 -775.593 662.4 -771 649.44 -771 Z M 479.82 -771 C 466.607 -771 455.5 -775.687 446.5 -785.06 C 437.5 -794.433 433 -805.6 433 -818.56 C 433 -831.52 437.56 -842.667 446.68 -852 C 455.793 -861.333 466.96 -866 480.18 -866 C 493.393 -866 504.5 -861.253 513.5 -851.76 C 522.5 -842.267 527 -830.953 527 -817.82 C 527 -804.973 522.44 -793.96 513.32 -784.78 C 504.207 -775.593 493.04 -771 479.82 -771 Z M 310.82 -771 C 297.973 -771 286.957 -775.687 277.77 -785.06 C 268.59 -794.433 264 -805.6 264 -818.56 C 264 -831.52 268.687 -842.667 278.06 -852 C 287.433 -861.333 298.6 -866 311.56 -866 C 324.52 -866 335.667 -861.253 345 -851.76 C 354.333 -842.267 359 -830.953 359 -817.82 C 359 -804.973 354.253 -793.96 344.76 -784.78 C 335.267 -775.593 323.953 -771 310.82 -771 Z M 141.44 -771 C 128.48 -771 117.5 -775.687 108.5 -785.06 C 99.5 -794.433 95 -805.6 95 -818.56 C 95 -831.52 99.62 -842.667 108.86 -852 C 118.1 -861.333 129.1 -866 141.86 -866 C 154.62 -866 165.667 -861.253 175 -851.76 C 184.333 -842.267 189 -830.953 189 -817.82 C 189 -804.973 184.313 -793.96 174.94 -784.78 C 165.567 -775.593 154.4 -771 141.44 -771 Z M 649.44 -433 C 636.48 -433 625.333 -437.56 616 -446.68 C 606.667 -455.793 602 -466.96 602 -480.18 C 602 -493.393 606.747 -504.5 616.24 -513.5 C 625.733 -522.5 637.047 -527 650.18 -527 C 663.027 -527 674.04 -522.44 683.22 -513.32 C 692.407 -504.207 697 -493.04 697 -479.82 C 697 -466.607 692.313 -455.5 682.94 -446.5 C 673.567 -437.5 662.4 -433 649.44 -433 Z M 446.5 -446.68 C 437.5 -455.793 433 -466.96 433 -480.18 C 433 -493.393 437.56 -504.5 446.68 -513.5 C 455.793 -522.5 466.96 -527 480.18 -527 C 493.393 -527 504.5 -522.44 513.5 -513.32 C 522.5 -504.207 527 -493.04 527 -479.82 C 527 -466.607 522.44 -455.5 513.32 -446.5 C 504.207 -437.5 493.04 -433 479.82 -433 C 466.607 -433 455.5 -437.56 446.5 -446.68 Z M 310.82 -433 C 297.973 -433 286.957 -437.56 277.77 -446.68 C 268.59 -455.793 264 -466.96 264 -480.18 C 264 -493.393 268.687 -504.5 278.06 -513.5 C 287.433 -522.5 298.6 -527 311.56 -527 C 324.52 -527 335.667 -522.44 345 -513.32 C 354.333 -504.207 359 -493.04 359 -479.82 C 359 -466.607 354.253 -455.5 344.76 -446.5 C 335.267 -437.5 323.953 -433 310.82 -433 Z M 138.399 -264 C 125.098 -264 113.861 -268.64 104.683 -277.75 C 95.505 -287.04 90.899 -298.36 90.899 -311.69 C 90.899 -325.04 95.505 -336.16 104.683 -345.25 C 113.861 -354.36 125.098 -359 138.399 -359 L 821.588 -359 C 834.829 -359 846.209 -354.36 855.77 -345.04 C 865.33 -335.96 870.101 -324.64 870.101 -311.31 C 870.101 -297.96 865.33 -286.64 855.77 -277.53 C 846.209 -268.44 834.829 -264 821.588 -264 Z"/>
</svg>