<?xml version="1.0" encoding="utf-8"?>
<svg viewBox="0 0 32 32" xmlns="http://www.w3.org/2000/svg">
  <path d="M 17.5 1 L 17.5 4.5 L 21 4.5 C 21.194 4.5 21.371 4.612 21.453 4.788 C 21.535 4.964 21.508 5.171 21.384 5.32 L 16.384 11.32 C 16.289 11.434 16.148 11.5 16 11.5 C 15.852 11.5 15.711 11.434 15.616 11.32 L 10.616 5.32 C 10.492 5.171 10.465 4.964 10.547 4.788 C 10.63 4.612 10.806 4.5 11 4.5 L 14.5 4.5 L 14.5 1 C 14.5 0.724 14.724 0.5 15 0.5 L 17 0.5 C 17.276 0.5 17.5 0.724 17.5 1 Z M 28.5 13 L 28.5 14 C 28.5 14.276 28.276 14.5 28 14.5 L 4 14.5 C 3.724 14.5 3.5 14.276 3.5 14 L 3.5 13 C 3.5 12.724 3.724 12.5 4 12.5 L 28 12.5 C 28.276 12.5 28.5 12.724 28.5 13 Z M 28.5 17 L 28.5 18 C 28.5 18.276 28.276 18.5 28 18.5 L 4 18.5 C 3.724 18.5 3.5 18.276 3.5 18 L 3.5 17 C 3.5 16.724 3.724 16.5 4 16.5 L 28 16.5 C 28.276 16.5 28.5 16.724 28.5 17 Z M 21 26.5 L 17.5 26.5 L 17.5 31 C 17.5 31.276 17.276 31.5 17 31.5 L 15 31.5 C 14.724 31.5 14.5 31.276 14.5 31 L 14.5 26.5 L 11 26.5 C 10.806 26.5 10.63 26.388 10.547 26.212 C 10.465 26.036 10.492 25.829 10.616 25.68 L 15.616 19.68 C 15.711 19.566 15.852 19.5 16 19.5 C 16.148 19.5 16.289 19.566 16.384 19.68 L 21.384 25.68 C 21.508 25.829 21.535 26.036 21.453 26.212 C 21.371 26.388 21.194 26.5 21 26.5 Z"/>
</svg>