<?xml version="1.0" encoding="utf-8"?>
<svg xmlns="http://www.w3.org/2000/svg" height="48" viewBox="0 -960 960 960" width="48">
  <path d="M 446.5 -616.24 C 437.5 -625.733 433 -637.047 433 -650.18 C 433 -663.027 437.56 -674.04 446.68 -683.22 C 455.793 -692.407 466.96 -697 480.18 -697 C 493.393 -697 504.5 -692.313 513.5 -682.94 C 522.5 -673.567 527 -662.4 527 -649.44 C 527 -636.48 522.44 -625.333 513.32 -616 C 504.207 -606.667 493.04 -602 479.82 -602 C 466.607 -602 455.5 -606.747 446.5 -616.24 Z M 310.82 -433 C 297.973 -433 286.957 -437.56 277.77 -446.68 C 268.59 -455.793 264 -466.96 264 -480.18 C 264 -493.393 268.687 -504.5 278.06 -513.5 C 287.433 -522.5 298.6 -527 311.56 -527 C 324.52 -527 335.667 -522.44 345 -513.32 C 354.333 -504.207 359 -493.04 359 -479.82 C 359 -466.607 354.253 -455.5 344.76 -446.5 C 335.267 -437.5 323.953 -433 310.82 -433 Z M 446.5 -446.68 C 437.5 -455.793 433 -466.96 433 -480.18 C 433 -493.393 437.56 -504.5 446.68 -513.5 C 455.793 -522.5 466.96 -527 480.18 -527 C 493.393 -527 504.5 -522.44 513.5 -513.32 C 522.5 -504.207 527 -493.04 527 -479.82 C 527 -466.607 522.44 -455.5 513.32 -446.5 C 504.207 -437.5 493.04 -433 479.82 -433 C 466.607 -433 455.5 -437.56 446.5 -446.68 Z M 649.44 -433 C 636.48 -433 625.333 -437.56 616 -446.68 C 606.667 -455.793 602 -466.96 602 -480.18 C 602 -493.393 606.747 -504.5 616.24 -513.5 C 625.733 -522.5 637.047 -527 650.18 -527 C 663.027 -527 674.04 -522.44 683.22 -513.32 C 692.407 -504.207 697 -493.04 697 -479.82 C 697 -466.607 692.313 -455.5 682.94 -446.5 C 673.567 -437.5 662.4 -433 649.44 -433 Z M 141.44 -602 C 128.48 -602 117.5 -606.747 108.5 -616.24 C 99.5 -625.733 95 -637.047 95 -650.18 C 95 -663.027 99.62 -674.04 108.86 -683.22 C 118.1 -692.407 129.1 -697 141.86 -697 C 154.62 -697 165.667 -692.313 175 -682.94 C 184.333 -673.567 189 -662.4 189 -649.44 C 189 -636.48 184.313 -625.333 174.94 -616 C 165.567 -606.667 154.4 -602 141.44 -602 Z M 817.82 -602 C 804.973 -602 793.96 -606.747 784.78 -616.24 C 775.593 -625.733 771 -637.047 771 -650.18 C 771 -663.027 775.687 -674.04 785.06 -683.22 C 794.433 -692.407 805.6 -697 818.56 -697 C 831.52 -697 842.667 -692.313 852 -682.94 C 861.333 -673.567 866 -662.4 866 -649.44 C 866 -636.48 861.253 -625.333 851.76 -616 C 842.267 -606.667 830.953 -602 817.82 -602 Z M 108.5 -446.68 C 99.5 -455.793 95 -466.96 95 -480.18 C 95 -493.393 99.62 -504.5 108.86 -513.5 C 118.1 -522.5 129.1 -527 141.86 -527 C 154.62 -527 165.667 -522.44 175 -513.32 C 184.333 -504.207 189 -493.04 189 -479.82 C 189 -466.607 184.313 -455.5 174.94 -446.5 C 165.567 -437.5 154.4 -433 141.44 -433 C 128.48 -433 117.5 -437.56 108.5 -446.68 Z M 784.78 -446.68 C 775.593 -455.793 771 -466.96 771 -480.18 C 771 -493.393 775.687 -504.5 785.06 -513.5 C 794.433 -522.5 805.6 -527 818.56 -527 C 831.52 -527 842.667 -522.44 852 -513.32 C 861.333 -504.207 866 -493.04 866 -479.82 C 866 -466.607 861.253 -455.5 851.76 -446.5 C 842.267 -437.5 830.953 -433 817.82 -433 C 804.973 -433 793.96 -437.56 784.78 -446.68 Z M 141.499 -359 L 817.486 -359 C 817.662 -359 817.838 -358.999 818.014 -358.997 C 818.196 -358.999 818.378 -359 818.56 -359 C 831.52 -359 842.667 -354.253 852 -344.76 C 861.333 -335.267 866 -323.953 866 -310.82 C 866 -309.111 865.916 -307.434 865.748 -305.79 C 865.748 -273.472 865.748 -171.016 865.748 -146.559 C 865.916 -144.885 866 -143.179 866 -141.44 C 866 -134.601 864.678 -128.312 862.034 -122.576 C 859.67 -117.159 856.179 -112.264 851.557 -107.86 C 842.092 -98.851 830.804 -94.25 817.717 -94.25 L 141.281 -94.25 C 128.113 -94.25 116.985 -98.851 107.899 -108.07 C 99.495 -116.45 94.972 -126.66 94.332 -138.68 L 94.251 -138.68 L 94.251 -315.6 L 94.391 -315.6 C 95.191 -327.19 99.693 -337.02 107.88 -345.21 C 110.729 -348.021 113.781 -350.383 117.036 -352.299 C 124.203 -356.791 132.355 -359 141.499 -359 Z M 142 -771 C 128.833 -771 117.71 -775.56 108.63 -784.68 C 99.543 -793.793 95 -804.93 95 -818.09 C 95 -831.243 99.543 -842.517 108.63 -851.91 C 117.71 -861.303 128.833 -866 142 -866 L 818 -866 C 831.087 -866 842.357 -861.247 851.81 -851.74 C 861.27 -842.227 866 -830.893 866 -817.74 C 866 -804.58 861.27 -793.5 851.81 -784.5 C 842.357 -775.5 831.087 -771 818 -771 Z"/>
</svg>