<?xml version="1.0" encoding="utf-8"?>
<svg xmlns="http://www.w3.org/2000/svg" height="48" viewBox="0 -960 960 960" width="48">
  <path d="M 137.5 -435.06 C 125.753 -435.06 115.65 -439.31 107.19 -447.82 C 98.73 -456.33 94.5 -466.5 94.5 -478.32 C 94.5 -490.15 98.73 -500.39 107.19 -509.06 C 115.65 -517.73 125.753 -522.06 137.5 -522.06 L 821.5 -522.06 C 833.533 -522.06 843.877 -517.74 852.53 -509.1 C 861.177 -500.45 865.5 -490.12 865.5 -478.1 C 865.5 -466.07 861.177 -455.89 852.53 -447.56 C 843.877 -439.23 833.533 -435.06 821.5 -435.06 L 137.5 -435.06 Z M 137.5 -849.58 C 125.753 -849.58 115.65 -853.83 107.19 -862.34 C 98.73 -870.85 94.5 -881.02 94.5 -892.84 C 94.5 -904.66 98.73 -914.91 107.19 -923.58 C 115.65 -932.24 125.753 -936.58 137.5 -936.58 L 821.5 -936.58 C 833.533 -936.58 843.877 -932.26 852.53 -923.62 C 861.177 -914.97 865.5 -904.64 865.5 -892.62 C 865.5 -880.59 861.177 -870.41 852.53 -862.08 C 843.877 -853.74 833.533 -849.58 821.5 -849.58 L 137.5 -849.58 Z M 297.5 -678.58 C 285.753 -678.58 275.65 -682.83 267.19 -691.34 C 258.73 -699.85 254.5 -710.02 254.5 -721.84 C 254.5 -733.66 258.73 -743.91 267.19 -752.58 C 275.65 -761.24 285.753 -765.58 297.5 -765.58 L 661.5 -765.58 C 673.533 -765.58 683.877 -761.26 692.53 -752.62 C 701.177 -743.97 705.5 -733.64 705.5 -721.62 C 705.5 -709.59 701.177 -699.41 692.53 -691.08 C 683.877 -682.74 673.533 -678.58 661.5 -678.58 L 297.5 -678.58 Z M 821.5 -110.42 C 833.533 -110.42 843.877 -106.25 852.53 -97.923 C 861.177 -89.588 865.5 -79.408 865.5 -67.378 C 865.5 -55.358 861.177 -45.028 852.53 -36.378 C 843.877 -27.738 833.533 -23.418 821.5 -23.418 L 137.5 -23.418 C 125.753 -23.418 115.65 -27.748 107.19 -36.418 C 98.73 -45.088 94.5 -55.328 94.5 -67.158 C 94.5 -78.978 98.73 -89.148 107.19 -97.653 C 115.65 -106.17 125.753 -110.42 137.5 -110.42 L 821.5 -110.42 Z M 661.5 -281.42 C 673.533 -281.42 683.877 -277.25 692.53 -268.92 C 701.177 -260.58 705.5 -250.4 705.5 -238.37 C 705.5 -226.35 701.177 -216.03 692.53 -207.37 C 683.877 -198.74 673.533 -194.41 661.5 -194.41 L 297.5 -194.41 C 285.753 -194.41 275.65 -198.75 267.19 -207.41 C 258.73 -216.09 254.5 -226.32 254.5 -238.15 C 254.5 -249.97 258.73 -260.14 267.19 -268.66 C 275.65 -277.17 285.753 -281.42 297.5 -281.42 L 661.5 -281.42 Z"/>
</svg>