<?xml version="1.0" encoding="utf-8"?>
<svg xmlns="http://www.w3.org/2000/svg" height="48" viewBox="0 -960 960 960" width="48">
  <path d="M 187.731 -318.77 C 142.775 -318.77 104.664 -334.4 73.399 -365.65 C 42.138 -396.9 26.508 -435 26.508 -479.94 C 26.508 -524.88 42.138 -563.12 73.399 -594.64 C 104.664 -626.17 142.775 -641.93 187.731 -641.93 L 267.983 -641.93 C 277.418 -641.93 285.39 -638.55 291.902 -631.77 C 298.408 -625 301.661 -616.88 301.661 -607.41 C 301.661 -597.95 298.408 -589.99 291.902 -583.54 C 285.39 -577.1 277.418 -573.87 267.983 -573.87 L 187.731 -573.87 C 161.299 -573.87 139.046 -564.85 120.97 -546.82 C 102.899 -528.76 93.863 -506.56 93.863 -480.18 C 93.863 -453.79 102.899 -431.51 120.97 -413.37 C 139.046 -395.2 161.299 -386.13 187.731 -386.13 L 267.983 -386.13 C 277.418 -386.13 285.39 -382.87 291.902 -376.32 C 298.408 -369.81 301.661 -361.8 301.661 -352.32 C 301.661 -342.86 298.408 -334.89 291.902 -328.45 C 285.39 -322 277.418 -318.77 267.983 -318.77 L 187.731 -318.77 Z M 691.598 -318.77 C 681.686 -318.77 673.477 -322.05 666.97 -328.57 C 660.459 -335.11 657.204 -343.12 657.204 -352.58 C 657.204 -362.06 660.459 -370.01 666.97 -376.45 C 673.477 -382.9 681.686 -386.13 691.598 -386.13 L 771.134 -386.13 C 797.566 -386.13 819.818 -395.15 837.895 -413.19 C 855.966 -431.24 865.002 -453.44 865.002 -479.82 C 865.002 -506.21 855.966 -528.49 837.895 -546.63 C 819.818 -564.78 797.566 -573.87 771.134 -573.87 L 691.598 -573.87 C 681.686 -573.87 673.477 -577.13 666.97 -583.66 C 660.459 -590.2 657.204 -598.21 657.204 -607.67 C 657.204 -617.14 660.459 -625.22 666.97 -631.9 C 673.477 -638.6 681.686 -641.93 691.598 -641.93 L 771.134 -641.93 C 816.09 -641.93 854.318 -626.2 885.817 -594.71 C 917.321 -563.22 933.492 -525 933.492 -480.06 C 933.492 -435.12 917.321 -397 885.817 -365.71 C 854.318 -334.43 816.09 -318.77 771.134 -318.77 L 691.598 -318.77 Z M 479.392 -302.23 C 455.004 -302.23 431.297 -307.01 409.967 -316.05 C 388.773 -325.17 369.509 -338.19 353.522 -354.05 C 337.636 -370.04 324.661 -389.37 315.51 -410.49 C 306.473 -431.79 301.661 -455.5 301.661 -479.94 C 301.661 -504.32 306.471 -528.05 315.505 -549.41 C 324.668 -570.64 337.625 -589.8 353.465 -605.71 C 369.422 -621.51 388.638 -634.4 409.799 -643.7 C 431.135 -652.87 454.891 -657.77 479.344 -657.77 C 503.799 -657.77 527.568 -652.88 548.954 -643.71 C 570.17 -634.49 589.38 -621.58 605.24 -605.86 C 620.978 -589.98 633.926 -570.83 643.186 -549.51 C 652.329 -528.14 657.204 -504.33 657.204 -479.88 C 657.204 -455.4 652.318 -431.68 643.165 -410.37 C 633.891 -389.17 620.932 -370.02 605.182 -354.13 C 589.298 -338.26 570.087 -325.35 548.89 -316.13 C 527.516 -307.02 503.789 -302.23 479.392 -302.23 Z M 479.234 -356.8 C 510.975 -356.8 536.791 -366.02 559.505 -386.44 C 576.387 -401.05 587.845 -417.57 594.492 -437.11 C 590.624 -436.06 586.514 -435.48 582.605 -435.43 L 552.786 -435.43 C 541.39 -435.75 530.028 -440.51 521.724 -448.35 C 513.884 -456.71 509.132 -468.13 508.803 -479.49 L 508.803 -488.69 L 446.631 -488.69 C 441.883 -488.69 438.033 -492.55 438.033 -497.29 L 438.033 -530.13 C 438.358 -541.8 443.118 -553.28 451.034 -561.55 C 459.372 -569.28 470.748 -573.95 482.152 -574.26 L 491.309 -574.26 L 491.309 -574.42 C 491.5 -581.34 493.942 -589.88 498.336 -597.88 C 498.989 -599.08 497.474 -602.12 497.231 -601.26 C 491.303 -602.32 485.565 -602.8 479.377 -602.8 C 444.34 -602.8 416.254 -591.57 392.072 -566.99 C 368.057 -543.48 356.808 -516.25 356.253 -482.44 L 389.379 -482.44 C 410.641 -482.12 430.379 -473.94 445.549 -459.25 C 460.256 -444.02 468.42 -424.35 468.747 -403.23 L 468.747 -385.57 C 468.747 -380.82 464.897 -376.98 460.149 -376.98 L 415.869 -376.98 L 415.869 -371.76 C 424.617 -367.51 431.954 -364.63 443.682 -361.42 C 455.265 -358.25 466.712 -356.8 479.234 -356.8 Z" style=""/>
</svg>