<?xml version="1.0" encoding="utf-8"?>
<svg viewBox="0 0 22 22" xmlns="http://www.w3.org/2000/svg">
  <path d="M 7.552 4.5 L 19 4.5 C 19.276 4.5 19.5 4.724 19.5 5 L 19.5 7 C 19.5 7.276 19.276 7.5 19 7.5 L 18.014 7.5 C 14.762 7.688 11.943 9.029 9.841 11.121 C 7.74 13.211 6.477 15.919 6.5 19 C 6.5 19.276 6.276 19.5 6 19.5 L 4 19.5 C 3.724 19.5 3.5 19.276 3.5 19 C 3.54 13.778 5.914 10.164 9.539 7.5 L 7.551 7.5 C 7.29 8.021 6.994 8.441 6.446 8.839 C 5.9 9.236 5.147 9.5 4.414 9.5 C 3.483 9.5 2.545 9.081 1.939 8.475 C 1.333 7.869 0.914 6.931 0.914 6 C 0.914 5.069 1.333 4.131 1.939 3.525 C 2.545 2.919 3.483 2.5 4.414 2.5 C 5.147 2.5 5.9 2.764 6.446 3.161 C 6.994 3.559 7.292 3.977 7.552 4.5 Z M 3.414 6 C 3.414 6.552 3.861 7 4.414 7 C 4.966 7 5.414 6.552 5.414 6 C 5.414 5.448 4.966 5 4.414 5 C 3.861 5 3.414 5.448 3.414 6 Z M 19.5 9.65 L 19.5 19 C 19.5 19.276 19.276 19.5 19 19.5 L 8.895 19.5 C 8.626 19.5 8.406 19.288 8.395 19.019 C 8.393 18.917 8.371 18.777 8.371 18.61 C 8.371 16.097 9.404 13.726 11.016 12.057 C 12.628 10.387 14.954 9.297 17.439 9.175 C 17.475 9.174 17.573 9.163 17.831 9.15 L 19 9.15 C 19.276 9.15 19.5 9.374 19.5 9.65 Z"/>
</svg>