<?xml version="1.0" encoding="utf-8"?>
<svg viewBox="0 0 22 22" xmlns="http://www.w3.org/2000/svg">
  <path d="M 8.149 12.662 L 10.998 15.759 L 13.818 12.663 C 13.993 12.471 14.286 12.445 14.492 12.604 L 15.305 13.229 C 15.416 13.314 15.486 13.443 15.498 13.582 C 15.51 13.722 15.463 13.86 15.368 13.964 L 11.749 17.895 L 11.38 18.325 C 11.285 18.436 11.146 18.5 11 18.5 C 10.854 18.5 10.715 18.436 10.62 18.325 L 10.251 17.895 L 6.632 13.964 C 6.538 13.862 6.491 13.725 6.501 13.587 C 6.512 13.449 6.579 13.321 6.688 13.235 L 7.469 12.61 C 7.674 12.445 7.971 12.468 8.149 12.662 Z M 11.38 3.675 L 11.749 4.105 L 15.368 8.036 C 15.463 8.14 15.51 8.278 15.498 8.418 C 15.486 8.557 15.416 8.686 15.305 8.771 L 14.492 9.396 C 14.286 9.555 13.993 9.529 13.818 9.337 L 10.998 6.241 L 8.149 9.338 C 7.971 9.532 7.674 9.555 7.469 9.39 L 6.688 8.765 C 6.579 8.679 6.512 8.551 6.501 8.413 C 6.491 8.275 6.538 8.138 6.632 8.036 L 10.251 4.105 L 10.62 3.675 C 10.715 3.564 10.854 3.5 11 3.5 C 11.146 3.5 11.285 3.564 11.38 3.675 Z"/>
</svg>