<?xml version="1.0" encoding="utf-8"?>
<svg xmlns="http://www.w3.org/2000/svg" height="48" viewBox="0 -960 960 960" width="48">
  <path d="M 181.5 -94.5 C 168.333 -94.5 157.21 -99.06 148.13 -108.18 C 139.043 -117.29 134.5 -128.46 134.5 -141.68 C 134.5 -154.89 139.043 -166 148.13 -175 C 157.21 -184 168.333 -188.5 181.5 -188.5 L 777.5 -188.5 C 790.667 -188.5 801.96 -183.94 811.38 -174.82 C 820.793 -165.71 825.5 -154.54 825.5 -141.32 C 825.5 -128.11 820.793 -117 811.38 -108 C 801.96 -99 790.667 -94.5 777.5 -94.5 L 181.5 -94.5 Z M 479.5 -382.6 L 654.233 -558.4 C 664.102 -568.35 675.751 -573 689.18 -572.8 C 702.587 -572.35 714.234 -567.7 724.125 -558.4 C 733.996 -548.65 738.951 -536.99 738.951 -523.44 C 738.951 -510.1 733.996 -498.44 724.125 -488.49 L 515.505 -278.81 C 510.55 -273.96 504.916 -270.12 498.563 -267.15 C 492.208 -264.41 485.855 -262.93 479.5 -262.93 C 473.147 -262.93 466.792 -264.41 460.439 -267.15 C 454.084 -270.12 448.43 -273.96 443.495 -278.81 L 234.875 -488.49 C 224.984 -498.44 220.049 -510.1 220.049 -523.44 C 220.049 -536.99 224.984 -548.65 234.875 -558.4 C 244.743 -568.35 256.393 -573.22 269.822 -573.22 C 283.228 -573.22 294.876 -568.35 304.767 -558.4 L 479.5 -382.6 Z M 479.5 -674.87 L 654.233 -850.67 C 664.102 -860.61 675.751 -865.5 689.18 -865.07 C 702.587 -864.65 714.234 -859.57 724.125 -849.62 C 733.996 -839.87 738.951 -828.23 738.951 -814.65 C 738.951 -801.3 733.996 -789.66 724.125 -779.69 L 515.505 -571.09 C 510.55 -566.22 504.916 -562.4 498.563 -559.45 C 492.208 -556.69 485.855 -555.21 479.5 -555.21 C 473.147 -555.21 466.792 -556.69 460.439 -559.45 C 454.084 -562.4 448.43 -566.22 443.495 -571.09 L 234.875 -779.69 C 224.984 -789.66 220.049 -801.3 220.049 -814.65 C 220.049 -828.23 224.984 -839.87 234.875 -849.62 C 244.743 -860.2 256.393 -865.5 269.822 -865.5 C 283.228 -865.5 295.237 -860.2 305.827 -849.62 L 479.5 -674.87 Z"/>
</svg>