<?xml version="1.0" encoding="utf-8"?>
<svg xmlns="http://www.w3.org/2000/svg" height="48" viewBox="0 -960 960 960" width="48">
  <path d="M 94.503 -778.5 C 94.503 -791.67 99.063 -802.79 108.183 -811.87 C 117.293 -820.96 128.463 -825.5 141.683 -825.5 C 154.893 -825.5 166.003 -820.96 175.003 -811.87 C 184.003 -802.79 188.503 -791.67 188.503 -778.5 L 188.503 -182.5 C 188.503 -169.33 183.943 -158.04 174.823 -148.62 C 165.713 -139.21 154.543 -134.5 141.323 -134.5 C 128.113 -134.5 117.003 -139.21 108.003 -148.62 C 99.003 -158.04 94.503 -169.33 94.503 -182.5 L 94.503 -778.5 Z M 382.598 -480.5 L 558.408 -305.77 C 568.348 -295.9 573.008 -284.25 572.798 -270.82 C 572.348 -257.41 567.708 -245.77 558.408 -235.88 C 548.658 -226 536.988 -221.05 523.448 -221.05 C 510.098 -221.05 498.448 -226 488.488 -235.88 L 278.808 -444.5 C 273.968 -449.45 270.128 -455.08 267.158 -461.44 C 264.408 -467.79 262.938 -474.14 262.938 -480.5 C 262.938 -486.85 264.408 -493.21 267.158 -499.56 C 270.128 -505.92 273.968 -511.57 278.808 -516.5 L 488.488 -725.13 C 498.448 -735.02 510.098 -739.95 523.448 -739.95 C 536.988 -739.95 548.658 -735.02 558.408 -725.13 C 568.348 -715.26 573.218 -703.61 573.218 -690.18 C 573.218 -676.77 568.348 -665.12 558.408 -655.23 L 382.598 -480.5 Z M 674.868 -480.5 L 850.678 -305.77 C 860.608 -295.9 865.498 -284.25 865.078 -270.82 C 864.648 -257.41 859.578 -245.77 849.618 -235.88 C 839.868 -226 828.228 -221.05 814.648 -221.05 C 801.308 -221.05 789.668 -226 779.698 -235.88 L 571.098 -444.5 C 566.218 -449.45 562.408 -455.08 559.458 -461.44 C 556.698 -467.79 555.218 -474.14 555.218 -480.5 C 555.218 -486.85 556.698 -493.21 559.458 -499.56 C 562.408 -505.92 566.218 -511.57 571.098 -516.5 L 779.698 -725.13 C 789.668 -735.02 801.308 -739.95 814.648 -739.95 C 828.228 -739.95 839.868 -735.02 849.618 -725.13 C 860.208 -715.26 865.498 -703.61 865.498 -690.18 C 865.498 -676.77 860.208 -664.76 849.618 -654.17 L 674.868 -480.5 Z" style=""/>
</svg>