<?xml version="1.0" encoding="utf-8"?>
<svg xmlns="http://www.w3.org/2000/svg" height="48" viewBox="0 -960 960 960" width="48">
  <path d="M 480.549 -881 C 486.604 -881 492.686 -880.265 498.798 -878.799 C 502.254 -878.035 505.646 -877.082 508.975 -875.96 C 518.544 -872.52 527.691 -867.89 536.453 -861.82 L 704.1 -721.843 L 885.642 -573 C 890.689 -568.638 894.607 -563.572 897.396 -557.799 C 899.969 -553.305 901.559 -548.194 902.165 -542.42 C 902.392 -540.259 902.488 -538.145 902.451 -536.078 C 902.635 -525.771 899.551 -516.411 893.196 -508 C 885.642 -498 875.781 -492 863.612 -490 C 851.449 -488 840.537 -491 830.874 -499 L 789.896 -532.805 L 789.598 -494.999 L 789.494 -495 C 788.795 -484.378 784.595 -475.37 776.579 -467.974 C 767.779 -459.836 757.059 -455.758 744.229 -455.758 C 731.409 -455.758 721.069 -459.836 712.819 -467.974 C 705.107 -475.6 701.083 -484.94 700.607 -495.996 L 700.559 -495.997 L 700.565 -497.478 C 700.561 -497.733 700.559 -497.989 700.559 -498.246 L 700.567 -498.26 L 700.774 -553.93 L 479.478 -749.58 L 263.714 -553.93 L 263.714 -228 L 366.378 -228 L 366.378 -406.54 C 366.378 -418.26 370.414 -428.15 378.51 -436.22 C 386.587 -444.3 396.5 -448.34 408.23 -448.34 L 550.707 -448.34 C 562.437 -448.34 572.33 -444.3 580.425 -436.22 C 588.521 -428.15 592.559 -418.26 592.559 -406.54 L 592.559 -227.89 C 603.676 -227.145 613.106 -222.622 620.848 -214.32 C 629.353 -205.21 633.605 -193.96 633.605 -180.58 C 633.605 -167.2 629.353 -156.26 620.848 -147.75 C 613.196 -140.102 603.896 -135.895 592.946 -135.128 L 592.947 -135 L 560.499 -135 C 548.769 -135 538.876 -138.84 530.78 -147.12 C 522.704 -154.98 518.646 -165.08 518.646 -176.8 L 518.646 -374.45 L 440.291 -374.45 L 440.291 -176.8 C 440.291 -165.08 436.253 -154.98 428.156 -147.12 C 420.061 -138.84 410.147 -135 398.437 -135 L 243.538 -135 C 218.483 -135 197.426 -144.03 180.365 -162.1 C 163.305 -180.17 154.776 -202.47 154.776 -229 L 154.776 -520 L 126.447 -497 C 117.25 -489.67 107.083 -486.83 95.947 -488.5 C 84.805 -490.17 75.143 -496.77 66.959 -508.3 C 60.52 -516.652 57.383 -526.21 57.548 -536.98 C 57.515 -539.081 57.619 -541.232 57.862 -543.43 C 58.514 -549.354 60.178 -554.624 62.852 -559.22 C 65.818 -564.919 70.019 -569.845 75.457 -574 L 174.846 -655.205 L 422.383 -861.82 C 431.125 -867.89 440.25 -872.52 449.739 -875.96 C 459.229 -879.18 468.899 -881 478.773 -881 C 479.085 -881 479.396 -880.998 479.707 -880.995 C 479.988 -880.998 480.268 -881 480.549 -881 Z M 767.728 -179.76 C 767.728 -167.19 763.681 -156.71 755.585 -147.95 C 747.49 -139.37 737.489 -135 725.616 -135 C 713.724 -135 703.67 -139.37 695.484 -147.95 C 687.282 -156.71 683.181 -167.19 683.181 -179.76 L 683.181 -355.02 C 683.181 -367.6 687.263 -378.27 695.431 -386.83 C 703.597 -395.41 713.599 -399.8 725.453 -399.8 L 890.952 -399.8 C 902.788 -399.8 912.79 -395.6 920.956 -387.02 C 929.124 -378.46 933.225 -367.79 933.225 -355.21 C 933.225 -342.64 929.124 -331.98 920.956 -323.21 C 912.79 -314.64 902.788 -310.26 890.952 -310.26 L 827.091 -310.26 L 897.246 -235.95 C 905.63 -227.2 909.839 -216.72 909.839 -204.52 C 909.839 -192.52 905.755 -182.05 897.588 -173.09 C 888.955 -164.33 878.809 -159.57 867.116 -159.38 C 855.423 -159 845.367 -163.19 836.984 -172.14 L 767.728 -246.44 L 767.728 -179.76 Z" />
</svg>