<?xml version="1.0" encoding="utf-8"?>
<svg xmlns="http://www.w3.org/2000/svg" height="48" viewBox="0 -960 960 960" width="48">
  <path d="M 266.944 -710.26 C 276.274 -719.59 287.444 -724.26 300.444 -724.26 C 313.444 -724.26 324.614 -719.59 333.944 -710.26 L 529.944 -514.26 C 534.614 -509.59 538.284 -504.26 540.944 -498.26 C 543.614 -492.26 544.944 -486.26 544.944 -480.26 C 544.944 -474.26 543.614 -468.26 540.944 -462.26 C 538.284 -456.26 534.614 -450.93 529.944 -446.26 L 332.944 -249.26 C 323.614 -239.93 312.444 -235.43 299.444 -235.76 C 286.444 -236.09 275.274 -240.93 265.944 -250.26 C 256.614 -259.59 251.944 -270.76 251.944 -283.76 C 251.944 -296.76 256.614 -307.93 265.944 -317.26 L 429.944 -480.26 L 265.944 -644.26 C 256.614 -653.59 252.114 -664.59 252.444 -677.26 C 252.774 -689.93 257.614 -700.93 266.944 -710.26 Z M 656.791 -428.78 C 642.484 -428.78 630.38 -433.73 620.478 -443.62 C 610.575 -453.63 605.618 -465.76 605.618 -480 C 605.618 -494.37 610.587 -506.5 620.537 -516.39 C 630.474 -526.28 642.59 -531.22 656.897 -531.22 C 671.191 -531.22 683.295 -526.28 693.198 -516.27 C 703.1 -506.38 708.057 -494.25 708.057 -479.88 C 708.057 -465.64 703.088 -453.51 693.151 -443.62 C 683.213 -433.73 671.085 -428.78 656.791 -428.78 Z" style=""/>
</svg>