<?xml version="1.0" encoding="utf-8"?>
<svg xmlns="http://www.w3.org/2000/svg" height="48" viewBox="0 -960 960 960" width="48">
  <path d="M 169.068 -474.29 L 169.068 -261.08 C 169.068 -250.38 165.357 -241.32 157.936 -233.94 C 150.52 -226.54 141.434 -222.84 130.676 -222.84 C 119.923 -222.84 110.885 -226.54 103.562 -233.94 C 96.238 -241.32 92.576 -250.38 92.576 -261.08 L 92.576 -778.63 C 92.576 -789.35 96.274 -798.53 103.668 -806.2 C 111.056 -813.87 120.108 -817.7 130.823 -817.7 L 378.199 -817.7 C 387.151 -817.7 395.221 -814.57 402.408 -808.34 C 409.596 -802.09 414.004 -794.63 415.631 -785.96 L 424.583 -747.71 L 583.261 -747.71 C 593.976 -747.71 603.165 -743.88 610.831 -736.22 C 618.491 -728.55 622.322 -719.37 622.322 -708.64 L 622.322 -443.37 C 622.322 -432.65 618.491 -423.61 610.831 -416.21 C 603.165 -408.82 593.976 -405.13 583.261 -405.13 L 406.68 -405.13 C 397.728 -405.13 389.66 -407.96 382.471 -413.67 C 375.283 -419.37 370.875 -426.55 369.248 -435.23 L 360.297 -474.29 L 169.068 -474.29 Z M 440.857 -481.62 L 545.016 -481.62 L 545.016 -670.4 L 390.405 -670.4 C 381.454 -670.4 373.384 -673.38 366.197 -679.36 C 359.009 -685.32 354.601 -692.64 352.974 -701.33 L 344.022 -740.38 L 169.068 -740.38 L 169.068 -550.77 L 394.474 -550.77 C 403.425 -550.77 411.495 -547.95 418.683 -542.25 C 425.87 -536.54 430.278 -529.36 431.907 -520.68 L 440.857 -481.62 Z M 728.928 -492.14 L 714.249 -437.36 C 712.097 -429.32 707.451 -423.37 700.524 -419.38 C 693.58 -415.44 686.242 -414.49 678.124 -416.67 C 669.996 -418.83 664.116 -423.33 660.088 -430.23 C 656.272 -437.07 655.426 -444.51 657.578 -452.54 L 685.418 -556.45 C 688.748 -568.88 695.72 -578.26 706.705 -584.53 C 717.511 -590.83 729.242 -592.28 741.687 -588.95 L 845.6 -561.11 C 853.544 -558.98 859.604 -554.41 863.621 -547.49 C 867.443 -540.61 868.47 -533.07 866.308 -525 C 864.142 -516.91 859.501 -510.96 852.784 -507.05 C 845.865 -503.14 838.359 -502.31 830.415 -504.44 L 777.52 -518.61 C 805.285 -486.18 823.299 -450.65 831.377 -412.05 C 839.652 -373.38 839.404 -337.74 830.657 -305.08 C 816.964 -253.99 788.917 -213.51 746.894 -183.6 C 704.843 -153.69 658.879 -140.03 608.951 -142.62 C 600.133 -142.96 593.204 -146.57 587.987 -153.53 C 582.758 -160.5 581.329 -167.99 583.481 -176 C 585.632 -184.03 590.531 -190.25 598.001 -194.72 C 605.671 -199.13 613.978 -201.44 622.755 -201.69 C 657.79 -201.74 689.427 -212.49 717.467 -234.01 C 745.492 -255.53 764.321 -284.25 773.949 -320.18 C 781.026 -346.58 780.732 -375.67 773.04 -407.43 C 765.356 -439.18 750.648 -467.4 728.928 -492.14 Z" style=""/>
</svg>