<?xml version="1.0" encoding="utf-8"?>
<svg xmlns="http://www.w3.org/2000/svg" height="48" viewBox="0 -960 960 960" width="48">
  <path d="M 319.854 -155.28 L 90.595 -286.69 C 78.525 -293.63 69.324 -302.93 63.023 -314.58 C 56.719 -326.1 53.568 -338.55 53.568 -351.31 L 53.568 -611.29 C 53.568 -624.37 56.719 -636.5 63.023 -648.14 C 69.324 -659.97 78.525 -669.13 90.595 -675.89 L 319.854 -808.23 C 331.418 -814.53 343.755 -817.7 356.882 -817.7 C 370.023 -817.7 382.359 -814.53 393.909 -808.23 L 623.166 -675.89 C 635.25 -669.13 644.579 -659.97 651.134 -648.14 C 657.704 -636.5 660.981 -624.37 660.981 -611.29 L 660.981 -351.31 C 660.981 -338.55 657.704 -326.1 651.134 -314.58 C 644.579 -302.93 635.25 -293.63 623.166 -286.69 L 393.909 -155.28 C 382.359 -148.35 370.023 -144.88 356.882 -144.88 C 343.755 -144.88 331.418 -148.35 319.854 -155.28 Z M 323.005 -238.65 L 323.005 -462.23 L 127.623 -575.22 L 127.623 -351.63 L 323.005 -238.65 Z M 391.546 -238.65 L 586.138 -351.63 L 586.138 -575.83 L 391.546 -462.23 L 391.546 -238.65 Z M 484.509 -594.89 L 549.111 -632.57 L 356.882 -743.63 L 293.067 -706.76 L 484.509 -594.89 Z M 356.882 -520.68 L 423.058 -559.45 L 230.041 -669.75 L 164.651 -632.57 L 356.882 -520.68 Z M 767.937 -492.13 L 753.258 -437.36 C 751.106 -429.31 746.46 -423.37 739.533 -419.38 C 732.589 -415.44 725.251 -414.49 717.133 -416.67 C 709.005 -418.82 703.125 -423.32 699.097 -430.23 C 695.281 -437.06 694.435 -444.5 696.587 -452.54 L 724.427 -556.45 C 727.757 -568.88 734.729 -578.25 745.714 -584.52 C 756.52 -590.83 768.251 -592.27 780.696 -588.95 L 884.609 -561.11 C 892.553 -558.98 898.613 -554.4 902.63 -547.49 C 906.452 -540.61 907.479 -533.07 905.317 -525 C 903.151 -516.9 898.51 -510.95 891.793 -507.05 C 884.874 -503.13 877.368 -502.31 869.424 -504.44 L 816.529 -518.61 C 844.294 -486.18 862.308 -450.64 870.386 -412.05 C 878.661 -373.38 878.413 -337.74 869.666 -305.07 C 855.973 -253.99 827.926 -213.5 785.903 -183.59 C 743.852 -153.69 697.888 -140.03 647.96 -142.62 C 639.142 -142.96 632.213 -146.56 626.996 -153.53 C 621.767 -160.5 620.338 -167.99 622.49 -176 C 624.641 -184.03 629.54 -190.25 637.01 -194.72 C 644.68 -199.13 652.987 -201.44 661.764 -201.69 C 696.799 -201.74 728.436 -212.49 756.476 -234 C 784.501 -255.53 803.33 -284.25 812.958 -320.18 C 820.035 -346.57 819.741 -375.67 812.049 -407.43 C 804.365 -439.18 789.657 -467.39 767.937 -492.13 Z" style=""/>
</svg>