<?xml version="1.0" encoding="utf-8"?>
<svg xmlns="http://www.w3.org/2000/svg" height="48" viewBox="0 -960 960 960" width="48">
  <path d="M 865.999 -182 C 865.999 -168.83 861.439 -157.71 852.319 -148.63 C 843.209 -139.54 832.039 -135 818.819 -135 C 805.609 -135 794.499 -139.54 785.499 -148.63 C 776.499 -157.71 771.999 -168.83 771.999 -182 L 771.999 -778 C 771.999 -791.16 776.559 -802.46 785.679 -811.88 C 794.789 -821.29 805.959 -826 819.179 -826 C 832.389 -826 843.499 -821.29 852.499 -811.88 C 861.499 -802.46 865.999 -791.16 865.999 -778 L 865.999 -182 Z M 577.899 -480 L 402.089 -654.73 C 392.149 -664.6 387.489 -676.25 387.699 -689.68 C 388.149 -703.09 392.789 -714.73 402.089 -724.63 C 411.839 -734.5 423.509 -739.45 437.049 -739.45 C 450.399 -739.45 462.049 -734.5 472.009 -724.63 L 681.689 -516 C 686.529 -511.05 690.369 -505.42 693.339 -499.06 C 696.089 -492.71 697.559 -486.36 697.559 -480 C 697.559 -473.65 696.089 -467.29 693.339 -460.94 C 690.369 -454.58 686.529 -448.93 681.689 -444 L 472.009 -235.38 C 462.049 -225.48 450.399 -220.55 437.049 -220.55 C 423.509 -220.55 411.839 -225.48 402.089 -235.38 C 392.149 -245.24 387.279 -256.89 387.279 -270.32 C 387.279 -283.73 392.149 -295.38 402.089 -305.27 L 577.899 -480 Z M 285.629 -480 L 109.819 -654.73 C 99.889 -664.6 94.999 -676.25 95.419 -689.68 C 95.849 -703.09 100.919 -714.73 110.879 -724.63 C 120.629 -734.5 132.269 -739.45 145.849 -739.45 C 159.189 -739.45 170.829 -734.5 180.799 -724.63 L 389.399 -516 C 394.279 -511.05 398.089 -505.42 401.039 -499.06 C 403.799 -492.71 405.279 -486.36 405.279 -480 C 405.279 -473.65 403.799 -467.29 401.039 -460.94 C 398.089 -454.58 394.279 -448.93 389.399 -444 L 180.799 -235.38 C 170.829 -225.48 159.189 -220.55 145.849 -220.55 C 132.269 -220.55 120.629 -225.48 110.879 -235.38 C 100.289 -245.24 94.999 -256.89 94.999 -270.32 C 94.999 -283.73 100.289 -295.74 110.879 -306.33 L 285.629 -480 Z" style=""/>
</svg>