<?xml version="1.0" encoding="utf-8"?>
<svg xmlns="http://www.w3.org/2000/svg" height="48" viewBox="0 -960 960 960" width="48">
  <path d="M 661.39 -623.77 C 652.623 -632.54 648.24 -642.47 648.24 -653.58 C 648.24 -664.69 652.623 -674.33 661.39 -682.51 C 669.569 -690.69 679.212 -694.78 690.32 -694.78 C 701.427 -694.78 711.07 -690.69 719.25 -682.51 L 891.952 -509.81 C 896.046 -505.71 899.254 -501.04 901.595 -495.78 C 903.936 -490.52 905.102 -485.26 905.102 -480 C 905.102 -474.74 903.936 -469.48 901.595 -464.22 C 899.254 -458.96 896.046 -454.29 891.952 -450.2 L 719.25 -277.49 C 711.07 -269.31 701.427 -265.22 690.32 -265.22 C 679.212 -265.22 669.569 -269.31 661.39 -277.49 C 653.211 -285.67 648.968 -295.32 648.678 -306.42 C 648.389 -317.53 652.334 -327.17 660.513 -335.35 L 806.039 -480 L 661.39 -623.77 Z M 379.905 -660.81 C 390.179 -660.81 398.84 -657.24 405.915 -650.22 C 412.999 -643.06 416.531 -634.5 416.531 -624.2 L 416.531 -516.65 L 664.381 -516.65 C 674.647 -516.65 683.317 -513.22 690.392 -506.2 C 697.475 -499.17 701.017 -490.46 701.017 -480.17 C 701.017 -469.87 697.475 -461.15 690.392 -453.97 C 683.317 -446.95 674.647 -443.38 664.381 -443.38 L 416.531 -443.38 L 416.531 -335.81 C 416.531 -325.55 412.999 -316.95 405.915 -309.79 C 398.84 -302.78 390.179 -299.19 379.905 -299.19 L 91.53 -299.19 C 81.273 -299.19 72.606 -302.78 65.529 -309.79 C 58.436 -316.95 54.898 -325.55 54.898 -335.81 L 54.898 -624.2 C 54.898 -634.5 58.436 -643.06 65.529 -650.22 C 72.606 -657.24 81.273 -660.81 91.53 -660.81 L 379.905 -660.81 Z M 128.939 -372.45 L 343.269 -372.45 L 343.269 -586.78 L 128.939 -586.78 L 128.939 -372.45 Z" style=""/>
</svg>