<?xml version="1.0" encoding="utf-8"?>
<svg xmlns="http://www.w3.org/2000/svg" height="48" viewBox="0 -960 960 960" width="48">
  <path d="M 651.5 -480 L 485.5 -645 C 476.17 -654.33 471.67 -665.33 472 -678 C 472.33 -690.67 476.83 -701.67 485.5 -711 C 494.83 -720.33 505.83 -725 518.5 -725 C 531.17 -725 542.17 -720.33 551.5 -711 L 749.5 -514 C 754.17 -509.33 757.83 -504 760.5 -498 C 763.17 -492 764.5 -486 764.5 -480 C 764.5 -474 763.17 -468 760.5 -462 C 757.83 -456 754.17 -450.67 749.5 -446 L 551.5 -249 C 542.17 -239.67 531.17 -235 518.5 -235 C 505.83 -235 494.83 -239.67 485.5 -249 C 476.17 -258.33 471.5 -269.33 471.5 -282 C 471.5 -294.67 476.17 -305.67 485.5 -315 L 651.5 -480 Z M 375.5 -480 L 209.5 -645 C 200.17 -654.33 195.67 -665.33 196 -678 C 196.33 -690.67 201.17 -701.67 210.5 -711 C 219.83 -720.33 230.83 -725 243.5 -725 C 256.17 -725 267.17 -720.33 276.5 -711 L 473.5 -514 C 478.17 -509.33 481.83 -504 484.5 -498 C 487.17 -492 488.5 -486 488.5 -480 C 488.5 -474 487.17 -468 484.5 -462 C 481.83 -456 478.17 -450.67 473.5 -446 L 276.5 -249 C 267.17 -239.67 256.17 -235 243.5 -235 C 230.83 -235 219.83 -239.67 210.5 -249 C 200.5 -258.33 195.5 -269.33 195.5 -282 C 195.5 -294.67 200.5 -306 210.5 -316 L 375.5 -480 Z" style=""/>
</svg>