<?xml version="1.0" encoding="utf-8"?>
<svg xmlns="http://www.w3.org/2000/svg" height="48" viewBox="0 -960 960 960" width="48">
  <path d="M 348.5 -710.26 C 357.83 -719.59 369 -724.26 382 -724.26 C 395 -724.26 406.17 -719.59 415.5 -710.26 L 611.5 -514.26 C 616.17 -509.59 619.84 -504.26 622.5 -498.26 C 625.17 -492.26 626.5 -486.26 626.5 -480.26 C 626.5 -474.26 625.17 -468.26 622.5 -462.26 C 619.84 -456.26 616.17 -450.93 611.5 -446.26 L 414.5 -249.26 C 405.17 -239.93 394 -235.43 381 -235.76 C 368 -236.09 356.83 -240.93 347.5 -250.26 C 338.17 -259.59 333.5 -270.76 333.5 -283.76 C 333.5 -296.76 338.17 -307.93 347.5 -317.26 L 511.5 -480.26 L 347.5 -644.26 C 338.17 -653.59 333.67 -664.59 334 -677.26 C 334.33 -689.93 339.17 -700.93 348.5 -710.26 Z" style=""/>
</svg>