<?xml version="1.0" encoding="utf-8"?>
<svg xmlns="http://www.w3.org/2000/svg" height="48" viewBox="0 -960 960 960" width="48">
  <path d="M 308.5 -480 L 474.5 -315 C 483.83 -305.67 488.33 -294.67 488 -282 C 487.67 -269.33 483.17 -258.33 474.5 -249 C 465.17 -239.67 454.17 -235 441.5 -235 C 428.83 -235 417.83 -239.67 408.5 -249 L 210.5 -446 C 205.83 -450.67 202.17 -456 199.5 -462 C 196.83 -468 195.5 -474 195.5 -480 C 195.5 -486 196.83 -492 199.5 -498 C 202.17 -504 205.83 -509.33 210.5 -514 L 408.5 -711 C 417.83 -720.33 428.83 -725 441.5 -725 C 454.17 -725 465.17 -720.33 474.5 -711 C 483.83 -701.67 488.5 -690.67 488.5 -678 C 488.5 -665.33 483.83 -654.33 474.5 -645 L 308.5 -480 Z M 584.5 -480 L 750.5 -315 C 759.83 -305.67 764.33 -294.67 764 -282 C 763.67 -269.33 758.83 -258.33 749.5 -249 C 740.17 -239.67 729.17 -235 716.5 -235 C 703.83 -235 692.83 -239.67 683.5 -249 L 486.5 -446 C 481.83 -450.67 478.17 -456 475.5 -462 C 472.83 -468 471.5 -474 471.5 -480 C 471.5 -486 472.83 -492 475.5 -498 C 478.17 -504 481.83 -509.33 486.5 -514 L 683.5 -711 C 692.83 -720.33 703.83 -725 716.5 -725 C 729.17 -725 740.17 -720.33 749.5 -711 C 759.5 -701.67 764.5 -690.67 764.5 -678 C 764.5 -665.33 759.5 -654 749.5 -644 L 584.5 -480 Z" style=""/>
</svg>