<?xml version="1.0" encoding="utf-8"?>
<svg xmlns="http://www.w3.org/2000/svg" height="48" viewBox="0 -960 960 960" width="48">
  <path d="M 149 -135 C 122.967 -135 100.79 -144.327 82.47 -162.98 C 64.157 -181.627 55 -203.633 55 -229 L 55 -731 C 55 -756.64 64.157 -778.883 82.47 -797.73 C 100.79 -816.577 122.967 -826 149 -826 L 410 -826 L 481 -754 L 811 -754 C 836.64 -754 858.883 -744.677 877.73 -726.03 C 896.577 -707.377 906 -685.367 906 -660 L 906 -493 C 906 -478.947 901.247 -467.433 891.74 -458.46 C 882.227 -449.487 870.893 -445 857.74 -445 C 844.58 -445 833.5 -449.543 824.5 -458.63 C 815.5 -467.71 811 -478.833 811 -492 L 811 -660 L 442 -660 L 371 -731 L 149 -731 L 149 -229 L 425 -229 C 438.167 -229 449.293 -224.44 458.38 -215.32 C 467.46 -206.207 472 -195.04 472 -181.82 C 472 -168.607 467.46 -157.5 458.38 -148.5 C 449.293 -139.5 438.167 -135 425 -135 Z M 705.118 -349.221 L 705.118 -125.764 C 705.118 -112.594 700.758 -101.673 691.828 -92.993 C 683.098 -84.319 672.258 -79.979 659.168 -79.979 C 646.268 -79.979 635.588 -84.384 627.308 -93.194 C 618.828 -101.999 614.718 -112.855 614.718 -125.764 L 614.718 -349.221 L 564.548 -300.17 C 555.768 -290.728 545.578 -285.997 533.338 -285.997 C 521.348 -285.997 510.868 -290.793 502.238 -300.41 C 492.858 -308.974 488.188 -319.069 488.188 -330.688 C 488.188 -342.307 493.058 -352.863 502.438 -362.3 L 622.288 -483.294 C 633.428 -493.474 646.068 -498.554 660.018 -498.554 C 674.218 -498.554 686.358 -493.474 696.388 -483.294 L 817.398 -363.389 C 826.128 -354.669 830.698 -343.943 831.148 -331.235 C 831.348 -318.527 827.038 -307.645 817.398 -298.644 C 809.328 -290.206 799.088 -286.172 786.498 -286.544 C 773.608 -286.915 762.918 -291.45 754.188 -300.17 Z"/>
</svg>