<?xml version="1.0" encoding="utf-8"?>
<svg xmlns="http://www.w3.org/2000/svg" height="48" viewBox="0 -960 960 960" width="48">
  <path d="M 612.241 -715.24 C 621.571 -705.91 626.241 -694.74 626.241 -681.74 C 626.241 -668.74 621.571 -657.57 612.241 -648.24 L 448.241 -485.24 L 612.241 -321.24 C 621.571 -311.91 626.071 -300.91 625.741 -288.24 C 625.411 -275.57 620.571 -264.57 611.241 -255.24 C 601.911 -245.91 590.741 -241.24 577.741 -241.24 C 564.741 -241.24 553.571 -245.91 544.241 -255.24 L 348.241 -451.24 C 343.571 -455.91 339.901 -461.24 337.241 -467.24 C 334.571 -473.24 333.241 -479.24 333.241 -485.24 C 333.241 -491.24 334.571 -497.24 337.241 -503.24 C 339.901 -509.24 343.571 -514.57 348.241 -519.24 L 545.241 -716.24 C 554.571 -725.57 565.741 -730.07 578.741 -729.74 C 591.741 -729.41 602.911 -724.57 612.241 -715.24 Z" style=""/>
</svg>