<?xml version="1.0" encoding="utf-8"?>
<svg xmlns="http://www.w3.org/2000/svg" height="48" viewBox="0 -960 960 960" width="48">
  <path d="M 153.961 -480 L 299.487 -335.35 C 307.666 -327.17 311.611 -317.53 311.322 -306.42 C 311.032 -295.32 306.789 -285.67 298.61 -277.49 C 290.431 -269.31 280.788 -265.22 269.68 -265.22 C 258.573 -265.22 248.93 -269.31 240.75 -277.49 L 68.048 -450.2 C 63.954 -454.29 60.746 -458.96 58.405 -464.22 C 56.064 -469.48 54.898 -474.74 54.898 -480 C 54.898 -485.26 56.064 -490.52 58.405 -495.78 C 60.746 -501.04 63.954 -505.71 68.048 -509.81 L 240.75 -682.51 C 248.93 -690.69 258.573 -694.78 269.68 -694.78 C 280.788 -694.78 290.431 -690.69 298.61 -682.51 C 307.377 -674.33 311.76 -664.69 311.76 -653.58 C 311.76 -642.47 307.377 -632.54 298.61 -623.77 L 153.961 -480 Z M 831.061 -586.78 L 616.731 -586.78 L 616.731 -372.45 L 831.061 -372.45 L 831.061 -586.78 Z M 868.47 -660.81 C 878.727 -660.81 887.394 -657.24 894.471 -650.22 C 901.564 -643.06 905.102 -634.5 905.102 -624.2 L 905.102 -335.81 C 905.102 -325.55 901.564 -316.95 894.471 -309.79 C 887.394 -302.78 878.727 -299.19 868.47 -299.19 L 580.095 -299.19 C 569.821 -299.19 561.16 -302.78 554.085 -309.79 C 547.001 -316.95 543.469 -325.55 543.469 -335.81 L 543.469 -443.38 L 295.619 -443.38 C 285.353 -443.38 276.683 -446.95 269.608 -453.97 C 262.525 -461.15 258.983 -469.87 258.983 -480.17 C 258.983 -490.46 262.525 -499.17 269.608 -506.2 C 276.683 -513.22 285.353 -516.65 295.619 -516.65 L 543.469 -516.65 L 543.469 -624.2 C 543.469 -634.5 547.001 -643.06 554.085 -650.22 C 561.16 -657.24 569.821 -660.81 580.095 -660.81 L 868.47 -660.81 Z" style=""/>
</svg>