<?xml version="1.0" encoding="utf-8"?>
<svg xmlns="http://www.w3.org/2000/svg" height="48" viewBox="0 -960 960 960" width="48">
  <path d="M 778 -866 C 791.167 -866 802.46 -861.5 811.88 -852.5 C 821.293 -843.5 826 -832.39 826 -819.18 C 826 -805.96 821.293 -794.79 811.88 -785.68 C 802.46 -776.56 791.167 -772 778 -772 L 182 -772 C 168.833 -772 157.71 -776.5 148.63 -785.5 C 139.543 -794.5 135 -805.61 135 -818.82 C 135 -832.04 139.543 -843.21 148.63 -852.32 C 157.71 -861.44 168.833 -866 182 -866 Z M 305.267 -402.1 C 295.376 -392.15 283.728 -387.28 270.322 -387.28 C 256.893 -387.28 245.243 -392.15 235.375 -402.1 C 225.484 -411.85 220.549 -423.51 220.549 -437.06 C 220.549 -450.4 225.484 -462.06 235.375 -472.01 L 443.995 -681.69 C 448.93 -686.54 454.584 -690.38 460.939 -693.35 C 467.292 -696.09 473.647 -697.57 480 -697.57 C 486.355 -697.57 492.708 -696.09 499.063 -693.35 C 505.416 -690.38 511.05 -686.54 516.005 -681.69 L 724.625 -472.01 C 734.496 -462.06 739.451 -450.4 739.451 -437.06 C 739.451 -423.51 734.496 -411.85 724.625 -402.1 C 714.734 -392.8 703.087 -388.15 689.68 -387.7 C 676.251 -387.5 664.602 -392.15 654.733 -402.1 L 480 -577.9 Z M 306.327 -110.88 C 295.737 -100.3 283.728 -95 270.322 -95 C 256.893 -95 245.243 -100.3 235.375 -110.88 C 225.484 -120.63 220.549 -132.27 220.549 -145.85 C 220.549 -159.2 225.484 -170.84 235.375 -180.81 L 443.995 -389.41 C 448.93 -394.28 454.584 -398.1 460.939 -401.05 C 467.292 -403.81 473.647 -405.29 480 -405.29 C 486.355 -405.29 492.708 -403.81 499.063 -401.05 C 505.416 -398.1 511.05 -394.28 516.005 -389.41 L 724.625 -180.81 C 734.496 -170.84 739.451 -159.2 739.451 -145.85 C 739.451 -132.27 734.496 -120.63 724.625 -110.88 C 714.734 -100.93 703.087 -95.85 689.68 -95.43 C 676.251 -95 664.602 -99.89 654.733 -109.83 L 480 -285.63 Z" style=""/>
</svg>