<?xml version="1.0" encoding="utf-8"?>
<svg xmlns="http://www.w3.org/2000/svg" height="48" viewBox="0 -960 960 960" width="48">
  <path d="M 480 -639 L 315 -473 C 305.667 -463.67 294.667 -459.17 282 -459.5 C 269.333 -459.83 258.333 -464.33 249 -473 C 239.667 -482.33 235 -493.33 235 -506 C 235 -518.67 239.667 -529.67 249 -539 L 446 -737 C 450.667 -741.67 456 -745.33 462 -748 C 468 -750.67 474 -752 480 -752 C 486 -752 492 -750.67 498 -748 C 504 -745.33 509.333 -741.67 514 -737 L 711 -539 C 720.333 -529.67 725 -518.67 725 -506 C 725 -493.33 720.333 -482.33 711 -473 C 701.667 -463.67 690.667 -459 678 -459 C 665.333 -459 654.333 -463.67 645 -473 L 480 -639 Z M 480 -363 L 315 -197 C 305.667 -187.67 294.667 -183.17 282 -183.5 C 269.333 -183.83 258.333 -188.67 249 -198 C 239.667 -207.33 235 -218.33 235 -231 C 235 -243.67 239.667 -254.67 249 -264 L 446 -461 C 450.667 -465.67 456 -469.33 462 -472 C 468 -474.67 474 -476 480 -476 C 486 -476 492 -474.67 498 -472 C 504 -469.33 509.333 -465.67 514 -461 L 711 -264 C 720.333 -254.67 725 -243.67 725 -231 C 725 -218.33 720.333 -207.33 711 -198 C 701.667 -188 690.667 -183 678 -183 C 665.333 -183 654 -188 644 -198 L 480 -363 Z" style=""/>
</svg>