<?xml version="1.0" encoding="utf-8"?>
<svg xmlns="http://www.w3.org/2000/svg" height="48" viewBox="0 -960 960 960" width="48">
  <path d="M 479.483 -632 C 485.483 -632 491.483 -630.67 497.483 -628 C 503.483 -625.33 508.816 -621.67 513.483 -617 L 710.483 -420 C 718.282 -412.2 722.706 -403.12 723.755 -392.76 C 723.962 -390.73 724.038 -388.64 723.983 -386.5 C 723.65 -373.5 718.817 -362.32 709.483 -353 C 700.15 -343.61 688.983 -339 675.983 -339 C 662.983 -339 651.817 -343.61 642.483 -353 L 479.483 -516.98 L 315.483 -353 C 306.15 -343.61 295.15 -339.11 282.483 -339.5 C 269.817 -339.82 258.817 -344.61 249.483 -354 C 240.15 -363.32 235.483 -374.5 235.483 -387.5 C 235.483 -400.5 240.15 -411.67 249.483 -421 L 445.483 -617 C 450.15 -621.67 455.483 -625.33 461.483 -628 C 467.483 -630.67 473.483 -632 479.483 -632 Z" style=""/>
</svg>