<?xml version="1.0" encoding="utf-8"?>
<svg xmlns="http://www.w3.org/2000/svg" height="48" viewBox="0 -960 960 960" width="48">
  <path d="M 133.556 -109.19 C 114.975 -109.19 98.856 -115.76 85.195 -129.35 C 71.511 -142.94 64.694 -159.11 64.694 -178.08 C 64.694 -197.77 71.466 -214.17 85.031 -227.53 C 98.621 -240.64 114.928 -247.44 133.978 -247.44 C 152.3 -247.44 168.561 -240.64 182.783 -227.53 C 196.983 -214.4 204.105 -198.24 204.105 -179.02 C 204.105 -159.81 196.983 -143.4 182.76 -129.59 C 168.538 -115.99 152.136 -109.19 133.556 -109.19 Z M 480.117 -109.19 C 460.904 -109.19 444.455 -115.76 430.796 -129.35 C 417.112 -142.94 410.295 -159.11 410.295 -178.08 C 410.295 -197.77 417.042 -214.17 430.562 -227.53 C 444.058 -240.64 460.318 -247.44 479.273 -247.44 C 498.885 -247.44 515.334 -240.64 528.618 -227.53 C 541.88 -214.4 548.535 -198.24 548.535 -179.02 C 548.535 -159.81 541.927 -143.4 528.735 -129.59 C 515.545 -115.99 499.33 -109.19 480.117 -109.19 Z M 824.874 -109.19 C 805.497 -109.19 788.955 -115.76 775.271 -129.35 C 761.565 -142.94 754.723 -159.11 754.723 -178.08 C 754.723 -197.77 761.612 -214.17 775.435 -227.53 C 789.237 -240.64 805.825 -247.44 825.225 -247.44 C 844.603 -247.44 861.121 -240.64 874.805 -227.53 C 888.464 -214.4 895.306 -198.24 895.306 -179.02 C 895.306 -159.81 888.417 -143.4 874.641 -129.59 C 860.863 -115.99 844.275 -109.19 824.874 -109.19 Z M 257.003 -385.53 L 420.936 -820.68 C 424.151 -829.51 429.575 -836.75 437.209 -842.37 C 444.842 -848 453.481 -850.81 463.125 -850.81 L 496.875 -850.81 C 506.519 -850.81 515.358 -847.8 523.394 -841.77 C 531.43 -835.74 537.055 -828.31 540.269 -819.47 L 702.997 -386.74 C 709.425 -369.86 707.417 -354.59 696.97 -340.93 C 686.523 -327.27 672.058 -320.44 653.576 -320.44 C 642.326 -320.44 632.08 -323.65 622.839 -330.08 C 613.597 -336.51 607.37 -344.95 604.155 -355.39 L 571.61 -449.42 L 379.953 -449.42 L 347.407 -351.78 C 343.389 -342.13 337.764 -334.5 330.532 -328.88 C 323.299 -323.25 314.46 -320.44 304.013 -320.44 C 287.138 -320.44 273.677 -327.27 263.632 -340.93 C 253.588 -354.59 251.377 -369.46 257.003 -385.53 Z M 400.444 -522.94 L 557.145 -522.94 L 481.205 -749.56 L 476.384 -749.56 L 400.444 -522.94 Z" style="stroke-width: 0.05;"/>
</svg>