<?xml version="1.0" encoding="utf-8"?>
<svg xmlns="http://www.w3.org/2000/svg" height="48" viewBox="0 -960 960 960" width="48">
  <path d="M 142.5 -180.5 C 129.413 -180.5 118.143 -185 108.69 -194 C 99.23 -203 94.5 -214.11 94.5 -227.32 C 94.5 -240.54 99.23 -251.71 108.69 -260.82 C 118.143 -269.94 129.413 -274.5 142.5 -274.5 L 530.5 -274.5 C 544.333 -274.5 555.79 -270 564.87 -261 C 573.957 -252 578.5 -240.89 578.5 -227.68 C 578.5 -214.46 573.957 -203.29 564.87 -194.18 C 555.79 -185.06 544.333 -180.5 530.5 -180.5 L 142.5 -180.5 Z M 724.76 -673.68 C 708.587 -689.8 700.5 -709.31 700.5 -732.22 C 700.5 -755.12 708.507 -774.73 724.52 -791.04 C 740.533 -807.35 759.893 -815.5 782.6 -815.5 C 805.307 -815.5 824.8 -807.44 841.08 -791.32 C 857.36 -775.2 865.5 -755.69 865.5 -732.78 C 865.5 -709.88 857.44 -690.27 841.32 -673.96 C 825.2 -657.65 805.787 -649.5 783.08 -649.5 C 760.367 -649.5 740.927 -657.56 724.76 -673.68 Z M 531.065 -420.68 C 515.092 -436.8 507.105 -456.31 507.105 -479.22 C 507.105 -502.12 515.012 -521.73 530.825 -538.04 C 546.645 -554.35 565.772 -562.5 588.205 -562.5 C 611.185 -562.5 630.915 -554.44 647.395 -538.32 C 663.868 -522.2 672.105 -502.69 672.105 -479.78 C 672.105 -456.88 663.948 -437.27 647.635 -420.96 C 631.315 -404.65 611.665 -396.5 588.685 -396.5 C 566.252 -396.5 547.045 -404.56 531.065 -420.68 Z M 724.46 -168.39 C 708.487 -184.31 700.5 -203.59 700.5 -226.22 C 700.5 -249.39 708.28 -269.23 723.84 -285.74 C 739.393 -302.25 758.813 -310.5 782.1 -310.5 C 805.38 -310.5 825.1 -302.33 841.26 -286 C 857.42 -269.67 865.5 -250.08 865.5 -227.24 C 865.5 -203.77 857.343 -184.12 841.03 -168.27 C 824.71 -152.42 805.06 -144.5 782.08 -144.5 C 759.647 -144.5 740.44 -152.46 724.46 -168.39 Z M 142.5 -685.5 C 129.413 -685.5 118.143 -690 108.69 -699 C 99.23 -708 94.5 -719.11 94.5 -732.32 C 94.5 -745.54 99.23 -756.71 108.69 -765.82 C 118.143 -774.94 129.413 -779.5 142.5 -779.5 L 530.5 -779.5 C 544.333 -779.5 555.79 -775 564.87 -766 C 573.957 -757 578.5 -745.89 578.5 -732.68 C 578.5 -719.46 573.957 -708.29 564.87 -699.18 C 555.79 -690.06 544.333 -685.5 530.5 -685.5 L 142.5 -685.5 Z M 142.5 -432.5 C 129.413 -432.5 118.143 -437 108.69 -446 C 99.23 -455 94.5 -466.11 94.5 -479.32 C 94.5 -492.54 99.23 -503.71 108.69 -512.82 C 118.143 -521.94 129.413 -526.5 142.5 -526.5 L 337.105 -526.5 C 350.938 -526.5 362.395 -522 371.475 -513 C 380.562 -504 385.105 -492.89 385.105 -479.68 C 385.105 -466.46 380.562 -455.29 371.475 -446.18 C 362.395 -437.06 350.938 -432.5 337.105 -432.5 L 142.5 -432.5 Z" style=""/>
</svg>