<?xml version="1.0" encoding="utf-8"?>
<svg viewBox="0 0 22 22" xmlns="http://www.w3.org/2000/svg">
  <path d="M 13.188 4.654 L 14.363 5.83 C 14.457 5.924 14.51 6.051 14.51 6.184 C 14.51 6.316 14.457 6.443 14.363 6.537 L 13.656 7.244 C 13.461 7.439 13.144 7.439 12.949 7.244 L 10.959 5.254 L 8.969 7.244 C 8.774 7.439 8.457 7.439 8.262 7.244 L 7.555 6.537 C 7.359 6.342 7.359 6.025 7.555 5.83 L 8.73 4.654 L 10.605 2.779 C 10.801 2.584 11.117 2.584 11.313 2.779 Z M 16.459 9.012 L 16.459 10.012 C 16.459 10.288 16.235 10.512 15.959 10.512 L 5.959 10.512 C 5.683 10.512 5.459 10.288 5.459 10.012 L 5.459 9.012 C 5.459 8.736 5.683 8.512 5.959 8.512 L 15.959 8.512 C 16.235 8.512 16.459 8.736 16.459 9.012 Z M 16.459 12.012 L 16.459 13.012 C 16.459 13.288 16.235 13.512 15.959 13.512 L 5.959 13.512 C 5.683 13.512 5.459 13.288 5.459 13.012 L 5.459 12.012 C 5.459 11.736 5.683 11.512 5.959 11.512 L 15.959 11.512 C 16.235 11.512 16.459 11.736 16.459 12.012 Z M 10.959 16.769 L 12.949 14.779 C 13.043 14.685 13.17 14.633 13.303 14.633 C 13.435 14.633 13.563 14.685 13.656 14.779 L 14.363 15.486 C 14.457 15.58 14.51 15.707 14.51 15.84 C 14.51 15.972 14.457 16.1 14.363 16.193 L 13.188 17.369 L 11.313 19.244 C 11.117 19.439 10.801 19.439 10.605 19.244 L 8.73 17.369 L 7.555 16.193 C 7.359 15.998 7.359 15.682 7.555 15.486 L 8.262 14.779 C 8.355 14.685 8.483 14.633 8.615 14.633 C 8.748 14.633 8.875 14.685 8.969 14.779 Z"/>
</svg>