<?xml version="1.0" encoding="utf-8"?>
<svg height="16" width="16" xmlns="http://www.w3.org/2000/svg">
  <path d="M 9.5 6 L 9.5 6.707 C 9.5 6.84 9.447 6.967 9.354 7.061 L 3.914 12.5 L 9 12.5 C 9.276 12.5 9.5 12.724 9.5 13 L 9.5 14 C 9.5 14.276 9.276 14.5 9 14.5 L 1 14.5 C 0.724 14.5 0.5 14.276 0.5 14 L 0.5 13.293 C 0.5 13.16 0.553 13.033 0.646 12.939 L 6.086 7.5 L 1 7.5 C 0.724 7.5 0.5 7.276 0.5 7 L 0.5 6 C 0.5 5.724 0.724 5.5 1 5.5 L 9 5.5 C 9.276 5.5 9.5 5.724 9.5 6 Z M 12 1.5 L 13 1.5 C 13.276 1.5 13.5 1.724 13.5 2 L 13.5 6.705 L 14.473 6.121 C 14.71 5.979 15.017 6.056 15.159 6.293 L 15.699 7.193 C 15.841 7.43 15.764 7.737 15.527 7.879 L 13.5 9.095 L 13.5 14 C 13.5 14.276 13.276 14.5 13 14.5 L 12 14.5 C 11.724 14.5 11.5 14.276 11.5 14 L 11.5 10.295 L 10.527 10.879 C 10.29 11.021 9.983 10.944 9.841 10.707 L 9.301 9.807 C 9.159 9.57 9.236 9.263 9.473 9.121 L 11.5 7.905 L 11.5 2 C 11.5 1.724 11.724 1.5 12 1.5 Z"/>
</svg>