<?xml version="1.0" encoding="utf-8"?>
<svg height="16" width="16" xmlns="http://www.w3.org/2000/svg">
  <path d="M 5 1.5 L 6 1.5 C 6.276 1.5 6.5 1.724 6.5 2 L 6.5 3.242 L 10.648 1.687 C 10.907 1.59 11.195 1.721 11.292 1.979 L 11.644 2.917 C 11.691 3.041 11.686 3.179 11.631 3.3 C 11.576 3.421 11.476 3.515 11.352 3.561 L 6.5 5.381 L 6.5 6.243 L 10.648 4.687 C 10.907 4.59 11.195 4.721 11.292 4.979 L 11.644 5.917 C 11.691 6.041 11.686 6.179 11.631 6.3 C 11.576 6.421 11.476 6.515 11.352 6.561 L 6.5 8.381 L 6.5 12.482 C 7.56 12.386 8.34 12.024 9.182 11.182 C 10.024 10.34 10.522 9.279 10.5 8 C 10.5 7.724 10.724 7.5 11 7.5 L 12 7.5 C 12.276 7.5 12.5 7.724 12.5 8 C 12.478 9.759 11.745 11.447 10.596 12.596 C 9.447 13.745 7.759 14.478 6 14.5 L 5 14.5 C 4.724 14.5 4.5 14.276 4.5 14 L 4.5 9.13 L 3.352 9.561 C 3.093 9.658 2.805 9.527 2.708 9.269 L 2.356 8.331 C 2.309 8.207 2.314 8.069 2.369 7.948 C 2.424 7.827 2.524 7.733 2.648 7.687 L 4.5 6.992 L 4.5 6.13 L 3.352 6.561 C 3.093 6.658 2.805 6.527 2.708 6.269 L 2.356 5.331 C 2.309 5.207 2.314 5.069 2.369 4.948 C 2.424 4.827 2.524 4.733 2.648 4.687 L 4.5 3.992 L 4.5 2 C 4.5 1.724 4.724 1.5 5 1.5 Z"/>
</svg>