<?xml version="1.0" encoding="utf-8"?>
<svg height="16" width="16" xmlns="http://www.w3.org/2000/svg">
  <path d="M 16.5 3 L 16.5 4 C 16.5 4.276 16.276 4.5 16 4.5 L 13.5 4.5 L 13.5 6.547 C 14.257 6.671 14.978 7.028 15.475 7.525 C 16.081 8.131 16.5 9.069 16.5 10 C 16.5 10.931 16.081 11.869 15.475 12.475 C 14.978 12.972 14.257 13.329 13.5 13.453 L 13.5 14 C 13.5 14.276 13.276 14.5 13 14.5 L 12 14.5 C 11.724 14.5 11.5 14.276 11.5 14 L 11.5 13.5 L 9 13.5 C 8.724 13.5 8.5 13.276 8.5 13 L 8.5 12 C 8.5 11.724 8.724 11.5 9 11.5 L 11.5 11.5 L 11.5 8.5 C 10.707 8.478 9.894 8.137 9.379 7.621 C 8.863 7.106 8.5 6.293 8.5 5.5 C 8.5 4.707 8.863 3.894 9.379 3.379 C 9.894 2.863 10.707 2.522 11.5 2.5 L 11.5 2 C 11.5 1.724 11.724 1.5 12 1.5 L 13 1.5 C 13.276 1.5 13.5 1.724 13.5 2 L 13.5 2.5 L 16 2.5 C 16.276 2.5 16.5 2.724 16.5 3 Z M 10.793 4.793 C 10.585 5.002 10.5 5.188 10.5 5.5 C 10.5 5.812 10.585 5.998 10.793 6.207 C 11.002 6.415 11.188 6.522 11.5 6.5 L 11.5 4.5 C 11.188 4.478 11.002 4.585 10.793 4.793 Z M 14.061 11.061 C 14.36 10.762 14.5 10.45 14.5 10 C 14.5 9.55 14.36 9.238 14.061 8.939 C 13.887 8.765 13.708 8.637 13.5 8.565 L 13.5 11.435 C 13.708 11.363 13.887 11.235 14.061 11.061 Z M 4 2.5 C 4.931 2.522 5.869 2.919 6.475 3.525 C 7.081 4.131 7.5 5.069 7.5 6 C 7.5 6.931 7.081 7.869 6.475 8.475 C 6.045 8.905 5.448 9.23 4.804 9.39 L 7.354 11.939 C 7.447 12.033 7.5 12.16 7.5 12.293 L 7.5 13 C 7.5 13.276 7.276 13.5 7 13.5 L 6.293 13.5 C 6.16 13.5 6.033 13.447 5.939 13.354 L 2.086 9.5 L 1.5 9.5 L 1.5 13 C 1.5 13.276 1.276 13.5 1 13.5 L 0 13.5 C -0.276 13.5 -0.5 13.276 -0.5 13 L -0.5 3 C -0.5 2.724 -0.276 2.5 0 2.5 Z M 1.5 7.5 L 4 7.5 C 4.45 7.522 4.762 7.36 5.061 7.061 C 5.36 6.762 5.5 6.45 5.5 6 C 5.5 5.55 5.36 5.238 5.061 4.939 C 4.762 4.64 4.45 4.478 4 4.5 L 1.5 4.5 Z"/>
</svg>