<?xml version="1.0" encoding="utf-8"?>
<svg height="16" width="16" xmlns="http://www.w3.org/2000/svg">
  <path d="M 17.103 4.31 L 17.103 5.233 C 17.103 5.509 16.879 5.733 16.603 5.733 L 14.336 5.733 L 14.336 7.5 L 16.603 7.5 C 16.879 7.5 17.103 7.724 17.103 8 L 17.103 8.922 C 17.103 9.198 16.879 9.422 16.603 9.422 L 14.336 9.422 L 14.336 11.69 C 14.336 11.966 14.112 12.19 13.836 12.19 L 12.913 12.19 C 12.637 12.19 12.413 11.966 12.413 11.69 L 12.413 4.31 C 12.413 4.034 12.637 3.81 12.913 3.81 L 16.603 3.81 C 16.879 3.81 17.103 4.034 17.103 4.31 Z M 7.879 4.31 L 7.879 7.5 L 9.646 7.5 L 9.646 4.31 C 9.646 4.034 9.87 3.81 10.146 3.81 L 11.069 3.81 C 11.345 3.81 11.569 4.034 11.569 4.31 L 11.569 11.69 C 11.569 11.966 11.345 12.19 11.069 12.19 L 10.146 12.19 C 9.87 12.19 9.646 11.966 9.646 11.69 L 9.646 9.422 L 7.879 9.422 L 7.879 11.69 C 7.879 11.966 7.655 12.19 7.379 12.19 L 6.457 12.19 C 6.181 12.19 5.957 11.966 5.957 11.69 L 5.957 4.31 C 5.957 4.034 6.181 3.81 6.457 3.81 L 7.379 3.81 C 7.655 3.81 7.879 4.034 7.879 4.31 Z M 5.481 5.994 L 4.799 6.675 C 4.683 6.791 4.517 6.842 4.356 6.813 C 4.194 6.783 4.057 6.676 3.99 6.526 C 3.785 5.972 3.356 5.695 2.766 5.733 C 2.359 5.711 2.087 5.856 1.816 6.127 C 1.545 6.397 1.4 6.67 1.422 7.078 L 1.422 8.922 C 1.4 9.33 1.545 9.603 1.816 9.873 C 2.087 10.144 2.36 10.267 2.767 10.267 C 3.056 10.267 3.261 10.204 3.496 10.052 C 3.732 9.9 3.883 9.744 3.992 9.476 C 4.06 9.326 4.196 9.219 4.358 9.189 C 4.519 9.16 4.685 9.211 4.801 9.327 L 5.481 10.006 C 5.645 10.169 5.675 10.423 5.555 10.62 C 4.962 11.533 3.855 12.157 2.767 12.19 C 1.901 12.168 1.021 11.797 0.457 11.233 C -0.107 10.669 -0.478 9.789 -0.5 8.922 L -0.5 7.078 C -0.478 6.211 -0.107 5.331 0.457 4.767 C 1.021 4.203 1.901 3.832 2.768 3.81 C 3.855 3.843 4.962 4.467 5.555 5.38 C 5.675 5.577 5.645 5.831 5.481 5.994 Z"/>
</svg>