<?xml version="1.0" encoding="utf-8"?>
<svg viewBox="0 0 16 16" xmlns="http://www.w3.org/2000/svg">
  <path d="M 11.5 3 L 11.5 4 C 11.5 4.276 11.276 4.5 11 4.5 L 8.5 4.5 L 8.5 6.547 C 9.257 6.671 9.978 7.028 10.475 7.525 C 11.081 8.131 11.5 9.069 11.5 10 C 11.5 10.931 11.081 11.869 10.475 12.475 C 9.978 12.972 9.257 13.329 8.5 13.453 L 8.5 14 C 8.5 14.276 8.276 14.5 8 14.5 L 7 14.5 C 6.724 14.5 6.5 14.276 6.5 14 L 6.5 13.5 L 4 13.5 C 3.724 13.5 3.5 13.276 3.5 13 L 3.5 12 C 3.5 11.724 3.724 11.5 4 11.5 L 6.5 11.5 L 6.5 8.5 C 5.707 8.478 4.894 8.137 4.379 7.621 C 3.863 7.106 3.5 6.293 3.5 5.5 C 3.5 4.707 3.863 3.894 4.379 3.379 C 4.894 2.863 5.707 2.522 6.5 2.5 L 6.5 2 C 6.5 1.724 6.724 1.5 7 1.5 L 8 1.5 C 8.276 1.5 8.5 1.724 8.5 2 L 8.5 2.5 L 11 2.5 C 11.276 2.5 11.5 2.724 11.5 3 Z M 5.793 4.793 C 5.584 5.001 5.5 5.188 5.5 5.5 C 5.5 5.812 5.584 5.999 5.793 6.207 C 6.001 6.416 6.188 6.522 6.5 6.5 L 6.5 4.5 C 6.188 4.478 6.001 4.584 5.793 4.793 Z M 9.061 11.061 C 9.36 10.762 9.5 10.45 9.5 10 C 9.5 9.55 9.36 9.238 9.061 8.939 C 8.887 8.765 8.708 8.637 8.5 8.565 L 8.5 11.435 C 8.708 11.363 8.887 11.235 9.061 11.061 Z"/>
</svg>