<?xml version="1.0" encoding="utf-8"?>
<svg clip-rule="evenodd" fill-rule="evenodd" stroke-linejoin="round" stroke-miterlimit="2" viewBox="0 0 250 250" xmlns="http://www.w3.org/2000/svg">
  <path d="M 102.741 114.55 L 89.9 114.55 C 86.212 114.55 83.519 112.873 81.846 109.482 C 80.167 106.076 80.552 102.856 83.075 99.829 L 83.116 99.781 L 121.673 53.629 C 123.436 51.378 125.718 50.268 128.503 50.268 C 131.251 50.268 133.574 51.355 135.446 53.588 L 173.91 99.785 L 173.947 99.829 C 176.47 102.856 176.856 106.076 175.176 109.482 C 173.503 112.873 170.81 114.55 167.122 114.55 L 154.281 114.55 L 154.281 177.217 C 154.281 179.71 153.412 181.811 151.693 183.53 C 149.973 185.25 147.871 186.119 145.379 186.119 L 111.643 186.119 C 109.151 186.119 107.049 185.25 105.331 183.53 C 103.611 181.811 102.741 179.71 102.741 177.217 Z M 120.677 160.453 C 120.677 162.503 121.491 164.47 122.941 165.919 C 124.391 167.369 126.357 168.183 128.408 168.183 L 128.747 168.183 C 133.016 168.183 136.477 164.722 136.477 160.453 L 136.477 100.322 C 136.477 98.827 137.689 97.614 139.185 97.614 L 143.692 97.614 C 144.413 97.614 145.066 97.191 145.361 96.533 C 145.657 95.875 145.538 95.105 145.058 94.567 C 145.058 94.567 136.971 84.023 132.104 77.678 C 131.247 76.56 129.919 75.905 128.511 75.905 C 127.103 75.905 125.775 76.56 124.918 77.678 C 120.051 84.023 111.964 94.567 111.964 94.567 C 111.484 95.105 111.366 95.875 111.661 96.533 C 111.956 97.191 112.609 97.614 113.33 97.614 L 117.969 97.614 C 119.464 97.614 120.677 98.827 120.677 100.322 Z M 34.014 209.415 C 25.215 200.814 20.817 190.391 20.817 178.147 C 20.817 170.578 22.641 163.539 26.284 157.027 C 28.847 152.445 32.078 148.495 35.976 145.176 L 33.077 145.176 C 30.02 145.176 27.396 144.078 25.211 141.875 C 23.035 139.678 21.948 137.04 21.948 133.963 C 21.948 130.868 23.046 128.251 25.234 126.111 C 27.414 123.982 30.028 122.917 33.077 122.917 L 69.263 122.917 C 72.833 122.917 75.85 124.201 78.314 126.766 C 80.755 129.307 81.975 132.338 81.975 135.856 L 81.975 172.041 C 81.975 175.177 80.854 177.782 78.632 179.864 C 76.446 181.913 73.824 182.944 70.762 182.944 C 67.657 182.944 65.086 181.886 63.032 179.808 C 60.986 177.74 59.942 175.156 59.942 172.041 L 59.942 156.71 C 55.464 157.829 51.663 160.135 48.54 163.633 C 44.895 167.717 43.076 172.54 43.076 178.097 C 43.076 184.211 45.286 189.429 49.7 193.754 C 54.13 198.098 59.522 200.262 65.87 200.262 C 68.93 200.262 71.553 201.36 73.737 203.564 C 75.913 205.761 77 208.398 77 211.476 C 77 214.595 75.886 217.182 73.68 219.246 C 71.511 221.275 68.909 222.295 65.87 222.295 C 53.413 222.295 42.796 217.999 34.014 209.415 Z M 213.057 11.104 C 220.369 11.104 226.598 13.704 231.744 18.904 C 236.887 24.104 239.459 30.399 239.459 37.788 L 239.459 123.108 C 239.459 126.806 238.195 129.931 235.668 132.481 C 233.14 135.033 230.02 136.309 226.309 136.309 C 222.595 136.309 219.459 135.033 216.899 132.481 C 214.338 129.931 213.057 126.806 213.057 123.108 L 213.057 37.788 L 49.303 37.788 L 49.303 90.593 C 49.303 94.291 48.022 97.415 45.461 99.965 C 42.901 102.518 39.764 103.794 36.051 103.794 C 32.34 103.794 29.22 102.518 26.692 99.965 C 24.164 97.415 22.9 94.291 22.9 90.593 L 22.9 37.787 C 22.9 30.398 25.472 24.104 30.616 18.904 C 35.762 13.704 41.991 11.104 49.303 11.104 Z M 201.61 222.295 C 191.055 222.295 182.145 218.656 174.879 211.377 C 167.613 204.099 163.98 195.182 163.98 184.626 C 163.98 174.072 167.62 165.131 174.899 157.805 C 182.176 150.478 191.094 146.816 201.65 146.816 C 212.205 146.816 221.145 150.501 228.471 157.868 C 235.796 165.236 239.459 174.169 239.459 184.665 C 239.459 195.22 235.775 204.131 228.407 211.397 C 221.04 218.662 212.107 222.295 201.61 222.295 Z M 201.63 208.604 C 203.311 208.604 204.752 208.033 205.953 206.893 C 207.154 205.753 207.755 204.341 207.755 202.66 L 207.755 185.907 C 207.755 184.178 207.166 182.724 205.989 181.548 C 204.812 180.371 203.359 179.782 201.63 179.782 C 199.949 179.782 198.537 180.371 197.397 181.548 C 196.256 182.724 195.685 184.178 195.685 185.907 L 195.685 202.66 C 195.685 204.341 196.256 205.753 197.397 206.893 C 198.537 208.033 199.949 208.604 201.63 208.604 Z M 201.63 172.577 C 203.311 172.577 204.752 172.006 205.953 170.865 C 207.154 169.725 207.755 168.312 207.755 166.632 C 207.755 164.951 207.166 163.51 205.989 162.308 C 204.812 161.107 203.359 160.507 201.63 160.507 C 199.949 160.507 198.537 161.096 197.397 162.272 C 196.256 163.449 195.685 164.902 195.685 166.632 C 195.685 168.312 196.256 169.725 197.397 170.865 C 198.537 172.006 199.949 172.577 201.63 172.577 Z"/>
</svg>