<?xml version="1.0" encoding="utf-8"?>
<svg height="16" width="16" xmlns="http://www.w3.org/2000/svg">
  <path d="M 5.061 1.646 L 7.5 4.086 L 9.939 1.646 C 10.033 1.553 10.16 1.5 10.293 1.5 L 11.707 1.5 C 11.909 1.5 12.092 1.622 12.169 1.809 C 12.246 1.996 12.204 2.211 12.061 2.354 L 8.5 5.914 L 8.5 6.768 L 11 6.768 C 11.276 6.768 11.5 6.992 11.5 7.268 L 11.5 8.268 C 11.5 8.544 11.276 8.768 11 8.768 L 8.5 8.768 L 8.5 9.768 L 11 9.768 C 11.276 9.768 11.5 9.992 11.5 10.268 L 11.5 11.268 C 11.5 11.544 11.276 11.768 11 11.768 L 8.5 11.768 L 8.5 14 C 8.5 14.276 8.276 14.5 8 14.5 L 7 14.5 C 6.724 14.5 6.5 14.276 6.5 14 L 6.5 11.768 L 4 11.768 C 3.724 11.768 3.5 11.544 3.5 11.268 L 3.5 10.268 C 3.5 9.992 3.724 9.768 4 9.768 L 6.5 9.768 L 6.5 8.768 L 4 8.768 C 3.724 8.768 3.5 8.544 3.5 8.268 L 3.5 7.268 C 3.5 6.992 3.724 6.768 4 6.768 L 6.5 6.768 L 6.5 5.914 L 2.939 2.354 C 2.796 2.211 2.754 1.996 2.831 1.809 C 2.908 1.622 3.091 1.5 3.293 1.5 L 4.707 1.5 C 4.84 1.5 4.967 1.553 5.061 1.646 Z"/>
</svg>