<?xml version="1.0" encoding="utf-8"?>
<svg height="16" width="16" xmlns="http://www.w3.org/2000/svg">
  <path d="M 11.644 3.064 L 10.954 3.754 C 10.785 3.922 10.521 3.948 10.323 3.816 C 10.023 3.599 9.569 3.5 9 3.5 C 8.55 3.5 8.238 3.64 7.939 3.939 C 7.64 4.238 7.478 4.55 7.5 5 L 7.5 6.5 L 9 6.5 C 9.276 6.5 9.5 6.724 9.5 7 L 9.5 8 C 9.5 8.276 9.276 8.5 9 8.5 L 7.5 8.5 L 7.5 11.001 C 7.482 11.829 7.359 12.027 7.138 12.5 L 11 12.5 C 11.276 12.5 11.5 12.724 11.5 13 L 11.5 14 C 11.5 14.276 11.276 14.5 11 14.5 L 4 14.5 C 3.724 14.5 3.5 14.276 3.5 14 L 3.5 13 C 3.5 12.724 3.724 12.5 4 12.5 C 4.45 12.522 4.762 12.36 5.061 12.061 C 5.36 11.762 5.522 11.45 5.5 11 L 5.5 8.5 L 4 8.5 C 3.724 8.5 3.5 8.276 3.5 8 L 3.5 7 C 3.5 6.724 3.724 6.5 4 6.5 L 5.5 6.5 L 5.5 5 C 5.522 4.069 5.919 3.131 6.525 2.525 C 7.131 1.919 8.07 1.522 9 1.5 C 9.957 1.512 10.95 1.825 11.6 2.318 C 11.712 2.406 11.781 2.538 11.789 2.681 C 11.797 2.823 11.745 2.963 11.644 3.064 Z"/>
</svg>