<?xml version="1.0" encoding="utf-8"?>
<svg height="16" width="16" xmlns="http://www.w3.org/2000/svg">
  <path d="M 12.5 2 L 12.5 3 C 12.5 3.276 12.276 3.5 12 3.5 L 9.943 3.5 C 10.197 3.946 10.266 4.021 10.374 4.5 L 12 4.5 C 12.276 4.5 12.5 4.724 12.5 5 L 12.5 6 C 12.5 6.276 12.276 6.5 12 6.5 L 10.36 6.5 C 10.14 7.288 9.795 7.934 9.116 8.522 C 8.529 9.032 7.718 9.378 6.888 9.474 L 10.354 12.939 C 10.447 13.033 10.5 13.16 10.5 13.293 L 10.5 14 C 10.5 14.276 10.276 14.5 10 14.5 L 9.293 14.5 C 9.16 14.5 9.033 14.447 8.939 14.354 L 3.646 9.061 C 3.553 8.967 3.5 8.84 3.5 8.707 L 3.5 8 C 3.5 7.724 3.724 7.5 4 7.5 L 6.5 7.5 C 7.006 7.516 7.393 7.354 7.765 7.049 C 8.138 6.745 8.129 6.707 8.249 6.5 L 4 6.5 C 3.724 6.5 3.5 6.276 3.5 6 L 3.5 5 C 3.5 4.724 3.724 4.5 4 4.5 L 8.249 4.5 C 8.13 4.29 8.134 4.256 7.762 3.952 C 7.39 3.648 7.005 3.485 6.5 3.5 L 4 3.5 C 3.724 3.5 3.5 3.276 3.5 3 L 3.5 2 C 3.5 1.724 3.724 1.5 4 1.5 L 12 1.5 C 12.276 1.5 12.5 1.724 12.5 2 Z"/>
</svg>