<?xml version="1.0" encoding="utf-8"?>
<svg height="16" width="16" xmlns="http://www.w3.org/2000/svg">
  <path d="M 3 5.5 L 3.537 5.5 C 3.669 4.471 4.14 3.496 4.818 2.818 C 5.605 2.031 6.794 1.522 8.001 1.5 C 9.553 1.535 11.087 2.423 11.892 3.75 C 11.981 3.905 11.981 4.095 11.892 4.25 C 11.803 4.405 11.638 4.5 11.459 4.5 L 10.23 4.5 C 10.088 4.5 9.952 4.439 9.857 4.333 C 9.374 3.76 8.749 3.48 7.999 3.5 C 7.273 3.478 6.712 3.752 6.232 4.232 C 5.868 4.596 5.623 5.006 5.535 5.5 L 11 5.5 C 11.276 5.5 11.5 5.724 11.5 6 L 11.5 7 C 11.5 7.276 11.276 7.5 11 7.5 L 5.5 7.5 L 5.5 8.5 L 10 8.5 C 10.276 8.5 10.5 8.724 10.5 9 L 10.5 10 C 10.5 10.276 10.276 10.5 10 10.5 L 5.535 10.5 C 5.623 10.994 5.868 11.404 6.232 11.768 C 6.712 12.248 7.274 12.522 8 12.5 C 8.75 12.521 9.375 12.24 9.859 11.667 C 9.954 11.561 10.09 11.5 10.232 11.5 L 11.459 11.5 C 11.638 11.5 11.803 11.595 11.892 11.75 C 11.981 11.905 11.981 12.095 11.892 12.25 C 11.087 13.577 9.552 14.465 8 14.5 C 6.793 14.478 5.605 13.969 4.818 13.182 C 4.14 12.504 3.669 11.529 3.537 10.5 L 3 10.5 C 2.724 10.5 2.5 10.276 2.5 10 L 2.5 9 C 2.5 8.724 2.724 8.5 3 8.5 L 3.5 8.5 L 3.5 7.5 L 3 7.5 C 2.724 7.5 2.5 7.276 2.5 7 L 2.5 6 C 2.5 5.724 2.724 5.5 3 5.5 Z"/>
</svg>