<?xml version="1.0" encoding="utf-8"?>
<svg viewBox="0 0 16 16" xmlns="http://www.w3.org/2000/svg">
  <path d="M 4 5.5 L 9.472 5.5 C 9.475 5.452 9.476 5.4 9.476 5.344 C 9.476 4.946 9.401 4.733 9.108 4.524 C 8.838 4.265 8.462 4.18 7.816 4.18 C 7.356 4.18 6.937 4.231 6.497 4.341 C 6.047 4.454 5.653 4.584 5.278 4.747 C 5.152 4.802 5.009 4.802 4.882 4.747 C 4.756 4.693 4.657 4.588 4.61 4.459 L 4.162 3.227 C 4.072 2.979 4.19 2.704 4.431 2.598 C 4.892 2.397 5.418 2.226 5.962 2.104 C 6.514 1.98 7.14 1.916 7.784 1.916 C 8.555 1.916 9.291 2.052 9.886 2.309 C 10.489 2.569 11.026 2.992 11.376 3.487 C 11.732 3.99 11.932 4.659 11.932 5.328 C 11.932 5.386 11.931 5.443 11.929 5.5 L 12 5.5 C 12.276 5.5 12.5 5.724 12.5 6 L 12.5 7 C 12.5 7.276 12.276 7.5 12 7.5 L 11.283 7.5 C 11.213 7.596 11.137 7.686 11.057 7.77 C 10.64 8.205 10.044 8.594 9.322 8.921 L 12 8.921 C 12.276 8.921 12.5 9.145 12.5 9.421 L 12.5 10.421 C 12.5 10.697 12.276 10.921 12 10.921 L 6.304 10.921 C 6.301 10.968 6.3 11.018 6.3 11.072 C 6.3 11.528 6.41 11.755 6.758 12.017 C 7.118 12.29 7.596 12.412 8.376 12.412 C 8.955 12.412 9.486 12.352 10.033 12.218 C 10.58 12.085 11.013 11.944 11.373 11.783 C 11.528 11.714 11.707 11.729 11.848 11.821 C 11.99 11.913 12.076 12.071 12.076 12.24 L 12.076 13.616 C 12.076 13.81 11.964 13.986 11.789 14.068 C 11.39 14.253 10.874 14.408 10.303 14.508 C 9.736 14.608 9.1 14.66 8.44 14.66 C 7.123 14.66 5.968 14.33 5.159 13.709 C 4.332 13.073 3.86 12.063 3.86 10.944 C 3.86 10.93 3.86 10.915 3.86 10.901 C 3.652 10.841 3.5 10.648 3.5 10.421 L 3.5 9.421 C 3.5 9.145 3.724 8.921 4 8.921 L 4.494 8.921 C 4.762 8.581 5.115 8.27 5.519 8.024 C 5.809 7.843 6.145 7.667 6.516 7.5 L 4 7.5 C 3.724 7.5 3.5 7.276 3.5 7 L 3.5 6 C 3.5 5.724 3.724 5.5 4 5.5 Z"/>
</svg>