<?xml version="1.0" encoding="utf-8"?>
<svg height="16" width="16" xmlns="http://www.w3.org/2000/svg">
  <path d="M 9 1.5 C 10.197 1.533 11.433 2.214 12.031 3.25 C 12.678 4.37 12.592 5.779 12.031 6.75 C 11.47 7.721 10.293 8.458 9 8.5 L 7.5 8.5 L 7.5 9.5 L 9 9.5 C 9.276 9.5 9.5 9.724 9.5 10 L 9.5 11 C 9.5 11.276 9.276 11.5 9 11.5 L 7.5 11.5 L 7.5 14 C 7.5 14.276 7.276 14.5 7 14.5 L 6 14.5 C 5.724 14.5 5.5 14.276 5.5 14 L 5.5 11.5 L 4 11.5 C 3.724 11.5 3.5 11.276 3.5 11 L 3.5 10 C 3.5 9.724 3.724 9.5 4 9.5 L 5.5 9.5 L 5.5 8.5 L 4 8.5 C 3.724 8.5 3.5 8.276 3.5 8 L 3.5 7 C 3.5 6.724 3.724 6.5 4 6.5 L 5.5 6.5 L 5.5 2 C 5.5 1.724 5.724 1.5 6 1.5 Z M 7.5 6.5 L 9 6.5 C 9.59 6.533 10.004 6.261 10.299 5.75 C 10.615 5.203 10.58 4.737 10.299 4.25 C 10.018 3.763 9.631 3.458 9 3.5 L 7.5 3.5 Z"/>
</svg>