<?xml version="1.0" encoding="utf-8"?>
<svg xmlns="http://www.w3.org/2000/svg" height="48" viewBox="0 -960 960 960" width="48">
  <path d="M 55 -480.6 C 55 -539.85 66 -595.22 88 -646.73 C 110 -698.24 140.33 -743.33 179 -782 C 217.67 -820.67 262.71 -851 314.13 -873 C 365.55 -895 420.88 -906 480.13 -906 C 539.38 -906 594.83 -894.97 646.5 -872.9 C 698.17 -850.83 743.18 -820.62 781.55 -782.25 C 819.92 -743.88 850.26 -698.8 872.55 -646.99 C 894.85 -595.18 906 -539.85 906 -481 C 906 -461.19 904.17 -441.92 900.5 -423.21 C 896.83 -404.5 892 -386.1 886 -368 C 882 -351.33 874.23 -340.5 862.68 -335.5 C 851.14 -330.5 839.58 -329.33 828 -332 C 816.67 -334.67 807.17 -341 799.5 -351 C 791.83 -361 790.33 -373 795 -387 C 800.61 -401.64 804.68 -416.8 807.21 -432.48 C 809.74 -448.16 811 -464.33 811 -481 C 811 -573.21 779.06 -651.43 715.17 -715.66 C 651.29 -779.89 573.12 -812 480.66 -812 C 388.2 -812 309.81 -779.84 245.49 -715.51 C 181.16 -651.19 149 -573.02 149 -481.01 C 149 -389 181.07 -310.83 245.22 -246.5 C 309.37 -182.17 387.63 -150 480 -150 C 489.78 -150 499.56 -150.5 509.33 -151.5 C 519.11 -152.5 528.33 -154.67 537 -158 C 552.33 -159.33 564.39 -155.48 573.17 -146.43 C 581.94 -137.38 587.22 -127.18 589 -115.81 C 591 -105.02 588.67 -94.357 582 -83.81 C 575.33 -73.27 564.67 -66.667 550 -64 C 538.67 -61.333 527.21 -59.167 515.63 -57.5 C 504.04 -55.833 492.17 -55 480 -55 C 421.15 -55 365.82 -66.15 314.01 -88.45 C 262.2 -110.74 217.12 -141.08 178.75 -179.45 C 140.38 -217.82 110.17 -262.79 88.1 -314.36 C 66.033 -365.93 55 -421.35 55 -480.6 Z M 453.28 -280.8 C 445.421 -288.59 441.499 -298.39 441.499 -309.99 L 441.499 -478.99 C 441.499 -490.61 445.44 -500.19 453.32 -508.21 C 461.199 -516 470.939 -520 482.541 -520 C 494.141 -520 503.88 -516 511.72 -508.21 C 519.58 -500.19 523.499 -490.61 523.499 -478.99 L 523.499 -309.99 C 523.499 -298.39 519.56 -288.59 511.701 -280.8 C 503.819 -272.8 494.079 -269 482.46 -269 C 470.86 -269 461.121 -272.8 453.28 -280.8 Z M 445.32 -592.39 C 436.1 -601.41 431.5 -612.61 431.5 -626.41 C 431.5 -640.8 435.919 -652.39 444.759 -661.41 C 453.579 -670.4 465.179 -675.01 479.519 -675.01 C 493.121 -675.01 504.52 -670.4 513.72 -661.41 C 522.901 -652.39 527.501 -640.6 527.501 -625.99 C 527.501 -612.61 522.921 -601.41 513.759 -592.39 C 504.581 -583.4 493.2 -578.99 479.58 -578.99 C 465.961 -578.99 454.54 -583.4 445.32 -592.39 Z M 716.141 -95.63 C 716.141 -84.22 712.251 -74.54 704.469 -66.76 C 696.688 -58.8 687.09 -55 675.659 -55 C 664.23 -55 654.581 -58.8 646.695 -66.76 C 638.809 -74.54 634.867 -84.22 634.867 -95.63 L 634.867 -254.73 C 634.867 -265.96 638.792 -275.66 646.644 -283.42 C 654.512 -291.39 664.126 -295.37 675.504 -295.37 L 834.595 -295.37 C 845.99 -295.37 855.606 -291.39 863.456 -283.6 C 871.307 -275.82 875.232 -266.31 875.232 -254.73 C 875.232 -243.31 871.307 -233.8 863.456 -225.85 C 855.606 -217.89 845.99 -214.09 834.595 -214.09 L 773.206 -214.09 L 840.648 -146.65 C 848.723 -138.52 852.752 -129 852.752 -118.12 C 852.752 -107.05 848.843 -97.53 840.993 -89.59 C 832.693 -81.46 822.923 -77.3 811.682 -76.97 C 800.442 -76.79 790.794 -80.59 782.718 -88.71 L 716.141 -156.16 L 716.141 -95.63 Z" style=""/>
</svg>