<?xml version="1.0" encoding="utf-8"?>
<svg height="16" width="16" xmlns="http://www.w3.org/2000/svg">
  <path d="M 1 1.5 L 2 1.5 C 2.276 1.5 2.5 1.724 2.5 2 L 2.5 9.085 L 5.939 5.646 C 6.033 5.553 6.16 5.5 6.293 5.5 L 7 5.5 C 7.276 5.5 7.5 5.724 7.5 6 L 7.5 6.707 C 7.5 6.84 7.447 6.967 7.354 7.061 L 4.415 10 L 7.354 12.939 C 7.447 13.033 7.5 13.16 7.5 13.293 L 7.5 14 C 7.5 14.276 7.276 14.5 7 14.5 L 6.293 14.5 C 6.16 14.5 6.033 14.447 5.939 14.354 L 3 11.415 L 2.5 11.915 L 2.5 14 C 2.5 14.276 2.276 14.5 2 14.5 L 1 14.5 C 0.724 14.5 0.5 14.276 0.5 14 L 0.5 2 C 0.5 1.724 0.724 1.5 1 1.5 Z M 9 5.5 L 10 5.5 C 10.276 5.5 10.5 5.724 10.5 6 L 10.5 7.31 C 11.646 6.215 13.289 5.521 15 5.5 C 15.276 5.5 15.5 5.724 15.5 6 L 15.5 7 C 15.5 7.276 15.276 7.5 15 7.5 C 13.721 7.478 12.66 7.976 11.818 8.818 C 11.012 9.624 10.521 10.631 10.5 11.838 L 10.5 14 C 10.5 14.276 10.276 14.5 10 14.5 L 9 14.5 C 8.724 14.5 8.5 14.276 8.5 14 L 8.5 6 C 8.5 5.724 8.724 5.5 9 5.5 Z"/>
</svg>