<?xml version="1.0" encoding="utf-8"?>
<svg xmlns="http://www.w3.org/2000/svg" height="48" viewBox="0 -960 960 960" width="48">
  <path d="M 200.595 -136.63 C 182.175 -155.043 172.965 -177.167 172.965 -203 L 172.965 -510 L 127.965 -476 C 119.065 -468.667 108.852 -465.71 97.325 -467.13 C 85.805 -468.543 76.698 -473.71 70.005 -482.63 C 63.312 -491.543 60.612 -501.897 61.905 -513.69 C 63.205 -525.483 68.558 -534.587 77.965 -541 L 423 -829 C 431.667 -835 440.7 -839.667 450.1 -843 C 459.5 -846.333 469.087 -848 478.86 -848 C 489.34 -848 499.317 -846.333 508.79 -843 C 518.263 -839.667 527.333 -835 536 -829 L 882.134 -540 C 891.661 -533.553 897.044 -524.443 898.284 -512.67 C 899.517 -500.89 896.801 -490.543 890.134 -481.63 C 882.927 -472.31 873.961 -467.207 863.234 -466.32 C 852.501 -465.44 842.467 -468.333 833.134 -475 L 787.134 -510 L 787.134 -203 C 787.134 -186.354 783.343 -171.247 775.761 -157.681 C 771.747 -148.552 765.965 -140.259 758.414 -132.82 C 742.307 -116.93 722.423 -109 698.781 -109 L 559.835 -109 C 548.209 -109 538.398 -112.86 530.388 -120.98 C 522.379 -128.94 518.373 -138.8 518.373 -150.46 L 518.373 -346.28 L 440.744 -346.28 L 440.744 -150.46 C 440.744 -138.8 436.739 -128.94 428.73 -120.98 C 420.702 -112.86 410.894 -109 399.284 -109 L 265.832 -109 C 255.009 -109 244.986 -110.695 235.761 -114.087 C 222.83 -118.599 211.108 -126.113 200.595 -136.63 Z M 265.832 -191.92 L 367.525 -191.92 L 367.525 -378.04 C 367.525 -389.68 371.53 -399.4 379.541 -407.52 C 387.55 -415.44 397.36 -419.51 408.986 -419.51 L 550.131 -419.51 C 561.74 -419.51 571.55 -415.44 579.576 -407.52 C 587.586 -399.4 591.591 -389.68 591.591 -378.04 L 591.591 -191.92 L 698.781 -191.92 L 698.781 -524.13 L 479.559 -717.801 L 265.832 -524.13 L 265.832 -191.92 Z"/>
</svg>