<?xml version="1.0" encoding="utf-8"?>
<svg viewBox="0 0 22 22" xmlns="http://www.w3.org/2000/svg">
  <path d="M 19.5 3 L 19.5 19 C 19.5 19.276 19.276 19.5 19 19.5 L 3 19.5 C 2.724 19.5 2.5 19.276 2.5 19 L 2.5 3 C 2.5 2.724 2.724 2.5 3 2.5 L 19 2.5 C 19.276 2.5 19.5 2.724 19.5 3 Z M 4.5 17.5 L 17.5 17.5 L 17.5 4.5 L 4.5 4.5 Z M 15.5 13 L 15.5 15 C 15.5 15.276 15.276 15.5 15 15.5 L 13 15.5 C 12.724 15.5 12.5 15.276 12.5 15 L 12.5 13 C 12.5 12.724 12.724 12.5 13 12.5 L 15 12.5 C 15.276 12.5 15.5 12.724 15.5 13 Z"/>
</svg>