<?xml version="1.0" encoding="utf-8"?>
<svg viewBox="0 0 22 22" xmlns="http://www.w3.org/2000/svg">
  <path d="M 17.714 7.609 L 17.714 14.266 C 17.714 14.542 17.49 14.766 17.214 14.766 L 16.153 14.766 C 15.877 14.766 15.653 14.542 15.653 14.266 L 15.653 7.609 C 15.653 7.333 15.877 7.109 16.153 7.109 L 17.214 7.109 C 17.49 7.109 17.714 7.333 17.714 7.609 Z M 5.954 7.821 L 8.638 14.069 C 8.705 14.223 8.689 14.401 8.597 14.541 C 8.504 14.681 8.347 14.766 8.179 14.766 L 6.913 14.766 C 6.71 14.766 6.526 14.643 6.45 14.454 L 5.997 13.34 L 3.975 13.34 L 3.534 14.451 C 3.458 14.641 3.274 14.766 3.069 14.766 L 1.837 14.766 C 1.668 14.766 1.511 14.681 1.419 14.54 C 1.326 14.399 1.311 14.221 1.378 14.067 L 4.093 7.819 C 4.173 7.636 4.353 7.518 4.552 7.518 L 5.495 7.518 C 5.695 7.518 5.876 7.637 5.954 7.821 Z M 4.981 10.815 L 4.751 11.383 L 5.208 11.383 L 4.981 10.815 Z M 13.034 9.613 C 13.386 9.759 13.745 10.002 13.997 10.29 C 14.244 10.574 14.444 10.952 14.558 11.318 C 14.627 11.563 14.669 11.906 14.669 12.273 C 14.669 12.485 14.618 12.771 14.535 13.063 C 14.438 13.379 14.249 13.719 14.022 13.986 C 13.786 14.247 13.454 14.49 13.111 14.649 C 12.759 14.799 12.298 14.891 11.829 14.891 C 11.062 14.891 10.339 14.594 9.836 14.122 C 9.363 13.619 9.066 12.9 9.066 12.141 C 9.066 11.37 9.389 10.644 9.898 10.149 C 10.426 9.69 11.141 9.402 11.876 9.402 C 12.273 9.402 12.689 9.482 13.034 9.613 Z M 11.35 11.553 C 11.172 11.706 11.14 11.85 11.14 12.162 C 11.14 12.477 11.17 12.623 11.342 12.774 C 11.487 12.953 11.592 12.977 11.841 12.977 C 12.024 12.977 12.117 12.961 12.25 12.87 C 12.395 12.793 12.448 12.743 12.501 12.608 C 12.579 12.468 12.595 12.365 12.595 12.195 C 12.595 11.882 12.559 11.717 12.396 11.54 C 12.291 11.357 12.182 11.34 11.876 11.34 C 11.617 11.34 11.501 11.367 11.35 11.553 Z M 20.312 12.771 C 20.502 12.988 20.664 13.329 20.664 13.621 C 20.664 13.911 20.501 14.252 20.311 14.468 C 20.094 14.66 19.754 14.822 19.465 14.822 C 19.175 14.822 18.832 14.662 18.615 14.474 C 18.422 14.255 18.26 13.912 18.26 13.621 C 18.26 13.334 18.418 12.99 18.607 12.769 C 18.828 12.577 19.174 12.418 19.465 12.418 C 19.755 12.418 20.095 12.579 20.312 12.771 Z"/>
</svg>