<?xml version="1.0" encoding="utf-8"?>
<svg viewBox="0 0 22 22" xmlns="http://www.w3.org/2000/svg">
  <path d="M 1.212 10.999 C 1.212 9.401 1.617 7.852 2.282 6.525 C 3.924 3.323 7.343 1.022 11.19 1.022 C 13.851 1.022 16.156 2.044 17.872 3.627 C 17.965 3.715 18.02 3.836 18.022 3.964 C 18.024 4.092 17.974 4.215 17.884 4.306 L 15.162 7.028 C 14.982 7.207 14.691 7.212 14.506 7.038 C 13.588 6.153 12.504 5.751 11.19 5.751 C 10.034 5.751 9.04 6.114 8.166 6.771 C 7.293 7.426 6.655 8.283 6.311 9.345 C 6.131 9.881 6.033 10.413 6.033 10.999 C 6.033 11.586 6.131 12.12 6.311 12.655 C 6.318 12.674 6.322 12.693 6.326 12.713 C 6.674 13.751 7.306 14.592 8.167 15.239 C 9.04 15.895 10.034 16.259 11.19 16.259 C 12.395 16.259 13.349 15.963 14.136 15.421 C 15.081 14.811 15.44 14.255 15.707 13.423 L 11.19 13.423 C 10.929 13.423 10.718 13.211 10.718 12.951 L 10.718 9.272 C 10.718 9.012 10.929 8.801 11.19 8.801 L 20.143 8.801 C 20.37 8.801 20.566 8.963 20.607 9.187 C 20.724 9.83 20.788 10.521 20.788 11.216 C 20.788 14.204 19.654 16.816 17.8 18.555 C 16.154 20.051 13.844 20.977 11.19 20.977 C 7.343 20.977 3.924 18.675 2.282 15.48 C 2.275 15.463 2.267 15.447 2.26 15.43 C 1.608 14.114 1.212 12.581 1.212 10.999 Z"/>
</svg>