<?xml version="1.0" encoding="utf-8"?>
<svg viewBox="0 0 22 22" xmlns="http://www.w3.org/2000/svg">
  <path d="M 7.26 9.148 L 9.441 9.148 C 9.452 9.221 9.461 9.294 9.461 9.369 C 9.461 10.145 8.887 10.779 8.141 10.887 L 8.141 11.779 C 9.375 11.668 10.342 10.633 10.342 9.369 C 10.342 9.295 10.339 9.221 10.332 9.148 L 10.342 9.148 L 10.342 6.064 L 7.26 6.064 Z M 11.658 9.148 L 13.842 9.148 C 13.852 9.221 13.859 9.294 13.859 9.369 C 13.859 10.145 13.285 10.779 12.539 10.887 L 12.539 11.779 C 13.774 11.668 14.74 10.633 14.74 9.369 C 14.74 9.295 14.737 9.221 14.73 9.148 L 14.74 9.148 L 14.74 6.064 L 11.658 6.064 Z M 19.5 9 C 19.5 10.132 19.499 11.6 18.405 13.337 C 17.349 15.014 15.206 17.027 11.051 19.433 C 10.896 19.522 10.705 19.522 10.551 19.433 C 10.396 19.344 10.301 19.179 10.301 19 L 10.301 15.469 C 8.247 15.328 6.446 14.714 4.975 13.586 C 3.49 12.449 2.534 10.758 2.5 9 C 2.535 7.215 3.52 5.5 5.043 4.357 C 6.554 3.224 8.711 2.5 11 2.5 C 13.289 2.5 15.446 3.224 16.957 4.357 C 18.48 5.5 19.5 7.215 19.5 9 Z"/>
</svg>