<?xml version="1.0" encoding="utf-8"?>
<svg clip-rule="evenodd" fill-rule="evenodd" stroke-linejoin="round" stroke-miterlimit="2" viewBox="0 0 48 48" xmlns="http://www.w3.org/2000/svg">
  <path d="M 27.044 5.487 C 27.437 6.624 27.847 7.837 27.847 7.837 C 28.714 8.044 29.564 8.32 30.388 8.663 C 30.388 8.663 31.366 7.97 32.318 7.294 C 33.461 6.483 34.993 6.491 36.127 7.315 C 36.157 7.349 36.193 7.377 36.229 7.403 C 37.29 8.186 37.737 9.554 37.345 10.812 C 36.995 11.962 36.613 13.185 36.613 13.185 C 37.194 13.862 37.718 14.586 38.183 15.347 C 38.183 15.347 39.383 15.36 40.55 15.373 C 41.951 15.389 43.186 16.297 43.618 17.63 C 43.622 17.676 43.636 17.718 43.65 17.761 C 44.048 19.017 43.605 20.388 42.547 21.174 C 41.588 21.899 40.56 22.664 40.56 22.664 C 40.632 23.553 40.632 24.447 40.56 25.336 C 40.56 25.336 41.523 26.053 42.461 26.749 C 43.584 27.584 44.05 29.044 43.616 30.376 C 43.593 30.416 43.579 30.459 43.564 30.502 C 43.147 31.753 41.985 32.601 40.667 32.616 C 39.463 32.639 38.183 32.653 38.183 32.653 C 37.718 33.414 37.194 34.138 36.613 34.815 C 36.613 34.815 36.97 35.959 37.319 37.074 C 37.737 38.411 37.255 39.865 36.121 40.689 C 36.079 40.707 36.042 40.733 36.006 40.76 C 34.933 41.527 33.493 41.529 32.418 40.766 C 31.432 40.077 30.388 39.336 30.388 39.336 C 29.564 39.68 28.714 39.956 27.847 40.162 C 27.847 40.162 27.464 41.299 27.091 42.406 C 26.643 43.733 25.398 44.626 23.996 44.626 C 23.952 44.616 23.906 44.616 23.861 44.616 C 22.543 44.606 21.377 43.762 20.956 42.513 C 20.563 41.375 20.153 40.162 20.153 40.162 C 19.285 39.956 18.436 39.68 17.613 39.336 C 17.613 39.336 16.634 40.03 15.682 40.706 C 14.54 41.517 13.007 41.509 11.873 40.685 C 11.843 40.651 11.807 40.623 11.771 40.596 C 10.71 39.814 10.263 38.446 10.655 37.188 C 11.005 36.037 11.387 34.815 11.387 34.815 C 10.807 34.138 10.282 33.414 9.817 32.653 C 9.817 32.653 8.617 32.64 7.45 32.627 C 6.049 32.611 4.815 31.703 4.382 30.37 C 4.378 30.324 4.364 30.282 4.351 30.239 C 3.953 28.983 4.395 27.612 5.453 26.826 C 6.412 26.101 7.44 25.336 7.44 25.336 C 7.368 24.447 7.368 23.553 7.44 22.664 C 7.44 22.664 6.477 21.947 5.54 21.251 C 4.417 20.415 3.95 18.956 4.384 17.624 C 4.407 17.584 4.421 17.541 4.436 17.498 C 4.853 16.247 6.016 15.398 7.333 15.384 C 8.537 15.361 9.817 15.347 9.817 15.347 C 10.282 14.586 10.807 13.862 11.387 13.185 C 11.387 13.185 11.03 12.041 10.682 10.926 C 10.263 9.589 10.745 8.134 11.879 7.311 C 11.921 7.293 11.958 7.266 11.994 7.24 C 13.067 6.473 14.507 6.471 15.582 7.234 C 16.568 7.923 17.613 8.663 17.613 8.663 C 18.436 8.32 19.285 8.044 20.153 7.837 C 20.153 7.837 20.536 6.701 20.909 5.594 C 21.358 4.267 22.602 3.374 24.004 3.374 C 24.048 3.384 24.094 3.384 24.14 3.384 C 25.457 3.394 26.623 4.238 27.044 5.487 Z M 24 12.093 C 17.429 12.093 12.093 17.429 12.093 24.001 C 12.093 30.572 17.429 35.906 24 35.906 C 30.572 35.906 35.907 30.572 35.907 24.001 C 35.907 17.429 30.572 12.093 24 12.093 Z M 17.1 21.712 C 16.653 21.263 16.428 20.73 16.428 20.112 C 16.428 19.494 16.653 18.961 17.1 18.513 C 17.549 18.065 18.081 17.84 18.7 17.84 C 19.322 17.84 19.85 18.065 20.284 18.513 C 20.716 18.961 20.933 19.496 20.933 20.117 C 20.933 20.737 20.715 21.271 20.281 21.716 C 19.845 22.161 19.324 22.383 18.718 22.383 C 18.088 22.383 17.549 22.16 17.1 21.712 Z M 27.717 21.712 C 27.284 21.263 27.067 20.729 27.067 20.108 C 27.067 19.486 27.285 18.953 27.719 18.508 C 28.155 18.063 28.676 17.84 29.282 17.84 C 29.913 17.84 30.452 18.065 30.901 18.513 C 31.347 18.961 31.572 19.494 31.572 20.112 C 31.572 20.73 31.347 21.263 30.901 21.712 C 30.452 22.16 29.919 22.383 29.301 22.383 C 28.678 22.383 28.15 22.16 27.717 21.712 Z M 19.873 31.376 C 18.611 30.658 17.615 29.674 16.883 28.426 C 16.707 28.108 16.712 27.81 16.899 27.532 C 17.088 27.255 17.37 27.116 17.744 27.116 L 30.25 27.116 C 30.615 27.116 30.895 27.261 31.09 27.551 C 31.284 27.842 31.306 28.146 31.154 28.463 C 30.398 29.71 29.39 30.688 28.132 31.394 C 26.873 32.101 25.489 32.454 23.981 32.454 C 22.504 32.454 21.136 32.095 19.873 31.376 Z"/>
</svg>