<?xml version="1.0" encoding="utf-8"?>
<svg xmlns="http://www.w3.org/2000/svg" height="48" viewBox="0 -960 960 960" width="48">
  <path d="M 272 -238.16 L 169 -135.16 C 161.667 -127.83 153 -126 143 -129.7 C 133 -133.39 128 -140.54 128 -151.16 L 128 -738.16 C 128 -763.99 137.21 -786.12 155.63 -804.54 C 174.043 -822.95 196.167 -832.16 222 -832.16 L 738 -832.16 C 763.833 -832.16 785.96 -822.95 804.38 -804.54 C 822.793 -786.12 832 -763.99 832 -738.16 L 832 -581.16 C 832 -568.49 827.333 -557.66 818 -548.66 C 808.667 -539.66 797.5 -535.16 784.5 -535.16 C 771.5 -535.16 760.5 -539.79 751.5 -549.06 C 742.5 -558.33 738 -569.36 738 -582.16 L 738 -738.16 L 222 -738.16 L 222 -332.16 L 518.372 -332.16 C 530.672 -332.16 541.582 -327.49 551.102 -318.16 C 560.615 -308.82 565.372 -297.66 565.372 -284.66 C 565.372 -271.66 560.615 -260.66 551.102 -251.66 C 541.582 -242.66 530.672 -238.16 518.372 -238.16 L 272 -238.16 Z M 308.79 -592.97 C 300.93 -600.85 297 -610.59 297 -622.2 C 297 -633.8 300.93 -643.53 308.79 -651.38 C 316.65 -659.23 326.387 -663.16 338 -663.16 L 623 -663.16 C 634.613 -663.16 644.35 -659.22 652.21 -651.35 C 660.07 -643.48 664 -633.73 664 -622.12 C 664 -610.51 660.07 -600.78 652.21 -592.94 C 644.35 -585.09 634.613 -581.16 623 -581.16 L 338 -581.16 C 326.387 -581.16 316.65 -585.1 308.79 -592.97 Z M 308.79 -428.97 C 300.93 -436.85 297 -446.59 297 -458.2 C 297 -469.81 300.93 -479.53 308.79 -487.38 C 316.65 -495.23 326.387 -499.16 338 -499.16 L 503 -499.16 C 514.613 -499.16 524.35 -495.22 532.21 -487.35 C 540.07 -479.48 544 -469.73 544 -458.12 C 544 -446.51 540.07 -436.79 532.21 -428.94 C 524.35 -421.08 514.613 -417.16 503 -417.16 L 338 -417.16 C 326.387 -417.16 316.65 -421.1 308.79 -428.97 Z M 715.603 -176.78 C 710.777 -176.78 705.533 -178.54 701.503 -181.04 C 697.416 -183.94 694.121 -188.29 692.631 -192.94 C 686.59 -210.3 678.945 -225.91 669.366 -240.59 C 659.709 -255.44 649.319 -269.71 638.004 -283.86 C 626.731 -297.32 617.247 -312.56 609.965 -328.75 C 602.696 -345.31 598.835 -362.94 598.835 -380.84 C 598.835 -412.8 610.725 -441.03 632.949 -463.55 C 655.495 -485.9 683.657 -497.71 715.317 -497.71 C 746.963 -497.71 775.163 -485.91 797.78 -463.56 C 820.076 -441.04 832 -412.81 832 -381.12 C 832 -362.96 828.247 -345.06 821.148 -328.76 C 814.061 -312.7 804.77 -297.68 793.64 -283.97 C 782.735 -269.33 772.249 -254.79 762.001 -240.13 C 751.93 -225.66 744.24 -210.63 738.323 -193.32 C 736.866 -188.69 733.554 -184 729.6 -181.09 C 725.659 -178.57 720.447 -176.78 715.603 -176.78 Z M 715.422 -263.47 C 720.508 -270.95 723.953 -275.99 730.897 -285.47 C 737.842 -295.11 745.183 -304.78 752.843 -314.26 C 760.733 -323.97 767.258 -334.24 772.795 -345.78 C 778.277 -356.97 780.762 -368.37 780.762 -381.12 C 780.762 -399.52 774.954 -414.11 761.79 -427.29 C 748.996 -440.59 734.246 -446.47 715.418 -446.47 C 696.59 -446.47 681.857 -440.6 669.045 -427.29 C 655.899 -414.11 650.074 -399.4 650.074 -380.84 C 650.074 -368.39 652.561 -357.27 658.053 -345.89 C 663.599 -334.35 670.122 -323.96 677.991 -314.26 C 685.668 -304.78 693.001 -295.12 699.938 -285.47 C 706.885 -276.01 710.335 -270.96 715.422 -263.47 Z M 715.418 -339.45 C 704.297 -339.45 693.746 -343.98 685.907 -351.14 C 678.325 -358.87 673.746 -369.59 673.746 -381.12 C 673.746 -392.24 678.334 -402.83 685.865 -410.79 C 693.757 -418.29 704.303 -422.8 715.418 -422.8 C 726.531 -422.8 737.132 -418.25 745.013 -410.74 C 752.563 -402.78 757.09 -392.24 757.09 -381.12 C 757.09 -369.59 752.48 -358.83 744.878 -351.09 C 737.051 -343.93 726.536 -339.45 715.418 -339.45 Z"/>
</svg>