<?xml version="1.0" encoding="utf-8"?>
<svg xmlns="http://www.w3.org/2000/svg" viewBox="0 0 22 22">
  <defs id="defs3051">
  </defs>
  <path d="M 12 11 C 12 11.554 11.554 12 11 12 C 10.446 12 10 11.554 10 11 C 10 10.446 10.446 10 11 10 C 11.554 10 12 10.446 12 11 Z M 14.986 4.72 C 15.673 4.583 16.378 4.742 16.833 5.167 C 17.258 5.622 17.417 6.327 17.28 7.014 C 17.165 7.587 16.851 8.215 16.388 8.768 C 17.107 8.831 17.773 9.053 18.26 9.378 C 18.843 9.766 19.229 10.378 19.25 11 C 19.229 11.622 18.843 12.234 18.26 12.622 C 17.774 12.946 17.106 13.168 16.388 13.232 C 16.851 13.784 17.165 14.412 17.28 14.986 C 17.417 15.673 17.258 16.378 16.833 16.833 C 16.378 17.258 15.673 17.417 14.986 17.28 C 14.413 17.165 13.785 16.851 13.232 16.388 C 13.169 17.107 12.947 17.773 12.622 18.26 C 12.234 18.843 11.622 19.25 11 19.25 C 10.378 19.25 9.766 18.843 9.378 18.26 C 9.054 17.774 8.832 17.106 8.768 16.388 C 8.216 16.851 7.588 17.165 7.014 17.28 C 6.327 17.417 5.622 17.258 5.167 16.833 C 4.742 16.378 4.583 15.673 4.72 14.986 C 4.835 14.413 5.149 13.785 5.612 13.232 C 4.893 13.169 4.227 12.947 3.74 12.622 C 3.157 12.234 2.771 11.622 2.75 11 C 2.771 10.378 3.157 9.766 3.74 9.378 C 4.226 9.054 4.894 8.832 5.612 8.768 C 5.149 8.216 4.835 7.588 4.72 7.014 C 4.583 6.327 4.742 5.622 5.167 5.167 C 5.622 4.742 6.327 4.583 7.014 4.72 C 7.587 4.835 8.215 5.149 8.768 5.612 C 8.831 4.893 9.053 4.227 9.378 3.74 C 9.766 3.157 10.378 2.75 11 2.75 C 11.622 2.75 12.234 3.157 12.622 3.74 C 12.946 4.226 13.168 4.894 13.232 5.612 C 13.784 5.149 14.412 4.835 14.986 4.72 Z M 11.001 9.25 C 10.606 9.24 10.441 9.161 10.179 9.018 C 10.095 9.304 10.036 9.475 9.763 9.762 C 9.477 10.035 9.304 10.095 9.018 10.179 C 9.161 10.441 9.24 10.604 9.25 10.999 C 9.24 11.395 9.161 11.559 9.018 11.821 C 9.304 11.905 9.475 11.964 9.762 12.237 C 10.035 12.523 10.095 12.696 10.179 12.982 C 10.441 12.839 10.604 12.76 10.999 12.75 C 11.395 12.76 11.559 12.839 11.821 12.982 C 11.905 12.696 11.964 12.525 12.237 12.238 C 12.524 11.965 12.696 11.905 12.983 11.821 C 12.84 11.559 12.761 11.397 12.75 11.001 C 12.76 10.606 12.839 10.441 12.982 10.179 C 12.696 10.095 12.525 10.036 12.238 9.763 C 11.965 9.476 11.905 9.304 11.821 9.017 C 11.559 9.16 11.397 9.239 11.001 9.25 Z" class="ColorScheme-Text"/>
</svg>