<?xml version="1.0" encoding="utf-8"?>
<svg height="48" viewBox="0 -960 960 960" width="48" xmlns="http://www.w3.org/2000/svg">
  <path d="M 229 -122 C 202.467 -122 180.167 -131.21 162.1 -149.63 C 144.033 -168.043 135 -190.167 135 -216 L 135 -243 C 135 -272.533 142.61 -298.373 157.83 -320.52 C 173.05 -342.66 192.773 -359.487 217 -371 C 239 -380.333 260.557 -388.623 281.67 -395.87 C 302.783 -403.11 323.56 -409.82 344 -416 C 362 -420 379.863 -423.067 397.59 -425.2 C 415.317 -427.333 433.12 -428.6 451 -429 C 463.587 -430.333 474.567 -426.613 483.94 -417.84 C 493.313 -409.06 498 -398.113 498 -385 C 498 -371.447 493.5 -360.06 484.5 -350.84 C 475.5 -341.613 464.333 -336.333 451 -335 C 436.193 -335 421.66 -334.167 407.4 -332.5 C 393.133 -330.833 379.143 -328.39 365.43 -325.17 C 347.877 -321.257 330.75 -316.417 314.05 -310.65 C 297.35 -304.883 279.667 -297.667 261 -289 C 251.667 -284.527 244 -277.633 238 -268.32 C 232 -259.007 229 -249.233 229 -239 L 229 -216 L 479 -216 C 492.167 -216 503.293 -211.44 512.38 -202.32 C 521.46 -193.207 526 -182.04 526 -168.82 C 526 -155.607 521.46 -144.5 512.38 -135.5 C 503.293 -126.5 492.167 -122 479 -122 Z M 480 -494 C 431.333 -494 390 -511 356 -545 C 322 -579 305 -620.5 305 -669.5 C 305 -718.5 322 -759.833 356 -793.5 C 390 -827.167 431.333 -844 480 -844 C 528.667 -844 570.167 -827.167 604.5 -793.5 C 638.833 -759.833 656 -718.5 656 -669.5 C 656 -620.5 638.833 -579 604.5 -545 C 570.167 -511 528.667 -494 480 -494 Z M 480 -588 C 502.667 -588 521.833 -595.833 537.5 -611.5 C 553.167 -627.167 561 -646.333 561 -669 C 561 -691.667 553.233 -710.833 537.7 -726.5 C 522.173 -742.167 503.007 -750 480.2 -750 C 457.4 -750 438.167 -742.107 422.5 -726.32 C 406.833 -710.533 399 -691.593 399 -669.5 C 399 -646.5 406.833 -627.167 422.5 -611.5 C 438.167 -595.833 457.333 -588 480 -588 Z M 736.822 -220.97 L 684.496 -169.69 C 674.236 -160.86 662.848 -156.33 650.333 -156.33 C 637.814 -156.33 626.631 -161.07 616.784 -170.7 C 606.524 -180.97 601.579 -192.46 601.906 -205.17 C 602.254 -217.7 607.221 -229.19 616.784 -239.43 L 668.08 -290.75 L 616.784 -342.03 C 606.524 -351.69 601.392 -363.18 601.392 -376.29 C 601.392 -389.83 606.564 -401.14 616.885 -410.77 C 626.182 -420.43 637.304 -424.95 650.271 -424.74 C 663.239 -424.31 674.648 -419.6 684.496 -410.77 L 736.822 -358.44 L 788.119 -408.72 C 798.052 -418.38 809.583 -423.3 822.755 -423.7 C 835.928 -423.91 847.297 -419.39 856.857 -409.76 C 866.442 -400.1 871.222 -388.82 871.222 -375.9 C 871.222 -362.97 866.442 -351.69 856.857 -342.03 L 805.561 -290.75 L 855.834 -238.42 C 864.74 -228.77 869.52 -217.49 870.195 -204.56 C 870.895 -191.63 866.442 -180.36 856.857 -170.91 C 847.297 -160.43 835.888 -155.51 822.673 -155.72 C 809.458 -156.15 797.948 -161.07 788.119 -170.7 Z"/>
</svg>