<?xml version="1.0" encoding="utf-8"?>
<svg viewBox="0 0 22 22" xmlns="http://www.w3.org/2000/svg">
  <path d="M 10.5 3 L 10.5 10 C 10.5 10.276 10.276 10.5 10 10.5 L 3 10.5 C 2.724 10.5 2.5 10.276 2.5 10 L 2.5 3 C 2.5 2.724 2.724 2.5 3 2.5 L 10 2.5 C 10.276 2.5 10.5 2.724 10.5 3 Z M 19.5 3 L 19.5 10 C 19.5 10.276 19.276 10.5 19 10.5 L 12 10.5 C 11.724 10.5 11.5 10.276 11.5 10 L 11.5 3 C 11.5 2.724 11.724 2.5 12 2.5 L 19 2.5 C 19.276 2.5 19.5 2.724 19.5 3 Z M 10.5 12 L 10.5 19 C 10.5 19.276 10.276 19.5 10 19.5 L 3 19.5 C 2.724 19.5 2.5 19.276 2.5 19 L 2.5 12 C 2.5 11.724 2.724 11.5 3 11.5 L 10 11.5 C 10.276 11.5 10.5 11.724 10.5 12 Z M 19.5 12 L 19.5 19 C 19.5 19.276 19.276 19.5 19 19.5 L 12 19.5 C 11.724 19.5 11.5 19.276 11.5 19 L 11.5 12 C 11.5 11.724 11.724 11.5 12 11.5 L 19 11.5 C 19.276 11.5 19.5 11.724 19.5 12 Z"/>
</svg>