<?xml version="1.0" encoding="utf-8"?>
<svg viewBox="0 0 22 22" xmlns="http://www.w3.org/2000/svg">
  <path d="M 20.5 11 C 20.5 13.326 19.868 14.724 18.966 16.137 L 20.06 17.232 C 20.313 17.515 20.5 17.948 20.5 18.293 C 20.5 18.638 20.313 19.071 20.061 19.354 L 19.354 20.06 C 19.071 20.313 18.638 20.5 18.293 20.5 C 17.948 20.5 17.515 20.313 17.233 20.061 L 16.137 18.966 C 14.724 19.868 13.326 20.5 11 20.5 C 8.478 20.5 5.925 19.347 4.277 17.723 C 2.653 16.075 1.5 13.522 1.5 11 C 1.5 8.478 2.653 5.925 4.277 4.277 C 5.925 2.653 8.478 1.5 11 1.5 C 13.522 1.5 16.075 2.653 17.723 4.277 C 19.347 5.925 20.5 8.478 20.5 11 Z M 5.5 11 C 5.5 12.633 6.031 13.818 7.107 14.893 C 8.182 15.969 9.367 16.5 11 16.5 C 12.473 16.5 12.678 16.388 13.257 16.085 L 12.939 15.768 C 12.687 15.485 12.5 15.052 12.5 14.707 C 12.5 14.362 12.687 13.929 12.94 13.646 L 13.646 12.939 C 13.929 12.687 14.362 12.5 14.707 12.5 C 15.052 12.5 15.485 12.687 15.768 12.94 L 16.078 13.249 C 16.375 12.67 16.5 12.469 16.5 11 C 16.5 9.367 15.969 8.182 14.893 7.107 C 13.818 6.031 12.633 5.5 11 5.5 C 9.367 5.5 8.182 6.031 7.107 7.107 C 6.031 8.182 5.5 9.367 5.5 11 Z"/>
</svg>