<?xml version="1.0" encoding="utf-8"?>
<svg viewBox="0 0 22 22" xmlns="http://www.w3.org/2000/svg">
  <path d="M 10.827 6.226 L 10.727 6.769 C 10.686 6.992 10.5 7.159 10.274 7.177 L 8.903 7.283 L 11.304 10.516 C 12.095 9.899 12.966 9.241 13.452 8.771 C 12.964 8.716 12.24 8.678 12.24 8.678 C 12.02 8.661 11.837 8.5 11.791 8.284 L 11.627 7.512 C 11.595 7.364 11.633 7.209 11.728 7.092 C 11.824 6.975 11.968 6.907 12.119 6.908 L 18.444 6.947 C 18.622 6.948 18.786 7.044 18.875 7.198 C 18.963 7.352 18.963 7.542 18.874 7.696 L 18.446 8.44 C 18.372 8.57 18.244 8.659 18.097 8.684 L 16.351 8.982 C 15.869 9.324 13.853 10.723 12.371 12.331 C 12.288 13.408 12.359 14.063 12.394 14.635 L 14.276 14.686 C 14.411 14.69 14.539 14.748 14.63 14.847 C 14.722 14.945 14.769 15.077 14.762 15.212 C 14.762 15.212 14.726 15.777 14.74 15.814 C 14.787 16.063 14.64 16.308 14.398 16.383 C 14.309 16.411 14.217 16.413 14.132 16.392 C 14.131 16.392 14.13 16.392 14.13 16.392 C 14.082 16.389 14.014 16.387 13.918 16.385 C 13.721 16.381 13.443 16.38 13.104 16.381 C 12.427 16.382 11.526 16.393 10.625 16.405 C 8.823 16.431 7.025 16.467 7.025 16.467 C 6.872 16.47 6.727 16.403 6.63 16.285 C 6.532 16.168 6.494 16.012 6.526 15.863 L 6.69 15.093 C 6.741 14.854 6.957 14.687 7.201 14.698 C 7.201 14.698 8.515 14.839 8.909 14.662 L 8.866 12.337 C 8.26 11.294 5.609 8.233 4.86 7.504 L 2.911 7.25 C 2.666 7.218 2.481 7.011 2.476 6.764 L 2.462 6.043 C 2.459 5.907 2.512 5.777 2.607 5.68 C 2.703 5.584 2.833 5.531 2.969 5.533 L 10.342 5.635 C 10.489 5.637 10.628 5.704 10.721 5.818 C 10.815 5.932 10.853 6.081 10.827 6.226 Z M 19.524 9.981 L 18.563 13.913 C 18.502 14.161 18.264 14.323 18.011 14.29 L 17.318 14.198 C 17.07 14.165 16.885 13.954 16.884 13.704 L 16.868 9.638 C 16.867 9.493 16.93 9.356 17.038 9.26 C 17.147 9.165 17.292 9.121 17.435 9.141 L 19.105 9.367 C 19.246 9.386 19.371 9.463 19.451 9.58 C 19.531 9.698 19.557 9.843 19.524 9.981 Z M 18.515 15.195 L 18.388 16.041 C 18.369 16.174 18.297 16.292 18.188 16.371 C 18.08 16.45 17.945 16.482 17.813 16.46 L 16.965 16.321 C 16.697 16.277 16.513 16.027 16.551 15.758 L 16.664 14.955 C 16.702 14.687 16.946 14.498 17.214 14.528 L 18.076 14.624 C 18.211 14.639 18.335 14.709 18.417 14.816 C 18.5 14.924 18.536 15.061 18.515 15.195 Z"/>
</svg>