<?xml version="1.0" encoding="utf-8"?>
<svg xmlns="http://www.w3.org/2000/svg" height="48" viewBox="0 -960 960 960" width="48">
  <path d="M 479.84 -55 C 393.947 -55 321.667 -84.32 263 -142.96 C 204.333 -201.593 175 -273.94 175 -360 L 175 -620 C 175 -705.847 204.313 -778.31 262.94 -837.39 C 321.567 -896.463 393.827 -926 479.72 -926 C 565.613 -926 638.133 -896.463 697.28 -837.39 C 756.427 -778.31 786 -705.847 786 -620 L 786 -360 C 786 -273.94 756.447 -201.593 697.34 -142.96 C 638.233 -84.32 565.733 -55 479.84 -55 Z M 691 -620 C 691 -670.793 674.333 -716.323 641 -756.59 C 621.905 -779.661 599.418 -797.436 573.541 -809.916 L 573.541 -620 Z M 269 -620 L 386.46 -620 L 386.46 -809.917 C 360.582 -797.437 338.096 -779.661 319 -756.59 C 285.667 -716.323 269 -670.793 269 -620 Z M 479.6 -149 C 537.867 -149 587.667 -169.573 629 -210.72 C 670.333 -251.867 691 -301.627 691 -360 L 691 -560 L 269 -560 L 269 -360 C 269 -301.8 289.533 -252.083 330.6 -210.85 C 371.667 -169.617 421.333 -149 479.6 -149 Z"/>
</svg>