<?xml version="1.0" encoding="utf-8"?>
<svg clip-rule="evenodd" fill-rule="evenodd" stroke-linejoin="round" stroke-miterlimit="2" viewBox="0 0 250 250" xmlns="http://www.w3.org/2000/svg">
  <path d="M 105.8 166.009 C 102.516 166.009 99.84 164.96 97.772 162.862 C 95.703 160.764 94.669 158.073 94.669 154.791 C 94.669 151.507 95.718 148.831 97.816 146.763 C 99.914 144.694 102.604 143.66 105.887 143.66 C 109.171 143.66 111.846 144.709 113.914 146.807 C 115.983 148.905 117.018 151.595 117.018 154.878 C 117.018 158.162 115.969 160.837 113.871 162.905 C 111.773 164.974 109.082 166.009 105.8 166.009 Z M 67.03 166.009 C 63.746 166.009 61.071 164.96 59.003 162.862 C 56.934 160.764 55.899 158.073 55.899 154.791 C 55.899 151.507 56.948 148.831 59.046 146.763 C 61.144 144.694 63.835 143.66 67.117 143.66 C 70.401 143.66 73.077 144.709 75.145 146.807 C 77.214 148.905 78.249 151.595 78.249 154.878 C 78.249 158.162 77.199 160.837 75.101 162.905 C 73.003 164.974 70.313 166.009 67.03 166.009 Z M 67.074 127.924 C 63.972 127.924 61.334 126.837 59.16 124.663 C 56.986 122.489 55.899 119.851 55.899 116.749 C 55.899 113.647 56.986 111.048 59.16 108.95 C 61.334 106.851 63.972 105.802 67.074 105.802 C 70.175 105.802 72.775 106.851 74.873 108.95 C 76.971 111.048 78.02 113.647 78.02 116.749 C 78.02 119.851 76.971 122.489 74.873 124.663 C 72.775 126.837 70.175 127.924 67.074 127.924 Z M 91.248 199.077 C 88.754 199.077 86.687 198.241 85.045 196.569 C 83.403 194.896 82.582 192.844 82.582 190.411 C 82.582 187.978 83.403 185.926 85.045 184.254 C 86.687 182.581 88.754 181.745 91.248 181.745 L 158.752 181.745 C 161.246 181.745 163.313 182.581 164.955 184.254 C 166.597 185.926 167.418 187.978 167.418 190.411 C 167.418 192.844 166.597 194.896 164.955 196.569 C 163.313 198.241 161.246 199.077 158.752 199.077 Z M 183.111 166.009 C 179.827 166.009 177.151 164.96 175.083 162.862 C 173.014 160.764 171.979 158.073 171.979 154.791 C 171.979 151.507 173.029 148.831 175.127 146.763 C 177.225 144.694 179.915 143.66 183.198 143.66 C 186.482 143.66 189.157 144.709 191.225 146.807 C 193.294 148.905 194.329 151.595 194.329 154.878 C 194.329 158.162 193.28 160.837 191.182 162.905 C 189.084 164.974 186.393 166.009 183.111 166.009 Z M 144.341 166.009 C 141.057 166.009 138.382 164.96 136.314 162.862 C 134.245 160.764 133.21 158.073 133.21 154.791 C 133.21 151.507 134.259 148.831 136.357 146.763 C 138.455 144.694 141.146 143.66 144.428 143.66 C 147.712 143.66 150.388 144.709 152.456 146.807 C 154.525 148.905 155.559 151.595 155.559 154.878 C 155.559 158.162 154.51 160.837 152.412 162.905 C 150.314 164.974 147.624 166.009 144.341 166.009 Z M 105.843 127.924 C 102.742 127.924 100.104 126.837 97.93 124.663 C 95.756 122.489 94.669 119.851 94.669 116.749 C 94.669 113.647 95.756 111.048 97.93 108.95 C 100.104 106.851 102.742 105.802 105.843 105.802 C 108.945 105.802 111.545 106.851 113.643 108.95 C 115.741 111.048 116.79 113.647 116.79 116.749 C 116.79 119.851 115.741 122.489 113.643 124.663 C 111.545 126.837 108.945 127.924 105.843 127.924 Z M 183.154 127.924 C 180.053 127.924 177.415 126.837 175.241 124.663 C 173.067 122.489 171.98 119.851 171.98 116.749 C 171.98 113.647 173.067 111.048 175.241 108.95 C 177.415 106.851 180.053 105.802 183.154 105.802 C 186.256 105.802 188.856 106.851 190.954 108.95 C 193.052 111.048 194.101 113.647 194.101 116.749 C 194.101 119.851 193.052 122.489 190.954 124.663 C 188.856 126.837 186.256 127.924 183.154 127.924 Z M 144.385 127.924 C 141.283 127.924 138.645 126.837 136.471 124.663 C 134.297 122.489 133.21 119.851 133.21 116.749 C 133.21 113.647 134.297 111.048 136.471 108.95 C 138.645 106.851 141.283 105.802 144.385 105.802 C 147.486 105.802 150.086 106.851 152.184 108.95 C 154.282 111.048 155.331 113.647 155.331 116.749 C 155.331 119.851 154.282 122.489 152.184 124.663 C 150.086 126.837 147.486 127.924 144.385 127.924 Z M 23.921 65.03 C 36.604 52.348 71.654 17.297 71.654 17.297 C 73.258 15.693 75.216 14.891 77.528 14.891 C 79.84 14.891 81.778 15.693 83.34 17.297 L 135.585 69.541 L 209.153 69.541 C 215.09 69.541 220.147 71.63 224.325 75.806 C 228.502 79.984 230.59 85.042 230.59 90.979 L 230.59 213.673 C 230.59 219.61 228.502 224.667 224.325 228.845 C 220.147 233.022 215.09 235.11 209.153 235.11 L 40.847 235.11 C 34.91 235.11 29.853 233.022 25.675 228.845 C 21.498 224.667 19.41 219.61 19.41 213.673 C 19.41 213.673 19.41 103.816 19.41 75.921 C 19.41 71.836 21.033 67.919 23.921 65.03 Z M 40.847 206.253 C 40.847 208.221 41.629 210.108 43.02 211.5 C 44.412 212.891 46.299 213.673 48.267 213.673 C 76.073 213.673 173.927 213.673 201.733 213.673 C 203.701 213.673 205.588 212.891 206.979 211.5 C 208.371 210.108 209.153 208.221 209.153 206.253 C 209.153 184.373 209.153 120.278 209.153 98.398 C 209.153 96.43 208.371 94.543 206.979 93.152 C 205.588 91.76 203.701 90.979 201.733 90.979 L 48.267 90.979 C 46.299 90.979 44.412 91.76 43.02 93.152 C 41.629 94.543 40.847 96.43 40.847 98.398 Z" style=""/>
</svg>