<?xml version="1.0" encoding="utf-8"?>
<svg xmlns="http://www.w3.org/2000/svg" height="48" viewBox="0 -960 960 960" width="48">
  <path d="M 229 -55 C 202.967 -55 180.793 -64.157 162.48 -82.47 C 144.16 -100.79 135 -122.967 135 -149 L 135 -811 C 135 -837.307 144.16 -859.717 162.48 -878.23 C 180.793 -896.743 202.967 -906 229 -906 L 552 -906 C 565.04 -906 577.467 -903.333 589.28 -898 C 601.093 -892.667 611.333 -885.667 620 -877 L 797 -700 C 805.667 -691.333 812.667 -681.093 818 -669.28 C 823.333 -657.467 826 -645.04 826 -632 L 826 -149 C 826 -122.967 816.743 -100.79 798.23 -82.47 C 779.717 -64.157 757.307 -55 731 -55 L 229 -55 Z M 731 -649 L 637 -649 C 617.667 -649 601 -656 587 -670 C 573 -684 566 -700.667 566 -720 L 566 -811 L 229 -811 L 229 -149 L 731 -149 L 731 -649 Z M 279.54 -665.435 C 272.921 -671.835 269.622 -680.635 269.622 -691.425 C 269.622 -702.225 273.061 -711.025 279.961 -717.625 C 286.859 -724.235 295.418 -727.625 305.617 -727.625 L 488.336 -727.625 C 499.094 -727.625 507.793 -724.235 514.413 -717.835 C 521.011 -711.225 524.331 -702.635 524.331 -691.825 C 524.331 -680.835 520.871 -672.225 513.972 -665.635 C 507.072 -658.835 498.535 -655.625 488.336 -655.625 L 305.617 -655.625 C 294.839 -655.625 286.16 -658.835 279.54 -665.435 Z M 279.544 -541.835 C 272.923 -548.235 269.622 -557.035 269.622 -567.835 C 269.622 -578.645 273.064 -587.225 279.964 -594.035 C 286.865 -600.635 295.425 -604.035 305.626 -604.035 L 651.027 -604.035 C 661.788 -604.035 670.489 -600.635 677.11 -594.235 C 683.709 -587.645 687.029 -579.035 687.029 -568.235 C 687.029 -557.235 683.57 -548.625 676.669 -541.835 C 669.769 -535.225 661.226 -532.035 651.027 -532.035 L 305.626 -532.035 C 294.846 -532.035 286.165 -535.225 279.544 -541.835 Z M 365.781 -265.25 L 274.339 -265.25 C 266.556 -265.25 259.98 -267.97 254.612 -273.29 C 249.23 -278.73 246.546 -285.24 246.546 -293.17 C 246.546 -300.98 249.23 -307.48 254.612 -312.8 C 259.98 -318.12 266.556 -320.84 274.339 -320.84 L 365.781 -320.84 L 317.29 -369.33 C 312.169 -374.77 309.602 -381.28 309.602 -388.84 C 309.602 -396.42 312.37 -402.93 317.882 -408.36 C 323.404 -413.8 329.91 -416.63 337.395 -416.63 C 344.895 -416.63 351.399 -413.8 356.911 -408.36 L 452.117 -313.16 C 457.641 -307.59 460.397 -300.85 460.397 -293.04 C 460.397 -285.13 457.641 -278.37 452.117 -272.93 L 356.911 -177.73 C 351.399 -172.17 344.895 -169.46 337.395 -169.46 C 329.91 -169.46 323.404 -172.17 317.882 -177.73 C 312.37 -183.17 309.602 -189.68 309.602 -197.25 C 309.602 -204.7 312.37 -211.2 317.882 -216.75 L 365.781 -265.25 Z M 499.71 -181.549 C 491.927 -181.549 485.351 -184.279 479.983 -189.589 C 474.601 -195.029 471.916 -201.769 471.916 -210.049 C 471.916 -217.839 474.601 -224.349 479.983 -229.679 C 485.351 -234.999 491.927 -237.719 499.71 -237.719 L 656.417 -237.719 C 664.212 -237.719 670.882 -234.999 676.452 -229.569 C 682.023 -224.239 684.802 -217.609 684.802 -209.809 C 684.802 -201.539 682.023 -194.779 676.452 -189.469 C 670.882 -184.139 664.212 -181.549 656.417 -181.549 L 499.71 -181.549 Z M 570.671 -285.029 C 562.89 -285.029 556.314 -287.749 550.944 -293.069 C 545.563 -298.509 542.878 -305.019 542.878 -312.949 C 542.878 -320.759 545.563 -327.259 550.944 -332.579 C 556.314 -337.899 562.89 -340.619 570.671 -340.619 L 656.417 -340.619 C 664.212 -340.619 670.882 -337.899 676.452 -332.449 C 682.023 -327.139 684.802 -320.509 684.802 -312.699 C 684.802 -304.909 682.023 -298.279 676.452 -292.959 C 670.882 -287.629 664.212 -285.029 656.417 -285.029 L 570.671 -285.029 Z"/>
</svg>