<?xml version="1.0" encoding="utf-8"?>
<svg xmlns="http://www.w3.org/2000/svg" height="48" viewBox="0 -960 960 960" width="48">
  <path d="M 189 -444 L 433 -444 L 433 -604 L 189 -604 Z M 189 -698 L 771 -698 L 771 -771 L 189 -771 Z M 189 -95 C 162.967 -95 140.79 -104.157 122.47 -122.47 C 104.157 -140.79 95 -162.967 95 -189 L 95 -771 C 95 -797.307 104.157 -819.717 122.47 -838.23 C 140.79 -856.743 162.967 -866 189 -866 L 771 -866 C 797.307 -866 819.717 -856.743 838.23 -838.23 C 856.743 -819.717 866 -797.307 866 -771 L 866 -512.948 C 866 -499.781 861.247 -488.658 851.74 -479.578 C 842.227 -470.491 830.893 -465.948 817.74 -465.948 C 804.58 -465.948 793.5 -470.491 784.5 -479.578 C 775.5 -488.658 771 -499.781 771 -512.948 L 771 -604 L 527 -604 L 527 -444 L 587 -444 C 597.113 -444 604.307 -438.833 608.58 -428.5 C 612.86 -418.167 611.333 -409.667 604 -403 L 474 -274 C 466.667 -266.667 458 -264.847 448 -268.54 C 438 -272.233 433 -279.387 433 -290 L 433 -349 L 189 -349 L 189 -189 L 428.855 -189 C 442.022 -189 453.148 -184.44 462.235 -175.32 C 471.315 -166.207 475.855 -155.04 475.855 -141.82 C 475.855 -128.607 471.315 -117.5 462.235 -108.5 C 453.148 -99.5 442.022 -95 428.855 -95 Z M 611.516 -192.19 C 598.258 -192.19 586.803 -197.06 577.21 -206.51 C 567.617 -215.96 562.835 -227.7 562.835 -241.16 C 562.835 -254.61 567.617 -266.36 577.21 -276.38 C 586.803 -286.11 598.258 -290.98 611.516 -290.98 L 680.242 -290.98 L 680.242 -358.28 C 680.242 -372.02 684.767 -383.76 693.844 -393.5 C 702.922 -403.52 714.52 -408.39 728.666 -408.39 C 742.411 -408.39 754.238 -403.52 764.146 -393.5 C 774.082 -383.76 779.036 -372.02 779.036 -358.28 L 779.036 -290.98 L 846.331 -290.98 C 859.589 -290.98 871.015 -286.11 880.608 -276.38 C 890.201 -266.64 895.012 -254.9 895.012 -241.16 C 895.012 -227.7 890.201 -216.24 880.608 -206.51 C 871.015 -197.06 859.589 -192.19 846.331 -192.19 L 779.036 -192.19 L 779.036 -124.89 C 779.036 -111.15 774.254 -99.41 764.718 -89.669 C 755.183 -79.649 743.327 -74.779 729.181 -74.779 C 715.035 -74.779 703.323 -79.649 694.102 -89.669 C 684.853 -99.41 680.242 -111.15 680.242 -124.89 L 680.242 -192.19 Z"/>
</svg>