<?xml version="1.0" encoding="utf-8"?>
<svg viewBox="0 0 16 16" xmlns="http://www.w3.org/2000/svg">
  <path d="M 14.636 8.799 C 14.636 9.014 14.461 9.189 14.245 9.189 L 13.465 9.189 C 13.249 9.189 13.074 9.014 13.074 8.799 L 13.074 7.609 L 11.903 7.609 C 11.688 7.609 11.513 7.434 11.513 7.219 L 11.513 6.438 C 11.513 6.223 11.688 6.048 11.903 6.048 L 13.074 6.048 L 13.074 2.925 L 9.952 2.925 L 9.952 4.096 C 9.952 4.312 9.777 4.486 9.561 4.486 L 8.781 4.486 C 8.565 4.486 8.39 4.312 8.39 4.096 L 8.39 2.925 L 7.61 2.925 L 7.61 4.096 C 7.61 4.312 7.435 4.486 7.219 4.486 L 6.439 4.486 C 6.223 4.486 6.048 4.312 6.048 4.096 L 6.048 2.925 L 2.926 2.925 L 2.926 6.048 L 4.097 6.048 C 4.312 6.048 4.487 6.223 4.487 6.438 L 4.487 7.219 C 4.487 7.434 4.312 7.609 4.097 7.609 L 2.926 7.609 L 2.926 8.39 L 4.097 8.39 C 4.312 8.39 4.487 8.565 4.487 8.78 L 4.487 9.561 C 4.487 9.776 4.312 9.951 4.097 9.951 L 2.926 9.951 L 2.926 13.074 L 6.048 13.074 L 6.048 11.903 C 6.048 11.687 6.223 11.512 6.439 11.512 L 7.219 11.512 C 7.435 11.512 7.61 11.687 7.61 11.903 L 7.61 13.074 L 8.781 13.074 C 8.996 13.074 9.171 13.249 9.171 13.464 L 9.171 14.245 C 9.171 14.46 8.996 14.635 8.781 14.635 L 1.755 14.635 C 1.539 14.635 1.364 14.46 1.364 14.245 L 1.364 1.754 C 1.364 1.539 1.539 1.364 1.755 1.364 L 14.245 1.364 C 14.461 1.364 14.636 1.539 14.636 1.754 L 14.636 8.799 Z M 14.197 10.249 C 14.439 10.249 14.636 10.445 14.636 10.687 L 14.636 14.196 C 14.636 14.438 14.439 14.635 14.197 14.635 L 10.688 14.635 C 10.446 14.635 10.25 14.438 10.25 14.196 L 10.25 10.687 C 10.25 10.445 10.446 10.249 10.688 10.249 L 14.197 10.249 Z M 6.943 9.837 L 5.382 8.276 C 5.229 8.123 5.229 7.876 5.382 7.723 L 6.943 6.162 C 7.055 6.05 7.223 6.017 7.368 6.077 C 7.514 6.138 7.61 6.28 7.61 6.438 L 7.61 9.561 C 7.61 9.718 7.514 9.861 7.368 9.921 C 7.223 9.982 7.055 9.949 6.943 9.837 Z M 8.632 9.921 C 8.486 9.861 8.39 9.718 8.39 9.561 L 8.39 6.438 C 8.39 6.28 8.486 6.138 8.632 6.077 C 8.68 6.057 8.731 6.048 8.781 6.048 C 8.883 6.048 8.982 6.087 9.057 6.162 L 10.618 7.723 C 10.771 7.876 10.771 8.123 10.618 8.276 L 9.057 9.837 C 8.945 9.949 8.777 9.982 8.632 9.921 Z"/>
</svg>