<?xml version="1.0" encoding="utf-8"?>
<svg xmlns="http://www.w3.org/2000/svg" height="48" viewBox="0 -960 960 960" width="48">
  <path d="M 711.23 -84.47 C 694.132 -67.554 673.707 -58.451 649.955 -57.16 C 647.992 -57.053 646.007 -56.999 644 -56.999 L 316 -56.999 C 290.4 -56.999 268 -66.139 249.2 -84.459 C 230.4 -102.78 221 -124.96 221 -151 L 221 -809 C 221 -812.92 221.213 -816.75 221.64 -820.49 C 224.046 -841.61 233.232 -859.96 249.2 -875.52 C 268 -893.83 290.4 -903 316 -903 L 644 -903 C 646.33 -903 648.63 -902.93 650.901 -902.78 C 674.25 -901.31 694.36 -892.22 711.23 -875.53 C 715.499 -871.3 719.275 -866.88 722.56 -862.24 C 732.834 -847.77 738.27 -831.31 738.931 -812.86 C 738.977 -811.58 739 -810.3 739 -809 L 739 -151 C 739 -127.59 731.559 -107.31 716.554 -90.137 C 714.874 -88.209 713.099 -86.32 711.23 -84.47 Z M 450 -510 C 456.982 -510 463.033 -508.05 468.158 -504.14 C 469.284 -503.29 470.364 -502.35 471.4 -501.32 C 471.81 -500.9 472.206 -500.46 472.588 -500.03 C 477.527 -494.48 480 -487.75 480 -479.82 C 480 -479.82 480 -479.82 480 -479.82 C 480 -479.78 480 -479.75 480 -479.71 C 479.978 -471.96 477.578 -465.39 472.806 -460.01 C 472.357 -459.5 471.889 -458.99 471.4 -458.5 C 469.673 -456.8 467.819 -455.36 465.845 -454.18 C 462.058 -451.89 457.815 -450.54 453.113 -450.13 C 452.094 -450.04 451.057 -450 450 -450 L 316 -450 L 316 -330 L 450 -330 C 456.964 -330 463.001 -328.06 468.118 -324.17 C 469.258 -323.32 470.352 -322.37 471.4 -321.32 C 471.81 -320.9 472.206 -320.46 472.589 -320.03 C 477.527 -314.48 480 -307.75 480 -299.82 C 480 -299.82 480 -299.82 480 -299.82 C 480 -299.78 480 -299.75 480 -299.71 C 479.978 -291.93 477.563 -285.35 472.762 -279.96 C 472.327 -279.46 471.873 -278.98 471.4 -278.5 C 469.752 -276.88 467.989 -275.5 466.117 -274.34 C 462 -271.79 457.338 -270.36 452.127 -270.06 C 451.427 -270.02 450.718 -270 450 -270 L 316 -270 L 316 -151 L 644 -151 L 644 -808.99 L 316 -808.99 L 316 -510 L 450 -510 Z M 506.41 -542.59 C 499.371 -535.43 490.636 -531.81 480.622 -531.74 C 480.482 -531.74 480.341 -531.74 480.2 -531.74 C 475.672 -531.74 471.46 -532.45 467.51 -533.88 C 463.087 -535.46 459.016 -537.93 455.216 -541.28 C 454.74 -541.7 454.268 -542.13 453.8 -542.58 C 446.4 -549.8 442.8 -558.4 442.8 -568.38 L 442.8 -620.14 L 392 -620.14 C 381.8 -620.14 372.8 -623.54 365.6 -630.38 C 358 -637.22 354.4 -645.94 354.4 -656.6 C 354.4 -656.6 354.4 -656.6 354.4 -656.6 C 354.4 -656.6 354.4 -656.61 354.4 -656.61 C 354.4 -656.92 354.403 -657.24 354.41 -657.55 C 354.627 -667.49 358.235 -676.09 365.6 -683.34 C 370.926 -688.86 377.237 -692.33 384.29 -693.76 C 386.799 -694.28 389.412 -694.53 392.13 -694.53 L 442.8 -694.53 L 442.8 -745.2 C 442.8 -754.36 445.836 -762.38 452.063 -769.22 C 452.617 -769.84 453.196 -770.44 453.8 -771.03 C 454.12 -771.35 454.442 -771.66 454.768 -771.96 C 461.8 -778.57 470.452 -781.86 480.2 -781.86 C 480.467 -781.86 480.732 -781.86 480.997 -781.86 C 490.844 -781.7 499.244 -778.1 506.41 -771.03 C 512.395 -764.96 515.935 -757.9 516.912 -749.87 C 517.103 -748.35 517.2 -746.79 517.2 -745.2 L 517.2 -694.53 L 567.86 -694.53 C 578.21 -694.53 587.06 -690.93 594.39 -683.75 C 601.93 -676.57 605.6 -667.65 605.6 -656.99 C 605.6 -656.99 605.6 -656.99 605.6 -656.99 C 605.6 -656.98 605.6 -656.98 605.6 -656.98 C 605.6 -656.68 605.597 -656.39 605.591 -656.1 C 605.397 -646.17 601.949 -637.88 595.083 -631.24 C 594.859 -631.01 594.631 -630.8 594.4 -630.58 C 593.682 -629.9 592.95 -629.26 592.205 -628.64 C 588.147 -625.3 583.66 -622.95 578.745 -621.58 C 575.311 -620.62 571.666 -620.14 567.8 -620.14 L 517.2 -620.14 L 517.2 -568.38 C 517.2 -566.49 517.064 -564.65 516.795 -562.86 C 515.674 -555.19 512.177 -548.44 506.41 -542.59 Z" style=""/>
</svg>