<?xml version="1.0" encoding="utf-8"?>
<svg viewBox="0 0 22 22" xmlns="http://www.w3.org/2000/svg">
  <path d="M 14.5 3 L 14.5 6 C 14.5 6.276 14.276 6.5 14 6.5 L 13 6.5 C 12.724 6.5 12.5 6.276 12.5 6 L 12.5 4.5 L 9.5 4.5 L 9.5 12.5 L 10 12.5 C 10.276 12.5 10.5 12.724 10.5 13 L 10.5 14 C 10.5 14.276 10.276 14.5 10 14.5 L 7 14.5 C 6.724 14.5 6.5 14.276 6.5 14 L 6.5 13 C 6.5 12.724 6.724 12.5 7 12.5 L 7.5 12.5 L 7.5 4.5 L 4.5 4.5 L 4.5 6 C 4.5 6.276 4.276 6.5 4 6.5 L 3 6.5 C 2.724 6.5 2.5 6.276 2.5 6 L 2.5 3 C 2.5 2.724 2.724 2.5 3 2.5 L 14 2.5 C 14.276 2.5 14.5 2.724 14.5 3 Z M 17.5 14 L 17.5 15.5 L 19 15.5 C 19.276 15.5 19.5 15.724 19.5 16 L 19.5 17 C 19.5 17.276 19.276 17.5 19 17.5 L 17.5 17.5 L 17.5 19 C 17.5 19.276 17.276 19.5 17 19.5 L 16 19.5 C 15.724 19.5 15.5 19.276 15.5 19 L 15.5 17.5 L 14 17.5 C 13.724 17.5 13.5 17.276 13.5 17 L 13.5 16 C 13.5 15.724 13.724 15.5 14 15.5 L 15.5 15.5 L 15.5 14 C 15.5 13.724 15.724 13.5 16 13.5 L 17 13.5 C 17.276 13.5 17.5 13.724 17.5 14 Z"/>
</svg>