<?xml version="1.0" encoding="utf-8"?>
<svg xmlns="http://www.w3.org/2000/svg" height="48" viewBox="0 -960 960 960" width="48">
  <path d="M 151 -221 C 124.967 -221 102.79 -230.257 84.47 -248.77 C 66.157 -267.283 57 -289.693 57 -316 L 57 -644 C 57 -669.64 66.157 -691.883 84.47 -710.73 C 102.79 -729.577 124.967 -739 151 -739 L 809 -739 C 835.033 -739 857.21 -729.577 875.53 -710.73 C 893.843 -691.883 903 -669.64 903 -644 L 903 -316 C 903 -289.693 893.843 -267.283 875.53 -248.77 C 857.21 -230.257 835.033 -221 809 -221 Z M 151 -316 L 809 -316 L 809 -644 L 510 -644 L 510 -510 C 510 -501.5 507.107 -494.377 501.32 -488.63 C 495.54 -482.877 488.373 -480 479.82 -480 C 471.273 -480 464.167 -482.877 458.5 -488.63 C 452.833 -494.377 450 -501.5 450 -510 L 450 -644 L 330 -644 L 330 -510 C 330 -501.5 327.107 -494.377 321.32 -488.63 C 315.54 -482.877 308.373 -480 299.82 -480 C 291.273 -480 284.167 -482.877 278.5 -488.63 C 272.833 -494.377 270 -501.5 270 -510 L 270 -644 L 151 -644 Z M 568.396 -442.81 C 558.413 -442.81 549.809 -446.47 542.586 -453.59 C 535.363 -460.7 531.74 -469.54 531.74 -479.68 C 531.74 -490.03 535.363 -498.65 542.586 -506.2 C 549.809 -513.53 558.413 -517.19 568.396 -517.19 L 620.145 -517.19 L 620.145 -567.87 C 620.145 -578.22 623.551 -587.06 630.386 -594.39 C 637.222 -601.93 645.954 -605.6 656.606 -605.6 C 666.956 -605.6 675.861 -601.93 683.343 -594.39 C 690.803 -587.06 694.533 -578.22 694.533 -567.87 L 694.533 -517.19 L 745.204 -517.19 C 755.187 -517.19 763.812 -513.53 771.035 -506.2 C 778.259 -498.87 781.86 -490.03 781.86 -479.68 C 781.86 -469.54 778.259 -460.92 771.035 -453.59 C 763.812 -446.47 755.187 -442.81 745.204 -442.81 L 694.533 -442.81 L 694.533 -392.14 C 694.533 -381.79 690.933 -372.94 683.752 -365.61 C 676.572 -358.07 667.646 -354.4 656.994 -354.4 C 646.342 -354.4 637.523 -358.07 630.581 -365.61 C 623.616 -372.94 620.145 -381.79 620.145 -392.14 L 620.145 -442.81 Z"/>
</svg>