<?xml version="1.0" encoding="utf-8"?>
<svg xmlns="http://www.w3.org/2000/svg" height="48" viewBox="0 -960 960 960" width="48">
  <path d="M 149 -215 C 122.967 -215 100.79 -224.16 82.47 -242.48 C 64.157 -260.793 55 -282.967 55 -309 L 55 -651 C 55 -677.307 64.157 -699.717 82.47 -718.23 C 100.79 -736.743 122.967 -746 149 -746 L 811 -746 C 837.307 -746 859.717 -736.743 878.23 -718.23 C 896.743 -699.717 906 -677.307 906 -651 L 906 -309 C 906 -282.967 896.743 -260.793 878.23 -242.48 C 859.717 -224.16 837.307 -215 811 -215 L 149 -215 Z M 149 -309 L 811 -309 L 811 -651 L 149 -651 L 149 -309 Z M 314.698 -447.85 L 353.467 -408.734 C 358.98 -402.748 362.535 -394.002 362.725 -385.974 C 362.165 -378.175 358.433 -369.653 352.99 -363.736 C 347.055 -358.334 338.39 -354.31 330.322 -354.31 C 322.256 -354.31 313.57 -358.352 307.635 -363.755 L 213.957 -456.953 C 211.258 -459.855 208.606 -463.788 206.889 -467.542 C 205.318 -471.287 204.145 -476.025 204.145 -479.96 C 204.145 -483.79 205.332 -488.505 206.91 -492.238 C 208.6 -495.843 211.344 -499.853 214.102 -502.735 L 308.071 -596.203 C 314.086 -601.737 322.784 -605.7 330.8 -605.7 C 338.816 -605.7 347.471 -601.756 353.484 -596.244 C 359 -590.297 362.966 -581.602 362.966 -573.59 C 362.966 -565.545 359.005 -556.863 353.532 -550.851 L 314.227 -511.21 L 518.149 -511.21 L 518.149 -561.37 C 518.501 -569.465 522.073 -578.129 527.462 -584.006 C 533.457 -589.5 542.107 -593.29 550.125 -593.29 C 558.115 -593.29 566.784 -589.534 572.879 -584.106 C 578.425 -578.227 582.112 -569.511 582.483 -561.37 L 582.483 -502.19 C 582.126 -488.074 576.395 -474.137 566.661 -463.809 C 556.351 -453.962 542.222 -448.198 527.649 -447.85 L 314.698 -447.85 Z"/>
</svg>