<?xml version="1.0" encoding="utf-8"?>
<svg xmlns="http://www.w3.org/2000/svg" height="48" viewBox="0 -960 960 960" width="48">
  <path d="M 188.5 -238.5 L 188.5 -494.5 C 188.5 -505.67 192.56 -515.29 200.68 -523.38 C 208.793 -531.46 218.793 -535.5 230.68 -535.5 C 242.56 -535.5 252.333 -531.46 260 -523.38 C 267.667 -515.29 271.5 -505.67 271.5 -494.5 L 271.5 -237.5 C 271.5 -225.67 267.607 -215.88 259.82 -208.13 C 252.04 -200.38 242.207 -196.5 230.32 -196.5 C 218.44 -196.5 208.5 -200.54 200.5 -208.63 C 192.5 -216.71 188.5 -226.67 188.5 -238.5 Z M 442.5 -237.5 L 442.5 -494.5 C 442.5 -505.67 446.56 -515.29 454.68 -523.38 C 462.793 -531.46 472.46 -535.5 483.68 -535.5 C 494.893 -535.5 504.5 -531.46 512.5 -523.38 C 520.5 -515.29 524.5 -505.67 524.5 -494.5 L 524.5 -237.5 C 524.5 -226.33 520.44 -216.71 512.32 -208.63 C 504.207 -200.54 494.54 -196.5 483.32 -196.5 C 472.107 -196.5 462.5 -200.54 454.5 -208.63 C 446.5 -216.71 442.5 -226.33 442.5 -237.5 Z M 101.5 -65.5 C 88.333 -65.5 77.21 -70.06 68.13 -79.18 C 59.043 -88.293 54.5 -99.46 54.5 -112.68 C 54.5 -125.89 59.043 -137 68.13 -146 C 77.21 -155 88.333 -159.5 101.5 -159.5 L 857.5 -159.5 C 870.667 -159.5 881.96 -154.94 891.38 -145.82 C 900.793 -136.71 905.5 -125.54 905.5 -112.32 C 905.5 -99.11 900.793 -88 891.38 -79 C 881.96 -70 870.667 -65.5 857.5 -65.5 L 101.5 -65.5 Z M 687.5 -238.5 L 687.5 -494.5 C 687.5 -505.67 691.56 -515.29 699.68 -523.38 C 707.793 -531.46 717.793 -535.5 729.68 -535.5 C 741.56 -535.5 751.333 -531.46 759 -523.38 C 766.667 -515.29 770.5 -505.67 770.5 -494.5 L 770.5 -237.5 C 770.5 -225.67 766.607 -215.88 758.82 -208.13 C 751.04 -200.38 741.207 -196.5 729.32 -196.5 C 717.44 -196.5 707.5 -200.54 699.5 -208.63 C 691.5 -216.71 687.5 -226.67 687.5 -238.5 Z M 858.5 -572.5 L 95.5 -572.5 C 83.78 -572.5 74.017 -576.57 66.21 -584.71 C 58.403 -592.85 54.5 -602.45 54.5 -613.5 L 54.5 -642.5 C 54.5 -649.83 56.333 -656.83 60 -663.5 C 63.667 -670.17 68.833 -675.5 75.5 -679.5 L 434.5 -883.5 C 447.947 -890.83 462.947 -894.5 479.5 -894.5 C 496.053 -894.5 511.053 -890.83 524.5 -883.5 L 880.5 -681.5 C 887.833 -676.83 893.833 -670.83 898.5 -663.5 C 903.167 -656.17 905.5 -648 905.5 -639 L 905.5 -620.77 C 905.5 -607.04 901.01 -595.57 892.03 -586.34 C 883.043 -577.11 871.867 -572.5 858.5 -572.5 Z M 252.5 -667.5 L 706.5 -667.5 L 252.5 -667.5 Z M 252.5 -667.5 L 706.5 -667.5 L 479.5 -799.5 L 252.5 -667.5 Z"/>
</svg>