<?xml version="1.0" encoding="utf-8"?>
<svg xmlns="http://www.w3.org/2000/svg" height="48" viewBox="0 -960 960 960" width="48">
  <path d="M 305 -305 L 190 -305 C 176.833 -305 165.71 -309.56 156.63 -318.68 C 147.543 -327.793 143 -338.96 143 -352.18 C 143 -365.393 147.543 -376.5 156.63 -385.5 C 165.71 -394.5 176.833 -399 190 -399 L 305 -399 L 305 -561 L 190 -561 C 176.833 -561 165.71 -565.56 156.63 -574.68 C 147.543 -583.793 143 -594.96 143 -608.18 C 143 -621.393 147.543 -632.667 156.63 -642 C 165.71 -651.333 176.833 -656 190 -656 L 305 -656 L 305 -770 C 305 -783.167 309.56 -794.293 318.68 -803.38 C 327.793 -812.46 338.96 -817 352.18 -817 C 365.393 -817 376.5 -812.46 385.5 -803.38 C 394.5 -794.293 399 -783.167 399 -770 L 399 -656 L 561 -656 L 561 -770 C 561 -783.167 565.56 -794.293 574.68 -803.38 C 583.793 -812.46 594.96 -817 608.18 -817 C 621.393 -817 632.667 -812.46 642 -803.38 C 651.333 -794.293 656 -783.167 656 -770 L 656 -656 L 770 -656 C 783.167 -656 794.293 -651.273 803.38 -641.82 C 812.46 -632.373 817 -621.04 817 -607.82 C 817 -594.607 812.46 -583.5 803.38 -574.5 C 794.293 -565.5 783.167 -561 770 -561 L 399 -561 L 399 -190 C 399 -176.833 394.44 -165.71 385.32 -156.63 C 376.207 -147.543 365.04 -143 351.82 -143 C 338.607 -143 327.5 -147.543 318.5 -156.63 C 309.5 -165.71 305 -176.833 305 -190 L 305 -305 Z M 658.686 -143 C 614.646 -143 577.266 -158.37 546.509 -189.14 C 515.75 -219.89 500.371 -257.35 500.371 -301.68 C 500.371 -346.01 515.75 -383.46 546.509 -413.86 C 577.266 -444.43 614.646 -459.62 658.686 -459.62 C 702.706 -459.62 740.104 -444.43 770.863 -413.86 C 801.62 -383.46 817 -346.01 817 -301.68 C 817 -257.35 801.62 -219.89 770.863 -189.14 C 740.104 -158.37 702.706 -143 658.686 -143 Z"/>
</svg>