<?xml version="1.0" encoding="utf-8"?>
<svg xmlns="http://www.w3.org/2000/svg" height="48" viewBox="0 -960 960 960" width="48">
  <path d="M 794.895 -466.89 L 693.015 -466.89 C 680.855 -466.89 670.795 -470.82 662.835 -478.67 C 654.875 -486.52 650.895 -496.24 650.895 -507.85 C 650.895 -519.46 654.922 -529.21 662.975 -537.08 C 671.022 -544.95 680.995 -548.89 692.895 -548.89 L 794.895 -548.89 C 806.508 -548.89 816.245 -544.96 824.105 -537.11 C 831.965 -529.26 835.895 -519.54 835.895 -507.93 C 835.895 -496.32 831.965 -486.58 824.105 -478.7 C 816.245 -470.83 806.508 -466.89 794.895 -466.89 Z M 254.104 -362.89 L 207.104 -362.89 C 183.271 -365.56 163.481 -375.95 147.734 -394.08 C 131.981 -412.21 124.104 -433.14 124.104 -456.89 L 124.104 -558.89 C 124.104 -585.02 133.407 -607.38 152.014 -625.98 C 170.614 -644.59 192.977 -653.89 219.104 -653.89 L 382.104 -653.89 L 544.104 -749.89 C 560.104 -759.22 575.937 -759.51 591.604 -750.74 C 607.271 -741.97 615.104 -728.36 615.104 -709.89 L 615.104 -305.89 C 615.104 -287.42 607.271 -273.81 591.604 -265.04 C 575.937 -256.27 560.104 -256.56 544.104 -265.89 L 382.104 -362.89 L 353.104 -362.89 L 353.104 -251.89 C 353.104 -238.06 348.377 -226.43 338.924 -217.02 C 329.477 -207.6 317.811 -202.89 303.924 -202.89 C 290.044 -202.89 278.271 -207.6 268.604 -217.02 C 258.937 -226.43 254.104 -238.06 254.104 -251.89 L 254.104 -362.89 Z M 520.104 -388.89 L 520.104 -626.89 L 405.104 -558.89 L 219.104 -558.89 L 219.104 -456.89 L 405.104 -456.89 L 520.104 -388.89 Z M 370.104 -507.89 Z"/>
</svg>