<?xml version="1.0" encoding="utf-8"?>
<svg xmlns="http://www.w3.org/2000/svg" height="48" viewBox="0 -960 960 960" width="48">
  <path d="M 149 -307 C 122.767 -307 100.543 -316.11 82.33 -334.33 C 64.11 -352.54 55 -374.77 55 -401 L 55 -559 C 55 -585.23 64.11 -607.46 82.33 -625.67 C 100.543 -643.89 122.767 -653 149 -653 L 307 -653 C 333.233 -653 355.457 -643.89 373.67 -625.67 C 391.89 -607.46 401 -585.23 401 -559 L 401 -401 C 401 -374.77 391.89 -352.54 373.67 -334.33 C 355.457 -316.11 333.233 -307 307 -307 Z M 306 -558 L 150 -558 L 150 -402 L 306 -402 Z M 570 -433 C 556.913 -433 545.643 -437.5 536.19 -446.5 C 526.73 -455.5 522 -466.61 522 -479.82 C 522 -493.04 526.73 -504.21 536.19 -513.32 C 545.643 -522.44 556.913 -527 570 -527 L 846 -527 C 859.833 -527 871.29 -522.5 880.37 -513.5 C 889.457 -504.5 894 -493.39 894 -480.18 C 894 -466.96 889.457 -455.79 880.37 -446.68 C 871.29 -437.56 859.833 -433 846 -433 Z M 103.003 -755.01 C 89.922 -755.01 78.641 -759.41 69.181 -768.4 C 59.72 -777.41 55 -788.6 55 -801.61 C 55 -814.81 59.72 -826.21 69.181 -835.61 C 78.641 -845.22 89.922 -850 103.003 -850 L 846.059 -850 C 859.909 -850 871.349 -845.22 880.429 -835.8 C 889.529 -826.4 894.069 -815.22 894.069 -802.01 C 894.069 -788.81 889.529 -777.8 880.429 -768.61 C 871.349 -759.6 859.909 -755.01 846.059 -755.01 Z M 103 -110 C 89.913 -110 78.643 -114.5 69.19 -123.5 C 59.73 -132.5 55 -143.58 55 -156.74 C 55 -169.89 59.73 -181.23 69.19 -190.74 C 78.643 -200.25 89.913 -205 103 -205 L 846 -205 C 859.833 -205 871.29 -200.3 880.37 -190.91 C 889.457 -181.52 894 -170.24 894 -157.09 C 894 -143.93 889.457 -132.79 880.37 -123.68 C 871.29 -114.56 859.833 -110 846 -110 Z" style=""/>
</svg>