<?xml version="1.0" encoding="utf-8"?>
<svg xmlns="http://www.w3.org/2000/svg" height="48" viewBox="0 -960 960 960" width="48">
  <path d="M 270.485 -94.5 C 244.175 -94.5 221.765 -103.65 203.255 -121.97 C 184.745 -140.29 175.485 -162.46 175.485 -188.5 L 175.485 -244.5 L 156.485 -244.5 C 145.315 -244.5 135.695 -248.63 127.605 -256.89 C 119.525 -265.15 115.485 -274.75 115.485 -285.69 C 115.485 -296.9 119.525 -306.51 127.605 -314.51 C 135.695 -322.5 145.315 -326.5 156.485 -326.5 L 175.485 -326.5 L 175.485 -632.5 L 156.485 -632.5 C 145.315 -632.5 135.695 -636.63 127.605 -644.89 C 119.525 -653.15 115.485 -662.75 115.485 -673.68 C 115.485 -684.91 119.525 -694.52 127.605 -702.51 C 135.695 -710.5 145.315 -714.5 156.485 -714.5 L 175.485 -714.5 L 175.485 -770.5 C 175.485 -796.8 184.745 -819.21 203.255 -837.73 C 221.765 -856.24 244.175 -865.5 270.485 -865.5 L 750.515 -865.5 C 757.48 -865.5 764.168 -864.837 770.582 -863.512 C 788.307 -859.909 803.895 -851.412 817.345 -838.02 C 835.935 -819.7 845.145 -797.52 845.145 -771.5 L 845.145 -521.5 C 845.145 -508.321 840.335 -497.2 830.935 -488.121 C 821.345 -479.041 810.145 -474.5 796.955 -474.5 C 783.745 -474.5 772.745 -479.041 763.745 -488.121 C 754.745 -497.2 750.145 -508.321 750.145 -521.5 L 750.145 -770.5 L 393.245 -770.5 L 393.245 -189.501 L 514.843 -189.501 C 528.033 -189.501 539.243 -184.941 548.243 -175.821 C 557.433 -166.701 561.843 -155.561 561.843 -142.4 C 561.843 -129.241 557.433 -117.981 548.243 -108.581 C 539.243 -99.181 528.033 -94.501 514.843 -94.501 L 405.768 -94.501 L 405.768 -94.5 Z M 333.245 -770.5 L 271.436 -770.5 L 271.436 -189.501 L 333.245 -189.501 Z M 479.515 -475.6 C 469.602 -475.6 461.288 -478.92 454.575 -485.58 C 447.868 -492.22 444.515 -500.79 444.515 -511.28 C 444.515 -521.48 447.868 -529.91 454.575 -536.59 C 461.288 -543.26 469.602 -546.6 479.515 -546.6 L 592.916 -546.6 C 602.836 -546.6 611.149 -543.22 617.856 -536.48 C 624.563 -529.73 627.916 -521.37 627.916 -511.41 C 627.916 -500.87 624.563 -492.26 617.856 -485.6 C 611.149 -478.93 602.836 -475.6 592.916 -475.6 Z M 479.515 -616.34 C 469.602 -616.34 461.288 -619.79 454.575 -626.71 C 447.868 -633.62 444.515 -642.19 444.515 -652.41 C 444.515 -662.35 447.868 -670.82 454.575 -677.83 C 461.288 -684.83 469.602 -688.34 479.515 -688.34 L 658.974 -689.55 C 668.894 -689.55 677.207 -685.98 683.914 -678.86 C 690.621 -671.72 693.974 -663.19 693.974 -653.25 C 693.974 -643.31 690.621 -634.87 683.914 -627.94 C 677.207 -621.01 668.894 -617.55 658.974 -617.55 Z M 698.988 -294.501 L 698.988 -374.501 C 698.988 -385.48 702.988 -394.881 710.988 -402.74 C 718.788 -410.581 728.378 -414.5 739.388 -414.5 C 750.578 -414.5 759.988 -410.581 767.588 -402.74 C 775.188 -394.881 778.978 -385.48 778.978 -374.501 L 778.978 -294.501 L 858.988 -294.501 C 869.988 -294.501 879.388 -290.541 887.388 -282.62 C 895.188 -274.701 898.988 -265.2 898.988 -254.12 C 898.988 -243.04 895.188 -233.661 887.388 -226 C 879.388 -218.32 869.988 -214.501 858.988 -214.501 L 778.978 -214.501 L 778.978 -134.501 C 778.978 -123.52 775.188 -114.101 767.188 -106.262 C 759.188 -98.42 749.788 -94.501 738.588 -94.501 C 727.588 -94.501 718.188 -98.42 710.578 -106.262 C 702.988 -114.101 698.988 -123.52 698.988 -134.501 L 698.988 -214.501 L 618.988 -214.501 C 607.988 -214.501 598.598 -218.44 590.788 -226.361 C 582.988 -234.281 578.988 -243.781 578.988 -254.861 C 578.988 -265.941 582.988 -275.32 590.788 -283.001 C 598.598 -290.661 607.988 -294.501 618.988 -294.501 Z" style=""/>
</svg>