<?xml version="1.0" encoding="utf-8"?>
<svg xmlns="http://www.w3.org/2000/svg" height="48" viewBox="0 -960 960 960" width="48">
  <path d="M 220 -650 C 194.667 -659.333 174.167 -675.023 158.5 -697.07 C 142.833 -719.117 135 -744.427 135 -773 C 135 -773.168 135 -773.336 135.001 -773.505 C 135 -773.67 135 -773.835 135 -774 C 135 -800.857 141.922 -824.82 155.765 -845.797 C 160.663 -853.313 166.428 -860.451 173.06 -867.21 C 198.433 -893.07 229.6 -906 266.56 -906 C 266.654 -906 266.747 -906 266.84 -906 C 266.933 -906 267.025 -906 267.118 -906 C 304.079 -906 335.479 -892.988 361.278 -867.402 C 387.079 -841.79 400 -810.58 400 -774 C 400 -773.834 400 -773.669 399.999 -773.503 C 400 -773.336 400 -773.168 400 -773 C 400 -744.06 391.833 -718.66 375.5 -696.8 C 359.167 -674.933 338.667 -659.333 314 -650 L 314 -642 C 316 -609.41 329.039 -582 353.159 -559.59 C 363.859 -549.649 375.383 -541.917 387.731 -536.39 C 402.767 -530.13 419.19 -527 437 -527 L 523.501 -527 C 541.321 -527 557.741 -529.99 572.78 -536.4 C 585.119 -541.8 596.64 -549.61 607.341 -559.59 C 631.46 -581.99 644.5 -609.39 646.5 -642 L 646.5 -650 C 621.84 -659.4 601.339 -675.01 585.001 -696.8 C 568.68 -718.6 560.5 -744 560.5 -772.99 C 560.5 -773.2 560.5 -773.4 560.5 -773.4 C 560.5 -773.59 560.5 -773.81 560.5 -774 C 560.5 -810.61 573.42 -841.8 599.22 -867.41 C 625.02 -893 656.421 -906 693.38 -906 C 693.481 -906 693.58 -906 693.66 -906 C 693.761 -906 693.86 -906 693.94 -906 C 730.9 -906 762.079 -893 787.44 -867.2 C 794.079 -860.4 799.84 -853.2 804.74 -845.79 C 818.58 -824.79 825.5 -800.8 825.5 -774 C 825.5 -773.81 825.5 -773.59 825.5 -773.4 C 825.5 -773.4 825.5 -773.2 825.5 -772.99 C 825.5 -744.4 817.681 -719.01 802 -697 C 786.34 -675.01 765.841 -659.4 740.5 -650 L 739.5 -648.19 L 739.5 -640.99 C 738.18 -582.59 716.541 -533.4 674.62 -493.19 C 669.816 -488.585 664.896 -484.246 659.861 -480.17 C 665.067 -475.981 670.15 -471.511 675.11 -466.76 C 717.037 -426.593 738.667 -377.34 740 -319 L 740 -311.823 L 740.996 -309.99 C 766.316 -300.59 786.814 -285 802.496 -262.8 C 818.102 -240.863 825.943 -215.558 825.995 -187.271 C 825.998 -186.848 826 -186.424 826 -186 C 826 -159.85 819.468 -136.498 806.403 -115.944 C 801.26 -107.73 795.104 -99.951 787.937 -92.6 C 762.555 -66.8 731.395 -54 694.436 -54 C 694.343 -54 694.25 -54 694.157 -54 C 694.065 -54 693.972 -54 693.88 -54 C 656.907 -54 625.517 -66.833 599.71 -92.5 C 573.903 -118.167 561 -149.333 561 -186 C 561 -186.006 561 -186.012 561 -186.017 C 560.998 -186.341 560.997 -186.665 560.997 -186.99 C 560.997 -215.8 569.157 -241.19 585.498 -263.2 C 601.817 -285 622.316 -300.59 646.998 -309.99 L 646.998 -317.98 C 646.996 -318.033 646.994 -318.086 646.991 -318.139 C 644.963 -350.578 631.909 -377.992 607.83 -400.38 C 597.114 -410.343 585.573 -418.092 573.209 -423.627 C 558.186 -429.875 541.781 -433 523.997 -433 L 436.501 -433 C 418.72 -433 402.319 -429.79 387.3 -423.6 C 374.941 -418 363.399 -410.2 352.681 -400.41 C 328.601 -377.99 315.539 -350.61 313.519 -318.21 C 313.519 -318 313.5 -318 313.5 -318 L 313.5 -310 C 338.181 -300.6 358.68 -285.01 374.999 -263.2 C 391.34 -241.21 399.5 -215.81 399.5 -186.99 C 399.5 -186.6 399.5 -186.19 399.5 -186 C 399.5 -149.39 386.6 -118.2 360.799 -92.39 C 334.98 -66.8 303.6 -54 266.62 -54 C 266.541 -54 266.44 -54 266.34 -54 C 266.26 -54 266.159 -54 266.06 -54 C 229.1 -54 197.94 -66.8 172.56 -92.61 C 165.401 -100 159.24 -107.59 154.101 -116 C 141.041 -136.39 134.5 -159.8 134.5 -186 C 134.5 -186.41 134.5 -186.8 134.5 -187.2 C 134.561 -215.6 142.399 -240.8 158 -262.81 C 173.701 -285.01 194.18 -300.6 219.5 -310 L 220.5 -311.81 L 220.5 -319.01 C 221.841 -377.41 243.459 -426.6 285.4 -466.81 C 290.36 -471.542 295.443 -475.996 300.649 -480.173 C 295.61 -484.253 290.687 -488.599 285.88 -493.21 C 243.959 -533.38 222.32 -582.6 221 -640.99 L 221 -648.16 Z M 695.05 -142 C 707.777 -142 718.283 -146.427 726.57 -155.28 C 734.696 -163.961 738.838 -174.387 738.995 -186.556 C 738.996 -186.701 738.997 -186.845 738.997 -186.99 C 738.997 -199.59 734.557 -210.19 725.715 -219 C 716.855 -227.61 706.156 -232.01 693.637 -232.01 C 681.116 -232.01 670.537 -227.39 661.916 -218.59 C 653.297 -209.79 648.997 -199.21 648.997 -186.6 C 648.997 -176.863 651.648 -168.112 656.951 -160.436 C 658.441 -158.544 660.118 -156.732 661.98 -155 C 671.3 -146.333 682.323 -142 695.05 -142 Z M 267.35 -728 C 279.877 -728 290.45 -732.427 299.07 -741.28 C 307.69 -750.133 312 -760.8 312 -773.28 C 312 -783.275 309.24 -792.153 303.72 -799.916 C 302.313 -801.674 300.747 -803.368 299.02 -805 C 289.701 -813.59 278.66 -817.99 265.94 -817.99 C 253.22 -817.99 242.701 -813.59 234.42 -804.59 C 226.158 -795.809 222.019 -785.236 222.001 -772.681 C 222.079 -760.15 226.506 -749.59 235.28 -741 C 244.133 -732.333 254.823 -728 267.35 -728 Z M 298.52 -155 C 300.38 -156.59 302.059 -158.6 303.56 -160.41 C 308.86 -168 311.499 -176.79 311.499 -186.6 C 311.499 -199.19 307.201 -209.8 298.58 -218.59 C 289.961 -227.41 279.38 -232 266.86 -232 C 254.339 -232 243.64 -227.6 234.78 -219 C 225.939 -210.21 221.5 -199.6 221.5 -186.99 C 221.5 -186.8 221.5 -186.6 221.5 -186.6 C 221.66 -174.4 225.799 -164.01 233.939 -155.19 C 242.22 -146.4 252.72 -142 265.461 -142 C 278.18 -142 289.2 -146.2 298.52 -155 Z M 725.22 -741 C 734 -749.6 738.42 -759.99 738.5 -772.6 C 738.48 -785.19 734.341 -795.8 726.08 -804.59 C 717.8 -813.6 707.28 -818 694.561 -818 C 681.84 -818 670.8 -813.6 661.481 -805 C 659.76 -803.41 658.2 -801.6 656.781 -799.81 C 651.26 -792.2 648.501 -783.21 648.501 -773.2 C 648.501 -760.81 652.821 -750.01 661.44 -741.19 C 670.06 -732.4 680.62 -728 693.16 -728 C 705.68 -728 716.379 -732.4 725.22 -741 Z"/>
</svg>