<?xml version="1.0" encoding="utf-8"?>
<svg xmlns="http://www.w3.org/2000/svg" height="48" viewBox="0 -960 960 960" width="48">
  <path d="M 479.82 -55 C 466.607 -55 455.5 -59.543 446.5 -68.63 C 437.5 -77.71 433 -88.833 433 -102 L 433 -858 C 433 -871.087 437.56 -882.357 446.68 -891.81 C 455.793 -901.27 466.96 -906 480.18 -906 C 493.393 -906 504.5 -901.27 513.5 -891.81 C 522.5 -882.357 527 -871.087 527 -858 L 527 -826 L 811 -826 C 837.307 -826 859.717 -816.743 878.23 -798.23 C 896.743 -779.717 906 -757.307 906 -731 L 906 -229 C 906 -202.967 896.743 -180.793 878.23 -162.48 C 859.717 -144.16 837.307 -135 811 -135 L 527 -135 L 527 -102 C 527 -88.833 522.44 -77.71 513.32 -68.63 C 504.207 -59.543 493.04 -55 479.82 -55 Z M 527 -229 L 811 -229 L 811 -731 L 527 -731 Z M 241.539 -327.24 L 241.539 -598.84 C 241.539 -613.28 246.562 -625.79 256.629 -636.19 C 266.697 -646.58 279.016 -651.77 293.606 -651.77 C 308.197 -651.77 320.631 -646.58 330.948 -636.19 C 341.246 -625.79 346.385 -613.28 346.385 -598.84 L 346.385 -327.24 C 346.385 -312.62 341.169 -300.5 330.737 -290.48 C 320.322 -280.28 307.811 -275.27 293.221 -275.27 C 278.631 -275.27 266.369 -280.28 256.437 -290.48 C 246.505 -300.5 241.539 -312.62 241.539 -327.24 Z M 55 -447.55 L 55 -479.51 C 55 -494.13 60.025 -506.25 70.091 -516.46 C 80.158 -526.48 92.477 -531.47 107.067 -531.47 C 121.658 -531.47 133.919 -526.48 143.852 -516.46 C 153.783 -506.25 158.749 -494.13 158.749 -479.51 L 158.749 -447.55 C 158.749 -432.92 153.727 -420.8 143.659 -410.78 C 133.592 -400.58 121.272 -395.58 106.682 -395.58 C 92.092 -395.58 79.831 -400.58 69.899 -410.78 C 59.966 -420.8 55 -432.92 55 -447.55 Z"/>
</svg>