<?xml version="1.0" encoding="utf-8"?>
<svg xmlns="http://www.w3.org/2000/svg" height="48" viewBox="0 -960 960 960" width="48">
  <path d="M 189 -95 C 162.967 -95 140.79 -104.157 122.47 -122.47 C 104.157 -140.79 95 -162.967 95 -189 L 95 -771 C 95 -797.307 104.157 -819.717 122.47 -838.23 C 140.79 -856.743 162.967 -866 189 -866 L 525 -866 C 538.167 -866 549.293 -861.247 558.38 -851.74 C 567.46 -842.227 572 -830.893 572 -817.74 C 572 -804.58 567.46 -793.5 558.38 -784.5 C 549.293 -775.5 538.167 -771 525 -771 L 189 -771 L 189 -189 L 771 -189 L 771 -525 C 771 -538.167 775.56 -549.293 784.68 -558.38 C 793.793 -567.46 804.93 -572 818.09 -572 C 831.243 -572 842.517 -567.46 851.91 -558.38 C 861.303 -549.293 866 -538.167 866 -525 L 866 -189 C 866 -162.967 856.743 -140.79 838.23 -122.47 C 819.717 -104.157 797.307 -95 771 -95 L 189 -95 Z M 733.91 -602 C 723.97 -602 715.483 -605.493 708.45 -612.48 C 701.41 -619.467 697.89 -628.123 697.89 -638.45 L 697.89 -697.89 L 637.45 -697.89 C 627.403 -697.89 618.983 -701.4 612.19 -708.42 C 605.397 -715.44 602 -724.06 602 -734.28 C 602 -744.22 605.497 -752.49 612.49 -759.09 C 619.49 -765.697 628.16 -769 638.5 -769 L 698 -769 L 698 -829.6 C 698 -839.68 701.467 -848.267 708.4 -855.36 C 715.333 -862.453 723.927 -866 734.18 -866 C 744.147 -866 752.44 -862.453 759.06 -855.36 C 765.687 -848.267 769 -839.68 769 -829.6 L 769 -769 L 829.6 -769 C 839.68 -769 848.267 -765.627 855.36 -758.88 C 862.453 -752.133 866 -743.777 866 -733.81 C 866 -723.837 862.453 -715.373 855.36 -708.42 C 848.267 -701.473 839.68 -698 829.6 -698 L 769 -698 L 769 -637.5 C 769 -627.44 765.637 -619.01 758.91 -612.21 C 752.183 -605.403 743.85 -602 733.91 -602 L 733.91 -602 Z"/>
</svg>