<?xml version="1.0" encoding="utf-8"?>
<svg xmlns="http://www.w3.org/2000/svg" height="48" viewBox="0 -960 960 960" width="48">
  <path d="M 96.44 -61.5 C 70.133 -61.5 47.723 -70.657 29.21 -88.97 C 10.696 -107.29 1.44 -129.47 1.44 -155.5 L 1.44 -802.5 C 1.44 -828.81 10.696 -851.38 29.21 -870.23 C 47.723 -889.08 70.133 -898.5 96.44 -898.5 L 865.559 -898.5 C 891.119 -898.5 913.009 -889.08 931.229 -870.23 C 949.449 -851.38 958.559 -828.81 958.559 -802.5 L 958.559 -155.5 C 958.559 -129.47 949.449 -107.29 931.229 -88.97 C 913.009 -70.657 891.119 -61.5 865.559 -61.5 Z M 282.44 -155.5 L 680.559 -155.5 L 680.559 -279.809 C 684.848 -286.294 690.41 -295.123 692.217 -299.63 C 694.591 -305.57 697.08 -316.25 698.193 -323.19 L 698.78 -326.83 L 698.579 -329.82 C 697.975 -338.81 695.744 -352.99 692.897 -360.48 C 690.744 -366.13 685.791 -374.43 681.134 -381.19 C 687.67 -388.23 693.818 -395.56 699.564 -403.05 C 709.469 -416.44 719.984 -433.61 727.652 -448.94 C 730.522 -455.68 734.515 -467.93 736.055 -475.24 C 736.765 -480.29 737.661 -489.13 737.661 -494.55 C 737.661 -502.15 735.752 -513.63 734.262 -519.99 C 732.764 -525 729.797 -533.34 727.659 -538.26 C 716.69 -560.02 700.605 -585.27 684.952 -603.34 C 683.531 -604.978 682.065 -606.619 680.559 -608.26 L 680.559 -802.5 L 282.44 -802.5 L 282.44 -706.74 C 282.315 -706.686 282.191 -706.633 282.07 -706.58 C 274.696 -703.34 263.839 -695.83 257.716 -690.8 L 254.383 -688.08 L 251.603 -684.38 C 247.345 -678.74 240.836 -668.65 237.888 -661.71 C 234.89 -654.63 231.065 -639.53 231.065 -629.25 C 231.065 -618.54 235.318 -602.51 238.795 -594.99 C 240.945 -590.33 244.846 -584.33 248.715 -579.04 L 251.702 -574.29 C 245.298 -564.54 239.166 -554.18 234.165 -544.6 C 232.527 -540.43 227.609 -527.87 226.023 -522.36 C 224.391 -515.27 222.339 -502.68 222.339 -494.55 C 222.339 -487.02 223.91 -475.8 225.315 -469.08 C 226.914 -463.38 230.143 -453.89 232.548 -448.26 C 245.35 -425.539 262.852 -401.734 282.44 -380.401 Z M 96.44 -155.5 L 187.44 -155.5 L 187.44 -246.5 L 96.44 -246.5 Z M 773.559 -155.5 L 865.559 -155.5 L 865.559 -246.5 L 773.559 -246.5 Z M 96.44 -339.5 L 187.44 -339.5 L 187.44 -431.5 L 96.44 -431.5 Z M 773.559 -339.5 L 865.559 -339.5 L 865.559 -431.5 L 773.559 -431.5 Z M 96.44 -525.5 L 187.44 -525.5 L 187.44 -617.5 L 96.44 -617.5 Z M 773.559 -525.5 L 865.559 -525.5 L 865.559 -617.5 L 773.559 -617.5 Z M 96.44 -711.5 L 187.44 -711.5 L 187.44 -802.5 L 96.44 -802.5 Z M 773.559 -711.5 L 865.559 -711.5 L 865.559 -802.5 L 773.559 -802.5 Z M 534.892 -550.09 C 540.712 -544.15 545.961 -535.9 549.757 -526.63 C 553.442 -517.33 555.323 -507.64 555.117 -498.69 C 554.831 -492.14 551.923 -485.08 547.714 -480.42 C 543.072 -476.31 536.086 -473.24 529.555 -473.24 C 523.014 -473.24 515.959 -476.43 511.364 -480.55 C 507.24 -485.21 504.468 -492.17 504.192 -498.69 L 504.123 -500.32 L 504.829 -501.82 C 506.753 -505.93 507.087 -508.44 506.063 -511.82 C 505.359 -515.53 504.197 -517.61 501.538 -520.04 C 499.184 -522.67 497.158 -523.72 493.422 -524.33 C 489.93 -525.23 487.589 -524.82 483.788 -522.7 L 482.109 -521.76 L 480.208 -521.86 C 474.078 -522.14 467.31 -524.9 462.737 -529.03 C 458.645 -533.59 455.575 -540.4 455.575 -546.57 C 455.575 -552.75 458.735 -559.55 462.812 -564.09 C 467.346 -568.1 473.527 -570.79 479.657 -571.09 C 489.191 -571.63 499.747 -569.86 509.489 -566.25 C 519.194 -562.4 528.129 -556.68 534.892 -550.09 Z M 483.531 -586.25 C 476.513 -586.25 469.781 -585.95 462.92 -585.29 C 456.186 -584.6 450.182 -583.5 444.111 -581.62 L 443.51 -581.42 L 443.039 -581.37 C 436.73 -580.52 429.617 -581.51 424.037 -583.95 C 418.325 -586.97 413.366 -592.47 410.869 -598.35 C 408.684 -604.51 409.008 -612.1 411.713 -617.95 C 414.977 -623.14 420.24 -627.49 426.171 -629.29 C 435.188 -632.25 444.729 -634.25 453.872 -635.3 C 462.846 -636.25 472.173 -636.76 481.454 -636.76 C 521.891 -636.76 560.04 -624.93 593.685 -602.59 C 627.066 -580.02 653.534 -549.46 671.561 -512.75 C 672.792 -510.05 673.916 -506.95 674.704 -504.15 C 675.5 -501.15 676.035 -497.58 676.035 -494.55 C 676.035 -491.73 675.765 -488.54 675.314 -485.64 C 674.759 -482.4 673.643 -478.87 672.314 -476.06 C 666.038 -463.25 658.579 -451.07 650.328 -440.11 C 642.031 -429.08 632.897 -419.13 622.375 -409.74 C 617.646 -405.17 610.361 -402.35 603.986 -402.67 C 598.376 -403.68 592.311 -406.83 588.16 -411 C 584.282 -415.7 581.854 -422.57 581.91 -428.56 C 582.545 -434.38 585.818 -441.17 589.947 -445.64 C 598.273 -453.13 605.556 -460.99 612.234 -469.76 C 618.856 -478.3 622.894 -485.35 626.829 -494.32 C 613.337 -521.8 595.452 -542.5 569.249 -560.21 C 543.145 -577.84 515.417 -586.25 483.531 -586.25 Z M 479.336 -352.31 C 439.147 -352.31 401.276 -363.88 367.939 -385.89 C 334.925 -407.99 307.949 -437.92 288.826 -473.38 C 287.319 -476.75 286.045 -480.35 285.243 -483.44 C 284.459 -486.71 283.965 -490.76 283.965 -494.55 C 283.965 -498.39 284.554 -502.6 285.49 -506.19 C 286.388 -509.5 287.808 -513.5 288.998 -516.47 C 295.546 -529.24 303.277 -541.57 311.819 -552.82 C 320.351 -564.03 326.266 -570.65 334.254 -578.88 L 299.755 -613.39 C 295.822 -617.52 292.691 -623.75 292.691 -629.25 C 292.691 -634.59 295.68 -640.97 299.175 -645.21 C 303.498 -649.13 309.87 -652.14 315.453 -652.14 C 321.037 -652.14 327.393 -649.15 331.714 -645.23 L 630.857 -346.07 C 634.548 -341.93 636.974 -335.52 636.953 -330.06 C 636.397 -325.13 634.203 -319.69 631.272 -315.82 C 627.278 -311.4 620.849 -307.86 615.045 -307.86 C 609.462 -307.86 603.151 -310.8 598.829 -314.73 L 549.323 -363.45 C 538.724 -359.56 529.407 -356.99 516.83 -355.14 C 504.43 -353.29 491.739 -352.31 479.336 -352.31 Z M 369.006 -544.36 C 361.525 -537.87 356.377 -532.74 348.803 -522.88 C 341.206 -513.12 336.436 -504.82 331.927 -494.69 C 345.678 -466.25 364.277 -445.17 392.121 -428.23 C 419.85 -410.98 449.346 -402.82 482.7 -402.82 C 489.864 -402.82 496.829 -402.9 503.693 -403.07 C 509.587 -403.01 507.96 -403.23 509.942 -403.62 L 495.59 -417.96 C 493.537 -417.36 493.177 -417.14 489.609 -416.63 C 486.354 -416.19 482.751 -415.89 479.376 -415.89 C 458.177 -415.89 438.656 -424.25 423.639 -438.86 C 409.06 -453.87 400.725 -473.31 400.725 -494.55 C 400.725 -497.9 400.979 -501.43 401.423 -504.76 C 401.885 -508.11 402.011 -508.5 402.408 -510.37 Z"/>
</svg>