<?xml version="1.0" encoding="utf-8"?>
<svg viewBox="0 0 22 22" xmlns="http://www.w3.org/2000/svg">
  <path d="M 6 3 L 6 4 C 6 4.276 5.776 4.5 5.5 4.5 L 4 4.5 L 4 9.793 L 7.146 6.646 C 7.289 6.503 7.505 6.461 7.691 6.538 C 7.878 6.615 8 6.798 8 7 L 8 9.5 L 9.5 9.5 C 9.776 9.5 10 9.724 10 10 L 10 12 C 10 12.276 9.776 12.5 9.5 12.5 L 8 12.5 L 8 15 C 8 15.202 7.878 15.385 7.691 15.462 C 7.505 15.539 7.289 15.497 7.146 15.354 L 4 12.207 L 4 17.5 L 5.5 17.5 C 5.776 17.5 6 17.724 6 18 L 6 19 C 6 19.276 5.776 19.5 5.5 19.5 L 2.5 19.5 C 2.224 19.5 2 19.276 2 19 L 2 3 C 2 2.724 2.224 2.5 2.5 2.5 L 5.5 2.5 C 5.776 2.5 6 2.724 6 3 Z M 20 3 L 20 19 C 20 19.276 19.776 19.5 19.5 19.5 L 16.5 19.5 C 16.224 19.5 16 19.276 16 19 L 16 18 C 16 17.724 16.224 17.5 16.5 17.5 L 18 17.5 L 18 12.207 L 14.854 15.354 C 14.711 15.497 14.495 15.539 14.309 15.462 C 14.122 15.385 14 15.202 14 15 L 14 12.5 L 12.5 12.5 C 12.224 12.5 12 12.276 12 12 L 12 10 C 12 9.724 12.224 9.5 12.5 9.5 L 14 9.5 L 14 7 C 14 6.798 14.122 6.615 14.309 6.538 C 14.495 6.461 14.711 6.503 14.854 6.646 L 18 9.793 L 18 4.5 L 16.5 4.5 C 16.224 4.5 16 4.276 16 4 L 16 3 C 16 2.724 16.224 2.5 16.5 2.5 L 19.5 2.5 C 19.776 2.5 20 2.724 20 3 Z"/>
</svg>