<?xml version="1.0" encoding="utf-8"?>
<svg viewBox="0 0 22 22" xmlns="http://www.w3.org/2000/svg">
  <path d="M 5.5 3 L 5.5 14.5 C 5.478 15.088 5.696 15.525 6.086 15.914 C 6.475 16.304 6.912 16.5 7.5 16.5 C 8.088 16.5 8.525 16.304 8.914 15.914 C 9.304 15.525 9.522 15.088 9.5 14.5 L 9.5 3 C 9.5 2.724 9.724 2.5 10 2.5 L 12.094 2.5 C 12.293 2.5 12.473 2.618 12.552 2.8 L 16.5 11.853 L 16.5 7 C 16.5 6.724 16.724 6.5 17 6.5 L 19 6.5 C 19.276 6.5 19.5 6.724 19.5 7 L 19.5 19 C 19.5 19.276 19.276 19.5 19 19.5 L 16.906 19.5 C 16.707 19.5 16.527 19.382 16.448 19.2 L 12.5 10.147 L 12.5 14.5 C 12.478 15.845 11.913 17.158 11.036 18.036 C 10.158 18.913 8.845 19.5 7.5 19.5 C 6.155 19.5 4.842 18.913 3.964 18.036 C 3.087 17.158 2.522 15.845 2.5 14.5 L 2.5 3 C 2.5 2.724 2.724 2.5 3 2.5 L 5 2.5 C 5.276 2.5 5.5 2.724 5.5 3 Z M 19.5 3 L 19.5 5 C 19.5 5.276 19.276 5.5 19 5.5 L 17 5.5 C 16.724 5.5 16.5 5.276 16.5 5 L 16.5 3 C 16.5 2.724 16.724 2.5 17 2.5 L 19 2.5 C 19.276 2.5 19.5 2.724 19.5 3 Z"/>
</svg>