<?xml version="1.0" encoding="utf-8"?>
<svg viewBox="0 0 22 22" xmlns="http://www.w3.org/2000/svg">
  <path d="M 5.5 3 L 5.5 16.5 L 16.5 16.5 L 16.5 3 C 16.5 2.724 16.724 2.5 17 2.5 L 18 2.5 C 18.276 2.5 18.5 2.724 18.5 3 L 18.5 16.5 L 19 16.5 C 19.276 16.5 19.5 16.724 19.5 17 L 19.5 18 C 19.5 18.276 19.276 18.5 19 18.5 L 18.5 18.5 L 18.5 19 C 18.5 19.276 18.276 19.5 18 19.5 L 17 19.5 C 16.724 19.5 16.5 19.276 16.5 19 L 16.5 18.5 L 5.5 18.5 L 5.5 19 C 5.5 19.276 5.276 19.5 5 19.5 L 4 19.5 C 3.724 19.5 3.5 19.276 3.5 19 L 3.5 18.5 L 3 18.5 C 2.724 18.5 2.5 18.276 2.5 18 L 2.5 17 C 2.5 16.724 2.724 16.5 3 16.5 L 3.5 16.5 L 3.5 3 C 3.5 2.724 3.724 2.5 4 2.5 L 5 2.5 C 5.276 2.5 5.5 2.724 5.5 3 Z M 15.084 5.813 L 15.084 7.247 C 15.084 7.523 14.86 7.747 14.584 7.747 L 12.217 7.747 L 12.217 14.414 C 12.217 14.69 11.993 14.914 11.717 14.914 L 10.283 14.914 C 10.007 14.914 9.783 14.69 9.783 14.414 L 9.783 7.747 L 7.416 7.747 C 7.14 7.747 6.916 7.523 6.916 7.247 L 6.916 5.813 C 6.916 5.537 7.14 5.313 7.416 5.313 L 14.584 5.313 C 14.86 5.313 15.084 5.537 15.084 5.813 Z"/>
</svg>