<?xml version="1.0" encoding="utf-8"?>
<svg viewBox="0 0 22 22" xmlns="http://www.w3.org/2000/svg">
  <path d="M 13.501 9.5 L 14.5 9.5 L 14.5 7 C 14.5 6.797 14.622 6.615 14.809 6.538 C 14.995 6.46 15.21 6.503 15.353 6.646 L 19.354 10.646 C 19.549 10.841 19.549 11.158 19.354 11.353 L 15.354 15.353 C 15.211 15.496 14.995 15.539 14.809 15.462 C 14.622 15.384 14.5 15.202 14.5 15 L 14.5 12.5 L 13.501 12.5 L 13.5 19 C 13.5 19.276 13.276 19.5 13 19.5 L 9 19.5 C 8.724 19.5 8.5 19.276 8.5 19 L 8.5 12.5 L 7.5 12.5 L 7.5 15 C 7.5 15.202 7.378 15.384 7.191 15.462 C 7.005 15.539 6.79 15.496 6.647 15.353 L 2.646 11.353 C 2.553 11.26 2.5 11.132 2.5 11 C 2.5 10.867 2.553 10.74 2.646 10.646 L 6.647 6.646 C 6.79 6.503 7.005 6.46 7.191 6.538 C 7.378 6.615 7.5 6.798 7.5 7 L 7.5 9.5 L 8.5 9.5 L 8.5 3 C 8.5 2.724 8.724 2.5 9 2.5 L 13 2.5 C 13.276 2.5 13.5 2.724 13.5 3 Z M 10.5 17.5 L 11.5 17.5 L 11.5 4.5 L 10.5 4.5 Z"/>
</svg>