<?xml version="1.0" encoding="utf-8"?>
<svg xmlns="http://www.w3.org/2000/svg" height="48" viewBox="0 -960 960 960" width="48">
  <path d="M 92.299 -61.5 C 65.992 -61.5 43.582 -70.657 25.069 -88.97 C 6.556 -107.29 -2.701 -129.47 -2.701 -155.5 L -2.701 -802.5 C -2.701 -828.81 6.556 -851.38 25.069 -870.23 C 43.582 -889.08 65.992 -898.5 92.299 -898.5 L 869.7 -898.5 C 895.26 -898.5 917.15 -889.08 935.37 -870.23 C 953.59 -851.38 962.7 -828.81 962.7 -802.5 L 962.7 -155.5 C 962.7 -129.47 953.59 -107.29 935.37 -88.97 C 917.15 -70.657 895.26 -61.5 869.7 -61.5 Z M 278.299 -155.5 L 684.7 -155.5 L 684.7 -802.5 L 278.299 -802.5 Z M 92.299 -155.5 L 183.299 -155.5 L 183.299 -246.5 L 92.299 -246.5 Z M 777.7 -155.5 L 869.7 -155.5 L 869.7 -246.5 L 777.7 -246.5 Z M 92.299 -339.5 L 183.299 -339.5 L 183.299 -431.5 L 92.299 -431.5 Z M 777.7 -339.5 L 869.7 -339.5 L 869.7 -431.5 L 777.7 -431.5 Z M 92.299 -525.5 L 183.299 -525.5 L 183.299 -617.5 L 92.299 -617.5 Z M 777.7 -525.5 L 869.7 -525.5 L 869.7 -617.5 L 777.7 -617.5 Z M 92.299 -711.5 L 183.299 -711.5 L 183.299 -802.5 L 92.299 -802.5 Z M 777.7 -711.5 L 869.7 -711.5 L 869.7 -802.5 L 777.7 -802.5 Z M 479.772 -290.48 C 435.06 -290.48 397.746 -305.75 367.841 -336.47 C 337.926 -367.1 322.974 -405.28 322.974 -450.91 C 322.974 -467.28 326.227 -484 332.745 -501.09 C 339.254 -518.26 348.498 -535.63 360.469 -553.36 C 372.43 -571.08 386.747 -589.07 403.418 -607.25 C 420.079 -625.43 438.414 -643.61 458.411 -661.79 C 461.738 -664.52 465.165 -666.42 468.691 -667.7 C 472.209 -668.88 475.918 -669.52 479.827 -669.52 C 483.726 -669.52 487.417 -668.88 490.907 -667.7 C 494.389 -666.42 497.797 -664.52 501.133 -661.79 C 521.131 -643.61 539.455 -625.43 556.126 -607.25 C 572.788 -589.07 587.104 -571.08 599.075 -553.36 C 611.037 -535.63 620.354 -518.26 627.026 -501.09 C 633.689 -484 637.025 -467.28 637.025 -450.91 C 637.025 -405.28 621.99 -367.1 591.93 -336.47 C 561.862 -305.75 524.475 -290.48 479.772 -290.48 Z M 480.227 -361.83 C 485.98 -361.83 490.598 -363.01 494.089 -365.37 C 497.57 -367.83 499.315 -371.01 499.315 -375.01 C 499.315 -379.19 497.642 -382.64 494.316 -385.2 C 490.979 -387.83 486.135 -389.11 479.772 -389.11 C 465.529 -389.11 453.33 -392.92 443.186 -400.65 C 433.033 -408.37 426.287 -420.55 422.961 -437.28 C 422.352 -440.27 420.761 -443 418.189 -445.46 C 415.607 -447.82 412.508 -449.1 408.872 -449.1 C 404.082 -449.1 400.527 -447.45 398.227 -444.28 C 395.928 -441.1 395.082 -437.73 395.692 -434.09 C 400.237 -408.28 411.017 -389.83 428.033 -378.65 C 445.049 -367.37 462.447 -361.83 480.227 -361.83 Z"/>
</svg>