<?xml version="1.0" encoding="utf-8"?>
<svg xmlns="http://www.w3.org/2000/svg" height="48" viewBox="0 -960 960 960" width="48">
  <path d="M 92.299 -61.5 C 65.992 -61.5 43.582 -70.657 25.069 -88.97 C 6.556 -107.29 -2.701 -129.47 -2.701 -155.5 L -2.701 -802.5 C -2.701 -828.81 6.556 -851.38 25.069 -870.23 C 43.582 -889.08 65.992 -898.5 92.299 -898.5 L 869.7 -898.5 C 895.26 -898.5 917.15 -889.08 935.37 -870.23 C 953.59 -851.38 962.7 -828.81 962.7 -802.5 L 962.7 -155.5 C 962.7 -129.47 953.59 -107.29 935.37 -88.97 C 917.15 -70.657 895.26 -61.5 869.7 -61.5 Z M 278.299 -155.5 L 684.7 -155.5 L 684.7 -802.5 L 278.299 -802.5 Z M 92.299 -155.5 L 183.299 -155.5 L 183.299 -246.5 L 92.299 -246.5 Z M 777.7 -155.5 L 869.7 -155.5 L 869.7 -246.5 L 777.7 -246.5 Z M 92.299 -339.5 L 183.299 -339.5 L 183.299 -431.5 L 92.299 -431.5 Z M 777.7 -339.5 L 869.7 -339.5 L 869.7 -431.5 L 777.7 -431.5 Z M 92.299 -525.5 L 183.299 -525.5 L 183.299 -617.5 L 92.299 -617.5 Z M 777.7 -525.5 L 869.7 -525.5 L 869.7 -617.5 L 777.7 -617.5 Z M 92.299 -711.5 L 183.299 -711.5 L 183.299 -802.5 L 92.299 -802.5 Z M 777.7 -711.5 L 869.7 -711.5 L 869.7 -802.5 L 777.7 -802.5 Z M 355.937 -295.29 C 338.741 -305.01 330.141 -319.05 330.141 -337.51 L 330.141 -618.92 C 330.141 -638.93 338.741 -653.62 355.937 -663 C 373.136 -672.07 390.054 -671.46 406.75 -661.13 L 616.246 -520.44 C 629.787 -510.1 636.571 -496.37 636.571 -479.17 C 636.571 -461.94 629.787 -448.53 616.246 -439.13 L 406.75 -298.44 C 390.054 -286.84 373.136 -285.92 355.937 -295.29 Z"/>
</svg>