<?xml version="1.0" encoding="utf-8"?>
<svg viewBox="0 0 22 22" xmlns="http://www.w3.org/2000/svg">
  <path d="M 10.323 3 L 10.323 19 C 10.323 19.276 10.099 19.5 9.823 19.5 L 6.823 19.5 C 6.547 19.5 6.323 19.276 6.323 19 L 6.323 18 C 6.323 17.724 6.547 17.5 6.823 17.5 L 8.323 17.5 L 8.323 12.5 L 7.323 12.5 L 7.323 15 C 7.323 15.202 7.201 15.385 7.014 15.462 C 6.828 15.539 6.612 15.497 6.469 15.354 L 2.469 11.354 C 2.274 11.158 2.274 10.842 2.469 10.646 L 6.469 6.646 C 6.612 6.503 6.828 6.461 7.014 6.538 C 7.201 6.615 7.323 6.798 7.323 7 L 7.323 9.5 L 8.323 9.5 L 8.323 4.5 L 6.823 4.5 C 6.547 4.5 6.323 4.276 6.323 4 L 6.323 3 C 6.323 2.724 6.547 2.5 6.823 2.5 L 9.823 2.5 C 10.099 2.5 10.323 2.724 10.323 3 Z M 15.676 3 L 15.676 4 C 15.676 4.276 15.452 4.5 15.176 4.5 L 13.676 4.5 L 13.676 9.5 L 14.676 9.5 L 14.676 7 C 14.676 6.798 14.798 6.615 14.985 6.538 C 15.172 6.461 15.387 6.503 15.53 6.646 L 19.53 10.646 C 19.725 10.842 19.725 11.158 19.53 11.354 L 15.53 15.354 C 15.387 15.497 15.172 15.539 14.985 15.462 C 14.798 15.385 14.676 15.202 14.676 15 L 14.676 12.5 L 13.676 12.5 L 13.676 17.5 L 15.176 17.5 C 15.452 17.5 15.676 17.724 15.676 18 L 15.676 19 C 15.676 19.276 15.452 19.5 15.176 19.5 L 12.176 19.5 C 11.9 19.5 11.676 19.276 11.676 19 L 11.676 3 C 11.676 2.724 11.9 2.5 12.176 2.5 L 15.176 2.5 C 15.452 2.5 15.676 2.724 15.676 3 Z"/>
</svg>