<?xml version="1.0" encoding="utf-8"?>
<svg xmlns="http://www.w3.org/2000/svg" height="48" viewBox="0 -960 960 960" width="48">
  <path d="M 92.299 -61.5 C 65.992 -61.5 43.582 -70.657 25.069 -88.97 C 6.556 -107.29 -2.701 -129.47 -2.701 -155.5 L -2.701 -802.5 C -2.701 -828.81 6.556 -851.38 25.069 -870.23 C 43.582 -889.08 65.992 -898.5 92.299 -898.5 L 869.7 -898.5 C 895.26 -898.5 917.15 -889.08 935.37 -870.23 C 953.59 -851.38 962.7 -828.81 962.7 -802.5 L 962.7 -155.5 C 962.7 -129.47 953.59 -107.29 935.37 -88.97 C 917.15 -70.657 895.26 -61.5 869.7 -61.5 Z M 278.299 -155.5 L 684.7 -155.5 L 684.7 -802.5 L 278.299 -802.5 Z M 92.299 -155.5 L 183.299 -155.5 L 183.299 -246.5 L 92.299 -246.5 Z M 777.7 -155.5 L 869.7 -155.5 L 869.7 -246.5 L 777.7 -246.5 Z M 92.299 -339.5 L 183.299 -339.5 L 183.299 -431.5 L 92.299 -431.5 Z M 777.7 -339.5 L 869.7 -339.5 L 869.7 -431.5 L 777.7 -431.5 Z M 92.299 -525.5 L 183.299 -525.5 L 183.299 -617.5 L 92.299 -617.5 Z M 777.7 -525.5 L 869.7 -525.5 L 869.7 -617.5 L 777.7 -617.5 Z M 92.299 -711.5 L 183.299 -711.5 L 183.299 -802.5 L 92.299 -802.5 Z M 777.7 -711.5 L 869.7 -711.5 L 869.7 -802.5 L 777.7 -802.5 Z M 447.316 -344.18 L 415.357 -415.35 L 344.176 -447.31 C 329.649 -453.99 322.386 -465.02 322.386 -480.74 C 322.386 -496.13 329.649 -507.15 344.176 -514.13 L 415.357 -544.64 L 447.316 -617.25 C 453.126 -630.63 463.789 -637.62 479.275 -637.62 C 494.759 -637.62 505.915 -630.63 512.686 -617.25 L 544.643 -544.64 L 615.824 -514.13 C 630.351 -507.15 637.614 -496.13 637.614 -480.74 C 637.614 -465.02 630.351 -453.99 615.824 -447.31 L 544.643 -415.35 L 512.686 -344.18 C 505.915 -329.64 494.759 -322.38 479.275 -322.38 C 463.789 -322.38 453.126 -329.64 447.316 -344.18 Z"/>
</svg>