<?xml version="1.0" encoding="utf-8"?>
<svg viewBox="0 0 22 22" xmlns="http://www.w3.org/2000/svg">
  <path d="M 10.337 3 L 10.337 19 C 10.337 19.276 10.113 19.5 9.837 19.5 L 6.837 19.5 C 6.561 19.5 6.337 19.276 6.337 19 L 6.337 18 C 6.337 17.724 6.561 17.5 6.837 17.5 L 8.337 17.5 L 8.337 12.207 L 5.191 15.354 C 5.048 15.497 4.832 15.539 4.646 15.462 C 4.459 15.385 4.337 15.202 4.337 15 L 4.337 12.5 L 2.837 12.5 C 2.561 12.5 2.337 12.276 2.337 12 L 2.337 10 C 2.337 9.724 2.561 9.5 2.837 9.5 L 4.337 9.5 L 4.337 7 C 4.337 6.798 4.459 6.615 4.646 6.538 C 4.832 6.461 5.048 6.503 5.191 6.646 L 8.337 9.793 L 8.337 4.5 L 6.837 4.5 C 6.561 4.5 6.337 4.276 6.337 4 L 6.337 3 C 6.337 2.724 6.561 2.5 6.837 2.5 L 9.837 2.5 C 10.113 2.5 10.337 2.724 10.337 3 Z M 15.664 3 L 15.664 4 C 15.664 4.276 15.44 4.5 15.164 4.5 L 13.664 4.5 L 13.664 9.793 L 16.81 6.646 C 16.953 6.503 17.169 6.461 17.355 6.538 C 17.542 6.615 17.664 6.798 17.664 7 L 17.664 9.5 L 19.164 9.5 C 19.44 9.5 19.664 9.724 19.664 10 L 19.664 12 C 19.664 12.276 19.44 12.5 19.164 12.5 L 17.664 12.5 L 17.664 15 C 17.664 15.202 17.542 15.385 17.355 15.462 C 17.169 15.539 16.953 15.497 16.81 15.354 L 13.664 12.207 L 13.664 17.5 L 15.164 17.5 C 15.44 17.5 15.664 17.724 15.664 18 L 15.664 19 C 15.664 19.276 15.44 19.5 15.164 19.5 L 12.164 19.5 C 11.888 19.5 11.664 19.276 11.664 19 L 11.664 3 C 11.664 2.724 11.888 2.5 12.164 2.5 L 15.164 2.5 C 15.44 2.5 15.664 2.724 15.664 3 Z"/>
</svg>