<?xml version="1.0" encoding="utf-8"?>
<svg xmlns="http://www.w3.org/2000/svg" height="48" viewBox="0 -960 960 960" width="48">
  <path d="M 480 -806 C 528 -806 572.4 -798.5 613.2 -783.5 C 654.007 -768.5 689.32 -747.333 719.14 -720 L 750 -751 C 758.667 -759.667 768.5 -764 779.5 -764 C 790.5 -764 800.333 -759.5 809 -750.5 C 817.667 -741.5 822 -731.5 822 -720.5 C 822 -709.5 817.667 -699.667 809 -691 L 779 -661 C 809 -629 831 -592.333 845 -551 C 859 -509.667 866 -466 866 -420 C 866 -398 863.833 -376.333 859.5 -355 C 855.167 -333.667 848.667 -313.333 840 -294 C 835.333 -277.333 827 -266.667 815 -262 C 803 -257.333 791.333 -256.667 780 -260 C 768.667 -263.333 759.333 -269.833 752 -279.5 C 744.667 -289.167 743.333 -301.333 748 -316 C 754.667 -328.667 760.167 -343.84 764.5 -361.52 C 768.833 -379.193 771 -398.687 771 -420 C 771 -501.493 742.873 -570.367 686.62 -626.62 C 630.367 -682.873 561.493 -711 480 -711 C 458.667 -711 439 -708.833 421 -704.5 C 403 -700.167 388 -694.667 376 -688 C 362.327 -683.333 350.24 -684.333 339.74 -691 C 329.247 -697.667 322.333 -706.667 319 -718 C 315.667 -729.333 316.333 -741 321 -753 C 325.667 -765 336 -773.667 352 -779 C 372 -788.333 392.89 -795.167 414.67 -799.5 C 436.443 -803.833 458.22 -806 480 -806 Z M 479.52 -35 C 426.173 -35 376.25 -45.167 329.75 -65.5 C 283.25 -85.833 242.5 -113.333 207.5 -148 C 172.5 -182.667 145 -223.34 125 -270.02 C 105 -316.693 95 -366.807 95 -420.36 C 95 -461.453 101.167 -501.333 113.5 -540 C 125.833 -578.667 146 -616.667 174 -654 L 74 -754 C 66.667 -761.333 63 -769.667 63 -779 C 63 -788.333 66.667 -796.667 74 -804 C 81.333 -811.333 89.833 -815 99.5 -815 C 109.167 -815 117.667 -811.333 125 -804 L 830 -100 C 837.333 -92.667 841 -84.46 841 -75.38 C 841 -66.3 837.333 -57.84 830 -50 C 822.667 -42.667 814.167 -39 804.5 -39 C 794.833 -39 786.333 -42.667 779 -50 L 713 -114 C 681.2 -88.667 646.083 -69.167 607.65 -55.5 C 569.217 -41.833 526.507 -35 479.52 -35 Z M 480.48 -130 C 512.827 -130 542.797 -134.427 570.39 -143.28 C 597.983 -152.133 623.853 -165.373 648 -183 L 245 -588 C 227 -563.333 213.167 -536.5 203.5 -507.5 C 193.833 -478.5 189 -449.333 189 -420 C 189 -338.507 217.173 -269.8 273.52 -213.88 C 329.867 -157.96 398.853 -130 480.48 -130 L 480.48 -130 Z M 378.12 -860 C 366.04 -860 356.167 -864 348.5 -872 C 340.833 -880 337 -890 337 -902 C 337 -914 340.833 -923.833 348.5 -931.5 C 356.167 -939.167 366.04 -943 378.12 -943 L 581.88 -943 C 593.96 -943 603.833 -939.167 611.5 -931.5 C 619.167 -923.833 623 -914 623 -902 C 623 -890 619.167 -880 611.5 -872 C 603.833 -864 593.96 -860 581.88 -860 L 378.12 -860 Z M 447 -386 Z M 546 -485 Z"/>
</svg>