<?xml version="1.0" encoding="utf-8"?>
<svg xmlns="http://www.w3.org/2000/svg" height="48" viewBox="0 -960 960 960" width="48">
  <path d="M 479.77 -35 C 426.277 -35 376.217 -45.113 329.59 -65.34 C 282.963 -85.567 242.207 -113.067 207.32 -147.84 C 172.44 -182.613 145 -223.287 125 -269.86 C 105 -316.427 95 -366.427 95 -419.86 C 95 -473.287 105.03 -523.317 125.09 -569.95 C 145.15 -616.59 172.62 -657.413 207.5 -692.42 C 242.387 -727.42 283.143 -755.1 329.77 -775.46 C 376.397 -795.82 426.473 -806 480 -806 C 526 -806 569.5 -798.5 610.5 -783.5 C 651.5 -768.5 687.667 -747.333 719 -720 L 750 -751 C 758.667 -759.667 768.5 -764 779.5 -764 C 790.5 -764 800.333 -759.5 809 -750.5 C 817.667 -741.5 822 -731.5 822 -720.5 C 822 -709.5 817.667 -699.667 809 -691 L 779 -661 C 803.667 -633 824.333 -599.333 841 -560 C 857.667 -520.667 866 -474 866 -420 C 866 -366.427 855.867 -316.293 835.6 -269.6 C 815.333 -222.907 787.71 -182.217 752.73 -147.53 C 717.75 -112.85 676.883 -85.427 630.13 -65.26 C 583.377 -45.087 533.257 -35 479.77 -35 Z M 479.83 -130 C 561.277 -130 630.167 -157.943 686.5 -213.83 C 742.833 -269.717 771 -338.383 771 -419.83 C 771 -501.277 742.89 -570.167 686.67 -626.5 C 630.45 -682.833 561.617 -711 480.17 -711 C 398.723 -711 329.833 -682.89 273.5 -626.67 C 217.167 -570.45 189 -501.617 189 -420.17 C 189 -338.723 217.11 -270 273.33 -214 C 329.55 -158 398.383 -130 479.83 -130 Z M 378.12 -860 C 365.96 -860 356.067 -864.06 348.44 -872.18 C 340.813 -880.293 337 -890.293 337 -902.18 C 337 -914.06 340.813 -923.833 348.44 -931.5 C 356.067 -939.167 365.96 -943 378.12 -943 L 581.88 -943 C 594.047 -943 603.94 -939.17 611.56 -931.51 C 619.187 -923.85 623 -913.953 623 -901.82 C 623 -889.94 619.187 -880 611.56 -872 C 603.94 -864 594.047 -860 581.88 -860 Z M 332.31 -274.88 C 292.03 -315.31 271.889 -364.62 271.889 -422.62 C 271.889 -480.23 292.108 -529.14 332.547 -569.78 C 372.985 -610.21 422.201 -630.53 480.216 -630.53 C 537.737 -630.53 586.757 -610.21 627.294 -569.4 C 667.831 -528.55 688.111 -479.44 688.111 -421.64 C 688.111 -364.03 667.733 -314.93 626.958 -274.69 C 586.186 -234.43 536.969 -214.32 479.27 -214.32 C 421.59 -214.32 372.611 -234.43 332.31 -274.88 Z"/>
</svg>