<?xml version="1.0" encoding="utf-8"?>
<svg xmlns="http://www.w3.org/2000/svg" height="48" viewBox="0 -960 960 960" width="48">
  <path d="M 479.77 -35 C 426.277 -35 376.217 -45.113 329.59 -65.34 C 282.963 -85.567 242.207 -113.067 207.32 -147.84 C 172.44 -182.613 145 -223.287 125 -269.86 C 105 -316.427 95 -366.427 95 -419.86 C 95 -473.287 105.03 -523.317 125.09 -569.95 C 145.15 -616.59 172.62 -657.413 207.5 -692.42 C 242.387 -727.42 283.143 -755.1 329.77 -775.46 C 376.397 -795.82 426.473 -806 480 -806 C 526 -806 569.5 -798.5 610.5 -783.5 C 651.5 -768.5 687.667 -747.333 719 -720 L 750 -751 C 758.667 -759.667 768.5 -764 779.5 -764 C 790.5 -764 800.333 -759.5 809 -750.5 C 817.667 -741.5 822 -731.5 822 -720.5 C 822 -709.5 817.667 -699.667 809 -691 L 779 -661 C 803.667 -633 824.333 -599.333 841 -560 C 857.667 -520.667 866 -474 866 -420 C 866 -366.427 855.867 -316.293 835.6 -269.6 C 815.333 -222.907 787.71 -182.217 752.73 -147.53 C 717.75 -112.85 676.883 -85.427 630.13 -65.26 C 583.377 -45.087 533.257 -35 479.77 -35 Z M 479.83 -130 C 561.277 -130 630.167 -157.943 686.5 -213.83 C 742.833 -269.717 771 -338.383 771 -419.83 C 771 -501.277 742.89 -570.167 686.67 -626.5 C 630.45 -682.833 561.617 -711 480.17 -711 C 398.723 -711 329.833 -682.89 273.5 -626.67 C 217.167 -570.45 189 -501.617 189 -420.17 C 189 -338.723 217.11 -270 273.33 -214 C 329.55 -158 398.383 -130 479.83 -130 Z M 378.12 -860 C 365.96 -860 356.067 -864.06 348.44 -872.18 C 340.813 -880.293 337 -890.293 337 -902.18 C 337 -914.06 340.813 -923.833 348.44 -931.5 C 356.067 -939.167 365.96 -943 378.12 -943 L 581.88 -943 C 594.047 -943 603.94 -939.17 611.56 -931.51 C 619.187 -923.85 623 -913.953 623 -901.82 C 623 -889.94 619.187 -880 611.56 -872 C 603.94 -864 594.047 -860 581.88 -860 Z M 333.272 -358.77 C 316.702 -358.77 302.388 -364.86 290.398 -376.65 C 278.41 -388.81 272.432 -403.15 272.432 -419.96 C 272.432 -437.14 278.41 -451.82 290.398 -463.99 C 302.388 -476.17 316.702 -482.25 333.272 -482.25 L 419.162 -482.25 L 419.162 -566.34 C 419.162 -583.51 424.815 -598.2 436.161 -610.72 C 447.504 -622.88 462 -628.96 479.68 -628.96 C 496.857 -628.96 511.636 -622.88 524.019 -610.72 C 536.438 -598.2 542.628 -583.51 542.628 -566.34 L 542.628 -482.25 L 626.729 -482.25 C 643.299 -482.25 657.579 -476.17 669.567 -463.99 C 681.555 -451.82 687.569 -437.14 687.569 -419.96 C 687.569 -403.5 681.555 -388.81 669.567 -377.01 C 657.579 -364.86 643.299 -358.77 626.729 -358.77 L 542.628 -358.77 L 542.628 -274.68 C 542.628 -257.85 536.653 -243.16 524.734 -230.66 C 512.818 -218.47 498.003 -212.04 480.324 -212.04 C 462.643 -212.04 448.006 -218.47 436.483 -230.66 C 424.923 -243.16 419.162 -257.85 419.162 -274.68 L 419.162 -358.77 Z"/>
</svg>