<?xml version="1.0" encoding="utf-8"?>
<svg xmlns="http://www.w3.org/2000/svg" height="48" viewBox="0 -960 960 960" width="48">
  <path d="M 229 -55 C 202.967 -55 180.793 -64.157 162.48 -82.47 C 144.16 -100.79 135 -122.967 135 -149 L 135 -811 C 135 -837.307 144.16 -859.717 162.48 -878.23 C 180.793 -896.743 202.967 -906 229 -906 L 731 -906 C 757.307 -906 779.717 -896.743 798.23 -878.23 C 816.743 -859.717 826 -837.307 826 -811 L 826 -149 C 826 -122.967 816.743 -100.79 798.23 -82.47 C 779.717 -64.157 757.307 -55 731 -55 Z M 229 -149 L 731 -149 L 731 -811 L 682 -811 L 682 -607.174 C 682 -597.434 678 -590.334 670 -585.874 C 662 -581.408 654 -581.508 646 -586.174 L 608 -606.174 C 600.793 -610.841 592.827 -613.174 584.1 -613.174 C 575.367 -613.174 567.667 -610.841 561 -606.174 L 522 -586.174 C 514 -581.508 506.333 -581.408 499 -585.874 C 491.667 -590.334 488 -597.434 488 -607.174 L 488 -811 L 229 -811 Z M 584.1 -616.174 C 575.367 -616.174 567.667 -614.174 561 -610.174 C 567.968 -614.163 575.691 -616.163 584.171 -616.174 C 584.147 -616.174 584.124 -616.174 584.1 -616.174 Z M 380.024 -240.06 L 351.992 -212.04 C 347.953 -208.26 342.265 -204.77 337.305 -203.71 C 332.309 -202.64 325.632 -203.6 320.467 -205.52 C 315.505 -207.77 310.163 -211.69 307.368 -215.84 C 304.564 -220 302.961 -226.44 302.776 -231.84 L 302.776 -484.22 C 303.157 -496.51 308.231 -508.89 316.519 -517.78 C 325.389 -526.2 337.717 -531.33 349.888 -531.72 L 609.721 -531.72 C 621.993 -531.33 634.387 -526.22 643.331 -517.82 C 651.712 -508.92 656.838 -496.52 657.224 -484.22 L 657.224 -287.19 C 656.833 -275.02 651.686 -262.67 643.289 -253.84 C 634.364 -245.54 621.993 -240.45 609.721 -240.06 Z M 360.106 -296.45 L 360.932 -297.4 L 599.503 -297.4 L 599.503 -474 L 360.106 -474 Z"/>
</svg>