<?xml version="1.0" encoding="utf-8"?>
<svg xmlns="http://www.w3.org/2000/svg" height="48" viewBox="0 -960 960 960" width="48">
  <path d="M 229 -55 C 202.967 -55 180.793 -64.157 162.48 -82.47 C 144.16 -100.79 135 -122.967 135 -149 L 135 -811 C 135 -837.307 144.16 -859.717 162.48 -878.23 C 180.793 -896.743 202.967 -906 229 -906 L 731 -906 C 757.307 -906 779.717 -896.743 798.23 -878.23 C 816.743 -859.717 826 -837.307 826 -811 L 823.924 -419.44 C 823.924 -406.5 819.32 -395.53 810.111 -386.12 C 800.92 -376.92 789.871 -372.41 776.978 -372.41 C 764.085 -372.41 753.191 -376.92 744.257 -386.12 C 735.323 -395.53 730.856 -406.5 730.856 -419.44 L 731 -811 L 682 -811 L 682 -607.174 C 682 -597.434 678 -590.334 670 -585.874 C 662 -581.408 654 -581.508 646 -586.174 L 608 -606.174 C 600.793 -610.841 592.827 -613.174 584.1 -613.174 C 575.367 -613.174 567.667 -610.841 561 -606.174 L 522 -586.174 C 514 -581.508 506.333 -581.408 499 -585.874 C 491.667 -590.334 488 -597.434 488 -607.174 L 488 -811 L 229 -811 L 229 -149 L 542.76 -148.07 C 555.653 -148.07 566.567 -143.56 575.462 -134.75 C 584.358 -125.93 588.804 -115.15 588.804 -102.21 C 588.804 -89.298 584.358 -78.125 575.462 -68.921 C 566.567 -59.511 555.653 -55 542.76 -55 L 229 -55 Z M 584.1 -616.174 C 575.367 -616.174 567.667 -614.174 561 -610.174 C 567.968 -614.163 575.691 -616.163 584.171 -616.174 C 584.147 -616.174 584.124 -616.174 584.1 -616.174 Z M 380.024 -240.06 L 351.992 -212.04 C 347.953 -208.26 342.265 -204.77 337.305 -203.71 C 332.309 -202.64 325.632 -203.6 320.467 -205.52 C 315.505 -207.77 310.163 -211.69 307.368 -215.84 C 304.564 -220 302.961 -226.44 302.776 -231.84 L 302.776 -484.22 C 303.157 -496.51 308.231 -508.89 316.519 -517.78 C 325.389 -526.2 337.717 -531.33 349.888 -531.72 L 609.721 -531.72 C 621.993 -531.33 634.387 -526.22 643.331 -517.82 C 651.712 -508.92 656.838 -496.52 657.224 -484.22 L 657.224 -287.19 C 656.833 -275.02 651.686 -262.67 643.289 -253.84 C 634.364 -245.54 621.993 -240.45 609.721 -240.06 L 380.024 -240.06 Z M 360.106 -296.45 L 360.932 -297.4 L 599.503 -297.4 L 599.503 -474 L 360.106 -474 L 360.106 -296.45 Z M 735.753 -272.49 C 735.753 -284.05 739.673 -293.65 747.511 -301.68 C 755.348 -309.51 765.026 -313.63 776.527 -313.63 C 788.302 -313.63 798.159 -309.9 806.113 -302.28 C 814.067 -294.81 818.047 -285.22 818.047 -273.48 L 818.047 -225.46 L 865.071 -225.46 C 876.727 -225.46 886.504 -221.55 894.382 -213.72 C 902.277 -205.86 906.215 -196.27 906.215 -184.91 C 906.215 -173.35 902.277 -163.55 894.382 -155.72 C 886.504 -148.07 876.727 -144.16 865.071 -144.16 L 818.047 -144.16 L 818.047 -96.144 C 818.047 -84.582 814.067 -75.171 806.095 -67.547 C 798.139 -59.694 788.401 -55.985 776.879 -55.985 C 765.36 -55.985 755.641 -59.694 747.687 -67.547 C 739.731 -75.171 735.753 -84.582 735.753 -96.144 L 735.753 -144.16 L 688.729 -144.16 C 677.13 -144.16 667.374 -148.07 659.457 -155.72 C 651.542 -163.55 647.585 -173.14 647.585 -184.52 C 647.585 -195.88 651.523 -205.47 659.418 -213.51 C 667.294 -221.34 677.073 -225.46 688.729 -225.46 L 735.753 -225.46 L 735.753 -272.49 Z"/>
</svg>