<?xml version="1.0" encoding="utf-8"?>
<svg xmlns="http://www.w3.org/2000/svg" height="48" viewBox="0 -960 960 960" width="48">
  <path d="M 581 -666.03 C 581 -692.997 572.183 -714.733 554.55 -731.24 C 536.91 -747.747 513.973 -756 485.74 -756 C 467.373 -756 450.6 -752.323 435.42 -744.97 C 420.24 -737.617 407.1 -726.96 396 -713 C 382 -697.667 365.477 -688.5 346.43 -685.5 C 327.39 -682.5 310.913 -686 297 -696 C 281 -706 272.167 -719.58 270.5 -736.74 C 268.833 -753.893 274.333 -770.98 287 -788 C 310.347 -818.987 338.89 -842.4 372.63 -858.24 C 406.37 -874.08 444.16 -882 486 -882 C 554 -882 608.833 -862.323 650.5 -822.97 C 692.167 -783.623 713 -732.3 713 -669 C 713 -635.667 704.333 -602 687 -568 C 669.667 -534 644 -499.333 610 -464 C 596.667 -450 586 -437.093 578 -425.28 C 570 -413.467 563.667 -400.707 559 -387 C 551 -370.333 540.46 -357.333 527.38 -348 C 514.307 -338.667 500.913 -334 487.2 -334 C 470.007 -334 455.007 -339.667 442.2 -351 C 429.4 -362.333 423 -375.91 423 -391.73 C 423 -418.297 430.167 -444.65 444.5 -470.79 C 458.833 -496.93 479.12 -519.74 505.36 -539.22 C 531.12 -559.073 550.167 -579.333 562.5 -600 C 574.833 -620.667 581 -642.677 581 -666.03 Z M 497.825 -293.22 C 531.183 -293.22 559.608 -281.43 583.122 -257.63 C 606.635 -233.81 618.383 -205.46 618.383 -172.51 C 618.383 -139.19 606.635 -110.84 583.122 -87.216 C 559.608 -63.799 531.183 -52 497.825 -52 C 464.888 -52 436.558 -63.799 412.853 -87.216 C 389.13 -110.84 377.269 -139.19 377.269 -172.51 C 377.269 -205.46 389.13 -233.81 412.853 -257.63 C 436.558 -281.43 464.888 -293.22 497.825 -293.22 Z M 481.681 -155.19 L 458.052 -179.37 C 454.739 -182.41 450.818 -183.95 446.248 -184.12 C 441.697 -184.31 437.965 -182.79 435.073 -179.37 C 431.741 -176.52 429.988 -172.71 429.779 -167.95 C 429.57 -163.18 431.131 -159.38 434.444 -156.52 L 460.547 -130.24 C 466.354 -124.54 473.379 -121.68 481.681 -121.68 C 489.962 -121.68 497.008 -124.54 502.814 -130.24 L 561.226 -190.61 C 564.12 -193.46 565.568 -197.07 565.568 -201.45 C 565.568 -205.83 564.12 -209.65 561.226 -213.07 C 557.895 -215.73 553.972 -217.45 549.403 -217.64 C 544.853 -217.83 541.122 -216.31 538.227 -213.07 Z"/>
</svg>