<?xml version="1.0" encoding="utf-8"?>
<svg xmlns="http://www.w3.org/2000/svg" height="48" viewBox="0 -960 960 960" width="48">
  <path d="M 148.5 -27.5 C 122.467 -27.5 100.29 -36.657 81.97 -54.97 C 63.657 -73.29 54.5 -95.467 54.5 -121.5 L 54.5 -583.5 C 54.5 -609.81 63.657 -632.22 81.97 -650.73 C 100.29 -669.24 122.467 -678.5 148.5 -678.5 L 364.5 -678.5 L 364.5 -800.5 C 364.5 -823.17 371.627 -841.83 385.88 -856.5 C 400.14 -871.17 419.317 -878.5 443.41 -878.5 L 517.09 -878.5 C 540.03 -878.5 558.833 -871.17 573.5 -856.5 C 588.167 -841.83 595.5 -823.17 595.5 -800.5 L 595.5 -678.5 L 810.5 -678.5 C 836.807 -678.5 859.217 -669.24 877.73 -650.73 C 896.243 -632.22 905.5 -609.81 905.5 -583.5 L 905.5 -121.5 C 905.5 -95.467 896.243 -73.29 877.73 -54.97 C 859.217 -36.657 836.807 -27.5 810.5 -27.5 L 148.5 -27.5 Z M 148.5 -121.5 L 810.5 -121.5 L 810.5 -583.5 L 593.5 -583.5 L 593.5 -553.5 C 590.833 -533.5 581.667 -518.5 566 -508.5 C 550.333 -498.5 534.03 -493.5 517.09 -493.5 L 442.91 -493.5 C 425.303 -493.5 408.5 -498.67 392.5 -509 C 376.5 -519.33 367.5 -534.17 365.5 -553.5 L 365.5 -583.5 L 148.5 -583.5 L 148.5 -121.5 Z M 451.5 -580.5 L 508.5 -580.5 L 508.5 -791.5 L 451.5 -791.5 L 451.5 -580.5 Z M 331.053 -335.35 C 315.872 -335.35 302.882 -340.79 292.099 -351.53 C 281.316 -362.42 275.917 -375.37 275.917 -390.52 C 275.917 -405.68 281.316 -418.77 292.128 -429.51 C 302.941 -440.25 316.062 -445.69 331.479 -445.69 C 345.926 -445.69 358.666 -440.25 369.699 -429.51 C 380.731 -418.62 386.248 -405.68 386.248 -390.52 C 386.248 -375.21 380.716 -362.27 369.668 -351.53 C 358.607 -340.79 345.735 -335.35 331.053 -335.35 Z M 329.229 -289.01 C 343.719 -289.01 357.944 -287.7 371.92 -284.9 C 385.881 -282.25 399.737 -277.83 413.463 -271.8 C 424.627 -266.66 434.411 -259.88 442.811 -251.07 C 451.195 -242.38 455.389 -231.8 455.389 -219.14 C 455.389 -211.49 452.255 -205.45 446.003 -200.9 C 439.751 -196.33 432.821 -194.12 425.231 -194.12 L 234.728 -193.4 C 227.122 -193.4 220.575 -195.61 215.059 -200.16 C 209.542 -204.73 206.776 -210.76 206.776 -218.4 C 206.776 -230.9 210.822 -241.64 218.913 -250.17 C 227.004 -258.85 236.729 -266.07 248.085 -271.8 C 260.751 -277.83 273.666 -282.25 286.833 -284.9 C 299.985 -287.7 314.121 -289.01 329.229 -289.01 Z M 610.026 -244.07 C 610.026 -233.85 606.543 -225.17 599.577 -218.22 C 592.609 -211.1 584.017 -207.69 573.785 -207.69 C 563.552 -207.69 554.914 -211.1 547.854 -218.22 C 540.794 -225.17 537.265 -233.85 537.265 -244.07 L 537.265 -386.49 C 537.265 -396.55 540.778 -405.23 547.808 -412.35 C 554.851 -419.31 563.458 -422.86 573.645 -422.86 L 716.072 -422.86 C 726.275 -422.86 734.882 -419.31 741.91 -412.35 C 748.938 -405.38 752.453 -396.87 752.453 -386.64 C 752.453 -376.28 748.938 -367.75 741.91 -360.63 C 734.882 -353.51 726.275 -350.11 716.072 -350.11 L 661.115 -350.11 L 721.49 -289.74 C 728.721 -282.47 732.328 -273.94 732.328 -264.2 C 732.328 -254.28 728.828 -245.76 721.801 -238.64 C 714.37 -231.36 705.622 -227.66 695.56 -227.35 C 685.497 -227.03 676.858 -230.6 669.628 -237.87 L 610.026 -298.24 L 610.026 -244.07 Z M 729.264 -730.25 L 707.237 -779.3 L 658.174 -801.34 C 648.16 -805.94 643.155 -813.55 643.155 -824.36 C 643.155 -834.97 648.16 -842.58 658.174 -847.4 L 707.237 -868.42 L 729.264 -918.48 C 733.269 -927.7 740.618 -932.5 751.292 -932.5 C 761.965 -932.5 769.654 -927.7 774.321 -918.48 L 796.348 -868.42 L 845.411 -847.4 C 855.423 -842.58 860.43 -834.97 860.43 -824.36 C 860.43 -813.55 855.423 -805.94 845.411 -801.34 L 796.348 -779.3 L 774.321 -730.25 C 769.654 -720.23 761.965 -715.22 751.292 -715.22 C 740.618 -715.22 733.269 -720.23 729.264 -730.25 Z"/>
</svg>