<?xml version="1.0" encoding="utf-8"?>
<svg xmlns="http://www.w3.org/2000/svg" height="48" viewBox="0 -960 960 960" width="48">
  <path d="M 335 -479 L 129 -685 C 124.228 -689.45 120.634 -694.29 118.215 -699.5 C 115.554 -705.21 114.291 -711.38 114.401 -718 C 114.811 -730.68 119.611 -741.68 129.001 -751 C 129.001 -751 129.001 -751 129.001 -751 C 138.201 -760.34 149.191 -765 161.391 -765 C 161.409 -765 161.427 -765 161.446 -765 C 161.464 -765 161.482 -765 161.5 -765 C 170.691 -765 179.238 -762.41 187.136 -757.22 C 189.836 -755.45 192.457 -753.38 195.001 -751 L 385.001 -561 C 386.51 -559.49 388.002 -558.04 389.479 -556.64 C 401.595 -545.16 412.672 -537.32 422.703 -533.12 C 422.802 -533.08 422.902 -533.04 423.001 -533 C 423.032 -532.99 423.062 -532.98 423.093 -532.96 C 430.694 -529.85 441.131 -527.78 454.401 -526.75 C 460.925 -526.25 468.13 -526 476.001 -526 L 686.999 -526 L 630 -583 C 620 -592.33 615 -603.33 615 -616 C 615 -618.48 615.192 -620.9 615.575 -623.25 C 617.099 -632.62 621.657 -640.96 629.248 -648.29 C 629.495 -648.52 629.746 -648.76 630 -649 C 630.025 -649.02 630.049 -649.05 630.074 -649.07 C 639.269 -658.37 650.233 -663 662.401 -663 C 662.418 -663 662.434 -663 662.451 -663 C 662.467 -663 662.484 -663 662.5 -663 C 671.864 -663 680.559 -660.31 688.581 -654.92 C 691.124 -653.22 693.597 -651.25 696.001 -649 L 832.001 -513 C 832.027 -512.97 832.054 -512.95 832.08 -512.92 C 840.862 -504.1 845.492 -493.49 845.96 -481.11 C 845.987 -480.41 846.001 -479.71 846.001 -479 C 846.001 -478.33 845.989 -477.67 845.965 -477.01 C 845.521 -464.57 840.886 -453.92 832.068 -445.07 C 832.046 -445.05 832.023 -445.02 832.001 -445 L 696.001 -309 L 696 -309 C 686 -299.67 674.83 -295 662.5 -295 C 662.484 -295 662.467 -295 662.451 -295 C 662.434 -295 662.418 -295 662.401 -295 C 650.278 -295 639.349 -299.62 630.175 -308.83 C 630.117 -308.88 630.058 -308.94 630 -309 C 620 -318.33 615 -329.33 615 -342 C 615 -342.89 615.023 -343.77 615.069 -344.64 C 615.668 -356.16 620.224 -366.23 628.871 -374.87 C 628.914 -374.91 628.957 -374.96 629 -375 L 687 -432 L 476 -432 C 452.047 -432 434.399 -429.68 423.067 -425.03 C 423.045 -425.02 423.023 -425.01 423.001 -425 C 422.957 -424.98 422.913 -424.96 422.869 -424.95 C 412.274 -420.55 400.509 -412.08 387.583 -399.55 C 386.728 -398.71 385.867 -397.87 385.001 -397 L 195.001 -207 C 194.779 -206.79 194.557 -206.59 194.333 -206.39 C 184.497 -197.46 173.389 -193 161 -193 C 160.104 -193 159.217 -193.02 158.341 -193.07 C 146.792 -193.68 137.092 -198.28 129.128 -206.86 C 129.085 -206.91 129.043 -206.95 129 -207 C 119 -216.33 114 -227.33 114 -240 C 114 -242.48 114.192 -244.9 114.575 -247.25 C 116.099 -256.62 120.657 -264.96 128.248 -272.29 C 128.495 -272.52 128.746 -272.76 129 -273 L 335 -479 Z"/>
</svg>