<?xml version="1.0" encoding="utf-8"?>
<svg viewBox="0 0 22 22" xmlns="http://www.w3.org/2000/svg">
  <path d="M 8.5 4.501 C 8.487 4.897 8.349 5.348 8.132 5.654 C 7.915 5.96 7.751 6.068 7.5 6.218 L 7.5 15 C 7.478 15.174 7.528 15.236 7.646 15.354 C 7.764 15.472 7.826 15.522 8 15.5 L 8.5 15.5 L 8.5 14 C 8.5 13.806 8.612 13.63 8.788 13.547 C 8.964 13.465 9.171 13.492 9.32 13.616 L 12.32 16.116 C 12.434 16.211 12.5 16.352 12.5 16.5 C 12.5 16.648 12.434 16.789 12.32 16.884 L 9.32 19.384 C 9.171 19.508 8.964 19.535 8.788 19.453 C 8.612 19.371 8.5 19.194 8.5 19 L 8.5 17.5 L 8 17.5 C 7.346 17.478 6.657 17.193 6.232 16.768 C 5.807 16.343 5.522 15.654 5.5 15 L 5.5 6.216 C 5.252 6.064 5.085 5.96 4.868 5.654 C 4.651 5.348 4.513 4.896 4.5 4.5 C 4.522 3.984 4.751 3.42 5.086 3.086 C 5.42 2.751 5.984 2.5 6.5 2.5 C 7.016 2.5 7.58 2.751 7.914 3.086 C 8.249 3.42 8.478 3.984 8.5 4.501 Z M 13.5 4.5 L 14 4.5 C 14.654 4.522 15.343 4.807 15.768 5.232 C 16.193 5.657 16.478 6.346 16.5 7 L 16.5 15.784 C 16.748 15.936 16.915 16.04 17.132 16.346 C 17.349 16.652 17.487 17.104 17.5 17.5 C 17.478 18.016 17.249 18.58 16.914 18.914 C 16.58 19.249 16.016 19.5 15.5 19.5 C 14.984 19.5 14.42 19.249 14.086 18.914 C 13.751 18.58 13.522 18.016 13.5 17.499 C 13.513 17.103 13.651 16.652 13.868 16.346 C 14.085 16.04 14.249 15.932 14.5 15.782 L 14.5 7 C 14.522 6.826 14.472 6.764 14.354 6.646 C 14.236 6.528 14.174 6.478 14 6.5 L 13.5 6.5 L 13.5 8 C 13.5 8.194 13.388 8.371 13.212 8.453 C 13.036 8.535 12.829 8.508 12.68 8.384 L 9.68 5.884 C 9.566 5.789 9.5 5.648 9.5 5.5 C 9.5 5.352 9.566 5.211 9.68 5.116 L 12.68 2.616 C 12.829 2.492 13.036 2.465 13.212 2.547 C 13.388 2.63 13.5 2.806 13.5 3 Z M 6 4.5 C 6 4.776 6.224 5 6.5 5 C 6.776 5 7 4.776 7 4.5 C 7 4.224 6.776 4 6.5 4 C 6.224 4 6 4.224 6 4.5 Z M 15 17.5 C 15 17.776 15.224 18 15.5 18 C 15.776 18 16 17.776 16 17.5 C 16 17.224 15.776 17 15.5 17 C 15.224 17 15 17.224 15 17.5 Z"/>
</svg>