<?xml version="1.0" encoding="utf-8"?>
<svg xmlns="http://www.w3.org/2000/svg" height="48" viewBox="0 -960 960 960" width="48">
  <path d="M 179.13 -620.82 C 170.043 -629.82 165.5 -640.93 165.5 -654.14 C 165.5 -667.36 170.043 -678.53 179.13 -687.64 C 188.21 -696.76 199.333 -701.32 212.5 -701.32 L 746.5 -701.32 C 759.667 -701.32 770.96 -696.82 780.38 -687.82 C 789.793 -678.82 794.5 -667.71 794.5 -654.5 C 794.5 -641.28 789.793 -630.11 780.38 -621 C 770.96 -611.88 759.667 -607.32 746.5 -607.32 L 212.5 -607.32 C 199.333 -607.32 188.21 -611.82 179.13 -620.82 Z M 208.25 -490.32 C 217.417 -506.99 231.167 -515.32 249.5 -515.32 L 709.5 -515.32 C 727.833 -515.32 741.583 -506.99 750.75 -490.32 C 759.917 -473.65 759.167 -457.32 748.5 -441.32 L 518.5 -95.32 C 514.133 -88.65 508.473 -83.49 501.52 -79.82 C 494.56 -76.15 487.22 -74.32 479.5 -74.32 C 471.78 -74.32 464.44 -76.15 457.48 -79.82 C 450.527 -83.49 444.867 -88.65 440.5 -95.32 L 210.5 -441.32 C 199.833 -457.32 199.083 -473.65 208.25 -490.32 Z M 479.5 -208.32 L 623.5 -420.32 L 335.5 -420.32 L 479.5 -208.32 Z M 346.293 -769.45 C 329.855 -769.45 316.096 -775.06 305.032 -786.26 C 293.97 -797.47 288.428 -811.37 288.428 -827.77 C 288.428 -844.38 294.031 -858.08 305.26 -869.08 C 316.488 -880.29 330.333 -885.68 346.771 -885.68 C 363.229 -885.68 376.99 -880.07 388.05 -868.86 C 399.114 -857.66 404.656 -843.76 404.656 -827.36 C 404.656 -810.97 399.031 -797.27 387.803 -786.06 C 376.596 -775.06 362.752 -769.45 346.293 -769.45 Z M 600.538 -769.45 C 584.103 -769.45 570.34 -775.06 559.28 -786.26 C 548.218 -797.47 542.676 -811.37 542.676 -827.77 C 542.676 -844.38 548.278 -858.08 559.507 -869.08 C 570.736 -880.29 584.58 -885.68 601.017 -885.68 C 617.476 -885.68 631.403 -880.07 642.817 -868.86 C 654.232 -857.66 659.94 -843.76 659.94 -827.36 C 659.94 -810.97 654.151 -797.27 642.569 -786.06 C 631.009 -775.06 617 -769.45 600.538 -769.45 Z" style=""/>
</svg>