<?xml version="1.0" encoding="utf-8"?>
<svg xmlns="http://www.w3.org/2000/svg" height="48" viewBox="0 -960 960 960" width="48">
  <path d="M 149 -135 C 122.967 -135 100.79 -144.327 82.47 -162.98 C 64.157 -181.627 55 -203.633 55 -229 L 55 -731 C 55 -756.64 64.157 -778.883 82.47 -797.73 C 100.79 -816.577 122.967 -826 149 -826 L 410 -826 L 481 -754 L 811 -754 C 836.64 -754 858.883 -744.677 877.73 -726.03 C 896.577 -707.377 906 -685.367 906 -660 L 906 -493 C 906 -478.947 901.247 -467.433 891.74 -458.46 C 882.227 -449.487 870.893 -445 857.74 -445 C 844.58 -445 833.5 -449.543 824.5 -458.63 C 815.5 -467.71 811 -478.833 811 -492 L 811 -660 L 442 -660 L 371 -731 L 149 -731 L 149 -229 L 425 -229 C 438.167 -229 449.293 -224.44 458.38 -215.32 C 467.46 -206.207 472 -195.04 472 -181.82 C 472 -168.607 467.46 -157.5 458.38 -148.5 C 449.293 -139.5 438.167 -135 425 -135 Z M 510.768 -272.56 C 510.768 -322.4 527.898 -365 562.172 -400.59 C 596.435 -436.17 638.616 -454.66 688.706 -455.95 L 688.706 -478.19 C 688.706 -483.13 690.761 -486.69 694.884 -488.87 C 698.996 -491.04 703.039 -490.55 706.993 -487.57 L 769.766 -439.64 C 776.023 -434.69 779.158 -428.46 779.158 -420.85 C 779.158 -413.34 776.023 -407.21 769.766 -402.57 L 736.734 -377.08 C 723.605 -382.406 709.251 -385.339 694.212 -385.339 C 692.366 -385.339 690.53 -385.295 688.706 -385.207 L 688.706 -385.26 C 658.387 -383.99 632.853 -372.41 612.092 -350.66 C 591.334 -328.92 580.953 -302.92 580.953 -272.56 C 580.953 -269.426 581.095 -266.317 581.38 -263.235 C 583.342 -238.084 593.525 -215.242 609.244 -197.392 C 610.207 -193.306 610.497 -189.03 610.116 -184.58 C 609.454 -177.08 606.32 -171.25 600.725 -167.29 L 585.402 -155.43 C 578.147 -149.88 570.326 -148.21 561.924 -150.49 C 553.521 -152.86 547.838 -157.89 544.872 -165.8 C 533.998 -182.61 525.595 -200.89 519.664 -220.48 C 513.733 -240.04 510.768 -257.45 510.768 -272.56 Z M 699.579 -89.2 L 699.579 -66.96 C 699.579 -62.016 697.514 -58.559 693.401 -56.383 C 689.279 -54.206 685.246 -54.6 681.291 -57.564 L 618.519 -106 C 612.251 -110.65 609.127 -116.77 609.127 -124.29 C 609.127 -131.91 612.251 -138.13 618.519 -143.07 L 650.7 -167.647 C 664.095 -162.064 678.794 -158.981 694.212 -158.981 C 735.098 -158.981 770.921 -180.661 790.811 -213.153 C 798.796 -225.879 803.887 -239.803 806.082 -254.893 C 806.944 -260.523 807.391 -266.289 807.391 -272.16 C 807.391 -301.342 796.346 -327.945 778.209 -348.016 C 777.137 -351.994 776.794 -356.172 777.18 -360.55 C 777.833 -368.16 781.134 -374.1 787.065 -378.35 L 804.366 -391.69 C 811.286 -397.03 818.858 -398.41 827.101 -395.93 C 835.336 -393.46 840.772 -388.13 843.412 -379.83 C 853.951 -361.74 862.275 -342.75 868.373 -322.79 C 874.463 -302.81 877.517 -286.11 877.517 -272.56 C 877.517 -222.85 860.375 -180.14 826.113 -144.55 C 791.84 -108.96 749.659 -90.578 699.579 -89.2 Z M 696.831 -176.97 C 690.142 -176.97 684.507 -179.3 679.946 -183.97 C 675.385 -188.52 673.104 -194.2 673.104 -200.89 C 673.104 -207.58 675.415 -213.25 680.037 -217.81 C 684.659 -222.37 690.315 -224.61 697.013 -224.61 C 703.713 -224.61 709.339 -222.28 713.9 -217.72 C 718.461 -213.05 720.741 -207.37 720.741 -200.69 C 720.741 -193.99 718.43 -188.42 713.808 -183.86 C 709.196 -179.3 703.531 -176.97 696.831 -176.97 Z M 696.831 -255.01 C 690.142 -255.01 684.507 -257.34 679.946 -261.9 C 675.385 -266.56 673.104 -272.35 673.104 -279.34 L 673.104 -340.15 C 673.104 -346.84 675.415 -352.51 680.037 -357.07 C 684.659 -361.74 690.315 -363.97 697.013 -363.97 C 703.713 -363.97 709.339 -361.74 713.9 -357.07 C 718.461 -352.51 720.741 -346.84 720.741 -340.15 L 720.741 -279.34 C 720.741 -272.35 718.43 -266.56 713.808 -261.9 C 709.196 -257.34 703.531 -255.01 696.831 -255.01 Z"/>
</svg>