<?xml version="1.0" encoding="utf-8"?>
<svg xmlns="http://www.w3.org/2000/svg" height="48" viewBox="0 -960 960 960" width="48">
  <path d="M 149 -135 C 122.967 -135 100.79 -144.327 82.47 -162.98 C 64.157 -181.627 55 -203.633 55 -229 L 55 -731 C 55 -756.64 64.157 -778.883 82.47 -797.73 C 100.79 -816.577 122.967 -826 149 -826 L 410 -826 L 481 -754 L 811 -754 C 836.64 -754 858.883 -744.677 877.73 -726.03 C 896.577 -707.377 906 -685.367 906 -660 L 906 -493 C 906 -478.947 901.247 -467.433 891.74 -458.46 C 882.227 -449.487 870.893 -445 857.74 -445 C 844.58 -445 833.5 -449.543 824.5 -458.63 C 815.5 -467.71 811 -478.833 811 -492 L 811 -660 L 442 -660 L 371 -731 L 149 -731 L 149 -229 L 425 -229 C 438.167 -229 449.293 -224.44 458.38 -215.32 C 467.46 -206.207 472 -195.04 472 -181.82 C 472 -168.607 467.46 -157.5 458.38 -148.5 C 449.293 -139.5 438.167 -135 425 -135 Z M 510.768 -272.56 C 510.768 -322.4 527.898 -365 562.172 -400.59 C 596.435 -436.17 638.616 -454.66 688.706 -455.95 L 688.706 -478.19 C 688.706 -483.13 690.761 -486.69 694.884 -488.87 C 698.996 -491.04 703.039 -490.55 706.993 -487.57 L 769.766 -439.64 C 776.023 -434.69 779.158 -428.46 779.158 -420.85 C 779.158 -413.34 776.023 -407.21 769.766 -402.57 L 706.993 -354.13 C 703.039 -351.15 698.996 -350.76 694.884 -352.93 C 690.761 -355.12 688.706 -358.57 688.706 -363.52 L 688.706 -385.26 C 658.387 -383.99 632.853 -372.41 612.092 -350.66 C 591.334 -328.92 580.953 -302.92 580.953 -272.56 C 580.953 -260.41 583.089 -248.65 587.379 -237.28 C 591.66 -225.91 597.917 -215.43 606.161 -205.83 C 609.454 -199.31 610.768 -192.2 610.116 -184.58 C 609.454 -177.08 606.32 -171.25 600.725 -167.29 L 585.402 -155.43 C 578.147 -149.88 570.326 -148.21 561.924 -150.49 C 553.521 -152.86 547.838 -157.89 544.872 -165.8 C 533.998 -182.61 525.595 -200.89 519.664 -220.48 C 513.733 -240.04 510.768 -257.45 510.768 -272.56 Z M 699.579 -89.2 L 699.579 -66.96 C 699.579 -62.016 697.514 -58.559 693.401 -56.383 C 689.279 -54.206 685.246 -54.6 681.291 -57.564 L 618.519 -106 C 612.251 -110.65 609.127 -116.77 609.127 -124.29 C 609.127 -131.91 612.251 -138.13 618.519 -143.07 L 681.291 -191.01 C 685.246 -193.98 689.279 -194.47 693.401 -192.3 C 697.514 -190.13 699.579 -186.56 699.579 -181.62 L 699.579 -159.87 C 729.888 -161.26 755.432 -172.72 776.192 -194.47 C 796.95 -216.22 807.331 -242.32 807.331 -272.56 C 807.331 -285.12 805.106 -296.98 800.659 -308.15 C 796.209 -319.43 789.864 -329.91 781.629 -339.79 C 778 -346.12 776.518 -353.04 777.18 -360.55 C 777.833 -368.16 781.134 -374.1 787.065 -378.35 L 804.366 -391.69 C 811.286 -397.03 818.858 -398.41 827.101 -395.93 C 835.336 -393.46 840.772 -388.13 843.412 -379.83 C 853.951 -361.74 862.275 -342.75 868.373 -322.79 C 874.463 -302.81 877.517 -286.11 877.517 -272.56 C 877.517 -222.85 860.375 -180.14 826.113 -144.55 C 791.84 -108.96 749.659 -90.578 699.579 -89.2 Z"/>
</svg>