<?xml version="1.0" encoding="utf-8"?>
<svg xmlns="http://www.w3.org/2000/svg" height="48" viewBox="0 -960 960 960" width="48">
  <path d="M 36.449 -809 C 36.449 -835.03 45.699 -857.21 64.219 -875.53 C 82.729 -893.84 105.139 -903 131.439 -903 L 459.449 -903 C 485.089 -903 507.329 -893.84 526.179 -875.53 C 545.019 -857.21 554.449 -835.03 554.449 -809 L 554.449 -151 C 554.449 -124.97 545.019 -102.79 526.179 -84.471 C 507.329 -66.161 485.089 -57.001 459.449 -57.001 L 131.439 -57.001 C 105.139 -57.001 82.729 -66.161 64.219 -84.471 C 45.699 -102.79 36.449 -124.97 36.449 -151 Z M 131.439 -809 L 131.439 -151 L 459.449 -151 L 459.449 -270 L 325.449 -270 C 316.949 -270 309.819 -272.89 304.079 -278.68 C 298.319 -284.46 295.449 -291.63 295.449 -300.18 C 295.449 -308.73 298.319 -315.83 304.079 -321.5 C 309.819 -327.17 316.949 -330 325.449 -330 L 459.449 -330 L 459.449 -450 L 325.449 -450 C 316.949 -450 309.819 -452.89 304.079 -458.68 C 298.319 -464.46 295.449 -471.63 295.449 -480.18 C 295.449 -488.73 298.319 -495.83 304.079 -501.5 C 309.819 -507.17 316.949 -510 325.449 -510 L 459.449 -510 L 459.449 -630 L 325.449 -630 C 316.949 -630 309.819 -632.89 304.079 -638.68 C 298.319 -644.46 295.449 -651.63 295.449 -660.18 C 295.449 -668.73 298.319 -675.83 304.079 -681.5 C 309.819 -687.17 316.949 -690 325.449 -690 L 459.449 -690 L 459.449 -809 Z M 718.501 -712.86 L 718.451 -712.75 C 710.141 -704.33 700.031 -700.1 688.281 -700.1 C 676.541 -700.1 666.431 -704.33 657.931 -712.75 C 649.631 -721.19 645.271 -731.27 645.271 -743.02 C 645.271 -754.76 649.631 -764.55 657.931 -772.38 L 730.251 -845.66 C 734.591 -849.89 739.281 -853.05 744.721 -855.14 C 750.121 -857.26 755.561 -858.31 760.961 -858.31 C 766.391 -858.31 771.641 -857.26 776.851 -855.14 C 781.931 -853.05 786.621 -849.89 790.781 -845.66 L 863.181 -773.28 C 872.161 -764.86 876.511 -754.76 876.331 -743.02 C 875.991 -731.27 871.291 -721.19 862.231 -712.75 C 854.481 -704.33 844.741 -700.1 832.981 -700.1 C 821.231 -700.1 811.471 -704.33 803.551 -712.75 L 803.421 -711.95 L 803.421 -242.46 L 852.161 -291.24 C 860.181 -299.08 869.931 -302.84 881.681 -302.54 C 893.441 -302.25 903.531 -297.87 911.801 -289.44 C 919.811 -281.61 923.551 -271.82 923.551 -260.07 C 923.551 -248.33 919.811 -238.25 911.801 -229.81 L 790.781 -109.65 C 786.621 -106.04 781.931 -103.19 776.851 -101.07 C 771.641 -98.98 766.391 -97.91 760.961 -97.91 C 755.561 -97.91 750.121 -98.98 744.721 -101.07 C 739.281 -103.19 734.591 -106.04 730.251 -109.65 L 610.101 -229.81 C 602.321 -238.25 598.351 -248.18 598.351 -259.62 C 598.351 -271.08 602.681 -281.01 611.001 -289.44 C 618.951 -297.87 628.711 -302.25 640.451 -302.54 C 652.201 -302.84 662.311 -298.78 670.621 -290.34 L 718.501 -242.46 Z" style=""/>
</svg>