<?xml version="1.0" encoding="utf-8"?>
<svg xmlns="http://www.w3.org/2000/svg" height="48" viewBox="0 -960 960 960" width="48">
  <path d="M 151 -36.447 C 124.967 -36.447 102.79 -45.703 84.47 -64.217 C 66.157 -82.73 57 -105.14 57 -131.44 L 57 -459.45 C 57 -485.09 66.157 -507.33 84.47 -526.18 C 102.79 -545.02 124.967 -554.45 151 -554.45 L 809 -554.45 C 835.033 -554.45 857.21 -545.02 875.53 -526.18 C 893.843 -507.33 903 -485.09 903 -459.45 L 903 -131.44 C 903 -105.14 893.843 -82.73 875.53 -64.217 C 857.21 -45.703 835.033 -36.447 809 -36.447 Z M 151 -131.44 L 809 -131.44 L 809 -459.45 L 690 -459.45 L 690 -325.45 C 690 -316.95 687.107 -309.82 681.32 -304.08 C 675.54 -298.32 668.373 -295.45 659.82 -295.45 C 651.273 -295.45 644.167 -298.32 638.5 -304.08 C 632.833 -309.82 630 -316.95 630 -325.45 L 630 -459.45 L 510 -459.45 L 510 -325.45 C 510 -316.95 507.107 -309.82 501.32 -304.08 C 495.54 -298.32 488.373 -295.45 479.82 -295.45 C 471.273 -295.45 464.167 -298.32 458.5 -304.08 C 452.833 -309.82 450 -316.95 450 -325.45 L 450 -459.45 L 330 -459.45 L 330 -325.45 C 330 -316.95 327.107 -309.82 321.32 -304.08 C 315.54 -298.32 308.373 -295.45 299.82 -295.45 C 291.273 -295.45 284.167 -298.32 278.5 -304.08 C 272.833 -309.82 270 -316.95 270 -325.45 L 270 -459.45 L 151 -459.45 Z M 246.243 -718.5 L 294.123 -670.62 C 302.564 -662.31 306.627 -652.2 306.321 -640.45 C 306.032 -628.71 301.659 -618.95 293.221 -611 C 284.8 -602.68 274.863 -598.35 263.41 -598.35 C 251.97 -598.35 242.033 -602.32 233.595 -610.1 L 113.439 -730.25 C 109.827 -734.59 106.972 -739.28 104.858 -744.72 C 102.762 -750.12 101.696 -755.56 101.696 -760.96 C 101.696 -766.39 102.762 -771.64 104.858 -776.85 C 106.972 -781.93 109.827 -786.62 113.439 -790.78 L 233.595 -911.8 C 242.033 -919.81 252.117 -923.55 263.86 -923.55 C 275.605 -923.55 285.397 -919.81 293.221 -911.8 C 301.659 -903.53 306.032 -893.44 306.321 -881.68 C 306.627 -869.93 302.87 -860.18 295.029 -852.16 L 246.243 -803.42 L 715.737 -803.42 L 716.537 -803.55 C 708.117 -811.47 703.889 -821.23 703.889 -832.98 C 703.889 -844.74 708.117 -854.48 716.537 -862.23 C 724.975 -871.29 735.057 -875.99 746.802 -876.33 C 758.546 -876.51 768.645 -872.16 777.066 -863.18 L 849.443 -790.78 C 853.673 -786.62 856.835 -781.93 858.929 -776.85 C 861.045 -771.64 862.093 -766.39 862.093 -760.96 C 862.093 -755.56 861.045 -750.12 858.929 -744.72 C 856.835 -739.28 853.673 -734.59 849.443 -730.25 L 776.163 -657.93 C 768.339 -649.63 758.546 -645.27 746.802 -645.27 C 735.057 -645.27 724.975 -649.63 716.537 -657.93 C 708.117 -666.43 703.889 -676.54 703.889 -688.28 C 703.889 -700.03 708.117 -710.14 716.537 -718.45 L 716.642 -718.5 Z"/>
</svg>