<?xml version="1.0" encoding="utf-8"?>
<svg xmlns="http://www.w3.org/2000/svg" height="48" viewBox="0 -960 960 960" width="48">
  <path d="M 151 -36.447 C 124.967 -36.447 102.79 -45.703 84.47 -64.217 C 66.157 -82.73 57 -105.14 57 -131.44 L 57 -459.45 C 57 -485.09 66.157 -507.33 84.47 -526.18 C 102.79 -545.02 124.967 -554.45 151 -554.45 L 809 -554.45 C 835.033 -554.45 857.21 -545.02 875.53 -526.18 C 893.843 -507.33 903 -485.09 903 -459.45 L 903 -131.44 C 903 -105.14 893.843 -82.73 875.53 -64.217 C 857.21 -45.703 835.033 -36.447 809 -36.447 L 151 -36.447 Z M 151 -131.44 L 809 -131.44 L 809 -459.45 L 690 -459.45 L 690 -325.45 C 690 -316.95 687.107 -309.82 681.32 -304.08 C 675.54 -298.32 668.373 -295.45 659.82 -295.45 C 651.273 -295.45 644.167 -298.32 638.5 -304.08 C 632.833 -309.82 630 -316.95 630 -325.45 L 630 -459.45 L 510 -459.45 L 510 -325.45 C 510 -316.95 507.107 -309.82 501.32 -304.08 C 495.54 -298.32 488.373 -295.45 479.82 -295.45 C 471.273 -295.45 464.167 -298.32 458.5 -304.08 C 452.833 -309.82 450 -316.95 450 -325.45 L 450 -459.45 L 330 -459.45 L 330 -325.45 C 330 -316.95 327.107 -309.82 321.32 -304.08 C 315.54 -298.32 308.373 -295.45 299.82 -295.45 C 291.273 -295.45 284.167 -298.32 278.5 -304.08 C 272.833 -309.82 270 -316.95 270 -325.45 L 270 -459.45 L 151 -459.45 L 151 -131.44 Z M 247.148 -718.5 L 247.253 -718.45 C 255.673 -710.14 259.901 -700.03 259.901 -688.28 C 259.901 -676.54 255.673 -666.43 247.253 -657.93 C 238.815 -649.63 228.733 -645.27 216.988 -645.27 C 205.244 -645.27 195.451 -649.63 187.627 -657.93 L 114.347 -730.25 C 110.117 -734.59 106.955 -739.28 104.861 -744.72 C 102.745 -750.12 101.697 -755.56 101.697 -760.96 C 101.697 -766.39 102.745 -771.64 104.861 -776.85 C 106.955 -781.93 110.117 -786.62 114.347 -790.78 L 186.724 -863.18 C 195.145 -872.16 205.244 -876.51 216.988 -876.33 C 228.733 -875.99 238.815 -871.29 247.253 -862.23 C 255.673 -854.48 259.901 -844.74 259.901 -832.98 C 259.901 -821.23 255.673 -811.47 247.253 -803.55 L 248.053 -803.42 L 717.547 -803.42 L 668.761 -852.16 C 660.92 -860.18 657.163 -869.93 657.469 -881.68 C 657.758 -893.44 662.131 -903.53 670.569 -911.8 C 678.393 -919.81 688.185 -923.55 699.93 -923.55 C 711.673 -923.55 721.757 -919.81 730.195 -911.8 L 850.351 -790.78 C 853.963 -786.62 856.818 -781.93 858.932 -776.85 C 861.028 -771.64 862.094 -766.39 862.094 -760.96 C 862.094 -755.56 861.028 -750.12 858.932 -744.72 C 856.818 -739.28 853.963 -734.59 850.351 -730.25 L 730.195 -610.1 C 721.757 -602.32 711.82 -598.35 700.38 -598.35 C 688.927 -598.35 678.99 -602.68 670.569 -611 C 662.131 -618.95 657.758 -628.71 657.469 -640.45 C 657.163 -652.2 661.226 -662.31 669.667 -670.62 L 717.547 -718.5 L 247.148 -718.5 Z"/>
</svg>