<?xml version="1.0" encoding="utf-8"?>
<svg viewBox="0 0 22 22" xmlns="http://www.w3.org/2000/svg">
  <path d="M 11.621 2.525 C 11.736 2.536 11.849 2.548 11.96 2.562 C 12.088 2.575 12.228 2.592 12.357 2.611 C 12.467 2.629 12.574 2.65 12.676 2.672 C 12.811 2.697 12.957 2.73 13.088 2.761 C 13.186 2.787 13.285 2.815 13.38 2.844 C 13.516 2.882 13.653 2.923 13.789 2.969 C 13.807 2.975 13.821 2.979 13.837 2.984 C 13.866 2.993 13.894 3.005 13.92 3.019 C 15.259 3.52 16.432 4.362 17.214 5.365 C 18.013 6.389 18.483 7.702 18.5 9 L 18.5 17 C 18.451 17.426 18.152 17.907 17.73 18.193 C 17.335 18.46 16.749 18.706 16.087 18.895 C 14.784 19.267 12.965 19.5 11 19.5 C 9.035 19.5 7.216 19.267 5.913 18.895 C 5.251 18.706 4.665 18.46 4.27 18.193 C 3.848 17.907 3.549 17.426 3.5 17 C 3.5 16.994 3.5 8.989 3.5 8.983 C 3.53 7.409 4.219 5.863 5.329 4.751 C 6.425 3.654 8.032 2.856 9.789 2.593 C 9.813 2.587 9.838 2.582 9.863 2.579 C 9.917 2.573 9.971 2.567 10.027 2.562 C 10.346 2.523 10.68 2.503 11.003 2.5 C 11.204 2.501 11.422 2.511 11.621 2.525 Z M 11.65 10.488 C 13 10.44 14.182 10.241 15.085 9.94 C 15.596 9.77 15.957 9.593 16.219 9.386 C 16.458 9.198 16.539 9.142 16.5 9 C 16.516 8.051 16.177 7.234 15.548 6.477 C 14.914 5.715 14.26 5.271 13.332 4.927 C 12.537 6.291 11.939 8.056 11.65 10.488 Z M 6.698 9.864 C 6.85 8.162 7.083 6.867 7.655 5.422 C 7.17 5.726 7.026 5.767 6.415 6.52 C 5.809 7.269 5.484 8.071 5.5 9 C 5.461 9.142 5.542 9.198 5.781 9.386 C 6.005 9.562 6.299 9.717 6.698 9.864 Z M 5.5 16.855 C 5.535 16.874 5.582 16.895 5.655 16.924 C 5.927 17.031 6.315 17.126 6.839 17.214 C 7.903 17.391 9.362 17.5 11 17.5 C 12.638 17.5 14.097 17.391 15.161 17.214 C 15.685 17.126 16.073 17.031 16.345 16.924 C 16.418 16.895 16.465 16.874 16.5 16.855 L 16.5 11.404 C 15.101 12.081 13.519 12.492 11 12.5 C 8.48 12.491 6.898 12.08 5.5 11.402 Z"/>
</svg>