<?xml version="1.0" encoding="utf-8"?>
<svg viewBox="0 0 22 22" xmlns="http://www.w3.org/2000/svg">
  <path d="M 6.347 1.549 C 6.593 1.698 6.904 2.197 7.141 2.785 C 7.23 2.604 7.321 2.44 7.411 2.302 C 7.648 1.936 8.065 1.568 8.393 1.568 C 8.598 1.568 8.878 1.744 8.981 1.893 C 9.064 2.013 9.138 2.207 9.175 2.371 C 9.242 2.67 9.266 3.101 9.247 3.546 C 9.212 4.42 9.014 5.562 8.69 6.514 L 8.582 6.827 L 8.825 7.062 C 9.347 7.59 9.577 8.083 9.74 9.073 C 9.755 9.229 9.853 9.439 9.972 9.567 C 10.361 10.083 10.695 10.17 12.158 10.265 C 13.819 10.387 14.877 10.684 15.781 11.271 C 16.981 12.101 17.714 13.338 17.97 14.981 C 17.988 15.107 18.001 15.202 18.012 15.273 C 18.26 15.284 18.524 15.346 18.714 15.447 C 18.975 15.587 19.249 15.884 19.385 16.159 C 19.551 16.662 19.466 17.329 19.18 17.784 C 18.901 18.227 18.362 18.65 17.804 18.853 C 17.716 18.875 17.662 18.879 17.63 18.876 C 17.635 18.882 17.64 18.89 17.644 18.9 C 17.6 19.376 17.533 19.834 17.289 20.109 C 17.038 20.392 16.549 20.495 16 20.5 L 9.977 20.499 C 9.977 20.499 9.687 20.473 9.475 20.278 C 9.387 20.197 9.283 20.04 9.211 19.834 C 9.182 19.895 9.154 19.949 9.127 19.993 C 8.891 20.265 8.44 20.486 8.1 20.499 C 7.763 20.512 7.298 20.343 7.03 20.105 C 6.79 19.758 6.722 19.452 6.834 18.69 C 6.899 18.268 6.984 17.454 7.023 16.878 C 7.099 15.888 7.121 16.006 6.748 15.226 C 6.492 14.673 6.279 13.985 6.2 13.453 C 6.105 12.728 5.917 12.167 5.713 12.05 C 5.73 12.035 5.522 12.006 5.224 11.973 C 4.179 11.845 3.576 11.598 3.057 11.109 C 2.649 10.678 2.5 10.382 2.5 9.84 C 2.5 9.48 2.627 8.979 2.785 8.654 C 3.153 7.964 4.225 6.948 4.955 6.594 C 5.036 6.556 5.095 6.528 5.137 6.507 C 5.041 5.713 4.977 3.335 5.05 2.822 C 5.107 2.479 5.235 2.122 5.385 1.911 C 5.47 1.791 5.622 1.647 5.749 1.583 C 5.894 1.51 6.17 1.509 6.347 1.549 Z"/>
</svg>