<?xml version="1.0" encoding="utf-8"?>
<svg viewBox="0 0 22 22" xmlns="http://www.w3.org/2000/svg">
  <path d="M 16.051 4.463 L 17.613 3.72 C 17.805 3.629 18.032 3.669 18.182 3.818 C 18.331 3.968 18.371 4.195 18.28 4.387 L 17.537 5.949 L 19.168 6.529 C 19.367 6.6 19.5 6.788 19.5 7 C 19.5 7.212 19.367 7.4 19.168 7.471 L 17.537 8.051 L 18.28 9.613 C 18.371 9.805 18.331 10.032 18.182 10.182 C 18.032 10.331 17.805 10.371 17.613 10.28 L 16.051 9.537 L 15.471 11.168 C 15.4 11.367 15.212 11.5 15 11.5 C 14.788 11.5 14.6 11.367 14.529 11.168 L 13.949 9.537 L 12.387 10.28 C 12.195 10.371 11.968 10.331 11.818 10.182 C 11.669 10.032 11.629 9.805 11.72 9.613 L 12.463 8.051 L 10.832 7.471 C 10.633 7.4 10.5 7.212 10.5 7 C 10.5 6.788 10.633 6.6 10.832 6.529 L 12.463 5.949 L 11.72 4.387 C 11.629 4.195 11.669 3.968 11.818 3.818 C 11.968 3.669 12.195 3.629 12.387 3.72 L 13.949 4.463 L 14.529 2.832 C 14.6 2.633 14.788 2.5 15 2.5 C 15.212 2.5 15.4 2.633 15.471 2.832 Z M 8.708 10.538 L 9.861 9.194 C 10.01 9.02 10.259 8.97 10.464 9.072 C 10.669 9.175 10.778 9.404 10.728 9.628 L 10.345 11.356 L 12.014 10.769 C 12.23 10.692 12.47 10.773 12.597 10.965 C 12.723 11.156 12.703 11.409 12.548 11.578 L 11.354 12.883 L 13.092 13.208 C 13.317 13.25 13.485 13.44 13.499 13.669 C 13.513 13.898 13.369 14.107 13.15 14.176 L 11.462 14.708 L 12.806 15.861 C 12.98 16.01 13.03 16.259 12.928 16.464 C 12.825 16.669 12.596 16.778 12.372 16.728 L 10.644 16.345 L 11.231 18.014 C 11.308 18.23 11.227 18.47 11.035 18.597 C 10.844 18.723 10.591 18.703 10.422 18.548 L 9.118 17.354 L 8.792 19.092 C 8.75 19.318 8.56 19.485 8.331 19.499 C 8.102 19.513 7.893 19.369 7.824 19.15 L 7.292 17.462 L 6.139 18.806 C 5.99 18.98 5.741 19.03 5.536 18.928 C 5.331 18.825 5.222 18.596 5.272 18.372 L 5.655 16.644 L 3.986 17.231 C 3.77 17.308 3.529 17.227 3.403 17.035 C 3.277 16.844 3.297 16.591 3.452 16.422 L 4.648 15.118 L 2.908 14.792 C 2.682 14.75 2.515 14.56 2.501 14.331 C 2.487 14.102 2.631 13.893 2.85 13.824 L 4.538 13.292 L 3.194 12.139 C 3.02 11.99 2.97 11.741 3.072 11.536 C 3.175 11.331 3.404 11.222 3.628 11.272 L 5.356 11.655 L 4.769 9.986 C 4.692 9.77 4.773 9.53 4.965 9.403 C 5.156 9.277 5.409 9.297 5.578 9.452 L 6.883 10.648 L 7.208 8.908 C 7.25 8.683 7.44 8.515 7.669 8.501 C 7.898 8.487 8.107 8.631 8.176 8.85 Z"/>
</svg>