<?xml version="1.0" encoding="utf-8"?>
<svg viewBox="0 0 22 22" xmlns="http://www.w3.org/2000/svg">
  <path d="M 8.833 3.181 L 8.22 4.759 C 8.927 4.892 9.217 4.931 9.828 4.981 L 9.822 3.002 C 9.822 2.869 9.874 2.741 9.968 2.647 C 10.062 2.553 10.189 2.5 10.322 2.5 L 11.57 2.5 C 11.846 2.5 12.07 2.723 12.07 2.999 L 12.075 5.035 C 12.887 5.003 13.234 4.969 13.896 4.867 L 13.239 3.182 C 13.179 3.028 13.199 2.854 13.292 2.718 C 13.386 2.581 13.54 2.5 13.705 2.5 L 15.043 2.5 C 15.249 2.5 15.434 2.627 15.509 2.819 L 16.117 4.381 C 17.029 4.117 17.774 3.84 18.783 3.354 C 18.938 3.28 19.121 3.29 19.266 3.381 C 19.412 3.473 19.5 3.633 19.5 3.805 L 19.5 5.178 C 19.5 5.376 19.383 5.555 19.202 5.635 C 18.293 6.035 17.698 6.242 16.929 6.473 L 18.142 9.596 C 18.356 9.503 18.414 9.476 18.792 9.303 C 18.947 9.232 19.127 9.245 19.27 9.337 C 19.413 9.429 19.5 9.588 19.5 9.758 L 19.5 11.103 C 19.5 11.304 19.38 11.486 19.195 11.564 C 18.98 11.654 19.034 11.635 18.949 11.673 L 19.466 13.007 C 19.489 13.064 19.5 13.126 19.5 13.187 L 19.5 16.891 C 19.5 17.087 19.385 17.266 19.205 17.347 C 16.959 18.352 14.518 18.913 12.099 19.02 C 12.089 19.287 11.869 19.5 11.6 19.5 L 10.363 19.5 C 10.088 19.5 9.864 19.277 9.863 19.002 L 9.863 18.983 C 7.575 18.811 5.409 18.292 3.173 17.256 C 3.091 17.287 2.999 17.296 2.908 17.279 C 2.671 17.234 2.5 17.028 2.5 16.787 L 2.5 13.369 C 2.5 13.307 2.512 13.246 2.534 13.188 L 3.298 11.222 C 3.119 11.132 3.078 11.11 2.771 10.952 C 2.605 10.867 2.5 10.695 2.5 10.508 L 2.5 9.1 C 2.5 8.922 2.595 8.757 2.749 8.667 C 2.903 8.578 3.093 8.577 3.247 8.665 C 3.695 8.92 3.822 8.986 4.11 9.132 L 5.217 6.283 C 4.386 6 3.726 5.733 2.777 5.26 C 2.607 5.175 2.5 5.002 2.5 4.813 L 2.5 3.424 C 2.5 3.247 2.593 3.084 2.745 2.994 C 2.896 2.904 3.084 2.9 3.239 2.985 C 4.282 3.554 5.069 3.876 6.03 4.191 L 6.563 2.819 C 6.638 2.627 6.823 2.5 7.029 2.5 L 8.367 2.5 C 8.532 2.5 8.687 2.581 8.78 2.718 C 8.873 2.854 8.893 3.027 8.833 3.181 Z M 6.181 9.994 C 7.485 10.445 8.43 10.648 9.842 10.795 L 9.833 7.223 C 8.875 7.146 8.354 7.075 7.395 6.875 Z M 14.726 6.998 C 13.758 7.17 13.102 7.236 12.079 7.273 L 12.085 10.886 C 13.595 10.85 14.563 10.707 16.018 10.318 Z M 4.143 15.23 C 6.092 16.147 7.737 16.569 9.858 16.741 L 9.849 13.041 C 8.176 12.882 6.97 12.626 5.37 12.079 Z M 12.089 13.121 L 12.095 16.785 C 14.241 16.695 15.953 16.312 18.008 15.422 L 16.835 12.413 C 15.177 12.878 13.835 13.077 12.089 13.121 Z"/>
</svg>