<?xml version="1.0" encoding="utf-8"?>
<svg viewBox="0 0 22 22" xmlns="http://www.w3.org/2000/svg">
  <path d="M 6.525 2.5 L 11.313 2.518 C 11.473 2.518 11.624 2.595 11.718 2.725 C 11.812 2.856 11.838 3.023 11.787 3.176 C 11.697 3.438 11.723 3.351 11.69 3.434 L 15.167 4.939 C 15.416 4.277 15.584 3.774 15.787 2.904 C 15.84 2.678 16.041 2.518 16.273 2.518 L 17.543 2.518 C 17.694 2.518 17.837 2.586 17.932 2.704 C 18.027 2.822 18.064 2.976 18.031 3.124 C 17.793 4.212 17.548 4.958 17.215 5.827 L 19.138 6.66 C 19.322 6.74 19.44 6.921 19.439 7.121 L 19.436 8.466 C 19.435 8.635 19.35 8.792 19.208 8.884 C 19.067 8.976 18.888 8.99 18.734 8.922 L 16.308 7.854 C 15.461 9.473 14.649 10.628 13.464 11.925 L 16.178 14.63 C 17.065 13.676 17.773 12.804 18.581 11.565 C 18.702 11.379 18.931 11.296 19.143 11.359 C 19.355 11.422 19.5 11.617 19.5 11.838 L 19.5 13.986 C 19.5 14.096 19.464 14.202 19.398 14.29 C 18.787 15.089 18.333 15.598 17.76 16.208 L 19.298 17.739 C 19.393 17.834 19.446 17.963 19.445 18.097 L 19.439 18.953 C 19.439 19.086 19.385 19.213 19.29 19.306 C 19.195 19.399 19.067 19.451 18.934 19.449 L 18.045 19.439 C 17.915 19.438 17.79 19.386 17.698 19.294 L 16.17 17.772 C 15.539 18.345 15.007 18.802 14.186 19.403 C 14.1 19.466 13.997 19.5 13.891 19.5 L 11.67 19.5 C 11.447 19.5 11.25 19.352 11.189 19.137 C 11.128 18.922 11.216 18.693 11.406 18.575 C 12.69 17.78 13.593 17.078 14.582 16.193 L 11.864 13.487 C 10.559 14.618 9.457 15.366 7.947 16.129 L 9.102 18.737 C 9.17 18.892 9.156 19.07 9.064 19.212 C 8.971 19.354 8.814 19.439 8.645 19.439 L 7.313 19.439 C 7.115 19.439 6.935 19.323 6.855 19.142 L 5.913 17.014 C 5.009 17.349 4.223 17.596 3.099 17.824 C 2.952 17.854 2.799 17.816 2.683 17.721 C 2.567 17.626 2.5 17.484 2.5 17.334 L 2.5 16.064 C 2.5 15.829 2.664 15.626 2.894 15.576 C 3.795 15.382 4.318 15.214 5.004 14.966 L 3.477 11.521 C 3.372 11.562 3.429 11.549 3.149 11.638 C 2.997 11.685 2.832 11.657 2.704 11.563 C 2.576 11.469 2.5 11.319 2.5 11.16 L 2.529 6.22 C 2.53 5.983 2.698 5.78 2.93 5.733 C 3.162 5.685 3.395 5.808 3.489 6.025 L 4.028 7.281 C 4.032 7.292 4.036 7.302 4.04 7.313 L 4.599 8.575 C 5.248 8.211 5.507 8.035 5.994 7.642 L 2.659 4.323 C 2.565 4.229 2.512 4.102 2.512 3.969 L 2.512 3.019 C 2.512 2.743 2.736 2.519 3.012 2.519 L 3.818 2.519 C 3.951 2.519 4.078 2.572 4.171 2.665 L 7.606 6.088 C 8.143 5.463 8.373 5.145 8.73 4.518 L 6.324 3.457 C 6.107 3.362 5.987 3.128 6.036 2.897 C 6.085 2.666 6.289 2.5 6.525 2.5 Z M 10.777 5.42 C 10.288 6.302 9.89 6.861 9.19 7.667 L 11.879 10.347 C 12.927 9.19 13.527 8.341 14.262 6.954 L 10.777 5.42 Z M 7.583 9.224 C 6.88 9.804 6.378 10.144 5.506 10.621 L 7.039 14.083 C 8.368 13.401 9.157 12.866 10.277 11.906 L 7.583 9.224 Z"/>
</svg>