<?xml version="1.0" encoding="utf-8"?>
<svg viewBox="0 0 22 22" xmlns="http://www.w3.org/2000/svg">
  <g>
    <path d="M 19.5 11 C 19.5 13.311 18.521 15.5 17.01 17.01 C 15.5 18.521 13.311 19.5 11 19.5 C 8.689 19.5 6.5 18.521 4.99 17.01 C 3.479 15.5 2.5 13.311 2.5 11 C 2.5 8.689 3.479 6.5 4.99 4.99 C 6.5 3.479 8.689 2.5 11 2.5 C 13.311 2.5 15.5 3.479 17.01 4.99 C 18.521 6.5 19.5 8.689 19.5 11 Z M 6.404 6.404 C 5.2 7.608 4.5 9.169 4.5 11 C 4.5 11.147 4.501 11.121 4.502 11.18 C 5.841 11.99 8.073 12.506 11 12.5 C 13.925 12.507 16.205 12.069 17.498 11.182 C 17.499 11.122 17.5 11.148 17.5 11 C 17.5 9.169 16.8 7.608 15.596 6.404 C 14.392 5.2 12.831 4.5 11 4.5 C 9.169 4.5 7.608 5.2 6.404 6.404 Z"/>
  </g>
</svg>