<?xml version="1.0" encoding="utf-8"?>
<svg viewBox="0 0 22 22" xmlns="http://www.w3.org/2000/svg">
  <path d="M 11.036 8.217 L 11.036 13.783 C 11.014 15.166 10.433 16.514 9.531 17.416 C 8.629 18.318 7.281 18.921 5.898 18.921 C 4.515 18.921 3.167 18.318 2.265 17.416 C 1.363 16.514 0.782 15.166 0.76 13.783 L 0.76 8.217 C 0.782 6.834 1.363 5.486 2.265 4.584 C 3.167 3.682 4.515 3.079 5.898 3.079 C 7.281 3.079 8.629 3.682 9.531 4.584 C 10.433 5.486 11.014 6.834 11.036 8.217 Z M 3.628 5.947 C 3.02 6.556 2.666 7.295 2.688 8.217 L 2.688 13.783 C 2.666 14.705 3.02 15.444 3.628 16.053 C 4.237 16.661 4.976 16.993 5.898 16.993 C 6.82 16.993 7.56 16.661 8.168 16.053 C 8.777 15.444 9.131 14.705 9.109 13.783 L 9.109 8.217 C 9.131 7.295 8.777 6.556 8.168 5.947 C 7.56 5.339 6.82 5.007 5.898 5.007 C 4.976 5.007 4.237 5.339 3.628 5.947 Z M 21.24 7.29 L 21.24 8.217 C 21.24 8.493 21.016 8.717 20.74 8.717 L 19.812 8.717 C 19.536 8.717 19.312 8.493 19.312 8.217 L 19.312 7.29 C 19.312 7.014 19.536 6.79 19.812 6.79 L 20.74 6.79 C 21.016 6.79 21.24 7.014 21.24 7.29 Z M 15.174 9.573 C 16.045 9.595 16.929 9.968 17.495 10.534 C 18.062 11.1 18.435 11.984 18.457 12.855 C 18.457 13.131 18.233 13.355 17.957 13.355 L 17.029 13.355 C 16.753 13.355 16.529 13.131 16.529 12.855 C 16.551 12.445 16.405 12.169 16.132 11.897 C 15.86 11.624 15.584 11.5 15.174 11.5 C 14.764 11.5 14.488 11.624 14.216 11.897 C 13.943 12.169 13.797 12.445 13.819 12.855 L 13.819 18.421 C 13.819 18.697 13.595 18.921 13.319 18.921 L 12.391 18.921 C 12.115 18.921 11.891 18.697 11.891 18.421 L 11.891 10.073 C 11.891 9.797 12.115 9.573 12.391 9.573 L 13.319 9.573 C 13.535 9.573 13.72 9.71 13.789 9.903 C 14.228 9.701 14.711 9.583 15.174 9.573 Z M 21.24 10.073 L 21.24 18.421 C 21.24 18.697 21.016 18.921 20.74 18.921 L 19.812 18.921 C 19.536 18.921 19.312 18.697 19.312 18.421 L 19.312 10.073 C 19.312 9.797 19.536 9.573 19.812 9.573 L 20.74 9.573 C 21.016 9.573 21.24 9.797 21.24 10.073 Z"/>
</svg>