<?xml version="1.0" encoding="utf-8"?>
<svg viewBox="0 0 22 22" xmlns="http://www.w3.org/2000/svg">
  <path d="M 20.137 11.481 L 13.404 13.404 L 11.481 20.137 C 11.419 20.352 11.223 20.5 11 20.5 C 10.777 20.5 10.581 20.352 10.519 20.137 L 8.596 13.404 L 1.863 11.481 C 1.648 11.419 1.5 11.223 1.5 11 C 1.5 10.777 1.648 10.581 1.863 10.519 L 8.596 8.596 L 10.519 1.863 C 10.581 1.648 10.777 1.5 11 1.5 C 11.223 1.5 11.419 1.648 11.481 1.863 L 13.404 8.596 L 20.137 10.519 C 20.352 10.581 20.5 10.777 20.5 11 C 20.5 11.223 20.352 11.419 20.137 11.481 Z"/>
</svg>