<?xml version="1.0" encoding="utf-8"?>
<svg xmlns="http://www.w3.org/2000/svg" height="48" viewBox="0 -960 960 960" width="48">
  <path d="M 480 -135 C 402.667 -135 334.667 -138.833 276 -146.5 C 217.333 -154.167 167 -163 125 -173 C 112.333 -175.667 101.667 -182 93 -192 C 84.333 -202 80 -213.667 80 -227 C 80 -238.333 84.667 -247.167 94 -253.5 C 103.333 -259.833 113.667 -261.333 125 -258 C 146.333 -252 167.667 -246.667 189 -242 C 210.333 -237.333 228 -234 242 -232 C 209.333 -259.333 183.333 -296.5 164 -343.5 C 144.667 -390.5 135 -436 135 -480 C 135 -548 138.833 -612 146.5 -672 C 154.167 -732 163.333 -785.667 174 -833 C 176.667 -846.333 182.833 -857.5 192.5 -866.5 C 202.167 -875.5 213.667 -880 227 -880 C 238.333 -880 247.167 -875.667 253.5 -867 C 259.833 -858.333 261.667 -848 259 -836 C 253.667 -814.667 249.167 -793.167 245.5 -771.5 C 241.833 -749.833 239 -733 237 -721 C 265.667 -752.333 300.833 -777.5 342.5 -796.5 C 384.167 -815.5 430 -825 480 -825 C 555.333 -825 622.333 -821 681 -813 C 739.667 -805 790.667 -796.333 834 -787 C 846.667 -783.667 857.5 -777.167 866.5 -767.5 C 875.5 -757.833 880 -746.333 880 -733 C 880 -722.333 875.5 -713.833 866.5 -707.5 C 857.5 -701.167 847.333 -699.667 836 -703 C 814 -709 792.333 -714.167 771 -718.5 C 749.667 -722.833 732.667 -725.667 720 -727 C 756.667 -689.667 783.333 -651.667 800 -613 C 816.667 -574.333 825 -530 825 -480 C 825 -405.333 821.333 -338.333 814 -279 C 806.667 -219.667 797.667 -168.333 787 -125 C 784.333 -112.333 778 -101.667 768 -93 C 758 -84.333 746.333 -80 733 -80 C 722.333 -80 713.667 -84.5 707 -93.5 C 700.333 -102.5 698.667 -112.667 702 -124 C 707.333 -144.667 712.167 -165.5 716.5 -186.5 C 720.833 -207.5 724 -225 726 -239 C 693.333 -203 654.833 -176.667 610.5 -160 C 566.167 -143.333 522.667 -135 480 -135 Z"/>
</svg>