<?xml version="1.0" encoding="utf-8"?>
<svg viewBox="0 0 22 22" xmlns="http://www.w3.org/2000/svg">
  <path d="M 9.5 3.003 C 9.497 3.416 9.479 3.535 9.445 3.801 L 16.205 5.734 C 16.397 4.828 16.498 4.083 16.5 2.998 C 16.501 2.723 16.725 2.5 17 2.5 L 18 2.5 C 18.133 2.5 18.26 2.553 18.354 2.647 C 18.448 2.741 18.5 2.868 18.5 3.001 C 18.494 4.594 18.229 6.275 17.745 7.788 C 17.705 7.915 17.614 8.021 17.495 8.081 C 17.376 8.141 17.237 8.151 17.111 8.109 L 16.381 7.864 L 14.687 7.381 C 14.217 8.616 13.588 9.735 12.799 10.734 L 13.926 11.782 L 14.653 12.456 L 16.453 14.129 C 17.27 13.156 17.889 12.262 18.557 10.976 C 18.663 10.772 18.895 10.667 19.119 10.721 C 19.343 10.776 19.5 10.977 19.5 11.207 L 19.5 13.246 C 19.5 13.343 19.472 13.438 19.419 13.519 C 18.896 14.32 18.305 15.096 17.67 15.812 C 17.655 15.835 17.639 15.857 17.621 15.878 C 17.396 16.133 17.16 16.387 16.921 16.629 C 16.895 16.657 16.865 16.68 16.834 16.7 C 15.825 17.722 14.686 18.645 13.479 19.421 C 13.398 19.473 13.305 19.5 13.209 19.5 L 11.189 19.5 C 10.958 19.5 10.758 19.342 10.703 19.117 C 10.649 18.893 10.756 18.66 10.962 18.555 C 12.646 17.697 13.872 16.792 15.104 15.606 L 13.624 14.23 C 10.775 16.906 7.106 18.473 3.001 18.5 C 2.868 18.5 2.741 18.448 2.647 18.354 C 2.553 18.26 2.5 18.133 2.5 18 L 2.5 17 C 2.5 16.724 2.724 16.5 3 16.5 C 6.632 16.517 9.68 15.22 12.168 12.878 L 11.435 12.197 C 11.051 12.548 10.641 12.878 10.205 13.189 C 10.185 13.21 10.162 13.229 10.137 13.247 C 9.854 13.442 9.555 13.632 9.258 13.804 C 9.103 13.893 8.913 13.893 8.758 13.804 C 8.677 13.758 8.613 13.691 8.57 13.612 L 8.049 12.796 L 7.62 12.121 C 6.195 12.787 4.745 13.155 3 13.162 C 2.724 13.162 2.5 12.938 2.5 12.662 L 2.5 12 C 2.5 11.724 2.723 11.501 2.999 11.5 C 3.769 11.501 4.156 11.441 4.72 11.32 L 4.08 9.403 C 3.723 9.464 3.509 9.496 3.002 9.5 C 2.869 9.501 2.742 9.448 2.647 9.354 C 2.553 9.261 2.5 9.133 2.5 9 L 2.5 8 C 2.5 7.725 2.723 7.501 2.998 7.5 C 3.34 7.5 3.649 7.464 3.98 7.387 C 3.984 7.386 3.997 7.383 4.002 7.382 C 4.14 7.35 4.266 7.316 4.4 7.272 C 4.396 7.273 4.393 7.274 4.395 7.274 C 4.396 7.274 4.402 7.271 4.409 7.269 C 4.41 7.268 4.41 7.268 4.411 7.268 C 4.411 7.268 4.411 7.268 4.411 7.268 C 4.419 7.265 4.427 7.262 4.429 7.261 C 4.572 7.213 4.703 7.161 4.84 7.098 C 5.937 6.627 6.734 5.802 7.167 4.691 C 7.17 4.681 7.174 4.671 7.178 4.661 C 7.233 4.524 7.277 4.395 7.318 4.254 C 7.32 4.247 7.322 4.24 7.324 4.233 C 7.366 4.086 7.398 3.944 7.424 3.793 C 7.476 3.524 7.499 3.272 7.5 2.997 C 7.502 2.722 7.725 2.5 8 2.5 L 9 2.5 C 9.133 2.5 9.261 2.553 9.354 2.647 C 9.448 2.742 9.501 2.869 9.5 3.002 Z M 5.978 8.769 L 6.613 10.675 C 6.843 10.569 6.914 10.544 7.288 10.323 C 7.518 10.189 7.734 10.05 7.95 9.896 C 8.062 9.816 8.201 9.786 8.336 9.812 C 8.471 9.838 8.589 9.919 8.662 10.035 L 9.086 10.703 L 9.449 11.273 C 11.029 10.072 12.008 8.81 12.768 6.832 L 8.895 5.725 C 8.249 7.107 7.368 8.027 5.978 8.769 Z M 4.411 7.268 C 4.41 7.268 4.41 7.268 4.409 7.269 C 4.406 7.27 4.403 7.271 4.4 7.272 C 4.405 7.27 4.412 7.267 4.411 7.268 Z"/>
</svg>