<?xml version="1.0" encoding="utf-8"?>
<svg viewBox="0 0 22 22" xmlns="http://www.w3.org/2000/svg">
  <path d="M 19.401 8.322 L 15.39 13.724 C 15.31 13.831 15.191 13.902 15.06 13.921 C 14.928 13.94 14.794 13.905 14.687 13.825 L 12.087 11.865 L 9.073 13.471 C 9.057 13.479 9.04 13.487 9.022 13.494 L 6.495 14.496 L 4.271 19.213 C 4.153 19.463 3.855 19.57 3.606 19.452 L 2.787 19.068 C 2.667 19.011 2.574 18.909 2.53 18.785 C 2.485 18.66 2.491 18.522 2.548 18.402 L 5.009 13.181 C 5.063 13.066 5.159 12.976 5.277 12.93 L 8.247 11.753 L 11.563 9.984 L 15.849 2.745 C 15.941 2.59 16.109 2.497 16.289 2.5 C 16.469 2.504 16.633 2.604 16.719 2.762 L 19.44 7.785 C 19.532 7.956 19.517 8.165 19.401 8.322 Z M 13.463 10.515 L 14.704 11.45 L 17.336 7.905 L 16.225 5.852 Z"/>
</svg>