<?xml version="1.0" encoding="utf-8"?>
<svg viewBox="0 0 22 22" xmlns="http://www.w3.org/2000/svg">
  <path d="M 11.5 3 L 11.5 10.623 C 11.986 10.543 12.489 10.5 13 10.5 C 14.728 10.5 16.373 10.991 17.52 11.756 C 18.685 12.532 19.5 13.756 19.5 15 C 19.5 16.244 18.685 17.468 17.52 18.244 C 16.373 19.009 14.728 19.5 13 19.5 C 11.272 19.5 9.627 19.009 8.48 18.244 C 7.315 17.468 6.5 16.244 6.5 15 C 6.5 13.756 7.315 12.532 8.48 11.756 C 8.614 11.667 8.754 11.581 8.9 11.5 L 3 11.5 C 2.724 11.5 2.5 11.276 2.5 11 L 2.5 3 C 2.5 2.724 2.724 2.5 3 2.5 L 11 2.5 C 11.276 2.5 11.5 2.724 11.5 3 Z M 19.5 5.5 C 19.5 6.293 19.137 7.106 18.621 7.621 C 18.106 8.137 17.293 8.5 16.5 8.5 C 15.707 8.5 14.894 8.137 14.379 7.621 C 13.863 7.106 13.5 6.293 13.5 5.5 C 13.5 4.707 13.863 3.894 14.379 3.379 C 14.894 2.863 15.707 2.5 16.5 2.5 C 17.293 2.5 18.106 2.863 18.621 3.379 C 19.137 3.894 19.5 4.707 19.5 5.5 Z M 4.5 9.5 L 9.5 9.5 L 9.5 4.5 L 4.5 4.5 Z M 15.793 4.793 C 15.584 5.001 15.5 5.188 15.5 5.5 C 15.5 5.812 15.584 5.999 15.793 6.207 C 16.001 6.416 16.188 6.5 16.5 6.5 C 16.812 6.5 16.999 6.416 17.207 6.207 C 17.416 5.999 17.5 5.812 17.5 5.5 C 17.5 5.188 17.416 5.001 17.207 4.793 C 16.999 4.584 16.812 4.5 16.5 4.5 C 16.188 4.5 16.001 4.584 15.793 4.793 Z M 9.722 13.307 C 8.898 13.802 8.5 14.321 8.5 15 C 8.5 15.679 8.898 16.199 9.722 16.693 C 10.568 17.2 11.684 17.5 13 17.5 C 14.316 17.5 15.432 17.2 16.278 16.693 C 17.102 16.199 17.5 15.679 17.5 15 C 17.5 14.321 17.102 13.802 16.278 13.307 C 15.432 12.8 14.316 12.5 13 12.5 C 11.684 12.5 10.568 12.8 9.722 13.307 Z"/>
</svg>