<?xml version="1.0" encoding="utf-8"?>
<svg xmlns="http://www.w3.org/2000/svg" height="48" viewBox="0 -960 960 960" width="48">
  <path d="M 221.82 -95 C 208.607 -95 197.5 -99.543 188.5 -108.63 C 179.5 -117.71 175 -128.833 175 -142 L 175 -778 C 175 -791.167 179.543 -802.46 188.63 -811.88 C 197.71 -821.293 208.833 -826 222 -826 L 443 -826 C 456.167 -826 467.293 -821.273 476.38 -811.82 C 485.46 -802.373 490 -791.04 490 -777.82 C 490 -764.607 485.46 -753.5 476.38 -744.5 C 467.293 -735.5 456.167 -731 443 -731 L 269 -731 L 269 -498 L 546 -498 C 557 -498 566.917 -494.5 575.75 -487.5 C 584.583 -480.5 590 -471.667 592 -461 L 603 -413 L 731 -413 L 731 -444 C 731 -455.833 735.393 -466.127 744.18 -474.88 C 752.96 -483.627 764.293 -488 778.18 -488 C 791.393 -488 802.667 -483.46 812 -474.38 C 821.333 -465.293 826 -454.167 826 -441 L 826 -366 C 826 -352.833 821.293 -341.71 811.88 -332.63 C 802.46 -323.543 791.167 -319 778 -319 L 561 -319 C 550 -319 540.083 -322.5 531.25 -329.5 C 522.417 -336.5 517 -345.333 515 -356 L 504 -404 L 269 -404 L 269 -142 C 269 -128.833 264.44 -117.71 255.32 -108.63 C 246.207 -99.543 235.04 -95 221.82 -95 Z M 652.155 -829.52 L 703.665 -896.56 C 707.486 -901.58 712.098 -905.38 717.516 -908.02 C 722.932 -910.66 728.594 -912 734.497 -912 C 740.407 -912 746.079 -910.66 751.523 -908.02 C 756.957 -905.38 761.587 -901.58 765.416 -896.56 L 817.092 -829.52 L 895.534 -803.05 C 904.1 -800.06 910.654 -795.01 915.19 -787.96 C 919.723 -780.91 922 -773.31 922 -765.02 C 922 -761.41 921.409 -757.61 920.243 -753.56 C 919.079 -749.5 917.315 -745.8 914.942 -742.17 L 865.1 -670.54 L 866.865 -594.42 C 866.865 -583.22 862.745 -573.78 854.514 -566 C 846.274 -558.16 836.651 -554.29 825.632 -554.29 C 825.474 -554.29 822.607 -554.64 817.023 -555.25 L 734.54 -578.1 L 652.155 -555.25 C 650.322 -554.9 648.6 -554.64 646.978 -554.29 C 645.355 -554.01 643.803 -553.83 642.32 -553.83 C 631.285 -553.83 621.766 -557.81 613.774 -565.75 C 605.772 -573.68 602.068 -583.39 602.659 -594.86 L 604.423 -670.64 L 554.139 -742.63 C 551.466 -746.15 549.623 -750.03 548.608 -754.01 C 547.584 -758.07 547.082 -761.85 547.082 -765.47 C 547.082 -773.94 549.349 -781.7 553.883 -788.67 C 558.418 -795.72 565.113 -800.49 573.987 -803.05 Z"/>
</svg>