<?xml version="1.0" encoding="utf-8"?>
<svg xmlns="http://www.w3.org/2000/svg" height="48" viewBox="0 -960 960 960" width="48">
  <path d="M 508.5 -141.5 C 508.5 -128.33 503.96 -117.21 494.87 -108.13 C 485.79 -99.04 474.8 -94.5 461.89 -94.5 L 204.11 -94.5 C 191.2 -94.5 180.21 -99.04 171.12 -108.13 C 162.04 -117.21 157.5 -128.33 157.5 -141.5 L 157.5 -817.5 C 157.5 -830.59 162.04 -841.86 171.12 -851.31 C 180.21 -860.77 191.2 -865.5 204.11 -865.5 L 461.89 -865.5 C 474.8 -865.5 485.79 -860.77 494.87 -851.31 C 503.96 -841.86 508.5 -830.59 508.5 -817.5 L 508.5 -141.5 Z M 658.5 -141.5 C 658.5 -128.33 653.95 -117.21 644.85 -108.13 C 635.74 -99.04 624.59 -94.5 611.4 -94.5 L 604.29 -94.5 C 591.1 -94.5 580 -99.04 571 -108.13 C 562 -117.21 557.5 -128.33 557.5 -141.5 L 557.5 -817.5 C 557.5 -830.59 562.05 -841.86 571.15 -851.31 C 580.26 -860.77 591.41 -865.5 604.6 -865.5 L 611.71 -865.5 C 624.9 -865.5 636 -860.77 645 -851.31 C 654 -841.86 658.5 -830.59 658.5 -817.5 L 658.5 -141.5 Z M 802.5 -141.5 C 802.5 -128.33 797.94 -117.21 788.82 -108.13 C 779.71 -99.04 768.37 -94.5 754.82 -94.5 C 741.27 -94.5 730 -99.04 721 -108.13 C 712 -117.21 707.5 -128.33 707.5 -141.5 L 707.5 -817.5 C 707.5 -830.59 712.06 -841.86 721.18 -851.31 C 730.29 -860.77 741.63 -865.5 755.18 -865.5 C 768.73 -865.5 780 -860.77 789 -851.31 C 798 -841.86 802.5 -830.59 802.5 -817.5 L 802.5 -141.5 Z" style=""/>
</svg>