<?xml version="1.0" encoding="utf-8"?>
<svg viewBox="0 0 22 22" xmlns="http://www.w3.org/2000/svg">
  <path d="M 15 3 L 15 6 C 15 6.276 14.776 6.5 14.5 6.5 L 10.5 6.5 C 9.222 6.478 8.16 6.976 7.318 7.818 C 6.476 8.66 6 9.722 6 11 C 6 12.278 6.476 13.34 7.318 14.182 C 8.16 15.024 9.222 15.522 10.5 15.5 L 14.5 15.5 C 14.776 15.5 15 15.724 15 16 L 15 19 C 15 19.276 14.776 19.5 14.5 19.5 L 10.5 19.5 C 8.189 19.478 6 18.521 4.49 17.01 C 2.979 15.5 2 13.311 2 11 C 2 8.689 2.979 6.5 4.49 4.99 C 6 3.479 8.189 2.522 10.5 2.5 L 14.5 2.5 C 14.776 2.5 15 2.724 15 3 Z M 20 3 L 20 6 C 20 6.276 19.776 6.5 19.5 6.5 L 16.5 6.5 C 16.224 6.5 16 6.276 16 6 L 16 3 C 16 2.724 16.224 2.5 16.5 2.5 L 19.5 2.5 C 19.776 2.5 20 2.724 20 3 Z M 20 16 L 20 19 C 20 19.276 19.776 19.5 19.5 19.5 L 16.5 19.5 C 16.224 19.5 16 19.276 16 19 L 16 16 C 16 15.724 16.224 15.5 16.5 15.5 L 19.5 15.5 C 19.776 15.5 20 15.724 20 16 Z"/>
</svg>