<?xml version="1.0" encoding="utf-8"?>
<svg viewBox="0 0 22 22" xmlns="http://www.w3.org/2000/svg">
  <path d="M 3 2.5 C 6.334 2.514 9.574 3.539 12.217 5.322 C 14.86 7.106 17.023 9.727 18.284 12.813 C 18.346 12.967 18.328 13.142 18.235 13.28 C 18.142 13.417 17.987 13.5 17.82 13.5 L 15.633 13.5 C 15.44 13.5 15.264 13.389 15.181 13.214 C 12.958 8.438 8.268 5.468 2.999 5.5 C 2.724 5.5 2.5 5.276 2.5 5 L 2.5 3 C 2.5 2.867 2.553 2.74 2.647 2.646 C 2.74 2.553 2.868 2.5 3 2.5 Z M 3 6.5 C 7.408 6.538 11.581 8.949 13.814 12.75 C 13.903 12.905 13.903 13.095 13.814 13.25 C 13.725 13.405 13.559 13.5 13.381 13.5 L 11.169 13.5 C 11.165 13.501 11.161 13.503 11.157 13.504 C 10.953 13.572 10.728 13.501 10.599 13.328 C 8.805 10.873 6.04 9.48 2.999 9.5 C 2.723 9.499 2.5 9.276 2.5 9 L 2.5 7 C 2.5 6.867 2.553 6.74 2.647 6.646 C 2.74 6.553 2.868 6.5 3 6.5 Z M 11 19.5 L 9 19.5 C 8.867 19.5 8.74 19.447 8.646 19.354 C 8.553 19.26 8.5 19.133 8.5 19 C 8.522 17.445 7.912 16.134 6.889 15.111 C 5.866 14.088 4.555 13.478 3 13.5 C 2.724 13.5 2.5 13.276 2.5 13 L 2.5 11 C 2.5 10.724 2.724 10.5 3 10.5 C 5.311 10.522 7.5 11.479 9.01 12.99 C 10.521 14.5 11.478 16.689 11.5 19 C 11.5 19.276 11.276 19.5 11 19.5 Z M 6.5 17.5 C 6.5 18.016 6.249 18.58 5.914 18.914 C 5.58 19.249 5.016 19.5 4.5 19.5 C 3.984 19.5 3.42 19.249 3.086 18.914 C 2.751 18.58 2.5 18.016 2.5 17.5 C 2.5 16.984 2.751 16.42 3.086 16.086 C 3.42 15.751 3.984 15.5 4.5 15.5 C 5.016 15.5 5.58 15.751 5.914 16.086 C 6.249 16.42 6.5 16.984 6.5 17.5 Z M 19.5 16 L 19.5 17 C 19.5 17.276 19.276 17.5 19 17.5 L 14 17.5 C 13.724 17.5 13.5 17.276 13.5 17 L 13.5 16 C 13.5 15.724 13.724 15.5 14 15.5 L 19 15.5 C 19.276 15.5 19.5 15.724 19.5 16 Z"/>
</svg>