<?xml version="1.0" encoding="utf-8"?>
<svg xmlns="http://www.w3.org/2000/svg" height="48" viewBox="0 -960 960 960" width="48">
  <path d="M 440 -135 C 422 -135 406.667 -141.333 394 -154 C 381.333 -166.667 375 -182 375 -200 L 375 -431 L 142 -730 C 126 -750 123.5 -771 134.5 -793 C 145.5 -815 163.333 -826 188 -826 L 772 -826 C 796.667 -826 814.5 -815 825.5 -793 C 836.5 -771 834.333 -750 819 -730 L 586 -431 L 586 -192 C 586 -175.333 580.5 -161.667 569.5 -151 C 558.5 -140.333 544.667 -135 528 -135 L 440 -135 Z M 480 -451 L 701 -731 L 260 -731 L 480 -451 Z M 686.69 -296.44 C 675.409 -296.44 665.688 -300.32 657.525 -308.62 C 649.363 -316.65 645.27 -326.64 645.27 -338.1 C 645.27 -349.55 649.363 -359.54 657.525 -368.06 C 665.688 -376.35 675.409 -380.49 686.69 -380.49 L 745.166 -380.49 L 829.224 -380.49 L 886.482 -380.49 C 897.763 -380.49 907.508 -376.35 915.671 -368.06 C 923.833 -359.77 927.902 -349.79 927.902 -338.1 C 927.902 -326.64 923.833 -316.89 915.671 -308.62 C 907.508 -300.57 897.763 -296.44 886.482 -296.44 L 829.224 -296.44 L 745.166 -296.44 L 686.69 -296.44 Z"/>
</svg>