<?xml version="1.0" encoding="utf-8"?>
<svg xmlns="http://www.w3.org/2000/svg" height="48" viewBox="0 -960 960 960" width="48">
  <path d="M 461.948 -252.93 C 455.635 -255.26 449.651 -259.43 443.998 -265.43 L 205.998 -566.44 C 193.998 -581.76 191.951 -598.26 199.858 -615.94 C 207.765 -633.61 221.811 -642.44 241.998 -642.44 L 325.998 -642.44 L 325.998 -829.44 C 325.998 -842.53 330.728 -853.8 340.188 -863.24 C 349.641 -872.7 360.911 -877.43 373.998 -877.43 L 587.998 -877.43 C 601.165 -877.43 612.288 -872.7 621.368 -863.24 C 630.455 -853.8 634.998 -842.53 634.998 -829.44 L 634.998 -642.44 L 718.998 -642.44 C 739.185 -642.44 753.231 -633.61 761.138 -615.94 C 769.045 -598.26 766.665 -581.76 753.998 -566.44 L 517.998 -265.43 C 512.345 -259.43 506.361 -255.26 500.048 -252.93 C 493.735 -250.61 487.385 -249.43 480.998 -249.43 C 474.611 -249.43 468.261 -250.61 461.948 -252.93 Z M 608.998 -531.44 L 540.998 -531.44 L 540.998 -782.44 L 420.998 -782.44 L 420.998 -531.44 L 352.998 -531.44 L 480.998 -374.43 L 608.998 -531.44 Z M 215.953 -82.569 C 190.943 -82.569 169.623 -91.609 151.983 -109.5 C 134.363 -127.39 125.533 -149.34 125.533 -174.92 L 125.533 -309.6 C 125.533 -322.47 129.863 -333.25 138.513 -341.91 C 147.173 -350.57 157.923 -354.79 170.743 -354.79 C 183.573 -354.79 194.303 -350.57 202.963 -341.91 C 211.623 -333.25 215.953 -322.47 215.953 -309.6 L 215.953 -173.97 L 744.05 -173.97 L 744.05 -309.6 C 744.05 -322.47 748.377 -333.25 757.036 -341.91 C 765.693 -350.57 776.448 -354.79 789.26 -354.79 C 802.093 -354.79 812.827 -350.57 821.484 -341.91 C 830.143 -333.25 834.47 -322.47 834.47 -309.6 L 834.47 -173.97 C 834.47 -148.93 825.504 -127.39 807.536 -109.5 C 789.587 -91.609 768.424 -82.569 744.05 -82.569 L 215.953 -82.569 Z" style=""/>
</svg>