<?xml version="1.0" encoding="utf-8"?>
<svg xmlns="http://www.w3.org/2000/svg" height="48" viewBox="0 -960 960 960" width="48">
  <path d="M 476 -55 C 418.06 -55 363.407 -66 312.04 -88 C 260.68 -110 216 -140 178 -178 C 140 -216 110 -260.68 88 -312.04 C 66 -363.407 55 -418.06 55 -476 C 55 -534.907 66 -590.467 88 -642.68 C 110 -694.893 140.313 -740.56 178.94 -779.68 C 217.56 -818.807 262.727 -849.64 314.44 -872.18 C 366.147 -894.727 421.38 -906 480.14 -906 C 538.9 -906 594.067 -894.65 645.64 -871.95 C 697.213 -849.243 742.333 -818.41 781 -779.45 C 819.667 -740.483 850.167 -694.893 872.5 -642.68 C 894.833 -590.467 906 -534.907 906 -476 L 906 -171 C 906 -139.087 894.547 -111.773 871.64 -89.06 C 848.74 -66.353 821.193 -55 789 -55 Z M 800 -120 C 812.667 -120 822.833 -124.167 830.5 -132.5 C 838.167 -140.833 842 -150.5 842 -161.5 C 842 -174.033 837.667 -183.917 829 -191.15 C 820.333 -198.383 810.833 -202 800.5 -202 C 797.26 -202 794.103 -201.64 791.027 -200.921 C 785.959 -195.255 780.731 -189.721 775.342 -184.32 C 770.249 -179.216 765.037 -174.256 759.706 -169.44 C 759.235 -166.773 759 -163.96 759 -161 C 759 -150.333 763.333 -140.833 772 -132.5 C 780.667 -124.167 790 -120 800 -120 Z M 339.807 -339.75 C 330.896 -348.79 326.421 -359.58 326.421 -372.55 L 326.421 -586.47 C 326.421 -599.42 330.896 -610.23 339.807 -619.25 C 348.718 -628.09 359.631 -632.61 372.545 -632.61 L 586.475 -632.61 C 599.409 -632.61 610.322 -628.09 619.233 -619.25 C 628.143 -610.23 632.597 -599.42 632.597 -586.47 L 632.597 -372.55 C 632.597 -359.58 628.143 -348.79 619.233 -339.75 C 610.322 -330.93 599.409 -326.42 586.475 -326.42 L 372.545 -326.42 C 359.631 -326.42 348.718 -330.93 339.807 -339.75 Z M 480 -154.68 C 510.962 -154.68 540.334 -158.424 568.116 -165.902 C 589.318 -171.697 609.653 -179.608 629.123 -189.635 C 658.027 -204.675 684.864 -224.562 709.633 -249.28 C 772.771 -312.3 804.331 -389.24 804.331 -479.9 C 804.331 -570 772.831 -646.52 709.828 -709.74 C 646.827 -772.73 569.891 -804.34 479.018 -804.34 C 389.071 -804.34 312.527 -772.73 249.387 -709.92 C 186.269 -646.73 154.689 -570 154.689 -479.12 C 154.689 -389.02 186.228 -312.49 249.269 -249.28 C 312.311 -186.29 389.227 -154.68 480 -154.68 Z"/>
</svg>