<?xml version="1.0" encoding="utf-8"?>
<svg xmlns="http://www.w3.org/2000/svg" height="48" viewBox="0 -960 960 960" width="48">
  <path d="M 476 -55 C 418.06 -55 363.407 -66 312.04 -88 C 260.68 -110 216 -140 178 -178 C 140 -216 110 -260.68 88 -312.04 C 72.593 -348.012 62.581 -385.596 57.964 -424.792 C 55.723 -442.793 54.602 -461.159 54.602 -479.89 C 54.602 -539.29 65.639 -594.88 87.675 -646.46 C 109.73 -698.06 140.021 -743.03 178.512 -781.44 C 217.024 -819.62 262.072 -850.01 313.681 -872.41 C 365.288 -894.8 420.494 -906 479.28 -906 C 479.424 -906 479.569 -906 479.713 -906 C 479.855 -906 479.998 -906 480.14 -906 C 496.735 -906 513.043 -905.095 529.064 -903.284 C 570.052 -898.727 609.059 -888.434 646.08 -872.41 C 697.787 -850.21 742.797 -819.83 781.047 -781.63 C 819.318 -743.44 849.611 -698.44 871.926 -646.87 C 886.787 -612.378 896.7 -576.204 901.664 -538.278 C 904.555 -517.952 906 -497.193 906 -476 L 906 -171 C 906 -139.087 894.547 -111.773 871.64 -89.06 C 848.74 -66.353 821.193 -55 789 -55 Z M 800 -120 C 812.667 -120 822.833 -124.167 830.5 -132.5 C 838.167 -140.833 842 -150.5 842 -161.5 C 842 -174.033 837.667 -183.917 829 -191.15 C 820.333 -198.383 810.833 -202 800.5 -202 C 797.26 -202 794.103 -201.64 791.027 -200.921 C 785.959 -195.255 780.731 -189.721 775.342 -184.32 C 770.249 -179.216 765.037 -174.256 759.706 -169.44 C 759.235 -166.773 759 -163.96 759 -161 C 759 -150.333 763.333 -140.833 772 -132.5 C 780.667 -124.167 790 -120 800 -120 Z M 480 -154.68 C 510.962 -154.68 540.334 -158.424 568.116 -165.902 C 589.318 -171.697 609.653 -179.608 629.123 -189.635 C 658.027 -204.675 684.864 -224.562 709.633 -249.28 C 772.771 -312.3 804.331 -389.24 804.331 -479.9 C 804.331 -570 772.831 -646.52 709.828 -709.74 C 646.827 -772.73 569.891 -804.34 479.018 -804.34 C 389.071 -804.34 312.527 -772.73 249.387 -709.92 C 186.269 -646.73 154.689 -570 154.689 -479.12 C 154.689 -389.02 186.228 -312.49 249.269 -249.28 C 312.311 -186.29 389.227 -154.68 480 -154.68 Z M 395.52 -333.13 C 382.863 -339.93 376.526 -350.54 376.526 -364.94 L 376.526 -596.08 C 376.526 -609.48 382.863 -619.66 395.52 -626.67 C 408.197 -633.47 420.195 -633.27 431.512 -626.07 L 612.468 -509.89 C 623.805 -502.7 629.464 -492.7 629.464 -480.3 C 629.464 -467.71 623.805 -457.71 612.468 -449.92 L 431.512 -334.14 C 420.195 -326.74 408.197 -326.34 395.52 -333.13 Z"/>
</svg>