<?xml version="1.0" encoding="utf-8"?>
<svg xmlns="http://www.w3.org/2000/svg" height="48" viewBox="0 -960 960 960" width="48">
  <path d="M 498.051 -707.07 C 504.364 -704.74 510.348 -700.57 516.001 -694.57 L 754.001 -393.56 C 766.001 -378.24 768.048 -361.74 760.141 -344.06 C 752.234 -326.39 738.188 -317.56 718.001 -317.56 L 634.001 -317.56 L 634.001 -130.56 C 634.001 -117.47 629.271 -106.2 619.811 -96.755 C 610.358 -87.295 599.088 -82.565 586.001 -82.565 L 372.001 -82.565 C 358.834 -82.565 347.711 -87.295 338.631 -96.755 C 329.544 -106.2 325.001 -117.47 325.001 -130.56 L 325.001 -317.56 L 241.001 -317.56 C 220.814 -317.56 206.768 -326.39 198.861 -344.06 C 190.954 -361.74 193.334 -378.24 206.001 -393.56 L 442.001 -694.57 C 447.654 -700.57 453.638 -704.74 459.951 -707.07 C 466.264 -709.39 472.614 -710.57 479.001 -710.57 C 485.388 -710.57 491.738 -709.39 498.051 -707.07 Z M 351.001 -428.56 L 419.001 -428.56 L 419.001 -177.56 L 539.001 -177.56 L 539.001 -428.56 L 607.001 -428.56 L 479.001 -585.57 L 351.001 -428.56 Z M 744.051 -877.43 C 769.061 -877.43 790.376 -868.39 808.018 -850.5 C 825.64 -832.61 834.471 -810.66 834.471 -785.08 L 834.471 -650.4 C 834.471 -637.53 830.142 -626.75 821.485 -618.09 C 812.828 -609.43 802.073 -605.21 789.261 -605.21 C 776.428 -605.21 765.694 -609.43 757.037 -618.09 C 748.378 -626.75 744.051 -637.53 744.051 -650.4 L 744.051 -786.03 L 215.95 -786.03 L 215.95 -650.4 C 215.95 -637.53 211.623 -626.75 202.964 -618.09 C 194.307 -609.43 183.552 -605.21 170.74 -605.21 C 157.907 -605.21 147.173 -609.43 138.516 -618.09 C 129.857 -626.75 125.53 -637.53 125.53 -650.4 L 125.53 -786.03 C 125.53 -811.07 134.496 -832.61 152.464 -850.5 C 170.413 -868.39 191.576 -877.43 215.95 -877.43 L 744.051 -877.43 Z"/>
</svg>