<?xml version="1.0" encoding="utf-8"?>
<svg viewBox="0 0 22 22" xmlns="http://www.w3.org/2000/svg">
  <path d="M 8.437 6.148 L 8.437 7.148 C 8.437 7.424 8.213 7.648 7.937 7.648 L 5.937 7.648 L 5.937 13.148 C 5.937 13.424 5.713 13.648 5.437 13.648 L 4.437 13.648 C 4.161 13.648 3.937 13.424 3.937 13.148 L 3.937 7.648 L 1.937 7.648 C 1.661 7.648 1.437 7.424 1.437 7.148 L 1.437 6.148 C 1.437 5.872 1.661 5.648 1.937 5.648 L 7.937 5.648 C 8.213 5.648 8.437 5.872 8.437 6.148 Z M 17.167 8.965 L 18.875 6.743 C 18.956 6.638 19.075 6.569 19.207 6.552 C 19.338 6.535 19.471 6.571 19.576 6.652 L 20.367 7.262 C 20.586 7.431 20.627 7.744 20.458 7.963 L 18.427 10.603 L 20.458 13.243 C 20.627 13.462 20.586 13.775 20.367 13.944 L 19.576 14.554 C 19.471 14.635 19.338 14.671 19.207 14.654 C 19.075 14.637 18.956 14.568 18.875 14.463 L 17.167 12.241 L 15.458 14.463 C 15.377 14.568 15.258 14.637 15.126 14.654 C 14.995 14.671 14.862 14.635 14.757 14.554 L 13.966 13.944 C 13.747 13.775 13.706 13.462 13.875 13.243 L 15.905 10.603 L 13.875 7.963 C 13.706 7.744 13.747 7.431 13.966 7.262 L 14.757 6.652 C 14.862 6.571 14.995 6.535 15.126 6.552 C 15.258 6.569 15.377 6.638 15.458 6.743 Z M 13.167 8.853 L 13.167 9.853 C 13.167 10.129 12.943 10.353 12.667 10.353 L 9.167 10.353 L 9.167 11.353 L 12.667 11.353 C 12.943 11.353 13.167 11.577 13.167 11.853 L 13.167 12.853 C 13.167 13.129 12.943 13.353 12.667 13.353 L 9.167 13.353 L 9.167 14.353 L 12.667 14.353 C 12.943 14.353 13.167 14.577 13.167 14.853 L 13.167 15.853 C 13.167 16.129 12.943 16.353 12.667 16.353 L 7.667 16.353 C 7.391 16.353 7.167 16.129 7.167 15.853 L 7.167 8.853 C 7.167 8.577 7.391 8.353 7.667 8.353 L 12.667 8.353 C 12.943 8.353 13.167 8.577 13.167 8.853 Z"/>
</svg>