<?xml version="1.0" encoding="utf-8"?>
<svg viewBox="0 0 22 22" xmlns="http://www.w3.org/2000/svg">
  <path d="M 19.5 11.002 C 19.48 12.856 18.931 14.431 17.962 15.841 L 21.061 18.939 C 21.313 19.222 21.5 19.655 21.5 20 C 21.5 20.345 21.313 20.778 21.061 21.061 C 20.778 21.313 20.345 21.5 20 21.5 C 19.655 21.5 19.222 21.313 18.939 21.061 L 15.841 17.962 C 14.431 18.931 12.854 19.48 11 19.5 C 8.689 19.478 6.5 18.521 4.99 17.01 C 3.479 15.5 2.5 13.311 2.5 11 C 2.5 8.689 3.479 6.5 4.99 4.99 C 6.5 3.479 8.689 2.5 11 2.5 C 13.311 2.5 15.5 3.479 17.01 4.99 C 18.521 6.5 19.478 8.691 19.5 11.002 Z M 6.404 6.404 C 5.2 7.608 4.5 9.169 4.5 11 C 4.5 12.831 5.2 14.392 6.404 15.596 C 7.608 16.8 9.169 17.5 11 17.5 C 12.831 17.5 14.392 16.8 15.596 15.596 C 16.8 14.392 17.5 12.831 17.5 11 C 17.5 9.169 16.8 7.608 15.596 6.404 C 14.392 5.2 12.831 4.5 11 4.5 C 9.169 4.5 7.608 5.2 6.404 6.404 Z M 12 15.491 L 11 15.491 C 10.718 15.491 10.49 15.271 10.49 15 L 10.49 10.004 C 10.491 9.779 10.494 9.5 10.502 9.168 L 9.847 9.688 C 9.74 9.771 9.605 9.811 9.468 9.797 C 9.332 9.782 9.207 9.717 9.123 9.613 L 8.571 8.94 C 8.488 8.838 8.449 8.707 8.466 8.577 C 8.482 8.448 8.551 8.329 8.658 8.249 L 10.834 6.613 C 10.923 6.546 11.034 6.51 11.147 6.51 L 12 6.51 C 12.282 6.51 12.509 6.729 12.509 7 L 12.509 15 C 12.509 15.271 12.282 15.491 12 15.491 Z" stroke-linecap="round"/>
</svg>