<?xml version="1.0" encoding="utf-8"?>
<svg viewBox="0 0 22 22" xmlns="http://www.w3.org/2000/svg">
  <path d="M 21 1 L 21 21 C 21 21.276 20.776 21.5 20.5 21.5 L 1.5 21.5 C 1.224 21.5 1 21.276 1 21 L 1 1 C 1 0.724 1.224 0.5 1.5 0.5 L 20.5 0.5 C 20.776 0.5 21 0.724 21 1 Z M 3 9.5 L 19 9.5 L 19 2.5 L 3 2.5 Z M 7.983 4.568 L 7.401 5.5 L 8.5 5.5 C 8.776 5.5 9 5.724 9 6 C 8.985 6.54 8.788 7.127 8.477 7.53 C 8.166 7.932 7.646 8.27 7.127 8.42 C 6.6 8.541 5.983 8.498 5.515 8.297 C 5.048 8.097 4.59 7.678 4.315 7.214 C 4.066 6.734 3.953 6.125 4.03 5.622 C 4.107 5.119 4.397 4.572 4.779 4.188 C 5.255 3.764 5.962 3.497 6.6 3.502 C 7.01 3.527 7.469 3.668 7.824 3.879 C 7.936 3.949 8.016 4.061 8.046 4.19 C 8.076 4.319 8.053 4.455 7.983 4.568 Z M 3 19.5 L 19 19.5 L 19 11.5 L 3 11.5 Z M 18 13 L 18 18 C 18 18.276 17.776 18.5 17.5 18.5 L 16.5 18.5 C 16.224 18.5 16 18.276 16 18 L 16 13 C 16 12.724 16.224 12.5 16.5 12.5 L 17.5 12.5 C 17.776 12.5 18 12.724 18 13 Z M 15 15 L 15 18 C 15 18.276 14.776 18.5 14.5 18.5 L 13.5 18.5 C 13.224 18.5 13 18.276 13 18 L 13 15 C 13 14.724 13.224 14.5 13.5 14.5 L 14.5 14.5 C 14.776 14.5 15 14.724 15 15 Z M 12 16 L 12 18 C 12 18.276 11.776 18.5 11.5 18.5 L 10.5 18.5 C 10.224 18.5 10 18.276 10 18 L 10 16 C 10 15.724 10.224 15.5 10.5 15.5 L 11.5 15.5 C 11.776 15.5 12 15.724 12 16 Z"/>
</svg>