<?xml version="1.0" encoding="utf-8"?>
<svg xmlns="http://www.w3.org/2000/svg" height="48" viewBox="0 -960 960 960" width="48">
  <path d="M 844.515 -188.5 C 844.515 -162.46 835.355 -140.29 817.045 -121.97 C 798.725 -103.65 776.545 -94.5 750.515 -94.5 L 270.485 -94.5 C 244.175 -94.5 221.765 -103.65 203.255 -121.97 C 184.745 -140.29 175.485 -162.46 175.485 -188.5 L 175.485 -244.5 L 156.485 -244.5 C 145.315 -244.5 135.695 -248.63 127.605 -256.89 C 119.525 -265.15 115.485 -274.75 115.485 -285.69 C 115.485 -296.9 119.525 -306.51 127.605 -314.51 C 135.695 -322.5 145.315 -326.5 156.485 -326.5 L 175.485 -326.5 L 175.485 -632.5 L 156.485 -632.5 C 145.315 -632.5 135.695 -636.63 127.605 -644.89 C 119.525 -653.15 115.485 -662.75 115.485 -673.68 C 115.485 -684.91 119.525 -694.52 127.605 -702.51 C 135.695 -710.5 145.315 -714.5 156.485 -714.5 L 175.485 -714.5 L 175.485 -770.5 C 175.485 -796.8 184.745 -819.21 203.255 -837.73 C 221.765 -856.24 244.175 -865.5 270.485 -865.5 L 750.515 -865.5 C 776.545 -865.5 798.725 -856.24 817.045 -837.73 C 835.355 -819.21 844.515 -796.8 844.515 -770.5 Z M 309.071 -188.5 L 309.071 -770.5 L 270.485 -770.5 L 270.485 -188.5 Z M 750.515 -188.5 L 750.515 -770.5 L 369.071 -770.5 L 369.071 -188.5 Z M 558.706 -338.39 C 520.315 -338.39 486.929 -345.02 460.166 -357.78 C 433.069 -371.13 418.015 -389.74 417.124 -410.25 L 417.124 -549.4 C 418.025 -569.64 433.182 -588.26 460.483 -601.85 C 487.475 -614.83 520.685 -621.61 558.477 -621.61 C 596.031 -621.61 629.255 -614.83 656.518 -601.87 C 684.098 -588.28 699.415 -569.66 700.33 -549.4 L 700.33 -410.25 C 699.433 -389.73 684.302 -371.12 657.08 -357.78 C 630.193 -345.02 596.869 -338.39 558.706 -338.39 Z M 558.546 -532.21 C 577.791 -532.21 596.921 -535.04 617.025 -540.94 C 636.991 -546.8 642.158 -549.47 648.811 -554.12 C 641.939 -558.75 636.556 -561.5 616.255 -567.47 C 595.869 -573.48 576.943 -576.35 558.379 -576.35 C 539.101 -576.35 519.996 -573.51 499.974 -567.6 C 480.083 -561.73 474.455 -558.87 467.835 -554.09 C 474.334 -549.11 479.888 -546.11 499.331 -540.62 C 518.963 -534.94 538.358 -532.21 558.546 -532.21 Z M 558.205 -458.11 C 567.488 -458.11 576.488 -458.63 585.664 -459.79 C 594.879 -460.94 603.496 -462.52 611.983 -464.69 C 620.442 -466.76 628.54 -469.42 636.636 -472.55 C 644.689 -475.73 649.26 -477.88 655.066 -480.87 L 655.066 -506.94 C 650.85 -505.09 650.461 -504.81 642.054 -501.67 C 633.592 -498.61 624.566 -495.95 615.513 -493.94 C 606.467 -491.88 597.024 -490.35 587.575 -489.27 C 578.099 -488.23 568.124 -487.63 558.079 -487.63 C 548.499 -487.63 538.673 -488.22 529.021 -489.27 C 519.342 -490.35 509.704 -491.96 500.585 -494.09 C 491.501 -496.24 482.602 -498.86 474.283 -501.84 C 465.884 -504.82 466.192 -504.9 462.388 -506.61 L 462.388 -480.6 C 467.382 -477.75 471.342 -475.77 479.154 -472.77 C 487.071 -469.7 495.181 -467.06 503.89 -464.83 C 512.579 -462.59 521.344 -460.94 530.659 -459.79 C 539.957 -458.63 548.985 -458.11 558.205 -458.11 Z M 558.553 -383.65 C 568.867 -383.44 579.345 -384.23 590.397 -386 C 601.499 -387.83 611.577 -390.21 621.168 -393.25 C 630.708 -396.28 638.419 -399.5 645.065 -403.38 C 651.495 -406.96 653.485 -408.63 655.066 -411.05 L 655.066 -432.75 C 651.114 -430.89 651.101 -430.72 642.868 -427.48 C 634.614 -424.26 625.604 -421.46 616.366 -419.3 C 607.161 -417.16 597.52 -415.56 587.879 -414.48 C 578.246 -413.43 568.212 -412.83 558.205 -412.83 C 548.316 -412.83 538.245 -413.43 528.46 -414.64 C 518.73 -415.85 509.149 -417.52 500.119 -419.66 C 491.046 -421.82 482.145 -424.61 473.905 -427.82 C 465.678 -431.06 466.07 -431.04 462.388 -432.76 L 462.388 -410.63 C 463.787 -408.48 465.51 -407.04 471.817 -403.55 C 478.352 -399.79 486.037 -396.62 495.597 -393.6 C 505.173 -390.55 515.25 -388.18 526.362 -386.35 C 537.45 -384.56 547.977 -383.64 558.553 -383.65 Z" style=""/>
</svg>