<?xml version="1.0" encoding="utf-8"?>
<svg viewBox="0 0 22 22" xmlns="http://www.w3.org/2000/svg">
  <path d="M 21 2 L 21 12 C 21 12.276 20.776 12.5 20.5 12.5 L 12 12.5 L 12 20 C 12 20.276 11.776 20.5 11.5 20.5 L 1.5 20.5 C 1.224 20.5 1 20.276 1 20 L 1 2 C 1 1.724 1.224 1.5 1.5 1.5 L 20.5 1.5 C 20.776 1.5 21 1.724 21 2 Z M 3 10.5 L 10 10.5 L 10 3.5 L 3 3.5 L 3 10.5 Z M 12 10.5 L 19 10.5 L 19 3.5 L 12 3.5 L 12 10.5 Z M 7.983 5.568 L 7.401 6.5 L 8.5 6.5 C 8.776 6.5 9 6.724 9 7 C 8.985 7.54 8.788 8.127 8.477 8.53 C 8.166 8.932 7.646 9.27 7.127 9.42 C 6.6 9.541 5.983 9.498 5.515 9.297 C 5.048 9.097 4.59 8.678 4.315 8.214 C 4.066 7.734 3.953 7.125 4.03 6.622 C 4.107 6.119 4.397 5.572 4.779 5.188 C 5.255 4.764 5.962 4.497 6.6 4.502 C 7.01 4.527 7.469 4.668 7.824 4.879 C 7.936 4.949 8.016 5.061 8.046 5.19 C 8.076 5.319 8.053 5.455 7.983 5.568 Z M 3 18.5 L 10 18.5 L 10 12.5 L 3 12.5 L 3 18.5 Z M 14.263 20.5 C 14.03 20.5 13.833 20.419 13.673 20.259 C 13.512 20.098 13.432 19.901 13.432 19.669 L 13.432 18.289 C 13.432 18.189 13.453 18.091 13.494 17.996 C 13.535 17.902 13.597 17.811 13.68 17.724 L 17.422 13.996 C 17.554 13.865 17.701 13.766 17.861 13.701 C 18.023 13.636 18.186 13.603 18.349 13.603 C 18.525 13.603 18.693 13.638 18.852 13.709 C 19.011 13.78 19.162 13.881 19.303 14.01 L 19.957 14.663 C 20.086 14.793 20.182 14.939 20.24 15.097 C 20.299 15.256 20.328 15.418 20.328 15.584 C 20.328 15.76 20.296 15.93 20.231 16.092 C 20.166 16.256 20.068 16.404 19.938 16.541 L 16.225 20.27 C 16.139 20.353 16.048 20.412 15.955 20.446 C 15.861 20.482 15.757 20.5 15.643 20.5 L 14.263 20.5 Z M 14.759 19.174 L 15.429 19.174 L 17.516 17.074 L 17.439 16.992 L 17.516 17.069 L 17.199 16.733 L 16.863 16.415 L 14.759 18.497 L 14.759 19.174 Z M 17.439 16.992 L 16.863 16.415 L 17.199 16.736 L 17.439 16.992 Z"/>
</svg>