<?xml version="1.0" encoding="utf-8"?>
<svg xmlns="http://www.w3.org/2000/svg" height="48" viewBox="0 -960 960 960" width="48">
  <path d="M 433 -218 L 433 -743 L 400 -710 C 390.547 -700.667 379.183 -696 365.91 -696 C 352.637 -696 341.333 -700.667 332 -710 C 322.667 -719.333 318 -730.6 318 -743.8 C 318 -757 322.667 -768.4 332 -778 L 446 -892 C 450.78 -896.607 456.223 -900.257 462.33 -902.95 C 468.437 -905.65 474.407 -907 480.24 -907 C 486.08 -907 491.983 -905.65 497.95 -902.95 C 503.917 -900.257 509.267 -896.607 514 -892 L 628 -778 C 637.333 -768.547 642 -757.183 642 -743.91 C 642 -730.637 637.333 -719.333 628 -710 C 618.667 -700.667 607.4 -696 594.2 -696 C 581 -696 569.6 -700.667 560 -710 L 527 -743 L 527 -527 L 743 -527 L 710 -561 C 700.667 -570.22 696 -581.357 696 -594.41 C 696 -607.47 700.7 -618.667 710.1 -628 C 719.507 -637.333 730.85 -642 744.13 -642 C 757.403 -642 768.693 -637.333 778 -628 L 892 -514 C 896.607 -509.22 900.257 -503.777 902.95 -497.67 C 905.65 -491.563 907 -485.593 907 -479.76 C 907 -473.92 905.65 -468.017 902.95 -462.05 C 900.257 -456.083 896.607 -450.733 892 -446 L 778 -332 C 768.547 -322.667 757.183 -318 743.91 -318 C 730.637 -318 719.333 -322.667 710 -332 C 700.667 -341.333 696 -352.6 696 -365.8 C 696 -379 700.667 -390.4 710 -400 L 743 -433 L 527 -433 L 527 -218 L 566 -255 C 575.22 -264.333 586.357 -269 599.41 -269 C 612.47 -269 623.667 -264.3 633 -254.9 C 642.333 -245.493 647 -234.15 647 -220.87 C 647 -207.597 642.333 -196.307 633 -187 L 514 -68 C 509.22 -63.393 503.777 -59.743 497.67 -57.05 C 491.563 -54.35 485.593 -53 479.76 -53 C 473.92 -53 468.017 -54.35 462.05 -57.05 C 456.083 -59.743 450.733 -63.393 446 -68 L 327 -187 C 317.667 -196.38 313 -207.723 313 -221.03 C 313 -234.343 317.667 -245.667 327 -255 C 336.333 -264.333 347.6 -269 360.8 -269 C 374 -269 385.4 -264.333 395 -255 L 433 -218 Z"/>
</svg>