<?xml version="1.0" encoding="utf-8"?>
<svg xmlns="http://www.w3.org/2000/svg" height="48" viewBox="0 -960 960 960" width="48">
  <path d="M 239.082 -504.83 C 217.678 -504.83 199.357 -512.46 184.118 -527.71 C 168.879 -542.97 161.259 -561.55 161.259 -583.48 L 161.259 -720.91 C 161.259 -742.54 168.879 -761.05 184.118 -776.45 C 199.357 -791.86 217.678 -799.56 239.082 -799.56 L 377.34 -799.56 C 398.739 -799.56 417.06 -791.86 432.304 -776.45 C 447.543 -761.05 455.162 -742.54 455.162 -720.91 L 455.162 -583.48 C 455.162 -561.55 447.543 -542.97 432.304 -527.71 C 417.06 -512.46 398.739 -504.83 377.34 -504.83 Z M 239.082 -161.25 C 217.678 -161.25 199.357 -168.87 184.118 -184.11 C 168.879 -199.35 161.259 -217.67 161.259 -239.07 L 161.259 -377.33 C 161.259 -398.73 168.879 -417.05 184.118 -432.3 C 199.357 -447.54 217.678 -455.15 239.082 -455.15 L 377.34 -455.15 C 398.739 -455.15 417.06 -447.54 432.304 -432.3 C 447.543 -417.05 455.162 -398.73 455.162 -377.33 L 455.162 -239.07 C 455.162 -217.67 447.543 -199.35 432.304 -184.11 C 417.06 -168.87 398.739 -161.25 377.34 -161.25 Z M 583.486 -504.83 C 561.563 -504.83 542.975 -512.46 527.719 -527.71 C 512.463 -542.97 504.836 -561.55 504.836 -583.48 L 504.836 -720.91 C 504.836 -742.54 512.463 -761.05 527.719 -776.45 C 542.975 -791.86 561.563 -799.56 583.486 -799.56 L 720.917 -799.56 C 742.547 -799.56 761.061 -791.86 776.46 -776.45 C 791.865 -761.05 799.567 -742.54 799.567 -720.91 L 799.567 -583.48 C 799.567 -561.55 791.865 -542.97 776.46 -527.71 C 761.061 -512.46 742.547 -504.83 720.917 -504.83 Z M 239.082 -583.48 L 377.34 -583.48 L 377.34 -720.91 L 239.082 -720.91 Z M 583.486 -583.48 L 720.917 -583.48 L 720.917 -720.91 L 583.486 -720.91 Z M 239.082 -239.07 L 377.34 -239.07 L 377.34 -377.33 L 239.082 -377.33 Z M 15.369 -844.5 C 15.369 -869.85 23.872 -891.16 41.026 -908.4 C 58.006 -925.48 79.134 -934.26 104.012 -934.26 L 220.966 -934.26 C 233.42 -934.26 243.98 -929.7 252.459 -920.84 C 261.139 -911.9 265.294 -901.35 265.294 -888.96 C 265.294 -876.4 261.139 -866.12 252.459 -857.45 C 243.98 -848.87 233.42 -844.5 220.966 -844.5 L 104.012 -844.5 L 104.012 -114.39 L 220.966 -114.39 C 233.42 -114.39 243.98 -110.2 252.459 -101.65 C 261.139 -93.118 265.294 -82.711 265.294 -70.144 C 265.294 -57.75 261.139 -47.195 252.459 -38.643 C 243.98 -29.933 233.42 -25.744 220.966 -25.744 L 104.012 -25.744 C 79.134 -25.744 58.006 -34.288 41.026 -51.21 C 23.872 -68.306 15.369 -89.417 15.369 -114.39 Z M 944.631 -114.39 C 944.631 -89.417 936.137 -68.306 918.974 -51.21 C 901.995 -34.288 880.867 -25.744 855.966 -25.744 L 739.016 -25.744 C 726.578 -25.744 716.002 -29.933 707.523 -38.643 C 698.843 -47.195 694.688 -57.75 694.688 -70.144 C 694.688 -82.711 698.843 -93.118 707.523 -101.65 C 716.002 -110.2 726.578 -114.39 739.016 -114.39 L 855.966 -114.39 L 855.966 -844.5 L 739.016 -844.5 C 726.578 -844.5 716.002 -848.87 707.523 -857.45 C 698.843 -866.12 694.688 -876.57 694.688 -888.96 C 694.688 -901.35 698.843 -912.07 707.523 -921.01 C 716.002 -929.7 726.578 -934.26 739.016 -934.26 L 855.966 -934.26 C 880.867 -934.26 901.995 -925.48 918.974 -908.4 C 936.137 -891.16 944.631 -869.85 944.631 -844.5 Z M 552.487 -268.92 C 541.21 -268.92 531.514 -272.79 523.371 -281.07 C 515.23 -289.09 511.172 -298.81 511.172 -310.47 C 511.172 -321.9 515.23 -331.86 523.371 -340.13 C 531.514 -348.63 541.21 -352.76 552.487 -352.76 L 610.814 -352.76 L 610.814 -409.87 C 610.814 -421.29 614.654 -431.26 622.357 -439.76 C 630.038 -448.02 639.905 -452.4 651.909 -452.4 C 663.576 -452.4 673.612 -448.02 682.022 -439.76 C 690.43 -431.26 694.659 -421.29 694.659 -409.87 L 694.659 -352.76 L 751.771 -352.76 C 763.022 -352.76 772.72 -348.63 780.862 -340.13 C 789.003 -331.86 793.087 -321.9 793.087 -310.23 C 793.087 -299.05 789.003 -289.33 780.862 -281.07 C 772.72 -272.79 763.022 -268.92 751.771 -268.92 L 694.659 -268.92 L 694.659 -211.8 C 694.659 -200.13 690.601 -190.18 682.508 -181.66 C 674.39 -173.39 664.353 -169.27 652.347 -169.27 C 640.318 -169.27 630.403 -173.39 622.577 -181.66 C 614.727 -190.18 610.814 -200.13 610.814 -211.8 L 610.814 -268.92 Z" style=""/>
</svg>