<?xml version="1.0" encoding="utf-8"?>
<svg viewBox="0 0 22 22" xmlns="http://www.w3.org/2000/svg">
  <path d="M 19.5 11.002 C 19.48 12.856 18.931 14.431 17.962 15.841 L 21.061 18.939 C 21.313 19.222 21.5 19.655 21.5 20 C 21.5 20.345 21.313 20.778 21.061 21.061 C 20.778 21.313 20.345 21.5 20 21.5 C 19.655 21.5 19.222 21.313 18.939 21.061 L 15.841 17.962 C 14.431 18.931 12.854 19.48 11 19.5 C 8.689 19.478 6.5 18.521 4.99 17.01 C 3.479 15.5 2.5 13.311 2.5 11 C 2.5 8.689 3.479 6.5 4.99 4.99 C 6.5 3.479 8.689 2.5 11 2.5 C 13.311 2.5 15.5 3.479 17.01 4.99 C 18.521 6.5 19.478 8.691 19.5 11.002 Z M 6.404 6.404 C 5.2 7.608 4.5 9.169 4.5 11 C 4.5 12.831 5.2 14.392 6.404 15.596 C 7.608 16.8 9.169 17.5 11 17.5 C 12.831 17.5 14.392 16.8 15.596 15.596 C 16.8 14.392 17.5 12.831 17.5 11 C 17.5 9.169 16.8 7.608 15.596 6.404 C 14.392 5.2 12.831 4.5 11 4.5 C 9.169 4.5 7.608 5.2 6.404 6.404 Z M 13.462 15.513 L 8.539 15.513 C 8.263 15.513 8.039 15.29 8.039 15.013 L 8.039 14.171 C 8.039 14.045 8.086 13.925 8.171 13.832 L 10.062 11.774 C 10.754 11.018 11.185 10.49 11.388 10.144 C 11.586 9.828 11.654 9.54 11.654 9.15 C 11.654 8.828 11.62 8.677 11.446 8.534 C 11.31 8.357 11.183 8.332 10.884 8.332 C 10.406 8.332 9.997 8.497 9.493 8.95 C 9.393 9.037 9.261 9.081 9.129 9.071 C 8.996 9.061 8.873 8.999 8.786 8.898 L 8.235 8.255 C 8.058 8.048 8.078 7.738 8.281 7.557 C 9.045 6.892 9.972 6.5 10.895 6.5 C 11.675 6.5 12.398 6.773 12.892 7.209 C 13.356 7.681 13.654 8.376 13.654 9.113 C 13.654 9.6 13.516 10.146 13.287 10.645 C 13.046 11.141 12.477 11.883 11.627 12.8 L 10.859 13.616 L 13.462 13.616 C 13.738 13.616 13.962 13.84 13.962 14.116 L 13.962 15.013 C 13.962 15.29 13.738 15.513 13.462 15.513 Z" stroke-linecap="round"/>
</svg>