<?xml version="1.0" encoding="utf-8"?>
<svg xmlns="http://www.w3.org/2000/svg" height="48" viewBox="0 -960 960 960" width="48">
  <path d="M 583.486 -504.83 C 561.563 -504.83 542.975 -512.46 527.719 -527.71 C 512.463 -542.97 504.836 -561.55 504.836 -583.48 L 504.836 -720.91 C 504.836 -742.54 512.463 -761.05 527.719 -776.45 C 542.975 -791.86 561.563 -799.56 583.486 -799.56 L 720.917 -799.56 C 742.547 -799.56 761.061 -791.86 776.46 -776.45 C 791.865 -761.05 799.567 -742.54 799.567 -720.91 L 799.567 -583.48 C 799.567 -561.55 791.865 -542.97 776.46 -527.71 C 761.061 -512.46 742.547 -504.83 720.917 -504.83 Z M 239.082 -504.83 C 217.678 -504.83 199.357 -512.46 184.118 -527.71 C 168.879 -542.97 161.259 -561.55 161.259 -583.48 L 161.259 -720.91 C 161.259 -742.54 168.879 -761.05 184.118 -776.45 C 199.357 -791.86 217.678 -799.56 239.082 -799.56 L 377.34 -799.56 C 398.739 -799.56 417.06 -791.86 432.304 -776.45 C 447.543 -761.05 455.162 -742.54 455.162 -720.91 L 455.162 -583.48 C 455.162 -561.55 447.543 -542.97 432.304 -527.71 C 417.06 -512.46 398.739 -504.83 377.34 -504.83 Z M 239.082 -161.25 C 217.678 -161.25 199.357 -168.87 184.118 -184.11 C 168.879 -199.35 161.259 -217.67 161.259 -239.07 L 161.259 -377.33 C 161.259 -398.73 168.879 -417.05 184.118 -432.3 C 199.357 -447.54 217.678 -455.15 239.082 -455.15 L 377.34 -455.15 C 398.739 -455.15 417.06 -447.54 432.304 -432.3 C 447.543 -417.05 455.162 -398.73 455.162 -377.33 L 455.162 -239.07 C 455.162 -217.67 447.543 -199.35 432.304 -184.11 C 417.06 -168.87 398.739 -161.25 377.34 -161.25 Z M 583.486 -583.48 L 720.917 -583.48 L 720.917 -720.91 L 583.486 -720.91 Z M 239.082 -583.48 L 377.34 -583.48 L 377.34 -720.91 L 239.082 -720.91 Z M 239.082 -239.07 L 377.34 -239.07 L 377.34 -377.33 L 239.082 -377.33 Z M 552.033 -351.655 C 544.059 -359.629 539.94 -369.221 540.036 -380.834 C 539.951 -392.262 543.955 -402.004 552.199 -410.249 C 560.282 -418.331 570.194 -422.505 581.798 -422.596 C 593.567 -422.848 603.343 -418.912 611.317 -410.938 L 652.561 -369.695 L 692.943 -410.078 C 701.019 -418.153 710.784 -422.488 722.241 -423.051 C 733.513 -423.461 743.587 -419.581 752.075 -411.093 C 760.325 -402.843 764.324 -392.649 764.43 -380.862 C 764.365 -368.906 760.306 -358.866 752.231 -350.79 L 711.848 -310.408 L 752.232 -270.023 C 760.188 -262.068 764.125 -252.29 763.872 -240.522 C 763.781 -228.918 759.626 -218.987 751.374 -210.735 C 743.468 -202.83 733.707 -198.844 722.11 -198.76 C 710.498 -198.663 700.904 -202.784 692.948 -210.739 L 652.564 -251.124 L 612.174 -210.734 C 603.922 -202.482 594.017 -198.316 582.27 -198.014 C 570.682 -197.906 560.671 -202.09 552.182 -210.58 C 543.676 -219.085 539.578 -229.01 539.892 -240.391 C 540.366 -251.967 544.635 -261.769 552.887 -270.021 L 593.277 -310.411 Z M 944.631 -114.39 C 944.631 -89.417 936.137 -68.306 918.974 -51.21 C 901.995 -34.288 880.867 -25.744 855.966 -25.744 L 739.016 -25.744 C 726.578 -25.744 716.002 -29.933 707.523 -38.643 C 698.843 -47.195 694.688 -57.75 694.688 -70.144 C 694.688 -82.711 698.843 -93.118 707.523 -101.65 C 716.002 -110.2 726.578 -114.39 739.016 -114.39 L 855.966 -114.39 L 855.966 -844.5 L 739.016 -844.5 C 726.578 -844.5 716.002 -848.87 707.523 -857.45 C 698.843 -866.12 694.688 -876.57 694.688 -888.96 C 694.688 -901.35 698.843 -912.07 707.523 -921.01 C 716.002 -929.7 726.578 -934.26 739.016 -934.26 L 855.966 -934.26 C 880.867 -934.26 901.995 -925.48 918.974 -908.4 C 936.137 -891.16 944.631 -869.85 944.631 -844.5 Z M 15.369 -844.5 C 15.369 -869.85 23.872 -891.16 41.026 -908.4 C 58.006 -925.48 79.134 -934.26 104.012 -934.26 L 220.966 -934.26 C 233.42 -934.26 243.98 -929.7 252.459 -920.84 C 261.139 -911.9 265.294 -901.35 265.294 -888.96 C 265.294 -876.4 261.139 -866.12 252.459 -857.45 C 243.98 -848.87 233.42 -844.5 220.966 -844.5 L 104.012 -844.5 L 104.012 -114.39 L 220.966 -114.39 C 233.42 -114.39 243.98 -110.2 252.459 -101.65 C 261.139 -93.118 265.294 -82.711 265.294 -70.144 C 265.294 -57.75 261.139 -47.195 252.459 -38.643 C 243.98 -29.933 233.42 -25.744 220.966 -25.744 L 104.012 -25.744 C 79.134 -25.744 58.006 -34.288 41.026 -51.21 C 23.872 -68.306 15.369 -89.417 15.369 -114.39 Z" style=""/>
</svg>