<?xml version="1.0" encoding="utf-8"?>
<svg viewBox="0 0 22 22" xmlns="http://www.w3.org/2000/svg">
  <path d="M 7.5 3 L 7.5 4 C 7.5 4.276 7.276 4.5 7 4.5 L 5.5 4.5 L 5.5 7.166 L 7.008 7.166 C 7.284 7.166 7.508 7.39 7.508 7.666 L 7.508 8.666 C 7.508 8.942 7.284 9.166 7.008 9.166 L 5.5 9.166 L 5.5 11.834 L 7 11.834 C 7.276 11.834 7.5 12.058 7.5 12.334 L 7.5 13.334 C 7.5 13.61 7.276 13.834 7 13.834 L 5.5 13.834 L 5.5 16.5 L 19 16.5 C 19.276 16.5 19.5 16.724 19.5 17 L 19.5 18 C 19.5 18.276 19.276 18.5 19 18.5 L 5.5 18.5 L 5.5 19 C 5.5 19.276 5.276 19.5 5 19.5 L 4 19.5 C 3.724 19.5 3.5 19.276 3.5 19 L 3.5 18.5 L 3 18.5 C 2.724 18.5 2.5 18.276 2.5 18 L 2.5 17 C 2.5 16.724 2.724 16.5 3 16.5 L 3.5 16.5 L 3.5 3 C 3.5 2.724 3.724 2.5 4 2.5 L 7 2.5 C 7.276 2.5 7.5 2.724 7.5 3 Z"/>
</svg>