<?xml version="1.0" encoding="utf-8"?>
<svg viewBox="0 0 22 22" xmlns="http://www.w3.org/2000/svg">
  <path d="M 19.5 11.002 C 19.48 12.856 18.931 14.431 17.962 15.841 L 21.061 18.939 C 21.313 19.222 21.5 19.655 21.5 20 C 21.5 20.345 21.313 20.778 21.061 21.061 C 20.778 21.313 20.345 21.5 20 21.5 C 19.655 21.5 19.222 21.313 18.939 21.061 L 15.841 17.962 C 14.431 18.931 12.854 19.48 11 19.5 C 8.689 19.478 6.5 18.521 4.99 17.01 C 3.479 15.5 2.5 13.311 2.5 11 C 2.5 8.689 3.479 6.5 4.99 4.99 C 6.5 3.479 8.689 2.5 11 2.5 C 13.311 2.5 15.5 3.479 17.01 4.99 C 18.521 6.5 19.478 8.691 19.5 11.002 Z M 6.404 6.404 C 5.2 7.608 4.5 9.169 4.5 11 C 4.5 12.831 5.2 14.392 6.404 15.596 C 7.608 16.8 9.169 17.5 11 17.5 C 12.831 17.5 14.392 16.8 15.596 15.596 C 16.8 14.392 17.5 12.831 17.5 11 C 17.5 9.169 16.8 7.608 15.596 6.404 C 14.392 5.2 12.831 4.5 11 4.5 C 9.169 4.5 7.608 5.2 6.404 6.404 Z M 8.892 13.236 C 9.336 13.548 9.846 13.671 10.56 13.671 C 11.091 13.671 11.357 13.59 11.58 13.381 C 11.799 13.177 11.875 12.956 11.875 12.474 C 11.875 12.036 11.806 11.851 11.586 11.663 C 11.355 11.466 11.068 11.386 10.517 11.386 C 10.224 11.386 9.853 11.427 9.358 11.518 C 9.235 11.541 9.107 11.516 9.001 11.448 L 8.514 11.14 C 8.358 11.041 8.269 10.863 8.284 10.678 L 8.581 6.96 C 8.602 6.701 8.818 6.5 9.079 6.5 L 12.808 6.5 C 13.084 6.5 13.308 6.724 13.308 7 L 13.308 7.897 C 13.308 8.173 13.084 8.397 12.808 8.397 L 10.389 8.397 L 10.278 9.581 C 10.473 9.563 10.46 9.553 10.852 9.553 C 11.688 9.553 12.464 9.837 13.014 10.3 C 13.548 10.803 13.886 11.553 13.886 12.366 C 13.886 13.298 13.539 14.135 12.979 14.69 C 12.39 15.201 11.52 15.509 10.538 15.509 C 9.677 15.509 8.907 15.325 8.358 15.011 C 8.207 14.92 8.114 14.757 8.114 14.582 L 8.114 13.652 C 8.114 13.468 8.216 13.298 8.379 13.211 C 8.541 13.124 8.738 13.134 8.892 13.236 Z" stroke-linecap="round"/>
</svg>