<?xml version="1.0" encoding="utf-8"?>
<svg viewBox="0 0 22 22" xmlns="http://www.w3.org/2000/svg">
  <path d="M 3.5 5.5 L 3 5.5 C 2.724 5.5 2.5 5.276 2.5 5 L 2.5 2 C 2.5 1.724 2.724 1.5 3 1.5 L 6 1.5 C 6.276 1.5 6.5 1.724 6.5 2 L 6.5 5 C 6.5 5.276 6.276 5.5 6 5.5 L 5.5 5.5 L 5.5 15.5 L 6 15.5 C 6.276 15.5 6.5 15.724 6.5 16 L 6.5 16.5 L 15.5 16.5 L 15.5 16 C 15.5 15.724 15.724 15.5 16 15.5 L 19 15.5 C 19.276 15.5 19.5 15.724 19.5 16 L 19.5 19 C 19.5 19.276 19.276 19.5 19 19.5 L 16 19.5 C 15.724 19.5 15.5 19.276 15.5 19 L 15.5 18.5 L 6.5 18.5 L 6.5 19 C 6.5 19.276 6.276 19.5 6 19.5 L 3 19.5 C 2.724 19.5 2.5 19.276 2.5 19 L 2.5 16 C 2.5 15.724 2.724 15.5 3 15.5 L 3.5 15.5 Z M 4 18 L 5 18 L 5 17 L 4 17 Z M 17 18 L 18 18 L 18 17 L 17 17 Z M 4 4 L 5 4 L 5 3 L 4 3 Z"/>
</svg>