<?xml version="1.0" encoding="utf-8"?>
<svg xmlns="http://www.w3.org/2000/svg" height="48" viewBox="0 -960 960 960" width="48">
  <path d="M 270.485 -94.5 C 244.175 -94.5 221.765 -103.65 203.255 -121.97 C 184.745 -140.29 175.485 -162.46 175.485 -188.5 L 175.485 -244.5 L 156.485 -244.5 C 145.315 -244.5 135.695 -248.63 127.605 -256.89 C 119.525 -265.15 115.485 -274.75 115.485 -285.69 C 115.485 -296.9 119.525 -306.51 127.605 -314.51 C 135.695 -322.5 145.315 -326.5 156.485 -326.5 L 175.485 -326.5 L 175.485 -632.5 L 156.485 -632.5 C 145.315 -632.5 135.695 -636.63 127.605 -644.89 C 119.525 -653.15 115.485 -662.75 115.485 -673.68 C 115.485 -684.91 119.525 -694.52 127.605 -702.51 C 135.695 -710.5 145.315 -714.5 156.485 -714.5 L 175.485 -714.5 L 175.485 -770.5 C 175.485 -796.8 184.745 -819.21 203.255 -837.73 C 221.765 -856.24 244.175 -865.5 270.485 -865.5 L 750.515 -865.5 C 757.48 -865.5 764.168 -864.837 770.582 -863.512 C 788.307 -859.909 803.895 -851.412 817.345 -838.02 C 835.935 -819.7 845.145 -797.52 845.145 -771.5 L 845.145 -467.657 C 845.145 -454.478 840.335 -443.357 830.935 -434.278 C 821.345 -425.198 810.145 -420.657 796.955 -420.657 C 783.745 -420.657 772.745 -425.198 763.745 -434.278 C 754.745 -443.357 750.145 -454.478 750.145 -467.657 L 750.145 -770.5 L 368.576 -770.5 L 368.576 -189.501 L 553.302 -189.501 C 566.492 -189.501 577.702 -184.941 586.702 -175.821 C 595.892 -166.701 600.302 -155.561 600.302 -142.4 C 600.302 -129.241 595.892 -117.981 586.702 -108.581 C 577.702 -99.181 566.492 -94.501 553.302 -94.501 L 405.768 -94.501 Z M 308.576 -770.5 L 271.436 -770.5 L 271.436 -189.501 L 308.576 -189.501 Z M 724.399 -269.09 L 724.399 -338.93 C 724.399 -348.51 727.89 -356.72 734.874 -363.58 C 741.683 -370.42 750.054 -373.84 759.666 -373.84 C 769.434 -373.84 777.648 -370.42 784.283 -363.58 C 790.917 -356.72 794.226 -348.51 794.226 -338.93 L 794.226 -269.09 L 864.07 -269.09 C 873.672 -269.09 881.878 -265.63 888.862 -258.72 C 895.671 -251.81 898.988 -243.51 898.988 -233.84 C 898.988 -224.17 895.671 -215.98 888.862 -209.29 C 881.878 -202.59 873.672 -199.25 864.07 -199.25 L 794.226 -199.25 L 794.226 -129.42 C 794.226 -119.83 790.917 -111.61 783.934 -104.77 C 776.95 -97.922 768.744 -94.501 758.967 -94.501 C 749.365 -94.501 741.159 -97.922 734.516 -104.77 C 727.89 -111.61 724.399 -119.83 724.399 -129.42 L 724.399 -199.25 L 654.563 -199.25 C 644.96 -199.25 636.763 -202.69 629.946 -209.61 C 623.137 -216.52 619.645 -224.81 619.645 -234.49 C 619.645 -244.16 623.137 -252.35 629.946 -259.05 C 636.763 -265.74 644.96 -269.09 654.563 -269.09 Z M 558.705 -338.29 C 520.304 -338.29 486.924 -344.9 460.164 -357.71 C 433.064 -371.1 418.005 -389.7 417.105 -410.11 L 417.105 -549.29 C 418.025 -569.5 433.166 -588.11 460.466 -601.9 C 487.465 -614.69 520.685 -621.5 558.466 -621.5 C 596.027 -621.5 629.245 -614.69 656.507 -601.9 C 684.087 -588.3 699.406 -569.7 700.326 -549.29 L 700.326 -410.11 C 699.426 -389.7 684.285 -371.1 657.066 -357.71 C 630.186 -344.9 596.866 -338.29 558.705 -338.29 Z M 558.545 -532.11 C 577.785 -532.11 596.905 -534.91 617.025 -540.89 C 636.987 -546.71 642.145 -549.5 648.806 -554.09 C 641.925 -558.7 636.545 -561.5 616.246 -567.5 C 595.865 -573.49 576.926 -576.31 558.365 -576.31 C 539.086 -576.31 519.986 -573.49 499.964 -567.5 C 480.065 -561.69 474.444 -558.89 467.824 -554.09 C 474.326 -549.1 479.885 -546.1 499.325 -540.51 C 518.946 -534.91 538.345 -532.11 558.545 -532.11 Z M 558.205 -458.1 C 567.486 -458.1 576.485 -458.5 585.645 -459.69 C 594.866 -460.89 603.486 -462.51 611.966 -464.7 C 620.425 -466.71 628.526 -469.29 636.625 -472.5 C 644.685 -475.7 649.245 -477.9 655.066 -480.89 L 655.066 -506.9 C 650.847 -505.09 650.446 -504.7 642.046 -501.69 C 633.585 -498.5 624.565 -495.9 615.506 -493.9 C 606.466 -491.89 597.006 -490.3 587.566 -489.29 C 578.085 -488.11 568.106 -487.5 558.065 -487.5 C 548.485 -487.5 538.666 -488.11 529.006 -489.29 C 519.325 -490.3 509.684 -491.89 500.584 -494.09 C 491.484 -496.09 482.584 -498.89 474.266 -501.69 C 465.865 -504.7 466.186 -504.9 462.384 -506.49 L 462.384 -480.51 C 467.366 -477.71 471.325 -475.7 479.146 -472.69 C 487.064 -469.7 495.166 -467.09 503.885 -464.7 C 512.565 -462.51 521.325 -460.89 530.644 -459.69 C 539.945 -458.5 548.985 -458.1 558.205 -458.1 Z M 558.545 -383.69 C 568.866 -383.31 579.346 -384.1 590.386 -385.91 C 601.486 -387.7 611.566 -390.11 621.165 -393.29 C 630.705 -396.31 638.405 -399.49 645.066 -403.31 C 651.486 -406.9 653.486 -408.49 655.066 -411.1 L 655.066 -432.69 C 651.105 -430.9 651.086 -430.69 642.866 -427.5 C 634.606 -424.1 625.585 -421.3 616.367 -419.3 C 607.146 -417.1 597.506 -415.49 587.865 -414.5 C 578.246 -413.29 568.205 -412.69 558.205 -412.69 C 548.304 -412.69 538.246 -413.29 528.444 -414.5 C 518.726 -415.9 509.146 -417.49 500.104 -419.69 C 491.045 -421.69 482.145 -424.49 473.906 -427.7 C 465.665 -431.1 466.065 -430.9 462.384 -432.69 L 462.384 -410.5 C 463.786 -408.49 465.506 -406.9 471.805 -403.5 C 478.345 -399.71 486.025 -396.5 495.585 -393.49 C 505.166 -390.5 515.245 -388.11 526.345 -386.3 C 537.445 -384.49 547.966 -383.5 558.545 -383.69 Z" style=""/>
</svg>