<?xml version="1.0" encoding="utf-8"?>
<svg xmlns="http://www.w3.org/2000/svg" height="48" viewBox="0 -960 960 960" width="48">
  <path d="M 433 -433 L 218 -433 L 250 -399 C 259.333 -389.78 264 -378.643 264 -365.59 C 264 -352.53 259.3 -341.333 249.9 -332 C 240.493 -322.667 229.15 -318 215.87 -318 C 202.597 -318 191.307 -322.667 182 -332 L 68 -446 C 63.393 -450.78 59.743 -456.223 57.05 -462.33 C 54.35 -468.437 53 -474.407 53 -480.24 C 53 -486.08 54.35 -491.983 57.05 -497.95 C 59.743 -503.917 63.393 -509.267 68 -514 L 183 -629 C 192.6 -638.333 204 -643 217.2 -643 C 230.4 -643 241.667 -638.333 251 -629 C 260.333 -619.667 265 -608.4 265 -595.2 C 265 -582 260.333 -570.6 251 -561 L 218 -527 L 433 -527 L 433 -743 L 400 -710 C 390.547 -700.667 379.183 -696 365.91 -696 C 352.637 -696 341.333 -700.667 332 -710 C 322.667 -719.333 318 -730.6 318 -743.8 C 318 -757 322.667 -768.4 332 -778 L 446 -892 C 450.78 -896.607 456.223 -900.257 462.33 -902.95 C 468.437 -905.65 474.407 -907 480.24 -907 C 486.08 -907 491.983 -905.65 497.95 -902.95 C 503.917 -900.257 509.267 -896.607 514 -892 L 628 -778 C 637.333 -768.547 642 -757.183 642 -743.91 C 642 -730.637 637.333 -719.333 628 -710 C 618.667 -700.667 607.4 -696 594.2 -696 C 581 -696 569.6 -700.667 560 -710 L 527 -743 L 527 -218 L 566 -255 C 575.22 -264.333 586.357 -269 599.41 -269 C 612.47 -269 623.667 -264.3 633 -254.9 C 642.333 -245.493 647 -234.15 647 -220.87 C 647 -207.597 642.333 -196.307 633 -187 L 514 -68 C 509.22 -63.393 503.777 -59.743 497.67 -57.05 C 491.563 -54.35 485.593 -53 479.76 -53 C 473.92 -53 468.017 -54.35 462.05 -57.05 C 456.083 -59.743 450.733 -63.393 446 -68 L 327 -187 C 317.667 -196.38 313 -207.723 313 -221.03 C 313 -234.343 317.667 -245.667 327 -255 C 336.333 -264.333 347.6 -269 360.8 -269 C 374 -269 385.4 -264.333 395 -255 L 433 -218 L 433 -433 Z"/>
</svg>