<?xml version="1.0" encoding="utf-8"?>
<svg viewBox="0 0 22 22" xmlns="http://www.w3.org/2000/svg">
  <path d="M 21.5 2 L 21.5 20 C 21.5 20.276 21.276 20.5 21 20.5 L 1 20.5 C 0.724 20.5 0.5 20.276 0.5 20 L 0.5 2 C 0.5 1.724 0.724 1.5 1 1.5 L 21 1.5 C 21.276 1.5 21.5 1.724 21.5 2 Z M 2.5 18.5 L 9.5 18.5 L 9.5 3.5 L 2.5 3.5 L 2.5 18.5 Z M 11.5 18.5 L 19.5 18.5 L 19.5 3.5 L 11.5 3.5 L 11.5 18.5 Z M 7.483 5.568 L 6.901 6.5 L 8 6.5 C 8.276 6.5 8.5 6.724 8.5 7 C 8.485 7.54 8.288 8.127 7.977 8.53 C 7.666 8.932 7.146 9.27 6.627 9.42 C 6.1 9.541 5.483 9.498 5.015 9.297 C 4.548 9.097 4.09 8.678 3.815 8.214 C 3.566 7.734 3.453 7.125 3.53 6.622 C 3.607 6.119 3.897 5.572 4.279 5.188 C 4.755 4.764 5.462 4.497 6.1 4.502 C 6.51 4.527 6.969 4.668 7.324 4.879 C 7.436 4.949 7.516 5.061 7.546 5.19 C 7.576 5.319 7.553 5.455 7.483 5.568 Z M 19.003 12 L 19.003 17 C 19.003 17.276 18.779 17.5 18.503 17.5 L 17.503 17.5 C 17.227 17.5 17.003 17.276 17.003 17 L 17.003 12 C 17.003 11.724 17.227 11.5 17.503 11.5 L 18.503 11.5 C 18.779 11.5 19.003 11.724 19.003 12 Z M 16.449 14 L 16.449 17 C 16.449 17.276 16.225 17.5 15.949 17.5 L 14.949 17.5 C 14.673 17.5 14.449 17.276 14.449 17 L 14.449 14 C 14.449 13.724 14.673 13.5 14.949 13.5 L 15.949 13.5 C 16.225 13.5 16.449 13.724 16.449 14 Z M 13.946 15 L 13.946 17 C 13.946 17.276 13.722 17.5 13.446 17.5 L 12.446 17.5 C 12.17 17.5 11.946 17.276 11.946 17 L 11.946 15 C 11.946 14.724 12.17 14.5 12.446 14.5 L 13.446 14.5 C 13.722 14.5 13.946 14.724 13.946 15 Z"/>
</svg>