<?xml version="1.0" encoding="utf-8"?>
<svg viewBox="0 0 22 22" xmlns="http://www.w3.org/2000/svg">
  <path d="M 21.5 1 L 21.5 21 C 21.5 21.276 21.276 21.5 21 21.5 L 0.967 21.5 C 0.691 21.5 0.467 21.276 0.467 21 L 0.467 1 C 0.467 0.724 0.691 0.5 0.967 0.5 L 21 0.5 C 21.276 0.5 21.5 0.724 21.5 1 Z M 2.467 9.5 L 9.971 9.5 L 9.971 2.5 L 2.467 2.5 Z M 11.971 9.5 L 19.5 9.5 L 19.5 2.5 L 11.971 2.5 Z M 7.601 4.568 L 7.019 5.5 L 8.118 5.5 C 8.394 5.5 8.618 5.724 8.618 6 C 8.603 6.54 8.406 7.127 8.095 7.53 C 7.784 7.932 7.264 8.27 6.745 8.42 C 6.218 8.541 5.601 8.498 5.133 8.297 C 4.666 8.097 4.208 7.678 3.933 7.214 C 3.684 6.734 3.571 6.125 3.648 5.622 C 3.725 5.119 4.015 4.572 4.397 4.188 C 4.873 3.764 5.58 3.497 6.218 3.502 C 6.628 3.527 7.087 3.668 7.442 3.879 C 7.554 3.949 7.634 4.061 7.664 4.19 C 7.694 4.319 7.671 4.455 7.601 4.568 Z M 2.467 19.5 L 9.971 19.5 L 9.971 11.5 L 2.467 11.5 Z M 11.971 19.5 L 19.5 19.5 L 19.5 11.5 L 11.971 11.5 Z M 19.129 13 L 19.129 18 C 19.129 18.276 18.905 18.5 18.629 18.5 L 17.629 18.5 C 17.353 18.5 17.129 18.276 17.129 18 L 17.129 13 C 17.129 12.724 17.353 12.5 17.629 12.5 L 18.629 12.5 C 18.905 12.5 19.129 12.724 19.129 13 Z M 16.651 15 L 16.651 18 C 16.651 18.276 16.427 18.5 16.151 18.5 L 15.151 18.5 C 14.875 18.5 14.651 18.276 14.651 18 L 14.651 15 C 14.651 14.724 14.875 14.5 15.151 14.5 L 16.151 14.5 C 16.427 14.5 16.651 14.724 16.651 15 Z M 14.248 16 L 14.248 18 C 14.248 18.276 14.024 18.5 13.748 18.5 L 12.748 18.5 C 12.472 18.5 12.248 18.276 12.248 18 L 12.248 16 C 12.248 15.724 12.472 15.5 12.748 15.5 L 13.748 15.5 C 14.024 15.5 14.248 15.724 14.248 16 Z"/>
</svg>