<?xml version="1.0" encoding="utf-8"?>
<svg viewBox="0 0 22 22" xmlns="http://www.w3.org/2000/svg">
  <path d="M 19.5 11.002 C 19.48 12.856 18.931 14.431 17.962 15.841 L 21.061 18.939 C 21.313 19.222 21.5 19.655 21.5 20 C 21.5 20.345 21.313 20.778 21.061 21.061 C 20.778 21.313 20.345 21.5 20 21.5 C 19.655 21.5 19.222 21.313 18.939 21.061 L 15.841 17.962 C 14.431 18.931 12.854 19.48 11 19.5 C 8.689 19.478 6.5 18.521 4.99 17.01 C 3.479 15.5 2.5 13.311 2.5 11 C 2.5 8.689 3.479 6.5 4.99 4.99 C 6.5 3.479 8.689 2.5 11 2.5 C 13.311 2.5 15.5 3.479 17.01 4.99 C 18.521 6.5 19.478 8.691 19.5 11.002 Z M 6.404 6.404 C 5.2 7.608 4.5 9.169 4.5 11 C 4.5 12.831 5.2 14.392 6.404 15.596 C 7.608 16.8 9.169 17.5 11 17.5 C 12.831 17.5 14.392 16.8 15.596 15.596 C 16.8 14.392 17.5 12.831 17.5 11 C 17.5 9.169 16.8 7.608 15.596 6.404 C 14.392 5.2 12.831 4.5 11 4.5 C 9.169 4.5 7.608 5.2 6.404 6.404 Z M 13.362 11.058 C 13.764 11.441 14.003 12.057 14.003 12.68 C 14.003 13.498 13.644 14.256 13.078 14.762 C 12.488 15.222 11.608 15.496 10.596 15.496 C 9.673 15.496 8.855 15.321 8.262 15.015 C 8.1 14.929 7.999 14.761 7.999 14.58 L 7.999 13.675 C 7.999 13.501 8.091 13.341 8.242 13.25 C 8.393 13.16 8.581 13.155 8.737 13.235 C 9.344 13.554 9.919 13.689 10.574 13.689 C 11.146 13.689 11.452 13.61 11.692 13.417 C 11.917 13.235 11.985 13.067 11.985 12.647 C 11.985 12.3 11.931 12.188 11.691 12.029 C 11.424 11.85 11.059 11.764 10.429 11.771 L 9.709 11.771 C 9.431 11.771 9.205 11.548 9.205 11.274 L 9.205 10.47 C 9.205 10.197 9.431 9.974 9.709 9.974 L 10.429 9.974 C 10.931 9.985 11.214 9.911 11.441 9.69 C 11.691 9.509 11.742 9.341 11.742 8.996 C 11.742 8.731 11.723 8.629 11.545 8.511 C 11.387 8.348 11.226 8.316 10.893 8.316 C 10.336 8.316 9.864 8.469 9.33 8.865 C 9.106 9.025 8.792 8.978 8.628 8.757 L 8.13 8.093 C 7.97 7.878 8.01 7.577 8.22 7.412 C 8.97 6.839 9.914 6.504 10.893 6.504 C 11.711 6.504 12.452 6.75 12.958 7.15 C 13.442 7.59 13.76 8.247 13.76 8.932 C 13.76 9.505 13.549 10.09 13.191 10.49 C 13.111 10.58 13.019 10.663 12.918 10.741 C 13.087 10.834 13.237 10.939 13.362 11.058 Z" stroke-linecap="round"/>
</svg>