<?xml version="1.0" encoding="utf-8"?>
<svg viewBox="0 0 22 22" xmlns="http://www.w3.org/2000/svg">
  <path d="M 19.5 11.002 C 19.48 12.856 18.931 14.431 17.962 15.841 L 21.061 18.939 C 21.313 19.222 21.5 19.655 21.5 20 C 21.5 20.345 21.313 20.778 21.061 21.061 C 20.778 21.313 20.345 21.5 20 21.5 C 19.655 21.5 19.222 21.313 18.939 21.061 L 15.841 17.962 C 14.431 18.931 12.854 19.48 11 19.5 C 8.689 19.478 6.5 18.521 4.99 17.01 C 3.479 15.5 2.5 13.311 2.5 11 C 2.5 8.689 3.479 6.5 4.99 4.99 C 6.5 3.479 8.689 2.5 11 2.5 C 13.311 2.5 15.5 3.479 17.01 4.99 C 18.521 6.5 19.478 8.691 19.5 11.002 Z M 6.404 6.404 C 5.2 7.608 4.5 9.169 4.5 11 C 4.5 12.831 5.2 14.392 6.404 15.596 C 7.608 16.8 9.169 17.5 11 17.5 C 12.831 17.5 14.392 16.8 15.596 15.596 C 16.8 14.392 17.5 12.831 17.5 11 C 17.5 9.169 16.8 7.608 15.596 6.404 C 14.392 5.2 12.831 4.5 11 4.5 C 9.169 4.5 7.608 5.2 6.404 6.404 Z M 13.878 13.716 L 13.225 13.716 L 13.225 15 C 13.225 15.277 13.002 15.502 12.727 15.502 L 11.776 15.502 C 11.5 15.502 11.277 15.277 11.277 15 L 11.277 13.716 L 8.123 13.716 C 7.847 13.716 7.624 13.492 7.624 13.215 L 7.624 12.35 C 7.624 12.25 7.654 12.151 7.71 12.069 L 11.298 6.719 C 11.39 6.581 11.545 6.498 11.711 6.498 L 12.727 6.498 C 13.002 6.498 13.225 6.723 13.225 7 L 13.225 11.81 L 13.878 11.81 C 14.153 11.81 14.376 12.035 14.376 12.311 L 14.376 13.215 C 14.376 13.492 14.153 13.716 13.878 13.716 Z M 11.277 11.81 L 11.277 10.374 C 11.277 10.238 11.278 10.094 11.281 9.944 L 10.028 11.81 Z" stroke-linecap="round"/>
</svg>