<?xml version="1.0" encoding="utf-8"?>
<svg width="100%" height="100%" viewBox="0 0 48 48" version="1.1" xmlns="http://www.w3.org/2000/svg" style="fill-rule:evenodd;clip-rule:evenodd;stroke-linejoin:round;stroke-miterlimit:2;">
  <path d="M 21.566 41.695 L 10.024 35.539 C 9.751 35.39 9.539 35.185 9.39 34.924 C 9.241 34.663 9.167 34.396 9.167 34.123 C 9.167 33.676 9.328 33.297 9.651 32.986 C 9.974 32.676 10.359 32.52 10.807 32.52 C 10.906 32.52 11.03 32.539 11.179 32.576 C 11.328 32.614 11.453 32.657 11.552 32.707 L 22.511 38.499 C 22.558 38.517 22.597 38.537 22.629 38.561 L 23.961 39.265 L 25.293 38.561 C 25.325 38.537 25.364 38.517 25.411 38.499 L 29.34 36.422 C 29.439 36.373 29.564 36.329 29.713 36.292 C 29.862 36.255 29.986 36.236 30.085 36.236 C 30.533 36.236 30.918 36.391 31.241 36.702 C 31.564 37.012 31.725 37.391 31.725 37.839 C 31.725 38.112 31.651 38.379 31.502 38.64 C 31.353 38.901 31.141 39.106 30.868 39.255 L 26.555 41.582 L 25.64 42.099 C 25.367 42.248 25.093 42.353 24.82 42.415 L 24.816 42.416 C 24.544 42.478 24.26 42.508 23.963 42.509 L 23.959 42.509 C 23.662 42.508 23.378 42.478 23.105 42.416 L 23.102 42.415 C 22.829 42.353 22.555 42.248 22.282 42.099 L 21.566 41.695 Z M 32.73 20.889 C 33.059 20.558 33.458 20.389 33.927 20.389 C 34.397 20.389 34.797 20.558 35.125 20.889 L 38.752 24.51 C 39.105 24.862 39.281 25.264 39.281 25.714 C 39.281 26.159 39.105 26.546 38.752 26.876 C 38.4 27.229 38.019 27.405 37.608 27.405 C 37.197 27.405 36.827 27.25 36.498 26.947 L 35.583 26.067 L 35.583 34.145 C 35.583 34.603 35.424 34.997 35.107 35.314 C 34.79 35.638 34.399 35.8 33.934 35.8 C 33.468 35.8 33.075 35.638 32.754 35.314 C 32.433 34.997 32.272 34.603 32.272 34.145 L 32.272 26.067 L 31.356 26.975 C 31.028 27.257 30.664 27.405 30.265 27.419 C 29.866 27.432 29.502 27.285 29.173 26.975 C 28.798 26.601 28.604 26.186 28.592 25.729 C 28.581 25.27 28.739 24.876 29.067 24.551 L 32.73 20.889 Z M 26.15 26.082 C 26.506 26.439 26.672 26.943 26.598 27.442 C 26.524 27.94 26.217 28.374 25.772 28.611 L 25.64 28.682 C 25.367 28.831 25.093 28.936 24.82 28.998 C 24.547 29.061 24.261 29.092 23.963 29.092 C 23.665 29.092 23.379 29.061 23.106 28.998 C 22.832 28.936 22.571 28.831 22.323 28.682 L 9.614 21.936 C 9.291 21.762 9.061 21.532 8.924 21.246 C 8.788 20.961 8.719 20.669 8.719 20.371 C 8.719 20.072 8.788 19.787 8.924 19.513 C 9.061 19.24 9.291 19.016 9.614 18.843 L 22.323 12.097 C 22.571 11.973 22.832 11.873 23.106 11.799 C 23.379 11.724 23.665 11.687 23.963 11.687 C 24.261 11.687 24.547 11.724 24.82 11.799 C 25.093 11.873 25.367 11.973 25.64 12.097 L 32.192 15.577 C 32.645 15.818 32.958 16.26 33.034 16.767 C 33.11 17.275 32.941 17.789 32.577 18.152 L 32.568 18.162 C 32.067 18.663 31.298 18.78 30.67 18.45 L 23.963 14.929 L 13.602 20.408 L 23.963 25.849 L 24.33 25.674 C 24.904 25.402 25.586 25.519 26.035 25.968 L 26.15 26.082 Z M 23.963 32.558 L 27.641 30.53 C 27.741 30.455 27.989 30.393 28.387 30.343 C 28.834 30.343 29.219 30.498 29.542 30.809 C 29.865 31.12 30.027 31.511 30.027 31.983 C 30.027 32.256 29.958 32.523 29.822 32.784 C 29.685 33.045 29.468 33.25 29.169 33.399 L 25.64 35.39 C 25.367 35.539 25.093 35.645 24.82 35.707 C 24.547 35.769 24.261 35.8 23.963 35.8 C 23.665 35.8 23.379 35.769 23.106 35.707 C 22.832 35.645 22.571 35.527 22.323 35.353 L 10.024 28.831 C 9.751 28.682 9.539 28.477 9.39 28.216 C 9.241 27.955 9.167 27.688 9.167 27.415 C 9.167 26.942 9.328 26.551 9.651 26.241 C 9.974 25.93 10.359 25.775 10.807 25.775 C 10.931 25.775 11.061 25.793 11.198 25.831 C 11.335 25.868 11.453 25.924 11.552 25.998 L 23.963 32.558 Z M 11.516 9.065 C 11.015 9.065 10.593 8.892 10.247 8.545 C 9.902 8.198 9.729 7.774 9.729 7.271 C 9.729 6.769 9.902 6.347 10.247 6.004 C 10.593 5.662 11.015 5.491 11.516 5.491 L 36.446 5.491 C 36.947 5.491 37.376 5.665 37.734 6.011 C 38.092 6.358 38.271 6.782 38.271 7.285 C 38.271 7.787 38.092 8.21 37.734 8.552 C 37.376 8.894 36.947 9.065 36.446 9.065 L 11.516 9.065 Z" style="stroke-width: 0.05;"/>
</svg>