<?xml version="1.0" encoding="utf-8"?>
<svg xmlns="http://www.w3.org/2000/svg" height="48" viewBox="0 -960 960 960" width="48">
  <path d="M 906 -168 L 819 -254 L 819 -555 L 518 -555 L 431 -642 L 811 -642 C 837.127 -642 859.49 -632.697 878.09 -614.09 C 896.697 -595.49 906 -573.127 906 -547 Z M 406 -142 L 730 -142 L 406 -466 Z M 413 -55 C 386.733 -55 364.5 -64.1 346.3 -82.3 C 328.1 -100.5 319 -122.733 319 -149 L 319 -552 L 274.302 -599.194 C 267.469 -606.001 264.052 -614.377 264.052 -624.324 C 264.052 -634.271 267.702 -642.911 275.002 -650.244 C 281.942 -656.911 290.185 -660.244 299.732 -660.244 C 309.279 -660.244 317.719 -656.911 325.052 -650.244 L 893 -79 C 899.667 -72.333 903 -64.167 903 -54.5 C 903 -44.833 899.35 -36.333 892.05 -29 C 885.11 -22.333 876.867 -19 867.32 -19 C 857.773 -19 849.293 -22.467 841.88 -29.4 L 817 -55 Z M 146.406 -316.74 C 120.465 -316.74 98.262 -325.77 79.792 -343.85 C 61.298 -362.12 52.044 -384.42 52.044 -411.1 L 52.044 -810.64 C 52.044 -837.53 61.298 -860.02 79.792 -878.5 C 98.262 -896.76 120.465 -906 146.406 -906 L 545.935 -906 C 572.838 -906 595.465 -896.76 613.815 -878.5 C 632.143 -860.02 641.301 -837.53 641.301 -810.64 L 641.301 -744.39 C 641.301 -732.54 637.064 -722.3 628.571 -713.87 C 620.099 -705.42 609.719 -701.21 597.45 -701.21 C 585.184 -701.21 574.885 -705.42 566.511 -713.87 C 558.142 -722.3 553.967 -732.54 553.967 -744.39 L 553.967 -818.67 L 139.378 -818.67 L 139.378 -404.08 L 213.663 -404.08 C 225.749 -404.08 236.129 -399.67 244.803 -391.02 C 253.497 -382.4 257.834 -371.96 257.834 -359.92 C 257.834 -347.88 253.497 -337.64 244.803 -329.18 C 236.129 -320.95 225.749 -316.74 213.663 -316.74 Z"/>
</svg>