<?xml version="1.0" encoding="utf-8"?>
<svg width="100%" height="100%" viewBox="0 0 48 48" version="1.1" xmlns="http://www.w3.org/2000/svg" style="fill-rule:evenodd;clip-rule:evenodd;stroke-linejoin:round;stroke-miterlimit:2;">
  <path d="M 23.733 36.169 L 27.411 34.141 C 27.511 34.066 27.759 34.004 28.157 33.955 C 28.604 33.955 28.989 34.11 29.312 34.421 C 29.635 34.731 29.797 35.122 29.797 35.595 C 29.797 35.868 29.728 36.135 29.592 36.396 C 29.455 36.657 29.238 36.862 28.939 37.011 L 25.41 39.001 C 25.137 39.15 24.863 39.256 24.59 39.318 C 24.317 39.38 24.031 39.411 23.733 39.411 C 23.435 39.411 23.149 39.38 22.876 39.318 C 22.602 39.256 22.341 39.138 22.093 38.964 L 9.794 32.442 C 9.521 32.293 9.309 32.088 9.16 31.827 C 9.011 31.566 8.937 31.299 8.937 31.026 C 8.937 30.553 9.098 30.162 9.421 29.852 C 9.744 29.541 10.129 29.386 10.577 29.386 C 10.701 29.386 10.831 29.404 10.968 29.442 C 11.105 29.479 11.223 29.535 11.322 29.609 L 23.733 36.169 Z M 23.733 25.994 C 23.435 25.994 23.149 25.963 22.876 25.9 C 22.602 25.838 22.341 25.733 22.093 25.584 L 9.384 18.838 C 9.061 18.664 8.831 18.434 8.694 18.148 C 8.558 17.863 8.489 17.571 8.489 17.273 C 8.489 16.974 8.558 16.689 8.694 16.415 C 8.831 16.142 9.061 15.918 9.384 15.745 L 22.093 8.999 C 22.341 8.875 22.602 8.775 22.876 8.701 C 23.149 8.626 23.435 8.589 23.733 8.589 C 24.031 8.589 24.317 8.626 24.59 8.701 C 24.863 8.775 25.137 8.875 25.41 8.999 L 38.082 15.745 C 38.405 15.918 38.647 16.142 38.808 16.415 C 38.97 16.689 39.051 16.974 39.051 17.273 C 39.051 17.571 38.97 17.863 38.808 18.148 C 38.647 18.434 38.405 18.664 38.082 18.838 L 25.41 25.584 C 25.137 25.733 24.863 25.838 24.59 25.9 C 24.317 25.963 24.031 25.994 23.733 25.994 Z M 23.733 22.751 L 34.168 17.31 L 23.733 11.831 L 13.372 17.31 L 23.733 22.751 Z M 23.733 29.423 L 24.366 29.031 C 24.491 28.931 24.739 28.881 25.112 28.881 C 25.559 28.881 25.944 29.037 26.267 29.347 C 26.59 29.658 26.752 30.037 26.752 30.484 C 26.752 30.757 26.683 31.024 26.547 31.285 C 26.41 31.546 26.193 31.751 25.894 31.9 L 25.41 32.256 C 25.137 32.405 24.863 32.51 24.59 32.573 C 24.317 32.635 24.031 32.666 23.733 32.666 C 23.435 32.666 23.149 32.635 22.876 32.573 C 22.602 32.51 22.341 32.405 22.093 32.256 L 9.794 25.696 C 9.521 25.547 9.309 25.342 9.16 25.081 C 9.011 24.82 8.937 24.553 8.937 24.28 C 8.937 23.833 9.098 23.454 9.421 23.143 C 9.744 22.833 10.129 22.677 10.577 22.677 C 10.676 22.677 10.8 22.696 10.949 22.733 C 11.098 22.771 11.223 22.814 11.322 22.864 L 23.733 29.423 Z M 29.636 30.843 C 29.174 30.843 28.777 30.677 28.442 30.344 C 28.108 30.012 27.941 29.608 27.941 29.136 C 27.941 28.663 28.108 28.255 28.442 27.914 C 28.777 27.573 29.174 27.402 29.636 27.402 L 32.03 27.402 L 32.03 25.059 C 32.03 24.582 32.188 24.173 32.503 23.828 C 32.82 23.486 33.224 23.313 33.716 23.313 C 34.196 23.313 34.607 23.486 34.953 23.828 C 35.298 24.173 35.47 24.582 35.47 25.059 L 35.47 27.402 L 37.815 27.402 C 38.277 27.402 38.674 27.572 39.009 27.911 C 39.343 28.25 39.51 28.66 39.51 29.139 C 39.51 29.604 39.343 30.003 39.009 30.339 C 38.674 30.674 38.277 30.843 37.815 30.843 L 35.47 30.843 L 35.47 33.186 C 35.47 33.663 35.305 34.072 34.972 34.417 C 34.64 34.759 34.227 34.932 33.735 34.932 C 33.242 34.932 32.834 34.759 32.513 34.417 C 32.191 34.072 32.03 33.663 32.03 33.186 L 32.03 30.843 L 29.636 30.843 Z" style="fill-rule: nonzero; stroke-width: 0.05;"/>
</svg>