<?xml version="1.0" encoding="utf-8"?>
<svg width="100%" height="100%" viewBox="0 0 48 48" version="1.1" xmlns="http://www.w3.org/2000/svg" style="fill-rule:evenodd;clip-rule:evenodd;stroke-linejoin:round;stroke-miterlimit:2;">
  <path d="M 23.963 25.994 C 23.665 25.994 23.379 25.963 23.106 25.9 C 22.832 25.838 22.571 25.733 22.323 25.584 L 9.614 18.838 C 9.291 18.664 9.061 18.434 8.924 18.148 C 8.788 17.863 8.719 17.571 8.719 17.273 C 8.719 16.974 8.788 16.689 8.924 16.415 C 9.061 16.142 9.291 15.918 9.614 15.745 L 22.323 8.999 C 22.571 8.875 22.832 8.775 23.106 8.701 C 23.379 8.626 23.665 8.589 23.963 8.589 C 24.261 8.589 24.547 8.626 24.82 8.701 C 25.093 8.775 25.367 8.875 25.64 8.999 L 38.312 15.745 C 38.635 15.918 38.877 16.142 39.038 16.415 C 39.2 16.689 39.281 16.974 39.281 17.273 C 39.281 17.571 39.2 17.863 39.038 18.148 C 38.877 18.434 38.635 18.664 38.312 18.838 L 25.64 25.584 C 25.367 25.733 25.093 25.838 24.82 25.9 C 24.547 25.963 24.261 25.994 23.963 25.994 Z M 23.963 22.751 L 34.398 17.31 L 23.963 11.831 L 13.602 17.31 Z M 38.777 35.518 C 39.098 35.826 39.266 36.224 39.28 36.714 C 39.295 37.202 39.142 37.604 38.821 37.918 C 38.499 38.244 38.112 38.407 37.659 38.407 C 37.207 38.407 36.816 38.243 36.488 37.913 L 31.377 32.803 C 30.968 32.394 30.764 31.903 30.764 31.33 C 30.764 30.756 30.968 30.255 31.377 29.825 L 36.5 24.746 C 36.811 24.425 37.194 24.265 37.648 24.265 C 38.103 24.265 38.484 24.425 38.794 24.746 C 39.104 25.067 39.266 25.454 39.28 25.907 C 39.295 26.36 39.14 26.749 38.815 27.072 L 34.573 31.314 Z M 23.963 36.168 L 27.92 33.932 C 28.045 33.833 28.293 33.783 28.666 33.783 C 29.113 33.783 29.498 33.938 29.821 34.249 C 30.144 34.559 30.306 34.938 30.306 35.386 C 30.306 35.659 30.237 35.926 30.101 36.187 C 29.964 36.448 29.747 36.653 29.448 36.802 L 25.64 39.001 C 25.367 39.15 25.093 39.255 24.82 39.318 C 24.547 39.38 24.261 39.411 23.963 39.411 C 23.665 39.411 23.379 39.38 23.106 39.318 C 22.832 39.255 22.571 39.15 22.323 39.001 L 10.024 32.441 C 9.751 32.292 9.539 32.087 9.39 31.826 C 9.241 31.565 9.167 31.298 9.167 31.025 C 9.167 30.578 9.328 30.199 9.651 29.888 C 9.974 29.578 10.359 29.422 10.807 29.422 C 10.906 29.422 11.03 29.441 11.179 29.478 C 11.328 29.516 11.453 29.559 11.552 29.609 Z M 23.963 29.46 L 26.762 27.982 C 26.862 27.907 27.11 27.845 27.508 27.796 C 27.955 27.796 28.34 27.951 28.663 28.262 C 28.986 28.572 29.148 28.963 29.148 29.436 C 29.148 29.709 29.079 29.976 28.943 30.237 C 28.806 30.498 28.589 30.703 28.29 30.852 L 25.64 32.292 C 25.367 32.441 25.093 32.547 24.82 32.609 C 24.547 32.671 24.261 32.702 23.963 32.702 C 23.665 32.702 23.379 32.671 23.106 32.609 C 22.832 32.547 22.571 32.429 22.323 32.255 L 10.024 25.733 C 9.751 25.584 9.539 25.379 9.39 25.118 C 9.241 24.857 9.167 24.59 9.167 24.317 C 9.167 23.844 9.328 23.453 9.651 23.143 C 9.974 22.832 10.359 22.677 10.807 22.677 C 10.931 22.677 11.061 22.695 11.198 22.733 C 11.335 22.77 11.453 22.826 11.552 22.9 Z" style="fill-rule: nonzero; stroke-width: 0.05;"/>
</svg>