<?xml version="1.0" encoding="utf-8"?>
<svg width="100%" height="100%" viewBox="0 0 48 48" version="1.1" xmlns="http://www.w3.org/2000/svg" style="fill-rule:evenodd;clip-rule:evenodd;stroke-linejoin:round;stroke-miterlimit:2;">
  <path d="M 23.963 25.994 C 23.665 25.994 23.379 25.963 23.106 25.9 C 22.832 25.838 22.571 25.733 22.323 25.584 L 9.614 18.838 C 9.291 18.664 9.061 18.434 8.924 18.148 C 8.788 17.863 8.719 17.571 8.719 17.273 C 8.719 16.974 8.788 16.689 8.924 16.415 C 9.061 16.142 9.291 15.918 9.614 15.745 L 22.323 8.999 C 22.571 8.875 22.832 8.775 23.106 8.701 C 23.379 8.626 23.665 8.589 23.963 8.589 C 24.261 8.589 24.547 8.626 24.82 8.701 C 25.093 8.775 25.367 8.875 25.64 8.999 L 38.312 15.745 C 38.635 15.918 38.877 16.142 39.038 16.415 C 39.2 16.689 39.281 16.974 39.281 17.273 C 39.281 17.571 39.2 17.863 39.038 18.148 C 38.877 18.434 38.635 18.664 38.312 18.838 L 25.64 25.584 C 25.367 25.733 25.093 25.838 24.82 25.9 C 24.547 25.963 24.261 25.994 23.963 25.994 Z M 23.963 22.751 L 34.398 17.31 L 23.963 11.831 L 13.602 17.31 L 23.963 22.751 Z M 23.963 29.46 L 27.641 27.432 C 27.741 27.357 27.989 27.295 28.387 27.246 C 28.834 27.246 29.219 27.401 29.542 27.712 C 29.865 28.022 30.027 28.413 30.027 28.886 C 30.027 29.159 29.958 29.426 29.822 29.687 C 29.685 29.948 29.468 30.153 29.169 30.302 L 25.64 32.292 C 25.367 32.441 25.093 32.547 24.82 32.609 C 24.547 32.671 24.261 32.702 23.963 32.702 C 23.665 32.702 23.379 32.671 23.106 32.609 C 22.832 32.547 22.571 32.429 22.323 32.255 L 10.024 25.733 C 9.751 25.584 9.539 25.379 9.39 25.118 C 9.241 24.857 9.167 24.59 9.167 24.317 C 9.167 23.844 9.328 23.453 9.651 23.143 C 9.974 22.832 10.359 22.677 10.807 22.677 C 10.931 22.677 11.061 22.695 11.198 22.733 C 11.335 22.77 11.453 22.826 11.552 22.9 L 23.963 29.46 Z M 23.963 36.168 L 26.272 34.976 C 26.397 34.877 26.645 34.827 27.018 34.827 C 27.465 34.827 27.85 34.982 28.173 35.293 C 28.496 35.603 28.658 35.982 28.658 36.43 C 28.658 36.703 28.589 36.97 28.453 37.231 C 28.316 37.492 28.099 37.697 27.8 37.846 L 25.64 39.001 C 25.367 39.15 25.093 39.255 24.82 39.318 C 24.547 39.38 24.261 39.411 23.963 39.411 C 23.665 39.411 23.379 39.38 23.106 39.318 C 22.832 39.255 22.571 39.15 22.323 39.001 L 10.024 32.441 C 9.751 32.292 9.539 32.087 9.39 31.826 C 9.241 31.565 9.167 31.298 9.167 31.025 C 9.167 30.578 9.328 30.199 9.651 29.888 C 9.974 29.578 10.359 29.422 10.807 29.422 C 10.906 29.422 11.03 29.441 11.179 29.478 C 11.328 29.516 11.453 29.559 11.552 29.609 L 23.963 36.168 Z M 35.472 31.314 L 31.23 27.072 C 30.905 26.749 30.75 26.36 30.765 25.907 C 30.779 25.454 30.941 25.067 31.251 24.746 C 31.561 24.425 31.942 24.265 32.397 24.265 C 32.851 24.265 33.234 24.425 33.545 24.746 L 38.668 29.825 C 39.077 30.255 39.281 30.756 39.281 31.33 C 39.281 31.903 39.077 32.394 38.668 32.803 L 33.557 37.913 C 33.229 38.243 32.838 38.407 32.386 38.407 C 31.933 38.407 31.546 38.244 31.224 37.918 C 30.903 37.604 30.75 37.202 30.765 36.714 C 30.779 36.224 30.947 35.826 31.268 35.518 L 35.472 31.314 Z" style="fill-rule: nonzero; stroke-width: 0.05;"/>
</svg>