<?xml version="1.0" encoding="utf-8"?>
<svg width="100%" height="100%" viewBox="0 0 48 48" version="1.1" xmlns="http://www.w3.org/2000/svg" style="fill-rule:evenodd;clip-rule:evenodd;stroke-linejoin:round;stroke-miterlimit:2;">
  <path d="M 23.963 23.126 C 23.665 23.126 23.379 23.095 23.106 23.032 C 22.832 22.97 22.571 22.865 22.323 22.716 L 9.614 15.97 C 9.291 15.796 9.061 15.566 8.924 15.28 C 8.788 14.995 8.719 14.703 8.719 14.405 C 8.719 14.106 8.788 13.821 8.924 13.547 C 9.061 13.274 9.291 13.05 9.614 12.877 L 22.323 6.131 C 22.571 6.007 22.832 5.907 23.106 5.833 C 23.379 5.758 23.665 5.721 23.963 5.721 C 24.261 5.721 24.547 5.758 24.82 5.833 C 25.093 5.907 25.367 6.007 25.64 6.131 L 38.312 12.877 C 38.635 13.05 38.877 13.274 39.038 13.547 C 39.2 13.821 39.281 14.106 39.281 14.405 C 39.281 14.703 39.2 14.995 39.038 15.28 C 38.877 15.566 38.635 15.796 38.312 15.97 L 25.64 22.716 C 25.367 22.865 25.093 22.97 24.82 23.032 C 24.547 23.095 24.261 23.126 23.963 23.126 Z M 23.963 19.883 L 34.398 14.442 L 23.963 8.963 L 13.602 14.442 L 23.963 19.883 Z M 11.791 42.279 C 11.29 42.279 10.867 42.106 10.522 41.759 C 10.177 41.412 10.004 40.988 10.004 40.485 C 10.004 39.983 10.177 39.561 10.522 39.218 C 10.867 38.876 11.29 38.705 11.791 38.705 L 36.171 38.705 C 36.672 38.705 37.101 38.879 37.459 39.225 C 37.817 39.572 37.996 39.996 37.996 40.499 C 37.996 41.001 37.817 41.424 37.459 41.766 C 37.101 42.108 36.672 42.279 36.171 42.279 L 11.791 42.279 Z M 32.73 36.043 L 29.067 32.381 C 28.739 32.056 28.581 31.662 28.592 31.203 C 28.604 30.746 28.798 30.331 29.173 29.957 C 29.502 29.647 29.866 29.5 30.265 29.513 C 30.664 29.528 31.028 29.675 31.356 29.957 L 32.272 30.865 L 32.272 22.787 C 32.272 22.329 32.433 21.935 32.754 21.618 C 33.075 21.294 33.468 21.132 33.934 21.132 C 34.399 21.132 34.79 21.294 35.107 21.618 C 35.424 21.935 35.583 22.329 35.583 22.787 L 35.583 30.865 L 36.498 29.985 C 36.827 29.682 37.197 29.528 37.608 29.528 C 38.019 29.528 38.4 29.703 38.752 30.056 C 39.105 30.386 39.281 30.773 39.281 31.218 C 39.281 31.668 39.105 32.07 38.752 32.422 L 35.125 36.043 C 34.797 36.374 34.397 36.543 33.927 36.543 C 33.458 36.543 33.059 36.374 32.73 36.043 Z M 23.963 33.3 L 25.283 32.603 C 25.408 32.503 25.656 32.453 26.029 32.453 C 26.476 32.453 26.861 32.609 27.184 32.919 C 27.507 33.23 27.669 33.609 27.669 34.056 C 27.669 34.329 27.6 34.596 27.464 34.857 C 27.327 35.118 27.11 35.323 26.811 35.472 L 25.64 36.133 C 25.367 36.282 25.093 36.387 24.82 36.45 C 24.547 36.512 24.261 36.543 23.963 36.543 C 23.665 36.543 23.379 36.512 23.106 36.45 C 22.832 36.387 22.571 36.282 22.323 36.133 L 10.024 29.573 C 9.751 29.424 9.539 29.219 9.39 28.958 C 9.241 28.697 9.167 28.43 9.167 28.157 C 9.167 27.71 9.328 27.331 9.651 27.02 C 9.974 26.71 10.359 26.554 10.807 26.554 C 10.906 26.554 11.03 26.573 11.179 26.61 C 11.328 26.648 11.453 26.691 11.552 26.741 L 23.963 33.3 Z M 23.963 26.592 L 27.641 24.564 C 27.741 24.489 27.989 24.427 28.387 24.378 C 28.834 24.378 29.219 24.533 29.542 24.844 C 29.865 25.154 30.027 25.545 30.027 26.018 C 30.027 26.291 29.958 26.558 29.822 26.819 C 29.685 27.08 29.468 27.285 29.169 27.434 L 25.64 29.424 C 25.367 29.573 25.093 29.679 24.82 29.741 C 24.547 29.803 24.261 29.834 23.963 29.834 C 23.665 29.834 23.379 29.803 23.106 29.741 C 22.832 29.679 22.571 29.561 22.323 29.387 L 10.024 22.865 C 9.751 22.716 9.539 22.511 9.39 22.25 C 9.241 21.989 9.167 21.722 9.167 21.449 C 9.167 20.976 9.328 20.585 9.651 20.275 C 9.974 19.964 10.359 19.809 10.807 19.809 C 10.931 19.809 11.061 19.827 11.198 19.865 C 11.335 19.902 11.453 19.958 11.552 20.032 L 23.963 26.592 Z" style="stroke-width: 0.05;"/>
</svg>