<?xml version="1.0" encoding="utf-8"?>
<svg width="100%" height="100%" viewBox="0 0 48 48" version="1.1" xmlns="http://www.w3.org/2000/svg" style="fill-rule:evenodd;clip-rule:evenodd;stroke-linejoin:round;stroke-miterlimit:2;">
  <path d="M 21.566 38.598 L 10.024 32.442 C 9.751 32.293 9.539 32.088 9.39 31.827 C 9.241 31.566 9.167 31.299 9.167 31.026 C 9.167 30.578 9.328 30.199 9.651 29.889 C 9.974 29.578 10.359 29.423 10.807 29.423 C 10.906 29.423 11.03 29.442 11.179 29.479 C 11.328 29.516 11.453 29.56 11.552 29.609 L 22.511 35.401 C 22.558 35.419 22.597 35.44 22.629 35.464 L 23.961 36.168 L 25.293 35.464 C 25.325 35.44 25.364 35.419 25.411 35.401 L 29.34 33.324 C 29.439 33.275 29.564 33.231 29.713 33.194 C 29.862 33.157 29.986 33.138 30.085 33.138 C 30.533 33.138 30.918 33.293 31.241 33.604 C 31.564 33.914 31.725 34.293 31.725 34.741 C 31.725 35.014 31.651 35.281 31.502 35.542 C 31.353 35.803 31.141 36.008 30.868 36.157 L 26.555 38.485 L 25.64 39.001 C 25.367 39.15 25.093 39.255 24.82 39.318 L 24.816 39.318 C 24.544 39.38 24.26 39.411 23.963 39.411 L 23.959 39.411 C 23.662 39.411 23.378 39.38 23.105 39.318 L 23.102 39.318 C 22.829 39.255 22.555 39.15 22.282 39.001 L 21.566 38.598 Z M 23.963 29.46 L 27.641 27.432 C 27.741 27.357 27.989 27.295 28.387 27.246 C 28.834 27.246 29.219 27.401 29.542 27.712 C 29.865 28.022 30.027 28.413 30.027 28.886 C 30.027 29.159 29.958 29.426 29.822 29.687 C 29.685 29.948 29.468 30.153 29.169 30.302 L 25.64 32.293 C 25.367 32.442 25.093 32.547 24.82 32.61 C 24.547 32.672 24.261 32.703 23.963 32.703 C 23.665 32.703 23.379 32.672 23.106 32.61 C 22.832 32.547 22.571 32.429 22.323 32.255 L 10.024 25.733 C 9.751 25.584 9.539 25.379 9.39 25.118 C 9.241 24.857 9.167 24.59 9.167 24.317 C 9.167 23.845 9.328 23.454 9.651 23.143 C 9.974 22.832 10.359 22.677 10.807 22.677 C 10.931 22.677 11.061 22.696 11.198 22.733 C 11.335 22.77 11.453 22.826 11.552 22.901 L 23.963 29.46 Z M 26.15 22.985 C 26.506 23.341 26.672 23.846 26.598 24.344 C 26.524 24.843 26.217 25.277 25.772 25.514 L 25.64 25.584 C 25.367 25.733 25.093 25.839 24.82 25.901 C 24.547 25.963 24.261 25.994 23.963 25.994 C 23.665 25.994 23.379 25.963 23.106 25.901 C 22.832 25.839 22.571 25.733 22.323 25.584 L 9.614 18.838 C 9.291 18.664 9.061 18.435 8.924 18.149 C 8.788 17.863 8.719 17.571 8.719 17.273 C 8.719 16.975 8.788 16.689 8.924 16.416 C 9.061 16.143 9.291 15.919 9.614 15.745 L 22.323 8.999 C 22.571 8.875 22.832 8.775 23.106 8.701 C 23.379 8.626 23.665 8.589 23.963 8.589 C 24.261 8.589 24.547 8.626 24.82 8.701 C 25.093 8.775 25.367 8.875 25.64 8.999 L 32.192 12.479 C 32.645 12.72 32.958 13.162 33.034 13.67 C 33.11 14.178 32.941 14.692 32.577 15.055 L 32.568 15.064 C 32.067 15.565 31.298 15.682 30.67 15.353 L 23.963 11.831 L 13.602 17.31 L 23.963 22.752 L 24.33 22.577 C 24.904 22.304 25.586 22.422 26.035 22.871 L 26.15 22.985 Z M 32.73 17.792 C 33.059 17.46 33.458 17.292 33.927 17.292 C 34.397 17.292 34.797 17.46 35.125 17.792 L 38.752 21.412 C 39.105 21.764 39.281 22.166 39.281 22.616 C 39.281 23.061 39.105 23.449 38.752 23.779 C 38.4 24.131 38.019 24.307 37.608 24.307 C 37.197 24.307 36.827 24.152 36.498 23.85 L 35.583 22.969 L 35.583 31.048 C 35.583 31.505 35.424 31.899 35.107 32.216 C 34.79 32.54 34.399 32.703 33.934 32.703 C 33.468 32.703 33.075 32.54 32.754 32.216 C 32.433 31.899 32.272 31.505 32.272 31.048 L 32.272 22.969 L 31.356 23.877 C 31.028 24.16 30.664 24.307 30.265 24.321 C 29.866 24.334 29.502 24.187 29.173 23.877 C 28.798 23.504 28.604 23.089 28.592 22.631 C 28.581 22.173 28.739 21.778 29.067 21.454 L 32.73 17.792 Z" style="stroke-width: 0.05;"/>
</svg>