<?xml version="1.0" encoding="utf-8"?>
<svg viewBox="0 0 22 22" xmlns="http://www.w3.org/2000/svg">
  <path d="M 19.5 11 C 19.478 13.311 18.521 15.5 17.01 17.01 C 15.5 18.521 13.311 19.5 11 19.5 C 8.689 19.5 6.5 18.521 4.99 17.01 C 3.479 15.5 2.522 13.311 2.5 11 C 2.522 8.689 3.479 6.5 4.99 4.99 C 6.5 3.479 8.689 2.5 11 2.5 C 13.311 2.5 15.5 3.479 17.01 4.99 C 18.521 6.5 19.478 8.689 19.5 11 Z M 6.404 6.404 C 5.2 7.608 4.5 9.169 4.5 11 C 4.5 12.831 5.2 14.392 6.404 15.596 C 7.608 16.8 9.169 17.5 11 17.5 C 12.831 17.5 14.392 16.8 15.596 15.596 C 16.8 14.392 17.5 12.831 17.5 11 C 17.5 9.169 16.8 7.608 15.596 6.404 C 14.392 5.2 12.831 4.5 11 4.5 C 9.169 4.5 7.608 5.2 6.404 6.404 Z M 11 5.5 C 12.422 5.52 13.869 6.121 14.887 7.113 C 15.082 7.309 15.082 7.625 14.887 7.82 L 14.18 8.527 C 14.086 8.621 13.959 8.674 13.826 8.674 C 13.693 8.674 13.566 8.621 13.472 8.527 C 12.804 7.831 11.964 7.482 11 7.5 C 9.997 7.478 9.186 7.864 8.525 8.525 C 7.864 9.186 7.5 9.998 7.5 11 C 7.5 12.002 7.864 12.814 8.525 13.475 C 9.186 14.136 9.997 14.522 11 14.5 C 11.965 14.518 12.804 14.169 13.472 13.473 C 13.566 13.379 13.693 13.326 13.826 13.326 C 13.959 13.326 14.086 13.379 14.18 13.473 L 14.887 14.18 C 15.082 14.375 15.082 14.691 14.887 14.887 C 13.869 15.879 12.421 16.48 11 16.5 C 9.517 16.478 8.079 15.857 7.111 14.889 C 6.143 13.921 5.5 12.483 5.5 11 C 5.5 9.517 6.143 8.079 7.111 7.111 C 8.079 6.143 9.518 5.522 11 5.5 Z"/>
</svg>