<?xml version="1.0" encoding="utf-8"?>
<svg xmlns="http://www.w3.org/2000/svg" height="48" viewBox="0 -960 960 960" width="48">
  <path d="M 189 -95 C 162.967 -95 140.79 -104.157 122.47 -122.47 C 104.157 -140.79 95 -162.967 95 -189 L 95 -771 C 95 -797.307 104.157 -819.717 122.47 -838.23 C 140.79 -856.743 162.967 -866 189 -866 L 771 -866 C 797.307 -866 819.717 -856.743 838.23 -838.23 C 856.743 -819.717 866 -797.307 866 -771 L 866 -431 C 866 -417.613 861.247 -406.267 851.74 -396.96 C 842.227 -387.653 830.893 -383 817.74 -383 C 804.58 -383 793.5 -387.543 784.5 -396.63 C 775.5 -405.71 771 -416.833 771 -430 L 771 -771 L 189 -771 L 189 -189 L 473 -189 C 486.087 -189 497.357 -184.44 506.81 -175.32 C 516.27 -166.207 521 -155.04 521 -141.82 C 521 -128.607 516.27 -117.5 506.81 -108.5 C 497.357 -99.5 486.087 -95 473 -95 Z M 722 -120 L 642 -120 C 631.02 -120 621.607 -123.727 613.76 -131.18 C 605.92 -138.627 602 -147.893 602 -158.98 C 602 -170.067 605.92 -179.51 613.76 -187.31 C 621.607 -195.103 631.02 -199 642 -199 L 722 -199 L 722 -279 C 722 -289.987 725.937 -299.4 733.81 -307.24 C 741.69 -315.08 751.147 -319 762.18 -319 C 772.927 -319 782.083 -315.08 789.65 -307.24 C 797.217 -299.4 801 -289.987 801 -279 L 801 -199 L 882 -199 C 892.7 -199 901.877 -195.043 909.53 -187.13 C 917.177 -179.217 921 -169.717 921 -158.63 C 921 -147.543 917.177 -138.333 909.53 -131 C 901.877 -123.667 892.7 -120 882 -120 L 801 -120 L 801 -39 C 801 -27.833 797.11 -18.543 789.33 -11.13 C 781.557 -3.71 772.223 0 761.33 0 C 750.443 0 741.167 -3.71 733.5 -11.13 C 725.833 -18.543 722 -27.833 722 -39 Z M 363.026 -297.08 C 360.676 -290.79 356.777 -285.5 351.309 -281.6 C 345.843 -277.5 339.779 -275.63 333.103 -275.63 C 321.761 -275.63 312.956 -280.06 306.705 -288.75 C 300.472 -297.61 299.349 -307.48 303.35 -318.38 L 437.842 -663.09 C 439.324 -669.38 442.815 -674.5 448.316 -678.4 C 453.834 -682.33 460.151 -684.37 467.305 -684.37 L 492.612 -684.37 C 499.357 -684.37 505.538 -682.49 511.158 -678.75 C 516.779 -675.16 520.73 -670.07 522.995 -663.92 L 656.651 -320.93 C 660.653 -310.04 659.529 -299.63 653.279 -290.11 C 647.046 -280.4 638.275 -275.63 627.001 -275.63 C 619.933 -275.63 613.699 -277.5 608.335 -281.6 C 602.988 -285.5 599.223 -290.63 597.078 -296.93 L 568.91 -375.26 L 391.858 -375.26 Z M 547.689 -429.76 L 480.418 -622.21 L 479.567 -622.21 L 411.445 -429.76 Z"/>
</svg>