<?xml version="1.0" encoding="utf-8"?>
<svg viewBox="0 0 22 22" xmlns="http://www.w3.org/2000/svg">
  <path d="M 11.001 4.238 C 12.006 3.205 13.242 2.5 15 2.5 C 16.483 2.5 17.921 3.143 18.889 4.111 C 19.857 5.079 20.5 6.517 20.5 8 C 20.5 13.217 13.301 17.394 11.354 19.354 C 11.158 19.549 10.842 19.549 10.646 19.354 C 8.699 17.394 1.5 13.217 1.5 8 C 1.5 6.517 2.143 5.079 3.111 4.111 C 4.079 3.143 5.517 2.5 7 2.5 C 8.758 2.5 9.995 3.199 11.001 4.238 Z M 4.521 5.521 C 3.862 6.18 3.5 6.991 3.5 8 C 3.5 9.885 4.885 11.763 6.776 13.53 C 8.412 15.067 9.793 16.031 11 17.045 C 12.207 16.031 13.588 15.067 15.224 13.53 C 17.115 11.763 18.5 9.885 18.5 8 C 18.5 6.991 18.138 6.18 17.479 5.521 C 16.82 4.862 16.009 4.5 15 4.5 C 13.797 4.5 12.851 4.993 12.201 5.899 L 11.4 6.969 C 11.306 7.096 11.158 7.17 11 7.17 C 10.842 7.17 10.694 7.096 10.6 6.969 L 9.799 5.899 C 9.15 4.993 8.203 4.5 7 4.5 C 5.991 4.5 5.18 4.862 4.521 5.521 Z"/>
</svg>