<?xml version="1.0" encoding="utf-8"?>
<svg xmlns="http://www.w3.org/2000/svg" height="48" viewBox="0 -960 960 960" width="48">
  <path d="M 153 -731 L 478 -538 L 803 -731 L 153 -731 Z M 149 -147 C 122.467 -147 100.167 -156.033 82.1 -174.1 C 64.033 -192.167 55 -214.467 55 -241 L 55 -731 C 55 -757.807 64.033 -780.343 82.1 -798.61 C 100.167 -816.87 122.467 -826 149 -826 L 808 -826 C 834.807 -826 857.343 -816.87 875.61 -798.61 C 893.87 -780.343 903 -757.807 903 -731 L 903 -573.766 C 903 -560.599 897.773 -549.476 887.32 -540.396 C 876.873 -531.309 862.04 -526.766 842.82 -526.766 C 833.22 -526.766 825.017 -530.116 818.21 -536.816 C 811.403 -543.516 808 -551.499 808 -560.766 L 808 -652 L 501.24 -468.21 C 497.293 -465.85 489.637 -464.113 478.27 -463 C 473.297 -463 469.177 -463.333 465.91 -464 C 462.637 -464.667 459 -466 455 -468 L 149 -652 L 149 -241 L 462.985 -241 C 476.152 -241 487.278 -236.44 496.365 -227.32 C 505.445 -218.207 509.985 -207.04 509.985 -193.82 C 509.985 -180.607 505.445 -169.5 496.365 -160.5 C 487.278 -151.5 476.152 -147 462.985 -147 L 149 -147 Z M 595.195 -210.56 C 585.579 -210.56 577.466 -213.92 570.842 -220.48 C 564.217 -227.19 560.905 -235.22 560.905 -244.85 L 560.905 -301.76 C 560.905 -305.84 561.751 -309.92 563.458 -313.86 C 565.151 -317.66 567.705 -321.45 571.119 -325.1 L 725.496 -478.89 C 730.996 -484.29 737.052 -488.38 743.677 -491.02 C 750.301 -493.77 757.013 -495.09 763.812 -495.09 C 771.065 -495.09 777.966 -493.63 784.518 -490.71 C 791.084 -487.8 797.285 -483.71 803.122 -478.31 L 830.116 -451.32 C 835.456 -445.93 839.352 -439.95 841.789 -433.37 C 844.211 -426.8 845.437 -420.24 845.437 -413.38 C 845.437 -406.08 844.095 -399.08 841.395 -392.37 C 838.71 -385.65 834.683 -379.54 829.328 -373.83 L 676.177 -220.04 C 672.588 -216.68 668.852 -214.21 665 -212.75 C 661.133 -211.28 656.829 -210.56 652.101 -210.56 L 595.195 -210.56 Z"/>
</svg>