<?xml version="1.0" encoding="utf-8"?>
<svg clip-rule="evenodd" fill-rule="evenodd" stroke-linejoin="round" stroke-miterlimit="2" viewBox="0 0 48 48" xmlns="http://www.w3.org/2000/svg">
  <path d="M 25.325 25.625 C 25.132 25.759 24.925 25.85 24.705 25.9 C 24.497 25.947 24.284 25.972 24.064 25.975 C 24.035 25.976 24.005 25.976 23.975 25.976 C 23.741 25.976 23.515 25.951 23.295 25.901 C 23.075 25.851 22.868 25.759 22.674 25.626 L 7.475 15.658 L 7.475 19.346 C 7.475 20.005 7.25 20.561 6.8 21.015 C 6.35 21.469 5.796 21.696 5.138 21.696 C 4.788 21.696 4.464 21.632 4.166 21.503 C 3.903 21.39 3.661 21.227 3.438 21.015 C 2.963 20.561 2.725 20.005 2.725 19.346 L 2.725 11.476 L 2.724 11.475 C 2.724 10.193 3.182 9.081 4.097 8.139 C 5.013 7.196 6.122 6.725 7.424 6.725 L 40.575 6.725 C 41.877 6.725 42.986 7.196 43.902 8.138 C 44.081 8.323 44.243 8.514 44.387 8.711 C 44.979 9.522 45.275 10.444 45.275 11.475 L 45.275 20.425 C 45.275 21.084 45.037 21.64 44.562 22.094 C 44.086 22.548 43.52 22.775 42.862 22.775 C 42.204 22.775 41.65 22.548 41.2 22.094 C 40.75 21.64 40.525 21.084 40.525 20.425 L 40.525 15.658 Z M 24.704 30.529 C 24.704 30.716 24.662 30.902 24.58 31.089 C 24.496 31.276 24.382 31.444 24.237 31.588 L 21.03 34.763 C 20.739 35.056 20.397 35.199 20.003 35.199 L 19.943 35.198 L 19.881 35.199 C 19.466 35.199 19.113 35.055 18.822 34.763 C 18.532 34.47 18.386 34.127 18.386 33.735 C 18.386 33.735 18.386 33.735 18.386 33.734 C 18.386 33.342 18.521 32.999 18.791 32.706 L 21.029 30.467 L 18.791 28.228 C 18.521 27.935 18.386 27.593 18.386 27.2 C 18.386 26.808 18.531 26.465 18.822 26.172 C 19.112 25.879 19.466 25.736 19.881 25.736 L 19.943 25.737 L 20.002 25.736 L 20.003 25.736 C 20.106 25.736 20.206 25.746 20.302 25.766 C 20.573 25.821 20.815 25.955 21.03 26.171 L 24.237 29.347 C 24.382 29.491 24.496 29.659 24.58 29.846 C 24.662 30.033 24.704 30.219 24.704 30.406 L 24.703 30.468 L 24.704 30.527 Z M 2.725 35.638 C 2.725 33.752 3.368 32.163 4.656 30.873 C 5.943 29.584 7.542 28.943 9.452 28.943 L 13.341 28.943 L 9.822 25.392 C 9.531 25.125 9.386 24.782 9.386 24.377 C 9.386 23.972 9.531 23.629 9.822 23.336 C 10.092 23.043 10.434 22.901 10.85 22.901 C 11.262 22.901 11.614 23.042 11.904 23.332 C 11.906 23.334 11.907 23.335 11.909 23.337 L 17.919 29.347 C 18.064 29.491 18.178 29.659 18.262 29.846 C 18.345 30.033 18.386 30.219 18.386 30.406 C 18.386 30.593 18.345 30.78 18.262 30.967 C 18.178 31.154 18.064 31.322 17.919 31.465 L 11.94 37.446 C 11.649 37.738 11.296 37.882 10.881 37.882 C 10.466 37.882 10.123 37.738 9.853 37.446 C 9.562 37.153 9.417 36.81 9.417 36.418 C 9.417 36.418 9.417 36.418 9.417 36.417 C 9.417 36.025 9.551 35.682 9.822 35.389 L 13.341 31.87 L 9.452 31.87 C 8.331 31.87 7.422 32.219 6.727 32.91 C 6.032 33.608 5.684 34.517 5.684 35.639 L 5.684 39.812 C 5.684 40.229 5.544 40.572 5.264 40.852 C 4.983 41.133 4.635 41.276 4.22 41.276 C 3.805 41.276 3.452 41.133 3.161 40.852 C 3.06 40.754 2.976 40.649 2.91 40.535 C 2.823 40.386 2.767 40.223 2.741 40.044 C 2.73 39.97 2.725 39.892 2.725 39.812 Z M 35.033 31.844 L 38.562 35.373 C 38.832 35.667 38.968 36.011 38.968 36.404 C 38.968 36.804 38.832 37.147 38.562 37.434 C 38.27 37.728 37.916 37.872 37.5 37.872 C 37.083 37.872 36.74 37.728 36.469 37.434 L 30.442 31.438 C 30.15 31.151 30.004 30.795 30.004 30.376 C 30.004 29.965 30.15 29.608 30.442 29.315 L 36.5 23.287 C 36.791 23 37.141 22.85 37.547 22.85 C 37.953 22.85 38.301 23 38.593 23.287 C 38.863 23.581 38.999 23.931 38.999 24.337 C 38.999 24.742 38.863 25.08 38.593 25.349 L 35.033 28.909 L 38.529 28.909 C 40.444 28.909 42.048 29.558 43.339 30.845 C 44.629 32.138 45.275 33.73 45.275 35.623 L 45.275 39.808 C 45.275 40.226 45.129 40.576 44.838 40.857 C 44.546 41.138 44.192 41.276 43.776 41.276 C 43.359 41.276 43.011 41.138 42.73 40.857 C 42.449 40.576 42.308 40.226 42.308 39.808 L 42.308 35.623 C 42.308 34.499 41.959 33.587 41.262 32.893 C 40.564 32.194 39.654 31.844 38.529 31.844 Z M 24 22.109 L 40.525 11.475 L 7.475 11.475 Z"/>
</svg>