<?xml version="1.0" encoding="utf-8"?>
<svg xmlns="http://www.w3.org/2000/svg" height="48" viewBox="0 -960 960 960" width="48">
  <path d="M 153 -731 L 478 -538 L 803 -731 Z M 149 -147 C 122.467 -147 100.167 -156.033 82.1 -174.1 C 64.033 -192.167 55 -214.467 55 -241 L 55 -731 C 55 -757.807 64.033 -780.343 82.1 -798.61 C 100.167 -816.87 122.467 -826 149 -826 L 808 -826 C 834.807 -826 857.343 -816.87 875.61 -798.61 C 893.87 -780.343 903 -757.807 903 -731 L 903 -535.29 C 903 -522.123 897.773 -511 887.32 -501.92 C 876.873 -492.833 862.04 -488.29 842.82 -488.29 C 833.22 -488.29 825.017 -491.64 818.21 -498.34 C 811.403 -505.04 808 -513.023 808 -522.29 L 808 -652 L 501.24 -468.21 C 497.293 -465.85 489.637 -464.113 478.27 -463 C 473.297 -463 469.177 -463.333 465.91 -464 C 462.637 -464.667 459 -466 455 -468 L 149 -652 L 149 -241 L 504.526 -241 C 517.693 -241 528.819 -236.44 537.906 -227.32 C 546.986 -218.207 551.526 -207.04 551.526 -193.82 C 551.526 -180.607 546.986 -169.5 537.906 -160.5 C 528.819 -151.5 517.693 -147 504.526 -147 Z M 606.882 -186.91 C 596.306 -198.27 589.838 -213.98 589.365 -229.48 L 589.365 -382.35 L 587.945 -382.35 C 578.788 -382.73 568.647 -386.7 562.007 -392.56 C 556.125 -399.19 551.526 -409.2 551.526 -418.1 C 551.526 -426.99 555.915 -437.02 561.648 -443.83 C 568.288 -450.07 578.617 -454.62 587.945 -455.18 L 655.579 -455.18 L 655.579 -453.66 C 656.108 -462 659.875 -471.83 665.929 -477.88 C 672 -483.94 681.876 -487.71 690.107 -488.29 L 721.322 -488.29 C 729.38 -487.71 739.123 -484.12 745.48 -478.26 C 752.027 -472.21 756.169 -462.18 756.794 -453.66 L 756.794 -455.18 L 824.427 -455.18 C 833.717 -454.62 844.008 -450.27 850.669 -444.03 C 856.4 -437.4 860.846 -427.37 860.846 -418.86 C 860.846 -409.6 856.305 -399.37 850.422 -392.75 C 843.783 -386.89 833.603 -382.73 824.427 -382.35 L 823.01 -382.35 L 823.01 -229.48 C 822.517 -213.98 816.048 -198.27 805.471 -186.91 C 794.195 -176.31 778.513 -169.89 762.942 -169.51 L 649.43 -169.51 C 633.861 -169.89 618.177 -176.31 606.882 -186.91 Z M 662.2 -242.34 L 750.172 -242.34 L 750.172 -382.35 L 662.2 -382.35 Z"/>
</svg>