<?xml version="1.0" encoding="utf-8"?>
<svg height="48" viewBox="0 -960 960 960" width="48" xmlns="http://www.w3.org/2000/svg">
  <path d="M 151.5 -134.5 C 124.8 -134.5 101.957 -143.83 82.97 -162.48 C 63.99 -181.13 54.5 -203.13 54.5 -228.5 L 54.5 -730.5 C 54.5 -756.14 63.657 -778.38 81.97 -797.23 C 100.29 -816.08 122.467 -825.5 148.5 -825.5 L 810.5 -825.5 C 836.14 -825.5 858.383 -816.08 877.23 -797.23 C 896.077 -778.38 905.5 -756.14 905.5 -730.5 L 905.5 -475.948 C 905.5 -462.778 900.747 -451.658 891.24 -442.578 C 881.727 -433.488 870.393 -428.948 857.24 -428.948 C 844.08 -428.948 833 -433.488 824 -442.578 C 815 -451.658 810.5 -462.778 810.5 -475.948 L 810.5 -647.5 L 505.5 -447.5 C 501.627 -444.83 497.49 -443 493.09 -442 C 488.697 -441 484.167 -440.5 479.5 -440.5 C 474.833 -440.5 470.303 -441 465.91 -442 C 461.51 -443 457.373 -444.83 453.5 -447.5 L 148.5 -647.5 L 148.5 -228.5 L 509.377 -228.5 C 522.544 -228.5 533.67 -223.94 542.757 -214.82 C 551.837 -205.71 556.377 -194.54 556.377 -181.32 C 556.377 -168.11 551.837 -157 542.757 -148 C 533.67 -139 522.544 -134.5 509.377 -134.5 L 151.5 -134.5 Z M 479.5 -517.5 L 810.5 -730.5 L 148.5 -730.5 L 479.5 -517.5 Z M 899.594 -289.934 L 647.982 -184.137 C 643.361 -182.36 637.039 -181.048 632.345 -181.409 C 627.607 -181.772 621.547 -184.097 617.349 -186.571 C 613.354 -189.362 608.729 -193.902 606.478 -198.019 C 604.225 -202.139 602.899 -208.488 602.709 -213.35 L 602.709 -426.8 C 602.899 -431.666 604.225 -438.016 606.478 -442.136 C 608.729 -446.253 613.368 -450.804 617.357 -453.594 C 625.955 -458.181 638.576 -459.185 647.946 -456.418 L 899.64 -350.196 C 905.009 -347.651 911.248 -343.033 914.354 -338.325 C 917.453 -333.626 919.5 -326.079 919.5 -320.11 C 919.5 -314.12 917.462 -306.565 914.366 -301.857 C 911.259 -297.131 904.966 -292.482 899.594 -289.934 Z M 663.145 -256.738 L 814.746 -320.199 L 663.145 -384.54 L 663.145 -359.171 L 753.602 -319.919 L 663.145 -281.766 L 663.145 -256.738 Z"/>
</svg>