<?xml version="1.0" encoding="utf-8"?>
<svg xmlns="http://www.w3.org/2000/svg" height="48" viewBox="0 -960 960 960" width="48">
  <path d="M 153 -731 L 478 -538 L 803 -731 Z M 149 -147 C 122.467 -147 100.167 -156.033 82.1 -174.1 C 64.033 -192.167 55 -214.467 55 -241 L 55 -731 C 55 -757.807 64.033 -780.343 82.1 -798.61 C 100.167 -816.87 122.467 -826 149 -826 L 808 -826 C 834.807 -826 857.343 -816.87 875.61 -798.61 C 893.87 -780.343 903 -757.807 903 -731 L 903 -534.9 C 903 -521.733 897.773 -510.61 887.32 -501.53 C 876.873 -492.443 862.04 -487.9 842.82 -487.9 C 833.22 -487.9 825.017 -491.25 818.21 -497.95 C 811.403 -504.65 808 -512.633 808 -521.9 L 808 -652 L 501.24 -468.21 C 497.293 -465.85 489.637 -464.113 478.27 -463 C 473.297 -463 469.177 -463.333 465.91 -464 C 462.637 -464.667 459 -466 455 -468 L 149 -652 L 149 -241 L 317.843 -241 C 331.01 -241 342.136 -236.44 351.223 -227.32 C 360.303 -218.207 364.843 -207.04 364.843 -193.82 C 364.843 -180.607 360.303 -169.5 351.223 -160.5 C 342.136 -151.5 331.01 -147 317.843 -147 Z M 816.199 -349.21 L 724.778 -441.21 C 719.028 -446.62 716.154 -453.06 716.154 -460.53 C 716.154 -468.01 719.028 -474.45 724.778 -479.84 C 730.137 -485.13 736.37 -487.9 743.465 -487.9 C 750.548 -487.9 756.976 -485.13 762.727 -479.84 L 873.696 -368.76 C 876.377 -366.13 878.48 -363.02 880.022 -359.68 C 881.55 -356.23 882.322 -352.78 882.322 -349.21 C 882.322 -345.76 881.55 -342.43 880.022 -338.98 C 878.48 -335.53 876.377 -332.42 873.696 -329.78 L 763.302 -219.27 C 757.931 -213.99 751.412 -211.22 743.753 -211.22 C 736.083 -211.22 729.757 -213.99 724.778 -219.27 C 719.028 -224.68 716.154 -231.01 716.154 -238.37 C 716.154 -245.6 718.833 -251.92 724.203 -257.21 Z M 657.506 -322.3 L 528.138 -322.3 C 507.437 -322.3 490.661 -315.86 477.826 -302.99 C 464.982 -290.1 458.566 -273.43 458.566 -252.74 L 458.566 -175.69 C 458.566 -167.98 455.977 -161.54 450.804 -156.36 C 445.629 -151.19 439.201 -148.66 431.541 -148.66 C 423.872 -148.66 417.455 -151.19 412.28 -156.36 C 407.106 -161.54 404.518 -167.98 404.518 -175.69 L 404.518 -252.74 C 404.518 -287.57 416.304 -316.9 439.878 -340.59 C 463.452 -364.39 492.869 -376.36 528.138 -376.36 L 657.506 -376.36 L 593.109 -441.9 C 587.739 -446.84 585.06 -453.06 585.06 -460.53 C 585.06 -468.01 587.739 -474.45 593.109 -479.84 C 598.089 -485.13 604.321 -487.9 611.796 -487.9 C 619.271 -487.9 625.687 -485.13 631.057 -479.84 L 742.028 -368.76 C 744.707 -366.13 746.811 -363.02 748.352 -359.68 C 749.882 -356.23 750.652 -352.78 750.652 -349.21 C 750.652 -345.76 749.882 -342.43 748.352 -338.98 C 746.811 -335.53 744.707 -332.42 742.028 -329.78 L 631.633 -219.27 C 626.262 -213.99 619.742 -211.22 612.083 -211.22 C 604.413 -211.22 598.089 -213.99 593.109 -219.27 C 587.739 -224.68 585.06 -231.01 585.06 -238.37 C 585.06 -245.6 587.739 -251.92 593.109 -257.21 Z"/>
</svg>