<?xml version="1.0" encoding="utf-8"?>
<svg xmlns="http://www.w3.org/2000/svg" height="48" viewBox="0 -960 960 960" width="48">
  <path d="M 153 -731 L 478 -538 L 803 -731 L 153 -731 Z M 149 -147 C 122.467 -147 100.167 -156.033 82.1 -174.1 C 64.033 -192.167 55 -214.467 55 -241 L 55 -731 C 55 -757.807 64.033 -780.343 82.1 -798.61 C 100.167 -816.87 122.467 -826 149 -826 L 808 -826 C 834.807 -826 857.343 -816.87 875.61 -798.61 C 893.87 -780.343 903 -757.807 903 -731 L 903 -521 C 903 -507.833 897.773 -496.71 887.32 -487.63 C 876.873 -478.543 862.04 -474 842.82 -474 C 833.22 -474 825.017 -477.35 818.21 -484.05 C 811.403 -490.75 808 -498.733 808 -508 L 808 -652 L 501.24 -468.21 C 497.293 -465.85 489.637 -464.113 478.27 -463 C 473.297 -463 469.177 -463.333 465.91 -464 C 462.637 -464.667 459 -466 455 -468 L 149 -652 L 149 -241 L 538.537 -241 C 551.704 -241 562.83 -236.44 571.917 -227.32 C 580.997 -218.207 585.537 -207.04 585.537 -193.82 C 585.537 -180.607 580.997 -169.5 571.917 -160.5 C 562.83 -151.5 551.704 -147 538.537 -147 L 149 -147 Z M 705.452 -172.7 C 693.447 -172.7 683.366 -176.88 675.194 -185.24 C 667.021 -193.41 662.934 -203.57 662.934 -215.57 C 662.934 -227.55 667.074 -237.72 675.356 -245.88 C 683.62 -254.07 693.774 -258.06 705.779 -258.06 C 717.766 -258.06 727.864 -254.07 736.038 -245.72 C 744.211 -237.55 748.298 -227.38 748.298 -215.39 C 748.298 -203.38 744.156 -193.22 735.874 -185.05 C 727.591 -176.88 717.458 -172.7 705.452 -172.7 Z M 705.452 -312.54 C 693.447 -312.54 683.366 -316.72 675.194 -325.08 C 667.021 -333.27 662.934 -343.61 662.934 -356.14 L 662.934 -465.11 C 662.934 -477.1 667.074 -487.26 675.356 -495.46 C 683.62 -503.81 693.774 -507.79 705.779 -507.79 C 717.766 -507.79 727.864 -503.81 736.038 -495.46 C 744.211 -487.26 748.298 -477.1 748.298 -465.11 L 748.298 -356.14 C 748.298 -343.61 744.156 -333.27 735.874 -325.08 C 727.591 -316.72 717.458 -312.54 705.452 -312.54 Z"/>
</svg>