<?xml version="1.0" encoding="utf-8"?>
<svg xmlns="http://www.w3.org/2000/svg" height="48" viewBox="0 -960 960 960" width="48">
  <path d="M 153 -731 L 478 -538 L 803 -731 Z M 149 -147 C 122.467 -147 100.167 -156.033 82.1 -174.1 C 64.033 -192.167 55 -214.467 55 -241 L 55 -731 C 55 -757.807 64.033 -780.343 82.1 -798.61 C 100.167 -816.87 122.467 -826 149 -826 L 808 -826 C 834.807 -826 857.343 -816.87 875.61 -798.61 C 893.87 -780.343 903 -757.807 903 -731 L 903 -521 C 903 -507.833 897.773 -496.71 887.32 -487.63 C 876.873 -478.543 862.04 -474 842.82 -474 C 833.22 -474 825.017 -477.35 818.21 -484.05 C 811.403 -490.75 808 -498.733 808 -508 L 808 -652 L 501.24 -468.21 C 497.293 -465.85 489.637 -464.113 478.27 -463 C 473.297 -463 469.177 -463.333 465.91 -464 C 462.637 -464.667 459 -466 455 -468 L 149 -652 L 149 -241 L 538.537 -241 C 551.704 -241 562.83 -236.44 571.917 -227.32 C 580.997 -218.207 585.537 -207.04 585.537 -193.82 C 585.537 -180.607 580.997 -169.5 571.917 -160.5 C 562.83 -151.5 551.704 -147 538.537 -147 Z M 606.196 -309.71 C 595.043 -309.71 585.452 -313.56 577.4 -321.73 C 569.347 -329.67 565.332 -339.26 565.332 -350.81 C 565.332 -362.12 569.347 -371.95 577.4 -380.13 C 585.452 -388.56 595.043 -392.64 606.196 -392.64 L 663.887 -392.64 L 663.887 -449.13 C 663.887 -460.44 667.686 -470.29 675.305 -478.69 C 682.902 -486.88 692.662 -491.19 704.536 -491.19 C 716.074 -491.19 726.002 -486.88 734.318 -478.69 C 742.66 -470.29 746.819 -460.44 746.819 -449.13 L 746.819 -392.64 L 803.308 -392.64 C 814.438 -392.64 824.028 -388.56 832.081 -380.13 C 840.134 -371.95 844.172 -362.12 844.172 -350.58 C 844.172 -339.51 840.134 -329.89 832.081 -321.73 C 824.028 -313.56 814.438 -309.71 803.308 -309.71 L 746.819 -309.71 L 746.819 -253.22 C 746.819 -241.69 742.804 -231.82 734.8 -223.41 C 726.771 -215.25 716.842 -211.16 704.968 -211.16 C 693.07 -211.16 683.262 -215.25 675.522 -223.41 C 667.757 -231.82 663.887 -241.69 663.887 -253.22 L 663.887 -309.71 Z"/>
</svg>