<?xml version="1.0" encoding="utf-8"?>
<svg xmlns="http://www.w3.org/2000/svg" height="48" viewBox="0 -960 960 960" width="48">
  <path d="M 153 -731 L 478 -538 L 803 -731 Z M 149 -147 C 122.467 -147 100.167 -156.033 82.1 -174.1 C 64.033 -192.167 55 -214.467 55 -241 L 55 -731 C 55 -757.807 64.033 -780.343 82.1 -798.61 C 100.167 -816.87 122.467 -826 149 -826 L 808 -826 C 834.807 -826 857.343 -816.87 875.61 -798.61 C 893.87 -780.343 903 -757.807 903 -731 L 903.717 -535.99 C 903.717 -522.823 898.49 -511.7 888.037 -502.62 C 877.59 -493.533 862.757 -488.99 843.537 -488.99 C 833.937 -488.99 825.734 -492.34 818.927 -499.04 C 812.12 -505.74 808.717 -513.723 808.717 -522.99 L 808 -652 L 501.24 -468.21 C 497.293 -465.85 489.637 -464.113 478.27 -463 C 473.297 -463 469.177 -463.333 465.91 -464 C 462.637 -464.667 459 -466 455 -468 L 149 -652 L 149 -241 L 516.009 -241 C 529.176 -241 540.302 -236.44 549.389 -227.32 C 558.469 -218.207 563.009 -207.04 563.009 -193.82 C 563.009 -180.607 558.469 -169.5 549.389 -160.5 C 540.302 -151.5 529.176 -147 516.009 -147 Z M 604.261 -249.83 C 576.759 -277.41 563.009 -310.38 563.009 -348.85 C 563.009 -387.22 576.796 -420.2 604.369 -447.75 C 631.943 -475.22 664.946 -488.99 703.381 -488.99 C 741.815 -488.99 774.784 -475.22 802.285 -447.63 C 829.787 -420.07 843.537 -386.97 843.537 -348.61 C 843.537 -310.14 829.751 -277.16 802.178 -249.7 C 774.604 -222.14 741.6 -208.48 703.165 -208.48 C 664.742 -208.48 631.774 -222.25 604.261 -249.83 Z M 748.229 -324.16 C 755.195 -324.16 761.033 -326.43 765.745 -331.24 C 770.456 -335.91 772.805 -341.79 772.805 -348.74 C 772.805 -355.7 770.456 -361.57 765.745 -366.24 C 761.033 -370.9 755.195 -373.32 748.229 -373.32 L 654.12 -373.32 C 647.168 -373.32 641.329 -370.9 636.618 -366.24 C 631.906 -361.44 629.544 -355.7 629.544 -348.74 C 629.544 -341.79 631.906 -335.91 636.618 -331.24 C 641.329 -326.43 647.168 -324.16 654.12 -324.16 Z"/>
</svg>