<?xml version="1.0" encoding="utf-8"?>
<svg xmlns="http://www.w3.org/2000/svg" height="48" viewBox="0 -960 960 960" width="48">
  <path d="M 153 -731 L 478 -538 L 803 -731 Z M 149 -147 C 122.467 -147 100.167 -156.033 82.1 -174.1 C 64.033 -192.167 55 -214.467 55 -241 L 55 -731 C 55 -757.807 64.033 -780.343 82.1 -798.61 C 100.167 -816.87 122.467 -826 149 -826 L 808 -826 C 834.807 -826 857.343 -816.87 875.61 -798.61 C 893.87 -780.343 903 -757.807 903 -731 L 903 -521 C 903 -507.833 897.773 -496.71 887.32 -487.63 C 876.873 -478.543 862.04 -474 842.82 -474 C 833.22 -474 825.017 -477.35 818.21 -484.05 C 811.403 -490.75 808 -498.733 808 -508 L 808 -652 L 501.24 -468.21 C 497.293 -465.85 489.637 -464.113 478.27 -463 C 473.297 -463 469.177 -463.333 465.91 -464 C 462.637 -464.667 459 -466 455 -468 L 149 -652 L 149 -241 L 472.607 -241 C 485.774 -241 496.9 -236.44 505.987 -227.32 C 515.067 -218.207 519.607 -207.04 519.607 -193.82 C 519.607 -180.607 515.067 -169.5 505.987 -160.5 C 496.9 -151.5 485.774 -147 472.607 -147 Z M 605.12 -180.54 C 593.296 -180.54 583.32 -184.49 575.175 -192.74 C 567.029 -200.81 562.956 -210.87 562.956 -222.7 L 562.956 -238.85 C 562.956 -265.59 576.413 -287.12 603.325 -303.26 C 625.914 -316.89 654.28 -324.79 688.423 -326.96 C 691.921 -327.49 695.205 -327.66 698.272 -327.66 C 698.398 -327.66 708.158 -327.66 708.265 -327.66 C 708.391 -327.66 708.5 -327.66 708.625 -327.66 L 719.049 -327.66 C 722.028 -327.66 725.328 -327.49 728.917 -327.12 C 728.898 -326.96 728.881 -326.96 728.881 -326.96 C 763.312 -324.79 791.569 -316.89 813.637 -303.45 C 840.048 -287.12 853.235 -265.59 853.235 -238.85 L 853.235 -222.7 C 853.235 -210.87 849.162 -200.81 841.016 -192.74 C 832.871 -184.49 822.895 -180.54 811.071 -180.54 Z M 707.71 -351.89 C 688.71 -351.89 672.472 -358.7 659.016 -372.33 C 645.559 -385.98 638.832 -402.48 638.832 -421.49 C 638.832 -440.89 645.596 -457.19 659.124 -470.66 C 672.67 -484.12 688.926 -490.93 707.926 -490.93 C 707.997 -490.93 708.05 -490.93 708.123 -490.93 C 708.176 -490.93 708.231 -490.93 708.302 -490.93 C 727.428 -490.93 743.862 -484.12 757.623 -470.66 C 771.367 -457.19 778.256 -440.7 778.256 -421.32 C 778.256 -402.48 771.456 -386.15 757.856 -372.51 C 744.258 -358.7 727.661 -351.89 708.086 -351.89 C 708.015 -351.89 707.96 -351.89 707.907 -351.89 C 707.835 -351.89 707.781 -351.89 707.71 -351.89 Z"/>
</svg>