<?xml version="1.0" encoding="utf-8"?>
<svg xmlns="http://www.w3.org/2000/svg" height="48" viewBox="0 -960 960 960" width="48">
  <path d="M 153 -731 L 478 -538 L 803 -731 Z M 149 -147 C 122.467 -147 100.167 -156.033 82.1 -174.1 C 64.033 -192.167 55 -214.467 55 -241 L 55 -731 C 55 -757.807 64.033 -780.343 82.1 -798.61 C 100.167 -816.87 122.467 -826 149 -826 L 808 -826 C 834.807 -826 857.343 -816.87 875.61 -798.61 C 893.87 -780.343 903 -757.807 903 -731 L 903 -513.308 C 903 -500.141 897.773 -489.018 887.32 -479.938 C 876.873 -470.851 870.04 -466.308 850.82 -466.308 C 841.22 -466.308 825.017 -469.658 818.21 -476.358 C 811.403 -483.058 808 -491.041 808 -500.308 L 808 -652 L 501.24 -468.21 C 497.293 -465.85 489.637 -464.113 478.27 -463 C 473.297 -463 469.177 -463.333 465.91 -464 C 462.637 -464.667 459 -466 455 -468 L 149 -652 L 149 -241 L 544.031 -241 C 557.198 -241 568.324 -236.44 577.411 -227.32 C 586.491 -218.207 591.031 -207.04 591.031 -193.82 C 591.031 -180.607 586.491 -169.5 577.411 -160.5 C 568.324 -151.5 557.198 -147 544.031 -147 Z M 667.093 -353.84 C 663.178 -357.63 661.214 -362.51 661.214 -368.33 C 661.214 -374.02 663.137 -378.9 666.971 -382.82 C 670.818 -386.75 675.626 -388.79 681.41 -388.79 C 687.208 -388.79 692.057 -386.75 695.971 -382.96 C 699.9 -379.17 701.85 -374.29 701.85 -368.61 C 701.85 -362.78 699.94 -357.9 696.093 -353.98 C 692.26 -350.05 687.451 -348.15 681.654 -348.15 C 675.87 -348.15 671.007 -350.05 667.093 -353.84 Z M 718.782 -161.23 L 581.973 -298.03 C 577.558 -302.5 574.198 -307.65 571.895 -313.61 C 569.579 -319.43 568.428 -325.53 568.428 -331.89 L 568.428 -434.16 C 568.428 -447.3 573.047 -458.55 582.257 -467.75 C 591.482 -476.97 602.67 -481.57 615.837 -481.57 L 718.105 -481.57 C 724.404 -481.57 730.485 -480.36 736.391 -478.05 C 742.283 -475.75 747.485 -472.36 751.968 -468.03 L 888.777 -331.22 C 898.259 -321.87 903 -310.49 903 -297.36 C 903 -284.22 898.259 -272.98 888.777 -263.5 L 786.509 -161.23 C 777.149 -151.74 765.88 -147 752.74 -147 C 739.588 -147 728.264 -151.74 718.782 -161.23 Z M 752.646 -218.79 L 831.209 -297.36 L 711.332 -417.91 L 632.091 -417.91 L 632.091 -339.34 Z"/>
</svg>