<?xml version="1.0" encoding="utf-8"?>
<svg xmlns="http://www.w3.org/2000/svg" height="48" viewBox="0 -960 960 960" width="48">
  <path d="M 706.514 -227.35 C 673.065 -227.35 640.788 -235.786 611.669 -251.74 C 582.687 -268.006 558.836 -290.358 541.181 -317.744 C 537.647 -322.344 534.842 -327.734 533.307 -333.046 C 531.985 -338.089 531.206 -343.871 531.206 -349.74 C 531.206 -355.17 532.101 -361.237 533.635 -366.749 C 535.222 -372.361 537.934 -378.586 541.011 -383.901 C 558.669 -410.927 582.584 -433.291 611.351 -449.443 C 640.299 -465.516 672.668 -473.94 706.514 -473.94 C 740.359 -473.94 772.729 -465.516 801.676 -449.443 C 830.431 -433.302 854.618 -410.816 872.68 -383.815 C 875.749 -378.89 878.32 -373.41 879.957 -368.13 C 881.499 -362.906 882.43 -356.76 882.43 -350.95 C 882.43 -345.258 881.674 -339.169 880.365 -333.811 C 878.915 -328.264 876.361 -322.627 873.222 -317.989 C 855.536 -290.067 831.418 -267.5 802.207 -251.464 C 772.864 -235.617 740.338 -227.35 706.514 -227.35 Z M 706.514 -292.04 C 729.006 -292.04 749.456 -297.35 769.824 -308.895 C 790.418 -320.439 803.834 -330.817 818.699 -350.906 C 804.7 -368.324 790.403 -380.978 769.77 -392.686 C 749.413 -404.468 728.987 -409.88 706.514 -409.88 C 684.034 -409.88 663.729 -404.476 643.59 -392.701 C 623.161 -381.007 609.9 -370.624 595.445 -350.907 C 609.085 -333.164 623.137 -320.413 643.538 -308.879 C 663.686 -297.345 684.015 -292.04 706.514 -292.04 Z M 706.514 -315.68 C 696.78 -315.68 688.567 -318.94 681.874 -325.64 C 675.182 -332.35 671.835 -340.86 671.835 -350.95 C 671.835 -360.69 675.182 -368.85 681.874 -375.54 C 688.567 -382.23 696.78 -385.63 706.514 -385.63 C 716.65 -385.63 725.07 -382.23 731.763 -375.54 C 738.455 -368.85 741.801 -360.69 741.801 -350.95 C 741.801 -340.86 738.455 -332.35 731.763 -325.64 C 725.07 -318.94 716.65 -315.68 706.514 -315.68 Z M 149 -147 C 122.467 -147 100.167 -156.033 82.1 -174.1 C 64.033 -192.167 55 -214.467 55 -241 L 55 -731 C 55 -757.807 64.033 -780.343 82.1 -798.61 C 100.167 -816.87 122.467 -826 149 -826 L 808 -826 C 834.807 -826 857.343 -816.87 875.61 -798.61 C 893.87 -780.343 903 -757.807 903 -731 L 903 -527.593 C 903 -514.426 897.773 -503.303 887.32 -494.223 C 876.873 -485.136 862.04 -480.593 842.82 -480.593 C 833.22 -480.593 825.017 -483.943 818.21 -490.643 C 811.403 -497.343 808 -505.326 808 -514.593 L 808 -652 L 501.24 -468.21 C 497.293 -465.85 489.637 -464.113 478.27 -463 C 473.297 -463 469.177 -463.333 465.91 -464 C 462.637 -464.667 459 -466 455 -468 L 149 -652 L 149 -241 L 525.351 -241 C 538.518 -241 549.644 -236.44 558.731 -227.32 C 567.811 -218.207 572.351 -207.04 572.351 -193.82 C 572.351 -180.607 567.811 -169.5 558.731 -160.5 C 549.644 -151.5 538.518 -147 525.351 -147 Z M 153 -731 L 478 -538 L 803 -731 Z"/>
</svg>