<?xml version="1.0" encoding="utf-8"?>
<svg xmlns="http://www.w3.org/2000/svg" height="48" viewBox="0 -960 960 960" width="48">
  <path d="M 153 -731 L 478 -538 L 803 -731 Z M 149 -147 C 122.467 -147 100.167 -156.033 82.1 -174.1 C 64.033 -192.167 55 -214.467 55 -241 L 55 -731 C 55 -757.807 64.033 -780.343 82.1 -798.61 C 100.167 -816.87 122.467 -826 149 -826 L 808 -826 C 834.807 -826 857.343 -816.87 875.61 -798.61 C 893.87 -780.343 903 -757.807 903 -731 L 903 -570.448 C 903 -557.281 897.773 -546.158 887.32 -537.078 C 876.873 -527.991 862.04 -523.448 842.82 -523.448 C 833.22 -523.448 825.017 -526.798 818.21 -533.498 C 811.403 -540.198 808 -548.181 808 -557.448 L 808 -652 L 501.24 -468.21 C 497.293 -465.85 489.637 -464.113 478.27 -463 C 473.297 -463 469.177 -463.333 465.91 -464 C 462.637 -464.667 459 -466 455 -468 L 149 -652 L 149 -241 L 491.287 -241 C 504.454 -241 515.58 -236.44 524.667 -227.32 C 533.747 -218.207 538.287 -207.04 538.287 -193.82 C 538.287 -180.607 533.747 -169.5 524.667 -160.5 C 515.58 -151.5 504.454 -147 491.287 -147 Z M 704.347 -214.32 C 693.891 -214.32 685.099 -217.92 677.977 -225.14 C 670.863 -232.36 667.302 -241.22 667.302 -251.81 C 667.302 -262.32 670.879 -271.18 678.024 -278.24 C 685.177 -285.3 693.891 -288.83 704.167 -288.83 L 865.554 -288.83 C 876.018 -288.83 884.873 -285.22 892.121 -278.09 C 899.376 -270.94 903 -262.25 903 -251.97 C 903 -241.3 899.384 -232.36 892.16 -225.14 C 884.928 -217.92 876.128 -214.32 865.743 -214.32 Z M 704.739 -312.37 C 694.307 -312.37 685.459 -316.05 678.197 -323.43 C 670.934 -330.87 667.302 -339.74 667.302 -350.09 C 667.302 -360.52 670.949 -369.31 678.243 -376.45 C 685.538 -383.66 694.315 -387.26 704.558 -387.26 L 865.163 -387.26 C 875.595 -387.26 884.505 -383.58 891.901 -376.29 C 899.298 -368.99 903 -360.21 903 -349.85 C 903 -339.5 899.313 -330.64 891.941 -323.35 C 884.567 -316.05 875.705 -312.37 865.351 -312.37 Z M 704.347 -410.8 C 693.891 -410.8 685.099 -414.48 677.977 -421.86 C 670.863 -429.31 667.302 -438.1 667.302 -448.29 C 667.302 -458.41 670.879 -467.2 678.024 -474.41 C 685.177 -481.71 693.891 -485.31 704.167 -485.31 L 865.554 -485.31 C 876.018 -485.31 884.873 -481.71 892.121 -474.49 C 899.376 -467.2 903 -458.41 903 -448.06 C 903 -438.01 899.384 -429.31 892.16 -421.86 C 884.928 -414.48 876.128 -410.8 865.743 -410.8 Z M 606.742 -410.8 C 596.553 -410.8 587.761 -414.48 580.357 -421.86 C 572.96 -429.31 569.258 -438.1 569.258 -448.29 C 569.258 -458.41 572.944 -467.2 580.325 -474.41 C 587.706 -481.71 596.577 -485.31 606.938 -485.31 C 616.993 -485.31 625.645 -481.71 632.892 -474.49 C 640.148 -467.2 643.771 -458.41 643.771 -448.06 C 643.771 -438.01 640.148 -429.31 632.892 -421.86 C 625.645 -414.48 616.931 -410.8 606.742 -410.8 Z M 606.875 -312.37 C 596.193 -312.37 587.251 -316.05 580.05 -323.43 C 572.858 -330.87 569.258 -339.74 569.258 -350.09 C 569.258 -360.52 572.866 -369.31 580.09 -376.45 C 587.306 -383.66 596.2 -387.26 606.758 -387.26 C 617.315 -387.26 626.186 -383.58 633.379 -376.29 C 640.571 -368.99 644.164 -360.21 644.164 -349.85 C 644.164 -339.5 640.508 -330.64 633.206 -323.35 C 625.904 -316.05 617.127 -312.37 606.875 -312.37 Z M 606.938 -214.32 C 596.255 -214.32 587.298 -217.92 580.082 -225.14 C 572.866 -232.36 569.258 -241.22 569.258 -251.81 C 569.258 -262.32 572.866 -271.18 580.09 -278.24 C 587.306 -285.3 596.2 -288.83 606.758 -288.83 C 617.315 -288.83 626.123 -285.22 633.182 -278.09 C 640.241 -270.94 643.771 -262.25 643.771 -251.97 C 643.771 -241.3 640.195 -232.36 633.042 -225.14 C 625.896 -217.92 617.189 -214.32 606.938 -214.32 Z"/>
</svg>