<?xml version="1.0" encoding="utf-8"?>
<svg viewBox="0 0 22 22" xmlns="http://www.w3.org/2000/svg">
  <path d="M 19.5 3 L 19.5 19 C 19.5 19.276 19.276 19.5 19 19.5 L 3 19.5 C 2.724 19.5 2.5 19.276 2.5 19 L 2.5 3 C 2.5 2.724 2.724 2.5 3 2.5 L 19 2.5 C 19.276 2.5 19.5 2.724 19.5 3 Z M 4.5 6 C 4.456 6.435 4.745 6.767 5.366 7.187 C 6.015 7.626 6.607 7.855 7.5 8.081 L 7.5 4.5 L 4.5 4.5 Z M 9.5 8.427 C 9.991 8.476 10.338 8.5 11 8.5 C 11.662 8.5 12.008 8.476 12.5 8.427 L 12.5 4.5 L 9.5 4.5 Z M 14.5 8.081 C 15.392 7.853 15.985 7.626 16.634 7.187 C 17.255 6.767 17.544 6.434 17.5 5.999 L 17.5 4.5 L 14.5 4.5 Z M 4.5 13.079 C 5.33 12.558 5.915 12.273 7.5 11.894 L 7.5 10.106 C 5.915 9.727 5.412 9.475 4.5 8.913 Z M 14.5 10.106 L 14.5 11.891 C 15.969 12.223 16.587 12.521 17.5 13.082 L 17.5 8.926 C 16.669 9.445 16.083 9.729 14.5 10.106 Z M 9.5 11.573 C 9.994 11.527 10.308 11.502 10.999 11.5 C 11.689 11.502 12.006 11.526 12.5 11.572 L 12.5 10.428 C 12.006 10.474 11.692 10.498 11.001 10.5 C 10.31 10.498 9.994 10.473 9.5 10.427 Z M 9.5 13.573 L 9.5 17.5 L 12.5 17.5 L 12.5 13.573 C 12.008 13.524 11.662 13.5 11 13.5 C 10.338 13.5 9.992 13.524 9.5 13.573 Z M 5.366 14.813 C 4.745 15.233 4.456 15.566 4.5 16.001 L 4.5 17.5 L 7.5 17.5 L 7.5 13.919 C 6.608 14.147 6.015 14.374 5.366 14.813 Z M 14.5 17.5 L 17.5 17.5 L 17.5 16 C 17.544 15.565 17.255 15.233 16.634 14.813 C 15.985 14.374 15.393 14.145 14.5 13.919 Z"/>
</svg>