<?xml version="1.0" encoding="utf-8"?>
<svg viewBox="0 0 22 22" xmlns="http://www.w3.org/2000/svg">
  <path d="M 19.5 4 L 19.5 19 C 19.5 19.276 19.276 19.5 19 19.5 L 3 19.5 C 2.724 19.5 2.5 19.276 2.5 19 L 2.5 4 C 2.5 3.724 2.724 3.5 3 3.5 L 19 3.5 C 19.276 3.5 19.5 3.724 19.5 4 Z M 4.5 7.5 L 7.5 7.5 L 7.5 5.5 L 4.5 5.5 Z M 9.5 7.5 L 12.5 7.5 L 12.5 5.5 L 9.5 5.5 Z M 14.5 7.5 L 17.5 7.5 L 17.5 5.5 L 14.5 5.5 Z M 4.5 10.5 L 7.5 10.5 L 7.5 9.5 L 4.5 9.5 Z M 9.5 10.5 L 12.5 10.5 L 12.5 9.5 L 9.5 9.5 Z M 14.5 10.5 L 17.5 10.5 L 17.5 9.5 L 14.5 9.5 Z M 4.5 13.5 L 7.5 13.5 L 7.5 12.5 L 4.5 12.5 Z M 9.5 13.5 L 12.5 13.5 L 12.5 12.5 L 9.5 12.5 Z M 14.5 13.5 L 17.5 13.5 L 17.5 12.5 L 14.5 12.5 Z M 4.5 17.5 L 7.5 17.5 L 7.5 15.5 L 4.5 15.5 Z M 9.5 17.5 L 12.5 17.5 L 12.5 15.5 L 9.5 15.5 Z M 14.5 17.5 L 17.5 17.5 L 17.5 15.5 L 14.5 15.5 Z"/>
</svg>