<?xml version="1.0" encoding="utf-8"?>
<svg xmlns="http://www.w3.org/2000/svg" height="48" viewBox="0 -960 960 960" width="48">
  <path d="M 360.175 -251.72 C 330.308 -251.72 305.207 -261.89 284.87 -282.23 C 264.534 -302.56 254.366 -327.67 254.366 -357.54 L 254.366 -431.56 C 254.366 -446.38 259.499 -458.9 269.764 -469.13 C 280.022 -479.35 292.592 -484.45 307.473 -484.45 C 322.346 -484.45 334.848 -479.35 344.979 -469.13 C 355.109 -458.9 360.175 -446.38 360.175 -431.56 L 360.175 -357.54 L 598.703 -357.54 L 598.703 -431.56 C 598.703 -446.38 603.836 -458.9 614.101 -469.13 C 624.359 -479.35 636.895 -484.45 651.709 -484.45 C 666.514 -484.45 679.204 -479.35 689.777 -469.13 C 700.35 -458.9 705.637 -446.38 705.637 -431.56 L 705.637 -357.54 C 705.637 -327.67 695.36 -302.56 674.807 -282.23 C 654.245 -261.89 628.878 -251.72 598.703 -251.72 L 360.175 -251.72 Z M 910.22 -196.91 C 910.22 -167.06 900.089 -141.96 879.603 -121.59 C 859.342 -101.28 834.128 -91.095 804.411 -91.095 L 664.833 -91.095 C 649.975 -91.095 637.368 -96.225 627.238 -106.5 C 616.882 -116.75 611.929 -129.32 611.929 -144.21 C 611.929 -159.09 616.882 -171.57 627.238 -181.71 C 637.368 -191.84 649.975 -196.91 664.833 -196.91 L 804.411 -196.91 L 804.411 -761.97 L 664.833 -761.97 C 649.975 -761.97 637.368 -767.11 627.238 -777.37 C 616.882 -787.63 611.929 -800.17 611.929 -814.99 C 611.929 -829.79 616.882 -842.48 627.238 -853.05 C 637.368 -863.63 649.975 -868.9 664.833 -868.9 L 804.411 -868.9 C 834.128 -868.9 859.342 -858.63 879.603 -838.09 C 900.089 -817.52 910.22 -792.15 910.22 -761.97 L 910.22 -196.91 Z M 49.781 -761.97 C 49.781 -792.13 59.923 -817.59 80.398 -838.07 C 100.67 -858.54 125.884 -868.9 155.59 -868.9 L 295.156 -868.9 C 310.015 -868.9 322.622 -863.51 332.752 -852.93 C 343.108 -842.35 348.072 -829.75 348.072 -814.88 C 348.072 -800.01 343.108 -787.64 332.752 -777.27 C 322.622 -767.15 310.015 -761.97 295.156 -761.97 L 155.59 -761.97 L 155.59 -196.91 L 295.156 -196.91 C 310.015 -196.91 322.622 -191.84 332.752 -181.71 C 343.108 -171.57 348.072 -159.09 348.072 -144.21 C 348.072 -129.32 343.108 -116.75 332.752 -106.5 C 322.622 -96.225 310.015 -91.095 295.156 -91.095 L 155.59 -91.095 C 125.884 -91.095 100.67 -101.28 80.398 -121.59 C 59.923 -141.96 49.781 -167.06 49.781 -196.91 L 49.781 -761.97 Z" style=""/>
</svg>