<?xml version="1.0" encoding="utf-8"?>
<svg xmlns="http://www.w3.org/2000/svg" height="48" viewBox="0 -960 960 960" width="48">
  <path d="M 214 -699 C 200.833 -699 189.54 -703.56 180.12 -712.68 C 170.707 -721.79 166 -732.96 166 -746.18 C 166 -759.39 170.707 -770.5 180.12 -779.5 C 189.54 -788.5 200.833 -793 214 -793 L 748.5 -793 C 761.66 -793 772.78 -788.4 781.86 -779.2 C 790.959 -770.2 795.499 -759 795.499 -745.8 C 795.499 -732.6 790.959 -721.4 781.86 -712.4 C 772.78 -703.4 761.66 -699 748.5 -699 L 214 -699 Z M 481 -166 C 473.28 -166 465.94 -167.83 458.98 -171.5 C 452.027 -175.17 446.367 -180.33 442 -187 L 212 -533 C 201.333 -549 200.583 -565.33 209.75 -582 C 218.917 -598.67 232.667 -607 251 -607 L 711.5 -607 C 729.84 -607 743.58 -598.6 752.74 -582 C 761.92 -565.2 761.16 -549 750.499 -533 L 520.5 -187 C 516.14 -180.2 510.48 -175.2 503.52 -171.4 C 496.56 -167.8 489.22 -166 481.5 -166 C 481.416 -166 481.333 -166 481.249 -166 C 481.166 -166 481.083 -166 481 -166 Z M 481.25 -300.37 L 625 -512 L 337.5 -512 L 481.25 -300.37 Z" style=""/>
</svg>