<?xml version="1.0" encoding="utf-8"?>
<svg xmlns="http://www.w3.org/2000/svg" height="48" viewBox="0 -960 960 960" width="48">
  <path d="M 236.017 -229.5 C 222.617 -229.5 211.6 -234.06 202.967 -243.18 C 194.334 -252.29 190.017 -263.54 190.017 -276.92 C 190.017 -290.3 194.334 -301.24 202.967 -309.75 C 211.6 -318.25 222.617 -322.5 236.017 -322.5 L 463.017 -322.5 C 476.337 -322.5 487.5 -317.94 496.507 -308.82 C 505.514 -299.71 510.017 -288.46 510.017 -275.08 C 510.017 -261.7 505.514 -250.76 496.507 -242.25 C 487.5 -233.75 476.337 -229.5 463.017 -229.5 L 236.017 -229.5 Z M 374.471 -432.5 C 361.071 -432.5 350.054 -437.06 341.421 -446.18 C 332.788 -455.29 328.471 -466.71 328.471 -480.42 C 328.471 -494.13 332.788 -505.24 341.421 -513.75 C 350.054 -522.25 361.071 -526.5 374.471 -526.5 L 443.906 -526.5 C 456.94 -526.5 467.866 -521.94 476.686 -512.82 C 485.5 -503.71 489.906 -492.49 489.906 -479.17 C 489.906 -465.84 485.59 -454.73 476.956 -445.84 C 468.323 -436.95 457.306 -432.5 443.906 -432.5 L 374.471 -432.5 Z M 236.017 -636.5 C 222.617 -636.5 211.6 -641.06 202.967 -650.18 C 194.334 -659.29 190.017 -670.51 190.017 -683.83 C 190.017 -697.16 194.334 -708.27 202.967 -717.16 C 211.6 -726.05 222.617 -730.5 236.017 -730.5 L 825.209 -730.5 C 838.242 -730.5 849.169 -725.94 857.989 -716.82 C 866.802 -707.71 871.209 -696.29 871.209 -682.58 C 871.209 -668.87 866.892 -657.76 858.259 -649.25 C 849.626 -640.75 838.609 -636.5 825.209 -636.5 L 236.017 -636.5 Z M 706.743 -229.5 C 660.085 -229.5 621.002 -245.18 589.509 -276.73 C 558.032 -308.27 542.277 -347.25 542.277 -393.98 C 542.277 -440.7 558.032 -479.65 589.509 -511.21 C 621.002 -542.73 660.085 -558.43 706.743 -558.43 C 753.418 -558.43 792.502 -542.73 823.977 -511.21 C 855.472 -479.65 871.209 -440.7 871.209 -393.98 C 871.209 -347.25 855.472 -308.27 823.977 -276.73 C 792.502 -245.18 753.418 -229.5 706.743 -229.5 Z M 689.031 -334.93 L 753.131 -377.11 C 759.322 -380.13 762.409 -385.69 762.409 -393.62 C 762.409 -401.56 759.322 -407.45 753.131 -411.67 L 689.031 -453.01 C 682.284 -456.87 675.537 -457.06 668.789 -453.18 C 662.042 -449.46 658.668 -443.55 658.668 -435.3 L 658.668 -352.65 C 658.668 -344.37 662.042 -338.48 668.789 -334.6 C 675.537 -330.89 682.284 -331.05 689.031 -334.93 Z M 96.829 -331.4 C 88.028 -323.49 78.626 -321.33 68.623 -325.4 C 58.621 -329.69 53.629 -337.62 53.629 -349.4 L 53.629 -611.54 C 53.629 -622.9 58.984 -630.62 69.693 -634.7 C 80.401 -638.56 89.804 -636.61 97.901 -628.46 L 230.331 -496.1 C 235.32 -490.98 237.827 -484.99 237.827 -478.34 C 237.827 -471.48 235.32 -465.7 230.331 -460.76 L 96.829 -331.4 Z"/>
</svg>