<?xml version="1.0" encoding="utf-8"?>
<svg xmlns="http://www.w3.org/2000/svg" height="48" viewBox="0 -960 960 960" width="48">
  <path d="M 261 -189 L 303 -147 C 311.667 -138.333 316 -128.167 316 -116.5 C 316 -104.833 311.773 -94.613 303.32 -85.84 C 295.133 -77.067 285.033 -72.567 273.02 -72.34 C 261.007 -72.113 250.667 -76.333 242 -85 L 128 -199 C 123.033 -203.533 119.29 -208.71 116.77 -214.53 C 114.257 -220.357 113 -226.39 113 -232.63 C 113 -238.877 114.257 -244.867 116.77 -250.6 C 119.29 -256.333 123.033 -261.467 128 -266 L 242 -380 C 250.667 -388.667 261.167 -392.833 273.5 -392.5 C 285.833 -392.167 295.97 -387.667 303.91 -379 C 312.137 -370.333 316.21 -360 316.13 -348 C 316.043 -336 311.667 -326 303 -318 L 261 -276 L 699 -276 L 699 -393 C 699 -404.753 703.253 -414.857 711.76 -423.31 C 720.273 -431.77 730.44 -436 742.26 -436 C 754.087 -436 764.333 -431.77 773 -423.31 C 781.667 -414.857 786 -404.753 786 -393 L 786 -284 C 786 -257.193 776.87 -234.657 758.61 -216.39 C 740.343 -198.13 717.807 -189 691 -189 Z M 700 -677 L 262 -677 L 262 -560 C 262 -548.253 257.68 -538.15 249.04 -529.69 C 240.393 -521.23 230.06 -517 218.04 -517 C 206.013 -517 195.833 -521.23 187.5 -529.69 C 179.167 -538.15 175 -548.253 175 -560 L 175 -669 C 175 -695.807 184.033 -718.343 202.1 -736.61 C 220.167 -754.87 242.467 -764 269 -764 L 700 -764 L 658 -806 C 648.667 -814 644 -824 644 -836 C 644 -848 648.43 -858.373 657.29 -867.12 C 665.93 -875.867 676.21 -880.367 688.13 -880.62 C 700.043 -880.873 710.333 -876.667 719 -868 L 833 -754 C 837.667 -749.227 841.333 -743.79 844 -737.69 C 846.667 -731.583 848 -725.617 848 -719.79 C 848 -713.957 846.667 -708.033 844 -702.02 C 841.333 -696.007 837.667 -690.667 833 -686 L 719 -572 C 709.62 -563.333 698.963 -559.153 687.03 -559.46 C 675.097 -559.767 664.963 -564.267 656.63 -572.96 C 648.043 -581.653 643.793 -592 643.88 -604 C 643.96 -616 648.667 -626.333 658 -635 Z M 479.648 -433.67 L 423.397 -376.71 C 416.843 -370.11 409.108 -366.87 400.194 -366.87 C 391.291 -366.87 383.557 -370.11 376.99 -376.71 C 370.437 -383.19 367.146 -391.05 367.146 -400.19 C 367.146 -409.33 370.437 -417.21 376.99 -423.82 L 433.241 -480.06 L 376.287 -536.32 C 369.734 -542.79 366.443 -550.51 366.443 -559.52 C 366.443 -568.38 369.734 -576.12 376.287 -582.59 C 382.854 -589.2 390.701 -592.58 399.842 -592.58 C 408.982 -592.58 416.843 -589.2 423.397 -582.59 L 479.648 -526.35 L 535.898 -583.29 C 542.466 -589.9 550.2 -593.13 559.103 -593.13 C 568.018 -593.13 575.752 -589.9 582.306 -583.29 C 589.337 -576.83 592.853 -568.95 592.853 -559.82 C 592.853 -550.66 589.337 -542.65 582.306 -535.62 L 526.758 -480.06 L 583.712 -423.82 C 590.28 -417.21 593.556 -409.48 593.556 -400.48 C 593.556 -391.63 590.04 -383.88 583.009 -377.42 C 576.456 -370.81 568.594 -367.57 559.454 -367.57 C 550.313 -367.57 542.466 -370.81 535.898 -377.42 Z"/>
</svg>