<?xml version="1.0" encoding="utf-8"?>
<svg xmlns="http://www.w3.org/2000/svg" height="48" viewBox="0 -960 960 960" width="48">
  <path d="M 275 -302 C 261.833 -302 250.71 -306.56 241.63 -315.68 C 232.543 -324.79 228 -336.29 228 -350.18 C 228 -363.39 232.543 -374.5 241.63 -383.5 C 250.71 -392.5 261.833 -397 275 -397 L 685.499 -397 C 698.666 -397 709.959 -392.44 719.379 -383.32 C 728.792 -374.21 733.499 -363.04 733.499 -349.82 C 733.499 -335.94 728.792 -324.5 719.379 -315.5 C 709.959 -306.5 698.666 -302 685.499 -302 L 275 -302 Z M 275 -491 C 261.833 -491 250.71 -495.56 241.63 -504.68 C 232.543 -513.79 228 -524.96 228 -538.18 C 228 -551.39 232.543 -562.5 241.63 -571.5 C 250.71 -580.5 261.833 -585 275 -585 L 685 -585 C 698.167 -585 709.293 -580.44 718.38 -571.32 C 727.46 -562.21 732 -551.04 732 -537.82 C 732 -524.61 727.46 -513.5 718.38 -504.5 C 709.293 -495.5 698.167 -491 685 -491 L 275 -491 Z M 275 -679 C 261.833 -679 250.71 -683.56 241.63 -692.68 C 232.543 -701.79 228 -712.96 228 -726.18 C 228 -739.39 232.543 -750.5 241.63 -759.5 C 250.71 -768.5 261.833 -773 275 -773 L 685 -773 C 698.167 -773 709.293 -768.44 718.38 -759.32 C 727.46 -750.21 732 -739.04 732 -725.82 C 732 -712.61 727.46 -701.5 718.38 -692.5 C 709.293 -683.5 698.167 -679 685 -679 L 275 -679 Z"/>
</svg>