<?xml version="1.0" encoding="utf-8"?>
<svg xmlns="http://www.w3.org/2000/svg" height="48" viewBox="0 -960 960 960" width="48">
  <path style="stroke-width: 0.05;" d="M 560.478 -514.9 C 569.591 -505.81 574.141 -494.6 574.141 -481.37 C 574.141 -467.96 569.591 -456.44 560.478 -446.85 C 551.371 -437.29 540.199 -432.47 526.967 -432.47 C 513.356 -432.47 501.798 -437.24 492.306 -446.73 C 482.814 -456.23 478.068 -467.79 478.068 -481.37 C 478.068 -494.6 482.866 -505.81 492.45 -514.9 C 502.04 -524 513.546 -528.54 526.967 -528.54 C 540.199 -528.54 551.371 -524 560.478 -514.9 Z M 817.101 -865.5 C 843.134 -865.5 865.311 -856.34 883.631 -838.03 C 901.944 -819.71 911.101 -797.53 911.101 -771.5 L 911.101 -189.5 C 911.101 -163.19 901.944 -140.78 883.631 -122.27 C 865.311 -103.76 843.134 -94.5 817.101 -94.5 L 143.898 -94.5 C 117.591 -94.5 95.181 -103.76 76.668 -122.27 C 58.154 -140.78 48.898 -163.19 48.898 -189.5 L 48.898 -771.5 C 48.898 -797.53 58.154 -819.71 76.668 -838.03 C 95.181 -856.34 117.591 -865.5 143.898 -865.5 Z M 817.101 -771.5 L 229.607 -771.5 L 229.607 -189.5 L 817.101 -189.5 Z M 526.31 -729.78 C 560.735 -729.78 593.086 -723.34 623.352 -710.46 C 653.618 -697.56 680.052 -679.75 702.678 -657.13 C 725.303 -634.52 743.079 -608.05 756.003 -577.93 C 768.927 -547.69 775.383 -515.36 775.383 -480.9 C 775.383 -446.12 768.927 -413.53 756.003 -383.3 C 743.079 -353.08 725.339 -326.72 702.771 -304.22 C 680.216 -281.72 653.817 -264.02 623.575 -250.9 C 593.332 -237.77 560.981 -231.22 526.521 -231.22 C 491.674 -231.22 459.1 -237.77 428.788 -250.9 C 398.475 -263.9 372.111 -281.72 349.685 -304.1 C 327.27 -326.48 309.518 -352.85 296.442 -383.08 C 283.365 -413.3 276.815 -446 276.815 -480.8 C 276.815 -515.36 283.365 -547.69 296.465 -577.93 C 309.565 -608.15 327.328 -634.63 349.778 -657.25 C 372.24 -679.75 398.569 -697.56 428.776 -710.46 C 458.983 -723.34 491.498 -729.78 526.31 -729.78 Z M 526.099 -654.44 C 477.752 -654.44 436.678 -637.62 402.866 -603.89 C 369.065 -570.05 352.154 -528.95 352.154 -480.5 C 352.154 -432.15 369.065 -391.16 402.866 -357.33 C 403.976 -356.219 405.093 -355.127 406.219 -354.053 L 450.132 -413.31 C 453.585 -417.76 458.241 -420.13 464.096 -420.27 C 469.952 -420.58 474.933 -418.2 479.04 -413.31 L 533.149 -338.44 L 616.909 -445.92 C 620.362 -450.83 625.018 -453.2 630.873 -452.88 C 636.728 -452.74 641.459 -450.37 645.075 -445.92 L 680.92 -399.748 C 693.67 -423.984 700.044 -450.988 700.044 -480.81 C 700.044 -528.95 683.165 -569.94 649.405 -603.8 C 615.647 -637.62 574.541 -654.44 526.099 -654.44 Z"/>
</svg>