<?xml version="1.0" encoding="utf-8"?>
<svg xmlns="http://www.w3.org/2000/svg" height="48" viewBox="0 -960 960 960" width="48">
  <path style="stroke-width: 0.05;" d="M 730.986 -817.03 C 753.746 -817.03 773.134 -809.02 789.151 -793.01 C 805.161 -777 813.167 -757.61 813.167 -734.85 L 813.167 -639.03 C 813.167 -626.56 808.936 -616.6 800.488 -608.77 C 792.025 -601.13 784.225 -597.21 772.54 -597.21 C 760.839 -597.21 750.987 -601.32 742.983 -609.3 C 734.981 -617.5 730.98 -627.62 730.98 -639.9 L 730.98 -682.16 L 730.986 -682.16 L 730.986 -734.85 L 217.359 -734.85 L 217.359 -226.03 L 462.098 -226.03 L 462.098 -226.54 L 529.582 -226.54 C 541.21 -226.54 551.241 -222.47 559.636 -214.45 C 568.045 -206.26 572.261 -196.31 572.261 -184.57 C 572.261 -172.83 568.045 -163.07 559.636 -155.06 C 551.241 -147.05 541.21 -142.97 529.582 -142.97 L 142.426 -142.97 C 119.427 -142.97 99.835 -151.07 83.649 -167.25 C 67.463 -183.43 59.371 -203.02 59.371 -226.03 L 59.371 -734.85 C 59.371 -757.61 67.463 -777 83.649 -793.01 C 99.835 -809.02 119.427 -817.03 142.426 -817.03 L 730.986 -817.03 Z M 506.629 -510.51 C 514.596 -502.56 518.574 -492.76 518.574 -481.2 C 518.574 -469.47 514.596 -459.4 506.629 -451.02 C 498.667 -442.66 488.899 -438.45 477.331 -438.45 C 465.432 -438.45 455.327 -442.62 447.028 -450.91 C 438.73 -459.22 434.58 -469.32 434.58 -481.2 C 434.58 -492.76 438.775 -502.56 447.154 -510.51 C 455.538 -518.47 465.598 -522.44 477.331 -522.44 C 488.899 -522.44 498.667 -518.47 506.629 -510.51 Z M 476.757 -698.38 C 506.853 -698.38 535.137 -692.74 561.597 -681.48 C 588.058 -670.21 611.168 -654.63 630.95 -634.86 C 650.73 -615.09 666.271 -591.95 677.57 -565.62 C 688.869 -539.18 694.513 -510.91 694.513 -480.79 C 694.513 -450.38 688.869 -421.89 677.57 -395.46 C 666.271 -369.04 650.761 -345.99 631.031 -326.32 C 611.312 -306.65 588.232 -291.18 561.792 -279.7 C 535.352 -268.23 507.069 -262.5 476.941 -262.5 C 446.476 -262.5 417.997 -268.23 391.496 -279.7 C 364.995 -291.07 341.946 -306.65 322.339 -326.22 C 302.743 -345.78 287.223 -368.84 275.791 -395.27 C 264.358 -421.69 258.631 -450.27 258.631 -480.7 C 258.631 -510.91 264.358 -539.18 275.811 -565.62 C 287.264 -592.04 302.793 -615.19 322.421 -634.96 C 342.058 -654.63 365.077 -670.21 391.486 -681.48 C 417.895 -692.74 446.322 -698.38 476.757 -698.38 Z M 420.129 -613.83 C 402.601 -606.3 387.337 -595.95 374.31 -582.96 C 361.284 -569.86 350.984 -554.43 343.386 -536.93 C 335.788 -519.41 331.996 -500.61 331.996 -480.66 C 331.996 -460.49 335.788 -441.46 343.374 -423.94 C 350.96 -406.43 361.249 -391.1 374.252 -378.13 C 387.255 -365.15 402.555 -354.81 420.129 -347.28 C 437.714 -339.62 456.597 -335.91 476.815 -335.91 C 496.801 -335.91 515.558 -339.62 533.108 -347.28 C 550.646 -354.93 565.957 -365.15 579.03 -378.25 C 592.126 -391.24 602.415 -406.54 609.908 -424.06 C 617.401 -441.58 621.148 -460.49 621.148 -480.66 C 621.148 -500.61 617.401 -519.41 609.908 -536.93 C 602.415 -554.43 592.103 -569.74 578.984 -582.85 C 565.853 -595.95 550.53 -606.3 532.969 -613.83 C 515.418 -621.26 496.662 -624.97 476.688 -624.97 C 456.505 -624.97 437.644 -621.26 420.129 -613.83 Z M 712.79 -142.97 C 688.465 -142.97 667.782 -151.47 650.739 -168.58 C 633.687 -185.57 625.165 -206.25 625.165 -230.6 C 625.165 -254.94 633.687 -275.61 650.739 -292.61 C 667.782 -309.72 688.465 -318.22 712.79 -318.22 C 720.775 -318.22 727.932 -317.27 734.26 -315.28 C 740.577 -313.39 746.192 -310.66 751.092 -307.2 L 751.092 -525.47 C 751.092 -532.39 753.454 -538.38 758.176 -543.31 C 762.898 -548.25 768.753 -550.66 775.753 -550.66 L 875.97 -550.66 C 882.959 -550.66 888.824 -548.25 893.546 -543.31 C 898.267 -538.38 900.628 -532.39 900.628 -525.47 L 900.628 -486.12 C 900.628 -479.09 898.267 -473.32 893.546 -468.6 C 888.824 -463.76 882.959 -461.46 875.97 -461.46 L 800.414 -461.46 L 800.414 -230.6 C 800.414 -206.25 791.882 -185.57 774.84 -168.58 C 757.787 -151.47 737.104 -142.97 712.79 -142.97 Z"/>
</svg>