<?xml version="1.0" encoding="utf-8"?>
<svg xmlns="http://www.w3.org/2000/svg" height="48" viewBox="0 -960 960 960" width="48">
  <path d="M 185.404 -229.5 C 172.004 -229.5 160.987 -234.06 152.354 -243.18 C 143.721 -252.29 139.404 -263.54 139.404 -276.92 C 139.404 -290.3 143.721 -301.24 152.354 -309.75 C 160.987 -318.25 172.004 -322.5 185.404 -322.5 L 412.404 -322.5 C 425.724 -322.5 436.887 -317.94 445.894 -308.82 C 454.901 -299.71 459.404 -288.46 459.404 -275.08 C 459.404 -261.7 454.901 -250.76 445.894 -242.25 C 436.887 -233.75 425.724 -229.5 412.404 -229.5 L 185.404 -229.5 Z M 185.404 -432.5 C 172.004 -432.5 160.987 -437.06 152.354 -446.18 C 143.721 -455.29 139.404 -466.71 139.404 -480.42 C 139.404 -494.13 143.721 -505.24 152.354 -513.75 C 160.987 -522.25 172.004 -526.5 185.404 -526.5 L 393.293 -526.5 C 406.327 -526.5 417.253 -521.94 426.073 -512.82 C 434.887 -503.71 439.293 -492.49 439.293 -479.17 C 439.293 -465.84 434.977 -454.73 426.343 -445.84 C 417.71 -436.95 406.693 -432.5 393.293 -432.5 L 185.404 -432.5 Z M 185.404 -636.5 C 172.004 -636.5 160.987 -641.06 152.354 -650.18 C 143.721 -659.29 139.404 -670.51 139.404 -683.83 C 139.404 -697.16 143.721 -708.27 152.354 -717.16 C 160.987 -726.05 172.004 -730.5 185.404 -730.5 L 774.596 -730.5 C 787.629 -730.5 798.556 -725.94 807.376 -716.82 C 816.189 -707.71 820.596 -696.29 820.596 -682.58 C 820.596 -668.87 816.279 -657.76 807.646 -649.25 C 799.013 -640.75 787.996 -636.5 774.596 -636.5 L 185.404 -636.5 Z M 656.13 -229.5 C 609.472 -229.5 570.389 -245.18 538.896 -276.73 C 507.419 -308.27 491.664 -347.25 491.664 -393.98 C 491.664 -440.7 507.419 -479.65 538.896 -511.21 C 570.389 -542.73 609.472 -558.43 656.13 -558.43 C 702.805 -558.43 741.889 -542.73 773.364 -511.21 C 804.859 -479.65 820.596 -440.7 820.596 -393.98 C 820.596 -347.25 804.859 -308.27 773.364 -276.73 C 741.889 -245.18 702.805 -229.5 656.13 -229.5 Z M 638.418 -334.93 L 702.518 -377.11 C 708.709 -380.13 711.796 -385.69 711.796 -393.62 C 711.796 -401.56 708.709 -407.45 702.518 -411.67 L 638.418 -453.01 C 631.671 -456.87 624.924 -457.06 618.176 -453.18 C 611.429 -449.46 608.055 -443.55 608.055 -435.3 L 608.055 -352.65 C 608.055 -344.37 611.429 -338.48 618.176 -334.6 C 624.924 -330.89 631.671 -331.05 638.418 -334.93 Z"/>
</svg>