<?xml version="1.0" encoding="utf-8"?>
<svg xmlns="http://www.w3.org/2000/svg" height="48" viewBox="0 -960 960 960" width="48">
  <path d="M 434.88 -666.26 C 443.252 -658.25 447.902 -648.32 448.827 -636.45 C 448.943 -634.98 449.001 -633.49 449.001 -631.96 C 449.001 -631.2 448.986 -630.45 448.955 -629.71 C 448.628 -621.76 446.536 -614.58 442.681 -608.16 C 440.595 -604.68 437.995 -601.41 434.88 -598.36 C 430.639 -594.3 426.017 -591.14 421.015 -588.89 C 414.91 -586.14 408.238 -584.76 401 -584.76 L 150 -584.76 C 147.412 -584.76 144.903 -584.93 142.473 -585.28 C 132.531 -586.68 123.917 -590.94 116.622 -598.15 C 108.127 -606.59 103.607 -616.91 103.058 -629.02 C 103.019 -629.87 103 -630.72 103 -631.58 C 103 -645.47 107.543 -656.97 116.63 -666.08 C 125.71 -675.2 136.833 -679.76 150 -679.76 L 401 -679.76 C 414.167 -679.76 425.46 -675.26 434.88 -666.26 Z M 560 -490.76 C 573.167 -490.76 584.293 -486.26 593.38 -477.26 C 600.32 -470.38 604.608 -462.27 606.243 -452.93 C 606.749 -450.06 607.002 -447.07 607.002 -443.96 C 607.002 -442.18 606.92 -440.43 606.755 -438.73 C 606.299 -433.99 605.208 -429.54 603.483 -425.38 C 601.213 -419.88 597.845 -414.88 593.381 -410.35 C 590.506 -407.51 587.43 -405.11 584.151 -403.16 C 577.055 -398.89 569.005 -396.76 560 -396.76 L 150 -396.76 C 147.532 -396.76 145.135 -396.92 142.811 -397.23 C 132.726 -398.58 123.999 -402.85 116.622 -410.15 C 108.089 -418.61 103.567 -429 103.051 -441.18 C 103.017 -441.97 103 -442.77 103 -443.58 C 103 -456.8 107.543 -467.97 116.63 -477.08 C 125.71 -486.2 136.833 -490.76 150 -490.76 L 560 -490.76 Z M 560 -302.76 C 573.167 -302.76 584.293 -298.26 593.38 -289.26 C 599.991 -282.71 604.195 -275.04 605.993 -266.25 C 606.665 -262.98 607.002 -259.55 607.002 -255.95 C 607.002 -254.32 606.932 -252.72 606.793 -251.14 C 606.207 -244.49 604.376 -238.39 601.299 -232.86 C 599.225 -229.11 596.586 -225.62 593.381 -222.38 C 591.104 -220.13 588.701 -218.15 586.171 -216.45 C 578.594 -211.32 569.87 -208.76 560 -208.76 L 150 -208.76 C 149.97 -208.76 149.94 -208.76 149.91 -208.76 C 136.77 -208.78 125.679 -213.19 116.622 -222.14 C 108.013 -230.68 103.486 -241.21 103.038 -253.51 C 103.013 -254.19 103 -254.88 103 -255.58 C 103 -268.8 107.543 -279.97 116.63 -289.08 C 125.71 -298.2 136.833 -302.76 150 -302.76 L 560 -302.76 Z M 894.88 -666.26 C 904.293 -657.26 909 -645.82 909 -631.94 C 909 -622.95 906.824 -614.91 902.473 -607.82 C 900.424 -604.46 897.893 -601.31 894.881 -598.36 C 890.628 -594.29 885.992 -591.12 880.975 -588.88 C 874.881 -586.13 868.222 -584.76 861 -584.76 L 751.002 -584.76 L 751.002 -473.76 C 751.002 -460.55 746.319 -449.17 737 -439.75 C 729.228 -431.92 720.116 -427.44 709.671 -426.16 C 707.562 -425.89 705.398 -425.76 703.18 -425.76 C 701.018 -425.76 698.911 -425.88 696.859 -426.14 C 686.36 -427.39 677.292 -431.88 669.682 -439.75 C 661.481 -448.22 656.968 -458.27 656.14 -469.81 C 656.047 -471.11 656 -472.43 656 -473.76 L 656 -584.76 L 545 -584.76 C 542.256 -584.76 539.605 -584.94 537.047 -585.29 C 526.708 -586.7 517.9 -590.96 510.619 -598.15 C 501.541 -607.17 496.999 -618.35 496.999 -631.56 C 496.999 -632.2 497.009 -632.84 497.029 -633.48 C 497.427 -646.52 501.961 -657.39 510.63 -666.08 C 519.71 -675.2 531.167 -679.76 545 -679.76 L 656 -679.76 L 656 -789.76 C 656 -803.15 660.22 -814.32 668.661 -823.26 C 668.937 -823.56 669.217 -823.85 669.501 -824.14 C 669.879 -824.52 670.261 -824.89 670.647 -825.25 C 679.438 -833.59 690.163 -837.76 702.82 -837.76 C 715.51 -837.76 726.462 -833.58 735.676 -825.2 C 736.06 -824.85 736.442 -824.5 736.82 -824.14 C 737.11 -823.86 737.395 -823.57 737.676 -823.29 C 745.244 -815.67 749.589 -806.42 750.708 -795.56 C 750.904 -793.68 751.002 -791.75 751.002 -789.77 L 751.002 -679.76 L 861.002 -679.76 C 861.055 -679.76 861.107 -679.76 861.16 -679.76 C 874.259 -679.72 885.498 -675.22 894.88 -666.26 Z" style=""/>
</svg>