<?xml version="1.0" encoding="utf-8"?>
<svg xmlns="http://www.w3.org/2000/svg" height="48" viewBox="0 -960 960 960" width="48">
  <path d="M 479.8 -602.57 C 428.327 -602.57 386.327 -618.84 353.8 -651.37 C 321.267 -683.9 305 -725.9 305 -777.37 C 305 -828.84 321.267 -870.91 353.8 -903.57 C 386.327 -936.24 428.327 -952.57 479.8 -952.57 C 531.267 -952.57 573.5 -936.24 606.5 -903.57 C 639.5 -870.91 656 -828.84 656 -777.37 C 656 -725.9 639.5 -683.9 606.5 -651.37 C 573.5 -618.84 531.267 -602.57 479.8 -602.57 Z M 135 -324.57 L 135 -351.57 C 135 -381.11 142.61 -406.95 157.83 -429.09 C 173.05 -451.23 192.773 -468.06 217 -479.57 C 263 -500.24 307.487 -515.74 350.46 -526.07 C 393.433 -536.41 436.523 -541.57 479.73 -541.57 C 524.217 -541.57 567.717 -536.24 610.23 -525.57 C 652.743 -514.91 696.64 -499.51 741.92 -479.38 C 767.193 -468.66 787.527 -452.17 802.92 -429.93 C 818.307 -407.69 826 -381.57 826 -351.57 L 826 -324.57 C 826 -298.74 816.87 -276.62 798.61 -258.2 C 780.343 -239.78 757.807 -230.57 731 -230.57 L 229 -230.57 C 202.467 -230.57 180.167 -239.78 162.1 -258.2 C 144.033 -276.62 135 -298.74 135 -324.57 Z M 229 -324.57 L 731 -324.57 L 731 -347.57 C 731 -357.81 727.833 -367.58 721.5 -376.89 C 715.167 -386.21 707.333 -393.1 698 -397.57 C 658 -416.24 621.167 -429.07 587.5 -436.07 C 553.84 -443.07 517.84 -446.57 479.5 -446.57 C 442.5 -446.57 406.5 -443.07 371.5 -436.07 C 336.5 -429.07 299.81 -416.29 261.43 -397.73 C 251.81 -393.25 244 -386.34 238 -376.99 C 232 -367.65 229 -357.85 229 -347.57 L 229 -324.57 Z M 479.8 -696.57 C 503.267 -696.57 522.667 -704.19 538 -719.42 C 553.333 -734.65 561 -754.02 561 -777.53 C 561 -801.33 553.4 -820.78 538.2 -835.9 C 523.007 -851.02 503.673 -858.57 480.2 -858.57 C 456.733 -858.57 437.333 -851 422 -835.85 C 406.667 -820.71 399 -801.43 399 -778.03 C 399 -754.36 406.6 -734.86 421.8 -719.54 C 436.993 -704.23 456.327 -696.57 479.8 -696.57 Z M 128.03 -7.432 C 103.596 -7.432 82.938 -15.952 66.013 -32.792 C 49.108 -49.632 40.646 -70.132 40.646 -94.689 C 40.646 -119.04 49.068 -139.74 65.891 -156.58 C 82.714 -173.63 103.353 -181.95 127.787 -181.95 C 152.219 -181.95 172.898 -173.63 189.803 -156.78 C 206.728 -139.94 215.169 -119.25 215.169 -94.889 C 215.169 -70.542 206.768 -49.842 189.925 -32.792 C 173.101 -15.952 152.483 -7.432 128.03 -7.432 Z M 127.908 -60.192 C 137.649 -60.192 145.828 -63.642 152.463 -70.132 C 159.099 -76.832 162.407 -84.948 162.407 -94.689 C 162.407 -104.43 159.099 -112.74 152.463 -119.25 C 145.828 -125.94 137.649 -129.19 127.908 -129.19 C 117.518 -129.19 109.157 -125.94 102.866 -119.25 C 96.555 -112.74 93.409 -104.43 93.409 -94.689 C 93.409 -84.948 96.555 -76.832 102.866 -70.132 C 109.157 -63.642 117.518 -60.192 127.908 -60.192 Z M 597.824 -7.432 C 573.39 -7.432 552.732 -15.952 535.807 -32.792 C 518.902 -49.632 510.44 -70.132 510.44 -94.689 C 510.44 -119.04 518.862 -139.74 535.685 -156.58 C 552.508 -173.63 573.147 -181.95 597.581 -181.95 C 622.013 -181.95 642.53 -173.63 659.09 -156.78 C 675.67 -139.94 683.95 -119.25 683.95 -94.889 C 683.95 -70.542 675.711 -49.842 659.211 -32.792 C 642.733 -15.952 622.277 -7.432 597.824 -7.432 Z M 362.419 -7.432 C 337.986 -7.432 317.49 -15.952 300.91 -32.792 C 284.35 -49.632 276.05 -70.132 276.05 -94.689 C 276.05 -119.04 284.309 -139.74 300.789 -156.58 C 317.287 -173.63 337.743 -181.95 362.176 -181.95 C 386.609 -181.95 407.288 -173.63 424.192 -156.78 C 441.118 -139.94 449.559 -119.25 449.559 -94.889 C 449.559 -70.542 441.158 -49.842 424.315 -32.792 C 407.491 -15.952 386.873 -7.432 362.419 -7.432 Z M 598.717 -59.182 C 609.127 -59.182 617.65 -62.622 624.286 -69.112 C 630.923 -75.822 634.23 -84.338 634.23 -94.689 C 634.23 -105.25 630.923 -113.76 624.286 -120.87 C 617.65 -127.76 609.127 -131.22 598.717 -131.22 C 588.327 -131.22 579.803 -127.76 573.167 -120.87 C 566.531 -113.76 563.203 -105.25 563.203 -94.689 C 563.203 -84.338 566.45 -75.822 572.944 -69.112 C 579.438 -62.622 588.022 -59.182 598.717 -59.182 Z M 362.298 -59.182 C 372.708 -59.182 381.394 -62.622 388.375 -69.112 C 395.335 -75.822 398.826 -84.338 398.826 -94.689 C 398.826 -105.25 395.335 -113.76 388.375 -120.87 C 381.394 -127.76 372.708 -131.22 362.298 -131.22 C 351.908 -131.22 343.385 -127.76 336.748 -120.87 C 330.112 -113.76 326.784 -105.25 326.784 -94.689 C 326.784 -84.338 330.031 -75.822 336.525 -69.112 C 343.019 -62.622 351.603 -59.182 362.298 -59.182 Z M 832.253 -7.432 C 807.824 -7.432 787.174 -16.032 770.261 -32.823 C 753.368 -49.615 744.912 -70.201 744.912 -94.789 C 744.912 -118.99 753.329 -139.77 770.14 -156.56 C 786.953 -173.56 807.584 -181.95 832.012 -181.95 C 856.421 -181.95 877.093 -173.56 894.005 -156.76 C 910.918 -139.96 919.353 -119.19 919.353 -94.989 C 919.353 -70.608 910.957 -49.812 894.125 -32.823 C 877.292 -16.032 856.701 -7.432 832.253 -7.432 Z M 832.133 -60.21 C 841.868 -60.21 850.045 -63.61 856.681 -70.201 C 863.298 -76.805 866.617 -84.997 866.617 -94.789 C 866.617 -104.39 863.298 -112.79 856.681 -119.19 C 850.045 -125.97 841.868 -129.17 832.133 -129.17 C 821.738 -129.17 813.381 -125.97 807.104 -119.19 C 800.787 -112.79 797.649 -104.39 797.649 -94.789 C 797.649 -84.997 800.787 -76.805 807.104 -70.201 C 813.381 -63.61 821.738 -60.21 832.133 -60.21 Z"/>
</svg>