<?xml version="1.0" encoding="utf-8"?>
<svg width="100%" height="100%" viewBox="0 0 48 48" version="1.1" xmlns="http://www.w3.org/2000/svg" style="fill-rule:evenodd;clip-rule:evenodd;stroke-linejoin:round;stroke-miterlimit:2;">
  <path d="M 19.55 26.35 C 18.892 26.35 18.336 26.122 17.882 25.666 C 17.427 25.21 17.2 24.652 17.2 23.991 C 17.2 23.33 17.427 22.775 17.882 22.325 C 18.336 21.875 18.892 21.65 19.55 21.65 L 28.45 21.65 C 29.108 21.65 29.665 21.878 30.119 22.334 C 30.573 22.789 30.8 23.348 30.8 24.009 C 30.8 24.669 30.573 25.225 30.119 25.675 C 29.665 26.125 29.108 26.35 28.45 26.35 L 19.55 26.35 Z M 36.15 26.35 C 35.492 26.35 34.936 26.122 34.482 25.666 C 34.027 25.21 33.8 24.652 33.8 23.991 C 33.8 23.33 34.027 22.775 34.482 22.325 C 34.936 21.875 35.492 21.65 36.15 21.65 L 44.5 21.65 C 45.158 21.65 45.715 21.878 46.169 22.334 C 46.623 22.789 46.85 23.348 46.85 24.009 C 46.85 24.669 46.623 25.225 46.169 25.675 C 45.715 26.125 45.158 26.35 44.5 26.35 L 36.15 26.35 Z M 3.5 26.35 C 2.842 26.35 2.286 26.122 1.832 25.666 C 1.377 25.21 1.15 24.652 1.15 23.991 C 1.15 23.33 1.377 22.775 1.832 22.325 C 2.286 21.875 2.842 21.65 3.5 21.65 L 11.85 21.65 C 12.508 21.65 13.065 21.878 13.519 22.334 C 13.973 22.789 14.2 23.348 14.2 24.009 C 14.2 24.669 13.973 25.225 13.519 25.675 C 13.065 26.125 12.508 26.35 11.85 26.35 L 3.5 26.35 Z M 26.676 6.402 C 27.299 6.402 27.897 6.65 28.338 7.09 C 28.778 7.531 29.026 8.129 29.026 8.752 C 29.026 9.375 28.778 9.973 28.338 10.414 C 27.897 10.854 27.299 11.102 26.676 11.102 C 21.882 11.102 11.425 11.102 11.425 11.102 L 11.425 15.952 C 11.425 16.612 11.2 17.171 10.75 17.622 C 10.3 18.082 9.745 18.302 9.084 18.302 C 8.423 18.302 7.865 18.082 7.409 17.622 C 6.953 17.171 6.725 16.612 6.725 15.952 L 6.725 11.102 C 6.725 9.812 7.185 8.702 8.105 7.782 C 9.025 6.862 10.132 6.402 11.425 6.402 L 26.676 6.402 Z M 11.425 41.598 C 10.132 41.598 9.025 41.137 8.105 40.217 C 7.185 39.298 6.725 38.191 6.725 36.898 L 6.725 32.047 C 6.725 31.389 6.953 30.833 7.409 30.378 C 7.865 29.925 8.423 29.697 9.084 29.697 C 9.745 29.697 10.3 29.925 10.75 30.378 C 11.2 30.833 11.425 31.389 11.425 32.047 L 11.425 36.898 L 36.525 36.898 L 36.525 32.047 C 36.525 31.389 36.753 30.833 37.209 30.378 C 37.665 29.925 38.222 29.697 38.88 29.697 C 39.537 29.697 40.101 29.925 40.571 30.378 C 41.04 30.833 41.275 31.389 41.275 32.047 L 41.275 36.898 C 41.275 38.191 40.81 39.298 39.881 40.217 C 38.951 41.137 37.832 41.598 36.525 41.598 L 11.425 41.598 Z M 32.145 14.979 C 31.619 14.979 31.166 14.79 30.785 14.411 C 30.404 14.032 30.214 13.574 30.214 13.035 C 30.214 12.496 30.404 12.032 30.785 11.643 C 31.166 11.254 31.619 11.06 32.145 11.06 L 34.872 11.06 L 34.872 8.39 C 34.872 7.847 35.052 7.38 35.412 6.989 C 35.771 6.598 36.232 6.402 36.793 6.402 C 37.338 6.402 37.808 6.598 38.201 6.989 C 38.595 7.38 38.791 7.847 38.791 8.39 L 38.791 11.06 L 41.461 11.06 C 41.988 11.06 42.441 11.253 42.822 11.64 C 43.202 12.026 43.392 12.492 43.392 13.038 C 43.392 13.567 43.202 14.023 42.822 14.406 C 42.441 14.788 41.988 14.979 41.461 14.979 L 38.791 14.979 L 38.791 17.649 C 38.791 18.192 38.602 18.659 38.223 19.05 C 37.845 19.441 37.375 19.637 36.813 19.637 C 36.252 19.637 35.788 19.441 35.422 19.05 C 35.055 18.659 34.872 18.192 34.872 17.649 L 34.872 14.979 L 32.145 14.979 Z" style="fill-rule: nonzero; stroke-width: 0.05;"/>
</svg>