<?xml version="1.0" encoding="utf-8"?>
<svg xmlns="http://www.w3.org/2000/svg" height="48" viewBox="0 -960 960 960" width="48">
  <path d="M 129 -685.49 C 119.02 -694.84 114 -705.83 114.4 -718.49 C 114.785 -730.7 119.268 -741.36 127.975 -750.45 C 128.31 -750.8 128.651 -751.15 128.999 -751.5 C 129.178 -751.68 129.357 -751.86 129.537 -752.03 C 137.993 -760.38 147.781 -764.85 158.891 -765.43 C 159.753 -765.48 160.622 -765.5 161.499 -765.5 C 171.405 -765.5 180.563 -762.49 188.966 -756.46 C 191.026 -754.99 193.04 -753.33 195.01 -751.49 L 353.335 -593.16 L 384.999 -561.5 C 397.266 -549.23 408.513 -540.55 418.731 -535.45 C 420.179 -534.73 421.609 -534.08 423.02 -533.5 C 423.508 -533.29 424.009 -533.1 424.522 -532.9 C 433.586 -529.5 446.339 -527.45 462.774 -526.76 C 464.554 -526.69 466.377 -526.63 468.242 -526.59 C 470.75 -526.53 473.335 -526.5 475.999 -526.5 L 686.999 -526.5 L 668 -545.5 L 630 -583.5 C 622.126 -590.84 617.358 -599.22 615.682 -608.62 C 615.227 -611.17 614.999 -613.8 614.999 -616.5 C 614.999 -618.69 615.149 -620.84 615.448 -622.93 C 616.762 -632.12 620.961 -640.35 628.058 -647.6 C 628.683 -648.24 629.33 -648.88 629.999 -649.5 C 630.1 -649.6 630.202 -649.7 630.303 -649.8 C 638.768 -658.26 648.711 -662.79 659.71 -663.42 C 660.631 -663.47 661.561 -663.5 662.499 -663.5 C 672.124 -663.5 681.042 -660.66 689.249 -654.97 C 691.56 -653.37 693.814 -651.55 696.01 -649.5 L 832 -513.5 C 832.028 -513.47 832.057 -513.44 832.085 -513.41 C 840.854 -504.6 845.481 -494.01 845.958 -481.65 C 845.986 -480.94 846 -480.22 846 -479.5 C 846 -478.79 845.986 -478.09 845.96 -477.39 C 845.49 -464.97 840.834 -454.34 832 -445.5 C 832 -445.5 832 -445.5 832 -445.5 L 696.01 -309.5 C 695.102 -308.66 694.184 -307.85 693.256 -307.08 C 683.969 -299.36 673.714 -295.5 662.499 -295.5 C 661.96 -295.5 661.424 -295.51 660.891 -295.53 C 649.485 -295.89 639.184 -300.41 630.447 -309.06 C 630.298 -309.2 630.148 -309.35 629.999 -309.5 C 619.999 -318.83 614.999 -329.83 614.999 -342.5 C 614.999 -343.3 615.017 -344.08 615.054 -344.86 C 615.592 -356.51 620.145 -366.69 628.9 -375.4 C 628.933 -375.43 628.966 -375.47 628.999 -375.5 L 686 -431.52 L 686.999 -432.5 L 475.999 -432.5 C 452.987 -432.5 435.795 -430.36 424.431 -426.06 C 423.949 -425.88 423.479 -425.69 423.02 -425.5 C 422.172 -425.15 421.318 -424.78 420.457 -424.38 C 410.907 -419.95 400.439 -412.31 389.057 -401.46 C 387.718 -400.19 386.366 -398.87 385 -397.5 L 195.01 -207.5 C 194.219 -206.77 193.42 -206.06 192.613 -205.38 C 183.207 -197.46 172.672 -193.5 160.999 -193.5 C 158.136 -193.5 155.375 -193.74 152.717 -194.22 C 143.965 -195.77 136.389 -199.88 129.912 -206.54 C 129.605 -206.86 129.301 -207.18 128.999 -207.5 C 118.999 -216.83 113.999 -227.83 113.999 -240.5 C 113.999 -251.48 117.757 -261.21 125.273 -269.69 C 126.427 -270.99 127.669 -272.26 129 -273.5 L 153.722 -298.22 L 334.999 -479.5 L 170.204 -644.29 L 129 -685.49 Z" style="stroke-width: 0.05;"/>
</svg>