<?xml version="1.0" encoding="utf-8"?>
<svg xmlns="http://www.w3.org/2000/svg" height="48" viewBox="0 -960 960 960" width="48">
  <path d="M 149 -55 C 122.967 -55 100.79 -64.157 82.47 -82.47 C 64.157 -100.79 55 -122.967 55 -149 L 55 -811 C 55 -837.307 64.157 -859.717 82.47 -878.23 C 100.79 -896.743 122.967 -906 149 -906 L 811 -906 C 837.307 -906 859.717 -896.743 878.23 -878.23 C 896.743 -859.717 906 -837.307 906 -811 L 906 -149 C 906 -122.967 896.743 -100.79 878.23 -82.47 C 859.717 -64.157 837.307 -55 811 -55 Z M 150 -149 L 812 -149 L 812 -811 L 150 -811 Z M 438.142 -256.93 C 426.181 -268.89 420.203 -282.94 420.203 -299.31 C 420.203 -315.69 426.181 -329.73 438.142 -341.69 C 450.102 -353.89 464.269 -359.88 480.649 -359.88 C 497.003 -359.88 510.963 -353.89 522.508 -341.95 C 534.025 -330.26 539.797 -316.21 539.797 -299.82 C 539.797 -283.45 534.025 -269.14 522.508 -256.93 C 510.963 -244.97 497.003 -238.72 480.649 -238.72 C 464.269 -238.72 450.102 -244.72 438.142 -256.93 Z M 448.775 -445.4 C 440.116 -454 435.802 -465.19 435.802 -478.96 L 435.802 -674.22 C 435.802 -687.73 440.04 -698.66 448.541 -707.75 C 457.043 -716.61 468.3 -721.27 482.366 -721.27 C 496.431 -721.27 507.792 -716.61 516.424 -707.75 C 525.082 -698.66 529.397 -687.73 529.397 -674.22 L 529.397 -478.96 C 529.397 -465.19 525.16 -454 516.657 -445.4 C 508.156 -436.85 496.898 -432.43 482.833 -432.43 C 468.768 -432.43 457.406 -436.85 448.775 -445.4 Z"/>
</svg>