<?xml version="1.0" encoding="utf-8"?>
<svg xmlns="http://www.w3.org/2000/svg" height="48" viewBox="0 -960 960 960" width="48">
  <path d="M 777.05 -356.52 C 786.757 -365.85 797.98 -370.52 810.72 -370.52 C 823.46 -370.52 834.72 -365.85 844.5 -356.52 L 899.5 -300.52 C 908.833 -291.07 913.5 -280.04 913.5 -267.43 C 913.5 -254.82 908.81 -243.69 899.43 -234.02 C 890.05 -224.35 878.943 -219.52 866.11 -219.52 C 853.277 -219.52 842.073 -224.52 832.5 -234.52 L 777.5 -289.52 C 767.5 -298.94 762.5 -310.13 762.5 -323.09 C 762.5 -336.04 767.35 -347.19 777.05 -356.52 Z M 804.5 -823.15 C 813.833 -813.57 818.5 -802.35 818.5 -789.48 C 818.5 -776.62 813.833 -765.63 804.5 -756.52 L 749.5 -700.52 C 739.68 -691.19 728.413 -686.52 715.7 -686.52 C 702.987 -686.52 691.92 -691.2 682.5 -700.57 C 672.5 -710.21 667.5 -721.5 667.5 -734.44 C 667.5 -747.38 672.5 -758.41 682.5 -767.52 L 737.5 -823.52 C 747.133 -832.85 758.377 -837.52 771.23 -837.52 C 784.077 -837.52 795.167 -832.73 804.5 -823.15 Z M 154.55 -823.02 C 163.923 -832.69 175.08 -837.52 188.02 -837.52 C 200.96 -837.52 212.12 -832.85 221.5 -823.52 L 277.5 -767.52 C 286.833 -757.89 291.5 -746.64 291.5 -733.79 C 291.5 -720.94 286.78 -709.85 277.34 -700.52 C 267.9 -691.19 256.847 -686.52 244.18 -686.52 C 231.507 -686.52 220.613 -691.19 211.5 -700.52 L 154.5 -756.52 C 145.167 -765.77 140.5 -776.74 140.5 -789.45 C 140.5 -802.16 145.183 -813.35 154.55 -823.02 L 154.55 -823.02 Z M 182.5 -356.47 C 191.833 -347.1 196.5 -335.94 196.5 -323 C 196.5 -310.06 191.833 -298.9 182.5 -289.52 L 127.5 -234.52 C 118.08 -224.52 106.89 -219.52 93.93 -219.52 C 80.977 -219.52 69.833 -224.3 60.5 -233.86 C 51.167 -243.42 46.5 -254.48 46.5 -267.03 C 46.5 -279.58 51.167 -290.74 60.5 -300.52 L 116.5 -356.52 C 125.953 -365.85 136.983 -370.52 149.59 -370.52 C 162.197 -370.52 173.167 -365.84 182.5 -356.47 Z M 360.83 -269.62 L 479.66 -341.87 L 599.5 -268.52 L 567.5 -403.52 L 674.5 -497.52 L 534.61 -509.55 L 479.5 -638.52 L 425.68 -510.6 L 285.5 -497.52 L 392.93 -404.26 L 360.83 -269.62 L 360.83 -269.62 Z M 479.5 -453.52 Z M 479.5 -231.52 L 313.5 -130.52 C 304.833 -124.52 295.833 -122.1 286.5 -123.27 C 277.167 -124.44 268.82 -127.54 261.46 -132.57 C 254.107 -137.6 248.607 -144.35 244.96 -152.82 C 241.32 -161.29 240.833 -170.85 243.5 -181.52 L 287.5 -370.52 L 139.5 -500.52 C 131.5 -507.23 126.5 -515.14 124.5 -524.27 C 122.5 -533.4 122.5 -542.22 124.5 -550.74 C 126.5 -559.26 131.333 -566.52 139 -572.52 C 146.667 -578.52 155.833 -581.85 166.5 -582.52 L 360.58 -599.61 L 435.5 -779.52 C 439.333 -789.52 445.377 -796.85 453.63 -801.52 C 461.877 -806.19 470.417 -808.52 479.25 -808.52 C 488.083 -808.52 496.693 -806.19 505.08 -801.52 C 513.46 -796.85 519.6 -789.52 523.5 -779.52 L 599.21 -599.22 L 793.5 -582.52 C 803.5 -581.85 812.333 -578.52 820 -572.52 C 827.667 -566.52 832.5 -559.26 834.5 -550.74 C 836.5 -542.22 836.667 -533.39 835 -524.24 C 833.333 -515.09 828.5 -507.19 820.5 -500.52 L 672.5 -370.52 L 716.5 -180.52 C 718.5 -170.52 717.65 -161.24 713.95 -152.69 C 710.257 -144.14 705.08 -137.01 698.42 -131.3 C 691.347 -126.23 683.09 -123.33 673.65 -122.61 C 664.217 -121.88 655.167 -124.19 646.5 -129.52 L 479.5 -231.52 Z"/>
</svg>