<?xml version="1.0" encoding="utf-8"?>
<svg xmlns="http://www.w3.org/2000/svg" height="48" viewBox="0 -960 960 960" width="48">
  <path d="M 650.147 -354.94 C 620.064 -354.94 593.561 -361.7 572.301 -374.46 C 550.945 -387.61 538.637 -405.37 538.637 -424.79 C 538.637 -444.2 551.015 -462 572.419 -475.32 C 593.721 -487.87 620.244 -494.63 650.347 -494.63 C 680.429 -494.63 706.929 -487.87 728.168 -475.12 C 749.547 -461.98 761.856 -444.19 761.856 -424.79 C 761.856 -405.37 749.475 -387.59 728.074 -374.25 C 706.772 -361.7 680.249 -354.94 650.147 -354.94 Z M 650.067 -394.12 C 666.29 -394.12 679.127 -397.16 690.272 -404 C 701.285 -410.23 705.153 -416.24 705.153 -424.79 C 705.153 -433.16 701.327 -439.18 690.43 -445.41 C 679.472 -452.41 666.647 -455.47 650.426 -455.47 C 634.203 -455.47 621.366 -452.43 610.222 -445.59 C 599.208 -439.36 595.34 -433.35 595.34 -424.99 C 595.34 -416.43 599.165 -410.41 610.064 -404.19 C 621.044 -397.18 633.847 -394.12 650.067 -394.12 Z M 55.472 -244.75 C 47.052 -244.75 39.793 -247.77 33.725 -253.93 C 27.658 -259.97 24.63 -267.27 24.63 -275.74 C 24.63 -284.2 27.658 -291.68 33.725 -297.85 C 39.793 -303.99 47.052 -307.16 55.472 -307.16 L 142.711 -307.16 C 151.346 -307.16 158.763 -303.99 164.974 -297.85 C 171.172 -291.68 174.271 -284.2 174.271 -275.6 C 174.271 -266.99 171.172 -259.68 164.974 -253.65 C 158.763 -247.77 151.346 -244.75 142.711 -244.75 L 55.472 -244.75 Z M 55.473 -393.43 C 47.052 -393.43 39.807 -396.44 33.737 -402.62 C 27.668 -408.63 24.63 -415.95 24.63 -424.42 C 24.63 -432.88 27.668 -440.35 33.737 -446.51 C 39.807 -452.68 47.052 -455.83 55.473 -455.83 L 228.798 -455.83 C 237.434 -455.83 244.851 -452.68 251.062 -446.51 C 257.259 -440.35 260.358 -432.88 260.358 -424.28 C 260.358 -415.67 257.259 -408.36 251.062 -402.32 C 244.851 -396.44 237.434 -393.43 228.798 -393.43 L 55.473 -393.43 Z M 55.472 -692.08 C 47.047 -692.08 39.8 -695.14 33.732 -701.25 C 27.664 -707.34 24.63 -714.64 24.63 -723.11 C 24.63 -731.6 27.664 -738.94 33.732 -745.17 C 39.8 -751.39 47.047 -754.5 55.472 -754.5 L 903.856 -754.5 C 912.492 -754.5 919.908 -751.4 926.113 -745.19 C 932.317 -739 935.416 -731.58 935.416 -722.95 C 935.416 -714.33 932.317 -707.04 926.113 -701.06 C 919.908 -695.08 912.492 -692.08 903.856 -692.08 L 55.472 -692.08 Z M 815.819 -393.43 C 807.393 -393.43 800.147 -396.49 794.079 -402.58 C 788.011 -408.68 784.977 -415.99 784.977 -424.47 C 784.977 -432.94 788.011 -440.3 794.079 -446.51 C 800.147 -452.73 807.393 -455.83 815.819 -455.83 L 903.856 -455.83 C 912.492 -455.83 919.909 -452.74 926.113 -446.54 C 932.317 -440.33 935.416 -432.93 935.416 -424.31 C 935.416 -415.68 932.317 -408.37 926.113 -402.39 C 919.909 -396.43 912.492 -393.43 903.856 -393.43 L 815.819 -393.43 Z M 470.785 -244.75 C 462.359 -244.75 455.113 -247.81 449.044 -253.92 C 442.976 -260.02 439.942 -267.31 439.942 -275.8 C 439.942 -284.28 442.976 -291.62 449.044 -297.83 C 455.113 -304.06 462.359 -307.16 470.785 -307.16 L 903.856 -307.16 C 912.492 -307.16 919.909 -304.06 926.113 -297.87 C 932.317 -291.67 935.416 -284.25 935.416 -275.63 C 935.416 -267 932.317 -259.71 926.113 -253.72 C 919.909 -247.75 912.492 -244.75 903.856 -244.75 L 470.785 -244.75 Z M 305.218 -205.5 C 275.097 -205.5 248.561 -212.28 227.293 -224.96 C 205.919 -238.23 193.602 -256 193.602 -275.45 C 193.602 -294.91 205.968 -312.7 227.414 -325.89 C 248.745 -338.51 275.296 -345.19 305.405 -345.19 C 335.514 -345.19 362.045 -338.51 383.315 -325.83 C 404.699 -312.6 417.014 -294.83 417.014 -275.37 C 417.014 -255.86 404.651 -238.12 383.214 -224.87 C 361.886 -212.23 335.332 -205.5 305.218 -205.5 Z M 305.127 -244.68 C 321.355 -244.68 334.213 -247.77 345.371 -254.61 C 356.402 -260.87 360.264 -266.83 360.264 -275.28 C 360.264 -283.8 356.437 -289.78 345.519 -296.08 C 334.511 -302.99 321.729 -306.03 305.494 -306.03 C 289.253 -306.03 276.392 -303 265.241 -296.17 C 254.215 -289.93 250.351 -283.99 250.351 -275.58 C 250.351 -267.06 254.196 -261.03 265.118 -254.69 C 276.143 -247.79 288.909 -244.68 305.127 -244.68 Z M 558.978 -517.56 C 556.318 -512.65 551.408 -508.28 546.472 -506.41 C 541.517 -505.24 535.149 -505.98 530.462 -508.22 C 513.911 -517.58 497.595 -522.77 479.948 -524.25 C 462.302 -525.87 445.849 -524.03 429.245 -518.51 C 420.509 -515.69 412.426 -512.09 404.264 -507.4 C 400.624 -505.3 397.193 -503.13 393.706 -500.68 C 378.641 -490.25 365.793 -477.25 354.181 -460.83 C 342.51 -444.47 333.924 -426.52 327.805 -405.52 C 326.138 -400.32 322.283 -395.17 318.024 -392.31 C 313.423 -390 307.134 -389.29 302.167 -390.54 C 296.989 -392.62 292.048 -397.35 289.584 -402.52 C 287.74 -407.65 287.458 -414.41 288.73 -419.95 C 294.175 -438.01 301.289 -454.92 309.871 -470.31 C 310.147 -470.93 310.548 -471.73 310.914 -472.43 C 323.924 -494.78 339.918 -514.13 358.051 -529.46 C 376.303 -544.67 396.505 -556.08 417.446 -562.97 C 422.944 -564.76 428.622 -566.28 434.201 -567.47 C 455.826 -572.12 478.689 -572.16 500.998 -567.62 C 501.36 -567.54 501.701 -567.46 502.137 -567.34 C 517.772 -563.92 533.389 -557.93 548.303 -549.71 C 553.148 -546.72 557.578 -541.54 559.848 -536.13 C 561.685 -530.37 561.353 -523.19 558.978 -517.56 Z M 55.425 -542.89 C 47.004 -542.89 39.764 -545.89 33.683 -552.08 C 27.622 -558.09 24.583 -565.48 24.583 -573.89 C 24.583 -582.5 27.622 -589.89 33.683 -596.1 C 39.764 -602.29 47.004 -605.29 55.425 -605.29 L 312.533 -602.39 C 321.174 -602.39 328.595 -599.39 334.794 -593.2 C 340.994 -586.99 344.094 -579.6 344.094 -570.99 C 344.094 -562.18 340.994 -554.98 334.794 -548.98 C 328.595 -542.99 321.174 -539.99 312.533 -539.99 L 55.425 -542.89 Z M 610.181 -539.99 C 601.755 -539.99 594.516 -543.19 588.435 -549.18 C 582.376 -555.19 579.334 -562.58 579.334 -570.99 C 579.334 -579.6 582.376 -586.99 588.435 -593.2 C 594.516 -599.39 601.755 -602.39 610.181 -602.39 L 903.856 -605.29 C 912.496 -605.29 919.916 -602.29 926.116 -596.1 C 932.316 -589.89 935.416 -582.5 935.416 -573.89 C 935.416 -565.28 932.316 -557.88 926.116 -551.88 C 919.916 -545.89 912.496 -542.89 903.856 -542.89 L 610.181 -539.99 Z" style=""/>
</svg>