<?xml version="1.0" encoding="utf-8"?>
<svg xmlns="http://www.w3.org/2000/svg" height="48" viewBox="0 -960 960 960" width="48">
  <path d="M 700.419 -491.62 C 691.993 -491.62 684.747 -494.67 678.679 -500.77 C 672.611 -506.87 669.576 -514.17 669.576 -522.65 C 669.576 -531.13 672.611 -538.48 678.679 -544.7 C 684.747 -550.91 691.993 -554.02 700.419 -554.02 L 903.833 -554.02 C 912.469 -554.02 919.886 -550.92 926.09 -544.72 C 932.294 -538.52 935.393 -531.11 935.393 -522.49 C 935.393 -513.86 932.294 -506.56 926.09 -500.58 C 919.886 -494.61 912.469 -491.62 903.833 -491.62 L 700.419 -491.62 Z M 314.15 -193.49 C 305.724 -193.49 298.478 -196.54 292.409 -202.65 C 286.341 -208.76 283.307 -216.04 283.307 -224.53 C 283.307 -233.01 286.341 -240.36 292.409 -246.57 C 298.478 -252.8 305.724 -255.89 314.15 -255.89 L 903.833 -255.89 C 912.469 -255.89 919.886 -252.8 926.09 -246.61 C 932.294 -240.4 935.393 -232.99 935.393 -224.37 C 935.393 -215.74 932.294 -208.44 926.09 -202.46 C 919.886 -196.49 912.469 -193.49 903.833 -193.49 L 314.15 -193.49 Z M 507.997 -342.17 C 499.571 -342.17 492.325 -345.22 486.257 -351.32 C 480.189 -357.42 477.155 -364.72 477.155 -373.2 C 477.155 -381.68 480.189 -389.03 486.257 -395.25 C 492.325 -401.46 499.571 -404.57 507.997 -404.57 L 903.833 -404.57 C 912.469 -404.57 919.886 -401.47 926.09 -395.27 C 932.294 -389.07 935.393 -381.66 935.393 -373.04 C 935.393 -364.41 932.294 -357.11 926.09 -351.13 C 919.886 -345.16 912.469 -342.17 903.833 -342.17 L 507.997 -342.17 Z M 55.449 -640.82 C 47.024 -640.82 39.777 -643.87 33.709 -649.98 C 27.641 -656.08 24.607 -663.37 24.607 -671.85 C 24.607 -680.34 27.641 -687.68 33.709 -693.9 C 39.777 -700.12 47.024 -703.23 55.449 -703.23 L 534.668 -703.23 C 543.304 -703.23 550.72 -700.13 556.925 -693.93 C 563.129 -687.73 566.228 -680.32 566.228 -671.69 C 566.228 -663.07 563.129 -655.77 556.925 -649.79 C 550.72 -643.82 543.304 -640.82 534.668 -640.82 L 55.449 -640.82 Z M 572.849 -455.62 C 553.981 -455.62 537.914 -462.09 524.689 -475.16 C 511.433 -488.21 504.821 -504.11 504.821 -523.22 C 504.821 -542.28 511.259 -558.33 524.184 -571.39 C 537.081 -584.45 552.759 -591.07 571.211 -591.07 C 574.87 -591.07 578.371 -590.76 581.714 -590.08 C 585.041 -589.34 588.342 -588.34 591.595 -586.91 L 591.595 -747.27 C 591.595 -755.49 594.149 -762.07 599.271 -766.96 C 604.393 -771.96 611.137 -774.54 619.513 -774.54 L 683.092 -774.54 C 690.783 -774.54 697.254 -771.8 702.46 -766.65 C 707.667 -761.22 710.278 -754.59 710.278 -746.59 C 710.278 -738.54 707.667 -732.06 702.46 -727.06 C 697.254 -722.16 690.783 -719.58 683.092 -719.58 L 640.745 -719.58 L 640.745 -523.06 C 640.745 -504.01 634.133 -487.9 620.945 -475 C 607.737 -462.09 591.711 -455.62 572.849 -455.62 Z M 764.375 -604.56 C 745.504 -604.56 729.436 -611.04 716.212 -624.1 C 702.956 -637.15 696.343 -653.05 696.343 -672.16 C 696.343 -691.22 702.782 -707.27 715.706 -720.33 C 728.604 -733.39 744.284 -740.02 762.732 -740.02 C 766.39 -740.02 769.898 -739.7 773.24 -739.02 C 776.561 -738.28 779.868 -737.28 783.117 -735.85 L 783.117 -896.19 C 783.117 -904.43 785.67 -911.03 790.792 -915.94 C 795.913 -920.94 802.663 -923.54 811.033 -923.54 L 874.619 -923.54 C 882.308 -923.54 888.778 -920.74 893.985 -915.64 C 899.192 -910.17 901.803 -903.5 901.803 -895.54 C 901.803 -887.51 899.192 -880.98 893.985 -876.03 C 888.778 -871.08 882.308 -868.5 874.619 -868.5 L 832.271 -868.5 L 832.271 -672 C 832.271 -652.95 825.658 -636.84 812.468 -623.94 C 799.263 -611.04 783.232 -604.56 764.375 -604.56 Z M 381.785 -306.68 C 362.918 -306.68 346.85 -313.15 333.626 -326.22 C 320.37 -339.27 313.757 -355.17 313.757 -374.28 C 313.757 -393.34 320.196 -409.39 333.12 -422.44 C 346.018 -435.51 361.696 -442.13 380.148 -442.13 C 383.807 -442.13 387.307 -441.82 390.651 -441.14 C 393.977 -440.4 397.278 -439.4 400.532 -437.97 L 400.532 -598.33 C 400.532 -606.55 403.085 -613.13 408.207 -618.02 C 413.33 -623.02 420.074 -625.6 428.449 -625.6 L 492.028 -625.6 C 499.72 -625.6 506.19 -622.86 511.397 -617.71 C 516.603 -612.28 519.214 -605.65 519.214 -597.65 C 519.214 -589.6 516.603 -583.12 511.397 -578.12 C 506.19 -573.22 499.72 -570.64 492.028 -570.64 L 449.681 -570.64 L 449.681 -374.12 C 449.681 -355.07 443.069 -338.95 429.882 -326.06 C 416.673 -313.15 400.648 -306.68 381.785 -306.68 Z M 190.261 -157.74 C 171.399 -157.74 155.338 -164.21 142.102 -177.29 C 128.853 -190.26 122.235 -206.25 122.235 -225.38 C 122.235 -244.41 128.686 -260.41 141.599 -273.49 C 154.502 -286.55 170.186 -293.14 188.63 -293.14 C 192.289 -293.14 195.792 -292.83 199.127 -292.2 C 202.463 -291.46 205.756 -290.43 209.019 -288.96 L 209.019 -449.45 C 209.019 -457.51 211.57 -464.09 216.693 -469.1 C 221.806 -474.13 228.55 -476.64 236.925 -476.64 L 300.507 -476.64 C 308.202 -476.64 314.664 -473.92 319.871 -468.69 C 325.089 -463.36 327.692 -456.67 327.692 -448.62 C 327.692 -440.67 325.089 -434.19 319.871 -429.17 C 314.664 -424.26 308.202 -421.74 300.507 -421.74 L 258.161 -421.74 L 258.161 -225.18 C 258.161 -206.05 251.552 -190.04 238.358 -177.08 C 225.152 -164.21 209.124 -157.74 190.261 -157.74 Z M 55.45 -342.17 C 47.029 -342.17 39.784 -345.18 33.714 -351.35 C 27.645 -357.37 24.607 -364.69 24.607 -373.15 C 24.607 -381.62 27.645 -389.08 33.714 -395.25 C 39.784 -401.41 47.029 -404.57 55.45 -404.57 L 147.083 -404.57 C 155.719 -404.57 163.136 -401.41 169.347 -395.25 C 175.544 -389.08 178.643 -381.62 178.643 -373.01 C 178.643 -364.4 175.544 -357.09 169.347 -351.06 C 163.136 -345.18 155.719 -342.17 147.083 -342.17 L 55.45 -342.17 Z M 55.449 -193.49 C 47.029 -193.49 39.77 -196.51 33.702 -202.67 C 27.635 -208.71 24.607 -216.01 24.607 -224.48 C 24.607 -232.94 27.635 -240.41 33.702 -246.58 C 39.77 -252.73 47.029 -255.89 55.449 -255.89 L 63.69 -255.89 C 72.325 -255.89 79.742 -252.73 85.953 -246.58 C 92.151 -240.41 95.25 -232.94 95.25 -224.33 C 95.25 -215.73 92.151 -208.42 85.953 -202.39 C 79.742 -196.51 72.325 -193.49 63.69 -193.49 L 55.449 -193.49 Z M 55.445 -491.62 C 47.025 -491.62 39.783 -494.65 33.715 -500.81 C 27.648 -506.84 24.607 -514.15 24.607 -522.6 C 24.607 -531.07 27.648 -538.53 33.715 -544.7 C 39.783 -550.86 47.025 -554.02 55.445 -554.02 L 348.046 -554.02 C 356.682 -554.02 364.098 -550.86 370.308 -544.7 C 376.505 -538.53 379.604 -531.07 379.604 -522.47 C 379.604 -513.87 376.505 -506.55 370.308 -500.52 C 364.098 -494.65 356.682 -491.62 348.046 -491.62 L 55.445 -491.62 Z M 889.99 -640.82 C 881.564 -640.82 874.318 -643.87 868.249 -649.98 C 862.181 -656.08 859.147 -663.37 859.147 -671.85 C 859.147 -680.34 862.181 -687.68 868.249 -693.9 C 874.318 -700.12 881.564 -703.23 889.99 -703.23 L 903.833 -703.23 C 912.469 -703.23 919.886 -700.13 926.09 -693.93 C 932.294 -687.73 935.393 -680.32 935.393 -671.69 C 935.393 -663.07 932.294 -655.77 926.09 -649.79 C 919.886 -643.82 912.469 -640.82 903.833 -640.82 L 889.99 -640.82 Z" style=""/>
</svg>