<?xml version="1.0" encoding="utf-8"?>
<svg xmlns="http://www.w3.org/2000/svg" height="48" viewBox="0 -960 960 960" width="48">
  <path d="M 645.477 -523.46 C 637.051 -523.46 629.805 -526.5 623.737 -532.61 C 617.669 -538.71 614.634 -546 614.634 -554.49 C 614.634 -562.97 617.669 -570.32 623.737 -576.53 C 629.805 -582.75 637.051 -585.86 645.477 -585.86 L 903.833 -585.86 C 912.469 -585.86 919.886 -582.75 926.09 -576.55 C 932.294 -570.36 935.393 -562.95 935.393 -554.33 C 935.393 -545.7 932.294 -538.39 926.09 -532.41 C 919.886 -526.45 912.469 -523.46 903.833 -523.46 Z M 479.997 -634.23 C 449.914 -634.23 423.412 -640.994 402.153 -653.749 C 380.796 -666.892 368.487 -684.665 368.487 -704.08 C 368.487 -723.49 380.866 -741.282 402.269 -754.611 C 423.571 -767.164 450.094 -773.92 480.197 -773.92 C 510.279 -773.92 536.778 -767.156 558.018 -754.403 C 579.396 -741.259 591.706 -723.485 591.706 -704.08 C 591.706 -684.66 579.327 -666.868 557.924 -653.539 C 536.622 -640.986 510.099 -634.23 479.997 -634.23 Z M 479.804 -484.69 C 449.721 -484.69 423.216 -491.454 401.957 -504.201 C 380.601 -517.363 368.294 -535.135 368.294 -554.53 C 368.294 -573.95 380.673 -591.742 402.076 -605.071 C 423.378 -617.624 449.901 -624.38 480.004 -624.38 C 510.086 -624.38 536.585 -617.616 557.825 -604.863 C 579.203 -591.719 591.513 -573.945 591.513 -554.53 C 591.513 -535.13 579.133 -517.337 557.731 -503.999 C 536.429 -491.446 509.906 -484.69 479.804 -484.69 Z M 479.804 -335.51 C 449.721 -335.51 423.218 -342.274 401.958 -355.03 C 380.602 -368.181 368.294 -385.944 368.294 -405.36 C 368.294 -424.769 380.672 -442.571 402.076 -455.891 C 423.378 -468.444 449.901 -475.2 480.004 -475.2 C 510.086 -475.2 536.586 -468.437 557.825 -455.693 C 579.204 -442.548 591.513 -424.764 591.513 -405.36 C 591.513 -385.939 579.132 -368.156 557.731 -354.819 C 536.429 -342.266 509.906 -335.51 479.804 -335.51 Z M 479.91 -186.07 C 449.789 -186.07 423.253 -192.847 401.985 -205.528 C 380.611 -218.802 368.294 -236.573 368.294 -256.02 C 368.294 -275.48 380.66 -293.268 402.106 -306.456 C 423.437 -319.084 449.988 -325.76 480.097 -325.76 C 510.206 -325.76 536.737 -319.078 558.007 -306.396 C 579.391 -293.169 591.706 -275.396 591.706 -255.94 C 591.706 -236.426 579.343 -218.688 557.906 -205.437 C 536.578 -192.799 510.024 -186.07 479.91 -186.07 Z M 479.724 -523.86 C 495.945 -523.86 508.781 -526.912 519.931 -533.729 C 530.944 -539.973 534.81 -545.984 534.81 -554.53 C 534.81 -562.897 530.982 -568.907 520.081 -575.16 C 509.118 -582.157 496.302 -585.22 480.083 -585.22 C 463.862 -585.22 451.025 -582.167 439.879 -575.333 C 428.865 -569.099 424.997 -563.086 424.997 -554.73 C 424.997 -546.17 428.822 -540.143 439.718 -533.927 C 450.701 -526.928 463.506 -523.86 479.724 -523.86 Z M 479.724 -374.69 C 495.947 -374.69 508.784 -377.733 519.929 -384.567 C 530.942 -390.802 534.81 -396.814 534.81 -405.36 C 534.81 -413.729 530.984 -419.747 520.087 -425.976 C 509.129 -432.981 496.304 -436.04 480.083 -436.04 C 463.86 -436.04 451.023 -432.997 439.879 -426.163 C 428.865 -419.929 424.997 -413.916 424.997 -405.56 C 424.997 -397.001 428.822 -390.984 439.721 -384.755 C 450.701 -377.748 463.504 -374.69 479.724 -374.69 Z M 479.819 -225.25 C 496.047 -225.25 508.905 -228.34 520.063 -235.177 C 531.094 -241.439 534.956 -247.401 534.956 -255.85 C 534.956 -264.372 531.129 -270.346 520.211 -276.647 C 509.203 -283.556 496.421 -286.6 480.186 -286.6 C 463.945 -286.6 451.084 -283.575 439.933 -276.741 C 428.907 -270.496 425.043 -264.555 425.043 -256.15 C 425.043 -247.632 428.888 -241.604 439.81 -235.265 C 450.835 -228.361 463.601 -225.25 479.819 -225.25 Z M 479.917 -673.4 C 496.14 -673.4 508.976 -676.442 520.119 -683.285 C 531.129 -689.507 535.003 -695.532 535.003 -704.08 C 535.003 -712.432 531.177 -718.468 520.284 -724.683 C 509.325 -731.689 496.497 -734.75 480.276 -734.75 C 464.053 -734.75 451.218 -731.707 440.073 -724.883 C 429.057 -718.626 425.19 -712.625 425.19 -704.27 C 425.19 -695.711 429.015 -689.694 439.914 -683.465 C 450.894 -676.458 463.697 -673.4 479.917 -673.4 Z M 645.477 -225.32 C 637.051 -225.32 629.805 -228.38 623.736 -234.49 C 617.668 -240.59 614.634 -247.88 614.634 -256.37 C 614.634 -264.85 617.668 -272.19 623.736 -278.4 C 629.805 -284.63 637.051 -287.73 645.477 -287.73 L 903.833 -287.73 C 912.469 -287.73 919.886 -284.63 926.09 -278.44 C 932.294 -272.24 935.393 -264.82 935.393 -256.2 C 935.393 -247.57 932.294 -240.28 926.09 -234.29 C 919.886 -228.32 912.469 -225.32 903.833 -225.32 Z M 645.476 -374 C 637.05 -374 629.804 -377.06 623.736 -383.15 C 617.668 -389.25 614.634 -396.56 614.634 -405.04 C 614.634 -413.51 617.668 -420.87 623.736 -427.08 C 629.804 -433.3 637.05 -436.4 645.476 -436.4 L 903.833 -436.4 C 912.469 -436.4 919.886 -433.31 926.09 -427.11 C 932.294 -420.9 935.393 -413.5 935.393 -404.88 C 935.393 -396.25 932.294 -388.94 926.09 -382.96 C 919.886 -377 912.469 -374 903.833 -374 Z M 55.449 -672.65 C 47.024 -672.65 39.777 -675.71 33.709 -681.82 C 27.641 -687.91 24.607 -695.21 24.607 -703.68 C 24.607 -712.17 27.641 -719.51 33.709 -725.74 C 39.777 -731.96 47.024 -735.07 55.449 -735.07 L 317.403 -735.07 C 326.039 -735.07 333.455 -731.97 339.66 -725.76 C 345.864 -719.57 348.963 -712.15 348.963 -703.52 C 348.963 -694.9 345.864 -687.61 339.66 -681.63 C 333.455 -675.65 326.039 -672.65 317.403 -672.65 Z M 55.45 -374 C 47.029 -374 39.784 -377.01 33.714 -383.19 C 27.645 -389.2 24.607 -396.52 24.607 -404.99 C 24.607 -413.45 27.645 -420.92 33.714 -427.08 C 39.784 -433.25 47.029 -436.4 55.45 -436.4 L 317.403 -436.4 C 326.039 -436.4 333.456 -433.25 339.667 -427.08 C 345.864 -420.92 348.963 -413.45 348.963 -404.85 C 348.963 -396.24 345.864 -388.93 339.667 -382.89 C 333.456 -377.01 326.039 -374 317.403 -374 Z M 55.449 -225.32 C 47.029 -225.32 39.77 -228.34 33.702 -234.5 C 27.635 -240.54 24.607 -247.84 24.607 -256.31 C 24.607 -264.77 27.635 -272.25 33.702 -278.42 C 39.77 -284.56 47.029 -287.73 55.449 -287.73 L 317.403 -287.73 C 326.038 -287.73 333.455 -284.56 339.666 -278.42 C 345.864 -272.25 348.963 -264.77 348.963 -256.17 C 348.963 -247.56 345.864 -240.25 339.666 -234.22 C 333.455 -228.34 326.038 -225.32 317.403 -225.32 Z M 55.445 -523.46 C 47.025 -523.46 39.783 -526.49 33.715 -532.64 C 27.648 -538.67 24.607 -545.99 24.607 -554.43 C 24.607 -562.9 27.648 -570.37 33.715 -576.53 C 39.783 -582.7 47.025 -585.86 55.445 -585.86 L 317.405 -585.86 C 326.041 -585.86 333.457 -582.7 339.667 -576.53 C 345.864 -570.37 348.963 -562.9 348.963 -554.3 C 348.963 -545.71 345.864 -538.38 339.667 -532.36 C 333.457 -526.49 326.041 -523.46 317.405 -523.46 Z M 645.477 -672.65 C 637.051 -672.65 629.805 -675.71 623.736 -681.82 C 617.668 -687.91 614.634 -695.21 614.634 -703.68 C 614.634 -712.17 617.668 -719.51 623.736 -725.74 C 629.805 -731.96 637.051 -735.07 645.477 -735.07 L 903.833 -735.07 C 912.469 -735.07 919.886 -731.97 926.09 -725.76 C 932.294 -719.57 935.393 -712.15 935.393 -703.52 C 935.393 -694.9 932.294 -687.61 926.09 -681.63 C 919.886 -675.65 912.469 -672.65 903.833 -672.65 Z" style=""/>
</svg>