<?xml version="1.0" encoding="utf-8"?>
<svg height="12" width="12" xmlns="http://www.w3.org/2000/svg" style="stroke-linejoin: round; stroke: rgb(0, 0, 0);">
  <path d="M 8.659 0.563 C 9.313 0.617 10.15 0.932 10.568 1.35 C 10.986 1.769 11.302 2.605 11.355 3.259 L 11.355 8.578 C 11.302 9.229 10.986 10.065 10.568 10.484 C 10.15 10.902 9.313 11.217 8.659 11.274 L 3.343 11.274 C 2.689 11.217 1.853 10.902 1.434 10.484 C 1.016 10.065 0.7 9.229 0.644 8.578 L 0.644 3.259 C 0.7 2.605 1.016 1.769 1.434 1.35 C 1.853 0.932 2.689 0.617 3.343 0.563 L 8.659 0.563 Z M 4.061 3.975 L 4.061 7.867 L 7.945 7.867 L 7.945 3.975 L 4.061 3.975 Z M 3.343 1.845 C 2.558 1.845 1.926 2.473 1.926 3.259 L 1.926 8.578 C 1.926 9.361 2.558 9.992 3.343 9.992 L 8.659 9.992 C 9.444 9.992 10.073 9.361 10.073 8.578 L 10.073 3.259 C 10.073 2.473 9.444 1.845 8.659 1.845 L 3.343 1.845 Z M 8.502 2.692 C 8.905 2.692 9.228 3.015 9.228 3.417 L 9.228 8.421 C 9.228 8.823 8.905 9.15 8.502 9.15 L 3.507 9.15 C 3.105 9.15 2.779 8.823 2.779 8.421 L 2.779 3.417 C 2.779 3.015 3.105 2.692 3.507 2.692 L 8.502 2.692 Z" style="stroke: none;"/>
</svg>