<?xml version="1.0" encoding="utf-8"?>
<svg xmlns="http://www.w3.org/2000/svg" height="48" viewBox="0 -960 960 960" width="48">
  <path d="M 137.5 -94.5 C 125.753 -94.5 115.65 -98.753 107.19 -107.26 C 98.73 -115.77 94.5 -125.94 94.5 -137.76 C 94.5 -149.59 98.73 -159.83 107.19 -168.5 C 115.65 -177.17 125.753 -181.5 137.5 -181.5 L 821.5 -181.5 C 833.533 -181.5 843.877 -177.18 852.53 -168.54 C 861.177 -159.89 865.5 -149.56 865.5 -137.54 C 865.5 -125.51 861.177 -115.33 852.53 -107 C 843.877 -98.667 833.533 -94.5 821.5 -94.5 L 137.5 -94.5 Z M 406.471 -469.25 L 406.273 -469.45 C 411.447 -464.11 414.817 -456.18 415.318 -448.99 C 414.954 -441.87 411.669 -433.85 406.962 -428.49 C 401.836 -423.74 393.945 -420.24 386.85 -419.67 C 379.738 -419.88 371.579 -422.99 365.976 -427.66 L 317.486 -476.14 C 314.993 -478.8 312.337 -482.61 310.677 -486.13 C 309.221 -489.62 308.074 -494.25 308.074 -497.84 C 308.074 -501.43 309.19 -506.03 310.614 -509.58 C 312.15 -512.86 314.857 -516.95 317.521 -519.75 L 365.654 -567.88 C 371.064 -572.76 379.198 -576.05 386.404 -576.27 C 393.392 -575.74 401.272 -572.36 406.597 -567.52 C 411.453 -562.13 415.267 -554.05 415.267 -546.93 C 415.267 -539.65 410.968 -531.43 405.67 -526.28 L 406.451 -527.02 L 563.211 -527.02 C 576.394 -526.64 589.541 -521.26 598.948 -512.32 C 607.726 -502.88 613.054 -489.65 613.428 -476.38 L 613.428 -430.32 C 613.04 -423.44 609.802 -415.48 605.143 -410.21 C 599.862 -405.4 591.838 -401.65 584.743 -401.65 C 577.68 -401.65 569.662 -405.33 564.291 -410.07 C 559.484 -415.34 556.085 -423.37 555.669 -430.32 L 555.669 -469.25 L 406.471 -469.25 Z M 541.451 -263.27 L 541.237 -263.06 L 384.909 -263.06 C 371.601 -263.45 358.371 -268.87 348.934 -277.7 C 340.085 -287.2 334.659 -300.41 334.27 -313.71 L 334.27 -359.75 C 334.691 -366.81 338.119 -374.88 342.949 -380.14 C 348.286 -384.79 356.269 -388.43 363.25 -388.43 C 370.243 -388.43 378.23 -384.75 383.52 -380.07 C 388.274 -374.8 391.625 -366.77 392.029 -359.75 L 392.029 -320.82 L 541.247 -320.82 L 541.421 -320.65 C 536.512 -325.78 533.277 -333.54 532.802 -340.67 C 533.128 -347.68 536.252 -355.62 540.774 -360.98 C 545.935 -365.94 553.843 -369.48 560.967 -370.08 C 568.121 -369.83 576.563 -366.58 582.106 -361.63 L 630.212 -313.52 C 633.113 -310.79 635.528 -307.23 637.148 -303.82 C 638.536 -300.4 639.624 -295.77 639.624 -291.99 C 639.624 -288.29 638.551 -283.67 637.176 -280.22 C 635.554 -276.79 632.717 -272.82 629.924 -270.09 L 582.044 -222.2 C 576.659 -217.43 568.481 -214.11 561.348 -213.8 C 554.178 -214.36 546.247 -217.89 541.128 -222.79 C 536.489 -228.12 532.854 -236.09 532.854 -242.98 C 532.854 -249.93 536.657 -257.97 541.451 -263.27 Z M 137.5 -778.5 C 125.753 -778.5 115.65 -782.75 107.19 -791.26 C 98.73 -799.77 94.5 -809.94 94.5 -821.76 C 94.5 -833.59 98.73 -843.83 107.19 -852.5 C 115.65 -861.17 125.753 -865.5 137.5 -865.5 L 821.5 -865.5 C 833.533 -865.5 843.877 -861.18 852.53 -852.54 C 861.177 -843.89 865.5 -833.56 865.5 -821.54 C 865.5 -809.51 861.177 -799.33 852.53 -791 C 843.877 -782.67 833.533 -778.5 821.5 -778.5 L 137.5 -778.5 Z M 137.5 -607.5 C 125.753 -607.5 115.65 -611.75 107.19 -620.26 C 98.73 -628.77 94.5 -638.94 94.5 -650.76 C 94.5 -662.59 98.73 -672.83 107.19 -681.5 C 115.65 -690.17 125.753 -694.5 137.5 -694.5 L 821.5 -694.5 C 833.533 -694.5 843.877 -690.18 852.53 -681.54 C 861.177 -672.89 865.5 -662.56 865.5 -650.54 C 865.5 -638.51 861.177 -628.33 852.53 -620 C 843.877 -611.67 833.533 -607.5 821.5 -607.5 L 137.5 -607.5 Z"/>
</svg>