<?xml version="1.0" encoding="utf-8"?>
<svg xmlns="http://www.w3.org/2000/svg" height="48" viewBox="0 -960 960 960" width="48">
  <path d="M 137.5 -94.5 C 125.753 -94.5 115.65 -98.75 107.19 -107.26 C 98.73 -115.77 94.5 -125.94 94.5 -137.76 C 94.5 -149.59 98.73 -159.83 107.19 -168.5 C 115.65 -177.17 125.753 -181.5 137.5 -181.5 L 821.5 -181.5 C 833.533 -181.5 843.877 -177.18 852.53 -168.54 C 861.177 -159.89 865.5 -149.56 865.5 -137.54 C 865.5 -125.51 861.177 -115.33 852.53 -107 C 843.877 -98.67 833.533 -94.5 821.5 -94.5 Z M 137.5 -778.5 C 125.753 -778.5 115.65 -782.75 107.19 -791.26 C 98.73 -799.77 94.5 -809.94 94.5 -821.76 C 94.5 -833.59 98.73 -843.83 107.19 -852.5 C 115.65 -861.17 125.753 -865.5 137.5 -865.5 L 821.5 -865.5 C 833.533 -865.5 843.877 -861.18 852.53 -852.54 C 861.177 -843.89 865.5 -833.56 865.5 -821.54 C 865.5 -809.51 861.177 -799.33 852.53 -791 C 843.877 -782.67 833.533 -778.5 821.5 -778.5 Z M 137.5 -607.5 C 125.753 -607.5 115.65 -611.75 107.19 -620.26 C 98.73 -628.77 94.5 -638.94 94.5 -650.76 C 94.5 -662.59 98.73 -672.83 107.19 -681.5 C 115.65 -690.17 125.753 -694.5 137.5 -694.5 L 821.5 -694.5 C 833.533 -694.5 843.877 -690.18 852.53 -681.54 C 861.177 -672.89 865.5 -662.56 865.5 -650.54 C 865.5 -638.51 861.177 -628.33 852.53 -620 C 843.877 -611.67 833.533 -607.5 821.5 -607.5 Z M 565.567 -438.06 C 560.327 -433.27 552.349 -430.06 545.469 -429.87 C 538.87 -430.27 531.351 -433.46 526.252 -437.67 C 521.772 -442.67 517.913 -450.67 517.913 -457.06 C 517.913 -463.66 521.532 -471.47 526.072 -476.86 L 586.007 -536.82 C 591.147 -541.22 599.025 -544.82 605.565 -544.82 C 612.344 -544.82 620.123 -540.82 625.062 -536.22 C 629.402 -531.02 632.841 -523.22 632.841 -516.62 C 632.841 -509.82 629.242 -502.23 624.803 -497.23 Z M 357.275 -238.06 C 349.856 -238.46 341.557 -241.85 336.018 -246.66 C 330.978 -252.26 327.379 -260.45 326.959 -268.05 L 326.959 -335.44 C 327.339 -342.24 330.579 -350.04 335.078 -355.04 C 340.177 -359.44 347.936 -362.84 354.716 -362.84 C 361.495 -362.84 369.254 -359.44 374.374 -355.04 C 378.932 -350.04 382.232 -342.24 382.632 -335.44 L 382.632 -331.85 L 395.141 -343.45 C 400.24 -348.05 407.959 -351.05 414.738 -351.25 C 421.337 -350.65 428.856 -347.65 433.976 -343.25 C 438.415 -338.25 442.295 -330.25 442.295 -323.65 C 442.295 -316.85 438.695 -309.26 434.256 -304.26 L 422.807 -293.05 L 425.387 -293.05 C 432.266 -292.65 440.065 -289.45 445.044 -284.85 C 449.364 -279.85 452.824 -272.25 452.824 -265.66 C 452.824 -258.86 449.324 -251.06 444.965 -246.06 C 439.945 -241.66 432.186 -238.46 425.387 -238.06 Z M 605.405 -237.66 C 598.546 -237.66 590.726 -241.66 585.747 -246.46 L 382.632 -449.63 L 382.632 -446.83 C 382.252 -440.03 379.113 -432.24 374.633 -427.24 C 369.554 -422.64 361.735 -419.03 354.856 -419.03 C 347.997 -419.03 340.197 -422.64 335.078 -427.03 C 330.559 -432.24 327.339 -440.03 326.959 -446.83 L 326.959 -514.23 C 327.359 -521.62 330.839 -530.02 335.858 -535.42 C 341.398 -540.42 349.776 -544.02 357.275 -544.42 L 424.987 -544.42 C 431.846 -544.02 439.625 -540.82 444.685 -536.42 C 449.204 -531.42 452.824 -523.62 452.824 -516.62 C 452.824 -509.82 449.404 -502.23 445.104 -497.02 C 440.085 -492.42 432.286 -489.23 425.387 -488.83 L 421.808 -488.83 L 624.803 -285.45 C 629.222 -280.45 632.461 -272.85 633.041 -266.26 C 632.741 -259.46 629.742 -251.85 624.902 -246.85 C 619.843 -241.85 612.344 -237.66 605.405 -237.66 Z"/>
</svg>