<?xml version="1.0" encoding="utf-8"?>
<svg xmlns="http://www.w3.org/2000/svg" height="48" viewBox="0 -960 960 960" width="48">
  <path d="M 137.5 -94.5 C 125.753 -94.5 115.65 -98.75 107.19 -107.26 C 98.73 -115.77 94.5 -125.94 94.5 -137.76 C 94.5 -149.59 98.73 -159.83 107.19 -168.5 C 115.65 -177.17 125.753 -181.5 137.5 -181.5 L 821.5 -181.5 C 833.533 -181.5 843.877 -177.18 852.53 -168.54 C 861.177 -159.89 865.5 -149.56 865.5 -137.54 C 865.5 -125.51 861.177 -115.33 852.53 -107 C 843.877 -98.67 833.533 -94.5 821.5 -94.5 Z M 335.098 -246.85 C 330.258 -251.85 327.259 -259.46 326.959 -266.26 C 327.539 -272.85 330.778 -280.45 335.197 -285.45 L 538.192 -488.83 L 534.613 -488.83 C 527.714 -489.23 519.915 -492.42 514.896 -497.02 C 510.596 -502.23 507.176 -509.82 507.176 -516.62 C 507.176 -523.62 510.796 -531.42 515.315 -536.42 C 520.375 -540.82 528.154 -544.02 535.013 -544.42 L 602.725 -544.42 C 610.224 -544.02 618.602 -540.42 624.142 -535.42 C 629.161 -530.02 632.641 -521.62 633.041 -514.23 L 633.041 -446.83 C 632.661 -440.03 629.441 -432.24 624.922 -427.03 C 619.803 -422.64 612.003 -419.03 605.144 -419.03 C 598.265 -419.03 590.446 -422.64 585.367 -427.24 C 580.887 -432.24 577.748 -440.03 577.368 -446.83 L 577.368 -449.63 L 374.253 -246.46 C 369.274 -241.66 361.454 -237.66 354.595 -237.66 C 347.656 -237.66 340.157 -241.85 335.098 -246.85 Z M 425.589 -544.82 C 432.388 -544.42 440.147 -541.22 445.167 -536.82 C 449.526 -531.82 453.026 -524.02 453.026 -517.22 C 453.026 -510.63 449.566 -503.03 445.246 -498.03 C 440.267 -493.43 432.468 -490.23 425.589 -489.83 L 423.009 -489.83 L 434.458 -478.62 C 438.897 -473.62 442.497 -466.03 442.497 -459.23 C 442.497 -452.63 438.617 -444.63 434.178 -439.63 C 429.058 -435.23 421.539 -432.23 414.94 -431.63 C 408.161 -431.83 400.442 -434.83 395.343 -439.43 L 382.834 -451.03 L 382.834 -447.44 C 382.434 -440.64 379.134 -432.84 374.576 -427.84 C 369.456 -423.44 361.697 -420.04 354.918 -420.04 C 348.138 -420.04 340.379 -423.44 335.28 -427.84 C 330.781 -432.84 327.541 -440.64 327.161 -447.44 L 327.161 -514.83 C 327.581 -522.43 331.18 -530.62 336.22 -536.22 C 341.759 -541.03 350.058 -544.42 357.477 -544.82 Z M 625.003 -285.65 C 629.442 -280.65 633.041 -273.06 633.041 -266.26 C 633.041 -259.66 629.602 -251.86 625.262 -246.66 C 620.323 -242.06 612.544 -238.06 605.765 -238.06 C 599.225 -238.06 591.347 -241.66 586.207 -246.06 L 526.272 -306.02 C 521.732 -311.41 518.113 -319.22 518.113 -325.82 C 518.113 -332.21 521.972 -340.21 526.452 -345.21 C 531.551 -349.42 539.07 -352.61 545.669 -353.01 C 552.549 -352.82 560.527 -349.61 565.767 -344.82 Z M 137.5 -607.5 C 125.753 -607.5 115.65 -611.75 107.19 -620.26 C 98.73 -628.77 94.5 -638.94 94.5 -650.76 C 94.5 -662.59 98.73 -672.83 107.19 -681.5 C 115.65 -690.17 125.753 -694.5 137.5 -694.5 L 821.5 -694.5 C 833.533 -694.5 843.877 -690.18 852.53 -681.54 C 861.177 -672.89 865.5 -662.56 865.5 -650.54 C 865.5 -638.51 861.177 -628.33 852.53 -620 C 843.877 -611.67 833.533 -607.5 821.5 -607.5 Z M 137.5 -778.5 C 125.753 -778.5 115.65 -782.75 107.19 -791.26 C 98.73 -799.77 94.5 -809.94 94.5 -821.76 C 94.5 -833.59 98.73 -843.83 107.19 -852.5 C 115.65 -861.17 125.753 -865.5 137.5 -865.5 L 821.5 -865.5 C 833.533 -865.5 843.877 -861.18 852.53 -852.54 C 861.177 -843.89 865.5 -833.56 865.5 -821.54 C 865.5 -809.51 861.177 -799.33 852.53 -791 C 843.877 -782.67 833.533 -778.5 821.5 -778.5 Z"/>
</svg>