<?xml version="1.0" encoding="utf-8"?>
<svg xmlns="http://www.w3.org/2000/svg" height="48" viewBox="0 -960 960 960" width="48">
  <path d="M 137.5 -94.5 C 125.753 -94.5 115.65 -98.753 107.19 -107.26 C 98.73 -115.77 94.5 -125.94 94.5 -137.76 C 94.5 -149.59 98.73 -159.83 107.19 -168.5 C 115.65 -177.17 125.753 -181.5 137.5 -181.5 L 821.5 -181.5 C 833.533 -181.5 843.877 -177.18 852.53 -168.54 C 861.177 -159.89 865.5 -149.56 865.5 -137.54 C 865.5 -125.51 861.177 -115.33 852.53 -107 C 843.877 -98.667 833.533 -94.5 821.5 -94.5 L 137.5 -94.5 Z M 137.5 -607.5 C 125.753 -607.5 115.65 -611.75 107.19 -620.26 C 98.73 -628.77 94.5 -638.94 94.5 -650.76 C 94.5 -662.59 98.73 -672.83 107.19 -681.5 C 115.65 -690.17 125.753 -694.5 137.5 -694.5 L 821.5 -694.5 C 833.533 -694.5 843.877 -690.18 852.53 -681.54 C 861.177 -672.89 865.5 -662.56 865.5 -650.54 C 865.5 -638.51 861.177 -628.33 852.53 -620 C 843.877 -611.67 833.533 -607.5 821.5 -607.5 L 137.5 -607.5 Z M 137.5 -778.5 C 125.753 -778.5 115.65 -782.75 107.19 -791.26 C 98.73 -799.77 94.5 -809.94 94.5 -821.76 C 94.5 -833.59 98.73 -843.83 107.19 -852.5 C 115.65 -861.17 125.753 -865.5 137.5 -865.5 L 821.5 -865.5 C 833.533 -865.5 843.877 -861.18 852.53 -852.54 C 861.177 -843.89 865.5 -833.56 865.5 -821.54 C 865.5 -809.51 861.177 -799.33 852.53 -791 C 843.877 -782.67 833.533 -778.5 821.5 -778.5 L 137.5 -778.5 Z M 414.844 -242.98 C 414.844 -236.09 411.209 -228.12 406.57 -222.79 C 401.451 -217.89 393.52 -214.36 386.35 -213.8 C 379.217 -214.11 371.039 -217.43 365.654 -222.2 L 317.774 -270.09 C 314.981 -272.82 312.144 -276.79 310.522 -280.22 C 309.147 -283.67 308.074 -288.29 308.074 -291.99 C 308.074 -295.77 309.162 -300.4 310.55 -303.82 C 312.17 -307.23 314.585 -310.79 317.486 -313.52 L 365.592 -361.63 C 371.135 -366.58 379.577 -369.83 386.731 -370.08 C 393.855 -369.48 401.763 -365.94 406.924 -360.98 C 411.446 -355.62 414.57 -347.68 414.896 -340.67 C 414.421 -333.54 411.186 -325.78 406.277 -320.65 L 406.451 -320.82 L 555.669 -320.82 L 555.669 -359.75 C 556.073 -366.77 559.424 -374.8 564.178 -380.07 C 569.468 -384.75 577.455 -388.43 584.448 -388.43 C 591.429 -388.43 599.412 -384.79 604.749 -380.14 C 609.579 -374.88 613.007 -366.81 613.428 -359.75 L 613.428 -313.71 C 613.039 -300.41 607.613 -287.2 598.764 -277.7 C 589.327 -268.87 576.097 -263.45 562.789 -263.06 L 406.461 -263.06 L 406.247 -263.27 C 411.041 -257.97 414.844 -249.93 414.844 -242.98 Z M 392.029 -469.25 L 392.029 -430.32 C 391.613 -423.37 388.214 -415.34 383.407 -410.07 C 378.036 -405.33 370.018 -401.65 362.955 -401.65 C 355.86 -401.65 347.836 -405.4 342.555 -410.21 C 337.896 -415.48 334.658 -423.44 334.27 -430.32 L 334.27 -476.38 C 334.644 -489.65 339.972 -502.88 348.75 -512.32 C 358.157 -521.26 371.304 -526.64 384.487 -527.02 L 541.247 -527.02 L 551.745 -516.52 L 551.765 -516.52 L 542.028 -526.28 C 536.73 -531.43 532.431 -539.65 532.431 -546.93 C 532.431 -554.05 536.245 -562.13 541.101 -567.52 C 546.426 -572.36 554.306 -575.74 561.294 -576.27 C 568.5 -576.05 576.634 -572.76 582.044 -567.88 L 630.177 -519.75 C 632.841 -516.95 635.548 -512.86 637.084 -509.58 C 638.508 -506.03 639.624 -501.43 639.624 -497.84 C 639.624 -494.25 638.477 -489.62 637.021 -486.13 C 635.361 -482.61 632.705 -478.8 630.212 -476.14 L 581.722 -427.66 C 576.119 -422.99 567.96 -419.88 560.848 -419.67 C 553.753 -420.24 545.862 -423.74 540.736 -428.49 C 536.029 -433.85 532.744 -441.87 532.38 -448.99 C 532.881 -456.18 536.251 -464.11 541.425 -469.45 L 541.227 -469.25 L 392.029 -469.25 Z"/>
</svg>