<?xml version="1.0" encoding="utf-8"?>
<svg xmlns="http://www.w3.org/2000/svg" height="48" viewBox="0 -960 960 960" width="48">
  <path d="M 137.5 -94.5 C 125.753 -94.5 115.65 -98.75 107.19 -107.26 C 98.73 -115.77 94.5 -125.94 94.5 -137.76 C 94.5 -149.59 98.73 -159.83 107.19 -168.5 C 115.65 -177.17 125.753 -181.5 137.5 -181.5 L 821.5 -181.5 C 833.533 -181.5 843.877 -177.18 852.53 -168.54 C 861.177 -159.89 865.5 -149.56 865.5 -137.54 C 865.5 -125.51 861.177 -115.33 852.53 -107 C 843.877 -98.67 833.533 -94.5 821.5 -94.5 Z M 335.098 -246.85 C 330.258 -251.85 327.259 -259.46 326.959 -266.26 C 327.539 -272.85 330.778 -280.45 335.197 -285.45 L 538.192 -488.83 L 534.613 -488.83 C 527.714 -489.23 519.915 -492.42 514.896 -497.02 C 510.596 -502.23 507.176 -509.82 507.176 -516.62 C 507.176 -523.62 510.796 -531.42 515.315 -536.42 C 520.375 -540.82 528.154 -544.02 535.013 -544.42 L 602.725 -544.42 C 610.224 -544.02 618.602 -540.42 624.142 -535.42 C 629.161 -530.02 632.641 -521.62 633.041 -514.23 L 633.041 -446.83 C 632.661 -440.03 629.441 -432.24 624.922 -427.03 C 619.803 -422.64 612.003 -419.03 605.144 -419.03 C 598.265 -419.03 590.446 -422.64 585.367 -427.24 C 580.887 -432.24 577.748 -440.03 577.368 -446.83 L 577.368 -449.63 L 374.253 -246.46 C 369.274 -241.66 361.454 -237.66 354.595 -237.66 C 347.656 -237.66 340.157 -241.85 335.098 -246.85 Z M 534.613 -238.06 C 527.814 -238.46 520.055 -241.66 515.035 -246.06 C 510.676 -251.06 507.176 -258.86 507.176 -265.66 C 507.176 -272.25 510.636 -279.85 514.956 -284.85 C 519.935 -289.45 527.734 -292.65 534.613 -293.05 L 537.193 -293.05 L 525.744 -304.26 C 521.305 -309.26 517.705 -316.85 517.705 -323.65 C 517.705 -330.25 521.585 -338.25 526.024 -343.25 C 531.144 -347.65 538.663 -350.65 545.262 -351.25 C 552.041 -351.05 559.76 -348.05 564.859 -343.45 L 577.368 -331.85 L 577.368 -335.44 C 577.768 -342.24 581.068 -350.04 585.626 -355.04 C 590.746 -359.44 598.505 -362.84 605.284 -362.84 C 612.064 -362.84 619.823 -359.44 624.922 -355.04 C 629.421 -350.04 632.661 -342.24 633.041 -335.44 L 633.041 -268.05 C 632.621 -260.45 629.022 -252.26 623.982 -246.66 C 618.443 -241.85 610.144 -238.46 602.725 -238.06 Z M 335.197 -497.23 C 330.758 -502.23 327.159 -509.82 327.159 -516.62 C 327.159 -523.22 330.598 -531.02 334.938 -536.22 C 339.877 -540.82 347.656 -544.82 354.435 -544.82 C 360.975 -544.82 368.853 -541.22 373.993 -536.82 L 433.928 -476.86 C 438.468 -471.47 442.087 -463.66 442.087 -457.06 C 442.087 -450.67 438.228 -442.67 433.748 -437.67 C 428.649 -433.46 421.13 -430.27 414.531 -429.87 C 407.651 -430.06 399.673 -433.27 394.433 -438.06 Z M 137.5 -607.5 C 125.753 -607.5 115.65 -611.75 107.19 -620.26 C 98.73 -628.77 94.5 -638.94 94.5 -650.76 C 94.5 -662.59 98.73 -672.83 107.19 -681.5 C 115.65 -690.17 125.753 -694.5 137.5 -694.5 L 821.5 -694.5 C 833.533 -694.5 843.877 -690.18 852.53 -681.54 C 861.177 -672.89 865.5 -662.56 865.5 -650.54 C 865.5 -638.51 861.177 -628.33 852.53 -620 C 843.877 -611.67 833.533 -607.5 821.5 -607.5 Z M 137.5 -778.5 C 125.753 -778.5 115.65 -782.75 107.19 -791.26 C 98.73 -799.77 94.5 -809.94 94.5 -821.76 C 94.5 -833.59 98.73 -843.83 107.19 -852.5 C 115.65 -861.17 125.753 -865.5 137.5 -865.5 L 821.5 -865.5 C 833.533 -865.5 843.877 -861.18 852.53 -852.54 C 861.177 -843.89 865.5 -833.56 865.5 -821.54 C 865.5 -809.51 861.177 -799.33 852.53 -791 C 843.877 -782.67 833.533 -778.5 821.5 -778.5 Z"/>
</svg>