<?xml version="1.0" encoding="utf-8"?>
<svg xmlns="http://www.w3.org/2000/svg" height="48" viewBox="0 -960 960 960" width="48">
  <path d="M 472.893 -161.61 C 442.789 -161.61 414.214 -167.09 387.172 -178.06 C 360.129 -189.03 336.147 -205.23 315.227 -226.66 C 294.308 -247.07 278.362 -270.67 267.392 -297.46 C 256.422 -324.25 250.937 -352.95 250.937 -383.56 C 250.937 -426.94 261.78 -466.22 283.465 -501.43 C 291.086 -513.8 299.574 -525.01 308.928 -535.05 L 248.836 -535.05 C 235.689 -535.05 224.597 -539.45 215.54 -548.62 C 206.483 -557.8 201.953 -568.77 201.953 -582.14 C 201.953 -595.31 206.483 -606.28 215.54 -615.25 C 224.597 -624.24 235.689 -628.82 248.836 -628.82 L 403.189 -628.82 C 405.668 -631.55 408.238 -634.24 410.898 -636.9 C 426.793 -652.79 444.508 -666.06 464.04 -676.7 C 469.335 -685.88 475.278 -693.61 481.86 -699.91 C 482.84 -701.5 483.842 -703.07 484.865 -704.63 L 328.635 -704.63 C 315.488 -704.63 304.397 -709.01 295.339 -718.2 C 286.281 -727.37 281.753 -738.34 281.753 -751.71 C 281.753 -764.88 286.281 -775.85 295.339 -784.82 C 304.397 -793.8 315.488 -798.39 328.635 -798.39 L 657.806 -798.39 C 658.975 -798.39 660.105 -798.37 661.198 -798.33 C 662.97 -798.37 664.748 -798.39 666.53 -798.39 C 696.634 -798.39 725.081 -792.91 751.869 -781.94 C 778.656 -770.97 802.255 -754.77 822.665 -733.34 C 843.075 -712.42 859.02 -688.56 870.5 -661.77 C 881.981 -634.99 887.721 -606.54 887.721 -576.44 C 887.721 -535.62 878.537 -498.5 860.168 -465.07 C 841.799 -431.65 811.695 -403.97 769.855 -382.03 C 761.181 -363.15 747.276 -343.51 728.142 -323.1 C 709.008 -302.69 688.981 -288.4 668.061 -280.24 C 651.223 -244.01 625.711 -215.18 591.524 -193.75 C 557.338 -172.32 517.794 -161.61 472.893 -161.61 Z M 474.423 -225.13 C 493.303 -224.62 511.926 -228.58 530.295 -237 C 548.664 -245.41 562.695 -256.77 572.39 -271.06 C 542.286 -269.01 513.585 -272.71 486.287 -282.15 C 458.988 -291.59 434.879 -306.26 413.96 -326.16 C 393.04 -346.57 377.987 -370.17 368.803 -396.96 C 359.619 -423.75 356.047 -452.19 358.088 -482.3 C 344.311 -471.07 333.596 -456.53 325.942 -438.67 C 318.289 -420.81 314.462 -402.44 314.462 -383.56 C 314.462 -361.62 318.289 -341.09 325.942 -321.95 C 333.596 -302.82 345.077 -285.85 360.384 -271.06 C 375.181 -256.77 392.274 -245.67 411.663 -237.76 C 431.052 -229.85 451.973 -225.64 474.423 -225.13 Z M 570.86 -322.33 C 589.228 -322.33 607.087 -326.16 624.435 -333.81 C 641.784 -341.47 656.326 -352.18 668.061 -365.96 C 638.467 -363.92 610.021 -367.87 582.723 -377.82 C 555.424 -387.77 531.571 -403.21 511.161 -424.13 C 490.241 -445.56 474.934 -469.8 465.239 -496.84 C 455.544 -523.88 452.228 -552.46 455.289 -582.56 C 438.451 -565.21 426.971 -549.27 420.848 -534.72 C 414.725 -520.18 411.663 -501.94 411.663 -480 C 411.663 -458.06 415.618 -437.52 423.527 -418.39 C 431.435 -399.25 442.789 -382.29 457.585 -367.49 C 472.382 -352.69 489.476 -341.47 508.865 -333.81 C 528.254 -326.16 548.919 -322.33 570.86 -322.33 Z M 669.592 -421.07 C 678.266 -421.07 686.43 -421.83 694.083 -423.36 C 701.737 -424.89 710.921 -427.7 721.637 -431.78 C 730.31 -459.85 731.204 -487.78 724.315 -515.59 C 717.427 -543.4 702.757 -568.27 680.307 -590.21 C 660.407 -610.62 635.022 -624.53 604.153 -631.92 C 573.283 -639.32 544.837 -639.45 518.815 -632.31 C 516.264 -623.12 514.477 -614.45 513.457 -606.28 C 512.437 -598.12 511.926 -588.43 511.926 -577.2 C 511.926 -556.28 515.753 -536.13 523.407 -516.74 C 531.06 -497.35 542.541 -480.25 557.848 -465.46 C 572.645 -449.64 589.611 -438.29 608.745 -431.4 C 627.879 -424.51 648.161 -421.07 669.592 -421.07 Z M 785.927 -478.47 C 799.193 -489.69 808.888 -503.22 815.011 -519.03 C 821.134 -534.85 824.196 -554.24 824.196 -577.2 C 824.196 -598.63 820.369 -618.79 812.715 -637.66 C 805.061 -656.54 793.836 -673.64 779.039 -688.95 C 763.732 -703.74 746.639 -715.1 727.76 -723 C 708.88 -730.91 688.981 -734.87 668.061 -734.87 C 647.141 -734.87 628.007 -731.55 610.659 -724.92 C 593.31 -718.28 578.003 -708.08 564.737 -694.3 C 593.821 -695.83 622.267 -691.5 650.075 -681.29 C 677.883 -671.09 702.757 -655.27 724.698 -633.84 C 746.639 -612.41 762.711 -588.43 772.916 -561.89 C 783.121 -535.36 787.458 -507.55 785.927 -478.47 Z M 119.162 -365.48 C 106.015 -365.48 94.923 -369.88 85.866 -379.05 C 76.81 -388.23 72.28 -399.21 72.28 -412.56 C 72.28 -425.74 76.81 -436.7 85.866 -445.67 C 94.923 -454.67 106.015 -459.24 119.162 -459.24 L 155.071 -459.24 C 168.198 -459.24 179.291 -454.67 188.369 -445.47 C 197.425 -436.5 201.953 -425.34 201.953 -412.17 C 201.953 -398.99 197.425 -387.83 188.369 -378.85 C 179.291 -369.88 168.198 -365.48 155.071 -365.48 L 119.162 -365.48 Z" style=""/>
</svg>