<?xml version="1.0" encoding="utf-8"?>
<svg xmlns="http://www.w3.org/2000/svg" height="48" viewBox="0 96 960 960" width="48">
  <path d="M 667 867 L 791 867 C 791 891 783 911.667 767 929 C 751 946.333 731 956 707 958 L 211 1016 C 184.773 1018.667 161.549 1012.5 141.329 997.5 C 121.11 982.5 109.333 962 106 936 L 44 457 C 40.667 431 47.063 407.417 63.19 386.25 C 79.315 365.083 100.251 353 126 350 L 191 343 L 191 438 L 138 444 L 200 924 L 667 867 Z M 345 807 C 319.167 807 297.042 797.869 278.625 779.606 C 260.208 761.344 251 738.809 251 712 L 251 229 C 251 203.167 260.208 181.042 278.625 162.625 C 297.042 144.208 319.167 135 345 135 L 829 135 C 855.809 135 878.344 144.208 896.606 162.625 C 914.869 181.042 924 203.167 924 229 L 924 712 C 924 738.809 914.869 761.344 896.606 779.606 C 878.344 797.869 855.809 807 829 807 L 345 807 Z M 345 712 L 829 712 L 829 229 L 345 229 L 345 712 Z M 200 924 Z M 345 712 L 345 229 L 345 712 Z"/>
</svg>