<?xml version="1.0" encoding="utf-8"?>
<svg xmlns="http://www.w3.org/2000/svg" height="48" viewBox="0 -960 960 960" width="48">
  <path d="M 479 -57 C 426.333 -57 376.667 -67 330 -87 C 283.333 -107 242.5 -134.333 207.5 -169 C 172.5 -203.667 145 -244.333 125 -291 C 105 -337.667 95 -387.577 95 -440.73 C 95 -493.89 105 -543.723 125 -590.23 C 145 -636.743 172.5 -677.5 207.5 -712.5 C 242.5 -747.5 283.333 -775.167 330 -795.5 C 376.667 -815.833 426.333 -826 479 -826 C 531.667 -826 581.333 -815.833 628 -795.5 C 674.667 -775.167 715.5 -747.5 750.5 -712.5 C 785.5 -677.5 813.167 -636.743 833.5 -590.23 C 853.833 -543.723 864 -493.89 864 -440.73 C 864 -387.577 853.833 -337.667 833.5 -291 C 813.167 -244.333 785.497 -203.587 750.49 -168.76 C 715.483 -133.933 674.65 -106.6 627.99 -86.76 C 581.33 -66.92 531.667 -57 479 -57 Z M 43.34 -695 C 35.78 -702.513 32.333 -710.89 33 -720.13 C 33.667 -729.377 37.667 -738 45 -746 L 178 -875 C 185.333 -881.667 193.833 -884.833 203.5 -884.5 C 213.167 -884.167 221.333 -880.553 228 -873.66 C 236 -866.093 239.833 -857.65 239.5 -848.33 C 239.167 -839.003 235 -830.56 227 -823 L 94 -694 C 86.44 -686.667 77.83 -683.167 68.17 -683.5 C 58.517 -683.833 50.24 -687.667 43.34 -695 Z M 914.66 -695 C 907.76 -687.667 899.483 -683.833 889.83 -683.5 C 880.17 -683.167 871.56 -686.667 864 -694 L 731 -823 C 723 -829.893 718.833 -838.17 718.5 -847.83 C 718.167 -857.483 722 -866.093 730 -873.66 C 736.667 -880.553 744.833 -884.167 754.5 -884.5 C 764.167 -884.833 772.883 -881.45 780.65 -874.35 L 914 -745 C 921.333 -737.993 925.167 -729.74 925.5 -720.24 C 925.833 -710.747 922.22 -702.333 914.66 -695 Z M 478.86 -151 C 559.62 -151 628.167 -179.12 684.5 -235.36 C 740.833 -291.607 769 -360.107 769 -440.86 C 769 -521.62 740.88 -590.167 684.64 -646.5 C 628.393 -702.833 559.893 -731 479.14 -731 C 398.38 -731 329.833 -702.88 273.5 -646.64 C 217.167 -590.393 189 -521.893 189 -441.14 C 189 -360.38 217.12 -291.833 273.36 -235.5 C 329.607 -179.167 398.107 -151 478.86 -151 Z M 429.35 -240.258 C 405.337 -240.258 382.813 -249.943 365.652 -266.541 C 349.092 -283.665 339.384 -306.16 339.384 -330.218 C 339.384 -354.266 349.091 -376.758 365.65 -393.873 C 382.811 -410.5 405.335 -420.198 429.35 -420.198 C 437.281 -420.198 445.327 -419.032 451.937 -417.04 C 452.281 -416.932 452.59 -416.836 452.867 -416.75 L 452.867 -595.958 C 453.252 -604.22 456.916 -613.414 462.309 -619.649 C 468.443 -625.37 477.691 -629.235 486.09 -629.648 L 576.404 -629.648 C 584.791 -629.236 594.064 -625.354 600.202 -619.632 C 605.593 -613.398 609.242 -604.221 609.628 -595.958 L 609.628 -560.478 C 609.217 -552.051 605.43 -542.924 600.017 -536.814 C 593.897 -531.341 584.724 -527.643 576.404 -527.258 L 519.314 -527.258 L 519.314 -330.218 C 518.897 -306.158 509.598 -283.662 493.047 -266.541 C 475.878 -249.943 453.352 -240.258 429.35 -240.258 Z"/>
</svg>