<?xml version="1.0" encoding="utf-8"?>
<svg xmlns="http://www.w3.org/2000/svg" height="48" viewBox="0 -960 960 960" width="48">
  <path d="M 231.18 -367.07 C 218.013 -367.07 206.89 -371.63 197.81 -380.75 C 188.723 -389.86 184.18 -401.03 184.18 -414.25 C 184.18 -427.46 188.723 -438.57 197.81 -447.57 C 206.89 -456.57 218.013 -461.07 231.18 -461.07 L 727.82 -461.07 C 740.987 -461.07 752.28 -456.5 761.7 -447.38 C 771.113 -438.27 775.82 -427.11 775.82 -413.88 C 775.82 -400.67 771.113 -389.57 761.7 -380.57 C 752.28 -371.57 740.987 -367.07 727.82 -367.07 L 231.18 -367.07 Z M 686.814 -601.06 C 676.654 -601.06 667.9 -604.79 660.549 -612.04 C 653.199 -619.48 649.512 -628.27 649.512 -638.8 C 649.512 -649.11 653.199 -658.09 660.549 -665.57 C 667.9 -673.03 676.654 -676.98 686.814 -676.98 L 739.47 -676.98 L 739.47 -728.54 C 739.47 -738.85 742.938 -747.84 749.898 -755.53 C 756.849 -762.98 765.733 -766.94 776.573 -766.94 C 787.106 -766.94 796.167 -762.98 803.782 -755.53 C 811.379 -747.84 815.171 -738.85 815.171 -728.54 L 815.171 -676.98 L 866.735 -676.98 C 876.896 -676.98 885.674 -673.03 893.022 -665.57 C 900.37 -658.09 904.04 -649.11 904.04 -638.57 C 904.04 -628.48 900.37 -619.7 893.022 -612.24 C 885.674 -604.79 876.896 -601.06 866.735 -601.06 L 815.171 -601.06 L 815.171 -549.7 C 815.171 -539.18 811.509 -530.19 804.202 -522.49 C 796.895 -515.05 787.809 -511.31 776.969 -511.31 C 766.129 -511.31 757.157 -515.05 750.092 -522.49 C 743.002 -530.19 739.47 -539.18 739.47 -549.7 L 739.47 -601.06 L 686.814 -601.06 Z"/>
</svg>