<?xml version="1.0" encoding="utf-8"?>
<svg xmlns="http://www.w3.org/2000/svg" height="48" viewBox="0 -960 960 960" width="48">
  <path d="M 157 -92 C 131.133 -92 109 -101.2 90.6 -119.6 C 72.2 -138 63 -160.133 63 -186 L 63 -848 C 63 -853.387 65.333 -857.067 70 -859.04 C 74.667 -861.013 79 -860.333 83 -857 L 135 -807 L 187 -859 C 191.547 -863.667 197.183 -866 203.91 -866 C 210.637 -866 216.333 -863.667 221 -859 L 273 -807 L 326 -859 C 329.76 -863.667 335.123 -866 342.09 -866 C 349.063 -866 355.033 -863.667 360 -859 L 411 -808 L 463 -858 C 467.547 -863.333 473.183 -866 479.91 -866 C 486.637 -866 492.333 -863.333 497 -858 L 549 -808 L 601 -859 C 604.76 -863.667 610.123 -866 617.09 -866 C 624.063 -866 630.033 -863.667 635 -859 L 687 -807 L 739 -859 C 743.547 -863.667 749.183 -866 755.91 -866 C 762.637 -866 768.333 -863.667 773 -859 L 825 -807 L 877 -857 C 881 -860.333 885.333 -861.013 890 -859.04 C 894.667 -857.067 897 -853.387 897 -848 L 897 -186 C 897 -160.133 887.8 -138 869.4 -119.6 C 851 -101.2 828.867 -92 803 -92 Z M 157 -186 L 439 -186 L 439 -466 L 157 -466 Z M 521 -186 L 803 -186 L 803 -284 L 521 -284 Z M 521 -367 L 803 -367 L 803 -466 L 521 -466 Z M 157 -549 L 803 -549 L 803 -646 L 157 -646 Z M 330.803 -409.94 C 331.969 -411.16 333.176 -412.18 334.444 -413.21 C 340.171 -417.5 346.798 -419.96 354.509 -419.96 C 354.795 -419.96 355.082 -419.96 355.347 -419.96 C 355.9 -419.96 356.431 -419.96 356.963 -419.96 C 365.554 -419.75 372.999 -416.48 379.38 -410.55 C 379.625 -410.35 379.891 -409.94 380.137 -409.73 C 387.009 -402.98 390.486 -394.6 390.588 -384.78 C 390.711 -374.96 387.398 -366.78 380.71 -360.03 L 346 -325.26 L 379.973 -291.31 C 386.886 -284.35 390.548 -276.17 390.936 -266.56 C 391.345 -257.15 387.97 -248.76 380.832 -241.61 C 380.812 -241.61 380.812 -241.61 380.791 -241.61 C 373.858 -234.65 365.41 -231.17 355.429 -231.17 C 346.021 -231.17 337.983 -234.04 331.315 -240.17 C 330.885 -240.58 330.476 -240.99 330.088 -241.4 L 296.094 -275.35 L 262.101 -241.4 C 255.413 -234.65 247.17 -231.38 237.414 -231.58 C 227.678 -231.58 219.374 -235.06 212.44 -242.01 C 212.358 -242.01 212.297 -242.01 212.215 -242.22 C 205.547 -248.76 202.193 -256.94 202.111 -266.76 C 202.05 -275.15 204.586 -282.31 209.495 -288.24 C 210.333 -289.47 211.233 -290.28 212.215 -291.31 L 246.188 -325.26 L 212.072 -359.42 C 205.282 -366.17 201.764 -374.55 201.498 -384.57 C 201.416 -394.19 204.791 -402.78 211.929 -409.94 C 219.088 -417.09 227.596 -420.37 237.168 -420.16 C 246.863 -419.75 255.106 -416.28 261.876 -409.32 C 261.958 -409.32 262.039 -409.32 262.101 -409.12 L 296.094 -375.17 Z"/>
</svg>