<?xml version="1.0" encoding="utf-8"?>
<svg xmlns="http://www.w3.org/2000/svg" height="48" viewBox="0 -960 960 960" width="48">
  <path d="M 184.233 -96.31 C 157.7 -96.31 135.4 -105.34 117.333 -123.41 C 99.266 -141.48 90.233 -163.78 90.233 -190.31 L 90.233 -314.31 C 90.233 -327.48 94.793 -338.61 103.913 -347.69 C 113.026 -356.77 124.193 -361.31 137.413 -361.31 C 150.626 -361.31 161.733 -356.77 170.733 -347.69 C 179.733 -338.61 184.233 -327.48 184.233 -314.31 L 184.233 -190.31 L 686.233 -190.31 L 686.233 -314.31 C 686.233 -327.48 690.793 -338.61 699.913 -347.69 C 709.026 -356.77 720.163 -361.31 733.323 -361.31 C 746.476 -361.31 757.75 -356.77 767.143 -347.69 C 776.536 -338.61 781.233 -327.48 781.233 -314.31 L 781.233 -190.31 C 781.233 -163.78 772.103 -141.48 753.843 -123.41 C 735.576 -105.34 713.04 -96.31 686.233 -96.31 L 184.233 -96.31 Z M 766.618 -643.94 L 618.622 -791.93 C 610.263 -800.37 606.227 -810.23 606.514 -821.53 C 606.819 -833.01 611.16 -842.88 619.519 -851.13 C 627.897 -859.56 637.907 -863.69 649.567 -863.69 C 661.227 -863.69 671.255 -859.56 679.614 -851.13 L 856.312 -674.43 C 860.509 -670.31 863.792 -665.47 866.178 -660.08 C 868.582 -654.7 869.766 -649.32 869.766 -643.94 C 869.766 -638.56 868.582 -633.18 866.178 -627.79 C 863.792 -622.41 860.509 -617.75 856.312 -613.44 L 678.717 -435.85 C 670.358 -427.6 660.492 -423.47 649.118 -423.83 C 637.763 -424.01 627.897 -428.49 619.519 -436.75 C 611.16 -445.18 606.962 -455.22 606.962 -466.88 C 606.962 -478.54 611.16 -488.59 619.519 -496.84 L 766.618 -643.94 Z"/>
</svg>