<?xml version="1.0" encoding="utf-8"?>
<svg viewBox="0 0 22 22" xmlns="http://www.w3.org/2000/svg">
  <path d="M 12.986 3.812 C 13.948 4.69 14.5 5.979 14.5 7.49 C 14.5 8.144 14.406 8.774 14.227 9.292 C 14.048 9.809 13.754 10.329 13.395 10.788 C 13.04 11.241 12.345 11.907 11.342 12.758 C 10.534 13.462 9.5 14.321 9.49 14.901 L 9.491 14.905 C 9.519 15.052 9.481 15.203 9.386 15.318 C 9.291 15.433 9.149 15.5 9 15.5 L 7 15.5 C 6.863 15.5 6.732 15.444 6.637 15.344 C 6.543 15.244 6.493 15.11 6.501 14.973 C 6.71 12.919 7.953 11.955 9.027 10.974 C 9.915 10.213 10.475 9.693 10.732 9.381 C 10.988 9.082 11.141 8.828 11.234 8.54 C 11.338 8.252 11.379 7.945 11.379 7.539 C 11.379 6.81 11.206 6.39 10.768 6.022 C 10.32 5.645 9.737 5.477 8.82 5.477 C 8.195 5.477 7.614 5.55 7.013 5.71 C 6.415 5.868 5.759 6.124 4.998 6.5 C 4.875 6.56 4.733 6.567 4.605 6.52 C 4.476 6.473 4.373 6.376 4.318 6.25 L 3.541 4.463 C 3.438 4.225 3.534 3.947 3.763 3.824 C 5.382 2.96 7.156 2.5 8.969 2.5 C 10.607 2.5 12.001 2.969 12.986 3.812 Z M 19.561 15.854 L 16.061 19.354 C 15.865 19.549 15.549 19.549 15.353 19.354 L 14.646 18.647 C 14.451 18.451 14.451 18.135 14.646 17.939 L 16.086 16.5 L 13 16.5 C 12.724 16.5 12.5 16.276 12.5 16 L 12.5 15 C 12.5 14.724 12.724 14.5 13 14.5 L 16.086 14.5 L 14.646 13.061 C 14.451 12.865 14.451 12.549 14.646 12.353 L 15.353 11.646 C 15.549 11.451 15.865 11.451 16.061 11.646 L 19.561 15.146 C 19.756 15.342 19.756 15.658 19.561 15.854 Z M 9.5 17 L 9.5 19 C 9.5 19.276 9.276 19.5 9 19.5 L 7 19.5 C 6.724 19.5 6.5 19.276 6.5 19 L 6.5 17 C 6.5 16.724 6.724 16.5 7 16.5 L 9 16.5 C 9.276 16.5 9.5 16.724 9.5 17 Z"/>
</svg>