<?xml version="1.0" encoding="utf-8"?>
<svg viewBox="0 0 22 22" xmlns="http://www.w3.org/2000/svg">
  <path d="M 5.5 3 L 5.5 16.5 L 12 16.5 C 12.276 16.5 12.5 16.724 12.5 17 L 12.5 18 C 12.5 18.276 12.276 18.5 12 18.5 L 5.5 18.5 L 5.5 19 C 5.5 19.276 5.276 19.5 5 19.5 L 4 19.5 C 3.724 19.5 3.5 19.276 3.5 19 L 3.5 18.5 L 3 18.5 C 2.724 18.5 2.5 18.276 2.5 18 L 2.5 17 C 2.5 16.724 2.724 16.5 3 16.5 L 3.5 16.5 L 3.5 3 C 3.5 2.724 3.724 2.5 4 2.5 L 5 2.5 C 5.276 2.5 5.5 2.724 5.5 3 Z M 13.374 3.627 C 14.07 4.355 14.5 5.44 14.5 6.5 C 14.5 7.37 14.221 8.193 13.84 8.757 C 13.824 8.78 13.805 8.802 13.785 8.823 C 13.076 9.528 12.163 10.073 11.5 10.708 L 11.5 11 C 11.5 11.276 11.276 11.5 11 11.5 L 9 11.5 C 8.724 11.5 8.5 11.276 8.5 11 L 8.5 10.5 C 8.573 9.548 9.222 8.797 9.818 8.342 C 10.341 7.899 10.924 7.488 11.408 7 C 11.487 6.891 11.5 6.853 11.5 6.5 C 11.5 6.077 11.436 5.911 11.251 5.748 C 11.087 5.562 10.923 5.5 10.5 5.5 C 10.077 5.5 9.911 5.564 9.748 5.749 C 9.562 5.913 9.477 6.077 9.5 6.5 C 9.5 6.776 9.276 7 9 7 L 7 7 C 6.724 7 6.5 6.776 6.5 6.5 C 6.516 5.44 6.931 4.355 7.627 3.626 C 8.355 2.93 9.44 2.5 10.5 2.5 C 11.56 2.5 12.645 2.931 13.374 3.627 Z M 18.5 3 L 18.5 10 C 18.5 10.276 18.276 10.5 18 10.5 L 17 10.5 C 16.724 10.5 16.5 10.276 16.5 10 L 16.5 3 C 16.5 2.724 16.724 2.5 17 2.5 L 18 2.5 C 18.276 2.5 18.5 2.724 18.5 3 Z M 19.561 15.854 L 16.061 19.354 C 15.865 19.549 15.549 19.549 15.353 19.354 L 14.646 18.647 C 14.451 18.451 14.451 18.135 14.646 17.939 L 16.086 16.5 L 13 16.5 C 12.724 16.5 12.5 16.276 12.5 16 L 12.5 15 C 12.5 14.724 12.724 14.5 13 14.5 L 16.086 14.5 L 14.646 13.061 C 14.451 12.865 14.451 12.549 14.646 12.353 L 15.353 11.646 C 15.549 11.451 15.865 11.451 16.061 11.646 L 19.561 15.146 C 19.756 15.342 19.756 15.658 19.561 15.854 Z M 11.5 13 L 11.5 15 C 11.5 15.276 11.276 15.5 11 15.5 L 9 15.5 C 8.724 15.5 8.5 15.276 8.5 15 L 8.5 13 C 8.5 12.724 8.724 12.5 9 12.5 L 11 12.5 C 11.276 12.5 11.5 12.724 11.5 13 Z"/>
</svg>