<?xml version="1.0" encoding="utf-8"?>
<svg xmlns="http://www.w3.org/2000/svg" height="48" viewBox="0 -960 960 960" width="48">
  <path d="M 726.77 -323.85 L 615.013 -323.85 L 615.013 -306.26 C 615.013 -286.65 607.954 -269.85 593.834 -255.87 C 579.713 -241.86 562.773 -234.86 542.953 -234.86 L 417.051 -234.86 C 396.97 -234.86 379.93 -241.86 365.97 -255.87 C 351.99 -269.85 345.01 -286.65 345.01 -306.26 L 345.01 -323.86 L 229.285 -323.86 C 220.857 -306.69 208.507 -292.88 192.221 -282.33 C 188.395 -279.84 184.448 -277.65 180.394 -275.72 C 166.146 -268.59 150.456 -264.96 133.335 -264.96 C 103.973 -264.96 79.116 -275.09 58.733 -295.32 C 38.365 -315.57 28.165 -340.46 28.162 -369.8 C 28.166 -399.35 38.362 -424.26 58.73 -444.5 C 79.11 -464.95 103.969 -475.28 133.339 -475.27 C 149.392 -475.27 164.2 -472.19 177.731 -465.86 C 182.731 -463.71 187.56 -461.13 192.219 -458.1 C 208.575 -447.51 220.96 -433.46 229.384 -416.15 L 294.157 -416.15 C 263.976 -454.77 248.345 -499.48 247.351 -550.31 C 247.312 -552.03 247.294 -553.76 247.294 -555.48 L 247.294 -681.09 L 247.312 -681.09 C 247.581 -693.35 251.967 -703.68 260.318 -712.12 C 268.936 -720.73 279.662 -724.95 292.495 -724.95 C 305.116 -724.95 315.842 -720.73 324.46 -712.12 C 333.08 -703.5 337.484 -692.78 337.484 -679.94 L 337.484 -554.52 C 337.484 -525.56 345.139 -499.73 360.535 -477.25 C 362.211 -479.31 364.023 -481.31 365.97 -483.26 C 379.93 -497.05 396.97 -504.27 417.051 -504.27 L 542.953 -504.27 C 562.773 -504.27 579.713 -497.05 593.834 -483.26 C 595.838 -481.27 597.701 -479.23 599.42 -477.13 C 614.935 -499.61 622.692 -525.45 622.692 -554.52 L 622.692 -680.13 C 622.692 -692.96 627.001 -703.68 635.62 -712.31 C 644.239 -720.92 654.945 -725.14 667.701 -725.14 C 680.477 -725.14 691.164 -720.92 699.782 -712.31 C 708.402 -703.68 712.711 -692.96 712.711 -680.13 L 712.711 -555.48 C 712.711 -502.59 697.127 -456.15 665.948 -416.15 L 726.669 -416.15 C 735.094 -433.46 747.477 -447.51 763.833 -458.09 C 775.82 -465.86 788.934 -470.77 803.179 -472.86 C 810.685 -474.46 818.52 -475.27 826.682 -475.27 C 856.054 -475.27 880.908 -464.95 901.271 -444.5 C 921.658 -424.26 931.834 -399.35 931.838 -369.79 C 931.833 -340.46 921.653 -315.57 901.273 -295.3 C 880.906 -275.09 856.051 -264.96 826.686 -264.96 C 818.583 -264.96 810.799 -265.78 803.344 -267.39 C 789.039 -269.52 775.866 -274.52 763.829 -282.32 C 747.546 -292.88 735.196 -306.67 726.77 -323.85 Z M 417.051 -306.26 L 542.953 -306.26 L 542.953 -432.86 L 417.051 -432.86 L 417.051 -306.26 Z" style="stroke-width: 0.003;"/>
</svg>