<?xml version="1.0" encoding="utf-8"?>
<svg width="100%" height="100%" viewBox="0 0 48 48" version="1.1" xmlns="http://www.w3.org/2000/svg" style="fill-rule:evenodd;clip-rule:evenodd;stroke-linejoin:round;stroke-miterlimit:2;">
  <path d="M 13.41 12.152 C 12.47 13.436 10.952 14.271 9.24 14.271 C 6.378 14.271 4.066 11.955 4.066 9.1 C 4.066 6.244 6.378 3.929 9.24 3.929 C 11.453 3.929 13.342 5.323 14.077 7.282 C 16.946 7.811 19.68 8.701 22.279 9.951 C 25.813 11.651 28.929 13.86 31.629 16.576 C 34.329 19.293 36.512 22.435 38.179 26.001 C 39.388 28.588 40.246 31.296 40.753 34.128 C 42.621 34.907 43.934 36.749 43.934 38.896 C 43.934 41.759 41.619 44.071 38.763 44.071 C 35.909 44.071 33.593 41.759 33.593 38.896 C 33.593 37.112 34.499 35.538 35.878 34.61 C 35.422 32.288 34.684 30.07 33.662 27.957 C 32.195 24.924 30.295 22.249 27.962 19.932 C 25.629 17.616 22.937 15.732 19.887 14.282 C 17.823 13.301 15.664 12.591 13.41 12.152 Z" style="stroke-width: 0.05;"/>
</svg>