<?xml version="1.0" encoding="utf-8"?>
<svg xmlns="http://www.w3.org/2000/svg" height="48" viewBox="0 -960 960 960" width="48">
  <path d="M 735.56 -95 C 735.51 -95 735.48 -95 735.43 -95 C 735.4 -95 735.36 -95 735.32 -95 C 699.1 -95 668.285 -107.44 642.926 -132.52 C 625.53 -149.91 614.094 -169.65 608.642 -192.18 C 606.134 -202.43 604.869 -213.31 604.869 -224.56 L 604.869 -224.96 C 604.869 -260.89 617.57 -291.72 642.968 -317 C 668.345 -342.27 699.18 -355.12 735.43 -355.12 C 771.69 -355.12 802.55 -342.46 827.94 -317.18 C 853.32 -291.92 866 -261.3 866 -225.16 C 866 -224.96 866 -224.96 866 -224.75 C 866 -224.75 866 -224.75 866 -224.56 C 866 -209.35 863.75 -195.14 859.27 -182.1 C 853.06 -163.74 842.66 -147.15 827.98 -132.52 C 802.6 -107.44 771.8 -95 735.56 -95 Z M 697.93 -187.25 C 708.3 -176.97 721.87 -171.63 735.43 -171.63 C 742.72 -171.63 749.97 -173.01 756.75 -176.18 C 762.67 -178.76 768.22 -182.51 773.06 -187.25 C 774.32 -188.42 775.53 -189.8 776.65 -191.18 C 793.62 -212.12 792.37 -242.95 772.96 -262.28 C 764.76 -270.57 754.57 -275.51 743.97 -277.11 C 729.37 -279.47 713.99 -275.73 701.94 -266.04 C 700.52 -264.85 699.13 -263.67 697.83 -262.28 C 697.14 -261.69 696.51 -260.7 695.87 -260.31 C 677.21 -239.17 677.88 -207.17 697.93 -187.25 Z M 479.82 -152.18 C 466.6 -152.18 455.5 -156.78 446.5 -165.98 C 437.5 -175.38 433 -186.38 433 -199.18 C 433 -211.78 437.56 -222.98 446.68 -232.18 C 455.8 -241.58 466.96 -246.18 480.18 -246.18 C 493.4 -246.18 504.5 -241.58 513.5 -232.18 C 522.5 -222.78 527 -211.58 527 -198.58 C 527 -185.78 522.44 -174.78 513.32 -165.78 C 504.2 -156.78 493.04 -152.18 479.82 -152.18 Z M 866 -761.75 C 866 -704.26 819.35 -657.64 761.8 -657.64 C 720.705 -657.64 685.161 -681.428 668.207 -715.973 L 292.739 -715.861 C 282.629 -695.321 265.942 -678.596 245.423 -668.427 L 245.465 -292.549 C 279.79 -275.51 303.381 -240.099 303.381 -199.11 C 303.381 -141.62 256.731 -95 199.181 -95 C 141.65 -95 95 -141.62 95 -199.11 C 95 -240.386 118.922 -276.005 153.631 -292.904 L 153.518 -668.148 C 118.87 -685.06 95 -720.619 95 -761.75 C 95 -819.38 141.65 -866 199.181 -866 C 240.234 -866 275.74 -842.277 292.723 -807.758 L 668.296 -807.801 C 685.285 -842.3 720.776 -866 761.8 -866 C 819.35 -866 866 -819.39 866 -761.75 Z M 761.13 -433 C 748.29 -433 737.27 -437.6 728.09 -446.8 C 718.91 -455.8 714.31 -467 714.31 -480.2 C 714.31 -493.4 718.99 -504.6 728.37 -513.6 C 737.75 -522.6 748.91 -527 761.87 -527 C 774.83 -527 785.97 -522.4 795.31 -513.4 C 804.65 -504.2 809.31 -493 809.31 -479.8 C 809.31 -466.6 804.57 -455.6 795.07 -446.6 C 785.57 -437.6 774.27 -433 761.13 -433 Z"/>
</svg>