<?xml version="1.0" encoding="utf-8"?>
<svg xmlns="http://www.w3.org/2000/svg" height="48" viewBox="0 -960 960 960" width="48">
  <path d="M 159.986 -415.59 C 140.729 -415.59 124.781 -421.71 112.156 -434.5 C 99.531 -447.31 93.226 -462.62 93.226 -481.25 C 93.226 -499.6 99.531 -514.91 112.156 -527.42 C 124.781 -539.94 140.729 -546.33 159.986 -546.33 L 258.377 -546.33 L 258.38 -546.93 C 273.766 -593.61 299.917 -631.54 336.788 -660.64 C 376.487 -691.93 422.266 -707.66 474.104 -707.66 C 506.098 -707.66 535.751 -701.824 563.066 -690.147 C 565.698 -689.092 568.308 -687.983 570.898 -686.82 C 595.625 -675.79 618.39 -659.88 639.194 -639.08 C 666.686 -611.6 685.648 -580.67 696.078 -546.3 L 800.014 -546.3 C 819.274 -546.3 835.214 -539.9 847.854 -527.5 C 860.474 -514.9 866.774 -499.69 866.774 -481.3 C 866.774 -462.69 860.474 -447.3 847.854 -434.5 C 835.214 -421.69 819.274 -415.7 800.014 -415.7 L 697.004 -415.7 C 686.79 -380.16 667.52 -348.37 639.194 -320.31 C 617.956 -299.277 594.673 -283.283 569.347 -272.334 C 540.314 -258.994 508.567 -252.34 474.104 -252.34 C 422.266 -252.34 376.487 -267.68 336.788 -298.76 C 299.371 -327.85 273.017 -366.63 257.713 -414.88 L 257.717 -415.59 Z M 473.921 -347.24 C 511.076 -347.24 542.437 -359.95 568.002 -385.39 C 593.588 -410.83 606.368 -442.13 606.368 -479.29 C 606.368 -516.47 593.647 -547.75 568.182 -573.2 C 542.721 -598.84 511.419 -611.75 474.284 -611.75 C 437.148 -611.75 405.791 -598.84 380.205 -573.39 C 354.639 -547.96 341.837 -516.65 341.837 -479.5 C 341.837 -442.32 354.58 -411.04 380.022 -385.39 C 405.487 -359.95 436.785 -347.24 473.921 -347.24 Z" style="stroke-width: 0.05;"/>
</svg>