<?xml version="1.0" encoding="utf-8"?>
<svg xmlns="http://www.w3.org/2000/svg" height="48" viewBox="0 -960 960 960" width="48">
  <path d="M 572.925 -275.27 C 572.897 -275.25 572.869 -275.21 572.839 -275.19 C 572.811 -275.17 572.783 -275.13 572.755 -275.11 C 546.519 -248.87 515.048 -235.72 478.515 -235.51 C 453.32 -235.5 430.739 -241.51 410.478 -253.88 C 401.365 -259.37 392.451 -266.44 384.439 -274.45 L 384.142 -274.75 C 369.633 -289.26 359.127 -305.43 352.668 -323.2 L 229.285 -323.21 C 220.857 -306.04 208.507 -292.23 192.221 -281.68 C 188.395 -279.19 184.448 -277 180.394 -275.07 C 166.146 -267.94 150.456 -264.31 133.335 -264.31 C 103.973 -264.31 79.116 -274.44 58.733 -294.67 C 38.365 -314.92 28.165 -339.81 28.162 -369.15 C 28.166 -398.7 38.362 -423.61 58.73 -443.85 C 79.11 -464.3 103.969 -474.63 133.339 -474.62 C 149.392 -474.62 164.2 -471.54 177.731 -465.21 C 182.731 -463.06 187.56 -460.48 192.219 -457.45 C 208.575 -446.86 220.96 -432.81 229.384 -415.5 L 294.157 -415.5 C 263.976 -454.12 248.345 -498.83 247.351 -549.66 C 247.312 -551.38 247.294 -553.11 247.294 -554.83 L 247.294 -680.44 L 247.312 -680.44 C 247.581 -692.7 251.967 -703.03 260.318 -711.47 C 268.936 -720.08 279.662 -724.3 292.495 -724.3 C 305.116 -724.3 315.842 -720.08 324.46 -711.47 C 333.08 -702.85 337.484 -692.13 337.484 -679.29 L 337.484 -553.87 C 337.484 -518.83 348.689 -488.38 371.252 -462.89 C 373.215 -460.74 375.278 -458.57 377.422 -456.4 C 379.601 -458.89 381.89 -461.35 384.289 -463.74 C 410.553 -490 442.053 -503.19 478.763 -503.27 C 515.458 -503.33 546.98 -490.21 573.15 -464.05 C 573.291 -463.9 573.291 -463.9 573.433 -463.75 C 573.433 -463.75 573.433 -463.75 573.588 -463.61 C 576.327 -460.88 578.924 -458.06 581.377 -455.19 C 608.92 -482.13 622.692 -515.14 622.692 -553.87 L 622.692 -679.48 C 622.692 -692.31 627.001 -703.03 635.62 -711.66 C 644.239 -720.27 654.945 -724.49 667.701 -724.49 C 680.477 -724.49 691.164 -720.27 699.782 -711.66 C 708.402 -703.03 712.711 -692.31 712.711 -679.48 L 712.711 -554.83 C 712.711 -501.94 697.127 -455.5 665.948 -415.5 L 726.669 -415.5 C 735.094 -432.81 747.477 -446.86 763.833 -457.44 C 775.82 -465.21 788.934 -470.12 803.179 -472.21 C 810.685 -473.81 818.52 -474.62 826.682 -474.62 C 856.054 -474.62 880.908 -464.3 901.271 -443.85 C 921.658 -423.61 931.834 -398.7 931.838 -369.14 C 931.833 -339.81 921.653 -314.92 901.273 -294.65 C 880.906 -274.44 856.051 -264.31 826.686 -264.31 C 818.583 -264.31 810.799 -265.13 803.344 -266.74 C 789.039 -268.87 775.866 -273.87 763.829 -281.67 C 747.546 -292.23 735.196 -306.02 726.77 -323.2 L 604.345 -323.21 C 597.806 -305.68 587.338 -289.69 572.925 -275.27 Z M 478.726 -314.98 C 493.822 -314.89 507.363 -321.01 517.189 -330.83 C 522.469 -336.12 526.714 -342.38 529.479 -349.43 C 531.91 -355.57 533.058 -362.46 533.14 -369.38 C 533.222 -371.17 533.07 -373.04 532.901 -374.83 C 530 -402.31 506.931 -423.57 478.863 -423.52 C 466.766 -423.75 455.809 -419.94 446.98 -413.4 C 434.692 -404.56 426.265 -390.69 424.694 -374.81 C 424.541 -372.9 424.374 -371.07 424.45 -369.12 C 424.387 -368.18 424.48 -367.17 424.453 -366.27 C 426.109 -337.57 449.753 -314.9 478.726 -314.98 Z" style="stroke-width: 0.003;"/>
</svg>