<?xml version="1.0" encoding="utf-8"?>
<svg xmlns="http://www.w3.org/2000/svg" height="48" viewBox="0 -960 960 960" width="48">
  <path d="M 258.028 -107.73 C 255.468 -109.73 252.968 -111.83 250.518 -114.04 C 249.468 -115.52 247.208 -116.99 245.848 -118.59 C 242.418 -121.8 239.498 -125.24 236.558 -128.75 C 219.609 -149.84 210.029 -175.05 207.954 -200.78 C 194.642 -209.63 181.995 -220.02 170.019 -231.95 C 124.903 -276.6 101.639 -330.45 100.406 -393.51 C 100.366 -395.26 100.346 -397.02 100.346 -398.79 L 100.346 -552.17 L 100.366 -552.17 C 100.621 -564.7 105.125 -575.27 113.643 -583.88 C 122.454 -592.7 133.42 -597.01 146.54 -597.01 C 159.444 -597.01 170.411 -592.7 179.222 -583.88 C 188.034 -575.07 192.538 -564.11 192.538 -550.99 L 192.538 -397.81 C 192.538 -361.98 204.013 -331.03 227.061 -304.8 C 229.567 -302.06 232.191 -299.32 234.971 -296.57 C 235.656 -295.9 236.344 -295.24 237.035 -294.58 C 239.781 -297.9 242.719 -301.11 245.848 -304.21 C 257.538 -315.95 270.958 -325.01 285.288 -331.37 C 286.188 -331.76 287.088 -332.15 287.998 -332.52 L 287.998 -680.51 C 253.348 -697.61 229.378 -733.36 229.378 -774.67 C 229.378 -832.62 276.318 -879.61 334.318 -879.61 C 392.298 -879.61 439.228 -832.62 439.228 -774.67 C 439.228 -733.28 415.258 -697.49 380.438 -680.41 L 380.628 -335.23 L 381.718 -335.25 C 399.838 -328.95 416.838 -318.55 431.288 -304.06 C 434.239 -301.05 437.028 -297.94 439.652 -294.73 C 440.291 -295.34 440.927 -295.95 441.56 -296.57 C 469.953 -324.38 484.15 -358.06 484.15 -397.81 L 484.15 -551.19 C 484.15 -564.31 488.555 -575.27 497.368 -584.08 C 506.18 -592.89 517.107 -597.21 530.167 -597.21 C 543.209 -597.21 554.155 -592.89 562.968 -584.08 C 571.779 -575.27 576.185 -564.31 576.185 -551.19 L 576.185 -398.79 C 576.185 -343.97 559.798 -295.92 527.047 -254.67 L 660.663 -254.7 C 677.993 -289.26 713.653 -313.02 754.933 -313.02 C 812.723 -313.02 859.653 -266.04 859.653 -208.09 C 859.653 -150.15 812.723 -103.18 754.933 -103.18 C 713.223 -103.18 677.383 -127.27 660.473 -162.21 L 459.978 -162.12 C 459.818 -161.73 459.658 -161.35 459.498 -160.97 C 459.178 -160.2 458.808 -159.44 458.458 -158.68 C 457.518 -156.55 456.538 -154.43 455.508 -152.34 C 449.348 -140.27 441.218 -128.94 431.208 -118.84 C 384.258 -71.568 310.108 -67.904 258.028 -107.73 Z M 375.388 -174.46 C 379.448 -178.55 382.728 -183.14 385.218 -188.02 C 385.648 -188.87 386.048 -189.72 386.418 -190.59 C 386.568 -190.89 386.708 -191.2 386.848 -191.51 C 389.608 -198.04 391.008 -205.01 391.008 -211.96 C 391.008 -212.88 390.988 -213.8 390.948 -214.71 C 390.258 -227.33 384.918 -239.76 375.418 -249.43 C 359.488 -265.42 335.888 -269.09 316.328 -260.49 C 310.518 -257.91 305.098 -254.25 300.358 -249.49 C 296.718 -245.89 293.728 -241.91 291.378 -237.67 C 288.858 -233.05 287.058 -228.13 285.988 -223.09 C 285.818 -222.23 285.658 -221.37 285.528 -220.5 C 283.168 -205.9 286.908 -190.52 296.598 -178.47 C 297.788 -177.05 298.968 -175.66 300.358 -174.36 C 300.918 -173.71 301.818 -173.12 302.248 -172.52 C 303.238 -171.63 304.258 -170.77 305.298 -169.97 C 326.368 -153.84 356.378 -155.33 375.388 -174.46 Z" style="stroke-width: 1;"/>
</svg>