<?xml version="1.0" encoding="utf-8"?>
<svg xmlns="http://www.w3.org/2000/svg" height="48" viewBox="0 -960 960 960" width="48">
  <path d="M 289.225 -795.2 C 293.297 -776.14 292.121 -757.45 285.845 -739.26 L 739.259 -285.84 C 757.453 -292.12 776.146 -293.3 795.196 -289.22 C 809.168 -286.24 821.905 -280.43 833.46 -271.84 C 839.905 -267.67 846.006 -262.69 851.778 -256.92 C 872.546 -236.15 882.825 -211.28 882.763 -182.42 C 882.864 -153.69 872.456 -128.89 851.561 -107.99 C 830.814 -87.246 806.008 -76.838 777.276 -76.932 C 748.573 -77.026 723.842 -87.445 703.074 -108.21 C 697.344 -113.94 692.417 -120.02 688.283 -126.43 C 679.673 -138.05 673.894 -150.9 670.901 -164.93 C 666.853 -183.91 667.878 -202.4 674.072 -220.51 L 220.514 -674.07 C 202.405 -667.88 183.91 -666.85 164.929 -670.9 C 160.468 -671.85 156.125 -673.09 151.903 -674.6 C 136.782 -679.63 123.124 -688.16 111.021 -700.27 C 90.257 -721.03 79.834 -745.76 79.728 -774.48 C 79.643 -803.2 90.038 -828.02 110.784 -848.77 C 131.679 -869.66 156.499 -880.06 185.214 -879.97 C 214.085 -880.02 238.961 -869.74 259.726 -848.97 C 271.079 -837.62 279.37 -824.97 284.466 -810.93 C 286.478 -805.87 288.066 -800.63 289.225 -795.2 Z" style="stroke-width: 0.05;"/>
</svg>