<?xml version="1.0" encoding="utf-8"?>
<svg viewBox="0 0 22 22" xmlns="http://www.w3.org/2000/svg">
  <path d="M 5.5 3.502 C 6.431 3.524 7.369 3.921 7.975 4.527 C 8.581 5.133 8.978 6.071 9 7.002 L 9 10.002 C 9 10.278 8.776 10.502 8.5 10.502 L 7.5 10.502 C 7.224 10.502 7 10.278 7 10.002 L 7 7.002 C 7.022 6.552 6.86 6.24 6.561 5.941 C 6.262 5.642 5.95 5.502 5.5 5.502 C 5.05 5.502 4.738 5.642 4.439 5.941 C 4.14 6.24 3.978 6.552 4 7.002 L 4 10.002 C 4 10.278 3.776 10.502 3.5 10.502 L 2.5 10.502 C 2.224 10.502 2 10.278 2 10.002 L 2 4.002 C 2 3.726 2.224 3.502 2.5 3.502 L 3.5 3.502 C 3.731 3.502 3.926 3.659 3.983 3.873 C 4.461 3.646 4.99 3.514 5.5 3.502 Z M 20 6.998 L 20 7.998 C 20 8.274 19.776 8.498 19.5 8.498 L 16.886 8.498 C 16.856 8.551 16.822 8.612 16.783 8.679 C 16.626 8.953 16.4 9.345 16.13 9.814 C 15.589 10.752 14.867 12.002 14.145 13.252 C 12.701 15.751 11.255 18.248 11.255 18.248 C 11.165 18.403 11.001 18.498 10.822 18.498 C 10.644 18.498 10.479 18.403 10.39 18.249 L 7.628 13.498 L 2.5 13.502 C 2.368 13.502 2.24 13.449 2.147 13.356 C 2.053 13.262 2 13.135 2 13.002 L 2 12.002 C 2 11.726 2.224 11.502 2.5 11.502 L 8.5 11.498 L 8.504 11.498 C 8.683 11.498 8.848 11.593 8.937 11.748 L 10.82 15.004 L 15.562 6.789 C 15.641 6.617 15.815 6.498 16.016 6.498 L 19.5 6.498 C 19.776 6.498 20 6.722 20 6.998 Z"/>
</svg>