<?xml version="1.0" encoding="utf-8"?>
<svg xmlns="http://www.w3.org/2000/svg" height="48" viewBox="0 -960 960 960" width="48">
  <path d="M 822 -182 C 834.033 -182 844.377 -177.83 853.03 -169.5 C 861.677 -161.17 866 -150.99 866 -138.96 C 866 -126.94 861.677 -116.61 853.03 -107.96 C 844.377 -99.32 834.033 -95 822 -95 L 505.012 -95 C 493.265 -95 483.162 -99.33 474.702 -108 C 466.242 -116.67 462.012 -126.91 462.012 -138.74 C 462.012 -150.56 466.242 -160.73 474.702 -169.24 C 483.162 -177.75 493.265 -182 505.012 -182 Z M 167.384 -330.37 C 158.337 -322.04 148.238 -317.52 137.074 -317.33 C 125.908 -316.97 116.118 -321.31 107.666 -330.37 C 99.216 -338.87 95 -348.82 95 -360.22 C 95 -371.81 99.216 -381.75 107.666 -390.1 L 227.103 -510.43 C 231.319 -514.77 236.151 -518.03 241.58 -520.37 C 247.009 -522.73 252.438 -524 257.866 -524 C 263.296 -524 268.724 -522.73 274.154 -520.37 C 279.581 -518.03 284.413 -514.77 288.63 -510.43 L 408.971 -390.1 C 417.421 -381.75 421.637 -371.81 421.637 -360.22 C 421.637 -348.82 417.421 -338.87 408.971 -330.37 C 400.52 -322.04 390.567 -317.7 379.111 -317.7 C 367.656 -317.7 357.703 -322.04 349.252 -330.37 L 300.393 -376.51 L 300.768 -137.85 C 300.768 -114.2 281.582 -95 257.914 -95 L 257.913 -95 C 234.245 -95 215.059 -114.2 215.059 -137.85 L 215.34 -376.51 Z M 822 -353 C 834.033 -353 844.377 -348.83 853.03 -340.5 C 861.677 -332.17 866 -321.99 866 -309.96 C 866 -297.94 861.677 -287.61 853.03 -278.96 C 844.377 -270.32 834.033 -266 822 -266 L 506.564 -266 C 494.817 -266 484.714 -270.33 476.254 -279 C 467.794 -287.67 463.564 -297.91 463.564 -309.74 C 463.564 -321.56 467.794 -331.73 476.254 -340.24 C 484.714 -348.75 494.817 -353 506.564 -353 Z M 822 -524 C 834.033 -524 844.377 -519.83 853.03 -511.5 C 861.677 -503.17 866 -492.99 866 -480.96 C 866 -468.94 861.677 -458.61 853.03 -449.96 C 844.377 -441.32 834.033 -437 822 -437 L 505.012 -437 C 493.265 -437 483.162 -441.33 474.702 -450 C 466.242 -458.67 462.012 -468.91 462.012 -480.74 C 462.012 -492.56 466.242 -502.73 474.702 -511.24 C 483.162 -519.75 493.265 -524 505.012 -524 Z M 506.564 -779 C 494.817 -779 484.714 -783.25 476.254 -791.76 C 467.794 -800.27 463.564 -810.44 463.564 -822.26 C 463.564 -834.09 467.794 -844.33 476.254 -853 C 484.714 -861.67 494.817 -866 506.564 -866 L 822 -866 C 834.033 -866 844.377 -861.68 853.03 -853.04 C 861.677 -844.39 866 -834.06 866 -822.04 C 866 -810.01 861.677 -799.83 853.03 -791.5 C 844.377 -783.17 834.033 -779 822 -779 Z M 138 -608 C 126.253 -608 116.15 -612.25 107.69 -620.76 C 99.23 -629.27 95 -639.44 95 -651.26 C 95 -663.09 99.23 -673.33 107.69 -682 C 116.15 -690.67 126.253 -695 138 -695 L 822 -695 C 834.033 -695 844.377 -690.68 853.03 -682.04 C 861.677 -673.39 866 -663.06 866 -651.04 C 866 -639.01 861.677 -628.83 853.03 -620.5 C 844.377 -612.17 834.033 -608 822 -608 Z" style=""/>
</svg>