<?xml version="1.0" encoding="utf-8"?>
<svg xmlns="http://www.w3.org/2000/svg" height="48" viewBox="0 -960 960 960" width="48">
  <path d="M 286 -286 L 828 -286 L 828 -824.25 L 286 -824.25 L 286 -286 Z M 286 -192 C 259.967 -192 237.793 -201.16 219.48 -219.48 C 201.16 -237.793 192 -259.967 192 -286 L 192 -828 C 192 -854.307 201.16 -876.717 219.48 -895.23 C 237.793 -913.743 259.967 -923 286 -923 L 828 -923 C 854.307 -923 876.717 -913.743 895.23 -895.23 C 913.743 -876.717 923 -854.307 923 -828 L 923 -286 C 923 -259.967 913.743 -237.793 895.23 -219.48 C 876.717 -201.16 854.307 -192 828 -192 L 286 -192 Z M 132 -37 C 105.693 -37 83.283 -46.257 64.77 -64.77 C 46.257 -83.283 37 -105.693 37 -132 L 37 -721 C 37 -734.167 41.56 -745.293 50.68 -754.38 C 59.793 -763.46 71.127 -768 84.68 -768 C 98.227 -768 109.5 -763.46 118.5 -754.38 C 127.5 -745.293 132 -734.167 132 -721 L 132 -132 L 721 -132 C 734.167 -132 745.293 -127.44 754.38 -118.32 C 763.46 -109.207 768 -97.873 768 -84.32 C 768 -70.773 763.46 -59.5 754.38 -50.5 C 745.293 -41.5 734.167 -37 721 -37 L 132 -37 Z"/>
</svg>