<?xml version="1.0" encoding="utf-8"?>
<svg xmlns="http://www.w3.org/2000/svg" height="48" viewBox="0 -960 960 960" width="48">
  <path d="M 505.012 -779 C 493.265 -779 483.162 -783.253 474.702 -791.76 C 466.242 -800.273 462.012 -810.44 462.012 -822.26 C 462.012 -834.087 466.242 -844.333 474.702 -853 C 483.162 -861.667 493.265 -866 505.012 -866 L 822 -866 C 834.033 -866 844.377 -861.68 853.03 -853.04 C 861.677 -844.393 866 -834.06 866 -822.04 C 866 -810.013 861.677 -799.833 853.03 -791.5 C 844.377 -783.167 834.033 -779 822 -779 Z M 138 -95 C 126.253 -95 116.15 -99.253 107.69 -107.76 C 99.23 -116.273 95 -126.44 95 -138.26 C 95 -150.087 99.23 -160.333 107.69 -169 C 116.15 -177.667 126.253 -182 138 -182 L 822 -182 C 834.033 -182 844.377 -177.68 853.03 -169.04 C 861.677 -160.393 866 -150.06 866 -138.04 C 866 -126.013 861.677 -115.833 853.03 -107.5 C 844.377 -99.167 834.033 -95 822 -95 Z M 506.564 -266 C 494.817 -266 484.714 -270.253 476.254 -278.76 C 467.794 -287.273 463.564 -297.44 463.564 -309.26 C 463.564 -321.087 467.794 -331.333 476.254 -340 C 484.714 -348.667 494.817 -353 506.564 -353 L 822 -353 C 834.033 -353 844.377 -348.68 853.03 -340.04 C 861.677 -331.393 866 -321.06 866 -309.04 C 866 -297.013 861.677 -286.833 853.03 -278.5 C 844.377 -270.167 834.033 -266 822 -266 Z M 505.012 -437 C 493.265 -437 483.162 -441.253 474.702 -449.76 C 466.242 -458.273 462.012 -468.44 462.012 -480.26 C 462.012 -492.087 466.242 -502.333 474.702 -511 C 483.162 -519.667 493.265 -524 505.012 -524 L 822 -524 C 834.033 -524 844.377 -519.68 853.03 -511.04 C 861.677 -502.393 866 -492.06 866 -480.04 C 866 -468.013 861.677 -457.833 853.03 -449.5 C 844.377 -441.167 834.033 -437 822 -437 Z M 506.564 -608 C 494.817 -608 484.714 -612.253 476.254 -620.76 C 467.794 -629.273 463.564 -639.44 463.564 -651.26 C 463.564 -663.087 467.794 -673.333 476.254 -682 C 484.714 -690.667 494.817 -695 506.564 -695 L 822 -695 C 834.033 -695 844.377 -690.68 853.03 -682.04 C 861.677 -673.393 866 -663.06 866 -651.04 C 866 -639.013 861.677 -628.833 853.03 -620.5 C 844.377 -612.167 834.033 -608 822 -608 Z M 216.246 -413.49 L 215.965 -823.146 C 215.965 -846.814 235.151 -866 258.819 -866 L 258.82 -866 C 282.488 -866 301.674 -846.814 301.674 -823.146 L 301.299 -413.49 L 350.158 -459.63 C 358.609 -467.96 368.562 -472.3 380.017 -472.3 C 391.473 -472.3 401.426 -467.96 409.877 -459.63 C 418.327 -451.13 422.543 -441.18 422.543 -429.78 C 422.543 -418.19 418.327 -408.25 409.877 -399.9 L 289.536 -279.57 C 285.319 -275.23 280.487 -271.97 275.06 -269.63 C 269.63 -267.27 264.202 -266 258.772 -266 C 253.344 -266 247.915 -267.27 242.486 -269.63 C 237.057 -271.97 232.225 -275.23 228.009 -279.57 L 108.572 -399.9 C 100.122 -408.25 95.906 -418.19 95.906 -429.78 C 95.906 -441.18 100.122 -451.13 108.572 -459.63 C 117.024 -468.69 126.814 -473.03 137.98 -472.67 C 149.144 -472.48 159.243 -467.96 168.29 -459.63 Z"/>
</svg>