<?xml version="1.0" encoding="utf-8"?>
<svg xmlns="http://www.w3.org/2000/svg" height="48" viewBox="0 -960 960 960" width="48">
  <path d="M 455.988 -182 C 467.735 -182 477.838 -177.75 486.298 -169.24 C 494.758 -160.73 498.988 -150.56 498.988 -138.74 C 498.988 -126.91 494.758 -116.67 486.298 -108 C 477.838 -99.33 467.735 -95 455.988 -95 L 139 -95 C 126.967 -95 116.623 -99.32 107.97 -107.96 C 99.323 -116.61 95 -126.94 95 -138.96 C 95 -150.99 99.323 -161.17 107.97 -169.5 C 116.623 -177.83 126.967 -182 139 -182 L 455.988 -182 Z M 744.754 -547.51 L 745.035 -137.85 C 745.035 -114.19 725.849 -95 702.181 -95 L 702.18 -95 C 678.512 -95 659.326 -114.19 659.326 -137.85 L 659.701 -547.51 L 610.842 -501.37 C 602.391 -493.04 592.438 -488.7 580.983 -488.7 C 569.527 -488.7 559.574 -493.04 551.123 -501.37 C 542.673 -509.87 538.457 -519.82 538.457 -531.22 C 538.457 -542.81 542.673 -552.75 551.123 -561.1 L 671.464 -681.43 C 675.681 -685.77 680.513 -689.03 685.94 -691.37 C 691.37 -693.73 696.798 -695 702.228 -695 C 707.656 -695 713.085 -693.73 718.514 -691.37 C 723.943 -689.03 728.775 -685.77 732.991 -681.43 L 852.428 -561.1 C 860.878 -552.75 865.094 -542.81 865.094 -531.22 C 865.094 -519.82 860.878 -509.87 852.428 -501.37 C 843.976 -492.31 834.186 -487.97 823.02 -488.33 C 811.856 -488.52 801.757 -493.04 792.71 -501.37 L 744.754 -547.51 Z M 454.436 -353 C 466.183 -353 476.286 -348.75 484.746 -340.24 C 493.206 -331.73 497.436 -321.56 497.436 -309.74 C 497.436 -297.91 493.206 -287.67 484.746 -279 C 476.286 -270.33 466.183 -266 454.436 -266 L 139 -266 C 126.967 -266 116.623 -270.32 107.97 -278.96 C 99.323 -287.61 95 -297.94 95 -309.96 C 95 -321.99 99.323 -332.17 107.97 -340.5 C 116.623 -348.83 126.967 -353 139 -353 L 454.436 -353 Z M 455.988 -524 C 467.735 -524 477.838 -519.75 486.298 -511.24 C 494.758 -502.73 498.988 -492.56 498.988 -480.74 C 498.988 -468.91 494.758 -458.67 486.298 -450 C 477.838 -441.33 467.735 -437 455.988 -437 L 139 -437 C 126.967 -437 116.623 -441.32 107.97 -449.96 C 99.323 -458.61 95 -468.94 95 -480.96 C 95 -492.99 99.323 -503.17 107.97 -511.5 C 116.623 -519.83 126.967 -524 139 -524 L 455.988 -524 Z M 454.436 -695 C 466.183 -695 476.286 -690.75 484.746 -682.24 C 493.206 -673.73 497.436 -663.56 497.436 -651.74 C 497.436 -639.91 493.206 -629.67 484.746 -621 C 476.286 -612.33 466.183 -608 454.436 -608 L 139 -608 C 126.967 -608 116.623 -612.32 107.97 -620.96 C 99.323 -629.61 95 -639.94 95 -651.96 C 95 -663.99 99.323 -674.17 107.97 -682.5 C 116.623 -690.83 126.967 -695 139 -695 L 454.436 -695 Z M 823 -866 C 834.747 -866 844.85 -861.75 853.31 -853.24 C 861.77 -844.73 866 -834.56 866 -822.74 C 866 -810.91 861.77 -800.67 853.31 -792 C 844.85 -783.33 834.747 -779 823 -779 L 139 -779 C 126.967 -779 116.623 -783.32 107.97 -791.96 C 99.323 -800.61 95 -810.94 95 -822.96 C 95 -834.99 99.323 -845.17 107.97 -853.5 C 116.623 -861.83 126.967 -866 139 -866 L 823 -866 Z" style=""/>
</svg>