<?xml version="1.0" encoding="utf-8"?>
<svg xmlns="http://www.w3.org/2000/svg" height="48" viewBox="0 -960 960 960" width="48">
  <path d="M 771.5 -311.06 C 771.5 -324.02 776.19 -335.17 785.56 -344.5 C 794.93 -353.83 806.1 -358.5 819.06 -358.5 C 832.02 -358.5 843.17 -353.75 852.5 -344.26 C 861.83 -334.77 866.5 -323.45 866.5 -310.32 C 866.5 -297.47 861.75 -286.46 852.26 -277.28 C 842.77 -268.09 831.45 -263.5 818.32 -263.5 C 805.47 -263.5 794.46 -268.19 785.28 -277.56 C 776.09 -286.93 771.5 -298.1 771.5 -311.06 Z M 771.5 -142.68 C 771.5 -155.53 776.19 -166.54 785.56 -175.72 C 794.93 -184.91 806.1 -189.5 819.06 -189.5 C 832.02 -189.5 843.17 -184.81 852.5 -175.44 C 861.83 -166.07 866.5 -154.9 866.5 -141.94 C 866.5 -128.98 861.75 -117.83 852.26 -108.5 C 842.77 -99.17 831.45 -94.5 818.32 -94.5 C 805.47 -94.5 794.46 -99.25 785.28 -108.74 C 776.09 -118.23 771.5 -129.55 771.5 -142.68 Z M 602.5 -142.68 C 602.5 -155.53 607.25 -166.54 616.74 -175.72 C 626.23 -184.91 637.55 -189.5 650.68 -189.5 C 663.53 -189.5 674.54 -184.81 683.72 -175.44 C 692.91 -166.07 697.5 -154.9 697.5 -141.94 C 697.5 -128.98 692.81 -117.83 683.44 -108.5 C 674.07 -99.17 662.9 -94.5 649.94 -94.5 C 636.98 -94.5 625.83 -99.25 616.5 -108.74 C 607.17 -118.23 602.5 -129.55 602.5 -142.68 Z M 433.5 -142.68 C 433.5 -155.53 438.06 -166.54 447.18 -175.72 C 456.29 -184.91 467.46 -189.5 480.68 -189.5 C 493.89 -189.5 505 -184.81 514 -175.44 C 523 -166.07 527.5 -154.9 527.5 -141.94 C 527.5 -128.98 522.94 -117.83 513.82 -108.5 C 504.71 -99.17 493.54 -94.5 480.32 -94.5 C 467.11 -94.5 456 -99.25 447 -108.74 C 438 -118.23 433.5 -129.55 433.5 -142.68 Z M 264.5 -142.68 C 264.5 -155.53 269.19 -166.54 278.56 -175.72 C 287.93 -184.91 299.1 -189.5 312.06 -189.5 C 325.02 -189.5 336.17 -184.81 345.5 -175.44 C 354.83 -166.07 359.5 -154.9 359.5 -141.94 C 359.5 -128.98 354.75 -117.83 345.26 -108.5 C 335.77 -99.17 324.45 -94.5 311.32 -94.5 C 298.47 -94.5 287.46 -99.25 278.27 -108.74 C 269.09 -118.23 264.5 -129.55 264.5 -142.68 Z M 95.5 -311.06 C 95.5 -324.02 100.12 -335.17 109.36 -344.5 C 118.6 -353.83 129.6 -358.5 142.36 -358.5 C 155.12 -358.5 166.17 -353.75 175.5 -344.26 C 184.83 -334.77 189.5 -323.45 189.5 -310.32 C 189.5 -297.47 184.81 -286.46 175.44 -277.28 C 166.07 -268.09 154.9 -263.5 141.94 -263.5 C 128.98 -263.5 118 -268.19 109 -277.56 C 100 -286.93 95.5 -298.1 95.5 -311.06 Z M 95.5 -142.68 C 95.5 -155.53 100.12 -166.54 109.36 -175.72 C 118.6 -184.91 129.6 -189.5 142.36 -189.5 C 155.12 -189.5 166.17 -184.81 175.5 -175.44 C 184.83 -166.07 189.5 -154.9 189.5 -141.94 C 189.5 -128.98 184.81 -117.83 175.44 -108.5 C 166.07 -99.17 154.9 -94.5 141.94 -94.5 C 128.98 -94.5 118 -99.25 109 -108.74 C 100 -118.23 95.5 -129.55 95.5 -142.68 Z M 95.5 -771.5 C 95.5 -798.03 104.53 -820.33 122.6 -838.4 C 140.67 -856.47 162.97 -865.5 189.5 -865.5 L 771.5 -865.5 C 798.3 -865.5 820.8 -856.47 839.1 -838.4 C 857.4 -820.33 866.5 -798.03 866.5 -771.5 L 866.5 -643.5 C 866.5 -630.33 861.8 -619.21 852.2 -610.12 C 842.7 -601.04 831.4 -596.5 818.2 -596.5 C 805.1 -596.5 794 -601.04 785 -610.12 C 776 -619.21 771.5 -630.33 771.5 -643.5 L 771.5 -771.5 L 189.5 -771.5 L 189.5 -643.5 C 189.5 -630.33 184.94 -619.21 175.82 -610.12 C 166.71 -601.04 155.54 -596.5 142.32 -596.5 C 129.11 -596.5 118 -601.04 109 -610.12 C 100 -619.21 95.5 -630.33 95.5 -643.5 L 95.5 -771.5 Z M 64.5 -523.5 L 896.5 -523.5 C 909.67 -523.5 920.79 -518.94 929.88 -509.82 C 938.96 -500.71 943.5 -489.57 943.5 -476.41 C 943.5 -463.26 938.96 -451.98 929.88 -442.59 C 920.79 -433.2 909.67 -428.5 896.5 -428.5 L 64.5 -428.5 C 51.333 -428.5 40.21 -433.25 31.13 -442.76 C 22.043 -452.27 17.5 -463.61 17.5 -476.76 C 17.5 -489.92 22.043 -501 31.13 -510 C 40.21 -519 51.333 -523.5 64.5 -523.5 Z" style=""/>
</svg>