<?xml version="1.0" encoding="utf-8"?>
<svg xmlns="http://www.w3.org/2000/svg" height="48" viewBox="0 -960 960 960" width="48">
  <path d="M 505.012 -779 C 493.265 -779 483.162 -783.253 474.702 -791.76 C 466.242 -800.273 462.012 -810.44 462.012 -822.26 C 462.012 -834.087 466.242 -844.333 474.702 -853 C 483.162 -861.667 493.265 -866 505.012 -866 L 822 -866 C 834.033 -866 844.377 -861.68 853.03 -853.04 C 861.677 -844.393 866 -834.06 866 -822.04 C 866 -810.013 861.677 -799.833 853.03 -791.5 C 844.377 -783.167 834.033 -779 822 -779 Z M 822 -353 C 834.033 -353 844.377 -348.83 853.03 -340.5 C 861.677 -332.17 866 -321.99 866 -309.96 C 866 -297.94 861.677 -287.61 853.03 -278.96 C 844.377 -270.32 834.033 -266 822 -266 L 138 -266 C 126.253 -266 116.15 -270.33 107.69 -279 C 99.23 -287.67 95 -297.91 95 -309.74 C 95 -321.56 99.23 -331.73 107.69 -340.24 C 116.15 -348.75 126.253 -353 138 -353 Z M 822 -182 C 834.033 -182 844.377 -177.83 853.03 -169.5 C 861.677 -161.17 866 -150.99 866 -138.96 C 866 -126.94 861.677 -116.61 853.03 -107.96 C 844.377 -99.32 834.033 -95 822 -95 L 506.564 -95 C 494.817 -95 484.714 -99.33 476.254 -108 C 467.794 -116.67 463.564 -126.91 463.564 -138.74 C 463.564 -150.56 467.794 -160.73 476.254 -169.24 C 484.714 -177.75 494.817 -182 506.564 -182 Z M 505.012 -437 C 493.265 -437 483.162 -441.253 474.702 -449.76 C 466.242 -458.273 462.012 -468.44 462.012 -480.26 C 462.012 -492.087 466.242 -502.333 474.702 -511 C 483.162 -519.667 493.265 -524 505.012 -524 L 822 -524 C 834.033 -524 844.377 -519.68 853.03 -511.04 C 861.677 -502.393 866 -492.06 866 -480.04 C 866 -468.013 861.677 -457.833 853.03 -449.5 C 844.377 -441.167 834.033 -437 822 -437 Z M 506.564 -608 C 494.817 -608 484.714 -612.253 476.254 -620.76 C 467.794 -629.273 463.564 -639.44 463.564 -651.26 C 463.564 -663.087 467.794 -673.333 476.254 -682 C 484.714 -690.667 494.817 -695 506.564 -695 L 822 -695 C 834.033 -695 844.377 -690.68 853.03 -682.04 C 861.677 -673.393 866 -663.06 866 -651.04 C 866 -639.013 861.677 -628.833 853.03 -620.5 C 844.377 -612.167 834.033 -608 822 -608 Z M 215.34 -584.49 L 215.059 -823.15 C 215.059 -846.8 234.245 -866 257.913 -866 L 257.914 -866 C 281.582 -866 300.768 -846.8 300.768 -823.15 L 300.393 -584.49 L 349.252 -630.63 C 357.703 -638.96 367.656 -643.3 379.111 -643.3 C 390.567 -643.3 400.52 -638.96 408.971 -630.63 C 417.421 -622.13 421.637 -612.18 421.637 -600.78 C 421.637 -589.19 417.421 -579.25 408.971 -570.9 L 288.63 -450.57 C 284.413 -446.23 279.581 -442.97 274.154 -440.63 C 268.724 -438.27 263.296 -437 257.866 -437 C 252.438 -437 247.009 -438.27 241.58 -440.63 C 236.151 -442.97 231.319 -446.23 227.103 -450.57 L 107.666 -570.9 C 99.216 -579.25 95 -589.19 95 -600.78 C 95 -612.18 99.216 -622.13 107.666 -630.63 C 116.118 -639.69 125.908 -644.03 137.074 -643.67 C 148.238 -643.48 158.337 -638.96 167.384 -630.63 Z"/>
</svg>