<?xml version="1.0" encoding="utf-8"?>
<svg xmlns="http://www.w3.org/2000/svg" height="48" viewBox="0 -960 960 960" width="48">
  <path d="M 383.778 -845.68 L 746.419 -483.04 C 768.666 -460.96 779.79 -434.27 779.79 -402.96 C 779.79 -371.66 768.666 -344.96 746.419 -322.86 L 557.311 -132.64 C 535.078 -111.14 509.126 -100.38 479.455 -100.38 C 449.784 -100.38 423.824 -111.14 401.576 -132.64 L 213.581 -322.86 C 191.333 -344.92 180.21 -371.59 180.21 -402.87 C 180.21 -434.14 191.333 -460.83 213.581 -482.91 L 413.812 -683.27 L 318.147 -778.94 C 308.505 -788.72 303.685 -799.88 303.685 -812.41 C 303.685 -824.95 308.505 -836.18 318.147 -846.12 C 327.046 -855.47 337.984 -859.96 350.962 -859.59 C 363.94 -859.22 374.879 -854.58 383.778 -845.68 Z M 480.556 -616.53 L 275.875 -414.08 L 683.012 -414.08 L 480.556 -616.53 Z" style=""/>
</svg>