<?xml version="1.0" encoding="utf-8"?>
<svg xmlns="http://www.w3.org/2000/svg" height="48" viewBox="0 -960 960 960" width="48">
  <path d="M 410.5 -53 L 410.5 -95 L 188.5 -95 C 162.467 -95 140.29 -104.16 121.97 -122.47 C 103.657 -140.79 94.5 -162.97 94.5 -189 L 94.5 -771 C 94.5 -797.31 103.657 -819.72 121.97 -838.23 C 140.29 -856.74 162.467 -866 188.5 -866 L 410.5 -866 L 410.5 -908 C 410.5 -917.92 413.957 -926.23 420.87 -932.94 C 427.783 -939.65 436.35 -943 446.57 -943 C 456.51 -943 464.817 -939.55 471.49 -932.65 C 478.163 -925.75 481.5 -917.2 481.5 -907 L 481.5 -52 C 481.5 -42.087 478.137 -33.773 471.41 -27.06 C 464.683 -20.353 456.35 -17 446.41 -17 C 436.47 -17 428 -20.45 421 -27.35 C 414 -34.25 410.5 -42.8 410.5 -53 Z M 188.5 -189 L 410.5 -189 L 410.5 -771 L 188.5 -771 L 188.5 -189 Z M 770.5 -94.653 L 654.501 -94.653 C 641.32 -94.653 630.201 -99.27 621.12 -108.46 C 612.04 -117.46 607.501 -128.66 607.501 -141.85 C 607.501 -155.05 612.04 -166.26 621.12 -175.26 C 630.201 -184.26 641.32 -188.86 654.501 -188.86 L 770.5 -188.86 L 770.5 -304.66 C 770.5 -317.86 775.06 -329.05 784.181 -338.06 C 793.28 -347.26 804.421 -351.65 817.58 -351.65 C 830.741 -351.65 842.02 -347.26 851.401 -338.06 C 860.801 -329.05 865.5 -317.86 865.5 -304.66 L 865.5 -188.86 C 865.5 -162.66 856.241 -140.46 837.721 -122.27 C 819.221 -103.86 796.801 -94.653 770.5 -94.653 Z M 770.5 -654.67 L 770.5 -770.87 L 654.501 -770.87 C 641.32 -770.87 630.201 -775.25 621.12 -784.47 C 612.04 -793.47 607.501 -804.66 607.501 -817.86 C 607.501 -831.06 612.04 -842.27 621.12 -851.65 C 630.201 -861.05 641.32 -865.86 654.501 -865.86 L 770.5 -865.86 C 796.801 -865.86 819.221 -856.46 837.721 -838.06 C 856.241 -819.46 865.5 -797.05 865.5 -770.87 L 865.5 -654.67 C 865.5 -641.66 860.741 -630.47 851.241 -621.47 C 841.72 -612.26 830.381 -607.87 817.241 -607.87 C 804.08 -607.87 793 -612.26 784 -621.47 C 775.001 -630.47 770.5 -641.66 770.5 -654.67 Z M 817.321 -432.86 C 804.481 -432.86 793.461 -437.26 784.281 -446.45 C 775.1 -455.66 770.5 -466.67 770.5 -479.86 C 770.5 -493.25 775.18 -504.26 784.561 -513.47 C 793.94 -522.26 805.1 -526.66 818.061 -526.66 C 831.021 -526.66 842.161 -522.05 851.5 -513.26 C 860.841 -503.86 865.5 -492.85 865.5 -479.46 C 865.5 -466.46 860.761 -455.45 851.261 -446.45 C 841.76 -437.26 830.461 -432.86 817.321 -432.86 Z"/>
</svg>