<?xml version="1.0" encoding="utf-8"?>
<svg viewBox="0 0 22 22" xmlns="http://www.w3.org/2000/svg">
  <path d="M 19.55 11 C 19.55 13.328 18.566 15.535 17.051 17.051 C 15.535 18.566 13.328 19.55 11 19.55 C 8.672 19.55 6.465 18.566 4.949 17.051 C 3.434 15.535 2.45 13.328 2.45 11 C 2.45 8.672 3.434 6.465 4.949 4.949 C 6.465 3.434 8.672 2.45 11 2.45 C 13.328 2.45 15.535 3.434 17.051 4.949 C 18.566 6.465 19.55 8.672 19.55 11 Z M 4.55 11 C 4.55 12.827 5.239 14.37 6.435 15.565 C 7.63 16.761 9.173 17.45 11 17.45 C 12.827 17.45 14.37 16.761 15.565 15.565 C 16.758 14.373 17.447 12.834 17.45 11.013 L 13.028 11.382 C 12.883 11.394 12.738 11.348 12.627 11.254 C 12.516 11.159 12.446 11.025 12.434 10.879 C 12.422 10.357 12.2 10.011 11.767 9.773 C 11.51 9.612 11.431 9.273 11.592 9.015 L 13.942 5.255 C 13.134 4.83 12.42 4.593 11.324 4.555 C 11.461 4.655 11.55 9 11.55 9 C 11.55 9.304 11.304 9.55 11 9.55 C 10.496 9.518 10.153 9.712 9.873 10.098 C 9.683 10.335 9.337 10.373 9.1 10.183 C 9.1 10.183 5.784 7.456 5.768 7.311 C 5.764 7.278 5.764 7.245 5.766 7.212 C 4.986 8.274 4.55 9.547 4.55 11 Z M 9.973 12.027 C 10.252 12.332 10.558 12.474 11 12.45 C 11.304 12.45 11.55 12.696 11.55 13 L 11.55 16 C 11.55 16.304 11.304 16.55 11 16.55 C 9.503 16.526 8.058 15.888 7.072 14.928 C 6.857 14.713 6.857 14.365 7.072 14.15 L 9.195 12.027 C 9.41 11.812 9.758 11.812 9.973 12.027 Z"/>
</svg>