<?xml version="1.0" encoding="utf-8"?>
<svg xmlns="http://www.w3.org/2000/svg" height="48" viewBox="0 -960 960 960" width="48">
  <path d="M 134.836 -62.208 C 121.375 -62.208 110.001 -66.926 100.713 -76.129 C 91.406 -85.532 86.761 -96.993 86.761 -110.5 C 86.761 -124 91.406 -135.24 100.713 -144.44 C 110.001 -153.66 121.375 -158.36 134.836 -158.36 L 824.141 -158.36 C 837.601 -158.36 849.159 -153.66 858.795 -144.44 C 868.431 -135.04 873.239 -123.58 873.239 -110.08 C 873.239 -96.575 868.431 -85.13 858.795 -75.928 C 849.159 -66.709 837.601 -62.208 824.141 -62.208 L 134.836 -62.208 Z M 552 -876.21 L 689 -768.21 L 771 -768.21 C 797.807 -768.21 820.343 -759.08 838.61 -740.82 C 856.87 -722.55 866 -700.01 866 -673.21 L 866 -197.21 L 95 -197.21 L 95 -698.21 C 95 -717.53 103.5 -731.69 120.5 -740.7 C 137.5 -749.71 154 -748.21 170 -736.21 L 274 -658.21 L 417 -858.21 C 432.333 -880.46 453.5 -893.35 480.5 -896.89 C 507.5 -900.43 531.333 -893.54 552 -876.21 Z M 189 -603.21 L 189 -433.21 L 323 -327.21 L 483 -548.21 L 771 -322.21 L 771 -673.21 L 655 -673.21 L 494 -803.21 L 296 -524.21 L 189 -603.21 Z" style="stroke-width: 0.05;"/>
</svg>