<?xml version="1.0" encoding="utf-8"?>
<svg xmlns="http://www.w3.org/2000/svg" height="48" viewBox="0 -960 960 960" width="48">
  <path d="M 134.836 -25.384 C 121.375 -25.384 110.001 -30.102 100.713 -39.305 C 91.406 -48.708 86.761 -60.169 86.761 -73.676 C 86.761 -87.176 91.406 -98.416 100.713 -107.62 C 110.001 -116.84 121.375 -121.54 134.836 -121.54 L 824.141 -121.54 C 837.601 -121.54 849.159 -116.84 858.795 -107.62 C 868.431 -98.216 873.239 -86.756 873.239 -73.256 C 873.239 -59.751 868.431 -48.306 858.795 -39.104 C 849.159 -29.885 837.601 -25.384 824.141 -25.384 L 134.836 -25.384 Z M 736.477 -161.86 C 721.016 -161.86 708.197 -166.78 698.04 -177.08 C 687.86 -187.14 682.782 -199.67 682.782 -214.44 L 682.782 -461.43 C 682.782 -476.2 687.86 -488.95 698.04 -499.47 C 708.197 -509.99 721.016 -515.13 736.477 -515.13 L 812.544 -515.13 C 827.287 -515.13 839.905 -509.99 850.443 -499.47 C 860.981 -488.95 866.239 -476.2 866.239 -461.43 L 866.239 -214.44 C 866.239 -199.67 860.981 -187.14 850.443 -177.08 C 839.905 -166.78 827.287 -161.86 812.544 -161.86 L 736.477 -161.86 Z M 441.155 -161.86 C 426.434 -161.86 413.995 -166.78 403.838 -177.08 C 393.658 -187.14 388.579 -199.67 388.579 -214.44 L 388.579 -880.93 C 388.579 -895.69 393.658 -908.44 403.838 -918.96 C 413.995 -929.47 426.434 -934.62 441.155 -934.62 L 517.223 -934.62 C 531.967 -934.62 544.406 -929.47 554.563 -918.96 C 564.721 -908.44 569.8 -895.69 569.8 -880.93 L 569.8 -214.44 C 569.8 -199.67 564.721 -187.14 554.563 -177.08 C 544.406 -166.78 531.967 -161.86 517.223 -161.86 L 441.155 -161.86 Z M 145.834 -161.86 C 131.114 -161.86 118.675 -166.78 108.517 -177.08 C 98.337 -187.14 93.259 -199.67 93.259 -214.44 L 93.259 -657.19 C 93.259 -671.96 98.337 -684.71 108.517 -695.22 C 118.675 -705.75 131.114 -710.9 145.834 -710.9 L 223.021 -710.9 C 237.765 -710.9 250.204 -705.75 260.361 -695.22 C 270.519 -684.71 275.597 -671.96 275.597 -657.19 L 275.597 -214.44 C 275.597 -199.67 270.519 -187.14 260.361 -177.08 C 250.204 -166.78 237.765 -161.86 223.021 -161.86 L 145.834 -161.86 Z" style="stroke-width: 0.05;"/>
</svg>