<?xml version="1.0" encoding="utf-8"?>
<svg xmlns="http://www.w3.org/2000/svg" height="48" viewBox="0 -960 960 960" width="48">
  <path d="M 91 -184.85 C 81.667 -194.18 77 -205.85 77 -219.85 C 77 -233.85 81.667 -245.52 91 -254.85 L 313 -476.85 C 331.667 -495.52 353.833 -504.85 379.5 -504.85 C 405.167 -504.85 427.333 -495.52 446 -476.85 L 539 -384.85 L 805 -682.85 C 813.667 -692.85 824.5 -698.35 837.5 -699.35 C 850.5 -700.35 861.667 -696.18 871 -686.85 C 880.333 -678.18 885.333 -667.35 886 -654.35 C 886.667 -641.35 883 -630.18 875 -620.85 L 608 -318.85 C 590 -298.18 567.333 -287.52 540 -286.85 C 512.667 -286.18 489.333 -295.52 470 -314.85 L 380 -403.85 L 161 -184.85 C 151.667 -175.52 140 -170.85 126 -170.85 C 112 -170.85 100.333 -175.52 91 -184.85 Z M 612.871 -605.08 C 604.479 -613.7 599.755 -624.67 599.755 -636.83 C 599.755 -648.78 604.44 -659.97 612.753 -668.59 C 621.3 -677.02 632.416 -681.72 644.513 -681.72 C 656.609 -681.72 667.764 -677.02 676.372 -668.78 C 684.723 -660.15 689.488 -648.98 689.488 -637.02 C 689.488 -624.87 684.782 -613.89 676.49 -605.08 C 667.921 -596.64 656.805 -592.12 644.71 -592.12 C 632.631 -592.12 621.497 -596.64 612.871 -605.08 Z M 452.479 -635.45 C 452.479 -642.71 455.694 -649.96 461.026 -655.45 L 625.32 -820.53 C 630.868 -825.82 638.22 -828.97 645.788 -828.97 C 653.354 -828.97 660.707 -825.82 666.295 -820.53 C 671.646 -814.85 674.921 -807.79 674.921 -800.34 C 674.921 -793.08 671.666 -785.84 666.352 -780.34 L 501.276 -615.07 C 495.728 -609.78 488.493 -606.64 481.161 -606.64 C 473.809 -606.64 466.594 -609.78 461.046 -615.07 C 455.714 -620.74 452.479 -628.01 452.479 -635.45 Z M 451.029 -767 C 442.657 -775.44 437.913 -786.61 437.913 -798.78 C 437.913 -810.72 442.598 -821.91 450.911 -830.54 C 459.458 -838.96 470.594 -843.66 482.671 -843.66 C 494.767 -843.66 505.922 -838.96 514.53 -830.72 C 522.881 -822.09 527.646 -810.92 527.646 -798.96 C 527.646 -786.82 522.92 -775.63 514.648 -767 C 506.079 -758.58 494.963 -753.88 482.868 -753.88 C 470.771 -753.88 459.655 -758.58 451.029 -767 Z"/>
</svg>