<?xml version="1.0" encoding="utf-8"?>
<svg viewBox="0 0 22 22" xmlns="http://www.w3.org/2000/svg">
  <path d="M 9.713 2.095 C 7.516 2.402 5.603 3.487 4.214 5.074 C 2.824 6.661 1.994 8.715 1.994 11 C 1.994 13.285 2.824 15.338 4.214 16.925 C 5.603 18.512 7.516 19.597 9.713 19.904 C 9.787 19.915 9.842 19.978 9.842 20.053 L 9.842 21.374 C 9.842 21.417 9.824 21.458 9.791 21.486 C 9.759 21.515 9.716 21.528 9.674 21.523 C 7.06 21.194 4.721 19.917 3.062 18.054 C 1.403 16.191 0.386 13.705 0.386 11 C 0.386 8.295 1.403 5.809 3.062 3.946 C 4.721 2.083 7.06 0.806 9.674 0.476 C 9.716 0.471 9.759 0.484 9.791 0.513 C 9.824 0.541 9.842 0.582 9.842 0.625 L 9.842 1.946 C 9.842 2.021 9.787 2.084 9.713 2.095 Z M 21.614 11 C 21.614 13.705 20.597 16.191 18.938 18.054 C 17.279 19.917 14.94 21.194 12.326 21.523 C 12.284 21.528 12.241 21.515 12.209 21.486 C 12.176 21.458 12.158 21.417 12.158 21.374 L 12.158 20.053 C 12.158 19.978 12.213 19.915 12.287 19.904 C 14.484 19.597 16.397 18.512 17.786 16.925 C 19.176 15.338 20.006 13.285 20.006 11 C 20.006 8.715 19.176 6.661 17.786 5.074 C 16.397 3.487 14.484 2.402 12.287 2.094 C 12.213 2.084 12.158 2.021 12.158 1.946 L 12.158 0.625 C 12.158 0.582 12.176 0.541 12.209 0.513 C 12.241 0.484 12.284 0.471 12.326 0.476 C 14.94 0.806 17.279 2.083 18.938 3.946 C 20.597 5.809 21.614 8.295 21.614 11 Z M 17.271 6.249 L 16.325 7.195 C 16.294 7.226 16.252 7.242 16.208 7.239 C 16.165 7.236 16.125 7.214 16.099 7.179 C 14.932 5.611 13.111 4.61 11 4.61 C 9.219 4.61 7.641 5.314 6.477 6.477 C 5.314 7.641 4.61 9.219 4.61 11 C 4.61 12.781 5.314 14.359 6.477 15.522 C 7.641 16.685 9.219 17.389 11 17.389 C 12.781 17.389 14.359 16.685 15.523 15.522 C 16.686 14.359 17.39 12.781 17.39 11 C 17.39 10.237 17.235 9.526 16.99 8.844 C 16.97 8.789 16.984 8.728 17.025 8.687 L 18.047 7.665 C 18.082 7.63 18.132 7.615 18.18 7.623 C 18.229 7.632 18.27 7.664 18.29 7.709 C 18.737 8.707 18.998 9.83 18.998 11 C 18.998 13.204 18.098 15.222 16.661 16.66 C 15.223 18.097 13.205 18.997 11 18.997 C 8.795 18.997 6.777 18.097 5.339 16.66 C 3.902 15.222 3.002 13.204 3.002 11 C 3.002 8.795 3.902 6.777 5.339 5.339 C 6.777 3.902 8.795 3.002 11 3.002 C 13.543 3.002 15.823 4.209 17.283 6.05 C 17.33 6.11 17.325 6.195 17.271 6.249 Z M 16.382 11 C 16.382 12.48 15.774 13.844 14.809 14.809 C 13.844 15.774 12.48 16.382 11 16.382 C 9.52 16.382 8.156 15.774 7.191 14.809 C 6.226 13.844 5.618 12.48 5.618 11 C 5.618 10.214 5.8 9.46 6.099 8.79 C 6.119 8.746 6.16 8.713 6.209 8.704 C 6.257 8.696 6.307 8.711 6.342 8.746 L 7.363 9.767 C 7.402 9.806 7.416 9.863 7.401 9.916 C 7.295 10.268 7.227 10.619 7.227 11 C 7.227 12.056 7.639 12.981 8.329 13.671 C 9.019 14.361 9.944 14.774 11 14.774 C 12.056 14.774 12.981 14.361 13.671 13.671 C 14.361 12.981 14.773 12.056 14.773 11 C 14.773 9.944 14.361 9.019 13.671 8.329 C 12.981 7.639 12.056 7.226 11 7.226 C 9.944 7.226 9.016 7.635 8.329 8.329 C 8.301 8.357 8.263 8.373 8.223 8.373 C 8.183 8.373 8.145 8.357 8.117 8.329 L 7.192 7.405 C 7.164 7.377 7.148 7.339 7.148 7.299 C 7.148 7.259 7.164 7.221 7.192 7.193 C 8.16 6.232 9.52 5.618 11 5.618 C 12.48 5.618 13.844 6.226 14.809 7.191 C 15.774 8.155 16.382 9.52 16.382 11 Z"/>
</svg>