<?xml version="1.0" encoding="utf-8"?>
<svg xmlns="http://www.w3.org/2000/svg" height="48" viewBox="0 -960 960 960" width="48">
  <path d="M 105 -125.75 L 327 -347.75 C 345.667 -366.42 367.833 -375.75 393.5 -375.75 C 419.167 -375.75 441.333 -366.42 460 -347.75 L 553 -254.75 L 628 -339.75 L 395 -574.75 L 175 -354.75 C 165.667 -344.75 154.167 -339.75 140.5 -339.75 C 126.833 -339.75 115 -344.75 105 -354.75 C 95.667 -364.08 91 -375.58 91 -389.25 C 91 -402.92 95.667 -414.75 105 -424.75 L 327 -645.75 C 345.667 -664.42 368 -673.58 394 -673.25 C 420 -672.92 442.333 -663.42 461 -644.75 L 692 -411.75 L 819 -553.75 C 827.667 -563.08 838.5 -568.25 851.5 -569.25 C 864.5 -570.25 875.667 -566.08 885 -556.75 C 894.333 -548.08 899.167 -537.25 899.5 -524.25 C 899.833 -511.25 896 -500.08 888 -490.75 L 758 -343.75 L 885 -215.75 C 893.667 -205.75 897.833 -194.42 897.5 -181.75 C 897.167 -169.08 892.333 -158.08 883 -148.75 C 873 -138.75 861.667 -133.92 849 -134.25 C 836.333 -134.58 825.333 -139.42 816 -148.75 L 694 -271.75 L 622 -189.75 C 604 -168.42 581.333 -157.75 554 -157.75 C 526.667 -157.75 503.333 -167.08 484 -185.75 L 394 -274.75 L 175 -55.745 C 165 -45.745 153.333 -40.745 140 -40.745 C 126.667 -40.745 115 -45.745 105 -55.745 C 95.667 -65.745 91 -77.579 91 -91.246 C 91 -104.92 95.667 -116.42 105 -125.75 Z M 359.671 -786.76 L 359.671 -881.41 C 359.671 -891.8 363.266 -900.64 370.461 -908.22 C 377.654 -915.62 386.456 -919.26 396.884 -919.26 C 407.312 -919.26 416.066 -915.62 423.164 -908.22 C 430.262 -900.64 433.812 -891.8 433.812 -881.41 L 433.812 -786.76 C 433.812 -776.36 430.216 -767.66 423.02 -760.41 C 415.845 -753.31 407.025 -749.69 396.599 -749.69 C 386.189 -749.69 377.417 -753.31 370.319 -760.41 C 363.22 -767.66 359.671 -776.36 359.671 -786.76 Z M 534.213 -737.05 L 601.258 -804.11 C 609.145 -810.91 618.119 -814.35 628.152 -814.35 C 638.202 -814.35 646.847 -810.74 654.103 -803.31 C 661.469 -795.92 665.145 -787.23 665.145 -777.3 C 665.145 -767.35 661.469 -758.68 654.103 -751.28 L 587.059 -683.43 C 579.708 -676.03 570.891 -672.4 560.636 -672.4 C 550.383 -672.4 541.581 -676.17 534.213 -683.43 C 526.328 -690.85 522.385 -699.83 522.385 -710.25 C 522.385 -720.82 526.328 -729.66 534.213 -737.05 Z M 661.757 -628.41 L 756.405 -628.41 C 766.801 -628.41 775.571 -624.77 782.733 -617.68 C 789.894 -610.42 793.475 -601.59 793.475 -591.16 C 793.475 -580.76 789.894 -572.09 782.733 -564.98 C 775.571 -557.89 766.801 -554.25 756.405 -554.25 L 661.757 -554.25 C 651.378 -554.25 642.606 -557.89 635.445 -565.15 C 628.267 -572.24 624.686 -581.07 624.686 -591.49 C 624.686 -601.89 628.267 -610.73 635.445 -617.82 C 642.606 -624.91 651.378 -628.41 661.757 -628.41 Z M 205.335 -684.22 L 138.291 -751.28 C 131.461 -758.68 128.037 -767.35 128.037 -777.45 C 128.037 -787.39 131.73 -796.06 139.08 -803.31 C 146.447 -811.21 155.124 -815.14 165.108 -815.14 C 175.11 -815.14 184.038 -811.52 191.926 -804.11 L 258.968 -737.05 C 266.334 -729.66 270.009 -720.99 270.009 -710.73 C 270.009 -700.45 266.32 -691.65 258.936 -684.22 C 251.537 -676.34 242.594 -672.54 232.118 -672.87 C 221.629 -673.03 212.7 -676.8 205.335 -684.22 Z M 37.09 -554.25 C 26.704 -554.25 17.916 -557.89 10.75 -565.15 C 3.583 -572.24 0 -581.07 0 -591.49 C 0 -601.89 3.583 -610.73 10.75 -617.82 C 17.916 -624.91 26.704 -628.41 37.09 -628.41 L 131.726 -628.41 C 142.122 -628.41 151.019 -624.77 158.449 -617.68 C 165.878 -610.42 169.585 -601.59 169.585 -591.16 C 169.585 -580.76 165.878 -572.09 158.449 -564.98 C 151.019 -557.89 142.122 -554.25 131.726 -554.25 L 37.09 -554.25 Z"/>
</svg>