<?xml version="1.0" encoding="utf-8"?>
<svg xmlns="http://www.w3.org/2000/svg" height="48" viewBox="0 -960 960 960" width="48">
  <path d="M 551.5 -742.34 L 688.5 -634.34 L 770.5 -634.34 C 797.307 -634.34 819.843 -625.21 838.11 -606.95 C 856.37 -588.68 865.5 -566.14 865.5 -539.34 L 865.5 -128.94 L 94.5 -128.94 L 94.5 -564.34 C 94.5 -583.65 103 -597.82 120 -606.83 C 137 -615.83 153.5 -614.34 169.5 -602.34 L 273.5 -524.34 L 416.5 -724.34 C 431.833 -746.58 453 -759.48 480 -763.01 C 507 -766.56 530.833 -759.67 551.5 -742.34 Z M 188.5 -469.34 L 188.5 -364.93 L 322.5 -258.93 L 482.5 -479.93 L 770.5 -253.93 L 770.5 -539.34 L 654.5 -539.34 L 493.5 -669.34 L 295.5 -390.34 L 188.5 -469.34 Z M 797.858 -695.09 C 790.441 -702.69 786.273 -712.39 786.273 -723.16 C 786.273 -733.77 790.405 -743.49 797.752 -751.24 C 805.295 -758.68 815.113 -762.74 825.798 -762.74 C 836.466 -762.74 846.32 -758.68 853.933 -751.44 C 861.297 -743.65 865.5 -733.77 865.5 -723.35 C 865.5 -712.58 861.349 -702.87 854.021 -695.09 C 846.462 -687.68 836.642 -683.61 825.958 -683.61 C 815.307 -683.61 805.471 -687.68 797.858 -695.09 Z M 656.219 -721.94 C 656.219 -728.28 659.062 -734.65 663.76 -739.6 L 808.844 -885.31 C 813.736 -890.08 820.235 -892.72 826.911 -892.72 C 833.605 -892.72 840.086 -890.08 845.03 -885.31 C 849.747 -880.35 852.643 -874.16 852.643 -867.47 C 852.643 -861.1 849.763 -854.74 845.084 -849.79 L 699.311 -703.91 C 694.401 -699.16 688.026 -696.5 681.544 -696.5 C 675.046 -696.5 668.687 -699.16 663.777 -703.91 C 659.08 -708.86 656.219 -715.4 656.219 -721.94 Z M 654.93 -838.14 C 647.547 -845.56 643.361 -855.45 643.361 -866.22 C 643.361 -876.63 647.494 -886.53 654.84 -894.13 C 662.383 -901.54 672.22 -905.78 682.886 -905.78 C 693.554 -905.78 703.408 -901.54 711.003 -894.32 C 718.385 -886.73 722.588 -876.83 722.588 -866.22 C 722.588 -855.63 718.421 -845.74 711.109 -838.14 C 703.55 -830.74 693.73 -826.49 683.046 -826.49 C 672.379 -826.49 662.559 -830.74 654.93 -838.14 Z"/>
</svg>