<?xml version="1.0" encoding="utf-8"?>
<svg xmlns="http://www.w3.org/2000/svg" height="48" viewBox="0 -960 960 960" width="48">
  <path d="M 189 -95 C 162.967 -95 140.79 -104.157 122.47 -122.47 C 104.157 -140.79 95 -162.967 95 -189 L 95 -771 C 95 -797.307 104.157 -819.717 122.47 -838.23 C 140.79 -856.743 162.967 -866 189 -866 L 359.256 -866 C 372.422 -866 383.549 -861.247 392.636 -851.74 C 401.716 -842.227 406.256 -830.893 406.256 -817.74 C 406.256 -804.58 401.716 -793.5 392.636 -784.5 C 383.549 -775.5 372.422 -771 359.256 -771 L 189 -771 L 189 -189 L 771 -189 L 771 -376.837 C 771 -390.004 775.56 -401.13 784.68 -410.217 C 793.793 -419.297 804.93 -423.837 818.09 -423.837 C 831.243 -423.837 842.517 -419.297 851.91 -410.217 C 861.303 -401.13 866 -390.004 866 -376.837 L 866 -189 C 866 -162.967 856.743 -140.79 838.23 -122.47 C 819.717 -104.157 797.307 -95 771 -95 L 189 -95 Z M 771 -705 L 438 -371 C 428.147 -361.667 417.183 -357.333 405.11 -358 C 393.037 -358.667 382.333 -363.667 373 -373 C 363.667 -382.333 359 -393.167 359 -405.5 C 359 -417.833 363.667 -428.667 373 -438 L 706 -771 L 566 -771 C 552.833 -771 541.71 -775.56 532.63 -784.68 C 523.543 -793.793 519 -804.93 519 -818.09 C 519 -831.243 523.543 -842.517 532.63 -851.91 C 541.71 -861.303 552.833 -866 566 -866 L 818 -866 C 831.087 -866 842.357 -861.27 851.81 -851.81 C 861.27 -842.357 866 -831.087 866 -818 L 866 -566 C 866 -552.833 861.247 -541.71 851.74 -532.63 C 842.227 -523.543 830.893 -519 817.74 -519 C 804.58 -519 793.5 -523.543 784.5 -532.63 C 775.5 -541.71 771 -552.833 771 -566 L 771 -705 Z"/>
</svg>