<?xml version="1.0" encoding="utf-8"?>
<svg xmlns="http://www.w3.org/2000/svg" height="48" viewBox="0 -960 960 960" width="48">
  <path d="M 731 -190 L 731 -770 C 731 -782.24 734.887 -792.71 742.662 -801.42 C 743.252 -802.09 743.865 -802.75 744.5 -803.4 C 745.272 -804.17 746.059 -804.91 746.862 -805.62 C 755.42 -813.21 765.74 -817 777.82 -817 C 789.715 -817 799.949 -813.32 808.519 -805.97 C 809.473 -805.16 810.407 -804.3 811.32 -803.4 C 811.972 -802.74 812.601 -802.08 813.206 -801.4 C 818.813 -795.19 822.421 -788.09 824.029 -780.09 C 824.676 -776.88 825 -773.52 825 -770 L 825 -190 C 825 -176.6 820.461 -165.4 811.38 -156.4 C 802.301 -147.41 791.18 -143 778 -143 C 764.841 -143 753.72 -147.61 744.619 -157 C 744.567 -157.05 744.516 -157.11 744.465 -157.16 C 735.488 -166.46 731 -177.4 731 -190 Z M 422.82 -817 C 434.647 -817 444.831 -813.37 453.372 -806.1 C 454.378 -805.25 455.361 -804.35 456.321 -803.4 C 457 -802.72 457.653 -802.02 458.282 -801.32 C 463.536 -795.47 467.023 -788.84 468.743 -781.41 C 469.582 -777.8 470.001 -774 470.001 -770 L 470.001 -675 C 470.001 -661.19 465.499 -649.6 456.5 -640.6 C 447.5 -631.41 436.399 -627 423.18 -627 C 409.96 -627 398.8 -631.61 389.679 -641 C 380.561 -650.19 375.999 -661.59 375.999 -675 L 375.999 -770 C 375.999 -773.86 376.384 -777.53 377.155 -781.03 C 378.843 -788.71 382.383 -795.55 387.775 -801.55 C 388.33 -802.17 388.906 -802.79 389.501 -803.4 C 390.241 -804.14 390.995 -804.85 391.763 -805.53 C 400.341 -813.18 410.694 -817 422.82 -817 Z M 116 -480 C 116 -492.92 120.381 -503.96 129.143 -513.12 C 129.424 -513.42 129.71 -513.72 130.001 -514.01 L 219.101 -603.1 L 229 -613 C 229.058 -613.06 229.116 -613.12 229.175 -613.17 C 238.092 -622.06 248.806 -626.61 261.315 -626.98 C 261.857 -626.99 262.402 -627 262.95 -627 C 262.952 -627 262.953 -627 262.955 -627 C 262.957 -627 262.958 -627 262.96 -627 C 276.241 -627 287.58 -622.39 296.961 -613 C 297.712 -612.19 298.432 -611.37 299.121 -610.54 C 302.196 -606.85 304.649 -602.97 306.48 -598.88 C 308.99 -593.29 310.331 -587.34 310.5 -581.01 C 310.641 -576.01 310.005 -571.26 308.59 -566.75 C 306.619 -560.43 303.137 -554.57 298.145 -549.16 C 298.097 -549.11 298.049 -549.05 298.001 -549 L 277.009 -527 L 583 -527 C 596.12 -527 607.045 -523.01 615.774 -515.04 C 616.359 -514.51 616.934 -513.96 617.5 -513.39 C 617.825 -513.06 618.145 -512.72 618.458 -512.39 C 626.819 -503.48 631 -492.69 631 -480 C 631 -480 631 -480 631 -480 C 631 -479.99 631 -479.99 631 -479.99 C 631 -466.8 626.341 -455.6 617 -446.59 C 614.8 -444.46 612.487 -442.59 610.062 -440.96 C 602.209 -435.65 593.188 -433 583 -433 L 277.009 -433 L 298.001 -412 C 306.681 -402.01 310.839 -391.01 310.5 -378.99 C 310.334 -372.77 309.042 -366.92 306.625 -361.42 C 304.384 -356.32 301.175 -351.52 297 -347 C 287.681 -337.61 276.521 -332.8 263.54 -332.4 C 251.111 -332.22 240.332 -336.24 231.203 -344.84 C 230.799 -345.22 230.398 -345.6 230 -346 L 180 -396 L 130.001 -445.99 C 121.406 -454.49 116.757 -464.85 116.086 -476.9 C 116.029 -477.92 116 -478.96 116 -480 Z M 422.82 -333 C 434.647 -333 444.831 -329.37 453.372 -322.1 C 454.378 -321.25 455.361 -320.35 456.321 -319.4 C 457 -318.71 457.653 -318.02 458.282 -317.31 C 463.536 -311.47 467.023 -304.83 468.743 -297.41 C 469.582 -293.8 470.001 -290 470.001 -286 L 470.001 -190 C 470.001 -176.6 465.46 -165.4 456.38 -156.4 C 447.299 -147.41 436.181 -143 423.001 -143 C 423.001 -143 423 -143 423 -143 C 422.945 -143 422.89 -143 422.835 -143 C 409.746 -143.04 398.683 -147.65 389.62 -157 C 381.347 -165.5 376.842 -175.39 376.107 -186.66 C 376.035 -187.76 375.999 -188.88 375.999 -190 L 375.999 -286 C 375.999 -289.86 376.384 -293.54 377.155 -297.03 C 378.843 -304.71 382.383 -311.55 387.775 -317.55 C 388.33 -318.18 388.906 -318.79 389.501 -319.4 C 390.241 -320.14 390.995 -320.85 391.763 -321.53 C 400.341 -329.18 410.694 -333 422.82 -333 Z" style=""/>
</svg>