<?xml version="1.0" encoding="utf-8"?>
<svg viewBox="0 0 16 16" xmlns="http://www.w3.org/2000/svg">
  <path d="M 14.5 2 L 14.5 14 C 14.5 14.276 14.276 14.5 14 14.5 L 2 14.5 C 1.724 14.5 1.5 14.276 1.5 14 L 1.5 2 C 1.5 1.724 1.724 1.5 2 1.5 L 14 1.5 C 14.276 1.5 14.5 1.724 14.5 2 Z M 2.5 2.5 L 2.5 3.5 L 3.5 2.5 Z M 2.5 13.5 L 3.5 13.5 L 2.5 12.5 Z M 13.5 13.5 L 13.5 12.5 L 12.5 13.5 Z M 13.5 2.5 L 12.5 2.5 L 13.5 3.5 Z M 6 4 L 4 6 L 2.5 4.5 L 2.5 7.5 L 4 6 L 6 8 L 4 10 L 2.5 8.5 L 2.5 11.5 L 4 10 L 6 12 L 4.5 13.5 L 7.5 13.5 L 6 12 L 8 10 L 10 12 L 8.5 13.5 L 11.5 13.5 L 10 12 L 12 10 L 13.5 11.5 L 13.5 8.5 L 12 10 L 10 8 L 12 6 L 13.5 7.5 L 13.5 4.5 L 12 6 L 10 4 L 11.5 2.5 L 8.5 2.5 L 10 4 L 8 6 L 6 4 L 7.5 2.5 L 4.5 2.5 Z M 8 6 L 10 8 L 8 10 L 6 8 Z"/>
</svg>