<?xml version="1.0" encoding="utf-8"?>
<svg xmlns="http://www.w3.org/2000/svg" height="48" viewBox="0 -960 960 960" width="48">
  <path d="M 521 -273 L 604 -273 L 604 -190.007 L 688 -190.007 L 688 -273 L 604.5 -273 L 604.5 -354.865 L 605.983 -354.865 L 605.983 -357 L 688 -357 L 688 -437.017 L 605.999 -437.017 L 605.999 -440 L 605.983 -440 L 605.999 -524 L 688 -524 L 688 -520.997 L 689.002 -520.997 L 689.002 -440.33 L 771 -440.33 L 771 -520.997 L 689.002 -520.997 L 689.002 -604.377 L 771 -604.377 L 771 -688.007 L 689.002 -688.007 L 689.002 -771 L 605.999 -771 L 605.999 -688.007 L 688.499 -688.007 L 688.499 -603.967 L 605.999 -603.967 L 605.983 -605.13 L 605.677 -605.13 L 605.677 -688.007 L 522.837 -688.007 L 522.837 -605.13 L 439.998 -605.13 L 439.998 -688.007 L 357 -688.007 L 357 -771 L 272.998 -771 L 272.998 -688.007 L 356.498 -688.007 L 356.498 -605.13 L 354.017 -605.13 L 354.017 -603.967 L 272.998 -603.967 L 272.998 -524 L 354.017 -524 L 354.017 -437.017 L 272.998 -437.017 L 272.998 -440 L 272 -440 L 272 -520.577 L 190 -520.577 L 190 -440 L 272 -440 L 272 -356.5 L 190 -356.5 L 190 -273 L 272 -273 L 272 -190.007 L 355 -190.007 L 355 -273 L 272.5 -273 L 272.5 -357 L 354.017 -357 L 354.017 -354.865 L 355.33 -354.865 L 355.33 -273 L 438.17 -273 L 438.17 -354.865 L 521 -354.865 L 521 -273 Z M 122.1 -122.1 C 104.033 -140.167 95 -162.467 95 -189 L 95 -771.977 C 95 -794.717 101.689 -814.266 115.058 -830.705 C 117.229 -833.423 119.576 -836.058 122.1 -838.61 C 140.167 -856.87 162.467 -866 189 -866 L 771.999 -866 C 798.541 -866 820.84 -856.997 838.897 -838.767 C 856.96 -820.777 866 -798.557 866 -771.977 L 866 -189 C 866 -162.527 856.911 -140.268 838.734 -122.223 C 820.706 -104.112 798.461 -94.987 771.999 -94.987 L 190 -94.987 C 189.326 -94.987 188.655 -94.993 187.986 -95.004 C 161.898 -95.232 139.936 -104.264 122.1 -122.1 Z M 521 -273 L 439 -273 L 439 -190.007 L 521 -190.007 L 521 -273 Z M 688 -273 L 771 -273 L 771 -356.67 L 688 -356.67 L 688 -273 Z M 439.998 -688.007 L 522.002 -688.007 L 522.002 -771 L 439.998 -771 L 439.998 -688.007 Z M 272.998 -688.007 L 190 -688.007 L 190 -604.377 L 272.998 -604.377 L 272.998 -688.007 Z"/>
</svg>