<?xml version="1.0" encoding="utf-8"?>
<svg xmlns="http://www.w3.org/2000/svg" height="48" viewBox="0 -960 960 960" width="48">
  <path d="M 95 -69 L 95 -887 C 95 -892.5 97.333 -896.21 102 -898.13 C 106.667 -900.043 111 -899 115 -895 L 143 -868 C 147.427 -862.667 153.2 -860.167 160.32 -860.5 C 167.44 -860.833 173.333 -863.333 178 -868 L 206 -897 C 210.427 -902.333 216.033 -905 222.82 -905 C 229.607 -905 235.667 -902.667 241 -898 L 270 -868 C 274.427 -863.333 280.033 -861 286.82 -861 C 293.607 -861 299.333 -863.333 304 -868 L 335 -899 C 339.427 -903.667 345.033 -906 351.82 -906 C 358.607 -906 364.333 -903.667 369 -899 L 399 -868 C 403.427 -863.333 409.033 -861.167 415.82 -861.5 C 422.607 -861.833 428.333 -864.333 433 -869 L 463 -898 C 467.427 -902.667 473.033 -905.167 479.82 -905.5 C 486.607 -905.833 492.333 -903.667 497 -899 L 528 -868 C 531.76 -863.333 537.2 -861 544.32 -861 C 551.44 -861 557.333 -863.333 562 -868 L 592 -899 C 596.427 -903.667 602.033 -906 608.82 -906 C 615.607 -906 621.333 -903.667 626 -899 L 657 -868 C 660.76 -863.333 666.2 -861 673.32 -861 C 680.44 -861 686.333 -863.333 691 -868 L 722 -899 C 726.427 -903.667 732.033 -906 738.82 -906 C 745.607 -906 751.333 -903.667 756 -899 L 786 -869 C 790.427 -864.333 796.033 -862 802.82 -862 C 809.607 -862 815.333 -864.333 820 -869 L 845 -895 C 849 -899 853.5 -900.043 858.5 -898.13 C 863.5 -896.21 866 -892.5 866 -887 L 866 -69 C 866 -63.5 863.5 -59.793 858.5 -57.88 C 853.5 -55.96 849 -57 845 -61 L 820 -87 C 815.573 -91.667 809.967 -94 803.18 -94 C 796.393 -94 790.667 -91.667 786 -87 L 756 -57 C 751.573 -52.333 745.967 -50 739.18 -50 C 732.393 -50 726.667 -52.333 722 -57 L 691 -87 C 686.573 -91.667 680.8 -94 673.68 -94 C 666.56 -94 661 -91.667 657 -87 L 626 -57 C 621.573 -52.333 615.967 -50 609.18 -50 C 602.393 -50 596.667 -52.333 592 -57 L 562 -87 C 557.573 -91.667 551.8 -94 544.68 -94 C 537.56 -94 532 -91.667 528 -87 L 497 -57 C 492.573 -52.333 486.967 -50 480.18 -50 C 473.393 -50 467.667 -52.333 463 -57 L 433 -87 C 428.573 -91.667 422.8 -94 415.68 -94 C 408.56 -94 403 -91.667 399 -87 L 368 -57 C 363.573 -52.333 357.967 -50 351.18 -50 C 344.393 -50 338.667 -52.333 334 -57 L 304 -87 C 299.573 -91.667 293.8 -94 286.68 -94 C 279.56 -94 274 -91.667 270 -87 L 238 -57 C 233.573 -52.333 227.967 -50 221.18 -50 C 214.393 -50 208.667 -52.333 204 -57 L 175 -87 C 169.907 -91.667 163.967 -94 157.18 -94 C 150.393 -94 144.667 -91.667 140 -87 L 115 -61 C 111 -57 106.667 -55.96 102 -57.88 C 97.333 -59.793 95 -63.5 95 -69 Z"/>
</svg>