<?xml version="1.0" encoding="utf-8"?>
<svg xmlns="http://www.w3.org/2000/svg" height="48" viewBox="0 -960 960 960" width="48">
  <path d="M 278.8 -390 C 278.612 -390.19 278.428 -390.39 278.248 -390.59 C 274.635 -394.51 272.583 -399.25 272.113 -404.72 C 272.038 -405.57 272 -406.44 272 -407.32 C 272 -407.33 272 -407.34 272 -407.36 C 272 -407.37 272 -407.38 272 -407.4 C 272 -410.4 272.661 -413.2 274 -416 C 275.32 -418.6 277.28 -421.4 279.88 -424 L 453.76 -596.77 L 455.2 -598.2 C 456.595 -599.6 458.102 -600.84 459.72 -601.95 C 461.023 -602.84 462.398 -603.64 463.847 -604.37 C 464.361 -604.63 464.883 -604.87 465.415 -605.11 C 465.792 -605.28 466.174 -605.44 466.561 -605.6 C 470.92 -607.2 475.381 -608 479.9 -608 C 479.9 -608 479.901 -608 479.901 -608 C 479.902 -608 479.904 -608 479.905 -608 C 479.907 -608 479.908 -608 479.91 -608 C 479.92 -608 479.92 -608 479.92 -608 C 480.096 -608 480.27 -608 480.446 -608 C 480.451 -608 480.455 -608 480.46 -608 C 480.462 -608 480.465 -608 480.467 -608 C 484.795 -607.93 489.087 -607.14 493.341 -605.6 C 495.354 -604.78 497.239 -603.84 498.997 -602.76 C 499.206 -602.64 499.414 -602.52 499.62 -602.39 C 499.815 -602.26 500.008 -602.12 500.2 -601.99 C 501.74 -600.96 503.175 -599.78 504.506 -598.49 C 504.604 -598.39 504.703 -598.3 504.8 -598.2 L 680 -424 C 685.321 -414.8 688 -409.19 688 -407.6 C 688 -407.56 688 -407.52 688 -407.48 C 688 -407.47 688 -407.46 688 -407.45 C 688 -406.12 687.913 -404.83 687.74 -403.58 C 687.036 -398.4 684.858 -393.87 681.194 -390 C 677.64 -386.38 673.333 -384.12 668.284 -383.33 C 666.911 -383.11 665.483 -383 664 -383 L 296 -383 C 295.919 -383 295.838 -383 295.757 -383 C 289.075 -383.05 283.506 -385.19 279.061 -389.74 C 278.973 -389.82 278.886 -389.91 278.8 -390 Z" style=""/>
</svg>