<?xml version="1.0" encoding="utf-8"?>
<svg xmlns="http://www.w3.org/2000/svg" height="48" viewBox="0 -960 960 960" width="48">
  <path d="M 214 -55 C 187.967 -55 165.793 -64.157 147.48 -82.47 C 129.16 -100.79 120 -122.967 120 -149 L 120 -811 C 120 -837.307 129.16 -859.717 147.48 -878.23 C 165.793 -896.743 187.967 -906 214 -906 L 516 -906 C 529.04 -906 541.467 -903.333 553.28 -898 C 565.093 -892.667 575.333 -885.667 584 -877 L 782 -679 C 790.667 -670.333 797.667 -660.093 803 -648.28 C 808.333 -636.467 811 -624.04 811 -611 L 811 -576 C 811 -563.687 805.94 -553.94 795.82 -546.76 C 785.707 -539.587 773.97 -536 760.61 -536 C 749.257 -536 739.15 -539.377 730.29 -546.13 C 721.43 -552.877 715.333 -561.833 712 -573 L 712 -591 L 543 -591 C 529.833 -591 518.71 -595.543 509.63 -604.63 C 500.543 -613.71 496 -624.833 496 -638 L 496 -811 L 214 -811 L 214 -149 L 435 -149 C 448.167 -149 459.293 -144.44 468.38 -135.32 C 477.46 -126.207 482 -115.04 482 -101.82 C 482 -88.607 477.46 -77.5 468.38 -68.5 C 459.293 -59.5 448.167 -55 435 -55 Z M 660.195 -164.38 C 692.014 -164.38 715.961 -173.81 736.549 -195.88 C 757.898 -217.31 767.068 -242.26 767.068 -275.14 C 767.068 -296.44 758.365 -319.9 738.713 -349.08 C 718.94 -378.86 698.711 -403.1 660.129 -438.44 C 625.774 -406.18 601.307 -378.86 581.544 -349.1 C 561.885 -319.9 553.189 -296.44 553.189 -275.14 C 553.189 -242.26 562.371 -217.31 583.765 -195.88 C 604.394 -173.81 628.366 -164.38 660.195 -164.38 Z M 660.129 -94.645 C 610.931 -94.645 567.388 -113.09 533.975 -146.69 C 501.309 -180.84 483.447 -225.18 483.447 -275.14 C 483.447 -293.48 488.08 -312.96 494.496 -332.2 C 501.628 -353.58 511.971 -370.38 524.847 -389.48 C 537.661 -408.46 553.234 -427.94 570.964 -447.3 C 588.617 -466.54 608.736 -486.43 629.869 -505.65 C 634.134 -509.04 639.584 -512.15 644.432 -513.93 C 649.303 -515.54 655.18 -516.53 660.184 -516.53 C 665.187 -516.53 671.069 -515.53 675.921 -513.92 C 680.712 -512.14 686.654 -508.57 690.91 -505.2 C 712.046 -485.96 731.634 -466.52 749.293 -447.3 C 767.014 -427.94 782.576 -408.45 795.409 -389.48 C 808.268 -370.37 818.672 -350.86 825.968 -332.29 C 833.248 -313.27 837.285 -293.5 837.285 -275.14 C 837.285 -225.16 819.322 -180.81 786.496 -146.67 C 752.92 -113.08 709.31 -94.645 660.129 -94.645 Z M 620.561 -210.31 C 605.939 -220.78 595.186 -238.75 591.042 -259.99 C 590.678 -265.2 592.41 -272.5 595.135 -277.05 C 599.45 -281.5 607.154 -285.73 613.194 -285.73 C 618.121 -285.73 624.638 -282.76 628.67 -279.63 C 631.748 -276.39 634.776 -271.08 635.961 -266.83 C 637.781 -256.27 640.457 -250.96 646.339 -247.13 C 652.015 -242.37 657.318 -241.03 666.028 -241.03 C 672.34 -241.03 679.733 -238.62 684.454 -235.62 C 688.769 -231.47 693.095 -223.94 693.095 -218.03 C 693.095 -212.15 688.32 -204.57 683.734 -200.59 C 679.243 -197.94 672.299 -195.71 666.366 -195.71 C 651.193 -195.71 634.759 -201.25 620.561 -210.31 Z"/>
</svg>