<?xml version="1.0" encoding="utf-8"?>
<svg xmlns="http://www.w3.org/2000/svg" height="48" viewBox="0 -960 960 960" width="48">
  <path d="M 346 -268.37 C 319.967 -268.37 297.793 -277.53 279.48 -295.85 C 261.16 -314.16 252 -336.34 252 -362.37 L 252 -751.63 C 252 -777.94 261.16 -800.35 279.48 -818.86 C 297.793 -837.37 319.967 -846.63 346 -846.63 L 768 -846.63 C 794.307 -846.63 816.717 -837.37 835.23 -818.86 C 853.743 -800.35 863 -777.94 863 -751.63 L 863 -362.37 C 863 -336.34 853.743 -314.16 835.23 -295.85 C 816.717 -277.53 794.307 -268.37 768 -268.37 L 346 -268.37 Z M 346 -362.37 L 768 -362.37 L 768 -751.63 L 346 -751.63 L 346 -362.37 Z M 192 -113.37 C 165.693 -113.37 143.283 -122.63 124.77 -141.14 C 106.257 -159.65 97 -182.06 97 -208.37 L 97 -797.37 C 97 -810.54 101.56 -821.66 110.68 -830.75 C 119.793 -839.83 131.127 -844.37 144.68 -844.37 C 158.227 -844.37 169.5 -839.83 178.5 -830.75 C 187.5 -821.66 192 -810.54 192 -797.37 L 192 -208.37 L 661 -208.37 C 674.167 -208.37 685.293 -203.81 694.38 -194.69 C 703.46 -185.58 708 -174.24 708 -160.69 C 708 -147.14 703.46 -135.87 694.38 -126.87 C 685.293 -117.87 674.167 -113.37 661 -113.37 L 192 -113.37 Z M 420.155 -501.27 L 696.032 -501.27 C 702.058 -501.06 708.176 -498.52 712.431 -494.56 C 716.387 -490.3 719.079 -484.26 719.079 -478.22 C 719.079 -472.18 716.314 -465.97 712.23 -461.62 C 707.837 -457.52 701.671 -454.99 695.659 -454.79 L 419.782 -454.79 C 413.747 -455 407.616 -457.57 403.327 -461.69 C 399.385 -466.04 396.735 -472.21 396.735 -478.22 C 396.735 -484.3 399.535 -490.36 403.641 -494.63 C 407.993 -498.56 414.135 -501.06 420.155 -501.27 Z M 432.909 -571.28 L 429.48 -565.21 C 427.284 -561.58 423.465 -558.53 419.733 -557.28 C 415.882 -556.47 411.498 -557.08 408.03 -558.77 C 404.398 -560.72 401.183 -564.4 399.766 -568.24 C 398.812 -572.37 399.41 -577.14 401.55 -580.95 L 405.145 -587.33 L 397.757 -587.33 C 393.643 -587.57 389.098 -589.61 386.18 -592.53 C 383.692 -595.57 381.803 -599.85 381.803 -603.63 C 381.803 -607.5 383.887 -611.81 386.575 -614.75 C 389.624 -617.54 394.104 -619.4 398.13 -619.6 L 405.141 -619.6 L 401.734 -625.67 C 399.582 -629.38 398.738 -634.4 399.527 -638.39 C 400.864 -642.43 403.955 -646.07 407.517 -648.08 C 411.047 -649.94 415.556 -650.47 419.497 -649.66 C 423.37 -648.4 427.221 -645.41 429.424 -641.8 L 432.786 -635.85 L 436.065 -641.78 C 437.986 -645.38 441.749 -648.58 445.531 -649.81 C 449.287 -650.53 453.724 -649.87 457.295 -648.15 C 460.873 -646.21 464.081 -642.58 465.548 -638.6 C 466.497 -634.56 465.922 -629.73 463.771 -625.97 L 460.18 -619.6 L 467.565 -619.6 C 471.381 -619.38 475.738 -617.52 478.745 -614.75 C 481.445 -611.82 483.518 -607.51 483.518 -603.63 C 483.518 -599.79 481.48 -595.44 478.839 -592.41 C 475.874 -589.56 471.45 -587.58 467.565 -587.33 L 460.268 -587.33 L 464.095 -580.67 C 465.939 -577.12 466.597 -572.4 465.792 -568.42 C 464.559 -564.6 461.52 -560.79 458.083 -558.79 C 454.35 -557.05 449.472 -556.59 445.366 -557.78 C 441.621 -559.25 438.252 -561.98 436.301 -565.42 L 432.909 -571.28 Z M 557.972 -571.11 L 555.08 -565.91 C 553.116 -562.2 549.191 -558.86 545.194 -557.43 C 541.119 -556.52 536.155 -557.23 532.279 -559.39 C 528.782 -561.63 525.854 -565.47 524.718 -569.41 C 524.064 -573.33 524.871 -578.15 526.663 -581.79 L 530.366 -588.08 L 522.816 -588.08 C 518.932 -588.33 514.512 -590.3 511.537 -593.16 C 508.889 -596.2 506.864 -600.53 506.864 -604.38 C 506.864 -608.21 509.087 -612.66 511.943 -615.62 C 515.024 -618.33 519.379 -620.13 523.189 -620.35 L 530.363 -620.35 L 526.598 -626.74 C 524.789 -630.34 524.07 -635.08 524.72 -638.92 C 525.925 -643.03 529.065 -646.88 532.712 -648.9 C 536.363 -650.62 540.998 -651.22 544.93 -650.41 C 548.897 -649.07 552.546 -646.17 554.482 -642.55 L 557.845 -636.6 L 561.103 -642.48 C 563.11 -646.24 566.971 -649.4 570.831 -650.58 C 574.694 -651.31 579.341 -650.58 582.939 -648.8 C 586.467 -646.65 589.59 -642.87 590.967 -639.25 C 591.925 -635.25 591.354 -630.47 589.203 -626.72 L 585.613 -620.35 L 592.998 -620.35 C 596.823 -620.12 601.178 -618.26 604.173 -615.51 C 606.863 -612.55 608.95 -608.16 608.95 -604.38 C 608.95 -600.53 606.913 -596.19 604.277 -593.16 C 601.298 -590.3 596.875 -588.33 592.998 -588.08 L 586.035 -588.08 L 589.997 -581.62 C 591.804 -577.85 592.311 -572.95 591.35 -568.95 C 590.018 -565.23 587.193 -561.61 583.998 -559.44 C 580.094 -557.24 574.892 -556.58 570.566 -557.74 C 566.49 -559.24 562.936 -562.09 560.964 -565.84 L 557.972 -571.11 Z M 683.094 -571 L 679.972 -565.21 C 677.747 -561.56 673.839 -558.5 669.98 -557.27 C 666 -556.46 661.082 -557.24 657.262 -559.43 C 654.022 -561.65 651.217 -565.41 650.015 -569.2 C 649.209 -573.18 649.899 -577.91 651.743 -581.46 L 655.713 -588.08 L 648.249 -588.08 C 644.363 -588.33 639.945 -590.3 636.971 -593.16 C 634.325 -596.2 632.295 -600.53 632.295 -604.38 C 632.295 -608.22 634.521 -612.66 637.376 -615.62 C 640.459 -618.35 644.811 -620.13 648.622 -620.35 L 655.91 -620.35 L 652.131 -626.92 C 650.277 -630.36 649.506 -635.06 650.154 -638.92 C 651.293 -642.95 654.248 -646.79 657.649 -648.84 C 661.328 -650.64 666.057 -651.22 669.991 -650.41 C 673.897 -649.12 677.814 -645.95 679.969 -642.46 L 683.016 -636.8 L 686.342 -642.85 C 688.574 -646.48 692.458 -649.44 696.26 -650.58 C 700.126 -651.28 704.672 -650.54 708.09 -648.74 C 711.583 -646.59 714.65 -642.87 716.027 -639.26 C 717.002 -635.37 716.408 -630.34 714.583 -626.63 L 710.884 -620.35 L 718.058 -620.35 C 722.114 -620.13 726.591 -618.21 729.541 -615.38 C 732.085 -612.44 734.011 -608.11 734.011 -604.38 C 734.011 -600.58 732.112 -596.3 729.637 -593.29 C 726.706 -590.35 722.165 -588.32 718.058 -588.08 L 711.094 -588.08 L 715.055 -581.62 C 716.856 -577.92 717.465 -573.13 716.658 -569.17 C 715.39 -565.3 712.438 -561.6 708.985 -559.4 C 705.098 -557.23 699.991 -556.59 695.743 -557.76 C 691.853 -559.23 688.188 -562.24 686.024 -565.84 L 683.094 -571 Z"/>
</svg>