<?xml version="1.0" encoding="utf-8"?>
<svg xmlns="http://www.w3.org/2000/svg" height="48" viewBox="0 -960 960 960" width="48">
  <path d="M 479.97 -15.001 C 439.38 -15.001 400.59 -22.661 363.62 -38 C 326.58 -53.338 293.59 -75.661 265 -105 C 229.59 -140.34 204.56 -181.66 189.6 -229 C 174.59 -276.34 172.59 -324 184 -372 C 185.99 -385.34 191.96 -396 201.97 -404 C 211.98 -412 223.38 -415 235.99 -413 C 248.59 -411.66 259.21 -406.16 267.59 -396.5 C 275.8 -386.84 278.99 -375.34 277 -362 C 268.98 -327.34 269.76 -293 279.6 -259 C 289.19 -225 306.98 -195.34 332.98 -170 C 352.4 -150.66 374.6 -135.84 399.99 -125.5 C 425.38 -115.16 451.98 -110 479.97 -110 C 507.96 -110 534.8 -115.16 560.61 -125.5 C 586.19 -135.84 608.99 -150.66 629.01 -170 C 654.4 -195.34 671.78 -225 681.61 -259 C 691.2 -293 691.56 -327.34 682.99 -362 C 681 -375.34 684.2 -386.84 692.59 -396.5 C 700.79 -406.16 711.4 -411.66 724.01 -413 C 736.56 -415 748.02 -412 757.97 -404 C 767.98 -396 773.59 -385.34 774.98 -372 C 785.59 -324 783.78 -276.34 769.61 -229 C 755.19 -181.66 730.4 -140.34 695 -105 C 666.41 -75.661 633.6 -53.338 596.56 -38 C 559.59 -22.661 520.56 -15.001 479.97 -15.001 Z M 478.503 -945 C 519.093 -945 557.883 -937.34 594.853 -922 C 631.893 -906.66 664.883 -884.34 693.473 -855 C 728.883 -819.66 753.913 -778.34 768.873 -731 C 783.883 -683.66 785.883 -636 774.473 -588 C 772.483 -574.66 766.513 -564 756.503 -556 C 746.493 -548 735.093 -545 722.483 -547 C 709.883 -548.34 699.263 -553.84 690.883 -563.5 C 682.673 -573.16 679.483 -584.66 681.473 -598 C 689.493 -632.66 688.713 -667 678.873 -701 C 669.283 -735 651.493 -764.66 625.493 -790 C 606.073 -809.34 583.873 -824.16 558.483 -834.5 C 533.093 -844.84 506.493 -850 478.503 -850 C 450.513 -850 423.673 -844.84 397.863 -834.5 C 372.283 -824.16 349.483 -809.34 329.463 -790 C 304.073 -764.66 286.693 -735 276.863 -701 C 267.273 -667 266.913 -632.66 275.483 -598 C 277.473 -584.66 274.273 -573.16 265.883 -563.5 C 257.683 -553.84 247.073 -548.34 234.463 -547 C 221.933 -545 210.433 -548 200.533 -556 C 190.533 -564 184.833 -574.66 183.533 -588 C 172.833 -636 174.733 -683.66 188.833 -731 C 203.233 -778.34 228.073 -819.66 263.473 -855 C 292.063 -884.34 324.873 -906.66 361.913 -922 C 398.883 -937.34 437.913 -945 478.503 -945 Z M 730.381 -480 C 730.381 -473.56 729.421 -467.76 727.481 -462.6 C 725.561 -457.45 722.661 -452.62 718.771 -448.1 C 688.621 -413.95 655.171 -389.61 618.841 -375.11 C 582.271 -360.61 536.451 -353.36 480.971 -353.36 C 425.491 -353.36 379.641 -360.45 343.311 -374.63 C 306.751 -388.82 273.491 -412.99 243.141 -447.13 C 239.281 -451.65 236.201 -456.64 234.061 -462.12 C 231.741 -467.61 230.581 -473.56 230.581 -480 C 230.581 -485.8 231.741 -491.45 234.061 -496.92 C 236.201 -502.41 239.281 -507.4 243.141 -511.9 C 273.491 -546.07 306.751 -570.39 343.311 -584.89 C 379.641 -599.39 425.291 -606.64 480.011 -606.64 C 535.501 -606.64 581.321 -599.57 617.851 -585.37 C 654.211 -571.2 687.841 -547.03 718.771 -512.87 C 722.081 -508.36 724.781 -503.2 727.101 -497.4 C 729.221 -491.6 730.381 -485.8 730.381 -480 Z M 614.01 -480 C 596.21 -495.22 575.61 -507.36 552.41 -516.42 C 529 -525.48 504.81 -530 479.6 -530 C 454.61 -530 430.4 -525.48 407.2 -516.42 C 384.2 -507.36 363.6 -495.22 345.99 -480 C 363.6 -464.78 384.2 -452.66 407.61 -443.6 C 430.81 -434.54 455 -430 480.2 -430 C 505.41 -430 529.41 -434.54 552.6 -443.6 C 575.8 -452.66 596.21 -464.78 614.01 -480 Z" style="stroke-width: 0.05;"/>
</svg>