<?xml version="1.0" encoding="utf-8"?>
<svg xmlns="http://www.w3.org/2000/svg" height="48" viewBox="0 -960 960 960" width="48">
  <path d="M 323.137 -715.869 C 316.893 -697.909 306.613 -681.871 292.223 -667.36 C 278.374 -653.719 262.912 -643.827 245.833 -637.651 L 245.812 -444.69 L 245.448 -444.69 L 245.462 -320.417 C 262.639 -314.175 278.189 -304.152 292.107 -290.35 C 306.336 -276.116 316.579 -260.246 322.831 -242.7 L 330.068 -242.727 L 330.068 -243.14 L 409.039 -243.027 L 437.913 -243.137 L 437.913 -242.986 L 638.477 -242.7 C 644.738 -260.263 654.984 -276.157 669.215 -290.32 C 694.605 -315.61 725.47 -328.46 761.748 -328.46 C 798.025 -328.46 828.87 -315.81 854.28 -290.52 C 879.671 -265.23 892.376 -234.41 892.376 -198.44 C 892.376 -198.25 892.376 -198.25 892.376 -198.05 C 892.376 -198.05 892.376 -198.05 892.376 -197.85 C 892.376 -182.63 890.124 -168.41 885.638 -155.37 C 879.434 -136.98 869 -120.39 854.32 -105.77 C 828.928 -80.677 798.125 -68.027 761.865 -68.027 C 761.827 -68.027 761.787 -68.027 761.748 -68.027 C 761.708 -68.027 761.668 -68.027 761.628 -68.027 C 725.39 -68.027 694.545 -80.677 669.175 -105.77 C 655.668 -119.263 645.766 -134.182 639.449 -150.71 L 408.784 -151.038 L 321.838 -150.71 C 315.501 -133.963 305.629 -119.017 292.146 -105.43 C 266.756 -80.417 235.965 -68.027 199.717 -68.027 C 199.657 -68.027 199.638 -68.027 199.577 -68.027 C 199.556 -68.027 199.517 -68.027 199.477 -68.027 C 163.229 -68.027 132.42 -80.417 107.067 -105.43 C 89.653 -122.81 78.216 -142.81 72.778 -165.4 C 70.26 -175.6 69 -186.39 69 -197.8 L 69 -197.99 C 69 -233.99 81.695 -264.78 107.106 -290.17 C 120.981 -303.945 136.488 -314.011 153.623 -320.307 L 153.527 -637.623 C 136.42 -643.796 120.937 -653.698 107.077 -667.36 C 91.044 -683.384 80.071 -701.461 74.184 -721.879 C 70.731 -733.546 68.997 -746.118 68.997 -759.46 C 68.997 -759.66 68.997 -759.66 68.997 -759.66 C 68.997 -759.86 68.997 -759.86 68.997 -760.06 C 68.997 -796.26 81.677 -826.86 107.061 -852.16 C 132.451 -877.36 163.311 -890.06 199.571 -890.06 C 199.579 -890.06 199.587 -890.06 199.595 -890.06 C 199.603 -890.06 199.611 -890.06 199.619 -890.06 C 235.896 -890.06 266.77 -877.46 292.182 -852.25 C 305.547 -838.869 315.393 -824.051 321.721 -807.763 L 495.721 -807.797 C 495.911 -808.286 496.094 -808.647 496.27 -808.887 C 502.62 -824.64 512.285 -839 525.267 -851.92 C 550.657 -877.21 581.522 -890.06 617.8 -890.06 C 654.077 -890.06 684.922 -877.41 710.332 -852.12 C 735.723 -826.83 748.428 -796.01 748.428 -760.04 C 748.428 -759.85 748.428 -759.85 748.428 -759.65 C 748.428 -759.65 748.428 -759.65 748.428 -759.45 C 748.428 -744.23 746.176 -730.01 741.69 -716.97 C 735.486 -698.58 725.052 -681.99 710.372 -667.37 C 684.98 -642.28 654.177 -629.63 617.917 -629.63 C 617.879 -629.63 617.839 -629.63 617.8 -629.63 C 617.76 -629.63 617.72 -629.63 617.68 -629.63 C 581.442 -629.63 550.597 -642.28 525.227 -667.37 C 510.759 -681.822 500.428 -697.911 494.209 -715.86 L 323.137 -715.869 Z M 162.102 -722.18 C 166.87 -717.497 172.309 -713.823 178.11 -711.22 C 178.157 -711.2 178.204 -711.18 178.251 -711.16 C 178.292 -711.141 178.332 -711.122 178.373 -711.103 C 185.132 -708.112 192.376 -706.57 199.619 -706.57 C 200.603 -706.57 201.586 -706.596 202.566 -706.648 C 208.504 -706.995 214.398 -708.372 219.979 -710.727 C 220.303 -710.871 220.627 -711.018 220.949 -711.17 C 221.88 -711.58 222.803 -712.015 223.715 -712.475 C 228.526 -714.955 233.041 -718.195 237.074 -722.16 C 254.96 -740.002 257.424 -767.393 244.5 -788.077 C 242.844 -790.688 240.939 -793.185 238.784 -795.533 C 238.572 -795.728 238.359 -795.968 238.144 -796.218 C 237.827 -796.552 237.505 -796.883 237.177 -797.21 C 236.386 -798.021 235.576 -798.798 234.749 -799.543 C 234.195 -800.016 233.632 -800.48 233.064 -800.96 C 226.613 -806.151 219.21 -809.653 211.483 -811.418 C 210.382 -811.657 209.275 -811.861 208.164 -812.03 C 194.502 -814.275 180.158 -811.087 168.488 -802.811 C 166.292 -801.213 164.19 -799.418 162.204 -797.424 C 162.137 -797.353 162.07 -797.282 162.003 -797.21 C 161.973 -797.185 161.943 -797.158 161.913 -797.132 C 161.758 -796.976 161.604 -796.819 161.451 -796.662 C 161.024 -796.185 160.618 -795.651 160.209 -795.336 C 157.862 -792.746 155.816 -789.98 154.072 -787.081 C 141.822 -766.576 144.48 -739.749 162.102 -722.18 Z M 162.07 -160.4 C 172.445 -150.22 186.002 -144.61 199.577 -144.61 C 206.874 -144.61 214.112 -146 220.89 -149.22 C 226.808 -152.01 232.387 -155.6 237.225 -160.4 C 238.485 -161.4 239.684 -163 240.804 -164.4 C 257.778 -185.2 256.518 -215.99 237.125 -235.39 C 228.908 -243.77 218.712 -248.57 208.115 -250.18 C 193.52 -252.58 178.125 -248.78 166.068 -239.18 C 164.648 -237.97 163.269 -236.79 161.969 -235.39 C 161.271 -234.78 160.649 -233.78 160.011 -233.38 C 141.337 -212.38 141.996 -180.4 162.07 -160.4 Z M 580.257 -722.1 C 590.629 -711.63 604.204 -706.49 617.8 -706.49 C 625.071 -706.49 632.323 -707.88 639.12 -710.85 C 645.027 -713.42 650.58 -717.36 655.422 -722.1 C 656.704 -723.3 657.892 -724.67 659.017 -726.05 C 675.99 -747 674.745 -777.63 655.322 -796.99 C 647.123 -805.5 636.945 -810.43 626.336 -812.01 C 611.733 -814.38 596.322 -810.63 584.268 -800.75 C 582.846 -799.56 581.482 -798.38 580.157 -796.99 C 579.486 -796.39 578.835 -795.62 578.201 -795.02 C 559.53 -774.07 560.221 -742.06 580.257 -722.1 Z M 724.205 -160.5 C 734.577 -150.03 748.152 -144.89 761.748 -144.89 C 769.019 -144.89 776.271 -146.28 783.068 -149.25 C 788.975 -151.82 794.528 -155.76 799.37 -160.5 C 800.652 -161.7 801.84 -163.07 802.965 -164.45 C 819.938 -185.4 818.693 -216.03 799.27 -235.39 C 791.071 -243.9 780.893 -248.83 770.284 -250.41 C 755.681 -252.78 740.27 -249.03 728.216 -239.15 C 726.794 -237.96 725.43 -236.78 724.105 -235.39 C 723.434 -234.79 722.783 -234.02 722.149 -233.42 C 703.478 -212.47 704.169 -180.46 724.205 -160.5 Z"/>
</svg>