<?xml version="1.0" encoding="utf-8"?>
<svg xmlns="http://www.w3.org/2000/svg" height="48" viewBox="0 -960 960 960" width="48">
  <path d="M 270.95 -571.02 C 237.405 -571.02 210.461 -561.34 190.137 -542.37 C 169.813 -523.4 144.824 -509.07 115.131 -499.39 C 104.174 -495.53 94.012 -497.45 84.643 -505.21 C 75.296 -512.95 70.612 -523.59 70.612 -537.14 C 70.612 -549.92 74.966 -561.34 83.677 -571.02 C 92.387 -580.7 102.878 -588.63 115.131 -595.21 C 138.359 -606.83 160.308 -621.14 180.943 -638.17 C 201.596 -655.42 231.597 -663.93 270.95 -663.93 C 295.919 -663.93 317.327 -659.67 335.155 -651.34 C 353.002 -642.83 369.105 -633.54 383.488 -623.28 C 397.849 -612.82 412.542 -603.53 427.561 -595.21 C 442.582 -586.69 459.985 -582.62 479.785 -582.62 C 500.226 -582.62 517.801 -586.69 532.494 -595.21 C 547.185 -603.53 561.702 -612.82 576.084 -623.28 C 590.446 -633.54 606.57 -642.83 624.476 -651.34 C 642.36 -659.67 663.884 -663.93 689.048 -663.93 C 728.419 -663.93 758.092 -655.42 778.087 -638.17 C 798.102 -621.14 820.032 -606.83 843.898 -595.21 C 856.171 -588.63 866.817 -580.7 875.837 -571.02 C 884.876 -561.34 889.387 -549.72 889.387 -536.17 C 889.387 -522.63 884.548 -512.17 874.869 -504.62 C 865.192 -497.27 854.875 -495.53 843.898 -499.39 C 814.225 -509.07 789.391 -523.4 769.378 -542.37 C 749.381 -561.34 722.612 -571.02 689.048 -571.02 C 669.053 -571.02 651.478 -566.75 636.302 -558.43 C 621.145 -549.92 606.221 -540.82 591.511 -530.75 C 576.82 -520.69 560.695 -511.59 543.12 -503.27 C 525.564 -494.75 504.485 -490.68 479.921 -490.68 C 455.339 -490.68 434.356 -494.75 417.013 -503.27 C 399.651 -511.59 383.546 -520.69 368.7 -530.75 C 353.873 -540.82 338.891 -549.92 323.773 -558.43 C 308.674 -566.75 291.06 -571.02 270.95 -571.02 Z M 144.275 -296.07 C 131.45 -296.07 120.627 -300.56 111.79 -309.31 C 102.952 -318.26 98.534 -329.17 98.534 -342.01 C 98.534 -354.85 102.952 -365.75 111.79 -374.33 C 120.627 -383.07 131.45 -387.57 144.275 -387.57 L 802.546 -387.57 C 815.354 -387.57 826.352 -383.07 835.52 -374.33 C 844.669 -365.38 849.262 -354.48 849.262 -341.64 C 849.262 -328.77 844.669 -318.08 835.52 -309.12 C 826.352 -300.35 815.354 -296.07 802.546 -296.07 L 144.275 -296.07 Z" style="stroke-width: 0.05;"/>
</svg>