<?xml version="1.0" encoding="utf-8"?>
<svg xmlns="http://www.w3.org/2000/svg" height="48" width="48">
  <path d="M 39.25 32.8 C 39.25 37.033 37.767 40.633 34.8 43.6 C 31.833 46.567 28.233 48.05 24 48.05 C 19.8 48.05 16.217 46.567 13.25 43.6 C 10.283 40.633 8.783 37.033 8.75 32.8 C 8.75 32.783 8.75 32.767 8.75 32.75 C 8.75 32.733 8.75 32.717 8.75 32.7 C 8.775 29.434 9.674 26.546 11.446 24.033 C 9.648 21.506 8.75 18.595 8.75 15.3 C 8.75 15.283 8.75 15.266 8.75 15.249 C 8.75 15.232 8.75 15.216 8.75 15.2 C 8.783 10.967 10.283 7.367 13.25 4.4 C 16.217 1.433 19.817 -0.05 24.05 -0.05 C 28.25 -0.05 31.833 1.433 34.8 4.4 C 37.767 7.367 39.25 10.967 39.25 15.2 C 39.25 15.217 39.25 15.234 39.25 15.251 C 39.25 15.268 39.25 15.284 39.25 15.3 C 39.225 18.566 38.326 21.454 36.554 23.967 C 38.352 26.494 39.25 29.405 39.25 32.7 C 39.25 32.717 39.25 32.733 39.25 32.75 C 39.25 32.767 39.25 32.783 39.25 32.8 Z" style=""/>
</svg>