<?xml version="1.0" encoding="utf-8"?>
<svg xmlns="http://www.w3.org/2000/svg" height="48" viewBox="0 -960 960 960" width="48">
  <path d="M 149 -135 C 122.967 -135 100.79 -144.16 82.47 -162.48 C 64.157 -180.793 55 -202.967 55 -229 L 55 -731 C 55 -757.307 64.157 -779.717 82.47 -798.23 C 100.79 -816.743 122.967 -826 149 -826 L 811 -826 C 837.307 -826 859.717 -816.743 878.23 -798.23 C 896.743 -779.717 906 -757.307 906 -731 L 906 -229 C 906 -202.967 896.743 -180.793 878.23 -162.48 C 859.717 -144.16 837.307 -135 811 -135 Z M 481 -319 C 547.42 -319 604.693 -334.833 652.82 -366.5 C 700.94 -398.167 725 -436 725 -480 C 725 -524 700.94 -561.833 652.82 -593.5 C 604.693 -625.167 547.42 -641 481 -641 C 414.58 -641 357.307 -625.167 309.18 -593.5 C 261.06 -561.833 237 -524 237 -480 C 237 -436 261.06 -398.167 309.18 -366.5 C 357.307 -334.833 414.58 -319 481 -319 Z"/>
  <path d="M 149 -229 L 149 -731 L 149 -229 Z"/>
</svg>