<?xml version="1.0" encoding="utf-8"?>
<svg xmlns="http://www.w3.org/2000/svg" height="48" viewBox="0 -960 960 960" width="48">
  <path d="M 94.834 -102.44 C 84.816 -116.47 80.608 -132.7 82.211 -151.13 C 91.027 -248.12 115.874 -339.09 156.752 -424.05 C 197.63 -509.02 250.731 -583.95 316.054 -648.88 C 381.378 -713.8 456.922 -766.29 542.685 -806.37 C 628.447 -846.41 719.82 -870.46 816.805 -878.51 C 833.636 -879.31 848.064 -874.48 860.087 -864.11 C 872.11 -853.65 878.121 -840.06 878.121 -823.21 C 878.121 -807.97 873.111 -794.55 863.092 -782.93 C 853.074 -771.31 840.45 -765.09 825.22 -764.3 C 741.863 -757.88 663.514 -737.24 590.174 -702.38 C 548.996 -682.801 510.534 -659.937 474.788 -633.792 C 487.594 -628.16 499.333 -620.021 510 -609.32 C 525.975 -593.401 536.345 -575.132 541.115 -554.454 C 564.486 -570.383 589.265 -584.553 615.07 -596.75 C 669.746 -622.05 730.877 -637.99 792.467 -643.36 C 799.82 -643.36 809.205 -642.38 815.899 -640.18 C 822.654 -637.99 830.904 -632.8 836.502 -628.43 C 841.981 -623.24 848.279 -615.27 851.247 -608.5 C 854.197 -601.93 856.128 -592.16 856.128 -584.59 C 856.128 -570.84 849.235 -554.5 840.865 -543.54 C 836.084 -538.35 828.792 -532.38 822.594 -529.2 C 816.397 -526.21 807.769 -524.21 800.716 -523.61 C 751.84 -520.03 708.202 -508.48 665.422 -487.96 C 622.264 -467.63 585.999 -442.32 553.242 -409.45 C 520.224 -376.96 494.661 -340.9 474.118 -298.06 C 453.295 -255.41 441.439 -211.59 437.414 -162.76 C 435.361 -149.02 428.129 -133.27 419.123 -122.71 C 413.943 -117.74 406.19 -112.15 399.675 -109.37 C 393.18 -106.77 383.755 -104.79 376.522 -104.79 C 368.392 -104.79 357.752 -107.18 350.758 -110.76 C 343.744 -114.35 335.775 -121.71 330.834 -128.3 C 322.763 -140.84 317.922 -159.38 318.539 -174.72 C 324.337 -236.29 340.757 -296.46 366.599 -350.67 C 376.949 -371.982 388.691 -392.607 401.674 -412.321 C 379.816 -416.778 360.56 -427.277 343.918 -443.74 C 333.673 -453.856 325.731 -464.961 320.098 -477.112 C 297.075 -444.772 276.691 -410.253 258.946 -373.55 C 223.679 -300.61 202.439 -222.46 195.225 -139.11 C 193.623 -123.08 187.41 -109.45 176.59 -98.236 C 165.769 -87.015 152.343 -81.4 136.313 -81.4 C 118.68 -81.4 104.854 -88.41 94.834 -102.44 Z M 393.293 -492.67 C 402.6 -483.44 414.78 -478.84 426.959 -478.84 C 433.501 -478.84 440.008 -480.07 446.088 -482.74 C 451.407 -485.04 456.389 -488.41 460.732 -492.67 C 461.867 -493.73 462.948 -494.97 463.959 -496.38 C 479.188 -515 478.071 -542.66 460.644 -560.03 C 453.286 -567.48 444.138 -571.91 434.618 -573.5 C 421.517 -575.63 407.706 -572.09 396.892 -563.4 C 395.615 -562.34 394.374 -561.27 393.204 -560.03 C 392.584 -559.49 392.016 -558.79 391.449 -558.25 C 374.695 -539.47 375.298 -510.56 393.293 -492.67 Z" style=""/>
</svg>