<?xml version="1.0" encoding="utf-8"?>
<svg xmlns="http://www.w3.org/2000/svg" height="48" viewBox="0 -960 960 960" width="48">
  <path d="M 94.834 -102.44 C 84.816 -116.47 80.608 -132.7 82.211 -151.13 C 91.027 -248.12 115.874 -339.09 156.752 -424.05 C 175.066 -462.117 195.833 -498.169 219.053 -532.21 C 212.524 -543.791 207.672 -556.096 204.493 -569.17 C 201.482 -581.53 199.965 -594.55 199.965 -608.06 L 199.965 -608.54 C 199.965 -651.69 215.211 -688.68 245.704 -719.04 C 276.173 -749.4 313.21 -764.79 356.745 -764.79 C 385.27 -764.79 410.996 -758.285 433.922 -745.262 C 468.139 -768.106 504.394 -788.475 542.685 -806.37 C 628.447 -846.41 719.82 -870.46 816.805 -878.51 C 833.636 -879.31 848.064 -874.48 860.087 -864.11 C 872.11 -853.65 878.121 -840.06 878.121 -823.21 C 878.121 -807.97 873.111 -794.55 863.092 -782.93 C 853.074 -771.31 840.45 -765.09 825.22 -764.3 C 741.863 -757.88 663.514 -737.24 590.174 -702.38 C 560.997 -688.507 533.183 -672.985 506.733 -655.815 C 511.245 -641.066 513.501 -625.382 513.501 -608.79 C 513.501 -608.54 513.501 -608.54 513.501 -608.29 C 513.501 -608.29 513.501 -608.29 513.501 -608.06 C 513.501 -589.8 510.797 -572.76 505.414 -557.09 C 497.969 -535.04 485.449 -515.12 467.832 -497.59 C 437.363 -467.47 400.397 -452.53 356.886 -452.53 C 356.838 -452.53 356.792 -452.53 356.745 -452.53 C 356.697 -452.53 356.65 -452.53 356.602 -452.53 C 339.388 -452.53 323.189 -454.871 308.009 -459.568 C 289.875 -432.366 273.521 -403.694 258.946 -373.55 C 223.679 -300.61 202.439 -222.46 195.225 -139.11 C 193.623 -123.08 187.41 -109.45 176.59 -98.236 C 165.769 -87.015 152.343 -81.4 136.313 -81.4 C 118.68 -81.4 104.854 -88.41 94.834 -102.44 Z M 311.692 -563.26 C 324.142 -550.68 340.431 -544.53 356.745 -544.53 C 365.47 -544.53 374.172 -546.17 382.328 -549.74 C 389.418 -553.04 396.081 -557.55 401.891 -563.26 C 403.432 -564.66 404.855 -566.33 406.207 -568.01 C 426.574 -593.15 425.081 -630.12 401.772 -653.13 C 391.932 -663.31 379.721 -669.25 366.988 -671.15 C 349.464 -674 330.994 -669.49 316.506 -657.87 C 314.798 -656.44 313.163 -654.79 311.573 -653.13 C 310.767 -652.41 309.985 -651.45 309.227 -650.76 C 286.819 -625.62 287.649 -587.2 311.692 -563.26 Z M 330.834 -128.3 C 322.763 -140.84 317.922 -159.38 318.539 -174.72 C 324.337 -236.29 340.757 -296.46 366.599 -350.67 C 392.722 -404.46 427.711 -453.87 469.136 -495.32 C 510.839 -536.56 560.674 -571.04 615.07 -596.75 C 669.746 -622.05 730.877 -637.99 792.467 -643.36 C 799.82 -643.36 809.205 -642.38 815.899 -640.18 C 822.654 -637.99 830.904 -632.8 836.502 -628.43 C 841.981 -623.24 848.279 -615.27 851.247 -608.5 C 854.197 -601.93 856.128 -592.16 856.128 -584.59 C 856.128 -570.84 849.235 -554.5 840.865 -543.54 C 836.084 -538.35 828.792 -532.38 822.594 -529.2 C 816.397 -526.21 807.769 -524.21 800.716 -523.61 C 751.84 -520.03 708.202 -508.48 665.422 -487.96 C 622.264 -467.63 585.999 -442.32 553.242 -409.45 C 520.224 -376.96 494.661 -340.9 474.118 -298.06 C 453.295 -255.41 441.439 -211.59 437.414 -162.76 C 435.361 -149.02 428.129 -133.27 419.123 -122.71 C 413.943 -117.74 406.19 -112.15 399.675 -109.37 C 393.18 -106.77 383.755 -104.79 376.522 -104.79 C 368.392 -104.79 357.752 -107.18 350.758 -110.76 C 343.744 -114.35 335.775 -121.71 330.834 -128.3 Z" style=""/>
</svg>