<?xml version="1.0" encoding="utf-8"?>
<svg xmlns="http://www.w3.org/2000/svg" height="48" viewBox="0 -960 960 960" width="48">
  <path d="M 809.59 -289.76 C 842.47 -272.24 864.81 -237.63 864.81 -197.8 C 864.81 -140.29 818.24 -93.675 760.61 -93.675 C 720.08 -93.675 684.97 -116.87 667.8 -150.73 L 290.97 -150.82 C 274.06 -115.87 238.22 -91.788 196.51 -91.788 C 138.72 -91.788 91.79 -138.75 91.79 -196.7 C 91.79 -254.64 138.72 -301.63 196.51 -301.63 C 237.79 -301.63 273.45 -277.87 290.78 -243.31 L 667 -243.27 C 677.48 -264.85 695.19 -282.26 716.97 -292.36 L 717.15 -669.02 C 682.33 -686.1 658.36 -721.89 658.36 -763.28 C 658.36 -821.23 705.29 -868.21 763.27 -868.21 C 821.27 -868.21 868.21 -821.23 868.21 -763.28 C 868.21 -721.97 844.24 -686.22 809.59 -669.12 Z M 510.163 -530.25 L 353.455 -686.98 C 344.585 -695.9 340.311 -706.36 340.634 -718.32 C 340.957 -730.28 345.534 -740.73 354.406 -749.64 C 363.276 -758.58 373.875 -762.94 386.222 -762.94 C 398.568 -762.94 409.167 -758.58 418.038 -749.64 L 605.137 -562.55 C 609.563 -558.2 613.058 -553.05 615.584 -547.37 C 618.11 -541.65 619.383 -535.96 619.383 -530.25 C 619.383 -524.55 618.11 -518.87 615.584 -513.17 C 613.058 -507.48 609.563 -502.34 605.137 -497.96 L 417.088 -309.92 C 408.218 -300.99 397.771 -296.81 385.747 -297.01 C 373.723 -297.38 363.276 -301.95 354.406 -310.87 C 345.534 -319.79 341.109 -330.24 341.109 -342.59 C 341.109 -354.94 345.534 -365.58 354.406 -374.51 Z" style="stroke-width: 1;"/>
</svg>