<?xml version="1.0" encoding="utf-8"?>
<svg xmlns="http://www.w3.org/2000/svg" height="48" viewBox="0 -960 960 960" width="48">
  <path d="M 94.834 -102.44 C 84.816 -116.47 80.608 -132.7 82.211 -151.13 C 91.027 -248.12 115.874 -339.09 156.752 -424.05 C 197.63 -509.02 250.731 -583.95 316.054 -648.88 C 381.378 -713.8 456.922 -766.29 542.685 -806.37 C 628.447 -846.41 719.82 -870.46 816.805 -878.51 C 833.636 -879.31 848.064 -874.48 860.087 -864.11 C 872.11 -853.65 878.121 -840.06 878.121 -823.21 C 878.121 -807.97 873.111 -794.55 863.092 -782.93 C 853.074 -771.31 840.45 -765.09 825.22 -764.3 C 741.863 -757.88 663.514 -737.24 590.174 -702.38 C 516.836 -667.51 452.113 -622.22 396.006 -566.53 C 339.899 -510.81 294.212 -446.49 258.946 -373.55 C 223.679 -300.61 202.439 -222.46 195.225 -139.11 C 193.623 -123.08 187.41 -109.45 176.59 -98.236 C 165.769 -87.015 152.343 -81.4 136.313 -81.4 C 118.68 -81.4 104.854 -88.41 94.834 -102.44 Z M 503.713 -323.772 C 490.793 -302.234 479.673 -280.026 470.633 -257.199 C 461.593 -234.368 454.073 -211.306 448.143 -188.036 C 445.563 -174.256 438.313 -163.269 426.673 -155.072 C 415.053 -146.877 402.393 -142.793 388.673 -142.793 C 368.773 -142.793 352.983 -150.342 341.373 -165.416 C 329.733 -180.486 325.603 -197.525 329.203 -216.477 C 335.933 -246.647 345.223 -276.148 356.873 -305.028 C 368.513 -333.908 382.993 -361.7 400.303 -388.407 C 410.663 -403.919 425.383 -412.53 444.773 -414.262 C 464.163 -415.994 480.463 -410.383 493.393 -397.457 C 504.503 -387.114 511.233 -375.041 513.283 -361.261 C 515.353 -347.481 512.253 -334.967 503.713 -323.772 Z M 817.849 -571.977 C 817.849 -558.196 813.719 -545.477 805.439 -533.841 C 797.169 -522.208 786.319 -514.658 772.619 -511.22 C 749.339 -506.049 726.329 -498.731 704.089 -489.244 C 681.599 -479.755 659.629 -468.56 638.189 -455.634 C 626.019 -447.877 613.089 -445.083 599.399 -447.23 C 585.419 -449.377 573.539 -456.072 563.189 -467.267 C 549.229 -480.194 543.549 -496.353 545.609 -515.743 C 547.679 -535.135 556.729 -550 572.249 -560.343 C 598.869 -576.709 626.539 -590.722 655.499 -602.354 C 684.459 -613.99 713.919 -623.684 744.159 -631.442 C 763.039 -634.879 780.119 -630.795 795.089 -619.163 C 810.099 -607.526 817.849 -591.806 817.849 -571.977 Z" style=""/>
</svg>