<?xml version="1.0" encoding="utf-8"?>
<svg xmlns="http://www.w3.org/2000/svg" height="48" viewBox="0 -960 960 960" width="48">
  <path d="M 480 -15 C 395.33 -15 323.33 -44.667 264 -104 C 204.67 -163.33 175 -235.33 175 -320 C 175 -343.33 177.67 -365.67 183 -387 C 188.33 -408.33 195.67 -428.33 205 -447 C 237 -402.33 277 -367.5 325 -342.5 C 373 -317.5 424.67 -305 480 -305 C 534.67 -305 586.17 -317.5 634.5 -342.5 C 682.83 -367.5 723 -402.33 755 -447 C 764.33 -428.33 771.67 -408.33 777 -387 C 782.33 -365.67 785 -343.33 785 -320 C 785 -235.33 755.33 -163.33 696 -104 C 636.67 -44.667 564.67 -15 480 -15 Z M 480 -945 C 520.67 -945 559.5 -937.33 596.5 -922 C 633.5 -906.67 666.33 -884.33 695 -855 C 730.33 -819.67 755 -778.67 769 -732 C 783 -685.33 785 -637.67 775 -589 C 773.67 -576.33 768 -565.83 758 -557.5 C 748 -549.17 736.67 -545.67 724 -547 C 711.33 -548.33 701 -553.83 693 -563.5 C 685 -573.17 681.67 -584.67 683 -598 C 691.67 -632.67 691.17 -666.83 681.5 -700.5 C 671.83 -734.17 654.33 -763.67 629 -789 C 609 -808.33 586.17 -823.33 560.5 -834 C 534.83 -844.67 508 -850 480 -850 C 452 -850 425.33 -844.67 400 -834 C 374.67 -823.33 352.33 -808.33 333 -789 C 307 -763.67 289.17 -734.17 279.5 -700.5 C 269.83 -666.83 269 -632.67 277 -598 C 279 -584.67 275.83 -573.17 267.5 -563.5 C 259.17 -553.83 248.67 -548 236 -546 C 222.67 -544.67 211.17 -548.17 201.5 -556.5 C 191.83 -564.83 186.33 -575.33 185 -588 C 174.33 -636.67 176.17 -684.5 190.5 -731.5 C 204.83 -778.5 229.67 -819.67 265 -855 C 293.67 -884.33 326.5 -906.67 363.5 -922 C 400.5 -937.33 439.33 -945 480 -945 Z M 232 -480 C 232 -485.33 232.67 -490.17 234 -494.5 C 235.33 -498.83 237.67 -503.33 241 -508 C 269.67 -545.33 304.83 -574.17 346.5 -594.5 C 388.17 -614.83 432.67 -625 480 -625 C 527.33 -625 571.83 -614.83 613.5 -594.5 C 655.17 -574.17 690.33 -545.33 719 -508 C 722.33 -503.33 724.5 -498.83 725.5 -494.5 C 726.5 -490.17 727 -485.33 727 -480 C 727 -474.67 726.5 -469.83 725.5 -465.5 C 724.5 -461.17 722.33 -456.67 719 -452 C 690.33 -414.67 655.17 -385.83 613.5 -365.5 C 571.83 -345.17 527.33 -335 480 -335 C 432.67 -335 388.17 -345.17 346.5 -365.5 C 304.83 -385.83 269.67 -414.67 241 -452 C 237.67 -456.67 235.33 -461.17 234 -465.5 C 232.67 -469.83 232 -474.67 232 -480 Z" style=""/>
</svg>