<?xml version="1.0" encoding="utf-8"?>
<svg xmlns="http://www.w3.org/2000/svg" height="48" viewBox="0 -960 960 960" width="48">
  <path d="M 168.91 -528.3 L 168.78 -354.64 C 168.78 -325.85 145.439 -302.51 116.645 -302.51 C 87.852 -302.51 64.51 -325.85 64.51 -354.64 L 64.51 -527.2 C 64.51 -593.26 86.811 -649.57 131.415 -696.14 C 176.029 -742.7 231.855 -766.72 296.65 -768.21 L 296.655 -768.21 C 361.516 -766.74 417.265 -742.71 461.901 -696.15 C 506.56 -649.57 528.773 -593.26 528.773 -527.2 L 528.773 -431.69 C 528.773 -411.92 532.327 -393.68 539.213 -376.98 C 545.443 -363.25 553.884 -350.46 564.979 -338.57 C 589.819 -311.84 627.122 -297.56 663.283 -295.29 L 663.283 -295.3 C 699.323 -297.56 729.993 -311.84 754.849 -338.58 C 765.922 -350.49 774.53 -363.31 780.672 -377.03 C 787.613 -393.73 791.078 -411.94 791.078 -431.7 L 791.213 -605.35 C 791.213 -634.15 814.556 -657.49 843.35 -657.49 L 843.351 -657.49 C 872.146 -657.49 895.489 -634.15 895.489 -605.35 L 895.489 -432.8 C 895.489 -366.74 873.188 -310.43 828.573 -263.86 C 784.229 -217.56 729.905 -193.54 665.592 -191.81 L 665.593 -191.79 L 655.385 -191.79 C 590.524 -193.26 535.892 -217.29 491.222 -263.85 C 446.585 -310.41 424.373 -366.74 424.373 -432.8 L 424.373 -528.31 C 424.373 -548.06 421.03 -566.27 413.922 -582.98 C 407.924 -596.71 399.272 -609.52 388.155 -621.43 C 363.288 -648.17 332.856 -662.66 296.861 -664.92 L 296.655 -664.92 L 296.655 -664.91 C 296.6 -664.91 296.533 -664.91 296.477 -664.91 C 260.448 -662.66 230.006 -648.16 205.139 -621.42 C 194.077 -609.51 185.469 -596.69 179.316 -582.96 C 172.375 -566.27 168.91 -548.06 168.91 -528.3 Z" style=""/>
</svg>