<?xml version="1.0" encoding="utf-8"?>
<svg width="100%" height="100%" viewBox="0 0 48 48" version="1.1" xmlns="http://www.w3.org/2000/svg" style="fill-rule:evenodd;clip-rule:evenodd;stroke-linejoin:round;stroke-miterlimit:2;">
  <path d="M 14.709 12.287 C 14.709 13.628 13.897 14.835 12.656 15.342 C 11.744 15.618 10.956 16.177 10.257 16.929 C 9.704 17.524 9.273 18.165 8.966 18.852 C 8.619 19.686 8.446 20.597 8.446 21.585 L 8.439 30.268 C 8.439 31.707 7.272 32.874 5.832 32.874 C 4.393 32.874 3.226 31.707 3.226 30.268 L 3.226 21.64 C 3.226 18.337 4.341 15.521 6.571 13.193 C 8.252 11.439 10.251 10.325 12.52 9.85 C 13.05 9.746 13.598 9.885 14.015 10.228 C 14.432 10.571 14.673 11.083 14.673 11.623 C 14.709 11.841 14.709 12.065 14.709 12.287 Z M 33.291 35.577 C 33.291 34.299 34.076 33.152 35.268 32.688 C 36.208 32.409 37.024 31.844 37.742 31.071 C 38.296 30.475 38.727 29.834 39.034 29.148 C 39.381 28.313 39.554 27.403 39.554 26.415 L 39.561 17.732 C 39.561 16.292 40.728 15.125 42.168 15.125 C 43.607 15.125 44.774 16.292 44.774 17.732 L 44.774 26.36 C 44.774 29.663 43.659 32.478 41.429 34.807 C 39.789 36.519 37.877 37.622 35.692 38.115 C 35.116 38.238 34.516 38.094 34.058 37.724 C 33.6 37.353 33.334 36.796 33.334 36.207 C 33.291 35.999 33.291 35.787 33.291 35.577 Z M 13.748 27.859 C 13.69 27.218 13.904 26.587 14.339 26.113 C 14.772 25.64 15.386 25.367 16.03 25.367 L 29.54 25.367 C 30.09 25.367 30.555 25.556 30.934 25.935 C 31.313 26.324 31.504 26.807 31.504 27.386 C 31.504 27.933 31.313 28.406 30.934 28.775 C 30.555 29.153 30.09 29.342 29.54 29.342 L 19.928 29.342 L 22.895 32.308 C 23.285 32.697 23.481 33.149 23.481 33.665 C 23.481 34.19 23.29 34.663 22.912 35.074 C 22.538 35.452 22.079 35.652 21.533 35.652 C 20.986 35.652 20.521 35.452 20.137 35.063 L 14.414 29.342 C 14.035 28.963 13.8 28.459 13.753 27.922 Z M 34.253 20.13 C 34.31 20.771 34.096 21.413 33.662 21.886 C 33.228 22.359 32.614 22.632 31.97 22.632 L 18.46 22.632 C 17.91 22.632 17.445 22.433 17.067 22.065 C 16.687 21.675 16.497 21.192 16.497 20.613 C 16.497 20.067 16.687 19.593 17.067 19.215 C 17.445 18.846 17.91 18.657 18.46 18.657 L 28.072 18.657 L 25.105 15.692 C 24.715 15.302 24.52 14.85 24.52 14.325 C 24.52 13.799 24.71 13.336 25.088 12.926 C 25.462 12.548 25.921 12.348 26.467 12.348 C 27.014 12.348 27.479 12.548 27.863 12.937 L 33.586 18.657 C 33.965 19.036 34.2 19.541 34.247 20.067 Z" style="stroke-width: 0.05;"/>
</svg>