<?xml version="1.0" encoding="utf-8"?>
<svg xmlns="http://www.w3.org/2000/svg" height="48" viewBox="0 -960 960 960" width="48">
  <path d="M 480.015 -944.98 C 564.685 -944.98 636.685 -915.32 696.015 -855.98 C 755.385 -796.65 784.985 -724.65 784.985 -639.98 C 784.985 -627.98 783.685 -616.32 780.985 -604.98 C 778.385 -593.65 774.985 -582.98 770.985 -572.98 C 768.985 -560.32 761.385 -552.48 747.985 -549.48 C 734.685 -546.48 723.015 -549.98 713.015 -559.98 C 681.685 -590.65 646.015 -614.15 606.015 -630.48 C 566.015 -646.82 524.015 -654.98 480.015 -654.98 C 435.345 -654.98 393.185 -646.82 353.515 -630.48 C 313.845 -614.15 278.685 -590.65 248.015 -559.98 C 236.685 -550.65 224.685 -547.32 212.015 -549.98 C 199.345 -552.65 192.015 -560.32 190.015 -572.98 C 185.345 -582.98 181.685 -593.65 179.015 -604.98 C 176.345 -616.32 175.015 -627.98 175.015 -639.98 C 175.015 -724.65 204.685 -796.65 264.015 -855.98 C 323.345 -915.32 395.345 -944.98 480.015 -944.98 Z M 479.994 -15.001 C 439.334 -15.001 400.494 -22.668 363.499 -38.001 C 326.499 -53.334 293.666 -75.668 264.999 -105 C 229.666 -140.33 204.499 -181.67 189.499 -229 C 174.499 -276.33 172.666 -324 183.999 -372 C 185.999 -385.33 191.999 -396 201.999 -404 C 211.999 -412 223.332 -415 235.999 -413 C 248.666 -411.67 259.166 -406.17 267.499 -396.5 C 275.832 -386.83 278.999 -375.33 276.999 -362 C 268.999 -327.33 269.832 -293 279.499 -259 C 289.166 -225 306.999 -195.33 332.999 -170 C 352.332 -150.67 374.664 -135.83 399.994 -125.5 C 425.334 -115.17 451.994 -110 479.994 -110 C 507.994 -110 534.834 -115.17 560.504 -125.5 C 586.164 -135.83 609.004 -150.67 629.004 -170 C 654.334 -195.33 671.834 -225 681.504 -259 C 691.164 -293 691.664 -327.33 683.004 -362 C 681.004 -375.33 684.164 -386.83 692.504 -396.5 C 700.834 -406.17 711.334 -411.67 724.004 -413 C 736.664 -415 748.004 -412 758.004 -404 C 768.004 -396 773.664 -385.33 775.004 -372 C 785.664 -324 783.834 -276.33 769.504 -229 C 755.164 -181.67 730.334 -140.33 695.004 -105 C 666.334 -75.668 633.504 -53.334 596.504 -38.001 C 559.504 -22.668 520.664 -15.001 479.994 -15.001 Z M 232 -480 C 232 -485.33 232.67 -490.17 234 -494.5 C 235.33 -498.83 237.67 -503.33 241 -508 C 269.67 -545.33 304.83 -574.17 346.5 -594.5 C 388.17 -614.83 432.67 -625 480 -625 C 527.33 -625 571.83 -614.83 613.5 -594.5 C 655.17 -574.17 690.33 -545.33 719 -508 C 722.33 -503.33 724.5 -498.83 725.5 -494.5 C 726.5 -490.17 727 -485.33 727 -480 C 727 -474.67 726.5 -469.83 725.5 -465.5 C 724.5 -461.17 722.33 -456.67 719 -452 C 690.33 -414.67 655.17 -385.83 613.5 -365.5 C 571.83 -345.17 527.33 -335 480 -335 C 432.67 -335 388.17 -345.17 346.5 -365.5 C 304.83 -385.83 269.67 -414.67 241 -452 C 237.67 -456.67 235.33 -461.17 234 -465.5 C 232.67 -469.83 232 -474.67 232 -480 Z" style=""/>
</svg>