<?xml version="1.0" encoding="utf-8"?>
<svg xmlns="http://www.w3.org/2000/svg" height="48" viewBox="0 -960 960 960" width="48">
  <path d="M 330.574 -123.123 C 322.48 -135.879 317.615 -154.326 318.25 -169.884 C 324.064 -231.705 340.537 -291.974 366.482 -346.38 C 392.698 -400.457 427.826 -450.017 469.404 -491.605 C 511.271 -532.932 561.275 -567.701 615.886 -593.412 C 670.758 -618.814 732.116 -634.812 793.941 -640.122 C 801.315 -640.278 810.741 -639.248 817.455 -637.009 C 824.245 -634.745 832.525 -629.711 838.153 -625.159 C 843.651 -620.011 849.957 -612.057 852.947 -605.282 C 855.901 -598.588 857.849 -588.736 857.849 -581.13 C 857.849 -567.379 850.933 -550.944 842.526 -540.003 C 837.715 -534.781 830.411 -528.746 824.193 -525.685 C 817.966 -522.621 809.308 -520.561 802.22 -519.954 C 753.155 -516.379 709.364 -504.866 666.424 -484.215 C 623.096 -463.79 586.71 -438.346 553.83 -405.448 C 520.692 -372.81 495.029 -336.669 474.394 -293.578 C 453.504 -250.86 441.605 -206.817 437.557 -157.737 C 435.507 -143.921 428.234 -128.095 419.206 -117.701 C 414.012 -112.663 406.217 -106.965 399.674 -104.229 C 393.168 -101.507 383.71 -99.7 376.435 -99.7 C 368.281 -99.7 357.604 -102.093 350.593 -105.656 C 343.545 -109.237 335.553 -116.707 330.574 -123.123 Z M 224.435 -254.567 C 219.637 -236.276 216.039 -218.816 213.453 -201.857 C 210.991 -185.115 209.694 -169.143 209.436 -153.727 C 208.407 -135.315 202.497 -118.843 191.984 -104.774 C 181.439 -90.655 167.896 -81.777 151.222 -77.847 C 134.672 -74.143 119.377 -76.344 105.567 -84.869 C 91.789 -93.444 84.518 -105.407 83.94 -121.03 C 81.619 -150.307 82.99 -180.923 88.11 -213.105 C 93.245 -245.301 102.529 -278.854 116.204 -314.168 C 121.32 -329.666 131.194 -340.131 145.821 -345.497 C 160.458 -350.891 175.335 -349.207 190.463 -340.472 C 204.879 -332.149 215.221 -320.116 221.255 -303.965 C 227.417 -288.029 228.485 -271.57 224.435 -254.567 Z M 698.64 -734.61 C 681.724 -730.617 665.602 -731.944 650.33 -738.427 C 634.956 -745.093 623.141 -755.58 614.916 -769.826 C 606.926 -783.665 605.342 -798.028 610.08 -813.13 C 614.684 -828.467 624.697 -838.578 640.106 -843.479 C 672.168 -854.484 703.811 -862.915 734.964 -868.846 C 766.141 -874.745 797.387 -877.174 828.79 -876.032 C 845.55 -875.304 859.19 -867.903 869.447 -854.276 C 879.732 -840.596 882.473 -825.469 877.542 -809.066 C 873.681 -792.439 864.832 -778.669 850.953 -767.769 C 837.074 -756.869 820.805 -750.964 802.274 -749.768 C 784.683 -750.293 767.14 -749.078 749.604 -746.159 C 732.082 -743.226 715.056 -739.469 698.64 -734.61 Z M 376.514 -547.56 C 365.382 -537.19 354.659 -525.4 344.302 -511.95 C 334.014 -498.71 324.211 -484.28 314.969 -468.89 C 305.243 -454.7 292.176 -444.42 275.774 -438.08 C 259.446 -431.99 243.329 -431.35 227.459 -436.37 C 211.587 -441.4 200.87 -451.61 195.274 -467 C 189.66 -482.35 190.647 -496.47 198.323 -509.72 C 216.307 -541.74 234.611 -569.96 253.267 -594.42 C 262.751 -606.93 272.756 -618.79 283.283 -630.02 C 284.207 -631.09 285.185 -632.14 286.216 -633.18 C 287.943 -634.96 289.691 -636.74 291.461 -638.5 C 299.231 -646.35 307.273 -653.87 315.588 -661.06 C 317.5 -662.87 319.493 -664.47 321.565 -665.86 C 333.305 -675.61 345.78 -685.02 358.989 -694.07 C 386.361 -713.08 416.293 -729.6 448.751 -743.77 C 462.414 -750.81 476.293 -750.18 490.332 -742.18 C 504.389 -734.13 513.326 -722.5 517.244 -707 C 521.271 -691.06 519.849 -675.51 512.822 -660.84 C 505.789 -646.2 495.293 -634.25 481.443 -624.59 C 465.304 -617.15 450.247 -607.97 436.243 -597.19 C 422.217 -586.48 408.996 -575.13 396.556 -563.25 C 390.709 -557.37 384.465 -552.62 377.82 -548.98 C 377.391 -548.51 376.955 -548.03 376.514 -547.56 Z" style="stroke-width: 50px;"/>
</svg>