<?xml version="1.0" encoding="utf-8"?>
<svg viewBox="0 0 22 22" xmlns="http://www.w3.org/2000/svg">
  <path d="M 17.5 17 C 17.5 17.276 17.276 17.5 17 17.5 L 15 17.5 C 15.276 17.5 15.5 17.724 15.5 18 L 15.5 19 C 15.5 19.276 15.276 19.5 15 19.5 L 14 19.5 C 13.724 19.5 13.5 19.276 13.5 19 C 13.5 19.276 13.276 19.5 13 19.5 L 9 19.5 C 8.724 19.5 8.5 19.276 8.5 19 C 8.5 19.276 8.276 19.5 8 19.5 L 7 19.5 C 6.724 19.5 6.5 19.276 6.5 19 L 6.5 18 C 6.5 17.724 6.724 17.5 7 17.5 L 5 17.5 C 4.724 17.5 4.5 17.276 4.5 17 L 4.5 15 C 4.5 15.276 4.276 15.5 4 15.5 L 3 15.5 C 2.724 15.5 2.5 15.276 2.5 15 L 2.5 14 C 2.5 13.724 2.724 13.5 3 13.5 C 2.724 13.5 2.5 13.276 2.5 13 L 2.5 9 C 2.5 8.724 2.724 8.5 3 8.5 C 2.724 8.5 2.5 8.276 2.5 8 L 2.5 7 C 2.5 6.724 2.724 6.5 3 6.5 L 4 6.5 C 4.276 6.5 4.5 6.724 4.5 7 L 4.5 5 C 4.5 4.724 4.724 4.5 5 4.5 L 7 4.5 C 6.724 4.5 6.5 4.276 6.5 4 L 6.5 3 C 6.5 2.724 6.724 2.5 7 2.5 L 8 2.5 C 8.276 2.5 8.5 2.724 8.5 3 C 8.5 2.724 8.724 2.5 9 2.5 L 13 2.5 C 13.276 2.5 13.5 2.724 13.5 3 C 13.5 2.724 13.724 2.5 14 2.5 L 15 2.5 C 15.276 2.5 15.5 2.724 15.5 3 L 15.5 4 C 15.5 4.276 15.276 4.5 15 4.5 L 17 4.5 C 17.276 4.5 17.5 4.724 17.5 5 L 17.5 7 C 17.5 6.724 17.724 6.5 18 6.5 L 19 6.5 C 19.276 6.5 19.5 6.724 19.5 7 L 19.5 8 C 19.5 8.276 19.276 8.5 19 8.5 C 19.276 8.5 19.5 8.724 19.5 9 L 19.5 13 C 19.5 13.276 19.276 13.5 19 13.5 C 19.276 13.5 19.5 13.724 19.5 14 L 19.5 15 C 19.5 15.276 19.276 15.5 19 15.5 L 18 15.5 C 17.724 15.5 17.5 15.276 17.5 15 L 17.5 17 Z M 14.5 16.5 L 16.5 16.5 L 16.5 14.5 L 14.5 14.5 L 14.5 16.5 Z M 5.5 16.5 L 7.5 16.5 L 7.5 14.5 L 5.5 14.5 L 5.5 16.5 Z M 9.5 16.5 L 12.5 16.5 L 12.5 14.5 L 9.5 14.5 L 9.5 16.5 Z M 14.5 12.5 L 16.5 12.5 L 16.5 9.5 L 14.5 9.5 L 14.5 12.5 Z M 5.5 12.5 L 7.5 12.5 L 7.5 9.5 L 5.5 9.5 L 5.5 12.5 Z M 9.5 12.5 L 12.5 12.5 L 12.5 9.5 L 9.5 9.5 L 9.5 12.5 Z M 14.5 7.5 L 16.5 7.5 L 16.5 5.5 L 14.5 5.5 L 14.5 7.5 Z M 5.5 7.5 L 7.5 7.5 L 7.5 5.5 L 5.5 5.5 L 5.5 7.5 Z M 9.5 7.5 L 12.5 7.5 L 12.5 5.5 L 9.5 5.5 L 9.5 7.5 Z"/>
</svg>