<?xml version="1.0" encoding="utf-8"?>
<svg viewBox="0 0 16 16" xmlns="http://www.w3.org/2000/svg">
  <path d="M 1.5 2 C 1.5 1.724 1.724 1.5 2 1.5 L 14 1.5 C 14.276 1.5 14.5 1.724 14.5 2 L 14.5 14 C 14.5 14.276 14.276 14.5 14 14.5 L 2 14.5 C 1.724 14.5 1.5 14.276 1.5 14 L 1.5 2 Z M 7.5 13.5 L 7.5 12.5 L 6.5 12.5 L 6.5 13.5 L 7.5 13.5 Z M 13.5 13.5 L 13.5 12.5 L 12.5 12.5 L 12.5 13.5 L 13.5 13.5 Z M 8.5 13.5 L 9.5 13.5 L 9.5 12.5 L 8.5 12.5 L 8.5 13.5 Z M 10.5 13.5 L 11.5 13.5 L 11.5 12.5 L 10.5 12.5 L 10.5 13.5 Z M 13.5 11.5 L 13.5 10.5 L 12.5 10.5 L 12.5 11.5 L 13.5 11.5 Z M 9.5 2.5 L 8.5 2.5 L 8.5 3.5 L 9.5 3.5 L 9.5 2.5 Z M 13.5 2.5 L 12.5 2.5 L 12.5 3.5 L 13.5 3.5 L 13.5 2.5 Z M 10.5 2.5 L 10.5 3.5 L 11.5 3.5 L 11.5 2.5 L 10.5 2.5 Z M 5.5 2.5 L 4.5 2.5 L 4.5 3.5 L 5.5 3.5 L 5.5 2.5 Z M 7.5 2.5 L 6.5 2.5 L 6.5 3.5 L 7.5 3.5 L 7.5 2.5 Z M 3.5 2.5 L 2.5 2.5 L 2.5 3.5 L 3.5 3.5 L 3.5 2.5 Z M 13.5 4.5 L 12.5 4.5 L 12.5 5.5 L 13.5 5.5 L 13.5 4.5 Z M 2.5 11.5 L 3.5 11.5 L 3.5 10.5 L 2.5 10.5 L 2.5 11.5 Z M 13.5 9.5 L 13.5 8.5 L 12.5 8.5 L 12.5 9.5 L 13.5 9.5 Z M 13.5 7.5 L 13.5 6.5 L 12.5 6.5 L 12.5 7.5 L 13.5 7.5 Z M 2.5 13.5 L 3.5 13.5 L 3.5 12.5 L 2.5 12.5 L 2.5 13.5 Z M 5.5 13.5 L 5.5 12.5 L 4.5 12.5 L 4.5 13.5 L 5.5 13.5 Z M 11.5 11.5 L 11.5 10.5 L 10.5 10.5 L 10.5 11.5 L 11.5 11.5 Z M 4.5 11.5 L 5.5 11.5 L 5.5 10.5 L 4.5 10.5 L 4.5 11.5 Z M 6.5 11.5 L 7.5 11.5 L 7.5 10.5 L 6.5 10.5 L 6.5 11.5 Z M 8.5 11.5 L 9.5 11.5 L 9.5 10.5 L 8.5 10.5 L 8.5 11.5 Z M 5.5 9.5 L 5.5 8.5 L 4.5 8.5 L 4.5 9.5 L 5.5 9.5 Z M 6.5 9.5 L 7.5 9.5 L 7.5 8.5 L 6.5 8.5 L 6.5 9.5 Z M 8.5 9.5 L 9.5 9.5 L 9.5 8.5 L 8.5 8.5 L 8.5 9.5 Z M 10.5 9.5 L 11.5 9.5 L 11.5 8.5 L 10.5 8.5 L 10.5 9.5 Z M 9.5 7.5 L 9.5 6.5 L 8.5 6.5 L 8.5 7.5 L 9.5 7.5 Z M 10.5 7.5 L 11.5 7.5 L 11.5 6.5 L 10.5 6.5 L 10.5 7.5 Z M 3.5 6.5 L 2.5 6.5 L 2.5 7.5 L 3.5 7.5 L 3.5 6.5 Z M 4.5 7.5 L 5.5 7.5 L 5.5 6.5 L 4.5 6.5 L 4.5 7.5 Z M 6.5 7.5 L 7.5 7.5 L 7.5 6.5 L 6.5 6.5 L 6.5 7.5 Z M 7.5 5.5 L 7.5 4.5 L 6.5 4.5 L 6.5 5.5 L 7.5 5.5 Z M 8.5 4.5 L 8.5 5.5 L 9.5 5.5 L 9.5 4.5 L 8.5 4.5 Z M 2.5 5.5 L 3.5 5.5 L 3.5 4.5 L 2.5 4.5 L 2.5 5.5 Z M 11.5 4.5 L 10.5 4.5 L 10.5 5.5 L 11.5 5.5 L 11.5 4.5 Z M 2.5 9.5 L 3.5 9.5 L 3.5 8.5 L 2.5 8.5 L 2.5 9.5 Z M 5.5 5.5 L 5.5 4.5 L 4.5 4.5 L 4.5 5.5 L 5.5 5.5 Z"/>
</svg>