<?xml version="1.0" encoding="utf-8"?>
<svg viewBox="0 0 22 22" xmlns="http://www.w3.org/2000/svg">
  <path d="M 20.5 11 C 20.5 12.796 19.349 14.52 17.641 15.659 C 15.952 16.785 13.557 17.5 11 17.5 C 8.443 17.5 6.048 16.785 4.359 15.659 C 2.651 14.52 1.5 12.796 1.5 11 C 1.5 9.204 2.651 7.48 4.359 6.341 C 6.048 5.215 8.443 4.5 11 4.5 C 13.557 4.5 15.952 5.215 17.641 6.341 C 19.349 7.48 20.5 9.204 20.5 11 Z M 5.608 7.888 C 4.241 8.743 3.5 9.765 3.5 11 C 3.5 12.235 4.241 13.257 5.608 14.112 C 6.996 14.979 8.858 15.5 11 15.5 C 13.142 15.5 15.004 14.979 16.392 14.112 C 17.759 13.257 18.5 12.235 18.5 11 C 18.5 9.765 17.759 8.743 16.392 7.888 C 15.004 7.021 13.142 6.5 11 6.5 C 8.858 6.5 6.996 7.021 5.608 7.888 Z"/>
</svg>