<?xml version="1.0" encoding="utf-8"?>
<svg xmlns="http://www.w3.org/2000/svg" height="48" viewBox="0 -960 960 960" width="48">
  <path d="M 189 -189 L 571 -189 L 571 -342 C 571 -355.167 575.543 -366.293 584.63 -375.38 C 593.71 -384.46 604.833 -389 618 -389 L 771 -389 L 771 -771 L 189 -771 L 189 -189 Z M 189 -95 C 163.147 -95 141.017 -104.203 122.61 -122.61 C 104.203 -141.017 95 -163.147 95 -189 L 95 -771 C 95 -797.127 104.203 -819.49 122.61 -838.09 C 141.017 -856.697 163.147 -866 189 -866 L 771 -866 C 797.127 -866 819.49 -856.697 838.09 -838.09 C 856.697 -819.49 866 -797.127 866 -771 L 866 -396 C 866 -382.96 863.333 -370.533 858 -358.72 C 852.667 -346.907 845.667 -336.667 837 -328 L 632 -123 C 623.18 -114.273 612.993 -107.427 601.44 -102.46 C 589.893 -97.487 577.747 -95 565 -95 L 189 -95 Z M 189 -189 L 189 -771 L 189 -189 Z"/>
</svg>