<?xml version="1.0" encoding="utf-8"?>
<svg xmlns="http://www.w3.org/2000/svg" height="48" viewBox="0 -960 960 960" width="48">
  <path d="M 925.793 -480 C 925.793 -451.11 902.369 -427.68 873.475 -427.68 C 857.665 -427.68 843.493 -434.695 833.9 -445.78 L 690.675 -445.78 C 682.275 -446.38 671.815 -450.38 666.457 -455.78 C 661.116 -461.2 656.497 -471.59 656.497 -479.99 C 656.497 -488.39 661.176 -498.79 666.537 -504.18 C 671.915 -509.58 682.335 -513.58 690.675 -514.18 L 833.865 -514.18 C 843.459 -525.289 857.646 -532.32 873.475 -532.32 C 902.369 -532.32 925.793 -508.89 925.793 -480 Z M 579.096 -521.449 C 581.094 -521.502 582.955 -521.351 584.862 -521.142 C 593.223 -519.95 600.811 -516.449 607.225 -510.036 C 607.464 -509.797 607.702 -509.559 607.941 -509.32 C 608.384 -508.876 608.828 -508.433 609.272 -507.989 C 616.266 -500.655 619.746 -491.716 620.126 -481.451 C 620.177 -481.06 620.036 -480.509 620.095 -480.124 C 620.174 -468.774 616.088 -458.888 607.978 -450.607 C 599.892 -442.316 590.304 -438.257 579.104 -438.214 L 521.151 -438.156 L 521.166 -381.502 C 521.14 -369.945 517.363 -360.061 509.669 -351.718 C 502.168 -343.536 492.36 -339.357 480.431 -339.335 C 480.414 -339.352 480.414 -339.352 480.398 -339.369 C 468.816 -339.354 458.872 -343.5 450.548 -351.824 C 442.701 -359.671 438.557 -368.934 437.945 -379.445 C 437.944 -380.126 437.942 -380.807 437.948 -381.494 L 437.909 -438.157 L 381.246 -438.195 C 370.032 -438.138 360.428 -442.283 352.468 -450.597 C 344.348 -458.716 340.321 -468.542 340.337 -480.123 C 340.269 -480.19 340.218 -480.241 340.319 -480.48 C 340.235 -491.482 344.236 -501.114 352.364 -509.377 C 359.306 -516.421 367.389 -520.274 376.443 -521.106 C 377.981 -521.279 379.587 -521.384 381.254 -521.414 L 437.924 -521.383 L 437.943 -578.343 C 437.909 -589.634 441.967 -599.562 450.122 -608.124 C 458.055 -616.228 468.032 -620.577 479.953 -620.591 C 491.899 -620.596 501.742 -616.212 509.538 -608.076 C 517.277 -599.644 521.09 -589.708 521.1 -578.426 C 521.168 -578.358 521.238 -578.289 521.119 -578.068 L 521.157 -521.405 Z M 86.527 -427.68 C 57.631 -427.68 34.207 -451.1 34.207 -480 C 34.207 -508.9 57.631 -532.32 86.527 -532.32 C 102.34 -532.32 116.514 -525.307 126.107 -514.22 L 272.057 -514.22 C 280.392 -513.58 290.825 -509.62 296.197 -504.28 C 301.571 -498.93 306.235 -488.48 306.235 -480.1 C 306.235 -471.74 301.621 -461.29 296.278 -455.9 C 290.928 -450.49 280.454 -446.45 272.057 -445.78 L 126.107 -445.78 C 116.514 -434.693 102.34 -427.68 86.527 -427.68 Z" style="stroke-width: 0.637;"/>
</svg>