<?xml version="1.0" encoding="utf-8"?>
<svg xmlns="http://www.w3.org/2000/svg" height="48" viewBox="0 -960 960 960" width="48">
  <path d="M 925.793 -480 C 925.793 -451.11 902.369 -427.68 873.475 -427.68 C 857.665 -427.68 843.493 -434.695 833.9 -445.78 L 664.868 -445.78 C 656.468 -446.38 646.008 -450.38 640.65 -455.78 C 635.309 -461.2 630.69 -471.59 630.69 -479.99 C 630.69 -488.39 635.369 -498.79 640.73 -504.18 C 646.108 -509.58 656.528 -513.58 664.868 -514.18 L 833.865 -514.18 C 843.459 -525.289 857.646 -532.32 873.475 -532.32 C 902.369 -532.32 925.793 -508.89 925.793 -480 Z M 86.527 -427.68 C 57.631 -427.68 34.207 -451.1 34.207 -480 C 34.207 -508.9 57.631 -532.32 86.527 -532.32 C 102.34 -532.32 116.514 -525.307 126.107 -514.22 L 295.132 -514.22 C 303.467 -513.58 313.9 -509.62 319.272 -504.28 C 324.646 -498.93 329.31 -488.48 329.31 -480.1 C 329.31 -471.74 324.696 -461.29 319.353 -455.9 C 314.003 -450.49 303.529 -446.45 295.132 -445.78 L 126.107 -445.78 C 116.514 -434.693 102.34 -427.68 86.527 -427.68 Z M 520.763 -579.38 C 522.138 -580.83 523.561 -582.04 525.057 -583.24 C 531.812 -588.31 539.653 -591.2 548.723 -591.2 C 549.061 -591.2 549.398 -591.2 549.736 -591.2 C 550.363 -591.2 550.99 -591.2 551.618 -591.2 C 561.75 -590.96 570.531 -587.1 578.058 -580.11 C 578.371 -579.87 578.661 -579.38 578.975 -579.15 C 587.056 -571.18 591.157 -561.3 591.278 -549.71 C 591.423 -538.13 587.514 -528.48 579.625 -520.53 L 538.687 -479.51 L 578.757 -439.46 C 586.911 -431.27 591.229 -421.61 591.688 -410.27 C 592.17 -399.18 588.19 -389.29 579.77 -380.84 C 579.746 -380.84 579.746 -380.84 579.723 -380.84 C 571.544 -372.64 561.581 -368.54 549.809 -368.54 C 538.711 -368.54 529.231 -372.16 521.366 -379.16 C 520.884 -379.64 520.401 -380.12 519.919 -380.61 L 479.825 -420.65 L 439.731 -380.61 C 431.842 -372.64 422.12 -368.78 410.613 -369.03 C 399.13 -369.03 389.335 -373.13 381.157 -381.33 C 381.061 -381.33 380.989 -381.33 380.892 -381.57 C 373.052 -389.29 369.071 -398.93 368.975 -410.52 C 368.903 -420.41 371.894 -428.85 377.708 -435.84 C 378.673 -437.05 379.735 -438.26 380.892 -439.46 L 420.986 -479.51 L 380.723 -519.8 C 372.714 -527.76 368.564 -537.65 368.276 -549.47 C 368.155 -560.81 372.135 -570.94 380.554 -579.38 C 388.998 -587.83 399.058 -591.69 410.323 -591.45 C 421.758 -590.96 431.48 -586.63 439.465 -578.66 C 439.561 -578.66 439.659 -578.66 439.731 -578.42 L 479.825 -538.38 Z" style="stroke-width: 0.637;"/>
</svg>