<?xml version="1.0" encoding="utf-8"?>
<svg viewBox="0 0 22 22" xmlns="http://www.w3.org/2000/svg">
  <path d="M 10.833 4.871 C 10.423 4.871 10.057 4.965 9.734 5.156 C 9.411 5.347 9.131 5.597 8.894 5.908 C 8.721 6.184 8.476 6.373 8.161 6.477 C 7.846 6.578 7.552 6.557 7.281 6.409 C 6.952 6.292 6.721 6.079 6.589 5.772 C 6.457 5.464 6.48 5.179 6.66 4.917 C 7.101 4.179 7.692 3.599 8.429 3.176 C 9.167 2.751 9.972 2.539 10.844 2.539 C 12.097 2.539 13.186 2.949 14.11 3.766 C 15.034 4.585 15.496 5.608 15.496 6.835 C 15.496 7.197 15.451 7.539 15.363 7.86 C 15.275 8.183 15.128 8.491 14.923 8.784 C 14.513 9.342 14.058 9.833 13.56 10.258 C 13.061 10.684 12.651 11.189 12.329 11.775 C 12.27 11.864 12.197 12.083 12.109 12.436 C 12.04 12.778 11.895 13.068 11.674 13.307 C 11.454 13.547 11.173 13.667 10.833 13.667 C 10.454 13.667 10.147 13.541 9.911 13.29 C 9.676 13.039 9.573 12.746 9.601 12.411 C 9.631 12.151 9.676 11.903 9.734 11.668 C 9.792 11.432 9.892 11.197 10.036 10.963 C 10.362 10.391 10.789 9.899 11.316 9.489 C 11.845 9.079 12.302 8.603 12.689 8.063 C 12.772 7.959 12.886 7.568 13.033 6.897 C 13.033 6.338 12.81 5.86 12.367 5.464 C 11.924 5.068 11.413 4.871 10.833 4.871 Z M 10.837 18.857 C 10.366 18.857 9.961 18.693 9.623 18.363 C 9.287 18.035 9.118 17.627 9.118 17.141 C 9.118 16.701 9.287 16.313 9.623 15.977 C 9.96 15.638 10.363 15.47 10.835 15.47 C 11.307 15.47 11.703 15.638 12.023 15.977 C 12.345 16.313 12.505 16.709 12.505 17.164 C 12.505 17.618 12.345 18.014 12.025 18.352 C 11.705 18.688 11.308 18.857 10.837 18.857 Z M 16.844 18.965 C 16.844 19.249 16.746 19.489 16.552 19.685 C 16.358 19.882 16.118 19.98 15.832 19.98 C 15.547 19.98 15.306 19.882 15.108 19.685 C 14.912 19.489 14.813 19.249 14.813 18.965 L 14.813 14.989 C 14.813 14.704 14.911 14.465 15.107 14.267 C 15.303 14.072 15.544 13.973 15.829 13.973 L 19.804 13.973 C 20.088 13.973 20.328 14.071 20.524 14.265 C 20.721 14.46 20.819 14.7 20.819 14.986 C 20.819 15.271 20.721 15.513 20.524 15.709 C 20.328 15.906 20.088 16.005 19.804 16.005 L 18.269 16.005 L 19.955 17.69 C 20.157 17.891 20.257 18.129 20.257 18.403 C 20.257 18.676 20.16 18.914 19.963 19.116 C 19.756 19.317 19.512 19.422 19.231 19.429 C 18.95 19.436 18.709 19.34 18.507 19.137 L 16.844 17.452 Z"/>
</svg>