<?xml version="1.0" encoding="utf-8"?>
<svg viewBox="0 0 22 22" xmlns="http://www.w3.org/2000/svg">
  <path d="M 4.694 3 L 4.694 17.054 L 11 17.054 C 11.276 17.054 11.5 17.278 11.5 17.554 L 11.5 18.554 C 11.5 18.83 11.276 19.054 11 19.054 L 4.694 19.054 L 4.694 19.554 C 4.694 19.83 4.47 20.054 4.194 20.054 L 3.194 20.054 C 2.918 20.054 2.694 19.83 2.694 19.554 L 2.694 19.054 L 2.194 19.054 C 1.918 19.054 1.694 18.83 1.694 18.554 L 1.694 17.554 C 1.694 17.278 1.918 17.054 2.194 17.054 L 2.694 17.054 L 2.694 3 C 2.694 2.724 2.918 2.5 3.194 2.5 L 4.194 2.5 C 4.47 2.5 4.694 2.724 4.694 3 Z M 18.5 3 L 18.5 11.666 C 18.5 11.942 18.276 12.166 18 12.166 L 17 12.166 C 16.724 12.166 16.5 11.942 16.5 11.666 L 16.5 3 C 16.5 2.724 16.724 2.5 17 2.5 L 18 2.5 C 18.276 2.5 18.5 2.724 18.5 3 Z M 10.121 5.204 C 9.852 5.204 9.648 5.253 9.444 5.379 C 9.229 5.504 9.062 5.653 8.905 5.862 C 8.748 6.095 8.511 6.271 8.244 6.367 C 7.965 6.448 7.67 6.424 7.425 6.31 C 7.14 6.199 6.913 5.979 6.786 5.712 C 6.68 5.427 6.701 5.112 6.854 4.86 C 7.197 4.295 7.674 3.827 8.239 3.497 C 8.809 3.175 9.459 3 10.129 3 C 11.09 3 11.969 3.338 12.684 3.96 C 13.39 4.6 13.781 5.442 13.781 6.391 C 13.781 6.672 13.743 6.956 13.676 7.208 C 13.604 7.464 13.476 7.733 13.314 7.965 C 13.004 8.384 12.655 8.765 12.278 9.085 C 11.931 9.381 11.647 9.734 11.423 10.144 C 11.395 10.178 11.359 10.3 11.298 10.546 C 11.237 10.826 11.102 11.091 10.921 11.294 C 10.716 11.501 10.419 11.638 10.121 11.638 C 9.795 11.638 9.474 11.505 9.265 11.285 C 9.057 11.065 8.957 10.74 8.973 10.441 C 8.995 10.245 9.03 10.046 9.074 9.866 C 9.124 9.673 9.212 9.469 9.324 9.285 C 9.576 8.844 9.92 8.45 10.321 8.133 C 10.696 7.846 11.011 7.515 11.283 7.134 C 11.321 7.101 11.378 6.874 11.481 6.405 C 11.485 6.065 11.371 5.824 11.075 5.574 C 10.792 5.308 10.5 5.204 10.121 5.204 Z M 10.125 15.434 C 9.732 15.434 9.349 15.269 9.062 15.001 C 8.786 14.719 8.617 14.333 8.617 13.929 C 8.617 13.559 8.786 13.186 9.06 12.901 C 9.347 12.626 9.73 12.458 10.122 12.458 C 10.518 12.458 10.896 12.629 11.173 12.906 C 11.433 13.19 11.593 13.567 11.593 13.945 C 11.593 14.325 11.432 14.699 11.173 14.986 C 10.898 15.262 10.518 15.434 10.125 15.434 Z M 15.257 18.539 C 15.257 18.823 15.159 19.063 14.965 19.259 C 14.771 19.456 14.531 19.554 14.245 19.554 C 13.96 19.554 13.719 19.456 13.521 19.259 C 13.325 19.063 13.226 18.823 13.226 18.539 L 13.226 14.563 C 13.226 14.278 13.324 14.039 13.52 13.841 C 13.716 13.646 13.957 13.547 14.242 13.547 L 18.217 13.547 C 18.501 13.547 18.741 13.645 18.937 13.839 C 19.134 14.034 19.232 14.274 19.232 14.56 C 19.232 14.845 19.134 15.087 18.937 15.283 C 18.741 15.48 18.501 15.579 18.217 15.579 L 16.682 15.579 L 18.368 17.264 C 18.57 17.465 18.67 17.703 18.67 17.977 C 18.67 18.25 18.573 18.488 18.376 18.69 C 18.169 18.891 17.925 18.996 17.644 19.003 C 17.363 19.01 17.122 18.914 16.92 18.711 L 15.257 17.026 Z"/>
</svg>