<?xml version="1.0" encoding="utf-8"?>
<svg xmlns="http://www.w3.org/2000/svg" height="48" viewBox="0 -960 960 960" width="48">
  <path d="M 273.766 -96.31 C 246.959 -96.31 224.423 -105.34 206.156 -123.41 C 187.896 -141.48 178.766 -163.78 178.766 -190.31 L 178.766 -314.31 C 178.766 -327.48 183.463 -338.61 192.856 -347.69 C 202.249 -356.77 213.523 -361.31 226.676 -361.31 C 239.836 -361.31 250.973 -356.77 260.086 -347.69 C 269.206 -338.61 273.766 -327.48 273.766 -314.31 L 273.766 -190.31 L 775.766 -190.31 L 775.766 -314.31 C 775.766 -327.48 780.266 -338.61 789.266 -347.69 C 798.266 -356.77 809.373 -361.31 822.586 -361.31 C 835.806 -361.31 846.973 -356.77 856.086 -347.69 C 865.206 -338.61 869.766 -327.48 869.766 -314.31 L 869.766 -190.31 C 869.766 -163.78 860.733 -141.48 842.666 -123.41 C 824.599 -105.34 802.299 -96.31 775.766 -96.31 L 273.766 -96.31 Z M 340.48 -496.84 C 348.839 -488.59 353.037 -478.54 353.037 -466.88 C 353.037 -455.22 348.839 -445.18 340.48 -436.75 C 332.102 -428.49 322.236 -424.01 310.881 -423.83 C 299.507 -423.47 289.641 -427.6 281.282 -435.85 L 103.687 -613.44 C 99.49 -617.75 96.207 -622.41 93.821 -627.79 C 91.417 -633.18 90.233 -638.56 90.233 -643.94 C 90.233 -649.32 91.417 -654.7 93.821 -660.08 C 96.207 -665.47 99.49 -670.31 103.687 -674.43 L 280.385 -851.13 C 288.744 -859.56 298.772 -863.69 310.432 -863.69 C 322.092 -863.69 332.102 -859.56 340.48 -851.13 C 348.839 -842.88 353.18 -833.01 353.485 -821.53 C 353.772 -810.23 349.736 -800.37 341.377 -791.93 L 193.381 -643.94 L 340.48 -496.84 Z" style=""/>
</svg>