<?xml version="1.0" encoding="utf-8"?>
<svg xmlns="http://www.w3.org/2000/svg" height="48" viewBox="0 -960 960 960" width="48">
  <path d="M 339.677 -339.83 C 300.699 -378.92 281.211 -425.68 281.211 -480.14 C 281.211 -534.61 300.751 -581.34 339.829 -620.33 C 378.907 -659.31 425.682 -678.79 480.153 -678.79 C 534.619 -678.79 581.342 -659.24 620.325 -620.18 C 659.301 -581.09 678.789 -534.32 678.789 -479.86 C 678.789 -425.38 659.249 -378.65 620.171 -339.68 C 581.093 -300.7 534.318 -281.21 479.848 -281.21 C 425.382 -281.21 378.658 -300.75 339.677 -339.83 Z M 543.715 -445.17 C 553.58 -445.17 561.852 -448.51 568.529 -455.2 C 575.207 -461.91 578.545 -470.17 578.545 -480.04 C 578.545 -489.89 575.207 -498.16 568.529 -504.81 C 561.852 -511.5 553.58 -514.83 543.715 -514.83 L 410.339 -514.83 C 400.474 -514.83 392.202 -511.49 385.525 -504.8 C 378.847 -498.11 375.509 -489.83 375.509 -479.96 C 375.509 -470.11 378.847 -461.84 385.525 -455.19 C 392.202 -448.5 400.474 -445.17 410.339 -445.17 Z M 170.083 -476.68 C 170.083 -426.64 179.382 -383.47 198.027 -347.14 C 216.647 -310.81 242.051 -279.05 274.235 -251.89 L 304.72 -232.82 L 304.72 -232.458 C 304.72 -245.158 308.936 -255.818 317.42 -264.198 C 325.879 -272.598 336.878 -276.898 350.444 -276.898 C 363.146 -276.898 373.713 -272.598 382.199 -264.198 C 390.658 -255.818 394.899 -245.158 394.899 -232.458 L 394.899 -114.69 C 394.899 -97.688 389.184 -83.714 377.752 -72.284 C 366.321 -60.854 352.12 -55 335.202 -55 L 129.439 -55 C 116.737 -55 106.144 -59.582 97.685 -68.468 C 89.201 -77.354 84.985 -88.035 84.985 -100.74 C 84.985 -113.44 89.201 -124.1 97.685 -132.48 C 106.144 -140.86 117.143 -145.18 130.709 -145.18 L 218.35 -145.18 L 211.999 -151.54 C 156.951 -199.04 116.103 -248.84 89.429 -300.9 C 62.756 -352.98 49.42 -411.42 49.42 -476.68 C 49.42 -563.07 73.121 -641.56 120.548 -712.42 C 167.95 -783.06 230.619 -835.64 308.53 -870.44 C 322.07 -876.27 334.77 -875 346.634 -866.62 C 358.471 -858.24 366.524 -846.31 370.767 -831.06 C 374.984 -815.82 373.51 -801.09 366.321 -786.61 C 359.107 -772.13 348.742 -761.21 335.202 -753.58 C 284.397 -726.4 244.159 -688.29 214.539 -638.76 C 184.893 -589.22 170.083 -535.12 170.083 -476.68 Z M 789.914 -484.32 C 789.914 -521.65 780.389 -559.76 761.336 -598.63 C 742.284 -637.49 718.354 -672.3 689.572 -702.77 L 660.36 -728.17 L 660.36 -723.87 C 660.36 -711.19 655.914 -700.51 647.024 -692.13 C 638.133 -683.75 627.335 -679.43 614.634 -679.43 C 601.934 -679.43 591.136 -684.01 582.245 -692.89 C 573.356 -701.78 568.909 -712.44 568.909 -725.14 L 568.909 -846.31 C 568.909 -863.33 574.626 -877.55 586.056 -888.98 C 597.487 -900.41 612.095 -906 629.876 -906 L 834.371 -906 C 847.071 -906 857.868 -901.68 866.759 -893.3 C 875.649 -884.92 880.095 -874.25 880.095 -861.55 C 880.095 -848.85 875.649 -838.17 866.759 -829.28 C 857.868 -820.4 847.071 -815.82 834.371 -815.82 L 744.19 -815.82 L 751.811 -806.93 C 804.292 -757.9 843.896 -704.81 870.57 -648.17 C 897.242 -591.52 910.579 -536.9 910.579 -484.32 C 910.579 -398.7 887.716 -321.23 841.99 -251.36 C 796.265 -181.51 734.867 -128.16 657.82 -91.833 C 644.254 -84.986 630.918 -85.735 617.81 -93.872 C 604.676 -101.75 595.989 -113.94 591.772 -129.94 C 586.692 -145.18 587.734 -159.93 594.947 -174.4 C 602.136 -188.88 612.933 -199.81 627.335 -207.42 C 677.278 -233.59 716.882 -271.7 746.094 -321.74 C 775.308 -371.78 789.914 -425.89 789.914 -484.32 Z" style=""/>
</svg>