<?xml version="1.0" encoding="utf-8"?>
<svg clip-rule="evenodd" fill-rule="evenodd" stroke-linejoin="round" stroke-miterlimit="2" viewBox="0 0 48 48" xmlns="http://www.w3.org/2000/svg">
  <path d="M 30.869 12.417 C 30.818 12.422 30.746 12.432 30.669 12.449 C 29.834 12.637 28.059 13.773 26.069 15.906 C 25.686 16.328 25.145 16.57 24.575 16.57 C 23.469 16.57 22.558 15.659 22.558 14.553 C 22.558 14.239 22.632 13.924 22.775 13.644 C 22.869 13.462 22.985 13.299 23.121 13.155 C 25.494 10.61 27.619 9.003 29.79 8.513 L 29.793 8.513 C 30.079 8.451 30.373 8.408 30.671 8.398 C 31.587 8.358 32.523 8.581 33.284 9.15 C 34.277 9.898 34.807 11.057 35.012 12.316 C 35.4 14.679 34.829 17.53 33.708 20.758 C 32.602 23.938 30.911 27.437 28.787 30.805 C 28.422 31.389 27.775 31.747 27.084 31.747 C 25.978 31.747 25.066 30.837 25.066 29.733 C 25.066 29.35 25.175 28.978 25.377 28.657 C 27.338 25.543 28.906 22.286 29.896 19.435 C 30.869 16.642 31.237 14.2 31.032 12.963 C 30.99 12.699 30.911 12.509 30.869 12.417 Z M 8.564 25.311 C 8.59 25.348 8.628 25.392 8.664 25.437 C 9.205 26.046 11.057 27.039 13.914 27.706 C 14.825 27.921 15.474 28.738 15.474 29.671 C 15.474 30.777 14.563 31.689 13.457 31.689 C 13.304 31.689 13.151 31.672 13 31.636 C 9.58 30.837 7.119 29.782 5.638 28.098 C 4.839 27.19 4.344 25.928 4.556 24.676 C 4.763 23.446 5.536 22.444 6.561 21.647 C 8.489 20.155 11.333 19.227 14.766 18.61 C 17.304 18.15 20.158 17.894 23.116 17.879 C 24.101 17.871 25.098 17.892 26.099 17.941 C 27.168 17.995 28.02 18.887 28.02 19.955 C 28.02 21.061 27.108 21.971 26.002 21.971 L 25.904 21.971 C 22.2 21.79 18.528 22.025 15.482 22.575 C 12.492 23.113 10.094 24.013 9.033 24.834 C 8.775 25.032 8.628 25.217 8.564 25.311 Z M 30.886 38.179 C 30.903 38.14 30.923 38.086 30.943 38.032 C 31.204 37.254 31.133 35.138 30.274 32.316 C 30.215 32.12 30.185 31.921 30.185 31.715 C 30.185 30.613 31.093 29.701 32.199 29.701 C 32.874 29.701 33.501 30.04 33.879 30.598 L 33.881 30.605 C 33.99 30.77 34.072 30.95 34.128 31.146 C 35.155 34.518 35.481 37.185 34.763 39.319 C 34.377 40.466 33.523 41.531 32.329 41.975 C 31.153 42.407 29.896 42.234 28.691 41.738 C 26.43 40.807 24.195 38.795 21.938 36.114 C 19.708 33.476 17.519 30.172 15.689 26.59 C 15.541 26.306 15.467 25.99 15.467 25.669 C 15.467 24.565 16.373 23.654 17.477 23.654 C 18.235 23.652 18.931 24.077 19.276 24.748 C 20.968 28.056 23.015 31.135 25.022 33.516 C 26.99 35.852 28.973 37.496 30.227 38.01 L 30.227 38.012 C 30.538 38.14 30.775 38.173 30.886 38.179 Z M 16 12.419 C 15.973 12.479 15.923 12.592 15.891 12.724 C 15.776 13.175 15.736 13.948 15.862 14.968 L 15.862 14.981 C 15.869 15.047 15.872 15.113 15.872 15.181 C 15.872 16.287 14.96 17.195 13.856 17.195 C 12.857 17.195 12 16.452 11.861 15.459 L 11.859 15.452 C 11.686 14.045 11.708 12.82 11.985 11.731 C 12.277 10.578 12.929 9.501 13.978 8.899 C 14.644 8.516 15.388 8.368 16.136 8.393 C 16.573 8.404 17.01 8.481 17.43 8.6 C 18.511 8.909 19.578 9.511 20.716 10.367 C 20.914 10.511 21.087 10.691 21.217 10.899 C 21.43 11.224 21.541 11.605 21.541 11.993 C 21.541 13.099 20.633 14.007 19.525 14.007 C 19.077 14.007 18.64 13.86 18.286 13.583 C 17.464 12.963 16.78 12.607 16.326 12.479 C 16.192 12.439 16.07 12.425 16 12.419 Z M 38.318 25.301 C 38.279 25.249 38.207 25.155 38.113 25.064 C 37.78 24.735 37.131 24.311 36.185 23.908 C 35.434 23.597 34.94 22.862 34.94 22.046 C 34.94 20.943 35.852 20.032 36.956 20.032 L 36.983 20.032 C 37.252 20.037 37.518 20.096 37.76 20.202 C 39.074 20.763 40.125 21.39 40.933 22.18 C 41.785 23.015 42.388 24.13 42.373 25.348 C 42.356 26.568 41.734 27.659 40.871 28.484 C 40.054 29.262 38.995 29.886 37.676 30.442 C 37.414 30.562 37.128 30.624 36.834 30.624 C 35.731 30.624 34.82 29.716 34.82 28.61 C 34.82 27.772 35.338 27.022 36.123 26.723 C 37.081 26.323 37.743 25.896 38.091 25.568 C 38.202 25.459 38.279 25.358 38.318 25.301 Z M 15.998 38.19 C 16.066 38.183 16.195 38.166 16.345 38.121 C 16.818 37.98 17.53 37.607 18.38 36.955 L 18.38 36.953 C 18.73 36.689 19.156 36.546 19.595 36.546 C 20.701 36.546 21.612 37.456 21.612 38.56 C 21.612 39.183 21.326 39.765 20.84 40.148 L 20.835 40.15 C 19.679 41.041 18.587 41.661 17.491 41.987 C 16.328 42.331 15.049 42.32 13.98 41.708 C 12.909 41.094 12.259 39.995 11.97 38.82 C 11.699 37.708 11.689 36.457 11.876 35.012 C 11.906 34.767 11.978 34.53 12.091 34.309 L 12.094 34.306 C 12.449 33.635 13.155 33.215 13.916 33.23 C 15.007 33.249 15.894 34.153 15.894 35.244 C 15.894 35.343 15.889 35.442 15.872 35.543 C 15.736 36.597 15.768 37.392 15.884 37.864 C 15.919 38.004 15.968 38.126 15.998 38.19 Z M 40.269 11.344 L 39.143 8.834 L 36.632 7.707 C 36.121 7.46 35.864 7.071 35.864 6.527 C 35.864 5.975 36.121 5.586 36.632 5.351 L 39.143 4.274 L 40.269 1.712 C 40.474 1.231 40.851 0.995 41.396 0.995 C 41.942 0.995 42.337 1.231 42.575 1.712 L 43.702 4.274 L 46.212 5.351 C 46.725 5.586 46.981 5.975 46.981 6.527 C 46.981 7.071 46.725 7.46 46.212 7.707 L 43.702 8.834 L 42.575 11.344 C 42.337 11.856 41.942 12.112 41.396 12.112 C 40.851 12.112 40.474 11.856 40.269 11.344 Z" style=""/>
</svg>