<?xml version="1.0" encoding="utf-8"?>
<svg xmlns="http://www.w3.org/2000/svg" height="48" viewBox="0 -960 960 960" width="48">
  <path d="M 149 -135 C 122.967 -135 100.79 -144.16 82.47 -162.48 C 64.157 -180.793 55 -202.967 55 -229 L 55 -731 C 55 -757.307 64.157 -779.717 82.47 -798.23 C 100.79 -816.743 122.967 -826 149 -826 L 811 -826 C 837.307 -826 859.717 -816.743 878.23 -798.23 C 896.743 -779.717 906 -757.307 906 -731 L 906 -506.605 C 906 -493.272 901.303 -482.105 891.91 -473.105 C 882.517 -464.105 871.183 -459.605 857.91 -459.605 C 844.637 -459.605 833.5 -464.105 824.5 -473.105 C 815.5 -482.105 811 -493.272 811 -506.605 L 811 -631 L 149 -631 L 149 -229 L 528.849 -229 C 542.182 -229 553.349 -224.5 562.349 -215.5 C 571.349 -206.5 575.849 -195.333 575.849 -182 C 575.849 -168.667 571.349 -157.5 562.349 -148.5 C 553.349 -139.5 542.182 -135 528.849 -135 Z M 515.835 -515.98 C 511.589 -511.73 504.656 -508.34 498.649 -508.34 C 492.77 -508.34 486.089 -511.35 482.277 -515.16 C 478.465 -518.97 475.46 -525.65 475.46 -531.52 C 475.46 -534.86 476.531 -538.99 477.974 -542.04 C 479.021 -543.99 480.54 -546.08 481.862 -547.56 C 501.353 -568.35 520.201 -582.29 538.963 -586.86 L 539.672 -587.03 L 539.835 -587.03 L 539.519 -586.967 C 541.844 -587.422 544.591 -587.836 547.306 -587.95 C 555.619 -588.18 565.358 -585.69 572.756 -580.48 C 581.797 -573.15 587.409 -561.59 589.326 -550.64 C 592.415 -530.4 587.69 -505.77 578.563 -479.46 C 569.535 -453.57 555.615 -424.74 538.384 -397.35 C 534.183 -391.49 526.023 -386.55 518.789 -386.55 C 512.905 -386.55 506.227 -389.56 502.417 -393.36 C 498.604 -397.16 495.593 -403.83 495.593 -409.67 C 495.593 -413.79 497.126 -418.63 499.168 -422.07 C 514.711 -446.7 526.952 -472.17 534.748 -494.65 C 541.478 -513.84 544.452 -530.01 543.957 -539.63 C 537.41 -536.23 527.481 -528.58 515.835 -515.98 Z M 419.129 -321.51 L 421.896 -323.44 C 425.729 -326.12 431.248 -328.14 435.883 -328.14 C 441.763 -328.14 448.445 -325.13 452.256 -321.31 C 456.067 -317.5 459.071 -310.82 459.071 -304.95 C 459.071 -298.4 455.08 -291 450.206 -286.73 L 451.379 -287.75 L 451.204 -287.45 L 450.092 -286.6 C 440.422 -279.21 430.512 -273.63 420.966 -270.72 C 410.622 -267.84 397.635 -268.23 387.336 -273.63 C 377.467 -279.81 370.593 -290.8 367.885 -301.23 C 365.606 -310.95 365.447 -322.23 366.982 -334.24 C 367.341 -336.8 368.289 -339.94 369.458 -342.31 L 369.162 -341.71 L 369.276 -342.05 L 369.505 -342.42 C 373.643 -349.1 382.458 -354.34 390.429 -354.72 C 396.23 -354.32 402.782 -351.58 406.516 -347.79 C 410.249 -343.99 413.176 -337.38 413.176 -331.6 C 413.176 -330.62 413.126 -329.53 412.94 -328.31 C 412.306 -323.6 412.116 -319.88 412.243 -316.98 C 414.199 -318 416.475 -319.4 419.129 -321.31 Z M 603.95 -440.99 C 600.041 -442.81 595.883 -446.11 593.601 -449.51 C 591.316 -452.92 589.682 -458.04 589.682 -462.37 C 589.682 -468.24 592.684 -474.92 596.491 -478.73 C 600.299 -482.54 606.976 -485.24 612.85 -485.55 L 613.064 -485.55 C 615.965 -485.47 619.433 -484.75 622.069 -483.65 C 633.018 -478.92 642.52 -473.2 649.675 -466.3 C 657.141 -458.78 663.028 -447.25 663.326 -435.82 C 662.731 -424.34 656.658 -413.07 649.108 -405.66 C 641.91 -398.92 632.473 -393.28 621.47 -388.61 C 618.74 -387.47 615.022 -386.55 611.878 -386.55 C 606.003 -386.55 599.324 -389.56 595.517 -393.38 C 591.71 -397.19 588.709 -403.87 588.709 -409.74 C 588.709 -414.19 590.424 -419.45 592.82 -422.91 C 595.215 -426.37 599.383 -429.58 603.478 -431.32 C 607.742 -433.06 610.947 -434.73 613.336 -436.27 C 611.049 -437.74 607.98 -439.32 603.95 -440.99 Z M 412.863 -525.83 L 412.915 -525.43 L 412.915 -525.25 L 412.878 -525.63 C 412.952 -524.86 412.995 -523.97 412.995 -523.31 C 412.995 -517.4 409.991 -510.72 406.18 -506.91 C 402.366 -503.1 395.689 -500.12 389.825 -500.12 C 384.519 -500.12 378.373 -502.55 374.64 -505.79 C 370.913 -509.018 367.876 -514.803 366.887 -520.05 L 367.013 -519.38 L 366.908 -519.77 L 366.849 -520.25 C 365.431 -532.08 365.692 -543.15 368.017 -552.68 C 370.754 -562.89 377.648 -573.73 387.328 -579.75 C 393.727 -583.21 401.513 -584.86 408.315 -584.74 C 412.347 -584.62 416.674 -583.88 420.431 -582.81 C 429.861 -580.02 439.424 -574.76 448.96 -567.57 C 451.05 -565.99 453.309 -563.6 454.772 -561.42 C 456.911 -557.88 458.496 -552.93 458.496 -548.89 C 458.496 -542.99 455.498 -536.3 451.687 -532.49 C 447.874 -528.68 441.195 -525.7 435.321 -525.7 C 430.582 -525.7 424.934 -527.82 421.085 -530.57 C 417.632 -533.21 414.689 -535.1 412.249 -536.38 C 412.132 -533.66 412.297 -530.2 412.863 -525.83 Z M 537.567 -353.08 C 536.975 -355.18 536.557 -357.79 536.557 -359.96 C 536.557 -365.83 539.558 -372.5 543.37 -376.3 C 547.179 -380.1 553.852 -383.08 559.726 -383.08 C 566.771 -383.08 574.71 -378.46 579.014 -372.78 L 579.548 -372.08 L 579.636 -371.78 L 579.038 -372.706 C 580.195 -370.906 581.275 -368.592 581.897 -366.53 C 590.265 -338.88 592.85 -315.36 586.927 -296.7 C 583.243 -286.37 574.267 -275.67 563.158 -271.04 C 552.07 -267.4 539.45 -268.78 528.9 -273.01 C 509.732 -281.11 490.463 -298.27 472.023 -320.13 C 453.884 -341.64 435.894 -368.75 421.013 -397.82 C 419.52 -400.9 418.425 -405.06 418.425 -408.46 C 418.425 -414.32 421.411 -421 425.209 -424.81 C 429.008 -428.63 435.682 -431.65 441.56 -431.65 C 449.462 -431.65 458.169 -425.83 462.235 -419.05 C 475.614 -392.87 491.612 -368.73 507.476 -350 C 521.466 -333.29 534.737 -321.72 543.917 -317.06 C 544.234 -324.34 542.623 -336.77 537.567 -353.08 Z M 388.727 -415.32 C 393.516 -413.96 398.718 -410.76 401.607 -407.12 C 404.497 -403.47 406.64 -397.68 406.64 -392.73 C 406.64 -386.85 403.638 -380.17 399.827 -376.36 C 396.016 -372.55 389.333 -369.54 383.451 -369.54 C 381.831 -369.54 379.732 -369.81 378.183 -370.13 C 350.161 -376.77 328.557 -386.35 315.426 -400.71 C 308.401 -409.05 303.601 -422.07 305.112 -434 C 307.457 -445.42 314.988 -455.67 323.832 -462.69 C 340.355 -475.17 364.709 -483.31 392.719 -488.43 C 413.392 -492.13 436.896 -494.24 460.922 -494.4 C 468.944 -494.46 477.126 -494.25 485.241 -493.85 C 490.915 -493.3 497.296 -490.46 500.91 -486.67 C 504.524 -482.87 507.33 -476.37 507.33 -470.68 C 507.33 -464.8 504.318 -458.12 500.501 -454.33 C 496.686 -450.53 490.011 -447.86 484.141 -447.55 L 483.02 -447.56 C 453.68 -448.96 425.002 -447.14 400.943 -442.8 C 379.761 -439.03 363.231 -433.32 354.65 -427.77 C 360.809 -423.86 372.261 -419.06 388.727 -415.32 Z M 749.533 -152.92 L 723.256 -211.44 L 664.728 -237.71 C 652.785 -243.46 646.813 -252.52 646.813 -265.19 C 646.813 -278.09 652.785 -287.17 664.728 -292.65 L 723.256 -317.74 L 749.533 -377.46 C 754.31 -388.69 763.077 -394.19 775.81 -394.19 C 788.542 -394.19 797.715 -388.69 803.281 -377.46 L 829.558 -317.74 L 888.084 -292.65 C 900.028 -287.17 906 -278.09 906 -265.19 C 906 -252.52 900.028 -243.46 888.084 -237.71 L 829.558 -211.44 L 803.281 -152.92 C 797.715 -140.97 788.542 -135 775.81 -135 C 763.077 -135 754.31 -140.97 749.533 -152.92 Z"/>
</svg>