<?xml version="1.0" encoding="utf-8"?>
<svg xmlns="http://www.w3.org/2000/svg" height="48" viewBox="0 -960 960 960" width="48">
  <path d="M 191.526 -292.16 L 121.222 -221.85 C 107.577 -208.2 92.151 -204.95 74.946 -212.09 C 57.741 -219.23 49.138 -231.97 49.138 -250.33 L 49.138 -822.55 C 49.138 -845.96 57.287 -865.9 73.584 -882.38 C 89.888 -898.85 109.623 -907.09 132.791 -907.09 L 591.863 -907.09 C 615.273 -907.09 635.216 -898.85 651.693 -882.38 C 668.168 -865.9 676.406 -845.96 676.406 -822.55 L 676.406 -375.81 C 676.406 -352.64 668.168 -332.91 651.693 -316.61 C 635.216 -300.31 615.273 -292.16 591.863 -292.16 L 191.526 -292.16 Z M 168.388 -375.81 L 591.863 -375.81 L 591.863 -822.55 L 132.791 -822.55 L 132.791 -334.87 L 168.388 -375.81 Z M 221.454 -463.47 C 216.334 -468.51 213.774 -474.83 213.774 -482.44 C 213.774 -490.05 216.334 -496.43 221.454 -501.57 C 226.568 -506.72 232.907 -509.3 240.472 -509.3 L 335.565 -509.3 C 343.129 -509.3 349.471 -506.78 354.591 -501.73 C 359.705 -496.69 362.262 -490.36 362.262 -482.76 C 362.262 -475.15 359.705 -468.77 354.591 -463.62 C 349.471 -458.48 343.129 -455.9 335.565 -455.9 L 240.472 -455.9 C 232.907 -455.9 226.568 -458.42 221.454 -463.47 Z M 221.454 -579.16 C 216.334 -584.2 213.774 -590.52 213.774 -598.13 C 213.774 -605.74 216.334 -612.12 221.454 -617.26 C 226.568 -622.41 232.907 -624.99 240.472 -624.99 L 484.182 -624.99 C 491.746 -624.99 498.088 -622.46 503.209 -617.42 C 508.322 -612.38 510.88 -606.05 510.88 -598.45 C 510.88 -590.84 508.322 -584.46 503.209 -579.31 C 498.088 -574.17 491.746 -571.59 484.182 -571.59 L 240.472 -571.59 C 232.907 -571.59 226.568 -574.11 221.454 -579.16 Z M 221.454 -694.84 C 216.334 -699.89 213.774 -706.21 213.774 -713.82 C 213.774 -721.43 216.334 -727.81 221.454 -732.95 C 226.568 -738.1 232.907 -740.68 240.472 -740.68 L 484.182 -740.68 C 491.746 -740.68 498.088 -738.16 503.209 -733.11 C 508.322 -728.07 510.88 -721.75 510.88 -714.14 C 510.88 -706.53 508.322 -700.15 503.209 -695.01 C 498.088 -689.86 491.746 -687.28 484.182 -687.28 L 240.472 -687.28 C 232.907 -687.28 226.568 -689.8 221.454 -694.84 Z M 270.731 -219.63 L 270.731 -233.54 C 270.731 -244.99 274.727 -254.66 282.549 -262.57 C 290.576 -270.47 300.321 -274.44 311.801 -274.44 C 323.285 -274.44 332.869 -270.47 340.7 -262.57 C 348.532 -254.66 352.536 -244.99 352.536 -233.54 L 352.536 -221.77 L 355.28 -220.2 L 791.586 -220.2 L 827.19 -179.26 L 827.19 -667.03 L 823.54 -668.91 L 773.214 -668.91 C 761.763 -668.91 752.086 -672.93 744.184 -680.76 C 736.282 -688.76 732.315 -698.5 732.315 -709.82 C 732.315 -721.31 736.282 -731.23 744.184 -739.24 C 752.086 -747.42 761.763 -751.59 773.214 -751.59 L 828.194 -751.59 C 851.097 -751.59 870.589 -743.59 886.705 -727.4 C 902.816 -711.21 910.861 -691.72 910.861 -668.91 L 910.861 -94.683 C 910.861 -76.369 902.264 -63.714 885.047 -56.586 C 867.833 -49.466 852.417 -52.688 838.762 -66.206 L 768.443 -136.69 L 355.28 -136.69 C 351.148 -136.69 347.125 -136.94 343.208 -137.44 C 324.55 -139.38 308.337 -147.26 294.572 -161.12 C 278.74 -177.23 270.731 -196.73 270.731 -219.63 Z" style=""/>
</svg>