<?xml version="1.0" encoding="utf-8"?>
<svg xmlns="http://www.w3.org/2000/svg" height="48" viewBox="0 -960 960 960" width="48">
  <path d="M 224.461 -54.5 C 198.428 -54.5 176.251 -63.657 157.931 -81.97 C 139.618 -100.29 130.461 -122.47 130.461 -148.5 L 130.461 -810.5 C 130.461 -836.81 139.618 -859.22 157.931 -877.73 C 176.251 -896.24 198.428 -905.5 224.461 -905.5 L 547.461 -905.5 C 560.501 -905.5 572.928 -902.83 584.741 -897.5 C 596.554 -892.17 606.794 -885.17 615.461 -876.5 L 792.461 -699.5 C 801.128 -690.83 808.128 -680.59 813.461 -668.78 C 818.794 -656.97 821.461 -644.54 821.461 -631.5 L 821.461 -546.5 C 821.461 -534.45 816.541 -524.6 806.701 -516.96 C 796.854 -509.32 785.688 -505.5 773.201 -505.5 C 762.041 -505.5 751.794 -508.88 742.461 -515.63 C 733.128 -522.38 726.794 -531.33 723.461 -542.5 L 723.461 -624.5 L 584.461 -624.5 C 571.294 -624.5 560.171 -629.04 551.091 -638.13 C 542.004 -647.21 537.461 -658.33 537.461 -671.5 L 537.461 -810.5 L 224.461 -810.5 L 224.461 -148.5 L 573.768 -148.5 C 587.168 -148.5 598.185 -143.94 606.818 -134.82 C 615.451 -125.71 619.768 -114.54 619.768 -101.32 C 619.768 -88.107 615.451 -77 606.818 -68 C 598.185 -59 587.168 -54.5 573.768 -54.5 L 224.461 -54.5 Z M 769.603 -313.65 L 814.552 -313.65 C 819.886 -313.65 824.831 -310.95 827.498 -306.15 C 830.195 -301.67 830.224 -295.96 827.557 -291.18 L 707.693 -81.411 C 704.337 -75.721 697.415 -72.72 690.852 -74.518 C 684.289 -76.317 679.705 -82.31 679.705 -88.909 L 679.705 -223.75 L 634.755 -223.75 C 629.421 -223.75 624.478 -226.75 621.811 -231.24 C 619.113 -236.04 619.083 -241.73 621.75 -246.22 L 741.615 -455.98 C 744.971 -461.99 751.894 -464.67 758.455 -463.18 C 765.018 -461.38 769.603 -455.39 769.603 -448.49 L 769.603 -313.65 Z"/>
</svg>