<?xml version="1.0" encoding="utf-8"?>
<svg viewBox="0 0 22 22" xmlns="http://www.w3.org/2000/svg">
  <path d="M 12.5 9.5 L 14 9.5 C 14.178 9.5 14.343 9.595 14.432 9.749 C 14.522 9.903 14.523 10.093 14.434 10.248 L 10.434 17.248 C 10.322 17.445 10.091 17.541 9.872 17.483 C 9.653 17.425 9.5 17.227 9.5 17 L 9.5 12.5 L 8 12.5 C 7.822 12.5 7.657 12.405 7.568 12.251 C 7.478 12.097 7.477 11.907 7.566 11.752 L 11.566 4.752 C 11.678 4.555 11.909 4.459 12.128 4.517 C 12.347 4.575 12.5 4.773 12.5 5 Z"/>
</svg>