<?xml version="1.0" encoding="utf-8"?>
<svg xmlns="http://www.w3.org/2000/svg" height="48" viewBox="0 -960 960 960" width="48">
  <path d="M 765.464 -148.46 C 752.131 -148.46 740.964 -153.13 731.964 -162.46 C 722.964 -171.79 717.797 -183.13 716.464 -196.46 C 710.464 -265.79 692.797 -330.79 663.464 -391.46 C 634.131 -452.13 596.131 -505.63 549.464 -551.96 C 502.797 -598.29 448.964 -635.96 387.964 -664.96 C 326.964 -693.96 261.797 -711.13 192.464 -716.46 C 179.797 -717.13 169.297 -722.29 160.964 -731.96 C 152.631 -741.63 148.464 -752.79 148.464 -765.46 C 148.464 -779.46 153.464 -790.79 163.464 -799.46 C 173.464 -808.13 185.464 -812.13 199.464 -811.46 C 280.131 -804.79 356.131 -784.79 427.464 -751.46 C 498.797 -718.13 561.631 -674.46 615.964 -620.46 C 670.297 -566.46 714.464 -504.13 748.464 -433.46 C 782.464 -362.79 803.131 -287.13 810.464 -206.46 C 811.797 -191.13 808.297 -177.63 799.964 -165.96 C 791.631 -154.29 780.131 -148.46 765.464 -148.46 Z M 729.835 -630.06 L 729.835 -729.83 L 630.072 -729.83 C 618.756 -729.83 609.175 -733.79 601.366 -741.71 C 593.556 -749.44 589.652 -759.07 589.652 -770.43 C 589.652 -781.78 593.556 -791.41 601.366 -799.5 C 609.175 -807.57 618.756 -811.53 630.072 -811.53 L 729.835 -811.53 C 752.453 -811.53 771.734 -803.63 787.646 -787.79 C 803.573 -771.8 811.536 -752.54 811.536 -729.83 L 811.536 -630.06 C 811.536 -618.89 807.443 -609.26 799.273 -601.51 C 791.086 -593.61 781.351 -589.65 770.032 -589.65 C 758.714 -589.65 749.186 -593.61 741.444 -601.51 C 733.704 -609.26 729.835 -618.89 729.835 -630.06 Z M 522.271 -729.83 C 510.901 -729.83 501.355 -733.96 493.615 -742.05 C 485.875 -749.95 482.005 -759.58 482.005 -770.77 C 482.005 -781.95 485.926 -791.58 493.769 -799.5 C 501.614 -807.57 511.212 -811.53 522.58 -811.53 C 533.95 -811.53 543.496 -807.4 551.236 -799.33 C 558.976 -791.24 562.846 -781.43 562.846 -770.09 C 562.846 -759.07 558.925 -749.61 551.082 -741.71 C 543.237 -733.79 533.639 -729.83 522.271 -729.83 Z M 770.101 -480.91 C 759.058 -480.91 749.58 -484.85 741.686 -492.77 C 733.79 -500.52 729.835 -510.15 729.835 -521.5 C 729.835 -532.84 733.86 -542.48 741.926 -550.22 C 749.993 -557.97 759.591 -561.74 770.737 -561.74 C 781.884 -561.74 791.464 -557.8 799.496 -550.05 C 807.529 -542.13 811.536 -532.5 811.536 -521.16 C 811.536 -509.81 807.46 -500.35 799.29 -492.6 C 791.12 -484.85 781.402 -480.91 770.101 -480.91 Z" style=""/>
</svg>