<?xml version="1.0" encoding="utf-8"?>
<svg xmlns="http://www.w3.org/2000/svg" height="48" viewBox="0 -960 960 960" width="48">
  <path d="M 435 -476 L 629 -731 L 239 -731 Z M 346 -435 L 104 -751 C 100.667 -755 98.333 -759.333 97 -764 C 95.667 -768.667 95 -773.333 95 -778 C 95 -790.667 99.167 -801.833 107.5 -811.5 C 115.833 -821.167 127.333 -826 142 -826 L 728 -826 C 742 -826 753.333 -821.167 762 -811.5 C 770.667 -801.833 775 -790.667 775 -778 C 775 -773.333 774.167 -768.667 772.5 -764 C 770.833 -759.333 768.667 -755 766 -751 L 524 -435 L 524 -182 C 524 -168.667 519.5 -157.5 510.5 -148.5 C 501.5 -139.5 490.333 -135 477 -135 L 394 -135 C 380 -135 368.5 -139.5 359.5 -148.5 C 350.5 -157.5 346 -168.667 346 -182 Z M 819.979 -452.05 C 821.838 -454.01 823.764 -455.64 825.755 -456.95 C 834.891 -464.13 845.497 -468.03 857.798 -468.03 C 858.256 -468.03 858.68 -468.03 859.136 -468.03 C 860.018 -468.03 860.866 -468.03 861.714 -468.03 C 875.421 -467.72 887.298 -462.49 897.446 -453.03 C 897.871 -452.7 898.295 -452.05 898.685 -451.73 C 909.651 -440.64 915.198 -427.58 915.362 -411.92 C 915.525 -396.25 910.27 -383.2 899.567 -372.44 L 844.191 -316.95 L 898.425 -262.8 C 909.454 -251.7 915.263 -238.63 915.915 -223.31 C 916.569 -208.29 911.183 -194.91 899.795 -183.5 C 899.763 -183.5 899.731 -183.5 899.731 -183.5 C 888.668 -172.4 875.159 -166.85 859.266 -166.85 C 844.256 -166.85 831.432 -171.42 820.762 -181.2 C 820.108 -181.86 819.456 -182.51 818.804 -183.16 L 764.603 -237.33 L 710.368 -183.16 C 699.665 -172.4 686.547 -167.18 670.95 -167.51 C 655.448 -167.51 642.167 -173.06 631.139 -183.82 C 631.008 -184.14 630.878 -184.14 630.747 -184.47 C 620.141 -194.91 614.758 -207.97 614.66 -223.63 C 614.561 -237.01 618.608 -248.43 626.44 -257.9 C 627.778 -259.53 629.213 -261.17 630.747 -262.8 L 684.981 -316.95 L 630.519 -371.44 C 619.685 -382.22 614.073 -395.59 613.68 -411.27 C 613.55 -426.93 618.934 -440.64 630.323 -452.05 C 641.711 -463.47 655.319 -468.69 670.59 -468.37 C 686.058 -467.72 699.208 -461.83 710.01 -451.39 C 710.141 -451.08 710.238 -451.08 710.368 -450.76 L 764.603 -396.59 Z"/>
</svg>