<?xml version="1.0" encoding="utf-8"?>
<svg viewBox="0 0 16 16" xmlns="http://www.w3.org/2000/svg">
  <path d="M 10 4 L 9.5 4 L 9.5 5.5 C 9.5 5.776 9.276 6 9 6 L 7 6 C 6.724 6 6.5 5.776 6.5 5.5 L 6.5 4 L 6 4 C 5.798 4 5.615 3.878 5.538 3.691 C 5.461 3.505 5.503 3.289 5.646 3.146 L 7.646 1.146 C 7.842 0.951 8.158 0.951 8.354 1.146 L 10.354 3.146 C 10.497 3.289 10.539 3.505 10.462 3.691 C 10.385 3.878 10.202 4 10 4 Z M 14.5 7.5 L 14.5 8.5 C 14.5 8.776 14.276 9 14 9 L 2 9 C 1.724 9 1.5 8.776 1.5 8.5 L 1.5 7.5 C 1.5 7.224 1.724 7 2 7 L 14 7 C 14.276 7 14.5 7.224 14.5 7.5 Z M 9.5 10.5 L 9.5 12 L 10 12 C 10.202 12 10.385 12.122 10.462 12.309 C 10.539 12.496 10.497 12.711 10.354 12.854 L 8.354 14.854 C 8.158 15.049 7.842 15.049 7.646 14.854 L 5.646 12.854 C 5.503 12.711 5.461 12.496 5.538 12.309 C 5.615 12.122 5.798 12 6 12 L 6.5 12 L 6.5 10.5 C 6.5 10.224 6.724 10 7 10 L 9 10 C 9.276 10 9.5 10.224 9.5 10.5 Z"/>
</svg>