<?xml version="1.0" encoding="utf-8"?>
<svg viewBox="0 0 16 16" xmlns="http://www.w3.org/2000/svg">
  <path d="M 9 2 L 9 14 C 9 14.276 8.776 14.5 8.5 14.5 L 7.5 14.5 C 7.224 14.5 7 14.276 7 14 L 7 2 C 7 1.724 7.224 1.5 7.5 1.5 L 8.5 1.5 C 8.776 1.5 9 1.724 9 2 Z M 4 6.5 L 5.5 6.5 C 5.776 6.5 6 6.724 6 7 L 6 9 C 6 9.276 5.776 9.5 5.5 9.5 L 4 9.5 L 4 10 C 4 10.202 3.878 10.385 3.691 10.462 C 3.505 10.539 3.289 10.497 3.146 10.354 L 1.146 8.354 C 0.951 8.158 0.951 7.842 1.146 7.646 L 3.146 5.646 C 3.289 5.503 3.505 5.461 3.691 5.538 C 3.878 5.615 4 5.798 4 6 L 4 6.5 Z M 14.854 8.354 L 12.854 10.354 C 12.711 10.497 12.495 10.539 12.309 10.462 C 12.122 10.385 12 10.202 12 10 L 12 9.5 L 10.5 9.5 C 10.224 9.5 10 9.276 10 9 L 10 7 C 10 6.724 10.224 6.5 10.5 6.5 L 12 6.5 L 12 6 C 12 5.798 12.122 5.615 12.309 5.538 C 12.495 5.461 12.711 5.503 12.854 5.646 L 14.854 7.646 C 15.049 7.842 15.049 8.158 14.854 8.354 Z"/>
</svg>