<?xml version="1.0" encoding="utf-8"?>
<svg clip-rule="evenodd" fill-rule="evenodd" stroke-linejoin="round" stroke-miterlimit="2" viewBox="0 0 48 48" xmlns="http://www.w3.org/2000/svg">
  <path d="M 27.044 5.487 C 27.437 6.624 27.847 7.837 27.847 7.837 C 28.714 8.044 29.564 8.32 30.388 8.663 C 30.388 8.663 31.366 7.97 32.318 7.294 C 33.461 6.483 34.993 6.491 36.127 7.315 C 36.157 7.349 36.193 7.377 36.229 7.403 C 37.29 8.186 37.737 9.554 37.345 10.812 C 36.995 11.962 36.613 13.185 36.613 13.185 C 37.194 13.862 37.718 14.586 38.183 15.347 C 38.183 15.347 39.383 15.36 40.55 15.373 C 41.951 15.389 43.186 16.297 43.618 17.63 C 43.622 17.676 43.636 17.718 43.65 17.761 C 44.048 19.017 43.605 20.388 42.547 21.174 C 41.708 21.808 40.816 22.474 40.606 22.63 C 39.256 23.292 35.837 22.757 35.66 21.578 C 34.539 16.166 29.742 12.093 24 12.093 C 17.429 12.093 12.093 17.429 12.093 24.001 C 12.093 30.572 17.429 35.906 24 35.906 C 24.467 35.906 24.929 35.879 25.382 35.826 C 25.887 37.462 27.464 41.299 27.091 42.406 C 26.643 43.733 25.398 44.626 23.996 44.626 C 23.952 44.616 23.906 44.616 23.861 44.616 C 22.543 44.606 21.377 43.762 20.956 42.513 C 20.563 41.375 20.153 40.162 20.153 40.162 C 19.285 39.956 18.436 39.68 17.613 39.336 C 17.613 39.336 16.634 40.03 15.682 40.706 C 14.54 41.517 13.007 41.509 11.873 40.685 C 11.843 40.651 11.807 40.623 11.771 40.596 C 10.71 39.814 10.263 38.446 10.655 37.188 C 11.005 36.037 11.387 34.815 11.387 34.815 C 10.807 34.138 10.282 33.414 9.817 32.653 C 9.817 32.653 8.617 32.64 7.45 32.627 C 6.049 32.611 4.815 31.703 4.382 30.37 C 4.378 30.324 4.364 30.282 4.351 30.239 C 3.953 28.983 4.395 27.612 5.453 26.826 C 6.412 26.101 7.44 25.336 7.44 25.336 C 7.368 24.447 7.368 23.553 7.44 22.664 C 7.44 22.664 6.477 21.947 5.54 21.251 C 4.417 20.415 3.95 18.956 4.384 17.624 C 4.407 17.584 4.421 17.541 4.436 17.498 C 4.853 16.247 6.016 15.398 7.333 15.384 C 8.537 15.361 9.817 15.347 9.817 15.347 C 10.282 14.586 10.807 13.862 11.387 13.185 C 11.387 13.185 11.03 12.041 10.682 10.926 C 10.263 9.589 10.745 8.134 11.879 7.311 C 11.921 7.293 11.958 7.266 11.994 7.24 C 13.067 6.473 14.507 6.471 15.582 7.234 C 16.568 7.923 17.613 8.663 17.613 8.663 C 18.436 8.32 19.285 8.044 20.153 7.837 C 20.153 7.837 20.536 6.701 20.909 5.594 C 21.358 4.267 22.602 3.374 24.004 3.374 C 24.048 3.384 24.094 3.384 24.14 3.384 C 25.457 3.394 26.623 4.238 27.044 5.487 Z M 18.353 31.212 L 18.353 16.819 C 18.353 16.377 18.496 16.026 18.779 15.765 C 19.063 15.505 19.391 15.374 19.762 15.374 C 19.883 15.374 20.01 15.389 20.145 15.419 C 20.281 15.449 20.416 15.504 20.548 15.582 L 31.873 22.841 C 32.084 22.982 32.247 23.152 32.362 23.352 C 32.478 23.553 32.536 23.774 32.536 24.016 C 32.536 24.257 32.478 24.478 32.362 24.678 C 32.247 24.879 32.084 25.049 31.873 25.189 L 20.548 32.449 C 20.414 32.527 20.279 32.578 20.142 32.597 C 20.006 32.617 19.877 32.627 19.757 32.627 C 19.383 32.627 19.055 32.505 18.775 32.258 C 18.494 32.011 18.353 31.662 18.353 31.212 Z M 31.641 28.708 L 36.392 28.708 C 36.843 28.725 37.324 28.915 37.659 29.207 C 37.973 29.534 38.198 30.019 38.198 30.484 C 38.198 30.952 37.969 31.438 37.655 31.761 C 37.319 32.047 36.841 32.231 36.392 32.248 L 31.641 32.248 C 31.164 32.233 30.671 32.05 30.331 31.761 C 30.014 31.44 29.786 30.956 29.786 30.497 C 29.786 30.039 30.009 29.553 30.322 29.222 C 30.662 28.919 31.159 28.725 31.641 28.708 Z M 39.609 32.714 L 39.609 28.311 C 39.63 27.884 39.831 27.417 40.136 27.091 C 40.472 26.788 40.966 26.574 41.442 26.574 C 41.892 26.574 42.373 26.783 42.711 27.078 C 43.028 27.404 43.235 27.882 43.256 28.327 L 43.256 28.708 L 44.521 28.708 C 44.996 28.724 45.49 28.915 45.828 29.209 C 46.138 29.535 46.362 30.02 46.362 30.484 C 46.362 30.951 46.134 31.437 45.822 31.76 C 45.485 32.048 44.995 32.233 44.521 32.248 L 43.256 32.248 L 43.256 32.697 C 43.236 33.141 43.034 33.617 42.723 33.944 C 42.388 34.241 41.903 34.451 41.441 34.451 C 40.979 34.451 40.489 34.238 40.15 33.938 C 39.838 33.612 39.631 33.144 39.609 32.714 Z M 39.756 36.077 L 44.507 36.077 C 44.987 36.093 45.495 36.268 45.822 36.578 C 46.15 36.89 46.362 37.386 46.362 37.839 C 46.362 38.292 46.138 38.773 45.827 39.103 C 45.488 39.404 44.991 39.601 44.51 39.618 L 39.766 39.618 C 39.285 39.601 38.791 39.406 38.462 39.109 C 38.163 38.783 37.95 38.3 37.95 37.837 C 37.95 37.396 38.166 36.924 38.465 36.597 C 38.798 36.291 39.287 36.094 39.756 36.077 Z M 32.891 39.998 L 32.891 39.618 L 31.627 39.618 C 31.151 39.602 30.657 39.41 30.32 39.116 C 30.009 38.789 29.786 38.303 29.786 37.837 C 29.786 37.394 30.008 36.92 30.316 36.592 C 30.655 36.288 31.151 36.094 31.627 36.077 L 32.891 36.077 L 32.891 35.663 C 32.91 35.219 33.109 34.745 33.41 34.419 C 33.741 34.12 34.229 33.909 34.697 33.909 C 35.164 33.909 35.657 34.121 35.998 34.421 C 36.31 34.747 36.517 35.215 36.539 35.645 L 36.539 40.008 C 36.519 40.46 36.315 40.938 36.005 41.259 C 35.669 41.549 35.18 41.751 34.709 41.751 C 34.238 41.751 33.749 41.548 33.417 41.257 C 33.111 40.936 32.91 40.455 32.891 39.998 Z"/>
</svg>