<?xml version="1.0" encoding="utf-8"?>
<svg clip-rule="evenodd" fill-rule="evenodd" stroke-linejoin="round" stroke-miterlimit="2" viewBox="0 0 48 48" xmlns="http://www.w3.org/2000/svg">
  <path d="M 27.044 5.487 C 27.437 6.624 27.847 7.837 27.847 7.837 C 28.714 8.044 29.564 8.32 30.388 8.663 C 30.388 8.663 31.366 7.97 32.318 7.294 C 33.461 6.483 34.993 6.491 36.127 7.315 C 36.157 7.349 36.193 7.377 36.229 7.403 C 37.29 8.186 37.737 9.554 37.345 10.812 C 36.995 11.962 36.613 13.185 36.613 13.185 C 37.194 13.862 37.718 14.586 38.183 15.347 C 38.183 15.347 39.383 15.36 40.55 15.373 C 41.951 15.389 43.186 16.297 43.618 17.63 C 43.622 17.676 43.636 17.718 43.65 17.761 C 44.048 19.017 43.605 20.388 42.547 21.174 C 41.708 21.808 40.816 22.474 40.606 22.63 C 39.179 21.953 37.583 21.575 35.899 21.575 C 35.819 21.575 35.739 21.576 35.66 21.578 C 34.539 16.166 29.742 12.093 24 12.093 C 17.429 12.093 12.093 17.429 12.093 24.001 C 12.093 30.572 17.429 35.906 24 35.906 C 24.467 35.906 24.929 35.879 25.382 35.826 C 25.887 37.462 27.464 41.299 27.091 42.406 C 26.643 43.733 25.398 44.626 23.996 44.626 C 23.952 44.616 23.906 44.616 23.861 44.616 C 22.543 44.606 21.377 43.762 20.956 42.513 C 20.563 41.375 20.153 40.162 20.153 40.162 C 19.285 39.956 18.436 39.68 17.613 39.336 C 17.613 39.336 16.634 40.03 15.682 40.706 C 14.54 41.517 13.007 41.509 11.873 40.685 C 11.843 40.651 11.807 40.623 11.771 40.596 C 10.71 39.814 10.263 38.446 10.655 37.188 C 11.005 36.037 11.387 34.815 11.387 34.815 C 10.807 34.138 10.282 33.414 9.817 32.653 C 9.817 32.653 8.617 32.64 7.45 32.627 C 6.049 32.611 4.815 31.703 4.382 30.37 C 4.378 30.324 4.364 30.282 4.351 30.239 C 3.953 28.983 4.395 27.612 5.453 26.826 C 6.412 26.101 7.44 25.336 7.44 25.336 C 7.368 24.447 7.368 23.553 7.44 22.664 C 7.44 22.664 6.477 21.947 5.54 21.251 C 4.417 20.415 3.95 18.956 4.384 17.624 C 4.407 17.584 4.421 17.541 4.436 17.498 C 4.853 16.247 6.016 15.398 7.333 15.384 C 8.537 15.361 9.817 15.347 9.817 15.347 C 10.282 14.586 10.807 13.862 11.387 13.185 C 11.387 13.185 11.03 12.041 10.682 10.926 C 10.263 9.589 10.745 8.134 11.879 7.311 C 11.921 7.293 11.958 7.266 11.994 7.24 C 13.067 6.473 14.507 6.471 15.582 7.234 C 16.568 7.923 17.613 8.663 17.613 8.663 C 18.436 8.32 19.285 8.044 20.153 7.837 C 20.153 7.837 20.536 6.701 20.909 5.594 C 21.358 4.267 22.602 3.374 24.004 3.374 C 24.048 3.384 24.094 3.384 24.14 3.384 C 25.457 3.394 26.623 4.238 27.044 5.487 Z M 18.353 31.212 L 18.353 16.819 C 18.353 16.377 18.496 16.026 18.779 15.765 C 19.063 15.505 19.391 15.374 19.762 15.374 C 19.883 15.374 20.01 15.389 20.145 15.419 C 20.281 15.449 20.416 15.504 20.548 15.582 L 31.873 22.841 C 32.084 22.982 32.247 23.152 32.362 23.352 C 32.478 23.553 32.536 23.774 32.536 24.016 C 32.536 24.257 32.478 24.478 32.362 24.678 C 32.247 24.879 32.084 25.049 31.873 25.189 L 20.548 32.449 C 20.414 32.527 20.279 32.578 20.142 32.597 C 20.006 32.617 19.877 32.627 19.757 32.627 C 19.383 32.627 19.055 32.505 18.775 32.258 C 18.494 32.011 18.353 31.662 18.353 31.212 Z M 34.879 25.836 C 34.897 25.315 35.098 24.765 35.452 24.406 C 35.808 24.045 36.359 23.822 36.883 23.822 C 37.407 23.822 37.959 24.043 38.32 24.402 C 38.682 24.761 38.888 25.313 38.906 25.836 L 38.906 36.807 L 40.823 34.891 C 41.195 34.533 41.719 34.285 42.21 34.285 C 42.696 34.285 43.226 34.519 43.634 34.867 C 43.647 34.879 43.66 34.891 43.671 34.904 C 44.02 35.312 44.253 35.843 44.253 36.329 C 44.253 36.82 44.011 37.338 43.653 37.713 L 38.962 42.403 C 38.41 42.928 37.667 43.255 36.911 43.255 C 36.157 43.255 35.396 42.922 34.822 42.401 L 30.205 37.734 C 29.81 37.361 29.532 36.83 29.532 36.329 C 29.532 35.833 29.795 35.296 30.179 34.889 C 30.552 34.532 31.072 34.285 31.564 34.285 C 32.051 34.285 32.604 34.541 33.012 34.889 L 34.879 36.79 L 34.879 25.836 Z"/>
</svg>