<?xml version="1.0" encoding="utf-8"?>
<svg clip-rule="evenodd" fill-rule="evenodd" stroke-linejoin="round" stroke-miterlimit="2" viewBox="0 0 48 48" xmlns="http://www.w3.org/2000/svg">
  <path d="M 27.044 5.487 C 27.437 6.624 27.847 7.837 27.847 7.837 C 28.714 8.044 29.564 8.32 30.388 8.663 C 30.388 8.663 31.366 7.97 32.318 7.294 C 33.461 6.483 34.993 6.491 36.127 7.315 C 36.157 7.349 36.193 7.377 36.229 7.403 C 37.29 8.186 37.737 9.554 37.345 10.812 C 36.995 11.962 36.613 13.185 36.613 13.185 C 37.194 13.862 37.718 14.586 38.183 15.347 C 38.183 15.347 39.383 15.36 40.55 15.373 C 41.951 15.389 43.186 16.297 43.618 17.63 C 43.622 17.676 43.636 17.718 43.65 17.761 C 44.048 19.017 43.605 20.388 42.547 21.174 C 41.708 21.808 40.816 22.474 40.606 22.63 C 39.256 23.292 35.837 22.757 35.66 21.578 C 34.539 16.166 29.742 12.093 24 12.093 C 17.429 12.093 12.093 17.429 12.093 24.001 C 12.093 30.572 17.429 35.906 24 35.906 C 24.467 35.906 24.929 35.879 25.382 35.826 C 25.887 37.462 27.464 41.299 27.091 42.406 C 26.643 43.733 25.398 44.626 23.996 44.626 C 23.952 44.616 23.906 44.616 23.861 44.616 C 22.543 44.606 21.377 43.762 20.956 42.513 C 20.563 41.375 20.153 40.162 20.153 40.162 C 19.285 39.956 18.436 39.68 17.613 39.336 C 17.613 39.336 16.634 40.03 15.682 40.706 C 14.54 41.517 13.007 41.509 11.873 40.685 C 11.843 40.651 11.807 40.623 11.771 40.596 C 10.71 39.814 10.263 38.446 10.655 37.188 C 11.005 36.037 11.387 34.815 11.387 34.815 C 10.807 34.138 10.282 33.414 9.817 32.653 C 9.817 32.653 8.617 32.64 7.45 32.627 C 6.049 32.611 4.815 31.703 4.382 30.37 C 4.378 30.324 4.364 30.282 4.351 30.239 C 3.953 28.983 4.395 27.612 5.453 26.826 C 6.412 26.101 7.44 25.336 7.44 25.336 C 7.368 24.447 7.368 23.553 7.44 22.664 C 7.44 22.664 6.477 21.947 5.54 21.251 C 4.417 20.415 3.95 18.956 4.384 17.624 C 4.407 17.584 4.421 17.541 4.436 17.498 C 4.853 16.247 6.016 15.398 7.333 15.384 C 8.537 15.361 9.817 15.347 9.817 15.347 C 10.282 14.586 10.807 13.862 11.387 13.185 C 11.387 13.185 11.03 12.041 10.682 10.926 C 10.263 9.589 10.745 8.134 11.879 7.311 C 11.921 7.293 11.958 7.266 11.994 7.24 C 13.067 6.473 14.507 6.471 15.582 7.234 C 16.568 7.923 17.613 8.663 17.613 8.663 C 18.436 8.32 19.285 8.044 20.153 7.837 C 20.153 7.837 20.536 6.701 20.909 5.594 C 21.358 4.267 22.602 3.374 24.004 3.374 C 24.048 3.384 24.094 3.384 24.14 3.384 C 25.457 3.394 26.623 4.238 27.044 5.487 Z M 18.353 31.212 L 18.353 16.819 C 18.353 16.377 18.496 16.026 18.779 15.765 C 19.063 15.505 19.391 15.374 19.762 15.374 C 19.883 15.374 20.01 15.389 20.145 15.419 C 20.281 15.449 20.416 15.504 20.548 15.582 L 31.873 22.841 C 32.084 22.982 32.247 23.152 32.362 23.352 C 32.478 23.553 32.536 23.774 32.536 24.016 C 32.536 24.257 32.478 24.478 32.362 24.678 C 32.247 24.879 32.084 25.049 31.873 25.189 L 20.548 32.449 C 20.414 32.527 20.279 32.578 20.142 32.597 C 20.006 32.617 19.877 32.627 19.757 32.627 C 19.383 32.627 19.055 32.505 18.775 32.258 C 18.494 32.011 18.353 31.662 18.353 31.212 Z M 33.19 44.006 C 32.569 43.978 31.897 43.699 31.439 43.283 C 31.022 42.825 30.745 42.153 30.716 41.533 L 30.716 29.427 C 30.745 28.802 31.021 28.128 31.437 27.666 C 31.895 27.245 32.568 26.964 33.19 26.934 L 39.096 26.934 C 39.415 26.944 39.798 27.026 40.089 27.148 C 40.362 27.278 40.661 27.484 40.874 27.686 L 44.11 30.924 C 44.314 31.135 44.519 31.435 44.649 31.708 C 44.77 32 44.853 32.382 44.862 32.7 L 44.862 41.533 C 44.833 42.154 44.551 42.828 44.13 43.286 C 43.668 43.701 42.994 43.978 42.37 44.006 Z M 41.616 33.143 L 40.651 33.143 C 40.152 33.114 39.58 32.875 39.203 32.538 C 38.866 32.162 38.627 31.591 38.598 31.09 L 38.598 30.181 L 33.945 30.181 L 33.945 40.778 L 41.616 40.778 Z"/>
</svg>