<?xml version="1.0" encoding="utf-8"?>
<svg height="16" width="16" xmlns="http://www.w3.org/2000/svg">
  <path d="M 10.117 14.884 L 4.117 8.884 C 3.942 8.67 3.779 8.277 3.75 8 L 3.75 2 C 3.783 1.709 3.931 1.301 4.116 1.116 C 4.301 0.931 4.709 0.783 5 0.75 L 11 0.75 C 11.291 0.783 11.699 0.931 11.884 1.116 C 12.069 1.301 12.217 1.709 12.25 2 L 12.25 14 C 12.232 14.214 12.151 14.527 12.04 14.694 C 11.928 14.861 11.669 15.057 11.478 15.156 C 11.274 15.221 10.955 15.265 10.758 15.226 C 10.56 15.187 10.281 15.024 10.117 14.884 Z M 10.75 2.25 L 5.25 2.25 L 5.25 7.896 L 10.75 13.396 Z" style=""/>
</svg>