<?xml version="1.0" encoding="utf-8"?>
<svg width="100%" height="100%" viewBox="0 0 48 48" version="1.1" xmlns="http://www.w3.org/2000/svg" style="fill-rule:evenodd;clip-rule:evenodd;stroke-linejoin:round;stroke-miterlimit:2;">
  <path d="M 23.963 25.994 C 23.665 25.994 23.379 25.963 23.106 25.9 C 22.832 25.838 22.571 25.733 22.323 25.584 L 9.614 18.838 C 9.291 18.664 9.061 18.434 8.924 18.148 C 8.788 17.863 8.719 17.571 8.719 17.273 C 8.719 16.974 8.788 16.689 8.924 16.415 C 9.061 16.142 9.291 15.918 9.614 15.745 L 22.323 8.999 C 22.571 8.875 22.832 8.775 23.106 8.701 C 23.379 8.626 23.665 8.589 23.963 8.589 C 24.261 8.589 24.547 8.626 24.82 8.701 C 25.093 8.775 25.367 8.875 25.64 8.999 L 38.312 15.745 C 38.635 15.918 38.877 16.142 39.038 16.415 C 39.2 16.689 39.281 16.974 39.281 17.273 C 39.281 17.571 39.2 17.863 39.038 18.148 C 38.877 18.434 38.635 18.664 38.312 18.838 L 25.64 25.584 C 25.367 25.733 25.093 25.838 24.82 25.9 C 24.547 25.963 24.261 25.994 23.963 25.994 Z M 23.963 22.751 L 34.398 17.31 L 23.963 11.831 L 13.602 17.31 Z M 23.963 36.168 L 25.283 35.471 C 25.408 35.371 25.656 35.321 26.029 35.321 C 26.476 35.321 26.861 35.477 27.184 35.787 C 27.507 36.098 27.669 36.477 27.669 36.924 C 27.669 37.197 27.6 37.464 27.464 37.725 C 27.327 37.986 27.11 38.191 26.811 38.34 L 25.64 39.001 C 25.367 39.15 25.093 39.255 24.82 39.318 C 24.547 39.38 24.261 39.411 23.963 39.411 C 23.665 39.411 23.379 39.38 23.106 39.318 C 22.832 39.255 22.571 39.15 22.323 39.001 L 10.024 32.441 C 9.751 32.292 9.539 32.087 9.39 31.826 C 9.241 31.565 9.167 31.298 9.167 31.025 C 9.167 30.578 9.328 30.199 9.651 29.888 C 9.974 29.578 10.359 29.422 10.807 29.422 C 10.906 29.422 11.03 29.441 11.179 29.478 C 11.328 29.516 11.453 29.559 11.552 29.609 Z M 32.73 38.911 L 29.067 35.249 C 28.739 34.924 28.581 34.53 28.592 34.071 C 28.604 33.614 28.798 33.199 29.173 32.825 C 29.502 32.515 29.866 32.368 30.265 32.382 C 30.664 32.396 31.028 32.543 31.356 32.825 L 32.272 33.734 L 32.272 25.655 C 32.272 25.198 32.433 24.804 32.754 24.487 C 33.075 24.162 33.468 24 33.934 24 C 34.399 24 34.79 24.162 35.107 24.487 C 35.424 24.804 35.583 25.198 35.583 25.655 L 35.583 33.734 L 36.498 32.853 C 36.827 32.551 37.197 32.396 37.608 32.396 C 38.019 32.396 38.4 32.571 38.752 32.924 C 39.105 33.254 39.281 33.642 39.281 34.086 C 39.281 34.537 39.105 34.938 38.752 35.29 L 35.125 38.911 C 34.797 39.242 34.397 39.411 33.927 39.411 C 33.458 39.411 33.059 39.242 32.73 38.911 Z" style="fill-rule: nonzero; stroke-width: 0.05;"/>
</svg>