<?xml version="1.0" encoding="utf-8"?>
<svg height="16" width="16" xmlns="http://www.w3.org/2000/svg">
  <path d="M 5.884 1.116 L 11.884 7.116 C 12.06 7.333 12.222 7.725 12.25 8 L 12.25 14 C 12.217 14.291 12.069 14.699 11.884 14.884 C 11.699 15.069 11.291 15.217 11 15.25 L 5 15.25 C 4.709 15.217 4.301 15.069 4.116 14.884 C 3.931 14.699 3.783 14.291 3.75 14 L 3.75 2 C 3.768 1.786 3.849 1.473 3.961 1.305 C 4.073 1.138 4.325 0.926 4.523 0.844 C 4.721 0.763 5.046 0.735 5.243 0.774 C 5.441 0.813 5.72 0.976 5.884 1.116 Z M 5.25 13.75 L 10.75 13.75 L 10.75 8.103 L 5.25 2.603 Z" style=""/>
</svg>