<?xml version="1.0" encoding="utf-8"?>
<svg width="100%" height="100%" viewBox="0 0 48 48" version="1.1" xmlns="http://www.w3.org/2000/svg" style="fill-rule:evenodd;clip-rule:evenodd;stroke-linejoin:round;stroke-miterlimit:2;">
  <path d="M 13.41 12.152 C 12.47 13.436 10.952 14.271 9.24 14.271 C 6.378 14.271 4.066 11.955 4.066 9.1 C 4.066 6.244 6.378 3.929 9.24 3.929 C 11.453 3.929 13.342 5.323 14.077 7.282 C 16.946 7.811 19.68 8.701 22.279 9.951 C 25.813 11.651 28.929 13.86 31.629 16.576 C 34.329 19.293 36.512 22.435 38.179 26.001 C 39.388 28.588 40.246 31.296 40.753 34.128 C 42.621 34.907 43.934 36.749 43.934 38.896 C 43.934 41.759 41.619 44.071 38.763 44.071 C 35.909 44.071 33.593 41.759 33.593 38.896 C 33.593 37.112 34.499 35.538 35.878 34.61 C 35.422 32.288 34.684 30.07 33.662 27.957 C 32.195 24.924 30.295 22.249 27.962 19.932 C 25.629 17.616 22.937 15.732 19.887 14.282 C 17.823 13.301 15.664 12.591 13.41 12.152 Z M 41.399 20.342 C 40.657 20.342 40.021 20.067 39.49 19.518 C 38.959 18.969 38.694 18.316 38.694 17.557 C 38.694 16.815 38.965 16.177 39.507 15.646 C 40.048 15.116 40.693 14.85 41.443 14.85 C 42.191 14.85 42.836 15.122 43.374 15.663 C 43.915 16.206 44.184 16.851 44.184 17.599 C 44.184 18.349 43.911 18.993 43.362 19.532 C 42.813 20.071 42.158 20.342 41.399 20.342 Z M 41.399 27.166 C 40.657 27.166 40.021 26.902 39.49 26.375 C 38.959 25.847 38.694 25.204 38.694 24.439 C 38.694 23.675 38.965 23.033 39.507 22.514 C 40.048 21.992 40.693 21.734 41.443 21.734 C 42.191 21.734 42.836 21.997 43.374 22.523 C 43.915 23.05 44.184 23.696 44.184 24.459 C 44.184 25.225 43.911 25.865 43.362 26.386 C 42.813 26.906 42.158 27.166 41.399 27.166 Z M 41.393 13.173 C 41.391 13.173 41.39 13.173 41.388 13.173 C 41.387 13.173 41.385 13.173 41.383 13.173 C 39.959 13.173 38.748 12.679 37.751 11.691 C 37.066 11.009 36.617 10.233 36.402 9.348 C 36.304 8.948 36.254 8.517 36.254 8.078 L 36.254 8.062 C 36.254 6.643 36.753 5.437 37.752 4.44 C 38.75 3.445 39.962 2.943 41.388 2.943 C 42.814 2.943 44.027 3.437 45.026 4.432 C 46.024 5.428 46.523 6.635 46.523 8.055 C 46.523 8.062 46.523 8.062 46.523 8.07 C 46.523 8.07 46.523 8.07 46.523 8.078 C 46.523 8.673 46.434 9.23 46.257 9.747 C 46.013 10.468 45.604 11.119 45.027 11.691 C 44.029 12.679 42.818 13.173 41.393 13.173 Z M 39.913 9.543 C 40.321 9.951 40.855 10.154 41.388 10.154 C 41.675 10.154 41.96 10.1 42.226 9.982 C 42.459 9.88 42.677 9.731 42.868 9.543 C 42.918 9.496 42.965 9.441 43.009 9.386 C 43.676 8.564 43.627 7.356 42.864 6.596 C 42.541 6.267 42.141 6.071 41.724 6.008 C 41.15 5.914 40.545 6.063 40.071 6.447 C 40.015 6.494 39.961 6.541 39.909 6.596 C 39.882 6.619 39.857 6.651 39.833 6.675 C 39.099 7.498 39.125 8.76 39.913 9.543 Z" style="stroke-width: 0.05;"/>
</svg>