<?xml version="1.0" encoding="utf-8"?>
<svg width="100%" height="100%" viewBox="0 0 48 48" version="1.1" xmlns="http://www.w3.org/2000/svg" style="fill-rule:evenodd;clip-rule:evenodd;stroke-linejoin:round;stroke-miterlimit:2;">
  <path d="M 29.201 16.29 C 28.824 16.667 28.363 16.903 27.822 16.997 C 27.279 17.091 26.772 16.997 26.301 16.715 C 25.524 16.22 24.698 15.795 23.827 15.442 C 22.954 15.088 22.047 14.793 21.104 14.558 C 20.562 14.44 20.132 14.163 19.814 13.727 C 19.495 13.291 19.348 12.778 19.372 12.189 C 19.348 11.458 19.631 10.857 20.22 10.386 C 20.809 9.914 21.458 9.75 22.165 9.891 C 23.343 10.174 24.486 10.551 25.594 11.022 C 26.702 11.493 27.774 12.036 28.812 12.649 C 29.424 13.073 29.778 13.65 29.872 14.381 C 29.966 15.112 29.743 15.748 29.201 16.29 Z M 35.918 28.735 C 35.352 28.782 34.84 28.647 34.38 28.329 C 33.921 28.011 33.655 27.58 33.585 27.038 C 33.348 26.095 33.06 25.194 32.718 24.334 C 32.377 23.473 31.958 22.63 31.463 21.806 C 31.18 21.381 31.074 20.898 31.145 20.356 C 31.215 19.814 31.451 19.343 31.852 18.942 C 32.395 18.4 33.03 18.175 33.761 18.27 C 34.492 18.364 35.069 18.718 35.494 19.331 C 36.13 20.344 36.678 21.41 37.138 22.53 C 37.597 23.65 37.957 24.788 38.216 25.942 C 38.381 26.673 38.233 27.327 37.774 27.905 C 37.315 28.481 36.695 28.759 35.918 28.735 Z M 14.619 9.205 C 14.618 12.119 12.256 14.481 9.342 14.481 C 6.428 14.481 4.066 12.119 4.066 9.205 C 4.066 6.291 6.428 3.929 9.342 3.929 C 12.256 3.929 14.618 6.291 14.619 9.205 Z M 43.934 38.795 C 43.934 41.709 41.572 44.071 38.657 44.071 C 35.744 44.071 33.382 41.709 33.382 38.795 C 33.382 35.881 35.743 33.519 38.658 33.519 C 41.571 33.519 43.934 35.881 43.934 38.795 Z" style="stroke-width: 0.05;"/>
</svg>