<?xml version="1.0" encoding="utf-8"?>
<svg clip-rule="evenodd" fill-rule="evenodd" stroke-linejoin="round" stroke-miterlimit="2" viewBox="0 0 250 250" xmlns="http://www.w3.org/2000/svg">
  <path d="M 106.559 201.783 C 106.559 199.501 104.709 197.652 102.427 197.652 L 97.11 197.652 L 94.853 197.428 L 92.703 196.774 L 90.722 195.716 L 88.971 194.28 L 82.946 188.256 L 73.692 188.256 L 67.668 194.279 L 65.916 195.716 L 63.935 196.774 L 61.786 197.428 L 59.528 197.652 L 55.663 197.652 C 53.604 197.652 51.935 199.321 51.935 201.379 L 51.935 205.988 L 51.702 208.301 L 51.028 210.471 L 49.965 212.429 L 48.564 214.129 L 46.865 215.53 L 44.906 216.593 L 42.736 217.267 L 40.423 217.5 L 38.111 217.267 L 35.94 216.593 L 33.982 215.53 L 32.283 214.129 L 30.881 212.429 L 29.819 210.471 L 29.145 208.301 L 28.911 205.988 L 28.911 55.523 L 21.632 55.523 L 19.319 55.29 L 17.149 54.616 L 15.191 53.553 L 13.492 52.152 L 12.09 50.453 L 11.027 48.494 L 10.354 46.324 L 10.12 44.011 L 10.354 41.699 L 11.027 39.528 L 12.09 37.57 L 13.492 35.871 L 15.191 34.469 L 17.149 33.407 L 19.319 32.733 L 21.632 32.499 L 40.423 32.499 L 42.736 32.733 L 44.906 33.407 L 46.864 34.469 L 48.564 35.871 L 49.965 37.57 L 51.028 39.528 L 51.702 41.699 L 51.935 44.011 L 51.935 60.65 L 220.852 60.65 L 223.165 60.884 L 225.335 61.557 L 227.294 62.62 L 228.993 64.022 L 230.394 65.721 L 231.457 67.679 L 232.131 69.849 L 232.364 72.162 L 232.364 186.14 L 232.131 188.452 L 231.457 190.623 L 230.394 192.581 L 228.993 194.28 L 227.294 195.682 L 225.335 196.744 L 223.165 197.418 L 220.852 197.652 L 216.61 197.652 C 214.328 197.652 212.479 199.501 212.479 201.783 L 212.479 206.909 C 212.479 212.758 207.737 217.5 201.887 217.5 C 196.037 217.5 191.295 212.758 191.295 206.909 L 191.295 201.783 C 191.295 200.687 190.86 199.637 190.085 198.862 C 189.31 198.087 188.259 197.652 187.164 197.652 L 174.242 197.652 C 173.146 197.652 172.095 198.087 171.321 198.862 C 170.546 199.637 170.111 200.687 170.111 201.783 L 170.111 206.909 C 170.111 212.758 165.368 217.5 159.519 217.5 C 153.669 217.5 148.927 212.758 148.927 206.909 L 148.927 201.783 C 148.927 200.687 148.492 199.637 147.717 198.862 C 146.942 198.087 145.891 197.652 144.795 197.652 L 131.874 197.652 C 130.778 197.652 129.727 198.087 128.952 198.862 C 128.178 199.637 127.742 200.687 127.742 201.783 L 127.742 206.909 C 127.742 212.758 123 217.5 117.15 217.5 C 111.301 217.5 106.559 212.758 106.559 206.909 Z M 49.976 111.13 C 48.688 111.13 47.453 111.641 46.543 112.551 C 45.633 113.462 45.121 114.696 45.121 115.983 L 45.121 136.332 C 45.121 137.619 45.633 138.854 46.543 139.764 C 47.453 140.674 48.688 141.186 49.976 141.186 C 51.263 141.186 52.498 140.674 53.408 139.764 C 54.319 138.854 54.83 137.619 54.83 136.332 L 54.83 115.983 C 54.83 114.696 54.319 113.462 53.408 112.551 C 52.498 111.641 51.263 111.13 49.976 111.13 Z M 202.117 174.628 C 204.033 174.628 205.87 173.867 207.225 172.512 C 208.58 171.157 209.341 169.32 209.341 167.404 L 209.341 90.898 C 209.341 88.982 208.58 87.145 207.225 85.79 C 205.87 84.435 204.033 83.674 202.117 83.674 L 58.587 83.674 C 56.823 83.674 55.131 84.375 53.883 85.622 C 52.636 86.87 51.935 88.562 51.935 90.326 L 51.935 90.328 C 51.935 91.794 52.517 93.2 53.554 94.236 C 54.59 95.272 55.996 95.855 57.461 95.855 L 59.528 95.855 L 61.84 96.088 L 64.011 96.762 L 65.969 97.825 L 67.668 99.226 L 69.07 100.925 L 70.132 102.883 L 70.806 105.054 L 71.04 107.366 L 71.04 144.949 L 70.806 147.262 L 70.132 149.432 L 69.07 151.39 L 67.668 153.089 L 65.969 154.491 L 64.011 155.554 L 61.84 156.227 L 59.528 156.461 L 53.492 156.461 C 52.632 156.461 51.935 157.158 51.935 158.018 L 51.935 172.65 C 51.935 173.742 52.821 174.628 53.913 174.628 L 53.94 174.628 C 54.464 174.628 54.968 174.42 55.339 174.049 L 60.783 168.605 L 62.535 167.168 L 64.516 166.11 L 66.666 165.456 L 68.923 165.232 L 87.715 165.232 L 89.972 165.456 L 92.122 166.11 L 94.103 167.168 L 95.854 168.604 L 101.879 174.628 Z M 150.48 162.076 C 147.953 163.856 145.319 163.913 142.576 162.247 C 139.834 160.582 138.463 158.226 138.463 155.177 L 138.463 103.997 C 138.463 100.888 139.836 98.516 142.58 96.881 C 145.325 95.246 147.958 95.245 150.48 96.877 L 190.756 122.912 C 193.278 124.544 194.539 126.735 194.539 129.485 C 194.539 132.234 193.278 134.419 190.756 136.041 Z M 100.333 147.747 L 95.519 137.025 L 84.798 132.212 C 82.611 131.192 81.516 129.512 81.516 127.179 C 81.516 124.847 82.611 123.167 84.798 122.148 L 95.519 117.553 L 100.333 106.613 C 101.207 104.57 102.813 103.55 105.146 103.55 C 107.478 103.55 109.158 104.57 110.178 106.613 L 114.991 117.553 L 125.713 122.148 C 127.901 123.167 128.994 124.847 128.994 127.179 C 128.994 129.512 127.901 131.192 125.713 132.212 L 114.991 137.025 L 110.178 147.747 C 109.158 149.934 107.478 151.028 105.146 151.028 C 102.813 151.028 101.207 149.934 100.333 147.747 Z"/>
</svg>