<?xml version="1.0" encoding="utf-8"?>
<svg viewBox="0 0 22 22" xmlns="http://www.w3.org/2000/svg">
  <path d="M 4.102 10.926 C 3.719 10.926 3.39 10.788 3.113 10.512 C 2.836 10.237 2.698 9.903 2.698 9.512 C 2.698 9.12 2.836 8.782 3.113 8.499 C 3.39 8.217 3.719 8.075 4.102 8.075 L 6.085 8.075 L 6.085 6.134 C 6.085 5.739 6.216 5.4 6.477 5.115 C 6.739 4.831 7.074 4.688 7.482 4.688 C 7.879 4.688 8.22 4.831 8.506 5.115 C 8.792 5.4 8.935 5.739 8.935 6.134 L 8.935 8.075 L 10.877 8.075 C 11.26 8.075 11.589 8.216 11.866 8.497 C 12.143 8.778 12.281 9.117 12.281 9.514 C 12.281 9.899 12.143 10.23 11.866 10.508 C 11.589 10.786 11.26 10.926 10.877 10.926 L 8.935 10.926 L 8.935 12.867 C 8.935 13.262 8.798 13.601 8.522 13.886 C 8.247 14.17 7.905 14.313 7.497 14.313 C 7.089 14.313 6.751 14.17 6.485 13.886 C 6.218 13.601 6.085 13.262 6.085 12.867 L 6.085 10.926 Z M 11.253 17.518 C 10.976 17.243 10.838 16.909 10.838 16.518 C 10.838 16.126 10.976 15.788 11.253 15.505 C 11.53 15.223 11.859 15.081 12.242 15.081 L 19.017 15.081 C 19.4 15.081 19.729 15.222 20.006 15.503 C 20.283 15.784 20.421 16.123 20.421 16.52 C 20.421 16.905 20.283 17.236 20.006 17.514 C 19.729 17.792 19.4 17.932 19.017 17.932 L 12.242 17.932 C 11.859 17.932 11.53 17.794 11.253 17.518 Z"/>
</svg>