<?xml version="1.0" encoding="utf-8"?>
<svg xmlns="http://www.w3.org/2000/svg" height="48" viewBox="0 -960 960 960" width="48">
  <path d="M 480.244 -52.9 C 361.538 -52.9 260.53 -94.56 177.22 -177.88 C 93.901 -261.19 52.241 -362.2 52.241 -480.9 C 52.241 -599.61 93.787 -700.3 176.881 -783.01 C 259.965 -865.71 361.312 -907.1 480.922 -907.1 C 599.167 -907.1 699.868 -865.82 783.024 -783.35 C 866.181 -700.87 907.759 -599.82 907.759 -480.23 C 907.759 -361.97 866.181 -261.19 783.024 -177.88 C 699.868 -94.56 598.941 -52.9 480.244 -52.9 Z M 480.651 -158.65 C 569.249 -158.65 644.731 -190.05 707.099 -252.85 C 769.466 -315.64 800.65 -391.35 800.65 -479.95 C 800.65 -568.56 769.381 -644.03 706.841 -706.4 C 644.302 -768.77 568.914 -799.95 480.678 -799.95 C 392.071 -799.95 316.363 -768.69 253.552 -706.15 C 190.751 -643.6 159.35 -568.22 159.35 -479.98 C 159.35 -391.38 190.751 -315.67 253.552 -252.85 C 316.344 -190.05 392.044 -158.65 480.651 -158.65 Z M 336.446 -512.52 C 351.252 -512.52 363.851 -517.71 374.247 -528.11 C 384.642 -538.51 389.838 -551.65 389.838 -567.53 C 389.838 -581.6 384.496 -593.8 373.813 -604.13 C 363.129 -614.47 350.276 -619.63 335.253 -619.63 C 320.899 -619.63 308.557 -614.41 298.226 -603.97 C 287.895 -593.52 282.729 -581.15 282.729 -566.85 C 282.729 -551.42 287.98 -538.51 298.484 -528.11 C 308.995 -517.71 321.65 -512.52 336.446 -512.52 Z M 480.827 -260.34 C 525.958 -260.34 566.104 -272.81 601.264 -297.75 C 636.434 -322.69 662.221 -354.96 678.627 -394.57 L 282.729 -394.57 C 299.134 -354.96 324.967 -322.69 360.227 -297.75 C 395.488 -272.81 435.688 -260.34 480.827 -260.34 Z M 624.977 -512.52 C 639.322 -512.52 651.623 -517.71 661.882 -528.11 C 672.142 -538.51 677.271 -551.65 677.271 -567.53 C 677.271 -581.6 672.082 -593.8 661.706 -604.13 C 651.338 -614.47 638.87 -619.63 624.299 -619.63 C 608.87 -619.63 596.216 -614.41 586.336 -603.97 C 576.457 -593.52 571.517 -581.15 571.517 -566.85 C 571.517 -551.42 576.457 -538.51 586.336 -528.11 C 596.216 -517.71 609.097 -512.52 624.977 -512.52 Z M 480.678 -479.98 Z" style=""/>
</svg>