<?xml version="1.0" encoding="utf-8"?>
<svg xmlns="http://www.w3.org/2000/svg" height="48" viewBox="0 -960 960 960" width="48">
  <path d="M 189 -95 C 162.967 -95 140.79 -104.157 122.47 -122.47 C 104.157 -140.79 95 -162.967 95 -189 L 95 -305 C 95 -318.167 99.56 -329.293 108.68 -338.38 C 117.793 -347.46 128.96 -352 142.18 -352 C 155.393 -352 166.5 -347.46 175.5 -338.38 C 184.5 -329.293 189 -318.167 189 -305 L 189 -189 L 305 -189 C 318.167 -189 329.293 -184.44 338.38 -175.32 C 347.46 -166.207 352 -155.04 352 -141.82 C 352 -128.607 347.46 -117.5 338.38 -108.5 C 329.293 -99.5 318.167 -95 305 -95 Z M 771 -95 L 655 -95 C 641.833 -95 630.71 -99.56 621.63 -108.68 C 612.543 -117.793 608 -128.96 608 -142.18 C 608 -155.393 612.543 -166.5 621.63 -175.5 C 630.71 -184.5 641.833 -189 655 -189 L 771 -189 L 771 -305 C 771 -318.167 775.56 -329.293 784.68 -338.38 C 793.793 -347.46 804.93 -352 818.09 -352 C 831.243 -352 842.517 -347.46 851.91 -338.38 C 861.303 -329.293 866 -318.167 866 -305 L 866 -189 C 866 -162.967 856.743 -140.79 838.23 -122.47 C 819.717 -104.157 797.307 -95 771 -95 Z M 95 -655 L 95 -771 C 95 -797.307 104.157 -819.717 122.47 -838.23 C 140.79 -856.743 162.967 -866 189 -866 L 305 -866 C 318.167 -866 329.293 -861.247 338.38 -851.74 C 347.46 -842.227 352 -830.893 352 -817.74 C 352 -804.58 347.46 -793.5 338.38 -784.5 C 329.293 -775.5 318.167 -771 305 -771 L 189 -771 L 189 -655 C 189 -641.833 184.44 -630.71 175.32 -621.63 C 166.207 -612.543 155.04 -608 141.82 -608 C 128.607 -608 117.5 -612.543 108.5 -621.63 C 99.5 -630.71 95 -641.833 95 -655 Z M 771 -655 L 771 -771 L 655 -771 C 641.833 -771 630.71 -775.56 621.63 -784.68 C 612.543 -793.793 608 -804.93 608 -818.09 C 608 -831.243 612.543 -842.517 621.63 -851.91 C 630.71 -861.303 641.833 -866 655 -866 L 771 -866 C 797.307 -866 819.717 -856.743 838.23 -838.23 C 856.743 -819.717 866 -797.307 866 -771 L 866 -655 C 866 -641.833 861.247 -630.71 851.74 -621.63 C 842.227 -612.543 830.893 -608 817.74 -608 C 804.58 -608 793.5 -612.543 784.5 -621.63 C 775.5 -630.71 771 -641.833 771 -655 Z M 479.82 -771 C 466.6 -771 455.5 -775.8 446.5 -785.2 C 437.5 -794.4 433 -805.6 433 -818.6 C 433 -831.6 437.56 -842.8 446.68 -852 C 455.8 -861.4 466.96 -866 480.18 -866 C 493.4 -866 504.5 -861.2 513.5 -851.8 C 522.5 -842.4 527 -831 527 -817.8 C 527 -805 522.44 -794 513.32 -784.8 C 504.2 -775.6 493.04 -771 479.82 -771 Z M 141.44 -433 C 128.48 -433 117.5 -437.6 108.5 -446.8 C 99.5 -455.8 95 -467 95 -480.2 C 95 -493.4 99.62 -504.6 108.86 -513.6 C 118.1 -522.6 129.1 -527 141.86 -527 C 154.62 -527 165.66 -522.4 175 -513.4 C 184.34 -504.2 189 -493 189 -479.8 C 189 -466.6 184.32 -455.6 174.94 -446.6 C 165.56 -437.6 154.4 -433 141.44 -433 Z M 817.82 -433 C 804.98 -433 793.96 -437.6 784.78 -446.8 C 775.6 -455.8 771 -467 771 -480.2 C 771 -493.4 775.68 -504.6 785.06 -513.6 C 794.44 -522.6 805.6 -527 818.56 -527 C 831.52 -527 842.66 -522.4 852 -513.4 C 861.34 -504.2 866 -493 866 -479.8 C 866 -466.6 861.26 -455.6 851.76 -446.6 C 842.26 -437.6 830.96 -433 817.82 -433 Z M 479.82 -95 C 466.6 -95 455.5 -99.6 446.5 -108.8 C 437.5 -118.2 433 -129.2 433 -142 C 433 -154.6 437.56 -165.8 446.68 -175 C 455.8 -184.4 466.96 -189 480.18 -189 C 493.4 -189 504.5 -184.4 513.5 -175 C 522.5 -165.6 527 -154.4 527 -141.4 C 527 -128.6 522.44 -117.6 513.32 -108.6 C 504.2 -99.6 493.04 -95 479.82 -95 Z M 359 -264 C 332.2 -264 309.66 -273.2 291.4 -291.4 C 273.14 -309.8 264 -332.2 264 -359 L 264 -602 C 264 -628.8 273.14 -651.4 291.4 -669.6 C 309.66 -688 332.2 -697 359 -697 L 602 -697 C 628.8 -697 651.34 -688 669.62 -669.6 C 687.88 -651.4 697 -628.8 697 -602 L 697 -359 C 697 -332.2 687.88 -309.8 669.62 -291.4 C 651.34 -273.2 628.8 -264 602 -264 Z M 378.113 -377.44 L 581.888 -377.44 L 581.888 -582.55 L 378.113 -582.55 Z"/>
</svg>