<?xml version="1.0" encoding="utf-8"?>
<svg width="100%" height="100%" viewBox="0 0 48 48" version="1.1" xmlns="http://www.w3.org/2000/svg" style="fill-rule:evenodd;clip-rule:evenodd;stroke-linejoin:round;stroke-miterlimit:2;">
  <path d="M 13.41 12.152 C 12.47 13.436 10.952 14.271 9.24 14.271 C 6.378 14.271 4.066 11.955 4.066 9.1 C 4.066 6.244 6.378 3.929 9.24 3.929 C 11.453 3.929 13.342 5.323 14.077 7.282 C 16.946 7.811 19.68 8.701 22.279 9.951 C 23.973 10.766 25.57 11.697 27.072 12.746 C 27.222 12.191 27.448 11.667 27.751 11.17 C 28.025 10.716 28.372 10.279 28.772 9.878 L 28.786 9.864 C 30.078 8.572 31.632 7.928 33.448 7.931 C 35.263 7.933 36.824 8.581 38.122 9.879 C 39.421 11.177 40.075 12.731 40.077 14.547 C 40.08 16.361 39.435 17.915 38.144 19.207 C 38.136 19.214 38.136 19.214 38.129 19.221 C 38.129 19.221 38.129 19.221 38.122 19.228 C 37.579 19.771 36.992 20.197 36.361 20.508 C 36.008 20.682 35.641 20.822 35.261 20.926 C 36.365 22.51 37.338 24.201 38.179 26.001 C 39.388 28.588 40.246 31.296 40.753 34.128 C 42.621 34.907 43.934 36.749 43.934 38.896 C 43.934 41.759 41.619 44.071 38.763 44.071 C 35.909 44.071 33.593 41.759 33.593 38.896 C 33.593 37.112 34.499 35.538 35.878 34.61 C 35.422 32.288 34.684 30.07 33.662 27.957 C 33.158 26.916 32.604 25.917 31.998 24.961 C 31.695 25.525 31.298 26.052 30.809 26.541 C 30.802 26.548 30.802 26.548 30.795 26.555 C 30.795 26.555 30.795 26.555 30.788 26.563 C 30.245 27.106 29.658 27.531 29.027 27.842 C 28.148 28.277 27.183 28.495 26.136 28.491 C 24.328 28.482 22.776 27.829 21.478 26.531 C 21.477 26.53 21.476 26.529 21.474 26.527 C 21.472 26.525 21.471 26.524 21.469 26.522 C 20.172 25.225 19.519 23.673 19.511 21.865 C 19.508 20.621 19.806 19.506 20.417 18.504 C 20.691 18.05 21.038 17.613 21.438 17.212 L 21.452 17.198 C 21.941 16.709 22.467 16.313 23.031 16.01 C 22.029 15.378 20.981 14.802 19.887 14.282 C 17.823 13.301 15.664 12.591 13.41 12.152 Z M 27.962 19.932 C 27.922 19.892 27.882 19.853 27.841 19.813 C 27.441 19.48 26.942 19.26 26.398 19.204 C 26.304 19.195 26.213 19.19 26.116 19.192 C 26.07 19.19 26.018 19.194 25.974 19.193 C 24.556 19.274 23.431 20.449 23.436 21.879 C 23.436 22.621 23.736 23.293 24.222 23.779 C 24.482 24.04 24.792 24.249 25.142 24.385 C 25.446 24.504 25.78 24.567 26.126 24.569 C 26.214 24.572 26.307 24.564 26.396 24.555 C 27.753 24.413 28.808 23.27 28.805 21.882 C 28.811 21.289 28.625 20.745 28.303 20.308 C 28.265 20.256 28.226 20.205 28.185 20.156 C 28.111 20.081 28.037 20.006 27.962 19.932 Z M 30.77 14.545 C 30.77 15.287 31.07 15.959 31.556 16.445 C 31.816 16.705 32.126 16.915 32.476 17.051 C 32.78 17.17 33.115 17.233 33.46 17.234 C 33.548 17.238 33.641 17.23 33.73 17.221 C 35.087 17.079 36.142 15.935 36.14 14.547 C 36.145 13.955 35.959 13.411 35.637 12.974 C 35.201 12.367 34.513 11.951 33.732 11.87 C 33.639 11.861 33.547 11.855 33.45 11.858 C 33.404 11.855 33.352 11.86 33.308 11.859 C 31.891 11.94 30.766 13.115 30.77 14.545 Z" style="stroke-width: 0.05;"/>
</svg>