<?xml version="1.0" encoding="utf-8"?>
<svg xmlns="http://www.w3.org/2000/svg" height="48" viewBox="0 -960 960 960" width="48">
  <path d="M 528 -95 C 501.2 -95 478.66 -104.2 460.4 -122.4 C 442.14 -140.8 433 -163.2 433 -190 L 433 -433 C 433 -459.8 442.14 -482.4 460.4 -500.6 C 478.66 -519 501.2 -528 528 -528 L 771 -528 C 797.8 -528 820.34 -519 838.62 -500.6 C 856.88 -482.4 866 -459.8 866 -433 L 866 -190 C 866 -163.2 856.88 -140.8 838.62 -122.4 C 820.34 -104.2 797.8 -95 771 -95 L 528 -95 Z" style="stroke-width: 0.05;"/>
  <path d="M 189 -95 C 162.967 -95 140.79 -104.157 122.47 -122.47 C 104.157 -140.79 95 -162.967 95 -189 L 95 -305 C 95 -318.167 99.56 -329.293 108.68 -338.38 C 117.793 -347.46 128.96 -352 142.18 -352 C 155.393 -352 166.5 -347.46 175.5 -338.38 C 184.5 -329.293 189 -318.167 189 -305 L 189 -189 L 305 -189 C 318.167 -189 329.293 -184.44 338.38 -175.32 C 347.46 -166.207 352 -155.04 352 -141.82 C 352 -128.607 347.46 -117.5 338.38 -108.5 C 329.293 -99.5 318.167 -95 305 -95 L 189 -95 Z"/>
  <path d="M 771 -655 L 771 -771 L 655 -771 C 641.833 -771 630.71 -775.56 621.63 -784.68 C 612.543 -793.793 608 -804.93 608 -818.09 C 608 -831.243 612.543 -842.517 621.63 -851.91 C 630.71 -861.303 641.833 -866 655 -866 L 771 -866 C 797.307 -866 819.717 -856.743 838.23 -838.23 C 856.743 -819.717 866 -797.307 866 -771 L 866 -655 C 866 -641.833 861.247 -630.71 851.74 -621.63 C 842.227 -612.543 830.893 -608 817.74 -608 C 804.58 -608 793.5 -612.543 784.5 -621.63 C 775.5 -630.71 771 -641.833 771 -655 Z"/>
  <path d="M 95 -655 L 95 -771 C 95 -797.307 104.157 -819.717 122.47 -838.23 C 140.79 -856.743 162.967 -866 189 -866 L 305 -866 C 318.167 -866 329.293 -861.247 338.38 -851.74 C 347.46 -842.227 352 -830.893 352 -817.74 C 352 -804.58 347.46 -793.5 338.38 -784.5 C 329.293 -775.5 318.167 -771 305 -771 L 189 -771 L 189 -655 C 189 -641.833 184.44 -630.71 175.32 -621.63 C 166.207 -612.543 155.04 -608 141.82 -608 C 128.607 -608 117.5 -612.543 108.5 -621.63 C 99.5 -630.71 95 -641.833 95 -655 Z"/>
  <path d="M 479.82 -771 C 466.6 -771 455.5 -775.8 446.5 -785.2 C 437.5 -794.4 433 -805.6 433 -818.6 C 433 -831.6 437.56 -842.8 446.68 -852 C 455.8 -861.4 466.96 -866 480.18 -866 C 493.4 -866 504.5 -861.2 513.5 -851.8 C 522.5 -842.4 527 -831 527 -817.8 C 527 -805 522.44 -794 513.32 -784.8 C 504.2 -775.6 493.04 -771 479.82 -771 Z" style="stroke-width: 0.05;"/>
  <path d="M 304.82 -433 C 291.6 -433 280.5 -437.6 271.5 -446.8 C 262.5 -456.2 258 -467.2 258 -480 C 258 -492.6 262.56 -503.8 271.68 -513 C 280.8 -522.4 291.96 -527 305.18 -527 C 318.4 -527 329.5 -522.4 338.5 -513 C 347.5 -503.6 352 -492.4 352 -479.4 C 352 -466.6 347.44 -455.6 338.32 -446.6 C 329.2 -437.6 318.04 -433 304.82 -433 Z" style="stroke-width: 0.05;"/>
  <path d="M 479.82 -608 C 466.98 -608 455.96 -612.6 446.78 -621.8 C 437.6 -630.8 433 -642 433 -655.2 C 433 -668.4 437.68 -679.6 447.06 -688.6 C 456.44 -697.6 467.6 -702 480.56 -702 C 493.52 -702 504.66 -697.4 514 -688.4 C 523.34 -679.2 528 -668 528 -654.8 C 528 -641.6 523.26 -630.6 513.76 -621.6 C 504.26 -612.6 492.96 -608 479.82 -608 Z" style="stroke-width: 0.05;"/>
  <path d="M 141.44 -433 C 128.48 -433 117.5 -437.6 108.5 -446.8 C 99.5 -455.8 95 -467 95 -480.2 C 95 -493.4 99.62 -504.6 108.86 -513.6 C 118.1 -522.6 129.1 -527 141.86 -527 C 154.62 -527 165.66 -522.4 175 -513.4 C 184.34 -504.2 189 -493 189 -479.8 C 189 -466.6 184.32 -455.6 174.94 -446.6 C 165.56 -437.6 154.4 -433 141.44 -433 Z" style="stroke-width: 0.05;"/>
  <path d="M 304.328 -608.99 C 291.622 -608.99 280.719 -613.54 271.635 -622.64 C 262.552 -631.55 258 -642.63 258 -655.69 C 258 -668.76 262.631 -679.83 271.913 -688.75 C 281.193 -697.64 292.237 -702 305.059 -702 C 317.883 -702 328.906 -697.45 338.147 -688.54 C 347.39 -679.44 352 -668.36 352 -655.3 C 352 -642.23 347.311 -631.35 337.91 -622.45 C 328.51 -613.54 317.329 -608.99 304.328 -608.99 Z" style="stroke-width: 0.003;"/>
  <path d="M 654.328 -608 C 641.623 -608 630.718 -612.55 621.635 -621.65 C 612.551 -630.56 608 -641.64 608 -654.7 C 608 -667.77 612.631 -678.85 621.912 -687.75 C 631.193 -696.65 642.236 -701.01 655.059 -701.01 C 667.883 -701.01 678.905 -696.46 688.148 -687.55 C 697.389 -678.45 702 -667.37 702 -654.31 C 702 -641.24 697.31 -630.36 687.91 -621.46 C 678.51 -612.55 667.329 -608 654.328 -608 Z" style="stroke-width: 0.003;"/>
  <path d="M 304.34 -258.8 C 291.62 -258.8 280.72 -263.41 271.64 -272.6 C 262.56 -281.4 258 -292.6 258 -305.6 C 258 -318.6 262.641 -329.8 271.92 -338.6 C 281.2 -347.6 292.24 -352 305.06 -352 C 317.88 -352 328.9 -347.4 338.16 -338.4 C 347.4 -329.4 352 -318.2 352 -305.21 C 352 -292.2 347.32 -281.2 337.92 -272.41 C 328.52 -263.41 317.34 -258.8 304.34 -258.8 Z" style="stroke-width: 0;"/>
</svg>