<?xml version="1.0" encoding="utf-8"?>
<svg xmlns="http://www.w3.org/2000/svg" height="48" viewBox="0 -960 960 960" width="48">
  <path d="M 731 -55 L 229 -55 C 202.967 -55 180.793 -64.157 162.48 -82.47 C 144.16 -100.79 135 -122.967 135 -149 L 135 -811 C 135 -837.307 144.16 -859.717 162.48 -878.23 C 180.793 -896.743 202.967 -906 229 -906 L 532 -906 C 545.04 -906 557.467 -903.333 569.28 -898 C 581.093 -892.667 591.333 -885.667 600 -877 L 797 -680 C 805.667 -671.333 812.667 -661.093 818 -649.28 C 823.333 -637.467 826 -625.04 826 -612 L 826 -149 C 826 -122.967 816.743 -100.79 798.23 -82.47 C 779.717 -64.157 757.307 -55 731 -55 Z M 731 -149 L 731 -610.18 L 529.58 -811 L 229 -811 L 229 -149 L 731 -149 Z M 229 -149 L 229 -811 L 229 -149 Z"/>
</svg>