<?xml version="1.0" encoding="utf-8"?>
<svg xmlns="http://www.w3.org/2000/svg" height="48" viewBox="0 -960 960 960" width="48">
  <path d="M 204.182 -480.25 C 204.182 -462.46 197.732 -447.2 184.512 -434.46 C 171.322 -421.73 155.732 -415.37 137.502 -415.37 C 119.762 -415.37 104.412 -421.87 91.702 -434.87 C 78.972 -447.85 72.492 -463.32 72.492 -481.31 C 72.492 -499.25 78.972 -514.72 91.932 -527.63 C 105.132 -540.6 120.462 -547.06 138.472 -547.06 C 156.452 -547.06 171.802 -540.51 184.742 -527.34 C 197.732 -514.17 204.182 -498.46 204.182 -480.25 Z M 368.022 -480.25 C 368.022 -462.46 361.532 -447.2 349.052 -434.46 C 336.362 -421.73 320.752 -415.37 302.542 -415.37 C 284.302 -415.37 268.722 -421.87 256.242 -434.87 C 243.762 -447.85 237.782 -463.32 237.782 -481.31 C 237.782 -499.25 244.012 -514.72 256.472 -527.63 C 269.202 -540.6 284.782 -547.06 303.022 -547.06 C 321.472 -547.06 336.842 -540.51 349.302 -527.34 C 361.782 -514.17 368.022 -498.46 368.022 -480.25 Z M 661.649 -254.83 C 661.583 -254.83 661.511 -254.83 661.443 -254.83 C 661.343 -254.83 661.27 -254.83 661.203 -254.83 C 598.492 -254.83 545.144 -276.36 501.241 -320.15 C 471.114 -349.9 451.35 -384.09 441.878 -423.08 C 437.538 -440.83 435.345 -459.64 435.345 -479.15 L 435.345 -479.82 C 435.345 -542.42 457.332 -595.43 501.309 -639.17 C 545.25 -682.96 598.66 -705.17 661.443 -705.17 C 724.226 -705.17 777.603 -683.3 821.579 -639.51 C 865.52 -595.76 887.508 -542.76 887.508 -480.16 C 887.508 -479.82 887.508 -479.82 887.508 -479.49 C 887.508 -479.49 887.508 -479.49 887.508 -479.15 C 887.508 -452.82 883.609 -428.22 875.847 -405.63 C 865.108 -373.83 847.053 -345.09 821.646 -320.15 C 777.704 -276.36 724.394 -254.83 661.649 -254.83 Z M 661.328 -348.17 C 698.115 -348.17 729.175 -360.78 754.508 -385.99 C 779.841 -411.21 792.508 -442.21 792.508 -478.99 C 792.508 -515.78 779.901 -546.84 754.688 -572.17 C 729.468 -597.5 698.468 -610.17 661.688 -610.17 C 624.901 -610.17 593.841 -597.56 568.508 -572.35 C 543.175 -547.13 530.508 -516.13 530.508 -479.35 C 530.508 -442.56 543.115 -411.5 568.328 -386.17 C 593.548 -360.84 624.548 -348.17 661.328 -348.17 Z" style="stroke-width: 0.05;"/>
</svg>