<?xml version="1.0" encoding="utf-8"?>
<svg xmlns="http://www.w3.org/2000/svg" height="48" viewBox="0 -960 960 960" width="48">
  <path d="M 613.506 -788.58 C 624.332 -798.59 639.715 -805.06 654.405 -805.82 C 669.16 -805.49 684.833 -799.12 695.735 -789.08 C 705.801 -778.15 712.173 -762.43 712.481 -747.67 C 711.57 -733.04 704.94 -717.82 694.976 -707.11 L 352.027 -364.16 C 354.291 -358.94 353.482 -360.84 354.09 -359.37 L 838.186 -359.37 C 852.885 -358.8 868.39 -352.53 879.314 -342.75 C 889.498 -332.02 896.681 -316.45 896.681 -301.61 C 896.681 -286.74 889.457 -271.19 879.245 -260.56 C 868.319 -250.89 852.848 -244.71 838.186 -244.16 L 352.173 -244.16 C 344.702 -227.27 336.485 -213.89 320.236 -197.6 C 291.438 -169.77 254.172 -154.18 213.848 -154.18 C 213.812 -154.18 213.764 -154.18 213.728 -154.18 C 213.669 -154.18 213.62 -154.18 213.584 -154.18 C 173.273 -154.18 135.988 -169.77 107.21 -197.61 C 87.982 -217.01 74.125 -241.07 67.658 -266.39 C 64.902 -277.94 63.37 -290.99 63.318 -303.46 L 63.318 -303.82 C 63.905 -344.13 79.309 -381.37 107.248 -409.92 C 135.964 -437.72 173.295 -453.81 213.728 -453.81 C 236.758 -453.81 251.795 -450.26 268.807 -443.88 L 613.506 -788.58 Z M 213.656 -240.8 C 232.7 -240.8 245.749 -245.47 258.304 -258.82 C 271.727 -271.44 276.429 -284.32 276.429 -303.35 C 276.429 -322.4 271.749 -335.53 258.409 -347.98 C 245.943 -361.42 232.898 -366.13 213.871 -366.13 C 194.84 -366.13 181.773 -361.43 169.203 -348.09 C 155.804 -335.61 151.099 -322.61 151.099 -303.58 C 151.099 -284.54 155.784 -271.53 169.145 -258.91 C 181.663 -245.57 194.666 -240.8 213.656 -240.8 Z M 709.677 -616.09 C 711.511 -628.37 717.49 -639.05 727.384 -648.31 C 738.88 -659.88 753.383 -664.86 770.644 -663.26 C 787.889 -661.64 800.987 -654.19 810.203 -640.31 C 825.614 -616.45 838.498 -591.72 848.856 -566.1 C 859.212 -540.47 867.486 -514.13 873.465 -487.26 C 876.669 -470.36 873.004 -455.22 862.645 -441.88 C 852.307 -428.53 838.266 -421.77 820.561 -421.77 C 808.353 -421.77 797.089 -425.33 786.749 -432.63 C 776.393 -439.93 769.932 -449.7 767.637 -461.98 C 762.37 -482.64 755.679 -503.27 747.636 -523.57 C 739.592 -543.85 729.697 -563.6 718.202 -582.82 C 710.603 -592.8 707.845 -603.82 709.677 -616.09 Z" style="stroke-width: 31px;"/>
</svg>