<?xml version="1.0" encoding="utf-8"?>
<svg xmlns="http://www.w3.org/2000/svg" height="48" viewBox="0 -960 960 960" width="48">
  <path d="M 837.375 -414.74 L 657.05 -414.712 L 657.05 -396.92 C 657.05 -371.27 647.801 -349.17 629.28 -330.9 C 610.778 -312.59 588.537 -303.44 562.557 -303.44 L 397.443 -303.44 C 371.105 -303.44 348.765 -312.59 330.443 -330.9 C 312.102 -349.17 302.95 -371.27 302.95 -396.92 L 302.95 -414.658 L 122.626 -414.63 C 103.369 -414.63 87.421 -420.75 74.796 -433.54 C 62.171 -446.35 55.866 -461.66 55.866 -480.29 C 55.866 -498.64 62.171 -513.95 74.796 -526.46 C 87.421 -538.98 103.369 -545.37 122.626 -545.37 L 302.95 -545.362 L 302.95 -563.03 C 302.95 -588.72 312.102 -610.77 330.443 -629.09 C 348.765 -647.38 371.105 -656.56 397.443 -656.56 L 562.557 -656.56 C 588.537 -656.56 610.778 -647.38 629.28 -629.09 C 647.801 -610.77 657.05 -588.72 657.05 -563.03 L 657.05 -545.348 L 837.375 -545.34 C 856.635 -545.34 872.575 -538.94 885.215 -526.54 C 897.835 -513.94 904.135 -498.73 904.135 -480.34 C 904.135 -461.73 897.835 -446.34 885.215 -433.54 C 872.575 -420.73 856.635 -414.74 837.375 -414.74 Z M 397.443 -396.95 L 562.557 -396.95 L 562.557 -563.05 L 397.443 -563.05 Z" style="stroke-width: 0.05;"/>
  <path d="M 226.361 -733.64 Z" style="stroke-width: 0.05;"/>
  <path d="M 226.361 -485.94 Z" style="stroke-width: 0.05;"/>
  <path d="M 474.032 -485.94 Z" style="stroke-width: 0.05;"/>
  <path d="M 474.032 -733.64 Z" style="stroke-width: 0.05;"/>
</svg>