<?xml version="1.0" encoding="utf-8"?>
<svg xmlns="http://www.w3.org/2000/svg" height="48" viewBox="0 -960 960 960" width="48">
  <path d="M 593.862 -192.51 C 593.862 -192.56 593.862 -192.6 593.862 -192.65 C 593.862 -192.7 593.862 -192.74 593.862 -192.79 C 593.862 -234.5 608.026 -270.15 636.143 -299.7 L 634.774 -303.35 L 321.571 -303.35 L 267.7 -168.05 C 263.524 -157.19 256.215 -148 245.776 -140.49 C 235.336 -132.97 224.269 -129.21 212.576 -129.21 C 188.989 -129.21 170.983 -138.4 158.555 -156.78 C 146.127 -175.15 144.507 -195.19 153.694 -216.91 L 397.992 -790.7 C 403.003 -802.39 410.7 -812 421.082 -819.51 C 431.464 -827.03 443.231 -830.79 456.386 -830.79 L 512.487 -830.79 C 524.73 -830.79 536.482 -827.03 547.741 -819.51 C 558.991 -812 567.122 -801.97 572.133 -789.45 L 753.518 -347.14 C 793.804 -345.83 828.116 -330.83 856.705 -302.12 C 886.865 -272.08 901.825 -235.58 901.825 -192.65 C 901.825 -149.72 887.105 -113.2 856.915 -83.148 C 826.995 -53.108 790.755 -38.068 747.965 -38.068 C 747.725 -38.068 747.725 -38.068 747.495 -38.068 C 747.495 -38.068 747.495 -38.068 747.255 -38.068 C 729.255 -38.068 712.655 -40.738 696.985 -46.038 C 675.255 -53.388 655.835 -65.728 638.542 -83.108 C 608.832 -113.13 593.862 -149.6 593.862 -192.51 Z M 355.397 -397.31 L 600.948 -397.31 L 482.106 -713.02 L 476.919 -713.02 Z M 703.065 -237.074 C 690.905 -224.8 684.825 -208.711 684.825 -192.649 C 684.825 -184.043 686.465 -175.439 689.975 -167.42 C 693.015 -160.406 697.455 -153.856 703.065 -148.108 C 704.465 -146.608 706.105 -145.178 707.975 -143.878 C 732.535 -123.788 769.005 -125.238 791.925 -148.228 C 801.755 -157.926 807.835 -169.992 809.685 -182.547 C 812.515 -199.827 807.835 -218.041 796.365 -232.327 C 794.965 -233.99 793.565 -235.626 791.925 -237.193 C 791.235 -237.986 790.285 -238.734 789.595 -239.506 C 764.805 -261.579 726.685 -260.786 703.065 -237.074 Z" style="stroke-width: 0.003;"/>
</svg>