<?xml version="1.0" encoding="utf-8"?>
<svg xmlns="http://www.w3.org/2000/svg" height="48" viewBox="0 -960 960 960" width="48">
  <path d="M 323.137 -715.869 C 316.893 -697.909 306.613 -681.871 292.223 -667.36 C 278.374 -653.719 262.912 -643.827 245.833 -637.651 L 245.812 -444.69 L 245.448 -444.69 L 245.462 -320.417 C 262.639 -314.175 278.189 -304.152 292.107 -290.35 C 306.336 -276.116 316.579 -260.246 322.831 -242.7 L 330.068 -242.727 L 330.068 -243.14 L 409.039 -243.027 L 437.913 -243.137 L 437.913 -242.986 L 638.545 -242.7 C 644.797 -260.25 655.04 -276.12 669.269 -290.35 C 683.187 -304.16 698.737 -314.18 715.914 -320.42 L 715.928 -444.68 L 715.564 -444.68 L 715.543 -637.705 C 698.464 -643.818 683.002 -653.768 669.153 -667.36 C 654.763 -681.86 644.483 -697.96 638.239 -715.86 L 472.48 -715.913 Z M 321.838 -150.71 C 315.501 -133.963 305.629 -119.017 292.146 -105.43 C 266.756 -80.417 235.965 -68.027 199.717 -68.027 C 199.657 -68.027 199.638 -68.027 199.577 -68.027 C 199.556 -68.027 199.517 -68.027 199.477 -68.027 C 163.229 -68.027 132.42 -80.417 107.067 -105.43 C 89.653 -122.81 78.216 -142.81 72.778 -165.4 C 70.26 -175.6 69 -186.39 69 -197.8 L 69 -197.99 C 69 -233.99 81.695 -264.78 107.106 -290.17 C 120.981 -303.945 136.488 -314.011 153.623 -320.307 L 153.527 -637.623 C 136.42 -643.796 120.937 -653.698 107.077 -667.36 C 91.044 -683.384 80.071 -701.461 74.184 -721.879 C 70.731 -733.546 68.997 -746.118 68.997 -759.46 C 68.997 -759.66 68.997 -759.66 68.997 -759.66 C 68.997 -759.86 68.997 -759.86 68.997 -760.06 C 68.997 -796.26 81.677 -826.86 107.061 -852.16 C 132.451 -877.36 163.311 -890.06 199.571 -890.06 C 199.579 -890.06 199.587 -890.06 199.595 -890.06 C 199.603 -890.06 199.611 -890.06 199.619 -890.06 C 235.896 -890.06 266.77 -877.46 292.182 -852.25 C 305.547 -838.869 315.393 -824.051 321.721 -807.763 L 639.669 -807.797 C 645.998 -824.082 655.839 -838.87 669.194 -852.26 C 694.606 -877.46 725.48 -890.06 761.757 -890.06 C 761.765 -890.06 761.773 -890.06 761.781 -890.06 C 761.789 -890.06 761.797 -890.06 761.805 -890.06 C 798.065 -890.06 828.925 -877.4 854.315 -852.12 C 879.469 -827.085 892.148 -796.784 892.372 -761.063 C 892.375 -760.696 892.376 -760.328 892.376 -759.96 L 892.376 -759.56 C 892.376 -758.649 892.368 -757.743 892.352 -756.84 C 892.146 -745.032 890.563 -733.842 887.614 -723.352 C 881.838 -702.328 870.723 -683.776 854.299 -667.36 C 843.027 -656.218 830.682 -647.59 817.263 -641.475 C 814.181 -640.06 811.043 -638.775 807.849 -637.621 L 807.753 -320.31 C 824.888 -314.02 840.395 -303.95 854.27 -290.18 C 879.681 -264.79 892.376 -233.99 892.376 -197.99 L 892.376 -197.81 C 892.376 -186.4 891.116 -175.6 888.598 -165.41 C 883.16 -142.81 871.723 -122.81 854.309 -105.44 C 828.956 -80.42 798.147 -68.03 761.899 -68.03 C 761.859 -68.03 761.82 -68.03 761.799 -68.03 C 761.738 -68.03 761.719 -68.03 761.659 -68.03 C 725.411 -68.03 694.62 -80.42 669.23 -105.44 C 655.747 -119.02 645.875 -133.97 639.538 -150.71 L 408.784 -151.038 Z M 724.302 -722.19 C 728.391 -718.137 732.978 -714.852 737.864 -712.36 C 738.71 -711.938 739.565 -711.539 740.427 -711.16 C 740.735 -711.014 741.045 -710.873 741.355 -710.735 C 747.885 -707.976 754.847 -706.57 761.805 -706.57 C 762.721 -706.57 763.637 -706.592 764.551 -706.636 C 777.171 -707.324 789.602 -712.66 799.274 -722.16 C 815.26 -738.091 818.932 -761.698 810.329 -781.258 C 807.755 -787.059 804.09 -792.485 799.335 -797.22 C 795.733 -800.861 791.748 -803.856 787.512 -806.206 C 782.895 -808.721 777.976 -810.522 772.928 -811.592 C 772.07 -811.767 771.209 -811.92 770.345 -812.05 C 755.745 -814.41 740.365 -810.67 728.312 -800.98 C 726.892 -799.79 725.502 -798.61 724.202 -797.22 C 723.555 -796.667 722.96 -795.761 722.361 -795.329 C 721.466 -794.341 720.615 -793.327 719.807 -792.289 C 703.684 -771.213 705.167 -741.201 724.302 -722.19 Z M 162.102 -722.18 C 166.87 -717.497 172.309 -713.823 178.11 -711.22 C 178.157 -711.2 178.204 -711.18 178.251 -711.16 C 178.292 -711.141 178.332 -711.122 178.373 -711.103 C 185.132 -708.112 192.376 -706.57 199.619 -706.57 C 200.603 -706.57 201.586 -706.596 202.566 -706.648 C 208.504 -706.995 214.398 -708.372 219.979 -710.727 C 220.303 -710.871 220.627 -711.018 220.949 -711.17 C 221.88 -711.58 222.803 -712.015 223.715 -712.475 C 228.526 -714.955 233.041 -718.195 237.074 -722.16 C 254.96 -740.002 257.424 -767.393 244.5 -788.077 C 242.844 -790.688 240.939 -793.185 238.784 -795.533 C 238.572 -795.728 238.359 -795.968 238.144 -796.218 C 237.827 -796.552 237.505 -796.883 237.177 -797.21 C 236.386 -798.021 235.576 -798.798 234.749 -799.543 C 234.195 -800.016 233.632 -800.48 233.064 -800.96 C 226.613 -806.151 219.21 -809.653 211.483 -811.418 C 210.382 -811.657 209.275 -811.861 208.164 -812.03 C 194.502 -814.275 180.158 -811.087 168.488 -802.811 C 166.292 -801.213 164.19 -799.418 162.204 -797.424 C 162.137 -797.353 162.07 -797.282 162.003 -797.21 C 161.973 -797.185 161.943 -797.158 161.913 -797.132 C 161.758 -796.976 161.604 -796.819 161.451 -796.662 C 161.024 -796.185 160.618 -795.651 160.209 -795.336 C 157.862 -792.746 155.816 -789.98 154.072 -787.081 C 141.822 -766.576 144.48 -739.749 162.102 -722.18 Z M 162.07 -160.4 C 172.445 -150.22 186.002 -144.61 199.577 -144.61 C 206.874 -144.61 214.112 -146 220.89 -149.22 C 226.808 -152.01 232.387 -155.6 237.225 -160.4 C 238.485 -161.4 239.684 -163 240.804 -164.4 C 257.778 -185.2 256.518 -215.99 237.125 -235.39 C 228.908 -243.77 218.712 -248.57 208.115 -250.18 C 193.52 -252.58 178.125 -248.78 166.068 -239.18 C 164.648 -237.97 163.269 -236.79 161.969 -235.39 C 161.271 -234.78 160.649 -233.78 160.011 -233.38 C 141.337 -212.38 141.996 -180.4 162.07 -160.4 Z M 801.365 -233.39 C 800.727 -233.79 800.105 -234.79 799.407 -235.4 C 798.107 -236.8 796.728 -237.97 795.308 -239.19 C 783.251 -248.79 767.856 -252.58 753.261 -250.19 C 742.664 -248.57 732.468 -243.78 724.251 -235.4 C 704.858 -215.99 703.598 -185.2 720.572 -164.41 C 721.692 -163.01 722.891 -161.41 724.151 -160.41 C 728.989 -155.6 734.568 -152.02 740.486 -149.22 C 747.264 -146.01 754.502 -144.61 761.799 -144.61 C 775.374 -144.61 788.931 -150.22 799.306 -160.41 C 819.38 -180.41 820.039 -212.39 801.365 -233.39 Z"/>
</svg>