<?xml version="1.0" encoding="utf-8"?>
<svg xmlns="http://www.w3.org/2000/svg" height="48" viewBox="0 -960 960 960" width="48">
  <path d="M 680 -255 C 628.653 -255 583.317 -270.333 543.99 -301 C 506.936 -329.894 480.829 -368.257 465.667 -416.09 L 157.744 -416.09 C 138.487 -416.09 122.539 -422.21 109.914 -435 C 97.289 -447.81 90.984 -463.12 90.984 -481.75 C 90.984 -500.1 97.289 -515.41 109.914 -527.92 C 122.539 -540.44 138.487 -546.83 157.744 -546.83 L 466.327 -546.83 C 481.581 -593.154 507.468 -630.711 543.99 -659.5 C 583.317 -690.5 628.653 -706 680 -706 C 742.073 -706 795.257 -683.86 839.55 -639.58 C 883.85 -595.3 906 -542.07 906 -479.89 C 906 -417.717 883.85 -364.69 839.55 -320.81 C 795.257 -276.937 742.073 -255 680 -255 Z M 679.82 -349 C 716.607 -349 747.667 -361.607 773 -386.82 C 798.333 -412.04 811 -443.04 811 -479.82 C 811 -516.607 798.393 -547.667 773.18 -573 C 747.96 -598.333 716.96 -611 680.18 -611 C 643.393 -611 612.333 -598.393 587 -573.18 C 561.667 -547.96 549 -516.96 549 -480.18 C 549 -443.393 561.607 -412.333 586.82 -387 C 612.04 -361.667 643.04 -349 679.82 -349 Z"/>
</svg>