<?xml version="1.0" encoding="utf-8"?>
<svg xmlns="http://www.w3.org/2000/svg" height="48" viewBox="0 -960 960 960" width="48">
  <path d="M 719.043 -255 C 667.696 -255 622.36 -270.33 583.033 -301 C 545.979 -329.9 519.872 -368.26 504.71 -416.09 L 375.897 -416.09 C 356.64 -416.09 340.692 -422.21 328.067 -435 C 315.442 -447.81 309.137 -463.12 309.137 -481.75 C 309.137 -500.1 315.442 -515.41 328.067 -527.92 C 340.692 -540.44 356.64 -546.83 375.897 -546.83 L 505.37 -546.83 C 520.624 -593.16 546.511 -630.71 583.033 -659.5 C 622.36 -690.5 667.696 -706 719.043 -706 C 781.116 -706 834.3 -683.86 878.593 -639.58 C 922.893 -595.3 945.043 -542.07 945.043 -479.89 C 945.043 -417.72 922.893 -364.69 878.593 -320.81 C 834.3 -276.94 781.116 -255 719.043 -255 Z M 718.863 -349 C 755.65 -349 786.71 -361.61 812.043 -386.82 C 837.376 -412.04 850.043 -443.04 850.043 -479.82 C 850.043 -516.61 837.436 -547.67 812.223 -573 C 787.003 -598.34 756.003 -611 719.223 -611 C 682.436 -611 651.376 -598.39 626.043 -573.18 C 600.71 -547.96 588.043 -516.96 588.043 -480.18 C 588.043 -443.39 600.65 -412.33 625.863 -387 C 651.083 -361.67 682.083 -349 718.863 -349 Z M 269.211 -671.98 C 255.317 -650.7 236.801 -634.15 213.979 -623.12 L 214.058 -341.86 C 236.933 -330.81 255.5 -314.79 269.315 -292.99 C 279.322 -276.98 285.913 -259.91 288.645 -240.99 C 290.721 -231.27 291.796 -221.03 291.928 -210.26 C 291.954 -171.67 278.35 -139.09 251.247 -112.04 C 224.722 -85.265 192.102 -72.136 153.154 -71.859 C 114.336 -71.859 81.613 -85.265 55.112 -112.04 C 28.403 -138.84 15.008 -171.67 14.957 -210.26 C 15.141 -221.03 16.06 -231.01 18.186 -240.99 C 20.917 -259.63 27.693 -277.26 38.016 -292.99 C 51.908 -314.54 69.847 -330.55 92.564 -341.86 L 92.38 -623.12 C 69.793 -634.15 51.671 -650.44 37.911 -671.98 C 34.68 -677.22 31.79 -682.49 29.216 -687.73 C 19.736 -706.37 15.062 -727.13 15.008 -749.47 C 14.983 -788.06 28.456 -821.15 54.982 -847.96 C 81.717 -874.73 114.336 -888.14 153.127 -888.14 C 191.865 -888.14 224.614 -874.48 251.324 -847.96 C 278.192 -820.9 291.954 -788.32 291.744 -749.47 C 291.77 -728.45 287.777 -709.01 279.453 -691.16 C 276.537 -684.6 273.176 -678.29 269.211 -671.98 Z"/>
</svg>