<?xml version="1.0" encoding="utf-8"?>
<svg xmlns="http://www.w3.org/2000/svg" height="48" viewBox="0 -960 960 960" width="48">
  <path d="M 783.055 -888.35 C 809.067 -884.4 834.102 -872.63 854.225 -852 C 897.187 -809.056 903.898 -743.296 874.181 -693.377 C 880.831 -681.075 886.991 -668.366 892.662 -655.25 C 916.157 -600.73 927.898 -542.2 927.898 -479.48 C 927.898 -417.59 916.136 -359.49 892.62 -305.15 C 886.772 -291.602 880.405 -278.496 873.521 -265.827 C 901.689 -219.421 898.316 -159.087 863.257 -116.16 C 860.509 -112.69 857.563 -109.27 854.471 -106.32 C 842.592 -94.537 828.946 -85.717 814.416 -79.307 C 797.781 -71.487 780.011 -68.027 762.095 -68.027 C 739.002 -68.027 715.909 -74.417 695.424 -86.69 C 682.375 -79.564 668.863 -73.018 654.89 -67.059 C 600.594 -43.684 542.172 -32.108 479.625 -32.108 C 417.771 -32.108 359.665 -43.684 305.285 -67.059 C 291.538 -72.91 278.23 -79.328 265.36 -86.307 C 260.872 -83.709 256.262 -81.382 251.559 -79.307 C 234.924 -71.487 217.154 -68.027 199.238 -68.027 C 165.959 -68.027 132.681 -81.297 107.207 -106.32 C 64.342 -149.062 57.572 -214.129 86.764 -264.269 C 79.564 -277.432 72.95 -291.058 66.924 -305.15 C 43.702 -359.49 32.103 -417.59 32.103 -479.48 C 32.103 -542 43.702 -600.51 66.924 -654.86 C 72.842 -668.695 79.322 -682.082 86.364 -695.019 C 58.777 -742.751 64.078 -804.272 102.151 -847.13 C 103.721 -848.08 105.245 -850.55 106.964 -852 C 110.153 -855.43 113.541 -858.4 117.025 -861.35 C 146.619 -884.88 184.364 -894.24 220.198 -888.35 C 235.559 -886.017 250.58 -880.957 264.449 -872.956 C 277.475 -880.107 290.953 -886.709 304.886 -892.76 C 359.223 -916.32 417.328 -927.89 479.246 -927.89 C 541.859 -927.89 600.405 -916.32 654.869 -892.76 C 669.184 -886.61 683.01 -879.864 696.347 -872.53 C 722.809 -887.721 753.579 -893.195 783.055 -888.35 Z M 762.095 -629.65 C 728.816 -629.65 695.538 -642.92 670.064 -667.95 C 636.277 -701.633 624.915 -749.195 635.914 -792.385 C 588.748 -816.049 536.429 -827.91 478.951 -827.91 C 422.804 -827.91 371.526 -816.423 325.117 -793.506 C 335.592 -754.14 327.374 -710.808 300.4 -677.78 C 297.652 -674.32 294.706 -670.89 291.614 -667.95 C 279.735 -656.16 266.089 -647.35 251.559 -640.93 C 234.924 -633.12 217.154 -629.65 199.238 -629.65 C 187.951 -629.65 176.665 -631.176 165.682 -634.17 C 142.594 -587.443 131.052 -535.718 131.052 -479.05 C 131.052 -422.508 142.684 -370.879 165.951 -324.173 C 183.663 -328.789 202.172 -329.683 220.198 -326.72 C 246.21 -322.78 271.245 -311 291.368 -290.38 C 325.206 -256.557 336.555 -208.58 325.331 -165.336 C 371.754 -142.483 423.135 -131.06 479.476 -131.06 C 536.666 -131.06 588.776 -142.875 635.809 -166.47 C 625.54 -207.23 635.291 -252.048 665.008 -285.5 C 666.578 -286.45 668.102 -288.93 669.821 -290.38 C 673.01 -293.81 676.398 -296.78 679.882 -299.72 C 709.476 -323.26 747.221 -332.61 783.055 -326.72 C 786.489 -326.2 789.907 -325.543 793.298 -324.747 C 816.37 -371.379 827.903 -422.961 827.903 -479.48 C 827.903 -535.712 816.486 -587.058 793.649 -633.503 C 783.32 -630.873 772.733 -629.65 762.095 -629.65 Z M 724.579 -160.57 C 734.952 -150.29 748.522 -144.95 762.082 -144.95 C 769.372 -144.95 776.622 -146.33 783.402 -149.5 C 789.322 -152.08 794.872 -155.83 799.712 -160.57 C 800.972 -161.74 802.182 -163.12 803.302 -164.5 C 820.272 -185.44 819.022 -216.27 799.612 -235.6 C 791.412 -243.89 781.222 -248.83 770.622 -250.43 C 756.022 -252.79 740.642 -249.05 728.589 -239.36 C 727.169 -238.17 725.779 -236.99 724.479 -235.6 C 723.789 -235.01 723.159 -234.02 722.519 -233.63 C 703.859 -212.49 704.529 -180.49 724.579 -160.57 Z M 161.722 -160.57 C 172.095 -150.29 185.665 -144.95 199.225 -144.95 C 206.515 -144.95 213.765 -146.33 220.545 -149.5 C 226.465 -152.08 232.015 -155.83 236.855 -160.57 C 238.115 -161.74 239.325 -163.12 240.445 -164.5 C 257.415 -185.44 256.165 -216.27 236.755 -235.6 C 228.555 -243.89 218.365 -248.83 207.765 -250.43 C 193.165 -252.79 177.785 -249.05 165.732 -239.36 C 164.312 -238.17 162.922 -236.99 161.622 -235.6 C 160.932 -235.01 160.302 -234.02 159.662 -233.63 C 141.002 -212.49 141.672 -180.49 161.722 -160.57 Z M 161.722 -722.2 C 172.095 -711.91 185.665 -706.58 199.225 -706.58 C 206.515 -706.58 213.765 -707.96 220.545 -711.13 C 226.465 -713.71 232.015 -717.46 236.855 -722.2 C 238.115 -723.37 239.325 -724.75 240.445 -726.13 C 257.415 -747.07 256.165 -777.89 236.755 -797.23 C 228.555 -805.51 218.365 -810.46 207.765 -812.05 C 193.165 -814.41 177.785 -810.67 165.732 -800.99 C 164.312 -799.79 162.922 -798.62 161.622 -797.23 C 160.932 -796.63 160.302 -795.64 159.662 -795.25 C 141.002 -774.12 141.672 -742.12 161.722 -722.2 Z M 724.579 -722.2 C 734.952 -711.91 748.522 -706.58 762.082 -706.58 C 769.372 -706.58 776.622 -707.96 783.402 -711.13 C 789.322 -713.71 794.872 -717.46 799.712 -722.2 C 800.972 -723.37 802.182 -724.75 803.302 -726.13 C 820.272 -747.07 819.022 -777.89 799.612 -797.23 C 791.412 -805.51 781.222 -810.46 770.622 -812.05 C 756.022 -814.41 740.642 -810.67 728.589 -800.99 C 727.169 -799.79 725.779 -798.62 724.479 -797.23 C 723.789 -796.63 723.159 -795.64 722.519 -795.25 C 703.859 -774.12 704.529 -742.12 724.579 -722.2 Z" style="stroke-width: 1;"/>
</svg>