<?xml version="1.0" encoding="utf-8"?>
<svg xmlns="http://www.w3.org/2000/svg" height="48" viewBox="0 -960 960 960" width="48">
  <path d="M 480.11 -346.68 C 480.07 -346.68 480.031 -346.68 479.988 -346.68 C 479.948 -346.68 479.909 -346.68 479.869 -346.68 C 442.766 -346.68 411.209 -359.63 385.234 -385.32 C 367.413 -403.13 355.699 -423.35 350.115 -446.42 C 347.547 -456.74 346.251 -468.05 346.251 -479.38 L 346.251 -479.8 C 346.251 -500.325 350.254 -519.182 358.259 -536.324 L 220.514 -674.07 C 202.405 -667.88 183.91 -666.85 164.929 -670.9 C 160.468 -671.85 156.125 -673.09 151.903 -674.6 C 136.782 -679.63 123.124 -688.16 111.021 -700.27 C 90.257 -721.03 79.834 -745.76 79.728 -774.48 C 79.643 -803.2 90.038 -828.02 110.784 -848.77 C 131.679 -869.66 156.499 -880.06 185.214 -879.97 C 214.085 -880.02 238.961 -869.74 259.726 -848.97 C 271.079 -837.62 279.37 -824.97 284.466 -810.93 C 286.478 -805.87 288.066 -800.63 289.225 -795.2 C 293.297 -776.14 292.121 -757.45 285.845 -739.26 L 423.681 -601.422 C 440.761 -609.337 459.531 -613.33 479.988 -613.33 C 517.131 -613.33 548.729 -600.38 574.745 -574.48 C 600.74 -548.58 613.748 -517.01 613.748 -480 C 613.748 -479.8 613.748 -479.8 613.748 -479.6 C 613.748 -479.6 613.748 -479.6 613.748 -479.38 C 613.748 -464.01 611.419 -449.45 606.828 -436.1 C 605.362 -431.754 603.666 -427.507 601.74 -423.361 L 739.259 -285.84 C 757.453 -292.12 776.146 -293.3 795.196 -289.22 C 809.168 -286.24 821.905 -280.43 833.46 -271.84 C 839.905 -267.67 846.006 -262.69 851.778 -256.92 C 872.546 -236.15 882.825 -211.28 882.763 -182.42 C 882.864 -153.69 872.456 -128.89 851.561 -107.99 C 830.814 -87.246 806.008 -76.838 777.276 -76.932 C 748.573 -77.026 723.842 -87.445 703.074 -108.21 C 697.344 -113.94 692.417 -120.02 688.283 -126.43 C 679.673 -138.05 673.894 -150.9 670.901 -164.93 C 666.853 -183.91 667.878 -202.4 674.072 -220.51 L 536.225 -358.358 C 519.197 -350.584 500.493 -346.68 480.11 -346.68 Z M 441.572 -441.36 C 452.192 -430.63 466.091 -425.38 479.988 -425.38 C 487.455 -425.38 494.878 -426.8 501.818 -429.83 C 507.886 -432.46 513.569 -436.52 518.526 -441.36 C 519.841 -442.56 521.056 -443.99 522.207 -445.38 C 539.585 -466.86 538.311 -498.21 518.426 -518.02 C 510.029 -526.73 499.593 -531.79 488.727 -533.41 C 473.779 -535.84 458.021 -532 445.679 -521.88 C 444.223 -520.64 442.807 -519.46 441.474 -518.02 C 440.765 -517.4 440.117 -516.62 439.469 -516.01 C 420.351 -494.55 421.039 -461.8 441.572 -441.36 Z" style="stroke-width: 0.003;"/>
  <path d="M 549.593 -791.42 C 534.009 -791.42 520.922 -796.84 510.312 -807.46 C 499.701 -818.3 494.397 -831.5 494.397 -847.06 C 494.397 -862.61 499.773 -875.6 510.525 -886.2 C 521.252 -896.81 534.432 -902.23 550.017 -902.23 C 565.579 -902.23 578.688 -896.81 589.299 -885.97 C 599.908 -875.36 605.214 -862.15 605.214 -846.59 C 605.214 -831.02 599.838 -817.83 589.086 -807.21 C 578.335 -796.61 565.179 -791.42 549.593 -791.42 Z" style="stroke-width: 0.05;" transform="matrix(0.70710701, 0.70710701, -0.70710701, 0.70710701, -227.42007094, -550.16088252)"/>
  <path d="M 892.867 -451.85 C 892.867 -466.95 898.386 -479.85 909.446 -490.75 C 920.476 -501.55 933.656 -507.05 948.936 -507.05 C 964.216 -507.05 977.346 -501.35 988.366 -490.25 C 999.346 -479.45 1004.86 -466.25 1004.86 -450.85 C 1004.86 -450.35 1004.85 -449.85 1004.84 -449.36 C 1004.85 -448.79 1004.86 -448.23 1004.86 -447.65 C 1004.86 -432.33 999.253 -419.36 988.077 -408.75 C 976.876 -398.14 963.532 -392.96 948.065 -392.96 C 932.904 -392.96 919.936 -398.38 909.113 -409.23 C 898.267 -420.07 892.867 -433.04 892.867 -448.13 C 892.867 -448.74 892.876 -449.35 892.894 -449.95 C 892.876 -450.58 892.867 -451.21 892.867 -451.85 Z" style="stroke-width: 0.05;" transform="matrix(0.70710701, 0.70710701, -0.70710701, 0.70710701, -227.42007094, -550.16088252)"/>
  <path d="M 95.926 -451.85 C 95.926 -466.95 101.371 -479.85 112.265 -490.75 C 123.159 -501.55 136.127 -507.05 151.17 -507.05 C 166.213 -507.05 179.227 -501.35 190.238 -490.25 C 201.225 -479.45 206.743 -466.25 206.743 -450.85 C 206.743 -450.32 206.736 -449.79 206.723 -449.26 C 206.736 -448.72 206.743 -448.19 206.743 -447.65 C 206.743 -432.33 201.201 -419.36 190.167 -408.75 C 179.109 -398.14 165.954 -392.96 150.674 -392.96 C 135.395 -392.96 122.451 -398.38 111.841 -409.23 C 101.231 -420.07 95.926 -433.04 95.926 -448.13 C 95.926 -448.74 95.935 -449.34 95.953 -449.95 C 95.935 -450.58 95.926 -451.21 95.926 -451.85 Z" style="stroke-width: 0.05;" transform="matrix(0.70710701, 0.70710701, -0.70710701, 0.70710701, -227.42007094, -550.16088252)"/>
  <path d="M 494.397 -650.35 C 494.397 -665.44 499.773 -678.64 510.525 -689.74 C 521.252 -700.84 534.432 -706.24 550.017 -706.24 C 565.579 -706.24 578.688 -700.54 589.299 -689.44 C 599.908 -678.14 605.214 -664.94 605.214 -649.45 C 605.214 -649.11 605.211 -648.76 605.206 -648.42 C 605.211 -648.06 605.214 -647.71 605.214 -647.35 C 605.214 -632.26 599.838 -619.3 589.086 -608.45 C 578.335 -597.6 565.179 -592.18 549.593 -592.18 C 534.009 -592.18 520.922 -597.6 510.312 -608.68 C 499.701 -619.77 494.397 -632.96 494.397 -648.3 C 494.397 -648.64 494.4 -648.98 494.405 -649.31 C 494.4 -649.66 494.397 -650 494.397 -650.35 Z" style="stroke-width: 0.05;" transform="matrix(0.70710701, 0.70710701, -0.70710701, 0.70710701, -227.42007094, -550.16088252)"/>
  <path d="M 549.593 3.469 C 534.009 3.469 520.922 -1.951 510.312 -13.031 C 499.701 -24.111 494.397 -37.311 494.397 -52.651 C 494.397 -67.731 499.773 -80.941 510.525 -92.021 C 521.252 -103.09 534.432 -108.54 550.017 -108.54 C 565.579 -108.54 578.688 -102.86 589.299 -91.781 C 599.908 -80.461 605.214 -67.251 605.214 -51.701 C 605.214 -36.601 599.838 -23.651 589.086 -12.801 C 578.335 -1.951 565.179 3.469 549.593 3.469 Z" style="stroke-width: 0.05;" transform="matrix(0.70710701, 0.70710701, -0.70710701, 0.70710701, -227.42007094, -550.16088252)"/>
  <path d="M 549.593 -195.77 C 534.009 -195.77 520.922 -201.19 510.312 -211.81 C 499.701 -222.65 494.397 -235.84 494.397 -251.41 C 494.397 -266.95 499.773 -279.95 510.525 -290.55 C 521.252 -301.16 534.432 -306.58 550.017 -306.58 C 565.579 -306.58 578.688 -301.16 589.299 -290.32 C 599.908 -279.7 605.214 -266.49 605.214 -250.94 C 605.214 -235.36 599.838 -222.18 589.086 -211.56 C 578.335 -200.95 565.179 -195.77 549.593 -195.77 Z" style="stroke-width: 0.05;" transform="matrix(0.70710701, 0.70710701, -0.70710701, 0.70710701, -227.42007094, -550.16088252)"/>
</svg>