<?xml version="1.0" encoding="utf-8"?>
<svg xmlns="http://www.w3.org/2000/svg" height="48" viewBox="0 -960 960 960" width="48">
  <path d="M 581.089 -610.77 L 317.608 -610.77 C 278.056 -610.77 244.514 -596.75 216.979 -568.58 C 189.426 -540.38 175.659 -506.15 175.659 -465.88 C 175.659 -425.65 189.426 -391.61 216.979 -363.43 C 244.514 -335.21 278.056 -321.04 317.608 -321.04 L 566.951 -321.04 C 577.672 -353.5 595.839 -379.83 621.456 -400.04 C 649.079 -421.81 680.924 -432.69 716.99 -432.69 C 760.591 -432.69 797.948 -417.14 829.06 -386.04 C 860.177 -354.94 875.735 -317.55 875.735 -273.87 C 875.735 -230.19 860.177 -192.96 829.06 -162.13 C 797.948 -131.31 760.591 -115.91 716.99 -115.91 C 680.924 -115.91 649.079 -126.67 621.456 -148.22 C 595.429 -168.51 577.091 -195.46 566.441 -229.06 L 350.153 -229.06 C 347.252 -229.06 344.457 -229.25 341.77 -229.66 L 318.581 -229.66 C 253.75 -229.66 198.507 -252.59 152.815 -298.67 C 107.116 -344.75 84.266 -400.56 84.266 -465.88 C 84.266 -530.84 107.116 -586.25 152.815 -632.75 C 198.507 -679.02 253.75 -702.13 318.581 -702.13 L 581.089 -702.13 L 516.92 -766.34 C 507.839 -775.47 503.307 -785.93 503.307 -798.01 C 503.307 -809.88 507.839 -820.77 516.92 -830.47 C 525.981 -839.66 536.676 -844.1 549.004 -844.1 C 561.313 -844.1 572.008 -839.66 581.089 -830.47 L 723.037 -689.5 C 727.568 -685.07 731.126 -679.79 733.733 -673.98 C 736.319 -668.14 737.622 -662.3 737.622 -656.49 C 737.622 -650.65 736.319 -644.82 733.733 -639 C 731.126 -633.13 727.568 -628.09 723.037 -623.41 L 581.089 -483.4 C 572.008 -473.69 561.313 -468.81 549.004 -468.81 C 536.676 -468.81 525.981 -473.69 516.92 -483.4 C 507.839 -492.56 503.307 -503.04 503.307 -515.11 C 503.307 -526.96 507.839 -537.85 516.92 -547.57 L 581.089 -610.77 Z M 716.864 -181.94 C 742.704 -181.94 764.52 -190.78 782.315 -208.5 C 800.109 -226.22 809.006 -247.99 809.006 -273.82 C 809.006 -299.65 800.151 -321.48 782.441 -339.27 C 764.726 -357.06 742.951 -365.96 717.117 -365.96 C 691.277 -365.96 669.46 -357.11 651.666 -339.39 C 633.872 -321.69 624.975 -299.9 624.975 -274.07 C 624.975 -248.24 633.83 -226.41 651.54 -208.63 C 669.255 -190.82 691.029 -181.94 716.864 -181.94 Z" style="stroke-width: 0.05;"/>
</svg>