<?xml version="1.0" encoding="utf-8"?>
<svg xmlns="http://www.w3.org/2000/svg" height="48" viewBox="0 -960 960 960" width="48">
  <path d="M 189 -95 C 162.967 -95 140.79 -104.157 122.47 -122.47 C 104.157 -140.79 95 -162.967 95 -189 L 95 -305 C 95 -318.167 99.56 -329.293 108.68 -338.38 C 117.793 -347.46 128.96 -352 142.18 -352 C 155.393 -352 166.5 -347.46 175.5 -338.38 C 184.5 -329.293 189 -318.167 189 -305 L 189 -189 L 305 -189 C 318.167 -189 329.293 -184.44 338.38 -175.32 C 347.46 -166.207 352 -155.04 352 -141.82 C 352 -128.607 347.46 -117.5 338.38 -108.5 C 329.293 -99.5 318.167 -95 305 -95 L 189 -95 Z M 528 -264 C 501.2 -264 478.66 -273.2 460.4 -291.4 C 442.14 -309.8 433 -332.2 433 -359 L 433 -602 C 433 -628.8 442.14 -651.4 460.4 -669.6 C 478.66 -688 501.2 -697 528 -697 L 771 -697 L 771 -771 L 655 -771 C 641.833 -771 630.71 -775.56 621.63 -784.68 C 612.543 -793.793 608 -804.93 608 -818.09 C 608 -831.243 612.543 -842.517 621.63 -851.91 C 630.71 -861.303 641.833 -866 655 -866 L 771 -866 C 797.307 -866 819.717 -856.743 838.23 -838.23 C 856.743 -819.717 866 -797.307 866 -771 L 866 -189 C 866 -162.967 856.743 -140.79 838.23 -122.47 C 819.717 -104.157 797.307 -95 771 -95 L 655 -95 C 641.833 -95 630.71 -99.56 621.63 -108.68 C 612.543 -117.793 608 -128.96 608 -142.18 C 608 -155.393 612.543 -166.5 621.63 -175.5 C 630.71 -184.5 641.833 -189 655 -189 L 771 -189 L 771 -264 L 528 -264 Z M 479.82 -95 C 466.6 -95 455.5 -99.6 446.5 -108.8 C 437.5 -118.2 433 -129.2 433 -142 C 433 -154.6 437.56 -165.8 446.68 -175 C 455.8 -184.4 466.96 -189 480.18 -189 C 493.4 -189 504.5 -184.4 513.5 -175 C 522.5 -165.6 527 -154.4 527 -141.4 C 527 -128.6 522.44 -117.6 513.32 -108.6 C 504.2 -99.6 493.04 -95 479.82 -95 Z M 303.82 -433 C 290.98 -433 279.96 -437.6 270.78 -446.8 C 261.6 -455.8 257 -467 257 -480.2 C 257 -493.4 261.68 -504.6 271.06 -513.6 C 280.44 -522.6 291.6 -527 304.56 -527 C 317.52 -527 328.66 -522.4 338 -513.4 C 347.34 -504.2 352 -493 352 -479.8 C 352 -466.6 347.26 -455.6 337.76 -446.6 C 328.26 -437.6 316.96 -433 303.82 -433 Z M 141.44 -433 C 128.48 -433 117.5 -437.6 108.5 -446.8 C 99.5 -455.8 95 -467 95 -480.2 C 95 -493.4 99.62 -504.6 108.86 -513.6 C 118.1 -522.6 129.1 -527 141.86 -527 C 154.62 -527 165.66 -522.4 175 -513.4 C 184.34 -504.2 189 -493 189 -479.8 C 189 -466.6 184.32 -455.6 174.94 -446.6 C 165.56 -437.6 154.4 -433 141.44 -433 Z M 479.82 -771 C 466.6 -771 455.5 -775.8 446.5 -785.2 C 437.5 -794.4 433 -805.6 433 -818.6 C 433 -831.6 437.56 -842.8 446.68 -852 C 455.8 -861.4 466.96 -866 480.18 -866 C 493.4 -866 504.5 -861.2 513.5 -851.8 C 522.5 -842.4 527 -831 527 -817.8 C 527 -805 522.44 -794 513.32 -784.8 C 504.2 -775.6 493.04 -771 479.82 -771 Z M 95 -655 L 95 -771 C 95 -797.307 104.157 -819.717 122.47 -838.23 C 140.79 -856.743 162.967 -866 189 -866 L 305 -866 C 318.167 -866 329.293 -861.247 338.38 -851.74 C 347.46 -842.227 352 -830.893 352 -817.74 C 352 -804.58 347.46 -793.5 338.38 -784.5 C 329.293 -775.5 318.167 -771 305 -771 L 189 -771 L 189 -655 C 189 -641.833 184.44 -630.71 175.32 -621.63 C 166.207 -612.543 155.04 -608 141.82 -608 C 128.607 -608 117.5 -612.543 108.5 -621.63 C 99.5 -630.71 95 -641.833 95 -655 Z M 303.82 -608 C 290.98 -608 279.96 -612.59 270.781 -621.79 C 261.6 -630.79 257 -641.99 257 -655.19 C 257 -668.39 261.68 -679.59 271.06 -688.6 C 280.44 -697.59 291.6 -701.99 304.56 -701.99 C 317.519 -701.99 328.66 -697.39 338 -688.39 C 347.339 -679.19 352 -667.99 352 -654.79 C 352 -641.59 347.259 -630.6 337.759 -621.59 C 328.26 -612.59 316.959 -608 303.82 -608 Z M 303.82 -258 C 290.98 -258 279.961 -262.6 270.78 -271.8 C 261.6 -280.81 257 -292 257 -305.2 C 257 -318.4 261.68 -329.6 271.06 -338.61 C 280.44 -347.6 291.599 -352 304.56 -352 C 317.52 -352 328.66 -347.4 337.999 -338.4 C 347.34 -329.2 352 -318 352 -304.8 C 352 -291.6 347.26 -280.59 337.76 -271.6 C 328.26 -262.6 316.96 -258 303.82 -258 Z"/>
</svg>