<?xml version="1.0" encoding="utf-8"?>
<svg xmlns="http://www.w3.org/2000/svg" height="48" viewBox="0 -960 960 960" width="48">
  <path d="M 95.002 -772 C 95.002 -798.03 104.158 -820.21 122.468 -838.53 C 140.788 -856.85 162.968 -866 188.998 -866 L 304.998 -866 C 318.168 -866 329.288 -861.44 338.378 -852.32 C 347.458 -843.21 351.998 -832.04 351.998 -818.82 C 351.998 -805.61 347.458 -794.5 338.378 -785.5 C 329.288 -776.5 318.168 -772 304.998 -772 L 188.998 -772 L 188.998 -656 C 188.998 -642.84 184.438 -631.71 175.318 -622.62 C 166.208 -613.54 155.038 -609 141.818 -609 C 128.608 -609 117.498 -613.54 108.498 -622.62 C 99.498 -631.71 95.002 -642.84 95.002 -656 L 95.002 -772 Z M 188.998 -190 L 263.819 -190 L 263.819 -432.5 C 263.819 -459.27 272.977 -481.77 291.187 -500.02 C 309.537 -518.26 331.907 -527.37 358.677 -527.37 L 601.317 -527.37 C 628.077 -527.37 650.647 -518.26 668.807 -500.02 C 687.187 -481.77 696.177 -459.27 696.177 -432.5 L 696.177 -190 L 770.998 -190 L 770.998 -306 C 770.998 -319.17 775.558 -330.29 784.678 -339.37 C 793.788 -348.46 804.928 -353 818.088 -353 C 831.238 -353 842.518 -348.46 851.908 -339.37 C 861.298 -330.29 865.998 -319.17 865.998 -306 L 865.998 -190 C 865.998 -163.69 856.738 -141.28 838.228 -122.77 C 819.718 -104.26 797.308 -95.002 770.998 -95.002 L 602.285 -95.002 C 601.963 -94.999 601.64 -94.998 601.317 -94.998 L 358.677 -94.998 C 358.353 -94.998 358.031 -94.999 357.708 -95.002 L 188.998 -95.002 C 162.968 -95.002 140.788 -104.26 122.468 -122.77 C 104.158 -141.28 95.002 -163.69 95.002 -190 L 95.002 -306 C 95.002 -319.17 99.558 -330.29 108.678 -339.37 C 117.788 -348.46 128.958 -353 142.178 -353 C 155.388 -353 166.498 -348.46 175.498 -339.37 C 184.498 -330.29 188.998 -319.17 188.998 -306 L 188.998 -190 Z M 95.002 -481.18 C 95.002 -494.4 99.598 -505.5 108.798 -514.5 C 118.198 -523.5 129.198 -528 141.998 -528 C 154.598 -528 165.798 -523.44 174.998 -514.32 C 184.398 -505.2 188.998 -494.04 188.998 -480.82 C 188.998 -467.6 184.398 -456.5 174.998 -447.5 C 165.598 -438.5 154.398 -434 141.398 -434 C 128.598 -434 117.598 -438.56 108.598 -447.68 C 99.598 -456.8 95.002 -467.96 95.002 -481.18 Z M 432.998 -657.18 C 432.998 -670.02 437.598 -681.04 446.798 -690.22 C 455.798 -699.4 466.998 -704 480.198 -704 C 493.398 -704 504.598 -699.32 513.598 -689.94 C 522.598 -680.56 526.998 -669.4 526.998 -656.44 C 526.998 -643.48 522.398 -632.34 513.398 -623 C 504.198 -613.66 492.998 -609 479.798 -609 C 466.598 -609 455.598 -613.74 446.598 -623.24 C 437.598 -632.74 432.998 -644.04 432.998 -657.18 Z M 432.998 -819.56 C 432.998 -832.52 437.598 -843.5 446.798 -852.5 C 455.798 -861.5 466.998 -866 480.198 -866 C 493.398 -866 504.598 -861.38 513.598 -852.14 C 522.598 -842.9 526.998 -831.9 526.998 -819.14 C 526.998 -806.38 522.398 -795.34 513.398 -786 C 504.198 -776.66 492.998 -772 479.798 -772 C 466.598 -772 455.598 -776.68 446.598 -786.06 C 437.598 -795.44 432.998 -806.6 432.998 -819.56 Z M 770.998 -481.18 C 770.998 -494.4 775.798 -505.5 785.198 -514.5 C 794.398 -523.5 805.598 -528 818.598 -528 C 831.598 -528 842.798 -523.44 851.998 -514.32 C 861.398 -505.2 865.998 -494.04 865.998 -480.82 C 865.998 -467.6 861.198 -456.5 851.798 -447.5 C 842.398 -438.5 830.998 -434 817.798 -434 C 804.998 -434 793.998 -438.56 784.798 -447.68 C 775.598 -456.8 770.998 -467.96 770.998 -481.18 Z M 654.998 -866 L 770.998 -866 C 797.308 -866 819.718 -856.85 838.228 -838.53 C 856.738 -820.21 865.998 -798.03 865.998 -772 L 865.998 -656 C 865.998 -642.84 861.248 -631.71 851.738 -622.62 C 842.228 -613.54 830.888 -609 817.738 -609 C 804.578 -609 793.498 -613.54 784.498 -622.62 C 775.498 -631.71 770.998 -642.84 770.998 -656 L 770.998 -772 L 654.998 -772 C 641.828 -772 630.708 -776.56 621.628 -785.68 C 612.538 -794.79 607.998 -805.96 607.998 -819.18 C 607.998 -832.39 612.538 -843.5 621.628 -852.5 C 630.708 -861.5 641.828 -866 654.998 -866 Z M 607.998 -657.18 C 607.998 -670.02 612.588 -681.04 621.788 -690.22 C 630.788 -699.4 641.988 -704 655.188 -704 C 668.388 -704 679.588 -699.32 688.598 -689.94 C 697.588 -680.56 701.988 -669.4 701.988 -656.44 C 701.988 -643.48 697.388 -632.34 688.388 -623 C 679.188 -613.66 667.988 -609 654.788 -609 C 641.588 -609 630.598 -613.74 621.588 -623.24 C 612.588 -632.74 607.998 -644.04 607.998 -657.18 Z M 257.998 -657.18 C 257.998 -670.02 262.598 -681.04 271.798 -690.22 C 280.808 -699.4 291.998 -704 305.198 -704 C 318.398 -704 329.598 -699.32 338.608 -689.94 C 347.598 -680.56 351.998 -669.4 351.998 -656.44 C 351.998 -643.48 347.398 -632.34 338.398 -623 C 329.198 -613.66 317.998 -609 304.798 -609 C 291.598 -609 280.588 -613.74 271.598 -623.24 C 262.598 -632.74 257.998 -644.04 257.998 -657.18 Z M 358.677 -432.5 L 358.677 -190 L 601.317 -190 L 601.317 -432.5 L 358.677 -432.5 Z" style=""/>
</svg>