<?xml version="1.0" encoding="utf-8"?>
<svg xmlns="http://www.w3.org/2000/svg" height="48" viewBox="0 -960 960 960" width="48">
  <path d="M 189 -95 C 162.313 -95 139.977 -103.837 121.99 -121.51 C 103.997 -139.183 95 -161.68 95 -189 L 95 -771 C 95 -798.313 103.837 -820.977 121.51 -838.99 C 139.183 -856.997 161.68 -866 189 -866 L 363 -866 C 370.333 -890 384.737 -909.833 406.21 -925.5 C 427.677 -941.167 452.273 -949 480 -949 C 506.667 -949 530.833 -941.167 552.5 -925.5 C 574.167 -909.833 589.333 -890 598 -866 L 771 -866 C 798.313 -866 820.977 -856.997 838.99 -838.99 C 856.997 -820.977 866 -798.313 866 -771 L 866 -507.18 C 866 -494.013 861.247 -482.89 851.74 -473.81 C 842.227 -464.723 830.893 -460.18 817.74 -460.18 C 804.58 -460.18 793.5 -464.723 784.5 -473.81 C 775.5 -482.89 771 -494.013 771 -507.18 L 771 -771 L 716 -771 L 716 -716 C 716 -702.833 711.46 -691.71 702.38 -682.63 C 693.293 -673.543 682.167 -669 669 -669 L 291 -669 C 277.833 -669 266.71 -673.543 257.63 -682.63 C 248.543 -691.71 244 -702.833 244 -716 L 244 -771 L 189 -771 L 189 -189 L 463.808 -189 C 476.975 -189 488.101 -184.44 497.188 -175.32 C 506.268 -166.207 510.808 -155.04 510.808 -141.82 C 510.808 -128.607 506.268 -117.5 497.188 -108.5 C 488.101 -99.5 476.975 -95 463.808 -95 Z M 480 -782 C 491.333 -782 500.833 -786 508.5 -794 C 516.167 -802 520 -811.333 520 -822 C 520 -833.333 516.167 -842.833 508.5 -850.5 C 500.833 -858.167 491.333 -862 480 -862 C 468.667 -862 459.167 -858.167 451.5 -850.5 C 443.833 -842.833 440 -833.333 440 -822 C 440 -811.333 443.833 -802 451.5 -794 C 459.167 -786 468.667 -782 480 -782 Z M 632.829 -128.9 L 595.223 -212.65 L 511.463 -250.6 C 494.369 -258.46 485.822 -271.46 485.822 -289.58 C 485.822 -308.03 494.369 -321.03 511.463 -329.23 L 595.223 -364.79 L 632.829 -450.25 C 639.667 -466.32 652.214 -474.53 670.436 -474.53 C 688.658 -474.53 701.786 -466.32 709.751 -450.25 L 747.358 -364.79 L 831.118 -329.23 C 848.213 -321.03 856.759 -308.03 856.759 -289.58 C 856.759 -271.46 848.213 -258.46 831.118 -250.6 L 747.358 -212.65 L 709.751 -128.9 C 701.786 -111.8 688.658 -103.25 670.436 -103.25 C 652.214 -103.25 639.667 -111.8 632.829 -128.9 Z"/>
</svg>