<?xml version="1.0" encoding="utf-8"?>
<svg viewBox="0 0 22 22" xmlns="http://www.w3.org/2000/svg">
  <path d="M 11.516 4.498 C 11.516 4.498 17.839 4.498 21 4.498 C 21.276 4.498 21.5 4.722 21.5 4.998 L 21.5 6.998 C 21.5 7.274 21.276 7.498 21 7.498 L 20 7.498 C 19.724 7.498 19.5 7.274 19.5 6.998 L 19.5 6.498 L 12.386 6.498 C 12.356 6.551 12.322 6.612 12.283 6.679 C 12.126 6.953 11.9 7.345 11.63 7.814 C 11.089 8.752 10.367 10.002 9.645 11.252 C 8.201 13.751 6.755 16.248 6.755 16.248 C 6.665 16.403 6.501 16.498 6.322 16.498 C 6.144 16.498 5.979 16.403 5.89 16.249 L 3.128 11.498 L 1 11.498 C 0.724 11.498 0.5 11.274 0.5 10.998 L 0.5 9.998 C 0.5 9.735 0.704 9.517 0.966 9.499 C 1.024 9.495 1.081 9.501 1.134 9.516 C 1.141 9.517 1.149 9.517 1.159 9.518 C 1.234 9.522 1.34 9.524 1.478 9.526 C 1.756 9.529 2.125 9.527 2.498 9.523 C 3.244 9.515 4 9.498 4 9.498 L 4.004 9.498 C 4.183 9.498 4.348 9.593 4.437 9.748 L 6.32 13.004 L 11.062 4.789 C 11.141 4.617 11.315 4.498 11.516 4.498 Z M 18.205 9.291 L 18.205 9.002 C 18.205 8.726 18.429 8.502 18.705 8.502 L 19.705 8.502 C 19.981 8.502 20.205 8.726 20.205 9.002 L 20.205 17.002 C 20.205 17.278 19.981 17.502 19.705 17.502 L 18.705 17.502 C 18.429 17.502 18.205 17.278 18.205 17.002 L 18.205 16.713 C 17.463 17.199 16.958 17.502 15.705 17.502 C 14.498 17.502 13.31 16.971 12.523 16.184 C 11.736 15.397 11.205 14.209 11.205 13.002 C 11.205 11.795 11.736 10.607 12.523 9.82 C 13.31 9.033 14.499 8.524 15.706 8.502 C 16.958 8.526 17.463 8.806 18.205 9.291 Z M 13.937 11.234 C 13.457 11.714 13.205 12.276 13.205 13.002 C 13.205 13.728 13.457 14.29 13.937 14.77 C 14.417 15.25 14.979 15.502 15.705 15.502 C 16.431 15.502 16.993 15.25 17.473 14.77 C 17.953 14.29 18.205 13.728 18.205 13.002 C 18.205 12.276 17.953 11.714 17.473 11.234 C 16.993 10.754 16.431 10.502 15.705 10.502 C 14.979 10.502 14.417 10.754 13.937 11.234 Z"/>
</svg>