<?xml version="1.0" encoding="utf-8"?>
<svg xmlns="http://www.w3.org/2000/svg" height="48" viewBox="0 -960 960 960" width="48">
  <path d="M 220 -650 C 194.667 -659.333 174.167 -675.023 158.5 -697.07 C 142.833 -719.117 135 -744.427 135 -773 C 135 -773.168 135 -773.336 135.001 -773.505 C 135 -773.67 135 -773.835 135 -774 C 135 -800.857 141.922 -824.82 155.765 -845.797 C 160.663 -853.313 166.428 -860.451 173.06 -867.21 C 198.433 -893.07 229.6 -906 266.56 -906 C 266.654 -906 266.747 -906 266.84 -906 C 266.933 -906 267.025 -906 267.118 -906 C 304.079 -906 335.479 -892.988 361.278 -867.402 C 387.079 -841.79 400 -810.58 400 -774 C 400 -773.834 400 -773.669 399.999 -773.503 C 400 -773.336 400 -773.168 400 -773 C 400 -744.06 391.833 -718.66 375.5 -696.8 C 359.167 -674.933 338.667 -659.333 314 -650 L 314 -642 C 316 -609.41 329.039 -582 353.159 -559.59 C 363.859 -549.649 375.383 -541.917 387.731 -536.39 C 402.767 -530.13 419.19 -527 437 -527 L 523 -527 C 582.48 -527 633.183 -506.92 675.11 -466.76 C 717.037 -426.593 738.667 -377.34 740 -319 L 740 -311.823 L 740.996 -309.99 C 766.316 -300.59 786.814 -285 802.496 -262.8 C 818.102 -240.863 825.943 -215.558 825.995 -187.271 C 825.998 -186.848 826 -186.424 826 -186 C 826 -159.85 819.468 -136.498 806.403 -115.944 C 801.26 -107.73 795.104 -99.951 787.937 -92.6 C 762.555 -66.8 731.395 -54 694.436 -54 C 694.343 -54 694.25 -54 694.157 -54 C 694.065 -54 693.972 -54 693.88 -54 C 656.907 -54 625.517 -66.833 599.71 -92.5 C 573.903 -118.167 561 -149.333 561 -186 C 561 -186.006 561 -186.012 561 -186.017 C 560.998 -186.341 560.997 -186.665 560.997 -186.99 C 560.997 -215.8 569.157 -241.19 585.498 -263.2 C 601.817 -285 622.316 -300.59 646.998 -309.99 L 646.998 -317.98 C 646.996 -318.033 646.994 -318.086 646.991 -318.139 C 644.963 -350.578 631.909 -377.992 607.83 -400.38 C 597.114 -410.343 585.573 -418.092 573.209 -423.627 C 558.186 -429.875 541.781 -433 523.997 -433 L 437.999 -433 C 378.518 -433 327.799 -453 285.88 -493.21 C 243.959 -533.38 222.32 -582.6 221 -640.99 L 221 -648.16 Z M 695.05 -142 C 707.777 -142 718.283 -146.427 726.57 -155.28 C 734.696 -163.961 738.838 -174.387 738.995 -186.556 C 738.996 -186.701 738.997 -186.845 738.997 -186.99 C 738.997 -199.59 734.557 -210.19 725.715 -219 C 716.855 -227.61 706.156 -232.01 693.637 -232.01 C 681.116 -232.01 670.537 -227.39 661.916 -218.59 C 653.297 -209.79 648.997 -199.21 648.997 -186.6 C 648.997 -176.863 651.648 -168.112 656.951 -160.436 C 658.441 -158.544 660.118 -156.732 661.98 -155 C 671.3 -146.333 682.323 -142 695.05 -142 Z M 267.35 -728 C 279.877 -728 290.45 -732.427 299.07 -741.28 C 307.69 -750.133 312 -760.8 312 -773.28 C 312 -783.275 309.24 -792.153 303.72 -799.916 C 302.313 -801.674 300.747 -803.368 299.02 -805 C 289.701 -813.59 278.66 -817.99 265.94 -817.99 C 253.22 -817.99 242.701 -813.59 234.42 -804.59 C 226.158 -795.809 222.019 -785.236 222.001 -772.681 C 222.079 -760.15 226.506 -749.59 235.28 -741 C 244.133 -732.333 254.823 -728 267.35 -728 Z"/>
</svg>