<?xml version="1.0" encoding="utf-8"?>
<svg xmlns="http://www.w3.org/2000/svg" height="48" viewBox="0 -960 960 960" width="48">
  <path d="M 309.94 -143.38 C 280.51 -143.38 255.85 -153.35 235.963 -173.29 C 216.075 -193.23 206.131 -217.69 206.131 -246.66 C 206.131 -266.7 210.707 -284.79 219.857 -300.9 C 229.008 -317.04 241.862 -329.62 258.421 -338.67 L 258.421 -623.14 C 241.862 -631.87 229.008 -644.07 219.857 -659.75 C 210.707 -675.43 206.131 -692.49 206.131 -710.89 C 206.131 -740.74 216.115 -765.8 236.08 -786.13 C 256.038 -806.46 280.736 -816.62 310.175 -816.62 C 339.605 -816.62 364.265 -806.34 384.152 -785.77 C 404.039 -765.22 413.984 -740.5 413.984 -711.62 C 413.984 -693.13 409.19 -675.86 399.604 -659.79 C 390.018 -643.75 377.381 -631.53 361.694 -623.14 L 361.694 -493.73 L 596.998 -552.55 L 596.998 -623.14 C 581.311 -631.53 568.674 -643.75 559.088 -659.79 C 549.502 -675.86 544.708 -692.92 544.708 -711.01 C 544.708 -740.4 554.692 -765.36 574.657 -785.86 C 594.615 -806.37 619.313 -816.62 648.752 -816.62 C 678.182 -816.62 703.059 -806.34 723.383 -785.77 C 743.707 -765.22 753.868 -740.5 753.868 -711.62 C 753.868 -693.13 749.074 -675.86 739.488 -659.79 C 729.902 -643.75 717.265 -631.53 701.578 -623.14 L 701.578 -565.63 C 701.578 -538.88 694.092 -514.13 679.12 -491.32 C 664.148 -468.52 643.745 -454.51 617.914 -449.29 L 361.694 -388.08 L 361.694 -338.17 C 377.381 -329.86 390.018 -317.55 399.604 -301.2 C 409.19 -284.88 413.984 -266.9 413.984 -247.25 C 413.984 -217.78 404 -193.1 384.035 -173.22 C 364.077 -153.33 339.379 -143.38 309.94 -143.38 Z M 624.618 -242.61 C 613.412 -242.61 603.755 -246.72 595.647 -254.71 C 587.539 -262.94 583.473 -272.62 583.473 -283.99 C 583.473 -295.61 587.539 -305.54 595.647 -313.76 C 603.755 -321.99 613.412 -326.11 624.618 -326.11 L 682.705 -326.11 L 682.705 -382.98 C 682.705 -394.6 686.553 -404.53 694.201 -413 C 701.873 -421.22 711.676 -425.34 723.632 -425.34 C 735.249 -425.34 745.245 -421.22 753.643 -413 C 762.018 -404.53 766.205 -394.6 766.205 -382.98 L 766.205 -326.11 L 823.081 -326.11 C 834.312 -326.11 843.969 -321.99 852.076 -313.76 C 860.184 -305.54 864.226 -295.61 864.226 -283.99 C 864.226 -272.86 860.184 -262.94 852.076 -254.95 C 843.969 -246.72 834.312 -242.61 823.081 -242.61 L 766.205 -242.61 L 766.205 -185.73 C 766.205 -174.36 762.187 -164.43 754.103 -155.96 C 746.044 -147.73 736.024 -143.38 724.068 -143.38 C 712.111 -143.38 702.237 -147.73 694.419 -155.96 C 686.626 -164.43 682.705 -174.36 682.705 -185.73 L 682.705 -242.61 Z" style=""/>
</svg>