<?xml version="1.0" encoding="utf-8"?>
<svg viewBox="0 0 22 22" xmlns="http://www.w3.org/2000/svg">
  <path d="M 12.653 1.783 L 14.877 4.007 L 15.329 4.451 C 15.458 4.577 15.498 4.769 15.43 4.937 C 15.361 5.104 15.198 5.214 15.018 5.214 L 3.89 5.214 C 3.644 5.214 3.445 5.014 3.445 4.769 L 3.445 3.878 C 3.445 3.633 3.644 3.433 3.89 3.433 L 11.785 3.433 L 11.097 2.745 L 10.771 2.408 C 10.646 2.279 10.61 2.089 10.681 1.924 C 10.75 1.76 10.911 1.653 11.09 1.653 L 12.338 1.653 C 12.457 1.653 12.57 1.7 12.653 1.783 Z M 12.347 7.439 L 12.347 8.329 C 12.347 8.575 12.148 8.774 11.902 8.774 L 5.225 8.774 L 5.225 12.335 L 10.122 12.335 C 10.367 12.335 10.567 12.535 10.567 12.78 L 10.567 13.671 C 10.567 13.916 10.367 14.116 10.122 14.116 L 5.225 14.116 L 5.225 19.902 C 5.225 20.148 5.026 20.347 4.78 20.347 L 3.89 20.347 C 3.644 20.347 3.445 20.148 3.445 19.902 L 3.445 7.439 C 3.445 7.193 3.644 6.994 3.89 6.994 L 11.902 6.994 C 12.148 6.994 12.347 7.193 12.347 7.439 Z M 18.425 14.9 L 17.797 15.528 C 17.623 15.701 17.341 15.701 17.168 15.528 C 16.822 15.159 16.413 15.006 15.908 15.006 C 15.385 15.006 14.996 15.18 14.649 15.528 C 14.302 15.874 14.128 16.263 14.128 16.786 C 14.128 17.31 14.302 17.699 14.649 18.045 C 14.996 18.392 15.385 18.567 15.908 18.567 C 16.413 18.567 16.822 18.414 17.168 18.045 C 17.341 17.872 17.623 17.872 17.797 18.045 L 18.425 18.673 C 18.598 18.847 18.598 19.129 18.425 19.303 C 17.769 19.935 16.82 20.329 15.908 20.347 C 14.956 20.328 14.01 19.924 13.39 19.304 C 12.77 18.684 12.347 17.738 12.347 16.786 C 12.347 15.835 12.77 14.888 13.39 14.269 C 14.01 13.648 14.957 13.245 15.909 13.226 C 16.82 13.243 17.769 13.638 18.425 14.27 C 18.598 14.444 18.598 14.726 18.425 14.9 Z"/>
</svg>