<?xml version="1.0" encoding="utf-8"?>
<svg xmlns="http://www.w3.org/2000/svg" height="48" viewBox="0 -960 960 960" width="48">
  <path d="M 417.754 -59.952 C 404.998 -61.3 395.123 -67.566 388.11 -78.755 C 381.097 -89.945 379.317 -101.97 382.759 -114.81 C 386.138 -127.42 393.524 -136.94 404.909 -143.38 C 416.292 -149.82 428.776 -152.59 442.342 -151.72 C 461.422 -149.22 480.153 -148.3 498.536 -148.96 C 499.696 -149.61 500.928 -150 502.229 -150.1 C 525.309 -151.8 547.964 -155.82 570.196 -162.14 C 650.462 -184.96 713.055 -230.83 757.975 -299.74 C 769.39 -317.25 778.975 -335.14 786.727 -353.4 C 792.024 -366.61 796.588 -380.36 800.418 -394.65 C 805.131 -412.24 808.41 -430.07 810.253 -448.13 C 812.309 -472.78 811.443 -498.03 807.656 -523.87 C 806.576 -537.42 809.165 -549.94 815.422 -561.42 C 821.688 -572.91 831.097 -580.44 843.653 -584.01 C 856.445 -587.64 868.492 -586.04 879.783 -579.2 C 891.078 -572.36 897.497 -562.57 899.035 -549.85 C 913.817 -464.33 903.937 -383.36 869.395 -306.96 C 846.631 -253.93 814.473 -208.13 772.922 -169.56 C 745.726 -143.63 715.228 -121.89 681.43 -104.31 C 599.588 -59.968 511.696 -45.182 417.754 -59.952 Z M 149.792 -497.21 C 149.716 -495.91 149.348 -494.68 148.721 -493.51 C 148.338 -475.12 149.543 -456.4 152.333 -437.36 C 153.416 -423.8 150.827 -411.28 144.567 -399.8 C 138.304 -388.31 128.892 -380.79 116.333 -377.22 C 103.54 -373.58 91.504 -375.18 80.202 -382.02 C 68.913 -388.86 62.491 -398.64 60.951 -411.38 C 44.78 -504.98 58.182 -593 101.165 -675.44 C 118.244 -709.6 139.564 -740.5 165.127 -768.16 C 203.104 -810.33 248.464 -843.21 301.209 -866.78 C 377.036 -902.43 457.786 -913.52 543.468 -900.04 C 556.224 -898.7 566.099 -892.43 573.112 -881.24 C 580.125 -870.05 581.905 -858.03 578.463 -845.19 C 575.084 -832.58 567.698 -823.06 556.313 -816.62 C 544.93 -810.18 532.446 -807.41 518.88 -808.28 C 492.947 -811.68 467.659 -812.16 443.015 -809.72 C 425.012 -807.6 407.272 -804.06 389.793 -799.09 C 375.609 -795.05 361.976 -790.3 348.895 -784.83 C 330.703 -776.79 312.915 -766.91 295.531 -755.2 C 227.311 -709.24 182.402 -645.96 160.804 -565.35 C 154.822 -543.02 151.148 -520.31 149.792 -497.21 Z M 479.968 -327.63 C 437.981 -327.63 402.178 -342.47 372.558 -372.15 C 342.938 -401.83 328.128 -437.66 328.128 -479.65 C 328.128 -521.64 342.968 -557.63 372.648 -587.63 C 402.328 -617.63 438.161 -632.63 480.148 -632.63 C 522.134 -632.63 558.128 -617.6 588.128 -587.54 C 618.128 -557.48 633.128 -521.46 633.128 -479.47 C 633.128 -437.48 618.098 -401.68 588.039 -372.06 C 557.978 -342.44 521.954 -327.63 479.968 -327.63 Z M 106.314 -166.35 C 94.45 -166.35 84.214 -170.52 75.61 -179.24 C 67.005 -187.95 62.684 -198.19 62.684 -209.94 C 62.684 -222.45 67.005 -233.07 75.61 -241.78 C 84.214 -250.5 94.45 -254.67 106.314 -254.67 L 167.951 -254.67 L 167.95 -314.94 C 167.95 -327.45 172.006 -338.07 180.118 -346.78 C 188.268 -355.88 198.654 -360.05 211.353 -360.05 C 223.672 -360.05 234.287 -355.88 243.194 -346.78 C 252.064 -338.07 256.5 -327.45 256.5 -314.94 L 256.5 -254.67 L 316.847 -254.67 C 328.749 -254.67 338.985 -250.5 347.589 -241.78 C 356.194 -233.07 360.477 -222.45 360.477 -209.94 C 360.477 -198.19 356.194 -187.95 347.589 -179.24 C 338.985 -170.52 328.749 -166.35 316.847 -166.35 L 256.5 -166.35 L 256.499 -105.7 C 256.5 -93.553 252.254 -82.941 243.688 -74.227 C 235.12 -65.505 224.507 -60.959 211.808 -60.959 C 199.11 -60.959 188.647 -65.505 180.346 -74.227 C 172.082 -82.941 167.95 -93.553 167.95 -105.7 L 167.95 -166.35 L 106.314 -166.35 Z M 609.504 -715.03 C 600.899 -723.74 596.578 -733.98 596.578 -745.73 C 596.578 -758.24 600.899 -768.86 609.504 -777.57 C 618.108 -786.29 628.344 -790.46 640.208 -790.46 L 850.741 -790.46 C 862.643 -790.46 872.879 -786.29 881.483 -777.57 C 890.088 -768.86 894.371 -758.24 894.371 -745.73 C 894.371 -733.98 890.088 -723.74 881.483 -715.03 C 872.879 -706.31 862.643 -702.14 850.741 -702.14 L 640.208 -702.14 C 628.344 -702.14 618.108 -706.31 609.504 -715.03 Z" style=""/>
</svg>