<?xml version="1.0" encoding="utf-8"?>
<svg viewBox="0 0 22 22" xmlns="http://www.w3.org/2000/svg">
  <path d="M 12.823 1.416 L 15.135 3.73 L 15.605 4.191 C 15.739 4.322 15.781 4.522 15.71 4.696 C 15.638 4.87 15.469 4.984 15.281 4.984 L 3.71 4.984 C 3.455 4.984 3.248 4.777 3.248 4.521 L 3.248 3.595 C 3.248 3.34 3.455 3.133 3.71 3.133 L 11.92 3.133 L 11.205 2.417 L 10.865 2.066 C 10.735 1.933 10.698 1.735 10.771 1.564 C 10.844 1.392 11.011 1.281 11.197 1.281 L 12.495 1.281 C 12.618 1.281 12.736 1.33 12.823 1.416 Z M 12.504 7.298 L 12.504 8.224 C 12.504 8.479 12.297 8.686 12.041 8.686 L 5.099 8.686 L 5.099 12.389 L 10.19 12.389 C 10.446 12.389 10.653 12.596 10.653 12.852 L 10.653 13.778 C 10.653 14.033 10.446 14.24 10.19 14.24 L 5.099 14.24 L 5.099 20.257 C 5.099 20.513 4.892 20.72 4.636 20.72 L 3.71 20.72 C 3.455 20.72 3.248 20.513 3.248 20.257 L 3.248 7.298 C 3.248 7.043 3.455 6.835 3.71 6.835 L 12.041 6.835 C 12.297 6.835 12.504 7.043 12.504 7.298 Z M 17.734 14.892 L 17.082 15.545 C 16.991 15.634 16.845 15.634 16.754 15.545 C 16.358 15.136 15.85 14.935 15.281 14.935 C 14.69 14.935 14.198 15.155 13.808 15.545 C 13.419 15.934 13.198 16.426 13.198 17.017 C 13.198 17.609 13.419 18.1 13.808 18.49 C 14.198 18.88 14.689 19.11 15.281 19.1 C 15.789 19.107 16.223 18.934 16.596 18.629 C 16.969 18.324 17.12 18.081 17.245 17.712 L 15.744 17.712 C 15.616 17.712 15.513 17.608 15.513 17.48 L 15.513 16.555 C 15.513 16.427 15.616 16.323 15.744 16.323 L 18.521 16.323 C 18.649 16.323 18.752 16.427 18.752 16.555 L 18.752 17.48 C 18.752 17.491 18.751 17.502 18.75 17.514 C 18.621 18.352 18.178 19.122 17.568 19.642 C 16.96 20.161 16.128 20.479 15.281 20.489 C 14.339 20.478 13.442 20.088 12.826 19.472 C 12.211 18.857 11.81 17.96 11.81 17.017 C 11.81 16.075 12.211 15.178 12.826 14.563 C 13.442 13.947 14.34 13.556 15.281 13.546 C 16.185 13.556 17.089 13.932 17.734 14.564 C 17.824 14.655 17.824 14.801 17.734 14.892 Z"/>
</svg>