<?xml version="1.0" encoding="utf-8"?>
<svg viewBox="0 0 22 22" xmlns="http://www.w3.org/2000/svg">
  <path d="M 11.321 1.797 L 13.531 4.008 L 13.981 4.449 C 14.126 4.591 14.171 4.807 14.094 4.995 C 14.017 5.183 13.834 5.306 13.631 5.306 L 2.568 5.306 C 2.292 5.306 2.068 5.082 2.068 4.806 L 2.068 3.921 C 2.068 3.645 2.292 3.421 2.568 3.421 L 10.279 3.421 L 9.692 2.834 L 9.367 2.498 C 9.227 2.353 9.187 2.14 9.266 1.955 C 9.344 1.77 9.525 1.65 9.726 1.65 L 10.967 1.65 C 11.1 1.65 11.227 1.703 11.321 1.797 Z M 11.033 7.461 L 11.033 8.346 C 11.033 8.622 10.809 8.846 10.533 8.846 L 3.953 8.846 L 3.953 12.271 L 8.763 12.271 C 9.039 12.271 9.263 12.495 9.263 12.771 L 9.263 13.656 C 9.263 13.932 9.039 14.156 8.763 14.156 L 3.953 14.156 L 3.953 19.851 C 3.953 20.127 3.729 20.351 3.453 20.351 L 2.568 20.351 C 2.292 20.351 2.068 20.127 2.068 19.851 L 2.068 7.461 C 2.068 7.185 2.292 6.961 2.568 6.961 L 10.533 6.961 C 10.809 6.961 11.033 7.185 11.033 7.461 Z M 12.826 14.383 L 13.655 16.869 L 14.484 14.383 C 14.552 14.179 14.743 14.041 14.958 14.041 L 15.892 14.041 C 16.107 14.041 16.298 14.179 16.366 14.383 L 17.195 16.869 L 18.024 14.383 C 18.092 14.179 18.283 14.041 18.498 14.041 L 19.432 14.041 C 19.593 14.041 19.744 14.118 19.838 14.249 C 19.932 14.38 19.957 14.548 19.906 14.7 L 19.859 14.84 L 18.136 20.009 C 18.068 20.213 17.877 20.351 17.662 20.351 L 16.728 20.351 C 16.513 20.351 16.322 20.213 16.254 20.009 L 15.425 17.523 L 14.596 20.009 C 14.528 20.213 14.337 20.351 14.122 20.351 L 13.188 20.351 C 12.973 20.351 12.782 20.213 12.714 20.009 L 10.991 14.84 L 10.944 14.7 C 10.893 14.548 10.918 14.38 11.012 14.249 C 11.106 14.118 11.257 14.041 11.418 14.041 L 12.352 14.041 C 12.567 14.041 12.758 14.179 12.826 14.383 Z"/>
</svg>