<?xml version="1.0" encoding="utf-8"?>
<svg clip-rule="evenodd" fill-rule="evenodd" stroke-linejoin="round" stroke-miterlimit="2" viewBox="0 0 48 48" xmlns="http://www.w3.org/2000/svg">
  <path d="M 34.166 40.657 L 34.215 40.705 C 34.454 40.97 34.64 41.365 34.64 41.714 C 34.64 42.06 34.462 42.449 34.23 42.715 C 33.974 42.961 33.582 43.155 33.227 43.162 C 32.869 43.169 32.465 42.984 32.196 42.743 L 29.765 40.311 C 29.624 40.175 29.482 39.974 29.401 39.803 C 29.333 39.632 29.281 39.405 29.281 39.22 C 29.281 39.033 29.337 38.8 29.405 38.63 C 29.486 38.462 29.609 38.285 29.749 38.15 L 32.196 35.701 C 32.469 35.459 32.878 35.297 33.24 35.286 C 33.601 35.315 33.992 35.491 34.245 35.735 C 34.472 36.002 34.627 36.397 34.643 36.746 C 34.62 37.102 34.46 37.485 34.215 37.74 L 34.166 37.788 L 41.865 37.788 L 41.865 35.776 C 41.884 35.426 42.049 35.032 42.287 34.77 C 42.55 34.535 42.944 34.352 43.294 34.352 C 43.644 34.352 44.038 34.533 44.303 34.767 C 44.544 35.029 44.713 35.425 44.733 35.776 L 44.733 38.116 C 44.715 38.786 44.446 39.446 43.999 39.921 C 43.524 40.369 42.863 40.639 42.193 40.657 Z M 41.18 30.176 L 33.48 30.176 L 33.48 32.19 C 33.46 32.539 33.292 32.936 33.052 33.197 C 32.786 33.432 32.389 33.613 32.036 33.613 C 31.682 33.613 31.285 33.428 31.024 33.191 C 30.792 32.929 30.631 32.535 30.612 32.19 L 30.612 29.848 C 30.63 29.18 30.897 28.519 31.339 28.044 C 31.809 27.598 32.466 27.327 33.13 27.308 L 41.178 27.308 L 41.158 27.286 C 40.894 27.03 40.684 26.625 40.684 26.262 C 40.684 25.906 40.873 25.507 41.116 25.24 C 41.379 24.999 41.769 24.831 42.12 24.804 C 42.477 24.817 42.881 24.982 43.149 25.222 L 45.599 27.673 C 45.728 27.81 45.858 28.003 45.938 28.175 C 46.01 28.352 46.064 28.578 46.064 28.758 C 46.064 28.937 46.008 29.167 45.936 29.343 C 45.856 29.511 45.727 29.7 45.596 29.836 L 43.133 32.301 C 42.854 32.534 42.449 32.711 42.094 32.701 C 41.744 32.691 41.355 32.501 41.096 32.259 C 40.86 31.992 40.698 31.596 40.681 31.241 C 40.705 30.882 40.873 30.491 41.13 30.226 Z M 27.044 5.487 C 27.437 6.624 27.847 7.837 27.847 7.837 C 28.714 8.044 29.564 8.32 30.388 8.663 C 30.388 8.663 31.366 7.97 32.318 7.294 C 33.461 6.483 34.993 6.491 36.127 7.315 C 36.157 7.349 36.193 7.377 36.229 7.403 C 37.29 8.186 37.737 9.554 37.345 10.812 C 36.995 11.962 36.613 13.185 36.613 13.185 C 37.194 13.862 37.718 14.586 38.183 15.347 C 38.183 15.347 39.383 15.36 40.55 15.373 C 41.951 15.389 43.186 16.297 43.618 17.63 C 43.622 17.676 43.636 17.718 43.65 17.761 C 44.048 19.017 43.605 20.388 42.547 21.174 C 41.708 21.808 40.816 22.474 40.606 22.63 C 39.256 23.292 35.837 22.757 35.66 21.578 C 34.539 16.166 29.742 12.093 24 12.093 C 17.429 12.093 12.093 17.429 12.093 24.001 C 12.093 30.572 17.429 35.906 24 35.906 C 24.467 35.906 24.929 35.879 25.382 35.826 C 25.887 37.462 27.464 41.299 27.091 42.406 C 26.643 43.733 25.398 44.626 23.996 44.626 C 23.952 44.616 23.906 44.616 23.861 44.616 C 22.543 44.606 21.377 43.762 20.956 42.513 C 20.563 41.375 20.153 40.162 20.153 40.162 C 19.285 39.956 18.436 39.68 17.613 39.336 C 17.613 39.336 16.634 40.03 15.682 40.706 C 14.54 41.517 13.007 41.509 11.873 40.685 C 11.843 40.651 11.807 40.623 11.771 40.596 C 10.71 39.814 10.263 38.446 10.655 37.188 C 11.005 36.037 11.387 34.815 11.387 34.815 C 10.807 34.138 10.282 33.414 9.817 32.653 C 9.817 32.653 8.617 32.64 7.45 32.627 C 6.049 32.611 4.815 31.703 4.382 30.37 C 4.378 30.324 4.364 30.282 4.351 30.239 C 3.953 28.983 4.395 27.612 5.453 26.826 C 6.412 26.101 7.44 25.336 7.44 25.336 C 7.368 24.447 7.368 23.553 7.44 22.664 C 7.44 22.664 6.477 21.947 5.54 21.251 C 4.417 20.415 3.95 18.956 4.384 17.624 C 4.407 17.584 4.421 17.541 4.436 17.498 C 4.853 16.247 6.016 15.398 7.333 15.384 C 8.537 15.361 9.817 15.347 9.817 15.347 C 10.282 14.586 10.807 13.862 11.387 13.185 C 11.387 13.185 11.03 12.041 10.682 10.926 C 10.263 9.589 10.745 8.134 11.879 7.311 C 11.921 7.293 11.958 7.266 11.994 7.24 C 13.067 6.473 14.507 6.471 15.582 7.234 C 16.568 7.923 17.613 8.663 17.613 8.663 C 18.436 8.32 19.285 8.044 20.153 7.837 C 20.153 7.837 20.536 6.701 20.909 5.594 C 21.358 4.267 22.602 3.374 24.004 3.374 C 24.048 3.384 24.094 3.384 24.14 3.384 C 25.457 3.394 26.623 4.238 27.044 5.487 Z M 28.615 24 C 28.615 26.549 26.549 28.615 24 28.615 C 21.451 28.615 19.385 26.549 19.385 24 C 19.385 21.451 21.451 19.385 24 19.385 C 26.549 19.385 28.615 21.451 28.615 24 Z" style=""/>
</svg>