<?xml version="1.0" encoding="utf-8"?>
<svg xmlns="http://www.w3.org/2000/svg" height="48" viewBox="0 -960 960 960" width="48">
  <path d="M 480.11 -103 C 464.703 -103 450.333 -106.17 437 -112.5 C 423.667 -118.83 411 -126.67 399 -136 L 123 -374 C 113.62 -382.85 106.273 -392.32 100.96 -402.43 C 95.653 -412.54 93 -423.4 93 -435 L 93 -512 C 93 -524 95.833 -534.75 101.5 -544.26 C 107.167 -553.76 114 -562.67 122 -571 L 398 -828 C 408.793 -838 421.253 -845.33 435.38 -850 C 449.513 -854.67 464.317 -857 479.79 -857 C 495.263 -857 510.117 -854.67 524.35 -850 C 538.577 -845.33 551.127 -837.67 562 -827 L 838 -570 C 846 -562 852.833 -553.33 858.5 -544 C 864.167 -534.67 867 -524.33 867 -513 L 867 -435 C 867 -423.4 864.347 -412.54 859.04 -402.43 C 853.727 -392.32 846.38 -382.85 837 -374 L 561 -136 C 549 -126.67 536.37 -118.83 523.11 -112.5 C 509.843 -106.17 495.51 -103 480.11 -103 Z M 477 -298 C 486.6 -298 495.65 -299.66 504.15 -302.97 C 512.65 -306.29 520.933 -310.97 529 -317 L 764 -530 L 505 -764 C 503 -767.33 499.893 -769.83 495.68 -771.5 C 491.467 -773.17 487.197 -773.67 482.87 -773 C 478.777 -772.33 474.277 -771.33 469.37 -770 C 464.457 -768.67 459.667 -766.67 455 -764 L 195 -529 L 425.09 -317.18 C 433.03 -311.06 441.26 -306.33 449.78 -303 C 458.3 -299.67 467.373 -298 477 -298 Z M 349.89 -476 C 363.297 -476 374.667 -480.63 384 -489.89 C 393.333 -499.14 398 -510.48 398 -523.89 C 398 -537.3 393.37 -548.67 384.11 -558 C 374.857 -567.33 363.523 -572 350.11 -572 C 336.703 -572 325.333 -567.37 316 -558.11 C 306.667 -548.86 302 -537.52 302 -524.11 C 302 -510.7 306.63 -499.33 315.89 -490 C 325.143 -480.67 336.477 -476 349.89 -476 Z M 415 -415 C 445.667 -401.67 476.93 -398.2 508.79 -404.6 C 540.65 -411 568.823 -425.34 593.31 -447.62 C 615.77 -467.21 630 -490.83 636 -518.5 C 642 -546.17 639.667 -573.67 629 -601 L 415 -415 Z M 479.89 -602 C 493.297 -602 504.667 -606.63 514 -615.89 C 523.333 -625.14 528 -636.48 528 -649.89 C 528 -663.3 523.37 -674.67 514.11 -684 C 504.857 -693.33 493.523 -698 480.11 -698 C 466.703 -698 455.333 -693.37 446 -684.11 C 436.667 -674.86 432 -663.52 432 -650.11 C 432 -636.7 436.63 -625.33 445.89 -616 C 455.143 -606.67 466.477 -602 479.89 -602 Z M 480 -535 Z"/>
</svg>