<?xml version="1.0" encoding="utf-8"?>
<svg xmlns="http://www.w3.org/2000/svg" height="48" viewBox="0 -960 960 960" width="48">
  <path d="M 543.085 -27.35 C 536.085 -20.45 527.615 -17 517.675 -17 C 517.674 -17 517.674 -17 517.673 -17 C 517.582 -17 517.491 -17 517.4 -17.001 C 507.581 -17.062 499.34 -20.412 492.675 -27.06 C 485.948 -33.77 482.585 -42.09 482.585 -52 L 482.585 -145.47 L 290.229 -145.47 C 286.046 -137 280.75 -129.16 274.532 -122.15 C 262.95 -109.08 248.167 -98.92 231.407 -92.88 C 220.256 -88.86 208.233 -86.66 195.7 -86.66 C 137.548 -86.66 90.415 -133.75 90.415 -191.97 C 90.415 -191.98 90.415 -191.98 90.415 -191.99 C 90.415 -192 90.415 -192 90.415 -192.01 C 90.415 -224 104.736 -252.81 127.313 -272.19 C 133.971 -277.82 141.327 -282.6 149.24 -286.61 L 149.24 -666.04 C 138.398 -671.39 128.603 -678.55 120.257 -687.14 C 101.791 -706.08 90.415 -732.03 90.415 -760.72 C 90.415 -760.74 90.415 -760.75 90.415 -760.76 C 90.415 -760.78 90.415 -760.79 90.415 -760.81 C 90.415 -786.99 100.076 -811.01 116.013 -829.59 C 135.316 -851.79 163.833 -865.99 195.754 -865.99 C 223.633 -865.99 249.016 -855 267.816 -837.4 C 277.073 -828.79 284.773 -818.41 290.393 -806.81 L 482.585 -806.81 L 482.585 -907 C 482.585 -911.5 483.234 -915.68 484.533 -919.53 C 486.176 -924.45 488.865 -928.87 492.596 -932.8 C 499.273 -939.6 507.574 -943 517.514 -943 C 517.514 -943 517.515 -943 517.515 -943 C 517.53 -943 517.546 -943 517.561 -943 C 527.761 -942.99 536.325 -939.78 543.214 -932.99 C 550.133 -926.38 553.592 -918 553.592 -907.99 L 553.592 -52.99 C 553.592 -49.573 553.199 -46.359 552.414 -43.333 C 550.857 -37.273 547.747 -31.946 543.085 -27.35 Z M 821.406 -432.86 C 808.566 -432.86 797.546 -437.26 788.366 -446.45 C 779.185 -455.66 774.585 -466.67 774.585 -479.86 C 774.585 -481.33 774.642 -482.78 774.755 -484.2 C 775.649 -495.73 780.276 -505.4 788.652 -513.59 C 798.033 -522.39 809.193 -526.81 822.155 -526.81 C 835.112 -526.81 846.254 -522.2 855.593 -513.4 C 864.933 -504 869.593 -493.01 869.593 -479.6 C 869.593 -478.59 869.565 -477.6 869.508 -476.62 C 868.861 -464.85 864.146 -454.79 855.346 -446.45 C 845.845 -437.26 834.546 -432.86 821.406 -432.86 Z M 774.585 -654.67 L 774.585 -770.87 L 658.586 -770.87 C 645.405 -770.87 634.286 -775.25 625.205 -784.47 C 616.125 -793.47 611.586 -804.66 611.586 -817.86 C 611.586 -819 611.62 -820.13 611.688 -821.24 C 612.379 -833.05 616.888 -843.17 625.213 -851.79 C 634.292 -861.2 645.414 -865.99 658.595 -865.99 L 774.595 -865.99 C 800.892 -865.99 823.314 -856.59 841.812 -838.2 C 860.333 -819.58 869.593 -797.18 869.593 -771.01 L 869.593 -654.8 C 869.593 -653.74 869.561 -652.69 869.498 -651.65 C 868.813 -639.92 864.084 -629.77 855.326 -621.47 C 845.805 -612.26 834.466 -607.87 821.326 -607.87 C 808.165 -607.87 797.085 -612.26 788.085 -621.47 C 779.086 -630.47 774.585 -641.66 774.585 -654.67 Z M 774.585 -94.65 L 658.586 -94.65 C 645.405 -94.65 634.286 -99.27 625.205 -108.46 C 616.125 -117.46 611.586 -128.66 611.586 -141.85 C 611.586 -142.84 611.612 -143.82 611.663 -144.79 C 612.261 -156.77 616.778 -167.05 625.213 -175.39 C 634.292 -184.42 645.414 -188.99 658.595 -188.99 L 774.585 -188.99 L 774.585 -304.66 C 774.585 -305.88 774.624 -307.08 774.701 -308.26 C 775.434 -319.96 779.958 -330.01 788.274 -338.2 C 797.372 -347.38 808.513 -351.8 821.675 -351.8 C 834.833 -351.8 846.114 -347.38 855.495 -338.2 C 864.895 -329.22 869.593 -318 869.593 -304.82 L 869.593 -188.99 C 869.593 -186.86 869.531 -184.75 869.408 -182.67 C 868.049 -159.14 858.849 -139.01 841.806 -122.27 C 823.306 -103.86 800.886 -94.65 774.585 -94.65 Z M 273.557 -689.71 C 264.786 -680.06 254.256 -672.03 242.475 -666.12 L 242.433 -286.39 C 260.055 -277.59 274.856 -264.22 285.193 -247.6 C 287.013 -244.58 288.712 -241.6 290.253 -238.62 L 482.585 -238.39 L 482.585 -713.79 L 458.534 -713.81 L 290.09 -713.84 C 285.704 -705.03 280.115 -696.92 273.557 -689.71 Z" style=""/>
</svg>