<?xml version="1.0" encoding="utf-8"?>
<svg xmlns="http://www.w3.org/2000/svg" height="48" viewBox="0 -960 960 960" width="48">
  <path d="M 817.82 -95 C 804.973 -95 793.96 -99.62 784.78 -108.86 C 775.593 -118.1 771 -129.1 771 -141.86 C 771 -154.62 775.687 -165.667 785.06 -175 C 794.433 -184.333 805.6 -189 818.56 -189 C 831.52 -189 842.667 -184.313 852 -174.94 C 861.333 -165.567 866 -154.4 866 -141.44 C 866 -128.48 861.253 -117.5 851.76 -108.5 C 842.267 -99.5 830.953 -95 817.82 -95 Z M 141.44 -95 C 128.48 -95 117.5 -99.62 108.5 -108.86 C 99.5 -118.1 95 -129.1 95 -141.86 C 95 -154.62 99.62 -165.667 108.86 -175 C 118.1 -184.333 129.1 -189 141.86 -189 C 154.62 -189 165.667 -184.313 175 -174.94 C 184.333 -165.567 189 -154.4 189 -141.44 C 189 -128.48 184.313 -117.5 174.94 -108.5 C 165.567 -99.5 154.4 -95 141.44 -95 Z M 784.78 -278.06 C 775.593 -287.433 771 -298.6 771 -311.56 C 771 -324.52 775.687 -335.667 785.06 -345 C 794.433 -354.333 805.6 -359 818.56 -359 C 831.52 -359 842.667 -354.253 852 -344.76 C 861.333 -335.267 866 -323.953 866 -310.82 C 866 -297.973 861.253 -286.957 851.76 -277.77 C 842.267 -268.59 830.953 -264 817.82 -264 C 804.973 -264 793.96 -268.687 784.78 -278.06 Z M 141.44 -264 C 128.48 -264 117.5 -268.687 108.5 -278.06 C 99.5 -287.433 95 -298.6 95 -311.56 C 95 -324.52 99.62 -335.667 108.86 -345 C 118.1 -354.333 129.1 -359 141.86 -359 C 154.62 -359 165.667 -354.253 175 -344.76 C 184.333 -335.267 189 -323.953 189 -310.82 C 189 -297.973 184.313 -286.957 174.94 -277.77 C 165.567 -268.59 154.4 -264 141.44 -264 Z M 340.991 -191.4 L 620.024 -191.4 L 620.024 -620.03 L 340.991 -620.03 Z M 292.288 -95 C 278.934 -95 267.651 -99.67 258.439 -108.81 C 249.224 -118.15 244.597 -129.32 244.597 -142.7 L 244.597 -667.71 C 244.597 -681.1 249.224 -692.47 258.439 -701.61 C 267.651 -710.74 278.934 -715.41 292.288 -715.41 L 667.712 -715.41 C 681.086 -715.41 692.367 -710.74 701.582 -701.61 C 710.794 -692.47 715.402 -681.1 715.402 -667.71 L 715.402 -142.7 C 715.402 -129.32 710.794 -118.15 701.582 -108.81 C 692.367 -99.67 681.086 -95 667.712 -95 Z M 771.457 -482.83 L 771.457 -642.07 C 771.457 -677.88 758.859 -708.35 733.641 -733.61 C 708.422 -758.9 677.91 -771.43 642.084 -771.43 L 482.855 -771.43 C 481.991 -771.43 481.136 -771.45 480.29 -771.49 C 479.586 -771.463 478.875 -771.45 478.158 -771.45 L 318.918 -771.45 C 283.099 -771.45 252.58 -758.84 227.359 -733.45 C 202.14 -708.25 189.539 -677.84 189.539 -642.05 L 189.539 -482.84 C 189.539 -469.65 185.059 -458.65 176.118 -449.44 C 167.16 -440.63 156.14 -436.05 143.039 -436.05 C 129.94 -436.05 118.679 -440.63 109.199 -449.44 C 99.74 -458.65 95 -469.65 95 -482.84 L 95 -653.85 C 95 -713.03 115.58 -763.04 156.739 -804.25 C 197.899 -845.45 247.979 -865.84 306.979 -865.84 L 478.158 -865.84 C 478.366 -865.84 478.574 -865.839 478.781 -865.836 C 480.116 -865.939 481.474 -865.99 482.855 -865.99 L 654.025 -865.99 C 713.02 -865.99 763.099 -845.49 804.258 -804.27 C 845.419 -763.08 866 -713.13 866 -654 L 866 -482.83 C 866 -469.7 861.262 -458.75 851.808 -449.59 C 842.335 -440.65 831.069 -436.05 817.972 -436.05 C 804.875 -436.05 793.849 -440.65 784.892 -449.59 C 775.937 -458.75 771.457 -469.7 771.457 -482.83 Z"/>
</svg>