<?xml version="1.0" encoding="utf-8"?>
<svg xmlns="http://www.w3.org/2000/svg" height="48" viewBox="0 -960 960 960" width="48">
  <path d="M 817.82 -95 C 804.973 -95 793.96 -99.62 784.78 -108.86 C 775.593 -118.1 771 -129.1 771 -141.86 C 771 -154.62 775.687 -165.667 785.06 -175 C 794.433 -184.333 805.6 -189 818.56 -189 C 831.52 -189 842.667 -184.313 852 -174.94 C 861.333 -165.567 866 -154.4 866 -141.44 C 866 -128.48 861.253 -117.5 851.76 -108.5 C 842.267 -99.5 830.953 -95 817.82 -95 Z M 141.44 -95 C 128.48 -95 117.5 -99.62 108.5 -108.86 C 99.5 -118.1 95 -129.1 95 -141.86 C 95 -154.62 99.62 -165.667 108.86 -175 C 118.1 -184.333 129.1 -189 141.86 -189 C 154.62 -189 165.667 -184.313 175 -174.94 C 184.333 -165.567 189 -154.4 189 -141.44 C 189 -128.48 184.313 -117.5 174.94 -108.5 C 165.567 -99.5 154.4 -95 141.44 -95 Z M 784.78 -278.06 C 775.593 -287.433 771 -298.6 771 -311.56 C 771 -324.52 775.687 -335.667 785.06 -345 C 794.433 -354.333 805.6 -359 818.56 -359 C 831.52 -359 842.667 -354.253 852 -344.76 C 861.333 -335.267 866 -323.953 866 -310.82 C 866 -297.973 861.253 -286.957 851.76 -277.77 C 842.267 -268.59 830.953 -264 817.82 -264 C 804.973 -264 793.96 -268.687 784.78 -278.06 Z M 141.44 -264 C 128.48 -264 117.5 -268.687 108.5 -278.06 C 99.5 -287.433 95 -298.6 95 -311.56 C 95 -324.52 99.62 -335.667 108.86 -345 C 118.1 -354.333 129.1 -359 141.86 -359 C 154.62 -359 165.667 -354.253 175 -344.76 C 184.333 -335.267 189 -323.953 189 -310.82 C 189 -297.973 184.313 -286.957 174.94 -277.77 C 165.567 -268.59 154.4 -264 141.44 -264 Z M 340.991 -191.4 L 620.024 -191.4 L 620.024 -620.03 L 340.991 -620.03 L 340.991 -191.4 Z M 292.288 -95 C 278.934 -95 267.651 -99.67 258.439 -108.81 C 249.224 -118.15 244.597 -129.32 244.597 -142.7 L 244.597 -667.71 C 244.597 -681.1 249.224 -692.47 258.439 -701.61 C 267.651 -710.74 278.934 -715.41 292.288 -715.41 L 667.712 -715.41 C 681.086 -715.41 692.367 -710.74 701.582 -701.61 C 710.794 -692.47 715.402 -681.1 715.402 -667.71 L 715.402 -142.7 C 715.402 -129.32 710.794 -118.15 701.582 -108.81 C 692.367 -99.67 681.086 -95 667.712 -95 L 292.288 -95 Z M 771.459 -865.99 C 797.66 -865.99 819.941 -856.98 838.381 -838.4 C 856.781 -819.8 866 -797.6 866 -771.58 L 866 -482.98 C 866 -469.8 861.461 -458.79 852.381 -449.8 C 843.32 -440.78 832.041 -436.19 818.54 -436.19 C 805.081 -436.19 793.86 -440.78 784.901 -449.8 C 775.941 -458.79 771.459 -469.8 771.459 -482.98 L 771.459 -771.58 L 189.539 -771.58 L 189.539 -482.99 C 189.539 -469.78 185.06 -458.79 176.1 -449.78 C 167.14 -440.79 155.92 -436.19 142.46 -436.19 C 128.96 -436.19 117.68 -440.79 108.62 -449.78 C 99.539 -458.79 95 -469.78 95 -482.99 L 95 -771.58 C 95 -797.59 104.219 -819.78 122.619 -838.38 C 141.06 -856.99 163.34 -865.99 189.539 -865.99 L 771.459 -865.99 Z"/>
</svg>