<?xml version="1.0" encoding="utf-8"?>
<svg xmlns="http://www.w3.org/2000/svg" height="48" viewBox="0 -960 960 960" width="48">
  <path d="M 141.44 -771 C 128.48 -771 117.5 -775.687 108.5 -785.06 C 99.5 -794.433 95 -805.6 95 -818.56 C 95 -831.52 99.62 -842.667 108.86 -852 C 118.1 -861.333 129.1 -866 141.86 -866 C 154.62 -866 165.667 -861.253 175 -851.76 C 184.333 -842.267 189 -830.953 189 -817.82 C 189 -804.973 184.313 -793.96 174.94 -784.78 C 165.567 -775.593 154.4 -771 141.44 -771 Z M 310.82 -771 C 297.973 -771 286.957 -775.687 277.77 -785.06 C 268.59 -794.433 264 -805.6 264 -818.56 C 264 -831.52 268.687 -842.667 278.06 -852 C 287.433 -861.333 298.6 -866 311.56 -866 C 324.52 -866 335.667 -861.253 345 -851.76 C 354.333 -842.267 359 -830.953 359 -817.82 C 359 -804.973 354.253 -793.96 344.76 -784.78 C 335.267 -775.593 323.953 -771 310.82 -771 Z M 817.82 -264 C 804.973 -264 793.96 -268.687 784.78 -278.06 C 775.593 -287.433 771 -298.6 771 -311.56 C 771 -324.52 775.687 -335.667 785.06 -345 C 794.433 -354.333 805.6 -359 818.56 -359 C 831.52 -359 842.667 -354.253 852 -344.76 C 861.333 -335.267 866 -323.953 866 -310.82 C 866 -297.973 861.253 -286.957 851.76 -277.77 C 842.267 -268.59 830.953 -264 817.82 -264 Z M 817.82 -95 C 804.973 -95 793.96 -99.62 784.78 -108.86 C 775.593 -118.1 771 -129.1 771 -141.86 C 771 -154.62 775.687 -165.667 785.06 -175 C 794.433 -184.333 805.6 -189 818.56 -189 C 831.52 -189 842.667 -184.313 852 -174.94 C 861.333 -165.567 866 -154.4 866 -141.44 C 866 -128.48 861.253 -117.5 851.76 -108.5 C 842.267 -99.5 830.953 -95 817.82 -95 Z M 171.356 -171.38 L 590.918 -171.38 L 590.918 -590.91 L 171.356 -590.91 Z M 132.776 -95 C 122.199 -95 113.26 -98.72 105.963 -105.93 C 98.649 -113.18 95 -122.18 95 -132.79 L 95 -628.7 C 95 -639.29 98.649 -648.14 105.963 -655.54 C 113.26 -662.77 122.199 -666.48 132.776 -666.48 L 628.692 -666.48 C 639.269 -666.48 648.224 -662.77 655.521 -655.54 C 662.819 -648.14 666.468 -639.29 666.468 -628.7 L 666.468 -132.79 C 666.468 -122.18 662.819 -113.18 655.521 -105.93 C 648.224 -98.72 639.269 -95 628.692 -95 Z M 866 -482.914 C 866 -469.774 861.462 -458.634 852.388 -449.674 C 843.332 -440.724 832.048 -436.144 818.555 -436.144 C 805.081 -436.144 793.857 -440.724 784.902 -449.674 C 775.945 -458.634 771.467 -469.774 771.467 -482.914 L 771.467 -555.727 L 770.953 -555.727 L 770.953 -689.15 L 688.108 -771.03 L 538.095 -771.03 L 538.095 -771.47 L 483.305 -771.47 C 470.21 -771.47 459.144 -776.04 450.089 -785.01 C 441.054 -794.16 436.536 -805.3 436.536 -818.84 C 436.536 -832.37 441.054 -843.51 450.089 -852.47 C 459.144 -861.42 470.21 -866 483.305 -866 L 682.386 -866 C 696.851 -866 710.762 -862.8 724.127 -856.86 C 730.096 -854.09 735.797 -850.96 741.228 -847.46 C 747.506 -844.79 753.289 -840.87 758.582 -835.65 L 832.966 -761.26 C 842.781 -750.57 850.529 -738.53 856.701 -725.21 C 862.9 -711.83 866 -697.93 866 -683.48 Z"/>
</svg>