<?xml version="1.0" encoding="utf-8"?>
<svg xmlns="http://www.w3.org/2000/svg" height="48" viewBox="0 -960 960 960" width="48">
  <path d="M 599 -95 C 572.693 -95 550.283 -104.157 531.77 -122.47 C 513.257 -140.79 504 -162.967 504 -189 L 503.155 -300.453 C 503.155 -326.453 524.232 -347.53 550.232 -347.53 L 551.078 -347.53 C 577.078 -347.53 598.155 -326.453 598.155 -300.453 L 599 -189 L 786 -189 L 786 -771 L 599 -771 L 599 -756.241 C 599.06 -755.332 599.091 -754.417 599.091 -753.494 C 599.091 -729.295 578.014 -709.678 552.014 -709.678 L 550.232 -709.678 C 524.232 -709.678 503.155 -729.295 503.155 -753.494 C 503.155 -756.334 504 -771 504 -771 C 504 -797.307 513.257 -819.717 531.77 -838.23 C 550.283 -856.743 572.693 -866 599 -866 L 786 -866 C 812.307 -866 834.717 -856.743 853.23 -838.23 C 871.743 -819.717 881 -797.307 881 -771 L 881 -189 C 881 -162.967 871.743 -140.79 853.23 -122.47 C 834.717 -104.157 812.307 -95 786 -95 Z M 288.09 -414.98 C 287.116 -425.61 290.73 -436.41 298.048 -444.39 C 305.347 -452.36 315.694 -456.97 326.537 -456.97 L 573.336 -456.97 C 582.602 -456.97 590.433 -453.78 596.812 -447.4 C 603.208 -440.84 606.415 -432.69 606.415 -422.95 C 606.415 -413.74 603.208 -405.76 596.812 -399.56 C 590.433 -393.18 582.602 -390 573.336 -390 L 392.216 -390 L 442.197 -340.03 C 448.77 -333.48 452.066 -325.86 452.066 -317.17 C 452.066 -308.31 448.859 -300.34 442.481 -293.43 C 436.191 -287.05 428.448 -283.69 419.253 -283.69 C 410.04 -283.69 402.209 -287.05 395.742 -293.61 L 299.323 -390 C 292.927 -396.37 288.976 -404.88 288.179 -413.91 Z M 668.314 -545.2 C 669.289 -534.39 665.674 -523.58 658.357 -515.61 C 651.057 -507.64 640.71 -503.03 629.867 -503.03 L 386.664 -503.03 C 377.398 -503.03 369.567 -506.4 363.189 -512.6 C 356.793 -519.16 353.586 -527.31 353.586 -537.05 C 353.586 -546.26 356.793 -554.24 363.189 -560.44 C 369.567 -566.82 377.398 -570 386.664 -570 L 564.188 -570 L 514.207 -619.97 C 507.634 -626.52 504.339 -634.14 504.339 -642.82 C 504.339 -651.86 507.546 -659.66 513.924 -666.56 C 520.214 -672.94 527.956 -676.31 537.152 -676.31 C 546.365 -676.31 554.196 -672.94 560.663 -666.39 L 657.081 -570 C 663.477 -563.63 667.428 -555.12 668.226 -546.09 Z M 362 -865.96 C 388.307 -865.96 410.717 -856.81 429.23 -838.5 C 447.743 -820.18 457 -798 457 -771.96 L 457.845 -660.51 C 457.845 -634.51 436.768 -613.43 410.768 -613.43 L 409.922 -613.43 C 383.922 -613.43 362.845 -634.51 362.845 -660.51 L 362 -771.96 L 175 -771.96 L 175 -190 L 362 -190 L 362 -204.7 C 361.94 -205.6 361.909 -206.5 361.909 -207.5 C 361.909 -231.7 382.986 -251.29 408.986 -251.29 L 410.768 -251.29 C 436.768 -251.29 457.845 -231.7 457.845 -207.5 C 457.845 -204.6 457 -190 457 -190 C 457 -163.7 447.743 -141.2 429.23 -122.7 C 410.717 -104.2 388.307 -95 362 -95 L 175 -95 C 148.693 -95 126.283 -104.2 107.77 -122.7 C 89.257 -141.2 80 -163.7 80 -190 L 80 -771.96 C 80 -798 89.257 -820.18 107.77 -838.5 C 126.283 -856.81 148.693 -865.96 175 -865.96 Z"/>
</svg>