<?xml version="1.0" encoding="utf-8"?>
<svg xmlns="http://www.w3.org/2000/svg" height="48" width="48">
  <path d="M 24 15.104 C 23.333 15.104 22.775 14.879 22.325 14.429 C 21.875 13.979 21.65 13.421 21.65 12.754 L 21.65 6.6 C 21.65 5.933 21.875 5.367 22.325 4.9 C 22.775 4.433 23.333 4.2 24 4.2 C 24.667 4.2 25.225 4.433 25.675 4.9 C 26.125 5.367 26.35 5.933 26.35 6.6 L 26.35 12.754 C 26.35 13.421 26.125 13.979 25.675 14.429 C 25.225 14.879 24.667 15.104 24 15.104 Z M 21.666 25.232 L 21.65 19.602 C 21.65 18.935 21.875 18.369 22.325 17.902 C 22.775 17.435 23.333 17.202 24 17.202 C 24.667 17.202 25.225 17.435 25.675 17.902 C 26.125 18.369 26.35 18.935 26.35 19.602 L 26.366 25.232 L 30.216 21.432 C 30.683 20.965 31.233 20.74 31.866 20.757 C 32.5 20.774 33.05 21.015 33.516 21.482 C 33.983 21.966 34.216 22.529 34.216 23.171 C 34.216 23.812 33.983 24.365 33.516 24.832 L 25.716 32.682 C 25.238 33.149 24.668 33.382 24.007 33.382 C 23.347 33.382 22.783 33.149 22.316 32.682 L 14.466 24.782 C 14 24.315 13.775 23.765 13.791 23.132 C 13.808 22.499 14.05 21.94 14.516 21.457 C 14.983 20.974 15.541 20.732 16.191 20.732 C 16.841 20.732 17.416 20.965 17.916 21.432 Z M 24 43.05 C 21.333 43.05 18.833 42.55 16.5 41.55 C 14.167 40.55 12.125 39.175 10.375 37.425 C 8.625 35.675 7.25 33.633 6.25 31.3 C 5.25 28.967 4.75 26.467 4.75 23.8 C 4.75 21.467 5.167 19.225 6 17.075 C 6.833 14.925 8.033 13 9.6 11.3 C 10.033 10.767 10.6 10.467 11.3 10.4 C 12 10.333 12.617 10.533 13.15 11 C 13.617 11.467 13.842 12.025 13.825 12.675 C 13.808 13.325 13.6 13.9 13.2 14.4 C 12.033 15.7 11.117 17.15 10.45 18.75 C 9.783 20.35 9.45 22.033 9.45 23.8 C 9.45 27.833 10.867 31.267 13.7 34.1 C 16.533 36.933 19.967 38.35 24 38.35 C 28.033 38.35 31.467 36.933 34.3 34.1 C 37.133 31.267 38.55 27.833 38.55 23.8 C 38.55 22.033 38.225 20.35 37.575 18.75 C 36.925 17.15 36.017 15.7 34.85 14.4 C 34.45 13.867 34.25 13.275 34.25 12.625 C 34.25 11.975 34.483 11.433 34.95 11 C 35.483 10.5 36.108 10.3 36.825 10.4 C 37.542 10.5 38.15 10.833 38.65 11.4 C 40.15 13.1 41.3 15.017 42.1 17.15 C 42.9 19.283 43.3 21.5 43.3 23.8 C 43.3 26.467 42.792 28.967 41.775 31.3 C 40.758 33.633 39.375 35.675 37.625 37.425 C 35.875 39.175 33.833 40.55 31.5 41.55 C 29.167 42.55 26.667 43.05 24 43.05 Z"/>
</svg>