<?xml version="1.0" encoding="utf-8"?>
<svg xmlns="http://www.w3.org/2000/svg" height="48" viewBox="0 -960 960 960" width="48">
  <path d="M 396 -106 C 320.667 -124 258.333 -163.67 209 -225 C 159.667 -286.34 135 -357.34 135 -438 C 135 -482 143.833 -524.17 161.5 -564.5 C 179.167 -604.84 204.333 -639.34 237 -668 C 244.333 -678.67 255.167 -684 269.5 -684 C 283.833 -684 296 -679 306 -669 C 314 -661 318 -651.17 318 -639.5 C 318 -627.84 313.667 -617.34 305 -608 C 281 -586.67 262.333 -561 249 -531 C 235.667 -501 229 -470 229 -438 C 229 -380 246.333 -329.17 281 -285.5 C 315.667 -241.84 360 -213.34 414 -200 C 424.667 -196 433.5 -189.67 440.5 -181 C 447.5 -172.34 451 -162.67 451 -152 C 451 -135.34 445.333 -122.5 434 -113.5 C 422.667 -104.5 410 -102 396 -106 Z M 567 -106 C 552.333 -101.34 539.333 -103.67 528 -113 C 516.667 -122.34 511 -135 511 -151 C 511 -161 514.5 -170.67 521.5 -180 C 528.5 -189.34 537.333 -196 548 -200 C 602.667 -213.34 647 -241.84 681 -285.5 C 715 -329.17 732 -380 732 -438 C 732 -504.67 709.5 -562 664.5 -610 C 619.5 -658 563.667 -684 497 -688 L 474 -688 L 514 -648 C 520 -641.34 523 -633 523 -623 C 523 -613 520 -604.67 514 -598 C 506.667 -590.67 497.833 -587 487.5 -587 C 477.167 -587 468.667 -590.67 462 -598 L 352 -707 C 347.333 -711.67 343.833 -716.84 341.5 -722.5 C 339.167 -728.17 338 -734 338 -740 C 338 -746.67 339.167 -752.67 341.5 -758 C 343.833 -763.34 347.333 -768.34 352 -773 L 462 -885 C 468.667 -891 477.167 -894 487.5 -894 C 497.833 -894 506.667 -891 514 -885 C 520 -877.67 523 -868.84 523 -858.5 C 523 -848.17 520 -839.67 514 -833 L 463 -783 L 487 -783 C 581.667 -783 662 -749.17 728 -681.5 C 794 -613.84 827 -532.67 827 -438 C 827 -357.34 802.333 -286.34 753 -225 C 703.667 -163.67 641.667 -124 567 -106 Z M 444.253 -354.81 L 444.253 -501.069 C 444.253 -510.999 447.741 -519.719 454.716 -526.919 C 461.691 -534.099 470.226 -537.769 480.336 -537.769 C 490.446 -537.769 498.936 -534.099 505.818 -526.919 C 512.703 -519.719 516.144 -510.999 516.144 -501.069 L 516.144 -354.81 L 575.032 -412.93 C 582.176 -420.13 590.589 -423.5 600.27 -423.19 C 609.953 -423.04 618.365 -419.36 625.509 -412.16 C 632.652 -404.68 636.216 -396.11 636.216 -386.31 C 636.216 -376.54 632.652 -368.13 625.509 -360.93 L 506.202 -240.85 C 498.874 -233.67 490.171 -230.15 480.061 -230.15 C 469.951 -230.15 461.338 -233.67 454.196 -240.85 L 334.124 -361.7 C 326.98 -368.88 323.539 -377.31 323.798 -386.93 C 324.058 -396.57 327.746 -405.14 334.888 -412.47 C 342.033 -419.98 350.566 -423.65 360.509 -423.65 C 370.452 -423.65 379.247 -420.13 386.894 -412.93 Z"/>
</svg>