<?xml version="1.0" encoding="utf-8"?>
<svg xmlns="http://www.w3.org/2000/svg" height="48" viewBox="0 -960 960 960" width="48">
  <path d="M 503 -95 C 489.833 -95 478.707 -99.5 469.62 -108.5 C 460.54 -117.5 456 -128.61 456 -141.82 C 456 -155.04 460.54 -166.21 469.62 -175.32 C 478.707 -184.44 489.833 -189 503 -189 L 752 -189 L 752 -771 L 503 -771 C 489.833 -771 478.707 -775.5 469.62 -784.5 C 460.54 -793.5 456 -804.58 456 -817.74 C 456 -830.89 460.54 -842.23 469.62 -851.74 C 478.707 -861.25 489.833 -866 503 -866 L 752 -866 C 778.033 -866 800.21 -856.74 818.53 -838.23 C 836.843 -819.72 846 -797.31 846 -771 L 846 -189 C 846 -162.97 836.843 -140.79 818.53 -122.47 C 800.21 -104.16 778.033 -95 752 -95 L 503 -95 Z M 318 -369 C 328.053 -359.5 332.9 -348.3 332.54 -335.38 C 332.18 -322.46 327.463 -311.34 318.39 -302 C 308.797 -292.67 297.633 -288 284.9 -288 C 272.167 -288 261.2 -292.67 252 -302 L 108 -446 C 99.333 -455.34 95 -466.28 95 -478.82 C 95 -491.37 99.333 -502.43 108 -512 L 253 -657 C 262.8 -666.34 274.083 -671.17 286.85 -671.5 C 299.617 -671.84 310.667 -667.17 320 -657.5 C 329.333 -648.5 334.167 -637.54 334.5 -624.6 C 334.833 -611.68 330.333 -600.48 321 -591 L 257 -527 L 540 -527 C 553.167 -527 564.29 -522.5 573.37 -513.5 C 582.457 -504.5 587 -493.4 587 -480.18 C 587 -466.96 582.457 -455.8 573.37 -446.68 C 564.29 -437.56 553.167 -433 540 -433 L 255 -433 L 318 -369 Z" style=""/>
</svg>