<?xml version="1.0" encoding="utf-8"?>
<svg xmlns="http://www.w3.org/2000/svg" height="48" viewBox="0 -960 960 960" width="48">
  <path d="M 109 -122 C 83.167 -122 61.043 -131.21 42.63 -149.63 C 24.21 -168.043 15 -190.167 15 -216 L 15 -243 C 15 -271.2 22.233 -296.567 36.7 -319.1 C 51.16 -341.633 71.26 -358.933 97 -371 C 147 -392.333 192.49 -408 233.47 -418 C 274.45 -428 316.627 -433 360 -433 C 381.507 -433 401.717 -431.833 420.63 -429.5 C 439.543 -427.167 459.333 -423.333 480 -418 C 491.333 -416 499 -409.833 503 -399.5 C 507 -389.167 507.333 -378.333 504 -367 C 500.667 -355.667 493.5 -346.167 482.5 -338.5 C 471.5 -330.833 456.333 -328 437 -330 C 424.46 -332.667 412.057 -334.667 399.79 -336 C 387.53 -337.333 374.267 -338 360 -338 C 322.667 -338 288 -334.667 256 -328 C 224 -321.333 185.667 -308.333 141 -289 C 132.333 -285.293 124.833 -278.6 118.5 -268.92 C 112.167 -259.247 109 -249.273 109 -239 L 109 -216 L 446 -216 C 461.333 -216 472.833 -211.17 480.5 -201.51 C 488.167 -191.85 492 -181.227 492 -169.64 C 492 -157.213 488.167 -146.167 480.5 -136.5 C 472.833 -126.833 461.333 -122 446 -122 Z M 360.25 -494 C 312.083 -494 273 -509 243 -539 C 213 -569 198 -608.167 198 -656.5 C 198 -704.833 213.013 -744 243.04 -774 C 273.073 -804 312.073 -819 360.04 -819 C 408.013 -819 447.167 -803.99 477.5 -773.97 C 507.833 -743.95 523 -704.96 523 -657 C 523 -608.333 507.917 -569 477.75 -539 C 447.583 -509 408.417 -494 360.25 -494 Z M 757 -657.01 C 757 -609.003 741.85 -569.833 711.55 -539.5 C 681.257 -509.167 641.99 -494 593.75 -494 C 585.71 -494 577.577 -494.667 569.35 -496 C 561.117 -497.333 552.333 -499.667 543 -503 C 560.333 -521 573.167 -542.95 581.5 -568.85 C 589.833 -594.75 594 -623.917 594 -656.35 C 594 -688.783 589.783 -717.493 581.35 -742.48 C 572.91 -767.473 560.127 -790.023 543 -810.13 C 551 -812.71 559.413 -814.833 568.24 -816.5 C 577.067 -818.167 585.57 -819 593.75 -819 C 641.743 -819 680.95 -803.827 711.37 -773.48 C 741.79 -743.133 757 -704.31 757 -657.01 Z M 359.84 -577 C 383.047 -577 402.21 -584.46 417.33 -599.38 C 432.443 -614.3 440 -633.3 440 -656.38 C 440 -679.46 432.54 -698.5 417.62 -713.5 C 402.7 -728.5 383.7 -736 360.62 -736 C 337.54 -736 318.5 -728.593 303.5 -713.78 C 288.5 -698.967 281 -680.093 281 -657.16 C 281 -633.953 288.407 -614.79 303.22 -599.67 C 318.033 -584.557 336.907 -577 359.84 -577 Z M 700.174 -122 C 677.435 -122 656.076 -126.25 636.086 -134.77 C 616.095 -143.28 598.627 -155.05 583.683 -169.97 C 568.739 -184.91 556.998 -202.4 548.461 -222.29 C 539.934 -242.27 535.662 -263.63 535.662 -286.38 C 535.662 -309.36 539.934 -330.87 548.461 -350.85 C 556.998 -370.82 568.724 -388.23 583.621 -403.08 C 598.527 -417.87 615.964 -429.63 635.939 -438.31 C 655.914 -446.97 677.281 -451.3 700.034 -451.3 C 723.05 -451.3 744.573 -446.97 764.594 -438.31 C 784.608 -429.71 802.029 -417.94 816.834 -403.16 C 831.647 -388.39 843.373 -370.96 852.009 -350.99 C 860.646 -331.03 864.964 -309.44 864.964 -286.46 C 864.964 -263.63 860.638 -242.27 851.993 -222.29 C 843.342 -202.34 831.601 -184.84 816.772 -169.91 C 801.944 -155.05 784.554 -143.28 764.602 -134.77 C 744.643 -126.25 723.175 -122 700.174 -122 Z M 766.013 -330.113 L 741.635 -305.743 C 739.313 -303.423 738.152 -300.623 738.152 -297.373 C 738.152 -294.203 739.313 -291.423 741.635 -289.103 C 743.956 -286.783 746.735 -285.623 749.955 -285.623 C 753.181 -285.623 755.953 -286.783 758.274 -289.103 L 797.744 -328.573 C 801.358 -332.363 803.162 -336.763 803.162 -341.803 C 803.162 -346.913 801.358 -351.243 797.744 -354.873 L 758.661 -393.973 C 756.339 -396.293 753.568 -397.453 750.342 -397.603 C 747.122 -397.763 744.343 -396.673 742.022 -394.343 C 739.7 -392.023 738.539 -389.163 738.539 -385.843 C 738.539 -382.433 739.7 -379.653 742.022 -377.333 L 766.013 -353.333 L 702.939 -353.333 C 699.588 -353.333 696.817 -352.243 694.619 -350.003 C 692.429 -347.843 691.33 -345.053 691.33 -341.733 C 691.33 -338.323 692.429 -335.533 694.619 -333.363 C 696.817 -331.203 699.588 -330.113 702.939 -330.113 Z M 633.196 -228.311 L 696.271 -228.311 C 699.63 -228.311 702.4 -229.391 704.591 -231.571 C 706.789 -233.811 707.879 -236.521 707.879 -239.921 C 707.879 -243.251 706.789 -246.031 704.591 -248.201 C 702.4 -250.451 699.63 -251.531 696.271 -251.531 L 633.196 -251.531 L 657.575 -275.911 C 659.897 -278.231 661.058 -281.011 661.058 -284.201 C 661.058 -287.431 659.897 -290.231 657.575 -292.551 C 655.254 -294.871 652.483 -296.031 649.255 -296.031 C 646.035 -296.031 643.258 -294.871 640.936 -292.551 L 601.466 -253.081 C 597.859 -249.291 596.048 -244.811 596.048 -239.771 C 596.048 -234.661 597.859 -230.331 601.466 -226.761 L 640.936 -187.291 C 643.258 -184.971 646.035 -183.811 649.255 -183.971 C 652.483 -184.121 655.254 -185.361 657.575 -187.681 C 659.897 -190.001 661.058 -192.711 661.058 -195.971 C 661.058 -199.221 659.897 -202.001 657.575 -204.321 Z"/>
</svg>