<?xml version="1.0" encoding="utf-8"?>
<svg clip-rule="evenodd" fill-rule="evenodd" stroke-linejoin="round" stroke-miterlimit="2" viewBox="0 0 250 250" xmlns="http://www.w3.org/2000/svg">
  <path d="M 36.015 193.047 C 29.027 193.047 23.074 190.589 18.156 185.671 C 13.241 180.755 10.783 174.803 10.783 167.815 L 10.783 47.021 C 10.783 39.959 13.241 33.944 18.156 28.974 C 23.074 24.004 29.027 21.52 36.015 21.52 L 213.717 21.52 C 220.778 21.52 226.794 24.004 231.764 28.974 C 236.733 33.944 239.217 39.959 239.217 47.021 L 239.217 167.815 C 239.217 174.803 236.733 180.755 231.764 185.671 C 226.794 190.589 220.778 193.047 213.717 193.047 L 180.439 193.047 C 178.864 193.047 177.444 193.996 176.841 195.452 C 176.238 196.907 176.571 198.583 177.685 199.696 L 183.384 205.395 C 184.636 206.7 185.532 208.104 186.068 209.607 C 186.605 211.11 186.873 212.659 186.873 214.253 L 186.873 217.743 C 186.873 220.785 185.845 223.335 183.787 225.393 C 181.728 227.451 179.178 228.48 176.136 228.48 L 73.596 228.48 C 70.553 228.48 68.003 227.451 65.945 225.393 C 63.887 223.335 62.858 220.785 62.858 217.743 L 62.858 213.985 C 62.858 212.451 63.127 210.962 63.664 209.518 C 64.2 208.074 65.095 206.7 66.348 205.395 L 71.952 199.666 C 73.049 198.546 73.366 196.877 72.759 195.432 C 72.151 193.987 70.736 193.047 69.168 193.047 L 36.015 193.047 Z M 36.015 160.471 C 36.015 164.527 39.303 167.815 43.359 167.815 L 206.373 167.815 C 210.429 167.815 213.717 164.527 213.717 160.471 L 213.717 54.365 C 213.717 50.309 210.429 47.021 206.373 47.021 L 43.359 47.021 C 39.303 47.021 36.015 50.309 36.015 54.365 L 36.015 160.471 Z M 86.977 146.72 L 86.977 69.825 C 87.087 66.901 88.331 63.922 90.222 61.987 C 92.199 60.303 94.964 59.103 97.506 59.103 C 98.322 59.103 99.329 59.23 100.201 59.417 C 101.164 59.652 102.41 60.172 103.32 60.691 L 163.873 99.503 C 165.251 100.466 166.589 101.877 167.421 103.238 C 168.19 104.68 168.747 106.606 168.747 108.273 C 168.747 109.939 168.191 111.865 167.422 113.308 C 166.59 114.668 165.205 116.11 163.827 117.073 L 103.227 155.911 C 102.264 156.451 100.996 156.906 99.969 157.088 C 99.139 157.207 98.237 157.282 97.475 157.282 C 94.952 157.282 92.215 156.156 90.252 154.563 C 88.349 152.68 87.086 149.689 86.977 146.72 Z M 108.099 127.594 L 138.586 108.273 L 108.099 88.952 L 108.099 127.594 Z"/>
</svg>