<?xml version="1.0" encoding="utf-8"?>
<svg xmlns="http://www.w3.org/2000/svg" height="48" viewBox="0 -960 960 960" width="48">
  <path d="M 149 -135 C 122.967 -135 100.79 -144.16 82.47 -162.48 C 64.157 -180.793 55 -202.967 55 -229 L 55 -731 C 55 -757.307 64.157 -779.717 82.47 -798.23 C 100.79 -816.743 122.967 -826 149 -826 L 811 -826 C 837.307 -826 859.717 -816.743 878.23 -798.23 C 896.743 -779.717 906 -757.307 906 -731 L 906 -518 C 906 -504.167 901.253 -492.71 891.76 -483.63 C 882.267 -474.543 870.953 -470 857.82 -470 C 842.973 -470 831.46 -474.153 823.28 -482.46 C 815.093 -490.767 811 -500.947 811 -513 L 811 -553 L 556 -553 C 542.833 -553 531.71 -557.543 522.63 -566.63 C 513.543 -575.71 509 -587.167 509 -601 L 509 -731 L 149 -731 L 149 -229 L 516.238 -229 C 529.405 -229 540.531 -224.44 549.618 -215.32 C 558.698 -206.207 563.238 -195.04 563.238 -181.82 C 563.238 -168.607 558.698 -157.5 549.618 -148.5 C 540.531 -139.5 529.405 -135 516.238 -135 Z M 626.038 -250.94 C 612.945 -250.94 601.662 -255.47 592.189 -265.08 C 582.715 -274.41 577.964 -285.72 577.964 -299.3 C 577.964 -312.6 582.715 -324.19 592.189 -333.8 C 601.662 -343.7 612.945 -348.5 626.038 -348.5 L 693.908 -348.5 L 693.908 -414.96 C 693.908 -428.26 698.404 -440.13 707.34 -449.75 C 716.304 -459.36 727.758 -464.45 741.728 -464.45 C 755.302 -464.45 767.009 -459.36 776.794 -449.75 C 786.579 -440.13 791.471 -428.26 791.471 -414.96 L 791.471 -348.5 L 857.926 -348.5 C 871.048 -348.5 882.331 -343.7 891.804 -334.09 C 901.278 -324.47 906 -312.87 906 -299.3 C 906 -286.01 901.278 -274.7 891.804 -265.08 C 882.331 -255.75 871.048 -250.94 857.926 -250.94 L 791.471 -250.94 L 791.471 -184.49 C 791.471 -170.92 786.777 -159.31 777.331 -149.42 C 767.914 -139.81 756.207 -135 742.237 -135 C 728.268 -135 716.729 -139.81 707.595 -149.42 C 698.49 -159.31 693.908 -170.92 693.908 -184.49 L 693.908 -250.94 Z"/>
</svg>