<?xml version="1.0" encoding="utf-8"?>
<svg xmlns="http://www.w3.org/2000/svg" height="48" viewBox="0 -960 960 960" width="48">
  <path d="M 101.82 -135 C 88.607 -135 77.5 -139.56 68.5 -148.68 C 59.5 -157.793 55 -168.96 55 -182.18 C 55 -195.393 59.56 -206.5 68.68 -215.5 C 77.793 -224.5 88.96 -229 102.18 -229 C 115.393 -229 126.5 -224.44 135.5 -215.32 C 144.5 -206.207 149 -195.04 149 -181.82 C 149 -168.607 144.44 -157.5 135.32 -148.5 C 126.207 -139.5 115.04 -135 101.82 -135 Z M 265.74 -135 C 252.58 -135 241.5 -139.56 232.5 -148.68 C 223.5 -157.793 219 -168.96 219 -182.18 C 219 -195.393 223.56 -206.5 232.68 -215.5 C 241.793 -224.5 252.93 -229 266.09 -229 C 279.243 -229 290.517 -224.44 299.91 -215.32 C 309.303 -206.207 314 -195.04 314 -181.82 C 314 -168.607 309.247 -157.5 299.74 -148.5 C 290.227 -139.5 278.893 -135 265.74 -135 Z M 430.82 -135 C 417.607 -135 406.5 -139.56 397.5 -148.68 C 388.5 -157.793 384 -168.96 384 -182.18 C 384 -195.393 388.56 -206.5 397.68 -215.5 C 406.793 -224.5 417.96 -229 431.18 -229 C 444.393 -229 455.5 -224.44 464.5 -215.32 C 473.5 -206.207 478 -195.04 478 -181.82 C 478 -168.607 473.44 -157.5 464.32 -148.5 C 455.207 -139.5 444.04 -135 430.82 -135 Z M 101.82 -299 C 88.607 -299 77.5 -303.56 68.5 -312.68 C 59.5 -321.793 55 -332.93 55 -346.09 C 55 -359.243 59.56 -370.517 68.68 -379.91 C 77.793 -389.303 88.96 -394 102.18 -394 C 115.393 -394 126.5 -389.247 135.5 -379.74 C 144.5 -370.227 149 -358.893 149 -345.74 C 149 -332.58 144.44 -321.5 135.32 -312.5 C 126.207 -303.5 115.04 -299 101.82 -299 Z M 101.82 -464 C 88.607 -464 77.5 -468.56 68.5 -477.68 C 59.5 -486.793 55 -497.96 55 -511.18 C 55 -524.393 59.56 -535.5 68.68 -544.5 C 77.793 -553.5 88.96 -558 102.18 -558 C 115.393 -558 126.5 -553.44 135.5 -544.32 C 144.5 -535.207 149 -524.04 149 -510.82 C 149 -497.607 144.44 -486.5 135.32 -477.5 C 126.207 -468.5 115.04 -464 101.82 -464 Z M 482 -661 L 482 -778 C 482 -791.087 486.543 -802.357 495.63 -811.81 C 504.71 -821.27 515.833 -826 529 -826 L 811 -826 C 837.307 -826 859.717 -816.743 878.23 -798.23 C 896.743 -779.717 906 -757.307 906 -731 L 906 -614 C 906 -600.833 901.27 -589.71 891.81 -580.63 C 882.357 -571.543 871.087 -567 858 -567 L 577 -567 C 550.193 -567 527.657 -576.033 509.39 -594.1 C 491.13 -612.167 482 -634.467 482 -661 Z M 101.82 -628 C 88.607 -628 77.5 -632.543 68.5 -641.63 C 59.5 -650.71 55 -661.833 55 -675 L 55 -755 C 55 -774.173 62 -790.8 76 -804.88 C 90 -818.96 106.547 -826 125.64 -826 L 200 -826 C 213.087 -826 224.357 -821.247 233.81 -811.74 C 243.27 -802.227 248 -790.893 248 -777.74 C 248 -764.58 243.27 -753.5 233.81 -744.5 C 224.357 -735.5 213.087 -731 200 -731 L 149 -731 L 149 -675 C 149 -661.833 144.44 -650.71 135.32 -641.63 C 126.207 -632.543 115.04 -628 101.82 -628 Z M 364.82 -731 C 351.607 -731 340.5 -735.56 331.5 -744.68 C 322.5 -753.793 318 -764.93 318 -778.09 C 318 -791.243 322.56 -802.517 331.68 -811.91 C 340.793 -821.303 351.96 -826 365.18 -826 C 378.393 -826 389.5 -821.247 398.5 -811.74 C 407.5 -802.227 412 -790.893 412 -777.74 C 412 -764.58 407.44 -753.5 398.32 -744.5 C 389.207 -735.5 378.04 -731 364.82 -731 Z M 626.039 -250.99 C 612.939 -250.99 601.66 -255.39 592.199 -265.21 C 582.72 -274.41 577.959 -285.81 577.959 -299.41 C 577.959 -312.61 582.72 -324.19 592.199 -333.8 C 601.66 -343.8 612.939 -348.6 626.039 -348.6 L 693.921 -348.6 L 693.921 -414.99 C 693.921 -428.21 698.4 -440.2 707.34 -449.81 C 716.299 -459.41 727.761 -464.4 741.741 -464.4 C 755.3 -464.4 767.019 -459.41 776.799 -449.81 C 786.581 -440.2 791.479 -428.21 791.479 -414.99 L 791.479 -348.6 L 857.92 -348.6 C 871.06 -348.6 882.339 -343.8 891.8 -334.2 C 901.279 -324.41 906 -312.79 906 -299.41 C 906 -286 901.279 -274.81 891.8 -265.21 C 882.339 -255.79 871.06 -250.99 857.92 -250.99 L 791.479 -250.99 L 791.479 -184.39 C 791.479 -171.01 786.779 -159.39 777.34 -149.39 C 767.92 -139.78 756.22 -135.01 742.24 -135.01 C 728.281 -135.01 716.739 -139.78 707.6 -149.39 C 698.499 -159.39 693.921 -171.01 693.921 -184.39 L 693.921 -250.99 Z"/>
</svg>