<?xml version="1.0" encoding="utf-8"?>
<svg xmlns="http://www.w3.org/2000/svg" height="48" viewBox="0 -960 960 960" width="48">
  <path d="M 515.744 -306.33 C 478.518 -306.33 443.937 -321.21 417.762 -346.71 C 392.49 -373.02 377.811 -407.4 377.811 -444.27 C 377.811 -481 392.557 -515.45 417.83 -541.76 C 443.977 -567.24 478.489 -582.19 515.744 -582.19 C 552.595 -582.19 587.03 -567.2 613.351 -541.74 C 638.857 -515.43 653.676 -481.03 653.676 -444.27 C 653.676 -407.36 638.791 -372.9 613.287 -346.59 C 586.937 -321.12 552.567 -306.33 515.744 -306.33 Z M 535.603 -450.77 L 535.603 -506.02 C 535.179 -512.3 532.288 -519.01 528.144 -523.58 C 523.457 -527.46 516.633 -530.64 510.772 -530.64 C 504.661 -530.64 497.866 -527.52 493.067 -523.62 C 488.596 -518.79 485.309 -511.48 484.906 -504.74 L 484.906 -447.52 C 484.993 -442.39 486.112 -436.78 487.885 -432.36 C 489.749 -428.1 492.542 -423.7 495.596 -420.22 L 535.098 -379.4 C 539.94 -375.17 546.895 -372.1 552.876 -372.1 C 559.106 -372.1 566.168 -375.66 570.932 -380.4 C 574.666 -385.1 577.268 -391.47 577.88 -397.28 C 577.675 -403.59 574.84 -410.73 570.442 -415.7 L 535.603 -450.77 Z M 281.985 -573.28 C 275.705 -579.77 269.106 -589.05 265.778 -597.23 C 262.479 -605.33 260.416 -616.48 260.416 -625.68 C 260.416 -634.83 262.411 -645.88 265.612 -653.98 C 268.841 -662.14 275.221 -671.44 281.333 -678.01 C 287.829 -684.3 297.113 -690.9 305.288 -694.23 C 313.39 -697.53 324.545 -699.59 333.743 -699.59 C 342.89 -699.59 353.945 -697.6 362.042 -694.4 C 370.211 -691.17 379.509 -684.78 386.084 -678.67 C 392.365 -672.17 398.964 -662.89 402.292 -654.71 C 405.59 -646.61 407.653 -635.46 407.653 -626.26 C 407.653 -617.11 405.659 -606.06 402.458 -597.96 C 399.229 -589.8 392.849 -580.5 386.737 -573.93 C 380.24 -567.64 370.955 -561.04 362.781 -557.71 C 354.678 -554.41 343.524 -552.35 334.326 -552.35 C 325.179 -552.35 314.124 -554.34 306.027 -557.55 C 297.858 -560.78 288.56 -567.16 281.985 -573.28 Z M 439.485 -113.75 L 112.123 -441.11 C 101.557 -451.86 93.514 -464.29 87.993 -478.4 C 82.471 -492.51 79.711 -507.09 79.711 -522.14 L 79.711 -766.85 C 79.711 -798.45 90.743 -825.26 112.804 -847.28 C 134.856 -869.29 161.638 -880.29 193.153 -880.29 L 437.865 -880.29 C 452.915 -880.29 467.494 -877.53 481.605 -872.01 C 495.715 -866.49 508.145 -858.44 518.895 -847.88 L 846.257 -520.52 C 868.945 -498.1 880.289 -471.16 880.289 -439.7 C 880.289 -408.23 868.945 -381.15 846.257 -358.46 L 601.546 -113.75 C 579.128 -91.058 552.187 -79.708 520.726 -79.708 C 489.254 -79.708 462.174 -91.058 439.485 -113.75 Z M 187.854 -495.76 L 476.321 -207.31 C 500.729 -182.9 540.302 -182.9 564.71 -207.31 L 752.7 -395.3 C 777.06 -419.65 777.115 -459.13 752.824 -483.56 L 465.977 -772.02 C 454.246 -783.82 438.296 -790.45 421.659 -790.45 L 232.048 -790.45 C 197.53 -790.45 169.548 -762.47 169.548 -727.95 L 169.548 -539.96 C 169.548 -523.38 176.133 -507.49 187.854 -495.76 Z" style=""/>
</svg>