<?xml version="1.0" encoding="utf-8"?>
<svg xmlns="http://www.w3.org/2000/svg" height="48" viewBox="0 -960 960 960" width="48">
  <path d="M 446.418 -312.61 C 436.556 -313.07 425.594 -317.51 418.179 -324.19 C 411.565 -331.5 407.08 -342.49 406.591 -352.43 L 406.591 -396.35 C 406.734 -400.87 408.035 -406.88 409.743 -411.19 C 411.606 -415.09 415.122 -420.19 418.406 -423.83 L 537.598 -542.56 C 542.873 -547.56 549.613 -552.11 555.833 -554.71 C 562.187 -557.37 570 -558.9 576.541 -558.9 C 583.519 -558.9 591.593 -557.03 597.971 -554.36 C 604.065 -551.53 611.103 -546.65 616.314 -542.04 L 637.183 -521.17 C 642.172 -515.94 646.699 -508.94 649.236 -502.55 C 651.425 -496.34 652.882 -488.85 652.882 -482.48 C 652.882 -475.59 651.24 -467.68 648.809 -461.28 C 646.117 -454.93 641.438 -447.86 636.556 -442.54 L 518.24 -323.73 C 514.363 -320.15 509.189 -316.88 505.004 -315.16 C 500.782 -313.7 495.103 -312.7 490.329 -312.61 L 446.418 -312.61 Z M 448.814 -389.7 L 448.814 -368.2 C 448.814 -360.82 454.798 -354.83 462.181 -354.83 L 483.573 -354.83 C 487.134 -354.83 490.548 -356.25 493.057 -358.78 C 501.223 -368.306 462.175 -410.164 452.777 -399.2 C 450.241 -396.69 448.814 -393.27 448.814 -389.7 Z M 281.985 -573.28 C 275.705 -579.77 269.106 -589.05 265.778 -597.23 C 262.479 -605.33 260.416 -616.48 260.416 -625.68 C 260.416 -634.83 262.411 -645.88 265.612 -653.98 C 268.841 -662.14 275.221 -671.44 281.333 -678.01 C 287.829 -684.3 297.113 -690.9 305.288 -694.23 C 313.39 -697.53 324.545 -699.59 333.743 -699.59 C 342.89 -699.59 353.945 -697.6 362.042 -694.4 C 370.211 -691.17 379.509 -684.78 386.084 -678.67 C 392.365 -672.17 398.964 -662.89 402.292 -654.71 C 405.59 -646.61 407.653 -635.46 407.653 -626.26 C 407.653 -617.11 405.659 -606.06 402.458 -597.96 C 399.229 -589.8 392.849 -580.5 386.737 -573.93 C 380.24 -567.64 370.955 -561.04 362.781 -557.71 C 354.678 -554.41 343.524 -552.35 334.326 -552.35 C 325.179 -552.35 314.124 -554.34 306.027 -557.55 C 297.858 -560.78 288.56 -567.16 281.985 -573.28 Z M 439.485 -113.75 L 112.123 -441.11 C 101.557 -451.86 93.514 -464.29 87.993 -478.4 C 82.471 -492.51 79.711 -507.09 79.711 -522.14 L 79.711 -766.85 C 79.711 -798.45 90.743 -825.26 112.804 -847.28 C 134.856 -869.29 161.638 -880.29 193.153 -880.29 L 437.865 -880.29 C 452.915 -880.29 467.494 -877.53 481.605 -872.01 C 495.715 -866.49 508.145 -858.44 518.895 -847.88 L 846.257 -520.52 C 868.945 -498.1 880.289 -471.16 880.289 -439.7 C 880.289 -408.23 868.945 -381.15 846.257 -358.46 L 601.546 -113.75 C 579.128 -91.058 552.187 -79.708 520.726 -79.708 C 489.254 -79.708 462.174 -91.058 439.485 -113.75 Z M 187.854 -495.76 L 476.321 -207.31 C 500.729 -182.9 540.302 -182.9 564.71 -207.31 L 752.7 -395.3 C 777.06 -419.65 777.115 -459.13 752.824 -483.56 L 465.977 -772.02 C 454.246 -783.82 438.296 -790.45 421.659 -790.45 L 232.048 -790.45 C 197.53 -790.45 169.548 -762.47 169.548 -727.95 L 169.548 -539.96 C 169.548 -523.38 176.133 -507.49 187.854 -495.76 Z" style=""/>
</svg>