<?xml version="1.0" encoding="utf-8"?>
<svg xmlns="http://www.w3.org/2000/svg" height="48" viewBox="0 -960 960 960" width="48">
  <path d="M 428.147 -395.94 C 417.339 -395.94 408.017 -399.68 400.198 -407.63 C 392.373 -415.32 388.45 -424.9 388.447 -435.88 C 388.447 -447.08 392.373 -456.43 400.193 -464.61 C 408.019 -472.55 417.338 -476.51 428.146 -476.51 L 484.201 -476.51 L 484.197 -531.39 C 484.201 -542.61 487.914 -552.19 495.292 -560.13 C 502.695 -568.3 512.154 -572.26 523.692 -572.26 C 534.898 -572.26 544.568 -568.3 552.652 -560.13 C 560.732 -552.19 564.771 -542.61 564.774 -531.39 L 564.771 -476.51 L 619.654 -476.51 C 630.489 -476.51 639.808 -472.55 647.633 -464.61 C 655.451 -456.67 659.354 -447.08 659.354 -435.88 C 659.356 -424.9 655.45 -415.56 647.632 -407.62 C 639.806 -399.92 630.49 -395.94 619.656 -395.94 L 564.772 -395.94 L 564.769 -341.06 C 564.772 -329.84 560.896 -320.28 553.096 -312.34 C 545.314 -304.16 535.648 -300.19 524.109 -300.19 C 512.571 -300.19 503.043 -304.16 495.499 -312.34 C 487.981 -320.28 484.202 -329.85 484.199 -341.06 L 484.202 -395.94 L 428.147 -395.94 Z M 439.485 -113.75 L 112.123 -441.11 C 101.556 -451.86 93.514 -464.29 87.993 -478.4 C 82.471 -492.51 79.711 -507.09 79.711 -522.14 L 79.711 -766.85 C 79.711 -798.45 90.743 -825.26 112.804 -847.28 C 134.856 -869.29 161.638 -880.29 193.153 -880.29 L 437.864 -880.29 C 452.914 -880.29 467.494 -877.53 481.606 -872.01 C 495.716 -866.49 508.145 -858.44 518.895 -847.88 L 846.257 -520.52 C 868.945 -498.1 880.289 -471.16 880.288 -439.7 C 880.289 -408.23 868.945 -381.15 846.257 -358.46 L 601.546 -113.75 C 579.128 -91.057 552.187 -79.708 520.726 -79.708 C 489.254 -79.708 462.173 -91.058 439.485 -113.75 Z M 187.854 -495.76 L 476.32 -207.31 C 500.729 -182.9 540.302 -182.9 564.71 -207.31 L 752.7 -395.3 C 777.06 -419.65 777.114 -459.13 752.824 -483.56 L 465.977 -772.02 C 454.246 -783.82 438.296 -790.45 421.66 -790.45 L 232.047 -790.45 C 197.53 -790.45 169.548 -762.47 169.548 -727.95 L 169.548 -539.96 C 169.549 -523.38 176.133 -507.49 187.854 -495.76 Z M 281.985 -573.28 C 275.705 -579.77 269.106 -589.05 265.778 -597.23 C 262.479 -605.33 260.416 -616.48 260.416 -625.68 C 260.416 -634.83 262.411 -645.88 265.612 -653.98 C 268.841 -662.14 275.221 -671.44 281.333 -678.01 C 287.828 -684.3 297.113 -690.9 305.288 -694.23 C 313.39 -697.53 324.545 -699.59 333.743 -699.59 C 342.89 -699.59 353.945 -697.6 362.043 -694.4 C 370.211 -691.17 379.508 -684.78 386.084 -678.67 C 392.365 -672.17 398.964 -662.89 402.292 -654.71 C 405.59 -646.61 407.653 -635.46 407.653 -626.26 C 407.653 -617.11 405.659 -606.06 402.458 -597.96 C 399.23 -589.8 392.849 -580.5 386.737 -573.93 C 380.24 -567.64 370.955 -561.04 362.781 -557.71 C 354.678 -554.41 343.524 -552.35 334.326 -552.35 C 325.179 -552.35 314.124 -554.34 306.026 -557.55 C 297.858 -560.78 288.56 -567.16 281.985 -573.28 Z" style="stroke-width: 0.05;"/>
</svg>