<?xml version="1.0" encoding="utf-8"?>
<svg xmlns="http://www.w3.org/2000/svg" height="48" viewBox="0 -960 960 960" width="48">
  <path d="M 298.303 -556.955 C 292.023 -563.451 285.424 -572.732 282.096 -580.907 C 278.797 -589.01 276.734 -600.163 276.734 -609.36 C 276.734 -618.508 278.729 -629.562 281.93 -637.657 C 285.159 -645.823 291.539 -655.121 297.651 -661.694 C 304.147 -667.976 313.431 -674.577 321.606 -677.906 C 329.708 -681.206 340.863 -683.27 350.061 -683.27 C 359.208 -683.27 370.263 -681.276 378.36 -678.075 C 386.529 -674.845 395.826 -668.463 402.401 -662.346 C 408.682 -655.849 415.281 -646.567 418.609 -638.392 C 421.907 -630.289 423.97 -619.136 423.97 -609.94 C 423.97 -600.793 421.976 -589.739 418.775 -581.644 C 415.546 -573.477 409.166 -564.179 403.054 -557.605 C 396.557 -551.324 387.273 -544.723 379.099 -541.394 C 370.996 -538.094 359.842 -536.03 350.644 -536.03 C 341.497 -536.03 330.442 -538.024 322.345 -541.225 C 314.176 -544.455 304.878 -550.837 298.303 -556.955 Z M 439.485 -113.75 L 112.124 -441.11 C 101.558 -451.86 93.515 -464.29 87.994 -478.4 C 82.472 -492.51 79.712 -507.09 79.712 -522.14 L 79.712 -766.85 C 79.712 -798.45 90.744 -825.26 112.805 -847.28 C 134.857 -869.29 161.639 -880.29 193.154 -880.29 L 437.865 -880.29 C 452.915 -880.29 467.494 -877.53 481.605 -872.01 C 495.715 -866.49 508.145 -858.44 518.895 -847.88 L 846.256 -520.52 C 868.944 -498.1 880.288 -471.16 880.288 -439.7 C 880.288 -408.23 868.944 -381.15 846.256 -358.46 L 601.545 -113.75 C 579.127 -91.061 552.187 -79.711 520.726 -79.711 C 489.254 -79.711 462.174 -91.061 439.485 -113.75 Z M 187.855 -495.765 L 476.321 -207.305 C 500.729 -182.898 540.302 -182.898 564.709 -207.306 L 752.699 -395.296 C 777.059 -419.655 777.114 -459.132 752.823 -483.56 L 465.977 -772.02 C 454.246 -783.817 438.296 -790.45 421.659 -790.45 L 232.049 -790.45 C 197.531 -790.45 169.549 -762.468 169.549 -727.95 L 169.549 -539.96 C 169.549 -523.384 176.134 -507.486 187.855 -495.765 Z" style=""/>
</svg>