<?xml version="1.0" encoding="utf-8"?>
<svg xmlns="http://www.w3.org/2000/svg" height="48" viewBox="0 -960 960 960" width="48">
  <path d="M 449 -54.5 C 390.333 -54.5 335.167 -65.5 283.5 -87.5 C 231.833 -109.5 186.667 -139.83 148 -178.5 C 109.333 -217.17 79 -262.33 57 -314 C 35 -365.67 24 -420.83 24 -479.5 C 24 -538.17 35 -593.33 57 -645 C 79 -696.67 109.333 -741.83 148 -780.5 C 186.667 -819.17 231.833 -849.67 283.5 -872 C 335.167 -894.33 390.333 -905.5 449 -905.5 C 485.06 -905.5 519.907 -900.67 553.54 -891 C 587.18 -881.33 619.333 -867.17 650 -848.5 C 661.333 -843.83 668.5 -835.17 671.5 -822.5 C 674.5 -809.83 672.333 -798.5 665 -788.5 C 657.667 -777.83 647.5 -771 634.5 -768 C 621.5 -765 609 -765.83 597 -770.5 C 575 -783.83 551.333 -793.83 526 -800.5 C 500.667 -807.17 475 -810.5 449 -810.5 C 356.753 -810.5 278.523 -778.4 214.31 -714.19 C 150.103 -649.98 118 -571.75 118 -479.5 C 118 -387.25 150.137 -309.02 214.41 -244.81 C 278.69 -180.6 357.003 -148.5 449.35 -148.5 C 461.783 -148.5 473.833 -149.33 485.5 -151 C 497.167 -152.67 508.667 -154.83 520 -157.5 C 534 -159.5 547.167 -157.67 559.5 -152 C 571.833 -146.33 580.333 -137.17 585 -124.5 C 589.667 -111.83 589 -99.67 583 -88 C 577 -76.333 568 -69.167 556 -66.5 C 538 -62.5 520.167 -59.5 502.5 -57.5 C 484.833 -55.5 467 -54.5 449 -54.5 Z M 722 -272.5 L 649 -272.5 C 635.833 -272.5 624.71 -277.06 615.63 -286.18 C 606.543 -295.29 602 -306.46 602 -319.68 C 602 -332.89 606.543 -344 615.63 -353 C 624.71 -362 635.833 -366.5 649 -366.5 L 722 -366.5 L 722 -439.5 C 722 -452.67 726.56 -463.79 735.68 -472.88 C 744.793 -481.96 755.96 -486.5 769.18 -486.5 C 782.393 -486.5 793.5 -481.96 802.5 -472.88 C 811.5 -463.79 816 -452.67 816 -439.5 L 816 -366.5 L 889 -366.5 C 902.167 -366.5 913.293 -361.94 922.38 -352.82 C 931.46 -343.71 936 -332.54 936 -319.32 C 936 -306.11 931.46 -295 922.38 -286 C 913.293 -277 902.167 -272.5 889 -272.5 L 816 -272.5 L 816 -199.5 C 816 -186.33 811.44 -175.21 802.32 -166.13 C 793.207 -157.04 782.04 -152.5 768.82 -152.5 C 755.607 -152.5 744.5 -157.04 735.5 -166.13 C 726.5 -175.21 722 -186.33 722 -199.5 L 722 -272.5 Z M 388 -414.5 L 776 -803.5 C 785.04 -812.17 795.967 -816.5 808.78 -816.5 C 821.593 -816.5 832.667 -812 842 -803 C 851.333 -793.33 856 -782.17 856 -769.5 C 856 -756.83 851.333 -745.83 842 -736.5 L 422 -316.5 C 412 -307.17 400.5 -302.5 387.5 -302.5 C 374.5 -302.5 363.333 -307.17 354 -316.5 L 243 -428.5 C 234.333 -437.17 230.167 -447.83 230.5 -460.5 C 230.833 -473.17 235.28 -484.17 243.84 -493.5 C 253.067 -502.17 264.233 -506.5 277.34 -506.5 C 290.447 -506.5 301.333 -502.17 310 -493.5 L 388 -414.5 Z"/>
</svg>