<?xml version="1.0" encoding="utf-8"?>
<svg viewBox="0 0 22 22" xmlns="http://www.w3.org/2000/svg">
  <path d="M 15.971 6.916 C 15.967 6.918 15.964 6.921 15.96 6.923 C 15.87 7.018 15.811 7.123 15.79 7.233 C 15.754 7.424 15.634 7.639 15.524 7.711 C 15.382 7.804 15.401 7.893 15.588 8.016 C 16.107 8.354 16.686 8.202 17.288 7.567 C 17.958 6.86 18.044 6.524 17.549 6.455 C 17.543 6.457 17.537 6.458 17.531 6.459 L 16.884 6.577 C 16.578 6.629 16.187 6.773 15.984 6.907 C 15.98 6.91 15.975 6.913 15.971 6.916 Z M 5.982 6.899 C 5.811 6.771 5.432 6.631 5.118 6.578 L 4.469 6.459 C 4.463 6.458 4.457 6.457 4.451 6.455 C 3.956 6.524 4.042 6.86 4.712 7.567 C 5.314 8.202 5.893 8.354 6.412 8.016 C 6.599 7.893 6.618 7.804 6.476 7.711 C 6.366 7.639 6.246 7.424 6.21 7.233 C 6.192 7.138 6.145 7.047 6.074 6.962 C 6.043 6.941 6.012 6.92 5.982 6.899 Z M 8.711 11.394 C 8.627 11.348 7.732 10.769 7.458 10.458 C 7.327 10.304 7.193 10.111 7.116 9.959 C 7.074 9.872 7.029 9.741 7.014 9.644 C 7.009 9.502 7.078 9.275 7.15 9.159 C 7.175 9.122 7.209 9.092 7.249 9.073 C 7.423 8.998 7.747 8.968 7.978 9.021 C 8.168 9.069 8.423 9.155 8.67 9.255 C 9.022 9.4 9.308 9.549 9.486 9.703 C 9.692 9.907 9.824 10.225 9.824 10.473 C 9.824 10.641 9.773 10.855 9.714 10.991 C 9.632 11.15 9.44 11.339 9.292 11.418 C 9.277 11.426 9.26 11.432 9.243 11.436 C 9.104 11.467 8.854 11.453 8.711 11.394 Z M 12.188 10.031 C 12.339 9.791 12.887 9.437 13.343 9.247 C 13.569 9.152 13.817 9.065 14.01 9.015 C 14.242 8.962 14.579 8.995 14.765 9.084 C 14.802 9.103 14.833 9.132 14.856 9.166 C 14.928 9.283 14.995 9.516 14.989 9.659 C 14.972 9.753 14.926 9.881 14.884 9.965 C 14.807 10.117 14.672 10.308 14.539 10.46 C 14.265 10.77 13.429 11.315 13.371 11.36 C 13.234 11.45 12.974 11.504 12.834 11.486 C 12.617 11.427 12.314 11.162 12.187 10.921 C 12.179 10.9 12.175 10.888 12.17 10.87 C 12.109 10.646 12.108 10.281 12.17 10.074 C 12.174 10.059 12.181 10.045 12.188 10.031 Z M 8.449 14.426 C 8.635 14.319 8.931 14.254 9.196 14.254 C 9.524 14.254 9.971 14.128 10.222 13.939 C 10.504 13.743 10.807 13.572 11.092 13.572 C 11.376 13.572 11.678 13.743 11.96 13.938 C 12.212 14.128 12.66 14.254 12.986 14.254 C 13.251 14.254 13.548 14.319 13.734 14.426 C 13.765 14.444 13.796 14.465 13.826 14.489 C 14.039 14.269 14.311 14.055 14.55 13.929 C 15.001 13.677 15.525 13.231 15.693 12.961 C 16.042 12.274 16.259 10.057 16.018 9.517 C 15.86 9.256 14.865 8.354 13.822 7.529 C 12.574 6.544 11.792 5.945 11.009 5.945 C 10.226 5.945 9.441 6.544 8.188 7.529 C 7.139 8.353 6.14 9.255 5.982 9.516 C 5.739 10.061 5.959 12.276 6.314 12.973 C 6.48 13.246 6.933 13.645 7.295 13.835 C 7.614 13.992 7.9 14.192 8.131 14.397 C 8.206 14.463 8.259 14.51 8.296 14.541 C 8.346 14.495 8.397 14.456 8.449 14.426 Z M 9.873 20.309 C 9.605 19.876 9.482 19.603 9.431 19.459 C 9.432 19.469 9.433 19.479 9.434 19.49 C 9.272 19.672 8.923 19.923 8.7 19.923 C 8.432 19.923 7.794 19.212 7.329 18.564 C 7.052 18.175 6.861 17.941 6.725 17.811 C 6.723 17.823 6.72 17.837 6.718 17.851 C 6.692 17.984 6.648 18.174 6.571 18.291 C 6.539 18.34 6.449 18.432 6.382 18.471 C 6.303 18.517 6.121 18.552 6.028 18.538 C 5.899 18.518 5.728 18.402 5.663 18.33 C 5.509 18.161 5.29 17.745 4.936 17.055 C 4.539 16.277 4.215 15.696 4.187 15.736 C 4.162 15.693 4.029 15.733 3.849 15.826 C 3.701 15.892 3.527 15.951 3.402 15.978 C 3.256 16.01 2.953 15.939 2.748 15.842 C 2.652 15.614 2.602 15.199 2.659 14.89 C 2.714 14.591 2.803 14.186 2.91 13.761 C 3.104 12.997 3.179 12.628 3.159 12.444 C 3.075 12.44 2.96 12.451 2.764 12.483 C 2.48 12.528 2.218 12.548 2.045 12.512 C 1.923 12.487 1.729 12.383 1.645 12.278 C 1.557 12.17 1.5 11.961 1.5 11.849 C 1.5 11.596 2.073 10.498 2.701 9.436 C 3.231 8.541 3.488 8.096 3.589 7.829 C 3.646 7.678 3.681 7.798 3.583 7.66 C 3.388 7.337 3.275 6.919 3.303 6.592 C 3.331 6.264 3.494 5.884 3.703 5.621 C 4.069 5.161 4.776 4.781 5.523 4.72 C 5.281 4.415 5.029 4.013 5.029 3.815 C 5.029 3.705 5.117 3.513 5.182 3.448 C 5.229 3.401 5.323 3.345 5.367 3.327 C 5.425 3.304 5.518 3.285 5.572 3.28 C 5.657 3.272 5.784 3.273 5.903 3.281 C 6.13 3.295 6.449 3.338 6.781 3.4 L 7.178 3.474 C 7.128 3.259 7.075 3.017 7.039 2.836 L 6.938 2.334 C 6.902 2.154 6.967 1.968 7.109 1.851 C 7.25 1.733 7.445 1.703 7.615 1.772 L 8.728 2.221 L 9.487 2.528 L 9.568 2.422 C 9.721 2.224 9.968 1.792 10.122 1.451 C 10.212 1.255 10.318 1.058 10.404 0.923 C 10.501 0.773 10.778 0.5 11 0.5 C 11.222 0.5 11.499 0.773 11.596 0.923 C 11.682 1.058 11.788 1.255 11.878 1.451 C 12.032 1.792 12.279 2.224 12.432 2.422 L 12.513 2.528 L 13.272 2.221 L 14.385 1.772 C 14.555 1.703 14.75 1.733 14.891 1.851 C 15.033 1.968 15.098 2.154 15.062 2.334 L 14.961 2.836 C 14.904 3.118 14.806 3.556 14.743 3.806 C 14.695 3.893 14.647 3.964 14.605 4.019 C 14.8 3.864 15.209 3.594 15.963 3.227 C 16.138 3.191 16.37 3.174 16.517 3.218 C 16.626 3.252 16.809 3.387 16.873 3.501 C 16.932 3.608 16.956 3.812 16.938 3.916 C 16.903 4.122 16.718 4.414 16.458 4.732 C 17.215 4.819 17.913 5.155 18.285 5.595 C 18.506 5.856 18.678 6.241 18.707 6.575 C 18.735 6.906 18.618 7.329 18.417 7.66 C 18.319 7.798 18.354 7.678 18.411 7.829 C 18.512 8.096 18.768 8.541 19.299 9.436 C 19.927 10.498 20.5 11.596 20.5 11.849 C 20.5 11.961 20.443 12.17 20.355 12.278 C 20.271 12.383 20.077 12.487 19.955 12.512 C 19.782 12.548 19.52 12.528 19.236 12.483 C 19.04 12.451 18.925 12.44 18.841 12.444 C 18.821 12.628 18.896 12.997 19.09 13.761 C 19.197 14.186 19.286 14.591 19.341 14.89 C 19.398 15.199 19.348 15.614 19.251 15.842 C 19.047 15.939 18.744 16.01 18.598 15.978 C 18.473 15.951 18.299 15.892 18.151 15.826 C 17.97 15.733 17.837 15.693 17.813 15.736 C 17.785 15.695 17.461 16.277 17.064 17.055 C 16.71 17.745 16.491 18.161 16.337 18.33 C 16.272 18.402 16.101 18.518 15.972 18.538 C 15.879 18.552 15.697 18.517 15.618 18.471 C 15.551 18.431 15.461 18.339 15.429 18.291 C 15.352 18.174 15.308 17.984 15.282 17.851 C 15.28 17.837 15.277 17.823 15.275 17.811 C 15.139 17.941 14.948 18.175 14.671 18.564 C 14.206 19.212 13.568 19.923 13.3 19.923 C 13.077 19.923 12.728 19.672 12.566 19.49 C 12.567 19.479 12.568 19.469 12.569 19.459 C 12.518 19.603 12.395 19.876 12.127 20.309 C 11.778 20.85 11.25 21.5 11 21.5 C 10.75 21.5 10.223 20.852 9.875 20.311 C 9.874 20.31 9.874 20.309 9.873 20.309 Z"/>
</svg>