<?xml version="1.0" encoding="utf-8"?>
<svg viewBox="0 0 22 22" xmlns="http://www.w3.org/2000/svg">
  <path d="M 14.615 4.674 L 14.615 4.935 C 15.285 4.496 15.743 4.243 16.874 4.222 C 17.965 4.242 19.039 4.702 19.75 5.413 C 20.461 6.124 20.941 7.198 20.941 8.288 C 20.941 9.379 20.461 10.453 19.75 11.164 C 19.039 11.875 17.964 12.335 16.873 12.355 C 15.742 12.333 15.285 12.08 14.615 11.642 L 14.615 11.903 C 14.615 12.153 14.412 12.355 14.163 12.355 L 13.259 12.355 C 13.01 12.355 12.807 12.153 12.807 11.903 L 12.807 4.674 C 12.807 4.424 13.01 4.222 13.259 4.222 L 14.163 4.222 C 14.412 4.222 14.615 4.424 14.615 4.674 Z M 15.276 6.691 C 14.843 7.124 14.615 7.632 14.615 8.288 C 14.615 8.945 14.843 9.452 15.276 9.886 C 15.71 10.32 16.218 10.548 16.874 10.548 C 17.53 10.548 18.038 10.32 18.472 9.886 C 18.906 9.452 19.133 8.945 19.133 8.288 C 19.133 7.632 18.906 7.124 18.472 6.691 C 18.038 6.257 17.53 6.029 16.874 6.029 C 16.218 6.029 15.71 6.257 15.276 6.691 Z M 7.385 11.261 L 7.385 11 C 7.385 10.75 7.588 10.548 7.837 10.548 L 8.741 10.548 C 8.99 10.548 9.193 10.75 9.193 11 L 9.193 18.229 C 9.193 18.479 8.99 18.681 8.741 18.681 L 7.837 18.681 C 7.588 18.681 7.385 18.479 7.385 18.229 L 7.385 17.968 C 6.715 18.406 6.257 18.66 5.126 18.681 C 4.035 18.661 2.961 18.201 2.25 17.49 C 1.539 16.779 1.059 15.705 1.059 14.614 C 1.059 13.524 1.539 12.45 2.25 11.739 C 2.961 11.028 4.036 10.568 5.127 10.548 C 6.258 10.569 6.715 10.822 7.385 11.261 Z M 3.528 13.017 C 3.094 13.45 2.867 13.958 2.867 14.614 C 2.867 15.271 3.094 15.778 3.528 16.212 C 3.962 16.646 4.47 16.874 5.126 16.874 C 5.782 16.874 6.29 16.646 6.724 16.212 C 7.157 15.778 7.385 15.271 7.385 14.614 C 7.385 13.958 7.157 13.45 6.724 13.017 C 6.29 12.583 5.782 12.355 5.126 12.355 C 4.47 12.355 3.962 12.583 3.528 13.017 Z M 11.904 3.77 L 11.904 13.259 L 19.585 13.259 C 19.835 13.259 20.037 13.461 20.037 13.711 L 20.037 14.614 C 20.037 14.864 19.835 15.066 19.585 15.066 L 11.904 15.066 L 11.904 18.229 C 11.904 18.479 11.701 18.681 11.452 18.681 L 10.548 18.681 C 10.299 18.681 10.096 18.479 10.096 18.229 L 10.096 3.77 C 10.096 3.52 10.299 3.318 10.548 3.318 L 11.452 3.318 C 11.701 3.318 11.904 3.52 11.904 3.77 Z"/>
</svg>