<?xml version="1.0" encoding="utf-8"?>
<svg viewBox="0 0 22 22" xmlns="http://www.w3.org/2000/svg">
  <path d="M 4 11 L 4 19 C 4 19.276 3.776 19.5 3.5 19.5 L 2.5 19.5 C 2.224 19.5 2 19.276 2 19 L 2 11 C 2 10.724 2.224 10.5 2.5 10.5 L 3.5 10.5 C 3.776 10.5 4 10.724 4 11 Z M 7.5 10.5 C 8.431 10.522 9.369 10.919 9.975 11.525 C 10.581 12.131 10.978 13.069 11 14 L 11 19 C 11 19.276 10.776 19.5 10.5 19.5 L 9.5 19.5 C 9.224 19.5 9 19.276 9 19 L 9 14 C 9.022 13.55 8.86 13.238 8.561 12.939 C 8.262 12.64 7.95 12.478 7.5 12.5 L 7 12.5 L 7 19 C 7 19.276 6.776 19.5 6.5 19.5 L 5.5 19.5 C 5.224 19.5 5 19.276 5 19 L 5 11 C 5 10.724 5.224 10.5 5.5 10.5 L 7.5 10.5 Z M 14 11 L 14 19 C 14 19.276 13.776 19.5 13.5 19.5 L 12.5 19.5 C 12.224 19.5 12 19.276 12 19 L 12 11 C 12 10.724 12.224 10.5 12.5 10.5 L 13.5 10.5 C 13.776 10.5 14 10.724 14 11 Z M 17 11 L 17 11.289 C 17.742 10.804 18.247 10.524 19.499 10.5 C 19.632 10.5 19.759 10.552 19.853 10.646 C 19.947 10.74 20 10.867 20 11 L 20 12 C 20 12.276 19.776 12.5 19.5 12.5 C 18.774 12.478 18.212 12.752 17.732 13.232 C 17.252 13.712 16.978 14.274 17 15 L 17 19 C 17 19.276 16.776 19.5 16.5 19.5 L 15.5 19.5 C 15.224 19.5 15 19.276 15 19 L 15 11 C 15 10.724 15.224 10.5 15.5 10.5 L 16.5 10.5 C 16.776 10.5 17 10.724 17 11 Z M 9.2 9.4 L 5.2 6.4 C 5.074 6.306 5 6.157 5 6 C 5 5.843 5.074 5.694 5.2 5.6 L 9.2 2.6 C 9.352 2.486 9.554 2.468 9.724 2.553 C 9.893 2.637 10 2.811 10 3 L 10 9 C 10 9.189 9.893 9.363 9.724 9.447 C 9.554 9.532 9.352 9.514 9.2 9.4 Z M 16.8 6.4 L 12.8 9.4 C 12.648 9.514 12.446 9.532 12.276 9.447 C 12.107 9.363 12 9.189 12 9 L 12 3 C 12 2.811 12.107 2.637 12.276 2.553 C 12.446 2.468 12.648 2.486 12.8 2.6 L 16.8 5.6 C 16.926 5.694 17 5.843 17 6 C 17 6.157 16.926 6.306 16.8 6.4 Z"/>
</svg>