<?xml version="1.0" encoding="utf-8"?>
<svg xmlns="http://www.w3.org/2000/svg" height="48" viewBox="0 -960 960 960" width="48">
  <path d="M 181 -448 C 167.833 -448 156.877 -452.56 148.13 -461.68 C 139.377 -470.793 135 -481.96 135 -495.18 C 135 -508.393 139.543 -519.333 148.63 -528 C 157.71 -536.667 168.833 -541 182 -541 L 687 -541 C 736.333 -541 778.5 -523.667 813.5 -489 C 848.5 -454.333 866 -412.333 866 -363 C 866 -313 848.5 -270.333 813.5 -235 C 778.5 -199.667 736.333 -182 687 -182 L 599 -182 L 629 -154 C 632.333 -145.333 633.043 -136.403 631.13 -127.21 C 629.21 -118.023 624.833 -110.023 618 -103.21 C 608 -93.07 595.833 -87.667 581.5 -87 C 567.167 -86.333 555.333 -90.667 546 -100 L 451 -197 C 446.333 -201 442.667 -206.043 440 -212.13 C 437.333 -218.223 436 -224.223 436 -230.13 C 436 -236.71 437.333 -242.833 440 -248.5 C 442.667 -254.167 446.333 -259.333 451 -264 L 548 -362 C 557.867 -372 569.5 -376.333 582.9 -375 C 596.3 -373.667 608.333 -368.053 619 -358.16 C 625.833 -350.933 630.043 -342.933 631.63 -334.16 C 633.21 -325.387 632.667 -316.667 630 -308 L 599 -277 L 687 -277 C 710.473 -277 730.51 -285.333 747.11 -302 C 763.703 -318.667 772 -339.05 772 -363.15 C 772 -386.583 763.703 -406.583 747.11 -423.15 C 730.51 -439.717 710.473 -448 687 -448 Z M 181 -711 C 167.833 -711 156.877 -715.56 148.13 -724.68 C 139.377 -733.793 135 -745.293 135 -759.18 C 135 -772.393 139.543 -783.333 148.63 -792 C 157.71 -800.667 168.833 -805 182 -805 L 779 -805 C 792.167 -805 803.293 -800.607 812.38 -791.82 C 821.46 -783.04 826 -772.04 826 -758.82 C 826 -744.94 821.293 -733.5 811.88 -724.5 C 802.46 -715.5 791.167 -711 778 -711 Z M 307.267 -337.81 C 308.821 -339.44 310.427 -340.81 312.089 -342.18 C 319.719 -347.88 328.575 -351.15 338.848 -351.15 C 339.23 -351.15 339.584 -351.15 339.966 -351.15 C 340.702 -351.15 341.409 -351.15 342.119 -351.15 C 353.562 -350.88 363.481 -346.8 371.981 -338.62 C 372.309 -338.36 372.663 -338.07 372.99 -337.52 C 382.146 -328.55 386.779 -317.37 386.914 -304.29 C 387.05 -291.21 382.665 -280.31 373.726 -271.31 L 327.486 -225.26 L 372.773 -179.76 C 381.983 -170.76 386.833 -159.6 387.378 -147.06 C 387.923 -134.25 383.426 -123.08 373.917 -113.56 C 373.889 -113.56 373.863 -113.56 373.863 -113.56 C 364.625 -104.28 353.345 -99.64 340.075 -99.64 C 327.54 -99.64 316.831 -103.75 307.921 -111.91 C 307.376 -112.19 306.831 -112.73 306.286 -113.28 L 261.025 -158.78 L 215.74 -113.28 C 206.801 -104.55 195.847 -99.92 182.822 -100.19 C 169.88 -100.19 158.79 -104.83 149.579 -114.09 C 149.47 -114.09 149.361 -114.36 149.253 -114.36 C 140.397 -123.08 135.9 -134.25 135.818 -147.06 C 135.738 -158.24 139.116 -167.76 145.655 -175.94 C 146.773 -177.31 147.972 -178.68 149.279 -179.76 L 194.54 -225.26 L 149.062 -270.5 C 140.015 -279.76 135.328 -290.65 135.002 -304.02 C 134.893 -316.82 139.388 -328.26 148.899 -337.81 C 158.408 -347.33 169.771 -351.7 182.522 -351.42 C 195.439 -350.88 206.419 -346.25 215.438 -337.26 C 215.549 -336.99 215.629 -336.99 215.74 -336.99 L 261.025 -291.76 Z"/>
</svg>