<?xml version="1.0" encoding="utf-8"?>
<svg viewBox="0 0 22 22" xmlns="http://www.w3.org/2000/svg">
  <path d="M 7.5 11.789 L 7.5 11.5 C 7.5 11.224 7.724 11 8 11 L 9 11 C 9.276 11 9.5 11.224 9.5 11.5 L 9.5 19.5 C 9.5 19.776 9.276 20 9 20 L 8 20 C 7.724 20 7.5 19.776 7.5 19.5 L 7.5 19.211 C 6.758 19.696 6.252 19.976 5 20 C 3.793 19.978 2.605 19.469 1.818 18.682 C 1.031 17.895 0.5 16.707 0.5 15.5 C 0.5 14.293 1.031 13.105 1.818 12.318 C 2.605 11.531 3.794 11.022 5.001 11 C 6.253 11.024 6.758 11.304 7.5 11.789 Z M 14.5 11.5 L 14.5 11.789 C 15.242 11.304 15.748 11.024 17 11 C 18.207 11.022 19.395 11.531 20.182 12.318 C 20.969 13.105 21.5 14.293 21.5 15.5 C 21.5 16.707 20.969 17.895 20.182 18.682 C 19.395 19.469 18.206 19.978 16.999 20 C 15.747 19.976 15.242 19.696 14.5 19.211 L 14.5 19.5 C 14.5 19.776 14.276 20 14 20 L 13 20 C 12.724 20 12.5 19.776 12.5 19.5 L 12.5 11.5 C 12.5 11.224 12.724 11 13 11 L 14 11 C 14.276 11 14.5 11.224 14.5 11.5 Z M 3.232 13.732 C 2.752 14.212 2.5 14.774 2.5 15.5 C 2.5 16.226 2.752 16.788 3.232 17.268 C 3.712 17.748 4.274 18 5 18 C 5.726 18 6.288 17.748 6.768 17.268 C 7.248 16.788 7.5 16.226 7.5 15.5 C 7.5 14.774 7.248 14.212 6.768 13.732 C 6.288 13.252 5.726 13 5 13 C 4.274 13 3.712 13.252 3.232 13.732 Z M 15.232 13.732 C 14.752 14.212 14.5 14.774 14.5 15.5 C 14.5 16.226 14.752 16.788 15.232 17.268 C 15.712 17.748 16.274 18 17 18 C 17.726 18 18.288 17.748 18.768 17.268 C 19.248 16.788 19.5 16.226 19.5 15.5 C 19.5 14.774 19.248 14.212 18.768 13.732 C 18.288 13.252 17.726 13 17 13 C 16.274 13 15.712 13.252 15.232 13.732 Z M 8.7 8.9 L 4.7 5.9 C 4.574 5.806 4.5 5.657 4.5 5.5 C 4.5 5.343 4.574 5.194 4.7 5.1 L 8.7 2.1 C 8.852 1.986 9.054 1.968 9.224 2.053 C 9.393 2.137 9.5 2.311 9.5 2.5 L 9.5 8.5 C 9.5 8.689 9.393 8.863 9.224 8.947 C 9.054 9.032 8.852 9.014 8.7 8.9 Z M 17.3 5.9 L 13.3 8.9 C 13.148 9.014 12.946 9.032 12.776 8.947 C 12.607 8.863 12.5 8.689 12.5 8.5 L 12.5 2.5 C 12.5 2.311 12.607 2.137 12.776 2.053 C 12.946 1.968 13.148 1.986 13.3 2.1 L 17.3 5.1 C 17.426 5.194 17.5 5.343 17.5 5.5 C 17.5 5.657 17.426 5.806 17.3 5.9 Z"/>
</svg>