<?xml version="1.0" encoding="utf-8"?>
<svg viewBox="0 0 22 22" xmlns="http://www.w3.org/2000/svg">
  <path d="M 8.5 3 L 8.5 4 C 8.5 4.276 8.276 4.5 8 4.5 L 6.5 4.5 L 6.5 17.5 L 8 17.5 C 8.276 17.5 8.5 17.724 8.5 18 L 8.5 19 C 8.5 19.276 8.276 19.5 8 19.5 L 3 19.5 C 2.724 19.5 2.5 19.276 2.5 19 L 2.5 18 C 2.5 17.724 2.724 17.5 3 17.5 L 4.5 17.5 L 4.5 4.5 L 3 4.5 C 2.724 4.5 2.5 4.276 2.5 4 L 2.5 3 C 2.5 2.724 2.724 2.5 3 2.5 L 8 2.5 C 8.276 2.5 8.5 2.724 8.5 3 Z M 9.5 14 L 9.5 14.5 L 17.5 14.5 L 17.5 14 C 17.5 13.724 17.724 13.5 18 13.5 L 19 13.5 C 19.276 13.5 19.5 13.724 19.5 14 L 19.5 16 C 19.5 16.276 19.276 16.5 19 16.5 L 8 16.5 C 7.724 16.5 7.5 16.276 7.5 16 L 7.5 14 C 7.5 13.724 7.724 13.5 8 13.5 L 9 13.5 C 9.276 13.5 9.5 13.724 9.5 14 Z"/>
</svg>