<?xml version="1.0" encoding="utf-8"?>
<svg viewBox="0 0 16 16" xmlns="http://www.w3.org/2000/svg">
  <path d="M 2.549 3.004 L 2.549 12.542 L 6.637 12.542 C 6.888 12.542 7.092 12.746 7.092 12.996 L 7.092 13.905 C 7.092 14.156 6.888 14.359 6.637 14.359 L 1.187 14.359 C 0.936 14.359 0.733 14.156 0.733 13.905 L 0.733 3.004 C 0.733 2.753 0.936 2.549 1.187 2.549 L 2.095 2.549 C 2.346 2.549 2.549 2.753 2.549 3.004 Z M 11.634 2.095 L 11.634 3.004 C 11.634 3.254 11.43 3.458 11.18 3.458 L 8.908 3.458 L 8.908 6.637 C 8.908 6.888 8.705 7.092 8.454 7.092 L 7.546 7.092 C 7.295 7.092 7.092 6.888 7.092 6.637 L 7.092 3.458 L 4.821 3.458 C 4.57 3.458 4.366 3.254 4.366 3.004 L 4.366 2.095 C 4.366 1.844 4.57 1.641 4.821 1.641 L 11.18 1.641 C 11.43 1.641 11.634 1.844 11.634 2.095 Z M 12.088 9.638 L 13.592 8.133 C 13.77 7.955 14.057 7.955 14.235 8.133 L 15.135 9.032 C 15.312 9.21 15.312 9.497 15.135 9.675 L 13.63 11.18 L 15.135 12.684 C 15.312 12.862 15.312 13.149 15.135 13.327 L 14.235 14.226 C 14.057 14.404 13.77 14.404 13.592 14.226 L 12.088 12.721 L 10.584 14.226 C 10.406 14.404 10.118 14.404 9.94 14.226 L 9.041 13.327 C 8.864 13.149 8.864 12.862 9.041 12.684 L 10.546 11.18 L 9.041 9.675 C 8.864 9.497 8.864 9.21 9.041 9.032 L 9.94 8.133 C 10.118 7.955 10.406 7.955 10.584 8.133 L 12.088 9.638 Z"/>
</svg>