<?xml version="1.0" encoding="utf-8"?>
<svg xmlns="http://www.w3.org/2000/svg" height="48" viewBox="0 -960 960 960" width="48">
  <path d="M 258.682 -174.5 C 238.602 -174.5 223.915 -183 214.622 -200 C 205.329 -217 206.015 -233.83 216.682 -250.5 L 369.682 -491.5 L 230.682 -708.5 C 220.682 -724.5 220.172 -741.33 229.152 -759 C 238.132 -776.67 252.549 -785.5 272.402 -785.5 C 281.569 -785.5 289.862 -783.36 297.282 -779.07 C 304.695 -774.78 310.829 -768.93 315.682 -761.5 L 432.178 -577.87 L 548.682 -762.5 C 552.609 -769.1 558.425 -774.58 566.132 -778.95 C 573.845 -783.32 581.569 -785.5 589.302 -785.5 C 609.789 -785.5 624.809 -776.67 634.362 -759 C 643.909 -741.33 643.349 -724.5 632.682 -708.5 L 493.682 -491.5 L 646.682 -250.5 C 657.349 -233.83 657.962 -217 648.522 -200 C 639.089 -183 625.005 -174.5 606.272 -174.5 C 597.152 -174.5 588.572 -176.44 580.532 -180.31 C 572.499 -184.18 566.215 -189.91 561.682 -197.5 L 432.176 -404.12 L 301.682 -197.5 C 297.089 -190.58 290.935 -185.02 283.222 -180.81 C 275.509 -176.6 267.329 -174.5 258.682 -174.5 Z M 804.849 -100.47 L 694.012 -100.47 C 688.998 -100.89 682.76 -103.49 679.015 -106.66 C 675.744 -110.5 673.136 -116.84 672.751 -121.81 L 672.751 -139.13 C 673.133 -142.09 674.629 -146.79 676.697 -151.01 L 677.339 -152.32 L 678.342 -153.43 L 750.869 -233.39 C 758.106 -241.06 762.871 -247.18 765.874 -252.71 C 768.842 -257.71 769.689 -261.18 769.689 -265.57 C 769.689 -272.66 769.089 -275.79 765.51 -278.76 C 762.569 -282.37 759.835 -282.95 753.529 -282.95 C 748.617 -282.95 745.4 -282.41 741.642 -280.52 C 737.84 -278.92 735.799 -277.25 733.488 -274.01 C 729.645 -269.27 723.419 -264.93 717.708 -262.86 C 711.745 -261.36 703.604 -261.84 697.846 -263.66 C 691.705 -266.62 685.762 -272.05 682.576 -277.52 C 680.034 -284.05 680.436 -293.07 683.587 -299.42 C 691.141 -311.44 701.961 -321.72 714 -328.09 C 725.976 -334.09 739.975 -337.58 753.615 -337.58 C 773.26 -337.58 791.524 -330.17 804.745 -317.82 C 817.388 -304.83 825.041 -286.38 825.041 -266.43 C 825.041 -254.12 821.854 -241.21 816.128 -230.51 C 810.665 -220.3 801.907 -208.43 790.877 -196.18 L 751.671 -153.68 L 804.849 -153.68 C 811.403 -153.29 819.022 -150.11 823.822 -145.89 C 828.015 -141.05 831.456 -133.56 831.456 -126.95 C 831.456 -120.38 827.952 -112.87 823.691 -108.09 C 818.819 -103.84 811.332 -100.84 804.849 -100.47 Z"/>
</svg>