<?xml version="1.0" encoding="utf-8"?>
<svg viewBox="0 0 22 22" xmlns="http://www.w3.org/2000/svg">
  <path d="M 10.022 2.352 C 10.087 2.143 10.281 2 10.5 2 L 11.604 2 C 11.762 2 11.91 2.074 12.004 2.201 C 12.099 2.327 12.128 2.49 12.084 2.641 C 12.084 2.641 11.05 6.146 10.016 9.648 C 9.499 11.399 8.982 13.15 8.593 14.462 C 8.399 15.118 8.237 15.664 8.124 16.046 C 8.067 16.237 8.022 16.387 7.991 16.489 C 7.976 16.541 7.964 16.581 7.955 16.608 C 7.951 16.622 7.947 16.634 7.945 16.642 C 7.943 16.647 7.941 16.655 7.939 16.661 C 7.937 16.665 7.933 16.678 7.929 16.686 C 7.925 16.695 7.912 16.725 7.901 16.744 C 7.888 16.767 7.831 16.848 7.776 16.891 C 7.761 16.904 7.735 16.917 7.702 16.93 C 7.702 16.93 7.702 16.93 7.702 16.93 C 7.694 16.933 7.685 16.936 7.677 16.939 C 7.619 16.951 7.534 16.961 7.433 16.97 C 7.399 16.973 7.364 16.976 7.328 16.979 C 7.326 16.979 7.324 16.978 7.322 16.978 C 7.322 16.978 7.322 16.978 7.322 16.978 C 7.32 16.978 7.319 16.977 7.317 16.977 C 7.314 16.976 7.31 16.975 7.307 16.974 C 7.311 16.976 7.315 16.977 7.319 16.978 C 7.319 16.978 7.318 16.978 7.318 16.978 C 7.32 16.979 7.322 16.979 7.324 16.98 C 7.156 16.993 6.977 17.001 6.852 17 C 6.824 17 6.801 17 6.779 17 C 6.735 17 6.691 17 6.651 17 C 6.623 17 6.592 17 6.552 17 C 6.512 17 6.481 17 6.453 17 C 6.413 17 6.369 17 6.325 17 C 6.303 17 6.28 17 6.252 17 C 6.127 17.001 5.948 16.993 5.78 16.98 C 5.782 16.979 5.784 16.979 5.786 16.978 C 5.786 16.978 5.785 16.978 5.785 16.978 C 5.789 16.977 5.793 16.976 5.797 16.974 C 5.794 16.975 5.79 16.976 5.787 16.977 C 5.785 16.977 5.784 16.978 5.782 16.978 C 5.782 16.978 5.782 16.978 5.782 16.978 C 5.78 16.978 5.778 16.979 5.776 16.979 C 5.74 16.976 5.705 16.973 5.671 16.97 C 5.57 16.961 5.485 16.951 5.427 16.939 C 5.419 16.936 5.41 16.933 5.403 16.93 C 5.402 16.93 5.402 16.93 5.402 16.93 C 5.369 16.917 5.343 16.904 5.328 16.891 C 5.273 16.848 5.216 16.767 5.203 16.744 C 5.192 16.725 5.179 16.695 5.175 16.686 C 5.171 16.678 5.167 16.665 5.165 16.661 C 5.163 16.655 5.161 16.647 5.159 16.642 C 5.157 16.634 5.153 16.622 5.149 16.608 C 5.14 16.581 5.128 16.541 5.113 16.489 C 5.082 16.387 5.037 16.237 4.98 16.046 C 4.867 15.664 4.705 15.118 4.511 14.462 C 4.122 13.15 3.605 11.399 3.088 9.648 C 2.054 6.146 1.02 2.641 1.02 2.641 C 0.976 2.49 1.005 2.327 1.1 2.201 C 1.194 2.074 1.342 2 1.5 2 L 2.604 2 C 2.823 2 3.017 2.143 3.082 2.352 L 6.552 13.545 L 10.022 2.352 Z M 15.493 2.318 L 19.011 11.318 C 19.071 11.472 19.051 11.645 18.958 11.782 C 18.865 11.918 18.71 12 18.545 12 L 12.568 12 L 11.114 16.649 C 11.049 16.858 10.856 17 10.637 17 L 9.5 17 C 9.341 17 9.191 16.924 9.097 16.796 C 9.003 16.668 8.975 16.502 9.023 16.35 L 9.066 16.214 L 13.402 2.351 C 13.467 2.142 13.66 2 13.879 2 L 15.027 2 C 15.233 2 15.418 2.126 15.493 2.318 Z M 14.556 5.642 L 13.192 10 L 16.26 10 L 14.556 5.642 Z M 17.5 14.803 L 19.156 13.146 C 19.352 12.951 19.668 12.951 19.864 13.146 L 20.854 14.136 C 21.049 14.332 21.049 14.648 20.854 14.844 L 19.197 16.5 L 20.854 18.156 C 21.049 18.352 21.049 18.668 20.854 18.864 L 19.864 19.854 C 19.668 20.049 19.352 20.049 19.156 19.854 L 17.5 18.197 L 15.844 19.854 C 15.648 20.049 15.332 20.049 15.136 19.854 L 14.146 18.864 C 13.951 18.668 13.951 18.352 14.146 18.156 L 15.803 16.5 L 14.146 14.844 C 13.951 14.648 13.951 14.332 14.146 14.136 L 15.136 13.146 C 15.332 12.951 15.648 12.951 15.844 13.146 L 17.5 14.803 Z"/>
</svg>