<?xml version="1.0" encoding="utf-8"?>
<svg xmlns="http://www.w3.org/2000/svg" viewBox="0 0 16 16">
  <path d="M 5.358 5.448 C 5.455 5.211 5.504 5.088 5.754 4.797 C 6.162 4.353 6.746 4.077 7.302 4.043 C 7.857 4.01 8.471 4.214 8.93 4.606 C 9.374 5.014 9.65 5.598 9.684 6.153 C 9.717 6.708 9.513 7.322 9.121 7.781 C 8.948 7.971 8.733 8.138 8.5 8.266 C 8.512 8.292 8.519 8.321 8.521 8.35 C 8.525 8.416 8.502 8.481 8.458 8.531 L 7.794 9.279 C 7.702 9.382 7.544 9.392 7.441 9.3 L 2.203 4.658 C 2.1 4.567 2.09 4.409 2.182 4.305 L 2.846 3.555 C 2.89 3.506 2.952 3.475 3.018 3.471 C 3.084 3.467 3.149 3.49 3.199 3.534 Z M 4.839 9.909 L 6.698 10.651 C 6.759 10.675 6.809 10.723 6.835 10.784 C 6.861 10.845 6.862 10.914 6.837 10.976 L 6.466 11.904 C 6.442 11.965 6.393 12.015 6.333 12.041 C 6.306 12.052 6.279 12.059 6.251 12.06 C 6.242 12.325 6.19 12.593 6.097 12.833 C 5.864 13.389 5.407 13.847 4.896 14.067 C 4.384 14.287 3.738 14.303 3.173 14.089 C 2.617 13.856 2.159 13.399 1.94 12.888 C 1.72 12.376 1.704 11.729 1.918 11.165 C 2.016 10.927 2.162 10.697 2.338 10.5 C 2.273 10.431 2.251 10.328 2.288 10.235 L 2.659 9.307 C 2.71 9.179 2.856 9.117 2.984 9.168 Z M 13.843 2.531 L 13.233 3.324 C 13.193 3.377 13.133 3.412 13.067 3.42 C 13.001 3.428 12.934 3.41 12.882 3.369 C 12.716 3.228 12.542 3.182 12.327 3.219 C 12.102 3.237 11.958 3.338 11.829 3.505 C 11.7 3.673 11.64 3.838 11.68 4.06 C 11.698 4.285 11.799 4.429 11.966 4.558 C 12.134 4.687 12.299 4.747 12.521 4.707 C 12.737 4.689 12.892 4.599 13.017 4.421 C 13.101 4.312 13.258 4.292 13.367 4.376 L 14.16 4.986 C 14.213 5.026 14.247 5.086 14.256 5.152 C 14.264 5.218 14.246 5.284 14.206 5.337 C 13.845 5.789 13.284 6.111 12.712 6.195 C 12.112 6.261 11.49 6.084 11.05 5.744 C 10.609 5.404 10.281 4.847 10.193 4.251 C 10.127 3.651 10.304 3.03 10.643 2.589 C 10.977 2.156 11.521 1.831 12.107 1.737 C 12.117 1.734 12.127 1.732 12.137 1.731 C 12.198 1.723 12.264 1.718 12.327 1.715 C 12.841 1.701 13.385 1.873 13.798 2.181 C 13.907 2.265 13.927 2.422 13.843 2.531 Z M 6.876 5.793 C 6.727 5.961 6.677 6.125 6.689 6.336 C 6.702 6.547 6.765 6.711 6.941 6.852 C 7.102 7.009 7.273 7.051 7.484 7.039 C 7.696 7.026 7.86 6.963 8.001 6.787 C 8.158 6.626 8.2 6.456 8.188 6.245 C 8.175 6.035 8.112 5.871 7.936 5.73 C 7.775 5.573 7.604 5.522 7.394 5.543 C 7.181 5.547 7.025 5.624 6.876 5.793 Z M 3.589 11.376 C 3.454 11.466 3.367 11.563 3.31 11.721 C 3.217 11.926 3.235 12.101 3.318 12.295 C 3.402 12.489 3.516 12.622 3.73 12.696 C 3.935 12.789 4.109 12.771 4.303 12.688 C 4.497 12.604 4.63 12.49 4.704 12.276 C 4.797 12.071 4.779 11.897 4.696 11.703 C 4.612 11.509 4.497 11.376 4.284 11.302 C 4.192 11.263 4.115 11.248 4.013 11.248 C 3.846 11.241 3.723 11.286 3.589 11.376 Z M 13.085 9.249 C 13.12 9.214 13.157 9.183 13.194 9.154 C 13.366 9.02 13.566 8.95 13.797 8.947 C 13.805 8.947 13.814 8.947 13.822 8.947 C 13.838 8.947 13.855 8.947 13.87 8.948 C 14.128 8.956 14.352 9.05 14.543 9.232 C 14.551 9.239 14.559 9.247 14.566 9.254 C 14.772 9.46 14.877 9.71 14.88 10.004 C 14.883 10.298 14.784 10.546 14.583 10.747 L 13.541 11.788 L 14.561 12.809 C 14.768 13.016 14.878 13.263 14.89 13.55 C 14.902 13.837 14.801 14.088 14.587 14.302 C 14.586 14.302 14.586 14.303 14.585 14.303 C 14.377 14.511 14.124 14.615 13.824 14.616 C 13.542 14.616 13.301 14.525 13.1 14.342 C 13.088 14.33 13.076 14.318 13.063 14.306 L 12.043 13.286 L 11.024 14.306 C 10.822 14.507 10.575 14.607 10.282 14.604 C 9.99 14.602 9.74 14.498 9.533 14.291 C 9.531 14.289 9.528 14.287 9.526 14.284 C 9.326 14.085 9.225 13.839 9.223 13.546 C 9.221 13.295 9.297 13.082 9.444 12.899 C 9.469 12.868 9.497 12.838 9.526 12.809 L 10.546 11.788 L 9.521 10.764 C 9.318 10.561 9.212 10.31 9.205 10.013 C 9.202 9.721 9.303 9.464 9.517 9.249 C 9.732 9.034 9.988 8.935 10.275 8.943 C 10.566 8.955 10.813 9.062 11.016 9.264 C 11.019 9.267 11.021 9.269 11.024 9.271 L 12.043 10.291 Z"/>
</svg>