<?xml version="1.0" encoding="utf-8"?>
<svg xmlns="http://www.w3.org/2000/svg" viewBox="0 0 16 16">
  <path d="M 5.358 5.448 C 5.455 5.211 5.504 5.088 5.754 4.797 C 6.162 4.353 6.746 4.077 7.302 4.043 C 7.857 4.01 8.471 4.214 8.93 4.606 C 9.374 5.014 9.65 5.598 9.684 6.153 C 9.717 6.708 9.513 7.322 9.121 7.781 C 8.948 7.971 8.733 8.138 8.5 8.266 C 8.512 8.292 8.519 8.321 8.521 8.35 C 8.525 8.416 8.502 8.481 8.458 8.531 L 7.794 9.279 C 7.702 9.382 7.544 9.392 7.441 9.3 L 2.203 4.658 C 2.1 4.567 2.09 4.409 2.182 4.305 L 2.846 3.555 C 2.89 3.506 2.952 3.475 3.018 3.471 C 3.084 3.467 3.149 3.49 3.199 3.534 Z M 4.839 9.909 L 6.698 10.651 C 6.759 10.675 6.809 10.723 6.835 10.784 C 6.861 10.845 6.862 10.914 6.837 10.976 L 6.466 11.904 C 6.442 11.965 6.393 12.015 6.333 12.041 C 6.306 12.052 6.279 12.059 6.251 12.06 C 6.242 12.325 6.19 12.593 6.097 12.833 C 5.864 13.389 5.407 13.847 4.896 14.067 C 4.384 14.287 3.738 14.303 3.173 14.089 C 2.617 13.856 2.159 13.399 1.94 12.888 C 1.72 12.376 1.704 11.729 1.918 11.165 C 2.016 10.927 2.162 10.697 2.338 10.5 C 2.273 10.431 2.251 10.328 2.288 10.235 L 2.659 9.307 C 2.71 9.179 2.856 9.117 2.984 9.168 Z M 13.843 2.531 L 13.233 3.324 C 13.193 3.377 13.133 3.412 13.067 3.42 C 13.001 3.428 12.934 3.41 12.882 3.369 C 12.716 3.228 12.542 3.182 12.327 3.219 C 12.102 3.237 11.958 3.338 11.829 3.505 C 11.7 3.673 11.64 3.838 11.68 4.06 C 11.698 4.285 11.799 4.429 11.966 4.558 C 12.134 4.687 12.299 4.747 12.521 4.707 C 12.737 4.689 12.892 4.599 13.017 4.421 C 13.101 4.312 13.258 4.292 13.367 4.376 L 14.16 4.986 C 14.213 5.026 14.247 5.086 14.256 5.152 C 14.264 5.218 14.246 5.284 14.206 5.337 C 13.845 5.789 13.284 6.111 12.712 6.195 C 12.112 6.261 11.49 6.084 11.05 5.744 C 10.609 5.404 10.281 4.847 10.193 4.251 C 10.127 3.651 10.304 3.03 10.643 2.589 C 10.977 2.156 11.521 1.831 12.107 1.737 C 12.117 1.734 12.127 1.732 12.137 1.731 C 12.198 1.723 12.264 1.718 12.327 1.715 C 12.841 1.701 13.385 1.873 13.798 2.181 C 13.907 2.265 13.927 2.422 13.843 2.531 Z M 6.876 5.793 C 6.727 5.961 6.677 6.125 6.689 6.336 C 6.702 6.547 6.765 6.711 6.941 6.852 C 7.102 7.009 7.273 7.051 7.484 7.039 C 7.696 7.026 7.86 6.963 8.001 6.787 C 8.158 6.626 8.2 6.456 8.188 6.245 C 8.175 6.035 8.112 5.871 7.936 5.73 C 7.775 5.573 7.604 5.522 7.394 5.543 C 7.181 5.547 7.025 5.624 6.876 5.793 Z M 3.589 11.376 C 3.454 11.466 3.367 11.563 3.31 11.721 C 3.217 11.926 3.235 12.101 3.318 12.295 C 3.402 12.489 3.516 12.622 3.73 12.696 C 3.935 12.789 4.109 12.771 4.303 12.688 C 4.497 12.604 4.63 12.49 4.704 12.276 C 4.797 12.071 4.779 11.897 4.696 11.703 C 4.612 11.509 4.497 11.376 4.284 11.302 C 4.192 11.263 4.115 11.248 4.013 11.248 C 3.846 11.241 3.723 11.286 3.589 11.376 Z M 15.092 7.676 C 15.092 7.875 14.991 8.089 14.858 8.232 C 14.717 8.358 14.512 8.451 14.324 8.476 C 13.566 8.54 12.877 8.727 12.217 9.048 C 11.553 9.367 10.985 9.771 10.48 10.282 C 9.972 10.791 9.573 11.361 9.258 12.029 C 8.939 12.695 8.758 13.377 8.702 14.134 C 8.682 14.326 8.579 14.533 8.441 14.665 C 8.294 14.782 8.087 14.866 7.901 14.866 C 7.694 14.866 7.471 14.756 7.33 14.612 C 7.208 14.456 7.133 14.225 7.134 14.022 C 7.213 13.093 7.449 12.196 7.833 11.372 C 8.217 10.552 8.734 9.81 9.355 9.182 C 9.979 8.556 10.714 8.035 11.527 7.642 C 12.344 7.252 13.239 7.007 14.167 6.921 C 14.382 6.909 14.616 6.971 14.789 7.084 C 14.96 7.223 15.092 7.454 15.092 7.676 Z"/>
</svg>