<?xml version="1.0" encoding="utf-8"?>
<svg xmlns="http://www.w3.org/2000/svg" height="48" viewBox="0 -960 960 960" width="48">
  <path d="M 234.567 -299.05 C 225.066 -299.05 217.039 -302.34 210.487 -308.93 C 203.93 -315.51 200.652 -323.56 200.652 -333.1 C 200.652 -342.64 203.93 -350.65 210.487 -357.15 C 217.039 -363.64 225.066 -366.88 234.567 -366.88 L 261.987 -366.88 L 261.987 -598.95 L 234.567 -598.95 C 225.066 -598.95 217.039 -602.24 210.487 -608.82 C 203.93 -615.41 200.652 -623.43 200.652 -632.93 C 200.652 -642.42 203.93 -650.55 210.487 -657.34 C 217.039 -664.12 225.066 -667.5 234.567 -667.5 L 356.517 -667.5 C 366.018 -667.5 374.046 -664.07 380.603 -657.21 C 387.156 -650.36 390.432 -642.17 390.432 -632.68 C 390.432 -623.18 387.156 -615.19 380.603 -608.68 C 374.046 -602.2 366.018 -598.95 356.517 -598.95 L 329.818 -598.95 L 329.818 -366.88 L 356.517 -366.88 C 366.018 -366.88 374.046 -363.6 380.603 -357.01 C 387.156 -350.43 390.432 -342.39 390.432 -332.84 C 390.432 -323.31 387.156 -315.3 380.603 -308.79 C 374.046 -302.31 366.018 -299.05 356.517 -299.05 Z M 492.277 -242.46 C 470.037 -242.46 451.351 -250 436.216 -265.1 C 421.065 -280.33 413.508 -298.93 413.508 -321.21 L 413.508 -362.5 C 413.508 -373.55 417.328 -382.77 424.971 -390.5 C 432.596 -398.02 441.965 -401.88 453.043 -401.88 C 464.104 -401.88 473.423 -398.02 480.964 -390.5 C 488.506 -382.77 492.277 -373.55 492.277 -362.5 L 492.277 -321.21 L 663.499 -321.21 L 663.499 -362.5 C 663.499 -373.55 667.323 -382.77 674.965 -390.5 C 682.593 -398.02 691.922 -401.88 702.955 -401.88 C 713.982 -401.88 723.413 -398.02 731.293 -390.5 C 739.173 -382.77 743.113 -373.55 743.113 -362.5 L 743.113 -321.21 C 743.113 -298.93 735.449 -280.33 720.151 -265.1 C 704.846 -250 685.962 -242.46 663.499 -242.46 Z M 176.552 -78.725 C 149.446 -78.725 126.376 -88.095 107.306 -107.27 C 88.234 -126.39 78.699 -149.31 78.699 -176.57 L 78.699 -297.33 C 78.699 -310.87 83.445 -322.54 92.94 -331.9 C 102.433 -341.46 114.051 -346.25 127.814 -346.25 C 141.575 -346.25 153.129 -341.46 162.498 -331.9 C 171.868 -322.54 176.552 -310.87 176.552 -297.33 L 176.552 -176.57 L 297.306 -176.57 C 311.005 -176.57 322.602 -171.78 332.055 -162.22 C 341.506 -152.84 346.232 -141.19 346.232 -127.47 C 346.232 -113.72 341.506 -102.06 332.055 -92.675 C 322.602 -83.295 311.005 -78.725 297.306 -78.725 Z M 782.405 -78.725 L 661.652 -78.725 C 647.952 -78.725 636.375 -83.295 626.922 -92.895 C 617.45 -102.47 612.724 -113.92 612.724 -127.86 C 612.724 -141.63 617.45 -153.06 626.922 -162.43 C 636.375 -171.78 647.952 -176.57 661.652 -176.57 L 782.405 -176.57 L 782.405 -297.33 C 782.405 -310.87 787.152 -322.54 796.645 -331.9 C 806.14 -341.46 817.736 -346.25 831.436 -346.25 C 845.113 -346.25 856.856 -341.46 866.641 -331.9 C 876.407 -322.54 881.3 -310.87 881.3 -297.33 L 881.3 -176.57 C 881.3 -149.31 871.66 -126.39 852.401 -107.27 C 833.121 -88.095 809.783 -78.725 782.405 -78.725 Z M 78.699 -661.68 L 78.699 -782.46 C 78.699 -809.71 88.234 -832.97 107.306 -852.4 C 126.376 -871.51 149.446 -881.27 176.552 -881.27 L 297.306 -881.27 C 311.005 -881.27 322.602 -876.36 332.055 -866.36 C 341.506 -856.59 346.232 -844.68 346.232 -830.92 C 346.232 -817.42 341.506 -805.75 332.055 -796.38 C 322.602 -787.02 311.005 -782.46 297.306 -782.46 L 176.552 -782.46 L 176.552 -661.68 C 176.552 -647.93 171.804 -636.29 162.311 -626.93 C 152.817 -617.34 141.199 -612.75 127.438 -612.75 C 113.677 -612.75 102.121 -617.34 92.754 -626.93 C 83.383 -636.29 78.699 -647.93 78.699 -661.68 Z M 782.405 -661.68 L 782.405 -782.46 L 661.652 -782.46 C 647.952 -782.46 636.375 -787.02 626.922 -796.61 C 617.45 -806.17 612.724 -817.62 612.724 -831.37 C 612.724 -845.12 617.45 -856.8 626.922 -866.59 C 636.375 -876.36 647.952 -881.27 661.652 -881.27 L 782.405 -881.27 C 809.783 -881.27 833.121 -871.51 852.401 -852.4 C 871.66 -832.97 881.3 -809.71 881.3 -782.46 L 881.3 -661.68 C 881.3 -647.93 876.343 -636.29 866.454 -626.93 C 856.544 -617.34 844.759 -612.75 831.06 -612.75 C 817.36 -612.75 805.828 -617.34 796.458 -626.93 C 787.089 -636.29 782.405 -647.93 782.405 -661.68 Z" style=""/>
</svg>