<?xml version="1.0" encoding="utf-8"?>
<svg xmlns="http://www.w3.org/2000/svg" height="48" viewBox="0 -960 960 960" width="48">
  <path d="M 120.76 -229 C 95.587 -229 74 -238.03 56 -256.09 C 38 -274.15 29 -295.933 29 -321.44 C 29 -346.947 38.08 -368.917 56.24 -387.35 C 74.4 -405.783 95.83 -415 120.53 -415 C 125.51 -415 130.167 -414.5 134.5 -413.5 C 138.833 -412.5 145 -411.333 153 -410 L 295.614 -553.182 C 293.005 -559.036 290.933 -565.125 289.398 -571.46 C 287.165 -580.37 286.066 -590.14 286.066 -599.9 L 286.066 -600.25 C 286.066 -632.17 297.281 -659.21 319.713 -681.73 C 342.126 -704.01 369.355 -715.25 401.379 -715.25 C 433.405 -715.25 460.649 -704.2 483.065 -681.92 C 505.478 -659.38 516.692 -632.35 516.692 -600.42 C 516.692 -600.25 516.692 -600.25 516.692 -600.08 C 516.692 -600.08 516.692 -600.08 516.692 -599.9 C 516.692 -586.47 514.705 -574.09 510.746 -562.4 C 509.652 -559.161 508.409 -555.991 507.018 -552.89 L 570.58 -489 C 577.527 -490.333 583.167 -491.333 587.5 -492 C 591.833 -492.667 596 -493 600 -493 C 604 -493 608.333 -492.667 613 -492 C 617.667 -491.333 623.483 -490.333 630.45 -489 L 750 -607.55 C 748.667 -614.517 747.667 -620.333 747 -625 C 746.333 -629.667 746 -634.333 746 -639 C 746 -664.68 755.15 -686.433 773.45 -704.26 C 791.75 -722.087 813.75 -731 839.45 -731 C 865.15 -731 886.833 -722.067 904.5 -704.2 C 922.167 -686.333 931 -664.55 931 -638.85 C 931 -613.15 922.037 -591.25 904.11 -573.15 C 886.183 -555.05 864.637 -546 839.47 -546 C 834.49 -546 829.667 -546.333 825 -547 C 820.333 -547.667 814.517 -548.667 807.55 -550 L 689 -430.45 C 690.333 -423.483 691.333 -417.667 692 -413 C 692.667 -408.333 693 -403.743 693 -399.23 C 693 -374.423 683.92 -352.85 665.76 -334.51 C 647.593 -316.17 625.76 -307 600.26 -307 C 574.753 -307 552.833 -316.17 534.5 -334.51 C 516.167 -352.85 507 -374.503 507 -399.47 C 507 -404.49 507.333 -409.167 508 -413.5 C 508.667 -417.833 509.667 -423.827 511 -431.48 L 447.84 -494.64 C 433.705 -488.536 418.253 -485.47 401.485 -485.47 C 401.449 -485.47 401.414 -485.47 401.379 -485.47 C 401.345 -485.47 401.31 -485.47 401.275 -485.47 C 384.424 -485.47 368.899 -488.569 354.705 -494.741 L 210 -350.35 C 211.333 -343.45 212.5 -338 213.5 -334 C 214.5 -330 215 -325.51 215 -320.53 C 215 -295.83 205.773 -274.4 187.32 -256.24 C 168.86 -238.08 146.673 -229 120.76 -229 Z M 368.256 -566.94 C 377.396 -557.87 389.396 -553.32 401.379 -553.32 C 407.815 -553.32 414.218 -554.55 420.2 -557.16 C 425.433 -559.44 430.317 -562.75 434.609 -566.94 C 435.724 -568.16 436.789 -569.38 437.765 -570.6 C 452.748 -589.09 451.666 -616.13 434.521 -633.22 C 427.282 -640.55 418.281 -645.08 408.915 -646.47 C 396.025 -648.56 382.436 -645.25 371.779 -636.54 C 370.541 -635.49 369.319 -634.44 368.15 -633.22 C 367.558 -632.7 367 -632 366.443 -631.47 C 349.959 -612.98 350.552 -584.56 368.256 -566.94 Z"/>
</svg>