<?xml version="1.0" encoding="utf-8"?>
<svg xmlns="http://www.w3.org/2000/svg" height="48" viewBox="0 -960 960 960" width="48">
  <path d="M 120.76 -187.25 C 95.587 -187.25 74 -196.28 56 -214.34 C 38 -232.4 29 -254.18 29 -279.69 C 29 -305.19 38.08 -327.16 56.24 -345.6 C 74.4 -364.03 95.83 -373.25 120.53 -373.25 C 125.51 -373.25 130.167 -372.75 134.5 -371.75 C 138.833 -370.75 145 -369.58 153 -368.25 L 295.614 -511.43 C 293.005 -517.28 290.933 -523.37 289.398 -529.71 C 287.165 -538.62 286.066 -548.39 286.066 -558.15 L 286.066 -558.5 C 286.066 -590.42 297.281 -617.46 319.713 -639.98 C 342.126 -662.26 369.355 -673.5 401.379 -673.5 C 433.405 -673.5 460.649 -662.45 483.065 -640.17 C 505.478 -617.63 516.692 -590.6 516.692 -558.67 C 516.692 -558.5 516.692 -558.5 516.692 -558.33 C 516.692 -558.33 516.692 -558.33 516.692 -558.15 C 516.692 -544.72 514.705 -532.34 510.746 -520.65 C 509.652 -517.41 508.409 -514.24 507.018 -511.14 L 570.58 -447.25 C 577.527 -448.58 583.167 -449.58 587.5 -450.25 C 591.833 -450.91 596 -451.25 600 -451.25 C 604 -451.25 608.333 -450.91 613 -450.25 C 617.667 -449.58 623.483 -448.58 630.45 -447.25 L 750 -565.8 C 748.667 -572.76 747.667 -578.58 747 -583.25 C 746.333 -587.91 746 -592.58 746 -597.25 C 746 -622.93 755.15 -644.68 773.45 -662.51 C 791.75 -680.33 813.75 -689.25 839.45 -689.25 C 865.15 -689.25 886.833 -680.31 904.5 -662.45 C 922.167 -644.58 931 -622.8 931 -597.1 C 931 -571.4 922.037 -549.5 904.11 -531.4 C 886.183 -513.3 864.637 -504.25 839.47 -504.25 C 834.49 -504.25 829.667 -504.58 825 -505.25 C 820.333 -505.91 814.517 -506.91 807.55 -508.25 L 689 -388.7 C 690.333 -381.73 691.333 -375.91 692 -371.25 C 692.667 -366.58 693 -361.99 693 -357.48 C 693 -332.67 683.92 -311.1 665.76 -292.76 C 647.593 -274.42 625.76 -265.25 600.26 -265.25 C 574.753 -265.25 552.833 -274.42 534.5 -292.76 C 516.167 -311.1 507 -332.75 507 -357.72 C 507 -362.74 507.333 -367.41 508 -371.75 C 508.667 -376.08 509.667 -382.07 511 -389.73 L 447.84 -452.89 C 433.705 -446.78 418.253 -443.72 401.485 -443.72 C 401.449 -443.72 401.414 -443.72 401.379 -443.72 C 401.345 -443.72 401.31 -443.72 401.275 -443.72 C 384.424 -443.72 368.899 -446.82 354.705 -452.99 L 210 -308.6 C 211.333 -301.7 212.5 -296.25 213.5 -292.25 C 214.5 -288.25 215 -283.76 215 -278.78 C 215 -254.08 205.773 -232.65 187.32 -214.49 C 168.86 -196.33 146.673 -187.25 120.76 -187.25 Z M 368.256 -525.19 C 377.396 -516.12 389.396 -511.57 401.379 -511.57 C 407.815 -511.57 414.218 -512.8 420.2 -515.41 C 425.433 -517.69 430.317 -521 434.609 -525.19 C 435.724 -526.41 436.789 -527.63 437.765 -528.85 C 452.748 -547.34 451.666 -574.38 434.521 -591.47 C 427.282 -598.8 418.281 -603.33 408.915 -604.72 C 396.025 -606.81 382.436 -603.5 371.779 -594.79 C 370.541 -593.74 369.319 -592.69 368.15 -591.47 C 367.558 -590.95 367 -590.25 366.443 -589.72 C 349.959 -571.23 350.552 -542.81 368.256 -525.19 Z M 375.165 -742.93 L 278.096 -839.38 C 275.535 -842.18 272.331 -846.84 270.904 -849.4 C 269.437 -853.02 267.799 -858.99 267.799 -863 C 267.799 -870.7 272.87 -881.13 277.45 -887 C 283.317 -891.82 293.785 -896.2 301.572 -896.99 L 505.086 -896.99 C 508.904 -896.81 514.695 -895.89 518.248 -894.41 C 521.856 -892.9 526.68 -889.27 529.504 -886.58 C 534.112 -880.61 538.859 -870.37 538.859 -862.89 C 538.859 -857.6 535.014 -849.36 531.667 -843.52 L 530.346 -841.22 L 528.389 -839.27 L 431.544 -742.99 C 427.954 -739.77 421.637 -735.89 417.622 -734.09 C 413.54 -732.77 407.604 -731.56 403.274 -731.56 C 398.926 -731.56 392.151 -733.11 388.076 -734.44 C 384.092 -736.25 378.713 -739.74 375.165 -742.93 Z"/>
</svg>