<?xml version="1.0" encoding="utf-8"?>
<svg xmlns="http://www.w3.org/2000/svg" height="48" viewBox="0 -960 960 960" width="48">
  <path d="M 665.76 -334.51 C 665.22 -333.965 664.675 -333.59 664.125 -333.375 C 647.419 -316.776 624.428 -306.5 599.039 -306.5 C 548 -306.5 506.579 -348.1 506.579 -399.1 C 506.579 -450.11 548 -491.5 599.039 -491.5 C 609.669 -491.5 619.878 -489.708 629.382 -486.41 C 629.569 -488.184 629.919 -489.102 630.45 -489 L 750 -607.55 C 748.667 -614.517 747.667 -620.333 747 -625 C 746.333 -629.667 746 -634.333 746 -639 C 746 -664.68 755.15 -686.433 773.45 -704.26 C 791.75 -722.087 813.75 -731 839.45 -731 C 865.15 -731 886.833 -722.067 904.5 -704.2 C 922.167 -686.333 931 -664.55 931 -638.85 C 931 -613.15 922.037 -591.25 904.11 -573.15 C 886.183 -555.05 864.637 -546 839.47 -546 C 834.49 -546 829.667 -546.333 825 -547 C 820.333 -547.667 814.517 -548.667 807.55 -550 L 689 -430.45 C 690.333 -423.483 691.333 -417.667 692 -413 C 692.667 -408.333 693 -403.743 693 -399.23 C 693 -374.423 683.92 -352.85 665.76 -334.51 Z M 401.204 -486.5 C 401.169 -486.5 401.134 -486.5 401.099 -486.5 C 401.064 -486.5 401.03 -486.5 400.996 -486.5 C 369.237 -486.5 342.224 -497.41 319.988 -519.4 C 304.733 -534.64 294.706 -551.96 289.927 -571.71 C 287.728 -580.71 286.619 -590.23 286.619 -600.1 L 286.619 -600.45 C 286.619 -631.96 297.754 -658.98 320.023 -681.1 C 333.233 -694.286 348.129 -703.633 364.706 -709.053 L 364.679 -790.414 L 325.841 -751.576 C 318.642 -744.377 310.052 -740.779 300.031 -740.87 C 290.162 -740.802 281.535 -744.464 274.344 -751.655 C 267.096 -758.903 263.448 -767.516 263.509 -777.392 C 263.567 -787.264 267.235 -795.784 274.434 -802.983 L 375.081 -903.629 C 382.28 -910.828 390.799 -914.497 400.779 -914.45 C 410.661 -914.503 419.282 -910.849 426.516 -903.615 L 527.144 -802.987 C 534.279 -795.852 537.899 -787.24 537.841 -777.324 C 537.88 -767.308 534.278 -758.7 527.047 -751.468 C 519.816 -744.238 511.239 -740.667 501.29 -740.773 C 491.439 -740.779 482.86 -744.433 475.726 -751.568 L 437.45 -789.844 L 437.961 -708.954 C 454.36 -703.554 469.112 -694.308 482.21 -681.25 C 504.446 -659.16 515.579 -632.13 515.579 -600.62 C 515.579 -600.45 515.579 -600.45 515.579 -600.27 C 515.579 -600.27 515.579 -600.27 515.579 -600.1 C 515.579 -586.76 513.605 -574.3 509.675 -562.87 C 504.238 -546.78 495.094 -532.22 482.245 -519.4 C 459.994 -497.41 432.979 -486.5 401.204 -486.5 Z M 368.215 -567.37 C 377.289 -558.2 389.204 -553.7 401.099 -553.7 C 407.49 -553.7 413.844 -554.9 419.785 -557.5 C 424.979 -559.93 429.846 -563.22 434.088 -567.37 C 435.195 -568.42 436.252 -569.62 437.222 -570.84 C 452.097 -589.2 451.023 -616.21 434.001 -633 C 426.815 -640.45 417.879 -644.77 408.58 -646.17 C 395.783 -648.24 382.294 -644.95 371.713 -636.47 C 370.484 -635.43 369.272 -634.22 368.128 -633 C 367.523 -632.48 366.968 -631.8 366.414 -631.28 C 350.049 -612.92 350.639 -584.86 368.215 -567.37 Z M 215.922 -321.52 C 215.922 -270.52 174.529 -229 123.461 -229 C 72.411 -229 31 -270.52 31 -321.52 C 31 -372.52 72.411 -414.06 123.461 -414.06 C 174.529 -414.06 215.922 -372.52 215.922 -321.52 Z"/>
</svg>