<?xml version="1.0" encoding="utf-8"?>
<svg xmlns="http://www.w3.org/2000/svg" height="48" viewBox="0 -960 960 960" width="48">
  <path d="M 665.76 -334.51 C 665.22 -333.965 664.675 -333.59 664.125 -333.375 C 647.419 -316.776 624.428 -306.5 599.039 -306.5 C 548 -306.5 506.579 -348.1 506.579 -399.1 C 506.579 -450.11 548 -491.5 599.039 -491.5 C 609.669 -491.5 619.878 -489.708 629.382 -486.41 C 629.569 -488.184 629.919 -489.102 630.45 -489 L 750 -607.55 C 748.667 -614.517 747.667 -620.333 747 -625 C 746.333 -629.667 746 -634.333 746 -639 C 746 -664.68 755.15 -686.433 773.45 -704.26 C 791.75 -722.087 813.75 -731 839.45 -731 C 865.15 -731 886.833 -722.067 904.5 -704.2 C 922.167 -686.333 931 -664.55 931 -638.85 C 931 -613.15 922.037 -591.25 904.11 -573.15 C 886.183 -555.05 864.637 -546 839.47 -546 C 834.49 -546 829.667 -546.333 825 -547 C 820.333 -547.667 814.517 -548.667 807.55 -550 L 689 -430.45 C 690.333 -423.483 691.333 -417.667 692 -413 C 692.667 -408.333 693 -403.743 693 -399.23 C 693 -374.423 683.92 -352.85 665.76 -334.51 Z M 215.922 -321.52 C 215.922 -270.52 174.529 -229 123.461 -229 C 72.411 -229 31 -270.52 31 -321.52 C 31 -372.52 72.411 -414.06 123.461 -414.06 C 174.529 -414.06 215.922 -372.52 215.922 -321.52 Z M 442.415 -703.42 C 443.82 -704.65 445.274 -706.13 446.776 -707.12 C 453.7 -712.54 461.683 -715.25 470.972 -715.5 C 471.317 -715.5 471.637 -715.5 471.982 -715.5 C 472.648 -715.5 473.288 -715.5 473.929 -715.5 C 484.277 -715 493.245 -711.3 500.933 -703.91 C 501.228 -703.66 501.549 -703.42 501.844 -703.17 C 510.123 -694.8 514.312 -684.95 514.435 -673.11 C 514.558 -661.29 510.591 -651.19 502.51 -643.3 L 460.697 -601.41 L 501.648 -560.51 C 509.975 -552.14 514.361 -542.28 514.854 -530.7 C 515.347 -519.13 511.281 -509.01 502.682 -500.39 C 502.657 -500.39 502.657 -500.39 502.633 -500.39 C 494.281 -492.01 484.08 -488.07 472.081 -487.82 C 460.746 -487.82 451.064 -491.53 443.031 -498.91 C 442.514 -499.41 442.022 -499.9 441.553 -500.39 L 400.604 -541.3 L 359.653 -500.39 C 351.596 -492.27 341.668 -488.31 329.889 -488.31 C 318.186 -488.56 308.158 -492.75 299.83 -500.88 C 299.732 -501.13 299.633 -501.13 299.56 -501.13 C 291.527 -509.26 287.486 -519.13 287.388 -530.94 C 287.314 -540.8 290.369 -549.42 296.282 -556.82 C 297.292 -558.05 298.377 -559.27 299.56 -560.51 L 340.485 -601.41 L 299.387 -642.56 C 291.207 -650.7 286.944 -660.79 286.649 -672.63 C 286.55 -684.44 290.615 -694.8 299.214 -703.42 C 307.838 -712.03 318.088 -715.98 329.619 -715.74 C 341.298 -715.25 351.227 -710.81 359.383 -702.67 C 359.481 -702.67 359.579 -702.44 359.653 -702.44 L 400.604 -661.52 Z"/>
</svg>