<?xml version="1.0" encoding="utf-8"?>
<svg xmlns="http://www.w3.org/2000/svg" height="48" viewBox="0 -960 960 960" width="48">
  <path d="M 221.841 -444.86 C 213.233 -445.68 202.496 -449.76 197.024 -455.26 C 191.552 -460.81 186.82 -471.48 186.82 -480.08 C 186.82 -488.69 191.594 -499.37 197.105 -504.86 C 202.599 -510.42 213.292 -514.28 221.841 -515.14 L 391.267 -515.14 L 391.267 -544.37 C 391.559 -550.481 394.325 -557.224 398.376 -561.695 C 402.823 -565.679 409.508 -568.437 415.621 -568.74 L 544.377 -568.74 C 550.486 -568.436 557.174 -565.673 561.626 -561.693 C 565.677 -557.223 568.441 -550.481 568.733 -544.37 L 568.733 -515.14 L 738.154 -515.14 C 746.703 -514.28 757.4 -510.42 762.89 -504.86 C 768.404 -499.37 773.18 -488.69 773.18 -480.08 C 773.18 -471.48 768.443 -460.81 762.971 -455.26 C 757.499 -449.76 746.762 -445.68 738.154 -444.86 L 568.733 -444.86 L 568.733 -415.63 C 568.432 -409.519 565.629 -402.797 561.617 -398.308 C 557.174 -394.331 550.494 -391.567 544.377 -391.26 L 415.621 -391.26 C 409.5 -391.567 402.751 -394.399 398.312 -398.38 C 394.3 -402.869 391.568 -409.519 391.267 -415.63 L 391.267 -444.86 Z M 440.325 -440.31 L 520.023 -440.31 L 520.023 -520.02 L 440.325 -520.02 Z M 145.843 -480 C 145.843 -450.28 121.843 -426.31 92.234 -426.31 C 62.621 -426.31 38.626 -450.28 38.626 -480 C 38.626 -509.51 62.621 -533.69 92.234 -533.69 C 121.843 -533.69 145.843 -509.51 145.843 -480 Z M 921.374 -480 C 921.374 -450.49 897.379 -426.31 867.765 -426.31 C 838.179 -426.31 814.161 -450.49 814.161 -480 C 814.161 -509.51 838.179 -533.69 867.765 -533.69 C 897.379 -533.69 921.374 -509.51 921.374 -480 Z" style="stroke-width: 0.032;"/>
</svg>