<?xml version="1.0" encoding="utf-8"?>
<svg xmlns="http://www.w3.org/2000/svg" height="48" viewBox="0 -960 960 960" width="48">
  <path d="M 391.267 -415.63 L 391.267 -445.21 L 301.333 -445.21 C 292.788 -446.02 282.128 -450.1 276.695 -455.59 C 271.263 -461.08 266.562 -471.66 266.562 -480.21 C 266.562 -488.76 271.303 -499.32 276.776 -504.83 C 282.249 -510.12 292.849 -514.17 301.333 -514.79 L 391.267 -514.79 L 391.267 -544.37 C 391.559 -550.481 394.325 -557.224 398.376 -561.695 C 402.823 -565.679 409.508 -568.437 415.621 -568.74 L 544.377 -568.74 C 550.486 -568.436 557.174 -565.673 561.626 -561.693 C 565.677 -557.223 568.441 -550.481 568.733 -544.37 L 568.733 -514.79 L 658.664 -514.79 C 667.151 -514.17 677.748 -510.12 683.222 -504.62 C 688.696 -499.14 693.438 -488.55 693.438 -480.01 C 693.438 -471.45 688.735 -460.87 683.308 -455.38 C 677.872 -449.89 667.213 -445.82 658.664 -445.21 L 568.733 -445.21 L 568.733 -415.63 C 568.432 -409.519 565.629 -402.797 561.617 -398.308 C 557.174 -394.331 550.494 -391.567 544.377 -391.26 L 415.621 -391.26 C 409.5 -391.567 402.751 -394.399 398.312 -398.38 C 394.3 -402.869 391.568 -409.519 391.267 -415.63 Z M 440.325 -440.31 L 520.023 -440.31 L 520.023 -520.02 L 440.325 -520.02 Z M 851.988 -583.24 C 853.423 -584.7 854.899 -585.96 856.458 -587.2 C 863.489 -592.61 871.64 -595.5 881.061 -595.5 C 881.415 -595.5 881.768 -595.5 882.122 -595.5 C 882.766 -595.5 883.431 -595.5 884.076 -595.5 C 894.62 -595.31 903.75 -591.35 911.571 -584.09 C 911.896 -583.87 912.191 -583.24 912.526 -583.03 C 920.918 -574.72 925.192 -564.53 925.32 -552.47 C 925.458 -540.41 921.41 -530.43 913.186 -522.1 L 870.642 -479.47 L 912.29 -437.67 C 920.78 -429.35 925.281 -419.16 925.754 -407.52 C 926.246 -395.87 922.11 -385.68 913.353 -376.74 C 913.314 -376.74 913.314 -376.74 913.294 -376.74 C 904.794 -368.21 894.433 -364.05 882.204 -364.05 C 870.663 -364.05 860.805 -367.8 852.611 -375.07 C 852.113 -375.49 851.614 -376.12 851.115 -376.53 L 809.419 -418.33 L 767.744 -376.53 C 759.53 -368.21 749.423 -364.25 737.464 -364.48 C 725.528 -364.48 715.339 -368.84 706.834 -377.36 C 706.729 -377.36 706.668 -377.36 706.562 -377.57 C 698.411 -385.68 694.272 -395.66 694.169 -407.72 C 694.086 -417.91 697.204 -426.85 703.257 -433.93 C 704.254 -435.16 705.357 -436.63 706.562 -437.67 L 748.238 -479.47 L 706.375 -521.26 C 698.057 -529.59 693.733 -539.78 693.441 -552.25 C 693.316 -563.92 697.454 -574.51 706.209 -583.24 C 714.986 -591.98 725.445 -596.14 737.153 -595.94 C 749.048 -595.31 759.155 -590.73 767.453 -582.61 C 767.557 -582.61 767.66 -582.61 767.744 -582.2 L 809.419 -540.59 Z M 192.757 -583.24 C 194.192 -584.7 195.668 -585.96 197.227 -587.2 C 204.258 -592.61 212.409 -595.5 221.83 -595.5 C 222.184 -595.5 222.537 -595.5 222.891 -595.5 C 223.535 -595.5 224.2 -595.5 224.845 -595.5 C 235.389 -595.31 244.519 -591.35 252.34 -584.09 C 252.665 -583.87 252.96 -583.24 253.295 -583.03 C 261.687 -574.72 265.963 -564.53 266.093 -552.47 C 266.223 -540.41 262.179 -530.43 253.955 -522.1 L 211.411 -479.47 L 253.059 -437.67 C 261.549 -429.35 266.053 -419.16 266.523 -407.52 C 267.013 -395.87 262.883 -385.68 254.122 -376.74 C 254.083 -376.74 254.083 -376.74 254.063 -376.74 C 245.563 -368.21 235.202 -364.05 222.973 -364.05 C 211.432 -364.05 201.574 -367.8 193.38 -375.07 C 192.882 -375.49 192.383 -376.12 191.884 -376.53 L 150.188 -418.33 L 108.513 -376.53 C 100.299 -368.21 90.192 -364.25 78.233 -364.48 C 66.297 -364.48 56.108 -368.84 47.603 -377.36 C 47.498 -377.36 47.437 -377.36 47.331 -377.57 C 39.18 -385.68 35.041 -395.66 34.938 -407.72 C 34.855 -417.91 37.973 -426.85 44.026 -433.93 C 45.023 -435.16 46.126 -436.63 47.331 -437.67 L 89.007 -479.47 L 47.144 -521.26 C 38.826 -529.59 34.502 -539.78 34.21 -552.25 C 34.085 -563.92 38.223 -574.51 46.978 -583.24 C 55.755 -591.98 66.214 -596.14 77.922 -595.94 C 89.817 -595.31 99.924 -590.73 108.222 -582.61 C 108.326 -582.61 108.429 -582.61 108.513 -582.2 L 150.188 -540.59 Z" style="stroke-width: 0.637;"/>
</svg>