<?xml version="1.0" encoding="utf-8"?>
<svg viewBox="0 0 22 22" xmlns="http://www.w3.org/2000/svg">
  <path d="M 19.5 3 L 19.5 6 C 19.5 6.276 19.276 6.5 19 6.5 L 16 6.5 C 15.724 6.5 15.5 6.276 15.5 6 L 15.5 5.508 C 12.772 5.613 10.503 6.648 8.575 8.575 C 6.648 10.503 5.614 12.774 5.508 15.5 L 6 15.5 C 6.276 15.5 6.5 15.724 6.5 16 L 6.5 19 C 6.5 19.276 6.276 19.5 6 19.5 L 3 19.5 C 2.724 19.5 2.5 19.276 2.5 19 L 2.5 16 C 2.5 15.724 2.724 15.5 3 15.5 L 3.513 15.5 C 3.662 12.275 4.927 9.396 7.161 7.161 C 9.396 4.927 12.274 3.661 15.5 3.513 L 15.5 3 C 15.5 2.724 15.724 2.5 16 2.5 L 19 2.5 C 19.276 2.5 19.5 2.724 19.5 3 Z M 4 18 L 5 18 L 5 17 L 4 17 Z M 17 5 L 18 5 L 18 4 L 17 4 Z"/>
</svg>