<?xml version="1.0" encoding="utf-8"?>
<svg xmlns="http://www.w3.org/2000/svg" height="48" viewBox="0 -960 960 960" width="48">
  <path d="M 874 -229 C 887.087 -229 898.357 -224.44 907.81 -215.32 C 917.27 -206.207 922 -195.04 922 -181.82 C 922 -168.607 917.27 -157.5 907.81 -148.5 C 898.357 -139.5 887.087 -135 874 -135 L 170 -135 C 164.06 -135 158.313 -136 152.76 -138 C 147.207 -140 141.953 -143.333 137 -148 L 68 -220 C 49.22 -238.647 40.193 -260.473 40.92 -285.48 C 41.64 -310.493 50.667 -332 68 -350 L 519 -833 C 536.333 -851 557.867 -859.833 583.6 -859.5 C 609.333 -859.167 631.467 -850 650 -832 L 839 -633 C 857.667 -614.353 867.333 -592.193 868 -566.52 C 868.667 -540.84 859.667 -519 841 -501 L 584.499 -229 Z M 776 -570 L 584 -772 L 158.113 -306.962 L 154.007 -300.29 L 502.565 -300.29 L 524.949 -300.096 Z"/>
</svg>