<?xml version="1.0" encoding="utf-8"?>
<svg clip-rule="evenodd" fill-rule="evenodd" stroke-linejoin="round" stroke-miterlimit="2" viewBox="0 0 250 250" xmlns="http://www.w3.org/2000/svg">
  <path d="M 4.914 105.318 C 4.986 102.319 6.322 99.489 8.596 97.529 C 10.867 95.57 13.862 94.662 16.84 95.031 C 16.939 95.04 17.039 95.052 17.135 95.062 C 22.115 95.681 25.801 99.994 25.636 105.009 C 25.589 106.205 25.566 107.404 25.566 108.6 C 25.566 164.181 70.691 209.306 126.272 209.306 C 127.423 209.306 128.574 209.288 129.723 209.246 C 134.818 209.087 139.197 212.833 139.824 217.891 L 139.83 217.891 C 140.204 220.909 139.284 223.946 137.297 226.245 C 135.309 228.548 132.44 229.901 129.401 229.971 C 128.357 229.991 127.316 230.004 126.272 230.004 C 59.267 230.004 4.868 175.605 4.868 108.6 C 4.868 107.507 4.883 106.411 4.914 105.318 Z M 200.366 56.514 C 202.24 59.12 202.894 62.41 202.16 65.536 C 201.424 68.661 199.374 71.315 196.533 72.814 C 196.384 72.988 196.194 73.088 196.005 73.187 C 191.377 75.629 185.656 74.261 182.632 69.99 C 169.185 51.112 146.628 40.462 123.093 42.416 C 86.476 45.456 59.216 77.651 62.256 114.268 C 65.295 150.886 97.492 178.145 134.109 175.105 C 139.825 174.631 145.439 173.422 150.82 171.517 C 156.022 169.637 161.814 171.877 164.394 176.768 L 164.472 176.729 C 165.982 179.588 166.179 182.96 165.017 185.977 C 163.852 188.994 161.441 191.361 158.403 192.465 C 151.155 194.954 143.618 196.584 135.945 197.221 C 87.123 201.274 44.194 164.927 40.141 116.104 C 36.087 67.281 72.435 24.354 121.257 20.301 C 152.431 17.713 182.316 31.708 200.366 56.514 Z M 131.948 54.975 C 136.513 55.105 140.115 58.919 139.983 63.486 C 139.851 68.052 136.038 71.653 131.47 71.521 C 110.906 70.931 93.758 87.121 93.165 107.686 C 93.033 112.252 89.22 115.853 84.653 115.721 C 80.087 115.59 76.486 111.776 76.618 107.21 C 77.47 77.506 102.243 54.119 131.948 54.975 Z M 129.685 133.579 C 115.976 133.185 105.181 121.752 105.578 108.042 C 105.972 94.332 117.404 83.538 131.113 83.934 C 144.824 84.329 155.615 95.761 155.222 109.47 C 154.828 123.179 143.395 133.974 129.685 133.579 Z M 130.162 117.029 C 134.731 117.161 138.541 113.566 138.673 108.995 C 138.806 104.423 135.209 100.613 130.637 100.483 C 126.067 100.351 122.256 103.949 122.125 108.517 C 121.995 113.088 125.592 116.898 130.162 117.029 Z M 183.211 88.944 L 188.436 88.945 C 188.848 88.012 189.443 87.165 190.216 86.398 C 191.849 84.779 193.845 83.955 196.212 83.955 L 216.798 83.954 C 219.17 83.956 221.169 84.786 222.805 86.421 L 222.807 86.422 C 223.569 87.185 224.156 88.025 224.566 88.945 L 229.805 88.944 C 230.206 87.857 230.857 86.907 231.736 86.091 C 233.245 84.688 235.09 83.955 237.298 83.954 C 239.568 83.954 241.414 84.732 242.877 86.189 C 244.341 87.642 245.131 89.499 245.132 91.807 L 245.133 161.674 C 245.132 163.978 244.342 165.834 242.881 167.291 C 241.426 168.741 239.568 169.526 237.261 169.525 C 235.007 169.525 233.129 168.735 231.61 167.201 C 230.797 166.379 230.195 165.456 229.814 164.431 L 224.62 164.431 C 224.207 165.406 223.597 166.288 222.795 167.081 L 222.795 167.083 C 221.161 168.7 219.165 169.527 216.798 169.527 L 196.213 169.526 C 193.839 169.526 191.841 168.696 190.205 167.058 C 189.414 166.266 188.811 165.392 188.399 164.43 L 183.256 164.432 C 182.878 165.534 182.259 166.493 181.422 167.318 L 181.42 167.319 C 179.969 168.748 178.115 169.525 175.817 169.524 C 173.561 169.525 171.684 168.736 170.165 167.201 C 168.654 165.675 167.878 163.805 167.879 161.57 L 167.877 91.807 C 167.878 89.473 168.709 87.59 170.277 86.118 C 171.789 84.697 173.639 83.955 175.853 83.954 C 178.123 83.954 179.968 84.731 181.432 86.189 C 182.233 86.985 182.833 87.9 183.211 88.944 Z M 179.379 126.828 C 179.379 128.027 179.855 129.178 180.703 130.025 C 181.551 130.873 182.701 131.35 183.9 131.35 L 184.938 131.35 C 186.138 131.35 187.287 130.875 188.135 130.026 C 188.983 129.178 189.46 128.029 189.459 126.83 L 189.458 126.652 C 189.46 125.454 188.983 124.302 188.135 123.454 C 187.287 122.608 186.138 122.131 184.939 122.131 L 183.899 122.131 C 182.7 122.131 181.55 122.606 180.704 123.455 C 179.855 124.303 179.379 125.452 179.38 126.652 L 179.379 126.828 Z M 179.379 147.653 C 179.38 150.15 181.404 152.173 183.9 152.173 L 184.938 152.173 C 187.436 152.173 189.458 150.149 189.459 147.653 L 189.459 147.371 C 189.459 146.172 188.982 145.022 188.135 144.175 C 187.287 143.327 186.137 142.851 184.938 142.85 L 183.899 142.85 C 182.701 142.849 181.552 143.327 180.704 144.174 C 179.855 145.022 179.38 146.172 179.379 147.371 L 179.379 147.653 Z M 204.619 96.316 C 203.42 96.318 202.271 96.793 201.421 97.643 C 200.575 98.488 200.1 99.639 200.099 100.839 L 200.099 152.644 C 200.099 155.139 202.124 157.163 204.621 157.163 L 207.53 157.162 C 210.026 157.164 212.051 155.139 212.05 152.642 L 212.05 100.837 C 212.049 98.341 210.025 96.316 207.529 96.316 L 204.619 96.316 Z M 223.551 126.83 C 223.552 128.027 224.028 129.177 224.875 130.025 C 225.722 130.874 226.873 131.349 228.071 131.35 L 229.111 131.35 C 230.31 131.349 231.46 130.873 232.307 130.024 C 233.155 129.178 233.632 128.028 233.632 126.829 L 233.631 126.651 C 233.63 125.452 233.156 124.303 232.307 123.456 C 231.459 122.606 230.31 122.13 229.111 122.132 L 228.072 122.131 C 226.873 122.132 225.724 122.608 224.875 123.456 C 224.026 124.303 223.55 125.453 223.552 126.652 L 223.551 126.83 Z M 223.551 147.651 C 223.55 150.149 225.576 152.173 228.072 152.174 L 229.111 152.174 C 231.608 152.172 233.632 150.149 233.632 147.652 L 233.632 147.371 C 233.631 146.173 233.154 145.023 232.308 144.174 C 231.459 143.327 230.309 142.85 229.112 142.851 L 228.072 142.851 C 226.873 142.851 225.722 143.327 224.874 144.175 C 224.028 145.021 223.551 146.172 223.551 147.371 L 223.551 147.651 Z M 223.553 106.11 C 223.551 108.606 225.576 110.631 228.072 110.629 L 229.112 110.63 C 231.607 110.632 233.631 108.607 233.631 106.111 L 233.631 105.828 C 233.631 104.631 233.156 103.479 232.307 102.631 C 231.459 101.783 230.31 101.308 229.111 101.308 L 228.072 101.307 C 226.873 101.308 225.723 101.783 224.875 102.632 C 224.028 103.48 223.55 104.629 223.551 105.828 L 223.553 106.11 Z M 179.378 106.11 C 179.38 108.607 181.403 110.629 183.9 110.63 L 184.938 110.631 C 187.435 110.631 189.46 108.606 189.46 106.11 L 189.458 105.827 C 189.46 104.629 188.983 103.48 188.135 102.633 C 187.286 101.783 186.138 101.308 184.939 101.308 L 183.899 101.308 C 182.7 101.307 181.551 101.783 180.704 102.632 C 179.855 103.48 179.38 104.628 179.38 105.828 L 179.378 106.11 Z"/>
</svg>