<?xml version="1.0" encoding="utf-8"?>
<svg clip-rule="evenodd" fill-rule="evenodd" stroke-linejoin="round" stroke-miterlimit="2" viewBox="0 0 250 250" xmlns="http://www.w3.org/2000/svg">
  <path d="M 6.433 124.889 L 6.436 124.177 C 6.632 94.303 19.153 66.875 39.478 47.229 C 46.411 40.523 54.267 34.713 62.88 30.021 C 69.954 26.165 77.523 23.072 85.487 20.858 C 95.047 18.19 105.135 16.805 115.552 16.901 C 116.333 16.908 117.112 16.925 117.891 16.948 C 155.058 18.089 188.706 38.228 207.426 69.669 C 209.408 73.039 209.832 77.102 208.593 80.81 C 207.352 84.518 204.567 87.507 200.955 89.006 C 200.754 89.2 200.513 89.3 200.272 89.399 C 194.388 91.843 187.603 89.544 184.414 84.027 C 183.329 82.162 182.174 80.349 180.954 78.59 C 180.737 78.332 180.529 78.062 180.33 77.78 C 179.458 76.557 178.554 75.359 177.62 74.192 C 177.497 74.054 177.376 73.91 177.258 73.762 C 162.093 55.065 139.328 44.146 115.303 43.925 L 115.153 43.923 L 114.942 43.923 C 110.919 43.904 106.861 44.183 102.798 44.78 C 97.59 45.541 92.57 46.785 87.777 48.457 C 70.342 54.565 55.604 66.473 45.902 81.878 C 43.67 85.426 41.709 89.152 40.043 93.02 C 35.919 102.611 33.591 113.16 33.49 124.246 C 33.224 153.133 48.131 178.65 70.771 193.219 C 76.617 196.974 82.953 199.988 89.628 202.152 C 97.255 204.617 105.377 205.982 113.811 206.06 C 114.958 206.07 116.104 206.056 117.249 206.018 C 116.34 203.948 115.861 201.721 115.868 199.477 C 116.071 195.316 117.732 191.324 120.557 188.271 L 187.49 116.588 C 190.49 113.626 194.604 111.835 198.909 111.891 C 203.188 111.947 207.397 113.821 210.538 116.748 L 238.531 146.223 C 241.562 149.375 243.362 153.517 243.567 157.792 C 243.571 162.111 241.939 166.197 238.88 169.29 L 182.237 229.668 C 181.386 230.494 180.271 231.284 179.244 231.791 C 178.148 232.276 171.47 233.103 170.244 233.103 L 115.868 233.103 L 115.878 233.093 C 108.556 233.191 101.354 232.542 94.357 231.21 C 85.904 229.606 77.769 227.008 70.091 223.534 C 68.169 222.665 66.277 221.74 64.416 220.764 C 56.293 216.5 48.756 211.227 41.985 205.098 C 33.182 197.136 25.658 187.71 19.827 177.13 C 12.693 164.2 8.109 149.595 6.809 133.937 C 6.557 130.901 6.433 127.883 6.433 124.889 Z M 86.535 126.785 C 86.491 126.039 86.475 125.287 86.487 124.528 C 86.648 108.436 99.463 95.178 115.704 94.63 C 132.267 94.072 146.165 106.937 146.933 123.441 C 147.033 125.21 146.979 127.012 146.758 128.832 C 144.745 145.412 129.673 157.221 113.093 155.209 C 98.282 153.411 87.278 141.191 86.535 126.785 Z M 106.658 125.359 C 106.932 130.844 111.557 135.114 117.066 134.927 C 122.429 134.746 126.673 130.407 126.802 125.11 C 126.806 124.829 126.797 124.55 126.778 124.275 C 126.362 119.64 122.759 115.765 117.952 115.182 C 112.425 114.511 107.402 118.447 106.731 123.973 C 106.674 124.439 106.65 124.902 106.658 125.359 Z M 118.608 59.494 C 124.168 59.654 128.554 64.299 128.393 69.86 C 128.233 75.423 123.589 79.807 118.027 79.647 C 92.985 78.926 72.102 98.642 71.381 123.684 C 71.22 129.245 66.577 133.629 61.015 133.471 C 55.454 133.311 51.069 128.665 51.229 123.105 C 52.269 86.932 82.435 58.454 118.608 59.494 Z M 223.986 157.359 L 198.968 131.037 L 164.592 168.572 L 189.961 193.94 L 223.986 157.359 Z"/>
</svg>