<?xml version="1.0" encoding="utf-8"?>
<svg xmlns="http://www.w3.org/2000/svg" height="48" viewBox="0 -960 960 960" width="48">
  <path d="M 657 -760 C 640.333 -770 623.167 -778.5 605.5 -785.5 C 587.833 -792.5 570 -798.333 552 -803 C 541.333 -805 532.833 -810.5 526.5 -819.5 C 520.167 -828.5 517 -838.333 517 -849 C 517 -864.333 522.833 -876.5 534.5 -885.5 C 546.167 -894.5 559.333 -897.667 574 -895 C 597.333 -889.667 620.167 -882.5 642.5 -873.5 C 664.833 -864.5 686.333 -853.333 707 -840 C 719 -832 725.667 -820.5 727 -805.5 C 728.333 -790.5 724 -778 714 -768 C 706 -759.333 696.667 -754.167 686 -752.5 C 675.333 -750.833 665.667 -753.333 657 -760 Z M 849 -517 C 838.333 -517 828.5 -520.167 819.5 -526.5 C 810.5 -532.833 804.667 -541.333 802 -552 C 798 -570 792.333 -587.667 785 -605 C 777.667 -622.333 769 -639.333 759 -656 C 753 -665.333 750.833 -675.333 752.5 -686 C 754.167 -696.667 759.333 -706 768 -714 C 778 -724.667 790.5 -729.167 805.5 -727.5 C 820.5 -725.833 832 -719 840 -707 C 852.667 -686.333 863.5 -664.833 872.5 -642.5 C 881.5 -620.167 889 -597.333 895 -574 C 897.667 -559.333 894.5 -546.167 885.5 -534.5 C 876.5 -522.833 864.333 -517 849 -517 Z M 768 -246 C 759.333 -253.333 754 -262.5 752 -273.5 C 750 -284.5 752.333 -294.333 759 -303 C 769 -319.667 777.667 -336.5 785 -353.5 C 792.333 -370.5 798.333 -388.333 803 -407 C 805 -417 810.333 -425.333 819 -432 C 827.667 -438.667 837.667 -442 849 -442 C 864.333 -442 876.5 -436.167 885.5 -424.5 C 894.5 -412.833 897.667 -399.667 895 -385 C 889.667 -361.667 882.333 -338.833 873 -316.5 C 863.667 -294.167 852.667 -273 840 -253 C 832 -240.333 820.667 -233.167 806 -231.5 C 791.333 -229.833 778.667 -234.667 768 -246 Z M 574 -65 C 559.333 -61 546.167 -63.833 534.5 -73.5 C 522.833 -83.167 517 -95.667 517 -111 C 517 -121.667 520.167 -131.5 526.5 -140.5 C 532.833 -149.5 541.333 -155 552 -157 C 570 -161.667 587.833 -167.333 605.5 -174 C 623.167 -180.667 640 -189.667 656 -201 C 664.667 -206.333 674.5 -208.167 685.5 -206.5 C 696.5 -204.833 706 -200.333 714 -193 C 724.667 -181.667 729.333 -168.667 728 -154 C 726.667 -139.333 719.667 -128 707 -120 C 686.333 -107.333 664.833 -96.333 642.5 -87 C 620.167 -77.667 597.333 -70.333 574 -65 Z M 274 -752.501 C 263.333 -754.161 254 -759.331 246 -768.001 C 236 -778.001 231.667 -790.501 233 -805.501 C 234.333 -820.501 241 -832.001 253 -840.001 C 273.667 -853.331 295.167 -864.505 317.5 -873.505 C 339.833 -882.505 362.667 -889.665 386 -895.005 C 400.667 -897.665 413.833 -894.505 425.5 -885.505 C 437.167 -876.505 443 -864.335 443 -849.001 C 443 -838.331 439.833 -828.501 433.5 -819.501 C 427.167 -810.501 418.667 -805.001 408 -803.001 C 390 -798.331 372.167 -792.501 354.5 -785.501 C 336.833 -778.501 319.667 -770.001 303 -760.001 C 294.333 -753.331 284.667 -750.831 274 -752.501 Z M 74.5 -534.501 C 65.5 -546.161 62.333 -559.331 65 -574.001 C 71 -597.331 78.5 -620.161 87.5 -642.501 C 96.5 -664.831 107.333 -686.331 120 -707.001 C 128 -719.001 139.5 -725.831 154.5 -727.501 C 169.5 -729.161 182 -724.661 192 -714.001 C 200.667 -706.001 205.833 -696.661 207.5 -686.001 C 209.167 -675.331 207 -665.331 201 -656.001 C 191 -639.331 182.333 -622.331 175 -605.001 C 167.667 -587.661 162 -570.001 158 -552.001 C 155.333 -541.331 149.5 -532.831 140.5 -526.501 C 131.5 -520.161 121.667 -517.001 111 -517.001 C 95.667 -517.001 83.5 -522.831 74.5 -534.501 Z M 154 -231.501 C 139.333 -233.161 128 -240.331 120 -253.001 C 107.333 -273.001 96.333 -294.161 87 -316.501 C 77.667 -338.831 70.333 -361.661 65 -385.001 C 62.333 -399.661 65.5 -412.831 74.5 -424.501 C 83.5 -436.161 95.667 -442.001 111 -442.001 C 122.333 -442.001 132.333 -438.661 141 -432.001 C 149.667 -425.331 155 -417.001 157 -407.001 C 161.667 -388.331 167.667 -370.501 175 -353.501 C 182.333 -336.501 191 -319.661 201 -303.001 C 207.667 -294.331 210 -284.501 208 -273.501 C 206 -262.501 200.667 -253.331 192 -246.001 C 181.333 -234.661 168.667 -229.831 154 -231.501 Z M 317.5 -87.001 C 295.167 -96.331 273.667 -107.331 253 -120.001 C 240.333 -128.001 233.333 -139.331 232 -154.001 C 230.667 -168.661 235.333 -181.661 246 -193.001 C 254 -200.331 263.5 -204.831 274.5 -206.501 C 285.5 -208.161 295.333 -206.331 304 -201.001 C 320 -189.661 336.833 -180.661 354.5 -174.001 C 372.167 -167.331 390 -161.661 408 -157.001 C 418.667 -155.001 427.167 -149.501 433.5 -140.501 C 439.833 -131.501 443 -121.661 443 -110.991 C 443 -95.661 437.167 -83.161 425.5 -73.501 C 413.833 -63.831 400.667 -61.001 386 -65.001 C 362.667 -70.331 339.833 -77.661 317.5 -87.001 Z"/>
</svg>