<?xml version="1.0" encoding="utf-8"?>
<svg clip-rule="evenodd" fill-rule="evenodd" stroke-linejoin="round" stroke-miterlimit="2" viewBox="0 0 250 250" xmlns="http://www.w3.org/2000/svg">
  <path d="M 9.196 105.766 C 9.268 102.767 10.604 99.937 12.878 97.977 C 15.149 96.018 18.144 95.11 21.122 95.479 C 21.221 95.488 21.321 95.5 21.417 95.51 C 26.397 96.129 30.083 100.442 29.918 105.457 C 29.871 106.653 29.848 107.852 29.848 109.048 C 29.848 164.629 74.973 209.754 130.554 209.754 C 131.705 209.754 132.856 209.736 134.005 209.694 C 139.1 209.535 143.479 213.281 144.106 218.339 L 144.112 218.339 C 144.486 221.357 143.566 224.394 141.579 226.693 C 139.591 228.996 136.722 230.349 133.683 230.419 C 132.639 230.439 131.598 230.452 130.554 230.452 C 63.549 230.452 9.15 176.053 9.15 109.048 C 9.15 107.955 9.165 106.859 9.196 105.766 Z M 125.646 19.782 C 174.569 15.72 217.587 52.143 221.648 101.066 C 225.71 149.989 189.287 193.007 140.364 197.068 C 91.44 201.13 48.422 164.707 44.361 115.784 C 40.299 66.861 76.722 23.843 125.646 19.782 Z M 127.486 41.944 C 90.793 44.99 63.476 77.251 66.523 113.944 C 69.569 150.638 101.831 177.953 138.524 174.906 C 175.218 171.86 202.534 139.599 199.487 102.906 C 196.441 66.212 164.18 38.897 127.486 41.944 Z M 134.09 133.292 C 120.353 132.897 109.538 121.439 109.933 107.702 C 110.328 93.966 121.783 83.149 135.521 83.543 C 149.261 83.941 160.075 95.397 159.68 109.133 C 159.285 122.871 147.83 133.687 134.09 133.292 Z M 134.568 116.709 C 139.147 116.841 142.966 113.236 143.098 108.657 C 143.23 104.077 139.624 100.258 135.046 100.128 C 130.465 99.995 126.646 103.601 126.514 108.179 C 126.384 112.759 129.989 116.577 134.568 116.709 Z M 136.358 54.526 C 140.933 54.656 144.541 58.479 144.409 63.054 C 144.279 67.63 140.456 71.239 135.881 71.107 C 115.273 70.514 98.089 86.738 97.496 107.345 C 97.365 111.92 93.542 115.528 88.966 115.398 C 84.39 115.267 80.782 111.444 80.914 106.867 C 81.77 77.102 106.592 53.668 136.358 54.526 Z"/>
</svg>