<?xml version="1.0" encoding="utf-8"?>
<svg xmlns="http://www.w3.org/2000/svg" height="48" viewBox="0 -960 960 960" width="48">
  <path d="M 893.437 -152.16 L 686.688 -152.16 C 598.952 -153.94 512.194 -191.11 455.005 -248.29 C 397.814 -305.49 360.681 -392.87 358.907 -480.54 C 361.517 -561.18 379.897 -598 411.635 -648.11 C 407.098 -648.3 423.077 -648.6 397.967 -648.33 C 353.857 -649.31 325.906 -636.16 297.633 -611.25 C 269.062 -586.05 223.724 -551.47 184.197 -456.04 C 137.861 -344.17 118.429 -239.94 118.429 -190.59 C 118.429 -169.38 101.225 -152.16 80.002 -152.16 L 66.562 -152.16 C 45.338 -152.16 28.134 -169.38 28.134 -190.59 C 29.002 -434.21 76.86 -590.75 144.47 -680.95 C 214.963 -774.99 316.533 -806.24 397.444 -807.84 C 466.278 -806.43 538.672 -788.23 600.16 -757.16 C 611.655 -750.13 624.971 -738.02 631.078 -727.89 C 637.302 -717.53 641.978 -701.08 642.378 -689.52 C 642.78 -677.96 639.26 -661.24 633.776 -650.48 C 628.397 -639.87 614.049 -625.83 603.078 -617.98 C 573.48 -602.68 555.567 -583.43 540.498 -557.61 C 525.548 -532.01 518.997 -507.84 518.342 -478.51 C 517.69 -449.18 523.156 -424.75 536.947 -398.49 C 550.848 -372.03 567.906 -351.98 596.782 -335.38 C 630.327 -304.03 810.863 -251.46 893.437 -244.24 C 914.661 -244.24 931.865 -227.05 931.865 -205.81 L 931.865 -190.59 C 931.865 -169.38 914.661 -152.16 893.437 -152.16 Z" style=""/>
</svg>