<?xml version="1.0" encoding="utf-8"?>
<svg xmlns="http://www.w3.org/2000/svg" height="48" viewBox="0 -960 960 960" width="48">
  <path d="M 429.999 -755.83 L 429.996 -755.83 L 429.994 -730 C 429.994 -702.41 407.596 -680.01 379.995 -680.01 L 279.998 -680.01 C 252.378 -680.01 229.999 -702.41 229.999 -730 L 230.001 -755.83 L 229.999 -755.83 L 229.999 -830 C 229.999 -857.6 252.39 -880 279.999 -880 L 379.999 -880 C 407.608 -880 429.999 -857.6 429.999 -830 Z M 880 -480.01 C 880 -452.4 857.61 -430.01 830 -430.01 C 802.39 -430.01 780 -452.4 780 -480.01 C 780 -507.62 802.39 -530.01 830 -530.01 C 857.61 -530.01 880 -507.62 880 -480.01 Z M 730 -780 C 730 -752.4 707.61 -730.01 680 -730.01 C 652.39 -730.01 630 -752.4 630 -780 C 630 -807.6 652.39 -830 680 -830 C 707.61 -830 730 -807.6 730 -780 Z M 580 -780 C 580 -752.4 557.608 -730.01 529.999 -730.01 C 502.39 -730.01 479.999 -752.4 479.999 -780 C 479.999 -807.6 502.39 -830 529.999 -830 C 557.608 -830 580 -807.6 580 -780 Z M 730 -630.01 C 730 -602.4 707.61 -580.01 680 -580.01 C 652.39 -580.01 630 -602.4 630 -630.01 C 630 -657.62 652.39 -680.01 680 -680.01 C 707.61 -680.01 730 -657.62 730 -630.01 Z M 780 -780 C 780 -807.6 802.39 -830 830 -830 C 857.61 -830 880 -807.6 880 -780 C 880 -752.4 857.61 -730.01 830 -730.01 C 802.39 -730.01 780 -752.4 780 -780 Z M 580 -480.01 L 580 -130 C 580 -102.39 557.608 -80.004 529.999 -80.004 L 129.999 -80.004 C 102.39 -80.004 79.999 -102.39 79.999 -130 L 79.999 -480.01 C 79.999 -562.85 147.155 -630.01 229.999 -630.01 L 429.999 -630.01 C 512.843 -630.01 580 -562.85 580 -480.01 Z M 880 -630.01 C 880 -602.4 857.61 -580.01 830 -580.01 C 802.39 -580.01 780 -602.4 780 -630.01 C 780 -657.62 802.39 -680.01 830 -680.01 C 857.61 -680.01 880 -657.62 880 -630.01 Z" style="stroke-width: 1.563;"/>
</svg>