<?xml version="1.0" encoding="utf-8"?>
<svg viewBox="0 0 22 22" xmlns="http://www.w3.org/2000/svg">
  <path d="M 19.5 11 C 19.5 13.308 18.52 15.497 17.008 17.008 C 15.497 18.52 13.308 19.5 11 19.5 C 8.692 19.5 6.503 18.52 4.992 17.008 C 3.48 15.497 2.5 13.308 2.5 11 C 2.5 8.692 3.48 6.503 4.992 4.992 C 6.503 3.48 8.692 2.5 11 2.5 C 13.308 2.5 15.497 3.48 17.008 4.992 C 18.52 6.503 19.5 8.692 19.5 11 Z M 6.402 6.402 C 5.199 7.604 4.5 9.166 4.5 11 C 4.5 12.834 5.199 14.396 6.402 15.598 C 7.604 16.801 9.166 17.5 11 17.5 C 12.834 17.5 14.396 16.801 15.598 15.598 C 16.801 14.396 17.5 12.834 17.5 11 C 17.5 9.166 16.801 7.604 15.598 6.402 C 14.396 5.199 12.834 4.5 11 4.5 C 9.166 4.5 7.604 5.199 6.402 6.402 Z M 10.5 6.5 L 10.5 13.993 C 10.469 14.305 10.26 14.728 9.988 14.88 C 9.699 15.042 9.228 15.009 8.988 14.866 C 8.748 14.723 8.537 14.332 8.5 14 L 8.5 9.803 L 8.336 10.048 C 8.137 10.292 7.727 10.528 7.416 10.503 C 7.086 10.477 6.712 10.188 6.592 9.936 C 6.473 9.683 6.515 9.242 6.668 8.945 L 8.668 5.946 C 8.844 5.731 9.194 5.537 9.469 5.5 C 9.715 5.515 10.037 5.628 10.196 5.782 C 10.355 5.936 10.477 6.254 10.5 6.5 Z M 12.484 6.992 C 12.73 7.011 13.051 7.129 13.207 7.285 C 13.363 7.441 13.481 7.754 13.5 8 L 13.5 12.197 L 13.664 11.952 C 13.863 11.708 14.273 11.472 14.584 11.497 C 14.914 11.523 15.288 11.812 15.408 12.064 C 15.527 12.317 15.485 12.758 15.332 13.055 L 13.332 16.055 C 13.252 16.162 13.116 16.299 13 16.366 C 12.714 16.531 12.242 16.506 12 16.366 C 11.758 16.226 11.542 15.831 11.5 15.5 L 11.5 8.008 C 11.518 7.767 11.631 7.452 11.782 7.296 C 11.933 7.14 12.245 7.018 12.484 6.992 Z"/>
</svg>