<?xml version="1.0" encoding="utf-8"?>
<svg xmlns="http://www.w3.org/2000/svg" height="48" viewBox="0 -960 960 960" width="48">
  <path d="M 310.82 -771 C 297.973 -771 286.957 -775.687 277.77 -785.06 C 268.59 -794.433 264 -805.6 264 -818.56 C 264 -831.52 268.687 -842.667 278.06 -852 C 287.433 -861.333 298.6 -866 311.56 -866 C 324.52 -866 335.667 -861.253 345 -851.76 C 354.333 -842.267 359 -830.953 359 -817.82 C 359 -804.973 354.253 -793.96 344.76 -784.78 C 335.267 -775.593 323.953 -771 310.82 -771 Z M 819.561 -433.002 C 806.6 -433.002 795.42 -437.402 786.06 -446.402 C 776.68 -455.402 772.001 -466.602 772.001 -479.802 C 772.001 -493.002 776.66 -504.192 786.001 -513.192 C 795.321 -522.412 806.38 -527.002 819.141 -527.002 C 831.9 -527.002 842.9 -522.412 852.141 -513.412 C 861.38 -504.392 866 -493.392 866 -480.192 C 866 -467.002 861.501 -455.802 852.5 -446.602 C 843.5 -437.602 832.521 -433.002 819.561 -433.002 Z M 786.06 -616.012 C 776.68 -625.402 772.001 -636.402 772.001 -649.402 C 772.001 -662.402 776.66 -673.602 786.001 -683.002 C 795.321 -692.212 806.38 -697.012 819.141 -697.012 C 831.9 -697.012 842.9 -692.412 852.141 -683.202 C 861.38 -674.002 866 -663.002 866 -650.202 C 866 -637.002 861.501 -625.802 852.5 -616.212 C 843.5 -606.802 832.521 -602.002 819.561 -602.002 C 806.6 -602.002 795.42 -606.602 786.06 -616.012 Z M 786.06 -784.802 C 776.68 -794.002 772.001 -805.002 772.001 -817.802 C 772.001 -831.002 776.66 -842.202 786.001 -851.812 C 795.321 -861.202 806.38 -866 819.141 -866 C 831.9 -866 842.9 -861.402 852.141 -852.012 C 861.38 -842.602 866 -831.602 866 -818.602 C 866 -805.602 861.501 -794.402 852.5 -785.002 C 843.5 -775.612 832.521 -771.012 819.561 -771.012 C 806.6 -771.012 795.42 -775.612 786.06 -784.802 Z M 616.24 -784.802 C 606.741 -794.002 602 -805.002 602 -817.802 C 602 -831.002 606.661 -842.202 616 -851.812 C 625.32 -861.202 636.48 -866 649.44 -866 C 662.401 -866 673.561 -861.402 682.941 -852.012 C 692.301 -842.602 697 -831.602 697 -818.602 C 697 -805.602 692.4 -794.402 683.22 -785.002 C 674.04 -775.612 663.021 -771.012 650.181 -771.012 C 637.041 -771.012 625.721 -775.612 616.24 -784.802 Z M 261.217 -270.65 L 261.217 -359 L 348.519 -359 L 348.519 -270.65 Z M 523.126 -183.33 L 523.126 -270.65 L 610.428 -270.65 L 610.428 -183.33 Z M 610.428 -270.65 L 610.428 -359 L 523.126 -359 L 523.126 -447.94 L 611.481 -447.94 L 611.481 -359 L 698.783 -359 L 698.783 -270.65 Z M 698.783 -95 L 610.954 -95 L 610.954 -183.33 L 698.783 -183.33 Z M 348.519 -270.65 L 436.874 -270.65 L 436.874 -183.33 L 523.126 -183.33 L 523.126 -95 L 436.012 -95 L 436.012 -183.33 L 348.877 -183.33 L 348.877 -95 L 261.742 -95 L 261.742 -183.33 L 348.519 -183.33 Z M 436.874 -270.65 L 436.874 -359 L 523.126 -359 L 523.126 -270.65 Z M 817.82 -95 C 804.973 -95 793.96 -99.62 784.78 -108.86 C 775.593 -118.1 771 -129.1 771 -141.86 C 771 -154.62 775.687 -165.667 785.06 -175 C 794.433 -184.333 805.6 -189 818.56 -189 C 818.599 -189 818.638 -189 818.676 -189 C 818.831 -189.001 818.986 -189.002 819.141 -189.002 C 831.9 -189.002 842.9 -184.402 852.141 -175.012 C 861.38 -165.602 866 -154.602 866 -141.792 C 866 -141.733 866 -141.674 866 -141.616 C 866 -141.557 866 -141.499 866 -141.44 C 866 -134.526 864.649 -128.176 861.947 -122.39 C 859.718 -117.495 856.569 -112.966 852.5 -108.802 C 843.5 -99.602 832.521 -95.002 819.561 -95.002 C 819.292 -95.002 819.024 -95.004 818.757 -95.008 C 818.446 -95.003 818.133 -95 817.82 -95 Z M 784.78 -278.06 C 775.593 -287.433 771 -298.6 771 -311.56 C 771 -324.52 775.687 -335.667 785.06 -345 C 794.433 -354.333 805.6 -359 818.56 -359 C 818.599 -359 818.637 -359 818.676 -359 C 818.831 -359.001 818.986 -359.002 819.141 -359.002 C 831.9 -359.002 842.9 -354.402 852.141 -344.992 C 861.38 -335.602 866 -324.402 866 -311.602 C 866 -311.471 866 -311.34 865.999 -311.209 C 866 -311.08 866 -310.95 866 -310.82 C 866 -303.654 864.523 -297.057 861.569 -291.03 C 859.367 -286.359 856.344 -282.016 852.5 -278.002 C 843.5 -268.592 832.521 -264.002 819.561 -264.002 C 819.293 -264.002 819.026 -264.004 818.76 -264.008 C 818.447 -264.003 818.134 -264 817.82 -264 C 804.973 -264 793.96 -268.687 784.78 -278.06 Z M 141.44 -95 C 128.48 -95 117.5 -99.62 108.5 -108.86 C 106.267 -111.152 104.312 -113.553 102.633 -116.061 C 97.542 -123.436 95 -131.883 95 -141.402 C 95 -141.478 95 -141.555 95 -141.631 C 95 -141.707 95 -141.784 95 -141.86 C 95 -154.62 99.62 -165.667 108.86 -175 C 118.1 -184.333 129.1 -189 141.86 -189 C 141.897 -189 141.933 -189 141.97 -189 C 142.126 -189.001 142.283 -189.002 142.44 -189.002 C 155.401 -189.002 166.56 -184.402 175.941 -175.012 C 185.301 -165.602 190 -154.602 190 -141.792 C 190 -129.012 185.4 -118.012 176.22 -108.802 C 167.04 -99.602 156.021 -95.002 143.181 -95.002 C 142.908 -95.002 142.636 -95.004 142.365 -95.008 C 142.058 -95.003 141.749 -95 141.44 -95 Z M 141.44 -264 C 128.48 -264 117.5 -268.687 108.5 -278.06 C 104.598 -282.124 101.542 -286.525 99.331 -291.263 C 96.443 -297.227 95 -303.741 95 -310.802 C 95 -310.929 95 -311.055 95.001 -311.181 C 95 -311.307 95 -311.434 95 -311.56 C 95 -324.52 99.62 -335.667 108.86 -345 C 118.1 -354.333 129.1 -359 141.86 -359 C 141.896 -359 141.933 -359 141.969 -359 C 142.126 -359.001 142.283 -359.002 142.44 -359.002 C 155.401 -359.002 166.56 -354.402 175.941 -344.992 C 185.301 -335.602 190 -324.402 190 -311.602 C 190 -298.602 185.4 -287.402 176.22 -278.002 C 167.04 -268.592 156.021 -264.002 143.181 -264.002 C 142.909 -264.002 142.638 -264.004 142.368 -264.008 C 142.06 -264.003 141.75 -264 141.44 -264 Z M 108.5 -446.68 C 99.5 -455.793 95 -466.96 95 -480.18 C 95 -493.393 99.62 -504.5 108.86 -513.5 C 118.1 -522.5 129.1 -527 141.86 -527 C 154.62 -527 165.667 -522.44 175 -513.32 C 184.333 -504.207 189 -493.04 189 -479.82 C 189 -466.607 184.313 -455.5 174.94 -446.5 C 165.567 -437.5 154.4 -433 141.44 -433 C 128.48 -433 117.5 -437.56 108.5 -446.68 Z M 141.44 -602 C 128.48 -602 117.5 -606.747 108.5 -616.24 C 99.5 -625.733 95 -637.047 95 -650.18 C 95 -663.027 99.62 -674.04 108.86 -683.22 C 118.1 -692.407 129.1 -697 141.86 -697 C 154.62 -697 165.667 -692.313 175 -682.94 C 184.333 -673.567 189 -662.4 189 -649.44 C 189 -636.48 184.313 -625.333 174.94 -616 C 165.567 -606.667 154.4 -602 141.44 -602 Z M 141.44 -771 C 128.48 -771 117.5 -775.687 108.5 -785.06 C 99.5 -794.433 95 -805.6 95 -818.56 C 95 -831.52 99.62 -842.667 108.86 -852 C 118.1 -861.333 129.1 -866 141.86 -866 C 154.62 -866 165.667 -861.253 175 -851.76 C 184.333 -842.267 189 -830.953 189 -817.82 C 189 -804.973 184.313 -793.96 174.94 -784.78 C 165.567 -775.593 154.4 -771 141.44 -771 Z M 446.745 -784.81 C 437.247 -794.01 432.507 -805 432.507 -817.81 C 432.507 -831 437.167 -842.21 446.505 -851.8 C 455.824 -861.2 466.982 -866 479.941 -866 C 492.899 -866 504.058 -861.41 513.436 -852 C 522.795 -842.6 527.494 -831.61 527.494 -818.61 C 527.494 -805.61 522.895 -794.41 513.717 -785.01 C 504.537 -775.62 493.519 -771.01 480.68 -771.01 C 467.543 -771.01 456.224 -775.62 446.745 -784.81 Z M 436.874 -359 L 349.572 -359 L 349.572 -446.94 L 436.874 -446.94 Z"/>
</svg>