<?xml version="1.0" encoding="utf-8"?>
<svg viewBox="0 0 22 22" xmlns="http://www.w3.org/2000/svg">
  <path d="M 13.21 2.823 L 13.21 5.823 C 13.21 6.099 12.986 6.323 12.71 6.323 L 11.71 6.323 C 11.434 6.323 11.21 6.099 11.21 5.823 L 11.21 4.323 L 4.21 4.323 L 4.21 14.323 L 7.71 14.323 C 7.986 14.323 8.21 14.547 8.21 14.823 L 8.21 15.823 C 8.21 16.099 7.986 16.323 7.71 16.323 L 2.71 16.323 C 2.434 16.323 2.21 16.099 2.21 15.823 L 2.21 2.823 C 2.21 2.547 2.434 2.323 2.71 2.323 L 12.71 2.323 C 12.986 2.323 13.21 2.547 13.21 2.823 Z M 10.339 6.777 L 19.339 7.678 C 19.594 7.704 19.789 7.919 19.789 8.176 L 19.789 19.176 C 19.789 19.317 19.729 19.452 19.625 19.547 C 19.52 19.642 19.38 19.688 19.239 19.674 L 9.239 18.674 C 8.984 18.648 8.789 18.433 8.789 18.176 L 8.789 7.176 C 8.789 7.035 8.849 6.9 8.953 6.805 C 9.058 6.711 9.198 6.665 9.338 6.678 L 10.339 6.777 Z M 10.789 16.823 L 17.789 17.523 L 17.789 9.528 L 10.789 8.828 L 10.789 16.823 Z"/>
</svg>