<?xml version="1.0" encoding="utf-8"?>
<svg xmlns="http://www.w3.org/2000/svg" height="48" viewBox="0 -960 960 960" width="48">
  <path d="M 189 -95 C 162.467 -95 140.167 -104.033 122.1 -122.1 C 104.033 -140.167 95 -162.467 95 -189 L 95 -433 C 95 -458.833 104.033 -480.96 122.1 -499.38 C 140.167 -517.793 162.467 -527 189 -527 L 433 -527 C 458.833 -527 480.96 -517.793 499.38 -499.38 C 517.793 -480.96 527 -458.833 527 -433 L 527 -189 C 527 -162.467 517.793 -140.167 499.38 -122.1 C 480.96 -104.033 458.833 -95 433 -95 Z M 141.44 -771 C 128.48 -771 117.5 -775.687 108.5 -785.06 C 99.5 -794.433 95 -805.6 95 -818.56 C 95 -831.52 99.62 -842.667 108.86 -852 C 118.1 -861.333 129.1 -866 141.86 -866 C 154.62 -866 165.667 -861.253 175 -851.76 C 184.333 -842.267 189 -830.953 189 -817.82 C 189 -804.973 184.313 -793.96 174.94 -784.78 C 165.567 -775.593 154.4 -771 141.44 -771 Z M 310.82 -771 C 297.973 -771 286.957 -775.687 277.77 -785.06 C 268.59 -794.433 264 -805.6 264 -818.56 C 264 -831.52 268.687 -842.667 278.06 -852 C 287.433 -861.333 298.6 -866 311.56 -866 C 324.52 -866 335.667 -861.253 345 -851.76 C 354.333 -842.267 359 -830.953 359 -817.82 C 359 -804.973 354.253 -793.96 344.76 -784.78 C 335.267 -775.593 323.953 -771 310.82 -771 Z M 479.82 -771 C 466.607 -771 455.5 -775.687 446.5 -785.06 C 437.5 -794.433 433 -805.6 433 -818.56 C 433 -831.52 437.56 -842.667 446.68 -852 C 455.793 -861.333 466.96 -866 480.18 -866 C 493.393 -866 504.5 -861.253 513.5 -851.76 C 522.5 -842.267 527 -830.953 527 -817.82 C 527 -804.973 522.44 -793.96 513.32 -784.78 C 504.207 -775.593 493.04 -771 479.82 -771 Z M 649.44 -771 C 636.48 -771 625.333 -775.687 616 -785.06 C 606.667 -794.433 602 -805.6 602 -818.56 C 602 -831.52 606.747 -842.667 616.24 -852 C 625.733 -861.333 637.047 -866 650.18 -866 C 663.027 -866 674.04 -861.253 683.22 -851.76 C 692.407 -842.267 697 -830.953 697 -817.82 C 697 -804.973 692.313 -793.96 682.94 -784.78 C 673.567 -775.593 662.4 -771 649.44 -771 Z M 817.82 -771 C 804.973 -771 793.96 -775.687 784.78 -785.06 C 775.593 -794.433 771 -805.6 771 -818.56 C 771 -831.52 775.687 -842.667 785.06 -852 C 794.433 -861.333 805.6 -866 818.56 -866 C 831.52 -866 842.667 -861.253 852 -851.76 C 861.333 -842.267 866 -830.953 866 -817.82 C 866 -804.973 861.253 -793.96 851.76 -784.78 C 842.267 -775.593 830.953 -771 817.82 -771 Z M 649.44 -95 C 636.48 -95 625.333 -99.62 616 -108.86 C 606.667 -118.1 602 -129.1 602 -141.86 C 602 -154.62 606.747 -165.667 616.24 -175 C 625.733 -184.333 637.047 -189 650.18 -189 C 663.027 -189 674.04 -184.313 683.22 -174.94 C 692.407 -165.567 697 -154.4 697 -141.44 C 697 -128.48 692.313 -117.5 682.94 -108.5 C 673.567 -99.5 662.4 -95 649.44 -95 Z M 141.44 -602 C 128.48 -602 117.5 -606.747 108.5 -616.24 C 99.5 -625.733 95 -637.047 95 -650.18 C 95 -663.027 99.62 -674.04 108.86 -683.22 C 118.1 -692.407 129.1 -697 141.86 -697 C 154.62 -697 165.667 -692.313 175 -682.94 C 184.333 -673.567 189 -662.4 189 -649.44 C 189 -636.48 184.313 -625.333 174.94 -616 C 165.567 -606.667 154.4 -602 141.44 -602 Z M 817.82 -602 C 804.973 -602 793.96 -606.747 784.78 -616.24 C 775.593 -625.733 771 -637.047 771 -650.18 C 771 -663.027 775.687 -674.04 785.06 -683.22 C 794.433 -692.407 805.6 -697 818.56 -697 C 831.52 -697 842.667 -692.313 852 -682.94 C 861.333 -673.567 866 -662.4 866 -649.44 C 866 -636.48 861.253 -625.333 851.76 -616 C 842.267 -606.667 830.953 -602 817.82 -602 Z M 817.82 -433 C 804.973 -433 793.96 -437.56 784.78 -446.68 C 775.593 -455.793 771 -466.96 771 -480.18 C 771 -493.393 775.687 -504.5 785.06 -513.5 C 794.433 -522.5 805.6 -527 818.56 -527 C 831.52 -527 842.667 -522.44 852 -513.32 C 861.333 -504.207 866 -493.04 866 -479.82 C 866 -466.607 861.253 -455.5 851.76 -446.5 C 842.267 -437.5 830.953 -433 817.82 -433 Z M 817.82 -264 C 804.973 -264 793.96 -268.687 784.78 -278.06 C 775.593 -287.433 771 -298.6 771 -311.56 C 771 -324.52 775.687 -335.667 785.06 -345 C 794.433 -354.333 805.6 -359 818.56 -359 C 831.52 -359 842.667 -354.253 852 -344.76 C 861.333 -335.267 866 -323.953 866 -310.82 C 866 -297.973 861.253 -286.957 851.76 -277.77 C 842.267 -268.59 830.953 -264 817.82 -264 Z M 817.82 -95 C 804.973 -95 793.96 -99.62 784.78 -108.86 C 775.593 -118.1 771 -129.1 771 -141.86 C 771 -154.62 775.687 -165.667 785.06 -175 C 794.433 -184.333 805.6 -189 818.56 -189 C 831.52 -189 842.667 -184.313 852 -174.94 C 861.333 -165.567 866 -154.4 866 -141.44 C 866 -128.48 861.253 -117.5 851.76 -108.5 C 842.267 -99.5 830.953 -95 817.82 -95 Z M 268.011 -208.29 C 268.535 -199.17 272.813 -188.49 278.702 -181.61 C 285.622 -175.47 296.363 -170.58 305.566 -170.58 C 314.766 -170.58 325.483 -175.41 332.452 -181.5 C 338.494 -188.41 342.86 -199.13 343.397 -208.29 L 343.397 -367.25 L 396.476 -367.25 C 405.677 -367.78 416.318 -372.11 423.205 -378.11 C 429.222 -384.88 434.168 -395.43 434.168 -404.79 C 434.168 -414.06 429.299 -424.79 423.294 -431.69 C 416.358 -437.78 405.643 -442.12 396.476 -442.64 L 214.929 -442.64 C 205.754 -442.12 195.14 -437.88 188.317 -432.05 C 182.351 -425.23 177.237 -414.46 177.237 -405.1 C 177.237 -395.8 182.143 -385.19 188.153 -378.36 C 195.134 -372.15 205.721 -367.78 214.929 -367.25 L 268.011 -367.25 Z"/>
</svg>