<?xml version="1.0" encoding="utf-8"?>
<svg viewBox="0 0 22 22" xmlns="http://www.w3.org/2000/svg">
  <path d="M 6.776 13.447 L 2.776 11.447 C 2.607 11.363 2.5 11.189 2.5 11 C 2.5 10.811 2.607 10.637 2.776 10.553 L 6.776 8.553 C 6.931 8.475 7.115 8.484 7.263 8.575 C 7.41 8.666 7.5 8.827 7.5 9 L 7.5 13 C 7.5 13.173 7.41 13.334 7.263 13.425 C 7.115 13.516 6.931 13.525 6.776 13.447 Z M 19.224 11.447 L 15.224 13.447 C 15.069 13.525 14.885 13.516 14.737 13.425 C 14.59 13.334 14.5 13.173 14.5 13 L 14.5 9 C 14.5 8.827 14.59 8.666 14.737 8.575 C 14.885 8.484 15.069 8.475 15.224 8.553 L 19.224 10.553 C 19.393 10.637 19.5 10.811 19.5 11 C 19.5 11.189 19.393 11.362 19.224 11.447 Z M 12.5 11 C 12.5 11.379 12.305 11.817 12.061 12.061 C 11.817 12.305 11.379 12.5 11 12.5 C 10.621 12.5 10.183 12.305 9.939 12.061 C 9.695 11.817 9.5 11.379 9.5 11 C 9.5 10.621 9.695 10.183 9.939 9.939 C 10.183 9.695 10.621 9.5 11 9.5 C 11.379 9.5 11.817 9.695 12.061 9.939 C 12.305 10.183 12.5 10.621 12.5 11 Z"/>
</svg>