<?xml version="1.0" encoding="utf-8"?>
<svg xmlns="http://www.w3.org/2000/svg" height="48" viewBox="0 -960 960 960" width="48">
  <path d="M 141.44 -771 C 128.48 -771 117.5 -775.687 108.5 -785.06 C 99.5 -794.433 95 -805.6 95 -818.56 C 95 -831.52 99.62 -842.667 108.86 -852 C 118.1 -861.333 129.1 -866 141.86 -866 C 154.62 -866 165.667 -861.253 175 -851.76 C 184.333 -842.267 189 -830.953 189 -817.82 C 189 -804.973 184.313 -793.96 174.94 -784.78 C 165.567 -775.593 154.4 -771 141.44 -771 Z M 310.82 -771 C 297.973 -771 286.957 -775.687 277.77 -785.06 C 268.59 -794.433 264 -805.6 264 -818.56 C 264 -831.52 268.687 -842.667 278.06 -852 C 287.433 -861.333 298.6 -866 311.56 -866 C 324.52 -866 335.667 -861.253 345 -851.76 C 354.333 -842.267 359 -830.953 359 -817.82 C 359 -804.973 354.253 -793.96 344.76 -784.78 C 335.267 -775.593 323.953 -771 310.82 -771 Z M 141.44 -602 C 128.48 -602 117.5 -606.747 108.5 -616.24 C 99.5 -625.733 95 -637.047 95 -650.18 C 95 -663.027 99.62 -674.04 108.86 -683.22 C 118.1 -692.407 129.1 -697 141.86 -697 C 154.62 -697 165.667 -692.313 175 -682.94 C 184.333 -673.567 189 -662.4 189 -649.44 C 189 -636.48 184.313 -625.333 174.94 -616 C 165.567 -606.667 154.4 -602 141.44 -602 Z M 141.44 -433 C 128.48 -433 117.5 -437.56 108.5 -446.68 C 99.5 -455.793 95 -466.96 95 -480.18 C 95 -493.393 99.62 -504.5 108.86 -513.5 C 118.1 -522.5 129.1 -527 141.86 -527 C 154.62 -527 165.667 -522.44 175 -513.32 C 184.333 -504.207 189 -493.04 189 -479.82 C 189 -466.607 184.313 -455.5 174.94 -446.5 C 165.567 -437.5 154.4 -433 141.44 -433 Z M 141.44 -264 C 128.48 -264 117.5 -268.687 108.5 -278.06 C 99.5 -287.433 95 -298.6 95 -311.56 C 95 -324.52 99.62 -335.667 108.86 -345 C 118.1 -354.333 129.1 -359 141.86 -359 C 154.62 -359 165.667 -354.253 175 -344.76 C 184.333 -335.267 189 -323.953 189 -310.82 C 189 -297.973 184.313 -286.957 174.94 -277.77 C 165.567 -268.59 154.4 -264 141.44 -264 Z M 817.82 -264 C 804.973 -264 793.96 -268.687 784.78 -278.06 C 775.593 -287.433 771 -298.6 771 -311.56 C 771 -324.52 775.687 -335.667 785.06 -345 C 794.433 -354.333 805.6 -359 818.56 -359 C 831.52 -359 842.667 -354.253 852 -344.76 C 861.333 -335.267 866 -323.953 866 -310.82 C 866 -297.973 861.253 -286.957 851.76 -277.77 C 842.267 -268.59 830.953 -264 817.82 -264 Z M 141.44 -95 C 128.48 -95 117.5 -99.62 108.5 -108.86 C 99.5 -118.1 95 -129.1 95 -141.86 C 95 -154.62 99.62 -165.667 108.86 -175 C 118.1 -184.333 129.1 -189 141.86 -189 C 154.62 -189 165.667 -184.313 175 -174.94 C 184.333 -165.567 189 -154.4 189 -141.44 C 189 -128.48 184.313 -117.5 174.94 -108.5 C 165.567 -99.5 154.4 -95 141.44 -95 Z M 310.82 -95 C 297.973 -95 286.957 -99.62 277.77 -108.86 C 268.59 -118.1 264 -129.1 264 -141.86 C 264 -154.62 268.687 -165.667 278.06 -175 C 287.433 -184.333 298.6 -189 311.56 -189 C 324.52 -189 335.667 -184.313 345 -174.94 C 354.333 -165.567 359 -154.4 359 -141.44 C 359 -128.48 354.253 -117.5 344.76 -108.5 C 335.267 -99.5 323.953 -95 310.82 -95 Z M 479.82 -95 C 466.607 -95 455.5 -99.62 446.5 -108.86 C 437.5 -118.1 433 -129.1 433 -141.86 C 433 -154.62 437.56 -165.667 446.68 -175 C 455.793 -184.333 466.96 -189 480.18 -189 C 493.393 -189 504.5 -184.313 513.5 -174.94 C 522.5 -165.567 527 -154.4 527 -141.44 C 527 -128.48 522.44 -117.5 513.32 -108.5 C 504.207 -99.5 493.04 -95 479.82 -95 Z M 649.44 -95 C 636.48 -95 625.333 -99.62 616 -108.86 C 606.667 -118.1 602 -129.1 602 -141.86 C 602 -154.62 606.747 -165.667 616.24 -175 C 625.733 -184.333 637.047 -189 650.18 -189 C 663.027 -189 674.04 -184.313 683.22 -174.94 C 692.407 -165.567 697 -154.4 697 -141.44 C 697 -128.48 692.313 -117.5 682.94 -108.5 C 673.567 -99.5 662.4 -95 649.44 -95 Z M 817.82 -95 C 804.973 -95 793.96 -99.62 784.78 -108.86 C 775.593 -118.1 771 -129.1 771 -141.86 C 771 -154.62 775.687 -165.667 785.06 -175 C 794.433 -184.333 805.6 -189 818.56 -189 C 831.52 -189 842.667 -184.313 852 -174.94 C 861.333 -165.567 866 -154.4 866 -141.44 C 866 -128.48 861.253 -117.5 851.76 -108.5 C 842.267 -99.5 830.953 -95 817.82 -95 Z M 771 -481 L 771 -641 C 771 -643.19 771.152 -645.572 771.433 -648.12 C 771.144 -650.348 770.999 -652.644 770.999 -655.01 L 770.999 -771 L 655 -771 C 652.599 -771 650.266 -771.153 648.001 -771.458 C 645.507 -771.161 643.166 -771 641 -771 L 481 -771 C 467.833 -771 456.71 -775.56 447.63 -784.68 C 438.543 -793.793 434 -804.93 434 -818.09 C 434 -831.243 438.543 -842.517 447.63 -851.91 C 456.71 -861.303 467.833 -866 481 -866 L 653 -866 C 653.454 -866 653.907 -865.999 654.36 -865.996 C 654.573 -865.999 654.786 -866 655 -866 L 770.999 -866 C 797.3 -866 819.719 -856.8 838.219 -838.19 C 856.74 -819.8 866 -797.4 866 -771 L 866 -655.01 C 866 -654.797 865.999 -654.585 865.996 -654.374 C 865.999 -653.916 866 -653.458 866 -653 L 866 -481 C 866 -467.833 861.247 -456.71 851.74 -447.63 C 842.227 -438.543 830.893 -434 817.74 -434 C 804.58 -434 793.5 -438.543 784.5 -447.63 C 775.5 -456.71 771 -467.833 771 -481 Z"/>
</svg>