<?xml version="1.0" encoding="utf-8"?>
<svg xmlns="http://www.w3.org/2000/svg" height="48" viewBox="0 -960 960 960" width="48">
  <path d="M 310.82 -771 C 297.973 -771 286.957 -775.687 277.77 -785.06 C 268.59 -794.433 264 -805.6 264 -818.56 C 264 -831.52 268.687 -842.667 278.06 -852 C 287.433 -861.333 298.6 -866 311.56 -866 C 324.52 -866 335.667 -861.253 345 -851.76 C 354.333 -842.267 359 -830.953 359 -817.82 C 359 -804.973 354.253 -793.96 344.76 -784.78 C 335.267 -775.593 323.953 -771 310.82 -771 Z M 446.745 -784.81 C 437.247 -794.01 432.507 -805 432.507 -817.81 C 432.507 -831 437.167 -842.21 446.505 -851.8 C 455.824 -861.2 466.982 -866 479.941 -866 C 492.899 -866 504.058 -861.41 513.436 -852 C 522.795 -842.6 527.494 -831.61 527.494 -818.61 C 527.494 -805.61 522.895 -794.41 513.717 -785.01 C 504.537 -775.62 493.519 -771.01 480.68 -771.01 C 467.543 -771.01 456.224 -775.62 446.745 -784.81 Z M 141.44 -771 C 128.48 -771 117.5 -775.687 108.5 -785.06 C 99.556 -794.374 95.056 -805.461 95.001 -818.317 C 94.996 -818.614 94.993 -818.911 94.993 -819.21 C 94.993 -819.21 94.993 -819.21 94.993 -819.41 C 94.993 -819.41 94.993 -819.41 94.993 -819.59 C 94.993 -826.4 96.353 -832.81 99.053 -838.59 C 101.293 -843.4 104.432 -848 108.492 -852.2 C 117.493 -861.4 128.473 -866 141.434 -866 C 141.714 -866 141.973 -866 142.254 -866 C 142.552 -866 142.873 -866 143.172 -866 C 156.032 -866 167.033 -861.4 176.214 -852.2 C 185.414 -842.81 189.993 -831.8 189.993 -819 C 189.993 -808.114 186.5 -798.273 179.5 -789.857 C 178.129 -788.107 176.609 -786.414 174.94 -784.78 C 165.567 -775.593 154.4 -771 141.44 -771 Z M 141.44 -602 C 128.48 -602 117.5 -606.747 108.5 -616.24 C 106.602 -618.242 104.903 -620.326 103.405 -622.49 C 97.797 -630.423 94.993 -639.418 94.993 -649.39 C 94.993 -649.39 94.993 -649.52 95.002 -649.673 C 95.002 -649.726 95.001 -649.78 95.001 -649.834 C 94.993 -649.899 94.993 -650.047 94.993 -650.19 C 94.993 -651.93 95.079 -653.623 95.252 -655.279 C 96.124 -663.921 99.258 -671.666 104.654 -678.514 C 105.826 -680.053 107.106 -681.552 108.492 -683 C 117.493 -692.4 128.473 -697 141.434 -697 C 141.714 -697 141.973 -697 142.233 -697 C 142.552 -697 142.873 -697 143.172 -697 C 156.032 -697 167.033 -692.2 176.214 -682.79 C 185.414 -673.61 189.993 -662.4 189.993 -649.39 C 189.993 -636.4 185.313 -625.2 175.934 -616 C 166.573 -606.59 155.394 -602 142.434 -602 C 142.413 -602 142.373 -602 142.333 -602 C 142.174 -602 142.013 -602 141.853 -602 C 141.784 -602 141.716 -602 141.647 -602 C 141.578 -602 141.509 -602 141.44 -602 Z M 108.5 -446.68 C 99.576 -455.716 95.076 -466.771 95.001 -479.845 C 94.996 -480.159 94.993 -480.474 94.993 -480.79 C 94.993 -494 99.493 -505.19 108.492 -514.39 C 117.493 -523.39 128.473 -527.99 141.434 -527.99 C 154.394 -527.99 165.573 -523.59 174.934 -514.6 C 184.313 -505.6 188.993 -494.39 188.993 -481.2 C 188.993 -481.064 188.993 -480.928 188.992 -480.792 C 188.997 -480.47 189 -480.145 189 -479.82 C 189 -466.607 184.313 -455.5 174.94 -446.5 C 165.567 -437.5 154.4 -433 141.44 -433 C 128.48 -433 117.5 -437.56 108.5 -446.68 Z M 141.44 -264 C 128.48 -264 117.5 -268.687 108.5 -278.06 C 107.431 -279.174 106.425 -280.312 105.483 -281.477 C 98.49 -289.881 94.993 -299.654 94.993 -310.79 C 94.993 -311.095 94.995 -311.398 95 -311.701 C 95.027 -322.091 98.03 -331.314 104.008 -339.369 C 105.352 -341.234 106.847 -343.043 108.492 -344.8 C 117.493 -354.19 128.473 -359 141.434 -359 C 141.506 -359 141.578 -359 141.649 -359 C 141.719 -359 141.79 -359 141.86 -359 C 141.896 -359 141.933 -359 141.969 -359 C 142.126 -359.001 142.283 -359.002 142.44 -359.002 C 155.401 -359.002 166.56 -354.402 175.941 -344.992 C 185.301 -335.602 190 -324.402 190 -311.602 C 190 -298.602 185.4 -287.402 176.22 -278.002 C 167.04 -268.592 156.021 -264.002 143.181 -264.002 C 142.981 -264.002 142.781 -264.003 142.582 -264.005 C 142.34 -264.002 142.097 -264 141.853 -264 C 141.783 -264 141.713 -264 141.643 -264 C 141.575 -264 141.508 -264 141.44 -264 Z M 141.44 -95 C 128.48 -95 117.5 -99.62 108.5 -108.86 C 106.267 -111.152 104.312 -113.553 102.633 -116.061 C 97.542 -123.436 95 -131.883 95 -141.402 C 95 -141.44 95 -141.479 95 -141.517 C 94.995 -141.807 94.993 -142.098 94.993 -142.39 C 94.993 -155.4 99.493 -166.59 108.492 -175.99 C 117.493 -185.4 128.473 -190 141.434 -190 C 154.394 -190 165.573 -185.4 174.934 -176.2 C 176.74 -174.426 178.372 -172.586 179.83 -170.679 C 186.602 -162.269 190 -152.685 190 -141.792 C 190 -129.012 185.4 -118.012 176.22 -108.802 C 167.04 -99.602 156.021 -95.002 143.181 -95.002 C 142.981 -95.002 142.781 -95.003 142.582 -95.005 C 142.339 -95.002 142.096 -95 141.853 -95 C 141.783 -95 141.712 -95 141.642 -95 C 141.575 -95 141.507 -95 141.44 -95 Z M 784.78 -278.06 C 775.593 -287.433 771 -298.6 771 -311.56 C 771 -324.52 775.687 -335.667 785.06 -345 C 794.433 -354.333 805.6 -359 818.56 -359 C 818.599 -359 818.637 -359 818.676 -359 C 818.831 -359.001 818.986 -359.002 819.141 -359.002 C 819.295 -359.002 819.449 -359.001 819.603 -359 C 832.544 -358.989 843.511 -354.18 852.501 -344.8 C 854.27 -342.911 855.865 -340.953 857.286 -338.928 C 863.095 -330.895 866 -321.751 866 -311.602 C 866 -311.471 866 -311.34 865.999 -311.209 C 866 -311.08 866 -310.95 866 -310.82 C 866 -310.815 866 -310.81 866 -310.805 C 866 -310.8 866 -310.795 866 -310.79 C 866 -300.469 862.996 -291.318 856.989 -283.342 C 855.643 -281.502 854.147 -279.722 852.5 -278.002 C 843.509 -268.602 832.544 -264.012 819.602 -264.002 C 819.448 -264.001 819.294 -264 819.14 -264 C 818.92 -264 818.7 -264.001 818.481 -264.004 C 818.261 -264.001 818.041 -264 817.82 -264 C 804.973 -264 793.96 -268.687 784.78 -278.06 Z M 817.82 -95 C 804.973 -95 793.96 -99.62 784.78 -108.86 C 783.621 -110.026 782.609 -111.802 781.746 -114.034 C 775.256 -122.417 772 -132.188 772 -143.19 C 772 -155.99 776.7 -166.99 786.059 -176.2 C 795.44 -185.4 806.599 -190 819.56 -190 C 832.52 -190 843.501 -185.2 852.501 -175.99 C 861.5 -166.59 866 -155.4 866 -142.39 C 866 -142.29 866 -142.189 865.999 -142.089 C 866 -141.99 866 -141.891 866 -141.792 C 866 -141.733 866 -141.674 866 -141.616 C 866 -141.557 866 -141.499 866 -141.44 C 866 -134.526 864.649 -128.176 861.947 -122.39 C 859.718 -117.495 856.569 -112.966 852.5 -108.802 C 843.51 -99.612 832.544 -95.012 819.602 -95.002 C 819.448 -95.001 819.294 -95 819.14 -95 C 818.922 -95 818.704 -95.001 818.487 -95.004 C 818.265 -95.002 818.043 -95 817.82 -95 Z M 419.78 -232.22 L 357.307 -294.69 L 418.296 -355.68 L 480.769 -293.21 L 419.78 -232.22 Z M 480.769 -293.21 L 482.601 -295.04 L 482.189 -295.45 L 542.089 -355.35 L 480.028 -417.42 L 418.296 -355.68 L 355.955 -418.02 L 295.037 -357.11 L 233.392 -418.75 L 294.554 -479.91 L 355.651 -418.82 L 417.882 -481.05 L 480.772 -418.16 L 542.504 -479.89 L 604.977 -417.42 L 544.256 -356.7 L 605.85 -295.1 L 604.095 -293.35 L 604.245 -293.2 L 543.597 -232.55 L 542.364 -231.62 L 480.769 -293.21 Z M 357.307 -294.69 L 295.575 -232.96 L 233.392 -295.15 L 295.124 -356.88 L 357.307 -294.69 Z M 668.288 -232.66 L 605.85 -295.1 L 666.77 -356.02 L 729.207 -293.59 L 668.288 -232.66 Z M 729.159 -418.41 L 666.77 -356.02 L 604.057 -418.73 L 666.446 -481.13 L 729.159 -418.41 Z M 616.24 -784.802 C 606.741 -794.002 602 -805.002 602 -817.802 C 602 -831.002 606.661 -842.202 616 -851.812 C 625.32 -861.202 636.48 -866 649.44 -866 C 662.401 -866 673.561 -861.402 682.941 -852.012 C 692.301 -842.602 697 -831.602 697 -818.602 C 697 -805.602 692.4 -794.402 683.22 -785.002 C 674.04 -775.612 663.021 -771.012 650.181 -771.012 C 637.041 -771.012 625.721 -775.612 616.24 -784.802 Z M 786.06 -784.802 C 784.171 -786.655 782.473 -788.581 780.965 -790.579 C 774.33 -798.928 771 -808.428 771 -819.21 C 771 -831.99 775.6 -842.99 784.779 -852.2 C 793.96 -861.4 804.979 -866 817.821 -866 C 818.099 -866 818.38 -866 818.641 -866 C 818.96 -866 819.261 -866 819.56 -866 C 832.52 -866 843.501 -861.4 852.501 -852.2 C 854.741 -849.8 856.7 -847.41 858.381 -844.79 C 863.462 -837.59 866 -829 866 -819.59 C 866 -819.41 866 -819.41 866 -819.41 C 866 -819.21 866 -819.21 866 -819 C 866 -818.935 866 -818.869 866 -818.804 C 866 -818.737 866 -818.669 866 -818.602 C 866 -805.602 861.501 -794.402 852.5 -785.002 C 843.5 -775.612 832.521 -771.012 819.561 -771.012 C 806.6 -771.012 795.42 -775.612 786.06 -784.802 Z M 819.141 -697.012 C 819.721 -697.012 820.297 -697.002 820.869 -696.983 C 832.393 -696.692 842.319 -692.53 850.646 -684.637 C 851.15 -684.172 851.648 -683.694 852.141 -683.202 C 861.38 -674.002 866 -663.002 866 -650.202 C 866 -650.2 866 -650.198 866 -650.196 C 866 -650.194 866 -650.192 866 -650.19 C 866 -650 866 -649.8 866 -649.8 C 866 -649.6 866 -649.6 866 -649.39 C 866 -638.083 862.499 -628.131 855.499 -619.675 C 854.562 -618.498 853.562 -617.344 852.5 -616.212 C 843.51 -606.812 832.544 -602.012 819.602 -602.002 C 819.449 -602.001 819.294 -602 819.14 -602 C 819.12 -602 819.081 -602 819.04 -602 C 818.881 -602 818.721 -602 818.56 -602 C 805.601 -602 794.44 -606.59 785.059 -616 C 775.7 -625.4 771 -636.59 771 -649.39 C 771 -662.4 775.6 -673.61 784.779 -683 C 793.96 -692.4 804.979 -697 817.821 -697 C 817.894 -697 817.967 -697 818.04 -697 C 818.405 -697.008 818.772 -697.012 819.141 -697.012 Z M 819.561 -433.002 C 806.6 -433.002 795.42 -437.402 786.06 -446.402 C 776.68 -455.402 772.001 -466.602 772.001 -479.802 C 772.001 -480.022 772.002 -480.242 772.005 -480.462 C 772.002 -480.707 772 -480.953 772 -481.2 C 772 -494.39 776.7 -505.39 786.059 -514.39 C 795.44 -523.39 806.599 -527.99 819.56 -527.99 C 832.52 -527.99 843.501 -523.39 852.501 -514.2 C 861.5 -505.19 866 -494 866 -480.79 C 866 -480.69 866 -480.591 865.999 -480.491 C 866 -480.392 866 -480.292 866 -480.192 C 866 -467.002 861.501 -455.802 852.5 -446.602 C 843.5 -437.602 832.521 -433.002 819.561 -433.002 Z M 650.178 -190 C 663.039 -190 674.058 -185.2 683.239 -175.99 C 692.42 -166.59 696.999 -155.4 696.999 -142.39 C 696.999 -129.4 692.32 -118.19 682.938 -108.99 C 673.579 -99.59 662.398 -95 649.438 -95 C 636.478 -95 625.338 -99.79 615.999 -109.2 C 606.677 -118.58 601.998 -130 601.998 -143.19 C 601.998 -155.99 606.759 -166.99 616.238 -176.2 C 625.738 -185.4 637.058 -190 650.178 -190 Z M 514.257 -176.2 C 523.757 -166.99 528.497 -155.99 528.497 -143.19 C 528.497 -130 523.837 -118.79 514.498 -109.2 C 505.176 -99.79 494.017 -95 481.057 -95 C 468.117 -95 456.956 -99.59 447.577 -108.99 C 438.216 -118.4 433.516 -129.4 433.516 -142.39 C 433.516 -155.4 438.116 -166.59 447.297 -175.99 C 456.476 -185.4 467.497 -190 480.317 -190 C 493.457 -190 504.777 -185.4 514.257 -176.2 Z M 541.217 -728.8 L 603.697 -666.19 L 542.718 -605.2 L 480.237 -667.81 L 541.217 -728.8 Z M 480.237 -667.81 L 478.396 -665.99 L 478.817 -665.6 L 418.916 -605.59 L 480.977 -543.6 L 542.718 -605.2 L 605.057 -542.99 L 665.979 -603.79 L 727.62 -542.19 L 666.458 -481 L 605.358 -542.19 L 543.117 -479.79 L 480.237 -542.8 L 418.496 -481 L 356.036 -543.6 L 416.756 -604.2 L 355.155 -665.8 L 356.916 -667.6 L 356.756 -667.81 L 417.416 -728.41 L 418.636 -729.39 L 480.237 -667.81 Z M 603.697 -666.19 L 665.439 -728 L 727.62 -665.8 L 665.879 -604 L 603.697 -666.19 Z M 292.715 -728.2 L 355.155 -665.8 L 294.234 -605 L 231.794 -667.4 L 292.715 -728.2 Z M 231.854 -542.6 L 294.234 -605 L 356.955 -542.19 L 294.555 -479.79 L 231.854 -542.6 Z M 344.755 -176.2 C 354.255 -166.99 358.996 -155.99 358.996 -143.19 C 358.996 -130 354.335 -118.79 344.996 -109.2 C 335.674 -99.79 324.515 -95 311.555 -95 C 298.595 -95 287.434 -99.59 278.055 -108.99 C 268.694 -118.4 263.994 -129.4 263.994 -142.39 C 263.994 -155.4 268.594 -166.59 277.775 -175.99 C 286.955 -185.4 297.975 -190 310.815 -190 C 323.955 -190 335.275 -185.4 344.755 -176.2 Z"/>
</svg>