<?xml version="1.0" encoding="utf-8"?>
<svg viewBox="0 0 22 22" xmlns="http://www.w3.org/2000/svg">
  <path d="M 13 7.5 L 9 7.5 C 8.827 7.5 8.666 7.41 8.575 7.263 C 8.484 7.115 8.475 6.931 8.553 6.776 L 10.553 2.776 C 10.637 2.607 10.811 2.5 11 2.5 C 11.189 2.5 11.363 2.607 11.447 2.776 L 13.447 6.776 C 13.525 6.931 13.516 7.115 13.425 7.263 C 13.334 7.41 13.173 7.5 13 7.5 Z M 12.5 11 C 12.5 11.379 12.305 11.817 12.061 12.061 C 11.817 12.305 11.379 12.5 11 12.5 C 10.621 12.5 10.183 12.305 9.939 12.061 C 9.695 11.817 9.5 11.379 9.5 11 C 9.5 10.621 9.695 10.183 9.939 9.939 C 10.183 9.695 10.621 9.5 11 9.5 C 11.379 9.5 11.817 9.695 12.061 9.939 C 12.305 10.183 12.5 10.621 12.5 11 Z M 13.447 15.224 L 11.447 19.224 C 11.363 19.393 11.189 19.5 11 19.5 C 10.811 19.5 10.637 19.393 10.553 19.224 L 8.553 15.224 C 8.475 15.069 8.484 14.885 8.575 14.737 C 8.666 14.59 8.827 14.5 9 14.5 L 13 14.5 C 13.173 14.5 13.334 14.59 13.425 14.737 C 13.516 14.885 13.525 15.069 13.447 15.224 Z"/>
</svg>