<?xml version="1.0" encoding="utf-8"?>
<svg viewBox="0 0 22 22" xmlns="http://www.w3.org/2000/svg">
  <path d="M 19.415 14.272 L 9.415 15.272 C 9.274 15.286 9.134 15.24 9.03 15.145 C 8.925 15.05 8.865 14.915 8.865 14.774 L 8.865 3.774 C 8.865 3.517 9.06 3.302 9.315 3.276 L 19.315 2.276 C 19.456 2.262 19.596 2.308 19.701 2.403 C 19.805 2.498 19.865 2.633 19.865 2.774 L 19.865 13.774 C 19.865 14.031 19.67 14.246 19.415 14.272 Z M 10.865 5.126 L 10.865 13.122 L 17.865 12.422 L 17.865 4.426 L 10.865 5.126 Z M 8.135 6.227 L 8.135 7.227 C 8.135 7.503 7.911 7.727 7.635 7.727 L 4.135 7.727 L 4.135 17.727 L 11.135 17.727 L 11.135 16.227 C 11.135 15.951 11.359 15.727 11.635 15.727 L 12.635 15.727 C 12.911 15.727 13.135 15.951 13.135 16.227 L 13.135 19.227 C 13.135 19.503 12.911 19.727 12.635 19.727 L 2.635 19.727 C 2.359 19.727 2.135 19.503 2.135 19.227 L 2.135 6.227 C 2.135 5.951 2.359 5.727 2.635 5.727 L 7.635 5.727 C 7.911 5.727 8.135 5.951 8.135 6.227 Z"/>
</svg>