<?xml version="1.0" encoding="utf-8"?>
<svg viewBox="0 0 22 22" xmlns="http://www.w3.org/2000/svg">
  <path d="M 16.361 2.786 L 16.361 7.786 C 16.361 8.062 16.137 8.286 15.861 8.286 L 14.861 8.286 C 14.585 8.286 14.361 8.062 14.361 7.786 L 14.361 4.286 L 13.508 4.286 L 4.299 4.366 L 4.336 10.896 L 4.361 11.286 L 5.861 11.286 C 6.137 11.286 6.361 11.51 6.361 11.786 L 6.361 12.786 C 6.361 13.062 6.137 13.286 5.861 13.286 L 2.861 13.286 C 2.585 13.286 2.361 13.062 2.361 12.786 L 2.361 2.786 C 2.361 2.51 2.585 2.286 2.861 2.286 L 15.861 2.286 C 16.137 2.286 16.361 2.51 16.361 2.786 Z M 18.636 9.164 L 19.636 19.164 C 19.65 19.305 19.604 19.445 19.509 19.55 C 19.414 19.654 19.279 19.714 19.138 19.714 L 8.138 19.714 C 7.881 19.714 7.666 19.519 7.64 19.264 L 6.64 9.264 C 6.626 9.123 6.672 8.983 6.767 8.878 C 6.862 8.774 6.997 8.714 7.138 8.714 L 18.138 8.714 C 18.395 8.714 18.61 8.909 18.636 9.164 Z M 9.49 17.714 L 17.486 17.714 L 16.786 10.714 L 8.79 10.714 Z"/>
</svg>