<?xml version="1.0" encoding="utf-8"?>
<svg viewBox="0 0 22 22" xmlns="http://www.w3.org/2000/svg">
  <path d="M 19.5 3 L 19.5 13 C 19.5 13.276 19.276 13.5 19 13.5 L 16 13.5 C 15.724 13.5 15.5 13.276 15.5 13 L 15.5 12 C 15.5 11.724 15.724 11.5 16 11.5 L 17.5 11.5 L 17.5 4.632 L 17.482 4.5 L 7.5 4.5 L 7.5 8 C 7.5 8.276 7.276 8.5 7 8.5 L 6 8.5 C 5.724 8.5 5.5 8.276 5.5 8 L 5.5 3 C 5.5 2.724 5.724 2.5 6 2.5 L 19 2.5 C 19.276 2.5 19.5 2.724 19.5 3 Z M 15.297 9.428 L 14.297 19.428 C 14.271 19.683 14.056 19.878 13.799 19.878 L 2.799 19.878 C 2.658 19.878 2.523 19.818 2.428 19.714 C 2.334 19.609 2.288 19.469 2.301 19.329 L 2.4 18.328 L 3.301 9.328 C 3.327 9.073 3.542 8.878 3.799 8.878 L 14.799 8.878 C 14.94 8.878 15.075 8.938 15.17 9.043 C 15.265 9.147 15.311 9.287 15.297 9.428 Z M 4.451 17.878 L 12.446 17.878 L 13.146 10.878 L 5.151 10.878 Z"/>
</svg>