<?xml version="1.0" encoding="utf-8"?>
<svg xmlns="http://www.w3.org/2000/svg" height="48" viewBox="0 -960 960 960" width="48">
  <path d="M 253 -95 C 226.193 -95 203.657 -104.033 185.39 -122.1 C 167.13 -140.167 158 -162.467 158 -189 L 158 -742 L 147 -742 C 133.833 -742 122.71 -746.56 113.63 -755.68 C 104.543 -764.793 100 -775.96 100 -789.18 C 100 -802.393 104.543 -813.5 113.63 -822.5 C 122.71 -831.5 133.833 -836 147 -836 L 331 -836 C 331 -849.333 335.543 -860.667 344.63 -870 C 353.71 -879.333 364.833 -884 378 -884 L 581 -884 C 594.167 -884 605.293 -879.27 614.38 -869.81 C 623.46 -860.357 628 -849.087 628 -836 L 813 -836 C 826.167 -836 837.293 -831.44 846.38 -822.32 C 855.46 -813.207 860 -802.04 860 -788.82 C 860 -775.607 855.46 -764.5 846.38 -755.5 C 837.293 -746.5 826.167 -742 813 -742 L 802 -742 L 802 -189 C 802 -162.467 792.87 -140.167 774.61 -122.1 C 756.343 -104.033 733.807 -95 707 -95 L 253 -95 Z M 707 -742 L 253 -742 L 253 -189 L 707 -189 L 707 -742 Z M 253 -742 L 253 -189 L 253 -742 Z"/>
</svg>