<?xml version="1.0" encoding="utf-8"?>
<svg xmlns="http://www.w3.org/2000/svg" height="48" viewBox="0 -960 960 960" width="48">
  <path d="M 750.101 -185.2 L 750.101 -264.25 L 209.901 -264.25 C 190.667 -264.25 174.283 -271.02 160.753 -284.56 C 147.218 -298.08 140.45 -314.48 140.45 -333.71 L 140.45 -626.28 L 61.394 -626.28 C 51.665 -626.28 43.449 -629.65 36.74 -636.39 C 30.024 -643.13 26.669 -651.38 26.669 -661.14 C 26.669 -670.9 30.024 -679.12 36.74 -685.76 C 43.449 -692.41 51.665 -695.75 61.394 -695.75 L 140.45 -695.75 L 140.45 -774.79 C 140.45 -784.52 143.819 -792.75 150.557 -799.46 C 157.29 -806.16 165.541 -809.52 175.308 -809.52 C 185.07 -809.52 193.277 -806.16 199.927 -799.46 C 206.576 -792.75 209.901 -784.52 209.901 -774.79 L 209.901 -333.71 L 898.606 -333.71 C 908.34 -333.71 916.557 -330.35 923.266 -323.6 C 929.975 -316.87 933.33 -308.62 933.33 -298.86 C 933.33 -289.08 929.975 -280.88 923.266 -274.24 C 916.557 -267.57 908.34 -264.25 898.606 -264.25 L 819.553 -264.25 L 819.553 -185.2 C 819.553 -175.47 816.184 -167.25 809.445 -160.54 C 802.712 -153.83 794.461 -150.47 784.694 -150.47 C 774.932 -150.47 766.725 -153.83 760.076 -160.54 C 753.426 -167.25 750.101 -175.47 750.101 -185.2 Z M 750.101 -378.04 L 750.101 -626.28 L 254.231 -626.28 L 254.231 -695.75 L 750.101 -695.75 C 769.336 -695.75 785.721 -688.98 799.257 -675.45 C 812.788 -661.91 819.553 -645.51 819.553 -626.28 L 819.553 -378.04 L 750.101 -378.04 Z" style=""/>
</svg>