<?xml version="1.0" encoding="utf-8"?>
<svg xmlns="http://www.w3.org/2000/svg" height="48" viewBox="0 -960 960 960" width="48">
  <path d="M 189 -95 C 162.967 -95 140.79 -104.157 122.47 -122.47 C 104.157 -140.79 95 -162.967 95 -189 L 95 -771 C 95 -797.307 104.157 -819.717 122.47 -838.23 C 140.79 -856.743 162.967 -866 189 -866 L 771 -866 C 797.307 -866 819.717 -856.743 838.23 -838.23 C 856.743 -819.717 866 -797.307 866 -771 L 866 -189 C 866 -162.967 856.743 -140.79 838.23 -122.47 C 819.717 -104.157 797.307 -95 771 -95 L 189 -95 Z M 189 -189 L 771 -189 L 771 -771 L 189 -771 L 189 -189 Z M 189 -771 L 189 -189 L 189 -771 Z M 316 -599 C 329.32 -599 340.15 -603.17 348.49 -611.51 C 356.83 -619.85 361 -630.513 361 -643.5 C 361 -656.487 356.83 -667.317 348.49 -675.99 C 340.15 -684.663 329.487 -689 316.5 -689 C 303.513 -689 292.683 -684.687 284.01 -676.06 C 275.337 -667.44 271 -656.753 271 -644 C 271 -630.68 275.313 -619.85 283.94 -611.51 C 292.567 -603.17 303.253 -599 316 -599 Z M 479.5 -599 C 492.767 -599 503.833 -603.17 512.7 -611.51 C 521.567 -619.85 526 -630.513 526 -643.5 C 526 -656.487 521.593 -667.317 512.78 -675.99 C 503.96 -684.663 493.033 -689 480 -689 C 467.067 -689 456.5 -684.593 448.3 -675.78 C 440.1 -666.96 436 -656.367 436 -644 C 436 -631.067 440.077 -620.333 448.23 -611.8 C 456.377 -603.267 466.8 -599 479.5 -599 Z M 644.5 -599 C 657.487 -599 668.317 -603.17 676.99 -611.51 C 685.663 -619.85 690 -630.513 690 -643.5 C 690 -656.487 685.687 -667.317 677.06 -675.99 C 668.44 -684.663 657.753 -689 645 -689 C 631.68 -689 620.85 -684.687 612.51 -676.06 C 604.17 -667.44 600 -656.753 600 -644 C 600 -630.68 604.17 -619.85 612.51 -611.51 C 620.85 -603.17 631.513 -599 644.5 -599 Z M 479.5 -435 C 492.767 -435 503.833 -439.303 512.7 -447.91 C 521.567 -456.51 526 -467.17 526 -479.89 C 526 -492.617 521.593 -503.317 512.78 -511.99 C 503.96 -520.663 493.033 -525 480 -525 C 467.067 -525 456.5 -520.733 448.3 -512.2 C 440.1 -503.667 436 -492.933 436 -480 C 436 -467.067 440.077 -456.333 448.23 -447.8 C 456.377 -439.267 466.8 -435 479.5 -435 Z"/>
</svg>