<?xml version="1.0" encoding="utf-8"?>
<svg viewBox="0 0 22 22" xmlns="http://www.w3.org/2000/svg">
  <path d="M 19.5 3 L 19.5 6 C 19.5 6.276 19.276 6.5 19 6.5 L 18 6.5 C 17.724 6.5 17.5 6.276 17.5 6 L 17.5 4.5 L 12.5 4.5 L 12.5 17.5 L 15 17.5 C 15.276 17.5 15.5 17.724 15.5 18 L 15.5 19 C 15.5 19.276 15.276 19.5 15 19.5 L 7 19.5 C 6.724 19.5 6.5 19.276 6.5 19 L 6.5 18 C 6.5 17.724 6.724 17.5 7 17.5 L 9.5 17.5 L 9.5 4.5 L 4.5 4.5 L 4.5 6 C 4.5 6.276 4.276 6.5 4 6.5 L 3 6.5 C 2.724 6.5 2.5 6.276 2.5 6 L 2.5 3 C 2.5 2.724 2.724 2.5 3 2.5 L 19 2.5 C 19.276 2.5 19.5 2.724 19.5 3 Z"/>
</svg>