<?xml version="1.0" encoding="utf-8"?>
<svg xmlns="http://www.w3.org/2000/svg" height="48" viewBox="0 -960 960 960" width="48">
  <path d="M 436.741 -668 L 411.741 -644 C 403.074 -634.67 392.908 -630 381.241 -630 C 369.574 -630 359.241 -634.67 350.241 -644 C 341.241 -653.33 336.741 -663.7 336.741 -675.11 C 336.741 -686.52 341.408 -696.81 350.741 -706 L 445.741 -801 C 455.314 -810.33 466.708 -815 479.921 -815 C 493.134 -815 504.741 -810.33 514.741 -801 L 609.741 -706 C 618.408 -696.8 622.908 -686.5 623.241 -675.1 C 623.574 -663.7 619.241 -653.33 610.241 -644 C 601.241 -634.67 590.824 -630.17 578.991 -630.5 C 567.158 -630.83 556.741 -635.33 547.741 -644 L 523.741 -669 L 523.741 -188 C 523.741 -176.25 519.421 -166.15 510.781 -157.69 C 502.134 -149.23 491.801 -145 479.781 -145 C 467.754 -145 457.574 -149.23 449.241 -157.69 C 440.908 -166.15 436.741 -176.25 436.741 -188 L 436.741 -668 Z"/>
</svg>