<?xml version="1.0" encoding="utf-8"?>
<svg xmlns="http://www.w3.org/2000/svg" height="48" viewBox="0 -960 960 960" width="48">
  <path d="M 360.175 -251.72 C 330.308 -251.72 305.207 -261.89 284.87 -282.23 C 264.534 -302.56 254.366 -327.67 254.366 -357.54 L 254.366 -431.56 C 254.366 -446.38 259.499 -458.9 269.764 -469.13 C 280.022 -479.35 292.592 -484.45 307.473 -484.45 C 322.346 -484.45 334.848 -479.35 344.979 -469.13 C 355.109 -458.9 360.175 -446.38 360.175 -431.56 L 360.175 -357.54 L 538.267 -357.54 L 538.267 -431.56 C 538.267 -446.38 543.4 -458.9 553.665 -469.13 C 563.923 -479.35 576.459 -484.45 591.273 -484.45 C 606.078 -484.45 618.768 -479.35 629.341 -469.13 C 639.914 -458.9 645.201 -446.38 645.201 -431.56 L 645.201 -357.54 C 645.201 -327.67 634.924 -302.56 614.371 -282.23 C 593.809 -261.89 568.442 -251.72 538.267 -251.72 Z M 804.411 -761.97 L 664.833 -761.97 C 649.975 -761.97 637.368 -767.11 627.238 -777.37 C 616.882 -787.63 611.929 -800.17 611.929 -814.99 C 611.929 -829.79 616.882 -842.48 627.238 -853.05 C 637.368 -863.63 649.975 -868.9 664.833 -868.9 L 804.411 -868.9 C 834.128 -868.9 859.342 -858.63 879.603 -838.09 C 900.089 -817.52 910.22 -792.15 910.22 -761.97 L 910.187 -588.096 L 910.187 -452.721 C 910.187 -438.611 905.053 -426.711 894.757 -416.771 C 884.465 -406.821 872.164 -402.011 857.837 -402.011 C 843.511 -402.011 831.385 -407.071 821.466 -417.201 C 811.546 -427.581 806.587 -439.731 806.587 -453.791 L 806.587 -588.096 Z M 49.781 -761.97 C 49.781 -792.13 59.923 -817.59 80.398 -838.07 C 100.67 -858.54 125.884 -868.9 155.59 -868.9 L 295.156 -868.9 C 310.015 -868.9 322.622 -863.51 332.752 -852.93 C 343.108 -842.35 348.072 -829.75 348.072 -814.88 C 348.072 -800.01 343.108 -787.64 332.752 -777.27 C 322.622 -767.15 310.015 -761.97 295.156 -761.97 L 155.59 -761.97 L 155.59 -196.91 L 295.156 -196.91 C 310.015 -196.91 322.622 -191.84 332.752 -181.71 C 343.108 -171.57 348.072 -159.09 348.072 -144.21 C 348.072 -129.32 343.108 -116.75 332.752 -106.5 C 322.622 -96.225 310.015 -91.095 295.156 -91.095 L 155.59 -91.095 C 125.884 -91.095 100.67 -101.28 80.398 -121.59 C 59.923 -141.96 49.781 -167.06 49.781 -196.91 Z M 752.374 -225.9 L 699.707 -278.567 C 690.212 -288.062 685.47 -299.394 685.439 -312.464 C 685.492 -325.62 690.32 -336.998 699.831 -346.509 C 709.349 -356.027 720.571 -360.7 733.607 -360.632 C 746.656 -360.58 758.017 -355.866 767.511 -346.372 L 820.178 -293.704 L 872.851 -346.377 C 882.383 -355.909 893.585 -360.532 906.803 -360.593 C 919.874 -360.504 931.243 -355.768 940.781 -346.23 C 950.318 -336.693 955.01 -325.369 955.012 -312.384 C 954.865 -299.251 950.2 -288.091 940.668 -278.559 L 887.996 -225.887 L 940.662 -173.221 C 950.156 -163.727 954.872 -152.364 954.781 -139.176 C 954.851 -126.151 950.029 -114.781 940.525 -105.277 C 930.979 -95.731 919.637 -90.937 906.598 -90.994 C 893.545 -91.036 882.352 -95.922 872.857 -105.417 L 820.191 -158.083 L 767.491 -105.382 C 757.988 -95.88 746.602 -91.074 733.531 -91.162 C 720.32 -91.112 709.086 -95.98 699.548 -105.517 C 690.011 -115.054 685.185 -126.247 685.322 -139.371 C 685.321 -152.354 690.171 -163.697 699.673 -173.199 Z" style=""/>
</svg>