<?xml version="1.0" encoding="utf-8"?>
<svg xmlns="http://www.w3.org/2000/svg" height="48" viewBox="0 -960 960 960" width="48">
  <path d="M 377.62 -851 C 365.46 -851 355.567 -855.06 347.94 -863.18 C 340.313 -871.29 336.5 -881.29 336.5 -893.18 C 336.5 -905.06 340.313 -914.83 347.94 -922.5 C 355.567 -930.17 365.46 -934 377.62 -934 L 581.38 -934 C 593.547 -934 603.44 -930.17 611.06 -922.51 C 618.687 -914.85 622.5 -904.95 622.5 -892.82 C 622.5 -880.94 618.687 -871 611.06 -863 C 603.44 -855 593.547 -851 581.38 -851 L 377.62 -851 Z M 329.09 -56.34 C 282.463 -76.567 241.707 -104.07 206.82 -138.84 C 171.94 -173.61 144.5 -214.29 124.5 -260.86 C 104.5 -307.43 94.5 -357.43 94.5 -410.86 C 94.5 -464.29 104.53 -514.32 124.59 -560.95 C 144.65 -607.59 172.12 -648.41 207 -683.42 C 241.887 -718.42 282.643 -746.1 329.27 -766.46 C 375.897 -786.82 425.973 -797 479.5 -797 C 525.5 -797 569 -789.5 610 -774.5 C 651 -759.5 687.167 -738.33 718.5 -711 L 749.5 -742 C 758.167 -750.67 768 -755 779 -755 C 790 -755 799.833 -750.5 808.5 -741.5 C 817.167 -732.5 821.5 -722.5 821.5 -711.5 C 821.5 -700.5 817.167 -690.67 808.5 -682 L 778.5 -652 C 803.167 -624 823.833 -590.33 840.5 -551 C 857.167 -511.67 865.5 -465 865.5 -411 C 865.5 -357.43 855.367 -307.29 835.1 -260.6 C 814.833 -213.91 787.21 -173.22 752.23 -138.53 C 717.25 -103.85 676.383 -76.427 629.63 -56.26 C 582.877 -36.087 532.757 -26 479.27 -26 C 425.777 -26 375.717 -36.113 329.09 -56.34 Z M 686 -204.83 C 742.333 -260.72 770.5 -329.38 770.5 -410.83 C 770.5 -492.28 742.39 -561.17 686.17 -617.5 C 629.95 -673.83 561.117 -702 479.67 -702 C 398.223 -702 329.333 -673.89 273 -617.67 C 216.667 -561.45 188.5 -492.62 188.5 -411.17 C 188.5 -329.72 216.61 -261 272.83 -205 C 329.05 -149 397.883 -121 479.33 -121 C 560.777 -121 629.667 -148.94 686 -204.83 Z M 480.104 -200.61 C 468.209 -200.61 458.225 -204.53 450.186 -212.73 C 442.148 -220.62 438.131 -230.6 438.131 -242.58 L 438.131 -474.58 L 364.898 -401.35 C 356.573 -393.69 346.748 -389.74 335.425 -389.74 C 324.118 -389.74 314.598 -393.88 306.847 -402.27 C 298.522 -409.94 294.343 -419.57 294.343 -431.19 C 294.343 -442.81 298.522 -453.14 306.847 -462.1 L 450.632 -605.88 C 454.814 -609.97 459.42 -613.21 464.476 -615.34 C 469.549 -617.31 474.747 -618.37 480.104 -618.37 C 485.464 -618.37 490.679 -617.31 495.733 -615.34 C 500.805 -613.21 505.415 -609.97 509.576 -605.88 L 654.257 -461.2 C 662.597 -452.8 666.761 -442.98 666.761 -431.71 C 666.761 -420.46 662.597 -410.66 654.257 -402.27 C 646.523 -393.88 636.84 -389.92 625.232 -390.29 C 613.622 -390.46 603.654 -394.55 595.313 -402.27 L 522.08 -474.58 L 522.08 -242.58 C 522.08 -230.6 518.061 -220.62 510.022 -212.73 C 501.985 -204.53 492.018 -200.61 480.104 -200.61 Z"/>
</svg>