<?xml version="1.0" encoding="utf-8"?>
<svg xmlns="http://www.w3.org/2000/svg" height="48" viewBox="0 -960 960 960" width="48">
  <path d="M 185 -95 C 158.193 -95 135.657 -104.033 117.39 -122.1 C 99.13 -140.167 90 -162.467 90 -189 L 90 -771 C 90 -797.807 99.13 -820.343 117.39 -838.61 C 135.657 -856.87 158.193 -866 185 -866 L 514 -866 C 527.167 -866 538.293 -861.247 547.38 -851.74 C 556.46 -842.227 561 -830.893 561 -817.74 C 561 -804.58 556.46 -793.5 547.38 -784.5 C 538.293 -775.5 527.167 -771 514 -771 L 185 -771 L 185 -189 L 767 -189 L 767 -518 C 767 -531.167 771.56 -542.293 780.68 -551.38 C 789.793 -560.46 800.96 -565 814.18 -565 C 827.393 -565 838.5 -560.46 847.5 -551.38 C 856.5 -542.293 861 -531.167 861 -518 L 861 -189 C 861 -162.467 851.793 -140.167 833.38 -122.1 C 814.96 -104.033 792.833 -95 767 -95 Z M 553 -448 C 557.667 -454.667 563.833 -458 571.5 -458 C 579.167 -458 585.333 -454.667 590 -448 L 687 -320 C 693 -311.5 693.833 -303.043 689.5 -294.63 C 685.167 -286.21 678 -282 668 -282 L 284 -282 C 273.667 -282 266.417 -286.167 262.25 -294.5 C 258.083 -302.833 259 -311.333 265 -320 L 332 -405 C 336.667 -411.667 342.833 -415 350.5 -415 C 358.167 -415 364.333 -411.667 369 -405 L 445 -307 Z M 780.759 -745.663 L 780.759 -657.296 C 780.759 -646.724 777.219 -637.791 769.829 -630.496 C 762.449 -623.203 753.609 -619.539 742.999 -619.539 C 732.229 -619.539 723.389 -623.203 716.169 -630.496 C 708.939 -637.791 705.409 -646.724 705.409 -657.296 L 705.409 -745.663 L 684.359 -725.579 C 676.969 -718.622 668.449 -715.136 659.139 -715.136 C 649.809 -715.136 641.139 -719.153 633.099 -727.186 C 625.549 -734.69 621.699 -743.527 621.699 -753.696 C 621.699 -763.882 625.549 -772.719 633.099 -780.206 L 715.849 -862.95 C 720.029 -867.239 724.359 -870.323 728.869 -872.187 C 733.199 -874.067 738.029 -875 742.999 -875 C 748.139 -875 752.959 -874.067 757.299 -872.187 C 761.799 -870.323 766.139 -867.239 770.319 -862.95 L 853.049 -780.206 C 860.619 -772.719 864.309 -763.738 863.979 -753.294 C 863.659 -742.85 859.329 -733.355 850.649 -724.777 C 843.739 -717.82 835.709 -714.478 826.539 -714.734 C 817.539 -715.007 809.199 -718.349 801.809 -724.777 Z"/>
</svg>