<?xml version="1.0" encoding="utf-8"?>
<svg xmlns="http://www.w3.org/2000/svg" height="48" viewBox="0 -960 960 960" width="48">
  <path d="M 109 -122 C 83.167 -122 61.043 -131.21 42.63 -149.63 C 24.21 -168.043 15 -190.167 15 -216 L 15 -243 C 15 -271.2 22.233 -296.567 36.7 -319.1 C 51.16 -341.633 71.26 -358.933 97 -371 C 147 -392.333 192.49 -408 233.47 -418 C 274.45 -428 316.627 -433 360 -433 C 381.507 -433 401.717 -431.833 420.63 -429.5 C 439.543 -427.167 459.333 -423.333 480 -418 C 491.333 -416 499 -409.833 503 -399.5 C 507 -389.167 507.333 -378.333 504 -367 C 500.667 -355.667 493.5 -346.167 482.5 -338.5 C 471.5 -330.833 456.333 -328 437 -330 C 424.46 -332.667 412.057 -334.667 399.79 -336 C 387.53 -337.333 374.267 -338 360 -338 C 322.667 -338 288 -334.667 256 -328 C 224 -321.333 185.667 -308.333 141 -289 C 132.333 -285.293 124.833 -278.6 118.5 -268.92 C 112.167 -259.247 109 -249.273 109 -239 L 109 -216 L 446 -216 C 461.333 -216 472.833 -211.17 480.5 -201.51 C 488.167 -191.85 492 -181.227 492 -169.64 C 492 -157.213 488.167 -146.167 480.5 -136.5 C 472.833 -126.833 461.333 -122 446 -122 Z M 360.25 -494 C 312.083 -494 273 -509 243 -539 C 213 -569 198 -608.167 198 -656.5 C 198 -704.833 213.013 -744 243.04 -774 C 273.073 -804 312.073 -819 360.04 -819 C 408.013 -819 447.167 -803.99 477.5 -773.97 C 507.833 -743.95 523 -704.96 523 -657 C 523 -608.333 507.917 -569 477.75 -539 C 447.583 -509 408.417 -494 360.25 -494 Z M 757 -657.01 C 757 -609.003 741.85 -569.833 711.55 -539.5 C 681.257 -509.167 641.99 -494 593.75 -494 C 585.71 -494 577.577 -494.667 569.35 -496 C 561.117 -497.333 552.333 -499.667 543 -503 C 560.333 -521 573.167 -542.95 581.5 -568.85 C 589.833 -594.75 594 -623.917 594 -656.35 C 594 -688.783 589.783 -717.493 581.35 -742.48 C 572.91 -767.473 560.127 -790.023 543 -810.13 C 551 -812.71 559.413 -814.833 568.24 -816.5 C 577.067 -818.167 585.57 -819 593.75 -819 C 641.743 -819 680.95 -803.827 711.37 -773.48 C 741.79 -743.133 757 -704.31 757 -657.01 Z M 359.84 -577 C 383.047 -577 402.21 -584.46 417.33 -599.38 C 432.443 -614.3 440 -633.3 440 -656.38 C 440 -679.46 432.54 -698.5 417.62 -713.5 C 402.7 -728.5 383.7 -736 360.62 -736 C 337.54 -736 318.5 -728.593 303.5 -713.78 C 288.5 -698.967 281 -680.093 281 -657.16 C 281 -633.953 288.407 -614.79 303.22 -599.67 C 318.033 -584.557 336.907 -577 359.84 -577 Z M 630.223 -268.77 C 634.743 -273.01 637.001 -278.62 637.001 -284.99 C 637.001 -291.55 634.761 -297.34 630.319 -301.98 C 625.879 -306.61 620.394 -308.92 613.887 -308.92 C 607.378 -308.92 601.798 -306.61 597.105 -301.98 C 592.432 -297.54 590.095 -291.75 590.095 -285.38 C 590.095 -278.8 592.394 -273.21 597.008 -268.77 C 601.625 -264.32 607.167 -262.01 613.674 -262.01 C 620.201 -262.01 625.724 -264.32 630.223 -268.77 Z M 716.58 -268.77 C 721.1 -273.01 723.358 -278.62 723.358 -284.99 C 723.358 -291.55 721.138 -297.34 716.696 -301.98 C 712.255 -306.61 706.771 -308.92 700.244 -308.92 C 693.717 -308.92 688.29 -306.61 683.945 -301.98 C 679.62 -297.54 677.458 -291.75 677.458 -285.38 C 677.458 -278.8 679.601 -273.21 683.868 -268.77 C 688.135 -264.32 693.542 -262.01 700.051 -262.01 C 706.558 -262.01 712.1 -264.32 716.58 -268.77 Z M 803.942 -268.77 C 808.461 -273.01 810.701 -278.62 810.701 -284.99 C 810.701 -291.55 808.481 -297.34 804.039 -301.98 C 799.597 -306.61 794.132 -308.92 787.605 -308.92 C 781.078 -308.92 775.574 -306.61 771.056 -301.98 C 766.576 -297.54 764.316 -291.75 764.316 -285.38 C 764.316 -278.8 766.538 -273.21 770.979 -268.77 C 775.42 -264.32 780.905 -262.01 787.412 -262.01 C 793.939 -262.01 799.442 -264.32 803.942 -268.77 Z M 700.823 -122 C 678.172 -122 656.892 -126.24 636.983 -134.75 C 617.072 -143.24 599.674 -155.02 584.785 -169.9 C 569.897 -184.76 558.214 -202.15 549.698 -222.03 C 541.201 -241.92 536.952 -263.16 536.952 -285.76 C 536.952 -308.74 541.201 -330.18 549.698 -350.06 C 558.214 -369.95 569.877 -387.34 584.727 -402.2 C 599.578 -416.88 616.937 -428.46 636.828 -437.15 C 656.737 -445.84 678.017 -450.1 700.688 -450.1 C 723.61 -450.1 745.045 -445.84 764.973 -437.15 C 784.921 -428.46 802.262 -416.88 817.015 -402.2 C 831.768 -387.52 843.452 -370.15 852.065 -350.26 C 860.657 -330.18 864.964 -308.74 864.964 -285.76 C 864.964 -263.16 860.657 -241.92 852.045 -222.03 C 843.413 -202.15 831.73 -184.76 816.958 -169.9 C 802.185 -155.02 784.862 -143.24 764.973 -134.75 C 745.121 -126.24 723.726 -122 700.823 -122 Z"/>
</svg>