<?xml version="1.0" encoding="utf-8"?>
<svg viewBox="0 0 22 22" xmlns="http://www.w3.org/2000/svg">
  <path d="M 8.5 16.5 C 8.5 17.293 8.137 18.106 7.621 18.621 C 7.106 19.137 6.293 19.5 5.5 19.5 C 4.707 19.5 3.894 19.137 3.379 18.621 C 2.863 18.106 2.5 17.293 2.5 16.5 C 2.5 15.707 2.863 14.894 3.379 14.379 C 3.675 14.083 4.068 13.837 4.5 13.681 L 4.5 12 C 4.521 11.357 4.797 10.678 5.211 10.254 C 5.624 9.83 6.302 9.537 6.945 9.5 C 6.964 9.5 6.984 9.5 7.003 9.5 L 9.5 9.5 L 9.5 8.319 C 9.068 8.163 8.675 7.917 8.379 7.621 C 7.863 7.106 7.5 6.293 7.5 5.5 C 7.5 4.707 7.863 3.894 8.379 3.379 C 8.894 2.863 9.707 2.5 10.5 2.5 C 11.293 2.5 12.106 2.863 12.621 3.379 C 13.137 3.894 13.5 4.707 13.5 5.5 C 13.5 6.293 13.137 7.106 12.621 7.621 C 12.325 7.917 11.932 8.163 11.5 8.319 L 11.5 9.5 C 11.519 9.5 14.042 9.5 14.061 9.5 C 14.704 9.537 15.376 9.83 15.789 10.254 C 16.203 10.678 16.479 11.357 16.5 12 L 16.5 13.681 C 16.932 13.837 17.325 14.083 17.621 14.379 C 18.137 14.894 18.5 15.707 18.5 16.5 C 18.5 17.293 18.137 18.106 17.621 18.621 C 17.106 19.137 16.293 19.5 15.5 19.5 C 14.707 19.5 13.894 19.137 13.379 18.621 C 12.863 18.106 12.5 17.293 12.5 16.5 C 12.5 15.707 12.863 14.894 13.379 14.379 C 13.675 14.083 14.068 13.837 14.5 13.681 L 14.5 12 C 14.522 11.826 14.472 11.764 14.354 11.646 C 14.236 11.528 14.174 11.478 14 11.5 L 7 11.5 C 6.826 11.478 6.764 11.528 6.646 11.646 C 6.528 11.764 6.478 11.826 6.5 12 L 6.5 13.681 C 6.932 13.837 7.325 14.083 7.621 14.379 C 8.137 14.894 8.5 15.707 8.5 16.5 Z M 4.793 15.793 C 4.584 16.001 4.5 16.188 4.5 16.5 C 4.5 16.812 4.584 16.999 4.793 17.207 C 5.001 17.416 5.188 17.5 5.5 17.5 C 5.812 17.5 5.999 17.416 6.207 17.207 C 6.416 16.999 6.5 16.812 6.5 16.5 C 6.5 16.188 6.416 16.001 6.207 15.793 C 5.999 15.584 5.812 15.5 5.5 15.5 C 5.188 15.5 5.001 15.584 4.793 15.793 Z M 14.793 15.793 C 14.584 16.001 14.5 16.188 14.5 16.5 C 14.5 16.812 14.584 16.999 14.793 17.207 C 15.001 17.416 15.188 17.5 15.5 17.5 C 15.812 17.5 15.999 17.416 16.207 17.207 C 16.416 16.999 16.5 16.812 16.5 16.5 C 16.5 16.188 16.416 16.001 16.207 15.793 C 15.999 15.584 15.812 15.5 15.5 15.5 C 15.188 15.5 15.001 15.584 14.793 15.793 Z M 9.793 4.793 C 9.584 5.001 9.5 5.188 9.5 5.5 C 9.5 5.812 9.584 5.999 9.793 6.207 C 10.001 6.416 10.188 6.5 10.5 6.5 C 10.812 6.5 10.999 6.416 11.207 6.207 C 11.416 5.999 11.5 5.812 11.5 5.5 C 11.5 5.188 11.416 5.001 11.207 4.793 C 10.999 4.584 10.812 4.5 10.5 4.5 C 10.188 4.5 10.001 4.584 9.793 4.793 Z"/>
</svg>