<?xml version="1.0" encoding="utf-8"?>
<svg viewBox="0 0 22 22" xmlns="http://www.w3.org/2000/svg">
  <path d="M 8.5 5.5 C 8.5 6.293 8.137 7.106 7.621 7.621 C 7.325 7.917 6.932 8.163 6.5 8.319 L 6.5 9.565 C 6.648 9.531 6.797 9.508 6.945 9.5 C 6.964 9.5 6.984 9.5 7.003 9.5 L 14 9.5 C 14.174 9.522 14.236 9.472 14.354 9.354 C 14.471 9.236 14.522 9.174 14.5 9 L 14.5 8.319 C 14.276 8.238 14.062 8.133 13.866 8.009 C 13.686 7.894 13.521 7.763 13.379 7.621 C 12.863 7.106 12.5 6.293 12.5 5.5 C 12.5 4.707 12.863 3.894 13.379 3.379 C 13.894 2.863 14.707 2.5 15.5 2.5 C 16.293 2.5 17.106 2.863 17.621 3.379 C 18.137 3.894 18.5 4.707 18.5 5.5 C 18.5 6.293 18.137 7.106 17.621 7.621 C 17.479 7.763 17.314 7.894 17.134 8.009 C 16.938 8.133 16.724 8.238 16.5 8.319 L 16.5 9 C 16.479 9.643 16.203 10.322 15.789 10.746 C 15.376 11.17 14.698 11.463 14.055 11.5 C 14.036 11.5 14.016 11.5 13.997 11.5 L 7 11.5 C 6.826 11.478 6.764 11.528 6.646 11.646 C 6.564 11.728 6.515 11.783 6.5 11.866 L 6.5 13.681 C 6.932 13.837 7.325 14.083 7.621 14.379 C 8.137 14.894 8.5 15.707 8.5 16.5 C 8.5 17.293 8.137 18.106 7.621 18.621 C 7.106 19.137 6.293 19.5 5.5 19.5 C 4.707 19.5 3.894 19.137 3.379 18.621 C 2.863 18.106 2.5 17.293 2.5 16.5 C 2.5 15.707 2.863 14.894 3.379 14.379 C 3.675 14.083 4.068 13.837 4.5 13.681 L 4.5 8.319 C 4.068 8.163 3.675 7.917 3.379 7.621 C 2.863 7.106 2.5 6.293 2.5 5.5 C 2.5 4.707 2.863 3.894 3.379 3.379 C 3.894 2.863 4.707 2.5 5.5 2.5 C 6.293 2.5 7.106 2.863 7.621 3.379 C 8.137 3.894 8.5 4.707 8.5 5.5 Z M 4.793 4.793 C 4.584 5.001 4.5 5.188 4.5 5.5 C 4.5 5.812 4.584 5.999 4.793 6.207 C 5.001 6.416 5.188 6.5 5.5 6.5 C 5.812 6.5 5.999 6.416 6.207 6.207 C 6.416 5.999 6.5 5.812 6.5 5.5 C 6.5 5.188 6.416 5.001 6.207 4.793 C 5.999 4.584 5.812 4.5 5.5 4.5 C 5.188 4.5 5.001 4.584 4.793 4.793 Z M 4.793 15.793 C 4.584 16.001 4.5 16.188 4.5 16.5 C 4.5 16.812 4.584 16.999 4.793 17.207 C 5.001 17.416 5.188 17.5 5.5 17.5 C 5.812 17.5 5.999 17.416 6.207 17.207 C 6.416 16.999 6.5 16.812 6.5 16.5 C 6.5 16.188 6.416 16.001 6.207 15.793 C 5.999 15.584 5.812 15.5 5.5 15.5 C 5.188 15.5 5.001 15.584 4.793 15.793 Z M 14.793 4.793 C 14.584 5.001 14.5 5.188 14.5 5.5 C 14.5 5.812 14.584 5.999 14.793 6.207 C 15.001 6.416 15.188 6.5 15.5 6.5 C 15.812 6.5 15.999 6.416 16.207 6.207 C 16.416 5.999 16.5 5.812 16.5 5.5 C 16.5 5.188 16.416 5.001 16.207 4.793 C 15.999 4.584 15.812 4.5 15.5 4.5 C 15.188 4.5 15.001 4.584 14.793 4.793 Z M 13.382 13.12 L 15.099 14.837 L 16.817 13.12 L 17.094 12.844 C 17.289 12.649 17.606 12.649 17.801 12.844 L 18.354 13.397 C 18.549 13.593 18.549 13.909 18.354 14.105 L 16.36 16.099 L 18.077 17.816 L 18.354 18.093 C 18.549 18.289 18.549 18.605 18.354 18.801 L 17.801 19.354 C 17.605 19.549 17.289 19.549 17.093 19.354 L 15.099 17.36 L 13.105 19.354 C 12.909 19.549 12.593 19.549 12.397 19.354 L 11.844 18.801 C 11.649 18.606 11.649 18.289 11.844 18.094 L 12.12 17.816 L 13.838 16.099 L 12.12 14.381 L 11.844 14.104 C 11.649 13.909 11.649 13.592 11.844 13.397 L 12.397 12.844 C 12.592 12.649 12.909 12.649 13.104 12.844 Z"/>
</svg>