<?xml version="1.0" encoding="utf-8"?>
<svg xmlns="http://www.w3.org/2000/svg" height="48" viewBox="0 -960 960 960" width="48">
  <path d="M 413.5 -98.5 C 372.5 -100.833 328.333 -108.167 281 -120.5 C 233.667 -132.833 190.833 -151.5 152.5 -176.5 C 114.167 -201.5 95 -236 95 -280 L 95 -693 C 95 -714.333 106 -735.333 128 -756 C 150 -776.667 179 -795.167 215 -811.5 C 251 -827.833 292 -841 338 -851 C 384 -861 431.333 -866 480 -866 C 524 -866 568.833 -860.667 614.5 -850 C 660.167 -839.333 701.667 -825.667 739 -809 C 776.333 -792.333 806.833 -773.667 830.5 -753 C 854.167 -732.333 866 -711.667 866 -691 C 866 -670.333 854.5 -650 831.5 -630 C 808.5 -610 778.667 -592 742 -576 C 705.333 -560 664 -547.167 618 -537.5 C 572 -527.833 526 -523 480 -523 C 430.667 -523 380.5 -528.833 329.5 -540.5 C 278.5 -552.167 229.333 -569.333 182 -592 L 182 -456 C 217.333 -439.333 259 -425.667 307 -415 C 355 -404.333 406.333 -397.667 461 -395 C 473.667 -394.333 484.167 -389.667 492.5 -381 C 500.833 -372.333 505 -362.333 505 -351 C 505 -338.333 500.667 -327.833 492 -319.5 C 483.333 -311.167 473 -307.333 461 -308 C 405.667 -308.667 356 -314.667 312 -326 C 268 -337.333 224.667 -355.333 182 -380 L 182 -276 C 188.667 -255.333 221 -235.667 279 -217 C 337 -198.333 404.333 -187 481 -183 C 492.333 -182.333 501.833 -177.667 509.5 -169 C 517.167 -160.333 521 -150.333 521 -139 C 521 -126.333 517.167 -115.833 509.5 -107.5 C 501.833 -99.167 492.667 -95.333 482 -96 C 477.333 -95.333 454.5 -96.167 413.5 -98.5 Z M 480 -608 C 536.667 -608 594.667 -616.667 654 -634 C 713.333 -651.333 752.667 -671.333 772 -694 C 752 -715.333 711.833 -734.833 651.5 -752.5 C 591.167 -770.167 534 -779 480 -779 C 422.667 -779 364.5 -770.333 305.5 -753 C 246.5 -735.667 207.333 -716 188 -694 C 206.667 -670 244.5 -649.667 301.5 -633 C 358.5 -616.333 418 -608 480 -608 Z M 678.9 -247.915 L 678.9 -462.845 C 678.9 -475.299 683.24 -485.807 691.75 -494.387 C 700.44 -502.968 711.03 -507.258 723.5 -507.258 C 735.97 -507.258 746.37 -502.968 754.87 -494.387 C 763.38 -485.807 767.73 -475.299 767.73 -462.845 L 767.73 -247.915 L 792.29 -271.54 C 800.99 -279.741 811 -283.823 821.97 -283.823 C 833.11 -283.823 843.32 -279.098 852.77 -269.649 C 861.47 -260.842 866 -250.447 866 -238.465 C 866 -226.502 861.47 -216.107 852.77 -207.282 L 755.44 -109.949 C 750.34 -104.922 745.23 -101.294 740.13 -99.082 C 734.84 -96.891 729.36 -95.775 723.31 -95.775 C 717.26 -95.775 711.6 -96.891 706.49 -99.082 C 701.39 -101.294 696.29 -104.922 691.18 -109.949 L 593.85 -207.282 C 584.97 -216.107 580.81 -226.653 581 -238.937 C 581.38 -251.222 586.67 -262.411 596.69 -272.484 C 604.81 -280.686 614.26 -284.617 625.03 -284.296 C 635.62 -283.993 645.45 -280.044 654.33 -272.484 Z"/>
</svg>