<?xml version="1.0" encoding="utf-8"?>
<svg xmlns="http://www.w3.org/2000/svg" height="48" viewBox="0 -960 960 960" width="48">
  <path d="M 525.5 -112.16 C 512.69 -99.53 497.38 -93.226 478.75 -93.226 C 460.895 -93.226 445.918 -99.19 433.598 -111.15 C 433.233 -111.5 432.871 -111.85 432.51 -112.22 C 431.916 -112.82 431.335 -113.43 430.768 -114.05 C 419.444 -126.37 413.67 -141.68 413.67 -159.99 L 413.67 -258.38 L 413.07 -258.38 C 369.517 -272.74 333.58 -296.46 305.326 -329.52 C 303.285 -331.9 301.283 -334.34 299.32 -336.81 C 296.706 -340.14 294.201 -343.51 291.804 -346.92 C 265.538 -384.22 252.34 -426.62 252.34 -474.1 C 252.34 -474.11 252.34 -474.11 252.34 -474.11 C 252.34 -474.11 252.34 -474.11 252.34 -474.11 C 252.34 -474.29 252.34 -474.47 252.341 -474.64 C 252.406 -506.43 258.246 -535.9 269.85 -563.07 C 270.91 -565.7 272.02 -568.31 273.18 -570.9 C 284.21 -595.63 300.12 -618.39 320.92 -639.19 C 348.4 -666.69 379.33 -685.65 413.7 -696.08 L 413.7 -800.01 C 413.7 -819.27 420.1 -835.21 432.5 -847.85 C 445.1 -860.47 460.31 -866.77 478.7 -866.77 C 497.31 -866.77 512.7 -860.47 525.5 -847.85 C 538.31 -835.21 544.3 -819.27 544.3 -800.01 L 544.3 -697 C 579.84 -686.79 611.63 -667.52 639.69 -639.19 C 660.72 -617.96 676.72 -594.67 687.67 -569.35 C 688.18 -568.24 688.681 -567.12 689.172 -566 C 701.554 -537.88 707.66 -507.25 707.66 -474.11 C 707.66 -474.11 707.66 -474.11 707.66 -474.11 C 707.66 -474.11 707.66 -474.11 707.66 -474.1 C 707.66 -424.44 693.578 -380.33 665.062 -341.81 C 663.825 -340.13 662.561 -338.47 661.27 -336.81 C 660.563 -335.91 659.851 -335.01 659.134 -334.12 C 630.288 -298.12 592.215 -272.65 545.12 -257.71 L 544.5 -257.72 L 544.5 -160.05 C 544.5 -147.69 541.945 -136.68 536.728 -127.05 C 533.829 -121.66 530.095 -116.69 525.5 -112.16 Z M 574.61 -568 C 569.912 -572.73 565.013 -577.02 559.915 -580.87 C 537.352 -597.86 511.022 -606.35 480.7 -606.35 C 443.5 -606.35 412.31 -593.63 386.91 -568.17 C 361.11 -542.7 348.32 -511.41 348.32 -474.29 C 348.32 -437.16 361.11 -405.8 386.71 -380.23 C 412.11 -354.65 443.3 -341.85 480.5 -341.85 C 511.916 -341.85 539.045 -350.94 562.261 -369.1 C 566.514 -372.43 570.63 -376.07 574.61 -380.02 C 584.133 -389.55 591.872 -399.9 597.829 -411.07 C 607.743 -429.74 612.67 -450.68 612.67 -473.91 C 612.67 -496.86 607.871 -517.59 598.218 -536.12 C 592.211 -547.6 584.342 -558.22 574.61 -568 Z" style="stroke-width: 0.05;"/>
</svg>