<?xml version="1.0" encoding="utf-8"?>
<svg xmlns="http://www.w3.org/2000/svg" height="48" viewBox="0 -960 960 960" width="48">
  <path d="M 413.5 -98.5 C 372.5 -100.833 328.333 -108.167 281 -120.5 C 233.667 -132.833 190.833 -151.5 152.5 -176.5 C 114.167 -201.5 95 -236 95 -280 L 95 -693 C 95 -714.333 106 -735.333 128 -756 C 150 -776.667 179 -795.167 215 -811.5 C 251 -827.833 292 -841 338 -851 C 384 -861 431.333 -866 480 -866 C 524 -866 568.833 -860.667 614.5 -850 C 660.167 -839.333 701.667 -825.667 739 -809 C 776.333 -792.333 806.833 -773.667 830.5 -753 C 854.167 -732.333 866 -711.667 866 -691 C 866 -670.333 854.5 -650 831.5 -630 C 808.5 -610 778.667 -592 742 -576 C 705.333 -560 664 -547.167 618 -537.5 C 572 -527.833 526 -523 480 -523 C 430.667 -523 380.5 -528.833 329.5 -540.5 C 278.5 -552.167 229.333 -569.333 182 -592 L 182 -456 C 217.333 -439.333 259 -425.667 307 -415 C 355 -404.333 406.333 -397.667 461 -395 C 473.667 -394.333 484.167 -389.667 492.5 -381 C 500.833 -372.333 505 -362.333 505 -351 C 505 -338.333 500.667 -327.833 492 -319.5 C 483.333 -311.167 473 -307.333 461 -308 C 405.667 -308.667 356 -314.667 312 -326 C 268 -337.333 224.667 -355.333 182 -380 L 182 -276 C 188.667 -255.333 221 -235.667 279 -217 C 337 -198.333 404.333 -187 481 -183 C 492.333 -182.333 501.833 -177.667 509.5 -169 C 517.167 -160.333 521 -150.333 521 -139 C 521 -126.333 517.167 -115.833 509.5 -107.5 C 501.833 -99.167 492.667 -95.333 482 -96 C 477.333 -95.333 454.5 -96.167 413.5 -98.5 Z M 480 -608 C 536.667 -608 594.667 -616.667 654 -634 C 713.333 -651.333 752.667 -671.333 772 -694 C 752 -715.333 711.833 -734.833 651.5 -752.5 C 591.167 -770.167 534 -779 480 -779 C 422.667 -779 364.5 -770.333 305.5 -753 C 246.5 -735.667 207.333 -716 188 -694 C 206.667 -670 244.5 -649.667 301.5 -633 C 358.5 -616.333 418 -608 480 -608 Z M 654.33 -330.55 C 645.45 -322.99 635.62 -319.04 625.03 -318.74 C 614.26 -318.42 604.81 -322.35 596.69 -330.55 C 586.67 -340.62 581.38 -351.81 581 -364.1 C 580.81 -376.38 584.97 -386.93 593.85 -395.75 L 691.18 -493.08 C 696.29 -498.11 701.39 -501.74 706.49 -503.95 C 711.6 -506.14 717.26 -507.26 723.31 -507.26 C 729.36 -507.26 734.84 -506.14 740.13 -503.95 C 745.23 -501.74 750.34 -498.11 755.44 -493.08 L 852.77 -395.75 C 861.47 -386.93 866 -376.53 866 -364.57 C 866 -352.58 861.47 -342.19 852.77 -333.38 C 843.32 -323.93 833.11 -319.21 821.97 -319.21 C 811 -319.21 800.99 -323.29 792.29 -331.49 L 767.73 -355.12 L 767.73 -140.19 C 767.73 -127.73 763.38 -117.22 754.87 -108.64 C 746.37 -100.06 735.97 -95.774 723.5 -95.774 C 711.03 -95.774 700.44 -100.06 691.75 -108.64 C 683.24 -117.22 678.9 -127.73 678.9 -140.19 L 678.9 -355.12 Z"/>
</svg>