<?xml version="1.0" encoding="utf-8"?>
<svg xmlns="http://www.w3.org/2000/svg" height="48" viewBox="0 -960 960 960" width="48">
  <path d="M 449.368 -94.004 C 449.412 -94.003 449.456 -94.001 449.5 -94 C 449.5 -94 449.454 -94.001 449.368 -94.004 Z M 302 -114 C 249.333 -126 201.667 -144.833 159 -170.5 C 116.333 -196.167 95 -232.667 95 -280 L 95 -680 C 95 -731.333 132.5 -775.167 207.5 -811.5 C 282.5 -847.833 373.333 -866 480 -866 C 586 -866 676.833 -847.833 752.5 -811.5 C 828.167 -775.167 866 -731.333 866 -680 L 866 -439 C 852.667 -446.333 838.667 -452.833 824 -458.5 C 809.333 -464.167 794.333 -467.667 779 -469 L 779 -592 C 737 -570 690.5 -553.167 639.5 -541.5 C 588.5 -529.833 535 -524 479 -524 C 424.333 -524 370.667 -530 318 -542 C 265.333 -554 220 -570.667 182 -592 L 182 -456 C 219.333 -442 262.5 -428.5 311.5 -415.5 C 360.5 -402.5 416.333 -396 479 -396 C 493 -396 507.167 -396.333 521.5 -397 C 535.833 -397.667 550 -398.667 564 -400 C 551.333 -386.667 540.667 -372.5 532 -357.5 C 523.333 -342.5 516.333 -326.333 511 -309 L 486 -309 C 416.667 -308.333 358.167 -314.333 310.5 -327 C 262.833 -339.667 220 -357.333 182 -380 L 182 -276 C 185.333 -264.667 197.667 -253.333 219 -242 C 240.333 -230.667 266 -220.5 296 -211.5 C 326 -202.5 358.667 -195.167 394 -189.5 C 429.333 -183.833 463 -181.333 495 -182 C 497 -166 500.833 -150.667 506.5 -136 C 512.167 -121.333 519 -107.667 527 -95 C 521.667 -93 496 -92.667 450 -94 C 448.375 -94.047 446.864 -94.091 445.461 -94.131 C 400.937 -95.73 353.118 -102.353 302 -114 Z M 445.461 -94.131 C 446.74 -94.086 448.015 -94.044 449.289 -94.006 C 446.113 -94.099 408.754 -95.194 445.461 -94.131 Z M 449.36 -94.004 C 449.339 -94.005 449.315 -94.005 449.289 -94.006 C 449.312 -94.006 449.337 -94.005 449.36 -94.004 Z M 449.368 -94.004 C 449.365 -94.004 449.363 -94.004 449.36 -94.004 C 449.363 -94.004 449.365 -94.004 449.368 -94.004 Z M 480 -609 C 536.667 -609 594.667 -617.5 654 -634.5 C 713.333 -651.5 752.667 -671.333 772 -694 C 752 -715.333 712 -734.833 652 -752.5 C 592 -770.167 534.667 -779 480 -779 C 422.667 -779 364.5 -770.333 305.5 -753 C 246.5 -735.667 207.333 -716 188 -694 C 207.333 -669.333 246 -649 304 -633 C 362 -617 420.667 -609 480 -609 Z M 741 -40 C 689.667 -40 645.167 -58.5 607.5 -95.5 C 569.833 -132.5 551 -177 551 -229 C 551 -281.667 569.833 -326.667 607.5 -364 C 645.167 -401.333 689.667 -420 741 -420 C 793 -420 837.667 -401.333 875 -364 C 912.333 -326.667 931 -281.667 931 -229 C 931 -177 912.333 -132.5 875 -95.5 C 837.667 -58.5 793 -40 741 -40 Z M 741.114 -279.47 L 708.435 -312.09 C 708.352 -312.25 708.286 -312.25 708.221 -312.25 C 701.681 -318.84 693.758 -322.29 684.449 -322.79 C 675.243 -322.95 667.038 -319.82 660.17 -312.91 C 653.285 -306 650.04 -297.77 650.138 -288.37 C 650.386 -278.81 653.763 -270.74 660.303 -264.32 L 693.132 -231.53 L 660.434 -198.76 C 659.495 -197.76 658.623 -196.78 657.832 -195.8 C 653.087 -190.2 650.65 -183.26 650.715 -175.21 C 650.798 -165.81 654.043 -157.9 660.434 -151.65 C 660.515 -151.31 660.582 -151.31 660.648 -151.31 C 667.32 -144.73 675.325 -141.44 684.665 -141.44 C 694.07 -141.1 701.977 -144.24 708.435 -150.82 L 741.114 -183.44 L 773.812 -150.82 C 774.208 -150.5 774.603 -150.01 774.998 -149.67 C 781.406 -143.74 789.131 -140.95 798.191 -140.95 C 807.795 -140.95 815.914 -144.24 822.587 -151 C 822.603 -151 822.62 -151 822.62 -151 C 829.505 -157.9 832.733 -165.98 832.355 -175.04 C 831.958 -184.27 828.45 -192.18 821.812 -198.76 L 789.115 -231.53 L 822.504 -264.97 C 828.962 -271.39 832.123 -279.3 832.024 -288.69 C 831.909 -298.25 828.565 -306.16 821.976 -312.75 C 821.713 -312.91 821.484 -313.24 821.219 -313.56 C 815.091 -319.16 807.926 -322.29 799.689 -322.63 C 799.146 -322.63 798.635 -322.63 798.125 -322.63 C 797.845 -322.63 797.582 -322.63 797.302 -322.63 C 789.906 -322.63 783.514 -320.15 777.996 -316.04 C 776.794 -315.06 775.624 -314.06 774.504 -312.91 Z"/>
</svg>