<?xml version="1.0" encoding="utf-8"?>
<svg viewBox="0 0 22 22" xmlns="http://www.w3.org/2000/svg">
  <path d="M 5.104 10 L 5.104 13.5 L 9.104 13.5 L 9.104 10 C 9.104 9.724 9.328 9.5 9.604 9.5 L 10.604 9.5 C 10.88 9.5 11.104 9.724 11.104 10 L 11.104 19 C 11.104 19.276 10.88 19.5 10.604 19.5 L 3.604 19.5 C 3.328 19.5 3.104 19.276 3.104 19 L 3.104 10 C 3.104 9.724 3.328 9.5 3.604 9.5 L 4.604 9.5 C 4.88 9.5 5.104 9.724 5.104 10 Z M 13.604 16.5 L 18.604 16.5 C 18.88 16.5 19.104 16.724 19.104 17 L 19.104 19 C 19.104 19.276 18.88 19.5 18.604 19.5 L 13.604 19.5 C 13.328 19.5 13.104 19.276 13.104 19 L 13.104 17 C 13.104 16.724 13.328 16.5 13.604 16.5 Z M 9.75 5.036 C 9.946 4.841 10.262 4.841 10.458 5.036 L 11.165 5.743 C 11.36 5.939 11.36 6.255 11.165 6.45 L 10.812 6.805 L 7.458 10.158 C 7.262 10.353 6.946 10.353 6.751 10.158 L 3.396 6.804 L 3.043 6.45 C 2.848 6.255 2.848 5.939 3.043 5.743 L 3.75 5.036 C 3.946 4.841 4.262 4.841 4.458 5.036 L 6.104 6.683 L 6.104 5 C 6.125 4.357 6.401 3.678 6.815 3.254 C 7.228 2.83 7.913 2.537 8.555 2.5 C 8.571 2.5 14.588 2.5 14.604 2.5 C 14.62 2.5 14.649 2.5 14.665 2.5 C 15.308 2.537 15.98 2.83 16.393 3.254 C 16.807 3.678 17.083 4.357 17.104 5 L 17.104 15.522 C 17.104 15.798 16.88 16.022 16.604 16.022 L 15.604 16.022 C 15.328 16.022 15.104 15.798 15.104 15.522 L 15.104 5 C 15.126 4.826 15.075 4.765 14.957 4.647 C 14.839 4.529 14.778 4.478 14.604 4.5 L 8.604 4.5 C 8.43 4.478 8.369 4.529 8.251 4.647 C 8.133 4.765 8.082 4.826 8.104 5 L 8.104 6.683 L 9.75 5.036 Z"/>
</svg>