<?xml version="1.0" encoding="utf-8"?>
<svg viewBox="0 0 22 22" xmlns="http://www.w3.org/2000/svg">
  <path d="M 8 6.5 C 8 7.293 7.637 8.106 7.121 8.621 C 6.825 8.917 6.432 9.163 6 9.319 L 6 14 C 5.978 14.174 6.028 14.236 6.146 14.354 C 6.264 14.472 6.326 14.522 6.5 14.5 L 8.586 14.5 L 7.293 13.207 L 6.939 12.854 C 6.744 12.658 6.744 12.342 6.939 12.146 L 7.646 11.439 C 7.842 11.244 8.158 11.244 8.354 11.439 L 8.707 11.793 L 12.061 15.146 C 12.256 15.342 12.256 15.658 12.061 15.854 L 8.707 19.207 L 8.354 19.561 C 8.158 19.756 7.842 19.756 7.646 19.561 L 6.939 18.854 C 6.744 18.658 6.744 18.342 6.939 18.146 L 7.293 17.793 L 8.586 16.5 C 7.538 16.5 6.449 16.5 6.439 16.5 C 5.796 16.463 5.124 16.17 4.711 15.746 C 4.297 15.322 4.021 14.643 4 14 L 4 9.319 C 3.568 9.163 3.175 8.917 2.879 8.621 C 2.363 8.106 2 7.293 2 6.5 C 2 5.707 2.363 4.894 2.879 4.379 C 3.394 3.863 4.207 3.5 5 3.5 C 5.793 3.5 6.606 3.863 7.121 4.379 C 7.637 4.894 8 5.707 8 6.5 Z M 4.293 5.793 C 4.084 6.001 4 6.188 4 6.5 C 4 6.812 4.084 6.999 4.293 7.207 C 4.501 7.416 4.688 7.5 5 7.5 C 5.312 7.5 5.499 7.416 5.707 7.207 C 5.916 6.999 6 6.812 6 6.5 C 6 6.188 5.916 6.001 5.707 5.793 C 5.499 5.584 5.312 5.5 5 5.5 C 4.688 5.5 4.501 5.584 4.293 5.793 Z M 14 15.5 C 14 14.707 14.363 13.894 14.879 13.379 C 15.175 13.083 15.568 12.837 16 12.681 L 16 8 C 16.022 7.826 15.971 7.765 15.853 7.647 C 15.735 7.529 15.674 7.478 15.5 7.5 L 13.414 7.5 L 14.708 8.793 L 15.061 9.147 C 15.256 9.342 15.256 9.658 15.061 9.854 L 14.354 10.561 C 14.158 10.756 13.842 10.756 13.647 10.561 L 13.292 10.208 L 9.939 6.854 C 9.744 6.658 9.744 6.342 9.939 6.147 L 13.293 2.792 L 13.647 2.439 C 13.842 2.244 14.158 2.244 14.354 2.439 L 15.061 3.146 C 15.256 3.342 15.256 3.658 15.061 3.853 L 14.707 4.208 L 13.414 5.5 C 14.463 5.5 15.553 5.5 15.561 5.5 C 16.204 5.537 16.876 5.83 17.289 6.254 C 17.703 6.678 17.979 7.357 18 8 L 18 12.681 C 18.432 12.837 18.825 13.083 19.121 13.379 C 19.637 13.894 20 14.707 20 15.5 C 20 16.293 19.637 17.106 19.121 17.621 C 18.606 18.137 17.793 18.5 17 18.5 C 16.207 18.5 15.394 18.137 14.879 17.621 C 14.363 17.106 14 16.293 14 15.5 Z M 17.707 16.207 C 17.915 15.998 18 15.812 18 15.5 C 18 15.188 17.915 15.002 17.707 14.793 C 17.498 14.585 17.312 14.5 17 14.5 C 16.688 14.5 16.502 14.585 16.293 14.793 C 16.085 15.002 16 15.188 16 15.5 C 16 15.812 16.085 15.998 16.293 16.207 C 16.502 16.415 16.688 16.5 17 16.5 C 17.312 16.5 17.498 16.415 17.707 16.207 Z"/>
</svg>