<?xml version="1.0" encoding="utf-8"?>
<svg viewBox="0 0 22 22" xmlns="http://www.w3.org/2000/svg">
  <path d="M 8 6.604 C 8 7.397 7.637 8.21 7.121 8.725 C 6.825 9.021 6.432 9.267 6 9.423 L 6 13.785 C 6.432 13.941 6.825 14.187 7.121 14.483 C 7.637 14.998 8 15.811 8 16.604 C 8 17.397 7.637 18.21 7.121 18.725 C 6.606 19.241 5.793 19.604 5 19.604 C 4.207 19.604 3.394 19.241 2.879 18.725 C 2.363 18.21 2 17.397 2 16.604 C 2 15.811 2.363 14.998 2.879 14.483 C 3.175 14.187 3.568 13.941 4 13.785 L 4 9.423 C 3.568 9.267 3.175 9.021 2.879 8.725 C 2.363 8.21 2 7.397 2 6.604 C 2 5.811 2.363 4.998 2.879 4.483 C 3.394 3.967 4.207 3.604 5 3.604 C 5.793 3.604 6.606 3.967 7.121 4.483 C 7.637 4.998 8 5.811 8 6.604 Z M 4.293 5.897 C 4.084 6.105 4 6.292 4 6.604 C 4 6.916 4.084 7.103 4.293 7.311 C 4.501 7.52 4.688 7.604 5 7.604 C 5.312 7.604 5.499 7.52 5.707 7.311 C 5.916 7.103 6 6.916 6 6.604 C 6 6.292 5.916 6.105 5.707 5.897 C 5.499 5.688 5.312 5.604 5 5.604 C 4.688 5.604 4.501 5.688 4.293 5.897 Z M 4.293 15.897 C 4.084 16.105 4 16.292 4 16.604 C 4 16.916 4.084 17.103 4.293 17.311 C 4.501 17.52 4.688 17.604 5 17.604 C 5.312 17.604 5.499 17.52 5.707 17.311 C 5.916 17.103 6 16.916 6 16.604 C 6 16.292 5.916 16.105 5.707 15.897 C 5.499 15.688 5.312 15.604 5 15.604 C 4.688 15.604 4.501 15.688 4.293 15.897 Z M 20 16.604 C 20 17.397 19.637 18.21 19.121 18.725 C 18.606 19.241 17.793 19.604 17 19.604 C 16.207 19.604 15.394 19.241 14.879 18.725 C 14.363 18.21 14 17.397 14 16.604 C 14 15.811 14.363 14.998 14.879 14.483 C 15.175 14.187 15.568 13.941 16 13.785 L 16 8.104 C 16.022 7.93 15.971 7.869 15.853 7.751 C 15.735 7.633 15.674 7.582 15.5 7.604 L 13.414 7.604 L 14.708 8.897 L 15.061 9.251 C 15.256 9.446 15.256 9.762 15.061 9.958 L 14.354 10.665 C 14.158 10.86 13.842 10.86 13.647 10.665 L 13.292 10.312 L 9.939 6.958 C 9.744 6.762 9.744 6.446 9.939 6.251 L 13.293 2.896 L 13.647 2.543 C 13.842 2.348 14.158 2.348 14.354 2.543 L 15.061 3.25 C 15.256 3.446 15.256 3.762 15.061 3.957 L 14.707 4.312 L 13.414 5.604 C 14.463 5.604 15.553 5.604 15.561 5.604 C 16.204 5.641 16.876 5.934 17.289 6.358 C 17.703 6.782 17.979 7.461 18 8.104 L 18 13.785 C 18.432 13.941 18.825 14.187 19.121 14.483 C 19.637 14.998 20 15.811 20 16.604 Z M 16.293 15.897 C 16.085 16.106 16 16.292 16 16.604 C 16 16.916 16.085 17.102 16.293 17.311 C 16.502 17.519 16.688 17.604 17 17.604 C 17.312 17.604 17.498 17.519 17.707 17.311 C 17.915 17.102 18 16.916 18 16.604 C 18 16.292 17.915 16.106 17.707 15.897 C 17.498 15.689 17.312 15.604 17 15.604 C 16.688 15.604 16.502 15.689 16.293 15.897 Z" stroke-linecap="square"/>
</svg>