<?xml version="1.0" encoding="utf-8"?>
<svg viewBox="0 0 22 22" xmlns="http://www.w3.org/2000/svg">
  <path d="M 4.396 10 L 4.396 13.5 L 8.396 13.5 L 8.396 10 C 8.396 9.724 8.62 9.5 8.896 9.5 L 9.896 9.5 C 10.172 9.5 10.396 9.724 10.396 10 L 10.396 19 C 10.396 19.276 10.172 19.5 9.896 19.5 L 2.896 19.5 C 2.62 19.5 2.396 19.276 2.396 19 L 2.396 10 C 2.396 9.724 2.62 9.5 2.896 9.5 L 3.896 9.5 C 4.172 9.5 4.396 9.724 4.396 10 Z M 13.103 11.793 L 14.396 13.086 L 14.396 5 C 14.418 4.826 14.367 4.765 14.249 4.647 C 14.131 4.529 14.07 4.478 13.896 4.5 L 7.896 4.5 C 7.722 4.478 7.661 4.529 7.543 4.647 C 7.425 4.765 7.374 4.826 7.396 5 L 7.396 9 C 7.396 9.276 7.172 9.5 6.896 9.5 L 5.896 9.5 C 5.62 9.5 5.396 9.276 5.396 9 L 5.396 5 C 5.417 4.357 5.693 3.678 6.107 3.254 C 6.52 2.83 7.205 2.537 7.847 2.5 C 7.863 2.5 13.88 2.5 13.896 2.5 C 13.912 2.5 13.941 2.5 13.957 2.5 C 14.6 2.537 15.272 2.83 15.685 3.254 C 16.099 3.678 16.375 4.357 16.396 5 L 16.396 13.086 L 17.689 11.793 L 18.042 11.439 C 18.238 11.244 18.554 11.244 18.75 11.439 L 19.457 12.146 C 19.652 12.342 19.652 12.658 19.457 12.854 L 19.103 13.207 L 15.75 16.561 C 15.554 16.756 15.238 16.756 15.042 16.561 L 11.689 13.207 L 11.335 12.854 C 11.14 12.658 11.14 12.342 11.335 12.146 L 12.042 11.439 C 12.238 11.244 12.554 11.244 12.75 11.439 L 13.103 11.793 Z" stroke-linecap="square"/>
</svg>