<?xml version="1.0" encoding="utf-8"?>
<svg xmlns="http://www.w3.org/2000/svg" height="48" viewBox="0 -960 960 960" width="48">
  <path d="M 139 -62 C 112.693 -62 90.283 -71.157 71.77 -89.47 C 53.257 -107.79 44 -129.967 44 -156 L 44 -803 C 44 -829.307 53.257 -851.883 71.77 -870.73 C 90.283 -889.577 112.693 -899 139 -899 L 823 -899 C 848.56 -899 870.45 -889.577 888.67 -870.73 C 906.89 -851.883 916 -829.307 916 -803 L 916 -156 C 916 -129.967 906.89 -107.79 888.67 -89.47 C 870.45 -71.157 848.56 -62 823 -62 L 139 -62 Z M 325 -156 L 638 -156 L 638 -803 L 325 -803 L 325 -156 Z M 325 -803 L 638 -803 L 325 -803 Z M 139 -156 L 230 -156 L 230 -247 L 139 -247 L 139 -156 Z M 731 -156 L 823 -156 L 823 -247 L 731 -247 L 731 -156 Z M 139 -340 L 230 -340 L 230 -432 L 139 -432 L 139 -340 Z M 731 -340 L 823 -340 L 823 -432 L 731 -432 L 731 -340 Z M 139 -526 L 230 -526 L 230 -618 L 139 -618 L 139 -526 Z M 731 -526 L 823 -526 L 823 -618 L 731 -618 L 731 -526 Z M 139 -712 L 230 -712 L 230 -803 L 139 -803 L 139 -712 Z M 731 -712 L 823 -712 L 823 -803 L 731 -803 L 731 -712 Z"/>
</svg>