<?xml version="1.0" encoding="utf-8"?>
<svg xmlns="http://www.w3.org/2000/svg" height="48" viewBox="0 -960 960 960" width="48">
  <path d="M 138 -175 C 115.673 -175 96.26 -183.253 79.76 -199.76 C 63.253 -216.26 55 -235.673 55 -258 L 55 -702 C 55 -724.6 63.253 -744.25 79.76 -760.95 C 96.26 -777.65 115.673 -786 138 -786 L 822 -786 C 844.6 -786 864.25 -777.65 880.95 -760.95 C 897.65 -744.25 906 -724.6 906 -702 L 906 -258 C 906 -235.673 897.65 -216.26 880.95 -199.76 C 864.25 -183.253 844.6 -175 822 -175 Z M 138 -258 L 822 -258 L 822 -702 L 138 -702 Z M 722 -443 C 722 -449.553 724.5 -455.36 729.5 -460.42 C 734.5 -465.473 740.293 -468 746.88 -468 C 754.14 -468 760.14 -465.473 764.88 -460.42 C 769.627 -455.36 772 -449.553 772 -443 L 772 -355 C 772 -341.833 767.46 -330.71 758.38 -321.63 C 749.293 -312.543 738.167 -308 725 -308 L 637 -308 C 630.447 -308 624.64 -310.333 619.58 -315 C 614.527 -319.667 612 -325.46 612 -332.38 C 612 -339.307 614.527 -345.307 619.58 -350.38 C 624.64 -355.46 630.447 -358 637 -358 L 722 -358 Z M 238 -512 C 238 -505.447 235.5 -499.64 230.5 -494.58 C 225.5 -489.527 219.707 -487 213.12 -487 C 205.86 -487 199.86 -489.527 195.12 -494.58 C 190.373 -499.64 188 -505.447 188 -512 L 188 -600 C 188 -613.167 192.543 -624.293 201.63 -633.38 C 210.71 -642.46 221.833 -647 235 -647 L 323 -647 C 329.553 -647 335.36 -644.667 340.42 -640 C 345.473 -635.333 348 -629.54 348 -622.62 C 348 -615.693 345.473 -609.693 340.42 -604.62 C 335.36 -599.54 329.553 -597 323 -597 L 238 -597 Z M 521.288 -580.63 C 522.681 -582.11 524.121 -583.33 525.612 -584.54 C 532.452 -589.91 540.39 -592.61 549.599 -592.85 C 549.916 -592.85 550.258 -592.85 550.6 -592.85 C 551.235 -592.85 551.895 -592.85 552.53 -592.85 C 562.789 -592.36 571.681 -588.7 579.277 -581.37 C 579.594 -581.13 579.912 -580.88 580.205 -580.63 C 588.388 -572.33 592.566 -562.32 592.688 -550.6 C 592.809 -538.86 588.877 -529.1 580.866 -521.02 L 539.413 -479.75 L 580.01 -439.19 C 588.242 -430.9 592.614 -421.13 593.103 -409.64 C 593.567 -398.15 589.561 -388.14 581.036 -379.61 C 581.012 -379.61 580.988 -379.61 580.988 -379.61 C 572.707 -371.3 562.593 -367.14 550.698 -367.14 C 539.461 -367.14 529.862 -370.81 521.875 -378.13 C 521.386 -378.63 520.898 -379.11 520.409 -379.61 L 479.836 -420.14 L 439.239 -379.61 C 431.227 -371.54 421.408 -367.63 409.732 -367.63 C 398.13 -367.63 388.188 -371.77 379.931 -380.08 C 379.833 -380.08 379.735 -380.32 379.639 -380.32 C 371.699 -388.39 367.668 -398.15 367.596 -409.89 C 367.522 -419.67 370.551 -428.2 376.414 -435.54 C 377.415 -436.75 378.489 -437.98 379.639 -439.19 L 420.235 -479.75 L 379.467 -520.54 C 371.358 -528.61 367.156 -538.62 366.863 -550.35 C 366.741 -562.08 370.795 -572.09 379.32 -580.63 C 387.846 -589.17 398.032 -593.09 409.463 -592.85 C 421.042 -592.36 430.885 -588.21 438.97 -580.14 C 439.068 -580.14 439.142 -579.89 439.239 -579.89 L 479.836 -539.36 Z"/>
</svg>