<?xml version="1.0" encoding="utf-8"?>
<svg clip-rule="evenodd" fill-rule="evenodd" stroke-linejoin="round" stroke-miterlimit="2" viewBox="0 0 48 48" xmlns="http://www.w3.org/2000/svg">
  <path d="M 25.246 1.464 L 27.737 3.905 L 31.114 3.036 C 32.053 2.795 33.012 3.349 33.272 4.283 L 34.209 7.641 L 37.568 8.579 C 38.502 8.839 39.056 9.798 38.815 10.737 L 37.946 14.114 L 40.387 16.605 C 41.065 17.297 41.065 18.405 40.387 19.097 L 37.946 21.588 L 38.815 24.965 C 39.056 25.904 38.502 26.863 37.568 27.123 L 34.209 28.06 L 33.272 31.419 C 33.012 32.353 32.053 32.907 31.114 32.665 L 27.737 31.797 L 25.246 34.237 C 24.554 34.916 23.446 34.916 22.754 34.237 L 20.263 31.797 L 16.886 32.665 C 15.947 32.907 14.988 32.353 14.728 31.419 L 13.791 28.06 L 10.432 27.123 C 9.498 26.863 8.944 25.904 9.185 24.965 L 10.054 21.588 L 7.614 19.097 C 6.935 18.405 6.935 17.297 7.614 16.605 L 10.054 14.114 L 9.185 10.737 C 8.944 9.798 9.498 8.839 10.432 8.579 L 13.791 7.641 L 14.728 4.283 C 14.988 3.349 15.947 2.795 16.886 3.036 L 20.263 3.905 L 22.754 1.464 C 23.446 0.786 24.554 0.786 25.246 1.464 Z M 24 5.228 L 22.038 7.151 C 21.593 7.588 20.952 7.759 20.349 7.603 L 17.689 6.919 L 16.951 9.564 C 16.783 10.166 16.315 10.634 15.714 10.802 L 13.068 11.539 L 13.752 14.2 C 13.908 14.803 13.737 15.444 13.3 15.889 L 11.377 17.851 L 13.3 19.813 C 13.737 20.258 13.908 20.899 13.752 21.502 L 13.068 24.162 L 15.714 24.9 C 16.315 25.068 16.783 25.536 16.951 26.137 L 17.689 28.783 L 20.349 28.099 C 20.952 27.943 21.593 28.114 22.038 28.551 L 24 30.474 L 25.962 28.551 C 26.407 28.114 27.048 27.943 27.651 28.099 L 30.311 28.783 L 31.049 26.137 C 31.217 25.536 31.685 25.068 32.286 24.9 L 34.932 24.162 L 34.248 21.502 C 34.092 20.899 34.263 20.258 34.7 19.813 L 36.623 17.851 L 34.7 15.889 C 34.263 15.444 34.092 14.803 34.248 14.2 L 34.932 11.539 L 32.286 10.802 C 31.685 10.634 31.217 10.166 31.049 9.564 L 30.311 6.919 L 27.651 7.603 C 27.048 7.759 26.407 7.588 25.962 7.151 Z M 28.877 34.948 C 29.339 34.908 29.798 35.064 30.14 35.378 C 30.483 35.693 30.678 36.137 30.678 36.6 L 30.678 43.98 C 30.678 46.531 27.737 47.962 25.73 46.388 L 24 45.092 L 22.27 46.388 C 20.263 47.962 17.322 46.531 17.322 43.98 L 17.322 36.6 C 17.322 36.137 17.517 35.693 17.86 35.378 C 18.201 35.064 18.659 34.908 19.123 34.948 L 19.214 34.955 C 20.016 35.023 20.633 35.693 20.633 36.5 L 20.633 43.473 L 23.234 41.478 C 23.686 41.132 24.314 41.132 24.766 41.478 L 27.367 43.473 L 27.367 36.589 C 27.367 35.734 28.024 35.02 28.877 34.948 Z M 25.847 17.246 L 25.876 21.725 C 25.876 22.265 25.683 22.718 25.299 23.084 C 24.913 23.451 24.447 23.636 23.9 23.644 C 23.367 23.638 22.919 23.45 22.553 23.083 C 22.187 22.717 22.001 22.265 22.002 21.725 L 22.003 17.217 L 19.951 19.269 C 19.57 19.65 19.116 19.839 18.59 19.838 C 18.063 19.837 17.612 19.645 17.23 19.264 C 16.847 18.881 16.656 18.43 16.658 17.907 C 16.662 17.385 16.853 16.932 17.234 16.551 L 22.552 11.233 C 22.933 10.852 23.387 10.662 23.911 10.664 C 24.435 10.664 24.888 10.852 25.269 11.233 L 30.588 16.553 C 30.968 16.932 31.158 17.386 31.157 17.912 C 31.156 18.438 30.965 18.89 30.582 19.273 C 30.2 19.655 29.748 19.845 29.226 19.843 C 28.703 19.841 28.251 19.65 27.871 19.27 Z"/>
</svg>