<?xml version="1.0" encoding="utf-8"?>
<svg xmlns="http://www.w3.org/2000/svg" height="48" viewBox="0 -960 960 960" width="48">
  <path d="M 409.251 -499.78 C 376.86 -500.28 346.718 -512.68 323.552 -535.15 C 301.118 -558.31 288.163 -588.47 288.163 -620.78 C 288.163 -634.84 290.733 -649.47 295.206 -662.35 C 299.858 -675.14 307.191 -688.08 315.812 -698.84 L 379.551 -774.47 L 351.205 -831.99 C 348.767 -837.07 346.901 -844.03 347.169 -849.4 C 347.434 -854.73 349.905 -861.45 352.779 -866.34 C 355.91 -870.98 360.758 -876.02 365.335 -878.63 C 369.954 -881.25 376.875 -882.79 382.43 -883 L 577.106 -883 C 582.661 -882.79 589.582 -881.25 594.203 -878.63 C 598.782 -876.02 603.641 -870.97 606.774 -866.34 C 609.649 -861.43 612.112 -854.72 612.374 -849.39 C 612.638 -844.02 610.935 -837.38 608.498 -832.31 L 579.959 -774.41 L 642.808 -698.83 C 651.788 -688 659.261 -675.19 664.082 -662.38 C 668.695 -649.56 671.418 -634.8 671.837 -620.88 C 671.329 -588.36 658.812 -558.19 636.256 -535.12 C 612.99 -512.67 582.77 -500.27 550.287 -499.78 Z M 409.251 -569.49 L 549.825 -569.49 C 565.154 -568.99 575.67 -573.29 586.125 -584.57 C 597.339 -595.2 601.218 -605.77 601.218 -620.97 C 601.218 -627.45 600.469 -632.52 598.294 -638.33 C 596.334 -644.14 593.794 -648.49 589.509 -653.49 L 522.299 -734.23 L 436.804 -734.23 L 370.105 -653.53 C 365.762 -648.49 363.05 -643.98 360.947 -638.04 C 358.642 -632.16 357.857 -627.26 357.857 -620.88 C 357.857 -605.78 361.744 -595.25 373.064 -584.62 C 383.674 -573.39 394.163 -568.98 409.251 -569.49 Z M 54.823 -202.58 C 47.909 -235.7 44.005 -261.66 44.005 -277.3 C 44.005 -290.5 47.167 -305.49 52.091 -317.24 C 57.014 -328.97 66.015 -341.94 74.809 -351.32 C 93.917 -368.7 122.493 -380.43 148.276 -381.67 L 259.712 -381.67 C 264.636 -386.82 266.506 -389.06 278.676 -398.17 C 290.972 -406.65 307.119 -414.55 322.147 -419.3 C 327.033 -420.33 334.929 -420.89 339.51 -419.78 C 344.089 -418.67 350.893 -414.55 354.767 -411.43 C 358.055 -407.68 362.404 -401.09 363.693 -396.55 C 364.982 -392.01 364.749 -384.1 363.918 -379.2 C 361.517 -369.86 359.802 -362.32 358.534 -355.3 C 357.303 -348.717 358.378 -354.449 358.411 -354.64 L 397.223 -315.82 L 407.911 -315.82 C 411.735 -315.59 417.61 -314.58 420.858 -313.22 C 424.17 -311.81 428.958 -308.55 431.421 -306.09 C 433.884 -303.63 437.137 -298.84 438.538 -295.53 C 439.912 -292.27 440.913 -286.4 441.16 -282.57 L 441.16 -207.34 C 440.546 -201.34 438.014 -192.16 434.718 -187.67 C 431.425 -183.19 423.444 -178.02 417.906 -175.63 L 385.133 -165.31 L 360.742 -83.956 C 358.397 -78.316 353.259 -70.186 348.744 -66.826 C 344.227 -63.466 334.967 -60.866 328.892 -60.246 L 280.445 -60.246 C 276.621 -60.496 270.746 -61.496 267.498 -62.866 C 264.186 -64.266 259.398 -67.526 256.935 -69.986 C 254.472 -72.446 251.219 -77.226 249.818 -80.546 C 248.444 -83.796 247.443 -89.676 247.196 -93.496 L 247.196 -97.876 L 197.987 -97.876 L 197.987 -93.496 C 197.741 -89.676 196.739 -83.796 195.365 -80.546 C 193.965 -77.226 190.712 -72.446 188.248 -69.986 C 185.786 -67.526 180.998 -64.266 177.686 -62.866 C 174.438 -61.496 168.563 -60.496 164.739 -60.246 L 116.293 -60.246 C 110.108 -60.906 100.71 -63.576 96.168 -67.036 C 91.626 -70.496 86.534 -78.826 84.256 -84.596 C 71.608 -130.18 61.711 -169.77 54.823 -202.58 Z M 358.411 -354.64 C 358.412 -354.646 358.412 -354.646 358.411 -354.64 Z M 119.907 -216.24 C 124.381 -194.83 139.608 -153.01 141.229 -154.62 C 143.691 -157.1 148.479 -160.35 151.791 -161.76 C 155.039 -163.13 160.915 -164.11 164.739 -164.37 L 280.445 -164.37 C 284.269 -164.11 290.145 -163.13 293.392 -161.76 C 296.704 -160.35 301.492 -157.1 303.955 -154.62 C 305.913 -152.68 326.497 -201.26 326.497 -201.26 C 328.147 -205.54 331.606 -211.95 334.669 -215.06 C 337.732 -218.17 344.081 -221.7 348.325 -223.42 L 374.662 -231.71 L 374.662 -250.66 C 373.181 -251.02 371.807 -251.41 370.714 -251.86 C 367.433 -253.23 362.681 -256.66 359.939 -259.08 L 299.739 -319.27 C 298.794 -320.34 297.716 -321.71 296.663 -323.2 C 294.921 -321.59 293.167 -320.22 291.638 -319.37 C 287.675 -317.17 280.259 -315.57 275.497 -315.19 L 148.276 -315.19 C 141.582 -315.53 138.132 -314.89 133.584 -313 C 129.032 -311.09 126.482 -309.48 121.978 -304.46 C 117.068 -300.08 114.786 -296.83 112.915 -292.23 C 111.033 -287.61 110.503 -284.3 110.503 -277.3 C 110.503 -266.59 113.335 -247.44 119.907 -216.24 Z M 598.632 -61.471 C 586.052 -61.471 575.438 -65.863 566.773 -74.451 C 558.107 -83.235 553.773 -93.741 553.773 -106.33 L 553.773 -180.78 C 553.773 -186.31 554.881 -191.47 557.114 -196.62 C 559.328 -201.78 562.669 -206.55 567.136 -211.33 L 769.092 -412.51 C 776.289 -419.58 784.211 -424.92 792.877 -428.35 C 801.542 -431.98 810.324 -433.7 819.219 -433.7 C 828.706 -433.7 837.734 -431.8 846.306 -427.98 C 854.895 -424.15 863.008 -418.82 870.644 -411.74 L 905.957 -376.43 C 912.943 -369.37 918.041 -361.74 921.228 -353.15 C 924.396 -344.56 926 -335.78 926 -326.8 C 926 -317.25 924.245 -308.1 920.713 -299.31 C 917.2 -290.54 911.932 -282.52 904.926 -275.27 L 704.573 -73.881 C 699.877 -69.49 694.99 -66.252 689.951 -64.334 C 684.892 -62.43 679.261 -61.471 673.077 -61.471 Z M 625.355 -133.06 L 661.624 -133.06 L 774.246 -246.44 L 770.834 -250.043 L 774.246 -246.63 L 757.066 -264.76 L 738.933 -281.95 L 625.355 -169.51 Z M 770.834 -250.043 L 738.933 -281.95 L 757.066 -264.58 Z" style=""/>
</svg>