<?xml version="1.0" encoding="utf-8"?>
<svg xmlns="http://www.w3.org/2000/svg" height="48" viewBox="0 -960 960 960" width="48">
  <path d="M 189 -55 C 162.967 -55 140.79 -64.157 122.47 -82.47 C 104.157 -100.79 95 -122.967 95 -149 L 95 -751 C 95 -777.307 104.157 -799.717 122.47 -818.23 C 140.79 -836.743 162.967 -846 189 -846 L 245 -846 L 245 -865 C 245 -876.167 249.13 -885.793 257.39 -893.88 C 265.657 -901.96 275.257 -906 286.19 -906 C 297.41 -906 307.017 -901.96 315.01 -893.88 C 323.003 -885.793 327 -876.167 327 -865 L 327 -846 L 633 -846 L 633 -865 C 633 -876.167 637.13 -885.793 645.39 -893.88 C 653.657 -901.96 663.257 -906 674.19 -906 C 685.417 -906 695.023 -901.96 703.01 -893.88 C 711.003 -885.793 715 -876.167 715 -865 L 715 -846 L 771 -846 C 797.307 -846 819.717 -836.743 838.23 -818.23 C 856.743 -799.717 866 -777.307 866 -751 L 866 -149 C 866 -122.967 856.743 -100.79 838.23 -82.47 C 819.717 -64.157 797.307 -55 771 -55 L 189 -55 Z M 189 -149 L 771 -149 L 771 -570 L 189 -570 L 189 -149 Z M 189 -630 L 771 -630 L 771 -751 L 189 -751 L 189 -630 Z M 189 -630 L 189 -751 L 189 -630 Z M 315 -413 C 305.087 -413 296.773 -416.457 290.06 -423.37 C 283.353 -430.283 280 -438.85 280 -449.07 C 280 -459.01 283.353 -467.483 290.06 -474.49 C 296.773 -481.497 305.087 -485 315 -485 L 645 -485 C 654.92 -485 663.233 -481.437 669.94 -474.31 C 676.647 -467.177 680 -458.64 680 -448.7 C 680 -438.76 676.647 -430.323 669.94 -423.39 C 663.233 -416.463 654.92 -413 645 -413 L 315 -413 Z M 315 -236 C 305.087 -236 296.773 -239.327 290.06 -245.98 C 283.353 -252.627 280 -261.193 280 -271.68 C 280 -281.88 283.353 -290.317 290.06 -296.99 C 296.773 -303.663 305.087 -307 315 -307 L 643.924 -307 C 653.844 -307 662.157 -303.627 668.864 -296.88 C 675.571 -290.133 678.924 -281.777 678.924 -271.81 C 678.924 -261.27 675.571 -252.667 668.864 -246 C 662.157 -239.333 653.844 -236 643.924 -236 L 315 -236 Z"/>
</svg>