<?xml version="1.0" encoding="utf-8"?>
<svg xmlns="http://www.w3.org/2000/svg" height="48" viewBox="0 -960 960 960" width="48">
  <path d="M 276 -378 C 276 -378 276 -378 276 -378 L 276 -582 C 276 -592.6 281 -600 291 -604 C 300.999 -608 309.659 -606.4 316.999 -599 L 401.999 -514 C 411.938 -504.26 416.937 -492.94 416.998 -480.04 C 416.999 -479.91 417 -479.77 417 -479.64 C 417 -466.55 412 -455.33 402 -446 L 317 -361 C 309.667 -353.67 301 -352.01 291 -356.04 C 281 -360.07 276 -367.39 276 -378 Z M 190 -95 C 163.193 -95 140.657 -104.03 122.39 -122.1 C 105.339 -138.97 96.249 -159.53 95.12 -183.78 C 95.039 -185.51 94.999 -187.24 94.999 -189 L 94.999 -771 C 94.999 -797.8 104.119 -820.4 122.38 -838.6 C 140.659 -857 163.199 -866 189.999 -866 L 772 -866 C 797.974 -866 819.889 -857.38 837.741 -839.76 C 838.129 -839.38 838.516 -839 838.9 -838.61 C 839.871 -837.63 840.815 -836.63 841.734 -835.63 C 853.489 -822.78 860.976 -807.87 864.189 -790.93 C 865.313 -785.01 865.914 -778.84 865.991 -772.43 C 865.997 -771.95 866 -771.48 866 -771 L 866 -189 C 866 -162.47 856.967 -140.17 838.9 -122.1 C 820.833 -104.03 798.533 -95 772 -95 L 190 -95 Z M 190 -771 L 190 -189 L 545 -189 L 545 -771 L 190 -771 Z M 772 -189 L 772 -771 L 640 -771 L 640 -189 L 772 -189 Z" style=""/>
</svg>