<?xml version="1.0" encoding="utf-8"?>
<svg xmlns="http://www.w3.org/2000/svg" height="48" viewBox="0 -960 960 960" width="48">
  <path d="M 55 -347 C 55 -372.33 64.11 -394.17 82.33 -412.5 C 100.543 -430.83 122.767 -440 149 -440 L 307 -440 C 333.233 -440 355.457 -430.83 373.67 -412.5 C 391.89 -394.17 401 -372.33 401 -347 L 401 -188 C 401 -187.84 401 -187.69 400.999 -187.53 L 400.999 -187.4 C 400.999 -161.41 391.88 -139.41 373.661 -121.39 C 355.439 -103.41 333.221 -94.405 306.999 -94.405 L 149 -94.405 C 122.759 -94.405 100.538 -103.41 82.318 -121.39 C 64.099 -139.41 55 -161.41 55 -187.4 L 55 -347 Z M 150 -189 L 306 -189 L 306 -345.4 L 150 -345.4 L 150 -189 Z M 522 -266.74 C 522 -279.89 526.73 -291.23 536.19 -300.74 C 545.643 -310.25 556.913 -315 570 -315 L 846 -315 C 859.833 -315 871.29 -310.3 880.37 -300.91 C 889.457 -291.52 894 -280.24 894 -267.09 C 894 -267.01 894 -266.93 894 -266.85 C 894 -266.77 894 -266.69 894 -266.62 C 894 -253.4 889.442 -242.19 880.361 -233 C 871.28 -224 859.82 -219.41 846.001 -219.41 L 569.999 -219.41 C 556.9 -219.41 545.64 -224 536.181 -232.79 C 526.72 -242 522 -253 522 -266.2 C 522 -266.29 522 -266.38 522.001 -266.47 C 522 -266.56 522 -266.65 522 -266.74 Z M 149 -520 C 147.974 -520 146.953 -520.01 145.939 -520.04 C 121.027 -520.65 99.825 -528.71 82.318 -545.99 C 66.544 -561.59 57.607 -581.67 55.492 -603.66 C 55.164 -607.03 55 -610.48 55 -614 L 55 -772 C 55 -798.23 64.11 -820.46 82.33 -838.67 C 100.543 -856.89 122.767 -866 149 -866 L 307 -866 C 333.233 -866 355.457 -856.89 373.67 -838.67 C 391.89 -820.46 401 -798.23 401 -772 L 401 -614 C 401 -609.86 400.773 -605.82 400.319 -601.88 C 397.897 -580.59 389.007 -561.16 373.661 -545.99 C 356.158 -528.71 334.968 -520.65 310.084 -520.04 C 309.062 -520.01 308.034 -520 307 -520 L 149 -520 Z M 150 -615 L 306 -615 L 306 -770 L 150 -770 L 150 -615 Z M 570 -646 C 569.266 -646 568.537 -646.01 567.815 -646.04 C 555.644 -646.46 545.11 -650.43 536.181 -657.99 C 526.72 -668.01 522 -680 522 -692 C 522 -692.14 522 -692.28 522.001 -692.42 C 522 -692.56 522 -692.69 522 -692.82 C 522 -706.04 526.73 -717.21 536.19 -726.32 C 545.643 -735.44 556.913 -740 570 -740 L 846 -740 C 859.833 -740 871.29 -735.5 880.37 -726.5 C 889.457 -717.5 894 -706.39 894 -693.18 C 894 -692.99 893.999 -692.8 893.997 -692.61 C 893.999 -692.41 894 -692.21 894 -692 C 894 -681.59 890.565 -671.18 883.719 -663.38 C 882.681 -662.11 881.565 -660.88 880.37 -659.68 C 878.841 -658.14 877.245 -656.74 875.581 -655.46 C 867.912 -649.21 858.812 -646.39 848.289 -646.04 C 847.533 -646.01 846.77 -646 846 -646 L 570 -646 Z" style=""/>
</svg>