<?xml version="1.0" encoding="utf-8"?>
<svg xmlns="http://www.w3.org/2000/svg" height="48" viewBox="0 -960 960 960" width="48">
  <path d="M 480.5 -55 C 420.167 -55 364.003 -65.86 312.01 -87.58 C 260.023 -109.307 215.053 -139.147 177.1 -177.1 C 139.147 -215.053 109.307 -260.023 87.58 -312.01 C 65.86 -364.003 55 -420.167 55 -480.5 C 55 -540.167 65.783 -595.85 87.35 -647.55 C 108.91 -699.25 138.747 -744.223 176.86 -782.47 C 214.973 -820.71 260.023 -850.86 312.01 -872.92 C 364.003 -894.973 420.167 -906 480.5 -906 C 540.167 -906 595.87 -895.017 647.61 -873.05 C 699.343 -851.077 744.347 -820.973 782.62 -782.74 C 820.893 -744.507 851.023 -699.55 873.01 -647.87 C 895.003 -596.183 906 -540.227 906 -480 C 906 -420 894.973 -364.003 872.92 -312.01 C 850.86 -260.023 820.71 -214.973 782.47 -176.86 C 744.223 -138.747 699.25 -108.91 647.55 -87.35 C 595.85 -65.783 540.167 -55 480.5 -55 Z M 479.82 -149 C 573.94 -149 652.667 -180.443 716 -243.33 C 779.333 -306.21 811 -385.043 811 -479.83 C 811 -574.61 779.393 -653.5 716.18 -716.5 C 652.973 -779.5 574.307 -811 480.18 -811 C 386.06 -811 307.333 -779.557 244 -716.67 C 180.667 -653.79 149 -574.957 149 -480.17 C 149 -385.39 180.607 -306.5 243.82 -243.5 C 307.027 -180.5 385.693 -149 479.82 -149 Z M 261.863 -261.56 C 232.624 -290.74 210.956 -323.57 196.168 -359.86 C 181.788 -396.38 174.273 -436.38 174.273 -480.15 C 174.273 -523.93 181.803 -563.93 196.21 -600.43 C 211.026 -636.68 232.737 -669.49 262.033 -698.62 C 291.362 -727.68 324.223 -749.24 360.429 -763.95 C 396.873 -778.25 436.7 -785.73 480.166 -785.73 C 523.636 -785.73 563.45 -778.25 599.866 -763.9 C 636.044 -749.17 668.867 -727.59 698.137 -698.46 C 727.376 -669.27 749.044 -636.43 763.832 -600.15 C 778.212 -563.63 785.727 -523.62 785.727 -479.85 C 785.727 -436.07 778.197 -396.06 763.79 -359.57 C 748.974 -323.32 727.263 -290.51 697.967 -261.39 C 668.638 -232.31 635.778 -210.76 599.571 -196.06 C 563.127 -181.75 523.301 -174.28 479.834 -174.28 C 436.364 -174.28 396.55 -181.76 360.134 -196.09 C 323.956 -210.84 291.133 -232.43 261.863 -261.56 Z M 377.301 -238.97 C 409.275 -225.91 440.504 -220.46 479.834 -220.46 C 519.168 -220.46 550.431 -225.91 582.441 -238.94 C 614.56 -251.53 639.702 -267.98 665.348 -294.08 C 691.597 -319.49 708.286 -344.67 720.937 -376.79 C 734.054 -408.81 739.544 -440.21 739.544 -479.85 C 739.544 -519.49 734.06 -550.91 720.962 -582.98 C 708.33 -615.13 691.848 -640.17 665.641 -665.64 C 640.057 -691.78 614.78 -708.43 582.699 -721.03 C 550.725 -734.09 519.496 -739.54 480.166 -739.54 C 440.832 -739.54 409.569 -734.1 377.559 -721.05 C 345.441 -708.48 320.298 -692.02 294.652 -665.92 C 268.403 -640.51 251.715 -615.35 239.063 -583.22 C 225.946 -551.18 220.456 -519.79 220.456 -480.15 C 220.456 -440.52 225.94 -409.1 239.038 -377.02 C 251.67 -344.87 268.152 -319.82 294.359 -294.37 C 319.943 -268.21 345.22 -251.56 377.301 -238.97 Z M 511.549 -292.55 C 511.549 -283.69 508.506 -276.13 502.423 -270.14 C 496.345 -264.05 488.849 -261 479.935 -261 C 471.039 -261 463.556 -264.05 457.507 -270.14 C 451.475 -276.13 448.451 -283.69 448.451 -292.55 L 448.451 -332.87 L 415.303 -323.69 C 413.917 -323.43 412.217 -323.07 410.62 -322.81 C 409.119 -322.58 406.944 -322.31 405.006 -322.31 C 393.706 -322.31 381.717 -327.76 373.293 -335.5 C 365.402 -344.08 360.601 -356.21 360.692 -368.02 L 362.035 -425.69 L 323.689 -480.61 C 320.883 -484.5 318.335 -489.82 317.093 -494.24 C 316.143 -498.19 315.494 -502.74 315.494 -506.46 C 315.494 -515.04 318.547 -524.64 322.963 -531.9 C 328.22 -539.26 336.52 -545.5 345.578 -548.46 L 405.667 -568.75 L 445.308 -620.42 C 446.264 -621.61 447.321 -622.78 448.451 -623.92 L 448.451 -667.46 C 448.451 -676.39 451.492 -683.84 457.568 -689.87 C 463.651 -696 471.147 -699 480.056 -699 C 488.965 -699 496.442 -696 502.479 -689.87 C 508.524 -683.84 511.549 -676.39 511.549 -667.46 L 511.549 -623.92 C 512.67 -622.79 513.719 -621.63 514.668 -620.46 L 554.456 -568.75 L 614.882 -548.42 C 623.576 -545.05 632.007 -538.46 637.045 -531.29 C 641.454 -524 644.506 -514.5 644.506 -506.05 C 644.506 -502.29 643.725 -497.45 642.596 -493.42 C 641.325 -489.26 639.008 -484.36 636.605 -480.65 L 598.323 -425.63 L 599.671 -367.38 C 599.174 -355.88 593.93 -343.74 585.837 -335.44 C 577.257 -327.92 565.295 -322.67 554.076 -322.67 C 553.213 -322.67 550.195 -323.05 545.716 -323.55 C 545.087 -323.63 544.464 -323.75 543.855 -323.92 L 511.549 -332.86 Z M 442.907 -522.12 C 441.455 -520.25 439.483 -518.84 437.238 -518.08 L 381.544 -499.24 L 418.829 -446.52 C 420.343 -444.38 421.119 -441.81 421.038 -439.19 L 419.388 -385.2 L 476.752 -401.24 C 478.872 -401.82 481.113 -401.83 483.233 -401.24 L 540.971 -385.18 L 539.32 -439.19 C 539.24 -441.81 540.02 -444.39 541.541 -446.54 L 578.521 -498.64 L 522.658 -518.12 C 520.426 -518.89 518.473 -520.3 517.038 -522.18 L 480.285 -570.35 Z" style="stroke-width: 50px;"/>
</svg>