<?xml version="1.0" encoding="utf-8"?>
<svg xmlns="http://www.w3.org/2000/svg" height="48" viewBox="0 -960 960 960" width="48">
  <path d="M 177 -231 C 171 -231 165.5 -233.5 160.5 -238.5 C 155.5 -243.5 153 -249 153 -255 L 153 -707 C 153 -713 155.5 -718.333 160.5 -723 C 165.5 -727.667 171 -730 177 -730 L 210 -730 C 216 -730 221.333 -727.5 226 -722.5 C 230.667 -717.5 233 -712 233 -706 L 233 -254 C 233 -248 230.667 -242.667 226 -238 C 221.333 -233.333 216 -231 210 -231 Z M 295 -231 C 289 -231 284 -233.08 280 -237.24 C 276 -241.4 274 -246.25 274 -251.79 L 274 -709.21 C 274 -714.757 276 -719.607 280 -723.76 C 284 -727.92 289 -730 295 -730 C 301 -730 306 -727.92 310 -723.76 C 314 -719.607 316 -714.757 316 -709.21 L 316 -251.79 C 316 -246.25 314 -241.4 310 -237.24 C 306 -233.08 301 -231 295 -231 Z M 420 -231 C 414 -231 408.5 -233.5 403.5 -238.5 C 398.5 -243.5 396 -249 396 -255 L 396 -707 C 396 -713 398.5 -718.333 403.5 -723 C 408.5 -727.667 414 -730 420 -730 L 456 -730 C 462 -730 467.333 -727.5 472 -722.5 C 476.667 -717.5 479 -712 479 -706 L 479 -254 C 479 -248 476.667 -242.667 472 -238 C 467.333 -233.333 462 -231 456 -231 Z M 545 -231 C 539 -231 533.5 -233.5 528.5 -238.5 C 523.5 -243.5 521 -249 521 -255 L 521 -707 C 521 -713 523.5 -718.333 528.5 -723 C 533.5 -727.667 539 -730 545 -730 L 619 -730 C 625 -730 630.333 -727.5 635 -722.5 C 639.667 -717.5 642 -712 642 -706 L 642 -254 C 642 -248 639.667 -242.667 635 -238 C 630.333 -233.333 625 -231 619 -231 Z M 705 -231 C 699 -231 694 -233.08 690 -237.24 C 686 -241.4 684 -246.25 684 -251.79 L 684 -709.21 C 684 -714.757 686 -719.607 690 -723.76 C 694 -727.92 699 -730 705 -730 C 711 -730 716 -727.92 720 -723.76 C 724 -719.607 726 -714.757 726 -709.21 L 726 -251.79 C 726 -246.25 724 -241.4 720 -237.24 C 716 -233.08 711 -231 705 -231 Z M 786 -231 C 780.933 -231 776.5 -232.9 772.7 -236.7 C 768.9 -240.5 767 -244.933 767 -250 L 767 -710.63 C 767 -716.21 768.9 -720.833 772.7 -724.5 C 776.5 -728.167 780.933 -730 786 -730 C 791.067 -730 795.5 -728.1 799.3 -724.3 C 803.1 -720.5 805 -716.067 805 -711 L 805 -250.38 C 805 -244.793 803.1 -240.167 799.3 -236.5 C 795.5 -232.833 791.067 -231 786 -231 Z M 785.67 -144.92 C 777.517 -144.92 770.491 -147.93 764.594 -153.74 C 758.694 -159.55 755.737 -166.76 755.737 -175.05 C 755.737 -183.51 758.694 -190.55 764.594 -196.72 C 770.491 -202.69 777.517 -205.7 785.67 -205.7 L 827.934 -205.7 L 827.934 -247.08 C 827.934 -255.53 830.735 -262.75 836.299 -268.71 C 841.88 -274.88 849.01 -277.89 857.712 -277.89 C 866.16 -277.89 873.436 -274.88 879.545 -268.71 C 885.638 -262.75 888.683 -255.53 888.683 -247.08 L 888.683 -205.7 L 930.066 -205.7 C 938.234 -205.7 945.261 -202.69 951.162 -196.72 C 957.059 -190.71 960 -183.51 960 -175.05 C 960 -166.76 957.059 -159.75 951.162 -153.74 C 945.261 -147.93 938.234 -144.92 930.066 -144.92 L 888.683 -144.92 L 888.683 -103.55 C 888.683 -95.094 885.762 -87.88 879.882 -81.902 C 874.017 -75.741 866.725 -72.735 858.029 -72.735 C 849.327 -72.735 842.144 -75.741 836.456 -81.902 C 830.787 -87.88 827.934 -95.094 827.934 -103.55 L 827.934 -144.92 Z"/>
</svg>