<?xml version="1.0" encoding="utf-8"?>
<svg xmlns="http://www.w3.org/2000/svg" height="48" viewBox="0 -960 960 960" width="48">
  <path d="M 399 -778 C 393.613 -778 389.933 -780.333 387.96 -785 C 385.987 -789.667 387.017 -794.35 391.05 -799.05 L 463.14 -871.14 C 467.833 -875.047 473.543 -877 480.27 -877 C 486.997 -877 492.573 -875 497 -871 L 568.96 -799.04 C 572.987 -794.347 574.013 -789.667 572.04 -785 C 570.067 -780.333 566.387 -778 561 -778 Z M 463 -90 L 391.04 -161.96 C 387.013 -165.987 385.987 -170.333 387.96 -175 C 389.933 -179.667 393.613 -182 399 -182 L 561 -182 C 566.387 -182 570.067 -179.667 572.04 -175 C 574.013 -170.333 572.983 -165.983 568.95 -161.95 L 496.86 -89.86 C 492.167 -85.287 486.457 -83 479.73 -83 C 473.003 -83 467.427 -85.333 463 -90 Z M 150.282 -274 C 138.979 -274 129.256 -278.06 121.111 -286.33 C 112.967 -294.42 108.885 -304.24 108.885 -315.6 C 108.885 -326.95 112.967 -336.97 121.111 -345.25 C 129.256 -353.52 138.979 -357.77 150.282 -357.77 L 808.757 -357.77 C 820.347 -357.77 830.302 -353.52 838.638 -345.25 C 846.957 -336.97 851.115 -326.95 851.115 -315.4 C 851.115 -303.86 846.957 -294.03 838.638 -285.94 C 830.302 -278.06 820.347 -274 808.757 -274 Z M 150.282 -438.63 C 138.979 -438.63 129.256 -442.67 121.111 -450.94 C 112.967 -459.04 108.885 -468.85 108.885 -480.21 C 108.885 -491.58 112.967 -501.59 121.111 -509.86 C 129.256 -518.15 138.979 -522.39 150.282 -522.39 L 808.757 -522.39 C 820.347 -522.39 830.302 -518.15 838.638 -509.86 C 846.957 -501.59 851.115 -491.58 851.115 -480.02 C 851.115 -468.47 846.957 -458.65 838.638 -450.57 C 830.302 -442.67 820.347 -438.63 808.757 -438.63 Z M 150.282 -603.25 C 138.979 -603.25 129.256 -607.28 121.111 -615.58 C 112.967 -623.65 108.885 -633.48 108.885 -644.83 C 108.885 -656.19 112.967 -666.2 121.111 -674.49 C 129.256 -682.76 138.979 -687 150.282 -687 L 808.757 -687 C 820.347 -687 830.302 -682.76 838.638 -674.49 C 846.957 -666.2 851.115 -656.19 851.115 -644.65 C 851.115 -633.09 846.957 -623.28 838.638 -615.18 C 830.302 -607.28 820.347 -603.25 808.757 -603.25 Z"/>
</svg>