<?xml version="1.0" encoding="utf-8"?>
<svg xmlns="http://www.w3.org/2000/svg" height="48" viewBox="0 -960 960 960" width="48">
  <path d="M 326 -770 C 339.32 -770 350.483 -765.75 359.49 -757.25 C 368.497 -748.74 373 -737.63 373 -723.92 C 373 -710.21 368.497 -698.79 359.49 -689.68 C 350.483 -680.56 339.32 -676 326 -676 L 141 -676 C 127.6 -676 116.583 -680.45 107.95 -689.34 C 99.317 -698.23 95 -709.34 95 -722.67 C 95 -735.99 99.317 -747.21 107.95 -756.32 C 116.583 -765.44 127.6 -770 141 -770 Z M 556.616 -526 C 569.93 -526 581.093 -521.75 590.106 -513.25 C 599.113 -504.74 603.616 -493.83 603.616 -480.51 C 603.616 -467.19 599.113 -455.77 590.106 -446.26 C 581.093 -436.75 569.93 -432 556.616 -432 L 141 -432 C 127.6 -432 116.583 -436.45 107.95 -445.34 C 99.317 -454.23 95 -465.34 95 -478.67 C 95 -491.99 99.317 -503.21 107.95 -512.32 C 116.583 -521.44 127.6 -526 141 -526 Z M 818 -282 C 831.087 -282 842.357 -277.75 851.81 -269.25 C 861.27 -260.74 866 -249.8 866 -236.42 C 866 -223.04 861.497 -211.79 852.49 -202.68 C 843.477 -193.56 832.313 -189 819 -189 L 142 -189 C 128.833 -189 117.71 -193.25 108.63 -201.75 C 99.543 -210.26 95 -221.2 95 -234.58 C 95 -247.96 99.317 -259.21 107.95 -268.32 C 116.583 -277.44 127.6 -282 141 -282 Z M 677.71 -612.82 C 669.82 -606.09 661.08 -602.6 651.65 -602.31 C 642.08 -602.04 633.67 -605.54 626.44 -612.82 C 617.36 -621.79 612.82 -631.73 612.49 -642.66 C 612.32 -653.58 616.02 -662.98 623.92 -670.82 L 710.5 -757.39 C 714.87 -761.88 719.41 -765.11 724.11 -767.06 C 728.65 -769.02 733.7 -770 739.08 -770 C 744.45 -770 749.34 -769.02 754.04 -767.06 C 758.58 -765.11 763.12 -761.88 767.65 -757.39 L 854.23 -670.82 C 861.96 -662.98 866 -653.74 866 -643.08 C 866 -632.44 861.96 -623.19 854.23 -615.34 C 845.83 -606.93 836.75 -602.73 826.83 -602.73 C 817.08 -602.73 808.17 -606.38 800.44 -613.66 L 778.59 -634.67 L 778.59 -542.21 C 778.59 -531.15 774.71 -521.8 767.15 -514.17 C 759.59 -506.54 750.34 -502.7 739.25 -502.7 C 728.15 -502.7 718.74 -506.54 711 -514.17 C 703.44 -521.8 699.57 -531.15 699.57 -542.21 L 699.57 -634.67 Z" style=""/>
</svg>