<?xml version="1.0" encoding="utf-8"?>
<svg xmlns="http://www.w3.org/2000/svg" height="48" viewBox="0 -960 960 960" width="48">
  <path d="M 811.913 -135 C 798.08 -135 786.623 -139.56 777.543 -148.68 C 768.456 -157.793 763.913 -168.96 763.913 -182.18 C 763.913 -195.393 768.456 -206.5 777.543 -215.5 C 786.623 -224.5 798.08 -229 811.913 -229 L 811 -229 L 811 -731 L 811.913 -731 C 798.08 -731 786.623 -735.56 777.543 -744.68 C 768.456 -753.793 763.913 -764.93 763.913 -778.09 C 763.913 -791.243 768.456 -802.517 777.543 -811.91 C 786.623 -821.303 798.08 -826 811.913 -826 L 811 -826 C 837.307 -826 859.717 -816.743 878.23 -798.23 C 896.743 -779.717 906 -757.307 906 -731 L 906 -229 C 906 -202.967 896.743 -180.793 878.23 -162.48 C 859.717 -144.16 837.307 -135 811 -135 L 811.913 -135 Z M 680.907 -55 C 667.694 -55 656.587 -59.543 647.587 -68.63 C 638.587 -77.71 634.087 -88.833 634.087 -102 L 634.087 -135 L 149 -135 C 122.967 -135 100.79 -144.16 82.47 -162.48 C 64.157 -180.793 55 -202.967 55 -229 L 55 -731 C 55 -757.307 64.157 -779.717 82.47 -798.23 C 100.79 -816.743 122.967 -826 149 -826 L 634.087 -826 L 634.087 -858 C 634.087 -871.087 638.647 -882.357 647.767 -891.81 C 656.881 -901.27 668.047 -906 681.267 -906 C 694.481 -906 705.587 -901.27 714.587 -891.81 C 723.587 -882.357 728.087 -871.087 728.087 -858 L 728.087 -102 C 728.087 -88.833 723.527 -77.71 714.407 -68.63 C 705.294 -59.543 694.127 -55 680.907 -55 Z M 811 -731 L 811 -229 L 811 -731 Z"/>
</svg>