<?xml version="1.0" encoding="utf-8"?>
<svg clip-rule="evenodd" fill-rule="evenodd" stroke-linejoin="round" stroke-miterlimit="2" viewBox="0 0 48 48" xmlns="http://www.w3.org/2000/svg">
  <path d="M 25.246 1.464 L 27.737 3.905 L 31.114 3.036 C 32.053 2.795 33.012 3.349 33.272 4.283 L 34.209 7.641 L 37.568 8.579 C 38.502 8.839 39.056 9.798 38.815 10.737 L 37.946 14.114 L 40.387 16.605 C 41.065 17.297 41.065 18.405 40.387 19.097 L 37.946 21.588 L 38.815 24.965 C 39.056 25.904 38.502 26.863 37.568 27.123 L 34.209 28.06 L 33.272 31.419 C 33.012 32.353 32.053 32.907 31.114 32.665 L 27.737 31.797 L 25.246 34.237 C 24.554 34.916 23.446 34.916 22.754 34.237 L 20.263 31.797 L 16.886 32.665 C 15.947 32.907 14.988 32.353 14.728 31.419 L 13.791 28.06 L 10.432 27.123 C 9.498 26.863 8.944 25.904 9.185 24.965 L 10.054 21.588 L 7.614 19.097 C 6.935 18.405 6.935 17.297 7.614 16.605 L 10.054 14.114 L 9.185 10.737 C 8.944 9.798 9.498 8.839 10.432 8.579 L 13.791 7.641 L 14.728 4.283 C 14.988 3.349 15.947 2.795 16.886 3.036 L 20.263 3.905 L 22.754 1.464 C 23.446 0.786 24.554 0.786 25.246 1.464 Z M 28.877 34.948 C 29.339 34.908 29.798 35.064 30.14 35.378 C 30.483 35.693 30.678 36.137 30.678 36.6 L 30.678 43.98 C 30.678 46.531 27.737 47.962 25.73 46.388 L 24 45.092 L 22.27 46.388 C 20.263 47.962 17.322 46.531 17.322 43.98 L 17.322 36.6 C 17.322 36.137 17.517 35.693 17.86 35.378 C 18.201 35.064 18.659 34.908 19.123 34.948 L 19.214 34.955 C 20.016 35.023 20.633 35.693 20.633 36.5 L 20.633 43.473 L 23.234 41.478 C 23.686 41.132 24.314 41.132 24.766 41.478 L 27.367 43.473 L 27.367 36.589 C 27.367 35.734 28.024 35.02 28.877 34.948 Z M 23.985 28.015 C 26.548 28.015 28.757 27.198 30.613 25.562 C 32.391 23.997 33.486 22.075 33.899 19.797 C 33.671 20.039 33.402 20.234 33.095 20.38 C 32.749 20.544 32.37 20.625 31.957 20.625 L 29.657 20.625 C 28.907 20.625 28.265 20.358 27.73 19.821 C 27.196 19.284 26.929 18.64 26.929 17.887 L 26.929 16.517 L 21.47 16.517 L 21.47 13.985 C 21.47 13.212 21.739 12.562 22.275 12.035 C 22.812 11.506 23.457 11.243 24.21 11.243 L 25.579 11.243 L 25.579 10.569 C 25.579 10.132 25.732 9.635 26.04 9.076 C 26.346 8.517 26.704 8.228 27.112 8.207 C 26.621 8.073 26.115 7.958 25.593 7.862 C 25.07 7.765 24.538 7.717 23.996 7.717 C 21.168 7.717 18.767 8.702 16.795 10.67 C 14.822 12.639 13.836 15.037 13.836 17.866 C 13.836 17.947 13.84 18.024 13.851 18.096 C 13.862 18.167 13.866 18.244 13.866 18.326 L 17.055 18.326 C 18.568 18.326 19.856 18.857 20.919 19.92 C 21.981 20.983 22.513 22.265 22.513 23.767 L 22.513 25.132 L 18.435 25.132 L 18.435 26.605 C 19.253 27.033 20.13 27.376 21.067 27.631 C 22.004 27.887 22.976 28.015 23.985 28.015 Z"/>
</svg>