<?xml version="1.0" encoding="utf-8"?>
<svg xmlns="http://www.w3.org/2000/svg" height="48" viewBox="0 -960 960 960" width="48">
  <path d="M 555.489 -31.54 L 161.787 -31.54 C 141.37 -31.54 123.98 -38.721 109.618 -53.084 C 95.25 -67.451 88.066 -84.844 88.066 -105.26 L 88.066 -624.45 C 88.066 -645.08 95.25 -662.66 109.618 -677.18 C 123.98 -691.69 141.37 -698.95 161.787 -698.95 L 210.691 -698.95 L 210.691 -736.45 C 210.691 -757.17 217.875 -774.71 232.242 -789.14 C 246.611 -803.73 264.007 -810.95 284.413 -810.95 L 330.005 -810.95 L 330.005 -854.08 C 330.005 -874.79 337.189 -892.23 351.556 -906.66 C 365.925 -921.32 383.321 -928.46 403.728 -928.46 L 641.358 -928.46 C 651.585 -928.46 661.343 -926.51 670.596 -922.19 C 679.868 -918.04 687.898 -912.55 694.689 -905.8 L 849.189 -751.31 C 855.996 -744.57 861.486 -736.34 865.658 -727.17 C 869.846 -717.9 871.933 -708.16 871.933 -697.97 L 871.933 -334.83 C 871.933 -314.46 864.67 -297.03 850.162 -282.61 C 835.637 -268.34 818.069 -261.13 797.427 -261.13 L 752.619 -261.13 L 752.619 -217.27 C 752.619 -196.89 745.355 -179.47 730.846 -165.04 C 716.323 -150.77 698.754 -143.56 678.113 -143.56 L 629.994 -143.56 L 629.994 -105.26 C 629.994 -84.844 622.734 -67.451 608.215 -53.084 C 593.696 -38.721 576.12 -31.54 555.489 -31.54 Z M 522.044 -810.95 C 532.27 -810.95 542.028 -808.9 551.282 -804.67 C 560.552 -800.43 568.584 -794.94 575.374 -788.2 L 729.875 -633.73 C 736.682 -626.98 742.172 -618.8 746.345 -609.57 C 750.533 -600.32 752.619 -590.58 752.619 -580.4 L 752.619 -334.83 L 797.427 -334.83 L 797.427 -696.54 L 639.461 -854.08 L 403.728 -854.08 L 403.728 -810.95 L 522.044 -810.95 Z M 399.42 -698.95 C 409.646 -698.95 419.392 -696.86 428.657 -692.67 C 437.922 -688.5 445.953 -683.01 452.749 -676.2 L 607.25 -521.71 C 614.048 -514.91 619.538 -506.88 623.72 -497.61 C 627.902 -488.35 629.994 -478.61 629.994 -468.38 L 629.994 -217.27 L 678.113 -217.27 L 678.113 -578.98 L 520.147 -736.45 L 284.413 -736.45 L 284.413 -698.95 L 399.42 -698.95 Z M 555.489 -105.26 L 555.489 -466.95 L 397.522 -624.45 L 161.787 -624.45 L 161.787 -105.26 L 555.489 -105.26 Z" style=""/>
</svg>