<?xml version="1.0" encoding="utf-8"?>
<svg xmlns="http://www.w3.org/2000/svg" height="48" viewBox="0 -960 960 960" width="48">
  <path d="M 449 -54.5 C 390.333 -54.5 335.167 -65.5 283.5 -87.5 C 231.833 -109.5 186.667 -139.83 148 -178.5 C 109.333 -217.17 79 -262.33 57 -314 C 35 -365.67 24 -420.83 24 -479.5 C 24 -538.17 35 -593.33 57 -645 C 79 -696.67 109.333 -741.83 148 -780.5 C 186.667 -819.17 231.833 -849.67 283.5 -872 C 335.167 -894.33 390.333 -905.5 449 -905.5 C 485.06 -905.5 519.907 -900.67 553.54 -891 C 587.18 -881.33 619.333 -867.17 650 -848.5 C 661.333 -843.83 668.5 -835.17 671.5 -822.5 C 674.5 -809.83 672.333 -798.5 665 -788.5 C 657.667 -777.83 647.5 -771 634.5 -768 C 621.5 -765 609 -765.83 597 -770.5 C 575 -783.83 551.333 -793.83 526 -800.5 C 500.667 -807.17 475 -810.5 449 -810.5 C 356.753 -810.5 278.523 -778.4 214.31 -714.19 C 150.103 -649.98 118 -571.75 118 -479.5 C 118 -387.25 150.137 -309.02 214.41 -244.81 C 278.69 -180.6 357.003 -148.5 449.35 -148.5 C 461.783 -148.5 473.833 -149.33 485.5 -151 C 497.167 -152.67 508.667 -154.83 520 -157.5 C 534 -159.5 547.167 -157.67 559.5 -152 C 571.833 -146.33 580.333 -137.17 585 -124.5 C 589.667 -111.83 589 -99.67 583 -88 C 577 -76.333 568 -69.167 556 -66.5 C 538 -62.5 520.167 -59.5 502.5 -57.5 C 484.833 -55.5 467 -54.5 449 -54.5 Z M 388 -414.5 L 776 -803.5 C 785.04 -812.17 795.967 -816.5 808.78 -816.5 C 821.593 -816.5 832.667 -812 842 -803 C 851.333 -793.33 856 -782.17 856 -769.5 C 856 -756.83 851.333 -745.83 842 -736.5 L 422 -316.5 C 412 -307.17 400.5 -302.5 387.5 -302.5 C 374.5 -302.5 363.333 -307.17 354 -316.5 L 243 -428.5 C 234.333 -437.17 230.167 -447.83 230.5 -460.5 C 230.833 -473.17 235.28 -484.17 243.84 -493.5 C 253.067 -502.17 264.233 -506.5 277.34 -506.5 C 290.447 -506.5 301.333 -502.17 310 -493.5 Z M 695.459 -264.5 L 856 -429.31 C 865.04 -437.98 875.967 -442.31 888.78 -442.31 C 901.593 -442.31 912.667 -437.81 922 -428.81 C 931.333 -419.14 936 -407.98 936 -395.31 C 936 -382.64 931.333 -371.64 922 -362.31 L 729.459 -166.5 C 719.459 -157.17 707.959 -152.5 694.959 -152.5 C 681.959 -152.5 670.792 -157.17 661.459 -166.5 L 550.459 -278.5 C 541.792 -287.17 537.626 -297.83 537.959 -310.5 C 538.292 -323.17 542.739 -334.17 551.299 -343.5 C 560.526 -352.17 571.692 -356.5 584.799 -356.5 C 597.906 -356.5 608.792 -352.17 617.459 -343.5 Z"/>
</svg>