<?xml version="1.0" encoding="utf-8"?>
<svg xmlns="http://www.w3.org/2000/svg" height="48" viewBox="0 -960 960 960" width="48">
  <path d="M 866 -135 L 95 -135 L 95 -611 C 95 -637.8 104.13 -660.34 122.39 -678.61 C 124.614 -680.83 126.901 -682.92 129.251 -684.87 C 130.073 -685.55 130.904 -686.22 131.741 -686.87 C 148.179 -699.62 167.598 -706 190 -706 L 272 -706 L 409 -814 C 429.667 -831.33 453.5 -838.22 480.5 -834.68 C 480.958 -834.62 481.414 -834.56 481.868 -834.49 C 504.408 -831.28 522.822 -821.42 537.11 -804.91 C 539.525 -802.13 541.821 -799.16 544 -796 C 544 -796 739.186 -619.7 813.258 -556.5 C 817.033 -553.28 820.495 -550.35 823.599 -547.75 C 832.471 -540.34 838.431 -535.63 840.5 -534.54 C 857.5 -525.53 866 -511.37 866 -492.05 L 866 -135 Z M 467 -740.98 L 306 -611 L 190 -611 L 190 -260 L 478 -486 L 772 -371 L 772 -464.08 L 467 -740.98 Z" style="stroke-width: 1;"/>
</svg>