<?xml version="1.0" encoding="utf-8"?>
<svg xmlns="http://www.w3.org/2000/svg" height="48" viewBox="0 -960 960 960" width="48">
  <path d="M 327 -94.5 C 262.433 -94.5 207.46 -117.18 162.08 -162.55 C 116.693 -207.92 94 -262.87 94 -327.41 C 94 -355.44 98.52 -382.18 107.56 -407.62 C 116.6 -433.05 129.747 -456.35 147 -477.5 L 297 -655.5 L 227 -797.5 C 219 -812.83 219.75 -828 229.25 -843 C 238.75 -858 252 -865.5 269 -865.5 L 690 -865.5 C 707 -865.5 720.25 -858 729.75 -843 C 739.25 -828 740 -812.83 732 -797.5 L 662 -655.5 L 810 -477.5 C 828 -456.17 841.667 -432.81 851 -407.42 C 860.333 -382.03 865.333 -355.41 866 -327.55 C 866 -262.85 843.193 -207.83 797.58 -162.5 C 751.973 -117.17 696.78 -94.5 632 -94.5 L 327 -94.5 Z M 382 -695.5 L 577 -695.5 L 615 -771.5 L 344 -771.5 L 382 -695.5 Z M 327 -187.5 L 631 -187.5 C 669.647 -187.5 702.643 -201.27 729.99 -228.81 C 757.33 -256.35 771 -289.32 771 -327.71 C 771 -344.19 768.333 -359.94 763 -374.96 C 757.667 -389.99 749.667 -403.83 739 -416.5 L 585 -601.5 L 373 -601.5 L 220.09 -416.5 C 209.363 -403.83 201.167 -389.93 195.5 -374.8 C 189.833 -359.67 187 -343.9 187 -327.5 C 187 -289.31 200.783 -256.42 228.35 -228.85 C 255.923 -201.28 288.807 -187.5 327 -187.5 Z M 526.856 -491.74 C 528.471 -493.44 530.141 -494.85 531.897 -495.99 C 539.827 -502.22 549.032 -505.33 559.68 -505.62 C 560.077 -505.62 560.473 -505.62 560.87 -505.62 C 561.606 -505.62 562.343 -505.62 563.079 -505.62 C 574.974 -505.05 585.283 -500.8 594.119 -492.59 C 594.487 -492.02 594.827 -491.74 595.195 -491.46 C 604.683 -481.83 609.497 -470.5 609.639 -456.9 C 609.809 -443.31 605.221 -431.98 595.96 -422.63 L 547.899 -374.49 L 594.94 -327.48 C 604.513 -317.85 609.582 -306.52 610.12 -293.21 C 610.687 -279.89 606.014 -268.57 596.13 -258.66 C 596.101 -258.66 596.101 -258.37 596.073 -258.37 C 586.472 -249.03 574.776 -244.21 560.955 -243.93 C 547.927 -243.93 536.797 -248.18 527.564 -256.67 C 526.998 -257.24 526.431 -257.8 525.865 -258.37 L 478.795 -305.38 L 431.725 -258.37 C 422.464 -249.03 411.051 -244.49 397.542 -244.49 C 384.061 -244.78 372.562 -249.59 362.962 -258.94 C 362.848 -259.22 362.763 -259.22 362.65 -259.5 C 353.446 -268.57 348.773 -279.89 348.659 -293.49 C 348.574 -305.1 352.086 -314.73 358.912 -323.23 C 360.044 -324.64 361.291 -326.06 362.65 -327.48 L 409.72 -374.49 L 362.452 -421.78 C 353.049 -431.13 348.178 -442.74 347.838 -456.34 C 347.696 -469.93 352.369 -481.83 362.254 -491.74 C 372.166 -501.65 383.976 -506.18 397.202 -505.9 C 410.626 -505.33 422.04 -500.23 431.414 -490.89 C 431.527 -490.89 431.64 -490.89 431.725 -490.61 L 478.795 -443.59 L 526.856 -491.74 Z"/>
</svg>