<?xml version="1.0" encoding="utf-8"?>
<svg clip-rule="evenodd" fill-rule="evenodd" stroke-linejoin="round" stroke-miterlimit="2" viewBox="0 0 48 48" xmlns="http://www.w3.org/2000/svg">
  <path d="M 25.246 1.464 L 27.737 3.905 L 31.114 3.036 C 32.053 2.795 33.012 3.349 33.272 4.283 L 34.209 7.641 L 37.568 8.579 C 38.502 8.839 39.056 9.798 38.815 10.737 L 37.946 14.114 L 40.387 16.605 C 41.065 17.297 41.065 18.405 40.387 19.097 L 37.946 21.588 L 38.815 24.965 C 39.056 25.904 38.502 26.863 37.568 27.123 L 34.209 28.06 L 33.272 31.419 C 33.012 32.353 32.053 32.907 31.114 32.665 L 27.737 31.797 L 25.246 34.237 C 24.554 34.916 23.446 34.916 22.754 34.237 L 20.263 31.797 L 16.886 32.665 C 15.947 32.907 14.988 32.353 14.728 31.419 L 13.791 28.06 L 10.432 27.123 C 9.498 26.863 8.944 25.904 9.185 24.965 L 10.054 21.588 L 7.614 19.097 C 6.935 18.405 6.935 17.297 7.614 16.605 L 10.054 14.114 L 9.185 10.737 C 8.944 9.798 9.498 8.839 10.432 8.579 L 13.791 7.641 L 14.728 4.283 C 14.988 3.349 15.947 2.795 16.886 3.036 L 20.263 3.905 L 22.754 1.464 C 23.446 0.786 24.554 0.786 25.246 1.464 Z M 24 5.228 L 22.038 7.151 C 21.593 7.588 20.952 7.759 20.349 7.603 L 17.689 6.919 L 16.951 9.564 C 16.783 10.166 16.315 10.634 15.714 10.802 L 13.068 11.539 L 13.752 14.2 C 13.908 14.803 13.737 15.444 13.3 15.889 L 11.377 17.851 L 13.3 19.813 C 13.737 20.258 13.908 20.899 13.752 21.502 L 13.068 24.162 L 15.714 24.9 C 16.315 25.068 16.783 25.536 16.951 26.137 L 17.689 28.783 L 20.349 28.099 C 20.952 27.943 21.593 28.114 22.038 28.551 L 24 30.474 L 25.962 28.551 C 26.407 28.114 27.048 27.943 27.651 28.099 L 30.311 28.783 L 31.049 26.137 C 31.217 25.536 31.685 25.068 32.286 24.9 L 34.932 24.162 L 34.248 21.502 C 34.092 20.899 34.263 20.258 34.7 19.813 L 36.623 17.851 L 34.7 15.889 C 34.263 15.444 34.092 14.803 34.248 14.2 L 34.932 11.539 L 32.286 10.802 C 31.685 10.634 31.217 10.166 31.049 9.564 L 30.311 6.919 L 27.651 7.603 C 27.048 7.759 26.407 7.588 25.962 7.151 L 24 5.228 Z M 28.877 34.948 C 29.339 34.908 29.798 35.064 30.14 35.378 C 30.483 35.693 30.678 36.137 30.678 36.6 L 30.678 43.98 C 30.678 46.531 27.737 47.962 25.73 46.388 L 24 45.092 L 22.27 46.388 C 20.263 47.962 17.322 46.531 17.322 43.98 L 17.322 36.6 C 17.322 36.137 17.517 35.693 17.86 35.378 C 18.201 35.064 18.659 34.908 19.123 34.948 L 19.214 34.955 C 20.016 35.023 20.633 35.693 20.633 36.5 L 20.633 43.473 L 23.234 41.478 C 23.686 41.132 24.314 41.132 24.766 41.478 L 27.367 43.473 L 27.367 36.589 C 27.367 35.734 28.024 35.02 28.877 34.948 Z M 21.859 18.514 C 22.675 17.816 23.318 17.117 23.814 16.39 C 24.432 15.505 24.695 14.73 24.695 13.924 C 24.695 13.436 24.637 13.117 24.459 12.838 C 24.334 12.571 24.28 12.561 24.084 12.561 C 23.516 12.561 23.096 12.92 22.599 13.963 C 22.064 15.024 21.817 16.224 21.817 17.675 C 21.817 17.968 21.83 18.241 21.859 18.514 Z M 23.439 24.587 C 22.811 24.587 22.174 24.404 21.661 24.104 C 21.17 23.796 20.928 23.558 20.611 23.193 C 20.471 23.276 20.458 23.287 20.204 23.422 C 19.959 23.553 19.743 23.665 19.482 23.801 C 19.151 23.989 18.71 24.067 18.349 24.004 C 17.996 23.899 17.638 23.625 17.435 23.306 C 17.269 22.973 17.208 22.533 17.277 22.176 C 17.385 21.819 17.694 21.437 18.014 21.218 C 18.275 21.092 18.525 20.956 18.777 20.807 C 19.036 20.656 19.061 20.639 19.198 20.553 C 19.094 20.184 19.03 19.932 18.952 19.408 C 18.873 18.885 18.832 18.326 18.832 17.765 C 18.832 15.545 19.323 13.593 20.246 12.042 C 21.219 10.478 22.567 9.575 24.077 9.575 C 25.129 9.575 26.078 10.051 26.731 10.837 C 27.335 11.634 27.681 12.708 27.681 13.908 C 27.681 15.249 27.204 16.653 26.331 17.985 C 25.458 19.292 24.452 20.321 23.105 21.406 C 23.142 21.432 23.049 21.383 23.221 21.48 C 23.369 21.583 23.474 21.601 23.667 21.601 C 24.04 21.601 24.339 21.505 24.71 21.228 C 25.102 20.956 25.438 20.558 25.79 19.955 C 25.963 19.688 26.261 19.445 26.549 19.331 C 26.847 19.252 27.25 19.278 27.55 19.388 C 27.844 19.537 28.135 19.814 28.299 20.101 C 28.415 20.343 28.488 20.657 28.499 20.938 C 28.64 20.839 28.8 20.76 28.971 20.704 C 29.272 20.635 29.65 20.651 29.95 20.74 C 30.254 20.872 30.553 21.164 30.694 21.463 C 30.793 21.791 30.76 22.206 30.595 22.505 C 30.192 23.143 29.737 23.675 29.279 24.02 C 28.807 24.374 28.226 24.587 27.707 24.587 C 27.228 24.587 26.731 24.392 26.383 24.107 C 26.059 23.796 26.114 23.805 26.01 23.618 C 25.705 23.858 25.585 23.962 25.085 24.208 C 24.573 24.446 23.987 24.587 23.439 24.587 Z"/>
</svg>