<?xml version="1.0" encoding="utf-8"?>
<svg xmlns="http://www.w3.org/2000/svg" height="48" viewBox="0 -960 960 960" width="48">
  <path d="M 354.38 -695.5 C 319.3 -706.5 283.84 -712 248 -712 C 222.667 -712 197.833 -708.833 173.5 -702.5 C 149.167 -696.167 124.667 -688.333 100 -679 L 100 -250.003 C 119.319 -256.801 142.498 -262.201 169.493 -266.2 C 196.493 -270.2 222.652 -272.21 247.994 -272.21 C 272.982 -272.21 297.007 -270.182 320.069 -266.131 C 330.9 -264.334 341.637 -262.123 352.28 -259.5 C 384.711 -251.507 416.616 -239.681 447.993 -224.022 L 447.993 -651.635 C 419.108 -670.366 387.904 -684.988 354.38 -695.5 Z M 17 -681 C 17 -697.667 20.667 -713.1 28 -727.3 C 35.333 -741.5 46.333 -752.4 61 -760 C 90.333 -773 120.463 -782.25 151.39 -787.75 C 182.323 -793.25 213.86 -796 246 -796 C 295.22 -796 337.527 -789.667 372.92 -777 C 407.984 -764.449 443.676 -746.334 479.996 -722.656 C 516.309 -746.335 551.995 -764.515 587.073 -776.99 C 622.452 -789.8 664.771 -796 713.993 -796 C 746.132 -796 777.673 -793.4 808.592 -787.79 C 839.531 -782.4 869.652 -772.99 898.991 -760 C 913.653 -752.4 924.652 -741.59 931.991 -727.4 C 939.312 -713.2 942.992 -697.81 942.992 -681 L 942.992 -634.141 C 942.997 -633.829 943 -633.517 943 -633.203 L 943 -208 C 943 -183.373 932 -165.717 910 -155.03 C 888 -144.343 866 -145.667 844 -159 C 840.847 -160.182 837.687 -161.343 834.522 -162.482 C 816.023 -168.555 797.553 -174.216 779.111 -179.6 C 757.193 -186.009 734.857 -188.999 712.14 -189 C 712.138 -189 712.135 -189 712.133 -189 C 679.696 -188.999 648.398 -183.999 618.24 -174 C 588.08 -164 559 -150.667 531 -134 C 523.22 -130 515.693 -127 508.42 -125 C 501.14 -123 493 -122 484 -122 C 482.609 -122 481.22 -122.025 479.835 -122.076 C 478.556 -122.026 477.275 -122 475.991 -122 C 466.993 -122 458.851 -123 451.572 -124.99 C 444.292 -127 436.772 -130 428.992 -134 C 400.993 -150.8 371.913 -164 341.752 -173.99 C 311.593 -184 280.296 -189 247.856 -189 C 225.125 -189 202.799 -185.833 180.88 -179.5 C 162.152 -174.089 143.395 -168.313 124.609 -162.172 C 121.731 -161.133 118.858 -160.076 115.992 -159 C 93.993 -145.8 71.993 -144.4 49.992 -155.2 C 27.99 -165.8 17 -183.41 17 -208 L 17 -219 C 17 -219 17 -219 17 -219 Z M 712 -272.06 C 737.333 -272.06 763.5 -270.053 790.5 -266.04 C 817.496 -262.034 840.66 -256.689 859.991 -250.003 L 859.991 -678.99 C 835.311 -688.39 810.812 -696.2 786.491 -702.6 C 762.152 -709 737.311 -712 711.991 -712 C 676.152 -712 640.692 -706.59 605.611 -695.6 C 572.088 -685.078 540.885 -670.383 512 -651.628 L 512 -224.046 C 543.371 -239.798 575.275 -251.543 607.712 -259.6 C 629.317 -264.969 651.314 -268.541 673.702 -270.419 C 686.206 -271.513 698.972 -272.06 712 -272.06 Z"/>
</svg>