<?xml version="1.0" encoding="utf-8"?>
<svg xmlns="http://www.w3.org/2000/svg" height="48" viewBox="0 -960 960 960" width="48">
  <path d="M 189 -55 C 162.967 -55 140.79 -64.157 122.47 -82.47 C 104.157 -100.79 95 -122.967 95 -149 L 95 -751 C 95 -777.307 104.157 -799.717 122.47 -818.23 C 140.79 -836.743 162.967 -846 189 -846 L 245 -846 L 245 -865 C 245 -876.167 249.13 -885.793 257.39 -893.88 C 265.657 -901.96 275.257 -906 286.19 -906 C 297.41 -906 307.017 -901.96 315.01 -893.88 C 323.003 -885.793 327 -876.167 327 -865 L 327 -846 L 633 -846 L 633 -865 C 633 -876.167 637.13 -885.793 645.39 -893.88 C 653.657 -901.96 663.257 -906 674.19 -906 C 685.417 -906 695.023 -901.96 703.01 -893.88 C 711.003 -885.793 715 -876.167 715 -865 L 715 -846 L 771 -846 C 797.307 -846 819.717 -836.743 838.23 -818.23 C 856.743 -799.717 866 -777.307 866 -751 L 866 -149 C 866 -122.967 856.743 -100.79 838.23 -82.47 C 819.717 -64.157 797.307 -55 771 -55 L 189 -55 Z M 189 -149 L 771 -149 L 771 -570 L 189 -570 L 189 -149 Z M 189 -630 L 771 -630 L 771 -751 L 189 -751 L 189 -630 Z M 455.289 -212.876 C 448.28 -219.446 444.791 -227.926 444.791 -238.006 C 444.791 -247.606 448.248 -255.766 455.194 -262.806 C 462.123 -269.696 470.366 -273.216 479.904 -273.216 C 489.428 -273.216 497.701 -269.696 504.711 -262.806 C 511.705 -255.926 515.21 -247.446 515.21 -237.526 C 515.21 -227.596 511.738 -219.446 504.807 -212.716 C 497.861 -206.156 489.636 -202.796 480.097 -202.796 C 470.558 -202.796 462.284 -206.156 455.289 -212.876 Z M 458.378 -313.696 C 453.049 -319.316 450.393 -326.186 450.393 -334.196 L 450.393 -480.909 C 450.393 -489.539 453.001 -496.429 458.234 -501.719 C 463.452 -506.989 470.398 -509.709 479.056 -509.709 C 487.714 -509.709 494.692 -506.829 500.022 -501.229 C 505.336 -495.629 508.009 -488.739 508.009 -480.749 L 508.009 -334.026 C 508.009 -325.386 505.383 -318.506 500.166 -313.226 C 494.933 -307.936 487.987 -305.216 479.344 -305.216 C 470.686 -305.216 463.692 -308.096 458.378 -313.696 Z"/>
</svg>