<?xml version="1.0" encoding="utf-8"?>
<svg xmlns="http://www.w3.org/2000/svg" height="48" viewBox="0 -960 960 960" width="48">
  <path d="M 149 -135 C 122.967 -135 100.79 -144.16 82.47 -162.48 C 64.157 -180.793 55 -202.967 55 -229 L 55 -731 C 55 -757.307 64.157 -779.717 82.47 -798.23 C 100.79 -816.743 122.967 -826 149 -826 L 811 -826 C 837.307 -826 859.717 -816.743 878.23 -798.23 C 896.743 -779.717 906 -757.307 906 -731 L 906 -229 C 906 -202.967 896.743 -180.793 878.23 -162.48 C 859.717 -144.16 837.307 -135 811 -135 Z M 149 -229 L 811 -229 L 811 -731 L 149 -731 Z M 307.489 -326.69 C 281.902 -326.69 260.113 -335.74 242.128 -353.72 C 224.143 -371.64 215.146 -393.45 215.146 -419.04 C 215.146 -430.14 216.938 -440.76 220.52 -450.82 C 224.103 -460.9 229.311 -470.16 236.151 -478.48 L 295.599 -549.03 L 267.858 -605.31 C 264.686 -611.42 264.987 -617.44 268.753 -623.38 C 272.518 -629.33 277.764 -632.26 284.503 -632.26 L 451.355 -632.26 C 458.092 -632.26 463.348 -629.33 467.112 -623.38 C 470.877 -617.44 471.17 -611.42 468 -605.31 L 440.257 -549.03 L 498.913 -478.48 C 506.047 -470.1 511.46 -460.81 515.163 -450.75 C 518.864 -440.68 520.846 -430.14 521.107 -419.12 C 521.107 -393.45 512.071 -371.64 493.991 -353.64 C 475.918 -335.74 454.042 -326.69 428.368 -326.69 Z M 650.601 -421.59 C 625.74 -421.59 603.253 -428.05 583.165 -441.11 C 563.065 -454.16 547.427 -471.56 536.239 -493.06 C 532.51 -499.9 531.988 -506.37 534.685 -512.71 C 537.371 -519.05 542.032 -523.27 548.669 -525.38 C 554.462 -527.5 560.367 -527.5 566.383 -525.38 C 572.388 -523.27 577.049 -519.54 580.369 -514.21 C 587.404 -500.9 597.149 -490.46 609.581 -482.75 C 622.011 -475.16 635.759 -471.32 650.85 -471.32 C 673.051 -471.32 692.132 -479.14 708.093 -494.81 C 724.042 -510.48 732.023 -529.61 732.023 -551.99 C 732.023 -574.49 724.042 -593.51 708.093 -609.29 C 692.132 -625.08 672.976 -632.92 650.601 -632.92 C 643.044 -632.92 635.66 -631.79 628.462 -629.44 C 621.252 -627.19 614.553 -624.21 608.337 -620.48 L 612.688 -620.48 C 618.481 -619.25 623.142 -616.13 626.672 -611.29 C 630.191 -606.44 631.956 -601.21 631.956 -595.5 C 631.956 -588.54 629.531 -582.7 624.709 -577.85 C 619.885 -573.12 614.005 -570.76 607.095 -570.76 L 544.941 -570.76 C 537.892 -570.76 532.087 -573.12 527.538 -577.97 C 522.976 -582.82 520.701 -588.66 520.701 -595.62 L 520.701 -657.78 C 520.701 -664.74 522.976 -670.58 527.538 -675.43 C 532.087 -680.28 537.905 -682.64 544.991 -682.64 C 551.666 -682.64 557.26 -680.28 561.772 -675.43 C 566.297 -670.7 568.969 -664.99 569.802 -658.4 L 569.802 -654.05 C 581.4 -663.12 594.03 -670.2 607.691 -675.18 C 621.352 -680.15 635.66 -682.64 650.601 -682.64 C 686.961 -682.64 717.802 -669.84 743.136 -644.34 C 768.457 -618.87 781.124 -588.04 781.124 -551.74 C 781.124 -515.57 768.457 -484.74 743.136 -459.51 C 717.802 -434.27 686.961 -421.59 650.601 -421.59 Z"/>
</svg>