<?xml version="1.0" encoding="utf-8"?>
<svg xmlns="http://www.w3.org/2000/svg" height="48" viewBox="0 -960 960 960" width="48">
  <path d="M 296 -480.36 C 296 -480.37 296 -480.37 296 -480.38 C 296 -480.39 296 -480.39 296 -480.4 C 296 -482.92 296.176 -485.38 296.527 -487.77 C 297.986 -497.73 302.478 -506.48 310 -514 L 395 -599 C 402.34 -606.4 411 -608 421 -604 C 429.778 -600.49 434.704 -594.36 435.776 -585.74 C 435.925 -584.54 436 -583.3 436 -582 L 436 -378 C 436 -376.7 435.925 -375.46 435.776 -374.26 C 434.704 -365.64 429.778 -359.51 421 -356 C 411 -352 402.34 -353.6 395 -361 L 310 -446 C 301.937 -454.46 297.362 -464.11 296.262 -475.08 C 296.087 -476.81 296 -478.57 296 -480.36 Z M 122.39 -122.1 C 112.037 -132.35 104.618 -143.95 100.135 -156.92 C 96.712 -166.8 95 -177.49 95 -189 L 95 -771 C 95 -781.06 96.286 -790.52 98.857 -799.38 C 102.184 -810.84 107.661 -821.3 115.287 -830.72 C 117.477 -833.43 119.845 -836.06 122.39 -838.61 C 140.657 -856.87 163.193 -866 190 -866 L 772 -866 C 798.533 -866 820.833 -856.87 838.9 -838.61 C 839.996 -837.5 841.058 -836.38 842.088 -835.24 C 853.22 -822.95 860.468 -808.76 863.826 -792.75 C 865.275 -785.84 866 -778.59 866 -771 L 866 -189 C 866 -176.44 863.986 -164.87 859.96 -154.25 C 855.457 -142.36 848.437 -131.64 838.9 -122.1 C 830.179 -113.38 820.471 -106.76 809.777 -102.25 C 798.319 -97.407 785.727 -95 772 -95 L 190 -95 C 178.504 -95 167.793 -96.656 157.866 -99.98 C 144.648 -104.41 132.823 -111.78 122.39 -122.1 Z M 772 -189 L 772 -771 L 640 -771 L 640 -189 L 772 -189 Z M 545 -771 L 190 -771 L 190 -189 L 545 -189 L 545 -771 Z" style=""/>
</svg>