<?xml version="1.0" encoding="utf-8"?>
<svg xmlns="http://www.w3.org/2000/svg" height="48" viewBox="0 -960 960 960" width="48">
  <path d="M 449 -54.5 C 390.333 -54.5 335.167 -65.5 283.5 -87.5 C 231.833 -109.5 186.667 -139.83 148 -178.5 C 109.333 -217.17 79 -262.33 57 -314 C 35 -365.67 24 -420.83 24 -479.5 C 24 -538.17 35 -593.33 57 -645 C 79 -696.67 109.333 -741.83 148 -780.5 C 186.667 -819.17 231.833 -849.67 283.5 -872 C 335.167 -894.33 390.333 -905.5 449 -905.5 C 485.06 -905.5 519.907 -900.67 553.54 -891 C 587.18 -881.33 619.333 -867.17 650 -848.5 C 661.333 -843.83 668.5 -835.17 671.5 -822.5 C 674.5 -809.83 672.333 -798.5 665 -788.5 C 657.667 -777.83 647.5 -771 634.5 -768 C 621.5 -765 609 -765.83 597 -770.5 C 575 -783.83 551.333 -793.83 526 -800.5 C 500.667 -807.17 475 -810.5 449 -810.5 C 356.753 -810.5 278.523 -778.4 214.31 -714.19 C 150.103 -649.98 118 -571.75 118 -479.5 C 118 -387.25 150.137 -309.02 214.41 -244.81 C 278.69 -180.6 357.003 -148.5 449.35 -148.5 C 461.783 -148.5 473.833 -149.33 485.5 -151 C 497.167 -152.67 508.667 -154.83 520 -157.5 C 534 -159.5 547.167 -157.67 559.5 -152 C 571.833 -146.33 580.333 -137.17 585 -124.5 C 589.667 -111.83 589 -99.67 583 -88 C 577 -76.333 568 -69.167 556 -66.5 C 538 -62.5 520.167 -59.5 502.5 -57.5 C 484.833 -55.5 467 -54.5 449 -54.5 Z M 388 -414.5 L 776 -803.5 C 785.04 -812.17 795.967 -816.5 808.78 -816.5 C 821.593 -816.5 832.667 -812 842 -803 C 851.333 -793.33 856 -782.17 856 -769.5 C 856 -756.83 851.333 -745.83 842 -736.5 L 422 -316.5 C 412 -307.17 400.5 -302.5 387.5 -302.5 C 374.5 -302.5 363.333 -307.17 354 -316.5 L 243 -428.5 C 234.333 -437.17 230.167 -447.83 230.5 -460.5 C 230.833 -473.17 235.28 -484.17 243.84 -493.5 C 253.067 -502.17 264.233 -506.5 277.34 -506.5 C 290.447 -506.5 301.333 -502.17 310 -493.5 Z M 770.244 -153.85 C 758.241 -153.85 748.162 -157.86 739.991 -166.2 C 731.819 -174.55 727.733 -184.55 727.733 -196.72 C 727.733 -208.7 731.874 -218.69 740.153 -226.86 C 748.417 -235.03 758.567 -239.2 770.57 -239.2 C 782.556 -239.2 792.651 -235.03 800.823 -226.67 C 808.995 -218.5 813.08 -208.34 813.08 -196.35 C 813.08 -184.36 808.94 -174.19 800.659 -166.02 C 792.38 -157.86 782.247 -153.85 770.244 -153.85 Z M 770.244 -293.68 C 758.241 -293.68 748.162 -297.67 739.991 -306.03 C 731.819 -314.21 727.733 -324.55 727.733 -337.26 L 727.733 -446.22 C 727.733 -458.02 731.874 -468.19 740.153 -476.36 C 748.417 -484.71 758.567 -488.89 770.57 -488.89 C 782.556 -488.89 792.651 -484.71 800.823 -476.36 C 808.995 -468.19 813.08 -458.02 813.08 -446.22 L 813.08 -337.26 C 813.08 -324.55 808.94 -314.21 800.659 -306.03 C 792.38 -297.67 782.247 -293.68 770.244 -293.68 Z"/>
</svg>