<?xml version="1.0" encoding="utf-8"?>
<svg xmlns="http://www.w3.org/2000/svg" height="48" viewBox="0 -960 960 960" width="48">
  <path d="M 825.5 -148.5 C 825.5 -122.47 816.34 -100.29 798.02 -81.97 C 779.71 -63.657 757.53 -54.5 731.5 -54.5 L 229.5 -54.5 C 203.2 -54.5 180.8 -63.657 162.3 -81.97 C 143.8 -100.29 134.5 -122.47 134.5 -148.5 L 134.5 -325.5 C 134.5 -338.67 139.3 -349.79 148.8 -358.88 C 158.3 -367.96 169.6 -372.5 182.8 -372.5 C 195.9 -372.5 207 -367.96 216 -358.88 C 225 -349.79 229.5 -338.67 229.5 -325.5 L 229.5 -148.5 L 731.5 -148.5 L 731.5 -325.5 C 731.5 -338.67 736.06 -349.79 745.18 -358.88 C 754.29 -367.96 765.46 -372.5 778.68 -372.5 C 791.89 -372.5 803 -367.96 812 -358.88 C 821 -349.79 825.5 -338.67 825.5 -325.5 L 825.5 -148.5 Z M 905.5 -479.32 C 905.5 -466.11 900.96 -455 891.87 -446 C 882.79 -437 871.67 -432.5 858.5 -432.5 L 102.5 -432.5 C 89.4 -432.5 78.1 -437.06 68.7 -446.18 C 59.2 -455.29 54.5 -466.46 54.5 -479.68 C 54.5 -492.89 59.2 -504 68.7 -513 C 78.1 -522 89.4 -526.5 102.5 -526.5 L 134.5 -526.5 L 134.5 -810.5 C 134.5 -836.81 143.8 -859.22 162.27 -877.73 C 180.78 -896.24 203.19 -905.5 229.5 -905.5 L 731.5 -905.5 C 757.53 -905.5 779.71 -896.24 798.02 -877.73 C 816.34 -859.22 825.5 -836.81 825.5 -810.5 L 825.5 -526.5 L 858.5 -526.5 C 871.67 -526.5 882.79 -521.94 891.87 -512.82 C 900.96 -503.71 905.5 -492.54 905.5 -479.32 Z M 731.5 -526.5 L 731.5 -810.5 L 229.5 -810.5 L 229.5 -526.5 L 731.5 -526.5 Z" style=""/>
</svg>