<?xml version="1.0" encoding="utf-8"?>
<svg xmlns="http://www.w3.org/2000/svg" height="48" viewBox="0 -960 960 960" width="48">
  <defs>
    <style type="text/css" id="current-color-scheme">.ColorScheme-Highlight { color:#000000; } .ColorScheme-Text { color:#ffffff; }</style>
  </defs>
  <path d="M 149 -298.082 C 122.967 -298.082 100.79 -307.242 82.47 -325.562 C 64.157 -343.876 55 -366.049 55 -392.082 L 55 -762.082 C 55 -788.389 64.157 -810.799 82.47 -829.312 C 100.79 -847.826 122.967 -857.082 149 -857.082 L 519 -857.082 C 545.307 -857.082 567.717 -847.826 586.23 -829.312 C 604.743 -810.799 614 -788.389 614 -762.082 L 614 -392.082 C 614 -366.049 604.743 -343.876 586.23 -325.562 C 567.717 -307.242 545.307 -298.082 519 -298.082 Z M 142 -385.082 L 527 -385.082 L 527 -770.082 L 142 -770.082 Z M 378 -548.082 C 380 -551.416 382.95 -553.249 386.85 -553.582 C 390.743 -553.916 394.167 -552.362 397.12 -548.922 L 461 -463.082 C 463.667 -459.749 463.667 -455.916 461 -451.582 C 458.333 -447.249 455 -445.082 451 -445.082 L 216 -445.082 C 212 -445.082 208.667 -447.249 206 -451.582 C 203.333 -455.916 203.333 -459.749 206 -463.082 L 247.84 -522.862 C 250.613 -526.342 253.95 -528.082 257.85 -528.082 C 261.743 -528.082 265.127 -526.416 268 -523.082 L 315 -465.082 Z M 701.88 -55 C 666.96 -55 637.75 -66.79 614.25 -90.37 C 590.75 -113.95 579 -143.2 579 -178.12 C 579 -213.04 590.777 -242.417 614.33 -266.25 C 637.89 -290.083 667.113 -302 702 -302 C 708.867 -302 715.417 -301.333 721.65 -300 C 727.883 -298.667 733.667 -296.333 739 -293 L 739 -454 C 739 -467.087 743.543 -478.357 752.63 -487.81 C 761.71 -497.27 772.833 -502 786 -502 L 862 -502 C 874.033 -502 884.377 -497.68 893.03 -489.04 C 901.677 -480.393 906 -470.06 906 -458.04 C 906 -446.013 901.677 -435.833 893.03 -427.5 C 884.377 -419.167 874.033 -415 862 -415 L 826 -415 L 826 -178 C 826 -143.113 814.043 -113.89 790.13 -90.33 C 766.217 -66.777 736.8 -55 701.88 -55 Z M 766.178 -638.92 C 756.723 -641.44 747.765 -645.16 739.307 -650.13 C 730.849 -655.12 723.136 -661.08 716.17 -668.05 L 706.468 -662.08 C 699.503 -659.08 692.413 -658.84 685.195 -661.32 C 677.981 -663.81 672.384 -668.28 668.404 -674.76 L 663.926 -681.49 C 659.946 -687.97 658.577 -695.05 659.817 -702.73 C 661.062 -710.46 664.919 -716.82 671.388 -721.78 L 680.346 -728.49 C 676.861 -737.46 675.122 -746.66 675.122 -756.1 C 675.122 -765.58 676.861 -774.79 680.346 -783.71 L 671.388 -791.19 C 664.919 -795.67 661.062 -801.75 659.817 -809.48 C 658.577 -817.19 659.946 -824.51 663.926 -831.52 L 668.404 -838.21 C 672.384 -844.68 677.981 -849.16 685.195 -851.65 C 692.413 -854.13 699.503 -853.65 706.468 -850.16 L 716.17 -844.92 C 723.636 -851.4 731.469 -857.01 739.683 -861.72 C 747.894 -866.45 756.723 -870.04 766.178 -872.57 L 766.925 -885.97 C 767.918 -893.45 771.278 -899.65 777 -904.66 C 782.721 -909.62 789.07 -912.1 796.032 -912.1 L 804.99 -912.1 C 811.955 -912.1 818.176 -909.74 823.649 -905.01 C 829.122 -900.3 832.356 -894.45 833.351 -887.49 L 834.844 -872.57 C 844.299 -870.04 853.128 -866.45 861.339 -861.72 C 869.552 -857.01 877.386 -851.4 884.847 -844.92 L 893.805 -850.16 C 900.775 -853.12 907.74 -853.53 914.702 -851.28 C 921.671 -849.04 927.392 -844.68 931.874 -838.21 L 936.35 -831.52 C 940.828 -824.51 942.32 -817.19 940.828 -809.48 C 939.335 -801.75 935.602 -795.43 929.633 -790.43 L 920.675 -783.71 C 923.663 -774.79 925.156 -765.58 925.156 -756.1 C 925.156 -746.66 923.663 -737.46 920.675 -728.49 L 929.633 -721.78 C 935.602 -716.82 939.335 -710.34 940.828 -702.37 C 942.32 -694.41 940.828 -687.2 936.35 -680.73 L 932.618 -674.01 C 928.638 -667.52 922.916 -663.32 915.45 -661.32 C 907.988 -659.32 900.775 -659.85 893.805 -662.81 L 884.847 -668.05 C 877.886 -661.08 870.172 -655.12 861.714 -650.13 C 853.252 -645.16 844.299 -641.44 834.844 -638.92 L 833.351 -625.52 C 832.356 -618.03 829.122 -611.96 823.649 -607.23 C 818.176 -602.51 811.955 -600.11 804.99 -600.11 L 796.032 -600.11 C 789.07 -600.11 782.721 -602.51 777 -607.23 C 771.278 -611.96 767.918 -618.03 766.925 -625.52 Z M 800.669 -700.9 C 815.624 -700.9 828.571 -706.26 839.501 -716.97 C 850.436 -727.74 855.897 -740.78 855.897 -756.1 C 855.897 -771.47 850.436 -784.51 839.501 -795.23 C 828.571 -806 815.624 -811.36 800.669 -811.36 C 785.329 -811.36 772.191 -806 761.26 -795.23 C 750.329 -784.51 744.864 -771.47 744.864 -756.1 C 744.864 -740.78 750.329 -727.74 761.26 -716.97 C 772.191 -706.26 785.329 -700.9 800.669 -700.9 Z"/>
</svg>