<?xml version="1.0" encoding="utf-8"?>
<svg xmlns="http://www.w3.org/2000/svg" height="48" viewBox="0 -960 960 960" width="48">
  <path d="M 663.178 -210.15 L 611.56 -261.76 C 602.249 -271.08 597.608 -282.17 597.637 -295.04 C 597.653 -307.9 602.459 -319.13 612.04 -328.71 C 621.622 -338.3 632.803 -343.05 645.593 -342.99 C 658.377 -342.93 669.424 -338.25 678.735 -328.94 L 730.354 -277.32 L 781.972 -328.94 C 791.285 -338.25 802.372 -342.89 815.249 -342.87 C 828.113 -342.85 839.22 -338.16 848.568 -328.81 C 857.911 -319.47 862.554 -308.41 862.498 -295.62 C 862.434 -282.83 857.753 -271.79 848.44 -262.47 L 796.822 -210.85 L 848.44 -159.24 C 857.751 -149.92 862.394 -138.83 862.37 -125.96 C 862.349 -113.1 857.541 -101.87 847.96 -92.286 C 838.378 -82.705 827.199 -77.946 814.414 -78.002 C 801.625 -78.064 790.576 -82.749 781.265 -92.06 L 729.646 -143.68 L 678.735 -92.767 C 668.953 -82.985 657.628 -78.108 644.758 -78.137 C 631.889 -78.155 620.78 -82.839 611.432 -92.187 C 602.089 -101.53 597.448 -112.6 597.509 -125.39 C 597.566 -138.17 602.485 -149.45 612.267 -159.24 L 663.178 -210.15 Z M 189 -135 C 162.967 -135 140.79 -144.16 122.47 -162.48 C 104.157 -180.79 95 -202.97 95 -229 L 95 -751 C 95 -777.31 104.157 -799.72 122.47 -818.23 C 140.79 -836.74 162.967 -846 189 -846 L 245 -846 L 245 -865 C 245 -876.17 249.13 -885.79 257.39 -893.88 C 265.657 -901.96 275.257 -906 286.19 -906 C 297.41 -906 307.017 -901.96 315.01 -893.88 C 323.003 -885.79 327.001 -876.17 327 -865 L 327 -846 L 553 -846 L 553 -865 C 553.001 -876.17 557.13 -885.79 565.39 -893.88 C 573.657 -901.96 583.257 -906 594.19 -906 C 605.417 -906 615.023 -901.96 623.01 -893.88 C 631.003 -885.79 634.999 -876.17 635 -865 L 635 -846 L 691 -846 C 717.307 -846 739.717 -836.74 758.231 -818.23 C 776.743 -799.72 786 -777.31 786 -751 L 786 -508 C 786 -494.17 781.248 -482.71 771.741 -473.63 C 762.226 -464.54 750.893 -460 737.74 -460 C 724.58 -460 713.5 -464.54 704.5 -473.63 C 695.5 -482.71 691 -494.17 691 -508 L 691 -570 L 189 -570 L 189 -229 L 433 -229 C 446.087 -229 457.357 -224.44 466.81 -215.32 C 476.27 -206.21 481 -195.04 481 -181.82 C 481 -168.61 476.27 -157.5 466.81 -148.5 C 457.357 -139.5 446.087 -135 433 -135 L 189 -135 Z M 189 -630 L 691 -630 L 691 -751 L 189 -751 L 189 -630 Z" style=""/>
</svg>