<?xml version="1.0" encoding="utf-8"?>
<svg xmlns="http://www.w3.org/2000/svg" height="48" viewBox="0 -960 960 960" width="48">
  <path d="M 189 -55 C 162.967 -55 140.79 -64.157 122.47 -82.47 C 104.157 -100.79 95 -122.967 95 -149 L 95 -751 C 95 -777.307 104.157 -799.717 122.47 -818.23 C 140.79 -836.743 162.967 -846 189 -846 L 245 -846 L 245 -865 C 245 -876.167 249.13 -885.793 257.39 -893.88 C 265.657 -901.96 275.257 -906 286.19 -906 C 297.41 -906 307.017 -901.96 315.01 -893.88 C 323.003 -885.793 327 -876.167 327 -865 L 327 -846 L 633 -846 L 633 -865 C 633 -876.167 637.13 -885.793 645.39 -893.88 C 653.657 -901.96 663.257 -906 674.19 -906 C 685.417 -906 695.023 -901.96 703.01 -893.88 C 711.003 -885.793 715 -876.167 715 -865 L 715 -846 L 771 -846 C 797.307 -846 819.717 -836.743 838.23 -818.23 C 856.743 -799.717 866 -777.307 866 -751 L 866 -149 C 866 -122.967 856.743 -100.79 838.23 -82.47 C 819.717 -64.157 797.307 -55 771 -55 Z M 189 -149 L 771 -149 L 771 -570 L 189 -570 Z M 189 -630 L 771 -630 L 771 -751 L 189 -751 Z M 514.603 -408.727 L 540.887 -442.932 C 544.385 -447.169 550.017 -451.733 554.517 -454.227 C 559.377 -456.346 566.097 -458.05 571.179 -458.05 C 576.261 -458.05 583.23 -456.227 588.095 -454.111 C 592.619 -451.615 597.929 -447.278 601.436 -443.03 L 627.876 -408.738 L 668.057 -395.169 C 675.174 -392.262 682.998 -386.172 687.442 -380.127 C 690.962 -374.055 693.849 -365.365 693.849 -358.44 C 693.849 -355.155 693.107 -350.764 692.23 -347.468 C 691.128 -343.998 688.936 -339.393 686.968 -336.303 L 661.595 -299.83 L 662.481 -261.36 C 661.818 -251.81 656.98 -240.64 650.458 -233.587 C 643.251 -227.515 632.29 -222.53 623.029 -222.53 C 621.916 -222.53 619.435 -222.851 616.425 -223.171 L 615.125 -223.309 L 571.201 -235.468 L 527.35 -223.368 C 525.932 -223.105 524.068 -222.802 523.786 -222.711 C 522.65 -222.542 520.566 -222.28 518.736 -222.28 C 509.388 -222.28 498.33 -227.472 491.211 -233.703 C 484.829 -241.047 480.355 -252.22 480.171 -262.033 L 481.052 -299.868 L 455.786 -336.1 C 453.489 -339.377 451.069 -344.367 449.904 -348.251 C 449.152 -351.447 448.548 -355.547 448.548 -358.69 C 448.548 -365.741 451.441 -374.495 454.985 -380.58 C 459.645 -386.751 467.243 -392.588 474.721 -395.214 Z M 548.274 -361.235 L 514.33 -349.717 L 537.669 -316.715 L 536.665 -283.916 L 571.188 -293.594 L 605.984 -283.888 L 604.979 -316.73 L 628.152 -349.379 L 594.012 -361.321 L 571.352 -391.008 Z"/>
</svg>