<?xml version="1.0" encoding="utf-8"?>
<svg xmlns="http://www.w3.org/2000/svg" height="48" viewBox="0 -960 960 960" width="48">
  <path d="M 141 -189 C 127.6 -189 116.583 -193.56 107.95 -202.68 C 99.317 -211.793 95 -223.01 95 -236.33 C 95 -249.657 99.317 -260.767 107.95 -269.66 C 116.583 -278.553 127.6 -283 141 -283 L 326 -283 C 339.32 -283 350.483 -278.44 359.49 -269.32 C 368.497 -260.207 373 -248.793 373 -235.08 C 373 -221.367 368.497 -210.257 359.49 -201.75 C 350.483 -193.25 339.32 -189 326 -189 Z M 699.57 -324.33 L 699.57 -416.79 C 699.57 -427.85 703.44 -437.2 711 -444.83 C 718.74 -452.46 728.15 -456.3 739.25 -456.3 C 750.34 -456.3 759.59 -452.46 767.15 -444.83 C 774.71 -437.2 778.59 -427.85 778.59 -416.79 L 778.59 -324.33 L 800.44 -345.34 C 808.17 -352.62 817.08 -356.27 826.83 -356.27 C 836.75 -356.27 845.83 -352.07 854.23 -343.66 C 861.96 -335.81 866 -326.56 866 -315.92 C 866 -305.26 861.96 -296.02 854.23 -288.18 L 767.65 -201.61 C 763.12 -197.12 758.58 -193.89 754.04 -191.94 C 749.34 -189.98 744.45 -189 739.08 -189 C 733.7 -189 728.65 -189.98 724.11 -191.94 C 719.41 -193.89 714.87 -197.12 710.5 -201.61 L 623.92 -288.18 C 616.02 -296.02 612.32 -305.42 612.49 -316.34 C 612.82 -327.27 617.36 -337.21 626.44 -346.18 C 633.67 -353.46 642.08 -356.96 651.65 -356.69 C 661.08 -356.4 669.82 -352.91 677.71 -346.18 Z M 141 -677 C 127.6 -677 116.583 -681.56 107.95 -690.68 C 99.317 -699.793 95 -711.04 95 -724.42 C 95 -737.8 99.543 -748.743 108.63 -757.25 C 117.71 -765.75 128.833 -770 142 -770 L 819 -770 C 832.313 -770 843.477 -765.44 852.49 -756.32 C 861.497 -747.207 866 -735.96 866 -722.58 C 866 -709.2 861.27 -698.257 851.81 -689.75 C 842.357 -681.25 831.087 -677 818 -677 Z M 141 -433 C 127.6 -433 116.583 -437.56 107.95 -446.68 C 99.317 -455.793 95 -467.01 95 -480.33 C 95 -493.657 99.317 -504.767 107.95 -513.66 C 116.583 -522.553 127.6 -527 141 -527 L 556.616 -527 C 569.93 -527 581.093 -522.247 590.106 -512.74 C 599.113 -503.227 603.616 -491.81 603.616 -478.49 C 603.616 -465.17 599.113 -454.257 590.106 -445.75 C 581.093 -437.25 569.93 -433 556.616 -433 Z"/>
</svg>