<?xml version="1.0" encoding="utf-8"?>
<svg xmlns="http://www.w3.org/2000/svg" height="48" viewBox="0 -960 960 960" width="48">
  <path d="M 188.5 -238.5 L 188.5 -494.5 C 188.5 -505.67 192.56 -515.29 200.68 -523.38 C 208.793 -531.46 218.793 -535.5 230.68 -535.5 C 242.56 -535.5 252.333 -531.46 260 -523.38 C 267.667 -515.29 271.5 -505.67 271.5 -494.5 L 271.5 -237.5 C 271.5 -225.67 267.607 -215.88 259.82 -208.13 C 252.04 -200.38 242.207 -196.5 230.32 -196.5 C 218.44 -196.5 208.5 -200.54 200.5 -208.63 C 192.5 -216.71 188.5 -226.67 188.5 -238.5 Z M 442.5 -237.5 L 442.5 -494.5 C 442.5 -505.67 446.56 -515.29 454.68 -523.38 C 462.793 -531.46 472.46 -535.5 483.68 -535.5 C 494.893 -535.5 504.5 -531.46 512.5 -523.38 C 520.5 -515.29 524.5 -505.67 524.5 -494.5 L 524.5 -237.5 C 524.5 -226.33 520.44 -216.71 512.32 -208.63 C 504.207 -200.54 494.54 -196.5 483.32 -196.5 C 472.107 -196.5 462.5 -200.54 454.5 -208.63 C 446.5 -216.71 442.5 -226.33 442.5 -237.5 Z M 101.5 -65.5 C 88.333 -65.5 77.21 -70.06 68.13 -79.18 C 59.043 -88.293 54.5 -99.46 54.5 -112.68 C 54.5 -125.89 59.043 -137 68.13 -146 C 77.21 -155 88.333 -159.5 101.5 -159.5 L 530.047 -159.5 C 543.213 -159.5 554.507 -154.94 563.927 -145.82 C 573.34 -136.71 578.047 -125.54 578.047 -112.32 C 578.047 -99.11 573.34 -88 563.927 -79 C 554.507 -70 543.213 -65.5 530.047 -65.5 Z M 687.5 -446.184 L 687.5 -494.5 C 687.5 -505.67 691.56 -515.29 699.68 -523.38 C 707.793 -531.46 717.793 -535.5 729.68 -535.5 C 741.56 -535.5 751.333 -531.46 759 -523.38 C 766.667 -515.29 770.5 -505.67 770.5 -494.5 L 770.5 -445.184 C 770.5 -433.344 766.607 -423.554 758.82 -415.814 C 751.04 -408.054 741.207 -404.184 729.32 -404.184 C 717.44 -404.184 707.5 -408.224 699.5 -416.314 C 691.5 -424.394 687.5 -434.344 687.5 -446.184 Z M 858.5 -572.5 L 95.5 -572.5 C 83.78 -572.5 74.017 -576.57 66.21 -584.71 C 58.403 -592.85 54.5 -602.45 54.5 -613.5 L 54.5 -642.5 C 54.5 -649.83 56.333 -656.83 60 -663.5 C 63.667 -670.17 68.833 -675.5 75.5 -679.5 L 434.5 -883.5 C 447.947 -890.83 462.947 -894.5 479.5 -894.5 C 496.053 -894.5 511.053 -890.83 524.5 -883.5 L 880.5 -681.5 C 887.833 -676.83 893.833 -670.83 898.5 -663.5 C 903.167 -656.17 905.5 -648 905.5 -639 L 905.5 -620.77 C 905.5 -607.04 901.01 -595.57 892.03 -586.34 C 883.043 -577.11 871.867 -572.5 858.5 -572.5 Z M 252.5 -667.5 L 706.5 -667.5 L 479.5 -799.5 Z M 730.326 -178.35 C 746.036 -178.35 759.277 -184.06 770.065 -195.64 C 780.853 -207.24 785.985 -219.73 785.489 -233.27 C 784.991 -248.61 779.485 -261.56 768.997 -272.23 C 758.494 -282.92 745.629 -288.19 730.417 -288.19 C 714.965 -288.19 702.1 -282.92 691.822 -272.54 C 681.546 -262.01 676.399 -249.07 676.399 -233.56 C 676.399 -218.07 681.455 -204.97 691.582 -194.3 C 701.693 -183.61 714.603 -178.35 730.326 -178.35 Z M 730.568 -107.62 C 696.021 -107.62 666.454 -119.97 641.838 -144.49 C 617.236 -169.17 604.928 -198.81 604.928 -233.27 C 604.928 -268.32 617.236 -298.12 641.838 -322.35 C 666.454 -346.72 696.021 -358.9 730.568 -358.9 C 765.672 -358.9 795.524 -346.72 820.095 -322.35 C 844.667 -298.12 856.96 -268.32 856.96 -233.27 C 856.96 -222.58 855.711 -212.5 853.198 -203.02 C 850.685 -193.54 846.923 -184.66 841.913 -176.08 L 895.329 -122.67 C 901.844 -116.2 905.229 -108.38 905.486 -99.35 C 905.742 -90.317 902.475 -82.352 895.705 -75.28 C 889.43 -68.809 881.786 -65.5 872.759 -65.5 C 863.731 -65.5 855.711 -68.809 848.685 -75.28 L 796.021 -126.44 C 786.527 -120.42 776.385 -115.75 765.582 -112.44 C 754.778 -109.28 743.102 -107.62 730.568 -107.62 Z"/>
</svg>