<?xml version="1.0" encoding="utf-8"?>
<svg xmlns="http://www.w3.org/2000/svg" height="48" viewBox="0 -960 960 960" width="48">
  <path d="M 183 -373 L 153 -296.14 C 150.333 -288.967 146.21 -283.483 140.63 -279.69 C 135.043 -275.897 128.5 -274 121 -274 C 108.333 -274 98.5 -279.167 91.5 -289.5 C 84.5 -299.833 83.667 -310.667 89 -322 L 228 -664 C 230 -670.667 233.923 -676 239.77 -680 C 245.623 -684 252.213 -686 259.54 -686 L 287.46 -686 C 294.787 -686 301.377 -684 307.23 -680 C 313.077 -676 317.333 -670.667 320 -664 L 456 -325 C 461.333 -312.333 460.333 -300.667 453 -290 C 445.667 -279.333 435.387 -274 422.16 -274 C 413.96 -274 406.657 -276.133 400.25 -280.4 C 393.843 -284.673 389.427 -290.54 387 -298 L 358.44 -373 L 183 -373 Z M 207 -437 L 335 -437 L 273.33 -597 L 269 -597 L 207 -437 Z M 626 -338 L 816 -338 C 824.667 -338 832.167 -334.833 838.5 -328.5 C 844.833 -322.167 848 -314.667 848 -306 C 848 -297.333 844.833 -289.833 838.5 -283.5 C 832.167 -277.167 824.667 -274 816 -274 L 566 -274 C 559.387 -274 554.067 -276.083 550.04 -280.25 C 546.013 -284.417 544 -289.333 544 -295 L 544 -327 C 544 -332.7 545 -338.123 547 -343.27 C 549 -348.423 551.333 -353 554 -357 L 768 -622 L 594 -622 C 585.333 -622 577.833 -625.167 571.5 -631.5 C 565.167 -637.833 562 -645.333 562 -654 C 562 -662.667 565.167 -670.167 571.5 -676.5 C 577.833 -682.833 585.333 -686 594 -686 L 825.04 -686 C 831.233 -686 836.277 -683.973 840.17 -679.92 C 844.057 -675.867 846 -670.85 846 -664.87 L 846 -631 C 846 -625.3 845.167 -620.04 843.5 -615.22 C 841.833 -610.407 839.333 -606 836 -602 L 626 -338 Z M 463 -90 L 391.04 -161.96 C 387.013 -165.987 385.987 -170.333 387.96 -175 C 389.933 -179.667 393.613 -182 399 -182 L 561 -182 C 566.387 -182 570.067 -179.667 572.04 -175 C 574.013 -170.333 572.983 -165.983 568.95 -161.95 L 496.86 -89.86 C 492.167 -85.287 486.457 -83 479.73 -83 C 473.003 -83 467.427 -85.333 463 -90 Z"/>
</svg>