<?xml version="1.0" encoding="utf-8"?>
<svg xmlns="http://www.w3.org/2000/svg" height="48" viewBox="0 -960 960 960" width="48">
  <path d="M 289.594 -513.239 C 283.032 -506.675 275.098 -503.355 265.806 -503.424 C 265.414 -503.423 265.02 -503.428 264.623 -503.44 C 254.968 -503.59 246.971 -507.05 240.659 -513.82 C 234.146 -520.6 230.774 -528.52 230.53 -537.6 C 230.285 -546.82 233.527 -554.75 240.255 -561.37 L 373.204 -693.092 L 373.204 -692.748 L 396.944 -716.269 C 403.674 -723.189 411.124 -728.229 419.278 -731.549 C 427.449 -734.859 435.85 -736.579 444.495 -736.579 C 453.141 -736.579 461.614 -734.859 469.914 -731.549 C 478.213 -728.229 485.591 -723.189 492.046 -716.269 L 498.212 -710.766 C 505.014 -704.066 508.291 -696.066 508.043 -686.736 C 507.797 -677.566 504.388 -669.536 497.803 -662.706 C 491.422 -655.856 483.337 -652.346 473.576 -652.206 C 463.817 -651.926 455.513 -655.266 448.681 -662.096 L 443.436 -666.226 Z M 382.406 -223.53 C 373.156 -223.53 365.446 -226.69 359.308 -233.18 C 353.183 -239.38 350.114 -247.3 350.114 -256.82 L 350.114 -464.969 C 350.114 -474.189 353.256 -481.839 359.523 -488.029 C 365.792 -494.229 373.602 -497.389 382.939 -497.389 C 392.276 -497.389 400.072 -494.229 406.312 -488.029 C 412.551 -481.839 415.677 -474.189 415.677 -464.969 L 415.677 -256.82 C 415.677 -247.3 412.493 -239.38 406.139 -233.18 C 399.784 -226.69 391.874 -223.53 382.406 -223.53 Z M 263.528 -223.53 C 254.004 -223.53 246.122 -226.69 239.882 -233.04 C 233.643 -239.38 230.517 -247.16 230.517 -256.68 L 230.517 -370.449 C 230.517 -379.519 233.687 -387.299 240.012 -393.789 C 246.338 -400.419 254.147 -403.729 263.427 -403.729 C 272.707 -403.729 280.474 -400.419 286.713 -393.789 C 292.952 -387.299 296.08 -379.379 296.08 -370.299 L 296.08 -256.38 C 296.08 -247.16 292.894 -239.38 286.54 -233.04 C 280.186 -226.69 272.505 -223.53 263.528 -223.53 Z M 189 -95 C 162.467 -95 140.167 -104.033 122.1 -122.1 C 104.033 -140.167 95 -162.467 95 -189 L 95 -771 C 95 -797.807 104.033 -820.343 122.1 -838.61 C 140.167 -856.87 162.467 -866 189 -866 L 771 -866 C 797.807 -866 820.343 -856.87 838.61 -838.61 C 856.87 -820.343 866 -797.807 866 -771 L 866 -638.617 C 873.06 -635.058 879.647 -630.249 885.76 -624.191 C 900.587 -609.504 908 -592.181 908 -572.221 L 908 -386.628 C 908 -366.621 900.587 -349.495 885.76 -335.248 C 879.647 -329.371 873.06 -324.707 866 -321.254 L 866 -189 C 866 -162.467 856.87 -140.167 838.61 -122.1 C 820.343 -104.033 797.807 -95 771 -95 Z M 771 -771 L 189 -771 L 189 -189 L 771 -189 L 771 -313.878 L 540 -313.878 C 519.1 -313.878 501.21 -320.885 486.33 -334.898 C 471.443 -348.905 464 -366.315 464 -387.128 L 464 -572.221 C 464 -592.181 471.443 -609.504 486.33 -624.191 C 501.21 -638.878 519.1 -646.221 540 -646.221 L 771 -646.221 Z M 848 -373.878 L 848 -586.221 L 524 -586.221 L 524 -373.878 Z M 712.581 -542.2 C 713.401 -543.01 714.261 -543.6 715.261 -544.39 C 719.461 -547.8 724.661 -549.6 730.261 -549.6 C 730.52 -549.6 730.801 -549.8 730.901 -549.6 C 731.42 -549.8 731.761 -549.6 732.12 -549.6 C 738.601 -549.39 744.26 -547.2 748.941 -542.39 C 749.122 -542.2 749.281 -542.01 749.622 -542.01 C 754.662 -536.8 757.401 -530.6 757.341 -523.2 C 757.501 -515.8 754.921 -509.39 749.981 -504.6 L 723.901 -478.6 L 749.422 -452.99 C 754.601 -447.8 757.362 -441.61 757.701 -434.61 C 758.062 -427.4 755.441 -420.99 750.021 -415.61 C 744.901 -410.4 738.541 -407.8 731.082 -407.8 C 723.982 -407.8 717.961 -410.2 713.001 -414.8 C 712.701 -414.99 712.381 -415.4 712.081 -415.61 L 686.562 -441.2 L 660.841 -415.4 C 655.901 -410.4 649.701 -407.99 642.321 -407.99 C 635.021 -408.2 628.801 -410.61 623.602 -415.8 C 623.481 -415.99 623.461 -415.99 623.44 -415.99 C 618.4 -420.99 615.921 -427.2 615.921 -434.61 C 615.781 -440.8 617.761 -446.2 621.34 -450.61 C 622.04 -451.61 622.74 -452.4 623.361 -452.99 L 649.082 -478.6 L 623.44 -504.39 C 618.361 -509.39 615.6 -515.6 615.381 -522.8 C 615.381 -530.39 617.921 -536.8 623.34 -542.2 C 628.661 -547.39 634.901 -549.8 642.221 -549.6 C 649.401 -549.39 655.682 -546.8 660.761 -541.6 C 660.781 -541.6 660.901 -541.6 660.92 -541.6 L 686.421 -516.01 Z" style="stroke-width: 0.05;"/>
</svg>