<?xml version="1.0" encoding="utf-8"?>
<svg xmlns="http://www.w3.org/2000/svg" height="48" viewBox="0 -960 960 960" width="48">
  <path d="M 226 -34 C 186.72 -34 153.567 -47.513 126.54 -74.54 C 99.513 -101.567 86 -134.72 86 -174 L 86 -276 C 86 -289.087 90.543 -300.357 99.63 -309.81 C 108.71 -319.27 120.167 -324 134 -324 L 225 -324 L 225 -870 C 225 -875.5 227.333 -879.21 232 -881.13 C 236.667 -883.043 241 -882 245 -878 L 274 -849 C 278.547 -844.333 284.183 -842.167 290.91 -842.5 C 297.637 -842.833 303.333 -845.333 308 -850 L 339 -880 C 343.547 -884.667 349.183 -887 355.91 -887 C 362.637 -887 368.333 -884.667 373 -880 L 402 -850 C 406.547 -845.333 412.183 -843 418.91 -843 C 425.637 -843 431.333 -845.333 436 -850 L 468 -880 C 471.76 -884.667 477.123 -887 484.09 -887 C 491.063 -887 497.033 -884.667 502 -880 L 532 -850 C 536.547 -845.333 542.183 -843 548.91 -843 C 555.637 -843 561.333 -845.333 566 -850 L 597 -880 C 600.76 -884.667 606.123 -887 613.09 -887 C 620.063 -887 626.033 -884.667 631 -880 L 661 -850 C 665.547 -845.333 671.183 -843 677.91 -843 C 684.637 -843 690.333 -845.333 695 -850 L 726 -880 C 729.76 -884.667 735.123 -887 742.09 -887 C 749.063 -887 755.033 -884.667 760 -880 L 790 -850 C 794.547 -845.333 800.183 -842.833 806.91 -842.5 C 813.637 -842.167 819.333 -844.333 824 -849 L 853 -878 C 857 -882 861.5 -883.043 866.5 -881.13 C 871.5 -879.21 874 -875.5 874 -870 L 874 -174 C 874 -134.72 860.39 -101.567 833.17 -74.54 C 805.943 -47.513 772.887 -34 734 -34 Z M 734.5 -129 C 747.5 -129 758.167 -133.187 766.5 -141.56 C 774.833 -149.933 779 -160.813 779 -174.2 L 779 -759 L 319 -759 L 319 -324 L 642 -324 C 655.167 -324 666.293 -319.27 675.38 -309.81 C 684.46 -300.357 689 -289.087 689 -276 L 689 -174.15 C 689 -160.717 693.333 -149.833 702 -141.5 C 710.667 -133.167 721.5 -129 734.5 -129 Z M 225 -129 L 595 -129 L 595 -229 L 181 -229 L 181 -174 C 181 -160.667 185.217 -149.833 193.65 -141.5 C 202.083 -133.167 212.533 -129 225 -129 Z M 545.241 -379.88 C 499.503 -379.88 460.85 -395.76 429.281 -427.56 C 397.73 -459.53 381.954 -498.06 381.954 -543.16 C 381.954 -588.42 397.73 -626.79 429.281 -658.76 C 460.85 -690.55 499.503 -706.45 545.241 -706.45 C 590.426 -706.45 628.923 -690.55 660.769 -658.76 C 692.614 -626.79 708.528 -588.42 708.528 -543.16 C 708.528 -498.06 692.614 -459.53 660.769 -427.56 C 628.923 -395.76 590.426 -379.88 545.241 -379.88 Z M 559.928 -546.97 L 559.928 -626.1 C 559.928 -631.8 557.803 -636.81 553.535 -640.79 C 549.25 -644.76 544.273 -646.84 538.589 -646.84 C 532.662 -646.84 527.392 -644.76 522.778 -640.45 C 518.182 -636.13 515.866 -630.77 515.866 -624.37 L 515.866 -547.48 C 515.866 -541.78 516.886 -536.6 518.891 -531.94 C 520.912 -527.27 523.642 -522.94 527.098 -518.98 L 579.8 -464.55 C 583.843 -460.57 588.871 -458.49 594.918 -458.49 C 600.966 -458.49 606.012 -460.91 610.038 -465.59 C 614.081 -470.25 616.24 -475.43 616.517 -481.14 C 616.811 -486.83 614.652 -491.84 610.038 -496.51 Z"/>
</svg>