<?xml version="1.0" encoding="utf-8"?>
<svg xmlns="http://www.w3.org/2000/svg" height="48" viewBox="0 -960 960 960" width="48">
  <path d="M 150.289 -26.73 C 128.796 -26.73 110.107 -34.675 94.224 -50.565 C 78.333 -66.449 70.388 -85.137 70.388 -106.63 L 70.388 -852.4 C 70.388 -874.16 78.34 -893.04 94.223 -909.21 C 110.106 -925.36 128.8 -933.27 150.287 -933.27 L 808.73 -933.27 C 830.486 -933.27 849.412 -925.36 865.468 -909.21 C 881.564 -893.04 889.612 -874.16 889.612 -852.4 L 889.612 -106.63 C 889.612 -85.137 881.574 -66.449 865.497 -50.565 C 849.421 -34.675 830.505 -26.73 808.749 -26.73 L 150.289 -26.73 Z M 150.289 -777.28 L 808.73 -777.28 L 808.73 -852.4 L 150.287 -852.4 L 150.287 -777.28 C 150.288 -777.28 150.288 -777.28 150.289 -777.28 Z M 150.289 -106.63 L 808.749 -106.63 L 808.749 -534.05 L 150.289 -534.05 L 150.289 -106.63 Z M 712.482 -284.72 C 712.482 -291.03 714.889 -296.62 719.702 -301.49 C 724.516 -306.35 730.092 -308.79 736.433 -308.79 C 743.422 -308.79 749.198 -306.35 753.761 -301.49 C 758.331 -296.62 760.615 -291.03 760.615 -284.72 L 760.615 -200.01 C 760.615 -187.33 756.245 -176.63 747.504 -167.89 C 738.756 -159.13 728.046 -154.76 715.37 -154.76 L 630.656 -154.76 C 624.348 -154.76 618.758 -157.01 613.887 -161.5 C 609.022 -166 606.59 -171.57 606.59 -178.23 C 606.59 -184.91 609.022 -190.68 613.887 -195.56 C 618.758 -200.45 624.348 -202.9 630.656 -202.9 L 712.482 -202.9 L 712.482 -284.72 Z M 401.12 -241.89 C 379.582 -263.38 368.813 -289.52 368.813 -320.28 C 368.813 -351.05 379.563 -377.21 401.062 -398.74 C 422.561 -420.28 448.694 -431.05 479.461 -431.05 C 510.228 -431.05 536.38 -420.29 557.918 -398.8 C 579.455 -377.3 590.225 -351.17 590.225 -320.4 C 590.225 -289.63 579.475 -263.48 557.975 -241.94 C 536.476 -220.41 510.343 -209.64 479.576 -209.64 C 448.81 -209.64 422.657 -220.39 401.12 -241.89 Z M 246.555 -351.15 C 246.555 -344.84 244.148 -339.25 239.335 -334.38 C 234.522 -329.52 228.945 -327.08 222.604 -327.08 C 215.615 -327.08 209.839 -329.52 205.276 -334.38 C 200.706 -339.25 198.422 -344.84 198.422 -351.15 L 198.422 -435.86 C 198.422 -448.54 202.795 -459.24 211.543 -467.99 C 220.284 -476.73 230.992 -481.11 243.667 -481.11 L 328.381 -481.11 C 334.689 -481.11 340.279 -478.86 345.151 -474.37 C 350.015 -469.87 352.448 -464.3 352.448 -457.64 C 352.448 -450.97 350.015 -445.19 345.151 -440.31 C 340.279 -435.42 334.689 -432.97 328.381 -432.97 L 246.555 -432.97 L 246.555 -351.15 Z M 150.289 -696.41 L 150.289 -614.91 L 808.73 -614.91 L 808.73 -696.41 L 150.289 -696.41 Z" style=""/>
</svg>