<?xml version="1.0" encoding="utf-8"?>
<svg xmlns="http://www.w3.org/2000/svg" height="48" viewBox="0 -960 960 960" width="48">
  <path d="M 189 -135 C 162.967 -135 140.79 -144.16 122.47 -162.48 C 104.157 -180.793 95 -202.967 95 -229 L 95 -751 C 95 -777.307 104.157 -799.717 122.47 -818.23 C 140.79 -836.743 162.967 -846 189 -846 L 245 -846 L 245 -865 C 245 -876.167 249.13 -885.793 257.39 -893.88 C 265.657 -901.96 275.257 -906 286.19 -906 C 297.41 -906 307.017 -901.96 315.01 -893.88 C 323.003 -885.793 327 -876.167 327 -865 L 327 -846 L 553 -846 L 553 -865 C 553 -876.167 557.13 -885.793 565.39 -893.88 C 573.657 -901.96 583.257 -906 594.19 -906 C 605.417 -906 615.023 -901.96 623.01 -893.88 C 631.003 -885.793 635 -876.167 635 -865 L 635 -846 L 691 -846 C 717.307 -846 739.717 -836.743 758.23 -818.23 C 776.743 -799.717 786 -777.307 786 -751 L 786 -508 C 786 -494.167 781.247 -482.71 771.74 -473.63 C 762.227 -464.543 750.893 -460 737.74 -460 C 724.58 -460 713.5 -464.543 704.5 -473.63 C 695.5 -482.71 691 -494.167 691 -508 L 691 -570 L 189 -570 L 189 -229 L 433 -229 C 446.087 -229 457.357 -224.44 466.81 -215.32 C 476.27 -206.207 481 -195.04 481 -181.82 C 481 -168.607 476.27 -157.5 466.81 -148.5 C 457.357 -139.5 446.087 -135 433 -135 Z M 189 -630 L 691 -630 L 691 -751 L 189 -751 Z M 576.119 -92.763 C 568.31 -100.72 564.404 -110.33 564.404 -121.89 C 564.404 -133.16 568.143 -142.72 575.654 -150.69 C 583.17 -158.31 592.633 -162.26 604.117 -162.26 L 857.286 -162.26 C 868.31 -162.26 877.706 -158.31 885.419 -150.69 C 893.127 -142.72 897 -133.5 897 -122.56 C 897 -110.66 892.964 -100.72 884.921 -92.763 C 876.881 -84.834 867.647 -81.206 857.286 -81.206 L 605.77 -81.206 C 593.825 -81.206 583.928 -84.834 576.119 -92.763 Z M 576.119 -269.81 C 568.31 -277.44 564.404 -287.05 564.404 -298.61 C 564.404 -309.88 568.31 -319.81 576.119 -328.4 C 583.928 -336.65 593.825 -340.98 605.77 -340.98 L 855.634 -340.98 C 866.486 -340.98 876.085 -336.65 884.459 -328.4 C 892.829 -320.14 897 -310.55 897 -299.62 C 897 -287.7 892.829 -277.77 884.459 -269.81 C 876.085 -262.23 866.486 -258.24 855.634 -258.24 L 605.77 -258.24 C 593.825 -258.24 583.928 -261.88 576.119 -269.81 Z"/>
</svg>