<?xml version="1.0" encoding="utf-8"?>
<svg xmlns="http://www.w3.org/2000/svg" height="48" viewBox="0 -960 960 960" width="48">
  <path d="M 189 -135 C 162.967 -135 140.79 -144.16 122.47 -162.48 C 104.157 -180.793 95 -202.967 95 -229 L 95 -751 C 95 -777.307 104.157 -799.717 122.47 -818.23 C 140.79 -836.743 162.967 -846 189 -846 L 245 -846 L 245 -865 C 245 -876.167 249.13 -885.793 257.39 -893.88 C 265.657 -901.96 275.257 -906 286.19 -906 C 297.41 -906 307.017 -901.96 315.01 -893.88 C 323.003 -885.793 327 -876.167 327 -865 L 327 -846 L 553 -846 L 553 -865 C 553 -876.167 557.13 -885.793 565.39 -893.88 C 573.657 -901.96 583.257 -906 594.19 -906 C 605.417 -906 615.023 -901.96 623.01 -893.88 C 631.003 -885.793 635 -876.167 635 -865 L 635 -846 L 691 -846 C 717.307 -846 739.717 -836.743 758.23 -818.23 C 776.743 -799.717 786 -777.307 786 -751 L 786 -508 C 786 -494.167 781.247 -482.71 771.74 -473.63 C 762.227 -464.543 750.893 -460 737.74 -460 C 724.58 -460 713.5 -464.543 704.5 -473.63 C 695.5 -482.71 691 -494.167 691 -508 L 691 -570 L 189 -570 L 189 -229 L 433 -229 C 446.087 -229 457.357 -224.44 466.81 -215.32 C 476.27 -206.207 481 -195.04 481 -181.82 C 481 -168.607 476.27 -157.5 466.81 -148.5 C 457.357 -139.5 446.087 -135 433 -135 Z M 189 -630 L 691 -630 L 691 -751 L 189 -751 Z M 681.439 -127.109 C 681.439 -113.779 676.891 -102.669 667.8 -93.369 C 658.707 -84.289 647.473 -79.639 634.137 -79.639 C 620.781 -79.639 609.486 -84.289 600.291 -93.369 C 591.077 -102.669 586.471 -113.779 586.471 -127.109 L 586.471 -313.019 C 586.471 -326.349 591.058 -337.459 600.232 -346.759 C 609.404 -355.849 620.64 -360.499 633.954 -360.499 L 819.847 -360.499 C 833.144 -360.499 844.377 -355.849 853.551 -346.759 C 862.745 -337.869 867.331 -326.539 867.331 -313.219 C 867.331 -299.879 862.745 -288.559 853.551 -279.269 C 844.377 -270.179 833.144 -265.529 819.847 -265.529 L 748.117 -265.529 L 826.919 -186.739 C 836.336 -177.229 841.064 -166.109 841.064 -153.379 C 841.064 -140.659 836.477 -129.539 827.304 -120.049 C 817.625 -110.549 806.209 -105.709 793.074 -105.499 C 779.941 -105.099 768.646 -109.529 759.231 -119.039 L 681.439 -197.839 Z"/>
</svg>