<?xml version="1.0" encoding="utf-8"?>
<svg clip-rule="evenodd" fill-rule="evenodd" stroke-linejoin="round" stroke-miterlimit="2" viewBox="0 0 500 500" xmlns="http://www.w3.org/2000/svg">
  <defs>
    <style type="text/css" id="current-color-scheme">.ColorScheme-Highlight { color:#000000; } .ColorScheme-Text { color:#ffffff; }</style>
  </defs>
  <path d="M 118.153 126.983 C 111.157 133.218 100.494 132.848 93.949 126.143 L 93.092 124.958 L 93.795 125.949 C 90.515 122.571 88.72 118.025 88.81 113.318 C 88.9 108.612 90.869 104.137 94.275 100.89 C 94.281 100.884 94.287 100.877 94.294 100.871 C 132.891 64.542 184.844 42.25 242.042 42.243 C 361.182 42.25 457.746 138.811 457.754 257.944 C 457.754 316.469 434.408 369.516 396.574 408.381 C 396.567 408.387 396.56 408.394 396.554 408.401 C 391.597 413.426 383.871 414.47 377.761 410.936 C 377.751 410.933 377.742 410.926 377.735 410.922 C 377.136 410.57 376.532 410.214 375.945 409.863 C 371.19 407.095 367.925 402.341 367.048 396.908 C 366.38 392.762 367.156 388.553 369.183 384.96 C 401.478 352.515 421.438 307.782 421.438 258.388 C 421.438 159.299 341.111 78.971 242.021 78.971 C 205.188 78.971 170.946 90.071 142.459 109.107 C 133.77 114.626 125.459 120.713 118.153 126.983 Z M 156.225 310.61 C 158.226 312.69 159.556 315.323 160.04 318.163 C 161.959 329.298 164.357 339.977 167.249 350.019 L 190.18 350.019 C 193.853 350.019 197.386 351.418 200.063 353.932 C 200.307 354.161 200.552 354.39 200.798 354.621 L 200.801 354.623 C 205.123 358.676 206.533 364.959 204.353 370.469 C 202.174 375.979 196.851 379.6 190.923 379.6 L 177.829 379.6 C 187.291 401.155 199.105 418.003 211.73 428.278 C 215.589 431.418 219.469 433.925 223.374 435.851 C 224.665 435.983 225.959 436.1 227.259 436.202 C 227.259 430.631 227.259 420.434 227.259 410.791 C 227.259 405.05 230.571 399.826 235.766 397.382 C 240.959 394.936 247.096 395.711 251.519 399.365 L 251.524 399.369 C 254.889 402.151 256.839 406.289 256.839 410.656 L 256.839 437.204 C 257.813 437.275 258.996 437.337 260.072 437.32 C 268.337 437.199 281.462 435.58 287.009 433.908 C 289.928 433.01 293.096 433.439 295.674 435.081 C 296.284 435.468 296.955 435.904 297.621 436.43 C 303.337 440.177 306.32 446.947 305.21 453.706 C 304.09 460.538 299.004 466.046 292.283 467.706 C 292.273 467.708 292.264 467.71 292.255 467.711 C 276.147 471.575 259.335 473.634 242.042 473.634 C 122.909 473.626 26.352 377.077 26.345 257.945 C 26.345 240.857 28.355 224.248 32.033 208.291 C 32.036 208.275 32.04 208.259 32.043 208.243 C 33.732 201.319 39.295 196.008 46.289 194.645 C 53.284 193.28 60.435 196.111 64.601 201.893 L 64.601 201.895 C 64.739 202.086 64.874 202.278 64.991 202.456 C 68.045 206.746 69.099 212.145 67.881 217.269 C 65.911 225.681 64.512 234.316 63.779 243.147 L 89.32 243.147 C 93.696 243.147 97.845 245.103 100.629 248.474 L 100.817 248.7 L 100.826 248.713 C 104.445 253.092 105.21 259.167 102.789 264.307 C 100.369 269.447 95.196 272.727 89.516 272.727 L 63.776 272.727 C 66.074 300.858 74.864 327.098 88.657 350.019 L 136.583 350.019 C 134.374 341.465 132.483 332.588 130.905 323.445 C 129.786 317.016 132.997 310.611 138.817 307.659 C 144.636 304.71 151.702 305.906 156.225 310.61 Z M 115.542 384.445 C 130.06 398.95 147.04 410.944 165.798 419.785 C 162.645 414.89 159.654 409.702 156.829 404.245 L 156.827 404.24 C 152.869 396.573 149.294 388.287 146.021 379.6 L 110.894 379.6 C 112.411 381.246 113.96 382.863 115.542 384.445 Z M 114.434 58.863 C 114.429 58.865 114.426 58.867 114.422 58.87 C 114.385 58.895 114.351 58.919 114.314 58.945 C 109.108 62.324 102.547 62.84 96.878 60.317 L 96.873 60.315 C 92.793 58.494 88.891 56.893 85.194 55.524 L 85.183 55.523 C 73.98 51.346 64.631 49.394 58.379 49.426 C 58.372 49.426 58.364 49.426 58.358 49.426 C 55.795 49.426 53.871 49.734 52.586 50.172 C 51.798 50.444 51.357 50.694 50.995 51.03 C 50.682 51.373 50.44 51.81 50.171 52.589 C 49.734 53.868 49.427 55.788 49.427 58.343 L 49.427 58.36 C 49.401 64.261 51.13 72.919 54.836 83.293 L 54.837 83.301 C 58.667 94.083 64.517 106.652 72.189 120.451 C 98.779 168.286 147.071 230.39 208.364 291.642 L 208.366 291.643 C 269.618 352.938 331.722 401.229 379.549 427.811 C 393.347 435.483 405.923 441.34 416.702 445.163 L 416.714 445.165 C 427.089 448.88 435.746 450.6 441.647 450.573 L 441.664 450.573 C 444.21 450.573 446.13 450.273 447.415 449.84 C 448.195 449.564 448.64 449.322 448.995 448.995 C 449.313 448.648 449.561 448.203 449.83 447.423 C 450.273 446.133 450.573 444.212 450.573 441.665 C 450.573 441.658 450.573 441.65 450.574 441.643 C 450.607 435.383 448.654 426.037 444.467 414.812 L 444.461 414.802 C 442.904 410.589 441.045 406.119 438.904 401.425 C 436.828 396.883 437.239 391.594 439.986 387.44 C 441.584 385.003 443.139 382.534 444.65 380.034 L 444.651 380.032 C 447.41 375.482 452.442 372.813 457.756 373.083 C 463.066 373.351 467.798 376.51 470.083 381.308 C 473.534 388.487 476.515 395.404 478.97 402.024 L 478.972 402.032 C 484.262 416.394 487.329 429.436 487.373 441.651 L 487.373 441.671 C 487.366 447.701 486.59 453.592 484.684 459.243 C 482.739 465.024 479.497 470.549 474.996 475.032 C 470.527 479.519 465.009 482.748 459.227 484.693 C 453.582 486.593 447.695 487.374 441.664 487.374 L 441.651 487.374 C 430.111 487.337 417.841 484.593 404.396 479.845 L 404.388 479.841 C 391.24 475.166 376.969 468.474 361.664 459.976 L 361.659 459.972 C 309.886 431.116 245.816 381.104 182.346 317.662 C 118.904 254.192 68.891 190.122 40.035 138.341 L 40.032 138.336 C 31.533 123.038 24.84 108.767 20.167 95.62 L 20.163 95.615 C 15.408 82.166 12.664 69.897 12.627 58.356 C 12.627 58.35 12.627 58.343 12.627 58.337 C 12.635 52.309 13.41 46.424 15.315 40.784 C 17.253 34.992 20.492 29.473 24.975 25.011 C 29.451 20.514 34.976 17.268 40.772 15.317 C 46.422 13.41 52.313 12.635 58.352 12.626 L 58.373 12.626 C 70.573 12.671 83.608 15.738 97.953 21.013 L 97.961 21.015 C 102.452 22.679 107.083 24.583 111.839 26.706 C 118.004 29.417 122.185 35.29 122.73 42.002 C 123.277 48.72 120.089 55.196 114.434 58.863 Z M 290.133 307.522 L 290.133 298.967 L 272.78 298.967 C 266.465 298.967 261.058 296.757 256.558 292.342 C 252.056 287.928 249.803 282.477 249.803 275.992 L 249.803 193.377 L 232.695 193.377 L 232.695 203.154 C 232.695 209.06 230.506 214.203 226.128 218.582 C 221.748 222.962 216.603 225.151 210.697 225.151 L 176.725 225.151 C 170.238 225.151 164.787 222.92 160.371 218.457 C 155.954 213.992 153.748 208.483 153.748 201.931 L 153.748 162.824 C 153.748 156.27 155.954 150.765 160.371 146.299 C 164.787 141.835 170.238 139.603 176.725 139.603 L 210.697 139.603 C 216.603 139.603 221.748 141.795 226.128 146.171 C 230.506 150.552 232.695 155.694 232.695 161.602 L 232.695 170.157 L 290.133 170.157 L 290.133 161.602 C 290.133 155.694 292.323 150.552 296.705 146.171 C 301.084 141.795 306.224 139.603 312.132 139.603 L 345.862 139.603 C 352.415 139.603 357.923 141.835 362.387 146.299 C 366.85 150.765 369.083 156.27 369.083 162.824 L 369.083 201.931 C 369.083 208.483 366.85 213.992 362.387 218.457 C 357.923 222.92 352.415 225.151 345.862 225.151 L 312.132 225.151 C 306.224 225.151 301.084 222.962 296.705 218.582 C 292.323 214.203 290.133 209.06 290.133 203.154 L 290.133 193.377 L 272.78 193.377 L 272.78 275.992 L 290.133 275.992 L 290.133 266.214 C 290.133 260.307 292.323 255.164 296.705 250.784 C 301.084 246.405 306.224 244.216 312.132 244.216 L 345.862 244.216 C 352.415 244.216 357.923 246.467 362.387 250.967 C 366.85 255.469 369.083 260.878 369.083 267.193 L 369.083 306.544 C 369.083 313.029 366.85 318.481 362.387 322.896 C 357.923 327.312 352.415 329.519 345.862 329.519 L 312.132 329.519 C 306.224 329.519 301.084 327.366 296.705 323.057 C 292.323 318.748 290.133 313.57 290.133 307.522 Z M 313.354 201.931 L 345.862 201.931 L 345.862 162.824 L 313.354 162.824 L 313.354 201.931 Z M 313.354 306.544 L 345.862 306.544 L 345.862 267.193 L 313.354 267.193 L 313.354 306.544 Z M 176.725 201.931 L 209.72 201.931 L 209.72 162.824 L 176.725 162.824 L 176.725 201.931 Z" fill-rule="nonzero" stroke-width="13.58" style=""/>
</svg>