<?xml version="1.0" encoding="utf-8"?>
<svg xmlns="http://www.w3.org/2000/svg" height="48" viewBox="0 -960 960 960" width="48">
  <path d="M 850.625 -238.15 L 578.639 -238.15 C 562.373 -238.59 546.352 -245.21 534.593 -256.35 C 523.442 -268.12 516.823 -284.12 516.395 -300.4 L 516.395 -659.07 C 516.815 -675.47 523.413 -691.58 534.552 -703.45 C 546.324 -714.73 562.361 -721.41 578.639 -721.85 L 742.806 -721.85 C 751.049 -721.73 760.11 -719.79 767.665 -716.51 C 774.929 -713.14 782.149 -708.19 787.649 -702.83 L 894.386 -596.09 C 899.747 -590.59 904.699 -583.37 908.076 -576.11 C 911.338 -568.57 913.285 -559.52 913.41 -551.26 L 913.41 -300.4 C 912.974 -284.12 906.271 -268.06 895.003 -256.3 C 883.138 -245.17 867.022 -238.57 850.625 -238.15 Z M 839.312 -311.72 L 839.312 -545.55 L 736.818 -647.77 L 589.951 -647.77 L 589.951 -311.72 L 839.312 -311.72 Z M 65 -256.25 C 53.726 -267.9 47.022 -284.06 46.591 -300.23 L 46.591 -551.34 C 46.72 -559.53 48.66 -568.6 51.915 -576.13 C 55.299 -583.47 60.257 -590.58 65.624 -596.18 L 172.389 -702.88 C 177.885 -708.27 185.106 -713.22 192.391 -716.67 C 199.936 -719.91 209.01 -721.85 217.245 -721.85 L 381.475 -721.85 C 397.75 -721.41 413.786 -714.74 425.578 -703.53 C 436.721 -691.67 443.318 -675.5 443.727 -659.13 L 443.727 -300.23 C 443.295 -284.06 436.678 -268.11 425.534 -256.25 C 413.765 -245.04 397.75 -238.36 381.475 -238.15 L 109.403 -238.15 C 92.999 -238.36 76.877 -245.04 65 -256.25 Z M 370.159 -311.65 L 370.159 -647.69 L 223.237 -647.69 L 120.719 -545.53 L 120.719 -311.65 L 370.159 -311.65 Z" style="stroke-width: 21px;"/>
</svg>