<?xml version="1.0" encoding="utf-8"?>
<svg xmlns="http://www.w3.org/2000/svg" height="48" viewBox="0 -960 960 960" width="48">
  <path d="M 111.497 -175.56 C 104.176 -175.56 97.465 -178.61 91.364 -184.71 C 85.263 -190.81 82.212 -197.52 82.212 -204.85 L 82.212 -756.38 C 82.212 -763.7 85.263 -770.21 91.364 -775.9 C 97.465 -781.6 104.176 -784.44 111.497 -784.44 L 151.764 -784.44 C 159.085 -784.44 165.593 -781.39 171.287 -775.29 C 176.982 -769.19 179.829 -762.48 179.829 -755.16 L 179.829 -203.62 C 179.829 -196.3 176.982 -189.8 171.287 -184.1 C 165.593 -178.41 159.085 -175.56 151.764 -175.56 L 111.497 -175.56 Z M 255.482 -175.56 C 248.161 -175.56 242.059 -178.1 237.179 -183.17 C 232.298 -188.25 229.857 -194.17 229.857 -200.93 L 229.857 -759.08 C 229.857 -765.84 232.298 -771.76 237.179 -776.83 C 242.059 -781.91 248.161 -784.44 255.482 -784.44 C 262.803 -784.44 268.904 -781.91 273.785 -776.83 C 278.666 -771.76 281.106 -765.84 281.106 -759.08 L 281.106 -200.93 C 281.106 -194.17 278.666 -188.25 273.785 -183.17 C 268.904 -178.1 262.803 -175.56 255.482 -175.56 Z M 408.008 -175.56 C 400.686 -175.56 393.975 -178.61 387.874 -184.71 C 381.773 -190.81 378.723 -197.52 378.723 -204.85 L 378.723 -756.38 C 378.723 -763.7 381.773 -770.21 387.874 -775.9 C 393.975 -781.6 400.686 -784.44 408.008 -784.44 L 451.935 -784.44 C 459.256 -784.44 465.764 -781.39 471.459 -775.29 C 477.153 -769.19 480 -762.48 480 -755.16 L 480 -203.62 C 480 -196.3 477.153 -189.8 471.459 -184.1 C 465.764 -178.41 459.256 -175.56 451.935 -175.56 L 408.008 -175.56 Z M 560.534 -175.56 C 553.212 -175.56 546.501 -178.61 540.4 -184.71 C 534.299 -190.81 531.249 -197.52 531.249 -204.85 L 531.249 -756.38 C 531.249 -763.7 534.299 -770.21 540.4 -775.9 C 546.501 -781.6 553.212 -784.44 560.534 -784.44 L 650.829 -784.44 C 658.15 -784.44 664.658 -781.39 670.352 -775.29 C 676.047 -769.19 678.894 -762.48 678.894 -755.16 L 678.894 -203.62 C 678.894 -196.3 676.047 -189.8 670.352 -184.1 C 664.658 -178.41 658.15 -175.56 650.829 -175.56 L 560.534 -175.56 Z M 755.767 -175.56 C 748.446 -175.56 742.345 -178.1 737.464 -183.17 C 732.583 -188.25 730.143 -194.17 730.143 -200.93 L 730.143 -759.08 C 730.143 -765.84 732.583 -771.76 737.464 -776.83 C 742.345 -781.91 748.446 -784.44 755.767 -784.44 C 763.088 -784.44 769.189 -781.91 774.07 -776.83 C 778.951 -771.76 781.391 -765.84 781.391 -759.08 L 781.391 -200.93 C 781.391 -194.17 778.951 -188.25 774.07 -183.17 C 769.189 -178.1 763.088 -175.56 755.767 -175.56 Z M 854.604 -175.56 C 848.421 -175.56 843.012 -177.88 838.375 -182.52 C 833.738 -187.15 831.42 -192.56 831.42 -198.74 L 831.42 -760.81 C 831.42 -767.62 833.738 -773.26 838.375 -777.73 C 843.012 -782.21 848.421 -784.44 854.604 -784.44 C 860.787 -784.44 866.196 -782.13 870.833 -777.49 C 875.469 -772.85 877.788 -767.44 877.788 -761.26 L 877.788 -199.21 C 877.788 -192.39 875.469 -186.75 870.833 -182.27 C 866.196 -177.8 860.787 -175.56 854.604 -175.56 Z" style=""/>
</svg>