<?xml version="1.0" encoding="utf-8"?>
<svg xmlns="http://www.w3.org/2000/svg" height="48" viewBox="0 -960 960 960" width="48">
  <path d="M 138 -175 C 115.673 -175 96.26 -183.253 79.76 -199.76 C 63.253 -216.26 55 -235.673 55 -258 L 55 -702 C 55 -724.6 63.253 -744.25 79.76 -760.95 C 96.26 -777.65 115.673 -786 138 -786 L 822 -786 C 844.6 -786 864.25 -777.65 880.95 -760.95 C 897.65 -744.25 906 -724.6 906 -702 L 906 -258 C 906 -235.673 897.65 -216.26 880.95 -199.76 C 864.25 -183.253 844.6 -175 822 -175 Z M 138 -258 L 822 -258 L 822 -702 L 138 -702 Z M 557.72 -444.8 C 580.876 -463.494 597.652 -480.572 612.284 -501.917 C 626.886 -523.114 633.711 -542.619 633.711 -562.24 C 633.711 -574.184 631.794 -583.092 627.366 -590.444 C 623.496 -597.553 619.67 -599.85 613.528 -599.85 C 598.453 -599.85 586.035 -589.085 573.835 -564.025 C 561.216 -538.85 555.133 -509.72 555.133 -475.72 C 555.133 -468.595 555.462 -461.826 556.156 -455.342 C 556.818 -448.828 557.042 -448.227 557.72 -444.8 Z M 598.637 -322.15 C 584.91 -322.15 571.802 -325.829 560.732 -332.454 C 549.901 -339.128 542.334 -346.349 534.612 -356.117 C 530.019 -353.24 526.845 -351.312 521.091 -348.285 C 515.476 -345.352 509.735 -342.311 503.792 -339.163 C 497.183 -335.198 489.597 -333.983 482.486 -335.493 C 475.457 -337.357 469.168 -342.159 465.269 -348.691 C 461.787 -355.237 460.678 -363.118 462.226 -370.276 C 464.193 -377.393 469.056 -383.929 475.607 -388.199 L 475.815 -388.335 L 476.136 -388.487 C 482.198 -391.363 488.095 -394.612 494.043 -398.147 C 500.07 -401.735 503.358 -403.696 507.799 -406.458 C 504.85 -416.102 502.78 -424.732 500.987 -436.537 C 499.203 -448.361 498.29 -460.882 498.29 -473.61 C 498.29 -524.127 508.997 -567.652 530.097 -602.603 C 551.388 -637.87 580.161 -656.7 613.391 -656.7 C 636.333 -656.7 655.881 -647.028 669.862 -629.837 C 683.333 -612.383 690.554 -589.394 690.554 -562.68 C 690.554 -532.601 680.205 -501.798 660.388 -471.843 C 640.572 -442.148 614.987 -415.879 581.668 -389.956 C 584.432 -386.839 585.96 -385.243 590.407 -382.633 C 594.614 -379.982 598.643 -379.01 603.907 -379.01 C 613.54 -379.01 622.22 -381.927 631.536 -388.736 C 641.049 -395.427 649.633 -405.595 658.156 -419.974 C 661.467 -425.373 666.81 -429.709 672.409 -431.775 C 678.063 -433.355 685.015 -432.986 691.041 -430.656 C 697.054 -427.723 702.312 -422.664 705.491 -416.893 C 708.362 -411.042 709.781 -403.979 709.488 -397.653 C 709.144 -394.654 708.993 -391.592 708.996 -388.26 L 708.996 -387.025 L 707.299 -385.672 C 709.269 -387.141 710.955 -388.511 712.743 -390.03 C 716.587 -394.612 721.913 -398.083 727.932 -399.913 C 734.013 -401.369 741.014 -401.028 746.998 -399.221 C 752.901 -396.816 757.959 -391.838 760.524 -386.037 C 762.627 -379.821 762.002 -372.901 758.751 -367.434 C 749.71 -352.97 739.838 -341.578 729.827 -333.994 C 719.547 -326.455 708.111 -322.15 697.173 -322.15 C 687.138 -322.15 677.669 -325.639 670.591 -331.676 C 663.812 -337.97 662.355 -341.534 659.979 -347.913 C 651.523 -340.455 645.116 -335.601 634.007 -330.268 C 622.796 -325.035 610.607 -322.15 598.637 -322.15 Z M 349.058 -590.21 C 350.582 -591.83 352.161 -593.16 353.819 -594.51 C 361.31 -600.12 369.978 -603.32 380.062 -603.32 C 380.438 -603.32 380.812 -603.32 381.159 -603.32 C 381.881 -603.32 382.577 -603.32 383.273 -603.32 C 394.508 -603.07 404.245 -598.79 412.592 -591.02 C 412.939 -590.75 413.261 -590.21 413.581 -589.96 C 422.571 -581.12 427.119 -570.15 427.252 -557.31 C 427.412 -544.47 423.079 -533.78 414.331 -524.95 L 368.933 -479.46 L 413.367 -435.06 C 422.411 -425.96 427.198 -415.26 427.707 -402.69 C 428.243 -390.38 423.827 -379.41 414.491 -370.05 C 414.464 -370.05 414.464 -370.05 414.439 -370.05 C 405.369 -360.97 394.321 -356.4 381.266 -356.4 C 368.96 -356.4 358.446 -360.43 349.727 -368.18 C 349.191 -368.71 348.63 -369.25 348.121 -369.79 L 303.66 -414.2 L 259.199 -369.79 C 250.45 -360.97 239.669 -356.67 226.909 -356.94 C 214.175 -356.94 203.314 -361.49 194.246 -370.58 C 194.138 -370.58 194.059 -370.58 193.951 -370.86 C 185.256 -379.41 180.843 -390.11 180.735 -402.96 C 180.656 -413.93 183.973 -423.28 190.42 -431.05 C 191.49 -432.38 192.667 -433.73 193.951 -435.06 L 238.412 -479.46 L 193.764 -524.14 C 184.882 -532.97 180.28 -543.93 179.96 -556.77 C 179.827 -569.63 184.241 -580.86 193.577 -590.21 C 202.94 -599.58 214.094 -603.86 226.587 -603.59 C 239.268 -603.07 250.05 -598.52 258.904 -589.42 C 259.01 -589.42 259.118 -589.42 259.199 -589.15 L 303.66 -544.74 Z"/>
</svg>