<?xml version="1.0" encoding="utf-8"?>
<svg xmlns="http://www.w3.org/2000/svg" height="48" viewBox="0 -960 960 960" width="48">
  <path d="M 240 -55 C 199.22 -55 164.86 -69 136.92 -97 C 108.973 -125 95 -159 95 -199 L 95 -757 C 95 -798.387 109.39 -833.567 138.17 -862.54 C 166.943 -891.513 201.887 -906 243 -906 L 564 -906 C 590.807 -906 613.343 -896.87 631.61 -878.61 C 649.87 -860.343 659 -837.807 659 -811 L 659 -356 C 659 -329.467 649.87 -307.167 631.61 -289.1 C 613.343 -271.033 590.807 -262 564 -262 L 240 -262 C 223.567 -262 209.793 -256.083 198.68 -244.25 C 187.56 -232.417 182 -218.167 182 -201.5 C 182 -184.833 187.567 -170.75 198.7 -159.25 C 209.827 -147.75 223.617 -142 240.07 -142 L 779 -142 L 779 -782 C 779 -794.033 783.253 -804.377 791.76 -813.03 C 800.273 -821.677 810.44 -826 822.26 -826 C 834.087 -826 844.333 -821.677 853 -813.03 C 861.667 -804.377 866 -794.033 866 -782 L 866 -149 C 866 -122.467 856.87 -100.167 838.61 -82.1 C 820.343 -64.033 797.807 -55 771 -55 Z M 240 -345 L 572 -345 L 572 -819 L 243.5 -819 C 226.167 -819 211.583 -812.917 199.75 -800.75 C 187.917 -788.583 182 -774 182 -757 L 182 -329 C 190.207 -334.427 199.053 -338.45 208.54 -341.07 C 218.027 -343.69 228.513 -345 240 -345 Z M 406.696 -542.43 C 410.047 -545.86 414.181 -547.65 419.116 -548.45 C 424.052 -549.06 428.607 -547.05 432.782 -542.43 L 508.027 -444.11 C 511.377 -440.1 511.899 -436.1 509.571 -432.07 C 507.265 -428.06 503.732 -426.07 498.998 -426.07 L 253.194 -426.07 C 248.178 -426.07 244.587 -428.06 242.419 -432.07 C 240.232 -436.1 240.492 -440.1 243.162 -444.11 L 300.347 -519.37 C 303.7 -523.38 307.854 -525.39 312.809 -525.39 C 317.766 -525.39 322.321 -523.38 326.494 -519.17 L 355.529 -482.25 Z"/>
</svg>