<?xml version="1.0" encoding="utf-8"?>
<svg xmlns="http://www.w3.org/2000/svg" height="48" viewBox="0 -960 960 960" width="48">
  <path d="M 150.289 -26.73 C 128.796 -26.73 110.107 -34.675 94.224 -50.565 C 78.333 -66.449 70.388 -85.137 70.388 -106.63 L 70.388 -852.4 C 70.388 -874.16 78.34 -893.04 94.223 -909.21 C 110.106 -925.36 128.8 -933.27 150.287 -933.27 L 808.73 -933.27 C 830.486 -933.27 849.412 -925.36 865.468 -909.21 C 881.564 -893.04 889.612 -874.16 889.612 -852.4 L 889.612 -106.63 C 889.612 -85.137 881.574 -66.449 865.497 -50.565 C 849.421 -34.675 830.505 -26.73 808.749 -26.73 Z M 150.289 -777.28 L 808.73 -777.28 L 808.73 -852.4 L 150.287 -852.4 L 150.287 -777.28 C 150.288 -777.28 150.288 -777.28 150.289 -777.28 Z M 150.289 -106.63 L 808.749 -106.63 L 808.749 -534.05 L 150.289 -534.05 Z M 712.482 -284.72 C 712.482 -291.03 714.889 -296.62 719.702 -301.49 C 724.516 -306.35 730.092 -308.79 736.433 -308.79 C 743.422 -308.79 749.198 -306.35 753.761 -301.49 C 758.331 -296.62 760.615 -291.03 760.615 -284.72 L 760.615 -200.01 C 760.615 -187.33 756.245 -176.63 747.504 -167.89 C 738.756 -159.13 728.046 -154.76 715.37 -154.76 L 630.656 -154.76 C 624.348 -154.76 618.758 -157.01 613.887 -161.5 C 609.022 -166 606.59 -171.57 606.59 -178.23 C 606.59 -184.91 609.022 -190.68 613.887 -195.56 C 618.758 -200.45 624.348 -202.9 630.656 -202.9 L 712.482 -202.9 Z M 246.555 -351.15 C 246.555 -344.84 244.148 -339.25 239.335 -334.38 C 234.522 -329.52 228.945 -327.08 222.604 -327.08 C 215.615 -327.08 209.839 -329.52 205.276 -334.38 C 200.706 -339.25 198.422 -344.84 198.422 -351.15 L 198.422 -435.86 C 198.422 -448.54 202.795 -459.24 211.543 -467.99 C 220.284 -476.73 230.992 -481.11 243.667 -481.11 L 328.381 -481.11 C 334.689 -481.11 340.279 -478.86 345.151 -474.37 C 350.015 -469.87 352.448 -464.3 352.448 -457.64 C 352.448 -450.97 350.015 -445.19 345.151 -440.31 C 340.279 -435.42 334.689 -432.97 328.381 -432.97 L 246.555 -432.97 Z M 150.289 -696.41 L 150.289 -614.91 L 808.73 -614.91 L 808.73 -696.41 Z M 521.867 -422.82 C 523.28 -424.31 524.766 -425.55 526.278 -426.79 C 533.218 -431.99 541.272 -434.97 550.616 -434.97 C 550.938 -434.97 551.285 -434.97 551.632 -434.97 C 552.275 -434.97 552.945 -434.97 553.589 -434.97 C 563.998 -434.72 572.996 -431.01 580.728 -423.56 C 581.049 -423.32 581.348 -422.82 581.669 -422.57 C 589.972 -414.4 594.186 -404.23 594.334 -392.34 C 594.458 -380.44 590.468 -370.54 582.339 -362.36 L 540.281 -320.21 L 581.472 -279.08 C 589.823 -270.65 594.26 -260.75 594.756 -249.09 C 595.227 -237.69 591.162 -227.53 582.487 -218.85 L 582.463 -218.85 C 574.037 -210.43 563.8 -206.21 551.706 -206.21 C 540.306 -206.21 530.567 -209.93 522.488 -217.37 C 521.991 -217.62 521.495 -218.12 520.999 -218.61 L 479.808 -259.74 L 438.644 -218.61 C 430.515 -210.43 420.552 -206.47 408.705 -206.71 C 396.933 -206.71 386.846 -210.93 378.444 -219.35 C 378.37 -219.35 378.272 -219.35 378.171 -219.6 C 370.116 -227.53 366.028 -237.44 365.953 -249.33 C 365.879 -259.51 368.927 -268.17 374.9 -275.36 C 375.918 -276.61 377.007 -277.85 378.171 -279.08 L 419.362 -320.21 L 377.999 -361.61 C 369.77 -369.79 365.508 -379.94 365.21 -392.1 C 365.087 -403.73 369.177 -414.16 377.851 -422.82 C 386.499 -431.5 396.834 -435.46 408.433 -435.22 C 420.18 -434.72 430.142 -430.26 438.372 -422.32 C 438.446 -422.08 438.544 -422.08 438.644 -422.08 L 479.808 -380.7 Z" style=""/>
</svg>