<?xml version="1.0" encoding="utf-8"?>
<svg xmlns="http://www.w3.org/2000/svg" height="48" viewBox="0 -960 960 960" width="48">
  <path d="M 138 -175 C 115.673 -175 96.26 -183.253 79.76 -199.76 C 63.253 -216.26 55 -235.673 55 -258 L 55 -702 C 55 -724.6 63.253 -744.25 79.76 -760.95 C 96.26 -777.65 115.673 -786 138 -786 L 822 -786 C 844.6 -786 864.25 -777.65 880.95 -760.95 C 897.65 -744.25 906 -724.6 906 -702 L 906 -258 C 906 -235.673 897.65 -216.26 880.95 -199.76 C 864.25 -183.253 844.6 -175 822 -175 Z M 138 -258 L 822 -258 L 822 -702 L 138 -702 Z M 557.72 -444.8 C 580.876 -463.494 597.652 -480.572 612.284 -501.917 C 626.886 -523.114 633.711 -542.619 633.711 -562.24 C 633.711 -574.184 631.794 -583.092 627.366 -590.444 C 623.496 -597.553 619.67 -599.85 613.528 -599.85 C 598.453 -599.85 586.035 -589.085 573.835 -564.025 C 561.216 -538.85 555.133 -509.72 555.133 -475.72 C 555.133 -468.595 555.462 -461.826 556.156 -455.342 C 556.818 -448.828 557.042 -448.227 557.72 -444.8 Z M 598.637 -322.15 C 584.91 -322.15 571.802 -325.829 560.732 -332.454 C 549.901 -339.128 542.334 -346.349 534.612 -356.117 C 530.019 -353.24 526.845 -351.312 521.091 -348.285 C 515.476 -345.352 509.735 -342.311 503.792 -339.163 C 497.183 -335.198 489.597 -333.983 482.486 -335.493 C 475.457 -337.357 469.168 -342.159 465.269 -348.691 C 461.787 -355.237 460.678 -363.118 462.226 -370.276 C 464.193 -377.393 469.056 -383.929 475.607 -388.199 L 475.815 -388.335 L 476.136 -388.487 C 482.198 -391.363 488.095 -394.612 494.043 -398.147 C 500.07 -401.735 503.358 -403.696 507.799 -406.458 C 504.85 -416.102 502.78 -424.732 500.987 -436.537 C 499.203 -448.361 498.29 -460.882 498.29 -473.61 C 498.29 -524.127 508.997 -567.652 530.097 -602.603 C 551.388 -637.87 580.161 -656.7 613.391 -656.7 C 636.333 -656.7 655.881 -647.028 669.862 -629.837 C 683.333 -612.383 690.554 -589.394 690.554 -562.68 C 690.554 -532.601 680.205 -501.798 660.388 -471.843 C 640.572 -442.148 614.987 -415.879 581.668 -389.956 C 584.432 -386.839 585.96 -385.243 590.407 -382.633 C 594.614 -379.982 598.643 -379.01 603.907 -379.01 C 613.54 -379.01 622.22 -381.927 631.536 -388.736 C 641.049 -395.427 649.633 -405.595 658.156 -419.974 C 661.467 -425.373 666.81 -429.709 672.409 -431.775 C 678.063 -433.355 685.015 -432.986 691.041 -430.656 C 697.054 -427.723 702.312 -422.664 705.491 -416.893 C 708.362 -411.042 709.781 -403.979 709.488 -397.653 C 709.144 -394.654 708.993 -391.592 708.996 -388.26 L 708.996 -387.025 L 707.299 -385.672 C 709.269 -387.141 710.955 -388.511 712.743 -390.03 C 716.587 -394.612 721.913 -398.083 727.932 -399.913 C 734.013 -401.369 741.014 -401.028 746.998 -399.221 C 752.901 -396.816 757.959 -391.838 760.524 -386.037 C 762.627 -379.821 762.002 -372.901 758.751 -367.434 C 749.71 -352.97 739.838 -341.578 729.827 -333.994 C 719.547 -326.455 708.111 -322.15 697.173 -322.15 C 687.138 -322.15 677.669 -325.639 670.591 -331.676 C 663.812 -337.97 662.355 -341.534 659.979 -347.913 C 651.523 -340.455 645.116 -335.601 634.007 -330.268 C 622.796 -325.035 610.607 -322.15 598.637 -322.15 Z M 303.498 -485.82 C 286.884 -485.82 272.869 -491.46 261.463 -502.69 C 250.047 -513.94 244.351 -527.85 244.351 -544.72 C 244.351 -561.48 250.047 -575.48 261.463 -586.73 C 272.869 -597.98 286.884 -603.6 303.498 -603.6 C 320.112 -603.6 334.116 -597.98 345.53 -586.73 C 356.936 -575.48 362.645 -561.48 362.645 -544.72 C 362.645 -527.85 356.936 -513.94 345.53 -502.69 C 334.116 -491.46 320.112 -485.82 303.498 -485.82 Z M 303.613 -459.83 C 318.562 -459.83 333.023 -458.35 346.995 -455.28 C 360.958 -452.3 374.845 -447.1 388.636 -439.68 C 397.124 -435.43 403.924 -429.19 409.059 -421 C 414.183 -412.84 416.751 -403.39 416.751 -392.47 L 416.751 -381.32 C 416.751 -374.33 414.237 -368.39 409.218 -363.61 C 404.201 -358.84 398.228 -356.4 391.289 -356.4 L 215.176 -356.4 C 208.184 -356.4 202.286 -358.84 197.469 -363.61 C 192.652 -368.39 190.243 -374.33 190.243 -381.32 L 190.243 -392.47 C 190.243 -403.29 192.715 -412.84 197.669 -421 C 202.615 -429.19 209.34 -435.43 217.827 -439.68 C 231.259 -446.69 245.178 -451.89 259.585 -455.07 C 273.994 -458.24 288.666 -459.83 303.613 -459.83 Z"/>
</svg>