<?xml version="1.0" encoding="utf-8"?>
<svg xmlns="http://www.w3.org/2000/svg" height="48" viewBox="0 -960 960 960" width="48">
  <path d="M 620.5 -675 L 620.5 -605 C 620.5 -594.92 616.993 -586.57 609.98 -579.94 C 602.967 -573.31 594.433 -570 584.38 -570 C 574.32 -570 565.823 -573.41 558.89 -580.22 C 551.963 -587.04 548.5 -595.63 548.5 -606 L 548.5 -768 C 548.5 -781.33 553 -792.5 562 -801.5 C 571 -810.5 582.5 -815 596.5 -815 L 757.5 -815 C 767.48 -815 775.977 -811.69 782.99 -805.06 C 789.997 -798.43 793.5 -790.07 793.5 -779.98 C 793.5 -769.89 789.997 -761.37 782.99 -754.42 C 775.977 -747.47 767.48 -744 757.5 -744 L 686.5 -744 C 709.833 -722.67 731.333 -698.67 751 -672 C 770.667 -645.33 785.833 -618 796.5 -590 C 801.167 -577.33 800.333 -565.17 794 -553.5 C 787.667 -541.83 777.833 -534.5 764.5 -531.5 C 751.833 -528.5 739.667 -530.33 728 -537 C 716.333 -543.67 707.5 -553 701.5 -565 C 693.5 -586.33 683 -605.83 670 -623.5 C 657 -641.17 640.5 -658.33 620.5 -675 Z M 193.46 -515.75 C 160.547 -516.26 129.91 -528.97 106.397 -551.77 C 83.606 -575.31 70.425 -605.86 70.425 -638.76 C 70.425 -653.01 73.067 -668.02 77.6 -680.96 C 82.312 -693.94 89.772 -707.12 98.525 -718.02 L 163.29 -794.92 L 134.493 -853.19 C 132.008 -858.36 130.093 -865.62 130.378 -870.8 C 130.663 -876.22 133.172 -883.23 136.075 -888.15 C 139.26 -892.82 144.178 -898 148.84 -900.57 C 153.527 -903.42 160.547 -904.71 166.191 -904.98 L 363.964 -904.98 C 369.583 -904.71 376.626 -903.42 381.313 -900.57 C 385.975 -898 390.897 -892.82 394.081 -888.15 C 397.009 -883.23 399.519 -876.22 399.779 -870.8 C 400.037 -865.62 398.329 -858.64 395.843 -853.69 L 366.839 -794.92 L 430.696 -718.02 C 439.813 -706.87 447.401 -693.94 452.296 -680.96 C 456.985 -668.02 459.755 -652.75 460.196 -638.76 C 459.677 -605.63 446.96 -575.07 424.043 -551.77 C 400.4 -528.97 369.711 -516.26 336.721 -515.75 Z M 193.46 -586.46 L 336.254 -586.46 C 351.819 -585.95 362.513 -590.34 373.13 -601.73 C 384.499 -612.6 388.435 -623.47 388.435 -638.76 C 388.435 -645.49 387.685 -650.68 385.483 -656.64 C 383.488 -662.34 380.901 -666.73 376.548 -671.92 L 308.287 -754 L 221.431 -754 L 153.683 -671.92 C 149.256 -666.73 146.509 -662.06 144.389 -656.37 C 142.031 -650.18 141.228 -645.22 141.228 -638.76 C 141.228 -623.47 145.187 -612.87 156.688 -602 C 167.46 -590.34 178.104 -585.95 193.46 -586.46 Z M 339.5 -285 L 339.5 -355 C 339.5 -365.08 343.006 -373.43 350.02 -380.06 C 357.033 -386.69 365.566 -390 375.62 -390 C 385.68 -390 394.176 -386.59 401.11 -379.78 C 408.036 -372.96 411.5 -364.37 411.5 -354 L 411.5 -192 C 411.5 -178.67 407 -167.5 398 -158.5 C 389 -149.5 377.5 -145 363.5 -145 L 202.5 -145 C 192.52 -145 184.023 -148.31 177.01 -154.94 C 170.003 -161.57 166.5 -169.93 166.5 -180.02 C 166.5 -190.11 170.003 -198.63 177.01 -205.58 C 184.023 -212.53 192.52 -216 202.5 -216 L 273.5 -216 C 250.166 -237.33 228.666 -261.33 209 -288 C 189.333 -314.67 174.166 -342 163.5 -370 C 158.833 -382.67 159.666 -394.83 166 -406.5 C 172.333 -418.17 182.166 -425.5 195.5 -428.5 C 208.166 -431.5 220.333 -429.67 232 -423 C 243.666 -416.33 252.5 -407 258.5 -395 C 266.5 -373.67 277 -354.17 290 -336.5 C 303 -318.83 319.5 -301.67 339.5 -285 Z M 621.503 -56.39 C 588.59 -56.9 557.953 -69.61 534.44 -92.41 C 511.646 -115.95 498.466 -146.5 498.466 -179.4 C 498.466 -193.65 501.106 -208.66 505.646 -221.6 C 510.356 -234.58 517.816 -247.76 526.568 -258.66 L 591.333 -335.56 L 562.536 -393.81 C 560.051 -399.01 558.136 -406.21 558.421 -411.41 C 558.706 -416.81 561.215 -423.91 564.118 -428.81 C 567.303 -433.41 572.221 -438.61 576.883 -441.21 C 581.57 -444.01 588.59 -445.31 594.234 -445.61 L 792.007 -445.61 C 797.626 -445.31 804.669 -444.01 809.356 -441.21 C 814.018 -438.61 818.94 -433.41 822.124 -428.81 C 825.052 -423.91 827.562 -416.81 827.822 -411.41 C 828.08 -406.21 826.372 -399.31 823.886 -394.31 L 794.882 -335.56 L 858.739 -258.66 C 867.856 -247.51 875.444 -234.58 880.339 -221.6 C 885.028 -208.66 887.798 -193.39 888.239 -179.4 C 887.72 -146.27 875.003 -115.71 852.086 -92.41 C 828.443 -69.61 797.754 -56.9 764.764 -56.39 Z M 621.503 -127.1 L 764.297 -127.1 C 779.862 -126.59 790.556 -130.98 801.173 -142.37 C 812.542 -153.24 816.478 -164.11 816.478 -179.4 C 816.478 -186.13 815.728 -191.32 813.526 -197.28 C 811.531 -202.98 808.944 -207.37 804.591 -212.56 L 736.33 -294.64 L 649.474 -294.64 L 581.726 -212.56 C 577.299 -207.37 574.552 -202.7 572.432 -197.01 C 570.074 -190.82 569.271 -185.86 569.271 -179.4 C 569.271 -164.11 573.23 -153.51 584.731 -142.64 C 595.503 -130.98 606.147 -126.59 621.503 -127.1 Z"/>
</svg>