<?xml version="1.0" encoding="utf-8"?>
<svg xmlns="http://www.w3.org/2000/svg" height="48" viewBox="0 -960 960 960" width="48">
  <path d="M 95.511 -849.47 C 95.511 -856.11 98.279 -860.36 103.803 -862.77 C 109.324 -864.89 114.466 -863.69 119.205 -858.97 L 153.57 -824.6 C 158.946 -819.16 165.631 -816.54 173.614 -817.02 C 181.578 -817.25 188.332 -820.34 193.855 -825.8 L 230.585 -861.35 C 235.963 -866.77 242.644 -869.62 250.633 -869.62 C 258.593 -869.62 265.349 -866.77 270.868 -861.35 L 305.23 -825.8 C 310.611 -820.34 317.296 -817.47 325.278 -817.47 C 333.243 -817.47 339.995 -820.34 345.519 -825.8 L 383.433 -861.35 C 387.888 -866.77 394.24 -869.62 402.508 -869.62 C 410.754 -869.62 417.841 -866.77 423.718 -861.35 L 459.264 -825.8 C 464.645 -820.34 471.326 -817.47 479.314 -817.47 C 487.277 -817.47 494.027 -820.34 499.551 -825.8 L 536.283 -861.35 C 540.738 -866.77 547.088 -869.62 555.358 -869.62 C 563.605 -869.62 570.689 -866.77 576.568 -861.35 L 612.115 -825.8 C 617.495 -820.34 624.176 -817.47 632.161 -817.47 C 640.126 -817.47 646.877 -820.34 652.402 -825.8 L 689.132 -861.35 C 693.583 -866.77 699.935 -869.62 708.209 -869.62 C 716.453 -869.62 723.538 -866.77 729.415 -861.35 L 764.963 -825.8 C 770.34 -820.34 777.023 -817.25 785.011 -817.02 C 792.972 -816.54 799.727 -819.16 805.246 -824.6 L 839.609 -858.97 C 844.346 -863.69 849.681 -864.89 855.605 -862.77 C 861.53 -860.36 864.49 -856.11 864.49 -849.47 L 864.313 -110.41 C 864.313 -103.48 861.542 -99.59 856.076 -97.343 C 850.528 -95 845.368 -96.546 840.668 -101.16 L 806.323 -135.06 C 800.937 -140.45 794.234 -143.54 786.224 -142.77 C 778.291 -142.77 771.518 -139.68 766.046 -134.26 L 729.314 -98.819 C 723.922 -93.477 717.219 -90.385 709.213 -90.385 C 701.278 -90.385 694.505 -93.477 689.037 -98.819 L 654.688 -134.26 C 649.3 -139.68 642.597 -142.77 634.591 -142.77 C 626.656 -142.77 619.879 -139.68 614.415 -134.26 L 576.446 -98.819 C 572.058 -93.477 565.665 -90.385 557.422 -90.385 C 549.18 -90.385 542.097 -93.477 536.171 -98.819 L 500.664 -134.26 C 495.275 -139.68 488.573 -142.77 480.644 -142.77 C 472.634 -142.77 465.935 -139.68 460.389 -134.26 L 423.657 -98.819 C 419.184 -93.477 412.872 -90.385 404.635 -90.385 C 396.314 -90.385 389.233 -93.477 383.38 -98.819 L 347.875 -134.26 C 342.482 -139.68 335.786 -142.77 327.778 -142.77 C 319.844 -142.77 313.065 -139.68 307.6 -134.26 L 270.866 -98.819 C 266.397 -93.477 260.084 -90.385 251.765 -90.385 C 243.528 -90.385 236.44 -93.477 230.59 -98.819 L 195.007 -134.26 C 189.695 -139.68 182.994 -142.77 174.982 -142.77 C 167.053 -143.54 160.278 -140.45 154.73 -135.06 L 120.385 -101.16 C 115.685 -96.546 110.373 -95 104.443 -97.343 C 98.511 -99.59 95.511 -103.48 95.511 -110.41 L 95.511 -849.47 Z M 751.927 -281.24 L 751.927 -717.95 L 206.887 -717.95 L 206.887 -678.77 L 208.1 -678.77 L 208.1 -242.11 L 752.957 -242.11 L 752.957 -281.24 L 751.927 -281.24 Z M 305.23 -594.75 L 654.688 -594.81 C 664.701 -594.81 673.171 -590.97 679.95 -584.77 C 686.806 -577.87 690.193 -569.4 690.193 -559.4 C 690.193 -548.6 686.806 -540.88 679.95 -534.01 C 673.171 -527.02 664.701 -523.95 654.688 -523.95 L 305.23 -523.65 C 295.16 -523.65 286.724 -527.18 279.924 -534.07 C 273.097 -540.71 269.688 -549.24 269.688 -559.42 C 269.688 -569.64 273.097 -577.89 279.924 -584.77 C 286.724 -591.42 295.16 -594.75 305.23 -594.75 Z M 305.23 -435.95 L 654.688 -436.18 C 664.701 -436.18 673.171 -432.34 679.95 -425.39 C 686.806 -419.25 690.193 -410.78 690.193 -400.73 C 690.193 -389.96 686.806 -382.26 679.95 -375.33 C 673.171 -368.39 664.701 -365.32 654.688 -365.32 L 305.23 -364.85 C 295.16 -364.85 286.724 -368.43 279.924 -375.05 C 273.097 -381.9 269.688 -390.45 269.688 -400.65 C 269.688 -410.84 273.097 -419.15 279.924 -426 C 286.724 -432.64 295.16 -435.95 305.23 -435.95 Z" style="stroke-width: 0.05;"/>
</svg>