<?xml version="1.0" encoding="utf-8"?>
<svg xmlns="http://www.w3.org/2000/svg" height="48" viewBox="0 -960 960 960" width="48">
  <path d="M 188.5 -238.5 L 188.5 -494.5 C 188.5 -505.67 192.56 -515.29 200.68 -523.38 C 208.793 -531.46 218.793 -535.5 230.68 -535.5 C 242.56 -535.5 252.333 -531.46 260 -523.38 C 267.667 -515.29 271.5 -505.67 271.5 -494.5 L 271.5 -237.5 C 271.5 -225.67 267.607 -215.88 259.82 -208.13 C 252.04 -200.38 242.207 -196.5 230.32 -196.5 C 218.44 -196.5 208.5 -200.54 200.5 -208.63 C 192.5 -216.71 188.5 -226.67 188.5 -238.5 Z M 442.5 -237.5 L 442.5 -494.5 C 442.5 -505.67 446.56 -515.29 454.68 -523.38 C 462.793 -531.46 472.46 -535.5 483.68 -535.5 C 494.893 -535.5 504.5 -531.46 512.5 -523.38 C 520.5 -515.29 524.5 -505.67 524.5 -494.5 L 524.5 -237.5 C 524.5 -226.33 520.44 -216.71 512.32 -208.63 C 504.207 -200.54 494.54 -196.5 483.32 -196.5 C 472.107 -196.5 462.5 -200.54 454.5 -208.63 C 446.5 -216.71 442.5 -226.33 442.5 -237.5 Z M 101.5 -65.5 C 88.333 -65.5 77.21 -70.06 68.13 -79.18 C 59.043 -88.293 54.5 -99.46 54.5 -112.68 C 54.5 -125.89 59.043 -137 68.13 -146 C 77.21 -155 88.333 -159.5 101.5 -159.5 L 512.465 -159.5 C 525.631 -159.5 536.925 -154.94 546.345 -145.82 C 555.758 -136.71 560.465 -125.54 560.465 -112.32 C 560.465 -99.11 555.758 -88 546.345 -79 C 536.925 -70 525.631 -65.5 512.465 -65.5 Z M 687.5 -422.009 L 687.5 -494.5 C 687.5 -505.67 691.56 -515.29 699.68 -523.38 C 707.793 -531.46 717.793 -535.5 729.68 -535.5 C 741.56 -535.5 751.333 -531.46 759 -523.38 C 766.667 -515.29 770.5 -505.67 770.5 -494.5 L 770.5 -421.009 C 770.5 -409.169 766.607 -399.379 758.82 -391.639 C 751.04 -383.879 741.207 -380.009 729.32 -380.009 C 717.44 -380.009 707.5 -384.049 699.5 -392.139 C 691.5 -400.219 687.5 -410.169 687.5 -422.009 Z M 858.5 -572.5 L 95.5 -572.5 C 83.78 -572.5 74.017 -576.57 66.21 -584.71 C 58.403 -592.85 54.5 -602.45 54.5 -613.5 L 54.5 -642.5 C 54.5 -649.83 56.333 -656.83 60 -663.5 C 63.667 -670.17 68.833 -675.5 75.5 -679.5 L 434.5 -883.5 C 447.947 -890.83 462.947 -894.5 479.5 -894.5 C 496.053 -894.5 511.053 -890.83 524.5 -883.5 L 880.5 -681.5 C 887.833 -676.83 893.833 -670.83 898.5 -663.5 C 903.167 -656.17 905.5 -648 905.5 -639 L 905.5 -620.77 C 905.5 -607.04 901.01 -595.57 892.03 -586.34 C 883.043 -577.11 871.867 -572.5 858.5 -572.5 Z M 252.5 -667.5 L 706.5 -667.5 L 479.5 -799.5 Z M 648.68 -65.5 C 638.812 -65.5 630.485 -68.935 623.686 -75.68 C 616.889 -82.564 613.489 -90.801 613.489 -100.69 L 613.489 -159.09 C 613.489 -163.44 614.357 -167.48 616.11 -171.52 C 617.846 -175.56 620.468 -179.46 623.971 -183.05 L 782.407 -340.88 C 788.053 -346.43 794.267 -350.63 801.065 -353.47 C 807.864 -356.16 814.753 -357.51 821.731 -357.51 C 829.173 -357.51 836.257 -356.02 842.98 -353.02 C 849.72 -350.02 856.084 -345.82 862.073 -340.29 L 889.777 -312.58 C 895.257 -307.19 899.256 -301.05 901.756 -294.32 C 904.243 -287.58 905.5 -280.69 905.5 -273.65 C 905.5 -266.16 904.123 -258.98 901.352 -252.08 C 898.597 -245.2 894.464 -238.9 888.968 -233.22 L 731.791 -75.229 C 728.107 -71.794 724.274 -69.245 720.32 -67.739 C 716.352 -66.246 711.934 -65.5 707.082 -65.5 Z M 669.645 -121.65 L 698.097 -121.65 L 786.45 -210.6 L 784.077 -213.132 L 786.45 -210.76 L 772.972 -224.98 L 758.746 -238.45 L 784.077 -213.132 L 772.972 -224.98 L 758.746 -238.45 L 669.645 -150.41 Z"/>
</svg>