<?xml version="1.0" encoding="utf-8"?>
<svg xmlns="http://www.w3.org/2000/svg" height="48" viewBox="0 -960 960 960" width="48">
  <path d="M 141 -772 C 127.6 -772 116.583 -776.56 107.95 -785.68 C 99.317 -794.793 95 -806.01 95 -819.33 C 95 -832.657 99.543 -843.767 108.63 -852.66 C 117.71 -861.553 128.833 -866 142 -866 L 819 -866 C 832.313 -866 843.477 -861.247 852.49 -851.74 C 861.497 -842.227 866 -830.81 866 -817.49 C 866 -804.17 861.27 -793.257 851.81 -784.75 C 842.357 -776.25 831.087 -772 818 -772 Z M 771 -672 C 797.307 -672 819.717 -662.743 838.23 -644.23 C 856.743 -625.717 866 -603.307 866 -577 L 866 -189 C 866 -162.967 856.743 -140.79 838.23 -122.47 C 819.717 -104.157 797.307 -95 771 -95 L 189 -95 C 162.967 -95 140.79 -104.157 122.47 -122.47 C 104.157 -140.79 95 -162.967 95 -189 L 95 -577 C 95 -603.307 104.157 -625.717 122.47 -644.23 C 140.79 -662.743 162.967 -672 189 -672 Z M 772 -578 L 188 -578 L 188 -188 L 772 -188 Z M 444.781 -321.64 C 441.366 -323.68 437.229 -327.23 435.257 -330.53 C 433.284 -333.83 432.112 -339.16 431.933 -343.12 L 431.933 -424.29 C 432.129 -428.17 433.344 -433.47 435.346 -436.71 C 437.312 -439.89 441.434 -443.39 444.761 -445.4 C 448.245 -447.11 453.314 -448.62 457.055 -448.54 C 460.861 -448.46 465.896 -446.64 469.272 -444.67 L 532.816 -403.95 C 538.753 -399.38 544.231 -390.91 544.231 -383.68 C 544.231 -376.35 538.612 -367.8 532.871 -363.14 L 469.209 -322.33 C 465.896 -320.45 460.869 -318.64 457.094 -318.55 C 453.379 -318.45 448.302 -319.93 444.781 -321.64 Z M 479.874 -222.49 C 458.065 -222.49 436.364 -227 417.081 -235.1 C 397.965 -243.36 380.264 -255.29 365.827 -269.56 C 351.539 -283.98 339.634 -301.64 331.355 -320.74 C 323.246 -340.02 318.791 -361.73 318.791 -383.52 C 318.791 -405.53 323.248 -427.32 331.356 -446.67 C 339.633 -465.77 351.544 -483.44 365.803 -497.82 C 380.178 -511.92 397.843 -523.84 416.913 -532.22 C 436.203 -540.39 457.918 -544.92 479.747 -544.92 C 501.783 -544.92 523.632 -540.45 542.997 -532.22 C 562.146 -523.89 579.768 -511.98 594.076 -497.85 C 608.237 -483.55 620.124 -465.91 628.482 -446.84 C 636.697 -427.47 641.21 -405.63 641.21 -383.52 C 641.21 -361.72 636.685 -339.99 628.464 -320.7 C 620.093 -301.54 608.197 -283.91 594.031 -269.51 C 579.696 -255.3 562.058 -243.36 542.962 -235.1 C 523.706 -227 501.908 -222.49 479.874 -222.49 Z M 479.825 -278.92 C 509.924 -278.92 533.248 -288.07 553.949 -309.36 C 575.277 -330.1 584.429 -353.37 584.429 -383.52 C 584.429 -413.63 575.274 -436.97 553.944 -457.69 C 533.262 -479.03 509.874 -488.13 479.649 -488.13 C 449.656 -488.13 426.387 -479.03 405.704 -457.69 C 384.37 -436.97 375.219 -413.63 375.219 -383.39 C 375.219 -353.43 384.357 -330.15 405.663 -309.43 C 426.328 -288.07 449.661 -278.92 479.825 -278.92 Z"/>
</svg>