<?xml version="1.0" encoding="utf-8"?>
<svg clip-rule="evenodd" fill-rule="evenodd" stroke-linejoin="round" stroke-miterlimit="2" viewBox="0 0 48 48" xmlns="http://www.w3.org/2000/svg">
  <path d="M 25.246 1.464 L 27.737 3.905 L 31.114 3.036 C 32.053 2.795 33.012 3.349 33.272 4.283 L 34.209 7.641 L 37.568 8.579 C 38.502 8.839 39.056 9.798 38.815 10.737 L 37.946 14.114 L 40.387 16.605 C 41.065 17.297 41.065 18.405 40.387 19.097 L 37.946 21.588 L 38.815 24.965 C 39.056 25.904 38.502 26.863 37.568 27.123 L 34.209 28.06 L 33.272 31.419 C 33.012 32.353 32.053 32.907 31.114 32.665 L 27.737 31.797 L 25.246 34.237 C 24.554 34.916 23.446 34.916 22.754 34.237 L 20.263 31.797 L 16.886 32.665 C 15.947 32.907 14.988 32.353 14.728 31.419 L 13.791 28.06 L 10.432 27.123 C 9.498 26.863 8.944 25.904 9.185 24.965 L 10.054 21.588 L 7.614 19.097 C 6.935 18.405 6.935 17.297 7.614 16.605 L 10.054 14.114 L 9.185 10.737 C 8.944 9.798 9.498 8.839 10.432 8.579 L 13.791 7.641 L 14.728 4.283 C 14.988 3.349 15.947 2.795 16.886 3.036 L 20.263 3.905 L 22.754 1.464 C 23.446 0.786 24.554 0.786 25.246 1.464 Z M 24 5.228 L 22.038 7.151 C 21.593 7.588 20.952 7.759 20.349 7.603 L 17.689 6.919 L 16.951 9.564 C 16.783 10.166 16.315 10.634 15.714 10.802 L 13.068 11.539 L 13.752 14.2 C 13.908 14.803 13.737 15.444 13.3 15.889 L 11.377 17.851 L 13.3 19.813 C 13.737 20.258 13.908 20.899 13.752 21.502 L 13.068 24.162 L 15.714 24.9 C 16.315 25.068 16.783 25.536 16.951 26.137 L 17.689 28.783 L 20.349 28.099 C 20.952 27.943 21.593 28.114 22.038 28.551 L 24 30.474 L 25.962 28.551 C 26.407 28.114 27.048 27.943 27.651 28.099 L 30.311 28.783 L 31.049 26.137 C 31.217 25.536 31.685 25.068 32.286 24.9 L 34.932 24.162 L 34.248 21.502 C 34.092 20.899 34.263 20.258 34.7 19.813 L 36.623 17.851 L 34.7 15.889 C 34.263 15.444 34.092 14.803 34.248 14.2 L 34.932 11.539 L 32.286 10.802 C 31.685 10.634 31.217 10.166 31.049 9.564 L 30.311 6.919 L 27.651 7.603 C 27.048 7.759 26.407 7.588 25.962 7.151 Z M 28.877 34.948 C 29.339 34.908 29.798 35.064 30.14 35.378 C 30.483 35.693 30.678 36.137 30.678 36.6 L 30.678 43.98 C 30.678 46.531 27.737 47.962 25.73 46.388 L 24 45.092 L 22.27 46.388 C 20.263 47.962 17.322 46.531 17.322 43.98 L 17.322 36.6 C 17.322 36.137 17.517 35.693 17.86 35.378 C 18.201 35.064 18.659 34.908 19.123 34.948 L 19.214 34.955 C 20.016 35.023 20.633 35.693 20.633 36.5 L 20.633 43.473 L 23.234 41.478 C 23.686 41.132 24.314 41.132 24.766 41.478 L 27.367 43.473 L 27.367 36.589 C 27.367 35.734 28.024 35.02 28.877 34.948 Z M 19.361 19.34 C 18.837 19.34 18.386 19.151 18.006 18.774 C 17.627 18.397 17.438 17.94 17.438 17.404 C 17.438 16.867 17.627 16.405 18.006 16.018 C 18.386 15.63 18.837 15.437 19.361 15.437 L 22.077 15.437 L 22.077 12.778 C 22.077 12.238 22.256 11.773 22.614 11.383 C 22.972 10.993 23.431 10.798 23.99 10.798 C 24.533 10.798 25 10.993 25.392 11.383 C 25.784 11.773 25.98 12.238 25.98 12.778 L 25.98 15.437 L 28.639 15.437 C 29.163 15.437 29.614 15.629 29.994 16.014 C 30.373 16.399 30.562 16.863 30.562 17.406 C 30.562 17.934 30.373 18.388 29.994 18.769 C 29.614 19.15 29.163 19.34 28.639 19.34 L 25.98 19.34 L 25.98 21.999 C 25.98 22.539 25.791 23.004 25.414 23.394 C 25.037 23.784 24.569 23.979 24.01 23.979 C 23.451 23.979 22.989 23.784 22.624 23.394 C 22.259 23.004 22.077 22.539 22.077 21.999 L 22.077 19.34 Z"/>
</svg>