<?xml version="1.0" encoding="utf-8"?>
<svg xmlns="http://www.w3.org/2000/svg" height="48" viewBox="0 -960 960 960" width="48">
  <path d="M 149 -95 C 122.967 -95 100.79 -104.157 82.47 -122.47 C 64.157 -140.79 55 -162.967 55 -189 L 55 -639 C 55 -665.307 64.157 -687.717 82.47 -706.23 C 100.79 -724.743 122.967 -734 149 -734 L 297 -734 L 297 -834 C 297 -859.333 306.16 -881.333 324.48 -900 C 342.793 -918.667 364.967 -928 391 -928 L 569 -928 C 595.033 -928 617.21 -918.667 635.53 -900 C 653.843 -881.333 663 -859.333 663 -834 L 663 -734 L 811 -734 C 837.307 -734 859.717 -724.743 878.23 -706.23 C 896.743 -687.717 906 -665.307 906 -639 L 906 -189 C 906 -162.967 896.743 -140.79 878.23 -122.47 C 859.717 -104.157 837.307 -95 811 -95 Z M 149 -189 L 811 -189 L 811 -639 L 149 -639 Z M 391 -734 L 569 -734 L 569 -834 L 391 -834 Z M 412.385 -242.6 C 383.844 -242.6 359.555 -252.69 339.5 -272.64 C 319.436 -292.71 309.414 -317.02 309.414 -345.58 C 309.414 -357.93 311.411 -369.8 315.405 -381.02 C 319.401 -392.25 325.208 -402.49 332.835 -411.86 L 399.126 -490.52 L 368.19 -553.28 C 364.655 -560.08 364.982 -566.8 369.181 -573.42 C 373.379 -580.08 379.239 -583.33 386.752 -583.33 L 572.807 -583.33 C 580.32 -583.33 586.171 -580.08 590.37 -573.42 C 594.567 -566.8 594.904 -560.08 591.367 -553.28 L 560.432 -490.52 L 625.839 -411.86 C 633.794 -402.49 639.83 -392.15 643.957 -380.92 C 648.077 -369.7 650.286 -357.93 650.586 -345.58 C 650.586 -317.02 640.503 -292.71 620.351 -272.64 C 600.189 -252.69 575.803 -242.6 547.174 -242.6 Z"/>
</svg>