<?xml version="1.0" encoding="utf-8"?>
<svg xmlns="http://www.w3.org/2000/svg" height="48" viewBox="0 -960 960 960" width="48">
  <path d="M 854 -166 L 854 -815 L 106 -815 L 106 -519 C 106 -505.167 101.44 -493.71 92.32 -484.63 C 83.207 -475.543 72.04 -471 58.82 -471 C 45.607 -471 34.5 -475.543 25.5 -484.63 C 16.5 -493.71 12 -505.167 12 -519 L 12 -815 C 12 -840.847 21.203 -862.977 39.61 -881.39 C 58.017 -899.797 80.147 -909 106 -909 L 854 -909 C 880.127 -909 902.49 -899.797 921.09 -881.39 C 939.697 -862.977 949 -840.847 949 -815 L 949 -252 C 949 -229.713 939.83 -210.31 921.49 -193.79 C 903.143 -177.263 880.647 -168 854 -166 Z M 355.8 -397 C 304.327 -397 262.493 -413.267 230.3 -445.8 C 198.1 -478.327 182 -520.327 182 -571.8 C 182 -623.267 198.1 -665.333 230.3 -698 C 262.493 -730.667 304.327 -747 355.8 -747 C 407.267 -747 449.5 -730.667 482.5 -698 C 515.5 -665.333 532 -623.267 532 -571.8 C 532 -520.327 515.5 -478.327 482.5 -445.8 C 449.5 -413.267 407.267 -397 355.8 -397 Z M 356 -491 C 380.033 -491 399.54 -498.6 414.52 -513.8 C 429.507 -528.993 437 -548.327 437 -571.8 C 437 -595.267 429.513 -614.5 414.54 -629.5 C 399.56 -644.5 380.227 -652 356.54 -652 C 332.847 -652 313.5 -644.497 298.5 -629.49 C 283.5 -614.477 276 -595.37 276 -572.17 C 276 -548.69 283.52 -529.29 298.56 -513.97 C 313.607 -498.657 332.753 -491 356 -491 Z M 106 -25 C 79.467 -25 57.167 -34.033 39.1 -52.1 C 21.033 -70.167 12 -92.467 12 -119 L 12 -146 C 12 -175.56 19.5 -201.45 34.5 -223.67 C 49.5 -245.89 69 -262.333 93 -273 C 139 -294.333 183.49 -310.167 226.47 -320.5 C 269.457 -330.833 312.64 -336 356.02 -336 C 400.673 -336 444.333 -330.667 487 -320 C 529.667 -309.333 573.64 -293.937 618.92 -273.81 C 644.453 -263.057 664.683 -246.567 679.61 -224.34 C 694.537 -202.113 702 -176 702 -146 L 702 -119 C 702 -92.467 692.87 -70.167 674.61 -52.1 C 656.343 -34.033 633.807 -25 607 -25 Z M 106 -119 L 607 -119 L 607 -142 C 607 -151.353 603.833 -160.933 597.5 -170.74 C 591.167 -180.54 583.29 -187.653 573.87 -192.08 C 534.703 -210.387 498.193 -223.117 464.34 -230.27 C 430.493 -237.423 394.31 -241 355.79 -241 C 318.39 -241 282.407 -237.5 247.84 -230.5 C 213.28 -223.5 176.81 -210.72 138.43 -192.16 C 128.81 -187.68 121 -180.54 115 -170.74 C 109 -160.933 106 -151.353 106 -142 Z M 601.549 -439.75 C 592.924 -444.3 588.592 -451.37 588.592 -461.3 L 588.592 -677.97 C 588.592 -687.93 592.924 -695.17 601.549 -699.95 C 610.195 -704.5 618.654 -704.1 626.948 -698.69 L 787.625 -590.88 C 794.551 -585.7 797.992 -578.65 797.992 -569.75 C 797.992 -560.81 794.654 -554.2 787.978 -549.62 L 626.948 -442.64 C 618.654 -436.43 610.195 -435.4 601.549 -439.75 Z"/>
</svg>