<?xml version="1.0" encoding="utf-8"?>
<svg xmlns="http://www.w3.org/2000/svg" height="48" viewBox="0 -960 960 960" width="48">
  <path d="M 189 -510 C 163.147 -510 141.017 -519.213 122.61 -537.64 C 104.203 -556.067 95 -578.52 95 -605 L 95 -771 C 95 -797.127 104.203 -819.49 122.61 -838.09 C 141.017 -856.697 163.147 -866 189 -866 L 356 -866 C 381.847 -866 403.977 -856.697 422.39 -838.09 C 440.797 -819.49 450 -797.127 450 -771 L 450 -605 C 450 -578.52 440.797 -556.067 422.39 -537.64 C 403.977 -519.213 381.847 -510 356 -510 L 189 -510 Z M 189 -95 C 163.147 -95 141.017 -104.203 122.61 -122.61 C 104.203 -141.017 95 -163.147 95 -189 L 95 -356 C 95 -381.847 104.203 -403.977 122.61 -422.39 C 141.017 -440.797 163.147 -450 189 -450 L 356 -450 C 381.847 -450 403.977 -440.797 422.39 -422.39 C 440.797 -403.977 450 -381.847 450 -356 L 450 -189 C 450 -163.147 440.797 -141.017 422.39 -122.61 C 403.977 -104.203 381.847 -95 356 -95 L 189 -95 Z M 605 -510 C 578.52 -510 556.067 -519.213 537.64 -537.64 C 519.213 -556.067 510 -578.52 510 -605 L 510 -771 C 510 -797.127 519.213 -819.49 537.64 -838.09 C 556.067 -856.697 578.52 -866 605 -866 L 771 -866 C 797.127 -866 819.49 -856.697 838.09 -838.09 C 856.697 -819.49 866 -797.127 866 -771 L 866 -605 C 866 -578.52 856.697 -556.067 838.09 -537.64 C 819.49 -519.213 797.127 -510 771 -510 L 605 -510 Z M 605 -95 C 578.52 -95 556.067 -104.203 537.64 -122.61 C 519.213 -141.017 510 -163.147 510 -189 L 510 -356 C 510 -381.847 519.213 -403.977 537.64 -422.39 C 556.067 -440.797 578.52 -450 605 -450 L 771 -450 C 797.127 -450 819.49 -440.797 838.09 -422.39 C 856.697 -403.977 866 -381.847 866 -356 L 866 -189 C 866 -163.147 856.697 -141.017 838.09 -122.61 C 819.49 -104.203 797.127 -95 771 -95 L 605 -95 Z M 605 -605 L 771 -605 L 771 -771 L 605 -771 L 605 -605 Z M 189 -189 L 356 -189 L 356 -356 L 189 -356 L 189 -189 Z M 605 -605 Z M 605 -356 Z M 356 -356 Z M 356 -605 Z"/>
</svg>