<?xml version="1.0" encoding="utf-8"?>
<svg xmlns="http://www.w3.org/2000/svg" height="48" viewBox="0 -960 960 960" width="48">
  <path d="M 806.483 -24.948 L 566.89 -24.948 C 552.562 -25.336 538.449 -31.167 528.09 -40.98 C 518.267 -51.349 512.436 -65.443 512.059 -79.784 L 512.059 -395.74 C 512.429 -410.19 518.242 -424.38 528.054 -434.83 C 538.424 -444.76 552.551 -450.65 566.89 -451.04 L 711.505 -451.04 C 718.767 -450.93 726.748 -449.22 733.404 -446.34 C 739.802 -443.37 746.163 -439 751.008 -434.29 L 845.032 -340.26 C 849.755 -335.41 854.117 -329.04 857.092 -322.65 C 859.965 -316.02 861.681 -308.05 861.791 -300.77 L 861.791 -79.784 C 861.407 -65.443 855.502 -51.296 845.576 -40.936 C 835.124 -31.132 820.927 -25.318 806.483 -24.948 Z M 796.518 -89.756 L 796.518 -295.73 L 706.23 -385.78 L 576.855 -385.78 L 576.855 -89.756 L 796.518 -89.756 Z M 114.425 -40.892 C 104.494 -51.155 98.588 -65.39 98.208 -79.634 L 98.208 -300.84 C 98.322 -308.05 100.031 -316.04 102.898 -322.67 C 105.879 -329.14 110.247 -335.41 114.974 -340.33 L 209.024 -434.32 C 213.865 -439.08 220.226 -443.44 226.644 -446.47 C 233.29 -449.33 241.283 -451.04 248.538 -451.04 L 393.208 -451.04 C 407.545 -450.65 421.671 -444.77 432.059 -434.9 C 441.874 -424.45 447.686 -410.2 448.046 -395.78 L 448.046 -79.634 C 447.666 -65.39 441.837 -51.34 432.02 -40.892 C 421.652 -31.017 407.545 -25.133 393.208 -24.948 L 153.539 -24.948 C 139.089 -25.133 124.887 -31.017 114.425 -40.892 Z M 383.24 -89.694 L 383.24 -385.71 L 253.816 -385.71 L 163.508 -295.72 L 163.508 -89.694 L 383.24 -89.694 Z M 599.557 -508.93 L 359.964 -508.93 C 345.635 -509.31 331.522 -515.15 321.164 -524.96 C 311.341 -535.33 305.51 -549.43 305.133 -563.77 L 305.133 -879.72 C 305.503 -894.17 311.315 -908.35 321.128 -918.84 C 331.497 -928.8 345.625 -934.69 359.964 -935.05 L 504.579 -935.05 C 511.84 -934.97 519.822 -933.2 526.477 -930.38 C 532.876 -927.39 539.236 -922.99 544.081 -918.32 L 638.106 -824.23 C 642.828 -819.38 647.191 -813.05 650.165 -806.71 C 653.039 -800 654.754 -792.07 654.864 -784.77 L 654.864 -563.77 C 654.48 -549.43 648.575 -535.27 638.649 -524.92 C 628.198 -515.12 614.001 -509.3 599.557 -508.93 Z M 589.591 -573.73 L 589.591 -779.74 L 499.304 -869.78 L 369.929 -869.78 L 369.929 -573.73 L 589.591 -573.73 Z" style="stroke-width: 21px;"/>
</svg>