<?xml version="1.0" encoding="utf-8"?>
<svg xmlns="http://www.w3.org/2000/svg" height="48" viewBox="0 -960 960 960" width="48">
  <path d="M 224 -95 C 199.92 -95 177.57 -102.82 156.95 -118.46 C 136.33 -134.107 122.68 -153.287 116 -176 C 99.333 -232 85.8 -280.32 75.4 -320.96 C 65 -361.607 56.71 -397.503 50.53 -428.65 C 44.357 -459.79 40.06 -487.217 37.64 -510.93 C 35.213 -534.637 34 -557.66 34 -580 C 34 -648.147 57.767 -706.183 105.3 -754.11 C 152.833 -802.037 210.767 -826 279.1 -826 L 504.48 -826 C 524.16 -850 548.96 -869.333 578.88 -884 C 608.793 -898.667 641.167 -906 676 -906 C 702 -906 722.667 -897.833 738 -881.5 C 753.333 -865.167 761 -845.333 761 -822 C 761 -816.953 760.5 -811.91 759.5 -806.87 C 758.5 -801.823 757.333 -797.2 756 -793 C 754 -788.333 752.167 -783.247 750.5 -777.74 C 748.833 -772.24 747.333 -765.993 746 -759 L 819 -686 L 879 -686 C 892.167 -686 903.293 -681.27 912.38 -671.81 C 921.46 -662.357 926 -651.087 926 -638 L 926 -398 C 926 -386.967 923 -377.21 917 -368.73 C 911 -360.243 903 -354.667 893 -352 L 803.07 -323.7 L 755 -162 C 749.167 -142.327 737.933 -126.243 721.3 -113.75 C 704.66 -101.25 685.56 -95 664 -95 L 566 -95 C 543.7 -95 523.623 -100.71 505.77 -112.13 C 487.923 -123.543 476.333 -137.833 471 -155 L 471 -175 L 403 -175 L 403 -155 C 397.667 -137.833 386.173 -123.543 368.52 -112.13 C 350.867 -100.71 331.027 -95 309 -95 Z M 211 -189 L 314 -189 L 314 -269 L 560 -269 L 560 -189 L 663 -189 L 725.61 -397.86 L 831 -431 L 831 -591 L 779 -591 L 651 -719 C 651.667 -729 653.5 -742.167 656.5 -758.5 C 659.5 -774.833 663.667 -793.333 669 -814 C 642.333 -806 618.333 -794.333 597 -779 C 575.667 -763.667 559.823 -747.667 549.47 -731 L 279 -731 C 237.293 -731 201.7 -716.25 172.22 -686.75 C 142.74 -657.25 128 -621.637 128 -579.91 C 128 -551.99 135.167 -503.857 149.5 -435.51 C 163.833 -367.17 184.333 -285 211 -189 Z M 329.45 -583 C 317.317 -583 307.21 -587 299.13 -595 C 291.043 -603 287 -612.877 287 -624.63 C 287 -636.637 290.813 -646.7 298.44 -654.82 C 306.067 -662.94 316.07 -667 328.45 -667 L 476.55 -667 C 488.937 -667 499.107 -662.937 507.06 -654.81 C 515.02 -646.677 519 -636.733 519 -624.98 C 519 -613.227 515.02 -603.293 507.06 -595.18 C 499.107 -587.06 488.937 -583 476.55 -583 Z M 670.992 -617.15 C 671.948 -618.16 672.938 -619 673.961 -619.84 C 678.658 -623.53 684.111 -625.38 690.435 -625.38 C 690.67 -625.54 690.888 -625.54 691.123 -625.54 C 691.576 -625.54 692.012 -625.38 692.448 -625.38 C 699.494 -625.21 705.601 -622.69 710.835 -617.66 C 711.036 -617.49 711.254 -617.32 711.456 -616.99 C 717.092 -611.45 719.944 -604.57 720.028 -596.52 C 720.112 -588.47 717.411 -581.76 711.909 -576.22 L 683.44 -547.87 L 711.321 -519.85 C 716.992 -514.32 719.978 -507.44 720.313 -499.72 C 720.649 -491.84 717.881 -484.96 712.026 -479.09 C 712.009 -479.09 711.992 -479.09 711.992 -479.09 C 706.305 -473.38 699.36 -470.53 691.19 -470.53 C 683.473 -470.53 676.88 -473.05 671.394 -478.08 C 671.059 -478.25 670.723 -478.58 670.388 -478.92 L 642.523 -506.94 L 614.641 -478.92 C 609.138 -473.55 602.394 -470.7 594.375 -470.87 C 586.406 -470.87 579.578 -473.72 573.908 -479.42 C 573.841 -479.42 573.774 -479.42 573.707 -479.59 C 568.255 -484.96 565.487 -491.67 565.436 -499.72 C 565.386 -506.6 567.466 -512.47 571.492 -517.51 C 572.18 -518.34 572.918 -519.18 573.707 -519.85 L 601.589 -547.87 L 573.589 -575.72 C 568.02 -581.42 565.134 -588.13 564.933 -596.35 C 564.866 -604.24 567.634 -611.28 573.489 -617.15 C 579.344 -623.03 586.339 -625.71 594.19 -625.54 C 602.142 -625.21 608.903 -622.36 614.456 -616.82 C 614.523 -616.65 614.573 -616.65 614.641 -616.65 L 642.523 -588.8 Z"/>
</svg>