<?xml version="1.0" encoding="utf-8"?>
<svg xmlns="http://www.w3.org/2000/svg" height="48" viewBox="0 -960 960 960" width="48">
  <path d="M 189 -95 C 162.467 -95 140.167 -104.033 122.1 -122.1 C 104.033 -140.167 95 -162.467 95 -189 L 95 -771 C 95 -797.807 104.033 -820.343 122.1 -838.61 C 140.167 -856.87 162.467 -866 189 -866 L 771 -866 C 797.807 -866 820.343 -856.87 838.61 -838.61 C 856.87 -820.343 866 -797.807 866 -771 L 866 -638.617 C 873.06 -635.058 879.647 -630.249 885.76 -624.191 C 900.587 -609.504 908 -592.181 908 -572.221 L 908 -386.628 C 908 -366.621 900.587 -349.495 885.76 -335.248 C 879.647 -329.371 873.06 -324.707 866 -321.254 L 866 -189 C 866 -162.467 856.87 -140.167 838.61 -122.1 C 820.343 -104.033 797.807 -95 771 -95 L 189 -95 Z M 771 -771 L 189 -771 L 189 -189 L 771 -189 L 771 -313.878 L 540 -313.878 C 519.1 -313.878 501.21 -320.885 486.33 -334.898 C 471.443 -348.905 464 -366.315 464 -387.128 L 464 -572.221 C 464 -592.181 471.443 -609.504 486.33 -624.191 C 501.21 -638.878 519.1 -646.221 540 -646.221 L 771 -646.221 L 771 -771 Z M 848 -373.878 L 848 -586.221 L 524 -586.221 L 524 -373.878 L 848 -373.878 Z M 556.458 -281.79 L 623.432 -281.79 C 640.685 -281.79 654.671 -267.804 654.672 -250.551 C 654.672 -233.298 640.685 -219.311 623.432 -219.311 L 612.052 -219.311 L 612.052 -219.31 L 386.593 -219.31 C 343.242 -219.31 306.349 -234.49 275.887 -264.96 C 245.41 -295.44 230.186 -332.22 230.186 -375.58 C 230.186 -394.37 233.22 -412.37 239.289 -429.42 C 245.356 -446.46 254.177 -462.17 265.764 -476.4 L 366.454 -595.89 L 319.465 -691.21 C 314.096 -701.42 314.591 -711.61 320.97 -721.68 C 327.346 -731.76 336.247 -736.86 347.659 -736.86 L 605.745 -736.86 C 623.172 -736.86 637.299 -722.733 637.299 -705.306 C 637.299 -687.879 623.172 -673.752 605.745 -673.752 L 549.418 -673.752 L 549.418 -673.75 L 398.004 -673.75 L 423.513 -622.74 L 424.465 -566.634 L 314.82 -435.46 C 307.625 -426.85 302.119 -417.61 298.319 -407.4 C 294.508 -397.19 292.614 -386.72 292.614 -375.71 C 292.614 -350.06 301.865 -327.91 320.364 -309.38 C 338.878 -291 360.949 -281.74 386.593 -281.74 L 554.676 -281.74 C 555.265 -281.773 555.86 -281.79 556.458 -281.79 Z M 629.629 -504.77 L 743.886 -504.89 C 750.584 -504.77 756.333 -502.62 761.183 -498.18 C 766.033 -493.75 768.477 -488.05 768.477 -481.09 C 768.477 -481.09 768.464 -481.09 768.451 -481.09 C 768.464 -474.38 766.058 -468.55 761.22 -463.73 C 756.662 -459.17 751.268 -456.77 745.063 -456.52 C 744.671 -456.52 744.265 -456.52 743.874 -456.52 L 629.464 -456.52 C 622.906 -456.52 617.131 -458.8 612.256 -463.49 C 607.444 -468.16 604.912 -473.99 604.912 -480.96 C 605.001 -487.8 607.457 -493.5 612.294 -497.93 C 617.183 -502.49 622.867 -504.77 629.427 -504.77 C 629.453 -504.89 629.591 -504.77 629.629 -504.77 Z"/>
</svg>