<?xml version="1.0" encoding="utf-8"?>
<svg xmlns="http://www.w3.org/2000/svg" height="48" viewBox="0 -960 960 960" width="48">
  <path d="M 189 -95 C 162.467 -95 140.167 -104.033 122.1 -122.1 C 104.033 -140.167 95 -162.467 95 -189 L 95 -771 C 95 -797.807 104.033 -820.343 122.1 -838.61 C 140.167 -856.87 162.467 -866 189 -866 L 771 -866 C 797.807 -866 820.343 -856.87 838.61 -838.61 C 856.87 -820.343 866 -797.807 866 -771 L 866 -638.617 C 873.06 -635.058 879.647 -630.249 885.76 -624.191 C 900.587 -609.504 908 -592.181 908 -572.221 L 908 -386.628 C 908 -366.621 900.587 -349.495 885.76 -335.248 C 879.647 -329.371 873.06 -324.707 866 -321.254 L 866 -189 C 866 -162.467 856.87 -140.167 838.61 -122.1 C 820.343 -104.033 797.807 -95 771 -95 Z M 771 -771 L 189 -771 L 189 -189 L 771 -189 L 771 -313.878 L 540 -313.878 C 519.1 -313.878 501.21 -320.885 486.33 -334.898 C 471.443 -348.905 464 -366.315 464 -387.128 L 464 -572.221 C 464 -592.181 471.443 -609.504 486.33 -624.191 C 501.21 -638.878 519.1 -646.221 540 -646.221 L 771 -646.221 Z M 848 -373.878 L 848 -586.221 L 524 -586.221 L 524 -373.878 Z M 556.458 -281.79 L 623.432 -281.79 C 640.685 -281.79 654.671 -267.804 654.672 -250.551 C 654.672 -233.298 640.685 -219.311 623.432 -219.311 L 612.052 -219.311 L 612.052 -219.31 L 386.593 -219.31 C 343.242 -219.31 306.349 -234.49 275.887 -264.96 C 245.41 -295.44 230.186 -332.22 230.186 -375.58 C 230.186 -394.37 233.22 -412.37 239.289 -429.42 C 245.356 -446.46 254.177 -462.17 265.764 -476.4 L 366.454 -595.89 L 319.465 -691.21 C 314.096 -701.42 314.591 -711.61 320.97 -721.68 C 327.346 -731.76 336.247 -736.86 347.659 -736.86 L 605.745 -736.86 C 623.172 -736.86 637.299 -722.733 637.299 -705.306 C 637.299 -687.879 623.172 -673.752 605.745 -673.752 L 549.418 -673.752 L 549.418 -673.75 L 398.004 -673.75 L 423.513 -622.74 L 424.465 -566.634 L 314.82 -435.46 C 307.625 -426.85 302.119 -417.61 298.319 -407.4 C 294.508 -397.19 292.614 -386.72 292.614 -375.71 C 292.614 -350.06 301.865 -327.91 320.364 -309.38 C 338.878 -291 360.949 -281.74 386.593 -281.74 L 554.676 -281.74 C 555.265 -281.773 555.86 -281.79 556.458 -281.79 Z M 620.737 -398.96 C 611.04 -398.96 603.232 -401.84 597.276 -407.77 C 591.321 -413.53 588.352 -421.45 588.352 -431.16 C 588.352 -440.33 591.446 -448.07 597.653 -454.38 C 603.86 -460.48 611.561 -463.54 620.737 -463.54 L 752.242 -463.54 C 761.921 -463.54 769.749 -460.48 775.703 -454.38 C 781.641 -448.25 784.627 -440.33 784.627 -430.98 C 784.627 -421.62 781.515 -413.9 775.309 -407.77 C 769.101 -401.84 761.419 -398.96 752.242 -398.96 Z M 620.737 -498.71 C 611.04 -498.71 603.232 -501.78 597.276 -507.53 C 591.321 -513.46 588.352 -521.38 588.352 -531.09 C 588.352 -540.28 591.446 -548 597.653 -554.3 C 603.86 -560.43 611.561 -563.66 620.737 -563.66 L 752.242 -563.66 C 761.921 -563.66 769.749 -560.43 775.703 -554.3 C 781.641 -548.18 784.627 -540.28 784.627 -530.92 C 784.627 -521.38 781.515 -513.82 775.309 -507.71 C 769.101 -501.78 761.419 -498.71 752.242 -498.71 Z"/>
</svg>