<?xml version="1.0" encoding="utf-8"?>
<svg xmlns="http://www.w3.org/2000/svg" height="48" viewBox="0 -960 960 960" width="48">
  <path d="M 189 -95 C 162.467 -95 140.167 -104.033 122.1 -122.1 C 104.033 -140.167 95 -162.467 95 -189 L 95 -771 C 95 -797.807 104.033 -820.343 122.1 -838.61 C 140.167 -856.87 162.467 -866 189 -866 L 771 -866 C 797.807 -866 820.343 -856.87 838.61 -838.61 C 856.87 -820.343 866 -797.807 866 -771 L 866 -638.617 C 873.06 -635.058 879.647 -630.249 885.76 -624.191 C 900.587 -609.504 908 -592.181 908 -572.221 L 908 -386.628 C 908 -366.621 900.587 -349.495 885.76 -335.248 C 879.647 -329.371 873.06 -324.707 866 -321.254 L 866 -189 C 866 -162.467 856.87 -140.167 838.61 -122.1 C 820.343 -104.033 797.807 -95 771 -95 Z M 771 -771 L 189 -771 L 189 -189 L 771 -189 L 771 -313.878 L 540 -313.878 C 519.1 -313.878 501.21 -320.885 486.33 -334.898 C 471.443 -348.905 464 -366.315 464 -387.128 L 464 -572.221 C 464 -592.181 471.443 -609.504 486.33 -624.191 C 501.21 -638.878 519.1 -646.221 540 -646.221 L 771 -646.221 Z M 848 -373.878 L 848 -586.221 L 524 -586.221 L 524 -373.878 Z M 556.458 -281.79 L 623.432 -281.79 C 640.685 -281.79 654.671 -267.804 654.672 -250.551 C 654.672 -233.298 640.685 -219.311 623.432 -219.311 L 612.052 -219.311 L 612.052 -219.31 L 386.593 -219.31 C 343.242 -219.31 306.349 -234.49 275.887 -264.96 C 245.41 -295.44 230.186 -332.22 230.186 -375.58 C 230.186 -394.37 233.22 -412.37 239.289 -429.42 C 245.356 -446.46 254.177 -462.17 265.764 -476.4 L 366.454 -595.89 L 319.465 -691.21 C 314.096 -701.42 314.591 -711.61 320.97 -721.68 C 327.346 -731.76 336.247 -736.86 347.659 -736.86 L 605.745 -736.86 C 623.172 -736.86 637.299 -722.733 637.299 -705.306 C 637.299 -687.879 623.172 -673.752 605.745 -673.752 L 549.418 -673.752 L 549.418 -673.75 L 398.004 -673.75 L 423.513 -622.74 L 424.465 -566.634 L 314.82 -435.46 C 307.625 -426.85 302.119 -417.61 298.319 -407.4 C 294.508 -397.19 292.614 -386.72 292.614 -375.71 C 292.614 -350.06 301.865 -327.91 320.364 -309.38 C 338.878 -291 360.949 -281.74 386.593 -281.74 L 554.676 -281.74 C 555.265 -281.773 555.86 -281.79 556.458 -281.79 Z M 712.578 -542.153 C 713.403 -542.884 714.251 -543.577 715.262 -544.434 C 719.446 -547.688 724.661 -549.587 730.257 -549.576 C 730.522 -549.623 730.786 -549.67 730.894 -549.562 C 731.406 -549.672 731.756 -549.619 732.114 -549.573 C 738.588 -549.293 744.25 -547.053 748.943 -542.36 C 749.114 -542.189 749.284 -542.019 749.619 -541.981 C 754.66 -536.643 757.395 -530.486 757.339 -523.117 C 757.493 -515.835 754.917 -509.417 749.976 -504.445 L 723.892 -478.485 L 749.407 -452.97 C 754.597 -447.78 757.355 -441.614 757.696 -434.456 C 758.052 -427.284 755.445 -420.896 750.022 -415.473 L 750.006 -415.488 C 744.894 -410.376 738.545 -407.745 731.076 -407.774 C 723.98 -407.743 717.953 -410.051 712.986 -414.72 C 712.692 -415.015 712.367 -415.34 712.072 -415.635 L 686.557 -441.15 L 660.839 -415.432 C 655.891 -410.453 649.697 -407.977 642.307 -407.929 C 635.024 -408.084 628.796 -410.593 623.591 -415.798 C 623.482 -415.907 623.451 -415.938 623.435 -415.954 C 618.401 -420.988 615.922 -427.186 615.908 -434.639 C 615.768 -440.663 617.752 -446.117 621.333 -450.598 C 622.026 -451.445 622.742 -452.285 623.364 -452.908 L 649.082 -478.625 L 623.443 -504.264 C 618.361 -509.346 615.596 -515.504 615.38 -522.848 C 615.366 -530.301 617.911 -536.751 623.327 -542.167 C 628.657 -547.373 634.905 -549.809 642.218 -549.624 C 649.405 -549.252 655.681 -546.696 660.762 -541.615 C 660.778 -541.599 660.886 -541.491 660.917 -541.46 L 686.417 -515.96 Z"/>
</svg>