<?xml version="1.0" encoding="utf-8"?>
<svg xmlns="http://www.w3.org/2000/svg" height="48" viewBox="0 -960 960 960" width="48">
  <path d="M 598 -182 L 598 -217 L 527 -217 C 501.167 -217 479.043 -226.033 460.63 -244.1 C 442.21 -262.167 433 -284.467 433 -311 L 433 -649 L 363 -649 L 363 -609 C 363 -584.833 354.043 -563.793 336.13 -545.88 C 318.21 -527.96 297.167 -519 273 -519 L 134 -519 C 107.467 -519 85.167 -528.13 67.1 -546.39 C 49.033 -564.657 40 -587.193 40 -614 L 40 -774 C 40 -800.807 49.033 -823.343 67.1 -841.61 C 85.167 -859.87 107.467 -869 134 -869 L 273 -869 C 297.167 -869 318.21 -860.043 336.13 -842.13 C 354.043 -824.21 363 -803.167 363 -779 L 363 -744 L 598 -744 L 598 -779 C 598 -803.167 606.96 -824.21 624.88 -842.13 C 642.793 -860.043 663.833 -869 688 -869 L 826 -869 C 852.807 -869 875.343 -859.87 893.61 -841.61 C 911.87 -823.343 921 -800.807 921 -774 L 921 -614 C 921 -587.193 911.87 -564.657 893.61 -546.39 C 875.343 -528.13 852.807 -519 826 -519 L 688 -519 C 663.833 -519 642.793 -527.96 624.88 -545.88 C 606.96 -563.793 598 -584.833 598 -609 L 598 -649 L 527 -649 L 527 -311 L 598 -311 L 598 -351 C 598 -375.167 606.96 -396.21 624.88 -414.13 C 642.793 -432.043 663.833 -441 688 -441 L 826 -441 C 852.807 -441 875.343 -431.793 893.61 -413.38 C 911.87 -394.96 921 -372.833 921 -347 L 921 -186 C 921 -159.467 911.87 -137.167 893.61 -119.1 C 875.343 -101.033 852.807 -92 826 -92 L 688 -92 C 663.833 -92 642.793 -100.813 624.88 -118.44 C 606.96 -136.067 598 -157.253 598 -182 Z M 134 -774 L 134 -614 L 134 -774 Z M 693 -774 L 693 -614 L 693 -774 Z M 693 -614 L 826 -614 L 826 -774 L 693 -774 L 693 -614 Z M 134 -614 L 269 -614 L 269 -774 L 134 -774 L 134 -614 Z"/>
</svg>