<?xml version="1.0" encoding="utf-8"?>
<svg xmlns="http://www.w3.org/2000/svg" height="48" viewBox="0 -960 960 960" width="48">
  <path d="M 189 -135 C 162.967 -135 140.79 -144.16 122.47 -162.48 C 104.157 -180.793 95 -202.967 95 -229 L 95 -751 C 95 -777.307 104.157 -799.717 122.47 -818.23 C 140.79 -836.743 162.967 -846 189 -846 L 245 -846 L 245 -865 C 245 -876.167 249.13 -885.793 257.39 -893.88 C 265.657 -901.96 275.257 -906 286.19 -906 C 297.41 -906 307.017 -901.96 315.01 -893.88 C 323.003 -885.793 327 -876.167 327 -865 L 327 -846 L 553 -846 L 553 -865 C 553 -876.167 557.13 -885.793 565.39 -893.88 C 573.657 -901.96 583.257 -906 594.19 -906 C 605.417 -906 615.023 -901.96 623.01 -893.88 C 631.003 -885.793 635 -876.167 635 -865 L 635 -846 L 691 -846 C 717.307 -846 739.717 -836.743 758.23 -818.23 C 776.743 -799.717 786 -777.307 786 -751 L 786 -508 C 786 -494.167 781.247 -482.71 771.74 -473.63 C 762.227 -464.543 750.893 -460 737.74 -460 C 724.58 -460 713.5 -464.543 704.5 -473.63 C 695.5 -482.71 691 -494.167 691 -508 L 691 -570 L 189 -570 L 189 -229 L 433 -229 C 446.087 -229 457.357 -224.44 466.81 -215.32 C 476.27 -206.207 481 -195.04 481 -181.82 C 481 -168.607 476.27 -157.5 466.81 -148.5 C 457.357 -139.5 446.087 -135 433 -135 Z M 189 -630 L 691 -630 L 691 -751 L 189 -751 Z M 623.633 -44.483 C 611.489 -45.055 598.248 -50.568 589.313 -58.655 C 581.171 -67.642 575.732 -80.837 575.167 -92.949 L 575.167 -307.27 C 575.722 -319.502 581.15 -332.745 589.287 -341.754 C 598.282 -350.025 611.492 -355.519 623.633 -356.09 L 628.57 -356.09 C 628.57 -356.09 632.896 -363.534 637.48 -368.813 C 642.827 -373.338 651.459 -377.45 658.231 -377.45 C 665.104 -377.45 673.817 -373.229 679.162 -368.643 C 683.625 -363.381 687.764 -356.09 687.764 -356.09 L 766.706 -356.09 C 766.706 -356.09 771.036 -363.543 775.622 -368.821 C 780.976 -373.313 789.603 -377.45 796.367 -377.45 C 803.246 -377.45 811.959 -373.225 817.305 -368.634 C 821.769 -363.373 825.9 -356.09 825.9 -356.09 L 830.837 -356.09 C 843.044 -355.53 856.311 -350.063 865.37 -341.809 C 873.594 -332.803 879.092 -319.534 879.66 -307.27 L 879.66 -92.949 C 879.082 -80.804 873.519 -67.53 865.289 -58.546 C 856.29 -50.473 843.048 -45.044 830.837 -44.483 Z M 638.633 -107.949 L 815.837 -107.949 L 815.837 -227.83 L 638.633 -227.83 Z M 815.837 -292.27 L 638.633 -292.27 L 638.633 -264.19 L 815.837 -264.19 Z"/>
</svg>