<?xml version="1.0" encoding="utf-8"?>
<svg xmlns="http://www.w3.org/2000/svg" height="48" viewBox="0 -960 960 960" width="48">
  <path d="M 308.5 -480 L 474.5 -315 C 483.83 -305.67 488.33 -294.67 488 -282 C 487.67 -269.33 483.17 -258.33 474.5 -249 C 465.17 -239.67 454.17 -235 441.5 -235 C 428.83 -235 417.83 -239.67 408.5 -249 L 210.5 -446 C 205.83 -450.67 202.17 -456 199.5 -462 C 196.83 -468 195.5 -474 195.5 -480 C 195.5 -486 196.83 -492 199.5 -498 C 202.17 -504 205.83 -509.33 210.5 -514 L 408.5 -711 C 417.83 -720.33 428.83 -725 441.5 -725 C 454.17 -725 465.17 -720.33 474.5 -711 C 483.83 -701.67 488.5 -690.67 488.5 -678 C 488.5 -665.33 483.83 -654.33 474.5 -645 Z M 590.546 -328.44 C 583.514 -335.31 579.998 -344.25 579.998 -355.29 C 579.998 -365.27 583.472 -373.81 590.4 -380.46 C 597.349 -387.32 605.963 -390.86 616.262 -390.86 C 626.581 -390.86 635.257 -387.54 642.269 -380.88 C 649.301 -374.44 652.817 -365.69 652.817 -354.87 C 652.817 -344.06 649.364 -335.31 642.415 -328.44 C 635.487 -321.57 626.873 -318.04 616.553 -318.04 C 606.255 -318.04 597.578 -321.57 590.546 -328.44 Z M 681.014 -617.24 C 699.168 -600.76 708.832 -579.71 708.832 -555.16 C 708.832 -540.86 704.614 -527.08 696.734 -514.89 C 688.968 -503.04 679.698 -492.19 669.366 -483.06 C 663.686 -478.19 658.656 -472.9 653.969 -466.25 C 649.402 -460.14 647.454 -454.03 647.454 -446.76 C 647.454 -438.66 643.966 -431.31 638.224 -426.23 C 632.407 -421.5 624.713 -418.63 616.407 -418.63 C 607.967 -418.63 600 -422.44 594.132 -428.75 C 588.591 -435.34 585.359 -443.11 585.359 -451.13 C 585.359 -457.09 585.732 -462.94 586.427 -469.07 C 587.215 -475.47 589.14 -481.54 592.022 -487.04 C 595.741 -494.93 601.175 -501.78 607.87 -507.29 C 614.259 -512.49 620.567 -517.61 626.493 -522.58 C 631.832 -526.55 636.659 -531.39 641.341 -537.45 C 645.907 -543.14 647.778 -548.57 647.778 -555.38 C 647.778 -563.89 645.124 -570.03 638.497 -575.16 C 631.937 -580.65 624.918 -583 616.221 -583 C 611.235 -583 606.879 -581.86 602.145 -579.33 C 597.242 -576.58 593.51 -573.75 590.336 -569.9 C 585.105 -563.52 578.641 -558.75 571.887 -555.8 C 564.745 -553.17 556.889 -553.43 549.956 -556.3 C 541.942 -560.05 535.814 -566.33 532.591 -574.07 C 529.694 -581.87 530.51 -590.5 534.938 -598.38 L 535.031 -598.55 L 535.18 -598.75 C 544.795 -611.54 556.987 -622.1 571.028 -630.04 C 585.196 -637.7 600.782 -641.97 616.865 -641.97 C 640.908 -641.97 662.736 -633.41 681.014 -617.24 Z" style=""/>
</svg>