<?xml version="1.0" encoding="utf-8"?>
<svg xmlns="http://www.w3.org/2000/svg" height="48" viewBox="0 -960 960 960" width="48">
  <path d="M 429.832 -645 C 420.502 -654.33 415.832 -665.33 415.832 -678 C 415.832 -690.67 420.502 -701.67 429.832 -711 C 439.162 -720.33 450.162 -725 462.832 -725 C 475.502 -725 486.502 -720.33 495.832 -711 L 693.832 -514 C 698.502 -509.33 702.162 -504 704.832 -498 C 707.502 -492 708.832 -486 708.832 -480 C 708.832 -474 707.502 -468 704.832 -462 C 702.162 -456 698.502 -450.67 693.832 -446 L 495.832 -249 C 486.502 -239.67 475.502 -235 462.832 -235 C 450.162 -235 439.162 -239.67 429.832 -249 C 421.162 -258.33 416.662 -269.33 416.332 -282 C 416.002 -294.67 420.502 -305.67 429.832 -315 L 595.832 -480 L 429.832 -645 Z M 255.156 -328.44 C 248.124 -335.31 244.608 -344.25 244.608 -355.29 C 244.608 -365.27 248.082 -373.81 255.01 -380.46 C 261.959 -387.32 270.573 -390.86 280.872 -390.86 C 291.191 -390.86 299.867 -387.54 306.879 -380.88 C 313.911 -374.44 317.427 -365.69 317.427 -354.87 C 317.427 -344.06 313.974 -335.31 307.025 -328.44 C 300.097 -321.57 291.483 -318.04 281.163 -318.04 C 270.865 -318.04 262.188 -321.57 255.156 -328.44 Z M 345.624 -617.24 C 363.778 -600.76 373.442 -579.71 373.442 -555.16 C 373.442 -540.86 369.224 -527.08 361.344 -514.89 C 353.578 -503.04 344.308 -492.19 333.976 -483.06 C 328.296 -478.19 323.266 -472.9 318.579 -466.25 C 314.012 -460.14 312.064 -454.03 312.064 -446.76 C 312.064 -438.66 308.576 -431.31 302.834 -426.23 C 297.017 -421.5 289.323 -418.63 281.017 -418.63 C 272.577 -418.63 264.61 -422.44 258.742 -428.75 C 253.201 -435.34 249.969 -443.11 249.969 -451.13 C 249.969 -457.09 250.342 -462.94 251.037 -469.07 C 251.825 -475.47 253.75 -481.54 256.632 -487.04 C 260.351 -494.93 265.785 -501.78 272.48 -507.29 C 278.869 -512.49 285.177 -517.61 291.103 -522.58 C 296.442 -526.55 301.269 -531.39 305.951 -537.45 C 310.517 -543.14 312.388 -548.57 312.388 -555.38 C 312.388 -563.89 309.734 -570.03 303.107 -575.16 C 296.547 -580.65 289.528 -583 280.831 -583 C 275.845 -583 271.489 -581.86 266.755 -579.33 C 261.852 -576.58 258.12 -573.75 254.946 -569.9 C 249.715 -563.52 243.251 -558.75 236.497 -555.8 C 229.355 -553.17 221.499 -553.43 214.566 -556.3 C 206.552 -560.05 200.424 -566.33 197.201 -574.07 C 194.304 -581.87 195.12 -590.5 199.548 -598.38 L 199.641 -598.55 L 199.79 -598.75 C 209.405 -611.54 221.597 -622.1 235.638 -630.04 C 249.806 -637.7 265.392 -641.97 281.475 -641.97 C 305.518 -641.97 327.346 -633.41 345.624 -617.24 Z" style=""/>
</svg>