<?xml version="1.0" encoding="utf-8"?>
<svg xmlns="http://www.w3.org/2000/svg" height="48" viewBox="0 -960 960 960" width="48">
  <path d="M 341.986 -137.66 C 284.45 -137.66 235.882 -157.37 196.282 -196.78 C 156.682 -236.19 136.881 -284.69 136.881 -342.27 C 136.881 -371.56 141.05 -397.42 149.386 -419.81 C 157.723 -442.23 172.834 -464.1 194.718 -485.43 L 194.718 -675.4 C 194.718 -716.04 209.064 -750.7 237.753 -779.36 C 266.442 -808.01 301.598 -822.34 343.221 -822.34 C 383.864 -822.34 418.515 -808.01 447.173 -779.36 C 475.831 -750.7 490.161 -716.04 490.161 -675.4 L 490.161 -485.43 C 511.002 -464.1 525.593 -442.49 533.93 -420.61 C 542.266 -398.71 546.435 -372.61 546.435 -342.27 C 546.435 -284.69 526.755 -236.19 487.394 -196.78 C 448.033 -157.37 399.563 -137.66 341.986 -137.66 Z M 254.12 -342.44 L 429.196 -342.44 C 429.196 -357.04 424.768 -372.14 415.909 -387.77 C 407.051 -403.4 392.723 -416.44 372.922 -426.86 L 372.922 -675.91 C 372.922 -683.9 370.056 -690.77 364.324 -696.5 C 358.592 -702.24 351.558 -705.11 343.221 -705.11 C 333.842 -705.11 326.287 -702.24 320.555 -696.5 C 314.823 -690.77 311.957 -683.74 311.957 -675.4 L 311.957 -426.86 C 291.115 -416.44 276.265 -403.4 267.407 -387.77 C 258.548 -372.14 254.12 -357.04 254.12 -342.44 Z M 621.468 -490.94 C 604.659 -490.94 590.814 -496.52 579.934 -507.69 C 569.065 -518.85 563.63 -532.65 563.63 -549.12 C 563.63 -565.57 569.325 -579.26 580.716 -590.21 C 592.116 -601.14 606.222 -606.63 623.031 -606.63 L 702.754 -606.63 C 718.386 -606.63 731.934 -601.2 743.397 -590.35 C 754.859 -579.51 760.592 -565.71 760.592 -548.92 C 760.592 -532.15 754.859 -518.3 743.397 -507.36 C 731.934 -496.42 718.386 -490.94 702.754 -490.94 L 621.468 -490.94 Z M 623.031 -669.14 C 606.222 -669.14 592.116 -675 580.716 -686.67 C 569.325 -698.36 563.63 -712.42 563.63 -728.88 C 563.63 -745.34 569.586 -759.29 581.497 -770.75 C 593.42 -782.22 607.786 -787.95 624.594 -787.95 L 763.718 -787.95 C 780.527 -787.95 794.633 -782.26 806.033 -770.89 C 817.424 -759.53 823.119 -745.47 823.119 -728.68 C 823.119 -711.92 817.424 -697.8 806.033 -686.35 C 794.633 -674.88 780.527 -669.14 763.718 -669.14 L 623.031 -669.14 Z" style=""/>
</svg>