<?xml version="1.0" encoding="utf-8"?>
<svg xmlns="http://www.w3.org/2000/svg" height="48" viewBox="0 -960 960 960" width="48">
  <path d="M 271.668 -485.33 C 265.668 -482.66 259.711 -481.33 253.798 -481.33 C 247.225 -481.33 241.058 -482.66 235.298 -485.33 C 229.545 -488 224.335 -491.66 219.668 -496.33 L 42.668 -673.33 C 38.001 -677.33 34.501 -682.33 32.168 -688.33 C 29.835 -694.33 28.668 -700.29 28.668 -706.2 C 28.668 -712.77 29.835 -718.77 32.168 -724.2 C 34.501 -729.62 38.001 -734.66 42.668 -739.33 L 220.668 -917.33 C 225.335 -922 230.335 -925.5 235.668 -927.83 C 241.001 -930.16 246.958 -931.33 253.538 -931.33 C 259.445 -931.33 265.445 -930.16 271.538 -927.83 C 277.625 -925.5 282.668 -922 286.668 -917.33 L 463.668 -740.33 C 468.335 -735.66 472.001 -730.5 474.668 -724.83 C 477.335 -719.16 478.668 -713.04 478.668 -706.46 C 478.668 -700.55 477.335 -694.55 474.668 -688.46 C 472.001 -682.37 468.335 -677.33 463.668 -673.33 L 286.668 -496.33 C 282.668 -491.66 277.668 -488 271.668 -485.33 Z M 874.038 -85.962 C 864.958 -76.872 853.501 -72.332 839.668 -72.332 L 589.668 -72.332 C 576.501 -72.332 565.375 -76.872 556.288 -85.962 C 547.208 -95.042 542.668 -106.5 542.668 -120.33 L 542.668 -370.33 C 542.668 -383.5 547.208 -394.62 556.288 -403.71 C 565.375 -412.79 576.501 -417.33 589.668 -417.33 L 839.668 -417.33 C 853.501 -417.33 864.958 -412.79 874.038 -403.71 C 883.125 -394.62 887.668 -383.5 887.668 -370.33 L 887.668 -120.33 C 887.668 -106.5 883.125 -95.042 874.038 -85.962 Z M 361.668 -703.33 L 250.668 -815.33 L 139.668 -703.33 L 250.668 -592.33 L 361.668 -703.33 Z M 792.668 -322.33 L 637.668 -322.33 L 637.668 -167.33 L 792.668 -167.33 L 792.668 -322.33 Z M 641.801 -643.8 L 641.801 -574.54 C 641.801 -564.45 638.318 -556.12 631.39 -549.59 C 624.442 -543.06 615.993 -539.88 606.057 -539.88 C 596.103 -539.88 587.691 -543.06 580.821 -549.98 C 573.974 -556.72 570.551 -565.24 570.551 -575.32 L 570.551 -735.64 C 570.551 -748.89 575.004 -759.98 583.91 -768.89 C 592.817 -777.78 604.198 -782.33 618.051 -782.33 L 777.374 -782.33 C 787.251 -782.33 795.642 -778.98 802.588 -772.44 C 809.514 -765.92 812.998 -757.6 812.998 -747.51 C 812.998 -737.62 809.514 -729.11 802.588 -722.37 C 795.642 -715.44 787.251 -712.08 777.374 -712.08 L 707.113 -712.08 C 730.19 -690.89 751.466 -667.15 770.942 -640.63 C 790.398 -614.3 805.399 -587.19 815.968 -559.69 C 820.579 -547.01 819.747 -534.95 813.494 -523.47 C 807.219 -511.98 797.483 -504.66 784.301 -501.7 C 771.753 -498.72 759.719 -500.5 748.18 -507.04 C 736.623 -513.76 727.894 -522.88 721.957 -534.95 C 714.041 -555.93 703.649 -575.32 690.785 -592.74 C 677.921 -610.14 661.593 -627.18 641.801 -643.8 Z M 363.729 -257.86 L 363.729 -327.13 C 363.729 -337.03 367.192 -345.34 374.138 -351.87 C 381.065 -358.41 389.516 -361.77 399.472 -361.77 C 409.427 -361.77 417.819 -358.21 424.686 -351.48 C 431.535 -344.75 434.979 -336.23 434.979 -326.14 L 434.979 -165.63 C 434.979 -152.57 430.526 -141.5 421.618 -132.59 C 412.714 -123.67 401.332 -119.32 387.478 -119.32 L 228.155 -119.32 C 218.28 -119.32 209.868 -122.49 202.921 -129.02 C 195.993 -135.55 192.53 -143.86 192.53 -153.95 C 192.53 -163.85 195.993 -172.36 202.921 -179.08 C 209.868 -186.01 218.28 -189.38 228.155 -189.38 L 298.415 -189.38 C 275.321 -210.56 254.043 -234.32 234.589 -260.63 C 215.113 -287.16 200.111 -314.08 189.561 -341.99 C 184.93 -354.45 185.761 -366.53 192.035 -378 C 198.291 -389.48 208.027 -396.79 221.228 -399.77 C 233.757 -402.74 245.79 -400.96 257.348 -394.23 C 268.887 -387.69 277.633 -378.38 283.571 -366.7 C 291.488 -345.53 301.878 -326.14 314.744 -308.72 C 327.609 -291.32 343.937 -274.29 363.729 -257.86 Z" style=""/>
</svg>