<?xml version="1.0" encoding="utf-8"?>
<svg xmlns="http://www.w3.org/2000/svg" height="48" viewBox="0 -960 960 960" width="48">
  <path d="M 149 -135 C 122.967 -135 100.79 -144.16 82.47 -162.48 C 64.157 -180.793 55 -202.967 55 -229 L 55 -731 C 55 -757.307 64.157 -779.717 82.47 -798.23 C 100.79 -816.743 122.967 -826 149 -826 L 811 -826 C 837.307 -826 859.717 -816.743 878.23 -798.23 C 896.743 -779.717 906 -757.307 906 -731 L 906 -506.605 C 906 -493.272 901.303 -482.105 891.91 -473.105 C 882.517 -464.105 871.183 -459.605 857.91 -459.605 C 844.637 -459.605 833.5 -464.105 824.5 -473.105 C 815.5 -482.105 811 -493.272 811 -506.605 L 811 -631 L 149 -631 L 149 -229 L 528.849 -229 C 542.182 -229 553.349 -224.5 562.349 -215.5 C 571.349 -206.5 575.849 -195.333 575.849 -182 C 575.849 -168.667 571.349 -157.5 562.349 -148.5 C 553.349 -139.5 542.182 -135 528.849 -135 Z M 649.583 -241.19 C 637.591 -241.19 627.23 -245.59 618.554 -254.14 C 609.877 -262.69 605.551 -273.31 605.551 -285.48 C 605.551 -297.91 609.877 -308.27 618.554 -317.34 C 627.23 -326.14 637.591 -330.55 649.583 -330.55 L 711.744 -330.55 L 711.744 -391.41 C 711.744 -403.85 715.837 -414.47 724.047 -423.27 C 732.258 -432.34 742.747 -436.74 755.542 -436.74 C 767.975 -436.74 778.672 -432.34 787.633 -423.27 C 796.621 -414.47 801.102 -403.85 801.102 -391.41 L 801.102 -330.55 L 861.968 -330.55 C 873.96 -330.55 884.295 -326.14 892.971 -317.34 C 901.648 -308.53 906 -297.91 906 -285.48 C 906 -273.31 901.648 -262.95 892.971 -254.14 C 884.295 -245.59 873.96 -241.19 861.968 -241.19 L 801.102 -241.19 L 801.102 -180.32 C 801.102 -167.89 796.776 -157.27 788.151 -148.47 C 779.526 -139.4 768.804 -135 756.009 -135 C 743.214 -135 732.62 -139.4 724.28 -148.47 C 715.914 -157.27 711.744 -167.89 711.744 -180.32 L 711.744 -241.19 Z"/>
</svg>