<?xml version="1.0" encoding="utf-8"?>
<svg xmlns="http://www.w3.org/2000/svg" height="48" viewBox="0 -960 960 960" width="48">
  <path d="M 479.102 -97.25 C 464.506 -97.25 452.071 -102.22 441.792 -112.17 C 431.513 -122.1 426.375 -134.56 426.375 -149.53 L 426.375 -362.69 L 280.246 -362.69 C 253.29 -362.69 233.368 -374.32 220.481 -397.55 C 207.593 -420.78 207.852 -444.47 221.258 -468.61 L 313.762 -633.5 L 313.762 -755.5 L 282.927 -755.5 C 267.957 -755.5 255.502 -760.81 245.564 -771.41 C 235.616 -782.02 230.643 -794.75 230.643 -809.62 C 230.643 -824.49 235.616 -837.05 245.564 -847.33 C 255.502 -857.62 267.957 -862.75 282.927 -862.75 L 677.073 -862.75 C 691.802 -862.75 704.422 -857.44 714.932 -846.84 C 725.443 -836.23 730.698 -823.5 730.698 -808.63 C 730.698 -793.76 725.443 -781.2 714.932 -770.92 C 704.422 -760.63 691.802 -755.5 677.073 -755.5 L 646.238 -755.5 L 646.238 -633.5 L 738.742 -469.95 C 752.148 -445.81 752.407 -421.91 739.519 -398.22 C 726.632 -374.53 706.71 -362.69 679.754 -362.69 L 532.285 -362.69 L 532.285 -149.53 C 532.285 -134.56 527.07 -122.1 516.639 -112.17 C 506.219 -102.22 493.705 -97.25 479.102 -97.25 Z M 344.596 -469.95 L 615.404 -469.95 L 540.328 -599.99 L 540.328 -736.73 L 421.012 -736.73 L 421.012 -599.99 L 344.596 -469.95 Z M 480 -469.95 Z"/>
</svg>