<?xml version="1.0" encoding="utf-8"?>
<svg clip-rule="evenodd" fill-rule="evenodd" stroke-linejoin="round" stroke-miterlimit="2" viewBox="0 0 250 250" xmlns="http://www.w3.org/2000/svg">
  <path d="M 36.791 24.525 L 213.21 24.525 C 232.217 24.525 247.541 39.831 247.541 58.839 L 247.541 191.162 C 247.541 210.169 232.217 225.476 213.21 225.476 L 36.791 225.476 C 17.783 225.476 2.459 210.169 2.459 191.162 L 2.459 58.839 C 2.459 39.831 17.783 24.525 36.791 24.525 Z M 222.679 95.151 C 222.661 89.591 218.144 85.092 212.584 85.092 L 37.416 85.092 C 31.857 85.109 27.339 89.591 27.322 95.169 L 27.009 191.162 C 27.009 196.582 31.37 200.926 36.791 200.926 L 213.21 200.926 C 218.63 200.926 222.991 196.582 222.991 191.162 L 222.679 95.151 Z M 142.259 176.702 C 144.135 178.579 145.074 180.838 145.074 183.461 C 145.074 186.085 144.135 188.343 142.259 190.22 C 140.365 192.113 138.159 193.086 135.587 193.156 C 133.033 193.225 130.809 192.305 128.933 190.428 L 88.955 150.45 C 88.016 149.512 87.269 148.434 86.731 147.218 C 86.192 146.002 85.932 144.803 85.932 143.587 C 85.932 142.371 86.192 141.172 86.731 139.956 C 87.269 138.74 88.016 137.662 88.955 136.724 L 128.724 96.954 C 130.618 95.061 132.86 94.122 135.5 94.122 C 138.124 94.122 140.365 95.061 142.259 96.954 C 144.135 98.831 145.108 101.055 145.178 103.609 C 145.247 106.163 144.344 108.387 142.45 110.281 L 109.144 143.587 L 142.259 176.702 Z"/>
</svg>