<?xml version="1.0" encoding="utf-8"?>
<svg xmlns="http://www.w3.org/2000/svg" height="48" viewBox="0 -960 960 960" width="48">
  <path d="M 146.055 -278.05 C 123.107 -278.05 103.557 -286.11 87.408 -302.27 C 71.264 -318.41 63.192 -337.95 63.192 -360.9 L 63.192 -803.44 C 63.192 -826.61 71.264 -846.38 87.408 -862.69 C 103.557 -879.02 123.107 -887.17 146.055 -887.17 L 729.619 -887.17 C 752.809 -887.17 772.564 -879.02 788.883 -862.69 C 805.203 -846.38 813.363 -826.61 813.363 -803.44 L 813.363 -711.21 C 813.363 -699.44 809.222 -689.6 800.943 -681.66 C 792.662 -673.74 782.672 -669.77 770.971 -669.77 C 759.271 -669.77 749.453 -673.74 741.52 -681.66 C 733.586 -689.6 729.619 -699.44 729.619 -711.21 L 729.619 -715.27 L 146.055 -715.27 L 146.055 -360.9 L 152.528 -360.9 C 164.281 -360.9 174.125 -356.94 182.059 -349 C 189.992 -341.07 193.959 -331.21 193.959 -319.48 C 193.959 -307.71 189.992 -297.88 182.059 -289.93 C 174.125 -282.01 164.281 -278.05 152.528 -278.05 L 146.055 -278.05 Z M 361.477 -616.09 L 792.739 -616.09 C 850.353 -616.09 896.808 -569.67 896.808 -512.09 L 896.808 -176.83 C 896.808 -119.24 850.353 -72.83 792.739 -72.83 L 361.477 -72.83 C 303.86 -72.83 257.408 -119.24 257.408 -176.83 L 257.408 -512.09 C 257.408 -569.67 303.86 -616.09 361.477 -616.09 Z M 821.441 -401.99 C 821.388 -418.85 807.695 -432.49 790.841 -432.49 L 363.372 -432.49 C 346.521 -432.47 332.825 -418.85 332.774 -401.97 L 331.825 -176.83 C 331.825 -160.4 345.045 -147.24 361.477 -147.24 L 792.739 -147.24 C 809.168 -147.24 822.388 -160.4 822.388 -176.83 L 821.441 -401.99 Z" style=""/>
</svg>