<?xml version="1.0" encoding="utf-8"?>
<svg clip-rule="evenodd" fill-rule="evenodd" stroke-linejoin="round" stroke-miterlimit="2" viewBox="0 0 250 250" xmlns="http://www.w3.org/2000/svg">
  <path d="M 36.791 24.525 L 213.21 24.525 C 232.217 24.525 247.541 39.831 247.541 58.839 L 247.541 191.162 C 247.541 210.169 232.217 225.476 213.21 225.476 L 36.791 225.476 C 17.783 225.476 2.459 210.169 2.459 191.162 L 2.459 58.839 C 2.459 39.831 17.783 24.525 36.791 24.525 Z M 222.679 95.151 C 222.661 89.591 218.144 85.092 212.584 85.092 L 37.416 85.092 C 31.857 85.109 27.339 89.591 27.322 95.169 L 27.009 191.162 C 27.009 196.582 31.37 200.926 36.791 200.926 L 213.21 200.926 C 218.63 200.926 222.991 196.582 222.991 191.162 L 222.679 95.151 Z M 137.706 143.417 L 104.4 110.111 C 102.506 108.217 101.603 105.993 101.672 103.439 C 101.742 100.885 102.715 98.661 104.591 96.784 C 106.485 94.891 108.726 93.952 111.35 93.952 C 113.99 93.952 116.232 94.891 118.126 96.784 L 157.895 136.554 C 158.834 137.492 159.581 138.57 160.119 139.786 C 160.658 141.002 160.918 142.201 160.918 143.417 C 160.918 144.633 160.658 145.832 160.119 147.048 C 159.581 148.264 158.834 149.342 157.895 150.28 L 117.917 190.258 C 116.041 192.135 113.817 193.055 111.263 192.986 C 108.691 192.916 106.485 191.943 104.591 190.05 C 102.715 188.173 101.776 185.915 101.776 183.291 C 101.776 180.668 102.715 178.409 104.591 176.532 L 137.706 143.417 Z"/>
</svg>