<?xml version="1.0" encoding="utf-8"?>
<svg clip-rule="evenodd" fill-rule="evenodd" stroke-linejoin="round" stroke-miterlimit="2" viewBox="0 0 250 250" xmlns="http://www.w3.org/2000/svg">
  <path d="M 2.923 2.217 L 13.077 2.217 C 14.171 2.217 15.053 3.098 15.053 4.192 L 15.053 11.808 C 15.053 12.902 14.171 13.783 13.077 13.783 L 2.923 13.783 C 1.829 13.783 0.947 12.902 0.947 11.808 L 0.947 4.192 C 0.947 3.098 1.829 2.217 2.923 2.217 Z M 13.622 6.282 C 13.621 5.962 13.361 5.703 13.041 5.703 L 2.959 5.703 C 2.639 5.704 2.379 5.962 2.378 6.283 L 2.36 11.808 C 2.36 12.12 2.611 12.37 2.923 12.37 L 13.077 12.37 C 13.389 12.37 13.64 12.12 13.64 11.808 L 13.622 6.282 Z" transform="matrix(17.3743 0 0 17.3743 -13.9941 -13.9941)"/>
</svg>