<?xml version="1.0" encoding="utf-8"?>
<svg xmlns="http://www.w3.org/2000/svg" height="48" viewBox="0 -960 960 960" width="48">
  <path d="M 221.25 -124.06 C 195.516 -124.58 170.964 -134.72 152.464 -152.47 C 134.716 -170.97 124.573 -195.51 124.052 -221.25 L 124.052 -324.23 C 124.566 -338.51 130.638 -353.26 140.243 -363.6 C 150.597 -373.15 165.364 -379.69 179.69 -379.69 C 194.021 -379.69 208.771 -373.12 219.042 -363.54 C 228.521 -353.2 234.507 -338.49 235.009 -324.23 L 235.009 -235.01 L 324.217 -235.01 C 338.514 -234.5 353.263 -228.43 363.594 -218.82 C 373.153 -208.47 379.696 -193.69 379.696 -179.38 C 379.696 -165.04 373.114 -150.29 363.529 -140.02 C 353.202 -130.54 338.485 -124.56 324.217 -124.06 L 221.25 -124.06 Z M 737.862 -124.06 L 634.895 -124.06 C 620.598 -124.57 605.853 -130.64 595.528 -140.25 C 585.963 -150.59 579.417 -165.37 579.417 -179.69 C 579.417 -194.03 585.999 -208.78 595.591 -219.04 C 605.913 -228.53 620.627 -234.5 634.895 -235.01 L 724.104 -235.01 L 724.104 -324.23 C 724.618 -338.51 730.689 -353.26 740.295 -363.6 C 750.642 -373.15 765.383 -379.69 779.662 -379.69 C 793.907 -379.69 808.699 -373.24 819.248 -363.74 C 829.14 -353.4 835.406 -338.58 835.948 -324.23 L 835.948 -221.25 C 835.417 -195.5 825.157 -170.91 807.214 -152.41 C 788.546 -134.68 763.815 -124.57 737.862 -124.06 Z M 124.052 -634.89 L 124.052 -737.87 C 124.564 -763.82 134.682 -788.55 152.415 -807.22 C 170.917 -825.16 195.492 -835.42 221.25 -835.95 L 324.217 -835.95 C 338.608 -835.39 353.464 -829.04 363.8 -819.03 C 373.269 -808.39 379.696 -793.59 379.696 -779.36 C 379.696 -765.07 373.112 -750.34 363.529 -740.08 C 353.202 -730.6 338.485 -724.61 324.217 -724.11 L 235.009 -724.11 L 235.009 -634.89 C 234.495 -620.6 228.423 -605.86 218.818 -595.53 C 208.464 -585.97 193.697 -579.41 179.371 -579.41 C 165.038 -579.41 150.293 -586 140.02 -595.6 C 130.542 -605.91 124.555 -620.63 124.052 -634.89 Z M 724.104 -634.89 L 724.104 -724.11 L 634.895 -724.11 C 620.598 -724.63 605.853 -730.7 595.528 -740.29 C 585.965 -750.64 579.417 -765.38 579.417 -779.66 C 579.417 -793.91 585.882 -808.7 595.384 -819.25 C 605.713 -829.14 620.531 -835.4 634.895 -835.95 L 737.862 -835.95 C 763.84 -835.42 788.969 -825.57 807.268 -807.27 C 825.567 -788.98 835.427 -763.85 835.948 -737.87 L 835.948 -634.89 C 835.395 -620.5 829.048 -605.65 819.034 -595.33 C 808.398 -585.86 793.585 -579.41 779.351 -579.41 C 765.06 -579.41 750.339 -586 740.072 -595.6 C 730.593 -605.91 724.606 -620.63 724.104 -634.89 Z" style="stroke-width: 31px;"/>
</svg>