<?xml version="1.0" encoding="utf-8"?>
<svg xmlns="http://www.w3.org/2000/svg" height="48" viewBox="0 -960 960 960" width="48">
  <path d="M 484.707 -339.87 C 477.062 -332.23 467.828 -328.28 456.681 -328.37 C 445.704 -328.28 436.156 -332.28 428.392 -340.04 C 420.473 -347.96 416.635 -357.35 416.383 -368.66 C 416.301 -379.81 420.09 -389.2 427.735 -396.84 L 467.369 -436.48 L 428.563 -475.28 C 420.629 -483.22 416.48 -492.62 416.084 -503.45 C 415.543 -514.46 419.43 -523.95 427.588 -532.11 C 435.515 -540.03 445.151 -544.07 456.643 -544.01 C 467.97 -544.11 477.602 -540.19 485.536 -532.26 L 524.342 -493.45 L 563.149 -532.26 C 570.811 -539.92 580.2 -543.71 591.347 -543.63 C 602.493 -543.54 612.032 -539.52 619.952 -531.6 C 627.716 -523.84 631.562 -514.47 631.645 -503.33 C 631.557 -492.35 627.783 -482.95 620.121 -475.29 L 581.313 -436.48 L 620.119 -397.67 C 628.053 -389.74 632.072 -380.24 632.171 -369.11 C 632.455 -357.82 628.426 -348.18 620.268 -340.02 C 612.11 -331.86 602.565 -327.93 591.447 -328.38 C 580.515 -328.68 571.08 -332.77 563.146 -340.7 L 524.34 -379.51 L 484.707 -339.87 Z M 281.985 -573.28 C 275.705 -579.77 269.106 -589.05 265.778 -597.23 C 262.479 -605.33 260.416 -616.48 260.416 -625.68 C 260.416 -634.83 262.411 -645.88 265.612 -653.98 C 268.841 -662.14 275.221 -671.44 281.333 -678.01 C 287.828 -684.3 297.113 -690.9 305.288 -694.23 C 313.39 -697.53 324.545 -699.59 333.743 -699.59 C 342.89 -699.59 353.945 -697.6 362.042 -694.4 C 370.211 -691.17 379.508 -684.78 386.084 -678.67 C 392.365 -672.17 398.964 -662.89 402.292 -654.71 C 405.59 -646.61 407.653 -635.46 407.653 -626.26 C 407.653 -617.11 405.659 -606.06 402.458 -597.96 C 399.23 -589.8 392.849 -580.5 386.737 -573.93 C 380.24 -567.64 370.955 -561.04 362.781 -557.71 C 354.678 -554.41 343.524 -552.35 334.326 -552.35 C 325.179 -552.35 314.124 -554.34 306.027 -557.55 C 297.858 -560.78 288.56 -567.16 281.985 -573.28 Z M 439.485 -113.75 L 112.123 -441.11 C 101.557 -451.86 93.514 -464.29 87.993 -478.4 C 82.471 -492.51 79.711 -507.09 79.711 -522.14 L 79.711 -766.85 C 79.711 -798.45 90.743 -825.26 112.804 -847.28 C 134.856 -869.29 161.638 -880.29 193.153 -880.29 L 437.865 -880.29 C 452.915 -880.29 467.494 -877.53 481.606 -872.01 C 495.715 -866.49 508.145 -858.44 518.895 -847.88 L 846.257 -520.52 C 868.945 -498.1 880.289 -471.16 880.289 -439.7 C 880.289 -408.23 868.945 -381.15 846.257 -358.46 L 601.546 -113.75 C 579.128 -91.058 552.187 -79.708 520.726 -79.708 C 489.254 -79.708 462.173 -91.058 439.485 -113.75 Z M 187.854 -495.76 L 476.321 -207.31 C 500.729 -182.9 540.302 -182.9 564.71 -207.31 L 752.7 -395.3 C 777.06 -419.65 777.115 -459.13 752.824 -483.56 L 465.977 -772.02 C 454.246 -783.82 438.296 -790.45 421.659 -790.45 L 232.048 -790.45 C 197.53 -790.45 169.548 -762.47 169.548 -727.95 L 169.548 -539.96 C 169.549 -523.38 176.133 -507.49 187.854 -495.76 Z" style="stroke-width: 0.05;"/>
</svg>