<?xml version="1.0" encoding="utf-8"?>
<svg xmlns="http://www.w3.org/2000/svg" height="48" viewBox="0 -960 960 960" width="48">
  <path d="M 180 -483 L 344 -319 C 353.333 -309 357.667 -297.833 357 -285.5 C 356.333 -273.167 351.167 -262 341.5 -252 C 331.833 -242 320.667 -237.167 308 -237.5 C 295.333 -237.833 284.333 -242.667 275 -252 L 78 -448 C 73.393 -452.78 69.743 -458.177 67.05 -464.19 C 64.35 -470.21 63 -476.183 63 -482.11 C 63 -488.037 64.35 -493.983 67.05 -499.95 C 69.743 -505.917 73.393 -511.267 78 -516 L 278 -716 C 287.6 -725.333 298.833 -730 311.7 -730 C 324.567 -730 335.667 -725.333 345 -716 C 354.333 -706.667 359 -695.4 359 -682.2 C 359 -669 354.333 -657.6 345 -648 Z M 781 -481 L 617 -645 C 607 -655 602.333 -666.167 603 -678.5 C 603.667 -690.833 608.833 -702 618.5 -712 C 628.167 -722 639.333 -726.833 652 -726.5 C 664.667 -726.167 675.667 -721.333 685 -712 L 882 -516 C 886.607 -511.22 890.257 -505.823 892.95 -499.81 C 895.65 -493.79 897 -487.817 897 -481.89 C 897 -475.963 895.65 -470.017 892.95 -464.05 C 890.257 -458.083 886.607 -452.733 882 -448 L 682 -248 C 672.607 -238.667 661.59 -234 648.95 -234 C 636.317 -234 625.333 -239 616 -249 C 606 -258.42 601 -269.61 601 -282.57 C 601 -295.523 606 -306.667 616 -316 Z M 369.149 -433.37 C 356.63 -433.37 345.842 -437.69 336.784 -446.88 C 327.728 -455.81 323.186 -466.88 323.186 -479.6 C 323.186 -492.3 327.728 -503.39 336.784 -512.59 C 345.842 -522.04 356.63 -526.63 369.149 -526.63 L 434.037 -526.63 L 434.037 -590.17 C 434.037 -603.16 438.336 -614.25 446.879 -623.42 C 455.449 -632.89 466.4 -637.49 479.756 -637.49 C 492.734 -637.49 503.927 -632.89 513.282 -623.42 C 522.637 -614.25 527.313 -603.16 527.313 -590.17 L 527.313 -526.63 L 590.85 -526.63 C 603.396 -526.63 614.183 -522.04 623.241 -512.85 C 632.298 -503.65 636.813 -492.57 636.813 -479.6 C 636.813 -466.88 632.298 -456.06 623.241 -446.88 C 614.183 -437.96 603.396 -433.37 590.85 -433.37 L 527.313 -433.37 L 527.313 -369.82 C 527.313 -356.83 522.826 -345.76 513.796 -336.3 C 504.793 -327.1 493.599 -322.51 480.243 -322.51 C 466.886 -322.51 455.856 -327.1 447.123 -336.3 C 438.417 -345.76 434.037 -356.83 434.037 -369.82 L 434.037 -433.37 Z"/>
</svg>