<?xml version="1.0" encoding="utf-8"?>
<svg xmlns="http://www.w3.org/2000/svg" height="48" viewBox="0 -960 960 960" width="48">
  <path d="M 266.93 -112.02 L 648.93 -112.02 L 648.93 -265.02 C 648.93 -278.19 653.473 -289.31 662.56 -298.4 C 671.64 -307.48 682.763 -312.02 695.93 -312.02 L 848.93 -312.02 L 848.93 -694.02 L 266.93 -694.02 L 266.93 -112.02 Z M 266.93 -18.02 C 241.077 -18.02 218.947 -27.223 200.54 -45.63 C 182.133 -64.037 172.93 -86.167 172.93 -112.02 L 172.93 -694.02 C 172.93 -720.15 182.133 -742.51 200.54 -761.11 C 218.947 -779.72 241.077 -789.02 266.93 -789.02 L 848.93 -789.02 C 875.057 -789.02 897.42 -779.72 916.02 -761.11 C 934.627 -742.51 943.93 -720.15 943.93 -694.02 L 943.93 -319.02 C 943.93 -305.98 941.263 -293.55 935.93 -281.74 C 930.597 -269.93 923.597 -259.69 914.93 -251.02 L 709.93 -46.02 C 701.11 -37.293 690.923 -30.447 679.37 -25.48 C 667.823 -20.507 655.677 -18.02 642.93 -18.02 L 266.93 -18.02 Z M 16.069 -848.51 C 16.069 -874.41 25.329 -896.45 43.429 -914.67 C 61.729 -932.89 83.769 -941.98 109.549 -941.98 L 689.149 -941.98 C 702.149 -941.98 713.149 -937.5 721.949 -928.52 C 731.079 -919.57 735.379 -908.41 735.379 -895.07 C 735.379 -881.75 731.079 -870.65 721.949 -861.79 C 713.149 -852.94 702.149 -848.51 689.149 -848.51 L 109.549 -848.51 L 109.549 -252.99 C 109.549 -240.04 105.209 -229.1 96.159 -220.15 C 87.099 -211.21 76.089 -206.75 62.709 -206.75 C 49.339 -206.75 38.309 -211.21 29.469 -220.15 C 20.599 -229.1 16.069 -240.04 16.069 -252.99 L 16.069 -848.51 Z"/>
</svg>