<?xml version="1.0" encoding="utf-8"?>
<svg xmlns="http://www.w3.org/2000/svg" height="48" viewBox="0 -960 960 960" width="48">
  <path d="M 180 -483 L 344 -319 C 353.333 -309 357.667 -297.833 357 -285.5 C 356.333 -273.167 351.167 -262 341.5 -252 C 331.833 -242 320.667 -237.167 308 -237.5 C 295.333 -237.833 284.333 -242.667 275 -252 L 78 -448 C 73.393 -452.78 69.743 -458.177 67.05 -464.19 C 64.35 -470.21 63 -476.183 63 -482.11 C 63 -488.037 64.35 -493.983 67.05 -499.95 C 69.743 -505.917 73.393 -511.267 78 -516 L 278 -716 C 287.6 -725.333 298.833 -730 311.7 -730 C 324.567 -730 335.667 -725.333 345 -716 C 354.333 -706.667 359 -695.4 359 -682.2 C 359 -669 354.333 -657.6 345 -648 Z M 368.644 -525.411 C 359.792 -534.263 355.218 -544.946 355.311 -557.849 C 355.222 -570.567 359.838 -581.607 368.833 -590.601 C 377.813 -599.581 388.866 -604.211 401.775 -604.313 C 414.863 -604.59 425.736 -600.208 434.589 -591.356 L 480.471 -545.473 L 525.401 -590.402 C 534.586 -599.588 545.468 -604.39 557.993 -604.833 C 570.749 -605.469 581.745 -600.979 591.19 -591.534 C 600.366 -582.358 605.028 -571.19 604.947 -557.879 C 605.078 -544.78 600.542 -533.632 591.357 -524.446 L 546.428 -479.517 L 591.355 -434.589 C 600.226 -425.718 604.608 -414.845 604.515 -401.941 C 604.414 -389.032 599.772 -378.004 590.601 -368.833 C 581.606 -359.839 570.763 -355.381 557.867 -355.294 C 545.155 -355.391 534.282 -359.773 525.41 -368.644 L 480.483 -413.572 L 435.546 -368.635 C 426.361 -359.45 415.36 -354.795 402.286 -354.491 C 389.414 -354.352 378.254 -359.021 368.809 -368.466 C 359.365 -377.91 354.811 -388.955 355.141 -401.636 C 355.674 -414.481 360.405 -425.406 369.59 -434.591 L 414.527 -479.528 Z M 781 -481 L 617 -645 C 607 -655 602.333 -666.167 603 -678.5 C 603.667 -690.833 608.833 -702 618.5 -712 C 628.167 -722 639.333 -726.833 652 -726.5 C 664.667 -726.167 675.667 -721.333 685 -712 L 882 -516 C 886.607 -511.22 890.257 -505.823 892.95 -499.81 C 895.65 -493.79 897 -487.817 897 -481.89 C 897 -475.963 895.65 -470.017 892.95 -464.05 C 890.257 -458.083 886.607 -452.733 882 -448 L 682 -248 C 672.607 -238.667 661.59 -234 648.95 -234 C 636.317 -234 625.333 -239 616 -249 C 606 -258.42 601 -269.61 601 -282.57 C 601 -295.523 606 -306.667 616 -316 Z"/>
</svg>