<?xml version="1.0" encoding="utf-8"?>
<svg viewBox="0 0 32 32" xmlns="http://www.w3.org/2000/svg">
  <path d="M 12.5 7.196 L 12.5 12 C 12.5 12.276 12.276 12.5 12 12.5 L 10 12.5 C 9.724 12.5 9.5 12.276 9.5 12 L 9.5 11 C 9.5 10.724 9.724 10.5 10 10.5 L 10.5 10.5 L 10.5 9.506 L 9.995 9.5 C 9.744 9.497 9.537 9.31 9.504 9.067 C 9.492 9.078 9.48 9.09 9.468 9.101 C 9.405 9.161 9.343 9.221 9.282 9.282 C 9.087 9.477 8.901 9.679 8.724 9.888 C 8.097 10.626 7.585 11.448 7.21 12.341 C 6.807 13.303 6.564 14.347 6.511 15.456 C 6.508 15.507 6.506 15.559 6.505 15.61 C 6.5 15.739 6.499 15.869 6.5 16 C 6.505 17.326 6.774 18.57 7.313 19.773 L 8.42 21.709 C 8.702 22.092 9.008 22.448 9.335 22.778 C 9.39 22.83 9.447 22.883 9.503 22.934 C 9.517 22.809 9.577 22.694 9.673 22.611 C 9.783 22.516 9.929 22.473 10.072 22.494 L 10.5 22.557 L 10.5 21.5 L 10 21.5 C 9.724 21.5 9.5 21.276 9.5 21 L 9.5 20 C 9.5 19.724 9.724 19.5 10 19.5 L 12 19.5 C 12.276 19.5 12.5 19.724 12.5 20 L 12.5 24.804 C 13.619 25.265 14.672 25.496 16 25.5 C 16.611 25.504 17.209 25.452 17.791 25.346 C 19.701 24.994 21.376 24.059 22.718 22.718 C 22.791 22.645 22.863 22.571 22.933 22.496 C 23.16 22.248 23.376 21.985 23.58 21.709 L 24.687 19.773 C 25.226 18.57 25.496 17.328 25.5 16 C 25.5 13.341 24.464 11.029 22.718 9.282 C 20.971 7.536 18.659 6.5 16 6.5 C 14.674 6.505 13.619 6.735 12.5 7.196 Z M 14.113 11.453 C 14.113 10.922 14.29 10.466 14.641 10.085 C 14.992 9.703 15.443 9.511 15.99 9.511 C 16.523 9.511 16.981 9.703 17.365 10.085 C 17.75 10.466 17.943 10.922 17.943 11.453 L 17.943 14.061 L 20.55 14.061 C 21.065 14.061 21.508 14.249 21.88 14.627 C 22.251 15.006 22.436 15.46 22.436 15.993 C 22.436 16.509 22.251 16.955 21.88 17.329 C 21.508 17.702 21.065 17.891 20.55 17.891 L 17.943 17.891 L 17.943 20.497 C 17.943 21.028 17.758 21.484 17.387 21.865 C 17.017 22.249 16.557 22.44 16.01 22.44 C 15.461 22.44 15.009 22.249 14.65 21.865 C 14.292 21.484 14.113 21.028 14.113 20.497 L 14.113 17.891 L 11.45 17.891 C 10.935 17.891 10.492 17.706 10.12 17.334 C 9.749 16.964 9.564 16.517 9.564 15.99 C 9.564 15.463 9.749 15.011 10.12 14.631 C 10.492 14.25 10.935 14.061 11.45 14.061 L 14.113 14.061 Z M 28.5 16.002 C 28.476 18.743 27.629 21.182 26.118 23.29 L 29.915 27.086 C 30.264 27.466 30.5 28.027 30.5 28.5 C 30.5 28.973 30.263 29.534 29.914 29.915 C 29.534 30.264 28.973 30.5 28.5 30.5 C 28.027 30.5 27.466 30.264 27.085 29.915 L 23.29 26.118 C 21.182 27.629 18.741 28.476 16 28.5 C 12.584 28.478 9.396 27.073 7.161 24.839 C 4.927 22.604 3.5 19.416 3.5 16 C 3.5 12.584 4.927 9.396 7.161 7.161 C 9.396 4.927 12.584 3.5 16 3.5 C 19.416 3.5 22.604 4.927 24.839 7.161 C 27.073 9.396 28.478 12.586 28.5 16.002 Z"/>
</svg>