<?xml version="1.0" encoding="utf-8"?>
<svg viewBox="0 0 22 22" xmlns="http://www.w3.org/2000/svg">
  <path d="M 8.068 3 L 8.068 13.687 C 8.584 13.883 8.986 14.11 9.39 14.605 C 9.795 15.1 10.051 15.819 10.068 16.5 C 10.046 17.293 9.705 18.106 9.189 18.621 C 8.674 19.137 7.861 19.5 7.068 19.5 C 6.275 19.5 5.462 19.137 4.947 18.621 C 4.431 18.106 4.09 17.292 4.068 16.5 C 4.084 15.818 4.34 15.098 4.744 14.603 C 5.149 14.107 5.549 13.877 6.068 13.682 L 6.068 3 C 6.068 2.724 6.292 2.5 6.568 2.5 L 7.568 2.5 C 7.844 2.5 8.068 2.724 8.068 3 Z M 6.361 15.793 C 6.152 16.001 6.068 16.188 6.068 16.5 C 6.068 16.812 6.152 16.999 6.361 17.207 C 6.569 17.416 6.756 17.5 7.068 17.5 C 7.38 17.5 7.567 17.416 7.775 17.207 C 7.984 16.999 8.068 16.812 8.068 16.5 C 8.068 16.188 7.984 16.001 7.775 15.793 C 7.567 15.584 7.38 15.5 7.068 15.5 C 6.756 15.5 6.569 15.584 6.361 15.793 Z M 11.747 11.299 C 11.734 11.55 11.621 11.828 11.457 12.012 C 11.27 12.18 10.986 12.307 10.728 12.307 C 10.477 12.307 10.198 12.18 10.012 12.014 C 9.847 11.83 9.731 11.55 9.718 11.299 L 9.718 5.422 C 9.731 5.173 9.835 4.884 10.011 4.709 C 10.187 4.532 10.476 4.428 10.726 4.415 L 16.602 4.415 C 16.86 4.427 17.143 4.541 17.329 4.705 C 17.496 4.89 17.624 5.169 17.624 5.42 C 17.624 5.671 17.507 5.96 17.33 6.136 C 17.155 6.312 16.861 6.417 16.602 6.43 L 13.165 6.43 L 17.619 10.885 C 17.795 11.077 17.932 11.356 17.932 11.601 C 17.932 11.844 17.797 12.121 17.623 12.312 C 17.438 12.49 17.164 12.629 16.917 12.629 C 16.678 12.629 16.401 12.503 16.209 12.338 L 11.747 7.864 Z"/>
</svg>