<?xml version="1.0" encoding="utf-8"?>
<svg viewBox="0 0 22 22" xmlns="http://www.w3.org/2000/svg">
  <path d="M 8.068 3 L 8.068 13.687 C 8.584 13.883 8.986 14.11 9.39 14.605 C 9.795 15.1 10.051 15.819 10.068 16.5 C 10.046 17.293 9.705 18.106 9.189 18.621 C 8.674 19.137 7.861 19.5 7.068 19.5 C 6.275 19.5 5.462 19.137 4.947 18.621 C 4.431 18.106 4.09 17.292 4.068 16.5 C 4.084 15.818 4.34 15.098 4.744 14.603 C 5.149 14.107 5.549 13.877 6.068 13.682 L 6.068 3 C 6.068 2.724 6.292 2.5 6.568 2.5 L 7.568 2.5 C 7.844 2.5 8.068 2.724 8.068 3 Z M 6.361 15.793 C 6.152 16.001 6.068 16.188 6.068 16.5 C 6.068 16.812 6.152 16.999 6.361 17.207 C 6.569 17.416 6.756 17.5 7.068 17.5 C 7.38 17.5 7.567 17.416 7.775 17.207 C 7.984 16.999 8.068 16.812 8.068 16.5 C 8.068 16.188 7.984 16.001 7.775 15.793 C 7.567 15.584 7.38 15.5 7.068 15.5 C 6.756 15.5 6.569 15.584 6.361 15.793 Z M 15.903 7.864 L 11.441 12.338 C 11.249 12.503 10.972 12.629 10.733 12.629 C 10.486 12.629 10.212 12.49 10.027 12.312 C 9.853 12.121 9.718 11.844 9.718 11.601 C 9.718 11.356 9.855 11.077 10.031 10.885 L 14.485 6.43 L 11.048 6.43 C 10.789 6.417 10.495 6.312 10.32 6.136 C 10.143 5.96 10.026 5.671 10.026 5.42 C 10.026 5.169 10.154 4.89 10.321 4.705 C 10.507 4.541 10.79 4.427 11.048 4.415 L 16.924 4.415 C 17.174 4.428 17.463 4.532 17.639 4.709 C 17.815 4.884 17.919 5.173 17.932 5.422 L 17.932 11.299 C 17.919 11.55 17.803 11.83 17.638 12.014 C 17.452 12.18 17.173 12.307 16.922 12.307 C 16.664 12.307 16.38 12.18 16.193 12.012 C 16.029 11.828 15.916 11.55 15.903 11.299 L 15.903 7.864 Z"/>
</svg>