<?xml version="1.0" encoding="utf-8"?>
<svg viewBox="0 0 32 32" xmlns="http://www.w3.org/2000/svg">
  <path d="M 28.5 16.002 C 28.476 18.743 27.629 21.182 26.118 23.29 L 29.914 27.086 C 30.264 27.466 30.5 28.027 30.5 28.5 C 30.5 28.973 30.264 29.534 29.914 29.914 C 29.534 30.264 28.973 30.5 28.5 30.5 C 28.027 30.5 27.466 30.264 27.086 29.914 L 23.29 26.118 C 21.182 27.629 18.741 28.476 16 28.5 C 12.584 28.478 9.396 27.073 7.161 24.839 C 4.927 22.604 3.5 19.416 3.5 16 C 3.5 12.584 4.927 9.396 7.161 7.161 C 9.396 4.927 12.584 3.5 16 3.5 C 19.416 3.5 22.604 4.927 24.839 7.161 C 27.073 9.396 28.478 12.586 28.5 16.002 Z M 9.282 9.282 C 7.536 11.029 6.5 13.341 6.5 16 C 6.5 18.659 7.536 20.971 9.282 22.718 C 11.029 24.464 13.341 25.5 16 25.5 C 18.659 25.5 20.971 24.464 22.718 22.718 C 24.464 20.971 25.5 18.659 25.5 16 C 25.5 13.341 24.464 11.029 22.718 9.282 C 20.971 7.536 18.659 6.5 16 6.5 C 13.341 6.5 11.029 7.536 9.282 9.282 Z M 21.113 21.498 L 18.037 21.498 C 17.829 21.476 17.544 21.372 17.412 21.239 C 17.279 21.107 17.175 20.822 17.153 20.614 L 17.153 19.076 C 17.175 18.868 17.279 18.584 17.411 18.451 C 17.544 18.318 17.828 18.213 18.037 18.191 L 18.691 18.191 L 18.691 13.809 L 18.037 13.809 C 17.828 13.787 17.544 13.682 17.411 13.549 C 17.279 13.416 17.175 13.132 17.153 12.924 L 17.153 11.386 C 17.175 11.178 17.279 10.893 17.412 10.761 C 17.544 10.628 17.829 10.524 18.037 10.502 L 21.113 10.502 C 21.321 10.524 21.605 10.628 21.738 10.76 C 21.871 10.893 21.976 11.177 21.998 11.386 L 21.998 20.614 C 21.976 20.823 21.871 21.107 21.738 21.24 C 21.605 21.372 21.321 21.476 21.113 21.498 Z M 13.961 13.809 L 13.308 13.809 L 13.308 18.191 L 13.961 18.191 C 14.17 18.213 14.455 18.318 14.587 18.451 C 14.72 18.584 14.824 18.868 14.846 19.076 L 14.846 20.614 C 14.824 20.822 14.719 21.107 14.587 21.239 C 14.454 21.372 14.169 21.476 13.961 21.498 L 10.885 21.498 C 10.677 21.476 10.392 21.372 10.26 21.239 C 10.127 21.107 10.023 20.822 10.001 20.614 L 10.001 11.386 C 10.023 11.178 10.127 10.893 10.26 10.761 C 10.392 10.628 10.677 10.524 10.885 10.502 L 13.961 10.502 C 14.169 10.524 14.454 10.628 14.587 10.761 C 14.719 10.893 14.824 11.178 14.846 11.386 L 14.846 12.924 C 14.824 13.132 14.72 13.416 14.587 13.549 C 14.455 13.682 14.17 13.787 13.961 13.809 Z" stroke-linecap="round"/>
</svg>