<?xml version="1.0" encoding="utf-8"?>
<svg viewBox="0 0 32 32" xmlns="http://www.w3.org/2000/svg">
  <path d="M 7.196 19.5 L 12 19.5 C 12.276 19.5 12.5 19.724 12.5 20 L 12.5 22 C 12.5 22.276 12.276 22.5 12 22.5 L 11 22.5 C 10.724 22.5 10.5 22.276 10.5 22 L 10.5 21.5 L 9 21.5 C 9 21.5 8.991 22.247 9 22.422 C 9 22.422 9 22.422 9 22.422 L 9 22.422 C 10.781 24.411 13.272 25.521 16 25.5 C 16.005 25.5 16.011 25.5 16.016 25.5 C 18.738 25.515 21.223 24.407 23 22.422 L 23 22.422 C 23 22.422 23 22.422 23 22.422 C 23.006 22.124 23 21.5 23 21.5 L 21.5 21.5 L 21.5 22 C 21.5 22.276 21.276 22.5 21 22.5 L 20 22.5 C 19.724 22.5 19.5 22.276 19.5 22 L 19.5 20 C 19.5 19.724 19.724 19.5 20 19.5 L 24.804 19.5 C 24.834 19.427 24.863 19.355 24.891 19.283 C 25.294 18.233 25.497 17.149 25.5 16 C 25.522 13.341 24.464 11.029 22.718 9.282 C 20.971 7.536 18.659 6.5 16 6.5 C 13.341 6.5 11.029 7.536 9.282 9.282 C 7.536 11.029 6.478 13.341 6.5 16 C 6.504 17.153 6.708 18.244 7.116 19.3 C 7.142 19.366 7.168 19.433 7.196 19.5 Z M 11.45 17.891 C 10.935 17.891 10.492 17.706 10.12 17.334 C 9.749 16.964 9.564 16.517 9.564 15.99 C 9.564 15.463 9.749 15.011 10.12 14.631 C 10.492 14.25 10.935 14.061 11.45 14.061 L 14.113 14.061 L 14.113 11.453 C 14.113 10.922 14.29 10.466 14.641 10.085 C 14.992 9.703 15.443 9.511 15.99 9.511 C 16.523 9.511 16.981 9.703 17.365 10.085 C 17.75 10.466 17.943 10.922 17.943 11.453 L 17.943 14.061 L 20.55 14.061 C 21.065 14.061 21.508 14.249 21.88 14.627 C 22.251 15.006 22.436 15.46 22.436 15.993 C 22.436 16.509 22.251 16.955 21.88 17.329 C 21.508 17.702 21.065 17.891 20.55 17.891 L 17.943 17.891 L 17.943 20.497 C 17.943 21.028 17.758 21.484 17.387 21.865 C 17.017 22.249 16.557 22.44 16.01 22.44 C 15.461 22.44 15.009 22.249 14.65 21.865 C 14.292 21.484 14.113 21.028 14.113 20.497 L 14.113 17.891 Z M 28.5 16.002 C 28.476 18.743 27.629 21.182 26.118 23.29 L 29.915 27.086 C 30.264 27.466 30.5 28.027 30.5 28.5 C 30.5 28.973 30.263 29.534 29.914 29.915 C 29.534 30.264 28.973 30.5 28.5 30.5 C 28.027 30.5 27.466 30.264 27.085 29.915 L 23.29 26.118 C 21.182 27.629 18.741 28.476 16 28.5 C 12.584 28.478 9.396 27.073 7.161 24.839 C 4.927 22.604 3.5 19.416 3.5 16 C 3.5 12.584 4.927 9.396 7.161 7.161 C 9.396 4.927 12.584 3.5 16 3.5 C 19.416 3.5 22.604 4.927 24.839 7.161 C 27.073 9.396 28.478 12.586 28.5 16.002 Z"/>
</svg>