<?xml version="1.0" encoding="utf-8"?>
<svg viewBox="0 0 32 32" xmlns="http://www.w3.org/2000/svg">
  <path d="M 28.5 16.002 C 28.476 18.743 27.629 21.182 26.118 23.29 L 29.914 27.086 C 30.264 27.466 30.5 28.027 30.5 28.5 C 30.5 28.973 30.264 29.534 29.914 29.914 C 29.534 30.264 28.973 30.5 28.5 30.5 C 28.027 30.5 27.466 30.264 27.086 29.914 L 23.29 26.118 C 21.182 27.629 18.741 28.476 16 28.5 C 12.584 28.478 9.396 27.073 7.161 24.839 C 4.927 22.604 3.5 19.416 3.5 16 C 3.5 12.584 4.927 9.396 7.161 7.161 C 9.396 4.927 12.584 3.5 16 3.5 C 19.416 3.5 22.604 4.927 24.839 7.161 C 27.073 9.396 28.478 12.586 28.5 16.002 Z M 9.282 9.282 C 7.536 11.029 6.5 13.341 6.5 16 C 6.5 18.659 7.536 20.971 9.282 22.718 C 11.029 24.464 13.341 25.5 16 25.5 C 18.659 25.5 20.971 24.464 22.718 22.718 C 24.464 20.971 25.5 18.659 25.5 16 C 25.5 13.341 24.464 11.029 22.718 9.282 C 20.971 7.536 18.659 6.5 16 6.5 C 13.341 6.5 11.029 7.536 9.282 9.282 Z M 19.246 20.443 L 19.246 11.558 C 19.265 11.219 19.425 10.834 19.649 10.583 C 19.898 10.363 20.28 10.187 20.62 10.187 C 20.961 10.187 21.346 10.367 21.594 10.589 C 21.813 10.838 21.969 11.22 21.987 11.558 L 21.987 20.443 C 21.968 20.782 21.81 21.165 21.586 21.415 C 21.335 21.638 20.952 21.813 20.613 21.813 C 20.273 21.813 19.891 21.636 19.642 21.413 C 19.421 21.163 19.265 20.781 19.246 20.443 Z M 9.62 19.666 L 9.62 12.335 C 9.639 11.986 9.804 11.596 10.036 11.346 C 10.287 11.133 10.663 10.965 10.991 10.965 C 11.12 10.965 11.292 10.999 11.42 11.041 C 11.533 11.083 11.672 11.154 11.774 11.221 L 17.035 14.857 C 17.22 14.985 17.409 15.193 17.512 15.38 C 17.592 15.56 17.655 15.802 17.655 16 C 17.655 16.197 17.598 16.444 17.511 16.621 C 17.418 16.812 17.236 17.006 17.05 17.134 L 11.77 20.783 C 11.666 20.851 11.529 20.919 11.418 20.96 C 11.293 21.001 11.123 21.036 10.991 21.036 C 10.663 21.036 10.287 20.868 10.036 20.653 C 9.803 20.404 9.639 20.015 9.62 19.666 Z M 12.36 17.046 L 13.87 16 L 12.36 14.955 Z" stroke-linecap="round"/>
</svg>