<?xml version="1.0" encoding="utf-8"?>
<svg viewBox="0 0 32 32" xmlns="http://www.w3.org/2000/svg">
  <path d="M 28.5 16.002 C 28.476 18.743 27.629 21.182 26.118 23.29 L 29.915 27.086 C 30.264 27.466 30.5 28.027 30.5 28.5 C 30.5 28.973 30.263 29.534 29.914 29.915 C 29.534 30.264 28.973 30.5 28.5 30.5 C 28.027 30.5 27.466 30.264 27.085 29.915 L 23.29 26.118 C 21.182 27.629 18.741 28.476 16 28.5 C 12.584 28.478 9.396 27.073 7.161 24.839 C 4.927 22.604 3.5 19.416 3.5 16 C 3.5 12.584 4.927 9.396 7.161 7.161 C 9.396 4.927 12.584 3.5 16 3.5 C 19.416 3.5 22.604 4.927 24.839 7.161 C 27.073 9.396 28.478 12.586 28.5 16.002 Z M 9.282 9.282 C 7.536 11.029 6.5 13.341 6.5 16 C 6.5 18.659 7.536 20.971 9.282 22.718 C 11.029 24.464 13.341 25.5 16 25.5 C 18.659 25.5 20.971 24.464 22.718 22.718 C 24.464 20.971 25.5 18.659 25.5 16 C 25.5 13.341 24.464 11.029 22.718 9.282 C 20.971 7.536 18.659 6.5 16 6.5 C 13.341 6.5 11.029 7.536 9.282 9.282 Z" stroke-linecap="round"/>
</svg>