<?xml version="1.0" encoding="utf-8"?>
<svg viewBox="0 0 32 32" xmlns="http://www.w3.org/2000/svg">
  <path d="M 29 16.004 C 28.962 18.826 28.162 21.108 26.763 23.228 L 30.268 26.732 C 30.674 27.201 31 27.938 31 28.5 C 31 29.062 30.674 29.8 30.268 30.268 C 29.799 30.674 29.062 31 28.5 31 C 27.938 31 27.201 30.674 26.732 30.268 L 23.228 26.763 C 21.108 28.162 18.822 28.962 16 29 C 12.482 28.956 9.105 27.49 6.808 25.192 C 4.51 22.895 3 19.518 3 16 C 3 12.482 4.51 9.105 6.808 6.808 C 9.105 4.51 12.482 3 16 3 C 19.518 3 22.895 4.51 25.192 6.808 C 27.49 9.105 28.956 12.486 29 16.004 Z M 9.636 9.636 C 7.952 11.32 7 13.443 7 16 C 7 18.215 7.715 20.104 9 21.665 L 9 16 C 9 15.448 9.448 15 10 15 L 15 15 L 15 10 C 15 9.448 15.448 9 16 9 L 21.665 9 C 20.104 7.715 18.215 7 16 7 C 13.443 7 11.32 7.952 9.636 9.636 Z M 16 25 C 18.557 25 20.68 24.048 22.364 22.364 C 24.048 20.68 25 18.557 25 16 C 25 13.785 24.285 11.896 23 10.335 L 23 16 C 23 16.552 22.552 17 22 17 L 17 17 L 17 22 C 17 22.552 16.552 23 16 23 L 10.335 23 C 11.896 24.285 13.785 25 16 25 Z" stroke-width="2"/>
</svg>