<?xml version="1.0" encoding="utf-8"?>
<svg viewBox="0 0 32 32" xmlns="http://www.w3.org/2000/svg">
  <path d="M 28.5 16.002 C 28.476 18.743 27.629 21.182 26.118 23.29 L 29.915 27.086 C 30.264 27.466 30.5 28.027 30.5 28.5 C 30.5 28.973 30.263 29.534 29.914 29.915 C 29.534 30.264 28.973 30.5 28.5 30.5 C 28.027 30.5 27.466 30.264 27.085 29.915 L 23.29 26.118 C 21.182 27.629 18.741 28.476 16 28.5 C 12.584 28.478 9.396 27.073 7.161 24.839 C 4.927 22.604 3.5 19.416 3.5 16 C 3.5 12.584 4.927 9.396 7.161 7.161 C 9.396 4.927 12.584 3.5 16 3.5 C 19.416 3.5 22.604 4.927 24.839 7.161 C 27.073 9.396 28.478 12.586 28.5 16.002 Z M 9.282 9.282 C 7.536 11.029 6.478 13.341 6.5 16 C 6.505 17.326 6.774 18.57 7.313 19.773 L 8.42 21.709 C 10.217 24.144 12.961 25.523 16 25.5 C 19.039 25.522 21.783 24.144 23.58 21.709 L 24.687 19.773 C 25.226 18.57 25.496 17.328 25.5 16 C 25.522 13.341 24.464 11.029 22.718 9.282 C 20.971 7.536 18.659 6.5 16 6.5 C 13.341 6.5 11.029 7.536 9.282 9.282 Z M 10.853 18.268 C 10.853 17.783 11.019 17.365 11.352 17.017 C 11.684 16.67 12.106 16.497 12.62 16.497 C 13.107 16.497 13.52 16.67 13.857 17.017 C 14.194 17.365 14.362 17.783 14.362 18.268 L 14.362 20.654 C 14.362 21.141 14.196 21.552 13.863 21.887 C 13.53 22.223 13.121 22.39 12.633 22.39 C 12.119 22.39 11.694 22.223 11.359 21.887 C 11.022 21.552 10.853 21.141 10.853 20.654 Z M 17.952 11.176 C 17.952 10.689 18.119 10.271 18.451 9.924 C 18.783 9.576 19.194 9.403 19.682 9.403 C 20.17 9.403 20.582 9.576 20.92 9.924 C 21.256 10.271 21.424 10.689 21.424 11.176 L 21.424 20.654 C 21.424 21.141 21.258 21.552 20.925 21.887 C 20.594 22.223 20.183 22.39 19.696 22.39 C 19.207 22.39 18.794 22.223 18.458 21.887 C 18.121 21.552 17.952 21.141 17.952 20.654 Z" stroke-linecap="round"/>
</svg>