<?xml version="1.0" encoding="utf-8"?>
<svg viewBox="0 0 32 32" xmlns="http://www.w3.org/2000/svg">
  <path d="M 28.5 16.002 C 28.476 18.743 27.629 21.182 26.118 23.29 L 29.914 27.086 C 30.264 27.466 30.5 28.027 30.5 28.5 C 30.5 28.973 30.264 29.534 29.914 29.914 C 29.534 30.264 28.973 30.5 28.5 30.5 C 28.027 30.5 27.466 30.264 27.086 29.914 L 23.29 26.118 C 21.182 27.629 18.741 28.476 16 28.5 C 12.584 28.478 9.396 27.073 7.161 24.839 C 4.927 22.604 3.5 19.416 3.5 16 C 3.5 12.584 4.927 9.396 7.161 7.161 C 9.396 4.927 12.584 3.5 16 3.5 C 19.416 3.5 22.604 4.927 24.839 7.161 C 27.073 9.396 28.478 12.586 28.5 16.002 Z M 9.282 9.282 C 7.536 11.029 6.5 13.341 6.5 16 C 6.5 18.659 7.536 20.971 9.282 22.718 C 11.029 24.464 13.341 25.5 16 25.5 C 18.659 25.5 20.971 24.464 22.718 22.718 C 24.464 20.971 25.5 18.659 25.5 16 C 25.5 13.341 24.464 11.029 22.718 9.282 C 20.971 7.536 18.659 6.5 16 6.5 C 13.341 6.5 11.029 7.536 9.282 9.282 Z M 21.571 20.653 C 21.32 20.868 20.944 21.036 20.616 21.036 C 20.484 21.036 20.314 21.001 20.189 20.96 C 20.078 20.919 19.941 20.851 19.837 20.783 L 14.557 17.134 C 14.371 17.006 14.189 16.812 14.096 16.621 C 14.009 16.444 13.952 16.197 13.952 16 C 13.952 15.802 14.015 15.56 14.095 15.38 C 14.198 15.193 14.387 14.985 14.572 14.857 L 19.833 11.221 C 19.935 11.154 20.074 11.083 20.187 11.041 C 20.315 10.999 20.487 10.965 20.616 10.965 C 20.944 10.965 21.32 11.133 21.571 11.346 C 21.803 11.596 21.968 11.986 21.987 12.335 L 21.987 19.666 C 21.968 20.015 21.804 20.404 21.571 20.653 Z M 11.965 21.413 C 11.716 21.636 11.334 21.813 10.994 21.813 C 10.655 21.813 10.272 21.638 10.021 21.415 C 9.797 21.165 9.639 20.782 9.62 20.443 L 9.62 11.558 C 9.638 11.22 9.794 10.838 10.013 10.589 C 10.261 10.367 10.646 10.187 10.987 10.187 C 11.327 10.187 11.709 10.363 11.958 10.583 C 12.182 10.834 12.342 11.219 12.361 11.558 L 12.361 20.443 C 12.342 20.781 12.186 21.163 11.965 21.413 Z" stroke-linecap="round"/>
</svg>