<?xml version="1.0" encoding="utf-8"?>
<svg viewBox="0 0 32 32" xmlns="http://www.w3.org/2000/svg">
  <path d="M 28.5 16.002 C 28.476 18.743 27.629 21.182 26.118 23.29 L 29.914 27.086 C 30.264 27.466 30.5 28.027 30.5 28.5 C 30.5 28.973 30.264 29.534 29.914 29.914 C 29.534 30.264 28.973 30.5 28.5 30.5 C 28.027 30.5 27.466 30.264 27.086 29.914 L 23.29 26.118 C 21.182 27.629 18.741 28.476 16 28.5 C 12.584 28.478 9.396 27.073 7.161 24.839 C 4.927 22.604 3.5 19.416 3.5 16 C 3.5 12.584 4.927 9.396 7.161 7.161 C 9.396 4.927 12.584 3.5 16 3.5 C 19.416 3.5 22.604 4.927 24.839 7.161 C 27.073 9.396 28.478 12.586 28.5 16.002 Z M 9.282 9.282 C 7.536 11.029 6.5 13.341 6.5 16 C 6.5 18.659 7.536 20.971 9.282 22.718 C 11.029 24.464 13.341 25.5 16 25.5 C 18.659 25.5 20.971 24.464 22.718 22.718 C 24.464 20.971 25.5 18.659 25.5 16 C 25.5 13.341 24.464 11.029 22.718 9.282 C 20.971 7.536 18.659 6.5 16 6.5 C 13.341 6.5 11.029 7.536 9.282 9.282 Z M 21.498 10.887 L 21.498 13.963 C 21.476 14.171 21.372 14.456 21.239 14.588 C 21.107 14.721 20.822 14.825 20.614 14.847 L 19.076 14.847 C 18.868 14.825 18.584 14.721 18.451 14.589 C 18.318 14.456 18.213 14.172 18.191 13.963 L 18.191 13.309 L 13.809 13.309 L 13.809 13.963 C 13.787 14.172 13.682 14.456 13.549 14.589 C 13.416 14.721 13.132 14.825 12.924 14.847 L 11.386 14.847 C 11.178 14.825 10.893 14.721 10.761 14.588 C 10.628 14.456 10.524 14.171 10.502 13.963 L 10.502 10.887 C 10.524 10.679 10.628 10.395 10.76 10.262 C 10.893 10.129 11.177 10.024 11.386 10.002 L 20.614 10.002 C 20.823 10.024 21.107 10.129 21.24 10.262 C 21.372 10.395 21.476 10.679 21.498 10.887 Z M 13.809 18.039 L 13.809 18.692 L 18.191 18.692 L 18.191 18.039 C 18.213 17.83 18.318 17.545 18.451 17.413 C 18.584 17.28 18.868 17.176 19.076 17.154 L 20.614 17.154 C 20.822 17.176 21.107 17.281 21.239 17.413 C 21.372 17.546 21.476 17.831 21.498 18.039 L 21.498 21.115 C 21.476 21.323 21.372 21.608 21.239 21.74 C 21.107 21.873 20.822 21.977 20.614 21.999 L 11.386 21.999 C 11.178 21.977 10.893 21.873 10.761 21.74 C 10.628 21.608 10.524 21.323 10.502 21.115 L 10.502 18.039 C 10.524 17.831 10.628 17.546 10.761 17.413 C 10.893 17.281 11.178 17.176 11.386 17.154 L 12.924 17.154 C 13.132 17.176 13.416 17.28 13.549 17.413 C 13.682 17.545 13.787 17.83 13.809 18.039 Z" stroke-linecap="round"/>
</svg>