<?xml version="1.0" encoding="utf-8"?>
<svg viewBox="0 0 32 32" xmlns="http://www.w3.org/2000/svg">
  <path d="M 28.5 16.002 C 28.476 18.743 27.629 21.182 26.118 23.29 L 29.915 27.086 C 30.264 27.466 30.5 28.027 30.5 28.5 C 30.5 28.973 30.263 29.534 29.914 29.915 C 29.534 30.264 28.973 30.5 28.5 30.5 C 28.027 30.5 27.466 30.264 27.085 29.915 L 23.29 26.118 C 21.182 27.629 18.741 28.476 16 28.5 C 12.584 28.478 9.396 27.073 7.161 24.839 C 4.927 22.604 3.5 19.416 3.5 16 C 3.5 12.584 4.927 9.396 7.161 7.161 C 9.396 4.927 12.584 3.5 16 3.5 C 19.416 3.5 22.604 4.927 24.839 7.161 C 27.073 9.396 28.478 12.586 28.5 16.002 Z M 9.282 9.282 C 7.536 11.029 6.478 13.341 6.5 16 C 6.505 17.326 6.774 18.57 7.313 19.773 L 8.42 21.709 C 10.217 24.144 12.961 25.523 16 25.5 C 19.039 25.522 21.783 24.144 23.58 21.709 L 24.687 19.773 C 25.226 18.57 25.496 17.328 25.5 16 C 25.522 13.341 24.464 11.029 22.718 9.282 C 20.971 7.536 18.659 6.5 16 6.5 C 13.341 6.5 11.029 7.536 9.282 9.282 Z M 21.423 20.654 C 21.423 21.141 21.254 21.552 20.917 21.887 C 20.582 22.223 20.157 22.39 19.643 22.39 C 19.155 22.39 18.746 22.223 18.413 21.887 C 18.08 21.552 17.914 21.141 17.914 20.654 L 17.914 18.268 C 17.914 17.783 18.082 17.365 18.419 17.017 C 18.756 16.67 19.169 16.497 19.656 16.497 C 20.17 16.497 20.592 16.67 20.924 17.017 C 21.257 17.365 21.423 17.783 21.423 18.268 Z M 14.324 20.654 C 14.324 21.141 14.155 21.552 13.818 21.887 C 13.482 22.223 13.069 22.39 12.58 22.39 C 12.093 22.39 11.682 22.223 11.351 21.887 C 11.018 21.552 10.852 21.141 10.852 20.654 L 10.852 11.176 C 10.852 10.689 11.02 10.271 11.356 9.924 C 11.694 9.576 12.106 9.403 12.594 9.403 C 13.082 9.403 13.493 9.576 13.825 9.924 C 14.157 10.271 14.324 10.689 14.324 11.176 Z" stroke-linecap="round"/>
</svg>