<?xml version="1.0" encoding="utf-8"?>
<svg viewBox="0 0 32 32" xmlns="http://www.w3.org/2000/svg">
  <path d="M 30.5 28.5 C 30.5 28.973 30.263 29.534 29.914 29.915 C 29.534 30.264 28.973 30.5 28.5 30.5 C 28.027 30.5 27.466 30.264 27.085 29.915 L 23.307 26.135 C 22.353 26.817 21.291 27.371 20.157 27.772 C 19.169 28.126 18.128 28.356 17.035 28.451 C 16.693 28.481 16.348 28.498 16 28.5 C 15.765 28.499 15.531 28.49 15.299 28.476 C 15.259 28.474 15.22 28.471 15.181 28.468 C 15.109 28.463 15.037 28.457 14.965 28.451 C 13.872 28.356 12.831 28.126 11.843 27.772 C 11.649 27.703 11.457 27.63 11.267 27.553 C 9.712 26.918 8.311 25.988 7.161 24.839 C 7.16 24.838 7.16 24.838 7.159 24.837 C 4.926 22.602 3.5 19.415 3.5 16 C 3.5 16 3.5 16 3.5 16 C 3.5 12.584 4.927 9.396 7.161 7.161 C 9.396 4.927 12.584 3.5 16 3.5 C 19.416 3.5 22.604 4.927 24.839 7.161 C 27.073 9.396 28.5 12.584 28.5 16 C 28.5 16.001 28.5 16.001 28.5 16.002 C 28.5 18.698 27.61 21.253 26.136 23.308 L 29.915 27.086 C 30.264 27.466 30.5 28.027 30.5 28.5 Z M 22.926 22.5 L 22.758 22.5 C 22.482 22.5 22.258 22.276 22.258 22 L 22.258 21.5 L 21.5 21.5 L 21.5 22 C 21.5 22.276 21.276 22.5 21 22.5 L 19 22.5 C 18.724 22.5 18.5 22.276 18.5 22 L 18.5 21.5 L 17.5 21.5 L 17.5 22 C 17.5 22.276 17.276 22.5 17 22.5 L 15 22.5 C 14.724 22.5 14.5 22.276 14.5 22 L 14.5 21.5 L 13.5 21.5 L 13.5 22 C 13.5 22.276 13.276 22.5 13 22.5 L 11 22.5 C 10.724 22.5 10.5 22.276 10.5 22 L 10.5 21.5 L 9.742 21.5 L 9.742 22 C 9.742 22.276 9.518 22.5 9.242 22.5 L 9.074 22.5 C 9.187 22.623 9.3 22.742 9.416 22.858 C 11.074 24.489 13.254 25.426 15.635 25.496 C 15.729 25.499 15.824 25.5 15.919 25.5 C 15.946 25.5 15.973 25.5 16 25.5 C 16.027 25.5 16.054 25.5 16.081 25.5 C 16.152 25.5 16.222 25.499 16.293 25.498 C 18.703 25.444 20.912 24.504 22.588 22.855 C 22.702 22.74 22.814 22.622 22.926 22.5 Z M 7.196 19.5 L 24.804 19.5 C 24.835 19.426 24.864 19.351 24.893 19.277 C 25.282 18.261 25.484 17.213 25.499 16.106 C 25.5 16.071 25.5 16.035 25.5 16 C 25.522 13.341 24.464 11.029 22.718 9.282 C 20.971 7.536 18.659 6.5 16 6.5 C 13.341 6.5 11.029 7.536 9.282 9.282 C 7.536 11.029 6.478 13.341 6.5 16 C 6.504 17.153 6.708 18.244 7.116 19.3 C 7.142 19.366 7.168 19.433 7.196 19.5 Z M 11.45 17.891 C 10.935 17.891 10.492 17.706 10.12 17.334 C 9.749 16.964 9.564 16.517 9.564 15.99 C 9.564 15.463 9.749 15.011 10.12 14.631 C 10.492 14.25 10.935 14.061 11.45 14.061 L 20.55 14.061 C 21.065 14.061 21.508 14.249 21.88 14.627 C 22.251 15.006 22.436 15.46 22.436 15.993 C 22.436 16.509 22.251 16.955 21.88 17.329 C 21.508 17.702 21.065 17.891 20.55 17.891 Z" stroke-linecap="round"/>
</svg>