<?xml version="1.0" encoding="utf-8"?>
<svg viewBox="0 0 32 32" xmlns="http://www.w3.org/2000/svg">
  <path d="M 28.5 16.002 C 28.476 18.743 27.629 21.182 26.118 23.29 L 29.915 27.086 C 30.264 27.466 30.5 28.027 30.5 28.5 C 30.5 28.973 30.263 29.534 29.914 29.915 C 29.534 30.264 28.973 30.5 28.5 30.5 C 28.027 30.5 27.466 30.264 27.085 29.915 L 23.29 26.118 C 21.182 27.629 18.741 28.476 16 28.5 C 12.584 28.478 9.396 27.073 7.161 24.839 C 4.927 22.604 3.5 19.416 3.5 16 C 3.5 12.584 4.927 9.396 7.161 7.161 C 9.396 4.927 12.584 3.5 16 3.5 C 19.416 3.5 22.604 4.927 24.839 7.161 C 27.073 9.396 28.478 12.586 28.5 16.002 Z M 9.282 9.282 C 7.536 11.029 6.478 13.341 6.5 16 C 6.505 17.326 6.774 18.57 7.313 19.773 L 8.42 21.709 C 10.217 24.144 12.961 25.523 16 25.5 C 19.039 25.522 21.783 24.144 23.58 21.709 L 24.687 19.773 C 25.226 18.57 25.496 17.328 25.5 16 C 25.522 13.341 24.464 11.029 22.718 9.282 C 20.971 7.536 18.659 6.5 16 6.5 C 13.341 6.5 11.029 7.536 9.282 9.282 Z M 11.45 17.891 C 10.935 17.891 10.492 17.706 10.12 17.334 C 9.749 16.964 9.564 16.517 9.564 15.99 C 9.564 15.463 9.749 15.011 10.12 14.631 C 10.492 14.25 10.935 14.061 11.45 14.061 L 20.55 14.061 C 21.065 14.061 21.508 14.249 21.88 14.627 C 22.251 15.006 22.436 15.46 22.436 15.993 C 22.436 16.509 22.251 16.955 21.88 17.329 C 21.508 17.702 21.065 17.891 20.55 17.891 L 11.45 17.891 Z" stroke-linecap="round"/>
</svg>