<?xml version="1.0" encoding="utf-8"?>
<svg viewBox="0 0 32 32" xmlns="http://www.w3.org/2000/svg">
  <path d="M 12.5 7.196 L 12.5 12 C 12.5 12.276 12.276 12.5 12 12.5 L 10 12.5 C 9.724 12.5 9.5 12.276 9.5 12 L 9.5 11 C 9.5 10.724 9.724 10.5 10 10.5 L 10.5 10.5 L 10.5 9.506 L 9.995 9.5 C 9.744 9.497 9.537 9.31 9.504 9.067 C 9.429 9.137 9.355 9.209 9.282 9.282 C 7.656 10.909 6.627 13.025 6.511 15.456 C 6.502 15.636 6.498 15.817 6.5 16 C 6.505 17.326 6.774 18.57 7.313 19.773 L 8.42 21.709 C 8.7 22.089 9.004 22.443 9.327 22.77 C 9.385 22.825 9.444 22.88 9.503 22.934 C 9.517 22.809 9.577 22.694 9.673 22.611 C 9.783 22.516 9.929 22.473 10.072 22.494 L 10.5 22.557 L 10.5 21.5 L 10 21.5 C 9.724 21.5 9.5 21.276 9.5 21 L 9.5 20 C 9.5 19.724 9.724 19.5 10 19.5 L 12 19.5 C 12.276 19.5 12.5 19.724 12.5 20 L 12.5 24.804 C 13.619 25.265 14.672 25.496 16 25.5 C 16.523 25.504 17.033 25.467 17.528 25.391 C 19.547 25.079 21.315 24.12 22.718 22.718 C 22.791 22.645 22.863 22.571 22.933 22.496 C 23.16 22.248 23.376 21.985 23.58 21.709 L 24.687 19.773 C 25.226 18.57 25.496 17.328 25.5 16 C 25.5 13.341 24.464 11.029 22.718 9.282 C 20.971 7.536 18.659 6.5 16 6.5 C 14.674 6.505 13.619 6.735 12.5 7.196 Z M 11.45 17.891 C 10.935 17.891 10.492 17.706 10.12 17.334 C 9.749 16.964 9.564 16.517 9.564 15.99 C 9.564 15.463 9.749 15.011 10.12 14.631 C 10.492 14.25 10.935 14.061 11.45 14.061 L 20.55 14.061 C 21.065 14.061 21.508 14.249 21.88 14.627 C 22.251 15.006 22.436 15.46 22.436 15.993 C 22.436 16.509 22.251 16.955 21.88 17.329 C 21.508 17.702 21.065 17.891 20.55 17.891 Z M 28.5 16.002 C 28.476 18.743 27.629 21.182 26.118 23.29 L 29.915 27.086 C 30.264 27.466 30.5 28.027 30.5 28.5 C 30.5 28.973 30.263 29.534 29.914 29.915 C 29.534 30.264 28.973 30.5 28.5 30.5 C 28.027 30.5 27.466 30.264 27.085 29.915 L 23.29 26.118 C 21.182 27.629 18.741 28.476 16 28.5 C 12.584 28.478 9.396 27.073 7.161 24.839 C 4.927 22.604 3.5 19.416 3.5 16 C 3.5 12.584 4.927 9.396 7.161 7.161 C 9.396 4.927 12.584 3.5 16 3.5 C 19.416 3.5 22.604 4.927 24.839 7.161 C 27.073 9.396 28.478 12.586 28.5 16.002 Z"/>
</svg>