<svg fill="rgb(175,85,225)" clip-rule="evenodd" fill-rule="evenodd" stroke-linejoin="round" stroke-miterlimit="2" viewBox="0 0 245 210" xmlns="http://www.w3.org/2000/svg"><path d="m7.144 3.567h7.776c1.298 0 2.556.471 3.554 1.331l12.589 10.352c1.267 1.093 2 2.712 2 4.419v6.263c0 1.186-.455 2.324-1.265 3.162-.81.839-1.909 1.311-3.055 1.311h-21.599c-1.146 0-2.244-.472-3.055-1.311-.81-.838-1.265-1.976-1.265-3.162v-17.892c0-1.187.455-2.324 1.265-3.163.811-.839 1.909-1.31 3.055-1.31zm0 2.226c-.575 0-1.127.237-1.534.658-.407.422-.636.993-.636 1.589v17.892c0 .595.229 1.167.636 1.588s.959.658 1.534.658h21.599c.576 0 1.128-.237 1.535-.658s.635-.993.635-1.588v-6.263c0-1.046-.449-2.038-1.226-2.708l-12.589-10.352c-.612-.527-1.382-.816-2.178-.816zm.285 3.491c-.56 0-1.015-.448-1.015-1s.455-1 1.015-1h7.043c.56 0 1.014.448 1.014 1s-.454 1-1.014 1zm15.719-2.401c-.33-.269-.459-.726-.322-1.137.138-.412.513-.688.933-.688h6.013c.491 0 .962.202 1.309.561.347.36.542.847.542 1.356v4.712c0 .391-.216.748-.556.919s-.745.126-1.042-.116z" transform="matrix(8.10206 0 0 7.82482 -22.8811 -27.9099)"/><path d="m102-105c-13.167 0-24.29-4.56-33.37-13.68-9.087-9.113-13.63-20.28-13.63-33.5 0-13.213 4.543-24.32 13.63-33.32 9.08-9 20.203-13.5 33.37-13.5h756c13.087 0 24.357 4.56 33.81 13.68 9.46 9.113 14.19 20.28 14.19 33.5 0 13.213-4.73 24.32-14.19 33.32-9.453 9-20.723 13.5-33.81 13.5zm59.53-169c-18.74 0-34.513-6.513-47.32-19.54s-19.21-28.847-19.21-47.46v-137c0-18.887 6.49-34.943 19.47-48.17 12.987-13.22 28.75-19.83 47.29-19.83 18.547 0 34.39 6.61 47.53 19.83 13.14 13.227 19.71 29.283 19.71 48.17v137c0 18.613-6.56 34.433-19.68 47.46s-29.05 19.54-47.79 19.54zm211.35 0c-18.64 0-34.447-6.513-47.42-19.54s-19.46-28.847-19.46-47.46v-337c0-18.887 6.527-34.943 19.58-48.17 13.047-13.22 28.893-19.83 47.54-19.83 18.64 0 34.447 6.61 47.42 19.83 12.973 13.227 19.46 29.283 19.46 48.17v337c0 18.613-6.527 34.433-19.58 47.46-13.047 13.027-28.893 19.54-47.54 19.54zm212 0c-18.64 0-34.447-6.513-47.42-19.54s-19.46-28.847-19.46-47.46v-217c0-18.887 6.56-34.943 19.68-48.17 13.12-13.22 29.05-19.83 47.79-19.83s34.68 6.61 47.82 19.83c13.14 13.227 19.71 29.283 19.71 48.17v217c0 18.613-6.623 34.433-19.87 47.46s-29.33 19.54-48.25 19.54zm213 0c-18.64 0-34.447-6.513-47.42-19.54s-19.46-28.847-19.46-47.46v-457c0-18.887 6.56-34.943 19.68-48.17 13.12-13.22 29.05-19.83 47.79-19.83s34.68 6.61 47.82 19.83c13.14 13.227 19.71 29.283 19.71 48.17v457c0 18.613-6.623 34.433-19.87 47.46s-29.33 19.54-48.25 19.54z" fill-rule="nonzero" transform="matrix(.130704 0 0 .130704 59.6965 194.257)"/></svg>