<svg fill="rgb(175,85,225)" clip-rule="evenodd" fill-rule="evenodd" stroke-linejoin="round" stroke-miterlimit="2" viewBox="0 0 245 210" xmlns="http://www.w3.org/2000/svg"><path d="m7.144 3.567h7.776c1.298 0 2.556.471 3.554 1.331l12.589 10.352c1.267 1.093 2 2.712 2 4.419v6.263c0 1.186-.455 2.324-1.265 3.162-.81.839-1.909 1.311-3.055 1.311h-21.599c-1.146 0-2.244-.472-3.055-1.311-.81-.838-1.265-1.976-1.265-3.162v-17.892c0-1.187.455-2.324 1.265-3.163.811-.839 1.909-1.31 3.055-1.31zm0 2.226c-.575 0-1.127.237-1.534.658-.407.422-.636.993-.636 1.589v17.892c0 .595.229 1.167.636 1.588s.959.658 1.534.658h21.599c.576 0 1.128-.237 1.535-.658s.635-.993.635-1.588v-6.263c0-1.046-.449-2.038-1.226-2.708l-12.589-10.352c-.612-.527-1.382-.816-2.178-.816zm.285 3.491c-.56 0-1.015-.448-1.015-1s.455-1 1.015-1h7.043c.56 0 1.014.448 1.014 1s-.454 1-1.014 1zm15.719-2.401c-.33-.269-.459-.726-.322-1.137.138-.412.513-.688.933-.688h6.013c.491 0 .962.202 1.309.561.347.36.542.847.542 1.356v4.712c0 .391-.216.748-.556.919s-.745.126-1.042-.116z" transform="matrix(8.10206 0 0 7.82482 -22.8811 -27.9099)"/><path d="m35-228c-13.167 0-24.29-4.543-33.37-13.63-9.087-9.08-13.63-20.203-13.63-33.37v-18c0-29.86 15-53.827 45-71.9 30-18.067 69.127-27.1 117.38-27.1h11.62c3.333 0 7 .217 11 .65-6.667 13.567-11.667 27.457-15 41.67-3.333 14.22-5 29.053-5 44.5v77.18zm240 0c-13.167 0-24.29-4.543-33.37-13.63-9.087-9.08-13.63-20.203-13.63-33.37v-30c0-23.333 6-44.667 18-64s29.333-36 52-50 49.43-24.667 80.29-32c30.867-7.333 64.677-11 101.43-11 37.467 0 71.463 3.667 101.99 11 30.533 7.333 57.297 18 80.29 32 22.667 14 40 30.667 52 50s18 40.667 18 64v30c0 13.167-4.54 24.29-13.62 33.37-9.087 9.087-20.213 13.63-33.38 13.63zm532 0v-77.43c0-15.867-1.667-30.907-5-45.12s-8-27.787-14-40.72c4-.487 7.753-.73 11.26-.73h10.74c49.133 0 88.417 9.017 117.85 27.05 29.433 18.027 44.15 42.01 44.15 71.95v18c0 13.167-4.54 24.29-13.62 33.37-9.087 9.087-20.213 13.63-33.38 13.63zm-485-80h316v-6c-5.333-21.333-22.167-38.167-50.5-50.5s-64.167-18.5-107.5-18.5-79.167 6.333-107.5 19-45.167 29.667-50.5 51zm-172.22-111c-21.187 0-39.28-7.61-54.28-22.83s-22.5-33.517-22.5-54.89c0-21.52 7.54-39.78 22.62-54.78 15.087-15 33.22-22.5 54.4-22.5 21.32 0 39.647 7.513 54.98 22.54 15.333 15.02 23 33.343 23 54.97 0 20.993-7.58 39.157-22.74 54.49s-33.653 23-55.48 23zm660 0c-21.187 0-39.28-7.61-54.28-22.83s-22.5-33.517-22.5-54.89c0-21.52 7.54-39.78 22.62-54.78 15.087-15 33.22-22.5 54.4-22.5 21.32 0 39.647 7.513 54.98 22.54 15.333 15.02 23 33.343 23 54.97 0 20.993-7.58 39.157-22.74 54.49s-33.653 23-55.48 23zm-329.29-72c-36.8 0-68.083-12.88-93.85-38.64-25.76-25.767-38.64-57.05-38.64-93.85 0-37.007 12.88-68.177 38.64-93.51 25.767-25.333 57.05-38 93.85-38 37.007 0 68.177 12.667 93.51 38s38 56.503 38 93.51c0 36.8-12.667 68.083-38 93.85-25.333 25.76-56.503 38.64-93.51 38.64zm.36-80c14.1 0 26.317-5.153 36.65-15.46 10.333-10.3 15.5-22.8 15.5-37.5 0-14.693-5.257-27.04-15.77-37.04-10.52-10-22.813-15-36.88-15-14.9 0-27.35 5.027-37.35 15.08s-15 22.513-15 37.38c0 14.36 4.95 26.707 14.85 37.04s22.567 15.5 38 15.5z" fill-rule="nonzero" transform="matrix(.126528 0 0 .126528 61.7666 195.718)"/></svg>