<svg fill="rgb(175,85,225)" clip-rule="evenodd" fill-rule="evenodd" stroke-linejoin="round" stroke-miterlimit="2" viewBox="0 0 48 48" xmlns="http://www.w3.org/2000/svg"><g fill-rule="nonzero" transform="matrix(2.08956 0 0 2.08956 -1.09675 -1.0769)"><path d="m4.71 3.29c-.093-.093-.204-.167-.326-.217-.121-.051-.252-.077-.384-.077s-.262.026-.384.077c-.122.05-.233.124-.326.217-.188.188-.294.444-.294.71s.106.522.294.71l5.63 5.63c-.356.663-.489 1.423-.38 2.167.11.744.456 1.433.988 1.965s1.221.879 1.965.988c.745.11 1.505-.024 2.167-.38l5.63 5.63c.093.094.204.168.326.219s.252.077.384.077.263-.026.385-.077.232-.125.325-.219c.094-.093.168-.203.219-.325s.077-.253.077-.385-.026-.262-.077-.384-.125-.233-.219-.326zm7.29 10.21c-.398 0-.779-.158-1.06-.439-.282-.281-.44-.663-.44-1.061v-.07l1.56 1.56z"/><path d="m12.22 17c-4.3.1-7.12-3.59-8-5 .627-.999 1.379-1.913 2.24-2.72l-1.46-1.41c-1.129 1.064-2.096 2.287-2.87 3.63-.088.152-.134.325-.134.5 0 .176.046.348.134.5.63 1.09 4 6.5 9.89 6.5h.25c1.108-.032 2.201-.259 3.23-.67l-1.58-1.58c-.556.147-1.126.23-1.7.25zm9.65-5.5c-.64-1.11-4.17-6.68-10.14-6.5-1.107.033-2.201.26-3.23.67l1.58 1.58c.556-.146 1.126-.23 1.7-.25 4.29-.11 7.11 3.59 8 5-.642 1.003-1.412 1.917-2.29 2.72l1.51 1.41c1.143-1.06 2.123-2.283 2.91-3.63.082-.155.121-.329.114-.505s-.06-.346-.154-.495z"/></g></svg>