<svg fill="rgb(255,50,50)" width="100%" height="100%" viewBox="0 0 245 210" version="1.1" xmlns="http://www.w3.org/2000/svg" xmlns:xlink="http://www.w3.org/1999/xlink" xml:space="preserve" xmlns:serif="http://www.serif.com/" style="fill-rule:evenodd;clip-rule:evenodd;stroke-linejoin:round;stroke-miterlimit:2;">
    <g transform="matrix(8.10206,0,0,7.82482,-22.8811,-27.9099)">
        <path d="M7.144,3.567L14.92,3.567C16.218,3.567 17.476,4.038 18.474,4.898L31.063,15.25C32.33,16.343 33.063,17.962 33.063,19.669L33.063,25.932C33.063,27.118 32.608,28.256 31.798,29.094C30.988,29.933 29.889,30.405 28.743,30.405L7.144,30.405C5.998,30.405 4.9,29.933 4.089,29.094C3.279,28.256 2.824,27.118 2.824,25.932L2.824,8.04C2.824,6.853 3.279,5.716 4.089,4.877C4.9,4.038 5.998,3.567 7.144,3.567ZM7.144,5.793C6.569,5.793 6.017,6.03 5.61,6.451C5.203,6.873 4.974,7.444 4.974,8.04L4.974,25.932C4.974,26.527 5.203,27.099 5.61,27.52C6.017,27.941 6.569,28.178 7.144,28.178L28.743,28.178C29.319,28.178 29.871,27.941 30.278,27.52C30.685,27.099 30.913,26.527 30.913,25.932L30.913,19.669C30.913,18.623 30.464,17.631 29.687,16.961L17.098,6.609C16.486,6.082 15.716,5.793 14.92,5.793L7.144,5.793ZM7.429,9.284C6.869,9.284 6.414,8.836 6.414,8.284C6.414,7.732 6.869,7.284 7.429,7.284L14.472,7.284C15.032,7.284 15.486,7.732 15.486,8.284C15.486,8.836 15.032,9.284 14.472,9.284L7.429,9.284ZM23.148,6.883C22.818,6.614 22.689,6.157 22.826,5.746C22.964,5.334 23.339,5.058 23.759,5.058L29.772,5.058C30.263,5.058 30.734,5.26 31.081,5.619C31.428,5.979 31.623,6.466 31.623,6.975L31.623,11.687C31.623,12.078 31.407,12.435 31.067,12.606C30.727,12.777 30.322,12.732 30.025,12.49L23.148,6.883Z"/>
    </g>
    <g transform="matrix(0.118283,0,0,0.118283,65.724,187.867)">
        <path d="M139,-62C112.693,-62 90.283,-71.157 71.77,-89.47C53.257,-107.79 44,-129.967 44,-156L44,-803C44,-829.307 53.257,-851.883 71.77,-870.73C90.283,-889.577 112.693,-899 139,-899L823,-899C848.56,-899 870.45,-889.577 888.67,-870.73C906.89,-851.883 916,-829.307 916,-803L916,-156C916,-129.967 906.89,-107.79 888.67,-89.47C870.45,-71.157 848.56,-62 823,-62L139,-62ZM325,-218.152C325,-183.827 352.827,-156 387.152,-156L575.848,-156C610.173,-156 638,-183.827 638,-218.152L638,-740.848C638,-775.173 610.173,-803 575.848,-803L387.152,-803C352.827,-803 325,-775.173 325,-740.848L325,-218.152ZM325,-803L638,-803L325,-803ZM139,-190.023C139,-180.999 142.584,-172.345 148.965,-165.965C155.345,-159.584 163.999,-156 173.023,-156L195.977,-156C205.001,-156 213.655,-159.584 220.035,-165.965C226.416,-172.345 230,-180.999 230,-190.023L230,-212.977C230,-222.001 226.416,-230.655 220.035,-237.035C213.655,-243.416 205.001,-247 195.977,-247L173.023,-247C163.999,-247 155.345,-243.416 148.965,-237.035C142.584,-230.655 139,-222.001 139,-212.977L139,-190.023ZM731,-190.023C731,-180.999 734.584,-172.345 740.965,-165.965C747.345,-159.584 755.999,-156 765.023,-156L788.977,-156C798.001,-156 806.655,-159.584 813.035,-165.965C819.416,-172.345 823,-180.999 823,-190.023L823,-212.977C823,-222.001 819.416,-230.655 813.035,-237.035C806.655,-243.416 798.001,-247 788.977,-247L765.023,-247C755.999,-247 747.345,-243.416 740.965,-237.035C734.584,-230.655 731,-222.001 731,-212.977L731,-190.023ZM139,-374.023C139,-364.999 142.584,-356.345 148.965,-349.965C155.345,-343.584 163.999,-340 173.023,-340L195.977,-340C205.001,-340 213.655,-343.584 220.035,-349.965C226.416,-356.345 230,-364.999 230,-374.023L230,-397.977C230,-407.001 226.416,-415.655 220.035,-422.035C213.655,-428.416 205.001,-432 195.977,-432L173.023,-432C163.999,-432 155.345,-428.416 148.965,-422.035C142.584,-415.655 139,-407.001 139,-397.977L139,-374.023ZM731,-374.023C731,-364.999 734.584,-356.345 740.965,-349.965C747.345,-343.584 755.999,-340 765.023,-340L788.977,-340C798.001,-340 806.655,-343.584 813.035,-349.965C819.416,-356.345 823,-364.999 823,-374.023L823,-397.977C823,-407.001 819.416,-415.655 813.035,-422.035C806.655,-428.416 798.001,-432 788.977,-432L765.023,-432C755.999,-432 747.345,-428.416 740.965,-422.035C734.584,-415.655 731,-407.001 731,-397.977L731,-374.023ZM139,-560.023C139,-550.999 142.584,-542.345 148.965,-535.965C155.345,-529.584 163.999,-526 173.023,-526L195.977,-526C205.001,-526 213.655,-529.584 220.035,-535.965C226.416,-542.345 230,-550.999 230,-560.023L230,-583.977C230,-593.001 226.416,-601.655 220.035,-608.035C213.655,-614.416 205.001,-618 195.977,-618L173.023,-618C163.999,-618 155.345,-614.416 148.965,-608.035C142.584,-601.655 139,-593.001 139,-583.977L139,-560.023ZM731,-560.023C731,-550.999 734.584,-542.345 740.965,-535.965C747.345,-529.584 755.999,-526 765.023,-526L788.977,-526C798.001,-526 806.655,-529.584 813.035,-535.965C819.416,-542.345 823,-550.999 823,-560.023L823,-583.977C823,-593.001 819.416,-601.655 813.035,-608.035C806.655,-614.416 798.001,-618 788.977,-618L765.023,-618C755.999,-618 747.345,-614.416 740.965,-608.035C734.584,-601.655 731,-593.001 731,-583.977L731,-560.023ZM139,-746.023C139,-736.999 142.584,-728.345 148.965,-721.965C155.345,-715.584 163.999,-712 173.023,-712L195.977,-712C205.001,-712 213.655,-715.584 220.035,-721.965C226.416,-728.345 230,-736.999 230,-746.023L230,-768.977C230,-778.001 226.416,-786.655 220.035,-793.035C213.655,-799.416 205.001,-803 195.977,-803L173.023,-803C163.999,-803 155.345,-799.416 148.965,-793.035C142.584,-786.655 139,-778.001 139,-768.977L139,-746.023ZM731,-746.023C731,-736.999 734.584,-728.345 740.965,-721.965C747.345,-715.584 755.999,-712 765.023,-712L788.977,-712C798.001,-712 806.655,-715.584 813.035,-721.965C819.416,-728.345 823,-736.999 823,-746.023L823,-768.977C823,-778.001 819.416,-786.655 813.035,-793.035C806.655,-799.416 798.001,-803 788.977,-803L765.023,-803C755.999,-803 747.345,-799.416 740.965,-793.035C734.584,-786.655 731,-778.001 731,-768.977L731,-746.023Z" style="fill-rule:nonzero;"/>
    </g>
</svg>
