<svg fill="rgb(255,50,50)" clip-rule="evenodd" fill-rule="evenodd" stroke-linejoin="round" stroke-miterlimit="2" viewBox="0 0 48 48" xmlns="http://www.w3.org/2000/svg"><path d="m31.623 15.807c.921 1.05 1.44 2.425 1.44 3.862v7.28c0 1.909-1.494 3.456-3.338 3.456h-23.563c-.886 0-1.735-.364-2.36-1.012-.626-.648-.978-1.527-.978-2.444v-19.926c0-.917.352-1.796.978-2.444.625-.648 1.474-1.012 2.36-1.012h8.758c1.298 0 2.556.471 3.554 1.331l.194.159h9.618c1.843 0 3.337 1.548 3.337 3.456zm-2.449 1.791-12.592-10.355c-.468-.401-1.055-.621-1.662-.621h-7.301c-.489 0-.958.202-1.304.56-.346.357-.54.843-.54 1.349v16.909c0 .506.194.992.54 1.349.346.358.815.56 1.304.56h20.649c.489 0 .958-.202 1.304-.559.346-.358.54-.844.54-1.35v-5.771c0-.795-.339-1.549-.926-2.061z" transform="matrix(1.49809 0 0 1.44683 -2.88106 -.60089)"/><path d="m548-398v62.6c0 10.367 3.327 19.027 9.98 25.98 6.647 6.947 15.213 10.42 25.7 10.42 10.48 0 19.153-3.307 26.02-9.92 6.867-6.62 10.3-15.213 10.3-25.78v-63.3h64.91c9.893 0 18.383-3.327 25.47-9.98 7.08-6.647 10.62-15.38 10.62-26.2 0-10.813-3.307-19.487-9.92-26.02-6.62-6.533-15.313-9.8-26.08-9.8h-65v-63.5c0-10.34-3.467-19.01-10.4-26.01-6.933-6.993-15.527-10.49-25.78-10.49-10.813 0-19.487 3.497-26.02 10.49-6.533 7-9.8 15.67-9.8 26.01v63.5h-65.02c-10.487 0-19.103 3.327-25.85 9.98-6.753 6.647-10.13 15.38-10.13 26.2 0 10.813 3.307 19.487 9.92 26.02 6.62 6.533 15.313 9.8 26.08 9.8z" fill-rule="nonzero" transform="matrix(.0416338 -.0416338 .0416338 .0416338 17.7758 70.0726)"/></svg>