<svg fill="rgb(255,50,50)" clip-rule="evenodd" fill-rule="evenodd" stroke-linejoin="round" stroke-miterlimit="2" viewBox="0 0 48 48" xmlns="http://www.w3.org/2000/svg"><path d="m26.35 43.25v.05-.05c-.3.1-1.592.117-3.875.05s-4.742-.4-7.375-1-5.017-1.542-7.15-2.825-3.2-3.108-3.2-5.475c0 2.367 1.067 4.192 3.2 5.475s4.517 2.225 7.15 2.825 5.092.933 7.375 1 3.575.05 3.875-.05zm-2.05-10.7v-.05.05c-1.733.033-3.317-.033-4.75-.2s-2.767-.4-4-.7-2.383-.675-3.45-1.125-2.067-.958-3-1.525c.933.567 1.933 1.075 3 1.525s2.217.825 3.45 1.125 2.567.533 4 .7 3.017.233 4.75.2zm-.3-15c2.833 0 5.733-.425 8.7-1.275s4.933-1.842 5.9-2.975c-1-1.067-3-2.042-6-2.925s-5.867-1.325-8.6-1.325c-2.867 0-5.775.433-8.725 1.3s-4.908 1.85-5.875 2.95c.967 1.233 2.9 2.25 5.8 3.05s5.833 1.2 8.8 1.2zm.75 21.35c.1.8.292 1.567.575 2.3s.625 1.417 1.025 2.05c-.267.1-1.55.117-3.85.05s-4.767-.4-7.4-1-5.017-1.542-7.15-2.825-3.2-3.108-3.2-5.475v-20c0-2.567 1.875-4.758 5.625-6.575s8.292-2.725 13.625-2.725c5.3 0 9.842.908 13.625 2.725s5.675 4.008 5.675 6.575v12.05c-.667-.367-1.367-.692-2.1-.975s-1.483-.458-2.25-.525v-6.15c-2.1 1.1-4.425 1.942-6.975 2.525s-5.225.875-8.025.875c-2.733 0-5.417-.3-8.05-.9s-4.9-1.433-6.8-2.5v6.8c1.867.7 4.025 1.375 6.475 2.025s5.242.975 8.375.975c.7 0 1.408-.017 2.125-.05s1.425-.083 2.125-.15c-.633.667-1.167 1.375-1.6 2.125s-.783 1.558-1.05 2.425h-1.25c-3.467.033-6.392-.267-8.775-.9s-4.525-1.517-6.425-2.65v5.2c.167.567.783 1.133 1.85 1.7s2.35 1.075 3.85 1.525 3.133.817 4.9 1.1 3.45.408 5.05.375z" fill-rule="nonzero"/><path d="m37.023 47c-1.446 0-2.797-.271-4.053-.809-1.255-.537-2.352-1.277-3.293-2.218s-1.681-2.038-2.218-3.291c-.538-1.256-.809-2.607-.809-4.054s.271-2.799.809-4.056 1.277-2.352 2.216-3.286c.937-.933 2.031-1.672 3.284-2.216 1.258-.545 2.612-.82 4.061-.82s2.803.274 4.064.818c1.257.543 2.351 1.281 3.283 2.212s1.67 2.026 2.214 3.284c.545 1.262.819 2.617.819 4.066s-.275 2.802-.82 4.06c-.545 1.253-1.284 2.346-2.216 3.281-.934.936-2.029 1.675-3.285 2.215-1.258.542-2.61.814-4.056.814zm6.118-7.588c-.08.007-.162.01-.246.01h-1.697c-.76 0-1.411-.271-1.953-.814-.54-.542-.81-1.195-.81-1.957v-.26h-3.276c-.414 0-.75-.336-.75-.75v-1.868c0-.782.274-1.439.817-1.973.542-.533 1.193-.8 1.953-.8h.276c.037-.319.144-.671.334-1.05-.253-.034-.508-.051-.767-.051-1.878 0-3.473.652-4.783 1.959-1.213 1.211-1.863 2.667-1.952 4.368h1.614c1.324 0 2.451.465 3.381 1.396.931.93 1.396 2.053 1.396 3.368v1.007c0 .415-.336.75-.75.75h-1.958c.349.144.712.268 1.088.37.628.172 1.28.257 1.956.257 1.698 0 3.164-.539 4.394-1.623.771-.679 1.349-1.458 1.733-2.339z" transform="matrix(.908022 0 0 .908022 3.40549 3.3687)"/></svg>