<svg fill="rgb(0,125,255)" clip-rule="evenodd" fill-rule="evenodd" stroke-linejoin="round" stroke-miterlimit="2" viewBox="0 0 245 210" xmlns="http://www.w3.org/2000/svg"><path d="m7.144 3.567h7.776c1.298 0 2.556.471 3.554 1.331l12.589 10.352c1.267 1.093 2 2.712 2 4.419v6.263c0 1.186-.455 2.324-1.265 3.162-.81.839-1.909 1.311-3.055 1.311h-21.599c-1.146 0-2.244-.472-3.055-1.311-.81-.838-1.265-1.976-1.265-3.162v-17.892c0-1.187.455-2.324 1.265-3.163.811-.839 1.909-1.31 3.055-1.31zm0 2.226c-.575 0-1.127.237-1.534.658-.407.422-.636.993-.636 1.589v17.892c0 .595.229 1.167.636 1.588s.959.658 1.534.658h21.599c.576 0 1.128-.237 1.535-.658s.635-.993.635-1.588v-6.263c0-1.046-.449-2.038-1.226-2.708l-12.589-10.352c-.612-.527-1.382-.816-2.178-.816zm.285 3.491c-.56 0-1.015-.448-1.015-1s.455-1 1.015-1h7.043c.56 0 1.014.448 1.014 1s-.454 1-1.014 1zm15.719-2.401c-.33-.269-.459-.726-.322-1.137.138-.412.513-.688.933-.688h6.013c.491 0 .962.202 1.309.561.347.36.542.847.542 1.356v4.712c0 .391-.216.748-.556.919s-.745.126-1.042-.116z" transform="matrix(8.10206 0 0 7.82482 -22.8811 -27.9099)"/><path d="m108.764 647.007 86.793 152.779c16.331 28.747 56.372 52.052 89.434 52.052h430.018c33.062 0 73.103-23.305 89.434-52.052l86.793-152.779c16.331-28.747 15.526-74.879-1.799-103.039l-212.136-344.818c-17.324-28.16-58.17-50.988-91.233-50.988h-172.136c-33.062 0-73.909 22.828-91.233 50.988l-212.136 344.818c-17.325 28.16-18.13 74.292-1.799 103.039zm346.614-434.874h128.226c14.55 0 32.535 10.04 40.17 22.426l189.25 306.986c7.635 12.385 2.03 22.425-12.52 22.425h-128.227c-14.549 0-32.534-10.04-40.169-22.425l-189.25-306.986c-7.636-12.386-2.03-22.426 12.52-22.426zm-222.76 522.873-66.958-117.175c-6.903-12.082-6.578-31.475.728-43.318l192.443-311.951c7.306-11.842 19.123-11.825 26.394.038l68.625 111.967c7.271 11.864 7.256 31.089-.032 42.942l-195.503 317.911c-7.288 11.853-18.794 11.668-25.697-.414zm281.602-263.034 47.525 77.047c5.093 8.257 1.357 14.951-8.345 14.951h-96.804c-9.703 0-13.439-6.694-8.345-14.951l47.524-77.047c5.094-8.258 13.352-8.258 18.445 0zm-199.289 293.528 71.276-115.192c7.643-12.353 25.615-22.367 40.141-22.367h376.198c14.526 0 20.432 10.209 13.191 22.802l-65.735 114.322c-7.241 12.593-24.887 22.802-39.414 22.802h-383.194c-14.526 0-20.106-10.014-12.463-22.367z" transform="matrix(.149269 0 0 .149269 47.8657 53.3807)"/></svg>