<svg fill="rgb(0,125,255)" clip-rule="evenodd" fill-rule="evenodd" stroke-linejoin="round" stroke-miterlimit="2" viewBox="0 0 245 210" xmlns="http://www.w3.org/2000/svg"><path d="m7.144 3.567h7.776c1.298 0 2.556.471 3.554 1.331l12.589 10.352c1.267 1.093 2 2.712 2 4.419v6.263c0 1.186-.455 2.324-1.265 3.162-.81.839-1.909 1.311-3.055 1.311h-21.599c-1.146 0-2.244-.472-3.055-1.311-.81-.838-1.265-1.976-1.265-3.162v-17.892c0-1.187.455-2.324 1.265-3.163.811-.839 1.909-1.31 3.055-1.31zm0 2.226c-.575 0-1.127.237-1.534.658-.407.422-.636.993-.636 1.589v17.892c0 .595.229 1.167.636 1.588s.959.658 1.534.658h21.599c.576 0 1.128-.237 1.535-.658s.635-.993.635-1.588v-6.263c0-1.046-.449-2.038-1.226-2.708l-12.589-10.352c-.612-.527-1.382-.816-2.178-.816zm.285 3.491c-.56 0-1.015-.448-1.015-1s.455-1 1.015-1h7.043c.56 0 1.014.448 1.014 1s-.454 1-1.014 1zm15.719-2.401c-.33-.269-.459-.726-.322-1.137.138-.412.513-.688.933-.688h6.013c.491 0 .962.202 1.309.561.347.36.542.847.542 1.356v4.712c0 .391-.216.748-.556.919s-.745.126-1.042-.116z" transform="matrix(8.10206 0 0 7.82482 -22.8811 -27.9099)"/><path d="m439-76v-310c-18-8-32.833-20.333-44.5-37s-17.5-35.643-17.5-56.93c0-28.547 10.05-52.86 30.15-72.94 20.1-20.087 44.433-30.13 73-30.13s52.85 10.043 72.85 30.13c20 20.08 30 44.393 30 72.94 0 21.287-5.833 40.263-17.5 56.93s-26.5 29-44.5 37v310c0 12.247-3.937 22.31-11.81 30.19-7.873 7.873-17.603 11.81-29.19 11.81-11.58 0-21.31-3.937-29.19-11.81-7.873-7.88-11.81-17.943-11.81-30.19zm-238-111c-8 8-18.167 11.667-30.5 11s-22.167-5.667-29.5-15c-34-38.667-60.333-82.443-79-131.33-18.667-48.893-28-101.45-28-157.67 0-61.127 11.667-118.907 35-173.34 23.333-54.44 55.167-101.827 95.5-142.16s87.743-72.167 142.23-95.5 112.32-35 173.5-35 118.937 11.667 173.27 35 101.667 55.167 142 95.5 72.167 87.72 95.5 142.16c23.333 54.433 35 112.213 35 173.34 0 56.22-9.333 108.777-28 157.67-18.667 48.887-45 92.663-79 131.33-7.333 9.333-17.333 14.333-30 15s-23.073-3.073-31.22-11.22c-7.853-7.853-11.613-17.613-11.28-29.28s4.5-22.5 12.5-32.5c26-31.333 46.5-66.5 61.5-105.5s22.5-80.833 22.5-125.5c0-100.667-35.333-186.333-106-257s-156.333-106-257-106-186.333 35.333-257 106-106 156.333-106 257c0 44.667 7.333 86.667 22 126s35.333 74.667 62 106c8 10 12 20.667 12 32s-4 21-12 29zm122.22-122.22c-8.813 8.813-18.887 13.053-30.22 12.72s-20.667-4.833-28-13.5c-18.667-23.333-33.167-49.307-43.5-77.92s-15.5-59.307-15.5-92.08c0-76.78 26.46-141.807 79.38-195.08 52.92-53.28 117.753-79.92 194.5-79.92s141.787 26.64 195.12 79.92c53.333 53.273 80 118.3 80 195.08 0 32.493-5.333 62.95-16 91.37s-25.333 54.63-44 78.63c-7.333 9.333-16.5 14-27.5 14s-20.573-4.073-28.72-12.22c-8.52-8.52-12.78-18.447-12.78-29.78s3-21.667 9-31c11.427-15.333 20.283-32.333 26.57-51s9.43-38.667 9.43-60c0-53.46-18.457-98.657-55.37-135.59-36.907-36.94-82.073-55.41-135.5-55.41-53.42 0-98.63 18.47-135.63 55.41-37 36.933-55.5 82.13-55.5 135.59 0 21.333 3.143 41.28 9.43 59.84 6.287 18.567 15.143 35.62 26.57 51.16 6 9.333 9.167 19.667 9.5 31s-3.427 20.927-11.28 28.78z" fill-rule="nonzero" transform="matrix(.117754 0 0 .117754 65.978 184.537)"/></svg>