<svg height="48" viewBox="0 -960 960 960" width="48" xmlns="http://www.w3.org/2000/svg"><path d="m185-95c-26.807 0-49.343-9.033-67.61-27.1-18.26-18.067-27.39-40.367-27.39-66.9v-582c0-26.807 9.13-49.343 27.39-67.61 18.267-18.26 40.803-27.39 67.61-27.39h329c13.167 0 24.293 4.753 33.38 14.26 9.08 9.513 13.62 20.847 13.62 34 0 13.16-4.54 24.24-13.62 33.24-9.087 9-20.213 13.5-33.38 13.5h-329v582h582v-329c0-13.167 4.56-24.293 13.68-33.38 9.113-9.08 20.28-13.62 33.5-13.62 13.213 0 24.32 4.54 33.32 13.62 9 9.087 13.5 20.213 13.5 33.38v329c0 26.533-9.207 48.833-27.62 66.9-18.42 18.067-40.547 27.1-66.38 27.1zm368-353c4.667-6.667 10.833-10 18.5-10s13.833 3.333 18.5 10l97 128c6 8.5 6.833 16.957 2.5 25.37-4.333 8.42-11.5 12.63-21.5 12.63h-384c-10.333 0-17.583-4.167-21.75-12.5s-3.25-16.833 2.75-25.5l67-85c4.667-6.667 10.833-10 18.5-10s13.833 3.333 18.5 10l76 98zm190.282-171.57c-35.123 0-65.201-12.45-90.2-37.51-25.017-25.06-37.518-55.08-37.518-90.19 0-35.13 12.501-65.16 37.518-90.22 24.999-25.06 55.077-37.51 90.2-37.51s65.183 12.45 90.2 37.51c25.001 25.06 37.518 55.09 37.518 90.22 0 35.11-12.517 65.13-37.518 90.19-25.017 25.06-55.077 37.51-90.2 37.51zm0-39.91c8.38 0 16.603-1.12 24.65-3.18 8.046-2.09 15.26-5.6 21.647-10.39l-120.533-120.53c-4.264 6.87-7.584 14.21-9.979 22.04-2.395 7.65-3.592 15.49-3.592 23.45 0 24.59 8.477 45.36 25.463 62.75 16.971 17.24 37.758 25.86 62.344 25.86zm75.033-41.51c4.247-6.87 7.441-14.19 9.579-22.18 2.123-7.82 3.193-15.81 3.193-24.1 0-24.59-8.493-45.36-25.463-62.28-16.987-17.08-37.756-25.54-62.342-25.54-8.398 0-16.619 1.12-24.665 3.2-8.047 2.07-15.247 5.26-21.633 9.57z"/></svg>