<svg clip-rule="evenodd" fill-rule="evenodd" stroke-linejoin="round" stroke-miterlimit="2" viewBox="0 0 250 250" xmlns="http://www.w3.org/2000/svg"><path d="m484.16-945.939c24.94.744 46.887 8.224 65.84 22.439 20 15 33.667 34.167 41 57.5h180c26.127 0 48.49 9.303 67.09 27.91 18.607 18.6 27.91 40.963 27.91 67.09v582c0 25.853-9.303 47.983-27.91 66.39-18.6 18.407-40.963 27.61-67.09 27.61h-582c-25.853 0-47.983-9.203-66.39-27.61s-27.61-40.537-27.61-66.39v-582c0-26.127 9.203-48.49 27.61-67.09 18.407-18.607 40.537-27.91 66.39-27.91h180c7.333-23.333 21-42.5 41-57.5s43.333-22.499 70-22.499c.167-.001.333-.001.5-.001 1.226.003 2.446.023 3.66.061zm-89.122 174.939h-172.135c-18.724 0-33.903 15.179-33.903 33.903v514.194c0 18.724 15.179 33.903 33.903 33.903h514.194c18.724 0 33.903-15.179 33.903-33.903v-514.194c0-8.992-3.572-17.615-9.93-23.973s-14.981-9.93-23.973-9.93c-58.25 0-171.135 0-171.135 0-19.841 25.408-50.758 41.755-85.462 41.755s-65.621-16.347-85.462-41.755zm84.962-20c11.647 0 21.39-3.923 29.23-11.77 7.847-7.84 11.77-17.583 11.77-29.23s-3.923-21.39-11.77-29.23c-7.84-7.847-17.583-11.77-29.23-11.77s-21.39 3.923-29.23 11.77c-7.847 7.84-11.77 17.583-11.77 29.23s3.923 21.39 11.77 29.23c7.84 7.847 17.583 11.77 29.23 11.77zm-.201 558.98c-32.696 0-63.422-6.227-92.168-18.479-28.735-12.234-53.853-29.147-75.344-50.625-21.489-21.478-38.37-46.633-50.646-75.226-12.275-28.717-18.407-59.43-18.407-92.158 0-33.043 6.132-63.985 18.407-92.702 12.276-28.707 29.125-53.748 50.557-75.111 21.425-21.268 46.508-38.171 75.221-50.644 28.724-12.463 59.45-18.699 92.18-18.699 33.097 0 64.034 6.236 92.824 18.699 28.791 12.358 53.831 29.271 75.132 50.539 21.288 21.239 38.149 46.289 50.568 74.996 12.431 28.822 18.642 59.774 18.642 92.922 0 32.728-6.221 63.441-18.664 92.158-12.431 28.813-29.312 53.853-50.634 75.341-21.336 21.363-46.342 38.276-75.033 50.51-28.689 12.252-59.571 18.479-92.635 18.479zm.201-71.264c46.014 0 85.107-16.009 117.288-48.114 32.17-32.207 48.265-71.334 48.265-117.345s-16.095-85.129-48.265-117.346c-32.181-32.19-71.364-48.311-117.54-48.311-45.854 0-84.867 16.121-117.038 48.311-32.179 32.217-48.264 71.335-48.264 117.543 0 45.814 16.065 84.837 48.195 117.037 32.141 32.216 71.253 48.225 117.359 48.225z" transform="matrix(.266678 0 0 .266678 -3.13892 256.17)"/></svg>