<svg clip-rule="evenodd" fill-rule="evenodd" stroke-linejoin="round" stroke-miterlimit="2" viewBox="0 0 1042 1042" xmlns="http://www.w3.org/2000/svg"><path d="m484.16-945.939c24.94.744 46.887 8.224 65.84 22.439 20 15 33.667 34.167 41 57.5h180c26.127 0 48.49 9.303 67.09 27.91 18.607 18.6 27.91 40.963 27.91 67.09v582c0 25.853-9.303 47.983-27.91 66.39-18.6 18.407-40.963 27.61-67.09 27.61h-582c-25.853 0-47.983-9.203-66.39-27.61s-27.61-40.537-27.61-66.39v-582c0-26.127 9.203-48.49 27.61-67.09 18.407-18.607 40.537-27.91 66.39-27.91h180c7.333-23.333 21-42.5 41-57.5s43.333-22.499 70-22.499l.5-.001c1.226.003 2.446.023 3.66.061zm-4.16 154.939c11.647 0 21.39-3.923 29.23-11.77 7.847-7.84 11.77-17.583 11.77-29.23s-3.923-21.39-11.77-29.23c-7.84-7.847-17.583-11.77-29.23-11.77s-21.39 3.923-29.23 11.77c-7.847 7.84-11.77 17.583-11.77 29.23s3.923 21.39 11.77 29.23c7.84 7.847 17.583 11.77 29.23 11.77zm-84.962 20h-172.135c-18.724 0-33.903 15.179-33.903 33.903v514.194c0 18.724 15.179 33.903 33.903 33.903h514.194c18.724 0 33.903-15.179 33.903-33.903v-514.194c0-8.992-3.572-17.615-9.93-23.973s-14.981-9.93-23.973-9.93h-171.135c-19.841 25.408-50.758 41.755-85.462 41.755s-65.621-16.347-85.462-41.755zm-66.217 466.389c-23.139-21.705-40.697-44.339-52.742-67.858-14.026-27.382-21.084-58.212-21.084-92.485 0-45.261 12.431-86.422 37.284-123.47 24.801-37.002 57.591-64.581 98.355-82.736l.035-.015c9.475-4.163 18.367-3.246 26.669 2.694 7.368 5.264 12.443 12.609 15.084 22.098l.003.011c2.641 9.548 1.735 18.83-2.769 27.856l-.008.015c-4.35 8.667-10.617 15.295-18.781 19.891l-.152.083c-24.499 13.056-43.898 31.544-58.182 55.428l-.001.003c-14.306 23.902-21.443 49.952-21.443 78.142 0 23.963 4.376 44.7 13.322 62.176l.001.002c8.896 17.394 21.015 32.58 36.341 45.572l3.501 2.188v-31.481c0-8.562 2.914-15.679 8.632-21.382 5.655-5.668 12.951-8.625 22.021-8.625 8.562 0 15.66 2.907 21.38 8.627 5.702 5.701 8.627 12.818 8.627 21.38v104.82c0 10.685-3.66 19.631-10.878 26.848-7.218 7.218-16.163 10.878-26.848 10.878h-104.178c-8.608 0-15.773-3.054-21.507-9.08-5.653-5.927-8.5-13.105-8.5-21.569 0-8.567 2.911-15.679 8.629-21.382 5.655-5.668 12.952-8.629 22.021-8.629zm303.162-324.546c23.013 23.151 40.689 47.89 53.051 74.197 14.023 29.82 20.972 58.546 20.972 86.146 0 44.801-11.993 85.511-35.953 122.115-23.901 36.519-55.983 64.298-96.242 83.346-9.309 4.611-18.457 4.19-27.45-1.314l-.006-.004c-8.234-5.051-13.769-12.546-16.454-22.583-3.141-9.602-2.45-18.944 2.091-28.003 4.352-8.716 10.883-15.382 19.601-19.992l.014-.008c24.037-12.642 43.086-30.992 57.146-55.026 14.108-24.137 21.159-50.308 21.159-78.531 0-17.798-4.606-35.98-13.706-54.578l-.001-.002c-9.251-18.922-20.851-35.786-34.798-50.613l-2.089-1.817v28.556c0 8.607-3.05 15.754-9.076 21.503l-.008.009c-5.925 5.635-13.104 8.495-21.566 8.495-8.511 0-15.744-2.99-21.703-8.949-5.959-5.96-8.95-13.189-8.95-21.7v-104.181c0-10.698 3.66-19.627 10.881-26.845 7.182-7.185 16.319-10.881 27.488-10.881h103.538c8.464 0 15.643 2.85 21.57 8.503 6.026 5.733 9.08 12.894 9.08 21.507 0 8.512-2.991 15.74-8.95 21.7-5.959 5.959-13.188 8.95-21.7 8.95z" transform="matrix(1.11116 0 0 1.11116 -13.0788 1067.38)"/></svg>