<svg clip-rule="evenodd" fill-rule="evenodd" stroke-linejoin="round" stroke-miterlimit="2" viewBox="0 0 250 250" xmlns="http://www.w3.org/2000/svg"><path d="m484.16-945.939c24.94.744 46.887 8.224 65.84 22.439 20 15 33.667 34.167 41 57.5h180c26.127 0 48.49 9.303 67.09 27.91 18.607 18.6 27.91 40.963 27.91 67.09v582c0 25.853-9.303 47.983-27.91 66.39-18.6 18.407-40.963 27.61-67.09 27.61h-582c-25.853 0-47.983-9.203-66.39-27.61s-27.61-40.537-27.61-66.39v-582c0-26.127 9.203-48.49 27.61-67.09 18.407-18.607 40.537-27.91 66.39-27.91h180c7.333-23.333 21-42.5 41-57.5s43.333-22.499 70-22.499l.5-.001c1.226.003 2.446.023 3.66.061zm-4.16 154.939c11.647 0 21.39-3.923 29.23-11.77 7.847-7.84 11.77-17.583 11.77-29.23s-3.923-21.39-11.77-29.23c-7.84-7.847-17.583-11.77-29.23-11.77s-21.39 3.923-29.23 11.77c-7.847 7.84-11.77 17.583-11.77 29.23s3.923 21.39 11.77 29.23c7.84 7.847 17.583 11.77 29.23 11.77zm-84.962 20h-172.135c-18.724 0-33.903 15.179-33.903 33.903v514.194c0 18.724 15.179 33.903 33.903 33.903h514.194c18.724 0 33.903-15.179 33.903-33.903v-514.194c0-8.992-3.572-17.615-9.93-23.973s-14.981-9.93-23.973-9.93h-171.135c-19.841 25.408-50.758 41.755-85.462 41.755s-65.621-16.347-85.462-41.755zm52.495 321.309 200.451-200.966.301-.291c7.113-6.605 15.499-9.9 25.153-9.9 9.653 0 18.039 3.295 25.152 9.9.191.177.376.361.554.552 7.045 7.548 10.455 16.149 10.455 25.71 0 9.755-3.529 18.255-10.717 25.444l-225.407 225.407-.271.262c-7.521 7.019-16.201 10.455-25.978 10.455-9.974 0-18.552-3.556-25.713-10.717l-.035-.035-59.537-60.074c-6.83-6.83-10.171-15.213-9.908-25.195.251-9.543 3.635-17.833 10.164-24.865.184-.198.375-.389.572-.572 7.086-6.58 15.552-9.9 25.421-9.9 10.086 0 18.453 3.457 25.176 10.181l.049.049zm-206.538-15.205c-.599-20.072 1.281-39.658 5.628-58.757 6.992-30.726 19.169-58.545 36.504-83.468 7.648-10.996 16.201-21.246 25.664-30.749 6.587-6.793 13.58-13.17 20.978-19.134 23.648-19.062 50.692-33.136 81.148-42.188 1.9-.564 3.561-.784 4.996-.692 7.501-2.02 15.185-3.719 23.055-5.097 20.055-3.511 39.933-4.21 59.631-2.108 19.401 2.069 38.418 6.714 57.026 13.937 9.51 2.351 16.431 8.25 20.582 17.91 4.097 9.533 3.876 18.729-.453 27.576-4.056 8.788-10.651 15.161-19.85 19.051-8.701 3.68-17.524 4.59-26.463 2.8-.622-.124-1.233-.303-1.824-.533-11.889-4.633-24.309-7.49-37.257-8.58-13.066-1.1-26.008-.53-38.827 1.715-46.654 8.168-83.006 30.563-108.965 67.334-1.22 1.728-2.402 3.468-3.547 5.219-13.248 21.057-21.4 45.416-24.49 73.058-.839 7.499-1.261 14.844-1.265 22.035.365 8.266 1.302 16.703 2.809 25.31 5.374 30.698 16.835 56.889 34.431 78.542 27.989 33.766 65.074 53.154 111.175 58.308 8.808.985 17.415 1.386 25.821 1.201 7.057-.451 14.234-1.315 21.529-2.593 46.334-8.112 82.62-30.426 108.78-67.07.315-.441.633-.868.955-1.283 14.737-21.655 23.703-46.93 26.932-75.806.481-4.309.78-8.471.894-12.486.105-3.724-.1-7.482-.61-11.274-.072-.542-.105-1.089-.096-1.636.168-10.232 3.331-18.881 9.255-26.028 6.34-7.649 14.692-11.799 25.096-12.25 10.364-.842 19.395 2.252 27.092 9.282 7.77 7.097 11.593 15.831 11.521 26.178.114 5.375.218 10.838.312 16.388.103 6.054-.189 12.161-.878 18.321-3.747 33.516-13.414 64.103-28.951 91.776-3.216 5.728-6.609 11.267-10.179 16.616-.526 1.241-1.186 2.435-1.99 3.569-5.494 7.754-11.426 15.129-17.798 22.124-8.898 10.032-18.598 19.205-29.099 27.519-23.802 18.845-50.813 32.722-81.047 41.605-18.794 5.521-38.225 8.611-58.295 9.256-22.397 1.268-44.24-.503-65.53-5.297-30.935-6.965-58.774-19.156-83.532-36.537-9.386-6.589-18.22-13.848-26.503-21.778-8.427-7.775-16.22-16.143-23.377-25.103-18.881-23.634-32.773-50.664-41.642-81.108-6.103-20.952-9.224-42.643-9.346-65.075z" transform="matrix(.266678 0 0 .266678 -3.13892 256.17)"/></svg>