<svg clip-rule="evenodd" fill-rule="evenodd" stroke-linejoin="round" stroke-miterlimit="2" viewBox="0 0 250 250" xmlns="http://www.w3.org/2000/svg"><path d="m484.16-945.939c24.94.744 46.887 8.224 65.84 22.439 20 15 33.667 34.167 41 57.5h180c26.127 0 48.49 9.303 67.09 27.91 18.607 18.6 27.91 40.963 27.91 67.09v582c0 25.853-9.303 47.983-27.91 66.39-18.6 18.407-40.963 27.61-67.09 27.61h-582c-25.853 0-47.983-9.203-66.39-27.61s-27.61-40.537-27.61-66.39v-582c0-26.127 9.203-48.49 27.61-67.09 18.407-18.607 40.537-27.91 66.39-27.91h180c7.333-23.333 21-42.5 41-57.5s43.333-22.499 70-22.499l.5-.001c1.226.003 2.446.023 3.66.061zm-89.122 174.939h-172.135c-18.724 0-33.903 15.179-33.903 33.903v514.194c0 18.724 15.179 33.903 33.903 33.903h514.194c18.724 0 33.903-15.179 33.903-33.903v-514.194c0-8.992-3.572-17.615-9.93-23.973s-14.981-9.93-23.973-9.93h-171.135c-19.841 25.408-50.758 41.755-85.462 41.755s-65.621-16.347-85.462-41.755zm84.761 538.979c-32.696 0-63.422-6.226-92.168-18.478-28.735-12.234-53.853-29.147-75.344-50.625-21.489-21.478-38.37-46.633-50.646-75.226-12.275-28.717-18.407-59.43-18.407-92.158 0-33.043 6.132-63.985 18.407-92.702 12.276-28.707 29.125-53.748 50.557-75.111 4.387-4.355 8.928-8.528 13.622-12.516 18.408-15.812 39.171-28.628 62.234-38.459 5.855-2.496 11.793-4.738 17.814-6.726 23.33-7.759 47.907-11.64 73.731-11.64h.5.123c5.869.001 11.673.199 17.413.594 26.559 1.821 51.664 7.829 75.317 18.023 5.733 2.472 11.318 5.12 16.754 7.944 7.606 3.945 14.923 8.241 21.952 12.887 13.167 8.695 25.313 18.599 36.436 29.711 15.416 15.4 28.507 32.76 39.273 52.08 4.135 7.395 7.925 15.07 11.375 23.024 12.34 28.763 18.578 59.497 18.578 92.201l.001.339v.296.044c0 32.727-6.208 63.463-18.618 92.213-6.856 15.883-15.105 30.656-24.748 44.319-7.761 11.052-16.411 21.375-25.95 30.968-21.331 21.446-46.345 38.309-75.042 50.587-28.701 12.274-59.588 18.411-92.663 18.411h-.05-.145zm.201-558.979c11.647 0 21.39-3.923 29.23-11.77 7.847-7.84 11.77-17.583 11.77-29.23s-3.923-21.39-11.77-29.23c-7.84-7.847-17.583-11.77-29.23-11.77s-21.39 3.923-29.23 11.77c-7.847 7.84-11.77 17.583-11.77 29.23s3.923 21.39 11.77 29.23c7.84 7.847 17.583 11.77 29.23 11.77z" transform="matrix(.266678 0 0 .266678 -3.13892 256.17)"/></svg>