<svg height="48" width="48" xmlns="http://www.w3.org/2000/svg"><path fill="rgb(175, 80, 225)" d="m13.507 4.125c4.864.001 8.509 2.434 8.509 13.979 0 9.421-2.537 12.771-6.023 13.685.44 3.771 3.591 2.724 3.591 2.724v2.43s-7.814 2.211-8.446-5.127c-3.546-.871-6.14-4.186-6.14-13.712 0-11.545 3.645-13.978 8.509-13.979zm-3.648 13.979c0 9.539 1.22 11.548 3.646 11.548 2.427 0 3.646-2.01 3.646-11.548 0-9.539-1.219-11.547-3.646-11.547-2.426 0-3.646 2.009-3.646 11.547zm18.233-11.547h3.646v4.861h2.426v2.431h-2.426v13.37c0 1.362.762 1.389 1.431 1.149.274-1.312.882-2.499 1.796-3.412 1.279-1.275 3.094-1.957 5.039-1.957l.004-.001c1.945 0 3.76.678 5.039 1.957s1.961 3.095 1.961 5.039c0 1.585-.444 2.945-1.14 3.943s-1.552 1.609-2.213 2.072c-.662.463-1.132.801-1.348 1.053-.215.251-.299.35-.299.933v1h-4.002v-1c0-1.416.539-2.692 1.261-3.535.722-.842 1.504-1.317 2.092-1.729.588-.411.983-.738 1.224-1.084.242-.345.422-.735.422-1.652 0-1.056-.317-1.741-.788-2.211-.471-.471-1.155-.789-2.211-.789s-1.74.318-2.211.789-.788 1.155-.788 2.211h-2.843v.263s-7.292 4.254-7.292-3.039v-13.37h-1.218v-2.431h1.218zm13.922 34.442v4h-4.002v-4z"/></svg>