<svg viewBox="0 0 512 512" xmlns="http://www.w3.org/2000/svg"><path fill="rgb(175, 80, 225)" d="m215.623 93.889c-5.324-1.574-8.349-7.122-6.757-12.39l13.077-43.148c3.881-12.599 15.601-21.228 28.911-21.284h10.301c13.31.056 25.03 8.685 28.911 21.285l13.077 43.147c.155.509.267 1.03.337 1.557.722 5.452-3.157 10.452-8.666 11.167-12.868 1.658-25.832 2.49-38.809 2.489-12.978.001-25.941-.831-38.809-2.489-.533-.07-1.059-.182-1.573-.334zm-57.055 153.549 21.829-71.899c1.565-5.16 6.996-8.152 12.252-6.75 41.659 9.894 85.091 9.894 126.749 0 5.257-1.402 10.687 1.59 12.252 6.75l21.789 71.819c1.482 4.736-.783 9.829-5.311 11.947-29.204 11.823-60.583 17.479-92.124 16.606-31.541.873-62.919-4.783-92.124-16.606-4.49-2.112-6.748-7.156-5.312-11.867zm303.047 217.645c-.009 16.495-13.528 29.86-30.195 29.85h-350.833c-2.475.002-4.94-.298-7.34-.892-16.169-4.003-25.998-20.22-21.953-36.222l30.179-119.466c3.361-13.3 15.44-22.627 29.292-22.62h34.585c5.555 0 10.059 4.458 10.059 9.956 0 11.947 40.118 29.867 100.595 29.867s100.594-17.92 100.594-29.867c0-5.498 4.505-9.956 10.06-9.956h34.585c13.852-.007 25.931 9.32 29.292 22.62l30.179 119.466c.6 2.376.903 4.815.901 7.264z"/></svg>