<svg clip-rule="evenodd" fill-rule="evenodd" stroke-linejoin="round" stroke-miterlimit="2" viewBox="0 0 245 210" xmlns="http://www.w3.org/2000/svg"><path d="m7.144 3.567h7.776c1.298 0 2.556.471 3.554 1.331l12.589 10.352c1.267 1.093 2 2.712 2 4.419v6.263c0 1.186-.455 2.324-1.265 3.162-.81.839-1.909 1.311-3.055 1.311h-21.599c-1.146 0-2.244-.472-3.055-1.311-.81-.838-1.265-1.976-1.265-3.162v-17.892c0-1.187.455-2.324 1.265-3.163.811-.839 1.909-1.31 3.055-1.31zm0 2.226c-.575 0-1.127.237-1.534.658-.407.422-.636.993-.636 1.589v17.892c0 .595.229 1.167.636 1.588s.959.658 1.534.658h21.599c.576 0 1.128-.237 1.535-.658s.635-.993.635-1.588v-6.263c0-1.046-.449-2.038-1.226-2.708l-12.589-10.352c-.612-.527-1.382-.816-2.178-.816zm.285 3.491c-.56 0-1.015-.448-1.015-1s.455-1 1.015-1h7.043c.56 0 1.014.448 1.014 1s-.454 1-1.014 1zm15.719-2.401c-.33-.269-.459-.726-.322-1.137.138-.412.513-.688.933-.688h6.013c.491 0 .962.202 1.309.561.347.36.542.847.542 1.356v4.712c0 .391-.216.748-.556.919s-.745.126-1.042-.116z" transform="matrix(8.10206 0 0 7.82482 -22.8811 -27.9099)"/><path d="m58.461 7281.82c-.863 1-2.289 1.76-3.676 1.66-.327-.03-.593-.28-.638-.6-.187-1.35.483-2.77 1.279-3.65.873-.98 2.35-1.7 3.567-1.75.364-.01.676.26.718.62.157 1.36-.401 2.74-1.25 3.72zm-12.332 4.65c1.208-1.01 2.736-1.6 4.347-1.62.911-.01 1.803.25 2.6.54.275.11.691.25.862.31.199-.07.723-.26 1.084-.39.92-.33 1.978-.6 3.04-.5.707.03 2.27.24 3.711 1.25.536.38 1.055.87 1.508 1.51.301.42.412.95.305 1.46-.107.5-.422.95-.868 1.21-.058.04-1.362.72-1.348 2.19.017 1.78 1.839 3.04 4.733 3.43 2.278.3 3.763 1.02 5.109 2.5 1.346 1.47 2.018 3.28 2.018 5.41 0 2.19-.769 4.06-2.308 5.6s-3.406 2.31-5.601 2.31h-20.516c-2.666 0-4.953-.94-6.861-2.81s-2.862-4.15-2.862-6.83c0-2.31.701-4.38 2.101-6.2 1.401-1.83 3.228-2.94 5.48-3.32.415-1.73 1.125-3.25 2.13-4.58.377-.55.828-1.05 1.336-1.47zm11.74 2.45-.166-.01c-.454-.04-.895.14-1.289.28-.367.13-.899.32-1.102.39l-1.35.24-1.352-.22c-.193-.07-.665-.23-.976-.35-.336-.12-.7-.29-1.085-.28h-.058c-.641.02-1.246.26-1.727.67-.212.17-.4.38-.557.61l-.054.08-.084.11h.003c-.668.88-1.128 1.89-1.403 3.04l-.452 1.12-.74.93-.972.67-1.149.38c-1.194.2-2.161.8-2.904 1.76-.834 1.09-1.25 2.32-1.25 3.7 0 1.52.541 2.82 1.628 3.89 1.106 1.08 2.43 1.63 3.975 1.63h20.516c1.052 0 1.95-.37 2.688-1.11.738-.73 1.102-1.63 1.102-2.68 0-1.03-.291-1.92-.942-2.63-.68-.75-1.463-1.04-2.614-1.2-2.235-.3-4.027-1.02-5.292-1.92-2.006-1.44-2.992-3.37-3.013-5.55-.014-1.44.443-2.61 1.023-3.5-.165-.03-.305-.04-.404-.05z" transform="matrix(2.86863 0 0 2.86863 -32.8537 -20797.5)"/></svg>