<svg clip-rule="evenodd" fill-rule="evenodd" stroke-linejoin="round" stroke-miterlimit="2" viewBox="0 0 245 210" xmlns="http://www.w3.org/2000/svg"><path d="m7.144 3.567h7.776c1.298 0 2.556.471 3.554 1.331l12.589 10.352c1.267 1.093 2 2.712 2 4.419v6.263c0 1.186-.455 2.324-1.265 3.162-.81.839-1.909 1.311-3.055 1.311h-21.599c-1.146 0-2.244-.472-3.055-1.311-.81-.838-1.265-1.976-1.265-3.162v-17.892c0-1.187.455-2.324 1.265-3.163.811-.839 1.909-1.31 3.055-1.31zm0 2.226c-.575 0-1.127.237-1.534.658-.407.422-.636.993-.636 1.589v17.892c0 .595.229 1.167.636 1.588s.959.658 1.534.658h21.599c.576 0 1.128-.237 1.535-.658s.635-.993.635-1.588v-6.263c0-1.046-.449-2.038-1.226-2.708l-12.589-10.352c-.612-.527-1.382-.816-2.178-.816zm.285 3.491c-.56 0-1.015-.448-1.015-1s.455-1 1.015-1h7.043c.56 0 1.014.448 1.014 1s-.454 1-1.014 1zm15.719-2.401c-.33-.269-.459-.726-.322-1.137.138-.412.513-.688.933-.688h6.013c.491 0 .962.202 1.309.561.347.36.542.847.542 1.356v4.712c0 .391-.216.748-.556.919s-.745.126-1.042-.116z" transform="matrix(8.10206 0 0 7.82482 -22.8811 -27.9099)"/><path d="m444.87-433.85-.443-.41c-7.266-6.4-12.44-14.032-15.604-22.841-2.78-7.735-4.263-16.358-4.263-25.899v-165c0-16.371 5.796-29.857 17.024-40.587 10.973-10.466 24.375-15.853 40.306-15.853 16.166 0 29.515 5.529 40.213 16.142 10.736 10.661 16.337 24.034 16.337 40.298v145.188l101.288 98.253.214.21c12.707 12.676 18.498 26.752 18.498 41.719 0 15.133-5.663 28.81-17.706 40.71-12.152 12.569-25.964 18.36-40.984 18.36-15.002 0-28.805-5.778-40.954-18.321zm-241.976-106.342c10.967-8.108 23.484-12.117 37.497-12.124 17.548.009 32.749 6.293 45.5 19.044 13.296 13.295 19.706 28.758 19.772 46.142.059 17.639-6.212 32.882-18.98 45.65l-115.65 115.65c-15.36 15.36-33.477 22.877-54.213 22.877s-38.853-7.517-54.213-22.877l-114.859-114.858c-12.883-12.883-19.039-27.914-18.979-44.862.067-16.797 6.306-31.88 19.376-44.95 13.069-13.07 28.153-19.308 44.95-19.376 16.947-.059 31.978 6.097 44.861 18.98l7.82 7.793c3.474-43.039 12.631-85.076 27.465-126.111 21.53-59.557 55.199-112.278 101.055-158.133 44.638-44.639 95.158-78.083 151.514-100.403 56.131-22.229 113.447-33.661 171.939-34.345 58.685-.686 115.839 9.892 171.457 31.766 55.696 21.904 105.909 55.145 150.577 99.813 44.623 44.623 78.12 95.056 100.559 151.253 22.423 56.154 33.408 113.706 33.001 172.646-.406 58.803-11.708 116.289-33.95 172.45-22.32 56.359-55.729 106.841-100.291 151.403-82.083 82.083-180.074 125.865-293.929 131.457-113.411 5.575-214.347-26.815-302.703-97.073-18.017-11.905-27.538-28.945-28.309-51.263-.716-20.551 5.988-38.875 20.431-54.851 13.646-15.149 30.336-23.768 49.978-26.035 18.869-2.177 37.044 1.667 54.462 11.827.863.504 1.694 1.06 2.487 1.667 58.236 44.534 124.22 65.157 197.942 61.908 73.456-3.243 137.122-31.971 191.104-85.952 59.721-59.721 89.507-131.757 89.351-216.11-.157-84.42-30.447-156.788-90.793-217.134-58.634-58.635-129.263-87.142-211.899-85.498-83.04 1.657-154.265 32.248-213.709 91.692-29.192 29.192-50.861 62.751-64.97 100.7-6.984 18.784-12.201 37.863-15.651 57.237zm1049.356-87.482c-26.63 23.293-56.99 44.506-91.1 63.64l-2.45 1.372c-20.53 11.451-45.31 12.365-66.63 2.458-21.33-9.907-36.61-29.434-41.1-52.512-2.7-15.284-5.94-29.83-9.61-43.658-4.36-16.459-9.21-32.173-14.52-47.14-12.35-34.494 2.72-72.802 35.26-89.639 59.69-31.144 110.92-74.736 153.96-130.256 57.4-74.038 86.1-163.461 86.1-268.281 0-124.78-42.84-230.43-128.53-316.95-85.68-86.52-190.915-129.77-315.698-129.77s-230.848 43.25-318.196 129.77-131.022 192.17-131.022 316.95c0 28.28 2.495 57.81 7.487 88.59l.258 1.58c6.447 38.98-18.607 76.22-57.14 84.95-12.421 2.74-25.067 5.95-37.953 9.56-12.71 3.56-24.954 7.425-36.731 11.605-20.644 7.347-43.477 5.224-62.413-5.805-18.935-11.03-32.049-29.84-35.846-51.42-1.332-7.12-2.484-14.38-3.519-21.77-5.823-41.59-8.735-80.69-8.735-117.29 0-189.67 66.551-350.64 199.653-482.91 133.101-132.27 294.487-198.41 484.157-198.41 188.008 0 348.148 66.56 480.418 199.66s198.4 293.65 198.4 481.66c0 71.54-11.23 142.25-33.69 212.129-22.46 69.878-52.83 128.942-91.09 177.192l588.97 583.983c23.3 24.957 34.53 54.073 33.69 87.348-.83 33.275-12.06 60.728-33.69 82.357-24.95 24.956-53.65 37.434-86.1 37.434-32.44 0-60.31-12.478-83.6-37.434z" transform="matrix(.0539516 0 0 .0539516 69.5345 176.549)"/></svg>