<svg xmlns="http://www.w3.org/2000/svg" height="48" viewBox="0 -960 960 960" width="48">
  <defs>
    <style type="text/css" id="current-color-scheme">.ColorScheme-Text { color:#000000; }</style>
  </defs><path class="ColorScheme-Text" fill="currentColor" d="M86-225q-18-9-24-27t2-36l218-427q9-18 27-23t36 3q17 9 23 27t-3 35L148-245q-9 18-27 23t-35-3Zm264 0q-18-9-24-27t2-36l218-427q9-18 27-23t36 3q17 9 23 27t-3 35L412-245q-9 18-27 23t-35-3Zm264 0q-18-9-24-27t2-36l218-427q9-18 27-23t36 3q17 9 23 27t-3 35L676-245q-9 18-27 23t-35-3Z"/></svg>