<svg fill="rgb(90,90,215)" width="100%" height="100%" viewBox="0 0 245 210" version="1.1" xmlns="http://www.w3.org/2000/svg" xmlns:xlink="http://www.w3.org/1999/xlink" xml:space="preserve" xmlns:serif="http://www.serif.com/" style="fill-rule:evenodd;clip-rule:evenodd;stroke-linejoin:round;stroke-miterlimit:2;">
    <g transform="matrix(8.10206,0,0,7.82482,-22.8811,-27.9099)">
        <path d="M7.144,3.567L14.92,3.567C16.218,3.567 17.476,4.038 18.474,4.898L31.063,15.25C32.33,16.343 33.063,17.962 33.063,19.669L33.063,25.932C33.063,27.118 32.608,28.256 31.798,29.094C30.988,29.933 29.889,30.405 28.743,30.405L7.144,30.405C5.998,30.405 4.9,29.933 4.089,29.094C3.279,28.256 2.824,27.118 2.824,25.932L2.824,8.04C2.824,6.853 3.279,5.716 4.089,4.877C4.9,4.038 5.998,3.567 7.144,3.567ZM7.144,5.793C6.569,5.793 6.017,6.03 5.61,6.451C5.203,6.873 4.974,7.444 4.974,8.04L4.974,25.932C4.974,26.527 5.203,27.099 5.61,27.52C6.017,27.941 6.569,28.178 7.144,28.178L28.743,28.178C29.319,28.178 29.871,27.941 30.278,27.52C30.685,27.099 30.913,26.527 30.913,25.932L30.913,19.669C30.913,18.623 30.464,17.631 29.687,16.961L17.098,6.609C16.486,6.082 15.716,5.793 14.92,5.793L7.144,5.793ZM7.429,9.284C6.869,9.284 6.414,8.836 6.414,8.284C6.414,7.732 6.869,7.284 7.429,7.284L14.472,7.284C15.032,7.284 15.486,7.732 15.486,8.284C15.486,8.836 15.032,9.284 14.472,9.284L7.429,9.284ZM23.148,6.883C22.818,6.614 22.689,6.157 22.826,5.746C22.964,5.334 23.339,5.058 23.759,5.058L29.772,5.058C30.263,5.058 30.734,5.26 31.081,5.619C31.428,5.979 31.623,6.466 31.623,6.975L31.623,11.687C31.623,12.078 31.407,12.435 31.067,12.606C30.727,12.777 30.322,12.732 30.025,12.49L23.148,6.883Z"/>
    </g>
    <g transform="matrix(0.136234,0,0,0.136234,57.0577,193.476)">
        <path d="M189,-95C162.967,-95 140.79,-104.157 122.47,-122.47C104.157,-140.79 95,-162.967 95,-189L95,-771C95,-797.307 104.157,-819.717 122.47,-838.23C140.79,-856.743 162.967,-866 189,-866L654,-866C667.04,-866 679.467,-863.333 691.28,-858C703.093,-852.667 713.333,-845.667 722,-837L837,-722C845.667,-713.333 852.667,-703.093 858,-691.28C863.333,-679.467 866,-667.04 866,-654L866,-189C866,-162.967 856.743,-140.79 838.23,-122.47C819.717,-104.157 797.307,-95 771,-95L189,-95ZM771,-652L652,-771L189,-771L189,-189L771,-189L771,-652ZM479.76,-254C508.587,-254 533.167,-264.087 553.5,-284.26C573.833,-304.44 584,-328.94 584,-357.76C584,-386.587 573.913,-411.167 553.74,-431.5C533.56,-451.833 509.06,-462 480.24,-462C451.413,-462 426.833,-451.913 406.5,-431.74C386.167,-411.56 376,-387.06 376,-358.24C376,-329.413 386.087,-304.833 406.26,-284.5C426.44,-264.167 450.94,-254 479.76,-254ZM289,-575L553,-575C566.167,-575 577.293,-579.543 586.38,-588.63C595.46,-597.71 600,-608.833 600,-622L600,-671C600,-684.167 595.46,-695.293 586.38,-704.38C577.293,-713.46 566.167,-718 553,-718L289,-718C275.833,-718 264.71,-713.46 255.63,-704.38C246.543,-695.293 242,-684.167 242,-671L242,-622C242,-608.833 246.543,-597.71 255.63,-588.63C264.71,-579.543 275.833,-575 289,-575ZM189,-771L189,-189L189,-771Z" style="fill-rule:nonzero;"/>
    </g>
</svg>
