<svg fill="rgb(90,90,215)" clip-rule="evenodd" fill-rule="evenodd" stroke-linejoin="round" stroke-miterlimit="2" viewBox="0 0 245 210" xmlns="http://www.w3.org/2000/svg"><path d="m7.144 3.567h7.776c1.298 0 2.556.471 3.554 1.331l12.589 10.352c1.267 1.093 2 2.712 2 4.419v6.263c0 1.186-.455 2.324-1.265 3.162-.81.839-1.909 1.311-3.055 1.311h-21.599c-1.146 0-2.244-.472-3.055-1.311-.81-.838-1.265-1.976-1.265-3.162v-17.892c0-1.187.455-2.324 1.265-3.163.811-.839 1.909-1.31 3.055-1.31zm0 2.226c-.575 0-1.127.237-1.534.658-.407.422-.636.993-.636 1.589v17.892c0 .595.229 1.167.636 1.588s.959.658 1.534.658h21.599c.576 0 1.128-.237 1.535-.658s.635-.993.635-1.588v-6.263c0-1.046-.449-2.038-1.226-2.708l-12.589-10.352c-.612-.527-1.382-.816-2.178-.816zm.285 3.491c-.56 0-1.015-.448-1.015-1s.455-1 1.015-1h7.043c.56 0 1.014.448 1.014 1s-.454 1-1.014 1zm15.719-2.401c-.33-.269-.459-.726-.322-1.137.138-.412.513-.688.933-.688h6.013c.491 0 .962.202 1.309.561.347.36.542.847.542 1.356v4.712c0 .391-.216.748-.556.919s-.745.126-1.042-.116z" transform="matrix(8.10206 0 0 7.82482 -22.8811 -27.9099)"/><path d="m229-55c-26.033 0-48.207-9.157-66.52-27.47-18.32-18.32-27.48-40.497-27.48-66.53v-662c0-26.307 9.16-48.717 27.48-67.23 18.313-18.513 40.487-27.77 66.52-27.77h502c26.307 0 48.717 9.257 67.23 27.77s27.77 40.923 27.77 67.23v662c0 26.033-9.257 48.21-27.77 66.53-18.513 18.313-40.923 27.47-67.23 27.47zm0-94h502v-662h-65.204v226c0 8.667-3.943 15.333-11.83 20-7.893 4.667-15.95 4.667-24.17 0l-38-21c-7.207-4-15.173-6-23.9-6-8.733 0-16.433 2-23.1 6l-39 21c-8 4.667-15.667 4.667-23 0s-11-11.333-11-20v-226h-242.796zm0 0v-662zm242.796-434v-2c0 8.667 3.667 15.333 11 20s15 4.667 23 0l39-21c6.987-4 14.733-6 23.24-6s16.76 2 24.76 6l37 21c8.22 4.667 16.277 4.667 24.17 0 7.887-4.667 11.83-11.333 11.83-20v2c0 9.74-4 16.84-12 21.3-8 4.467-16 4.367-24-.3l-38-20c-7.207-4.667-15.173-7-23.9-7-8.733 0-16.433 2.333-23.1 7l-39 20c-8 4.667-15.667 4.767-23 .3-7.333-4.46-11-11.56-11-21.3z" fill-rule="nonzero" transform="matrix(.123427 0 0 .123427 63.1931 187.322)"/></svg>