<svg fill="rgb(175,85,225)" width="100%" height="100%" viewBox="0 0 245 210" version="1.1" xmlns="http://www.w3.org/2000/svg" xmlns:xlink="http://www.w3.org/1999/xlink" xml:space="preserve" xmlns:serif="http://www.serif.com/" style="fill-rule:evenodd;clip-rule:evenodd;stroke-linejoin:round;stroke-miterlimit:2;">
    <g transform="matrix(8.10206,0,0,7.82482,-22.8811,-27.9099)">
        <path d="M7.144,3.567L14.92,3.567C16.218,3.567 17.476,4.038 18.474,4.898L31.063,15.25C32.33,16.343 33.063,17.962 33.063,19.669L33.063,25.932C33.063,27.118 32.608,28.256 31.798,29.094C30.988,29.933 29.889,30.405 28.743,30.405L7.144,30.405C5.998,30.405 4.9,29.933 4.089,29.094C3.279,28.256 2.824,27.118 2.824,25.932L2.824,8.04C2.824,6.853 3.279,5.716 4.089,4.877C4.9,4.038 5.998,3.567 7.144,3.567ZM7.144,5.793C6.569,5.793 6.017,6.03 5.61,6.451C5.203,6.873 4.974,7.444 4.974,8.04L4.974,25.932C4.974,26.527 5.203,27.099 5.61,27.52C6.017,27.941 6.569,28.178 7.144,28.178L28.743,28.178C29.319,28.178 29.871,27.941 30.278,27.52C30.685,27.099 30.913,26.527 30.913,25.932L30.913,19.669C30.913,18.623 30.464,17.631 29.687,16.961L17.098,6.609C16.486,6.082 15.716,5.793 14.92,5.793L7.144,5.793ZM7.429,9.284C6.869,9.284 6.414,8.836 6.414,8.284C6.414,7.732 6.869,7.284 7.429,7.284L14.472,7.284C15.032,7.284 15.486,7.732 15.486,8.284C15.486,8.836 15.032,9.284 14.472,9.284L7.429,9.284ZM23.148,6.883C22.818,6.614 22.689,6.157 22.826,5.746C22.964,5.334 23.339,5.058 23.759,5.058L29.772,5.058C30.263,5.058 30.734,5.26 31.081,5.619C31.428,5.979 31.623,6.466 31.623,6.975L31.623,11.687C31.623,12.078 31.407,12.435 31.067,12.606C30.727,12.777 30.322,12.732 30.025,12.49L23.148,6.883Z"/>
    </g>
    <g transform="matrix(4.64426,0,0,4.64426,67.3215,73.1695)">
        <path d="M17.789,9.586C17.502,9.618 17.219,9.679 16.946,9.769C16.748,9.834 16.531,9.772 16.396,9.614C15.518,8.58 14.226,7.969 12.83,7.969C10.526,7.969 8.606,9.64 8.216,11.834C8.18,12.04 8.022,12.203 7.817,12.245C6.054,12.614 4.725,14.181 4.725,16.052C4.725,16.568 4.826,17.06 5.01,17.511C5.075,17.669 5.056,17.848 4.961,17.989C4.866,18.131 4.707,18.216 4.537,18.216L3.279,18.216C1.48,18.216 0.022,16.758 0.022,14.959C0.022,13.24 1.354,11.833 3.043,11.712C3.049,11.711 3.055,11.708 3.059,11.703C3.063,11.698 3.064,11.691 3.063,11.685C3.006,11.429 2.976,11.164 2.976,10.892C2.976,8.865 4.619,7.222 6.645,7.222C7.405,7.222 8.111,7.453 8.696,7.848C8.702,7.852 8.708,7.853 8.714,7.851C8.721,7.849 8.726,7.845 8.729,7.839C9.562,6.17 11.286,5.022 13.278,5.022C15.693,5.022 17.714,6.706 18.232,8.963C18.265,9.105 18.235,9.255 18.15,9.374C18.066,9.493 17.934,9.57 17.789,9.586ZM21.528,14.141C22.782,14.336 23.74,15.42 23.74,16.728C23.74,17.75 23.155,18.635 22.301,19.067C22.252,19.092 22.202,19.115 22.151,19.137C22.121,19.15 22.09,19.156 22.058,19.156C21.203,19.156 8.973,19.156 8.973,19.156C7.305,19.145 5.957,17.791 5.957,16.121C5.957,14.445 7.316,13.086 8.992,13.086C9.076,13.086 9.159,13.09 9.242,13.097C9.237,13.02 9.234,12.942 9.234,12.864C9.234,10.766 10.935,9.065 13.033,9.065C14.507,9.065 15.784,9.905 16.414,11.132C16.935,10.791 17.557,10.591 18.227,10.591C20.056,10.591 21.538,12.073 21.538,13.902C21.538,13.982 21.534,14.062 21.528,14.141ZM8.985,17.109L21.548,17.11C21.639,17.008 21.694,16.875 21.694,16.728C21.694,16.443 21.486,16.205 21.213,16.163C20.162,15.999 19.412,15.057 19.487,13.997C19.489,13.966 19.492,13.934 19.492,13.902C19.492,13.204 18.925,12.638 18.227,12.638C17.972,12.638 17.735,12.713 17.536,12.843C17.051,13.162 16.453,13.259 15.892,13.111C15.33,12.963 14.858,12.583 14.593,12.067C14.303,11.5 13.714,11.112 13.033,11.112C12.065,11.112 11.281,11.896 11.281,12.864C11.281,12.901 11.283,12.938 11.285,12.974C11.32,13.566 11.097,14.144 10.674,14.559C10.25,14.974 9.667,15.184 9.076,15.136C9.048,15.134 9.02,15.132 8.992,15.132C8.446,15.132 8.003,15.575 8.003,16.121C8.003,16.665 8.442,17.106 8.985,17.109Z"/>
    </g>
</svg>
