<svg fill="rgb(175,85,225)" clip-rule="evenodd" fill-rule="evenodd" stroke-linejoin="round" stroke-miterlimit="2" viewBox="0 0 245 210" xmlns="http://www.w3.org/2000/svg"><path d="m7.144 3.567h7.776c1.298 0 2.556.471 3.554 1.331l12.589 10.352c1.267 1.093 2 2.712 2 4.419v6.263c0 1.186-.455 2.324-1.265 3.162-.81.839-1.909 1.311-3.055 1.311h-21.599c-1.146 0-2.244-.472-3.055-1.311-.81-.838-1.265-1.976-1.265-3.162v-17.892c0-1.187.455-2.324 1.265-3.163.811-.839 1.909-1.31 3.055-1.31zm0 2.226c-.575 0-1.127.237-1.534.658-.407.422-.636.993-.636 1.589v17.892c0 .595.229 1.167.636 1.588s.959.658 1.534.658h21.599c.576 0 1.128-.237 1.535-.658s.635-.993.635-1.588v-6.263c0-1.046-.449-2.038-1.226-2.708l-12.589-10.352c-.612-.527-1.382-.816-2.178-.816zm.285 3.491c-.56 0-1.015-.448-1.015-1s.455-1 1.015-1h7.043c.56 0 1.014.448 1.014 1s-.454 1-1.014 1zm15.719-2.401c-.33-.269-.459-.726-.322-1.137.138-.412.513-.688.933-.688h6.013c.491 0 .962.202 1.309.561.347.36.542.847.542 1.356v4.712c0 .391-.216.748-.556.919s-.745.126-1.042-.116z" transform="matrix(8.10206 0 0 7.82482 -22.8811 -27.9099)"/><path d="m554-496c50.667-39.333 90.167-79.647 118.5-120.94s42.5-81.41 42.5-120.35c0-23.807-4.49-43.377-13.47-58.71-8.973-15.333-20.727-23-35.26-23-32.053 0-60.28 24.553-84.68 73.66-24.393 49.107-36.59 106.553-36.59 172.34 0 13.76.667 27.033 2 39.82s3.667 25.18 7 37.18zm-409 198c-8.667 8.667-18.667 12.833-30 12.5s-21.333-4.833-30-13.5-13-18.833-13-30.5 4.333-21.833 13-30.5l34-33-34-34c-9.333-8.667-13.833-18.833-13.5-30.5s4.833-21.833 13.5-30.5 18.833-13 30.5-13 21.833 4.333 30.5 13l33 34 34-34c8.667-8.667 18.833-13 30.5-13s21.833 4.333 30.5 13 13 18.833 13 30.5-4.333 21.833-13 30.5l-34 34 34 34c8.667 8.667 13 18.667 13 30s-4.333 21.333-13 30-18.833 13-30.5 13-21.833-4.333-30.5-13l-34-33zm493 6c-24.667 0-46.833-6-66.5-18s-37.167-28.667-52.5-50c-11.333 7.333-22.333 13.833-33 19.5s-21.667 11.5-33 17.5c-10.667 6.667-21.667 8.667-33 6s-20-9.333-26-20-7.58-21.823-4.74-33.47c2.84-11.653 9.753-20.83 20.74-27.53 11.793-5.767 23.41-12.043 34.85-18.83 11.433-6.78 22.483-13.503 33.15-20.17-6.667-20.207-11.667-41.31-15-63.31s-5-44.897-5-68.69c0-94.667 19.62-174.5 58.86-239.5s88.953-97.5 149.14-97.5c41.28 0 74.267 15.667 98.96 47s37.04 71.667 37.04 121c0 55.333-18.5 110.833-55.5 166.5s-88.833 108.833-155.5 159.5c8 10.667 16.667 18.833 26 24.5s19.667 8.5 31 8.5c20 0 39.5-6.833 58.5-20.5s36.833-34.5 53.5-62.5c5.093-8.813 12.123-14.683 21.09-17.61s18.27-2.39 27.91 1.61c9.98 4.527 17.473 11.66 22.48 21.4 5.013 9.733 7.187 19.933 6.52 30.6-.667 6-1 12.333-1 19v24c4-3.333 8.167-6.667 12.5-10s8.5-6.667 12.5-10c6-8 14-13.333 24-16s20-2.333 30 1c9.333 3.333 15.833 9.667 19.5 19s2.833 18-2.5 26c-16.667 26.667-34.093 46.833-52.28 60.5-18.18 13.667-36.753 20.5-55.72 20.5-17.333 0-31.833-5.167-43.5-15.5s-18.833-24.5-21.5-42.5c-19.333 19.333-39.11 33.833-59.33 43.5-20.227 9.667-41.117 14.5-62.67 14.5zm-498 197c-12.667 0-23.167-4.197-31.5-12.59s-12.5-18.56-12.5-30.5 4.167-22.243 12.5-30.91 18.667-13 31-13 22.667 4.263 31 12.79 12.5 18.86 12.5 31-4.187 22.377-12.56 30.71-18.52 12.5-30.44 12.5zm171 0c-12.667 0-23.167-4.197-31.5-12.59s-12.5-18.56-12.5-30.5 4.167-22.243 12.5-30.91 18.667-13 31-13 22.667 4.263 31 12.79 12.5 18.86 12.5 31-4.187 22.377-12.56 30.71-18.52 12.5-30.44 12.5zm170 0c-12.667 0-23.167-4.197-31.5-12.59s-12.5-18.56-12.5-30.5 4.167-22.243 12.5-30.91 18.667-13 31-13 22.667 4.263 31 12.79 12.5 18.86 12.5 31-4.187 22.377-12.56 30.71-18.52 12.5-30.44 12.5zm171 0c-12.667 0-23.167-4.197-31.5-12.59s-12.5-18.56-12.5-30.5 4.167-22.243 12.5-30.91 18.667-13 31-13 22.667 4.263 31 12.79 12.5 18.86 12.5 31-4.187 22.377-12.56 30.71-18.52 12.5-30.44 12.5zm170.21 0c-12.14 0-22.377-4.197-30.71-12.59s-12.5-18.56-12.5-30.5 4.197-22.243 12.59-30.91 18.56-13 30.5-13 22.243 4.263 30.91 12.79 13 18.86 13 31-4.263 22.377-12.79 30.71-18.86 12.5-31 12.5z" fill-rule="nonzero" transform="matrix(.125508 0 0 .125508 59.1671 190.832)"/></svg>