<svg fill="rgb(175,85,225)" clip-rule="evenodd" fill-rule="evenodd" stroke-linejoin="round" stroke-miterlimit="2" viewBox="0 0 245 210" xmlns="http://www.w3.org/2000/svg"><path d="m7.144 3.567h7.776c1.298 0 2.556.471 3.554 1.331l12.589 10.352c1.267 1.093 2 2.712 2 4.419v6.263c0 1.186-.455 2.324-1.265 3.162-.81.839-1.909 1.311-3.055 1.311h-21.599c-1.146 0-2.244-.472-3.055-1.311-.81-.838-1.265-1.976-1.265-3.162v-17.892c0-1.187.455-2.324 1.265-3.163.811-.839 1.909-1.31 3.055-1.31zm0 2.226c-.575 0-1.127.237-1.534.658-.407.422-.636.993-.636 1.589v17.892c0 .595.229 1.167.636 1.588s.959.658 1.534.658h21.599c.576 0 1.128-.237 1.535-.658s.635-.993.635-1.588v-6.263c0-1.046-.449-2.038-1.226-2.708l-12.589-10.352c-.612-.527-1.382-.816-2.178-.816zm.285 3.491c-.56 0-1.015-.448-1.015-1s.455-1 1.015-1h7.043c.56 0 1.014.448 1.014 1s-.454 1-1.014 1zm15.719-2.401c-.33-.269-.459-.726-.322-1.137.138-.412.513-.688.933-.688h6.013c.491 0 .962.202 1.309.561.347.36.542.847.542 1.356v4.712c0 .391-.216.748-.556.919s-.745.126-1.042-.116z" transform="matrix(8.10206 0 0 7.82482 -22.8811 -27.9099)"/><path d="m27.077 33.266h.031c2.659.012 5.318.009 7.98.006 2.861-.003 5.726-.006 8.589.009v.005c.895-.063 1.721.346 2.309.974.597.637.986 1.532 1.007 2.506h.002c.001.005 0 .01 0 .016 0 .005.001.011.002.017h-.003c.058 1.033-.311 2.019-.919 2.721-.595.686-1.47 1.149-2.435 1.034-1.731 0-3.463.001-5.196.003-4.047.003-8.097.006-12.144-.008v-.001c-.937.08-1.771-.409-2.334-1.081-.578-.689-.941-1.639-.906-2.617h-.001l.001-.009c0-.005-.002-.009-.001-.013h.001c.017-1.311.704-2.644 1.833-3.21l-.002-.001c.003-.002.006-.002.009-.004.005-.002.01-.006.015-.008l.001.002c.625-.328 1.297-.327 1.777-.332.139-.002.263-.003.384-.009zm-22.296-25.838c1.002.001 1.965.399 2.673 1.108l11.343 11.344c1.467 1.467 1.467 3.88 0 5.346l-11.343 11.344c-1.467 1.466-3.88 1.466-5.347 0-1.466-1.467-1.466-3.88 0-5.347l8.671-8.67-8.671-8.67c-1.466-1.467-1.466-3.881 0-5.347.709-.709 1.671-1.107 2.674-1.108z" transform="matrix(2.44583 0 0 2.44583 63.7911 69.3157)"/></svg>