<svg fill="currentColor" clip-rule="evenodd" fill-rule="evenodd" stroke-linejoin="round" stroke-miterlimit="2" viewBox="0 0 245 210" xmlns="http://www.w3.org/2000/svg"><path d="m7.144 3.567h7.776c1.298 0 2.556.471 3.554 1.331l12.589 10.352c1.267 1.093 2 2.712 2 4.419v6.263c0 1.186-.455 2.324-1.265 3.162-.81.839-1.909 1.311-3.055 1.311h-21.599c-1.146 0-2.244-.472-3.055-1.311-.81-.838-1.265-1.976-1.265-3.162v-17.892c0-1.187.455-2.324 1.265-3.163.811-.839 1.909-1.31 3.055-1.31zm0 2.226c-.575 0-1.127.237-1.534.658-.407.422-.636.993-.636 1.589v17.892c0 .595.229 1.167.636 1.588s.959.658 1.534.658h21.599c.576 0 1.128-.237 1.535-.658s.635-.993.635-1.588v-6.263c0-1.046-.449-2.038-1.226-2.708l-12.589-10.352c-.612-.527-1.382-.816-2.178-.816zm.285 3.491c-.56 0-1.015-.448-1.015-1s.455-1 1.015-1h7.043c.56 0 1.014.448 1.014 1s-.454 1-1.014 1zm15.719-2.401c-.33-.269-.459-.726-.322-1.137.138-.412.513-.688.933-.688h6.013c.491 0 .962.202 1.309.561.347.36.542.847.542 1.356v4.712c0 .391-.216.748-.556.919s-.745.126-1.042-.116z" transform="matrix(8.10206 0 0 7.82482 -22.8811 -27.9099)"/><path d="m476.14-95c-98.06 0-182.763-32.333-254.11-97-71.353-64.667-112.363-144.667-123.03-240-2.667-12.087.333-22.773 9-32.06 8.667-9.293 19.647-14.273 32.94-14.94 12.707-.667 23.893 2.833 33.56 10.5s16.167 17.833 19.5 30.5c9.333 70 40.213 129 92.64 177 52.433 48 115.553 72 189.36 72 81.333 0 150.667-28.773 208-86.32s86-127.38 86-209.5c0-80.12-28.79-147.847-86.37-203.18-57.587-55.333-126.797-83-207.63-83-40 0-77.833 8.167-113.5 24.5s-67.167 38.5-94.5 66.5h48c10.1 0 18.627 3.473 25.58 10.42 6.947 6.953 10.42 15.48 10.42 25.58 0 10.667-3.473 19.5-10.42 26.5-6.953 7-15.48 10.5-25.58 10.5h-146c-13.333 0-24.5-4.5-33.5-13.5s-13.5-20.167-13.5-33.5v-145c0-10.1 3.333-18.46 10-25.08 6.667-6.613 15.167-9.92 25.5-9.92s18.833 3.307 25.5 9.92c6.667 6.62 10 14.98 10 25.08v60c36.667-39.333 79.167-70.333 127.5-93s99.833-34 154.5-34c53.333 0 103.5 10.167 150.5 30.5s88.247 47.837 123.74 82.51 63.327 75.173 83.5 121.5 30.26 96.157 30.26 149.49-10.087 103.497-30.26 150.49-48.007 87.993-83.5 123-76.74 62.677-123.74 83.01-97.12 30.5-150.36 30.5zm40.86-398.74 107.8 104.57c8.133 8.113 12.2 16.96 12.2 26.54 0 9.573-3.837 18.117-11.51 25.63-7.667 8-16.247 12-25.74 12s-18.077-4-25.75-12l-115-113c-4.667-4-8-8.783-10-14.35s-3-11.783-3-18.65v-165c0-10.1 3.463-18.46 10.39-25.08 6.933-6.613 15.433-9.92 25.5-9.92 10.073 0 18.443 3.307 25.11 9.92 6.667 6.62 10 14.98 10 25.08z" fill-rule="nonzero" transform="matrix(.136234 0 0 .136234 56.9672 193.476)"/></svg>