<?xml version="1.0" encoding="utf-8"?>
<svg xmlns="http://www.w3.org/2000/svg" height="48" viewBox="0 -960 960 960" width="48">
  <defs>
    <style type="text/css" id="current-color-scheme">.ColorScheme-Highlight { color:#000000; }</style>
  </defs>
  <path class="ColorScheme-Highlight" fill="currentColor" d="M 480 -55 C 381.627 -55 299.533 -88.747 233.72 -156.24 C 167.907 -223.74 135 -307.66 135 -408 C 135 -444 142.167 -480.833 156.5 -518.5 C 170.833 -556.167 191.167 -594.5 217.5 -633.5 C 243.833 -672.5 275.333 -712 312 -752 C 348.667 -792 389 -832 433 -872 C 440.333 -878 447.873 -882.333 455.62 -885 C 463.36 -887.667 471.527 -889 480.12 -889 C 488.707 -889 496.833 -887.667 504.5 -885 C 512.167 -882.333 519.667 -878 527 -872 C 571 -832 611.333 -792 648 -752 C 684.667 -712 716.167 -672.5 742.5 -633.5 C 768.833 -594.5 789.333 -556.167 804 -518.5 C 818.667 -480.833 826 -444 826 -408 C 826 -307.66 792.927 -223.74 726.78 -156.24 C 660.633 -88.747 578.373 -55 480 -55 Z M 480.14 -149 C 552.047 -149 611.833 -173.697 659.5 -223.09 C 707.167 -272.483 731 -334.12 731 -408 C 731 -457.333 709.667 -514 667 -578 C 624.333 -642 562 -711.667 480 -787 C 398 -711.667 335.667 -642 293 -578 C 250.333 -514 229 -457.333 229 -408 C 229 -334.12 252.88 -272.483 300.64 -223.09 C 348.4 -173.697 408.233 -149 480.14 -149 Z"/>
  <path fill="rgb(255, 255, 255)" d="M 300.645 -223.2 C 252.885 -272.62 229.004 -334.22 229.004 -408.01 C 229.004 -457.43 250.346 -514 293.003 -578.01 C 335.683 -642.01 398.002 -711.79 479.998 -787 C 561.997 -711.79 624.335 -642.01 666.996 -578.01 C 709.675 -514 730.995 -457.43 730.995 -408.01 C 730.995 -334.22 707.175 -272.62 659.497 -223.2 C 611.838 -173.82 552.058 -149 480.14 -149 C 408.241 -149 348.401 -173.82 300.645 -223.2 Z M 480.999 -212.03 C 493.679 -212.03 503.84 -214.8 511.5 -220.01 C 519.179 -225.41 523 -232.43 523 -241.01 C 523 -250.42 519.34 -258 511.999 -263.62 C 504.68 -269.21 493.998 -272.02 479.998 -272.02 C 448.679 -272.02 421.841 -280.6 399.502 -297.63 C 377.181 -314.61 362.341 -341.42 355.004 -378.01 C 353.684 -384.8 350.182 -390.8 344.501 -396.01 C 338.844 -401.41 332.001 -404 324.003 -404 C 313.464 -404 305.665 -400.62 300.603 -393.61 C 295.542 -386.6 293.682 -378.99 295.002 -371 C 305.005 -314.42 328.724 -273.82 366.181 -249 C 403.622 -224.4 441.9 -212.03 480.999 -212.03 Z"/>
</svg>