<?xml version="1.0" encoding="utf-8"?>
<svg opacity="0.5" xmlns="http://www.w3.org/2000/svg" height="48" viewBox="0 -960 960 960" width="48">
  <defs>
    <style type="text/css" id="current-color-scheme">.ColorScheme-Highlight { color:#000000; }</style>
  </defs>
  <path class="ColorScheme-Highlight" fill="currentColor" d="M 480.27 -55 C 421.11 -55 365.78 -66.027 314.28 -88.08 C 262.78 -110.14 217.72 -140.48 179.1 -179.1 C 140.48 -217.72 110.14 -262.803 88.08 -314.35 C 66.027 -365.903 55 -421.287 55 -480.5 C 55 -539.713 66.027 -595.097 88.08 -646.65 C 110.14 -698.197 140.48 -743.113 179.1 -781.4 C 217.72 -819.687 262.803 -850.027 314.35 -872.42 C 365.903 -894.807 421.287 -906 480.5 -906 C 539.713 -906 595.097 -894.807 646.65 -872.42 C 698.197 -850.027 743.113 -819.687 781.4 -781.4 C 819.687 -743.113 850.027 -698.143 872.42 -646.49 C 894.807 -594.83 906 -539.423 906 -480.27 C 906 -421.11 894.807 -365.78 872.42 -314.28 C 850.027 -262.78 819.687 -217.78 781.4 -179.28 C 743.113 -140.787 698.143 -110.45 646.49 -88.27 C 594.83 -66.09 539.423 -55 480.27 -55 Z M 480 -480 Z"/>
</svg>