<svg fill="white" clip-rule="evenodd" fill-rule="evenodd" stroke-linejoin="round" stroke-miterlimit="2" viewBox="0 0 245 210" xmlns="http://www.w3.org/2000/svg"><path d="m7.144 3.567h7.776c1.298 0 2.556.471 3.554 1.331l12.589 10.352c1.267 1.093 2 2.712 2 4.419v6.263c0 1.186-.455 2.324-1.265 3.162-.81.839-1.909 1.311-3.055 1.311h-21.599c-1.146 0-2.244-.472-3.055-1.311-.81-.838-1.265-1.976-1.265-3.162v-17.892c0-1.187.455-2.324 1.265-3.163.811-.839 1.909-1.31 3.055-1.31zm0 2.226c-.575 0-1.127.237-1.534.658-.407.422-.636.993-.636 1.589v17.892c0 .595.229 1.167.636 1.588s.959.658 1.534.658h21.599c.576 0 1.128-.237 1.535-.658s.635-.993.635-1.588v-6.263c0-1.046-.449-2.038-1.226-2.708l-12.589-10.352c-.612-.527-1.382-.816-2.178-.816zm.285 3.491c-.56 0-1.015-.448-1.015-1s.455-1 1.015-1h7.043c.56 0 1.014.448 1.014 1s-.454 1-1.014 1zm15.719-2.401c-.33-.269-.459-.726-.322-1.137.138-.412.513-.688.933-.688h6.013c.491 0 .962.202 1.309.561.347.36.542.847.542 1.356v4.712c0 .391-.216.748-.556.919s-.745.126-1.042-.116z" transform="matrix(8.10206 0 0 7.82482 -22.8811 -27.9099)"/><path d="m491.102 223.47v138.203c0 10.888-9.046 19.715-20.204 19.715h-252.163c-11.158 0-20.204-8.827-20.204-19.715v-138.203c0-10.888 9.046-19.715 20.204-19.715h252.163c11.158 0 20.204 8.827 20.204 19.715zm-293.673 181.578h298.122c5.77 0 10.447 4.565 10.447 10.196 0 16.893-13.391 30.589-29.908 30.589h-259.2c-16.518 0-29.908-13.696-29.908-30.589 0-5.631 4.677-10.196 10.447-10.196zm-91.646-128.121v155.762c0 7.258-6.031 13.143-13.47 13.143h-72.966c-7.439 0-13.47-5.885-13.47-13.143v-155.762c0-7.258 6.031-13.143 13.47-13.143h72.966c7.439 0 13.47 5.885 13.47 13.143zm-30.27-215.917h363.885c7.228 0 14.161 2.802 19.272 7.79 5.111 4.987 7.983 11.752 7.983 18.805v64.22c0 6.842-2.785 13.402-7.743 18.24-4.957 4.837-11.681 7.554-18.692 7.554h-258.102c-7.439 0-13.469 5.885-13.469 13.144v237.332c0 9.796-8.141 17.738-18.181 17.738-4.821 0-9.447-1.869-12.856-5.195-3.409-3.327-5.324-7.839-5.324-12.543v-172.096c0-3.485-1.419-6.828-3.945-9.293s-5.952-3.85-9.524-3.85h-43.245c-14.844 0-26.878-11.742-26.878-26.227v-129.449c0-6.941 2.826-13.597 7.855-18.505 5.03-4.908 11.851-7.665 18.964-7.665z" transform="matrix(.234643 0 0 .240463 62.4461 70.9674)"/></svg>