<svg fill="white" clip-rule="evenodd" fill-rule="evenodd" stroke-linejoin="round" stroke-miterlimit="2" viewBox="0 0 245 210" xmlns="http://www.w3.org/2000/svg"><path d="m7.144 3.567h7.776c1.298 0 2.556.471 3.554 1.331l12.589 10.352c1.267 1.093 2 2.712 2 4.419v6.263c0 1.186-.455 2.324-1.265 3.162-.81.839-1.909 1.311-3.055 1.311h-21.599c-1.146 0-2.244-.472-3.055-1.311-.81-.838-1.265-1.976-1.265-3.162v-17.892c0-1.187.455-2.324 1.265-3.163.811-.839 1.909-1.31 3.055-1.31zm0 2.226c-.575 0-1.127.237-1.534.658-.407.422-.636.993-.636 1.589v17.892c0 .595.229 1.167.636 1.588s.959.658 1.534.658h21.599c.576 0 1.128-.237 1.535-.658s.635-.993.635-1.588v-6.263c0-1.046-.449-2.038-1.226-2.708l-12.589-10.352c-.612-.527-1.382-.816-2.178-.816zm.285 3.491c-.56 0-1.015-.448-1.015-1s.455-1 1.015-1h7.043c.56 0 1.014.448 1.014 1s-.454 1-1.014 1zm15.719-2.401c-.33-.269-.459-.726-.322-1.137.138-.412.513-.688.933-.688h6.013c.491 0 .962.202 1.309.561.347.36.542.847.542 1.356v4.712c0 .391-.216.748-.556.919s-.745.126-1.042-.116z" transform="matrix(8.10206 0 0 7.82482 -22.8811 -27.9099)"/><path d="m189-137c-47.333 0-87.267-16.533-119.8-49.6-32.54-33.06-49.273-73.227-50.2-120.5 0-6.6.333-13.4 1-20.4s2-13.833 4-20.5l84-337c10.667-40.667 32.41-73.833 65.23-99.5 32.827-25.667 70.083-38.5 111.77-38.5h390c41.687 0 78.943 12.833 111.77 38.5 32.82 25.667 54.897 58.833 66.23 99.5l84 336c1.333 7.333 2.5 14.507 3.5 21.52s1.5 14.157 1.5 21.43c0 47.32-16.66 87.323-49.98 120.01-33.327 32.693-73.673 49.04-121.04 49.04-32.653 0-62.813-8.5-90.48-25.5s-48.5-40.167-62.5-69.5l-28-58c-1.333-2.667-3.253-4.5-5.76-5.5s-5.587-1.5-9.24-1.5h-190c-3.653 0-6.733.5-9.24 1.5s-4.427 2.833-5.76 5.5l-28 58c-14 29.333-34.86 52.5-62.58 69.5s-57.86 25.5-90.42 25.5zm2.66-94c14.267 0 27.113-3.823 38.54-11.47 11.42-7.653 20.687-17.83 27.8-30.53l28-57c8.64-19.173 21.893-34.133 39.76-44.88 17.86-10.747 37.607-16.12 59.24-16.12h190c21.607 0 41.163 5.56 58.67 16.68s31.617 25.893 42.33 44.32l28 57c6.447 12.7 15.38 22.877 26.8 30.53 11.427 7.647 24.247 11.47 38.46 11.47 21.04 0 39.09-7.167 54.15-21.5s22.923-31.833 23.59-52.5c0-6-1-13-3-21l-84-335c-4.667-19.333-14.833-35.5-30.5-48.5s-33.833-19.5-54.5-19.5h-390c-20.167 0-38.237 6.31-54.21 18.93-15.973 12.627-26.237 28.983-30.79 49.07l-84 335c.667-.667-.333 6-3 20 0 21.413 7.79 39.267 23.37 53.56 15.573 14.293 34.003 21.44 55.29 21.44zm348.52-299c8.547 0 15.653-2.893 21.32-8.68 5.667-5.78 8.5-12.947 8.5-21.5 0-8.547-2.893-15.653-8.68-21.32-5.78-5.667-12.947-8.5-21.5-8.5-8.547 0-15.653 2.893-21.32 8.68-5.667 5.78-8.5 12.947-8.5 21.5 0 8.547 2.893 15.653 8.68 21.32 5.78 5.667 12.947 8.5 21.5 8.5zm80-80c8.547 0 15.653-2.893 21.32-8.68 5.667-5.78 8.5-12.947 8.5-21.5 0-8.547-2.893-15.653-8.68-21.32-5.78-5.667-12.947-8.5-21.5-8.5-8.547 0-15.653 2.893-21.32 8.68-5.667 5.78-8.5 12.947-8.5 21.5 0 8.547 2.893 15.653 8.68 21.32 5.78 5.667 12.947 8.5 21.5 8.5zm0 160c8.547 0 15.653-2.893 21.32-8.68 5.667-5.78 8.5-12.947 8.5-21.5 0-8.547-2.893-15.653-8.68-21.32-5.78-5.667-12.947-8.5-21.5-8.5-8.547 0-15.653 2.893-21.32 8.68-5.667 5.78-8.5 12.947-8.5 21.5 0 8.547 2.893 15.653 8.68 21.32 5.78 5.667 12.947 8.5 21.5 8.5zm80-80c8.547 0 15.653-2.893 21.32-8.68 5.667-5.78 8.5-12.947 8.5-21.5 0-8.547-2.893-15.653-8.68-21.32-5.78-5.667-12.947-8.5-21.5-8.5-8.547 0-15.653 2.893-21.32 8.68-5.667 5.78-8.5 12.947-8.5 21.5 0 8.547 2.893 15.653 8.68 21.32 5.78 5.667 12.947 8.5 21.5 8.5zm-360.06 65c7.253 0 13.213-2.36 17.88-7.08 4.667-4.727 7-10.7 7-17.92v-45h45c7.22 0 13.193-2.373 17.92-7.12 4.72-4.74 7.08-10.74 7.08-18 0-7.253-2.36-13.213-7.08-17.88-4.727-4.667-10.7-7-17.92-7h-45v-45c0-7.22-2.373-13.193-7.12-17.92-4.74-4.72-10.74-7.08-18-7.08-7.253 0-13.213 2.36-17.88 7.08-4.667 4.727-7 10.7-7 17.92v45h-45c-7.22 0-13.193 2.373-17.92 7.12-4.72 4.74-7.08 10.74-7.08 18 0 7.253 2.36 13.213 7.08 17.88 4.727 4.667 10.7 7 17.92 7h45v45c0 7.22 2.373 13.193 7.12 17.92 4.74 4.72 10.74 7.08 18 7.08z" fill-rule="nonzero" transform="matrix(.118843 0 0 .118843 65.396 187.449)"/></svg>