<?xml version="1.0" encoding="utf-8"?>
<svg xmlns="http://www.w3.org/2000/svg" height="48" viewBox="0 -960 960 960" width="48">
  <defs>
    <style type="text/css" id="current-color-scheme">.ColorScheme-Highlight { color:#000000; }</style>
  </defs>
  <path class="ColorScheme-Highlight" fill="currentColor" d="M 269 -404 L 269 -142 C 269 -128.833 264.44 -117.71 255.32 -108.63 C 246.207 -99.543 235.04 -95 221.82 -95 C 208.607 -95 197.5 -99.543 188.5 -108.63 C 179.5 -117.71 175 -128.833 175 -142 L 175 -778 C 175 -791.167 179.543 -802.46 188.63 -811.88 C 197.71 -821.293 208.833 -826 222 -826 L 526 -826 C 537 -826 546.917 -822.167 555.75 -814.5 C 564.583 -806.833 570 -797.667 572 -787 L 583 -740 L 778 -740 C 791.167 -740 802.46 -735.293 811.88 -725.88 C 821.293 -716.46 826 -705.167 826 -692 L 826 -366 C 826 -352.833 821.293 -341.71 811.88 -332.63 C 802.46 -323.543 791.167 -319 778 -319 L 561 -319 C 550 -319 540.083 -322.5 531.25 -329.5 C 522.417 -336.5 517 -345.333 515 -356 L 504 -404 Z M 603 -413.01 L 731 -413.01 L 731 -645 L 541 -645 C 530 -645 520.081 -648.8 511.24 -656.01 C 502.42 -663.41 496.999 -672.4 495 -683.01 L 484 -731 L 269 -731 L 269 -498.02 L 546 -498.02 C 557 -498.02 566.919 -494.61 575.74 -487.61 C 584.58 -480.6 589.999 -471.8 592 -461.01 Z"/>
  <path fill="rgb(50, 175, 230)" d="M 603 -413 L 731 -413 L 731 -645 L 541 -645 C 530 -645 520.0833333333334 -648.6666666666666 511.25 -656 C 502.4166666666667 -663.3333333333334 497 -672.3333333333334 495 -683 L 484 -731 L 269 -731 L 269 -498 L 546 -498 C 557 -498 566.9166666666666 -494.5 575.75 -487.5 C 584.5833333333334 -480.5 590 -471.6666666666667 592 -461 L 603 -413 Z"/>
</svg>