<svg fill="currentColor" clip-rule="evenodd" fill-rule="evenodd" stroke-linejoin="round" stroke-miterlimit="2" viewBox="0 0 48 48" xmlns="http://www.w3.org/2000/svg"><path d="m17.48 27.349c.787 0 1.429.654 1.442 1.47 0 .023.001.045.001.068.006.401-.143.787-.414 1.072s-.642.446-1.028.446c-3.358 0-11.319 0-11.319 0-.886 0-1.735-.364-2.36-1.012-.626-.648-.978-1.527-.978-2.444v-19.926c0-.917.352-1.796.978-2.444.625-.648 1.474-1.012 2.36-1.012h8.758c1.298 0 2.556.471 3.554 1.331l.194.159h9.618c1.843 0 3.337 1.548 3.337 3.456v5.434c0 1.042-.575 1.991-1.481 2.445-.905.454-1.981.332-2.77-.314-4.448-3.642-10.79-8.835-10.79-8.835-.468-.401-1.055-.621-1.662-.621h-7.301c-.489 0-.958.202-1.304.56-.346.357-.54.843-.54 1.349v16.909c0 .506.194.992.54 1.349.346.358.815.56 1.304.56z" transform="matrix(1.53077 0 0 1.47839 -2.36519 -1.11193)"/><path d="m587-182 54 54c8.667 9.333 13 20.293 13 32.88 0 12.593-4.597 23.61-13.79 33.05-9.86 9.38-21.193 14.237-34 14.57s-23.877-4.167-33.21-13.5l-87-87c-9.333-9.633-14-20.877-14-33.73 0-12.847 4.667-24.27 14-34.27l88-87c9.42-8.667 20.61-13 33.57-13 12.953 0 24.097 4.763 33.43 14.29 8.667 8.853 13 19.853 13 33 0 13.14-4.333 24.043-13 32.71zm222 0-54-54c-8.667-8.907-13-19.777-13-32.61s4.703-23.94 14.11-33.32c9.4-9.38 20.567-14.07 33.5-14.07 12.927 0 24.057 4.333 33.39 13l87 87c9.333 10.24 14 21.787 14 34.64 0 12.847-4.667 23.967-14 33.36l-88 87c-9.153 9.333-20.277 13.833-33.37 13.5-13.087-.333-24.297-5.19-33.63-14.57-8.667-8.713-13-19.547-13-32.5s4.333-24.097 13-33.43z" fill-rule="nonzero" transform="matrix(.0443986 0 0 .0443986 5.01798 41.2428)"/></svg>