<svg fill="currentColor" clip-rule="evenodd" fill-rule="evenodd" stroke-linejoin="round" stroke-miterlimit="2" viewBox="0 0 48 48" xmlns="http://www.w3.org/2000/svg"><path d="m17.48 27.349c.787 0 1.429.654 1.442 1.47 0 .023.001.045.001.068.006.401-.143.787-.414 1.072s-.642.446-1.028.446c-3.358 0-11.319 0-11.319 0-.886 0-1.735-.364-2.36-1.012-.626-.648-.978-1.527-.978-2.444v-19.926c0-.917.352-1.796.978-2.444.625-.648 1.474-1.012 2.36-1.012h8.758c1.298 0 2.556.471 3.554 1.331l.194.159h9.618c1.843 0 3.337 1.548 3.337 3.456v5.434c0 1.042-.575 1.991-1.481 2.445-.905.454-1.981.332-2.77-.314-4.448-3.642-10.79-8.835-10.79-8.835-.468-.401-1.055-.621-1.662-.621h-7.301c-.489 0-.958.202-1.304.56-.346.357-.54.843-.54 1.349v16.909c0 .506.194.992.54 1.349.346.358.815.56 1.304.56z" transform="matrix(1.53077 0 0 1.47839 -2.36519 -1.11193)"/><path d="m712-443c53.007 0 98.593 19.08 136.76 57.24 38.16 38.167 57.24 83.92 57.24 137.26s-19.08 98.923-57.24 136.75c-38.167 37.833-83.92 56.75-137.26 56.75s-98.927-18.917-136.76-56.75c-37.827-37.827-56.74-83.577-56.74-137.25 0-53.007 18.913-98.593 56.74-136.76 37.833-38.16 83.587-57.24 137.26-57.24zm0 329c8.667 0 16.333-3.167 23-9.5s10-14.167 10-23.5v-96c0-9.6-3.333-17.667-10-24.2s-14.5-9.8-23.5-9.8-16.833 3.267-23.5 9.8-10 14.6-10 24.2v96c0 9.333 3.267 17.167 9.8 23.5s14.6 9.5 24.2 9.5zm0-203c8.667 0 16.333-3.167 23-9.5s10-14.167 10-23.5-3.333-17.333-10-24-14.5-10-23.5-10-16.833 3.267-23.5 9.8-10 14.6-10 24.2c0 9.333 3.267 17.167 9.8 23.5s14.6 9.5 24.2 9.5z" fill-rule="nonzero" transform="matrix(.0468873 0 0 .0468873 3.56238 46.4173)"/></svg>