<svg fill="rgb(90,90,215)" clip-rule="evenodd" fill-rule="evenodd" stroke-linejoin="round" stroke-miterlimit="2" viewBox="0 0 245 210" xmlns="http://www.w3.org/2000/svg"><path d="m7.144 3.567h7.776c1.298 0 2.556.471 3.554 1.331l12.589 10.352c1.267 1.093 2 2.712 2 4.419v6.263c0 1.186-.455 2.324-1.265 3.162-.81.839-1.909 1.311-3.055 1.311h-21.599c-1.146 0-2.244-.472-3.055-1.311-.81-.838-1.265-1.976-1.265-3.162v-17.892c0-1.187.455-2.324 1.265-3.163.811-.839 1.909-1.31 3.055-1.31zm0 2.226c-.575 0-1.127.237-1.534.658-.407.422-.636.993-.636 1.589v17.892c0 .595.229 1.167.636 1.588s.959.658 1.534.658h21.599c.576 0 1.128-.237 1.535-.658s.635-.993.635-1.588v-6.263c0-1.046-.449-2.038-1.226-2.708l-12.589-10.352c-.612-.527-1.382-.816-2.178-.816zm.285 3.491c-.56 0-1.015-.448-1.015-1s.455-1 1.015-1h7.043c.56 0 1.014.448 1.014 1s-.454 1-1.014 1zm15.719-2.401c-.33-.269-.459-.726-.322-1.137.138-.412.513-.688.933-.688h6.013c.491 0 .962.202 1.309.561.347.36.542.847.542 1.356v4.712c0 .391-.216.748-.556.919s-.745.126-1.042-.116z" transform="matrix(8.10206 0 0 7.82482 -22.8811 -27.9099)"/><path d="m97-241c0-13.893 4.927-26.033 14.78-36.42s21.867-15.58 36.04-15.58c6.073 0 11.61 1.167 16.61 3.5s10.19 4.833 15.57 7.5c6 4.667 12.877 8.167 20.63 10.5 7.76 2.333 15.55 3.5 23.37 3.5 23.533 0 43.25-7.93 59.15-23.79s23.85-35.527 23.85-59-7.95-43.21-23.85-59.21-35.617-24-59.15-24c-8.027 0-15.363 1.333-22.01 4s-12.643 5-17.99 7c-6.667 4.667-12.5 8.167-17.5 10.5s-11.287 3.5-18.86 3.5c-12.127 0-23.597-5.193-34.41-15.58-10.82-10.387-16.23-22.527-16.23-36.42v-142.4c0-13.067 4.5-24.1 13.5-33.1s20.167-13.5 33.5-13.5h167c-7-9.333-11.917-19.723-14.75-31.17-2.833-11.44-4.25-22.717-4.25-33.83 0-52.28 18.303-96.683 54.91-133.21s81.107-54.79 133.5-54.79 96.757 18.263 133.09 54.79 54.5 80.93 54.5 133.21c0 11.113-1.417 22.39-4.25 33.83-2.833 11.447-7.75 21.837-14.75 31.17h167c13.333 0 24.5 4.5 33.5 13.5s13.5 20.033 13.5 33.1v142.4c0 14.887-4.883 27.273-14.65 37.16-9.76 9.893-21.89 14.84-36.39 14.84-7.053 0-13.477-1.11-19.27-3.33-5.793-2.227-11.357-5.783-16.69-10.67-5.9-3.333-12.207-6-18.92-8-6.72-2-13.607-3-20.66-3-23.647 0-43.463 7.93-59.45 23.79-15.98 15.86-23.97 35.527-23.97 59s7.99 43.21 23.97 59.21c15.987 16 35.803 24 59.45 24 7.053 0 13.913-1 20.58-3s13-4.667 19-8c4.667-4 9.817-7.333 15.45-10s12.483-4 20.55-4c14.6 0 26.75 4.947 36.45 14.84 9.7 9.887 14.55 22.273 14.55 37.16v137.32c0 13.12-4.5 24.18-13.5 33.18s-20.1 13.5-33.3 13.5h-672.4c-13.2 0-24.3-4.5-33.3-13.5s-13.5-20.06-13.5-33.18zm83 101h600v-53c-6.667 3.333-13.833 5.5-21.5 6.5s-15.297 1.5-22.89 1.5c-45.54 0-84.527-16.167-116.96-48.5s-48.65-71.5-48.65-117.5 16.217-85.167 48.65-117.5 71.42-48.5 116.96-48.5c7.347 0 14.75.5 22.21 1.5 7.453 1 14.847 2.167 22.18 3.5v-55h-212c-7.333 0-13.833-2.667-19.5-8s-8.5-12-8.5-20c0-10 2.833-18.833 8.5-26.5s11.167-15.5 16.5-23.5c7.333-10.667 12.5-21.85 15.5-33.55s4.5-23.85 4.5-36.45c0-29.4-10.143-54.25-30.43-74.55s-45.12-30.45-74.5-30.45-54.237 10.15-74.57 30.45-30.5 45.15-30.5 74.55c0 12.6 1.5 24.75 4.5 36.45s8.167 22.883 15.5 33.55c5.333 8 10.833 16 16.5 24s8.5 16.667 8.5 26c0 7.333-2.833 13.833-8.5 19.5s-12.167 8.5-19.5 8.5h-212v55c7.333-1.333 14.727-2.5 22.18-3.5 7.46-1 14.863-1.5 22.21-1.5 45.54 0 84.527 16.167 116.96 48.5s48.65 71.5 48.65 117.5-16.217 85.167-48.65 117.5-71.42 48.5-116.96 48.5c-7.593 0-15.223-.5-22.89-1.5s-14.833-3.167-21.5-6.5z" fill-rule="nonzero" transform="matrix(.124157 0 0 .124157 62.9047 187.61)"/></svg>