<svg fill="rgb(90,90,215)" width="100%" height="100%" viewBox="0 0 48 48" version="1.1" xmlns="http://www.w3.org/2000/svg" xmlns:xlink="http://www.w3.org/1999/xlink" xml:space="preserve" xmlns:serif="http://www.serif.com/" style="fill-rule:evenodd;clip-rule:evenodd;stroke-linejoin:round;stroke-miterlimit:2;">
    <g transform="matrix(1.27263,0,0,1.27263,-454.507,-651.771)">
        <path d="M388,522.214C390.643,522.214 392.786,524.357 392.786,527L392.786,543C392.786,545.643 390.643,547.786 388,547.786L364,547.786C361.357,547.786 359.214,545.643 359.214,543L359.214,527C359.214,524.357 361.357,522.214 364,522.214L370.726,522.214L364.036,517.612C363.24,517.063 363,515.934 363.516,515.087C364.056,514.199 365.179,513.959 366.012,514.533L376.02,521.363C378.056,520.011 385.985,514.535 385.985,514.535L385.986,514.534C386.824,513.959 387.944,514.199 388.484,515.087C389,515.934 388.76,517.063 387.964,517.612L381.274,522.214L388,522.214ZM389.214,543L389.214,527C389.214,526.33 388.67,525.786 388,525.786L364,525.786C363.33,525.786 362.786,526.33 362.786,527L362.786,543C362.786,543.67 363.33,544.214 364,544.214L388,544.214C388.67,544.214 389.214,543.67 389.214,543ZM383.881,528.021C385.191,528.021 386.254,529.084 386.254,530.394L386.254,539.912C386.254,541.222 385.191,542.284 383.881,542.284L368.119,542.284C366.809,542.284 365.746,541.222 365.746,539.912L365.746,530.394C365.746,529.084 366.809,528.021 368.119,528.021L383.881,528.021ZM383.096,539.119L383.096,531.187C383.096,531.183 383.092,531.179 383.088,531.179L368.912,531.179C368.908,531.179 368.904,531.183 368.904,531.187L368.904,539.119C368.904,539.123 368.908,539.126 368.912,539.126L383.088,539.126C383.092,539.126 383.095,539.123 383.096,539.119Z"/>
    </g>
</svg>
