<?xml version="1.0" encoding="utf-8"?>
<svg xmlns="http://www.w3.org/2000/svg" height="48" viewBox="0 -960 960 960" width="48">
  <path fill="rgb(140, 220, 60)" d="M 229 -55 C 202.967 -55 180.793 -64.157 162.48 -82.47 C 144.16 -100.79 135 -122.967 135 -149 L 135 -811 C 135 -837.307 144.16 -859.717 162.48 -878.23 C 180.793 -896.743 202.967 -906 229 -906 L 552 -906 C 565.04 -906 577.467 -903.333 589.28 -898 C 601.093 -892.667 611.333 -885.667 620 -877 L 797 -700 C 805.667 -691.333 812.667 -681.093 818 -669.28 C 823.333 -657.467 826 -645.04 826 -632 L 826 -149 C 826 -122.967 816.743 -100.79 798.23 -82.47 C 779.717 -64.157 757.307 -55 731 -55 Z M 542 -672 L 542 -811 L 229 -811 L 229 -149 L 731 -149 L 731 -625 L 589 -625 C 575.833 -625 564.71 -629.543 555.63 -638.63 C 546.543 -647.71 542 -658.833 542 -672 Z M 654.853 -450.95 C 659.853 -450.95 665.813 -448.29 669.03 -445.07 C 672.248 -441.85 674.578 -435.89 674.905 -430.9 L 674.905 -413.22 L 692.587 -413.22 C 697.587 -412.89 703.547 -410.56 706.763 -407.34 C 709.981 -404.12 712.638 -398.16 712.638 -393.17 C 712.638 -388.17 709.981 -382.21 706.763 -378.99 C 703.547 -375.77 697.587 -373.44 692.587 -373.12 L 674.905 -373.12 L 674.905 -355.43 C 674.578 -350.43 672.247 -344.47 669.029 -341.25 C 665.81 -338.04 659.851 -335.38 654.853 -335.38 C 649.855 -335.38 643.896 -338.04 640.678 -341.25 C 637.459 -344.47 635.129 -350.43 634.803 -355.43 L 634.803 -373.12 L 612.017 -373.12 L 612.017 -355.43 C 611.69 -350.43 609.359 -344.47 606.141 -341.25 C 602.922 -338.04 596.963 -335.38 591.965 -335.38 C 586.967 -335.38 581.008 -338.04 577.789 -341.25 C 574.571 -344.47 572.24 -350.43 571.913 -355.43 L 571.913 -373.12 L 554.232 -373.12 C 549.232 -373.44 543.273 -375.77 540.055 -378.99 C 536.837 -382.21 534.18 -388.17 534.18 -393.17 C 534.18 -398.16 536.837 -404.12 540.055 -407.34 C 543.273 -410.56 549.232 -412.89 554.232 -413.22 L 571.913 -413.22 L 571.913 -430.9 C 572.24 -435.89 574.57 -441.85 577.788 -445.07 C 581.006 -448.29 586.965 -450.95 591.965 -450.95 C 596.965 -450.95 602.925 -448.29 606.142 -445.07 C 609.36 -441.85 611.69 -435.89 612.017 -430.9 L 612.017 -413.22 L 634.803 -413.22 L 634.803 -430.9 C 635.129 -435.89 637.459 -441.85 640.676 -445.07 C 643.894 -448.29 649.853 -450.95 654.853 -450.95 Z M 464.599 -598.33 C 472.362 -602.25 483.392 -602.25 491.136 -598.32 L 609.75 -529.11 C 615.393 -525.44 620.363 -519.02 621.928 -513.07 C 623.492 -507.11 622.316 -499.08 619.202 -493.09 C 615.535 -487.44 609.129 -482.46 603.172 -480.88 C 597.216 -479.31 589.182 -480.49 583.192 -483.61 L 477.86 -545.07 L 347.884 -469.23 L 347.884 -317.12 L 477.86 -241.27 L 583.197 -302.72 C 589.167 -305.82 597.197 -307 603.154 -305.44 C 609.112 -303.88 615.527 -298.9 619.202 -293.24 C 622.315 -287.25 623.492 -279.23 621.928 -273.27 C 620.364 -267.31 615.385 -260.89 609.743 -257.21 L 491.133 -188.03 C 483.39 -184.1 472.348 -184.11 464.585 -188.03 L 308.254 -279.23 C 301.122 -283.98 295.705 -293.38 295.204 -301.98 L 295.204 -484.35 C 295.705 -492.94 301.137 -502.35 308.269 -507.1 Z M 463.373 -477.03 L 463.373 -424.31 C 466.037 -424.69 469.647 -424.98 474.429 -425.18 C 489.608 -424.36 507.121 -417.13 517.361 -407.26 C 527.181 -397.03 534.414 -379.23 535.242 -364.06 L 535.242 -312.72 C 534.915 -307.72 532.585 -301.76 529.367 -298.54 C 526.151 -295.32 520.191 -292.99 515.191 -292.67 L 504.927 -292.67 C 499.927 -292.99 493.967 -295.32 490.75 -298.54 C 487.532 -301.76 485.203 -307.72 484.876 -312.72 L 484.908 -364.75 C 486.041 -368.32 485.204 -368.31 481.738 -371.67 C 478.816 -374.9 478.51 -374.82 474.137 -374.82 C 469.753 -374.82 469.422 -374.89 466.509 -371.67 C 463.045 -368.31 462.24 -367.63 463.373 -364.06 L 463.373 -312.72 C 463.046 -307.72 460.716 -301.76 457.499 -298.54 C 454.281 -295.32 448.322 -292.99 443.322 -292.67 L 433.059 -292.67 C 428.059 -292.99 422.099 -295.32 418.881 -298.54 C 415.663 -301.76 413.334 -307.72 413.007 -312.72 L 413.007 -477.03 C 413.334 -482.03 415.664 -487.99 418.882 -491.21 C 422.101 -494.43 428.061 -496.75 433.059 -497.08 L 443.322 -497.08 C 448.32 -496.75 454.279 -494.43 457.497 -491.21 C 460.716 -487.99 463.046 -482.03 463.373 -477.03 Z"/>
</svg>