<svg fill="white" clip-rule="evenodd" fill-rule="evenodd" stroke-linejoin="round" stroke-miterlimit="2" viewBox="0 0 245 210" xmlns="http://www.w3.org/2000/svg"><path d="m7.144 3.567h7.776c1.298 0 2.556.471 3.554 1.331l12.589 10.352c1.267 1.093 2 2.712 2 4.419v6.263c0 1.186-.455 2.324-1.265 3.162-.81.839-1.909 1.311-3.055 1.311h-21.599c-1.146 0-2.244-.472-3.055-1.311-.81-.838-1.265-1.976-1.265-3.162v-17.892c0-1.187.455-2.324 1.265-3.163.811-.839 1.909-1.31 3.055-1.31zm0 2.226c-.575 0-1.127.237-1.534.658-.407.422-.636.993-.636 1.589v17.892c0 .595.229 1.167.636 1.588s.959.658 1.534.658h21.599c.576 0 1.128-.237 1.535-.658s.635-.993.635-1.588v-6.263c0-1.046-.449-2.038-1.226-2.708l-12.589-10.352c-.612-.527-1.382-.816-2.178-.816zm.285 3.491c-.56 0-1.015-.448-1.015-1s.455-1 1.015-1h7.043c.56 0 1.014.448 1.014 1s-.454 1-1.014 1zm15.719-2.401c-.33-.269-.459-.726-.322-1.137.138-.412.513-.688.933-.688h6.013c.491 0 .962.202 1.309.561.347.36.542.847.542 1.356v4.712c0 .391-.216.748-.556.919s-.745.126-1.042-.116z" transform="matrix(8.10206 0 0 7.82482 -22.8811 -27.9099)"/><path d="m21.085 11.362v9.363c.56.043 1 .512 1 1.082 0 .599-.486 1.085-1.085 1.085h-18c-.599 0-1.085-.486-1.085-1.085 0-.57.44-1.039 1-1.082v-9.363h-.837c-.6 0-1.086-.486-1.086-1.085l.003-3.19c0-.435.26-.828.661-.999l9.919-4.016c.272-.116.578-.116.849 0l9.934 4.016c.402.171.662.566.661 1.003l-.011 3.19c-.002.598-.488 1.081-1.086 1.081zm-3.879 8.556c0 .213.085.417.235.568.151.151.356.235.569.235.499 0 .905-.405.905-.904v-7.55c0-.5-.406-.905-.905-.905h-12.02c-.499 0-.905.405-.905.905v7.55c0 .499.406.904.905.904.213 0 .418-.084.569-.235.15-.151.235-.355.235-.568v-6.366c0-.666.54-1.206 1.206-1.206s1.206.54 1.206 1.206v6.376c0 .438.356.793.794.793s.794-.355.794-.793v-6.376c0-.666.54-1.206 1.206-1.206s1.206.54 1.206 1.206v6.376c0 .438.356.793.794.793s.794-.355.794-.793v-6.376c0-.666.54-1.206 1.206-1.206s1.206.54 1.206 1.206zm-14.042-11.372c0 .171.068.335.189.456s.285.189.456.189h16.389c.355 0 .644-.287.645-.642l.001-.309c.001-.261-.163-.494-.409-.582l-7.773-3.172c-.428-.152-.896-.152-1.324.001l-7.765 3.172c-.244.088-.408.32-.408.579zm8.836-2.743c.674 0 1.22.547 1.22 1.221 0 .673-.546 1.22-1.22 1.22s-1.22-.547-1.22-1.22c0-.674.546-1.221 1.22-1.221z" transform="matrix(5.024 0 0 5.024 62.1843 65.524)"/></svg>