<svg fill="white" clip-rule="evenodd" fill-rule="evenodd" stroke-linejoin="round" stroke-miterlimit="2" viewBox="0 0 245 210" xmlns="http://www.w3.org/2000/svg"><path d="m7.144 3.567h7.776c1.298 0 2.556.471 3.554 1.331l12.589 10.352c1.267 1.093 2 2.712 2 4.419v6.263c0 1.186-.455 2.324-1.265 3.162-.81.839-1.909 1.311-3.055 1.311h-21.599c-1.146 0-2.244-.472-3.055-1.311-.81-.838-1.265-1.976-1.265-3.162v-17.892c0-1.187.455-2.324 1.265-3.163.811-.839 1.909-1.31 3.055-1.31zm0 2.226c-.575 0-1.127.237-1.534.658-.407.422-.636.993-.636 1.589v17.892c0 .595.229 1.167.636 1.588s.959.658 1.534.658h21.599c.576 0 1.128-.237 1.535-.658s.635-.993.635-1.588v-6.263c0-1.046-.449-2.038-1.226-2.708l-12.589-10.352c-.612-.527-1.382-.816-2.178-.816zm.285 3.491c-.56 0-1.015-.448-1.015-1s.455-1 1.015-1h7.043c.56 0 1.014.448 1.014 1s-.454 1-1.014 1zm15.719-2.401c-.33-.269-.459-.726-.322-1.137.138-.412.513-.688.933-.688h6.013c.491 0 .962.202 1.309.561.347.36.542.847.542 1.356v4.712c0 .391-.216.748-.556.919s-.745.126-1.042-.116z" transform="matrix(8.10206 0 0 7.82482 -22.8811 -27.9099)"/><path d="m218.612 233.262 103.214-59.591c13.541-7.818 30.172-7.818 43.713 0l103.214 59.591c13.541 7.818 21.856 22.22 21.856 37.856v119.181c0 15.636-8.315 30.039-21.856 37.857l-103.214 59.59c-13.541 7.818-30.172 7.818-43.713 0l-103.214-59.59c-13.541-7.818-21.856-22.221-21.856-37.857v-119.181c0-15.636 8.315-30.038 21.856-37.856zm238.422 32.003c-1.013-1.755-2.477-3.249-4.281-4.29l-103.214-59.591c-1.804-1.041-3.83-1.562-5.856-1.562v130.887zm-226.703 0c-1.013 1.755-1.575 3.77-1.575 5.853v119.181c0 4.166 2.249 8.061 5.856 10.144l103.214 59.59c1.804 1.042 3.83 1.563 5.857 1.563v-130.887z" transform="matrix(.322395 0 0 .322395 11.6986 21.3965)"/></svg>