<svg height="48" viewBox="0 -960 960 960" width="48" xmlns="http://www.w3.org/2000/svg"><path fill="rgb(0, 125, 255)" d="m189-95c-26.533 0-48.833-9.033-66.9-27.1s-27.1-40.367-27.1-66.9v-582c0-26.807 9.033-49.343 27.1-67.61 18.067-18.26 40.367-27.39 66.9-27.39h582c26.807 0 49.343 9.13 67.61 27.39 18.26 18.267 27.39 40.803 27.39 67.61v582c0 26.533-9.13 48.833-27.39 66.9-18.267 18.067-40.803 27.1-67.61 27.1zm450-94h132v-582h-132zm-94 0v-582h-356v582zm94 0h132z"/><path d="m290.407-377.94c-7.692 0-14.244-2.78-19.656-8.27-5.406-5.5-8.112-11.99-8.112-19.5v-148.29c0-7.56 2.706-14.18 8.112-19.73 5.412-5.56 11.964-8.33 19.656-8.33h65.58c3.681 0 7.261.76 10.735 2.36 3.48 1.53 6.505 3.66 9.08 6.2l12.809 12.71h59.928c7.575 0 14.144 2.71 19.71 8.27 5.571 5.49 8.354 11.99 8.354 19.49v127.32c0 7.51-2.783 14-8.354 19.5-5.566 5.49-12.135 8.27-19.71 8.27z"/></svg>