<svg fill="rgb(255,205,0)" clip-rule="evenodd" fill-rule="evenodd" stroke-linejoin="round" stroke-miterlimit="2" viewBox="0 0 245 210" xmlns="http://www.w3.org/2000/svg"><path d="m7.144 3.567h7.776c1.298 0 2.556.471 3.554 1.331l12.589 10.352c1.267 1.093 2 2.712 2 4.419v6.263c0 1.186-.455 2.324-1.265 3.162-.81.839-1.909 1.311-3.055 1.311h-21.599c-1.146 0-2.244-.472-3.055-1.311-.81-.838-1.265-1.976-1.265-3.162v-17.892c0-1.187.455-2.324 1.265-3.163.811-.839 1.909-1.31 3.055-1.31zm0 2.226c-.575 0-1.127.237-1.534.658-.407.422-.636.993-.636 1.589v17.892c0 .595.229 1.167.636 1.588s.959.658 1.534.658h21.599c.576 0 1.128-.237 1.535-.658s.635-.993.635-1.588v-6.263c0-1.046-.449-2.038-1.226-2.708l-12.589-10.352c-.612-.527-1.382-.816-2.178-.816zm.285 3.491c-.56 0-1.015-.448-1.015-1s.455-1 1.015-1h7.043c.56 0 1.014.448 1.014 1s-.454 1-1.014 1zm15.719-2.401c-.33-.269-.459-.726-.322-1.137.138-.412.513-.688.933-.688h6.013c.491 0 .962.202 1.309.561.347.36.542.847.542 1.356v4.712c0 .391-.216.748-.556.919s-.745.126-1.042-.116z" transform="matrix(8.10206 0 0 7.82482 -22.8811 -27.9099)"/><path d="m328.938 232.458c.875-.055 1.75-.055 2.625 0 7.601-.11 14.874 2.843 20.234 8.203 5.359 5.359 8.312 12.632 8.203 20.233v475.99c.164 10.117-5.141 19.468-13.891 24.554-8.695 5.141-19.523 5.141-28.218 0-8.75-5.086-14.054-14.437-13.89-24.554v-475.99c-.328-14.491 10.5-26.851 24.937-28.436zm335.992 0c.875-.055 1.75-.055 2.625 0 7.602-.11 14.875 2.843 20.234 8.203 5.359 5.359 8.313 12.632 8.203 20.233v475.99c.164 10.117-5.14 19.468-13.89 24.554-8.695 5.141-19.523 5.141-28.218 0-8.75-5.086-14.055-14.437-13.891-24.554v-475.99c-.328-14.491 10.5-26.851 24.937-28.436zm-419.99 125.997c.875-.055 1.75-.055 2.625 0 7.601-.11 14.874 2.843 20.234 8.203 5.359 5.359 8.312 12.632 8.202 20.234v223.995c.165 10.117-5.14 19.468-13.89 24.554-8.695 5.14-19.523 5.14-28.218 0-8.75-5.086-14.054-14.437-13.89-24.554v-223.995c-.328-14.492 10.499-26.851 24.937-28.437zm503.988 0c.875-.055 1.75-.055 2.625 0 7.602-.11 14.875 2.843 20.234 8.203 5.36 5.359 8.313 12.632 8.203 20.234v223.995c.164 10.117-5.14 19.468-13.89 24.554-8.695 5.14-19.523 5.14-28.218 0-8.75-5.086-14.055-14.437-13.89-24.554v-223.995c-.329-14.492 10.499-26.851 24.936-28.437zm-335.992 13.999c.875-.054 1.75-.054 2.625 0 7.601-.109 14.875 2.844 20.234 8.203 5.359 5.36 8.312 12.633 8.203 20.234v195.996c.164 10.117-5.141 19.468-13.891 24.554-8.695 5.141-19.523 5.141-28.218 0-8.749-5.086-14.054-14.437-13.89-24.554v-195.996c-.328-14.492 10.5-26.851 24.937-28.437zm167.996 0c.875-.054 1.75-.054 2.625 0 7.602-.109 14.875 2.844 20.234 8.203 5.359 5.36 8.312 12.633 8.203 20.234v195.996c.164 10.117-5.14 19.468-13.89 24.554-8.695 5.141-19.523 5.141-28.218 0-8.75-5.086-14.055-14.437-13.891-24.554v-195.996c-.328-14.492 10.5-26.851 24.937-28.437zm-83.998 69.999c.875-.055 1.75-.055 2.625 0 7.601-.109 14.875 2.844 20.234 8.203s8.312 12.632 8.203 20.234v55.999c.164 10.117-5.141 19.468-13.89 24.554-8.696 5.14-19.523 5.14-28.219 0-8.749-5.086-14.054-14.437-13.89-24.554v-55.999c-.328-14.492 10.5-26.851 24.937-28.437zm332.635-8.486c7.601-.109 14.875 2.844 20.234 8.203s8.312 12.632 8.203 20.234v77.747c.164 10.117-5.141 19.468-13.89 24.554-8.696 5.14-19.523 5.14-28.219 0-8.749-5.086-14.054-14.437-13.89-24.554v-77.747c-.328-14.492 10.5-26.851 24.937-28.437.875-.055 1.75-.055 2.625 0zm-660.009-2.485c7.601-.109 14.875 2.844 20.234 8.203s8.312 12.632 8.203 20.234v77.747c.164 10.117-5.141 19.468-13.89 24.554-8.696 5.14-19.523 5.14-28.219 0-8.749-5.086-14.054-14.437-13.89-24.554v-77.747c-.328-14.492 10.5-26.851 24.937-28.437.875-.055 1.75-.055 2.625 0z" transform="matrix(.155071 0 0 .155071 44.9645 50.6571)"/></svg>