<svg fill="rgb(255,205,0)" clip-rule="evenodd" fill-rule="evenodd" stroke-linejoin="round" stroke-miterlimit="2" viewBox="0 0 245 210" xmlns="http://www.w3.org/2000/svg"><path d="m7.144 3.567h7.776c1.298 0 2.556.471 3.554 1.331l12.589 10.352c1.267 1.093 2 2.712 2 4.419v6.263c0 1.186-.455 2.324-1.265 3.162-.81.839-1.909 1.311-3.055 1.311h-21.599c-1.146 0-2.244-.472-3.055-1.311-.81-.838-1.265-1.976-1.265-3.162v-17.892c0-1.187.455-2.324 1.265-3.163.811-.839 1.909-1.31 3.055-1.31zm0 2.226c-.575 0-1.127.237-1.534.658-.407.422-.636.993-.636 1.589v17.892c0 .595.229 1.167.636 1.588s.959.658 1.534.658h21.599c.576 0 1.128-.237 1.535-.658s.635-.993.635-1.588v-6.263c0-1.046-.449-2.038-1.226-2.708l-12.589-10.352c-.612-.527-1.382-.816-2.178-.816zm.285 3.491c-.56 0-1.015-.448-1.015-1s.455-1 1.015-1h7.043c.56 0 1.014.448 1.014 1s-.454 1-1.014 1zm15.719-2.401c-.33-.269-.459-.726-.322-1.137.138-.412.513-.688.933-.688h6.013c.491 0 .962.202 1.309.561.347.36.542.847.542 1.356v4.712c0 .391-.216.748-.556.919s-.745.126-1.042-.116z" transform="matrix(8.10206 0 0 7.82482 -22.8811 -27.9099)"/><path d="m480.4-55c-59.247 0-114.62-11.027-166.12-33.08-51.5-22.06-96.56-52.4-135.18-91.02s-68.96-83.66-91.02-135.12c-22.053-51.46-33.08-106.84-33.08-166.14 0-59.307 11.027-114.737 33.08-166.29 22.06-51.547 52.347-96.483 90.86-134.81 38.513-38.32 83.523-68.657 135.03-91.01 51.513-22.353 106.95-33.53 166.31-33.53s114.857 11.15 166.49 33.45c51.627 22.307 96.577 52.577 134.85 90.81s68.57 83.19 90.89 134.87c22.327 51.687 33.49 107.22 33.49 166.6 0 59.34-11.177 114.757-33.53 166.25s-52.69 96.447-91.01 134.86c-38.327 38.413-83.27 68.71-134.83 90.89-51.567 22.18-106.977 33.27-166.23 33.27zm-.4-94c83.587 0 155.65-26.667 216.19-80s96.81-119.333 108.81-198c0 1.333.167 2.75.5 4.25s.5 2.417.5 2.75c-8 9.333-17.63 16.667-28.89 22s-23.63 8-37.11 8h-75c-24.473 0-45.427-8.747-62.86-26.24-17.427-17.493-26.14-38.523-26.14-63.09v-44.67h-178v-82.58c0-25.187 8.747-46.387 26.24-63.6s38.523-25.82 63.09-25.82h44.67v-22c0-14.227 5-30.45 15-48.67s21.667-27.663 35-28.33c-16.013-4.367-32.537-8.123-49.57-11.27-17.04-3.153-34.397-4.73-52.07-4.73-92.24 0-170.527 32.103-234.86 96.31s-96.5 142.437-96.5 234.69c0 2.667.167 5.167.5 7.5s.5 4.833.5 7.5h104c49.333 0 91.333 17.333 126 52s52 76.49 52 125.47v44.53h-133v48c26.667 14 55.277 25.167 85.83 33.5 30.547 8.333 62.27 12.5 95.17 12.5z" fill-rule="nonzero" transform="matrix(.123427 0 0 .123427 63.1931 187.322)"/></svg>