<svg fill="white" clip-rule="evenodd" fill-rule="evenodd" stroke-linejoin="round" stroke-miterlimit="2" viewBox="0 0 48 48" xmlns="http://www.w3.org/2000/svg"><path d="m22.526 10.984c-.903 0-1.779-.316-2.486-.897-1.346-1.107-3.458-2.844-3.458-2.844-.468-.401-1.055-.621-1.662-.621h-7.301c-.489 0-.958.202-1.304.56-.346.357-.54.843-.54 1.349v16.909c0 .506.194.992.54 1.349.346.358.815.56 1.304.56h20.649c.489 0 4.795-.4 4.795-.4 0 1.909-1.494 3.456-3.338 3.456h-23.563c-.886 0-1.735-.364-2.36-1.012-.626-.648-.978-1.527-.978-2.444v-19.926c0-.917.352-1.796.978-2.444.625-.648 1.474-1.012 2.36-1.012h8.758c1.298 0 2.556.471 3.554 1.331l.194.159h9.618c1.843 0 3.337 1.548 3.337 3.456v1.354c0 .617-.483 1.117-1.079 1.117-1.914 0-5.9 0-8.018 0z" transform="matrix(1.39016 0 0 1.34259 -2.6743 1.19472)"/><path d="m74.32-167.835c-25.366 0 7.998-28.898 7.998-28.898l86.824-335.267c6-20.667 17.236-37.167 33.71-49.5 16.473-12.333 35.57-18.5 57.29-18.5h574.858c30.667 0 55.667 12.667 75 38s24.333 53.333 15 84l-64 252c-10 33.333-31.958 41.781-51.624 55.447-19.667 13.667-44.234 16.737-78.9 16.737zm122.822-85.883c-1.447 5.962-.078 12.258 3.714 17.08s9.587 7.638 15.722 7.638h514.971c18.456 0 34.517-12.628 38.871-30.564 13.382-55.13 41.31-170.174 53.58-220.718 1.447-5.962.078-12.258-3.714-17.08s-9.587-7.638-15.722-7.638c-92.795 0-413.002 0-514.971 0-18.456 0-34.517 12.628-38.871 30.564-13.383 55.13-41.31 170.174-53.58 220.718z" fill-rule="nonzero" transform="matrix(.05 0 0 .05 .270585 48.7662)"/></svg>