<svg height="48" viewBox="0 -960 960 960" width="48" xmlns="http://www.w3.org/2000/svg"><path d="m480-60c-5.547 0-10.84-.5-15.88-1.5s-9.747-2.5-14.12-4.5c-96-31.333-172.5-90.533-229.5-177.6-57-87.06-85.5-180.23-85.5-279.51v-188.89c0-20.173 5.46-38.56 16.38-55.16 10.913-16.607 25.787-28.22 44.62-34.84l251-94c10.667-4 21.667-6 33-6s22.333 2 33 6l251 94c18.833 6.62 33.877 18.233 45.13 34.84 11.247 16.6 16.87 34.987 16.87 55.16v188.89c0 99.28-28.667 192.45-86 279.51-57.333 87.067-134 146.267-230 177.6-4.373 2-9.08 3.5-14.12 4.5s-10.333 1.5-15.88 1.5zm0-91c73.333-28.667 133.5-76.667 180.5-144s70.5-143.237 70.5-227.71v-189.29l-251-95-251 95.48v188.35c0 84.78 23.5 160.837 70.5 228.17s107.167 115.333 180.5 144zm124.863-475.74c6.576-6.99 14.778-10.28 24.601-10.28s18.048 3.29 24.663 10.28c6.887 6.79 10.339 14.8 10.339 24.04 0 9.27-3.492 17.27-10.481 24.47l-185.802 185.8c-9.578 9.44-20.985 14.38-34.18 14.38-13.216 0-24.766-4.94-34.672-14.38l-93.519-92.49c-6.844-6.99-10.278-15.01-10.278-24.67 0-9.45 3.434-17.68 10.278-24.67 6.866-6.76 15.415-10.46 25.693-10.87 10.274-.21 18.907 3.07 25.876 10.04l77.917 77.92z"/></svg>