<svg height="48" width="48" xmlns="http://www.w3.org/2000/svg"><path fill="rgb(55, 200, 90)" d="m33.133 31.935c-.154.428-.626.72-1.269 1.121-1.773 1.106-3.999 1.619-7.243.677 2.29-1.168 4.769-1.81 6.829-1.883.603-.022 1.167.009 1.683.085zm1.772-4.375c.868-.89 1.363-1.783 1.096-2.56 0 0-3.571-3.215-11.07-1.267s-8.931 6.267-8.931 6.267h.003c.213 1.008 1.56 1.613 3.256 1.971 5.575 4.078 11.953 3.46 14.324.368 1.425-1.858 1.536-3.573 1.322-4.779zm5.095-13.06c0 1.933-1.567 3.5-3.5 3.5s-3.5-1.567-3.5-3.5 1.567-3.5 3.5-3.5 3.5 1.567 3.5 3.5zm4 5.344v18.156h-9v6l-7-6h-24v-10.998c-.045.109-1.603 3.846-2.51 3.171-.906-.674 2.4-3.092 2.508-3.171-.112.064-3.687 2.103-3.982 1.033-.297-1.077 3.91-1.036 3.984-1.035-.074-.009-4.25-.5-3.811-1.531.441-1.029 3.745 1.48 3.811 1.53v-2.508c1.254.944 2.81 1.509 4.5 1.509 4.142 0 8.531-1.858 8.531-6s-4.389-9-8.531-9c-1.69 0-3.246.056-4.5 1v-4h31c-.571 0-1.25-1-1.25-1s1.301-.575 2.5 0c-.746-.688-1.25-2-1.25-2s2-1 4.25 1c-.589-.732 0-2 0-2s4.75 1 4.75 4v.001l-9-.001c-2.132 2.607-3.492 5.765-2.482 8.842 1.413 4.304 6.287 4.841 10.289 3.527.421-.138.816-.319 1.193-.525zm-30-1.344c0 1.933-1.567 3.5-3.5 3.5s-3.5-1.567-3.5-3.5 1.567-3.5 3.5-3.5 3.5 1.567 3.5 3.5zm33.813-.031c.444 1.04-3.811 1.531-3.811 1.531s3.366-2.57 3.811-1.531zm-1.748-1.933c1.004.562-2.063 3.464-2.063 3.464s1.058-4.026 2.063-3.464zm1.922 4.499c-.3 1.087-3.985-1.035-3.985-1.035s4.285-.052 3.985 1.035z"/></svg>