<svg height="48" width="48" xmlns="http://www.w3.org/2000/svg"><path fill="rgb(140, 220, 60)" d="m25.209 19.627c.477.424.791 1.077.791 1.873s-.314 1.449-.791 1.873-1.096.627-1.709.627-1.232-.203-1.709-.627-.791-1.077-.791-1.873.314-1.449.791-1.873 1.096-.627 1.709-.627 1.232.203 1.709.627zm-8.842-.126c.382.34.633.862.633 1.499s-.251 1.159-.633 1.499c-.381.339-.877.501-1.367.501s-.986-.162-1.367-.501c-.382-.34-.633-.862-.633-1.499s.251-1.159.633-1.499c.381-.339.877-.501 1.367-.501s.986.162 1.367.501zm10.633 9.532 1.014-.557s.791.315 1.968.832c.058-.498-.012-.952-.422-1.517-.806-1.112-2.56-1.791-2.56-1.791s.344.781.861 1.492c-1.956 1.612-5.298 2.911-11.861 1.51 5.42 2.042 9.503 2.339 11.557.509-.355-.299-.557-.478-.557-.478zm9.263 3.448c.082-.06.166-.115.254-.163l.483-.318v.67l4.692 2.403c.115-.025.235-.044.36-.055 3.259-.287 3.701 2.93 4.948 6.982 0 0-2.43-1.199-5.044-2.156-1.559-.571-2.162-2.003-1.895-3.161-1.845-.561-4.361-1.283-4.361-1.283l-.7.12c-.025-.332-.015-.612.032-.887-.798-.388-1.614-.859-2.407-1.363-2.626 2.009-5.822 2.782-9.068 2.727-4.515-.076-9.162-1.704-12.79-3.765-.735-.418-1.428-.854-2.07-1.299-1.875.336-4.195-.583-6.057-3.157-2.447-3.382-1.925-6.611.056-8.036.495-.356 1.069-.59 1.69-.689.232-.037.472-.054.716-.052 1.708.015 3.654 1.004 5.26 3.223.595.822 1.014 1.634 1.279 2.415.588.243 1.224.363 1.859.363 1.111 0 2.231-.368 3.083-1.126.292-.259.549-.565.763-.913.275.721.702 1.322 1.227 1.789.946.841 2.189 1.25 3.426 1.25s2.48-.409 3.427-1.25c.946-.842 1.574-2.122 1.574-3.749s-.628-2.909-1.574-3.751c-.308-.273-.647-.501-1.007-.684 4.376-.816 7.179-2.567 8.981-4.051 2.351-1.936 3.003-3.894 3.181-4.422.103-.305.22-.547.39-.742s.453-.366.767-.318c.315.048.513.27.631.486s.184.462.221.75v.004l.002.004c1.168 10.497-.258 17.825-3.18 22.048-.286.414-.587.802-.901 1.165.599.32 1.191.652 1.752.991zm-26.263-20.736v-2.745c1.267 4.325 4.192 7.604 8.905 7.981-.114.084-.225.174-.332.269-.389.346-.723.765-.983 1.252-.246-.545-.593-1.008-1.007-1.376-.852-.758-1.972-1.126-3.083-1.126s-2.229.368-3.081 1.126c-.155.138-.301.289-.436.453z"/></svg>