<svg height="48" viewBox="0 -960 960 960" width="48" xmlns="http://www.w3.org/2000/svg"><path fill="rgb(140, 220, 60)" d="m323.25-99q92.75 0 159.25-65.86 66.5-65.87 66.5-158.44 0-30.71-9.5-62.31t-26.5-59.39l-24-37 43-74-113-65-40.57 72h-58.69q-92.74 0-157.24 67.5-64.5 67.5-64.5 156.5 0 95.07 65.74 160.54 65.74 65.46 159.51 65.46zm543.75-473q-18.75 0-31.37-12.76-12.63-12.77-12.63-30.5 0-17.74 12.63-30.74 12.62-13 31.37-13h40q17.63 0 30.31 12.96 12.69 12.97 12.69 31 0 18.04-12.69 30.54-12.68 12.5-30.31 12.5zm-258.96-258q-18.04 0-30.54-12.63-12.5-12.62-12.5-31.37v-40q0-17.63 12.76-30.31 12.77-12.69 30.5-12.69 17.74 0 30.74 12.69 13 12.68 13 30.31v40q0 18.75-12.96 31.37-12.97 12.63-31 12.63zm167.96 47.18q-14-13.82-14-31t14-31.18l28-28q13.78-13 30.89-13t31.11 13q13 13.78 13 30.89t-13 31.11l-28 28q-13.78 14-30.89 14t-31.11-13.82zm-106.67 148.82q-7 0-12.16-1.5-5.17-1.5-11.04-5.02l-37.13-21.48q-14-7-28.52-2.83-14.53 4.18-21.48 16.83l-3 6 34 19q24.29 16.4 32.15 43.7 7.85 27.3-7.15 53.3l-23 42q21.5 37 32.75 77.5t11.25 83.5q0 130.25-91.47 220.62-91.47 90.38-221.47 90.38t-220.53-91.46q-90.53-91.47-90.53-221.5 0-130.04 91.29-220.54 91.28-90.5 222.72-90.5h1.99l23-42q15.4-25.86 43.7-32.93 28.3-7.07 54.3 6.93l32 19 4-7q26-44 74.5-56.5t93.5 11.5l37.09 22.04q9.91 4.96 15.91 14.9 6 9.94 6 23.4 0 17.53-12.59 30.1-12.59 12.56-30.08 12.56z"/></svg>