<svg height="48" viewBox="0 0 48 48" width="48" xmlns="http://www.w3.org/2000/svg"><path fill="rgb(140, 220, 60)" d="m33.152 20.193c0 1.442-1.169 2.61-2.61 2.61s-2.61-1.168-2.61-2.61c0-1.441 1.169-2.61 2.61-2.61s2.61 1.169 2.61 2.61zm-11.405 5.972 3.954-3.553 5.393 5.334 3.489.176c-1.416 3.33-6.076 7.109-10.676 7.058-5.315-.006-9.907-3.716-11.031-8.91l4.264-7.987zm-19.07-2.141c2.267 9.942 11.102 16.998 21.298 17.011 10.187-.01 19.019-7.05 21.299-16.978-2.267-9.942-11.102-16.998-21.299-17.012-10.187.01-19.018 7.051-21.298 16.979z"/></svg>