<svg height="48" viewBox="0 0 48 48" width="48" xmlns="http://www.w3.org/2000/svg"><path fill="rgb(140, 220, 60)" d="m30.101 5.907s-.043.068-.064.103c-.688 1.113-1.343 2.319-1.966 3.618-1.089 2.213-1.932 4.54-2.525 6.98-.41 1.682-.678 3.283-.805 4.803.358-.75.981-1.402 1.531-1.906 1.74-1.581 3.989-2.696 6.232-3.334 2.372-.666 5.676-.774 7.414-.451.628.161 1.197.754 1.596 1.509l1.101-.385c.476-.168.998.083 1.166.56.167.477-.084.999-.561 1.167l-1.132.396c.163.912.163 1.876-.04 2.609-.194.606-.591 1.173-1.093 1.691 2.736.327 4.798.687 4.798.687.501-.069.963.281 1.032.781.068.502-.282.963-.782 1.032 0 0-.14-.002 0 0 0 0-3.302-.561-7.053-.922-1.154.735-2.281 1.254-2.733 1.488-1.025.526-7 2.008-9.816.314-.341-.226-.644-.524-.902-.87-.233.062-.466.126-.698.192.122.998.321 1.907.597 2.729.545 1.475 1.313 2.582 2.302 3.32.991.738 2.202 1.022 3.638.851 1.386-.17 2.823-.793 4.308-1.872.211-.161 2.015-1.8 3.207-3.077.966-1.036 1.361-1.754 1.527-1.902l.053 5.132c-.259.255-.762 1.049-1.824 2.222-1.339 1.477-3.288 3.388-3.632 3.669-1.88 1.535-3.738 2.524-5.57 2.978-1.881.454-3.515.313-4.902-.425-1.386-.737-2.474-1.958-3.266-3.66-.792-1.703-1.262-3.803-1.41-6.3-.012-.317-.018-.637-.019-.962-1.026 3.122-6.516 5.902-7.635 6.175-.521.124-1.81.495-3.247.688-2.441 2.594-4.423 5.077-4.423 5.077-.316.395-.892.458-1.286.142s-.457-.893-.142-1.286c0 0 1.405-1.743 3.331-3.866-.653-.075-1.258-.242-1.756-.547-.721-.48-1.438-1.362-1.922-2.286l-.917.322c-.477.167-1-.084-1.167-.56-.166-.477.084-1 .561-1.167l.939-.328c-.1-.698-.022-1.355.293-1.806 1.104-1.379 3.676-3.457 5.907-4.502 2.116-.983 4.546-1.609 6.896-1.549.984.029 2.23.169 3.079.845.372-.529 1.066-1.311 2.2-1.9.062-.303.128-.61.198-.919.644-3.065 1.609-6.015 2.896-8.852 1.043-2.26 2.178-4.329 3.402-6.208.051-.078.153-.235.153-.235zm-10.936 19.159.914-.321c.074-.561.163-1.131.268-1.712-.844.516-1.304 1.151-1.522 1.53.12.157.234.326.34.503zm-4.614 5.452c-1.458.913-3.198 2.513-4.815 4.173.994-.209 1.844-.47 2.266-.571 1.039-.243 6.261-2.772 7.095-5.67.049-.144.085-.291.107-.44-1.61.726-3.167 1.561-4.653 2.508zm-.979-1.546c.006-.004.012-.007.018-.012l-10.151 3.56c.425.804 1.003 1.519 1.62 1.909.515.357 1.191.513 1.923.547 2.056-2.225 4.564-4.708 6.59-6.004zm17.452-6.125c2.557-.262 6.099-.01 9.068.32.6-.536 1.068-1.141 1.239-1.799.185-.607.187-1.379.05-2.153zm-.191 1.865c-1.539.209-3.07.5-4.582.872.163.167.345.313.546.43 2.525 1.649 8.13.151 9.076-.343.353-.183 1.07-.501 1.875-.932-2.514-.205-5.092-.286-6.915-.027zm8.947-8.258c-1.656-.316-4.79-.216-7.073.436-2.179.614-4.279 1.645-5.93 3.166-.751.686-1.537 1.426-1.566 2.334-.018.183-.023.371-.015.561l15.638-5.483c-.281-.584-.626-.973-1.054-1.014zm-21.85 8.215c-.615-.668-1.693-.713-2.71-.743-2.245-.072-4.507.519-6.559 1.479-2.154.997-4.591 2.969-5.638 4.291-.241.25-.291.637-.213 1.106l15.665-5.493c-.162-.234-.346-.449-.545-.64z"/></svg>