<svg height="48" viewBox="0 -960 960 960" width="48" xmlns="http://www.w3.org/2000/svg"><path fill="rgb(140, 220, 60)" d="m398-843h-266q-14.9 0-24.95-10.57-10.05-10.57-10.05-25.5t10.05-25.43q10.05-10.5 24.95-10.5h266q14.9 0 24.95 10.68 10.05 10.67 10.05 25.6 0 14.93-10.05 25.33-10.05 10.39-24.95 10.39zm-168 114h-97q-14.9 0-25.45-10.6-10.55-10.6-10.55-25.58 0-15.82 10.13-25.82 10.12-10 25.61-10h264.26q14.9 0 25.45 10.18 10.55 10.17 10.55 25.5 0 15.32-10.12 25.82-10.13 10.5-25.88 10.5h-97v160q0 14.48-9.7 24.24-9.69 9.76-24.07 9.76-15.23 0-25.73-10.92-10.5-10.93-10.5-25.08zm358 628q-11 11-25.5 10t-25.5-12q-11-11-11-25.5t11-25.5l271-270q11-10 25-10t25 10.5q11 10.5 10.5 25.5t-10.5 26zm-4-224q-24.4 0-41.2-16.9-16.8-16.91-16.8-41.7 0-24.8 16.71-41.6 16.7-16.8 41.2-16.8 24.49 0 41.79 16.87 17.3 16.88 17.3 41.63 0 24.75-17.3 41.62-17.3 16.88-41.7 16.88zm234.4 239q-24.8 0-41.6-16.73-16.8-16.74-16.8-41.27 0-24.97 16.73-41.98 16.74-17.02 41.27-17.02 24.97 0 41.98 16.9 17.02 16.91 17.02 41.7 0 24.8-16.9 41.6-16.91 16.8-41.7 16.8zm-184.27-434q-41.13 0-68.63-28.87-27.5-28.87-27.5-67 0-41.13 27.47-68.13 27.48-27 68.74-27 11.95 0 21.37 4 9.42 4 14.42 8v-169.25q0-15.08 9.84-24.91 9.83-9.84 25.16-9.84h111q15.33 0 25.16 9.77 9.84 9.77 9.84 25t-9.84 25.73q-9.83 10.5-25.51 10.5h-86.65v215.56q0 41.44-26.87 68.94t-68 27.5zm-433.13 455q-42 0-71-28.4t-29-69.6q0-21 8.5-38.72t23.5-32.28l48-48-16-17q-15-15-23-34.16-8-19.16-8-36.78 0-41.2 28.48-69.13 28.47-27.93 69.5-27.93 41.02 0 69.02 27.93 28 27.93 28 69.13 0 17.62-6 36.78t-21 34.16l-16 17 43 43 34.69-34.69q11.31-11.31 25.58-11.31 14.26 0 25.12 11 10.69 10.73 10.15 25.36-.54 14.64-10.54 24.64l-38 38 28 28q10 9.82 10 23.91t-10.66 24.09q-10.66 10-24.5 10t-23.84-10l-34-33-45.74 46.74q-16.26 16.26-35.11 23.76-18.85 7.5-39.15 7.5zm31-261 20.06-21.06q2.94-4.94 4.44-9.74 1.5-4.8 1.5-12.8 0-10.4-6.93-18.4-6.93-8-19.5-8t-19.57 8.02q-7 8.03-7 17.98 0 9 2 13.5t4.94 9.44zm-32.18 190q4.18 0 11.18-3t11-8l48-47-37-37-49 49q-3 3.64-6 9.32t-3 10.33q0 11.05 7.06 18.7 7.05 7.65 17.76 7.65z"/></svg>