<svg height="256" viewBox="0 0 33.189 32.813" width="256" xmlns="http://www.w3.org/2000/svg"><path d="m16.5625 32.8125c-2.375012 0-4.570302-.40885-6.585938-1.226562-2.015635-.817713-3.768221-1.966139-5.257812-3.445313s-2.648433-3.216136-3.476562-5.210937c-.82813-1.994802-1.242188-4.16926-1.242188-6.523438s.414058-4.528636 1.242188-6.523438c.828129-1.994801 1.986971-3.731763 3.476562-5.210937s3.242177-2.6276 5.257812-3.445313c2.015636-.817712 4.210926-1.226562 6.585938-1.226562s4.570302.40885 6.585938 1.226562c2.015635.817713 3.768221 1.966139 5.257812 3.445313s2.648433 3.216136 3.476562 5.210937c.82813 1.994802 1.242188 4.16926 1.242188 6.523438s-.414058 4.528636-1.242188 6.523438c-.828129 1.994801-1.986971 3.731763-3.476562 5.210937s-3.242177 2.6276-5.257812 3.445313c-2.015636.817712-4.210926 1.226562-6.585938 1.226562zm0-6.28125c1.562508 0 3.020827-.281247 4.375-.84375-1.489591-.864588-2.94791-1.296875-4.375-1.296875s-2.885409.432287-4.375 1.296875c1.354173.562503 2.812492.84375 4.375.84375zm0 1.09375c-1.354173 0-2.679681-.218748-3.976562-.65625-1.296882-.437502-2.466141-1.023434-3.507813-1.757812-1.041672-.734379-1.872393-1.544267-2.492187-2.429688-.619795-.885421-.929688-1.776037-.929688-2.671875 0-.552086.124999-.940103.375-1.164063.250001-.223959.583331-.335937 1-.335937.260418 0 .591144.03125.992188.09375.401043.0625.861976.145833 1.382812.25.927088.177084 2.005202.346353 3.234375.507813 1.229173.161459 2.536451.242187 3.921875.242187 1.39584 0 2.708327-.080728 3.9375-.242187 1.229173-.16146 2.302079-.330729 3.21875-.507813.520836-.104167.981769-.1875 1.382812-.25.401044-.0625.73177-.09375.992188-.09375.416669 0 .749999.111978 1 .335937.250001.22396.375.611977.375 1.164063 0 .895838-.309893 1.786454-.929688 2.671875-.619794.885421-1.450515 1.695309-2.492187 2.429688-1.041672.734378-2.210931 1.32031-3.507813 1.757812-1.296881.437502-2.622389.65625-3.976562.65625zm0-5.265625c.979172 0 2.026036-.039062 3.140625-.117187 1.114589-.078126 2.229161-.203125 3.34375-.375 1.114589-.171876 2.156245-.38802 3.125-.648438v-1.109375c0-.156251-.062499-.257812-.1875-.304687-.125001-.046876-.255208-.054688-.390625-.023438-.885421.208334-1.861974.38802-2.929688.539062-1.067713.151043-2.130203.268229-3.1875.351563-1.057296.083334-2.028641.125-2.914062.125-.875004 0-1.843745-.041666-2.90625-.125s-2.124995-.20052-3.1875-.351563c-1.062505-.151042-2.041662-.330728-2.9375-.539062-.135417-.03125-.265624-.023438-.390625.023438-.125001.046875-.1875.148436-.1875.304687v1.109375c.968755.260418 2.010411.476562 3.125.648438 1.114589.171875 2.231765.296874 3.351563.375 1.119797.078125 2.164057.117187 3.132812.117187zm-5.5-6.8125c-.593753 0-1.10156-.252602-1.523438-.757813-.421877-.50521-.632812-1.111975-.632812-1.820312s.210935-1.315102.632812-1.820312c.421878-.505211.929685-.757813 1.523438-.757813.583336 0 1.08854.252602 1.515625.757813.427085.50521.640625 1.111975.640625 1.820312 0 .69792-.210935 1.302081-.632812 1.8125-.421878.510419-.929685.765625-1.523438.765625zm5.5 15.546875c2.114594 0 4.065095-.367184 5.851562-1.101562 1.786468-.734379 3.338536-1.760411 4.65625-3.078126 1.317715-1.317714 2.343747-2.872386 3.078126-4.664062.734378-1.791676 1.101562-3.739573 1.101562-5.84375 0-2.114594-.367184-4.065095-1.101562-5.851562-.734379-1.786468-1.760411-3.338536-3.078126-4.65625-1.317714-1.317715-2.869782-2.343747-4.65625-3.078126-1.786467-.734378-3.736968-1.101562-5.851562-1.101562-2.104177 0-4.04947.367184-5.835938 1.101562-1.786467.734379-3.341139 1.760411-4.664062 3.078126-1.322923 1.317714-2.351559 2.869782-3.085938 4.65625-.734378 1.786467-1.101562 3.736968-1.101562 5.851562 0 2.104177.367184 4.052074 1.101562 5.84375.734379 1.791676 1.760411 3.346348 3.078126 4.664062 1.317714 1.317715 2.872386 2.343747 4.664062 3.078126 1.791676.734378 3.739573 1.101562 5.84375 1.101562zm5.5-15.546875c-.593753 0-1.10156-.252602-1.523438-.757813-.421877-.50521-.632812-1.111975-.632812-1.820312s.210935-1.315102.632812-1.820312c.421878-.505211.929685-.757813 1.523438-.757813.583336 0 1.08854.252602 1.515625.757813.427085.50521.640625 1.111975.640625 1.820312 0 .69792-.210935 1.302081-.632812 1.8125-.421878.510419-.929685.765625-1.523438.765625zm14.8125 11.796875"/></svg>