<svg clip-rule="evenodd" fill-rule="evenodd" stroke-linejoin="round" stroke-miterlimit="2" viewBox="0 0 250 250" xmlns="http://www.w3.org/2000/svg"><path d="m2.923 2.217h10.154c1.094 0 1.976.881 1.976 1.975v7.616c0 1.094-.882 1.975-1.976 1.975h-10.154c-1.094 0-1.976-.881-1.976-1.975v-7.616c0-1.094.882-1.975 1.976-1.975zm-.543 1.827-.02 7.764c0 .312.251.562.563.562h10.154c.312 0 .563-.25.563-.562l-.02-7.764c-.065-.239-.282-.414-.543-.414h-10.154c-.261 0-.478.175-.543.414zm2.427 6.259c-.146 0-.268-.05-.367-.149s-.149-.221-.149-.367c0-.145.049-.269.147-.37.099-.103.222-.155.369-.155h6.377c.146 0 .27.051.372.153s.153.226.153.372c0 .147-.052.27-.155.369-.101.098-.224.147-.37.147zm-.263-1.484v-.355c0-.921.258-1.672.768-2.255.488-.558 1.104-.942 1.847-1.152v-.11c0-.23.08-.426.241-.59s.359-.247.596-.247c.236 0 .435.082.599.246s.246.361.246.591v.111c.738.209 1.352.593 1.843 1.151.513.583.772 1.334.772 2.255v.355c0 .066-.054.12-.12.12h-6.672c-.066 0-.12-.054-.12-.12zm1.095-.913h4.714c-.104-.582-.365-1.039-.787-1.372-.456-.36-.982-.539-1.579-.539-.595 0-1.119.179-1.57.539-.417.332-.675.79-.778 1.372zm-.261 2.9h5.244c.261 0 .472.211.472.472 0 .262-.211.472-.472.472h-5.244c-.261 0-.472-.21-.472-.472 0-.261.211-.472.472-.472z" transform="matrix(17.3743 0 0 17.3743 -13.9941 -13.9941)"/></svg>