<svg clip-rule="evenodd" fill-rule="evenodd" stroke-linejoin="round" stroke-miterlimit="2" viewBox="0 0 250 250" xmlns="http://www.w3.org/2000/svg"><path d="m2.923 2.217h10.154c1.094 0 1.976.881 1.976 1.975v7.616c0 1.094-.882 1.975-1.976 1.975h-10.154c-1.094 0-1.976-.881-1.976-1.975v-7.616c0-1.094.882-1.975 1.976-1.975zm-.543 1.827-.02 7.764c0 .312.251.562.563.562h10.154c.312 0 .563-.25.563-.562l-.02-7.764c-.065-.239-.282-.414-.543-.414h-10.154c-.261 0-.478.175-.543.414zm2.998 6.762h5.244c.261 0 .472.211.472.472 0 .262-.211.472-.472.472h-5.244c-.261 0-.472-.21-.472-.472 0-.261.211-.472.472-.472zm.524-.571-.066.116c-.037.067-.09.109-.158.128-.067.018-.131.01-.192-.026-.067-.031-.111-.082-.132-.153-.022-.071-.013-.141.03-.209l.066-.117h-.138c-.076 0-.138-.028-.188-.085-.049-.054-.072-.114-.072-.181 0-.068.026-.129.078-.181s.115-.078.188-.078h.132l-.066-.117c-.042-.067-.053-.136-.034-.206.018-.072.062-.124.129-.156.061-.035.126-.044.195-.026.071.018.125.061.162.128l.064.113.063-.115c.033-.071.085-.113.153-.13.063-.014.127-.006.192.029.067.031.112.083.134.154.021.071.012.141-.031.208l-.066.118h.139c.068 0 .128.025.181.078.053.052.078.113.078.181 0 .067-.025.129-.076.183-.053.056-.115.083-.183.083h-.137l.071.124c.037.062.046.128.028.199-.019.073-.061.125-.124.156-.068.037-.137.042-.208.018-.069-.025-.119-.067-.149-.127zm2.099.002-.057.104c-.032.067-.084.112-.159.134-.073.021-.143.012-.209-.03-.068-.038-.109-.093-.125-.164-.015-.068-.005-.134.03-.199l.002-.003.069-.118h-.141c-.069 0-.13-.026-.183-.082-.052-.055-.076-.116-.076-.183 0-.069.026-.13.082-.183.055-.052.116-.077.183-.077h.135l-.069-.117-.002-.003c-.035-.065-.045-.131-.03-.199.016-.074.059-.128.129-.16.065-.035.132-.043.2-.025.072.018.125.062.157.13l.062.11.064-.115c.032-.071.085-.113.157-.129.065-.015.131-.006.196.03.067.036.11.088.131.155.022.068.013.137-.03.206l-.066.117h.138c.068 0 .129.026.182.078.052.053.077.114.077.182 0 .067-.024.128-.076.183-.053.056-.114.082-.183.082h-.132l.072.117.002.004c.037.067.044.135.022.205-.02.069-.061.121-.12.157-.068.043-.14.052-.217.027-.076-.024-.128-.07-.159-.135zm2.1.002-.06.111c-.037.068-.091.11-.162.129-.07.018-.139.007-.206-.035-.061-.037-.1-.09-.119-.16-.018-.071-.009-.137.028-.199l.074-.124h-.14c-.068 0-.13-.026-.183-.082-.051-.055-.076-.116-.076-.183 0-.069.027-.13.083-.183.055-.052.116-.077.183-.077h.137l-.072-.124c-.036-.06-.046-.125-.031-.195.016-.075.057-.128.121-.16.066-.035.133-.043.201-.025.071.018.125.061.162.128l.059.109.063-.115c.038-.069.093-.11.162-.126.067-.015.131-.005.192.03.065.037.108.089.129.155.022.067.015.135-.022.203l-.001.003-.07.117h.135c.075 0 .137.027.187.08.049.052.073.112.073.18 0 .066-.023.127-.072.181-.05.056-.112.084-.188.084h-.131l.071.117.002.004c.036.066.045.133.027.202-.019.07-.06.124-.126.161-.068.042-.14.051-.214.026-.071-.024-.124-.068-.159-.133zm-2.105-3.777c-.326 0-.592-.106-.798-.312s-.311-.471-.311-.798c0-.326.105-.591.311-.798.206-.208.472-.313.798-.313s.593.105.801.312c.21.207.316.473.316.799 0 .327-.106.593-.316.799-.209.206-.475.311-.801.311zm.001-.772c.101 0 .183-.03.246-.094s.093-.146.093-.245-.03-.182-.093-.245c-.062-.064-.144-.093-.243-.093-.1 0-.182.03-.247.094-.064.063-.094.144-.094.242 0 .099.03.182.094.246s.146.095.244.095zm-2.072 2.225v-.153c0-.183.047-.348.142-.495.093-.147.224-.259.391-.338l.002-.001c.299-.132.566-.224.802-.279.238-.055.482-.082.731-.082.257 0 .505.027.744.082.237.055.503.147.798.279l.001.001c.167.078.298.189.394.333.096.145.145.311.145.5v.153c0 .179-.063.332-.189.46-.127.128-.283.192-.468.192h-2.841c-.18 0-.333-.064-.461-.192-.128-.127-.191-.281-.191-.46zm.772-.12h2.601v-.01c0-.036-.011-.069-.032-.101-.022-.033-.05-.057-.085-.073l-.001-.001c-.238-.108-.442-.18-.612-.214-.171-.035-.362-.052-.574-.052-.204 0-.394.018-.568.052s-.379.106-.616.214l-.002.001c-.035.015-.062.038-.081.07-.02.033-.03.067-.03.104z" transform="matrix(17.3743 0 0 17.3743 -13.9941 -13.9941)"/></svg>