<svg clip-rule="evenodd" fill-rule="evenodd" stroke-linejoin="round" stroke-miterlimit="2" viewBox="0 0 250 250" xmlns="http://www.w3.org/2000/svg"><path d="m49.532 11.677h64.858c10.504 0 20.632 3.911 28.409 10.972l57.235 51.963c8.824 8.01 13.855 19.374 13.855 31.291v103.002c0 18.155-14.717 32.872-32.871 32.872h-131.486c-18.155 0-32.872-14.717-32.872-32.872v-164.357c0-8.718 3.464-17.079 9.628-23.244 6.165-6.164 14.526-9.627 23.244-9.627zm0 16.361c-4.379 0-8.578 1.74-11.674 4.836s-4.836 7.295-4.836 11.674v164.357c0 9.118 7.392 16.51 16.51 16.51h131.486c9.118 0 16.509-7.392 16.509-16.51v-103.002c0-7.304-3.083-14.268-8.491-19.177l-57.235-51.963c-4.766-4.327-10.973-6.725-17.411-6.725zm57.276 188.958c-1.833 0-3.45-.553-4.854-1.645-1.475-1.147-2.325-2.67-2.535-4.576l-1.551-9.823c-.814-.333-1.696-.77-2.643-1.316-.921-.53-1.738-1.052-2.453-1.564l-8.779 4.131-.084.037c-1.714.711-3.479.822-5.293.326-1.9-.519-3.36-1.679-4.357-3.506l-8.305-14.998c-1.049-1.608-1.359-3.348-.931-5.221.415-1.814 1.391-3.296 2.944-4.438l8.246-6.158c-.019-.215-.035-.44-.049-.676-.041-.699-.061-1.298-.061-1.796 0-.499.02-1.098.061-1.797.014-.232.03-.453.048-.664l-8.196-6.018c-1.686-1.162-2.693-2.68-3.062-4.527-.366-1.829-.048-3.584.985-5.258l8.368-15.051.019-.034c.901-1.548 2.254-2.651 4.084-3.279 1.819-.623 3.612-.57 5.379.158l.064.028 9.154 4.161c.658-.456 1.422-.929 2.293-1.419.912-.513 1.768-.929 2.567-1.251l1.551-9.879c.222-2.047 1.082-3.637 2.521-4.8 1.409-1.137 3.031-1.709 4.869-1.709h16.924c1.84 0 3.464.567 4.874 1.694 1.452 1.16 2.308 2.74 2.516 4.765l1.559 9.878c.774.339 1.62.742 2.536 1.21.956.488 1.802.988 2.54 1.497l8.79-4.136.088-.039c1.767-.728 3.56-.781 5.379-.158 1.819.624 3.179 1.72 4.102 3.262l.021.037 8.606 15.106.007.012c.919 1.639 1.2 3.39.838 5.253-.374 1.923-1.402 3.427-3.098 4.502l-8.261 5.782.079.648c.087.74.129 1.417.129 2.029 0 .62-.043 1.28-.131 1.981l-.075.586 8.253 5.881c1.7 1.076 2.729 2.582 3.104 4.506.363 1.867.08 3.608-.838 5.226l-8.476 15.116-.012.021c-.984 1.703-2.393 2.831-4.217 3.397-1.791.555-3.558.472-5.299-.25l-.067-.029-9.009-4.143c-.687.505-1.457 1.019-2.309 1.541-.927.568-1.826 1.022-2.693 1.364l-1.545 9.784c-.207 1.915-1.058 3.444-2.537 4.594-1.404 1.092-3.021 1.645-4.854 1.645zm8.467-68.718c9.623 0 17.436 7.813 17.436 17.437 0 9.623-7.813 17.436-17.436 17.436-9.624 0-17.437-7.813-17.437-17.436 0-9.624 7.813-17.437 17.437-17.437zm-63.756-94.653c-4.162 0-7.54-3.292-7.54-7.349 0-4.056 3.378-7.349 7.54-7.349h50.663c4.162 0 7.54 3.293 7.54 7.349 0 4.057-3.378 7.349-7.54 7.349zm126.888 38.199c2.291 2.091 3.061 5.374 1.94 8.265-1.122 2.892-3.904 4.797-7.005 4.797h-43.271c-2.491 0-4.88-.989-6.641-2.751-1.761-1.761-2.751-4.15-2.751-6.641v-39.338c0-2.977 1.758-5.673 4.481-6.875 2.724-1.201 5.9-.681 8.099 1.326z" transform="matrix(1.06475 0 0 1.06475 2.2608 -9.9327)"/></svg>