<svg clip-rule="evenodd" fill-rule="evenodd" stroke-linejoin="round" stroke-miterlimit="2" viewBox="0 0 250 250" xmlns="http://www.w3.org/2000/svg"><path d="m2.923 2.217h10.154c1.094 0 1.976.881 1.976 1.975v7.616c0 1.094-.882 1.975-1.976 1.975h-10.154c-1.094 0-1.976-.881-1.976-1.975v-7.616c0-1.094.882-1.975 1.976-1.975zm-.543 1.827-.02 7.764c0 .312.251.562.563.562h10.154c.312 0 .563-.25.563-.562l-.02-7.764c-.065-.239-.282-.414-.543-.414h-10.154c-.261 0-.478.175-.543.414zm3.934 5.519-.453.453c-.197.196-.42.24-.669.137-.251-.104-.375-.291-.375-.559v-4.374c0-.258.091-.478.27-.66.182-.183.401-.274.658-.274h4.503c.259 0 .479.091.661.273.183.182.274.402.274.661v3.415c0 .257-.092.476-.275.657-.182.18-.402.271-.66.271zm-.569-4.343v3.728l.272-.313h4.231v-3.415zm2.253 1.92c-.117 0-.21-.04-.282-.115-.072-.074-.109-.165-.109-.274v-.725c0-.116.039-.209.109-.28s.163-.11.279-.11c.117 0 .211.04.282.114.072.074.109.166.109.275v.725c0 .116-.039.209-.109.28s-.162.11-.279.11zm.002 1.092c-.127 0-.233-.045-.319-.132-.085-.087-.128-.192-.128-.316 0-.126.044-.232.129-.317.086-.086.192-.129.318-.129.128 0 .234.045.317.133.082.086.123.191.123.314s-.041.227-.123.313c-.084.088-.189.134-.317.134zm-2.622 2.574h5.244c.261 0 .472.211.472.472 0 .262-.211.472-.472.472h-5.244c-.261 0-.472-.21-.472-.472 0-.261.211-.472.472-.472z" transform="matrix(17.3743 0 0 17.3743 -13.9941 -13.9941)"/></svg>