<svg clip-rule="evenodd" fill-rule="evenodd" stroke-linejoin="round" stroke-miterlimit="2" viewBox="0 0 250 250" xmlns="http://www.w3.org/2000/svg"><path d="m256-122.639c208.977 0 378.639 169.662 378.639 378.639s-169.662 378.639-378.639 378.639-378.639-169.662-378.639-378.639 169.662-378.639 378.639-378.639zm0 73.936c-168.17 0-304.703 136.533-304.703 304.703s136.533 304.703 304.703 304.703 304.703-136.533 304.703-304.703-136.533-304.703-304.703-304.703zm1.837 311.43h-78.727l-4.177-.499-4.518-1.861-2.893-2.246-2.394-3.036-1.565-3.543-.629-3.624.486-4.89 1.539-3.937 105.247-196.232.006-.011 3.531-4.669 4.039-3.111 4.661-2.091 5.802-.903h70.398l4.938.701 3.705 1.629 3.049 2.409 2.502 3.393 1.468 3.973.332 3.918-.71 4.042-2.196 4.535-95.82 141.973h85.691l4.906.692 3.753 1.653 3.123 2.508 2.53 3.581 1.384 4.162.168 4.005-.895 4.004-2.348 4.36-123.92 168.696 16.944 13.66 2.948 3.024 2.353 4.312.835 3.582-.059 3.875-1.02 3.733-1.79 3.201-3.437 3.479-3.651 2.09-106.855 45.276-.012.005-4.849 1.281-4.026-.056-3.692-1-3.564-2.062-2.887-2.957-1.889-3.366-1.037-3.939.095-5.066 17.998-109.773 1.182-4.075 2.58-4.161 2.666-2.472 3.325-1.855 3.667-.986 3.607-.09 4.709 1.152 3.673 2.053 15.937 11.576z" transform="matrix(.306519 0 0 .306519 46.5311 46.5311)"/></svg>