<svg clip-rule="evenodd" fill-rule="evenodd" stroke-linejoin="round" stroke-miterlimit="2" viewBox="0 0 250 250" xmlns="http://www.w3.org/2000/svg"><path d="m2.923 2.217h10.154c1.094 0 1.976.881 1.976 1.975v7.616c0 1.094-.882 1.975-1.976 1.975h-10.154c-1.094 0-1.976-.881-1.976-1.975v-7.616c0-1.094.882-1.975 1.976-1.975zm-.543 1.827-.02 7.764c0 .312.251.562.563.562h10.154c.312 0 .563-.25.563-.562l-.02-7.764c-.065-.239-.282-.414-.543-.414h-10.154c-.261 0-.478.175-.543.414zm4.234 7.273-.002-.078-.001-.009c-.006-.038-.012-.076-.019-.115-.014-.076.007-.155.057-.215s.124-.094.202-.094h2.313c.077 0 .151.034.201.093s.071.137.058.214c-.007.04-.013.081-.018.121l-.001.007-.002.074h.002l.001.007c.005.041.011.081.018.121.013.077-.008.155-.058.214s-.124.093-.201.093c-.57 0-1.741 0-2.313 0-.078 0-.152-.034-.202-.094s-.071-.139-.057-.215c.007-.038.013-.077.019-.115l.001-.009zm6.371-2.192v2.159c0 .254-.206.46-.46.46-.579 0-1.563 0-2.111-.004-.106 0-.208-.045-.278-.125-.071-.08-.103-.187-.09-.293.182-1.325 1.212-2.375 2.514-2.569.108-.014.216.019.297.09.082.071.128.174.128.282zm-7.386 2.625h-2.159c-.254 0-.46-.206-.46-.46 0-.579 0-1.563.003-2.111 0-.106.046-.208.126-.278.08-.071.187-.103.292-.09 1.326.183 2.376 1.212 2.569 2.515.015.107-.018.215-.089.296-.071.082-.174.128-.282.128zm0-7.5c.108 0 .211.046.282.128.071.081.104.189.089.296-.193 1.303-1.243 2.332-2.569 2.515-.105.013-.212-.019-.292-.09-.08-.07-.126-.172-.126-.278-.003-.548-.003-1.532-.003-2.111 0-.254.206-.46.46-.46zm7.386 2.625c0 .108-.046.211-.128.282-.081.071-.189.104-.297.09-1.302-.194-2.332-1.244-2.514-2.569-.013-.106.019-.213.09-.293.07-.08.172-.125.278-.125.548-.004 1.532-.004 2.111-.004.254 0 .46.206.46.46z" transform="matrix(17.3743 0 0 17.3743 -13.9941 -13.9941)"/></svg>