<svg clip-rule="evenodd" fill-rule="evenodd" stroke-linejoin="round" stroke-miterlimit="2" viewBox="0 0 250 250" xmlns="http://www.w3.org/2000/svg"><path d="m149-227c-26.033 0-48.21-9.16-66.53-27.48-18.313-18.313-27.47-40.487-27.47-66.52v-450c0-26.307 9.157-48.717 27.47-67.23 18.32-18.513 40.497-27.77 66.53-27.77h662c26.307 0 48.717 9.257 67.23 27.77s27.77 40.923 27.77 67.23v450c0 26.033-9.257 48.207-27.77 66.52-18.513 18.32-40.923 27.48-67.23 27.48h-123.969c-5.869 0-11.16 3.535-13.406 8.957-2.246 5.423-1.004 11.664 3.145 15.813l21.23 21.23c4.667 4.86 8 10.09 10 15.69s3 11.37 3 17.31v13c0 11.333-3.833 20.833-11.5 28.5s-17.167 11.5-28.5 11.5h-382c-11.333 0-20.833-3.833-28.5-11.5s-11.5-17.167-11.5-28.5v-14c0-5.713 1-11.26 3-16.64s5.333-10.5 10-15.36l20.879-21.343c4.084-4.174 5.267-10.39 3.003-15.773-2.265-5.383-7.536-8.884-13.375-8.884zm0-121.359c0 15.11 12.249 27.359 27.359 27.359h607.282c15.11 0 27.359-12.249 27.359-27.359v-395.282c0-15.11-12.249-27.359-27.359-27.359h-607.282c-15.11 0-27.359 12.249-27.359 27.359zm331.458-12.824c-25.707 0-49.73-4.802-72.076-14.371-22.326-9.563-41.856-22.722-58.598-39.464s-29.9-36.263-39.463-58.571c-9.57-22.329-14.372-46.356-14.372-72.087s4.802-49.777 14.37-72.144c9.567-22.355 22.709-41.839 39.412-58.461 16.683-16.599 36.176-29.748 58.488-39.432 22.361-9.703 46.422-14.572 72.19-14.572 25.761 0 49.844 4.856 72.252 14.534 22.374 9.667 41.849 22.795 58.436 39.365 16.589 16.571 29.729 36.05 39.403 58.45 9.69 22.431 14.551 46.528 14.551 72.298 0 25.759-4.869 49.812-14.573 72.165-9.684 22.31-22.836 41.781-39.438 58.424-16.616 16.653-36.095 29.796-58.448 39.411-22.378 9.626-46.42 14.455-72.134 14.455zm-27.455-311.543c-24.482 4.847-46.029 16.588-64.66 35.182-18.59 18.554-30.339 40.125-35.214 64.729h5.587c7.441 0 13.883 2.611 19.313 7.869 5.48 5.304 8.23 11.8 8.23 19.495 0 7.712-2.753 14.186-8.216 19.439-5.397 5.185-11.826 7.775-19.281 7.775h-5.668c4.85 24.482 16.599 46.028 35.204 64.658 18.56 18.586 40.123 30.334 64.705 35.212v-5.583c0-7.441 2.612-13.883 7.869-19.313 5.305-5.48 11.8-8.23 19.495-8.23 7.712 0 14.187 2.753 19.44 8.216 5.185 5.397 7.774 11.826 7.774 19.281v5.668c24.482-4.85 46.029-16.599 64.659-35.204 18.585-18.56 30.333-40.123 35.211-64.705h-5.583c-7.514 0-13.914-2.658-19.201-7.967-5.263-5.28-7.926-11.738-7.926-19.397 0-7.682 2.679-14.124 7.962-19.357 5.278-5.231 11.663-7.857 19.165-7.857h5.624c-4.847-24.483-16.588-46.03-35.182-64.661-18.554-18.59-40.125-30.338-64.729-35.213v5.587c0 7.514-2.658 13.914-7.967 19.201-5.28 5.263-11.737 7.926-19.397 7.926-7.682 0-14.124-2.679-19.357-7.962-5.231-5.278-7.857-11.663-7.857-19.165zm51.081 125.194 32.15 32.151.096.097c5.022 5.202 7.474 11.248 7.474 18.09 0 6.936-2.46 12.865-7.342 17.735-5.198 5.359-11.344 7.968-18.377 7.968-7.022 0-13.081-2.504-18.145-7.543l-39.72-39.342-.136-.138c-2.568-2.675-4.359-5.521-5.46-8.482-1.081-2.909-1.621-5.909-1.621-8.999v-55.985c0-7.035 2.447-13.095 7.349-18.177 4.968-5.156 11.053-7.742 18.26-7.742 7.23 0 13.301 2.602 18.226 7.778 4.829 5.073 7.246 11.119 7.246 18.141z" transform="matrix(.268431 0 0 .268431 -3.98086 253.981)"/></svg>