<svg clip-rule="evenodd" fill-rule="evenodd" stroke-linejoin="round" stroke-miterlimit="2" viewBox="0 0 250 250" xmlns="http://www.w3.org/2000/svg"><path d="m876.878-786.296c3.781 7.207 4.884 14.502 3.608 21.825-1.306 7.51-4.819 13.919-10.626 19.178l-10.204 9.861c.212 2.074.294 4.372.205 6.897-.072 2.043-.214 3.922-.412 5.636l10.078 9.403c6.044 5.427 9.677 12.066 10.978 19.873 1.317 7.906-.007 15.158-3.812 21.773l-3.67 7.342-.551 1.004c-4.31 7.181-10.201 11.671-17.384 13.826-5.91 1.773-12.112 2.124-18.613.942l-12.213-2.443c-3.5 2.844-7.502 5.484-12.031 7.89-3.542 1.882-6.975 3.501-10.29 4.865l-1.98 12.865c-.053.343-.117.686-.195 1.023-1.829 8.111-5.917 14.805-12.23 20.091-6.598 5.517-14.007 8.184-22.146 8.184h-6.307c-7.984 0-15.273-2.495-21.814-7.601-6.855-5.354-10.969-12.362-12.3-21.041l-.021-.16-.005-.006-1.983-13.222c-3.547-1.419-7.125-3.115-10.731-5.093-4.318-2.367-8.168-4.96-11.565-7.75l-10.82 2.223c-7.088 1.85-14.042 1.445-20.866-1.205-6.981-2.71-12.464-7.285-16.421-13.756 1.969 3.083-.46-.795-.46-.795l-3.69-6.861c-3.847-6.527-5.341-13.682-4.365-21.495 1.012-8.087 4.537-14.835 10.556-20.251l10.551-9.845c-.14-1.993-.181-4.203-.097-6.633.063-1.824.164-3.492.295-5.002l-11.278-10.974c-5.286-4.646-8.706-10.764-9.892-18.544l-.009-.063-.08-.557-.011-.083-.005-.037c-.989-7.516.412-14.562 4.217-21.12l3.577-7.232c.183-.369.597-1.087.597-1.09 3.991-6.604 9.377-11.062 15.961-13.595 6.047-2.324 12.53-2.952 19.459-1.691l.072.013.106.022c3.184.669 3.257.633 0 0l12.825 2.495c3.241-2.555 6.913-5.036 11.025-7.425 3.741-2.172 7.457-3.956 11.139-5.367l1.9-12.344c1.307-8.549 5.172-15.618 11.53-21.236 6.509-5.757 14.103-8.633 22.781-8.633h6.797c8.04 0 15.365 2.684 21.886 8.292 6.126 5.266 10.115 11.968 11.863 20.169l.014.071.032.183.004-.003.047.251-.011.013.025.201.006.086.027-.032 2.085 13.144c3.372 1.365 6.879 3.061 10.51 5.104 4.284 2.41 8.071 4.917 11.371 7.495l12.301-2.451c6.369-1.274 12.96-.74 19.737 1.866 7.198 2.768 12.735 7.483 16.586 14.084l3.818 6.497.014.025s.315.576.505.924zm0 0c-.087-.167-.176-.334-.267-.501.528.972.462.855.267.501zm-151.78 161.627.037.032.256-.045-.302-.26zm37.381-71.628c9.087 0 16.79-3.222 23.102-9.683 6.362-6.514 9.539-14.345 9.539-23.492 0-8.854-3.253-16.505-9.682-22.982-6.424-6.474-14.145-9.725-23.171-9.725-9.03 0-16.774 3.295-23.253 9.836-6.492 6.554-9.777 14.284-9.777 23.222 0 8.915 3.277 16.595 9.764 23.07 6.513 6.498 14.336 9.754 23.478 9.754zm-102.479 201.297-507-204c-11.42-3.22-19.443-10.193-24.07-20.92-4.62-10.72-4.883-21.717-.79-32.99 4.1-11.28 11.433-19.613 22-25 10.573-5.393 21.527-5.757 32.86-1.09l590 234c40.667 16.667 68.833 37.123 84.5 61.37 15.667 24.253 23.5 55.13 23.5 92.63v171c0 26.033-9.257 48.207-27.77 66.52-18.513 18.32-40.923 27.48-67.23 27.48h-612c-26.033 0-48.21-9.16-66.53-27.48-18.313-18.313-27.47-40.487-27.47-66.52v-180c0-26.307 9.157-48.717 27.47-67.23 18.32-18.513 40.497-27.77 66.53-27.77zm-486 275h612v-180h-612zm229.75-60c-8.333 0-15.373-2.833-21.12-8.5-5.753-5.667-8.63-12.773-8.63-21.32 0-8.553 2.877-15.72 8.63-21.5 5.747-5.787 12.787-8.68 21.12-8.68h292.5c8.333 0 15.377 2.833 21.13 8.5 5.747 5.667 8.62 12.773 8.62 21.32 0 8.553-2.873 15.72-8.62 21.5-5.753 5.787-12.797 8.68-21.13 8.68zm-139.57 0c-8.553 0-15.72-2.833-21.5-8.5-5.787-5.667-8.68-12.773-8.68-21.32 0-8.553 2.833-15.72 8.5-21.5 5.667-5.787 12.773-8.68 21.32-8.68 8.553 0 15.72 2.833 21.5 8.5 5.787 5.667 8.68 12.773 8.68 21.32 0 8.553-2.833 15.72-8.5 21.5-5.667 5.787-12.773 8.68-21.32 8.68z" transform="matrix(.300633 0 0 .300633 -19.454 267.099)"/></svg>