<svg clip-rule="evenodd" fill-rule="evenodd" stroke-linejoin="round" stroke-miterlimit="2" viewBox="0 0 250 250" xmlns="http://www.w3.org/2000/svg"><path d="m2.923 2.217h10.154c1.094 0 1.976.881 1.976 1.975v7.616c0 1.094-.882 1.975-1.976 1.975h-10.154c-1.094 0-1.976-.881-1.976-1.975v-7.616c0-1.094.882-1.975 1.976-1.975zm-.543 1.827-.02 7.764c0 .312.251.562.563.562h10.154c.312 0 .563-.25.563-.562l-.02-7.764c-.065-.239-.282-.414-.543-.414h-10.154c-.261 0-.478.175-.543.414zm5.657 1.518c-.192 0-.355-.067-.487-.2s-.199-.296-.199-.489c0-.188.068-.35.203-.486.136-.136.298-.204.486-.204s.35.068.486.204c.136.135.204.298.204.486 0 .193-.067.356-.201.489s-.298.2-.492.2zm-2.659 5.244h5.244c.261 0 .472.211.472.472 0 .262-.211.472-.472.472h-5.244c-.261 0-.472-.21-.472-.472 0-.261.211-.472.472-.472zm1.859-.446c-.429 0-.788-.146-1.078-.436-.291-.29-.437-.65-.437-1.079 0-.256.073-.501.22-.735.144-.231.343-.412.595-.542.089-.055.184-.073.284-.054.106.02.188.075.248.168.058.09.076.186.057.286-.02.102-.075.184-.167.243-.006.004-.011.007-.017.009-.129.057-.23.143-.303.261-.073.117-.111.238-.111.362 0 .21.066.384.2.522.133.136.303.203.509.203.123 0 .243-.037.36-.108.116-.07.202-.17.259-.299.002-.005.004-.009.007-.014.058-.097.142-.157.249-.18.108-.023.208-.003.299.06.092.064.145.147.161.248.016.097-.003.189-.058.277-.13.248-.311.444-.541.589-.235.147-.48.219-.736.219zm2.472-.24c-.115 0-.211-.039-.287-.116-.077-.077-.116-.172-.116-.287v-1.006h-1.087c-.238 0-.437-.081-.598-.242-.162-.161-.243-.361-.243-.599v-1.469c0-.188.065-.345.195-.471.128-.125.283-.188.464-.188.103 0 .195.018.279.053.08.033.18.109.295.234.145.141.319.278.52.41.196.128.408.216.635.262.093.019.171.063.236.133.069.075.103.161.103.26 0 .104-.038.19-.113.258-.078.071-.167.098-.267.084h-.002c-.199-.033-.4-.096-.604-.188-.135-.061-.267-.134-.396-.221v.797h.622c.211 0 .391.074.538.222.148.147.222.327.222.539v1.139c0 .115-.039.209-.113.283s-.168.113-.283.113z" transform="matrix(17.3743 0 0 17.3743 -13.9941 -13.9941)"/></svg>