<svg clip-rule="evenodd" fill-rule="evenodd" stroke-linejoin="round" stroke-miterlimit="2" viewBox="0 0 250 250" xmlns="http://www.w3.org/2000/svg"><path d="m2.923 2.217h10.154c1.094 0 1.976.881 1.976 1.975v7.616c0 1.094-.882 1.975-1.976 1.975h-10.154c-1.094 0-1.976-.881-1.976-1.975v-7.616c0-1.094.882-1.975 1.976-1.975zm-.543 1.827-.02 7.764c0 .312.251.562.563.562h10.154c.312 0 .563-.25.563-.562l-.02-7.764c-.065-.239-.282-.414-.543-.414h-10.154c-.261 0-.478.175-.543.414zm.746 2.726c0-.302.244-.546.546-.546h2.256c.093 0 .183.023.272.071.092.049.164.123.214.223v.001l.589 1.204 1.537-2.737c.042-.104.116-.179.222-.226.089-.039.182-.058.278-.058.098 0 .188.018.271.055.096.042.171.112.223.209l.003.005.614 1.253h2.177c.302 0 .546.244.546.546s-.244.546-.546.546h-2.372c-.15 0-.286-.038-.408-.115-.122-.076-.215-.179-.278-.309l-.258-.499-1.544 2.684c-.046.106-.115.186-.205.24s-.185.081-.284.081c-.106 0-.203-.024-.29-.071-.094-.05-.166-.124-.216-.224l-.893-1.787h-1.908c-.302 0-.546-.244-.546-.546zm2.252 4.036h5.244c.261 0 .472.211.472.472 0 .262-.211.472-.472.472h-5.244c-.261 0-.472-.21-.472-.472 0-.261.211-.472.472-.472z" transform="matrix(17.3743 0 0 17.3743 -13.9941 -13.9941)"/></svg>