<?xml version="1.0" encoding="UTF-8" standalone="no"?>
<!DOCTYPE svg PUBLIC "-//W3C//DTD SVG 1.1//EN" "http://www.w3.org/Graphics/SVG/1.1/DTD/svg11.dtd">
<svg width="100%" height="100%" viewBox="0 0 245 210" version="1.1" xmlns="http://www.w3.org/2000/svg" xmlns:xlink="http://www.w3.org/1999/xlink" xml:space="preserve" xmlns:serif="http://www.serif.com/" style="fill-rule:evenodd;clip-rule:evenodd;stroke-linejoin:round;stroke-miterlimit:2;">
    <g transform="matrix(8.10206,0,0,7.82482,-22.8811,-27.9099)">
        <path d="M7.144,3.567L14.92,3.567C16.218,3.567 17.476,4.038 18.474,4.898L31.063,15.25C32.33,16.343 33.063,17.962 33.063,19.669L33.063,25.932C33.063,27.118 32.608,28.256 31.798,29.094C30.988,29.933 29.889,30.405 28.743,30.405L7.144,30.405C5.998,30.405 4.9,29.933 4.089,29.094C3.279,28.256 2.824,27.118 2.824,25.932L2.824,8.04C2.824,6.853 3.279,5.716 4.089,4.877C4.9,4.038 5.998,3.567 7.144,3.567ZM7.144,5.793C6.569,5.793 6.017,6.03 5.61,6.451C5.203,6.873 4.974,7.444 4.974,8.04L4.974,25.932C4.974,26.527 5.203,27.099 5.61,27.52C6.017,27.941 6.569,28.178 7.144,28.178L28.743,28.178C29.319,28.178 29.871,27.941 30.278,27.52C30.685,27.099 30.913,26.527 30.913,25.932L30.913,19.669C30.913,18.623 30.464,17.631 29.687,16.961L17.098,6.609C16.486,6.082 15.716,5.793 14.92,5.793L7.144,5.793ZM7.429,9.284C6.869,9.284 6.414,8.836 6.414,8.284C6.414,7.732 6.869,7.284 7.429,7.284L14.472,7.284C15.032,7.284 15.486,7.732 15.486,8.284C15.486,8.836 15.032,9.284 14.472,9.284L7.429,9.284ZM23.148,6.883C22.818,6.614 22.689,6.157 22.826,5.746C22.964,5.334 23.339,5.058 23.759,5.058L29.772,5.058C30.263,5.058 30.734,5.26 31.081,5.619C31.428,5.979 31.623,6.466 31.623,6.975L31.623,11.687C31.623,12.078 31.407,12.435 31.067,12.606C30.727,12.777 30.322,12.732 30.025,12.49L23.148,6.883Z"/>
    </g>
    <g transform="matrix(0.0547067,0,0,0.0547067,69.9816,75.4967)">
        <path d="M213.333,960C213.333,845.892 239.366,737.833 285.548,641.098C301.057,609.867 330.653,588.012 365.066,582.379C399.478,576.746 434.498,588.025 459.155,612.682C659.5,810.327 1109.67,1260.5 1308.67,1459.5C1333.78,1484.58 1345.27,1520.23 1339.54,1555.26C1333.81,1590.29 1311.56,1620.41 1279.77,1636.2C1182.17,1680.63 1074.11,1706.67 960,1706.67C548.373,1706.67 213.333,1371.63 213.333,960M1706.67,960C1706.67,1074.11 1680.63,1182.17 1634.45,1278.9C1618.94,1310.13 1589.35,1331.99 1554.93,1337.62C1520.52,1343.25 1485.5,1331.98 1460.85,1307.32C1260.5,1109.67 810.327,659.5 611.332,460.505C586.223,435.416 574.733,399.771 580.462,364.741C586.192,329.712 608.439,299.585 640.232,283.802C737.833,239.366 845.892,213.333 960,213.333C1371.63,213.333 1706.67,548.373 1706.67,960M960,0C429.76,0 0,429.76 0,960C0,1490.24 429.76,1920 960,1920C1490.24,1920 1920,1490.24 1920,960C1920,429.76 1490.24,0 960,0"/>
    </g>
</svg>
