<svg height="800" viewBox="0 0 16 16" width="800" xmlns="http://www.w3.org/2000/svg"><path d="m9.99877 2.16014c-.28721.47503-.48017 1.17721-.59598 2.00989-.04205.30233-.25772.54997-.54799.6292-.35168.09601-.90779.34377-1.36099.75004-.44182.39608-.74381.89962-.74381 1.54389 0 .42078-.33579.7619-.75.7619s-.75-.34112-.75-.7619v-3.73735c-.03453-.15851-.11733-.38321-.25145-.56094-.13553-.17958-.28773-.27309-.49855-.27309s-.36302.09351-.49855.27309c-.14994.19868-.23573.45607-.26165.61406-.06028.36738-.37317.63664-.7398.63664h-.98544c-.18033.00794-.34285.04944-.43705.1077-.03981.02461-.05288.04316-.05769.05137-.00316.0054-.01982.0339-.01982.11277 0 .15765.02869.24707.05087.29391.0213.04499.0476.0744.07979.09835.07796.058.21472.0978.36934.0978h1.5c.41421 0 .75.34111.75.76189v2.81149l.00003.00173.00022.00488c.00024.00428.00069.01017.00149.01767.00162.01516.00448.03513.00924.05947.0096.049.02581.11011.05104.17874.0507.13799.13269.29271.25498.43619.22688.26619.64184.55327 1.433.55328h3.25c.41421-.00001.75.34111.75.76189 0 .4208-.33578.7619-.75.7619v1.498l.942 2.2895c.1597.3882-.0206.8345-.40278.9968-.38217.1622-.82148-.0209-.98121-.4092l-1-2.4305c-.03829-.0931-.05801-.193-.05801-.2938v-1.6508h-1v4.0634c0 .4208-.33579.7619-.75.7619s-.75-.3411-.75-.7619v-4.1287c-.81398-.1487-1.40993-.5367-1.817-1.0143-.49271-.57812-.683-1.25851-.683-1.69615v-2.04959h-.75c-.34538 0-.83362-.07825-1.25566-.39226-.461445-.34333-.74434-.89518-.74434-1.62159 0-.69962.347977-1.1877.797494-1.46571.403746-.24969.861156-.31819 1.176136-.32945.00879-.00031.01758-.00047.02637-.00047h.44323c.08856-.21722.20898-.44357.36782-.65403.34363-.45533.89977-.869758 1.68895-.869758s1.34532.414428 1.68895.869758c.32923.43623.49343.94073.55085 1.29067.00679.0414.0102.08329.0102.12526v.91551c.41334-.32136.85424-.55513 1.24205-.71081.13635-.75531.35721-1.51154.72855-2.12573.47036-.77797 1.21203-1.36265 2.2794-1.36265.8697 0 1.5351.420693 2.0041 1.0259.4489.5792.727 1.3327.9063 2.08817.3177 1.33903.3718 2.89395.3509 4.06847.1796.08346.45.21354.7128.43135.6187.51274 1.0259 1.35394 1.0259 2.78081v4.8253c0 .4208-.3358.7619-.75.7619s-.75-.3411-.75-.7619v-4.8253c0-1.11277-.3011-1.45674-.4741-1.60008-.1149-.09522-.242-.15841-.4233-.24252-.0057-.00262-.0115-.00532-.0175-.00811-.0785-.03634-.1867-.08638-.2852-.14334-.1071-.06193-.2586-.16245-.3856-.32361-.1121-.14239-.1702-.32092-.1638-.50315.041-1.16621.0126-2.7923-.2984-4.10273-.1561-.65804-.3686-1.1699-.6265-1.50268-.2378-.30678-.4953-.44469-.8256-.44469-.4286 0-.736.19772-1.00123.63635zm1.50123 5.94889c.4142 0 .75.34111.75.76189 0 .79407.18 1.31358.3648 1.63208.0935.1611.1901.2741.2702.3484.0401.0373.0748.0637.1015.0814.0275.0182.0423.0244.042.0243.2848.1157.4715.3959.4715.7074v3.5555c0 .4208-.3358.7619-.75.7619s-.75-.3411-.75-.7619v-3.1322c-.6382-.514-1.25-1.5666-1.25-3.21688 0-.42078.3358-.76189.75-.76189z"/></svg>