<svg fill="rgb(165,135,95)" clip-rule="evenodd" fill-rule="evenodd" stroke-linejoin="round" stroke-miterlimit="2" viewBox="0 0 245 210" xmlns="http://www.w3.org/2000/svg"><path d="m7.144 3.567h7.776c1.298 0 2.556.471 3.554 1.331l12.589 10.352c1.267 1.093 2 2.712 2 4.419v6.263c0 1.186-.455 2.324-1.265 3.162-.81.839-1.909 1.311-3.055 1.311h-21.599c-1.146 0-2.244-.472-3.055-1.311-.81-.838-1.265-1.976-1.265-3.162v-17.892c0-1.187.455-2.324 1.265-3.163.811-.839 1.909-1.31 3.055-1.31zm0 2.226c-.575 0-1.127.237-1.534.658-.407.422-.636.993-.636 1.589v17.892c0 .595.229 1.167.636 1.588s.959.658 1.534.658h21.599c.576 0 1.128-.237 1.535-.658s.635-.993.635-1.588v-6.263c0-1.046-.449-2.038-1.226-2.708l-12.589-10.352c-.612-.527-1.382-.816-2.178-.816zm.285 3.491c-.56 0-1.015-.448-1.015-1s.455-1 1.015-1h7.043c.56 0 1.014.448 1.014 1s-.454 1-1.014 1zm15.719-2.401c-.33-.269-.459-.726-.322-1.137.138-.412.513-.688.933-.688h6.013c.491 0 .962.202 1.309.561.347.36.542.847.542 1.356v4.712c0 .391-.216.748-.556.919s-.745.126-1.042-.116z" transform="matrix(8.10206 0 0 7.82482 -22.8811 -27.9099)"/><path d="m182-95c-13.333 0-24.5-4.5-33.5-13.5s-13.5-20.167-13.5-33.5v-45c0-12.667 2.5-24.833 7.5-36.5s11.833-22.167 20.5-31.5l585-584c8-8.667 16.5-15.333 25.5-20s18.167-7 27.5-7 18.667 2.333 28 7 18.333 11.333 27 20l25 23c8 7.333 14.167 15.667 18.5 25s6.5 18.667 6.5 28-2 18.667-6 28-10.333 18.333-19 27l-585 585c-9.333 8.667-19.833 15.5-31.5 20.5s-23.833 7.5-36.5 7.5zm25-71h32l460-461-16-16-15-16-461 461zm476-477-15-16 31 32zm-138 548c54 0 101.833-12.667 143.5-38s62.5-61.333 62.5-108c0-24.667-8-47.333-24-68s-41-38.667-75-54c-8.667-4.667-18-6.5-28-5.5s-17.667 5.5-23 13.5-7.5 17.333-6.5 28 5.833 18.333 14.5 23c22 10 39.333 20.333 52 31s19 21.333 19 32c0 20.667-13 38.333-39 53s-58 22-96 22c-9.333 0-17.5 3.333-24.5 10s-10.5 15-10.5 25 3.5 18.5 10.5 25.5 15.167 10.5 24.5 10.5zm-200-644c0 13.333-6.167 25-18.5 35s-39.833 21.333-82.5 34c-66 22-107.333 43.167-124 63.5s-25 42.5-25 66.5c0 32 10.667 56.333 32 73s45.667 29.333 73 38c10 2.667 19.167 1.667 27.5-3s13.833-12 16.5-22 1.667-19.333-3-28-12-14.333-22-17c-18-6-31.333-12.333-40-19s-13-14-13-22c0-8.667 6.5-17.833 19.5-27.5s42.167-21.833 87.5-36.5c56-18 93.833-37.167 113.5-57.5s29.5-46.167 29.5-77.5c0-38.667-14.167-69.5-42.5-92.5s-65.833-34.5-112.5-34.5c-29.333 0-55.667 5.167-79 15.5s-41 23.167-53 38.5c-6 7.333-8.833 15.667-8.5 25s4.833 17.333 13.5 24c7.333 6 15.833 8.667 25.5 8s17.833-4.667 24.5-12c9.333-9.333 20-16.167 32-20.5s27-6.5 45-6.5c28.667 0 49.833 5.5 63.5 16.5s20.5 23.833 20.5 38.5z" fill-rule="nonzero" transform="matrix(.129446 0 0 .129446 57.7218 192.831)"/></svg>