<svg fill="rgb(165,135,95)" clip-rule="evenodd" fill-rule="evenodd" stroke-linejoin="round" stroke-miterlimit="2" viewBox="0 0 245 210" xmlns="http://www.w3.org/2000/svg"><path d="m7.144 3.567h7.776c1.298 0 2.556.471 3.554 1.331l12.589 10.352c1.267 1.093 2 2.712 2 4.419v6.263c0 1.186-.455 2.324-1.265 3.162-.81.839-1.909 1.311-3.055 1.311h-21.599c-1.146 0-2.244-.472-3.055-1.311-.81-.838-1.265-1.976-1.265-3.162v-17.892c0-1.187.455-2.324 1.265-3.163.811-.839 1.909-1.31 3.055-1.31zm0 2.226c-.575 0-1.127.237-1.534.658-.407.422-.636.993-.636 1.589v17.892c0 .595.229 1.167.636 1.588s.959.658 1.534.658h21.599c.576 0 1.128-.237 1.535-.658s.635-.993.635-1.588v-6.263c0-1.046-.449-2.038-1.226-2.708l-12.589-10.352c-.612-.527-1.382-.816-2.178-.816zm.285 3.491c-.56 0-1.015-.448-1.015-1s.455-1 1.015-1h7.043c.56 0 1.014.448 1.014 1s-.454 1-1.014 1zm15.719-2.401c-.33-.269-.459-.726-.322-1.137.138-.412.513-.688.933-.688h6.013c.491 0 .962.202 1.309.561.347.36.542.847.542 1.356v4.712c0 .391-.216.748-.556.919s-.745.126-1.042-.116z" transform="matrix(8.10206 0 0 7.82482 -22.8811 -27.9099)"/><path d="m8 3c0-.552.448-1 1-1s1 .448 1 1h1c0-.552.448-1 1-1s1 .448 1 1h1c0-.552.448-1 1-1s1 .448 1 1c1.232.006 1.867.075 2.362.327.564.288 1.023.747 1.311 1.311.266.521.327 1.197.327 2.562v10.6c0 1.365-.061 2.041-.327 2.562-.288.564-.747 1.023-1.311 1.311-.521.266-1.197.327-2.562.327h-7.6c-1.365 0-2.041-.061-2.562-.327-.564-.288-1.023-.747-1.311-1.311-.266-.521-.327-1.197-.327-2.562v-10.6c0-1.365.061-2.041.327-2.562.288-.564.747-1.023 1.311-1.311.495-.252 1.13-.321 2.362-.327zm8 1.999v.001c0 .552-.448 1-1 1s-1-.448-1-1h-1c0 .552-.448 1-1 1s-1-.448-1-1h-1c0 .552-.448 1-1 1s-1-.448-1-1v-.001c-.746-.007-1.146-.047-1.454.11-.188.096-.341.249-.437.437-.171.335-.109.778-.109 1.654v10.6c0 .876-.062 1.319.109 1.654.096.188.249.341.437.437.335.17.778.109 1.654.109h7.6c.876 0 1.319.061 1.654-.109.188-.096.341-.249.437-.437.17-.335.109-.778.109-1.654v-10.6c0-.876.061-1.319-.109-1.654-.096-.188-.249-.341-.437-.437-.308-.157-.708-.117-1.454-.11zm-3 3.001c.552 0 1 .448 1 1s-.448 1-1 1h-4c-.552 0-1-.448-1-1s.448-1 1-1zm2 4c.552 0 1 .448 1 1s-.448 1-1 1h-6c-.552 0-1-.448-1-1s.448-1 1-1z" transform="matrix(5.25184 0 0 5.25184 59.4779 64.993)"/></svg>