<?xml version="1.0" encoding="utf-8"?>
<svg xmlns="http://www.w3.org/2000/svg" width="48" height="48" version="1.1">
  <defs>
    <style type="text/css" id="current-color-scheme">.ColorScheme-Highlight { color:#000000; } .ColorScheme-Text { color:#ffffff; }</style>
  </defs>
  <path d="M 31.696 43.495 L 30.835 39.568 L 30.639 39.568 C 29.297 41.298 27.955 42.473 26.615 43.095 C 25.288 43.698 23.611 44 21.581 44 C 18.933 44 16.854 43.287 15.35 41.859 C 13.844 40.433 13.091 38.419 13.091 35.818 C 13.091 30.211 17.401 27.276 26.024 27.008 L 30.588 26.833 L 30.588 25.196 C 30.588 23.097 30.147 21.555 29.263 20.564 C 28.379 19.557 26.965 19.054 25.018 19.054 C 23.594 19.054 22.246 19.271 20.97 19.709 C 19.71 20.144 18.524 20.632 17.412 21.166 L 16.062 17.768 C 17.419 17.032 18.9 16.452 20.501 16.033 C 22.106 15.611 23.693 15.405 25.264 15.405 C 28.521 15.405 30.942 16.141 32.529 17.618 C 34.116 19.094 34.909 21.445 34.909 24.667 L 34.909 43.495 L 31.696 43.495 Z M 22.589 40.349 C 25.059 40.349 26.999 39.672 28.405 38.31 C 29.829 36.935 30.54 34.986 30.54 32.471 L 30.54 29.978 L 26.565 30.155 C 23.472 30.272 21.215 30.777 19.791 31.665 C 18.384 32.556 17.68 33.957 17.68 35.868 C 17.68 37.312 18.104 38.419 18.957 39.19 C 19.823 39.963 21.035 40.349 22.589 40.349 Z M 27.645 12.257 L 24.675 12.257 C 23.447 11.249 22.097 9.95 20.626 8.355 C 19.17 6.744 18.14 5.469 17.533 4.53 L 17.533 4 L 22.809 4 C 23.333 5.109 24.078 6.432 25.044 7.979 C 26.009 9.503 26.877 10.723 27.645 11.629 L 27.645 12.257 Z" style="font-style: normal; font-variant: normal; font-weight: normal; font-stretch: normal; font-family: &quot;Noto Sans&quot;; fill-opacity: 1;"/>
</svg>