<svg height="48" width="48" xmlns="http://www.w3.org/2000/svg">
  <defs>
    <style type="text/css" id="current-color-scheme">.ColorScheme-Highlight { color:#000000; } .ColorScheme-Text { color:#ffffff; }</style>
  </defs><path d="m18 15v-10c0-.552.448-1 1-1h10c.552 0 1 .448 1 1v10c0 .552-.448 1-1 1h-10c-.552 0-1-.448-1-1zm14 0v-10c0-.552.448-1 1-1h10c.552 0 1 .448 1 1v10c0 .552-.448 1-1 1h-10c-.552 0-1-.448-1-1zm-28 0v-10c0-.552.448-1 1-1h10c.552 0 1 .448 1 1v10c0 .552-.448 1-1 1h-10c-.552 0-1-.448-1-1zm28 14v-10c0-.552.448-1 1-1h10c.552 0 1 .448 1 1v10c0 .552-.448 1-1 1h-10c-.552 0-1-.448-1-1zm-28 0v-10c0-.552.448-1 1-1h10c.552 0 1 .448 1 1v10c0 .552-.448 1-1 1h-10c-.552 0-1-.448-1-1zm0 14v-10c0-.552.448-1 1-1h10c.552 0 1 .448 1 1v10c0 .552-.448 1-1 1h-10c-.552 0-1-.448-1-1zm28 0v-10c0-.552.448-1 1-1h10c.552 0 1 .448 1 1v10c0 .552-.448 1-1 1h-10c-.552 0-1-.448-1-1zm-14 0v-10c0-.552.448-1 1-1h10c.552 0 1 .448 1 1v10c0 .552-.448 1-1 1h-10c-.552 0-1-.448-1-1zm0-14v-10c0-.552.448-1 1-1h10c.552 0 1 .448 1 1v10c0 .552-.448 1-1 1h-10c-.552 0-1-.448-1-1z"/></svg>