<svg height="22" width="22" xmlns="http://www.w3.org/2000/svg">
  <defs>
    <style type="text/css" id="current-color-scheme">.ColorScheme-Highlight { color:#000000; } .ColorScheme-Text { color:#ffffff; }</style>
  </defs><path d="m22.103 2.754v2.356c0 .276-.224.5-.5.5h-19.528v11.959h19.528c.276 0 .5.224.5.5v1.178c0 .276-.224.5-.5.5h-21.206c-.276 0-.5-.224-.5-.5v-16.493c0-.276.224-.5.5-.5h21.206c.276 0 .5.224.5.5zm-16.473 4.592v3.535c0 .276-.224.5-.5.5h-1.178c-.276 0-.5-.224-.5-.5v-3.535c0-.276.224-.5.5-.5h1.178c.276 0 .5.224.5.5zm3.514 0v7.069c0 .276-.224.5-.5.5h-1.178c-.276 0-.5-.224-.5-.5v-7.069c0-.276.224-.5.5-.5h1.178c.276 0 .5.224.5.5zm3.554 0v3.535c0 .276-.224.5-.5.5h-1.178c-.276 0-.5-.224-.5-.5v-3.535c0-.276.224-.5.5-.5h1.178c.276 0 .5.224.5.5zm3.514 0v7.069c0 .276-.224.5-.5.5h-1.178c-.276 0-.5-.224-.5-.5v-7.069c0-.276.224-.5.5-.5h1.178c.276 0 .5.224.5.5zm3.555 0v3.535c0 .276-.224.5-.5.5h-1.178c-.276 0-.5-.224-.5-.5v-3.535c0-.276.224-.5.5-.5h1.178c.276 0 .5.224.5.5z"/></svg>