<svg height="48" viewBox="0 0 48 48" width="48" xmlns="http://www.w3.org/2000/svg">
  <defs>
    <style type="text/css" id="current-color-scheme">.ColorScheme-Highlight { color:#000000; } .ColorScheme-Text { color:#ffffff; }</style>
  </defs><path d="m43.899 23.999c0 4.708-1.597 8.777-4.133 12.1.273.575.234.71.234 1.395 0 1.177-.561 2.434-1.325 3.198-.764.763-2.021 1.324-3.199 1.324-.942 0-1.463-.214-2.095-.531-2.743 1.439-5.758 2.305-9.273 2.305-3.99 0-7.845-1.242-10.931-3.291-3.088-2.05-5.383-4.781-6.937-7.991-1.15-.071-1.723-.511-2.467-1.271-.743-.761-1.288-2.001-1.288-3.16 0-1.615.801-2.756 1.84-3.603-.019-.338-.006-.137-.006-.475 0-5.393 2.27-10.467 5.796-13.993s8.6-5.796 13.993-5.796c6.218 0 11.544 2.837 15.159 7.075.341-.085.105-.03.474-.03 1.177 0 2.434.561 3.198 1.325.764.763 1.326 2.021 1.326 3.199 0 1.282-.458 2.114-1.09 2.908.462 1.681.724 3.297.724 5.312zm-3.298-5.67.312-.21.491-.391c.619-.493.865-1.062.865-1.9 0-.105-.004-.205-.013-.3-.046-.632-.277-1.08-.731-1.534-.511-.512-1.016-.739-1.784-.739-.237 0-.403.019-.625.08l-.63.175-.309.189-.467.581c-.364.452-.491.879-.491 1.499 0 .104.004.199.012.29.017.238.064.439.162.676l.249.601.246.299.602.372c.403.25.753.334 1.255.334.027 0 .053-.001.089-.002zm-3.151 17.505-.233-.304-.698-.338c-.348-.168-.634-.222-1.043-.222-.268 0-.457.023-.701.099l-.68.212-.293.237-.396.53c-.334.447-.453.856-.453 1.446 0 .097.003.182.011.264.01.142.032.27.074.421l.196.705.252.299.503.396c.455.358.879.486 1.491.486.769 0 1.274-.227 1.785-.739.512-.511.739-1.015.739-1.783 0-.106-.004-.205-.012-.299-.023-.319-.097-.577-.256-.874zm-29.88-5.206.357-.056.632-.452c.497-.356.768-.749.896-1.358l.144-.684-.041-.396-.249-.646c-.324-.843-.903-1.32-1.817-1.437l-.779-.101-.331.093-.563.261c-.924.427-1.334 1.152-1.334 2.225 0 .104.004.204.013.299.045.62.269 1.06.709 1.512.498.509.989.782 1.741.759zm21.71-2.233.41-.532c.346-.449.469-.865.469-1.465 0-.103-.004-.197-.012-.287-.018-.248-.068-.457-.171-.701l-.258-.607-.25-.297-.599-.359c-.4-.24-.744-.322-1.236-.322-.645 0-1.076.161-1.554.535-.477.374-.76.745-.888 1.348l-.146.682.027.397.262.646c.2.492.476.784.917 1.074.443.292.823.414 1.386.414.254 0 .438-.023.68-.092l.671-.191zm-16.09-15.314c-2.825 2.825-4.537 6.519-4.523 10.808.904.373 1.533.957 2.072 1.687l12.781-1.066c.316-.672.606-1.161 1.326-1.724.718-.563 1.795-.961 2.787-.961.76 0 1.048.118 1.535.285l6.156-5.392c-.066-.311-.105-.393-.105-.939 0-.95.201-1.376.483-1.986-2.906-3.383-6.8-5.284-11.594-5.235-4.336-.044-8.069 1.673-10.918 4.523zm26.36 10.918c.003-1.286-.148-2.512-.462-3.737-.348-.05-.589-.143-.917-.259l-6.129 5.372c.07.32.113.411.113.974 0 .926-.201 1.375-.48 1.981l3.268 4.675c.181-.022.121-.035.533-.035.629 0 .735.06 1.094.147 1.972-2.643 3.006-5.527 2.98-9.118zm-15.442 15.443c2.669.014 4.724-.529 6.86-1.608-.01-.115-.015.031-.015-.34 0-.91.192-1.348.46-1.945l-3.293-4.706c-.164.018-.091.029-.487.029-.868 0-1.818-.304-2.486-.744-.671-.442-.916-.783-1.265-1.284l-12.763 1.065c-.322.674-.294.62-.749 1.157 2.586 5.212 7.535 8.456 13.738 8.376z"/></svg>