<svg clip-rule="evenodd" fill-rule="evenodd" stroke-linejoin="round" stroke-miterlimit="2" viewBox="0 0 245 210" xmlns="http://www.w3.org/2000/svg">
  <defs>
    <style type="text/css" id="current-color-scheme">.ColorScheme-Highlight { color:#000000; } .ColorScheme-Text { color:#ffffff; }</style>
  </defs><path d="m4.502 26.205c-.005-.091-.008-.182-.008-.273v-17.892c0-1.187.455-2.324 1.265-3.163.811-.839 1.909-1.31 3.055-1.31h7.776c1.298 0 2.556.471 3.554 1.331l.194.16h10.92c.54 0 1.058.222 1.439.617.382.395.596.931.596 1.49v5.9c0 .022-.002.044-.004.066.874.233 1.651.783 2.178 1.568.712 1.06.877 2.414.442 3.625l-3.183 8.869c-.693 1.931-2.473 3.212-4.463 3.212h-19.96c-1.247 0-2.416-.633-3.127-1.693-.499-.742-.729-1.628-.674-2.507zm22.046-13.198-7.78-6.398c-.612-.527-1.382-.816-2.178-.816h-7.776c-.575 0-1.127.237-1.534.658-.407.422-.636.993-.636 1.589v11.722l1.273-3.544c.693-1.931 2.472-3.211 4.462-3.211zm-17.734 15.171h19.449c1.091 0 2.067-.702 2.447-1.761l3.184-8.869c.189-.527.117-1.116-.193-1.578s-.818-.737-1.361-.737h-19.961c-1.091 0-2.067.702-2.447 1.761l-3.184 8.869c-.041.115-.07.232-.086.351.06.492.276.952.618 1.306.407.421.959.658 1.534.658zm.285-18.894c-.56 0-1.015-.448-1.015-1s.455-1 1.015-1h7.043c.56 0 1.014.448 1.014 1s-.454 1-1.014 1z" transform="matrix(7.35207 0 0 7.10049 -26.9024 -15.6067)"/></svg>