<svg fill="rgb(90,90,215)" clip-rule="evenodd" fill-rule="evenodd" stroke-linejoin="round" stroke-miterlimit="2" viewBox="0 0 245 210" xmlns="http://www.w3.org/2000/svg"><path d="m7.144 3.567h7.776c1.298 0 2.556.471 3.554 1.331l12.589 10.352c1.267 1.093 2 2.712 2 4.419v6.263c0 1.186-.455 2.324-1.265 3.162-.81.839-1.909 1.311-3.055 1.311h-21.599c-1.146 0-2.244-.472-3.055-1.311-.81-.838-1.265-1.976-1.265-3.162v-17.892c0-1.187.455-2.324 1.265-3.163.811-.839 1.909-1.31 3.055-1.31zm0 2.226c-.575 0-1.127.237-1.534.658-.407.422-.636.993-.636 1.589v17.892c0 .595.229 1.167.636 1.588s.959.658 1.534.658h21.599c.576 0 1.128-.237 1.535-.658s.635-.993.635-1.588v-6.263c0-1.046-.449-2.038-1.226-2.708l-12.589-10.352c-.612-.527-1.382-.816-2.178-.816zm.285 3.491c-.56 0-1.015-.448-1.015-1s.455-1 1.015-1h7.043c.56 0 1.014.448 1.014 1s-.454 1-1.014 1zm15.719-2.401c-.33-.269-.459-.726-.322-1.137.138-.412.513-.688.933-.688h6.013c.491 0 .962.202 1.309.561.347.36.542.847.542 1.356v4.712c0 .391-.216.748-.556.919s-.745.126-1.042-.116z" transform="matrix(8.10206 0 0 7.82482 -22.8811 -27.9099)"/><path d="m378.12-860c-12.16 0-22.053-4.06-29.68-12.18-7.627-8.113-11.44-18.113-11.44-30 0-11.88 3.813-21.653 11.44-29.32s17.52-11.5 29.68-11.5h203.76c12.167 0 22.06 3.83 29.68 11.49 7.627 7.66 11.44 17.557 11.44 29.69 0 11.88-3.813 21.82-11.44 29.82-7.62 8-17.513 12-29.68 12zm101.84 468c11.613 0 21.357-3.93 29.23-11.79s11.81-17.597 11.81-29.21v-150c0-11.613-3.927-21.35-11.78-29.21-7.847-7.86-17.573-11.79-29.18-11.79s-21.35 3.93-29.23 11.79c-7.873 7.86-11.81 17.597-11.81 29.21v150c0 11.613 3.927 21.35 11.78 29.21 7.847 7.86 17.573 11.79 29.18 11.79zm-.19 357c-53.493 0-103.553-10.113-150.18-30.34s-87.383-47.727-122.27-82.5c-34.88-34.773-62.32-75.447-82.32-122.02-20-46.567-30-96.567-30-150 0-53.427 10.03-103.457 30.09-150.09 20.06-46.64 47.53-87.463 82.41-122.47 34.887-35 75.643-62.68 122.27-83.04s96.703-30.54 150.23-30.54c46 0 89.5 7.5 130.5 22.5s77.167 36.167 108.5 63.5l31-31c8.667-8.667 18.5-13 29.5-13s20.833 4.5 29.5 13.5 13 19 13 30-4.333 20.833-13 29.5l-30 30c24.667 28 45.333 61.667 62 101s25 86 25 140c0 53.573-10.133 103.707-30.4 150.4s-47.89 87.383-82.87 122.07c-34.98 34.68-75.847 62.103-122.6 82.27-46.753 20.173-96.873 30.26-150.36 30.26zm.06-95c81.447 0 150.337-27.943 206.67-83.83s84.5-124.553 84.5-206-28.11-150.337-84.33-206.67-125.053-84.5-206.5-84.5-150.337 28.11-206.67 84.33-84.5 125.053-84.5 206.5 28.11 150.17 84.33 206.17 125.053 84 206.5 84z" fill-rule="nonzero" transform="matrix(.115679 0 0 .115679 66.9161 184.582)"/></svg>