<svg fill="rgb(90,90,215)" clip-rule="evenodd" fill-rule="evenodd" stroke-linejoin="round" stroke-miterlimit="2" viewBox="0 0 245 210" xmlns="http://www.w3.org/2000/svg"><path d="m7.144 3.567h7.776c1.298 0 2.556.471 3.554 1.331l12.589 10.352c1.267 1.093 2 2.712 2 4.419v6.263c0 1.186-.455 2.324-1.265 3.162-.81.839-1.909 1.311-3.055 1.311h-21.599c-1.146 0-2.244-.472-3.055-1.311-.81-.838-1.265-1.976-1.265-3.162v-17.892c0-1.187.455-2.324 1.265-3.163.811-.839 1.909-1.31 3.055-1.31zm0 2.226c-.575 0-1.127.237-1.534.658-.407.422-.636.993-.636 1.589v17.892c0 .595.229 1.167.636 1.588s.959.658 1.534.658h21.599c.576 0 1.128-.237 1.535-.658s.635-.993.635-1.588v-6.263c0-1.046-.449-2.038-1.226-2.708l-12.589-10.352c-.612-.527-1.382-.816-2.178-.816zm.285 3.491c-.56 0-1.015-.448-1.015-1s.455-1 1.015-1h7.043c.56 0 1.014.448 1.014 1s-.454 1-1.014 1zm15.719-2.401c-.33-.269-.459-.726-.322-1.137.138-.412.513-.688.933-.688h6.013c.491 0 .962.202 1.309.561.347.36.542.847.542 1.356v4.712c0 .391-.216.748-.556.919s-.745.126-1.042-.116z" transform="matrix(8.10206 0 0 7.82482 -22.8811 -27.9099)"/><path d="m581-140-22 54c-3.333 9.333-9 16.833-17 22.5s-17 8.5-27 8.5c-16.667 0-29.667-6.5-39-19.5s-11.333-27.5-6-43.5l150-410c4-12 11.167-21.833 21.5-29.5s22.167-11.5 35.5-11.5h45c12.667 0 24.333 3.833 35 11.5s18 17.5 22 29.5l149 408c6 16.667 4.167 31.667-5.5 45s-23.167 20-40.5 20c-10 0-19.333-3-28-9s-14.667-13.667-18-23l-21-53zm-236-224-162 162c-10 9.333-21.167 14-33.5 14s-23.167-5-32.5-15c-10-9.333-15-20.333-15-33s5-23.667 15-33l163-163c-38.667-40.667-70.167-79.5-94.5-116.5s-41.5-71.167-51.5-102.5h108c6.667 20.667 19 43.667 37 69s41 52.667 69 82c29.333-32 56-69.333 80-112s40.667-82.333 50-119h-421c-13.333 0-24.5-4.5-33.5-13.5s-13.5-20.167-13.5-33.5 4.5-24.667 13.5-34 20.167-14 33.5-14h243v-32c0-13.333 4.5-24.667 13.5-34s20.167-14 33.5-14 24.667 4.667 34 14 14 20.667 14 34v32h242c13.333 0 24.667 4.667 34 14s14 20.667 14 34-4.667 24.5-14 33.5-20.667 13.5-34 13.5h-55c-12 49.333-33.333 101-64 155s-65.667 102-105 144l66 67-37 102zm268 134h170l-85-228z" fill-rule="nonzero" transform="matrix(.123427 0 0 .123427 64.3998 187.322)"/></svg>