<svg clip-rule="evenodd" fill-rule="evenodd" stroke-linejoin="round" stroke-miterlimit="2" viewBox="0 0 250 250" xmlns="http://www.w3.org/2000/svg">
  <defs>
    <style type="text/css" id="current-color-scheme">.ColorScheme-Highlight { color:#000000; }</style>
  </defs><path class="ColorScheme-Highlight" fill="currentColor" d="m2.923 2.217h10.154c1.094 0 1.976.881 1.976 1.975v7.616c0 1.094-.882 1.975-1.976 1.975h-10.154c-1.094 0-1.976-.881-1.976-1.975v-7.616c0-1.094.882-1.975 1.976-1.975zm-.543 1.827-.02 7.764c0 .312.251.562.563.562h10.154c.312 0 .563-.25.563-.562l-.02-7.764c-.065-.239-.282-.414-.543-.414h-10.154c-.261 0-.478.175-.543.414zm2.998 6.762h5.244c.261 0 .472.211.472.472 0 .262-.211.472-.472.472h-5.244c-.261 0-.472-.21-.472-.472 0-.261.211-.472.472-.472zm3.342-.636c-.315 0-.578-.111-.791-.332-.209-.216-.318-.521-.318-.917 0-.41.175-.783.533-1.113.32-.297.695-.475 1.124-.535-.019-.15-.059-.266-.122-.347-.07-.089-.178-.128-.32-.128-.186 0-.355.062-.507.184-.169.135-.373.382-.614.737-.271.403-.527.692-.766.871-.254.189-.521.282-.8.282-.339 0-.607-.113-.806-.333-.196-.216-.298-.506-.298-.872 0-.156.059-.363.182-.62.115-.24.304-.562.568-.966l.004-.004c.212-.295.347-.494.405-.598.047-.085.074-.161.074-.229 0-.016-.007-.028-.019-.039-.02-.017-.048-.022-.083-.022-.033 0-.066.007-.097.02-.039.016-.081.041-.127.075l-.003.002c-.099.068-.204.103-.316.106-.122.003-.228-.041-.316-.134-.098-.092-.147-.205-.146-.34 0-.14.052-.25.154-.332.133-.112.272-.197.418-.255.149-.06.301-.09.456-.09.308 0 .549.097.725.286.177.188.265.411.265.668 0 .215-.047.42-.141.616-.088.183-.271.48-.551.89l-.001.001c-.232.334-.38.559-.443.678-.054.102-.082.207-.082.315 0 .054.025.102.07.145.048.046.106.069.172.069.048 0 .098-.016.153-.043.063-.031.125-.081.188-.148l.002-.003c.057-.057.119-.127.187-.212.07-.087.151-.195.243-.326l.001-.002c.36-.486.678-.823.951-1.012.286-.199.602-.299.948-.299.375 0 .683.138.923.412.213.242.346.559.394.954h.305c.131 0 .242.046.332.139.09.092.135.202.135.331 0 .13-.046.239-.136.329-.09.089-.201.134-.331.134h-.303c-.056.579-.209 1.047-.456 1.406-.278.404-.62.601-1.019.601zm.018-.948c.136 0 .243-.099.337-.276.098-.184.165-.427.202-.728-.192.044-.356.128-.491.253-.16.147-.242.323-.242.527 0 .072.015.131.052.173.032.037.081.051.142.051z" transform="matrix(17.3743 0 0 17.3743 -13.9941 -13.9941)"/></svg>