<svg clip-rule="evenodd" fill-rule="evenodd" stroke-linejoin="round" stroke-miterlimit="2" viewBox="0 0 250 250" xmlns="http://www.w3.org/2000/svg">
  <defs>
    <style type="text/css" id="current-color-scheme">.ColorScheme-Highlight { color:#000000; }</style>
  </defs><path class="ColorScheme-Highlight" fill="currentColor" d="m2.923 2.217h10.154c1.094 0 1.976.881 1.976 1.975v7.616c0 1.094-.882 1.975-1.976 1.975h-10.154c-1.094 0-1.976-.881-1.976-1.975v-7.616c0-1.094.882-1.975 1.976-1.975zm-.543 1.827-.02 7.764c0 .312.251.562.563.562h10.154c.312 0 .563-.25.563-.562l-.02-7.764c-.065-.239-.282-.414-.543-.414h-10.154c-.261 0-.478.175-.543.414zm3.126 3.047c-.12 0-.22-.042-.302-.124s-.124-.183-.124-.302v-1.913c0-.119.042-.22.124-.302s.182-.124.302-.124h1.913c.119 0 .22.042.302.124s.123.183.123.302v1.913c0 .119-.041.22-.123.302s-.183.124-.302.124zm.32-2.026v1.28h1.28v-1.28zm-.448 5.741h5.244c.261 0 .472.211.472.472 0 .262-.211.472-.472.472h-5.244c-.261 0-.472-.21-.472-.472 0-.261.211-.472.472-.472zm3.203-3.715c-.119 0-.22-.042-.302-.124s-.123-.183-.123-.302v-1.913c0-.119.041-.22.123-.302s.183-.124.302-.124h1.913c.119 0 .22.042.302.124s.124.183.124.302v1.913c0 .119-.042.22-.124.302s-.182.124-.302.124zm.586-1.914v1.015c0 .014-.003.028-.008.041h.91v-1.056zm-3.661 4.989c-.12 0-.22-.041-.302-.124-.082-.082-.124-.182-.124-.301v-1.914c0-.119.042-.219.124-.302.082-.082.182-.123.302-.123h1.913c.119 0 .22.041.302.123.082.083.123.183.123.302v1.914c0 .119-.041.219-.123.301-.082.083-.183.124-.302.124zm.432-.858h1.055v-1.055h-1.055zm3.602.858c-.125 0-.228-.042-.309-.124s-.122-.182-.122-.301v-.528h-.535c-.116 0-.215-.043-.298-.13-.08-.084-.12-.185-.12-.304s.041-.22.124-.302c.082-.081.182-.122.301-.122h.528v-.534c0-.116.043-.216.129-.298.085-.081.186-.121.304-.121.12 0 .22.041.302.124.081.082.123.182.123.301v.528h.534c.116 0 .216.043.298.129.081.085.121.185.121.298 0 .125-.042.227-.124.308-.082.082-.183.123-.302.123h-.527v.534c0 .116-.043.216-.13.298-.085.081-.184.121-.297.121z" transform="matrix(17.3743 0 0 17.3743 -13.9941 -13.9941)"/></svg>