<svg clip-rule="evenodd" fill-rule="evenodd" stroke-linejoin="round" stroke-miterlimit="2" viewBox="0 0 250 250" xmlns="http://www.w3.org/2000/svg">
  <defs>
    <style type="text/css" id="current-color-scheme">.ColorScheme-Highlight { color:#000000; }</style>
  </defs><path class="ColorScheme-Highlight" fill="currentColor" d="m149-55c-26.033 0-48.21-9.157-66.53-27.47-18.313-18.32-27.47-40.497-27.47-66.53v-462c0-26.307 9.157-48.717 27.47-67.23 18.32-18.513 40.497-27.77 66.53-27.77h216v-122c0-22.667 7.127-41.333 21.38-56 14.26-14.667 33.437-22 57.53-22h73.68c22.94 0 41.743 7.333 56.41 22s22 33.333 22 56v122h215c26.307 0 48.717 9.257 67.23 27.77s27.77 40.923 27.77 67.23v462c0 26.033-9.257 48.21-27.77 66.53-18.513 18.313-40.923 27.47-67.23 27.47zm303-581.494c0 15.737 12.757 28.494 28.494 28.494h.012c15.737 0 28.494-12.757 28.494-28.494v-154.012c0-15.737-12.757-28.494-28.494-28.494h-.012c-15.737 0-28.494 12.757-28.494 28.494zm-303 454.891c0 18.006 14.597 32.603 32.603 32.603h596.794c18.006 0 32.603-14.597 32.603-32.603v-396.794c0-18.006-14.597-32.603-32.603-32.603h-184.397v30c-2.667 20-11.833 35-27.5 45s-31.97 15-48.91 15h-74.18c-17.607 0-34.41-5.167-50.41-15.5s-25-25.167-27-44.5v-30h-184.397c-18.006 0-32.603 14.597-32.603 32.603zm54.466-52.925v-14c0-14.943 3.826-28.201 11.298-39.823 7.885-12.266 18.453-20.522 31.595-24.902 18.597-6.199 35.302-10.836 50.111-13.936 15.381-3.219 29.871-4.807 43.464-4.807 12.227 0 24.815 1.249 37.762 3.766 12.463 2.424 29.784 7.404 51.941 15.02l.163.057c12.251 4.375 22.429 12.55 30.304 24.802 7.472 11.622 11.298 24.88 11.298 39.823v14c0 7.991-6.477 14.469-14.468 14.469h-239c-7.991 0-14.468-6.478-14.468-14.469zm136.468-112.949c-19.015 0-35.17-6.676-48.481-19.987-13.31-13.311-19.987-29.465-19.987-48.481 0-19.015 6.677-35.169 19.987-48.48 13.311-13.311 29.466-19.988 48.481-19.988s35.17 6.677 48.481 19.988c13.31 13.311 19.987 29.465 19.987 48.48 0 19.016-6.677 35.17-19.987 48.481-13.311 13.311-29.466 19.987-48.481 19.987zm290.624 112.193c-16.679 0-32.264-3.121-46.762-9.329-14.479-6.203-27.144-14.738-38.002-25.596s-19.393-23.517-25.595-37.985c-6.209-14.487-9.33-30.075-9.33-46.769s3.12-32.293 9.328-46.805c6.206-14.5 14.733-27.137 25.567-37.919 10.816-10.762 23.453-19.289 37.918-25.567 14.511-6.297 30.124-9.462 46.844-9.462 16.716 0 32.341 3.157 46.881 9.436 14.509 6.269 27.136 14.784 37.892 25.529 10.757 10.746 19.281 23.377 25.555 37.902 6.287 14.555 9.446 30.189 9.446 46.91 0 16.716-3.165 32.323-9.462 46.829-6.279 14.465-14.809 27.088-25.573 37.879-10.776 10.8-23.408 19.327-37.905 25.563-14.52 6.245-30.118 9.384-46.802 9.384zm73.933-88.99c-1.71.287-3.479.432-5.307.432h-19.827c-8.463 0-15.713-3.016-21.741-9.065-6.017-6.039-9.02-13.302-9.02-21.784v-4.574h-39.82c-3.996 0-7.234-3.239-7.234-7.234v-21.83c0-8.705 3.05-16.02 9.096-21.97 6.032-5.934 13.282-8.903 21.752-8.903h4.618c.269-4.423 1.793-9.424 4.814-14.928l.041-.074c-3.709-.62-7.482-.93-11.315-.93-22.375 0-41.371 7.772-56.976 23.346-14.835 14.806-22.603 32.694-23.33 53.651h20.467c15.045 0 27.851 5.293 38.424 15.865 10.577 10.578 15.865 23.339 15.865 38.284v11.771c0 3.996-3.239 7.234-7.234 7.234l-27.925.001.001.975c5.473 2.575 11.259 4.693 17.358 6.356 7.464 2.036 15.216 3.049 23.254 3.049 20.243 0 37.707-6.426 52.369-19.342 9.894-8.716 17.119-18.825 21.67-30.33z" transform="matrix(.287988 0 0 .287988 -13.3784 263.378)"/></svg>