<svg clip-rule="evenodd" fill-rule="evenodd" stroke-linejoin="round" stroke-miterlimit="2" viewBox="0 0 250 250" xmlns="http://www.w3.org/2000/svg">
  <defs>
    <style type="text/css" id="current-color-scheme">.ColorScheme-Highlight { color:#000000; }</style>
  </defs><path class="ColorScheme-Highlight" fill="currentColor" d="m2.923 2.217h10.154c1.094 0 1.976.881 1.976 1.975v7.616c0 1.094-.882 1.975-1.976 1.975h-10.154c-1.094 0-1.976-.881-1.976-1.975v-7.616c0-1.094.882-1.975 1.976-1.975zm-.543 1.827-.02 7.764c0 .312.251.562.563.562h10.154c.312 0 .563-.25.563-.562l-.02-7.764c-.065-.239-.282-.414-.543-.414h-10.154c-.261 0-.478.175-.543.414zm5.62 6.183c-.19 0-.352-.068-.488-.204-.135-.136-.203-.299-.203-.49 0-.066.054-.12.12-.12h1.142c.066 0 .12.054.12.12 0 .193-.069.356-.205.492-.137.135-.299.202-.486.202zm-1.925-1.05c-.118 0-.218-.042-.3-.124-.081-.082-.123-.182-.123-.301s.042-.218.124-.3c.081-.08.181-.121.299-.121h.035v-1.679c0-.424.121-.809.364-1.154.227-.325.529-.539.906-.642v-.01c0-.172.06-.319.18-.44.12-.122.265-.182.437-.182.171 0 .317.06.437.182.119.121.179.268.179.44v.009c.378.1.681.313.91.638.244.347.367.734.367 1.159v1.679h.028c.117 0 .217.04.301.121.086.083.129.183.129.303 0 .119-.044.22-.129.301-.084.081-.184.121-.301.121zm.881-.846h2.081v-1.679c0-.286-.101-.53-.303-.735-.203-.204-.448-.306-.737-.306s-.535.102-.737.306c-.203.205-.304.449-.304.735zm-1.578 2.475h5.244c.261 0 .472.211.472.472 0 .262-.211.472-.472.472h-5.244c-.261 0-.472-.21-.472-.472 0-.261.211-.472.472-.472z" transform="matrix(17.3743 0 0 17.3743 -13.9941 -13.9941)"/></svg>