<svg clip-rule="evenodd" fill-rule="evenodd" stroke-linejoin="round" stroke-miterlimit="2" viewBox="0 0 250 250" xmlns="http://www.w3.org/2000/svg">
  <defs>
    <style type="text/css" id="current-color-scheme">.ColorScheme-Highlight { color:#000000; }</style>
  </defs><path class="ColorScheme-Highlight" fill="currentColor" d="m2.923 2.217h10.154c1.094 0 1.976.881 1.976 1.975v7.616c0 1.094-.882 1.975-1.976 1.975h-10.154c-1.094 0-1.976-.881-1.976-1.975v-7.616c0-1.094.882-1.975 1.976-1.975zm-.543 1.827-.02 7.764c0 .312.251.562.563.562h10.154c.312 0 .563-.25.563-.562l-.02-7.764c-.065-.239-.282-.414-.543-.414h-10.154c-.261 0-.478.175-.543.414zm4.341 3.621h.844c.23 0 .416.187.416.417v.606c.085.108.133.242.133.382v.645c0 .23-.187.416-.417.416h-2.161c-.111 0-.217-.043-.295-.121-.078-.079-.122-.184-.122-.295v-1.765c0-.111.044-.217.122-.295s.184-.122.295-.122h.803c.139 0 .273.047.382.132zm0-3.172h.844c.23 0 .416.186.416.416v.606c.085.108.133.243.133.383v.645c0 .23-.187.416-.417.416h-2.161c-.111 0-.217-.044-.295-.122s-.122-.184-.122-.294v-1.766c0-.11.044-.216.122-.294s.184-.122.295-.122h.803c.139 0 .273.046.382.132zm.857 1.307h-.001l-1.154-.917-.002-.001c-.023-.019-.052-.03-.082-.03h-.67c-.015 0-.03.006-.041.017s-.018.026-.018.042v1.498c0 .015.007.03.018.041s.026.018.041.018h1.894c.016 0 .031-.007.042-.018s.017-.026.017-.041v-.511c0-.038-.016-.073-.044-.098zm0 0c.036.03.019.016 0 0zm-2.2 5.006h5.244c.261 0 .472.211.472.472 0 .262-.211.472-.472.472h-5.244c-.261 0-.472-.21-.472-.472 0-.261.211-.472.472-.472zm3.72-.675c-.101 0-.187-.035-.258-.106s-.106-.157-.106-.258v-1.866c0-.102.035-.188.106-.26s.157-.108.258-.108h.911c.051 0 .1.011.146.032.045.02.083.047.116.079l.499.499c.033.033.059.072.079.116.021.047.032.095.032.146v1.362c0 .101-.036.187-.108.258s-.158.106-.26.106zm.1-2.13v1.666h1.216v-1.142h-.301c-.065 0-.12-.023-.165-.068-.044-.045-.067-.099-.067-.164v-.292zm-.1-1.042c-.101 0-.187-.036-.258-.107s-.106-.157-.106-.258v-1.866c0-.101.035-.188.106-.259.071-.072.157-.108.258-.108h.911c.051 0 .1.01.146.031.045.02.083.047.116.08l.499.499c.033.032.059.071.079.116.021.046.032.095.032.146v1.361c0 .101-.036.188-.108.259-.072.07-.158.106-.26.106z" transform="matrix(17.3743 0 0 17.3743 -13.9941 -13.9941)"/></svg>