<svg clip-rule="evenodd" fill-rule="evenodd" stroke-linejoin="round" stroke-miterlimit="2" viewBox="0 0 250 250" xmlns="http://www.w3.org/2000/svg">
  <defs>
    <style type="text/css" id="current-color-scheme">.ColorScheme-Highlight { color:#000000; }</style>
  </defs><path class="ColorScheme-Highlight" fill="currentColor" d="m2.923 2.217h10.154c1.094 0 1.976.881 1.976 1.975v7.616c0 1.094-.882 1.975-1.976 1.975h-10.154c-1.094 0-1.976-.881-1.976-1.975v-7.616c0-1.094.882-1.975 1.976-1.975zm-.543 1.827-.02 7.764c0 .312.251.562.563.562h10.154c.312 0 .563-.25.563-.562l-.02-7.764c-.065-.239-.282-.414-.543-.414h-10.154c-.261 0-.478.175-.543.414zm2.998 6.762h5.244c.261 0 .472.211.472.472 0 .262-.211.472-.472.472h-5.244c-.261 0-.472-.21-.472-.472 0-.261.211-.472.472-.472zm2.622-1.467-2.032.925c-.101.049-.201.057-.298.03-.088-.025-.163-.066-.226-.122-.003-.002-.006-.005-.009-.009-.057-.063-.097-.138-.12-.227-.024-.094-.014-.19.033-.29l2.222-5.066c.039-.095.101-.166.183-.214.08-.045.162-.068.247-.068s.167.023.246.068c.083.048.145.118.183.213l2.222 5.067c.048.099.058.196.034.29-.023.089-.063.164-.12.227-.003.004-.006.007-.009.009-.063.056-.138.097-.226.122-.097.027-.196.019-.297-.029zm-1.274-.447 1.225-.543c.031-.014.067-.014.098 0l1.225.543-1.274-2.969z" transform="matrix(17.3743 0 0 17.3743 -13.9941 -13.9941)"/></svg>