<svg clip-rule="evenodd" fill-rule="evenodd" stroke-linejoin="round" stroke-miterlimit="2" viewBox="0 0 250 250" xmlns="http://www.w3.org/2000/svg">
  <defs>
    <style type="text/css" id="current-color-scheme">.ColorScheme-Highlight { color:#000000; }</style>
  </defs><path class="ColorScheme-Highlight" fill="currentColor" d="m2.923 2.217h10.154c1.094 0 1.976.881 1.976 1.975v7.616c0 1.094-.882 1.975-1.976 1.975h-10.154c-1.094 0-1.976-.881-1.976-1.975v-7.616c0-1.094.882-1.975 1.976-1.975zm-.543 1.827-.02 7.764c0 .312.251.562.563.562h10.154c.312 0 .563-.25.563-.562l-.02-7.764c-.065-.239-.282-.414-.543-.414h-10.154c-.261 0-.478.175-.543.414zm5.952 4.339c-.011.075-.046.135-.106.182-.057.044-.12.066-.19.066h-.069c-.07 0-.135-.023-.192-.071-.056-.047-.092-.106-.108-.177 0-.002-.001-.004-.001-.006l-.028-.184c-.046-.016-.094-.038-.145-.065-.056-.03-.105-.063-.145-.1l-.167.033h-.001c-.058.011-.114.008-.167-.008-.06-.018-.11-.056-.146-.117-.001-.001-.002-.003-.003-.005l-.041-.082c-.033-.057-.045-.12-.033-.189.011-.067.042-.125.095-.172l.14-.131c-.005-.025-.009-.056-.01-.092-.001-.039.002-.072.008-.099l-.141-.136c-.05-.046-.081-.101-.092-.166-.012-.065-.001-.13.034-.194l.001-.002.042-.071c.033-.057.08-.097.142-.121.059-.023.117-.028.172-.017l.17.034c.039-.034.085-.066.14-.097.051-.029.1-.05.146-.066l.029-.187.001-.004c.015-.072.05-.132.104-.178.057-.048.12-.072.189-.072h.074c.075 0 .141.025.197.075.056.049.09.111.101.186l.028.179c.05.016.1.038.151.068.053.031.099.063.137.096l.176-.034c.061-.011.118-.006.171.015.056.021.102.06.136.116.001.002.002.004.003.006l.04.081c.034.057.047.119.038.184-.009.069-.038.123-.085.164l-.151.147c.003.023.006.052.007.085.001.039-.001.072-.005.099l.143.134c.052.046.083.104.091.174.009.068-.004.13-.038.186l-.041.077-.002.004c-.034.056-.082.096-.142.119s-.12.027-.182.01l-.157-.032c-.04.037-.087.07-.141.1-.05.027-.1.049-.149.066zm-.333-.758c.101 0 .188-.036.26-.108.071-.072.108-.157.108-.255 0-.099-.037-.185-.108-.257-.072-.073-.158-.109-.258-.109s-.185.036-.256.107c-.071.072-.107.157-.107.255 0 .101.035.188.105.26.07.071.155.107.256.107zm.871 1.719.002.003c.045.15.023.311-.061.443-.084.131-.22.22-.375.242l-.004.001c-.236.031-.477.034-.723.006-.375-.042-.733-.161-1.074-.358-.342-.197-.624-.447-.849-.749-.224-.301-.383-.627-.477-.979-.094-.353-.119-.715-.074-1.086.046-.372.166-.728.362-1.068.196-.339.444-.621.743-.847.299-.224.623-.384.973-.479s.711-.12 1.083-.077c.372.044.728.163 1.066.358.114.066.223.138.326.215.108.081.207.171.297.271l-.014-.014.07.083.048.099.022.106c.003.033.002.068-.002.104-.004.037-.012.072-.024.105l-.048.098c-.038.059-.089.109-.155.15l-.001.001c-.123.073-.256.099-.399.076-.126-.021-.238-.07-.336-.147l-.005-.005c-.052-.043-.105-.086-.16-.129-.047-.038-.096-.071-.146-.1-.428-.247-.877-.307-1.347-.179-.47.127-.83.407-1.078.838-.249.43-.31.882-.184 1.354.127.473.405.832.834 1.08.368.212.751.29 1.15.231.248-.037.486.113.56.353zm-3.492 1.462h5.244c.261 0 .472.211.472.472 0 .262-.211.472-.472.472h-5.244c-.261 0-.472-.21-.472-.472 0-.261.211-.472.472-.472zm4.346-4.287c.094-.162.23-.267.409-.314.178-.048.348-.025.51.068.162.094.266.231.313.409.046.177.023.346-.07.507-.092.16-.227.265-.404.315-.18.051-.35.03-.512-.063-.165-.095-.27-.234-.315-.415-.046-.179-.022-.348.069-.507z" transform="matrix(17.3743 0 0 17.3743 -13.9941 -13.9941)"/></svg>