<svg clip-rule="evenodd" fill-rule="evenodd" stroke-linejoin="round" stroke-miterlimit="2" viewBox="0 0 250 250" xmlns="http://www.w3.org/2000/svg">
  <defs>
    <style type="text/css" id="current-color-scheme">.ColorScheme-Highlight { color:#000000; }</style>
  </defs><path class="ColorScheme-Highlight" fill="currentColor" d="m2.923 2.217h10.154c1.094 0 1.976.881 1.976 1.975v7.616c0 1.094-.882 1.975-1.976 1.975h-10.154c-1.094 0-1.976-.881-1.976-1.975v-7.616c0-1.094.882-1.975 1.976-1.975zm-.543 1.827-.02 7.764c0 .312.251.562.563.562h10.154c.312 0 .563-.25.563-.562l-.02-7.764c-.065-.239-.282-.414-.543-.414h-10.154c-.261 0-.478.175-.543.414zm2.998 6.762h5.244c.261 0 .472.211.472.472 0 .262-.211.472-.472.472h-5.244c-.261 0-.472-.21-.472-.472 0-.261.211-.472.472-.472zm2.022-1.208v-4.703c0-.167.058-.307.174-.422.115-.115.255-.172.422-.172s.308.058.421.172c.114.115.171.255.171.422v4.703c0 .166-.058.306-.173.421s-.256.172-.423.172-.307-.057-.421-.172c-.113-.115-.171-.255-.171-.421zm-1.919-.943v-2.795c0-.165.057-.308.172-.426.115-.119.256-.179.424-.179.166 0 .309.059.426.178.118.119.177.261.177.427v2.795c0 .166-.06.307-.18.422-.119.114-.261.172-.427.172-.168 0-.308-.058-.422-.173-.113-.115-.17-.255-.17-.421zm3.839 0v-2.795c0-.165.058-.308.173-.426.114-.119.259-.179.434-.179.168 0 .308.06.422.179s.17.261.17.426v2.795c0 .166-.058.307-.173.421-.115.115-.256.173-.423.173-.175 0-.319-.058-.432-.173-.114-.115-.171-.255-.171-.421zm-5.759-1.238v-.33c0-.166.058-.307.173-.422.115-.114.256-.172.423-.172s.307.058.421.173c.114.114.171.255.171.421v.33c0 .166-.058.306-.173.421s-.256.172-.423.172-.308-.057-.421-.172c-.114-.115-.171-.255-.171-.421zm7.679 0v-.33c0-.166.058-.307.173-.422.115-.114.256-.172.423-.172.166 0 .308.058.426.172.118.115.177.256.177.422v.33c0 .166-.06.307-.179.422-.119.114-.262.171-.428.171-.167 0-.308-.057-.421-.172-.114-.115-.171-.255-.171-.421z" transform="matrix(17.3743 0 0 17.3743 -13.9941 -13.9941)"/></svg>