<svg clip-rule="evenodd" fill-rule="evenodd" stroke-linejoin="round" stroke-miterlimit="2" viewBox="0 0 250 250" xmlns="http://www.w3.org/2000/svg">
  <defs>
    <style type="text/css" id="current-color-scheme">.ColorScheme-Highlight { color:#000000; }</style>
  </defs><path class="ColorScheme-Highlight" fill="currentColor" d="m149-227c-26.033 0-48.21-9.16-66.53-27.48-18.313-18.313-27.47-40.487-27.47-66.52v-450c0-26.307 9.157-48.717 27.47-67.23 18.32-18.513 40.497-27.77 66.53-27.77h662c26.307 0 48.717 9.257 67.23 27.77s27.77 40.923 27.77 67.23v450c0 26.033-9.257 48.207-27.77 66.52-18.513 18.32-40.923 27.48-67.23 27.48h-123.969c-5.869 0-11.16 3.535-13.406 8.957-2.246 5.423-1.004 11.664 3.145 15.813l21.23 21.23c4.667 4.86 8 10.09 10 15.69s3 11.37 3 17.31v13c0 11.333-3.833 20.833-11.5 28.5s-17.167 11.5-28.5 11.5h-382c-11.333 0-20.833-3.833-28.5-11.5s-11.5-17.167-11.5-28.5v-14c0-5.713 1-11.26 3-16.64s5.333-10.5 10-15.36l20.879-21.343c4.084-4.174 5.267-10.39 3.003-15.773-2.265-5.383-7.536-8.884-13.375-8.884zm0-121.359c0 15.11 12.249 27.359 27.359 27.359h607.282c15.11 0 27.359-12.249 27.359-27.359v-395.282c0-15.11-12.249-27.359-27.359-27.359h-607.282c-15.11 0-27.359 12.249-27.359 27.359zm391.92-385.575c6.532 0 13.541.851 21.022 2.598 7.428 1.735 14.858 4.489 22.277 8.288l-.539-.258 4.144 2.546 3.569 4.231 1.83 5.365-.073 5.088c-.651 3.976-2.131 7.846-4.52 11.579-2.989 4.671-6.302 7.352-9.291 8.711l-3.134 1.044-3.028.392c-2.255.095-4.909-.224-7.927-1.177-.626-.198-1.233-.452-1.812-.759-3.9-2.064-7.871-3.566-11.922-4.484-4.047-.916-7.575-1.417-10.596-1.417-16.034 0-29.768 5.791-41.22 17.328-11.499 11.585-17.233 25.624-17.233 42.103 0 5.378.674 10.558 2.037 15.537.206.753.427 1.5.661 2.241 1.252 4.014 4.588 7.028 8.707 7.869 8.741 1.794 24.879 5.089 35.789 7.316 7.434 1.517 15.098 1.515 22.531-.006l34.066-6.973c5.268-1.077 9.469-5.049 10.844-10.247 1.377-5.21 2.061-10.573 2.061-16.082 0-3.307-.428-6.894-1.242-10.767-.779-3.704-2.128-7.333-4.02-10.894-.23-.433-.43-.881-.6-1.341-1.702-4.621-2.038-9.423-.944-14.409.625-2.845 1.71-5.356 3.189-7.558l2.672-3.227c.961-.948 2.027-1.819 3.203-2.605l.186-.122 3.727-1.899 4.129-1.116 4.26-.212 4.105.637 4.205 1.581 3.865 2.662 3.056 3.566 2.016 4.022-.414-.973c3.307 6.839 5.809 13.717 7.52 20.627 1.736 7.008 2.672 13.815 2.831 20.418l.002.087c.157 9.78-.934 19.12-3.248 28.021-.715 2.75-1.955 6.157-3.331 9.559-3.448 9.558-11.013 17.058-20.601 20.424-16.316 5.997-43.192 15.326-57.158 17.625-9.245 1.789-18.736 1.899-28.02.325-12.305-1.997-36.708-10.046-54.195-16.141-14.515-4.742-25.696-16.429-29.793-31.139l-.074.021c-2.365-8.492-3.559-17.413-3.559-26.766 0-13.866 2.628-26.898 7.844-39.103 5.188-12.143 12.306-22.812 21.341-32.016 9.044-9.213 19.643-16.53 31.812-21.933 12.275-5.451 25.271-8.187 38.993-8.187zm-134.376 243.252-115.21 115.21c-6.541 6.759-14.365 10.139-23.472 10.139s-17.072-3.331-23.894-9.993c-6.519-6.17-9.932-13.728-10.239-22.673-.307-8.946 3.27-17.149 10.73-24.609l131.67-129.826c8.602-8.603 18.824-13.058 30.667-13.365 11.842-.307 22.203 3.841 31.085 12.443l103.229 103.228 128.113-128.113c6.8-6.145 14.737-9.217 23.81-9.217 9.074 0 17.233 3.023 24.478 9.071 6.519 6.662 9.778 14.534 9.778 23.618 0 9.083-3.379 16.928-10.138 23.533l-144.704 144.704c-8.603 8.602-18.936 12.904-31.002 12.904s-22.623-4.302-31.673-12.904zm151.254-179.996 4.3-2.028 3.764-.364 2.413.412 2.182.854 3.29 2.408 2.408 3.29.854 2.182.412 2.413-.365 3.764-2.028 4.299.196-.29-21.373 32.833-.095.142c-3.447 5.089-8.566 8.023-15.633 8.269-6.756.235-11.778-1.884-15.365-5.499l-.016-.017c-3.635-3.599-5.758-8.676-5.443-15.543.324-7.049 3.227-12.115 8.083-15.514l.175-.119z" transform="matrix(.268431 0 0 .268431 -3.98086 253.981)"/></svg>