<svg clip-rule="evenodd" fill-rule="evenodd" stroke-linejoin="round" stroke-miterlimit="2" viewBox="0 0 250 250" xmlns="http://www.w3.org/2000/svg">
  <defs>
    <style type="text/css" id="current-color-scheme">.ColorScheme-Highlight { color:#000000; }</style>
  </defs><path class="ColorScheme-Highlight" fill="currentColor" d="m2.923 2.217h10.154c1.094 0 1.976.881 1.976 1.975v7.616c0 1.094-.882 1.975-1.976 1.975h-10.154c-1.094 0-1.976-.881-1.976-1.975v-7.616c0-1.094.882-1.975 1.976-1.975zm-.543 1.827-.02 7.764c0 .312.251.562.563.562h10.154c.312 0 .563-.25.563-.562l-.02-7.764c-.065-.239-.282-.414-.543-.414h-10.154c-.261 0-.478.175-.543.414zm2.998 6.762h5.244c.261 0 .472.211.472.472 0 .262-.211.472-.472.472h-5.244c-.261 0-.472-.21-.472-.472 0-.261.211-.472.472-.472zm.829-2.67c-.089 0-.164-.031-.225-.092-.06-.061-.091-.135-.091-.225s.032-.165.092-.224c.061-.06.135-.09.224-.09h.914c.089 0 .164.031.225.092.06.06.091.135.091.224 0 .091-.032.165-.092.225-.061.059-.135.09-.224.09zm4.308-1.68c0-.302-.083-.577-.25-.824-.169-.25-.389-.442-.661-.576-.101-.048-.173-.121-.217-.219-.046-.1-.051-.204-.014-.311l.001-.004c.042-.11.115-.19.22-.24.109-.054.22-.055.333-.005l.003.001c.428.205.775.499 1.042.882.269.386.403.818.403 1.296s-.134.911-.403 1.299c-.266.385-.614.678-1.042.878-.114.057-.227.056-.339-.001-.103-.053-.176-.134-.217-.242l-.001-.003c-.037-.102-.032-.204.014-.306.043-.096.114-.171.213-.223l.003-.002c.272-.134.493-.326.662-.576.167-.248.25-.522.25-.824zm-.267 0c0 .221-.053.426-.158.616-.106.191-.256.344-.448.459l-.003.002c-.106.06-.212.064-.318.016-.116-.053-.174-.144-.174-.271v-1.691c0-.123.056-.213.169-.267.104-.051.211-.046.319.021.198.116.35.275.456.478.105.2.157.413.157.637zm-3.466.812c-.093 0-.17-.032-.234-.096-.063-.063-.095-.141-.095-.233v-.999c0-.092.032-.17.095-.233.064-.064.141-.096.234-.096h.72l.771-.771c.035-.04.077-.069.123-.086.043-.016.086-.024.129-.024.096 0 .178.033.248.098.071.067.107.15.107.25v2.723c0 .1-.036.183-.107.25-.07.065-.152.098-.248.098-.046 0-.089-.008-.131-.024-.045-.017-.086-.046-.121-.086l-.771-.771zm-1.424 2.983c-.206 0-.38-.071-.521-.212s-.212-.315-.212-.521v-4.44c0-.206.07-.38.211-.524s.315-.216.522-.216h1.639c.12 0 .221.043.304.129.082.085.123.187.123.306 0 .12-.042.22-.125.302-.082.082-.183.123-.302.123h-1.519v4.2h2.783v-.292c0-.119.042-.22.125-.302.082-.083.183-.124.303-.124s.221.042.303.124c.081.082.123.183.123.302v.412c0 .207-.073.381-.217.522-.143.141-.316.211-.517.211zm.849-1.331c-.089 0-.164-.032-.225-.093-.06-.06-.091-.135-.091-.224 0-.091.032-.165.092-.225.061-.059.135-.09.224-.09h1.436c.09 0 .164.031.225.092.06.061.091.135.091.225s-.031.165-.092.225c-.06.059-.135.09-.224.09z" transform="matrix(17.3743 0 0 17.3743 -13.9941 -13.9941)"/></svg>