<svg clip-rule="evenodd" fill-rule="evenodd" stroke-linejoin="round" stroke-miterlimit="2" viewBox="0 0 250 250" xmlns="http://www.w3.org/2000/svg">
  <defs>
    <style type="text/css" id="current-color-scheme">.ColorScheme-Highlight { color:#000000; }</style>
  </defs><path class="ColorScheme-Highlight" fill="currentColor" d="m2.923 2.217h10.154c1.094 0 1.976.881 1.976 1.975v7.616c0 1.094-.882 1.975-1.976 1.975h-10.154c-1.094 0-1.976-.881-1.976-1.975v-7.616c0-1.094.882-1.975 1.976-1.975zm-.543 1.827-.02 7.764c0 .312.251.562.563.562h10.154c.312 0 .563-.25.563-.562l-.02-7.764c-.065-.239-.282-.414-.543-.414h-10.154c-.261 0-.478.175-.543.414zm4.746 6.207c-.289 0-.563-.052-.822-.158-.26-.105-.49-.26-.691-.466-.201-.196-.355-.423-.46-.681-.105-.257-.158-.532-.158-.826 0-.416.104-.793.312-1.131.202-.327.466-.569.793-.728.092-.187.219-.361.379-.521.162-.162.343-.295.543-.399.163-.328.41-.592.743-.792.343-.205.715-.308 1.116-.308.289 0 .562.053.819.158.258.106.485.262.682.468.195.2.348.428.457.685.111.257.166.531.166.82 0 .391-.088.747-.264 1.067-.172.312-.448.574-.833.782-.083.17-.21.347-.381.529-.174.185-.355.318-.544.4-.162.329-.402.593-.718.792-.328.206-.708.309-1.139.309zm1.783-2.591c.07 0 .136-.006.198-.018.05-.01.109-.027.175-.05.056-.214.059-.427.006-.64-.057-.23-.18-.437-.366-.619l-.002-.002c-.165-.169-.376-.284-.632-.345-.232-.056-.448-.063-.648-.021-.012.053-.021.103-.027.152-.009.069-.013.152-.013.248 0 .175.032.343.095.504.063.16.158.301.284.423l.005.004c.12.129.258.222.414.278.16.058.331.086.511.086zm-.895.895c.15 0 .295-.031.437-.094.044-.019.085-.041.125-.065-.169-.015-.335-.053-.496-.111-.264-.097-.495-.246-.693-.449-.202-.207-.35-.441-.443-.702-.056-.154-.089-.314-.102-.479-.032.049-.058.096-.077.142-.05.119-.074.269-.074.449 0 .183.033.354.099.513.065.158.159.299.282.422.122.122.264.215.424.278.162.064.335.096.518.096zm-.871.881c.153.004.304-.028.453-.097.052-.023.1-.05.143-.079-.183-.013-.36-.048-.531-.108-.264-.091-.496-.233-.699-.425l-.001-.001c-.203-.198-.349-.428-.439-.688-.054-.159-.088-.323-.101-.494-.024.039-.045.08-.063.124-.063.146-.095.297-.095.452 0 .183.032.354.096.514.063.158.158.297.284.419.123.119.265.212.426.277.163.067.338.102.527.106zm2.93-2.498c.016-.028.03-.058.042-.089.051-.131.075-.293.075-.484 0-.178-.032-.346-.096-.503-.063-.156-.156-.298-.279-.425-.127-.123-.269-.217-.426-.282-.156-.066-.321-.099-.494-.099-.174 0-.333.028-.478.083-.042.016-.083.035-.122.056.162.019.321.057.478.114.268.099.507.251.719.457.212.207.366.439.465.695.059.155.098.314.116.477zm-4.695 3.868h5.244c.261 0 .472.211.472.472 0 .262-.211.472-.472.472h-5.244c-.261 0-.472-.21-.472-.472 0-.261.211-.472.472-.472z" transform="matrix(17.3743 0 0 17.3743 -13.9941 -13.9941)"/></svg>