<svg clip-rule="evenodd" fill-rule="evenodd" stroke-linejoin="round" stroke-miterlimit="2" viewBox="0 0 250 250" xmlns="http://www.w3.org/2000/svg">
  <defs>
    <style type="text/css" id="current-color-scheme">.ColorScheme-Highlight { color:#000000; }</style>
  </defs><path class="ColorScheme-Highlight" fill="currentColor" d="m2.923 2.217h10.154c1.094 0 1.976.881 1.976 1.975v7.616c0 1.094-.882 1.975-1.976 1.975h-10.154c-1.094 0-1.976-.881-1.976-1.975v-7.616c0-1.094.882-1.975 1.976-1.975zm-.543 1.827-.02 7.764c0 .312.251.562.563.562h10.154c.312 0 .563-.25.563-.562l-.02-7.764c-.065-.239-.282-.414-.543-.414h-10.154c-.261 0-.478.175-.543.414zm2.998 6.762h5.244c.261 0 .472.211.472.472 0 .262-.211.472-.472.472h-5.244c-.261 0-.472-.21-.472-.472 0-.261.211-.472.472-.472zm3.44-1.899c-.007-.001-.015-.002-.023-.002h-1.598c-.009 0-.017.001-.023.002l-.231.477c-.128.268-.319.48-.572.635-.252.155-.527.232-.823.232-.432 0-.796-.151-1.093-.453-.296-.3-.449-.665-.457-1.095v-.002c0-.06.003-.121.009-.183.006-.066.019-.13.037-.193l.706-2.832.001-.002c.096-.368.293-.668.59-.901.298-.233.636-.349 1.014-.349h3.281c.378 0 .716.116 1.014.349.297.232.497.532.599.9l.001.003.706 2.826c.001.003.002.005.002.008.012.063.022.125.03.185.009.065.014.13.014.197 0 .432-.152.797-.456 1.096-.304.297-.671.446-1.102.446-.298 0-.572-.077-.824-.232-.253-.155-.443-.367-.571-.635zm-3.763-.356c-.001.023-.01.08-.026.17.002.14.055.257.157.351.108.099.236.149.384.149.096 0 .181-.025.258-.076.08-.054.144-.125.194-.213l.233-.475c.083-.183.21-.326.382-.429.168-.102.355-.153.56-.153h1.598c.205 0 .391.053.558.159.163.104.295.242.395.414.002.002.003.005.004.007l.235.479c.045.087.106.158.185.211.077.051.162.076.257.076.145 0 .269-.049.373-.148.102-.097.156-.216.161-.358 0-.041-.008-.089-.022-.144l-.706-2.818v-.001c-.034-.137-.106-.252-.217-.344-.11-.091-.237-.137-.382-.137h-3.281c-.142 0-.269.045-.381.134-.113.089-.185.204-.217.345v.003zm4.793-1.665c-.089 0-.163-.03-.223-.089s-.091-.133-.091-.222.03-.163.089-.223.133-.091.222-.091.163.03.223.089.091.133.091.222c0 .088-.03.163-.089.223s-.133.091-.222.091zm-.673.672c-.089 0-.163-.029-.223-.088s-.091-.133-.091-.222.03-.163.089-.223.133-.091.222-.091.163.03.223.088c.06.06.091.134.091.223 0 .088-.03.163-.089.222-.059.061-.133.091-.222.091zm0-1.345c-.089 0-.163-.03-.223-.089s-.091-.133-.091-.222.03-.163.089-.223.133-.091.222-.091.163.03.223.089.091.133.091.222c0 .088-.03.163-.089.223s-.133.091-.222.091zm-.673.673c-.089 0-.163-.03-.223-.089s-.091-.133-.091-.222.03-.163.089-.223.133-.091.222-.091.163.03.223.089.091.133.091.222c0 .088-.03.163-.089.223s-.133.091-.222.091zm-1.683.546c-.078 0-.143-.026-.194-.077s-.077-.115-.077-.193v-.319h-.319c-.078 0-.142-.025-.193-.076-.051-.05-.077-.114-.077-.193 0-.078.026-.142.077-.194.051-.051.115-.077.193-.077h.319v-.319c0-.077.026-.142.076-.193.051-.051.115-.077.193-.077s.143.026.194.077.077.115.077.193v.319h.319c.078 0 .142.026.193.076.051.051.077.115.077.193s-.026.143-.077.194-.115.077-.193.077h-.319v.319c0 .078-.026.142-.076.193s-.114.077-.193.077z" transform="matrix(17.3743 0 0 17.3743 -13.9941 -13.9941)"/></svg>