<svg clip-rule="evenodd" fill-rule="evenodd" stroke-linejoin="round" stroke-miterlimit="2" viewBox="0 0 250 250" xmlns="http://www.w3.org/2000/svg">
  <defs>
    <style type="text/css" id="current-color-scheme">.ColorScheme-Highlight { color:#000000; }</style>
  </defs><path class="ColorScheme-Highlight" fill="currentColor" d="m2.923 2.217h10.154c1.094 0 1.976.881 1.976 1.975v7.616c0 1.094-.882 1.975-1.976 1.975h-10.154c-1.094 0-1.976-.881-1.976-1.975v-7.616c0-1.094.882-1.975 1.976-1.975zm-.543 1.827-.02 7.764c0 .312.251.562.563.562h10.154c.312 0 .563-.25.563-.562l-.02-7.764c-.065-.239-.282-.414-.543-.414h-10.154c-.261 0-.478.175-.543.414zm2.799 5.336v-.216c0-.237.061-.451.183-.64.121-.19.29-.335.507-.437l.001-.001c.414-.182.785-.311 1.112-.387.328-.075.664-.113 1.009-.113.354 0 .696.038 1.025.113.329.076.698.205 1.107.388.217.101.387.244.511.431.125.187.187.403.187.646v.216c0 .223-.078.414-.236.573-.157.159-.352.238-.583.238h-4.012c-.223 0-.414-.079-.573-.238s-.238-.35-.238-.573zm.871-.06h3.892v-.124c0-.07-.021-.138-.063-.202-.042-.065-.097-.112-.167-.143l-.001-.001c-.345-.157-.641-.26-.888-.31s-.524-.075-.831-.075c-.297 0-.571.025-.824.075-.252.05-.55.153-.894.31h-.001c-.07.031-.125.078-.164.142-.039.065-.059.133-.059.204zm-.672 1.486h5.244c.261 0 .472.211.472.472 0 .262-.211.472-.472.472h-5.244c-.261 0-.472-.21-.472-.472 0-.261.211-.472.472-.472zm2.616-3.588c-.428 0-.778-.136-1.049-.407s-.408-.621-.408-1.05.137-.779.408-1.051.62-.409 1.049-.409.78.137 1.055.409.414.622.414 1.051-.139.779-.414 1.05-.626.407-1.055.407zm.002-.871c.174 0 .316-.054.425-.165.109-.11.162-.251.162-.422 0-.173-.053-.315-.162-.424-.108-.11-.249-.164-.421-.164s-.314.054-.425.164c-.112.11-.166.25-.166.42 0 .172.054.314.165.425.11.111.251.166.422.166z" transform="matrix(17.3743 0 0 17.3743 -13.9941 -13.9941)"/></svg>