<svg fill="rgb(50,175,200)" clip-rule="evenodd" fill-rule="evenodd" stroke-linejoin="round" stroke-miterlimit="2" viewBox="0 0 245 210" xmlns="http://www.w3.org/2000/svg"><path d="m7.144 3.567h7.776c1.298 0 2.556.471 3.554 1.331l12.589 10.352c1.267 1.093 2 2.712 2 4.419v6.263c0 1.186-.455 2.324-1.265 3.162-.81.839-1.909 1.311-3.055 1.311h-21.599c-1.146 0-2.244-.472-3.055-1.311-.81-.838-1.265-1.976-1.265-3.162v-17.892c0-1.187.455-2.324 1.265-3.163.811-.839 1.909-1.31 3.055-1.31zm0 2.226c-.575 0-1.127.237-1.534.658-.407.422-.636.993-.636 1.589v17.892c0 .595.229 1.167.636 1.588s.959.658 1.534.658h21.599c.576 0 1.128-.237 1.535-.658s.635-.993.635-1.588v-6.263c0-1.046-.449-2.038-1.226-2.708l-12.589-10.352c-.612-.527-1.382-.816-2.178-.816zm.285 3.491c-.56 0-1.015-.448-1.015-1s.455-1 1.015-1h7.043c.56 0 1.014.448 1.014 1s-.454 1-1.014 1zm15.719-2.401c-.33-.269-.459-.726-.322-1.137.138-.412.513-.688.933-.688h6.013c.491 0 .962.202 1.309.561.347.36.542.847.542 1.356v4.712c0 .391-.216.748-.556.919s-.745.126-1.042-.116z" transform="matrix(8.10206 0 0 7.82482 -22.8811 -27.9099)"/><path d="m28.65 10.653h-12.498c-1.657 0-3.002 1.346-3.002 3.004v32.578h-5.894v-35.318c0-3.722 3.022-6.745 6.744-6.745h36c3.722 0 6.744 3.023 6.744 6.745v6.848h-5.894v-4.108c0-1.658-1.345-3.004-3.002-3.004h-12.498c-.22 0-.347.244-.347.496 0 1.019-.767 1.802-1.653 1.802h-2.7c-.886 0-1.653-.783-1.653-1.802 0-.252-.127-.496-.347-.496zm6.353 20.622s0 .342 0 .004c0 1.045.631 1.924 1.411 2.462 1.981 1.368 3.289 3.61 3.289 6.138 0 4.134-3.476 7.547-7.703 7.547-4.228 0-7.703-3.413-7.703-7.547 0-2.528 1.307-4.769 3.287-6.135.781-.539 1.413-1.418 1.413-2.465l.044.044-.002-.006-.042-.042v-.188c0-1.875 1.371-3.353 3.003-3.353s3.003 1.478 3.003 3.353zm-3.003 6.958c-.953 0-1.697.713-1.697 1.646 0 .932.744 1.645 1.697 1.645s1.697-.713 1.697-1.645c0-.933-.744-1.646-1.697-1.646zm-12.62 15.114v6.481h-5.38c-3.722 0-6.744-3.023-6.744-6.745v-6.848h5.894v4.108c0 1.658 1.345 3.004 3.002 3.004zm31.47-35.582h5.894v35.318c0 3.722-3.022 6.745-6.744 6.745h-30.62v-6.481h28.468c1.657 0 3.002-1.346 3.002-3.004zm-19.2-3.821h.7c1.439 0 2.653 1.298 2.653 2.951s-1.214 2.951-2.653 2.951h-.7c-1.439 0-2.653-1.298-2.653-2.951s1.214-2.951 2.653-2.951zm0 6.895h.7c1.439 0 2.653 1.298 2.653 2.951s-1.214 2.951-2.653 2.951h-.7c-1.439 0-2.653-1.298-2.653-2.951s1.214-2.951 2.653-2.951z" transform="matrix(1.88725 0 0 1.88725 62.108 67.6231)"/></svg>