<svg fill="rgb(50,175,200)" clip-rule="evenodd" fill-rule="evenodd" stroke-linejoin="round" stroke-miterlimit="2" viewBox="0 0 245 210" xmlns="http://www.w3.org/2000/svg"><path d="m7.144 3.567h7.776c1.298 0 2.556.471 3.554 1.331l12.589 10.352c1.267 1.093 2 2.712 2 4.419v6.263c0 1.186-.455 2.324-1.265 3.162-.81.839-1.909 1.311-3.055 1.311h-21.599c-1.146 0-2.244-.472-3.055-1.311-.81-.838-1.265-1.976-1.265-3.162v-17.892c0-1.187.455-2.324 1.265-3.163.811-.839 1.909-1.31 3.055-1.31zm0 2.226c-.575 0-1.127.237-1.534.658-.407.422-.636.993-.636 1.589v17.892c0 .595.229 1.167.636 1.588s.959.658 1.534.658h21.599c.576 0 1.128-.237 1.535-.658s.635-.993.635-1.588v-6.263c0-1.046-.449-2.038-1.226-2.708l-12.589-10.352c-.612-.527-1.382-.816-2.178-.816zm.285 3.491c-.56 0-1.015-.448-1.015-1s.455-1 1.015-1h7.043c.56 0 1.014.448 1.014 1s-.454 1-1.014 1zm15.719-2.401c-.33-.269-.459-.726-.322-1.137.138-.412.513-.688.933-.688h6.013c.491 0 .962.202 1.309.561.347.36.542.847.542 1.356v4.712c0 .391-.216.748-.556.919s-.745.126-1.042-.116z" transform="matrix(8.10206 0 0 7.82482 -22.8811 -27.9099)"/><path d="m55-590v-181c0-26.307 9.157-48.717 27.47-67.23 18.32-18.513 40.497-27.77 66.53-27.77h662c26.307 0 48.717 9.257 67.23 27.77s27.77 40.923 27.77 67.23v181h-95v-181h-662v181zm94 375c-26.033 0-48.21-9.16-66.53-27.48-18.313-18.313-27.47-40.487-27.47-66.52v-221h94v221h662v-221h95v221c0 26.033-9.257 48.207-27.77 66.52-18.513 18.32-40.923 27.48-67.23 27.48zm-97 132c-9.913 0-18.227-3.457-24.94-10.37-6.707-6.913-10.06-15.48-10.06-25.7 0-9.94 3.45-18.413 10.35-25.42s15.45-10.51 25.65-10.51h855c9.92 0 18.233 3.563 24.94 10.69 6.707 7.133 10.06 15.67 10.06 25.61s-3.45 18.377-10.35 25.31c-6.9 6.927-15.45 10.39-25.65 10.39zm3-447v-60h265.39c5.18 0 10.243 1.333 15.19 4s8.753 6.667 11.42 12l55.28 113 129.72-231c2-5.333 5.667-9.167 11-11.5s10.873-3.5 16.62-3.5 11.08 1.083 16 3.25 8.713 5.75 11.38 10.75l50.55 103h268.45v60h-276c-9.22 0-17.567-2.333-25.04-7s-13.127-11-16.96-19l-30-58-130 226c-2.48 6-6.203 10.5-11.17 13.5s-10.18 4.5-15.64 4.5c-6.127 0-11.69-1.333-16.69-4s-8.833-6.667-11.5-12l-72-144z" fill-rule="nonzero" transform="matrix(.122164 0 0 .122164 63.8612 185.982)"/></svg>