<svg fill="rgb(50,175,200)" clip-rule="evenodd" fill-rule="evenodd" stroke-linejoin="round" stroke-miterlimit="2" viewBox="0 0 245 210" xmlns="http://www.w3.org/2000/svg"><path d="m7.144 3.567h7.776c1.298 0 2.556.471 3.554 1.331l12.589 10.352c1.267 1.093 2 2.712 2 4.419v6.263c0 1.186-.455 2.324-1.265 3.162-.81.839-1.909 1.311-3.055 1.311h-21.599c-1.146 0-2.244-.472-3.055-1.311-.81-.838-1.265-1.976-1.265-3.162v-17.892c0-1.187.455-2.324 1.265-3.163.811-.839 1.909-1.31 3.055-1.31zm0 2.226c-.575 0-1.127.237-1.534.658-.407.422-.636.993-.636 1.589v17.892c0 .595.229 1.167.636 1.588s.959.658 1.534.658h21.599c.576 0 1.128-.237 1.535-.658s.635-.993.635-1.588v-6.263c0-1.046-.449-2.038-1.226-2.708l-12.589-10.352c-.612-.527-1.382-.816-2.178-.816zm.285 3.491c-.56 0-1.015-.448-1.015-1s.455-1 1.015-1h7.043c.56 0 1.014.448 1.014 1s-.454 1-1.014 1zm15.719-2.401c-.33-.269-.459-.726-.322-1.137.138-.412.513-.688.933-.688h6.013c.491 0 .962.202 1.309.561.347.36.542.847.542 1.356v4.712c0 .391-.216.748-.556.919s-.745.126-1.042-.116z" transform="matrix(8.10206 0 0 7.82482 -22.8811 -27.9099)"/><path d="m826-713v189c0 28-2.5 56-7.5 84s-12.5 54.667-22.5 80c-4.827 16.607-13.533 27.593-26.12 32.96-12.587 5.36-24.547 6.373-35.88 3.04s-20.667-10.323-28-20.97c-7.333-10.64-8-23.317-2-38.03 8.667-20.08 15.333-43.553 20-70.42 4.667-26.873 7-50.4 7-70.58v-189l-251-93-140 52c-8.473 4-17.257 4.833-26.35 2.5-9.1-2.333-16.983-6.833-23.65-13.5-12-12-16.167-26.333-12.5-43s13.5-28.333 29.5-35l140-53c10.667-3.333 21.667-5.167 33-5.5s22.333 1.5 33 5.5l251 93c18.667 6.667 33.667 18.333 45 35s17 35 17 55zm-345.52 654c-7.653 0-17.48-2.333-29.48-7-97.333-34-174.333-93.167-231-177.5s-85-177.937-85-280.81v-191.69l-75-75c-7.333-7.333-10.833-15.833-10.5-25.5s4.167-18 11.5-25 15.833-10.5 25.5-10.5 18.167 3.333 25.5 10l728 728c6.667 7.333 9.833 15.833 9.5 25.5s-4 18.167-11 25.5-15.333 11.167-25 11.5-18.167-3.167-25.5-10.5l-109-108c-23.333 24-49.333 45.167-78 63.5s-59 32.5-91 42.5c-4.667 1.333-9.573 2.5-14.72 3.5-5.14 1-10.073 1.5-14.8 1.5zm52.52-463c6.667-5.333 12.167-12.167 16.5-20.5s6.5-17.427 6.5-27.28c0-21.507-7.327-39.587-21.98-54.24s-32.733-21.98-54.24-21.98c-9.853 0-18.947 2.167-27.28 6.5s-15.167 9.833-20.5 16.5zm-53.38 371c28.253-11.333 52.713-24 73.38-38s40.333-30.333 59-49l-116-116h-45c-8.12 0-14.483-2.833-19.09-8.5s-5.91-12.167-3.91-19.5l5-35-204-205v98c0 82 23.913 157.65 71.74 226.95s107.453 117.983 178.88 146.05z" fill-rule="nonzero" transform="matrix(.123564 0 0 .123564 62.9605 186.894)"/></svg>