<svg fill="rgb(50,175,200)" clip-rule="evenodd" fill-rule="evenodd" stroke-linejoin="round" stroke-miterlimit="2" viewBox="0 0 245 210" xmlns="http://www.w3.org/2000/svg"><path d="m7.144 3.567h7.776c1.298 0 2.556.471 3.554 1.331l12.589 10.352c1.267 1.093 2 2.712 2 4.419v6.263c0 1.186-.455 2.324-1.265 3.162-.81.839-1.909 1.311-3.055 1.311h-21.599c-1.146 0-2.244-.472-3.055-1.311-.81-.838-1.265-1.976-1.265-3.162v-17.892c0-1.187.455-2.324 1.265-3.163.811-.839 1.909-1.31 3.055-1.31zm0 2.226c-.575 0-1.127.237-1.534.658-.407.422-.636.993-.636 1.589v17.892c0 .595.229 1.167.636 1.588s.959.658 1.534.658h21.599c.576 0 1.128-.237 1.535-.658s.635-.993.635-1.588v-6.263c0-1.046-.449-2.038-1.226-2.708l-12.589-10.352c-.612-.527-1.382-.816-2.178-.816zm.285 3.491c-.56 0-1.015-.448-1.015-1s.455-1 1.015-1h7.043c.56 0 1.014.448 1.014 1s-.454 1-1.014 1zm15.719-2.401c-.33-.269-.459-.726-.322-1.137.138-.412.513-.688.933-.688h6.013c.491 0 .962.202 1.309.561.347.36.542.847.542 1.356v4.712c0 .391-.216.748-.556.919s-.745.126-1.042-.116z" transform="matrix(8.10206 0 0 7.82482 -22.8811 -27.9099)"/><path d="m253-95c-26.807 0-49.343-9.033-67.61-27.1-18.26-18.067-27.39-40.367-27.39-66.9v-553h-11c-13.167 0-24.29-4.56-33.37-13.68-9.087-9.113-13.63-20.28-13.63-33.5 0-13.213 4.543-24.32 13.63-33.32 9.08-9 20.203-13.5 33.37-13.5h184c0-13.333 4.543-24.667 13.63-34 9.08-9.333 20.203-14 33.37-14h203c13.167 0 24.293 4.73 33.38 14.19 9.08 9.453 13.62 20.723 13.62 33.81h185c13.167 0 24.293 4.56 33.38 13.68 9.08 9.113 13.62 20.28 13.62 33.5 0 13.213-4.54 24.32-13.62 33.32-9.087 9-20.213 13.5-33.38 13.5h-11v553c0 26.533-9.13 48.833-27.39 66.9-18.267 18.067-40.803 27.1-67.61 27.1zm454-647h-454v553h454zm-314.32 475c10.88 0 19.987-3.753 27.32-11.26s11-16.42 11-26.74v-323c0-10.313-3.77-19.227-11.31-26.74-7.547-7.507-16.503-11.26-26.87-11.26-11.213 0-20.487 3.753-27.82 11.26-7.333 7.513-11 16.427-11 26.74v323c0 10.32 3.727 19.233 11.18 26.74 7.447 7.507 16.613 11.26 27.5 11.26zm175.69 0c10.42 0 19.463-3.753 27.13-11.26s11.5-16.42 11.5-26.74v-323c0-10.313-3.857-19.227-11.57-26.74-7.713-7.507-16.88-11.26-27.5-11.26s-19.763 3.753-27.43 11.26c-7.667 7.513-11.5 16.427-11.5 26.74v323c0 10.32 3.957 19.233 11.87 26.74s17.08 11.26 27.5 11.26zm-315.37-475v553z" fill-rule="nonzero" transform="matrix(.133126 0 0 .133126 58.5993 193.18)"/></svg>