<svg fill="rgb(0,200,170)" clip-rule="evenodd" fill-rule="evenodd" stroke-linejoin="round" stroke-miterlimit="2" viewBox="0 0 48 48" xmlns="http://www.w3.org/2000/svg"><path d="m17.48 27.349c.787 0 1.429.654 1.442 1.47 0 .023.001.045.001.068.006.401-.143.787-.414 1.072s-.642.446-1.028.446c-3.358 0-11.319 0-11.319 0-.886 0-1.735-.364-2.36-1.012-.626-.648-.978-1.527-.978-2.444v-19.926c0-.917.352-1.796.978-2.444.625-.648 1.474-1.012 2.36-1.012h8.758c1.298 0 2.556.471 3.554 1.331l.194.159h9.618c1.843 0 3.337 1.548 3.337 3.456v5.434c0 1.042-.575 1.991-1.481 2.445-.905.454-1.981.332-2.77-.314-4.448-3.642-10.79-8.835-10.79-8.835-.468-.401-1.055-.621-1.662-.621h-7.301c-.489 0-.958.202-1.304.56-.346.357-.54.843-.54 1.349v16.909c0 .506.194.992.54 1.349.346.358.815.56 1.304.56z" transform="matrix(1.53077 0 0 1.47839 -2.36519 -1.11193)"/><path d="m662.2-90c38.533 0 75.3-9.833 110.3-29.5s65.167-46.5 90.5-80.5c-25.333-33.333-55.567-60-90.7-80-35.14-20-71.973-30-110.5-30-38.533 0-75.133 10-109.8 30s-64.333 46.667-89 80c24.667 34 54.4 60.833 89.2 80.5 34.807 19.667 71.473 29.5 110 29.5zm.3-52c-16.333 0-30-5.5-41-16.5s-16.5-24.667-16.5-41 5.543-30 16.63-41c11.08-11 24.537-16.5 40.37-16.5 16.667 0 30.5 5.54 41.5 16.62 11 11.087 16.5 24.547 16.5 40.38 0 16.667-5.5 30.5-16.5 41.5s-24.667 16.5-41 16.5zm-.43 132c-53.287 0-103.12-12.833-149.5-38.5s-83.57-60.5-111.57-104.5c-5.333-6.667-9-13.69-11-21.07s-3-15.48-3-24.3c0-7.48 1.167-15.487 3.5-24.02s5.833-16.737 10.5-24.61c28-43.333 65.04-77.833 111.12-103.5s95.897-38.5 149.45-38.5c54.287 0 104.43 12.833 150.43 38.5s83.333 60.167 112 103.5c4.667 7.333 8.167 14.78 10.5 22.34 2.333 7.553 3.5 15.68 3.5 24.38s-1 17.087-3 25.16c-2 8.08-5.333 15.453-10 22.12-28 44.667-65.283 79.667-111.85 105-46.573 25.333-96.933 38-151.08 38z" fill-rule="nonzero" transform="matrix(.0364214 0 0 .0364214 11.8791 40.4398)"/></svg>