<svg fill="rgb(0,200,170)" clip-rule="evenodd" fill-rule="evenodd" stroke-linejoin="round" stroke-miterlimit="2" viewBox="0 0 245 210" xmlns="http://www.w3.org/2000/svg"><path d="m7.144 3.567h7.776c1.298 0 2.556.471 3.554 1.331l12.589 10.352c1.267 1.093 2 2.712 2 4.419v6.263c0 1.186-.455 2.324-1.265 3.162-.81.839-1.909 1.311-3.055 1.311h-21.599c-1.146 0-2.244-.472-3.055-1.311-.81-.838-1.265-1.976-1.265-3.162v-17.892c0-1.187.455-2.324 1.265-3.163.811-.839 1.909-1.31 3.055-1.31zm0 2.226c-.575 0-1.127.237-1.534.658-.407.422-.636.993-.636 1.589v17.892c0 .595.229 1.167.636 1.588s.959.658 1.534.658h21.599c.576 0 1.128-.237 1.535-.658s.635-.993.635-1.588v-6.263c0-1.046-.449-2.038-1.226-2.708l-12.589-10.352c-.612-.527-1.382-.816-2.178-.816zm.285 3.491c-.56 0-1.015-.448-1.015-1s.455-1 1.015-1h7.043c.56 0 1.014.448 1.014 1s-.454 1-1.014 1zm15.719-2.401c-.33-.269-.459-.726-.322-1.137.138-.412.513-.688.933-.688h6.013c.491 0 .962.202 1.309.561.347.36.542.847.542 1.356v4.712c0 .391-.216.748-.556.919s-.745.126-1.042-.116z" transform="matrix(8.10206 0 0 7.82482 -22.8811 -27.9099)"/><path d="m229-189h124v-211c0-13.167 4.543-24.293 13.63-33.38 9.08-9.08 20.203-13.62 33.37-13.62h160c13.167 0 24.293 4.54 33.38 13.62 9.08 9.087 13.62 20.213 13.62 33.38v211h124v-376.67l-251-188.33-251 188.33zm-94 0v-377c0-14.693 3.183-28.61 9.55-41.75 6.36-13.147 15.51-24.23 27.45-33.25l251-189c16.453-12.667 35.4-19 56.84-19s40.493 6.333 57.16 19l251 189c12.253 9.02 21.65 20.103 28.19 33.25 6.54 13.14 9.81 27.057 9.81 41.75v377c0 26.533-9.13 48.833-27.39 66.9-18.267 18.067-40.803 27.1-67.61 27.1h-160c-13.167 0-24.29-4.543-33.37-13.63-9.087-9.08-13.63-20.203-13.63-33.37v-222h-88v222c0 13.167-4.54 24.29-13.62 33.37-9.087 9.087-20.213 13.63-33.38 13.63h-160c-26.533 0-48.833-9.033-66.9-27.1s-27.1-40.367-27.1-66.9z" fill-rule="nonzero" transform="matrix(.139306 0 0 .139306 55.5634 193.768)"/></svg>