<svg fill="rgb(55,200,90)" width="100%" height="100%" viewBox="0 0 245 210" version="1.1" xmlns="http://www.w3.org/2000/svg" xmlns:xlink="http://www.w3.org/1999/xlink" xml:space="preserve" xmlns:serif="http://www.serif.com/" style="fill-rule:evenodd;clip-rule:evenodd;stroke-linejoin:round;stroke-miterlimit:2;">
    <g transform="matrix(8.10206,0,0,7.82482,-22.8811,-27.9099)">
        <path d="M7.144,3.567L14.92,3.567C16.218,3.567 17.476,4.038 18.474,4.898L31.063,15.25C32.33,16.343 33.063,17.962 33.063,19.669L33.063,25.932C33.063,27.118 32.608,28.256 31.798,29.094C30.988,29.933 29.889,30.405 28.743,30.405L7.144,30.405C5.998,30.405 4.9,29.933 4.089,29.094C3.279,28.256 2.824,27.118 2.824,25.932L2.824,8.04C2.824,6.853 3.279,5.716 4.089,4.877C4.9,4.038 5.998,3.567 7.144,3.567ZM7.144,5.793C6.569,5.793 6.017,6.03 5.61,6.451C5.203,6.873 4.974,7.444 4.974,8.04L4.974,25.932C4.974,26.527 5.203,27.099 5.61,27.52C6.017,27.941 6.569,28.178 7.144,28.178L28.743,28.178C29.319,28.178 29.871,27.941 30.278,27.52C30.685,27.099 30.913,26.527 30.913,25.932L30.913,19.669C30.913,18.623 30.464,17.631 29.687,16.961L17.098,6.609C16.486,6.082 15.716,5.793 14.92,5.793L7.144,5.793ZM7.429,9.284C6.869,9.284 6.414,8.836 6.414,8.284C6.414,7.732 6.869,7.284 7.429,7.284L14.472,7.284C15.032,7.284 15.486,7.732 15.486,8.284C15.486,8.836 15.032,9.284 14.472,9.284L7.429,9.284ZM23.148,6.883C22.818,6.614 22.689,6.157 22.826,5.746C22.964,5.334 23.339,5.058 23.759,5.058L29.772,5.058C30.263,5.058 30.734,5.26 31.081,5.619C31.428,5.979 31.623,6.466 31.623,6.975L31.623,11.687C31.623,12.078 31.407,12.435 31.067,12.606C30.727,12.777 30.322,12.732 30.025,12.49L23.148,6.883Z"/>
    </g>
    <g transform="matrix(0.1408,0,0,0.1408,56.324,196.303)">
        <path d="M372,-312C295.227,-312 230.2,-338.667 176.92,-392C123.64,-445.333 97,-509.667 97,-585C97,-660.333 123.667,-724.667 177,-778C230.333,-831.333 294.833,-858 370.5,-858C446.167,-858 510.5,-831.333 563.5,-778C616.5,-724.667 643,-660.283 643,-584.85C643,-554.95 638.833,-527.167 630.5,-501.5C622.167,-475.833 609.667,-451.667 593,-429L829,-195C838.333,-185.293 843,-173.867 843,-160.72C843,-147.573 838.333,-136.333 829,-127C819.313,-117 807.817,-112 794.51,-112C781.21,-112 770.04,-117 761,-127L526,-361C506.667,-345.72 483.847,-333.733 457.54,-325.04C431.233,-316.347 402.72,-312 372,-312ZM371.35,-406C421.283,-406 463.377,-423.417 497.63,-458.25C531.877,-493.083 549,-535.333 549,-585C549,-634.667 531.827,-676.917 497.48,-711.75C463.133,-746.583 421.09,-764 371.35,-764C321.063,-764 278.433,-746.583 243.46,-711.75C208.487,-676.917 191,-634.667 191,-585C191,-535.333 208.437,-493.083 243.31,-458.25C278.183,-423.417 320.863,-406 371.35,-406Z" style="fill-rule:nonzero;"/>
    </g>
</svg>
