<svg fill="rgb(55,200,90)" clip-rule="evenodd" fill-rule="evenodd" stroke-linejoin="round" stroke-miterlimit="2" viewBox="0 0 48 48" xmlns="http://www.w3.org/2000/svg"><path d="m25.318 26.563.276 1.065c.31.103.612.228.903.374l.948-.558c.284-.167.639-.148.903.048.637.475 1.201 1.039 1.675 1.676.197.263.216.619.049.902l-.558.948c.146.292.271.594.374.904l1.065.275c.318.083.556.348.604.673.115.785.115 1.584 0 2.369-.048.325-.286.59-.604.673l-1.065.275c-.103.31-.228.612-.374.904l.558.948c.167.283.148.639-.049.902-.474.637-1.038 1.201-1.675 1.675-.264.197-.619.216-.903.049l-.947-.558c-.292.146-.594.271-.904.374l-.276 1.065c-.082.318-.347.556-.672.604-.786.115-1.584.115-2.369 0-.326-.048-.591-.286-.673-.604l-.275-1.065c-.31-.103-.612-.228-.904-.374l-.948.558c-.283.167-.639.148-.903-.049-.636-.474-1.201-1.038-1.675-1.675-.196-.263-.215-.619-.049-.902l.559-.948c-.147-.292-.272-.594-.374-.904l-1.066-.275c-.318-.083-.556-.348-.603-.673-.115-.785-.115-1.584 0-2.369.047-.325.285-.59.603-.673l1.065-.275c.103-.31.228-.612.375-.904l-.559-.948c-.166-.283-.147-.639.049-.902.474-.637 1.039-1.201 1.675-1.676.264-.196.62-.215.903-.048l.948.558c.292-.146.594-.271.903-.374l.276-1.065c.082-.319.347-.556.673-.604.785-.115 1.583-.115 2.369 0 .325.048.59.285.672.604zm-1.857 3.901c-1.981 0-3.59 1.609-3.59 3.59 0 1.982 1.609 3.591 3.59 3.591 1.982 0 3.591-1.609 3.591-3.591 0-1.981-1.609-3.59-3.591-3.59z" transform="matrix(1.08587 0 0 1.08587 -1.50029 -1.23342)"/><path d="m479-278c-6.387 0-12.737-1.167-19.05-3.5s-12.297-6.5-17.95-12.5l-236-301c-12.667-15.333-15.047-31.833-7.14-49.5s21.953-26.5 42.14-26.5h84v-187c0-13.087 4.543-24.357 13.63-33.81 9.08-9.46 20.203-14.19 33.37-14.19h214c13.087 0 24.357 4.73 33.81 14.19 9.46 9.453 14.19 20.723 14.19 33.81v187h84c20.187 0 34.233 8.833 42.14 26.5s5.86 34.167-6.14 49.5l-238 301c-5.653 6-11.637 10.167-17.95 12.5s-12.663 3.5-19.05 3.5zm0-125 128-157h-68v-251h-120v251h-68z" fill-rule="nonzero" transform="matrix(.0328496 0 0 .0328496 8.24613 33.1322)"/></svg>