<svg fill="rgb(55,200,90)" clip-rule="evenodd" fill-rule="evenodd" stroke-linejoin="round" stroke-miterlimit="2" viewBox="0 0 245 210" xmlns="http://www.w3.org/2000/svg"><path d="m7.144 3.567h7.776c1.298 0 2.556.471 3.554 1.331l12.589 10.352c1.267 1.093 2 2.712 2 4.419v6.263c0 1.186-.455 2.324-1.265 3.162-.81.839-1.909 1.311-3.055 1.311h-21.599c-1.146 0-2.244-.472-3.055-1.311-.81-.838-1.265-1.976-1.265-3.162v-17.892c0-1.187.455-2.324 1.265-3.163.811-.839 1.909-1.31 3.055-1.31zm0 2.226c-.575 0-1.127.237-1.534.658-.407.422-.636.993-.636 1.589v17.892c0 .595.229 1.167.636 1.588s.959.658 1.534.658h21.599c.576 0 1.128-.237 1.535-.658s.635-.993.635-1.588v-6.263c0-1.046-.449-2.038-1.226-2.708l-12.589-10.352c-.612-.527-1.382-.816-2.178-.816zm.285 3.491c-.56 0-1.015-.448-1.015-1s.455-1 1.015-1h7.043c.56 0 1.014.448 1.014 1s-.454 1-1.014 1zm15.719-2.401c-.33-.269-.459-.726-.322-1.137.138-.412.513-.688.933-.688h6.013c.491 0 .962.202 1.309.561.347.36.542.847.542 1.356v4.712c0 .391-.216.748-.556.919s-.745.126-1.042-.116z" transform="matrix(8.10206 0 0 7.82482 -22.8811 -27.9099)"/><path d="m677-404h-83c-10 0-18.667 3.873-26 11.62-7.333 7.74-11 16.573-11 26.5 0 9.92 3.667 18.547 11 25.88s16 11 26 11h110c13.167 0 24.293-4.543 33.38-13.63 9.08-9.08 13.62-20.203 13.62-33.37v-110c0-9.887-3.667-18.693-11-26.42-7.333-7.72-16-11.58-26-11.58s-18.667 3.86-26 11.58c-7.333 7.727-11 16.533-11 26.42zm-393-233h82c9.887 0 18.693-3.667 26.42-11 7.72-7.333 11.58-16 11.58-26s-3.86-18.667-11.58-26c-7.727-7.333-16.533-11-26.42-11h-110c-13.167 0-24.29 4.54-33.37 13.62-9.087 9.087-13.63 20.213-13.63 33.38v110c0 10 3.667 18.667 11 26s15.96 11 25.88 11c9.927 0 18.76-3.667 26.5-11 7.747-7.333 11.62-16 11.62-26zm-135 462c-26.033 0-48.21-9.16-66.53-27.48-18.313-18.313-27.47-40.487-27.47-66.52v-502c0-26.307 9.157-48.717 27.47-67.23 18.32-18.513 40.497-27.77 66.53-27.77h662c26.307 0 48.717 9.257 67.23 27.77s27.77 40.923 27.77 67.23v502c0 26.033-9.257 48.207-27.77 66.52-18.513 18.32-40.923 27.48-67.23 27.48h-167v33c0 13.167-4.73 24.29-14.19 33.37-9.453 9.087-20.723 13.63-33.81 13.63h-232c-13.167 0-24.29-4.543-33.37-13.63-9.087-9.08-13.63-20.203-13.63-33.37v-33zm0-94h662v-502h-662zm0 0v-502z" fill-rule="nonzero" transform="matrix(.125952 0 0 .125952 61.9803 192.499)"/></svg>