<svg fill="rgb(55,200,90)" clip-rule="evenodd" fill-rule="evenodd" stroke-linejoin="round" stroke-miterlimit="2" viewBox="0 0 245 210" xmlns="http://www.w3.org/2000/svg"><path d="m7.144 3.567h7.776c1.298 0 2.556.471 3.554 1.331l12.589 10.352c1.267 1.093 2 2.712 2 4.419v6.263c0 1.186-.455 2.324-1.265 3.162-.81.839-1.909 1.311-3.055 1.311h-21.599c-1.146 0-2.244-.472-3.055-1.311-.81-.838-1.265-1.976-1.265-3.162v-17.892c0-1.187.455-2.324 1.265-3.163.811-.839 1.909-1.31 3.055-1.31zm0 2.226c-.575 0-1.127.237-1.534.658-.407.422-.636.993-.636 1.589v17.892c0 .595.229 1.167.636 1.588s.959.658 1.534.658h21.599c.576 0 1.128-.237 1.535-.658s.635-.993.635-1.588v-6.263c0-1.046-.449-2.038-1.226-2.708l-12.589-10.352c-.612-.527-1.382-.816-2.178-.816zm.285 3.491c-.56 0-1.015-.448-1.015-1s.455-1 1.015-1h7.043c.56 0 1.014.448 1.014 1s-.454 1-1.014 1zm15.719-2.401c-.33-.269-.459-.726-.322-1.137.138-.412.513-.688.933-.688h6.013c.491 0 .962.202 1.309.561.347.36.542.847.542 1.356v4.712c0 .391-.216.748-.556.919s-.745.126-1.042-.116z" transform="matrix(8.10206 0 0 7.82482 -22.8811 -27.9099)"/><path d="m425.029-357.029 43.971 101.029c2.4 4.667 6 7 10.8 7s8.533-2.333 11.2-7l44.971-101.029 102.029-42.971c4.667-2.4 7-6 7-10.8s-2.333-8.533-7-11.2l-102.029-43.971-44.971-101.029c-2.4-4.667-6-7-10.8-7s-8.533 2.333-11.2 7l-43.971 101.029-102.029 43.971c-4.667 2.4-7 6-7 10.8s2.333 8.533 7 11.2zm-46.905-502.971c-12.166 0-22.061-4.058-29.686-12.175s-11.438-18.117-11.438-30 3.813-21.658 11.438-29.325 17.52-11.5 29.686-11.5h203.752c12.166 0 22.061 3.829 29.686 11.488s11.438 17.554 11.438 29.687c0 11.883-3.813 21.825-11.438 29.825s-17.52 12-29.686 12zm101.643 825c-53.489 0-103.548-10.113-150.177-30.339-46.629-20.225-87.384-47.725-122.266-82.5-34.883-34.774-62.324-75.447-82.324-122.018s-30-96.571-30-150 10.03-103.461 30.091-150.098c20.061-46.636 47.532-87.456 82.413-122.46 34.882-35.004 75.637-62.686 122.264-83.046 46.628-20.359 96.705-30.539 150.232-30.539 46 0 89.5 7.5 130.5 22.5s77.167 36.167 108.5 63.5l31-31c8.667-8.667 18.5-13 29.5-13s20.833 4.5 29.5 13.5 13 19 13 30-4.333 20.833-13 29.5l-30 30c24.667 28 45.333 61.667 62 101s25 86 25 140c0 53.571-10.134 103.704-30.402 150.4s-47.891 87.384-82.868 122.065-75.843 62.107-122.598 82.278-96.876 30.257-150.365 30.257zm.061-95c81.448 0 150.339-27.943 206.672-83.828 56.333-55.886 84.5-124.553 84.5-206 0-81.448-28.109-150.339-84.328-206.672s-125.053-84.5-206.5-84.5c-81.448 0-150.339 28.109-206.672 84.328s-84.5 125.053-84.5 206.5c0 81.448 28.109 150.172 84.328 206.172s125.053 84 206.5 84z" fill-rule="nonzero" transform="matrix(.115679 0 0 .115679 66.9161 184.582)"/></svg>