<svg height="48" width="48" xmlns="http://www.w3.org/2000/svg"><path fill="rgb(0, 0, 0)" d="m42 24c0-9.941-8.059-18-18-18-3.683 0-7.108 1.106-9.96 3.005 1.294.073 2.451.664 3.266 1.568 2.015-1.007 4.288-1.573 6.694-1.573 8.284 0 15 6.716 15 15s-6.716 15-15 15-15-6.716-15-15c0-2.407.567-4.682 1.575-6.699-.904-.815-1.494-1.971-1.567-3.266-1.901 2.853-3.008 6.28-3.008 9.965 0 9.941 8.059 18 18 18s18-8.059 18-18zm-18-20c11.046 0 20 8.954 20 20s-8.954 20-20 20-20-8.954-20-20 8.954-20 20-20zm-13 20c0 7.202 5.798 13 13 13s13-5.798 13-13-5.798-13-13-13c-2.046 0-3.979.468-5.697 1.303.104.325.174.665.207 1.015 1.643-.843 3.509-1.318 5.49-1.318 6.648 0 12 5.352 12 12s-5.352 12-12 12-12-5.352-12-12c0-1.982.476-3.849 1.32-5.494-.351-.032-.691-.103-1.015-.207-.836 1.72-1.305 3.654-1.305 5.701zm4 0c0 4.99 4.014 9 9 9 4.99 0 9-4.014 9-9 0-4.99-4.014-9-9-9-4.99 0-9 4.014-9 9zm9-7.999c.665 0 1.307.088 1.924.24l-2.045 4.771-1.252.332-1.863-4.66c.989-.437 2.082-.684 3.236-.684zm2.882.54c1.668.642 3.058 1.821 3.967 3.332l-4.818 1.928-1.125-.648 1.977-4.611zm-5.083 5.428-.648 1.125-4.611-1.977c.642-1.668 1.821-3.058 3.332-3.967zm9.515-1.206c.437.989.684 2.082.684 3.236 0 .665-.088 1.307-.24 1.924l-4.771-2.045-.332-1.252zm-10.308 3.357.332 1.252-4.66 1.863c-.437-.989-.684-2.082-.684-3.236 0-.665.088-1.307.24-1.924zm10.447 2.761c-.642 1.668-1.821 3.058-3.332 3.967l-1.928-4.818.648-1.125zm-8.365-.034-1.977 4.611c-1.668-.642-3.058-1.821-3.967-3.332l4.818-1.928zm4.141 4.467c-.989.437-2.082.684-3.236.684-.665 0-1.307-.088-1.924-.24l2.045-4.771 1.252-.332zm-1.638-6.101c-.673.876-1.928 1.041-2.804.369-.877-.672-1.042-1.928-.37-2.804.673-.877 1.928-1.042 2.805-.369.876.672 1.041 1.927.369 2.804z"/></svg>