<svg height="800" viewBox="0 0 511.999 511.999" width="800" xmlns="http://www.w3.org/2000/svg"><path fill="rgb(0, 0, 0)" d="m265.809 303.205c0 29.442-23.952 53.394-53.393 53.394-29.442 0-53.394-23.952-53.394-53.394 0-29.441 23.952-53.393 53.394-53.393 29.441 0 53.393 23.953 53.393 53.393zm-28.322.001c0-13.824-11.246-25.071-25.071-25.071s-25.071 11.246-25.071 25.071 11.245 25.071 25.071 25.071c13.824 0 25.071-11.246 25.071-25.071zm240.985-43.486c-3.544 3.448-8.631 4.799-13.418 3.559l-38.107-9.851-102.146 32.553c.857 5.618 1.303 11.37 1.303 17.224 0 62.688-51 113.689-113.688 113.689-53.782 0-98.958-37.54-110.71-87.791-.772-.407-1.54-.822-2.302-1.253-17.563-9.945-31.159-25.585-38.667-44.071l-14.169 3.248c-1.065.245-2.13.362-3.178.362-6.453 0-12.285-4.442-13.79-11-1.748-7.624 3.015-15.219 10.638-16.968l14.169-3.248c-1.296-19.912 4.126-39.913 15.603-56.515 14.189-20.526 36.508-34.236 61.232-37.611l266.013-38.108 30.007-25.469c3.772-3.2 8.937-4.203 13.629-2.643 4.694 1.56 8.234 5.454 9.338 10.274l32.172 140.303c1.105 4.82-.384 9.867-3.929 13.316zm-180.69 43.485c0-47.071-38.294-85.365-85.365-85.365-47.072 0-85.367 38.294-85.367 85.365 0 47.072 38.295 85.367 85.367 85.367 47.071 0 85.365-38.295 85.365-85.367zm100.769-70.452-17.846-77.83-245.54 35.174c-17.204 2.349-32.037 11.46-41.858 25.667s-13.103 31.303-9.244 48.137v.001.002c2.497 10.886 7.743 20.557 15.195 28.342 5.532-57.564 54.168-102.728 113.158-102.728 46.913 0 87.277 28.563 104.622 69.212zm51.037-2.725-21.757-94.891-15.362 13.037c-1.123.953-2.385 1.713-3.732 2.272l16.995 74.119c1.455-.082 2.923.051 4.349.42zm-223.713 73.179c0 7.434-6.026 13.46-13.459 13.46-7.434 0-13.46-6.026-13.46-13.46 0-7.433 6.026-13.459 13.46-13.459 7.433 0 13.459 6.026 13.459 13.459z"/></svg>