<svg clip-rule="evenodd" fill-rule="evenodd" stroke-linejoin="round" stroke-miterlimit="2" viewBox="0 0 800 800" xmlns="http://www.w3.org/2000/svg"><path fill="rgb(0, 0, 0)" d="m74.84 159.872-50.795-92.022c-9.367-16.972 4.344-37.436 23.603-35.228l103.4 11.856c17.646 2.023 26.972 21.937 17.227 36.788l-52.605 80.166c-9.857 15.019-32.149 14.168-40.83-1.56zm1.225-39.994 22.47-29.451-39.689-1.744zm-28.77-52.122s47.57 1.927 58.073 2.552c1.694.1 3.457.625 4.947 1.198 1.424.547 2.797 1.351 3.994 2.235 1.188.877 2.277 1.945 3.192 3.069.912 1.121 1.69 2.377 2.297 3.677.608 1.3 1.072 2.702 1.347 4.121.276 1.423.396 2.944.307 4.417-.09 1.486-.367 3.05-.847 4.498-.484 1.46-1.679 3.5-2.055 4.26-.053.107-.124.205-.197.301-5.286 6.935-31.516 41.308-31.516 41.308l5.863 10.622c1.257 2.278 4.487 2.401 5.914.226l52.605-80.166c1.411-2.151.061-5.035-2.495-5.328l-103.4-11.856c-2.789-.32-4.776 2.644-3.419 5.102z" transform="matrix(4.67576 0 0 4.67576 -51.7681 -78.4651)"/></svg>