<svg fill="rgb(50,175,230)" clip-rule="evenodd" fill-rule="evenodd" stroke-linejoin="round" stroke-miterlimit="2" viewBox="0 0 48 48" xmlns="http://www.w3.org/2000/svg"><path d="m17.48 27.349c.787 0 1.429.654 1.442 1.47 0 .023.001.045.001.068.006.401-.143.787-.414 1.072s-.642.446-1.028.446c-3.358 0-11.319 0-11.319 0-.886 0-1.735-.364-2.36-1.012-.626-.648-.978-1.527-.978-2.444v-19.926c0-.917.352-1.796.978-2.444.625-.648 1.474-1.012 2.36-1.012h8.758c1.298 0 2.556.471 3.554 1.331l.194.159h9.618c1.843 0 3.337 1.548 3.337 3.456v5.434c0 1.042-.575 1.991-1.481 2.445-.905.454-1.981.332-2.77-.314-4.448-3.642-10.79-8.835-10.79-8.835-.468-.401-1.055-.621-1.662-.621h-7.301c-.489 0-.958.202-1.304.56-.346.357-.54.843-.54 1.349v16.909c0 .506.194.992.54 1.349.346.358.815.56 1.304.56z" transform="matrix(1.53077 0 0 1.47839 -2.36519 -1.11193)"/><path d="m707-211-38-39c-5.333-4.667-11.637-7.167-18.91-7.5s-13.303 2.167-18.09 7.5c-5.333 4.76-8.167 10.927-8.5 18.5s2.167 13.74 7.5 18.5l42 42c9.82 9.333 21.273 14 34.36 14 13.093 0 24.307-4.667 33.64-14l94-97c4.667-4.94 7-10.843 7-17.71 0-6.86-2.333-12.957-7-18.29-5.333-4.667-11.637-7.187-18.91-7.56-7.273-.367-13.303 2.153-18.09 7.56zm26.5-222c53.34 0 98.927 19.08 136.76 57.24 37.827 38.167 56.74 83.92 56.74 137.26s-18.913 98.923-56.74 136.75c-37.833 37.833-83.587 56.75-137.26 56.75-53.007 0-98.593-18.917-136.76-56.75-38.16-37.827-57.24-83.577-57.24-137.25 0-53.007 19.08-98.593 57.24-136.76 38.167-38.16 83.92-57.24 137.26-57.24z" fill-rule="nonzero" transform="matrix(.0468874 0 0 .0468874 2.5777 45.9484)"/></svg>