<svg fill="rgb(50,175,230)" width="100%" height="100%" viewBox="0 0 245 210" version="1.1" xmlns="http://www.w3.org/2000/svg" xmlns:xlink="http://www.w3.org/1999/xlink" xml:space="preserve" xmlns:serif="http://www.serif.com/" style="fill-rule:evenodd;clip-rule:evenodd;stroke-linejoin:round;stroke-miterlimit:2;">
    <g transform="matrix(8.10206,0,0,7.82482,-22.8811,-27.9099)">
        <path d="M7.144,3.567L14.92,3.567C16.218,3.567 17.476,4.038 18.474,4.898L31.063,15.25C32.33,16.343 33.063,17.962 33.063,19.669L33.063,25.932C33.063,27.118 32.608,28.256 31.798,29.094C30.988,29.933 29.889,30.405 28.743,30.405L7.144,30.405C5.998,30.405 4.9,29.933 4.089,29.094C3.279,28.256 2.824,27.118 2.824,25.932L2.824,8.04C2.824,6.853 3.279,5.716 4.089,4.877C4.9,4.038 5.998,3.567 7.144,3.567ZM7.144,5.793C6.569,5.793 6.017,6.03 5.61,6.451C5.203,6.873 4.974,7.444 4.974,8.04L4.974,25.932C4.974,26.527 5.203,27.099 5.61,27.52C6.017,27.941 6.569,28.178 7.144,28.178L28.743,28.178C29.319,28.178 29.871,27.941 30.278,27.52C30.685,27.099 30.913,26.527 30.913,25.932L30.913,19.669C30.913,18.623 30.464,17.631 29.687,16.961L17.098,6.609C16.486,6.082 15.716,5.793 14.92,5.793L7.144,5.793ZM7.429,9.284C6.869,9.284 6.414,8.836 6.414,8.284C6.414,7.732 6.869,7.284 7.429,7.284L14.472,7.284C15.032,7.284 15.486,7.732 15.486,8.284C15.486,8.836 15.032,9.284 14.472,9.284L7.429,9.284ZM23.148,6.883C22.818,6.614 22.689,6.157 22.826,5.746C22.964,5.334 23.339,5.058 23.759,5.058L29.772,5.058C30.263,5.058 30.734,5.26 31.081,5.619C31.428,5.979 31.623,6.466 31.623,6.975L31.623,11.687C31.623,12.078 31.407,12.435 31.067,12.606C30.727,12.777 30.322,12.732 30.025,12.49L23.148,6.883Z"/>
    </g>
    <g transform="matrix(0.126884,0,0,0.126884,61.5323,192.817)">
        <path d="M715,-419C725.2,-419 733.75,-422.327 740.65,-428.98C747.55,-435.627 751,-444.193 751,-454.68C751,-465.16 747.693,-473.833 741.08,-480.7C734.46,-487.567 725.767,-491 715,-491L625,-491C614.8,-491 606.25,-487.533 599.35,-480.6C592.45,-473.667 589,-465.073 589,-454.82C589,-444.007 592.307,-435.333 598.92,-428.8C605.54,-422.267 614.233,-419 625,-419L715,-419ZM715,-551C725.2,-551 733.75,-554.327 740.65,-560.98C747.55,-567.627 751,-576.193 751,-586.68C751,-597.16 747.693,-605.833 741.08,-612.7C734.46,-619.567 725.767,-623 715,-623L625,-623C614.8,-623 606.25,-619.533 599.35,-612.6C592.45,-605.667 589,-597.073 589,-586.82C589,-576.007 592.307,-567.333 598.92,-560.8C605.54,-554.267 614.233,-551 625,-551L715,-551ZM369,-427C344.333,-427 322.38,-424.667 303.14,-420C283.893,-415.333 266.847,-408.667 252,-400C240.667,-393.333 232.333,-386.267 227,-378.8C221.667,-371.333 219,-363.863 219,-356.39C219,-347.557 222.097,-340.617 228.29,-335.57C234.483,-330.523 242.053,-328 251,-328L487,-328C495.667,-328 503,-330.673 509,-336.02C515,-341.36 518,-348.02 518,-356C518,-363.867 515.333,-371.5 510,-378.9C504.667,-386.3 497,-393.333 487,-400C471.967,-408.667 454.71,-415.333 435.23,-420C415.743,-424.667 393.667,-427 369,-427ZM368.92,-487C388.973,-487 406.167,-493.973 420.5,-507.92C434.833,-521.867 442,-539.2 442,-559.92C442,-579.973 434.86,-597.167 420.58,-611.5C406.3,-625.833 389.133,-633 369.08,-633C349.027,-633 331.833,-625.86 317.5,-611.58C303.167,-597.3 296,-580.133 296,-560.08C296,-539.36 303.14,-522 317.42,-508C331.7,-494 348.867,-487 368.92,-487ZM149,-135C122.967,-135 100.79,-144.16 82.47,-162.48C64.157,-180.793 55,-202.967 55,-229L55,-731C55,-757.307 64.157,-779.717 82.47,-798.23C100.79,-816.743 122.967,-826 149,-826L811,-826C837.307,-826 859.717,-816.743 878.23,-798.23C896.743,-779.717 906,-757.307 906,-731L906,-229C906,-202.967 896.743,-180.793 878.23,-162.48C859.717,-144.16 837.307,-135 811,-135L149,-135ZM149,-229L811,-229L811,-731L149,-731L149,-229ZM149,-229L149,-731L149,-229Z" style="fill-rule:nonzero;"/>
    </g>
</svg>
