<svg fill="rgb(55,200,90)" clip-rule="evenodd" fill-rule="evenodd" stroke-linejoin="round" stroke-miterlimit="2" viewBox="0 0 245 210" xmlns="http://www.w3.org/2000/svg"><path d="m7.144 3.567h7.776c1.298 0 2.556.471 3.554 1.331l12.589 10.352c1.267 1.093 2 2.712 2 4.419v6.263c0 1.186-.455 2.324-1.265 3.162-.81.839-1.909 1.311-3.055 1.311h-21.599c-1.146 0-2.244-.472-3.055-1.311-.81-.838-1.265-1.976-1.265-3.162v-17.892c0-1.187.455-2.324 1.265-3.163.811-.839 1.909-1.31 3.055-1.31zm0 2.226c-.575 0-1.127.237-1.534.658-.407.422-.636.993-.636 1.589v17.892c0 .595.229 1.167.636 1.588s.959.658 1.534.658h21.599c.576 0 1.128-.237 1.535-.658s.635-.993.635-1.588v-6.263c0-1.046-.449-2.038-1.226-2.708l-12.589-10.352c-.612-.527-1.382-.816-2.178-.816zm.285 3.491c-.56 0-1.015-.448-1.015-1s.455-1 1.015-1h7.043c.56 0 1.014.448 1.014 1s-.454 1-1.014 1zm15.719-2.401c-.33-.269-.459-.726-.322-1.137.138-.412.513-.688.933-.688h6.013c.491 0 .962.202 1.309.561.347.36.542.847.542 1.356v4.712c0 .391-.216.748-.556.919s-.745.126-1.042-.116z" transform="matrix(8.10206 0 0 7.82482 -22.8811 -27.9099)"/><path d="m16.243 3.486c-.162-.442-.579-.738-1.05-.746-.47-.008-.897.275-1.074.711-.717 1.775-1.354 3.334-2.243 5.274-.197.431-.107.939.227 1.276.807.788 2.038 1.861 3.629 2.8.109.062.155.195.108.312-.047.116-.172.18-.294.149-1.568-.363-2.914-.71-3.879-1.098-.3-.166-.655-.203-.982-.1s-.597.337-.747.645c-1.646 3.318-3.788 7.374-8.024 15.033-.241.437-.168.981.179 1.34.348.36.888.451 1.334.225 2.582-1.345 4.851-2.307 6.986-2.892.856-.214 1.441-1.004 1.395-1.885-.007-.181-.012-.365-.011-.552l.005-.151c.078-3.089 1.682-5.458 3.583-5.297s3.38 2.792 3.307 5.88c-.002.056-.004.111-.006.167-.037.874.544 1.654 1.391 1.87 2.123.587 4.378 1.551 6.941 2.888.443.226.981.137 1.329-.219.347-.356.422-.896.186-1.334-.011-.028-.026-.055-.041-.082-.091-.168-.216-.316-.367-.434-1.153-.918-3.658-3.019-6.092-4.414-.116-.057-.17-.192-.126-.312.045-.121.173-.189.298-.158.587.164 1.182.357 1.741.559.382.143.812.034 1.081-.272.268-.306.32-.747.128-1.106-4.977-9.233-7.626-15.027-8.912-18.077z" fill-rule="nonzero" transform="matrix(3.93115 0 0 3.93115 62.6631 64.726)"/></svg>