<?xml version="1.0" encoding="utf-8"?>
<svg clip-rule="evenodd" fill-rule="evenodd" stroke-linejoin="round" stroke-miterlimit="2" viewBox="0 0 48 48" xmlns="http://www.w3.org/2000/svg">
  <path fill="rgb(140, 220, 60)" d="M 44.493 22.269 C 45.873 23.788 46.65 25.778 46.65 27.857 L 46.65 38.39 C 46.65 41.152 44.412 43.39 41.65 43.39 L 6.35 43.39 C 5.023 43.39 3.751 42.863 2.815 41.926 C 1.877 40.988 1.35 39.716 1.35 38.39 L 1.35 9.56 C 1.35 8.233 1.877 6.962 2.815 6.024 C 3.751 5.087 5.023 4.56 6.35 4.56 L 19.47 4.56 C 21.415 4.56 23.3 5.241 24.795 6.486 L 25.085 6.716 L 39.494 6.716 C 42.255 6.716 44.493 8.955 44.493 11.716 Z M 40.824 24.86 L 21.96 9.878 C 21.259 9.298 20.38 8.98 19.47 8.98 L 8.533 8.98 C 7.8 8.98 7.098 9.272 6.579 9.79 C 6.061 10.307 5.77 11.01 5.77 11.742 L 5.77 36.206 C 5.77 36.939 6.061 37.642 6.579 38.158 C 7.098 38.676 7.8 38.968 8.533 38.968 L 39.467 38.968 C 40.2 38.968 40.902 38.676 41.42 38.16 C 41.939 37.642 42.229 36.939 42.229 36.206 L 42.229 27.857 C 42.229 26.707 41.722 25.616 40.842 24.875 Z M 19.585 36.123 C 18.799 36.123 18.139 35.857 17.609 35.324 C 17.078 34.791 16.811 34.139 16.811 33.364 C 16.811 32.829 16.934 32.346 17.178 31.915 C 17.422 31.484 17.766 31.148 18.209 30.906 L 18.209 24.469 C 17.766 24.235 17.422 23.909 17.178 23.491 C 16.934 23.071 16.811 22.616 16.811 22.124 C 16.811 21.326 17.079 20.657 17.611 20.114 C 18.145 19.571 18.805 19.299 19.591 19.299 C 20.377 19.299 21.036 19.574 21.567 20.124 C 22.099 20.673 22.365 21.333 22.365 22.104 C 22.365 22.598 22.237 23.06 21.98 23.489 C 21.724 23.917 21.387 24.244 20.967 24.469 L 20.967 27.314 L 27.254 25.742 L 27.254 24.469 C 26.835 24.244 26.497 23.917 26.241 23.489 C 25.985 23.06 25.857 22.604 25.857 22.121 C 25.857 21.336 26.124 20.669 26.657 20.122 C 27.19 19.573 27.85 19.299 28.636 19.299 C 29.422 19.299 30.087 19.574 30.63 20.124 C 31.173 20.673 31.445 21.333 31.445 22.104 C 31.445 22.598 31.317 23.06 31.06 23.489 C 30.804 23.917 30.467 24.244 30.047 24.469 L 30.047 25.393 C 30.047 26.107 29.847 26.769 29.447 27.378 C 29.047 27.988 28.503 28.362 27.812 28.502 L 20.967 30.136 L 20.967 30.92 C 21.387 31.141 21.724 31.471 21.98 31.907 C 22.237 32.343 22.365 32.823 22.365 33.349 C 22.365 34.136 22.097 34.795 21.565 35.327 C 21.031 35.858 20.371 36.123 19.585 36.123 Z"/>
</svg>