<svg clip-rule="evenodd" fill-rule="evenodd" stroke-linejoin="round" stroke-miterlimit="2" viewBox="0 0 245 210" xmlns="http://www.w3.org/2000/svg"><path d="m7.144 3.567h7.776c1.298 0 2.556.471 3.554 1.331l12.589 10.352c1.267 1.093 2 2.712 2 4.419v6.263c0 1.186-.455 2.324-1.265 3.162-.81.839-1.909 1.311-3.055 1.311h-21.599c-1.146 0-2.244-.472-3.055-1.311-.81-.838-1.265-1.976-1.265-3.162v-17.892c0-1.187.455-2.324 1.265-3.163.811-.839 1.909-1.31 3.055-1.31zm0 2.226c-.575 0-1.127.237-1.534.658-.407.422-.636.993-.636 1.589v17.892c0 .595.229 1.167.636 1.588s.959.658 1.534.658h21.599c.576 0 1.128-.237 1.535-.658s.635-.993.635-1.588v-6.263c0-1.046-.449-2.038-1.226-2.708l-12.589-10.352c-.612-.527-1.382-.816-2.178-.816zm.285 3.491c-.56 0-1.015-.448-1.015-1s.455-1 1.015-1h7.043c.56 0 1.014.448 1.014 1s-.454 1-1.014 1zm15.719-2.401c-.33-.269-.459-.726-.322-1.137.138-.412.513-.688.933-.688h6.013c.491 0 .962.202 1.309.561.347.36.542.847.542 1.356v4.712c0 .391-.216.748-.556.919s-.745.126-1.042-.116z" transform="matrix(8.10206 0 0 7.82482 -22.8811 -27.9099)"/><path d="m343-533 83-83-59-58-29 27c-6.667 7.333-14.167 10.667-22.5 10s-15.833-4-22.5-10c-6-6.667-9-14.333-9-23s3-16 9-22l29-29-68-66-82 84zm360 362 83-84-69-68-28 29c-6.667 6-14.333 9-23 9s-16-3.333-22-10c-6.667-6.667-10-14.333-10-23s3.333-16.333 10-23l28-28-58-59-84 84zm-568.89 83.89c-13.334 0-24.5-4.5-33.5-13.5s-13.5-20.166-13.5-33.5v-124c0-6.666 1-12.666 3-18 2-5.333 5.333-10.333 10-15l183.89-183.89-179-178c-14-14.667-21-31.667-21-51s7-36.333 21-51l98-99c14-14.667 30.667-22 50-22s36.333 7 51 21l181 181 172-172c6.667-6.667 14.167-11.667 22.5-15s16.833-5 25.5-5 17.167 1.667 25.5 5 15.833 8.333 22.5 15l93 92c6.667 6.667 11.667 14.167 15 22.5s5 16.833 5 25.5c0 9.333-1.667 18.167-5 26.5s-8.333 15.833-15 22.5l-172 171 181 181c14 14.667 21 31.667 21 51s-7 36-21 50l-98 98c-14.667 14-31.667 21-51 21s-36.333-7-51-21l-181-181-184.89 185.89c-4.667 4.667-9.667 8.167-15 10.5-5.334 2.334-11 3.5-17 3.5zm36-83h71l367.89-369.89-70-71-368.89 368.89zm403.89-405.89-35-35 70 71z" fill-rule="nonzero" transform="matrix(.13279 0 0 .13279 58.7609 191.821)"/></svg>