<?xml version="1.0" encoding="utf-8"?>
<svg clip-rule="evenodd" fill-rule="evenodd" stroke-linejoin="round" stroke-miterlimit="2" viewBox="0 0 48 48" xmlns="http://www.w3.org/2000/svg">
  <path d="M 44.493 22.294 C 45.873 23.813 46.65 25.803 46.65 27.882 L 46.65 38.415 C 46.65 41.177 44.412 43.415 41.65 43.415 L 6.35 43.415 C 5.023 43.415 3.751 42.888 2.815 41.951 C 1.877 41.013 1.35 39.741 1.35 38.415 L 1.35 9.585 C 1.35 8.258 1.877 6.987 2.815 6.049 C 3.751 5.112 5.023 4.585 6.35 4.585 L 19.47 4.585 C 21.415 4.585 23.3 5.266 24.795 6.511 L 25.085 6.741 L 39.494 6.741 C 42.255 6.741 44.493 8.98 44.493 11.741 Z M 40.824 24.885 L 21.96 9.903 C 21.259 9.323 20.38 9.005 19.47 9.005 L 8.533 9.005 C 7.8 9.005 7.098 9.297 6.579 9.815 C 6.061 10.332 5.77 11.035 5.77 11.767 L 5.77 36.231 C 5.77 36.964 6.061 37.667 6.579 38.183 C 7.098 38.701 7.8 38.993 8.533 38.993 L 39.467 38.993 C 40.2 38.993 40.902 38.701 41.42 38.185 C 41.939 37.667 42.229 36.964 42.229 36.231 L 42.229 27.882 C 42.229 26.732 41.722 25.641 40.842 24.9 Z M 31.43 27.371 L 31.43 33.665 C 31.588 33.741 31.643 33.729 31.839 33.94 C 32.034 34.151 32.193 34.529 32.193 34.844 C 32.193 35.174 32.017 35.57 31.804 35.783 C 31.592 35.996 31.196 36.15 30.865 36.172 L 17.127 36.172 C 16.796 36.15 16.4 35.996 16.187 35.783 C 15.974 35.57 15.798 35.175 15.798 34.844 C 15.798 34.529 15.958 34.15 16.153 33.94 C 16.348 33.729 16.4 33.734 16.561 33.66 L 16.561 27.371 L 16.423 27.371 C 16.092 27.349 15.697 27.195 15.483 26.983 C 15.27 26.77 15.116 26.374 15.094 26.043 L 15.096 23.608 C 15.108 23.367 15.191 23.066 15.317 22.875 C 15.443 22.685 15.696 22.487 15.912 22.383 L 23.476 19.32 C 23.781 19.212 24.202 19.209 24.507 19.316 L 32.097 22.386 C 32.316 22.491 32.561 22.686 32.687 22.878 C 32.813 23.069 32.895 23.372 32.906 23.614 L 32.898 26.048 C 32.875 26.379 32.719 26.773 32.506 26.984 C 32.293 27.196 31.899 27.349 31.569 27.371 Z M 23.064 23.56 C 23.064 24.074 23.482 24.491 23.996 24.491 C 24.51 24.491 24.927 24.074 24.927 23.56 C 24.927 23.046 24.51 22.628 23.996 22.628 C 23.482 22.628 23.064 23.046 23.064 23.56 Z M 27.819 28.653 L 27.819 32.962 C 27.825 33.17 27.896 33.344 28.039 33.497 C 28.194 33.629 28.402 33.725 28.583 33.725 C 28.799 33.725 29.033 33.637 29.18 33.477 C 29.326 33.338 29.408 33.117 29.424 32.891 L 29.424 27.567 C 29.405 27.335 29.31 27.108 29.177 26.968 C 29.038 26.835 28.823 26.74 28.589 26.721 L 19.414 26.721 C 19.181 26.74 18.954 26.835 18.815 26.968 C 18.682 27.107 18.587 27.322 18.568 27.556 L 18.568 32.882 C 18.584 33.109 18.656 33.34 18.812 33.477 C 18.959 33.631 19.193 33.725 19.408 33.725 C 19.582 33.725 19.776 33.655 19.947 33.505 C 19.951 33.502 19.954 33.498 19.958 33.493 C 20.08 33.345 20.167 33.134 20.173 32.925 L 20.172 28.653 C 20.174 28.647 20.175 28.641 20.176 28.635 C 20.219 28.29 20.304 28.088 20.393 28.004 C 20.551 27.861 20.719 27.772 20.943 27.772 C 21.169 27.772 21.335 27.861 21.491 28.001 C 21.576 28.085 21.666 28.291 21.709 28.635 C 21.71 28.641 21.711 28.647 21.713 28.653 L 21.713 32.963 C 21.732 33.174 21.819 33.38 21.936 33.504 C 22.066 33.628 22.27 33.725 22.469 33.725 C 22.668 33.725 22.872 33.628 23.002 33.504 C 23.12 33.38 23.206 33.186 23.225 32.975 L 23.225 28.653 C 23.227 28.647 23.228 28.641 23.229 28.635 C 23.272 28.29 23.357 28.084 23.444 28.004 C 23.602 27.864 23.773 27.772 23.996 27.772 C 24.222 27.772 24.388 27.86 24.544 28.001 C 24.629 28.085 24.719 28.291 24.762 28.635 C 24.763 28.641 24.764 28.647 24.766 28.653 L 24.766 32.963 C 24.785 33.174 24.872 33.38 24.989 33.504 C 25.119 33.628 25.323 33.725 25.522 33.725 C 25.714 33.725 25.929 33.643 26.062 33.499 C 26.191 33.372 26.263 33.178 26.278 32.974 L 26.278 28.653 C 26.28 28.647 26.281 28.641 26.282 28.635 C 26.325 28.29 26.41 28.088 26.499 28.004 C 26.657 27.861 26.825 27.772 27.049 27.772 C 27.275 27.772 27.441 27.86 27.597 28.001 C 27.682 28.085 27.772 28.291 27.815 28.635 C 27.816 28.641 27.817 28.647 27.819 28.653 Z"/>
</svg>