<svg clip-rule="evenodd" fill-rule="evenodd" stroke-linejoin="round" stroke-miterlimit="2" viewBox="0 0 48 48" xmlns="http://www.w3.org/2000/svg"><path d="m31.623 15.807c.921 1.05 1.44 2.425 1.44 3.862v7.28c0 1.909-1.494 3.456-3.338 3.456h-23.563c-.886 0-1.735-.364-2.36-1.012-.626-.648-.978-1.527-.978-2.444v-19.926c0-.917.352-1.796.978-2.444.625-.648 1.474-1.012 2.36-1.012h8.758c1.298 0 2.556.471 3.554 1.331l.194.159h9.618c1.843 0 3.337 1.548 3.337 3.456zm-2.449 1.791-12.592-10.355c-.468-.401-1.055-.621-1.662-.621h-7.301c-.489 0-.958.202-1.304.56-.346.357-.54.843-.54 1.349v16.909c0 .506.194.992.54 1.349.346.358.815.56 1.304.56h20.649c.489 0 .958-.202 1.304-.559.346-.358.54-.844.54-1.35v-5.771c0-.795-.339-1.549-.926-2.061z" transform="matrix(1.19143 0 0 1.15067 6.20176 .983348)"/><path d="m105-95c-26.48 0-48.933-9.203-67.36-27.61s-27.64-40.537-27.64-66.39v-555.756c0-13.167 4.56-24.293 13.68-33.38 9.113-9.08 20.25-13.62 33.41-13.62 13.153 0 24.427 4.54 33.82 13.62 9.393 9.087 14.09 20.213 14.09 33.38v555.756h760.837c13.087 0 24.357 4.56 33.81 13.68 9.46 9.113 14.19 20.28 14.19 33.5 0 13.213-4.73 24.32-14.19 33.32-9.453 9-20.723 13.5-33.81 13.5zm60-716c0-26.127 0 493.487 0 467z" fill-rule="nonzero" transform="matrix(.0418084 0 0 .0418084 2.70326 46.7437)"/></svg>