<?xml version="1.0" encoding="utf-8"?>
<svg clip-rule="evenodd" fill-rule="evenodd" stroke-linejoin="round" stroke-miterlimit="2" viewBox="0 0 48 48" xmlns="http://www.w3.org/2000/svg">
  <path d="M 44.493 22.269 C 45.873 23.788 46.65 25.778 46.65 27.857 L 46.65 38.39 C 46.65 41.152 44.412 43.39 41.65 43.39 L 6.35 43.39 C 5.023 43.39 3.751 42.863 2.815 41.926 C 1.877 40.988 1.35 39.716 1.35 38.39 L 1.35 9.56 C 1.35 8.233 1.877 6.962 2.815 6.024 C 3.751 5.087 5.023 4.56 6.35 4.56 L 19.47 4.56 C 21.415 4.56 23.3 5.241 24.795 6.486 L 25.085 6.716 L 39.494 6.716 C 42.255 6.716 44.493 8.955 44.493 11.716 Z M 40.824 24.86 L 21.96 9.878 C 21.259 9.298 20.38 8.98 19.47 8.98 L 8.533 8.98 C 7.8 8.98 7.098 9.272 6.579 9.79 C 6.061 10.307 5.77 11.01 5.77 11.742 L 5.77 36.206 C 5.77 36.939 6.061 37.642 6.579 38.158 C 7.098 38.676 7.8 38.968 8.533 38.968 L 39.467 38.968 C 40.2 38.968 40.902 38.676 41.42 38.16 C 41.939 37.642 42.229 36.939 42.229 36.206 L 42.229 27.857 C 42.229 26.707 41.722 25.616 40.842 24.875 Z M 22.693 30.223 C 22.554 30.008 22.482 29.662 22.524 29.408 C 22.52 29.423 22.516 29.438 22.513 29.454 L 22.839 27.499 C 22.662 27.355 22.561 27.282 22.374 27.017 C 22.175 26.735 22.05 26.335 22.05 25.981 C 22.05 25.482 22.281 24.963 22.614 24.603 C 22.974 24.271 23.493 24.041 23.991 24.041 C 24.49 24.041 25.009 24.273 25.369 24.604 C 25.701 24.964 25.931 25.482 25.931 25.981 C 25.931 26.335 25.796 26.727 25.607 27.017 C 25.415 27.279 25.321 27.353 25.144 27.495 L 25.486 29.452 C 25.507 29.695 25.423 30.02 25.287 30.224 C 25.108 30.404 24.795 30.552 24.54 30.575 L 23.441 30.575 C 23.186 30.552 22.872 30.404 22.693 30.223 Z M 22.513 29.454 L 22.512 29.462 C 22.512 29.459 22.513 29.457 22.513 29.454 Z M 23.991 36.147 C 23.86 36.147 23.712 36.131 23.592 36.108 C 23.47 36.083 23.353 36.045 23.247 36.002 C 21.352 35.368 19.791 34.152 18.654 32.441 C 17.544 30.727 16.963 28.824 16.952 26.87 L 16.952 23.29 C 16.962 22.836 17.107 22.349 17.345 21.968 C 17.607 21.595 18.005 21.281 18.433 21.116 L 23.189 19.335 C 23.434 19.247 23.731 19.189 23.991 19.189 C 24.25 19.189 24.546 19.247 24.791 19.335 L 29.539 21.112 C 29.966 21.276 30.376 21.594 30.644 21.965 C 30.887 22.346 31.037 22.834 31.048 23.29 L 31.048 26.87 C 31.037 28.824 30.453 30.728 29.336 32.442 C 28.194 34.152 26.621 35.366 24.734 36.002 C 24.628 36.045 24.511 36.083 24.389 36.108 C 24.269 36.131 24.121 36.147 23.991 36.147 Z M 23.991 33.384 C 25.228 32.874 26.16 32.131 27.001 30.907 C 27.858 29.7 28.259 28.404 28.248 26.878 L 28.248 23.635 L 23.991 22.024 L 19.734 23.644 L 19.734 26.869 C 19.723 28.401 20.123 29.7 20.979 30.907 C 21.821 32.131 22.753 32.874 23.991 33.384 Z"/>
</svg>