<?xml version="1.0" encoding="utf-8"?>
<svg clip-rule="evenodd" fill-rule="evenodd" stroke-linejoin="round" stroke-miterlimit="2" viewBox="0 0 48 48" xmlns="http://www.w3.org/2000/svg">
  <path d="M 44.493 22.269 C 45.873 23.788 46.65 25.778 46.65 27.857 L 46.65 38.39 C 46.65 41.152 44.412 43.39 41.65 43.39 L 6.35 43.39 C 5.023 43.39 3.751 42.863 2.815 41.926 C 1.877 40.988 1.35 39.716 1.35 38.39 L 1.35 9.56 C 1.35 8.233 1.877 6.962 2.815 6.024 C 3.751 5.087 5.023 4.56 6.35 4.56 L 19.47 4.56 C 21.415 4.56 23.3 5.241 24.795 6.486 L 25.085 6.716 L 39.494 6.716 C 42.255 6.716 44.493 8.955 44.493 11.716 Z M 40.824 24.86 L 21.96 9.878 C 21.259 9.298 20.38 8.98 19.47 8.98 L 8.533 8.98 C 7.8 8.98 7.098 9.272 6.579 9.79 C 6.061 10.307 5.77 11.01 5.77 11.742 L 5.77 36.206 C 5.77 36.939 6.061 37.642 6.579 38.158 C 7.098 38.676 7.8 38.968 8.533 38.968 L 39.467 38.968 C 40.2 38.968 40.902 38.676 41.42 38.16 C 41.939 37.642 42.229 36.939 42.229 36.206 L 42.229 27.857 C 42.229 26.707 41.722 25.616 40.842 24.875 Z M 30.009 33.215 L 30.009 34.814 C 29.991 35.148 29.836 35.525 29.623 35.768 C 29.38 35.98 29.005 36.147 28.672 36.147 C 28.358 36.147 27.991 35.98 27.747 35.773 C 27.524 35.531 27.363 35.153 27.343 34.814 L 27.343 33.215 L 25.745 33.215 C 25.43 33.196 25.055 33.062 24.821 32.842 C 24.58 32.615 24.411 32.218 24.411 31.878 C 24.411 31.557 24.592 31.186 24.813 30.943 C 25.057 30.726 25.425 30.57 25.745 30.549 L 27.343 30.549 L 27.343 28.951 C 27.364 28.631 27.523 28.26 27.744 28.015 C 27.992 27.795 28.368 27.617 28.697 27.617 C 29.028 27.617 29.406 27.805 29.644 28.032 C 29.847 28.276 29.991 28.638 30.009 28.951 L 30.009 30.549 L 31.608 30.549 C 31.948 30.569 32.329 30.735 32.571 30.963 C 32.778 31.21 32.941 31.58 32.941 31.903 C 32.941 32.228 32.768 32.599 32.556 32.838 C 32.313 33.049 31.94 33.198 31.608 33.215 Z M 31.108 23.753 L 26.244 23.753 C 25.932 23.735 25.569 23.589 25.322 23.381 C 25.094 23.137 24.911 22.755 24.911 22.416 C 24.911 22.078 25.097 21.693 25.327 21.45 C 25.57 21.25 25.931 21.106 26.244 21.087 L 31.108 21.087 C 31.44 21.104 31.818 21.258 32.061 21.473 C 32.272 21.714 32.442 22.089 32.442 22.424 C 32.442 22.759 32.27 23.136 32.057 23.375 C 31.813 23.587 31.438 23.736 31.108 23.753 Z M 19.38 24.46 L 18.333 25.507 C 18.098 25.75 17.716 25.952 17.375 25.952 C 17.043 25.952 16.655 25.768 16.397 25.541 C 16.185 25.301 16.016 24.931 16.016 24.607 C 16.016 24.29 16.196 23.891 16.395 23.632 L 17.475 22.553 L 16.407 21.485 C 16.19 21.25 16.016 20.876 16.016 20.548 C 16.016 20.228 16.168 19.856 16.368 19.598 C 16.386 19.577 16.404 19.559 16.425 19.541 C 16.683 19.341 17.055 19.189 17.375 19.189 C 17.703 19.189 18.067 19.353 18.303 19.569 L 19.38 20.648 L 20.475 19.554 C 20.726 19.348 21.099 19.189 21.424 19.189 C 21.752 19.189 22.131 19.362 22.372 19.574 C 22.6 19.833 22.779 20.216 22.779 20.548 C 22.779 20.889 22.611 21.24 22.367 21.474 L 21.287 22.553 L 22.361 23.627 C 22.594 23.879 22.779 24.263 22.779 24.602 C 22.779 24.947 22.595 25.299 22.367 25.537 C 22.131 25.764 21.781 25.952 21.441 25.952 C 21.108 25.952 20.719 25.766 20.459 25.54 Z M 21.814 35.112 L 16.749 35.112 C 16.441 35.091 16.083 34.941 15.845 34.733 C 15.624 34.489 15.449 34.109 15.449 33.775 C 15.449 33.461 15.619 33.095 15.83 32.857 C 16.067 32.648 16.433 32.498 16.749 32.48 L 21.847 32.48 C 22.17 32.498 22.541 32.651 22.778 32.864 C 22.983 33.104 23.146 33.47 23.146 33.791 C 23.146 34.117 22.976 34.487 22.764 34.727 C 22.523 34.941 22.146 35.094 21.814 35.112 Z M 21.814 31.194 L 16.782 31.194 C 16.469 31.175 16.094 31.041 15.861 30.822 C 15.617 30.594 15.449 30.196 15.449 29.857 C 15.449 29.538 15.629 29.166 15.852 28.921 C 16.096 28.704 16.464 28.549 16.782 28.528 L 21.814 28.528 C 22.151 28.548 22.55 28.698 22.776 28.942 C 22.995 29.177 23.146 29.559 23.146 29.881 C 23.146 30.208 22.988 30.591 22.762 30.816 C 22.534 31.043 22.143 31.177 21.814 31.194 Z"/>
</svg>