<svg fill="white" width="100%" height="100%" viewBox="0 0 245 210" version="1.1" xmlns="http://www.w3.org/2000/svg" xmlns:xlink="http://www.w3.org/1999/xlink" xml:space="preserve" xmlns:serif="http://www.serif.com/" style="fill-rule:evenodd;clip-rule:evenodd;stroke-linejoin:round;stroke-miterlimit:2;">
    <g transform="matrix(8.10206,0,0,7.82482,-22.8811,-27.9099)">
        <path d="M7.144,3.567L14.92,3.567C16.218,3.567 17.476,4.038 18.474,4.898L31.063,15.25C32.33,16.343 33.063,17.962 33.063,19.669L33.063,25.932C33.063,27.118 32.608,28.256 31.798,29.094C30.988,29.933 29.889,30.405 28.743,30.405L7.144,30.405C5.998,30.405 4.9,29.933 4.089,29.094C3.279,28.256 2.824,27.118 2.824,25.932L2.824,8.04C2.824,6.853 3.279,5.716 4.089,4.877C4.9,4.038 5.998,3.567 7.144,3.567ZM7.144,5.793C6.569,5.793 6.017,6.03 5.61,6.451C5.203,6.873 4.974,7.444 4.974,8.04L4.974,25.932C4.974,26.527 5.203,27.099 5.61,27.52C6.017,27.941 6.569,28.178 7.144,28.178L28.743,28.178C29.319,28.178 29.871,27.941 30.278,27.52C30.685,27.099 30.913,26.527 30.913,25.932L30.913,19.669C30.913,18.623 30.464,17.631 29.687,16.961L17.098,6.609C16.486,6.082 15.716,5.793 14.92,5.793L7.144,5.793ZM7.429,9.284C6.869,9.284 6.414,8.836 6.414,8.284C6.414,7.732 6.869,7.284 7.429,7.284L14.472,7.284C15.032,7.284 15.486,7.732 15.486,8.284C15.486,8.836 15.032,9.284 14.472,9.284L7.429,9.284ZM23.148,6.883C22.818,6.614 22.689,6.157 22.826,5.746C22.964,5.334 23.339,5.058 23.759,5.058L29.772,5.058C30.263,5.058 30.734,5.26 31.081,5.619C31.428,5.979 31.623,6.466 31.623,6.975L31.623,11.687C31.623,12.078 31.407,12.435 31.067,12.606C30.727,12.777 30.322,12.732 30.025,12.49L23.148,6.883Z"/>
    </g>
    <g transform="matrix(3.82742,0,0,3.82742,76.5709,68.0715)">
        <path d="M12.742,2.243L14.225,3.696L16.236,3.179C16.795,3.035 17.366,3.365 17.521,3.921L18.079,5.921L20.079,6.479C20.635,6.634 20.965,7.205 20.821,7.764L20.304,9.775L21.757,11.258C22.161,11.67 22.161,12.33 21.757,12.742L20.304,14.225L20.821,16.236C20.965,16.795 20.635,17.366 20.079,17.521L18.079,18.079L17.521,20.079C17.366,20.635 16.795,20.965 16.236,20.821L14.225,20.304L12.742,21.757C12.33,22.161 11.67,22.161 11.258,21.757L9.775,20.304L7.764,20.821C7.205,20.965 6.634,20.635 6.479,20.079L5.921,18.079L3.921,17.521C3.365,17.366 3.035,16.795 3.179,16.236L3.696,14.225L2.243,12.742C1.839,12.33 1.839,11.67 2.243,11.258L3.696,9.775L3.179,7.764C3.035,7.205 3.365,6.634 3.921,6.479L5.921,5.921L6.479,3.921C6.634,3.365 7.205,3.035 7.764,3.179L9.775,3.696L11.258,2.243C11.67,1.839 12.33,1.839 12.742,2.243ZM12,4.484L10.832,5.629C10.567,5.889 10.185,5.991 9.826,5.898L8.242,5.491L7.803,7.066C7.703,7.424 7.424,7.703 7.066,7.803L5.491,8.242L5.898,9.826C5.991,10.185 5.889,10.567 5.629,10.832L4.484,12L5.629,13.168C5.889,13.433 5.991,13.815 5.898,14.174L5.491,15.758L7.066,16.197C7.424,16.297 7.703,16.576 7.803,16.934L8.242,18.509L9.826,18.102C10.185,18.009 10.567,18.111 10.832,18.371L12,19.516L13.168,18.371C13.433,18.111 13.815,18.009 14.174,18.102L15.758,18.509L16.197,16.934C16.297,16.576 16.576,16.297 16.934,16.197L18.509,15.758L18.102,14.174C18.009,13.815 18.111,13.433 18.371,13.168L19.516,12L18.371,10.832C18.111,10.567 18.009,10.185 18.102,9.826L18.509,8.242L16.934,7.803C16.576,7.703 16.297,7.424 16.197,7.066L15.758,5.491L14.174,5.898C13.815,5.991 13.433,5.889 13.168,5.629L12,4.484ZM8.25,12.75C7.836,12.336 7.836,11.664 8.25,11.25C8.664,10.836 9.336,10.836 9.75,11.25L11,12.501L14.25,9.25C14.664,8.836 15.336,8.836 15.75,9.25C16.164,9.664 16.164,10.336 15.75,10.75L11.75,14.75C11.336,15.164 10.664,15.164 10.25,14.75L8.25,12.75ZM14.904,22.18C15.179,22.156 15.452,22.249 15.656,22.436C15.86,22.624 15.976,22.888 15.976,23.164L15.976,27.558C15.976,29.077 14.225,29.929 13.03,28.992L12,28.22L10.97,28.992C9.775,29.929 8.024,29.077 8.024,27.558L8.024,23.164C8.024,22.888 8.14,22.624 8.344,22.436C8.547,22.249 8.82,22.156 9.096,22.18L9.15,22.184C9.628,22.225 9.995,22.624 9.995,23.104L9.995,27.256L11.544,26.068C11.813,25.862 12.187,25.862 12.456,26.068L14.005,27.256L14.005,23.157C14.005,22.648 14.396,22.223 14.904,22.18Z"/>
    </g>
</svg>
