<svg fill="white" clip-rule="evenodd" fill-rule="evenodd" stroke-linejoin="round" stroke-miterlimit="2" viewBox="0 0 48 48" xmlns="http://www.w3.org/2000/svg"><path d="m31.623 15.807c.921 1.05 1.44 2.425 1.44 3.862v7.28c0 1.909-1.494 3.456-3.338 3.456h-23.563c-.886 0-1.735-.364-2.36-1.012-.626-.648-.978-1.527-.978-2.444v-19.926c0-.917.352-1.796.978-2.444.625-.648 1.474-1.012 2.36-1.012h8.758c1.298 0 2.556.471 3.554 1.331l.194.159h9.618c1.843 0 3.337 1.548 3.337 3.456zm-2.449 1.791-12.592-10.355c-.468-.401-1.055-.621-1.662-.621h-7.301c-.489 0-.958.202-1.304.56-.346.357-.54.843-.54 1.349v16.909c0 .506.194.992.54 1.349.346.358.815.56 1.304.56h20.649c.489 0 .958-.202 1.304-.559.346-.358.54-.844.54-1.35v-5.771c0-.795-.339-1.549-.926-2.061z" transform="matrix(1.49809 0 0 1.44683 -2.88106 -.60089)"/><path d="m311-438-24-24c-7.333-7.333-15.873-10.973-25.62-10.92s-18.403 3.72-25.97 11c-6.94 7.28-10.41 15.587-10.41 24.92s3.667 17.667 11 25l42 42c9.633 9.333 20.877 14 33.73 14 12.847 0 23.937-4.667 33.27-14l115-116c7.333-7.047 11-15.71 11-25.99s-3.683-18.853-11.05-25.72c-7.373-6.86-15.873-10.29-25.5-10.29-9.633 0-18.117 3.667-25.45 11zm327-63-31-31c-7.673-8-16.257-12-25.75-12s-18.073 4-25.74 12c-7.673 7.333-11.51 15.667-11.51 25s4 17.667 12 25l32 31-32 32c-8 7.607-12 15.94-12 25s4 17.393 12 25c7.513 7.333 15.89 11 25.13 11 9.247 0 17.87-3.667 25.87-11l31-31 31 31c7.513 7.333 15.89 11 25.13 11 9.247 0 17.703-3.667 25.37-11s11.5-15.667 11.5-25-3.667-17.667-11-25l-32-32 32-31c7.333-7.333 11-15.667 11-25s-3.78-17.667-11.34-25c-7.567-8-16.01-12-25.33-12-9.327 0-17.77 4-25.33 12z" fill-rule="nonzero" transform="matrix(.0547244 0 0 .0547244 -2.15835 53.989)"/></svg>