<svg clip-rule="evenodd" fill-rule="evenodd" stroke-linejoin="round" stroke-miterlimit="2" viewBox="0 0 48 48" xmlns="http://www.w3.org/2000/svg">
  <defs>
    <style type="text/css" id="current-color-scheme">.ColorScheme-Highlight { color:#aaaaaa; }</style>
  </defs><path class="ColorScheme-Highlight" fill="currentColor" d="m23.772 42.597h-.006c-.698 0-1.345-.099-1.909-.307-1.333-.487-2.18-1.48-2.425-2.77-.136-.034-.327-.078-.498-.109-.982-.177-2.179-.465-3.079-1.426-1.408-1.475-.928-3.036-.247-4.121-.516-.181-1.055-.356-1.479-.496-2.6-.859-4.206-1.52-5.019-2.364-.68-.697-.964-1.603-.808-2.524.1-.589.362-1.095.756-1.537-1.14-.332-2.239-.715-3.085-1.263-.929-.601-1.592-1.39-1.874-2.432v-.002c-.249-.927-.13-1.833.217-2.676.422-1.027 1.206-1.955 1.895-2.656l12.889-13.426.015-.015c1.253-1.265 2.935-1.96 4.707-1.94h.025c1.721 0 3.388.662 4.666 1.872l.044.043 13.405 13.95c1.75 1.783 2.321 3.573 1.935 5.224-.298 1.287-1.137 2.334-2.355 3.185-1.484 1.036-3.579 1.789-5.638 2.509l-.428.149.111.114c.851.905 1.275 2.028.728 3.418-.947 2.448-2.684 2.993-4.266 3.418-.29.078-.586.153-.887.259.127.26.218.551.259.88.084.664.006 1.682-1.111 2.651l-.015.012c-1.568 1.32-4.315 2.38-6.523 2.38.146 0 .136-.001 0 0zm4.712-31.081-3.453-3.594c-.322-.289-.763-.453-1.223-.453h-.057c-.421 0-.822.165-1.114.457l-6.855 7.139 2.77.01 1.372-3.018c.321-.71 1.052-1.142 1.832-1.061.77.075 1.411.628 1.595 1.379l.549 2.238 1.351-.869c.524-.337 1.177-.378 1.741-.126l.1-.619c.104-.643.548-1.183 1.16-1.413.076-.029.153-.052.232-.07zm-16.185 7.177-2.545 2.651-.012.012c-.148.151-.278.298-.389.433.612.219 1.455.512 1.913.637 1.486.405 3.016.849 4.121 1.563l.013.008c1.316.873 1.349 2.068 1.32 2.535-.054.869-.459 1.548-1.137 2.109l.088.029c2.539.839 4.105 1.48 4.901 2.291l.011.011c1.313 1.369 1.028 2.795.45 3.857 1.14.35 2.384 1.057 2.996 2.777.279-.048.657-.121 1.053-.223-.039-.124-.071-.253-.094-.39l-.001-.005c-.106-.638-.094-1.628.886-2.634 1.539-1.58 3.036-2.178 4.245-2.536-.254-.165-.49-.336-.695-.519-.626-.559-1.017-1.228-1.071-2.073-.048-.573.057-1.665 1.24-2.518l.004-.004c1.09-.779 2.826-1.412 4.669-2.057 1.222-.427 2.82-.978 3.958-1.604.255-.14.549-.364.727-.507-.13-.185-.338-.475-.481-.636-.028-.024-.055-.05-.081-.077l-5.294-5.51-.094.14c-.28.427-.74.719-1.252.793-.492.077-1.027-.071-1.424-.396l-.004-.003-.143-.12-.002.011c-.093.583-.466 1.085-.998 1.345-.534.261-1.155.246-1.674-.046l-1.19-.652-2.587 1.663c-.294.189-.625.285-.96.29l-.029.006c-.221 0-.447-.045-.661-.124l-.013-.006c-.48-.191-.853-.576-1.031-1.052-.337.35-.805.557-1.309.557h-.007z"/><path class="ColorScheme-Highlight" fill="currentColor" d="m16.15 17.857c-.332 0-.648-.136-.851-.395-.271-.348-.313-.912.205-1.392.117-.108.276-.155.436-.124.743.147 1.094.624 1.168.987.059.289-.04.561-.258.71-.003.003-.01.005-.013.009-.215.141-.457.209-.692.209zm-10.691-.325c-.277 0-.537-.098-.752-.286-.463-.398-.383-.828-.327-.996.183-.545.86-.829 1.412-.862h.029c.485-.022.897.144 1.133.46.103.138.127.32.065.482-.225.569-.732 1.038-1.264 1.166-.1.024-.199.036-.297.036zm12.383-1.923c-.484 0-.974-.09-1.222-.211-.358-.174-.397-.454-.397-.567 0-.042.01-.084.015-.124.157-.615.736-1.05 1.447-1.092.013-.002.026-.003.04-.005.769-.031 1.359.392 1.485 1.05.054.26-.044.515-.26.684-.242.19-.673.263-1.108.263z" fill-rule="nonzero" transform="matrix(2.52091 0 0 2.52091 -3.7302 -3.73006)"/></svg>