<svg clip-rule="evenodd" fill-rule="evenodd" stroke-linejoin="round" stroke-miterlimit="2" viewBox="0 0 48 48" xmlns="http://www.w3.org/2000/svg">
  <defs>
    <style type="text/css" id="current-color-scheme">.ColorScheme-Highlight { color:#aaaaaa; }</style>
  </defs><path class="ColorScheme-Highlight" fill="currentColor" d="m17.48 27.349c.787 0 1.429.654 1.442 1.47 0 .023.001.045.001.068.006.401-.143.787-.414 1.072s-.642.446-1.028.446c-3.358 0-11.319 0-11.319 0-.886 0-1.735-.364-2.36-1.012-.626-.648-.978-1.527-.978-2.444v-19.926c0-.917.352-1.796.978-2.444.625-.648 1.474-1.012 2.36-1.012h8.758c1.298 0 2.556.471 3.554 1.331l.194.159h9.618c1.843 0 3.337 1.548 3.337 3.456v5.434c0 1.042-.575 1.991-1.481 2.445-.905.454-1.981.332-2.77-.314-4.448-3.642-10.79-8.835-10.79-8.835-.468-.401-1.055-.621-1.662-.621h-7.301c-.489 0-.958.202-1.304.56-.346.357-.54.843-.54 1.349v16.909c0 .506.194.992.54 1.349.346.358.815.56 1.304.56z" transform="matrix(1.53077 0 0 1.47839 -2.36519 -1.11193)"/><path class="ColorScheme-Highlight" fill="currentColor" d="m741-45c-9.333 0-17.833-3.167-25.5-9.5s-12.167-14.5-13.5-24.5l-1-18c-14-4-26.667-9.5-38-16.5s-21-14.5-29-22.5l-13 8c-9.313 4.667-18.81 5.167-28.49 1.5-9.673-3.667-17.177-9.833-22.51-18.5l-6-9c-5.333-8.667-7.167-18.167-5.5-28.5s6.833-18.833 15.5-25.5l12-9c-4-10.533-6-22.833-6-36.9s2-26.433 6-37.1l-12-10c-8.667-6.04-13.833-14.26-15.5-24.66-1.667-10.393.167-20.173 5.5-29.34l6-9c5.333-8.667 12.833-14.667 22.5-18s19.167-2.667 28.5 2l13 7c8-6.667 17.667-13.5 29-20.5s24-12.5 38-16.5l1-17.93c1.333-10.047 5.897-18.403 13.69-25.07s16.333-10 25.62-10h11.77c9.067 0 17.273 3.103 24.62 9.31 7.34 6.207 11.773 14.103 13.3 23.69l2 20c14 4 26.667 9.5 38 16.5s21 13.833 29 20.5l12-7c9.333-3.333 18.667-3.667 28-1s17 8.333 23 17l5.93 8.92c6.047 9.073 8.07 18.873 6.07 29.4-2 10.52-7 19.08-15 25.68l-12 9.07c3.393 10.587 5.09 22.943 5.09 37.07 0 14.12-1.697 26.407-5.09 36.86l12 9c8 6.58 13 15.31 15 26.19 2 10.873 0 20.477-6 28.81l-5 9c-5.333 8.667-13.01 14.333-23.03 17-10.013 2.667-19.67 2-28.97-2l-12-7c-8 8-17.667 15.5-29 22.5s-24 12.5-38 16.5l-2.33 18.26c-1.113 9.827-5.33 17.907-12.65 24.24s-15.64 9.5-24.96 9.5zm5.971-128.956c22.235 0 41.134-7.643 56.698-22.929 15.564-15.287 23.346-34.291 23.346-57.015 0-22.718-7.782-41.756-23.346-57.114-15.564-15.353-34.602-23.03-57.115-23.03-22.512 0-41.55 7.677-57.114 23.03-15.564 15.358-23.346 34.396-23.346 57.114 0 22.724 7.807 41.728 23.421 57.015 15.608 15.286 34.761 22.929 57.456 22.929z" transform="matrix(.0435222 0 0 .0435222 4.44258 45.797)"/></svg>