<svg clip-rule="evenodd" fill-rule="evenodd" stroke-linejoin="round" stroke-miterlimit="2" viewBox="0 0 245 210" xmlns="http://www.w3.org/2000/svg"><path d="m7.144 3.567h7.776c1.298 0 2.556.471 3.554 1.331l12.589 10.352c1.267 1.093 2 2.712 2 4.419v6.263c0 1.186-.455 2.324-1.265 3.162-.81.839-1.909 1.311-3.055 1.311h-21.599c-1.146 0-2.244-.472-3.055-1.311-.81-.838-1.265-1.976-1.265-3.162v-17.892c0-1.187.455-2.324 1.265-3.163.811-.839 1.909-1.31 3.055-1.31zm0 2.226c-.575 0-1.127.237-1.534.658-.407.422-.636.993-.636 1.589v17.892c0 .595.229 1.167.636 1.588s.959.658 1.534.658h21.599c.576 0 1.128-.237 1.535-.658s.635-.993.635-1.588v-6.263c0-1.046-.449-2.038-1.226-2.708l-12.589-10.352c-.612-.527-1.382-.816-2.178-.816zm.285 3.491c-.56 0-1.015-.448-1.015-1s.455-1 1.015-1h7.043c.56 0 1.014.448 1.014 1s-.454 1-1.014 1zm15.719-2.401c-.33-.269-.459-.726-.322-1.137.138-.412.513-.688.933-.688h6.013c.491 0 .962.202 1.309.561.347.36.542.847.542 1.356v4.712c0 .391-.216.748-.556.919s-.745.126-1.042-.116z" transform="matrix(8.10206 0 0 7.82482 -22.8811 -27.9099)"/><path d="m777.55-380c9.707-9.333 20.93-14 33.67-14s24 4.667 33.78 14l55 56c9.333 9.453 14 20.483 14 33.09s-4.69 23.743-14.07 33.41-20.487 14.5-33.32 14.5-24.037-5-33.61-15l-55-55c-10-9.42-15-20.61-15-33.57 0-12.953 4.85-24.097 14.55-33.43zm27.45-466.63c9.333 9.58 14 20.803 14 33.67 0 12.86-4.667 23.847-14 32.96l-55 56c-9.82 9.333-21.087 14-33.8 14s-23.78-4.683-33.2-14.05c-10-9.64-15-20.93-15-33.87s5-23.967 15-33.08l55-56c9.633-9.333 20.877-14 33.73-14 12.847 0 23.937 4.79 33.27 14.37zm-649.95.13c9.373-9.667 20.53-14.5 33.47-14.5s24.1 4.667 33.48 14l56 56c9.333 9.633 14 20.877 14 33.73 0 12.847-4.72 23.937-14.16 33.27s-20.493 14-33.16 14c-12.673 0-23.567-4.667-32.68-14l-57-56c-9.333-9.247-14-20.223-14-32.93 0-12.713 4.683-23.903 14.05-33.57zm27.95 466.55c9.333 9.373 14 20.53 14 33.47s-4.667 24.1-14 33.48l-55 55c-9.42 10-20.61 15-33.57 15-12.953 0-24.097-4.78-33.43-14.34s-14-20.617-14-33.17c0-12.547 4.667-23.71 14-33.49l56-56c9.453-9.333 20.483-14 33.09-14s23.577 4.683 32.91 14.05zm178.33 86.85 118.83-72.25 119.84 73.35-32-135 107-94-139.89-12.03-55.11-128.97-53.82 127.92-140.18 13.08 107.43 93.26zm118.67 38.1-166 101c-8.667 6-17.667 8.417-27 7.25s-17.68-4.267-25.04-9.3c-7.353-5.033-12.853-11.783-16.5-20.25-3.64-8.467-4.127-18.033-1.46-28.7l44-189-148-130c-8-6.707-13-14.623-15-23.75s-2-17.95 0-26.47 6.833-15.78 14.5-21.78 16.833-9.333 27.5-10l194.08-17.09 74.92-179.91c3.833-10 9.877-17.333 18.13-22 8.247-4.667 16.787-7 25.62-7s17.443 2.333 25.83 7c8.38 4.667 14.52 12 18.42 22l75.71 180.3 194.29 16.7c10 .667 18.833 4 26.5 10s12.5 13.26 14.5 21.78 2.167 17.353.5 26.5-6.5 17.053-14.5 23.72l-148 130 44 190c2 10 1.15 19.277-2.55 27.83-3.693 8.553-8.87 15.683-15.53 21.39-7.073 5.073-15.33 7.97-24.77 8.69-9.433.727-18.483-1.577-27.15-6.91z" fill-rule="nonzero" transform="matrix(.132635 0 0 .132635 58.7689 197.218)"/></svg>