<?xml version="1.0" encoding="utf-8"?>
<svg clip-rule="evenodd" fill-rule="evenodd" stroke-linejoin="round" stroke-miterlimit="2" viewBox="0 0 245 210" xmlns="http://www.w3.org/2000/svg">
  <path d="M 98.002 0.001 C 108.518 0.001 118.711 3.687 126.796 10.416 L 228.793 91.419 C 239.059 99.971 244.997 112.64 244.997 125.996 L 244.997 175.003 C 244.997 184.284 241.311 193.188 234.748 199.745 C 228.186 206.31 219.281 210.004 209.996 210.004 L 35 210.004 C 25.715 210.004 16.819 206.31 10.248 199.745 C 3.686 193.188 -0.001 184.284 -0.001 175.003 L -0.001 35.002 C -0.001 25.714 3.686 16.817 10.248 10.252 C 16.819 3.687 25.715 0.001 35 0.001 L 98.002 0.001 Z M 35 17.419 C 30.341 17.419 25.869 19.274 22.571 22.568 C 19.274 25.87 17.419 30.338 17.419 35.002 L 17.419 175.003 C 17.419 179.659 19.274 184.135 22.571 187.429 C 25.869 190.723 30.341 192.578 35 192.578 L 209.996 192.578 C 214.663 192.578 219.136 190.723 222.433 187.429 C 225.731 184.135 227.578 179.659 227.578 175.003 L 227.578 125.996 C 227.578 117.812 223.94 110.05 217.645 104.807 L 115.648 23.804 C 110.689 19.681 104.451 17.419 98.002 17.419 L 35 17.419 Z M 37.309 44.736 C 32.772 44.736 29.086 41.23 29.086 36.911 C 29.086 32.592 32.772 29.086 37.309 29.086 L 94.372 29.086 C 98.909 29.086 102.587 32.592 102.587 36.911 C 102.587 41.23 98.909 44.736 94.372 44.736 L 37.309 44.736 Z M 164.665 25.948 C 161.992 23.843 160.947 20.268 162.057 17.052 C 163.175 13.828 166.213 11.668 169.616 11.668 L 218.333 11.668 C 222.312 11.668 226.128 13.249 228.939 16.058 C 231.75 18.875 233.33 22.685 233.33 26.668 L 233.33 63.539 C 233.33 66.598 231.58 69.392 228.826 70.73 C 226.071 72.068 222.79 71.716 220.383 69.822 L 164.665 25.948 Z M 84.577 156.31 C 83.118 156.263 81.668 155.692 80.655 154.761 C 79.707 153.759 79.075 152.327 79.075 150.919 C 79.075 149.51 79.691 148.062 80.615 147.006 C 81.627 145.997 83.102 145.371 84.577 145.316 L 93.975 145.316 L 93.975 135.918 C 94.015 134.572 94.583 133.164 95.49 132.108 C 96.495 131.106 97.937 130.425 99.363 130.425 C 100.781 130.425 102.239 131.083 103.3 132.076 C 104.297 133.125 104.913 134.557 104.961 135.918 L 104.961 145.316 L 114.36 145.316 C 115.721 145.371 117.147 145.973 118.2 146.951 C 119.189 147.992 119.861 149.424 119.861 150.793 C 119.861 152.264 119.18 153.743 118.176 154.761 C 117.123 155.692 115.713 156.263 114.36 156.31 L 104.961 156.31 L 104.961 165.707 C 104.921 167.171 104.297 168.642 103.3 169.659 C 102.255 170.582 100.845 171.2 99.484 171.2 C 98.026 171.2 96.568 170.574 95.547 169.636 C 94.607 168.618 94.015 167.163 93.975 165.707 L 93.975 156.31 L 84.577 156.31 Z M 83.191 106.693 C 82.251 105.683 81.619 104.228 81.619 102.765 C 81.619 101.301 82.243 99.846 83.183 98.829 C 84.196 97.882 85.654 97.295 87.112 97.248 L 111.824 97.248 C 113.169 97.295 114.578 97.858 115.632 98.766 C 116.636 99.776 117.317 101.254 117.317 102.725 C 117.317 104.197 116.644 105.675 115.64 106.693 C 114.587 107.624 113.169 108.195 111.824 108.242 L 87.112 108.242 C 85.662 108.203 84.204 107.624 83.191 106.693 Z M 140.294 117.702 C 139.168 118.735 137.661 119.416 136.227 119.416 C 134.769 119.416 133.391 118.712 132.419 117.687 C 131.35 116.708 130.702 115.316 130.702 113.829 C 130.702 112.366 131.374 110.879 132.419 109.807 L 138.804 103.422 L 132.508 97.123 C 131.439 96.153 130.702 94.697 130.702 93.234 C 130.702 91.802 131.39 90.284 132.419 89.157 C 133.432 88.226 134.874 87.6 136.308 87.6 C 137.742 87.6 139.241 88.242 140.311 89.157 L 146.687 95.542 L 153.047 89.181 C 154.019 88.242 155.445 87.6 156.871 87.6 C 158.281 87.6 159.756 88.187 160.874 89.087 C 160.93 89.134 160.979 89.181 161.028 89.235 C 161.927 90.354 162.51 91.825 162.51 93.234 C 162.51 94.666 161.894 96.067 160.955 97.037 L 154.57 103.422 L 161.028 109.885 C 161.927 111.004 162.51 112.46 162.51 113.852 C 162.51 115.261 161.87 116.701 160.938 117.702 C 159.812 118.735 158.313 119.416 156.871 119.416 C 155.421 119.416 154.044 118.759 153.071 117.687 L 146.687 111.309 L 140.294 117.702 Z M 130.41 145.621 C 129.47 144.62 128.838 143.188 128.838 141.779 C 128.838 140.371 129.454 138.931 130.377 137.867 C 131.39 136.857 132.865 136.224 134.331 136.177 L 159.885 136.177 C 161.254 136.224 162.68 136.834 163.726 137.812 C 164.722 138.853 165.386 140.285 165.386 141.654 C 165.386 143.125 164.714 144.604 163.701 145.621 C 162.656 146.552 161.238 147.123 159.885 147.17 L 134.331 147.17 C 132.881 147.131 131.423 146.552 130.41 145.621 Z M 130.402 163.704 C 129.47 162.695 128.838 161.255 128.838 159.847 C 128.838 158.446 129.405 156.991 130.345 156.02 C 131.293 155.05 132.751 154.502 134.161 154.455 L 160.063 154.455 C 161.433 154.502 162.867 155.05 163.831 156.012 C 164.795 156.967 165.386 158.407 165.386 159.761 C 165.386 161.232 164.738 162.695 163.766 163.712 C 162.753 164.643 161.368 165.23 160.063 165.277 L 134.331 165.277 C 132.881 165.23 131.423 164.643 130.402 163.704 Z"/>
</svg>