<?xml version="1.0" encoding="utf-8"?>
<svg clip-rule="evenodd" fill-rule="evenodd" stroke-linejoin="round" stroke-miterlimit="2" viewBox="0 0 245 210" xmlns="http://www.w3.org/2000/svg">
  <path d="M 98.002 0.001 C 108.518 0.001 118.711 3.687 126.796 10.416 L 228.793 91.419 C 239.059 99.971 244.997 112.64 244.997 125.996 L 244.997 175.003 C 244.997 184.284 241.311 193.188 234.748 199.745 C 228.186 206.31 219.281 210.004 209.996 210.004 L 35 210.004 C 25.715 210.004 16.819 206.31 10.248 199.745 C 3.686 193.188 -0.001 184.284 -0.001 175.003 L -0.001 35.002 C -0.001 25.714 3.686 16.817 10.248 10.252 C 16.819 3.687 25.715 0.001 35 0.001 L 98.002 0.001 Z M 35 17.419 C 30.341 17.419 25.869 19.274 22.571 22.568 C 19.274 25.87 17.419 30.338 17.419 35.002 L 17.419 175.003 C 17.419 179.659 19.274 184.135 22.571 187.429 C 25.869 190.723 30.341 192.578 35 192.578 L 209.996 192.578 C 214.663 192.578 219.136 190.723 222.433 187.429 C 225.731 184.135 227.578 179.659 227.578 175.003 L 227.578 125.996 C 227.578 117.812 223.94 110.05 217.645 104.807 L 115.648 23.804 C 110.689 19.681 104.451 17.419 98.002 17.419 L 35 17.419 Z M 37.309 44.736 C 32.772 44.736 29.086 41.23 29.086 36.911 C 29.086 32.592 32.772 29.086 37.309 29.086 L 94.372 29.086 C 98.909 29.086 102.587 32.592 102.587 36.911 C 102.587 41.23 98.909 44.736 94.372 44.736 L 37.309 44.736 Z M 164.665 25.948 C 161.992 23.843 160.947 20.268 162.057 17.052 C 163.175 13.828 166.213 11.668 169.616 11.668 L 218.333 11.668 C 222.312 11.668 226.128 13.249 228.939 16.058 C 231.75 18.875 233.33 22.685 233.33 26.668 L 233.33 63.539 C 233.33 66.598 231.58 69.392 228.826 70.73 C 226.071 72.068 222.79 71.716 220.383 69.822 L 164.665 25.948 Z M 84.739 174.15 C 74.425 169.197 69.102 162.742 68.98 155.332 L 68.98 100.84 C 69.102 93.547 74.473 87.091 84.868 82.044 C 95.198 77.021 107.789 74.501 122.405 74.501 C 136.924 74.501 149.523 77.021 159.958 82.044 C 170.466 87.091 175.895 93.547 176.016 100.84 L 176.016 155.332 C 175.895 162.742 170.523 169.158 160.185 174.15 C 149.887 179.049 137.256 181.537 122.494 181.537 C 107.643 181.537 94.98 179.057 84.739 174.15 Z M 122.429 109.51 C 130.11 109.51 137.88 108.352 145.877 106.004 C 153.865 103.68 158.143 101.552 160.817 98.954 C 158.054 96.419 153.679 94.298 145.585 91.919 C 137.475 89.525 129.778 88.351 122.365 88.351 C 114.676 88.351 106.914 89.509 98.941 91.849 C 90.985 94.189 86.667 96.333 84.001 98.954 C 86.643 101.716 90.912 103.907 98.707 106.145 C 106.525 108.398 114.384 109.51 122.429 109.51 Z M 122.292 138.524 C 125.986 138.524 129.632 138.305 133.294 137.851 C 136.956 137.405 140.448 136.756 143.835 135.903 C 147.23 135.05 150.503 134.001 153.711 132.741 C 156.928 131.482 159.529 130.269 162.162 128.853 L 162.162 114.447 C 159.739 115.629 157.706 116.521 154.449 117.718 C 151.192 118.907 147.797 119.901 144.313 120.683 C 140.829 121.458 137.24 122.061 133.578 122.467 C 129.916 122.882 126.124 123.086 122.243 123.086 C 118.557 123.086 114.813 122.882 111.078 122.467 C 107.335 122.061 103.681 121.435 100.173 120.613 C 96.665 119.784 93.286 118.798 90.078 117.647 C 86.861 116.497 85.038 115.66 82.835 114.51 L 82.835 128.892 C 85.127 130.292 87.501 131.458 90.637 132.671 C 93.789 133.884 97.078 134.932 100.546 135.832 C 104.005 136.732 107.562 137.405 111.265 137.851 C 114.975 138.305 118.629 138.524 122.292 138.524 Z M 122.429 167.679 C 126.561 167.773 130.807 167.46 135.214 166.74 C 139.63 166.02 143.713 165.058 147.538 163.845 C 151.354 162.632 154.57 161.271 157.284 159.706 C 159.966 158.172 161.416 156.912 162.162 155.504 L 162.162 143.399 C 159.828 144.635 157.908 145.559 154.74 146.795 C 151.572 148.031 148.178 149.072 144.637 149.901 C 141.088 150.723 137.426 151.349 133.699 151.764 C 129.98 152.171 126.156 152.382 122.292 152.382 C 118.476 152.382 114.659 152.147 110.892 151.693 C 107.125 151.232 103.471 150.59 99.995 149.768 C 96.511 148.939 93.149 147.898 89.981 146.654 C 86.821 145.418 85.022 144.557 82.835 143.399 L 82.835 155.645 C 83.499 156.959 84.868 158.149 87.501 159.635 C 90.175 161.153 93.375 162.499 97.191 163.712 C 101.016 164.925 105.099 165.887 109.515 166.607 C 113.922 167.327 118.208 167.679 122.429 167.679 Z"/>
</svg>