<?xml version="1.0" encoding="utf-8"?>
<svg clip-rule="evenodd" fill-rule="evenodd" stroke-linejoin="round" stroke-miterlimit="2" viewBox="0 0 245 210" xmlns="http://www.w3.org/2000/svg">
  <path d="M 98.002 0.001 C 108.518 0.001 118.711 3.687 126.796 10.416 L 228.793 91.419 C 239.059 99.971 244.997 112.64 244.997 125.996 L 244.997 175.003 C 244.997 184.284 241.311 193.188 234.748 199.745 C 228.186 206.31 219.281 210.004 209.996 210.004 L 35 210.004 C 25.715 210.004 16.819 206.31 10.248 199.745 C 3.686 193.188 -0.001 184.284 -0.001 175.003 L -0.001 35.002 C -0.001 25.714 3.686 16.817 10.248 10.252 C 16.819 3.687 25.715 0.001 35 0.001 L 98.002 0.001 Z M 35 17.419 C 30.341 17.419 25.869 19.274 22.571 22.568 C 19.274 25.87 17.419 30.338 17.419 35.002 L 17.419 175.003 C 17.419 179.659 19.274 184.135 22.571 187.429 C 25.869 190.723 30.341 192.578 35 192.578 L 209.996 192.578 C 214.663 192.578 219.136 190.723 222.433 187.429 C 225.731 184.135 227.578 179.659 227.578 175.003 L 227.578 125.996 C 227.578 117.812 223.94 110.05 217.645 104.807 L 115.648 23.804 C 110.689 19.681 104.451 17.419 98.002 17.419 L 35 17.419 Z M 37.309 44.736 C 32.772 44.736 29.086 41.23 29.086 36.911 C 29.086 32.592 32.772 29.086 37.309 29.086 L 94.372 29.086 C 98.909 29.086 102.587 32.592 102.587 36.911 C 102.587 41.23 98.909 44.736 94.372 44.736 L 37.309 44.736 Z M 164.665 25.948 C 161.992 23.843 160.947 20.268 162.057 17.052 C 163.175 13.828 166.213 11.668 169.616 11.668 L 218.333 11.668 C 222.312 11.668 226.128 13.249 228.939 16.058 C 231.75 18.875 233.33 22.685 233.33 26.668 L 233.33 63.539 C 233.33 66.598 231.58 69.392 228.826 70.73 C 226.071 72.068 222.79 71.716 220.383 69.822 L 164.665 25.948 Z M 131.317 81.105 L 138.463 79.267 C 139.735 78.985 141.21 79.188 142.255 79.791 C 143.292 80.386 144.2 81.559 144.597 82.811 L 146.582 89.924 L 153.687 91.904 C 154.935 92.303 156.11 93.203 156.717 94.243 C 157.317 95.292 157.511 96.763 157.228 98.038 L 155.397 105.182 L 160.558 110.456 C 161.441 111.419 162 112.796 162 114.001 C 162 115.206 161.441 116.575 160.558 117.538 L 155.397 122.812 L 157.228 129.964 C 157.511 131.239 157.317 132.71 156.717 133.751 C 156.11 134.792 154.935 135.699 153.687 136.098 L 146.582 138.078 L 144.597 145.191 C 144.2 146.435 143.292 147.616 142.255 148.211 C 141.21 148.814 139.735 149.017 138.463 148.728 L 131.317 146.897 L 126.043 152.061 C 125.079 152.945 123.701 153.501 122.502 153.501 C 121.295 153.501 119.926 152.945 118.962 152.061 L 113.687 146.897 L 106.533 148.728 C 105.261 149.017 103.787 148.814 102.749 148.211 C 101.704 147.616 100.797 146.435 100.408 145.191 L 98.423 138.078 L 91.309 136.098 C 90.062 135.699 88.887 134.792 88.287 133.751 C 87.688 132.71 87.485 131.239 87.769 129.964 L 89.608 122.812 L 84.439 117.538 C 83.556 116.583 82.997 115.206 82.997 114.001 C 82.997 112.796 83.556 111.427 84.439 110.456 L 89.608 105.182 L 87.769 98.038 C 87.485 96.763 87.688 95.292 88.287 94.243 C 88.887 93.203 90.062 92.303 91.309 91.904 L 98.423 89.924 L 100.408 82.811 C 100.797 81.559 101.704 80.386 102.749 79.791 C 103.787 79.188 105.261 78.985 106.533 79.267 L 113.687 81.105 L 118.962 75.941 C 119.918 75.057 121.295 74.501 122.502 74.501 C 123.701 74.501 125.079 75.057 126.043 75.941 L 131.317 81.105 Z M 122.502 86.638 L 118.727 90.331 C 117.495 91.45 115.559 91.966 113.93 91.614 L 108.818 90.3 L 107.4 95.386 C 106.89 96.974 105.472 98.391 103.884 98.899 L 98.804 100.315 L 100.116 105.433 C 100.473 107.06 99.946 108.993 98.828 110.229 L 95.134 114.001 L 98.828 117.773 C 99.954 119.009 100.473 120.942 100.116 122.577 L 98.804 127.687 L 103.884 129.103 C 105.472 129.612 106.89 131.028 107.4 132.616 L 108.818 137.702 L 113.93 136.388 C 115.559 136.028 117.495 136.552 118.727 137.671 L 122.502 141.364 L 126.27 137.671 C 127.509 136.544 129.446 136.028 131.074 136.388 L 136.187 137.702 L 137.596 132.616 C 138.115 131.028 139.525 129.612 141.113 129.103 L 146.201 127.687 L 144.888 122.569 C 144.532 120.942 145.05 119.009 146.176 117.773 L 149.863 114.001 L 146.168 110.229 C 145.05 108.993 144.532 107.06 144.888 105.425 L 146.201 100.315 L 141.113 98.899 C 139.525 98.391 138.115 96.974 137.596 95.386 L 136.187 90.3 L 131.066 91.614 C 129.446 91.966 127.509 91.45 126.27 90.331 L 122.502 86.638 Z M 107.441 117.577 C 106.533 116.615 105.958 115.214 105.958 114.001 C 105.958 112.78 106.501 111.356 107.441 110.425 C 108.38 109.486 109.798 108.938 111.022 108.938 C 112.237 108.938 113.631 109.517 114.595 110.425 L 118.67 114.502 L 130.402 102.765 C 131.374 101.865 132.768 101.286 133.983 101.286 C 135.198 101.286 136.624 101.833 137.564 102.765 C 138.496 103.704 139.039 105.128 139.039 106.348 C 139.039 107.561 138.463 108.954 137.564 109.924 L 122.251 125.237 C 121.279 126.137 119.893 126.716 118.67 126.716 C 117.455 126.716 116.061 126.137 115.097 125.237 L 107.441 117.577 Z M 137.167 153.211 C 138.066 154.095 138.674 155.473 138.714 156.732 L 138.714 173.548 C 138.617 176.748 136.689 179.518 134.234 180.715 C 131.779 181.913 128.425 181.733 125.84 179.839 L 122.502 177.335 L 119.172 179.823 C 116.596 181.725 113.225 181.913 110.77 180.715 C 108.316 179.518 106.379 176.748 106.282 173.548 L 106.282 156.732 C 106.322 155.473 106.93 154.095 107.829 153.211 C 108.785 152.39 110.195 151.897 111.459 151.967 L 111.678 151.983 C 112.78 152.116 113.938 152.679 114.627 153.438 C 115.324 154.189 115.786 155.387 115.826 156.498 L 115.826 170.363 L 120.145 167.053 C 120.809 166.576 121.733 166.255 122.502 166.255 C 123.272 166.255 124.187 166.576 124.852 167.053 L 129.178 170.363 L 129.178 156.701 C 129.211 155.535 129.697 154.283 130.434 153.485 C 131.163 152.695 132.371 152.108 133.529 151.967 C 134.785 151.897 136.211 152.39 137.167 153.211 Z"/>
</svg>