<?xml version="1.0" encoding="utf-8"?>
<svg clip-rule="evenodd" fill-rule="evenodd" stroke-linejoin="round" stroke-miterlimit="2" viewBox="0 0 245 210" xmlns="http://www.w3.org/2000/svg">
  <path d="M 98.002 0.001 C 108.518 0.001 118.711 3.687 126.796 10.416 L 228.793 91.419 C 239.059 99.971 244.997 112.64 244.997 125.996 L 244.997 175.003 C 244.997 184.284 241.311 193.188 234.748 199.745 C 228.186 206.31 219.281 210.004 209.996 210.004 L 35 210.004 C 25.715 210.004 16.819 206.31 10.248 199.745 C 3.686 193.188 -0.001 184.284 -0.001 175.003 L -0.001 35.002 C -0.001 25.714 3.686 16.817 10.248 10.252 C 16.819 3.687 25.715 0.001 35 0.001 L 98.002 0.001 Z M 35 17.419 C 30.341 17.419 25.869 19.274 22.571 22.568 C 19.274 25.87 17.419 30.338 17.419 35.002 L 17.419 175.003 C 17.419 179.659 19.274 184.135 22.571 187.429 C 25.869 190.723 30.341 192.578 35 192.578 L 209.996 192.578 C 214.663 192.578 219.136 190.723 222.433 187.429 C 225.731 184.135 227.578 179.659 227.578 175.003 L 227.578 125.996 C 227.578 117.812 223.94 110.05 217.645 104.807 L 115.648 23.804 C 110.689 19.681 104.451 17.419 98.002 17.419 L 35 17.419 Z M 37.309 44.736 C 32.772 44.736 29.086 41.23 29.086 36.911 C 29.086 32.592 32.772 29.086 37.309 29.086 L 94.372 29.086 C 98.909 29.086 102.587 32.592 102.587 36.911 C 102.587 41.23 98.909 44.736 94.372 44.736 L 37.309 44.736 Z M 164.665 25.948 C 161.992 23.843 160.947 20.268 162.057 17.052 C 163.175 13.828 166.213 11.668 169.616 11.668 L 218.333 11.668 C 222.312 11.668 226.128 13.249 228.939 16.058 C 231.75 18.875 233.33 22.685 233.33 26.668 L 233.33 63.539 C 233.33 66.598 231.58 69.392 228.826 70.73 C 226.071 72.068 222.79 71.716 220.383 69.822 L 164.665 25.948 Z M 101.737 97.225 L 101.737 118.985 C 101.737 119.541 101.291 119.987 100.732 119.987 L 78.97 119.987 C 78.419 119.987 77.973 119.541 77.973 118.985 L 77.973 97.225 C 77.973 96.669 78.419 96.223 78.97 96.223 L 100.732 96.223 C 101.291 96.223 101.737 96.669 101.737 97.225 Z M 167.031 97.225 L 167.031 118.985 C 167.031 119.541 166.577 119.987 166.027 119.987 L 144.264 119.987 C 143.713 119.987 143.268 119.541 143.268 118.985 L 143.268 97.225 C 143.268 96.669 143.713 96.223 144.264 96.223 L 166.027 96.223 C 166.577 96.223 167.031 96.669 167.031 97.225 Z M 145.261 140.746 L 145.261 150.629 L 155.145 150.629 C 155.696 150.629 156.142 151.083 156.142 151.631 L 156.142 161.513 L 166.027 161.513 C 166.577 161.513 167.031 161.959 167.031 162.515 L 167.031 173.399 C 167.031 173.947 166.577 174.393 166.027 174.393 L 155.145 174.393 C 154.595 174.393 154.149 173.947 154.149 173.399 L 154.149 163.516 L 144.264 163.516 C 143.713 163.516 143.268 163.063 143.268 162.515 L 143.268 152.632 L 101.737 152.632 L 101.737 162.515 C 101.737 163.063 101.291 163.516 100.732 163.516 L 90.856 163.516 L 90.856 173.399 C 90.856 173.947 90.41 174.393 89.851 174.393 L 78.97 174.393 C 78.419 174.393 77.973 173.947 77.973 173.399 L 77.973 162.515 C 77.973 161.959 78.419 161.513 78.97 161.513 L 88.854 161.513 L 88.854 151.631 C 88.854 151.083 89.3 150.629 89.851 150.629 L 99.735 150.629 L 99.735 140.746 C 99.735 140.199 100.181 139.753 100.732 139.753 L 144.264 139.753 C 144.815 139.753 145.261 140.199 145.261 140.746 Z"/>
</svg>