<?xml version="1.0" encoding="utf-8"?>
<svg clip-rule="evenodd" fill-rule="evenodd" stroke-linejoin="round" stroke-miterlimit="2" viewBox="0 0 245 210" xmlns="http://www.w3.org/2000/svg">
  <path d="M 98.002 0.001 C 108.518 0.001 118.711 3.687 126.796 10.416 L 228.793 91.419 C 239.059 99.971 244.997 112.64 244.997 125.996 L 244.997 175.003 C 244.997 184.284 241.311 193.188 234.748 199.745 C 228.186 206.31 219.281 210.004 209.996 210.004 L 35 210.004 C 25.715 210.004 16.819 206.31 10.248 199.745 C 3.686 193.188 -0.001 184.284 -0.001 175.003 L -0.001 35.002 C -0.001 25.714 3.686 16.817 10.248 10.252 C 16.819 3.687 25.715 0.001 35 0.001 L 98.002 0.001 Z M 35 17.419 C 30.341 17.419 25.869 19.274 22.571 22.568 C 19.274 25.87 17.419 30.338 17.419 35.002 L 17.419 175.003 C 17.419 179.659 19.274 184.135 22.571 187.429 C 25.869 190.723 30.341 192.578 35 192.578 L 209.996 192.578 C 214.663 192.578 219.136 190.723 222.433 187.429 C 225.731 184.135 227.578 179.659 227.578 175.003 L 227.578 125.996 C 227.578 117.812 223.94 110.05 217.645 104.807 L 115.648 23.804 C 110.689 19.681 104.451 17.419 98.002 17.419 L 35 17.419 Z M 37.309 44.736 C 32.772 44.736 29.086 41.23 29.086 36.911 C 29.086 32.592 32.772 29.086 37.309 29.086 L 94.372 29.086 C 98.909 29.086 102.587 32.592 102.587 36.911 C 102.587 41.23 98.909 44.736 94.372 44.736 L 37.309 44.736 Z M 164.665 25.948 C 161.992 23.843 160.947 20.268 162.057 17.052 C 163.175 13.828 166.213 11.668 169.616 11.668 L 218.333 11.668 C 222.312 11.668 226.128 13.249 228.939 16.058 C 231.75 18.875 233.33 22.685 233.33 26.668 L 233.33 63.539 C 233.33 66.598 231.58 69.392 228.826 70.73 C 226.071 72.068 222.79 71.716 220.383 69.822 L 164.665 25.948 Z M 104.305 121.043 L 115.332 110.026 L 107.497 102.319 L 103.641 105.902 C 102.758 106.88 101.761 107.319 100.659 107.233 C 99.549 107.146 98.553 106.7 97.669 105.902 C 96.875 105.018 96.47 104.001 96.47 102.851 C 96.47 101.7 96.875 100.73 97.669 99.932 L 101.518 96.082 L 92.492 87.318 L 81.603 98.469 L 104.305 121.043 Z M 152.115 169.111 L 163.134 157.961 L 153.971 148.931 L 150.252 152.781 C 149.369 153.579 148.348 153.978 147.197 153.978 C 146.047 153.978 145.075 153.532 144.281 152.648 C 143.389 151.764 142.952 150.746 142.952 149.596 C 142.952 148.446 143.389 147.429 144.281 146.537 L 147.999 142.82 L 140.294 134.987 L 129.138 146.138 L 152.115 169.111 Z M 76.572 180.254 C 74.797 180.254 73.315 179.659 72.124 178.462 C 70.925 177.265 70.325 175.786 70.325 174.01 L 70.325 157.546 C 70.325 156.662 70.463 155.864 70.73 155.16 C 70.989 154.448 71.435 153.782 72.051 153.164 L 96.47 128.743 L 72.707 105.112 C 70.844 103.164 69.912 100.902 69.912 98.336 C 69.912 95.769 70.844 93.516 72.707 91.567 L 85.719 78.422 C 87.574 76.473 89.786 75.495 92.355 75.495 C 94.923 75.495 97.183 76.426 99.128 78.289 L 123.167 102.319 L 146.006 79.478 C 146.889 78.594 147.886 77.929 148.988 77.49 C 150.098 77.044 151.224 76.825 152.375 76.825 C 153.525 76.825 154.659 77.044 155.761 77.49 C 156.871 77.929 157.868 78.594 158.751 79.478 L 171.098 91.7 C 171.99 92.585 172.654 93.578 173.092 94.682 C 173.537 95.793 173.756 96.919 173.756 98.07 C 173.756 99.314 173.537 100.48 173.092 101.591 C 172.654 102.694 171.99 103.696 171.098 104.58 L 148.259 127.288 L 172.298 151.318 C 174.153 153.266 175.085 155.527 175.085 158.094 C 175.085 160.66 174.153 162.875 172.298 164.729 L 159.286 177.742 C 157.333 179.604 155.081 180.535 152.512 180.535 C 149.944 180.535 147.683 179.604 145.739 177.742 L 121.7 153.712 L 97.151 178.391 C 96.535 179.017 95.871 179.479 95.158 179.792 C 94.453 180.097 93.699 180.254 92.905 180.254 L 76.572 180.254 Z M 81.352 169.229 L 90.775 169.229 L 139.63 120.112 L 130.337 110.683 L 81.352 159.675 L 81.352 169.229 Z M 139.63 120.112 L 130.337 110.683 L 134.979 115.331 L 139.63 120.112 Z"/>
</svg>