<?xml version="1.0" encoding="utf-8"?>
<svg clip-rule="evenodd" fill-rule="evenodd" stroke-linejoin="round" stroke-miterlimit="2" viewBox="0 0 245 210" xmlns="http://www.w3.org/2000/svg">
  <path d="M 98.002 0.001 C 108.518 0.001 118.711 3.687 126.796 10.416 L 228.793 91.419 C 239.059 99.971 244.997 112.64 244.997 125.996 L 244.997 175.003 C 244.997 184.284 241.311 193.188 234.748 199.745 C 228.186 206.31 219.281 210.004 209.996 210.004 L 35 210.004 C 25.715 210.004 16.819 206.31 10.248 199.745 C 3.686 193.188 -0.001 184.284 -0.001 175.003 L -0.001 35.002 C -0.001 25.714 3.686 16.817 10.248 10.252 C 16.819 3.687 25.715 0.001 35 0.001 L 98.002 0.001 Z M 35 17.419 C 30.341 17.419 25.869 19.274 22.571 22.568 C 19.274 25.87 17.419 30.338 17.419 35.002 L 17.419 175.003 C 17.419 179.659 19.274 184.135 22.571 187.429 C 25.869 190.723 30.341 192.578 35 192.578 L 209.996 192.578 C 214.663 192.578 219.136 190.723 222.433 187.429 C 225.731 184.135 227.578 179.659 227.578 175.003 L 227.578 125.996 C 227.578 117.812 223.94 110.05 217.645 104.807 L 115.648 23.804 C 110.689 19.681 104.451 17.419 98.002 17.419 L 35 17.419 Z M 37.309 44.736 C 32.772 44.736 29.086 41.23 29.086 36.911 C 29.086 32.592 32.772 29.086 37.309 29.086 L 94.372 29.086 C 98.909 29.086 102.587 32.592 102.587 36.911 C 102.587 41.23 98.909 44.736 94.372 44.736 L 37.309 44.736 Z M 164.665 25.948 C 161.992 23.843 160.947 20.268 162.057 17.052 C 163.175 13.828 166.213 11.668 169.616 11.668 L 218.333 11.668 C 222.312 11.668 226.128 13.249 228.939 16.058 C 231.75 18.875 233.33 22.685 233.33 26.668 L 233.33 63.539 C 233.33 66.598 231.58 69.392 228.826 70.73 C 226.071 72.068 222.79 71.716 220.383 69.822 L 164.665 25.948 Z M 114.06 136.45 L 82.032 136.45 C 79.78 136.411 77.682 135.551 76.102 134.017 C 74.57 132.421 73.671 130.324 73.671 128.062 C 73.671 125.809 74.57 123.712 76.102 122.139 C 77.69 120.621 79.78 119.776 82.032 119.737 L 114.06 119.737 L 114.06 87.702 C 114.1 85.464 114.951 83.359 116.482 81.716 C 118.079 80.12 120.185 79.188 122.454 79.188 C 124.714 79.188 126.813 80.127 128.392 81.724 C 129.899 83.359 130.742 85.472 130.783 87.702 L 130.783 119.737 L 162.81 119.737 C 165.046 119.776 167.161 120.629 168.797 122.154 C 170.394 123.751 171.325 125.856 171.325 128.125 C 171.325 130.386 170.394 132.483 168.797 134.064 C 167.153 135.574 165.046 136.419 162.81 136.45 L 130.783 136.45 L 130.783 168.485 C 130.742 170.739 129.908 172.859 128.344 174.416 C 126.78 175.974 124.649 176.842 122.397 176.842 C 120.136 176.842 118.014 175.974 116.466 174.416 C 114.919 172.852 114.1 170.731 114.06 168.485 L 114.06 136.45 Z" style="stroke-width: 0.251148px;"/>
</svg>