<?xml version="1.0" encoding="utf-8"?>
<svg clip-rule="evenodd" fill-rule="evenodd" stroke-linejoin="round" stroke-miterlimit="2" viewBox="0 0 245 210" xmlns="http://www.w3.org/2000/svg">
  <path d="M 98.002 0.001 C 108.518 0.001 118.711 3.687 126.796 10.416 L 228.793 91.419 C 239.059 99.971 244.997 112.64 244.997 125.996 L 244.997 175.003 C 244.997 184.284 241.311 193.188 234.748 199.745 C 228.186 206.31 219.281 210.004 209.996 210.004 L 35 210.004 C 25.715 210.004 16.819 206.31 10.248 199.745 C 3.686 193.188 -0.001 184.284 -0.001 175.003 L -0.001 35.002 C -0.001 25.714 3.686 16.817 10.248 10.252 C 16.819 3.687 25.715 0.001 35 0.001 L 98.002 0.001 Z M 35 17.419 C 30.341 17.419 25.869 19.274 22.571 22.568 C 19.274 25.87 17.419 30.338 17.419 35.002 L 17.419 175.003 C 17.419 179.659 19.274 184.135 22.571 187.429 C 25.869 190.723 30.341 192.578 35 192.578 L 209.996 192.578 C 214.663 192.578 219.136 190.723 222.433 187.429 C 225.731 184.135 227.578 179.659 227.578 175.003 L 227.578 125.996 C 227.578 117.812 223.94 110.05 217.645 104.807 L 115.648 23.804 C 110.689 19.681 104.451 17.419 98.002 17.419 L 35 17.419 Z M 37.309 44.736 C 32.772 44.736 29.086 41.23 29.086 36.911 C 29.086 32.592 32.772 29.086 37.309 29.086 L 94.372 29.086 C 98.909 29.086 102.587 32.592 102.587 36.911 C 102.587 41.23 98.909 44.736 94.372 44.736 L 37.309 44.736 Z M 164.665 25.948 C 161.992 23.843 160.947 20.268 162.057 17.052 C 163.175 13.828 166.213 11.668 169.616 11.668 L 218.333 11.668 C 222.312 11.668 226.128 13.249 228.939 16.058 C 231.75 18.875 233.33 22.685 233.33 26.668 L 233.33 63.539 C 233.33 66.598 231.58 69.392 228.826 70.73 C 226.071 72.068 222.79 71.716 220.383 69.822 L 164.665 25.948 Z M 141.607 86.027 C 149.912 91.943 155.267 101.434 154.975 112.663 L 154.975 152.538 C 154.927 155.676 153.614 158.704 151.572 160.747 C 149.523 162.797 146.492 164.111 143.357 164.15 L 137.054 164.15 L 137.224 176.693 C 137.183 177.891 136.648 179.229 135.846 180.066 C 135.036 180.903 133.691 181.537 132.379 181.537 C 131.18 181.537 129.843 180.966 129.008 180.152 C 128.174 179.346 127.59 178.016 127.534 176.701 L 127.364 164.15 L 117.114 164.15 L 117.285 176.693 C 117.236 177.891 116.709 179.229 115.899 180.066 C 115.097 180.903 113.752 181.537 112.44 181.537 C 111.232 181.537 109.904 180.966 109.069 180.152 C 108.226 179.346 107.643 178.016 107.594 176.701 L 107.424 164.15 L 101.275 164.15 C 98.139 164.111 95.117 162.797 93.067 160.747 C 91.018 158.704 89.705 155.676 89.665 152.538 L 89.665 112.655 C 89.729 101.427 95.263 91.943 103.398 86.035 L 100.789 81.88 C 100.173 80.769 99.938 79.337 100.214 78.202 C 100.481 77.068 101.315 75.855 102.409 75.206 C 103.495 74.548 104.945 74.36 106.079 74.627 C 107.222 74.9 108.38 75.738 109.077 76.802 L 112.115 81.614 C 115.3 80.48 118.565 79.814 122.502 79.814 C 126.254 79.814 129.543 80.48 132.881 81.622 L 135.919 76.825 C 136.608 75.761 137.783 74.9 138.917 74.627 C 140.051 74.36 141.51 74.548 142.595 75.206 C 143.689 75.855 144.524 77.068 144.791 78.202 C 145.058 79.337 144.823 80.792 144.208 81.896 L 141.607 86.027 Z M 137.515 95.253 C 133.408 91.747 128.263 89.689 122.502 89.689 C 116.734 89.689 111.589 91.7 107.481 95.19 C 103.373 98.672 100.951 102.725 99.906 107.812 L 145.091 107.812 C 144.038 102.812 141.623 98.758 137.515 95.253 Z M 131.487 94.855 C 132.905 94.855 134.38 95.52 135.304 96.436 C 136.219 97.367 136.883 98.838 136.883 100.262 C 136.883 101.679 136.219 103.157 135.304 104.081 C 134.38 104.996 132.905 105.661 131.487 105.661 C 130.07 105.661 128.587 104.996 127.663 104.081 C 126.74 103.157 126.075 101.679 126.075 100.262 C 126.075 98.838 126.74 97.367 127.663 96.436 C 128.587 95.52 130.07 94.855 131.487 94.855 Z M 113.517 94.855 C 114.935 94.855 116.418 95.52 117.341 96.436 C 118.257 97.367 118.921 98.838 118.921 100.262 C 118.921 101.679 118.257 103.157 117.341 104.081 C 116.418 104.996 114.935 105.661 113.517 105.661 C 112.099 105.661 110.625 104.996 109.701 104.081 C 108.777 103.157 108.113 101.679 108.113 100.262 C 108.113 98.838 108.777 97.367 109.701 96.436 C 110.625 95.52 112.099 94.855 113.517 94.855 Z M 143.722 154.463 C 144.256 154.51 144.621 154.307 145.042 153.9 C 145.472 153.493 145.707 153.141 145.65 152.538 L 145.65 117.499 L 99.347 117.499 L 99.347 152.538 C 99.306 153.164 99.509 153.516 99.906 153.915 C 100.295 154.307 100.651 154.51 101.275 154.463 L 143.722 154.463 Z M 168.878 144.487 C 168.83 145.801 168.238 147.147 167.404 147.953 C 166.569 148.759 165.233 149.33 164.033 149.33 C 162.81 149.33 161.473 148.696 160.647 147.875 C 159.828 147.045 159.237 145.707 159.188 144.487 L 159.188 116.129 C 159.237 114.815 159.828 113.469 160.663 112.663 C 161.497 111.857 162.834 111.286 164.033 111.286 C 165.233 111.286 166.569 111.857 167.404 112.663 C 168.238 113.469 168.83 114.815 168.878 116.129 L 168.878 144.487 Z M 85.994 144.487 C 85.946 145.801 85.354 147.147 84.52 147.953 C 83.685 148.759 82.357 149.33 81.149 149.33 C 79.958 149.33 78.589 148.775 77.706 147.976 C 76.831 147.17 76.183 145.817 76.126 144.487 L 76.126 116.129 C 76.175 114.815 76.758 113.469 77.593 112.663 C 78.435 111.857 79.764 111.286 80.963 111.286 C 82.162 111.286 83.523 111.841 84.406 112.647 C 85.29 113.445 85.938 114.799 85.994 116.129 L 85.994 144.487 Z"/>
</svg>