<?xml version="1.0" encoding="utf-8"?>
<svg clip-rule="evenodd" fill-rule="evenodd" stroke-linejoin="round" stroke-miterlimit="2" viewBox="0 0 245 210" xmlns="http://www.w3.org/2000/svg">
  <path d="M 98.002 0.001 C 108.518 0.001 118.711 3.687 126.796 10.416 L 228.793 91.419 C 239.059 99.971 244.997 112.64 244.997 125.996 L 244.997 175.003 C 244.997 184.284 241.311 193.188 234.748 199.745 C 228.186 206.31 219.281 210.004 209.996 210.004 L 35 210.004 C 25.715 210.004 16.819 206.31 10.248 199.745 C 3.686 193.188 -0.001 184.284 -0.001 175.003 L -0.001 35.002 C -0.001 25.714 3.686 16.817 10.248 10.252 C 16.819 3.687 25.715 0.001 35 0.001 L 98.002 0.001 Z M 35 17.419 C 30.341 17.419 25.869 19.274 22.571 22.568 C 19.274 25.87 17.419 30.338 17.419 35.002 L 17.419 175.003 C 17.419 179.659 19.274 184.135 22.571 187.429 C 25.869 190.723 30.341 192.578 35 192.578 L 209.996 192.578 C 214.663 192.578 219.136 190.723 222.433 187.429 C 225.731 184.135 227.578 179.659 227.578 175.003 L 227.578 125.996 C 227.578 117.812 223.94 110.05 217.645 104.807 L 115.648 23.804 C 110.689 19.681 104.451 17.419 98.002 17.419 L 35 17.419 Z M 37.309 44.736 C 32.772 44.736 29.086 41.23 29.086 36.911 C 29.086 32.592 32.772 29.086 37.309 29.086 L 94.372 29.086 C 98.909 29.086 102.587 32.592 102.587 36.911 C 102.587 41.23 98.909 44.736 94.372 44.736 L 37.309 44.736 Z M 164.665 25.948 C 161.992 23.843 160.947 20.268 162.057 17.052 C 163.175 13.828 166.213 11.668 169.616 11.668 L 218.333 11.668 C 222.312 11.668 226.128 13.249 228.939 16.058 C 231.75 18.875 233.33 22.685 233.33 26.668 L 233.33 63.539 C 233.33 66.598 231.58 69.392 228.826 70.73 C 226.071 72.068 222.79 71.716 220.383 69.822 L 164.665 25.948 Z M 140.837 140.652 C 139.29 140.621 137.839 140.066 136.827 139.119 C 135.871 138.117 135.263 136.654 135.263 135.105 C 135.263 133.618 135.854 132.147 136.875 131.13 C 137.888 130.112 139.355 129.557 140.837 129.518 L 152.253 129.518 C 153.801 129.549 155.267 130.144 156.288 131.13 C 157.228 132.17 157.819 133.618 157.819 135.128 C 157.819 136.646 157.195 138.086 156.207 139.103 C 155.162 140.058 153.728 140.621 152.253 140.652 L 140.837 140.652 Z M 140.837 123.907 C 139.29 123.868 137.839 123.313 136.827 122.374 C 135.871 121.364 135.263 119.909 135.263 118.359 C 135.263 116.873 135.854 115.402 136.875 114.384 C 137.888 113.367 139.355 112.804 140.837 112.765 L 152.253 112.765 C 153.801 112.804 155.267 113.391 156.288 114.384 C 157.228 115.425 157.819 116.865 157.819 118.375 C 157.819 119.893 157.195 121.341 156.207 122.358 C 155.162 123.305 153.728 123.868 152.253 123.907 L 140.837 123.907 Z M 116.993 138.555 C 119.521 139.166 121.903 140.097 123.88 141.231 C 125.208 142.123 126.318 143.133 127.056 144.158 C 127.817 145.206 128.255 146.482 128.255 147.648 C 128.255 148.861 127.663 150.081 126.78 150.926 C 125.857 151.701 124.593 152.171 123.329 152.202 L 93.383 152.202 C 92.087 152.171 90.791 151.764 89.867 151.012 C 88.903 150.23 88.32 148.923 88.32 147.593 C 88.32 146.482 88.765 145.23 89.519 144.174 C 90.272 143.125 91.496 142.092 93.003 141.2 C 94.955 140.066 97.256 139.166 99.76 138.555 C 102.263 137.953 105.172 137.64 108.356 137.64 C 111.532 137.64 114.449 137.953 116.993 138.555 Z M 108.34 132.022 C 105.609 132.022 103.057 130.981 101.105 129.072 C 99.152 127.162 98.091 124.572 98.091 121.755 C 98.091 119.017 99.16 116.458 101.113 114.51 C 103.065 112.561 105.626 111.497 108.364 111.497 C 111.103 111.497 113.663 112.569 115.607 114.525 C 117.552 116.474 118.613 119.032 118.613 121.771 C 118.613 124.596 117.544 127.178 115.583 129.087 C 113.631 130.989 111.078 132.022 108.34 132.022 Z M 80.436 176.686 C 76.944 176.647 73.752 175.371 71.289 172.906 C 68.826 170.449 67.546 167.257 67.514 163.759 L 67.514 100.065 C 67.546 96.536 68.859 93.344 71.289 90.832 C 73.776 88.375 76.944 87.052 80.436 87.013 L 164.439 87.013 C 167.963 87.052 171.188 88.343 173.675 90.824 C 176.154 93.312 177.45 96.536 177.491 100.065 L 177.491 163.759 C 177.45 167.257 176.13 170.426 173.667 172.914 C 171.155 175.34 167.963 176.654 164.439 176.686 L 80.436 176.686 Z M 81.441 162.757 L 163.434 162.757 L 163.434 101.067 L 81.441 101.067 L 81.441 162.757 Z"/>
</svg>