<?xml version="1.0" encoding="utf-8"?>
<svg clip-rule="evenodd" fill-rule="evenodd" stroke-linejoin="round" stroke-miterlimit="2" viewBox="0 0 245 210" xmlns="http://www.w3.org/2000/svg">
  <path d="M 98.002 0.001 C 108.518 0.001 118.711 3.687 126.796 10.416 L 228.793 91.419 C 239.059 99.971 244.997 112.64 244.997 125.996 L 244.997 175.003 C 244.997 184.284 241.311 193.188 234.748 199.745 C 228.186 206.31 219.281 210.004 209.996 210.004 L 35 210.004 C 25.715 210.004 16.819 206.31 10.248 199.745 C 3.686 193.188 -0.001 184.284 -0.001 175.003 L -0.001 35.002 C -0.001 25.714 3.686 16.817 10.248 10.252 C 16.819 3.687 25.715 0.001 35 0.001 L 98.002 0.001 Z M 35 17.419 C 30.341 17.419 25.869 19.274 22.571 22.568 C 19.274 25.87 17.419 30.338 17.419 35.002 L 17.419 175.003 C 17.419 179.659 19.274 184.135 22.571 187.429 C 25.869 190.723 30.341 192.578 35 192.578 L 209.996 192.578 C 214.663 192.578 219.136 190.723 222.433 187.429 C 225.731 184.135 227.578 179.659 227.578 175.003 L 227.578 125.996 C 227.578 117.812 223.94 110.05 217.645 104.807 L 115.648 23.804 C 110.689 19.681 104.451 17.419 98.002 17.419 L 35 17.419 Z M 37.309 44.736 C 32.772 44.736 29.086 41.23 29.086 36.911 C 29.086 32.592 32.772 29.086 37.309 29.086 L 94.372 29.086 C 98.909 29.086 102.587 32.592 102.587 36.911 C 102.587 41.23 98.909 44.736 94.372 44.736 L 37.309 44.736 Z M 164.665 25.948 C 161.992 23.843 160.947 20.268 162.057 17.052 C 163.175 13.828 166.213 11.668 169.616 11.668 L 218.333 11.668 C 222.312 11.668 226.128 13.249 228.939 16.058 C 231.75 18.875 233.33 22.685 233.33 26.668 L 233.33 63.539 C 233.33 66.598 231.58 69.392 228.826 70.73 C 226.071 72.068 222.79 71.716 220.383 69.822 L 164.665 25.948 Z M 112.472 167.664 L 112.472 157.038 L 80.639 157.038 C 77.163 156.998 74.003 155.684 71.524 153.235 C 69.11 150.731 67.805 147.554 67.773 144.041 L 67.773 95.3 C 67.805 91.786 69.11 88.602 71.524 86.106 C 74.003 83.656 77.163 82.342 80.639 82.303 L 164.236 82.303 C 167.744 82.342 170.961 83.625 173.432 86.098 C 175.903 88.57 177.191 91.786 177.232 95.3 L 177.232 144.041 C 177.191 147.554 175.903 150.762 173.432 153.235 C 170.961 155.707 167.744 156.998 164.236 157.038 L 132.403 157.038 L 132.403 167.664 L 136.324 167.664 C 138.18 167.703 139.938 168.423 141.25 169.682 C 142.506 170.997 143.26 172.765 143.26 174.62 C 143.26 176.482 142.506 178.235 141.242 179.542 C 139.938 180.786 138.18 181.498 136.324 181.537 L 108.551 181.537 C 106.695 181.498 104.937 180.77 103.624 179.51 C 102.369 178.196 101.615 176.435 101.615 174.573 C 101.615 172.718 102.369 170.958 103.633 169.659 C 104.937 168.415 106.695 167.703 108.551 167.664 L 112.472 167.664 Z M 81.644 143.039 L 163.231 143.039 L 163.231 96.301 L 81.644 96.301 L 81.644 143.039 Z"/>
</svg>