<?xml version="1.0" encoding="utf-8"?>
<svg clip-rule="evenodd" fill-rule="evenodd" stroke-linejoin="round" stroke-miterlimit="2" viewBox="0 0 245 210" xmlns="http://www.w3.org/2000/svg">
  <path d="M 98.002 0.001 C 108.518 0.001 118.711 3.687 126.796 10.416 L 228.793 91.419 C 239.059 99.971 244.997 112.64 244.997 125.996 L 244.997 175.003 C 244.997 184.284 241.311 193.188 234.748 199.745 C 228.186 206.31 219.281 210.004 209.996 210.004 L 35 210.004 C 25.715 210.004 16.819 206.31 10.248 199.745 C 3.686 193.188 -0.001 184.284 -0.001 175.003 L -0.001 35.002 C -0.001 25.714 3.686 16.817 10.248 10.252 C 16.819 3.687 25.715 0.001 35 0.001 L 98.002 0.001 Z M 35 17.419 C 30.341 17.419 25.869 19.274 22.571 22.568 C 19.274 25.87 17.419 30.338 17.419 35.002 L 17.419 175.003 C 17.419 179.659 19.274 184.135 22.571 187.429 C 25.869 190.723 30.341 192.578 35 192.578 L 209.996 192.578 C 214.663 192.578 219.136 190.723 222.433 187.429 C 225.731 184.135 227.578 179.659 227.578 175.003 L 227.578 125.996 C 227.578 117.812 223.94 110.05 217.645 104.807 L 115.648 23.804 C 110.689 19.681 104.451 17.419 98.002 17.419 L 35 17.419 Z M 37.309 44.736 C 32.772 44.736 29.086 41.23 29.086 36.911 C 29.086 32.592 32.772 29.086 37.309 29.086 L 94.372 29.086 C 98.909 29.086 102.587 32.592 102.587 36.911 C 102.587 41.23 98.909 44.736 94.372 44.736 L 37.309 44.736 Z M 164.665 25.948 C 161.992 23.843 160.947 20.268 162.057 17.052 C 163.175 13.828 166.213 11.668 169.616 11.668 L 218.333 11.668 C 222.312 11.668 226.128 13.249 228.939 16.058 C 231.75 18.875 233.33 22.685 233.33 26.668 L 233.33 63.539 C 233.33 66.598 231.58 69.392 228.826 70.73 C 226.071 72.068 222.79 71.716 220.383 69.822 L 164.665 25.948 Z M 119.699 148.602 C 118.792 148.195 117.973 147.64 117.252 146.936 L 92.63 122.311 C 91.212 120.871 90.532 119.165 90.58 117.201 C 90.629 115.237 91.342 113.547 92.727 112.131 C 94.226 110.699 95.952 110.01 97.904 110.065 C 99.865 110.128 101.55 110.863 102.968 112.28 L 115.283 124.596 L 115.283 82.796 C 115.283 80.8 115.972 79.087 117.357 77.655 C 118.743 76.215 120.444 75.495 122.454 75.495 C 124.463 75.495 126.148 76.215 127.517 77.655 C 128.887 79.087 129.567 80.8 129.567 82.796 L 129.567 124.596 L 142.036 112.28 C 143.43 110.863 145.067 110.128 146.938 110.065 C 148.802 110.01 150.471 110.691 151.937 112.115 C 153.444 113.547 154.165 115.261 154.117 117.272 C 154.068 119.283 153.331 121.012 151.913 122.467 L 127.59 146.936 C 126.869 147.64 126.035 148.195 125.111 148.602 C 124.179 149.017 123.272 149.221 122.389 149.221 C 121.498 149.221 120.606 149.017 119.699 148.602 Z M 84.269 180.535 C 80.315 180.535 76.944 179.143 74.157 176.357 C 71.37 173.571 69.985 170.199 69.985 166.247 L 69.985 151.654 C 69.985 149.651 70.673 147.961 72.059 146.576 C 73.444 145.199 75.146 144.51 77.155 144.51 C 79.164 144.51 80.85 145.199 82.219 146.576 C 83.588 147.961 84.269 149.651 84.269 151.654 L 84.269 166.247 L 160.574 166.247 L 160.574 151.654 C 160.574 149.651 161.271 147.961 162.656 146.576 C 164.042 145.199 165.735 144.51 167.736 144.51 C 169.737 144.51 171.447 145.199 172.873 146.576 C 174.307 147.961 175.02 149.651 175.02 151.654 L 175.02 166.247 C 175.02 170.199 173.61 173.571 170.799 176.357 C 167.979 179.143 164.576 180.535 160.574 180.535 L 84.269 180.535 Z"/>
</svg>