<?xml version="1.0" encoding="utf-8"?>
<svg clip-rule="evenodd" fill-rule="evenodd" stroke-linejoin="round" stroke-miterlimit="2" viewBox="0 0 245 210" xmlns="http://www.w3.org/2000/svg">
  <path d="M 98.002 0.001 C 108.518 0.001 118.711 3.687 126.796 10.416 L 228.793 91.419 C 239.059 99.971 244.997 112.64 244.997 125.996 L 244.997 175.003 C 244.997 184.284 241.311 193.188 234.748 199.745 C 228.186 206.31 219.281 210.004 209.996 210.004 L 35 210.004 C 25.715 210.004 16.819 206.31 10.248 199.745 C 3.686 193.188 -0.001 184.284 -0.001 175.003 L -0.001 35.002 C -0.001 25.714 3.686 16.817 10.248 10.252 C 16.819 3.687 25.715 0.001 35 0.001 L 98.002 0.001 Z M 35 17.419 C 30.341 17.419 25.869 19.274 22.571 22.568 C 19.274 25.87 17.419 30.338 17.419 35.002 L 17.419 175.003 C 17.419 179.659 19.274 184.135 22.571 187.429 C 25.869 190.723 30.341 192.578 35 192.578 L 209.996 192.578 C 214.663 192.578 219.136 190.723 222.433 187.429 C 225.731 184.135 227.578 179.659 227.578 175.003 L 227.578 125.996 C 227.578 117.812 223.94 110.05 217.645 104.807 L 115.648 23.804 C 110.689 19.681 104.451 17.419 98.002 17.419 L 35 17.419 Z M 37.309 44.736 C 32.772 44.736 29.086 41.23 29.086 36.911 C 29.086 32.592 32.772 29.086 37.309 29.086 L 94.372 29.086 C 98.909 29.086 102.587 32.592 102.587 36.911 C 102.587 41.23 98.909 44.736 94.372 44.736 L 37.309 44.736 Z M 164.665 25.948 C 161.992 23.843 160.947 20.268 162.057 17.052 C 163.175 13.828 166.213 11.668 169.616 11.668 L 218.333 11.668 C 222.312 11.668 226.128 13.249 228.939 16.058 C 231.75 18.875 233.33 22.685 233.33 26.668 L 233.33 63.539 C 233.33 66.598 231.58 69.392 228.826 70.73 C 226.071 72.068 222.79 71.716 220.383 69.822 L 164.665 25.948 Z M 126.513 78.429 C 131.568 90.417 141.988 113.195 161.554 149.494 C 162.308 150.903 162.105 152.64 161.052 153.845 C 159.991 155.042 158.297 155.473 156.798 154.909 C 154.603 154.119 152.261 153.36 149.952 152.71 C 149.466 152.593 148.964 152.859 148.785 153.336 C 148.607 153.806 148.826 154.338 149.28 154.557 C 158.848 160.042 168.692 168.305 173.229 171.913 C 173.821 172.374 174.315 172.961 174.671 173.618 C 174.728 173.728 174.785 173.83 174.833 173.939 C 175.757 175.661 175.465 177.789 174.096 179.182 C 172.735 180.582 170.62 180.935 168.878 180.043 C 158.8 174.792 149.936 170.997 141.591 168.697 C 138.261 167.844 135.976 164.776 136.122 161.341 C 136.13 161.122 136.138 160.903 136.146 160.684 C 136.43 148.548 130.621 138.203 123.142 137.569 C 115.672 136.936 109.369 146.247 109.061 158.391 L 109.037 158.986 C 109.037 159.721 109.053 160.449 109.085 161.153 C 109.264 164.62 106.963 167.726 103.6 168.564 C 95.206 170.864 86.286 174.651 76.134 179.933 C 74.384 180.825 72.261 180.465 70.892 179.049 C 69.523 177.64 69.239 175.504 70.187 173.783 C 86.837 143.673 95.263 127.734 101.729 114.69 C 102.32 113.477 103.381 112.553 104.67 112.154 C 105.95 111.747 107.351 111.888 108.526 112.546 C 112.318 114.071 117.617 115.433 123.774 116.857 C 124.252 116.982 124.747 116.732 124.933 116.278 C 125.119 115.816 124.933 115.292 124.512 115.05 C 118.257 111.356 113.412 107.139 110.244 104.04 C 108.931 102.718 108.575 100.722 109.353 99.024 C 112.845 91.395 115.348 85.268 118.168 78.289 C 118.864 76.575 120.542 75.464 122.389 75.495 C 124.244 75.526 125.881 76.692 126.513 78.429 Z"/>
</svg>