<?xml version="1.0" encoding="utf-8"?>
<svg clip-rule="evenodd" fill-rule="evenodd" stroke-linejoin="round" stroke-miterlimit="2" viewBox="0 0 48 48" xmlns="http://www.w3.org/2000/svg">
  <path d="M 44.493 22.269 C 45.873 23.788 46.65 25.778 46.65 27.857 L 46.65 38.39 C 46.65 41.152 44.412 43.39 41.65 43.39 L 6.35 43.39 C 5.023 43.39 3.751 42.863 2.815 41.926 C 1.877 40.988 1.35 39.716 1.35 38.39 L 1.35 9.56 C 1.35 8.233 1.877 6.962 2.815 6.024 C 3.751 5.087 5.023 4.56 6.35 4.56 L 19.47 4.56 C 21.415 4.56 23.3 5.241 24.795 6.486 L 25.085 6.716 L 39.494 6.716 C 42.255 6.716 44.493 8.955 44.493 11.716 Z M 40.824 24.86 L 21.96 9.878 C 21.259 9.298 20.38 8.98 19.47 8.98 L 8.533 8.98 C 7.8 8.98 7.098 9.272 6.579 9.79 C 6.061 10.307 5.77 11.01 5.77 11.742 L 5.77 36.206 C 5.77 36.939 6.061 37.642 6.579 38.158 C 7.098 38.676 7.8 38.968 8.533 38.968 L 39.467 38.968 C 40.2 38.968 40.902 38.676 41.42 38.16 C 41.939 37.642 42.229 36.939 42.229 36.206 L 42.229 27.857 C 42.229 26.707 41.722 25.616 40.842 24.875 Z M 18.192 35.405 C 17.495 35.386 16.807 35.101 16.303 34.624 C 15.825 34.12 15.54 33.43 15.521 32.734 L 15.521 30.517 C 15.54 30.118 15.72 29.683 15.984 29.392 C 16.278 29.127 16.713 28.932 17.111 28.932 C 17.51 28.932 17.944 29.129 18.236 29.395 C 18.498 29.687 18.674 30.119 18.692 30.517 L 18.692 32.234 L 29.286 32.234 L 29.286 30.517 C 29.305 30.118 29.483 29.685 29.749 29.392 C 30.042 29.127 30.475 28.932 30.873 28.932 C 31.27 28.932 31.717 29.111 32.002 29.387 C 32.289 29.665 32.46 30.115 32.48 30.517 L 32.48 32.734 C 32.461 33.431 32.172 34.122 31.689 34.626 C 31.181 35.102 30.488 35.386 29.786 35.405 Z M 24.6 18.584 C 24.78 18.668 24.977 18.801 25.121 18.934 L 28.824 22.66 C 29.091 22.958 29.293 23.392 29.304 23.788 C 29.315 24.196 29.106 24.643 28.819 24.945 C 28.517 25.213 28.083 25.408 27.697 25.396 C 27.318 25.384 26.9 25.178 26.612 24.91 L 25.574 23.885 L 25.574 29.039 C 25.556 29.434 25.384 29.866 25.125 30.165 C 24.833 30.441 24.396 30.648 23.993 30.648 C 23.591 30.648 23.153 30.443 22.86 30.167 C 22.597 29.869 22.422 29.436 22.404 29.039 L 22.404 23.896 L 21.386 24.913 C 21.094 25.181 20.669 25.384 20.279 25.396 C 19.882 25.408 19.439 25.213 19.13 24.943 C 18.871 24.652 18.678 24.214 18.651 23.825 C 18.661 23.427 18.836 22.987 19.104 22.686 L 22.85 18.94 C 22.992 18.807 23.192 18.67 23.368 18.586 C 23.554 18.507 23.794 18.447 23.984 18.447 C 24.173 18.447 24.412 18.505 24.6 18.584 Z"/>
</svg>