<?xml version="1.0" encoding="utf-8"?>
<svg clip-rule="evenodd" fill-rule="evenodd" stroke-linejoin="round" stroke-miterlimit="2" viewBox="0 0 245 210" xmlns="http://www.w3.org/2000/svg">
  <path d="M 98.002 0.001 C 108.518 0.001 118.711 3.687 126.796 10.416 L 228.793 91.419 C 239.059 99.971 244.997 112.64 244.997 125.996 L 244.997 175.003 C 244.997 184.284 241.311 193.188 234.748 199.745 C 228.186 206.31 219.281 210.004 209.996 210.004 L 35 210.004 C 25.715 210.004 16.819 206.31 10.248 199.745 C 3.686 193.188 -0.001 184.284 -0.001 175.003 L -0.001 35.002 C -0.001 25.714 3.686 16.817 10.248 10.252 C 16.819 3.687 25.715 0.001 35 0.001 L 98.002 0.001 Z M 35 17.419 C 30.341 17.419 25.869 19.274 22.571 22.568 C 19.274 25.87 17.419 30.338 17.419 35.002 L 17.419 175.003 C 17.419 179.659 19.274 184.135 22.571 187.429 C 25.869 190.723 30.341 192.578 35 192.578 L 209.996 192.578 C 214.663 192.578 219.136 190.723 222.433 187.429 C 225.731 184.135 227.578 179.659 227.578 175.003 L 227.578 125.996 C 227.578 117.812 223.94 110.05 217.645 104.807 L 115.648 23.804 C 110.689 19.681 104.451 17.419 98.002 17.419 L 35 17.419 Z M 37.309 44.736 C 32.772 44.736 29.086 41.23 29.086 36.911 C 29.086 32.592 32.772 29.086 37.309 29.086 L 94.372 29.086 C 98.909 29.086 102.587 32.592 102.587 36.911 C 102.587 41.23 98.909 44.736 94.372 44.736 L 37.309 44.736 Z M 164.665 25.948 C 161.992 23.843 160.947 20.268 162.057 17.052 C 163.175 13.828 166.213 11.668 169.616 11.668 L 218.333 11.668 C 222.312 11.668 226.128 13.249 228.939 16.058 C 231.75 18.875 233.33 22.685 233.33 26.668 L 233.33 63.539 C 233.33 66.598 231.58 69.392 228.826 70.73 C 226.071 72.068 222.79 71.716 220.383 69.822 L 164.665 25.948 Z M 118.824 144.854 C 117.617 144.815 116.442 144.267 115.672 143.399 C 114.992 142.468 114.732 141.216 114.992 140.089 C 114.984 140.097 114.984 140.112 114.984 140.12 L 117.349 125.91 C 115.899 124.956 114.765 123.939 113.671 122.413 C 112.577 120.824 111.953 118.892 111.953 116.912 C 111.953 114.056 113.055 111.458 114.992 109.463 C 116.993 107.53 119.594 106.434 122.446 106.434 C 125.297 106.434 127.898 107.53 129.883 109.463 C 131.82 111.458 132.922 114.056 132.922 116.912 C 132.922 118.892 132.298 120.824 131.204 122.413 C 130.11 123.939 128.984 124.948 127.534 125.895 L 130.029 140.175 C 130.191 141.271 129.875 142.483 129.195 143.391 C 128.425 144.26 127.25 144.815 126.059 144.854 L 118.824 144.854 Z M 114.984 140.12 L 114.967 140.199 C 114.967 140.175 114.975 140.152 114.984 140.12 Z M 120.266 181.326 C 119.577 181.193 118.921 180.981 118.338 180.715 C 106.209 176.733 96.454 169.158 89.227 158.18 C 82.057 147.186 78.419 135.292 78.403 122.765 L 78.403 99.196 C 78.419 96.536 79.181 93.969 80.607 91.771 C 82.081 89.58 84.171 87.937 86.659 87.037 L 117.973 75.307 C 119.383 74.783 120.939 74.494 122.437 74.494 C 123.944 74.494 125.492 74.783 126.902 75.307 L 158.2 87.029 C 160.687 87.929 162.81 89.572 164.325 91.755 C 165.792 93.962 166.577 96.536 166.602 99.196 L 166.602 122.765 C 166.577 135.292 162.923 147.194 155.705 158.18 C 148.445 169.158 138.642 176.725 126.537 180.715 C 125.938 180.989 125.297 181.193 124.617 181.326 C 123.936 181.459 123.175 181.537 122.437 181.537 C 121.7 181.537 120.939 181.459 120.266 181.326 Z M 122.437 168.11 C 131.285 164.588 138.35 158.931 144.135 150.645 C 149.912 142.374 152.772 133.203 152.747 122.812 L 152.747 99.885 L 122.437 88.414 L 92.128 99.948 L 92.128 122.757 C 92.103 133.18 94.963 142.374 100.74 150.645 C 106.525 158.931 113.59 164.588 122.437 168.11 Z"/>
</svg>