<?xml version="1.0" encoding="utf-8"?>
<svg clip-rule="evenodd" fill-rule="evenodd" stroke-linejoin="round" stroke-miterlimit="2" viewBox="0 0 245 210" xmlns="http://www.w3.org/2000/svg">
  <path d="M 98.002 0.001 C 108.518 0.001 118.711 3.687 126.796 10.416 L 228.793 91.419 C 239.059 99.971 244.997 112.64 244.997 125.996 L 244.997 175.003 C 244.997 184.284 241.311 193.188 234.748 199.745 C 228.186 206.31 219.281 210.004 209.996 210.004 L 35 210.004 C 25.715 210.004 16.819 206.31 10.248 199.745 C 3.686 193.188 -0.001 184.284 -0.001 175.003 L -0.001 35.002 C -0.001 25.714 3.686 16.817 10.248 10.252 C 16.819 3.687 25.715 0.001 35 0.001 L 98.002 0.001 Z M 35 17.419 C 30.341 17.419 25.869 19.274 22.571 22.568 C 19.274 25.87 17.419 30.338 17.419 35.002 L 17.419 175.003 C 17.419 179.659 19.274 184.135 22.571 187.429 C 25.869 190.723 30.341 192.578 35 192.578 L 209.996 192.578 C 214.663 192.578 219.136 190.723 222.433 187.429 C 225.731 184.135 227.578 179.659 227.578 175.003 L 227.578 125.996 C 227.578 117.812 223.94 110.05 217.645 104.807 L 115.648 23.804 C 110.689 19.681 104.451 17.419 98.002 17.419 L 35 17.419 Z M 37.309 44.736 C 32.772 44.736 29.086 41.23 29.086 36.911 C 29.086 32.592 32.772 29.086 37.309 29.086 L 94.372 29.086 C 98.909 29.086 102.587 32.592 102.587 36.911 C 102.587 41.23 98.909 44.736 94.372 44.736 L 37.309 44.736 Z M 164.665 25.948 C 161.992 23.843 160.947 20.268 162.057 17.052 C 163.175 13.828 166.213 11.668 169.616 11.668 L 218.333 11.668 C 222.312 11.668 226.128 13.249 228.939 16.058 C 231.75 18.875 233.33 22.685 233.33 26.668 L 233.33 63.539 C 233.33 66.598 231.58 69.392 228.826 70.73 C 226.071 72.068 222.79 71.716 220.383 69.822 L 164.665 25.948 Z M 73.161 180.535 C 71.451 180.535 69.977 179.941 68.737 178.767 C 67.505 177.593 66.882 176.138 66.882 174.416 C 66.882 172.687 67.505 171.224 68.737 170.035 C 69.977 168.845 71.451 168.243 73.161 168.243 L 171.973 168.243 C 173.691 168.243 175.141 168.837 176.332 170.011 C 177.523 171.185 178.115 172.64 178.115 174.37 C 178.115 176.091 177.523 177.554 176.332 178.744 C 175.141 179.941 173.691 180.535 171.973 180.535 L 73.161 180.535 Z M 157.941 155.887 C 156.231 154.189 155.372 152.116 155.372 149.682 L 155.372 131.779 C 155.372 129.314 156.231 127.209 157.949 125.488 C 159.666 123.759 161.732 122.89 164.163 122.89 C 166.586 122.89 168.644 123.759 170.345 125.488 C 172.038 127.209 172.889 129.314 172.889 131.779 L 172.889 149.682 C 172.889 152.116 172.046 154.189 170.377 155.887 C 168.7 157.593 166.642 158.446 164.187 158.446 C 161.741 158.446 159.658 157.593 157.941 155.887 Z M 130.353 155.887 C 128.644 154.189 127.793 152.116 127.793 149.682 L 127.793 105.636 C 127.793 103.171 128.644 101.074 130.337 99.345 C 132.03 97.616 134.096 96.747 136.535 96.747 C 138.974 96.747 141.04 97.616 142.749 99.345 C 144.451 101.074 145.31 103.171 145.31 105.636 L 145.31 149.682 C 145.31 152.116 144.459 154.189 142.766 155.887 C 141.064 157.593 138.998 158.446 136.567 158.446 C 134.129 158.446 132.055 157.593 130.353 155.887 Z M 102.547 155.887 C 100.821 154.189 99.954 152.116 99.954 149.682 L 99.954 121.325 C 99.954 118.852 100.813 116.755 102.531 115.026 C 104.248 113.297 106.331 112.436 108.777 112.436 C 111.232 112.436 113.315 113.297 115.024 115.026 C 116.742 116.755 117.601 118.852 117.601 121.325 L 117.601 149.682 C 117.601 152.116 116.75 154.189 115.056 155.887 C 113.355 157.593 111.289 158.446 108.858 158.446 C 106.379 158.446 104.281 157.593 102.547 155.887 Z M 74.708 155.887 C 72.982 154.189 72.116 152.116 72.116 149.682 L 72.116 89.955 C 72.116 87.483 72.974 85.386 74.692 83.656 C 76.41 81.927 78.492 81.066 80.939 81.066 C 83.386 81.066 85.468 81.927 87.185 83.656 C 88.903 85.386 89.762 87.483 89.762 89.955 L 89.762 149.682 C 89.762 152.116 88.911 154.189 87.218 155.887 C 85.516 157.593 83.45 158.446 81.02 158.446 C 78.54 158.446 76.442 157.593 74.708 155.887 Z"/>
</svg>