<?xml version="1.0" encoding="utf-8"?>
<svg clip-rule="evenodd" fill-rule="evenodd" stroke-linejoin="round" stroke-miterlimit="2" viewBox="0 0 245 210" xmlns="http://www.w3.org/2000/svg">
  <path d="M 98.002 0.001 C 108.518 0.001 118.711 3.687 126.796 10.416 L 228.793 91.419 C 239.059 99.971 244.997 112.64 244.997 125.996 L 244.997 175.003 C 244.997 184.284 241.311 193.188 234.748 199.745 C 228.186 206.31 219.281 210.004 209.996 210.004 L 35 210.004 C 25.715 210.004 16.819 206.31 10.248 199.745 C 3.686 193.188 -0.001 184.284 -0.001 175.003 L -0.001 35.002 C -0.001 25.714 3.686 16.817 10.248 10.252 C 16.819 3.687 25.715 0.001 35 0.001 L 98.002 0.001 Z M 35 17.419 C 30.341 17.419 25.869 19.274 22.571 22.568 C 19.274 25.87 17.419 30.338 17.419 35.002 L 17.419 175.003 C 17.419 179.659 19.274 184.135 22.571 187.429 C 25.869 190.723 30.341 192.578 35 192.578 L 209.996 192.578 C 214.663 192.578 219.136 190.723 222.433 187.429 C 225.731 184.135 227.578 179.659 227.578 175.003 L 227.578 125.996 C 227.578 117.812 223.94 110.05 217.645 104.807 L 115.648 23.804 C 110.689 19.681 104.451 17.419 98.002 17.419 L 35 17.419 Z M 37.309 44.736 C 32.772 44.736 29.086 41.23 29.086 36.911 C 29.086 32.592 32.772 29.086 37.309 29.086 L 94.372 29.086 C 98.909 29.086 102.587 32.592 102.587 36.911 C 102.587 41.23 98.909 44.736 94.372 44.736 L 37.309 44.736 Z M 164.665 25.948 C 161.992 23.843 160.947 20.268 162.057 17.052 C 163.175 13.828 166.213 11.668 169.616 11.668 L 218.333 11.668 C 222.312 11.668 226.128 13.249 228.939 16.058 C 231.75 18.875 233.33 22.685 233.33 26.668 L 233.33 63.539 C 233.33 66.598 231.58 69.392 228.826 70.73 C 226.071 72.068 222.79 71.716 220.383 69.822 L 164.665 25.948 Z M 80.291 135.558 C 73.533 128.766 70.147 120.59 70.147 111.028 C 70.147 109.212 70.333 107.514 70.698 105.926 C 71.054 104.337 71.508 102.592 72.059 100.683 C 72.423 99.869 72.966 99.15 73.687 98.539 C 74.417 97.929 75.235 97.553 76.142 97.42 C 76.936 97.232 77.771 97.264 78.646 97.498 C 79.513 97.733 80.323 98.211 81.06 98.93 L 95.612 113.485 L 108.137 101.771 L 92.905 86.544 C 92.184 85.808 91.706 85.01 91.471 84.149 C 91.236 83.296 91.204 82.459 91.39 81.645 C 91.528 80.816 91.885 80.033 92.452 79.306 C 93.027 78.578 93.772 78.046 94.704 77.725 C 96.487 77.146 98.196 76.63 99.833 76.176 C 101.461 75.722 103.179 75.495 104.986 75.495 C 114.822 75.495 123.183 78.954 130.07 85.863 C 136.956 92.772 140.4 101.161 140.4 111.028 C 140.4 113.046 140.246 115.026 139.922 116.967 C 139.606 118.907 139.128 120.926 138.496 123.015 L 170.353 154.737 C 173.44 157.82 174.939 161.474 174.85 165.692 C 174.752 169.917 173.181 173.477 170.11 176.381 C 167.137 179.197 163.604 180.575 159.496 180.535 C 155.389 180.489 151.88 179.01 148.98 176.107 L 116.847 143.845 C 114.943 144.479 113.088 144.956 111.289 145.269 C 109.49 145.59 107.4 145.746 105.002 145.746 C 95.287 145.746 87.048 142.35 80.291 135.558 Z M 105.002 134.447 C 107.27 134.447 109.677 134.087 112.221 133.36 C 114.757 132.632 116.985 131.544 118.889 130.089 L 157.009 168.211 C 157.738 169.025 158.646 169.44 159.731 169.44 C 160.825 169.44 161.732 169.049 162.454 168.282 C 163.183 167.507 163.547 166.599 163.547 165.559 C 163.547 164.51 163.183 163.579 162.454 162.765 L 124.884 125.191 C 126.335 123.281 127.42 121.036 128.149 118.453 C 128.87 115.863 129.235 113.391 129.235 111.028 C 129.235 104.22 126.715 98.461 121.684 93.743 C 116.644 89.024 110.9 86.614 104.459 86.528 L 116.58 98.915 C 117.844 100.253 118.459 101.833 118.411 103.657 C 118.37 105.488 117.714 107.037 116.442 108.305 L 101.874 121.787 C 100.457 123.054 98.852 123.696 97.07 123.696 C 95.287 123.696 93.805 123.054 92.614 121.787 L 81.044 110.347 C 81.311 117.342 83.799 123.101 88.482 127.64 C 93.173 132.178 98.682 134.447 105.002 134.447 Z"/>
</svg>