<?xml version="1.0" encoding="utf-8"?>
<svg clip-rule="evenodd" fill-rule="evenodd" stroke-linejoin="round" stroke-miterlimit="2" viewBox="0 0 245 210" xmlns="http://www.w3.org/2000/svg">
  <path d="M 98.002 0.001 C 108.518 0.001 118.711 3.687 126.796 10.416 L 228.793 91.419 C 239.059 99.971 244.997 112.64 244.997 125.996 L 244.997 175.003 C 244.997 184.284 241.311 193.188 234.748 199.745 C 228.186 206.31 219.281 210.004 209.996 210.004 L 35 210.004 C 25.715 210.004 16.819 206.31 10.248 199.745 C 3.686 193.188 -0.001 184.284 -0.001 175.003 L -0.001 35.002 C -0.001 25.714 3.686 16.817 10.248 10.252 C 16.819 3.687 25.715 0.001 35 0.001 L 98.002 0.001 Z M 35 17.419 C 30.341 17.419 25.869 19.274 22.571 22.568 C 19.274 25.87 17.419 30.338 17.419 35.002 L 17.419 175.003 C 17.419 179.659 19.274 184.135 22.571 187.429 C 25.869 190.723 30.341 192.578 35 192.578 L 209.996 192.578 C 214.663 192.578 219.136 190.723 222.433 187.429 C 225.731 184.135 227.578 179.659 227.578 175.003 L 227.578 125.996 C 227.578 117.812 223.94 110.05 217.645 104.807 L 115.648 23.804 C 110.689 19.681 104.451 17.419 98.002 17.419 L 35 17.419 Z M 37.309 44.736 C 32.772 44.736 29.086 41.23 29.086 36.911 C 29.086 32.592 32.772 29.086 37.309 29.086 L 94.372 29.086 C 98.909 29.086 102.587 32.592 102.587 36.911 C 102.587 41.23 98.909 44.736 94.372 44.736 L 37.309 44.736 Z M 164.665 25.948 C 161.992 23.843 160.947 20.268 162.057 17.052 C 163.175 13.828 166.213 11.668 169.616 11.668 L 218.333 11.668 C 222.312 11.668 226.128 13.249 228.939 16.058 C 231.75 18.875 233.33 22.685 233.33 26.668 L 233.33 63.539 C 233.33 66.598 231.58 69.392 228.826 70.73 C 226.071 72.068 222.79 71.716 220.383 69.822 L 164.665 25.948 Z M 128.538 136.951 L 129.17 139.385 C 129.883 139.643 130.199 139.776 130.783 140.05 L 132.946 138.782 C 133.481 138.493 134.202 138.305 134.769 138.336 C 135.344 138.368 136.049 138.634 136.543 138.97 C 138.358 140.332 140.019 141.998 141.38 143.806 C 141.72 144.307 141.988 145.011 142.02 145.582 C 142.053 146.153 141.866 146.873 141.575 147.405 L 140.302 149.573 C 140.627 150.261 140.756 150.574 140.975 151.185 L 143.397 151.811 C 143.981 151.991 144.621 152.366 145.002 152.789 C 145.391 153.219 145.698 153.9 145.804 154.494 C 146.128 156.74 146.128 159.095 145.804 161.333 C 145.698 161.928 145.391 162.609 145.002 163.039 C 144.621 163.462 143.981 163.845 143.397 164.017 L 140.975 164.643 C 140.708 165.363 140.578 165.676 140.302 166.263 L 141.575 168.423 C 141.858 168.955 142.053 169.682 142.02 170.254 C 141.988 170.825 141.72 171.521 141.38 172.022 C 140.019 173.837 138.358 175.496 136.543 176.858 C 136.049 177.202 135.344 177.468 134.777 177.499 C 134.202 177.531 133.472 177.335 132.946 177.053 L 130.783 175.778 C 130.094 176.099 129.778 176.232 129.17 176.451 L 128.538 178.877 C 128.368 179.456 127.987 180.105 127.566 180.481 C 127.137 180.864 126.448 181.177 125.857 181.287 C 123.612 181.607 121.263 181.607 119.018 181.287 C 118.427 181.177 117.738 180.864 117.309 180.481 C 116.888 180.105 116.507 179.456 116.337 178.877 L 115.705 176.451 C 114.992 176.185 114.676 176.06 114.092 175.778 L 111.929 177.053 C 111.402 177.335 110.673 177.531 110.106 177.499 C 109.531 177.468 108.826 177.202 108.332 176.858 C 106.517 175.496 104.856 173.837 103.495 172.022 C 103.155 171.521 102.887 170.825 102.855 170.254 C 102.822 169.682 103.017 168.955 103.3 168.423 L 104.572 166.263 C 104.248 165.567 104.119 165.254 103.9 164.643 L 101.477 164.017 C 100.894 163.845 100.254 163.462 99.865 163.039 C 99.484 162.609 99.176 161.928 99.071 161.333 C 98.747 159.095 98.747 156.74 99.071 154.494 C 99.176 153.9 99.484 153.219 99.865 152.789 C 100.254 152.366 100.894 151.991 101.477 151.811 L 103.9 151.185 C 104.167 150.465 104.297 150.152 104.572 149.565 L 103.3 147.405 C 103.017 146.873 102.822 146.153 102.855 145.582 C 102.887 145.011 103.155 144.307 103.495 143.814 C 104.856 141.998 106.517 140.332 108.332 138.97 C 108.834 138.634 109.531 138.368 110.106 138.336 C 110.681 138.305 111.402 138.493 111.929 138.782 L 114.092 140.05 C 114.789 139.729 115.097 139.604 115.705 139.385 L 116.337 136.959 C 116.507 136.38 116.888 135.731 117.317 135.347 C 117.738 134.964 118.427 134.659 119.018 134.549 C 121.263 134.22 123.612 134.22 125.857 134.549 C 126.456 134.659 127.137 134.964 127.566 135.347 C 127.987 135.731 128.36 136.372 128.538 136.951 Z M 116.126 151.607 C 114.457 153.274 113.517 155.379 113.517 157.914 C 113.517 160.449 114.457 162.554 116.126 164.229 C 117.795 165.895 119.902 166.842 122.437 166.842 C 124.973 166.842 127.08 165.895 128.749 164.229 C 130.418 162.554 131.366 160.449 131.366 157.914 C 131.366 155.379 130.418 153.274 128.749 151.607 C 127.08 149.94 124.973 148.994 122.437 148.994 C 119.902 148.994 117.795 149.94 116.126 151.607 Z M 120.509 128.657 C 119.869 128.407 119.124 127.859 118.573 127.295 L 98.852 102.146 C 97.686 100.613 97.41 98.711 98.115 96.959 C 98.512 96.106 99.152 95.308 99.865 94.854 C 100.586 94.408 101.583 94.165 102.547 94.149 L 108.575 94.149 L 108.575 79.509 C 108.607 78.234 109.101 76.919 109.993 75.988 C 110.884 75.057 112.205 74.54 113.501 74.494 L 131.398 74.494 C 132.687 74.533 134.007 75.049 134.939 75.972 C 135.854 76.904 136.373 78.226 136.414 79.509 L 136.414 94.149 L 142.441 94.149 C 143.406 94.165 144.402 94.408 145.115 94.854 C 145.836 95.308 146.476 96.106 146.873 96.959 C 147.578 98.696 147.343 100.597 146.233 102.123 L 126.278 127.366 C 125.727 127.929 125.03 128.407 124.39 128.657 C 123.782 128.884 123.078 129.017 122.454 129.017 C 121.83 129.017 121.125 128.884 120.509 128.657 Z M 122.454 115.981 L 131.05 105.433 L 127.469 105.433 C 126.918 105.433 126.464 104.987 126.464 104.431 L 126.464 84.447 L 118.435 84.447 L 118.435 104.431 C 118.435 104.987 117.989 105.433 117.43 105.433 L 113.857 105.433 L 122.454 115.981 Z"/>
</svg>