<?xml version="1.0" encoding="utf-8"?>
<svg clip-rule="evenodd" fill-rule="evenodd" stroke-linejoin="round" stroke-miterlimit="2" viewBox="0 0 245 210" xmlns="http://www.w3.org/2000/svg">
  <path d="M 98.002 0.001 C 108.518 0.001 118.711 3.687 126.796 10.416 L 228.793 91.419 C 239.059 99.971 244.997 112.64 244.997 125.996 L 244.997 175.003 C 244.997 184.284 241.311 193.188 234.748 199.745 C 228.186 206.31 219.281 210.004 209.996 210.004 L 35 210.004 C 25.715 210.004 16.819 206.31 10.248 199.745 C 3.686 193.188 -0.001 184.284 -0.001 175.003 L -0.001 35.002 C -0.001 25.714 3.686 16.817 10.248 10.252 C 16.819 3.687 25.715 0.001 35 0.001 L 98.002 0.001 Z M 35 17.419 C 30.341 17.419 25.869 19.274 22.571 22.568 C 19.274 25.87 17.419 30.338 17.419 35.002 L 17.419 175.003 C 17.419 179.659 19.274 184.135 22.571 187.429 C 25.869 190.723 30.341 192.578 35 192.578 L 209.996 192.578 C 214.663 192.578 219.136 190.723 222.433 187.429 C 225.731 184.135 227.578 179.659 227.578 175.003 L 227.578 125.996 C 227.578 117.812 223.94 110.05 217.645 104.807 L 115.648 23.804 C 110.689 19.681 104.451 17.419 98.002 17.419 L 35 17.419 Z M 37.309 44.736 C 32.772 44.736 29.086 41.23 29.086 36.911 C 29.086 32.592 32.772 29.086 37.309 29.086 L 94.372 29.086 C 98.909 29.086 102.587 32.592 102.587 36.911 C 102.587 41.23 98.909 44.736 94.372 44.736 L 37.309 44.736 Z M 164.665 25.948 C 161.992 23.843 160.947 20.268 162.057 17.052 C 163.175 13.828 166.213 11.668 169.616 11.668 L 218.333 11.668 C 222.312 11.668 226.128 13.249 228.939 16.058 C 231.75 18.875 233.33 22.685 233.33 26.668 L 233.33 63.539 C 233.33 66.598 231.58 69.392 228.826 70.73 C 226.071 72.068 222.79 71.716 220.383 69.822 L 164.665 25.948 Z M 163.077 85.143 C 167.396 85.19 171.487 86.958 174.299 89.775 C 177.102 92.577 178.885 96.669 178.925 100.988 L 178.925 161.858 C 178.885 166.177 177.102 170.269 174.299 173.071 C 171.487 175.88 167.396 177.656 163.077 177.703 L 81.919 177.703 C 77.609 177.656 73.517 175.88 70.698 173.071 C 67.894 170.269 66.112 166.177 66.071 161.858 L 66.071 100.988 C 66.112 96.669 67.894 92.577 70.698 89.775 C 73.517 86.958 77.609 85.19 81.919 85.143 L 163.077 85.143 Z M 81.919 96.552 C 80.809 96.52 79.966 96.873 79.156 97.514 C 78.354 98.148 78.362 99.909 78.095 100.355 L 166.893 100.355 C 166.626 99.917 166.642 98.148 165.84 97.514 C 165.038 96.873 164.187 96.52 163.077 96.552 L 81.919 96.552 Z M 77.479 111.756 L 77.479 161.858 C 77.439 163.164 77.917 164.135 78.784 164.995 C 79.634 165.856 80.623 166.333 81.919 166.294 L 163.077 166.294 C 164.382 166.333 165.362 165.856 166.221 164.995 C 167.08 164.135 167.558 163.164 167.517 161.858 L 167.517 111.756 L 77.479 111.756 Z M 95.449 145.628 L 149.555 145.628 C 151.629 145.667 153.711 146.552 155.064 147.905 C 156.409 149.259 157.333 151.333 157.333 153.414 C 157.333 155.495 156.409 157.569 155.064 158.923 C 153.711 160.269 151.629 161.153 149.555 161.192 L 95.449 161.192 C 93.367 161.153 91.293 160.269 89.94 158.923 C 88.587 157.569 87.672 155.495 87.672 153.414 C 87.672 151.333 88.587 149.259 89.94 147.905 C 91.293 146.552 93.367 145.667 95.449 145.628 Z"/>
</svg>