<?xml version="1.0" encoding="utf-8"?>
<svg clip-rule="evenodd" fill-rule="evenodd" stroke-linejoin="round" stroke-miterlimit="2" viewBox="0 0 245 210" xmlns="http://www.w3.org/2000/svg">
  <path d="M 98.002 0.001 C 108.518 0.001 118.711 3.687 126.796 10.416 L 228.793 91.419 C 239.059 99.971 244.997 112.64 244.997 125.996 L 244.997 175.003 C 244.997 184.284 241.311 193.188 234.748 199.745 C 228.186 206.31 219.281 210.004 209.996 210.004 L 35 210.004 C 25.715 210.004 16.819 206.31 10.248 199.745 C 3.686 193.188 -0.001 184.284 -0.001 175.003 L -0.001 35.002 C -0.001 25.714 3.686 16.817 10.248 10.252 C 16.819 3.687 25.715 0.001 35 0.001 L 98.002 0.001 Z M 35 17.419 C 30.341 17.419 25.869 19.274 22.571 22.568 C 19.274 25.87 17.419 30.338 17.419 35.002 L 17.419 175.003 C 17.419 179.659 19.274 184.135 22.571 187.429 C 25.869 190.723 30.341 192.578 35 192.578 L 209.996 192.578 C 214.663 192.578 219.136 190.723 222.433 187.429 C 225.731 184.135 227.578 179.659 227.578 175.003 L 227.578 125.996 C 227.578 117.812 223.94 110.05 217.645 104.807 L 115.648 23.804 C 110.689 19.681 104.451 17.419 98.002 17.419 L 35 17.419 Z M 37.309 44.736 C 32.772 44.736 29.086 41.23 29.086 36.911 C 29.086 32.592 32.772 29.086 37.309 29.086 L 94.372 29.086 C 98.909 29.086 102.587 32.592 102.587 36.911 C 102.587 41.23 98.909 44.736 94.372 44.736 L 37.309 44.736 Z M 164.665 25.948 C 161.992 23.843 160.947 20.268 162.057 17.052 C 163.175 13.828 166.213 11.668 169.616 11.668 L 218.333 11.668 C 222.312 11.668 226.128 13.249 228.939 16.058 C 231.75 18.875 233.33 22.685 233.33 26.668 L 233.33 63.539 C 233.33 66.598 231.58 69.392 228.826 70.73 C 226.071 72.068 222.79 71.716 220.383 69.822 L 164.665 25.948 Z M 96.187 169.01 C 88.498 168.97 81.708 166.193 76.183 160.817 C 70.706 155.387 67.83 148.618 67.83 140.879 C 67.83 134.228 69.912 128.094 73.947 122.827 C 77.998 117.546 83.118 114.486 89.349 113.242 C 91.326 105.644 95.206 99.423 101.38 94.486 C 107.546 89.556 114.797 87.021 122.77 87.021 C 131.901 87.021 139.922 90.37 146.395 96.88 C 152.853 103.383 156.458 111.497 157.114 120.715 L 157.114 122.601 C 162.697 123.352 167.29 125.597 171.228 129.854 C 175.117 134.166 177.167 139.58 177.167 145.746 C 177.167 152.116 174.85 157.75 170.377 162.218 C 165.913 166.686 160.282 168.97 153.914 169.01 L 96.187 169.01 Z M 96.187 156.106 L 153.679 156.106 C 156.596 156.146 158.929 155.128 161.109 152.976 C 163.28 150.832 164.276 148.493 164.276 145.519 C 164.276 142.546 163.28 140.206 161.109 138.055 C 158.929 135.911 156.596 134.885 153.679 134.925 L 145.334 134.925 C 144.783 134.925 144.337 134.479 144.337 133.923 L 144.337 122.914 C 144.37 116.419 142.279 111.114 137.937 106.661 C 133.643 102.154 128.563 100.034 122.324 100.034 C 115.923 100.034 110.803 102.311 106.493 107.068 C 102.174 111.841 100.051 117.413 100.084 124.189 C 100.084 124.745 99.638 125.191 99.087 125.191 L 95.838 125.191 C 91.528 125.151 88.069 126.583 85.119 129.627 C 82.105 132.608 80.728 136.161 80.728 140.629 C 80.728 145.011 82.138 148.548 85.233 151.591 C 88.263 154.69 91.795 156.146 96.187 156.106 Z"/>
</svg>