<svg clip-rule="evenodd" fill-rule="evenodd" stroke-linejoin="round" stroke-miterlimit="2" viewBox="0 0 250 250" xmlns="http://www.w3.org/2000/svg"><g transform="matrix(.295854 0 0 .295854 -17.1577 267.158)"><path d="m259-772-70 89.444v493.556l582 .326v-502.326l-71.41-81z" fill="#fff"/><path d="m189-95c-26.533 0-48.833-9.033-66.9-27.1s-27.1-40.367-27.1-66.9v-493c0-10.587 1.833-20.94 5.5-31.06s8.897-19.42 15.69-27.9l72.81-95.04c8.5-10.687 18.703-18.36 30.61-23.02 11.907-4.653 24.703-6.98 38.39-6.98h444c13 0 25.457 2.327 37.37 6.98 11.913 4.66 22.123 12.333 30.63 23.02l74.81 95.04c6.127 8.48 11.19 17.78 15.19 27.9s6 20.473 6 31.06v493c0 26.533-9.13 48.833-27.39 66.9-18.267 18.067-40.803 27.1-67.61 27.1zm582-515.486c0-7.562-3.004-14.815-8.352-20.162-5.347-5.348-12.6-8.352-20.162-8.352h-524.972c-7.562 0-14.815 3.004-20.162 8.352-5.348 5.347-8.352 12.6-8.352 20.162v392.972c0 7.562 3.004 14.815 8.352 20.162 5.347 5.348 12.6 8.352 20.162 8.352h524.972c7.562 0 14.815-3.004 20.162-8.352 5.348-5.347 8.352-12.6 8.352-20.162zm-118.492 213.863c-3.585 39.789-20.389 74.695-50.413 104.719-34.094 34.094-74.946 51.141-122.556 51.141-47.609 0-88.308-17.047-122.095-51.141-11.202-11.304-20.547-23.3-28.035-35.988.497.028.998.043 1.505.043 6.576 0 12.329-2.411 17.259-7.231l83.159-83.16 79.544 78.941c5.66 6.026 12.361 9.039 20.102 9.039 7.746 0 14.704-3.013 20.875-9.039l78.941-79.543zm-345.489-26.615c2.229-43.82 19.034-81.507 50.416-113.06 33.781-33.959 74.636-50.939 122.565-50.939 47.302 0 88.001 16.98 122.095 50.939 14.37 14.315 25.711 29.892 34.024 46.732-1.413-.256-2.887-.384-4.421-.384-6.657 0-12.181 2.411-16.572 7.232l-83.762 83.159-79.544-78.941c-5.624-5.624-12.307-8.437-20.048-8.437-7.746 0-14.521 2.813-20.326 8.437l-80.146 79.544zm-69.539-321.264c-2.698 3.448-3.194 8.133-1.276 12.069s5.912 6.433 10.291 6.433h465.845c4.39 0 8.393-2.51 10.305-6.462 1.912-3.951 1.395-8.648-1.329-12.09l-12.522-15.82c-5.814-7.345-14.667-11.628-24.034-11.628h-410.826c-9.426 0-18.328 4.337-24.138 11.76z"/></g></svg>