<svg clip-rule="evenodd" fill-rule="evenodd" stroke-linejoin="round" stroke-miterlimit="2" viewBox="0 0 250 250" xmlns="http://www.w3.org/2000/svg"><g transform="matrix(.295854 0 0 .295854 -17.1577 267.158)"><path d="m223-726 36-46h440.59l36.41 46zm548 87v450h-582v-450z" fill="#fff"/><path d="m189-95c-26.533 0-48.833-9.033-66.9-27.1s-27.1-40.367-27.1-66.9v-493c0-10.587 1.833-20.94 5.5-31.06s8.897-19.42 15.69-27.9l72.81-95.04c8.5-10.687 18.703-18.36 30.61-23.02 11.907-4.653 24.703-6.98 38.39-6.98h444c13 0 25.457 2.327 37.37 6.98 11.913 4.66 22.123 12.333 30.63 23.02l74.81 95.04c6.127 8.48 11.19 17.78 15.19 27.9s6 20.473 6 31.06v493c0 26.533-9.13 48.833-27.39 66.9-18.267 18.067-40.803 27.1-67.61 27.1zm34-631h513l-36.41-46h-440.59zm548 87h-582v450h582zm-291.461 398.237c-47.609 0-88.308-17.047-122.095-51.142-33.788-34.094-50.681-74.485-50.681-121.174 0-48.18 16.89-89.254 50.672-123.219 33.781-33.96 74.636-50.939 122.565-50.939 47.302 0 88.001 16.979 122.095 50.939 34.095 33.965 51.142 75.039 51.142 123.219 0 46.689-17.047 87.08-51.142 121.174-34.094 34.095-74.946 51.142-122.556 51.142zm-23.346-167.583c0 1.577-.954 2.996-2.414 3.59-1.46.595-3.135.246-4.236-.882l-9.407-9.637c-.128-.131-.258-.257-.393-.38-5.253-4.816-10.978-7.007-16.992-7.007-6.12 0-11.827 2.251-16.95 7.147l-.159.155c-4.969 4.969-7.303 10.681-7.303 17.005s2.334 12.035 7.303 17.004l54.212 54.614.026.026c5.671 5.671 12.519 8.508 20.548 8.508 7.962 0 14.834-2.796 20.603-8.42l.115-.114 54.238-54.64c4.943-4.943 7.277-10.654 7.277-16.978s-2.334-12.036-7.303-17.005c-4.969-4.968-10.68-7.302-17.004-7.302s-12.036 2.334-17.005 7.302l-.041.042-9.868 9.987c-1.105 1.118-2.775 1.458-4.23.861-1.454-.597-2.403-2.014-2.403-3.586v-74.669c0-6.639-2.261-12.296-6.717-16.997-4.537-4.786-10.34-7.31-17.518-7.31-7.135 0-12.946 2.494-17.531 7.249-4.55 4.716-6.848 10.396-6.848 17.058z"/></g></svg>