<svg fill="grey" clip-rule="evenodd" fill-rule="evenodd" stroke-linejoin="round" stroke-miterlimit="2" viewBox="0 0 245 210" xmlns="http://www.w3.org/2000/svg"><path d="m7.144 3.567h7.776c1.298 0 2.556.471 3.554 1.331l12.589 10.352c1.267 1.093 2 2.712 2 4.419v6.263c0 1.186-.455 2.324-1.265 3.162-.81.839-1.909 1.311-3.055 1.311h-21.599c-1.146 0-2.244-.472-3.055-1.311-.81-.838-1.265-1.976-1.265-3.162v-17.892c0-1.187.455-2.324 1.265-3.163.811-.839 1.909-1.31 3.055-1.31zm0 2.226c-.575 0-1.127.237-1.534.658-.407.422-.636.993-.636 1.589v17.892c0 .595.229 1.167.636 1.588s.959.658 1.534.658h21.599c.576 0 1.128-.237 1.535-.658s.635-.993.635-1.588v-6.263c0-1.046-.449-2.038-1.226-2.708l-12.589-10.352c-.612-.527-1.382-.816-2.178-.816zm.285 3.491c-.56 0-1.015-.448-1.015-1s.455-1 1.015-1h7.043c.56 0 1.014.448 1.014 1s-.454 1-1.014 1zm15.719-2.401c-.33-.269-.459-.726-.322-1.137.138-.412.513-.688.933-.688h6.013c.491 0 .962.202 1.309.561.347.36.542.847.542 1.356v4.712c0 .391-.216.748-.556.919s-.745.126-1.042-.116z" transform="matrix(8.10206 0 0 7.82482 -22.8811 -27.9099)"/><path d="m11.262 30.915c-.631.571-1.229 1.167-1.79 1.775-.489.564-1.308.705-1.958.338s-.951-1.141-.721-1.851c1.031-3.368 2.839-6.333 5.187-8.635 1.881-1.849 3.005-4.333 3.152-6.967.025-.232.045-.419.045-.543 0-4.87 3.953-8.824 8.823-8.824s8.823 3.954 8.823 8.824c0 .526.342 2.136.731 3.623.342 1.328 1.063 2.527 2.076 3.452 2.544 2.374 4.523 5.49 5.635 9.056.235.73-.075 1.524-.742 1.901-.668.377-1.508.233-2.012-.345-.555-.612-1.147-1.21-1.773-1.783v.011c0 7.03-5.708 12.738-12.738 12.738s-12.738-5.708-12.738-12.738zm9.383-11.666c-.195-.279-.522-.435-.862-.412-.339.023-.642.222-.798.525-.734 1.428-1.862 3.984-2.778 7.781l-.094.398c-.266 1.145-.415 2.177-.415 3.028 0 4.582 3.72 8.68 8.302 8.68s8.302-4.098 8.302-8.68c0-.852-.149-1.885-.415-3.03-.934-4.022-2.113-6.703-2.875-8.176-.155-.302-.457-.5-.795-.523-.339-.023-.665.132-.859.41-.524.741-1.199 1.703-1.807 2.57-.355.505-.934.806-1.551.806s-1.196-.301-1.551-.806z" transform="matrix(2.8027 0 0 2.8027 55.1521 58.0975)"/></svg>