<svg fill="grey" clip-rule="evenodd" fill-rule="evenodd" stroke-linejoin="round" stroke-miterlimit="2" viewBox="0 0 245 210" xmlns="http://www.w3.org/2000/svg"><path d="m7.144 3.567h7.776c1.298 0 2.556.471 3.554 1.331l12.589 10.352c1.267 1.093 2 2.712 2 4.419v6.263c0 1.186-.455 2.324-1.265 3.162-.81.839-1.909 1.311-3.055 1.311h-21.599c-1.146 0-2.244-.472-3.055-1.311-.81-.838-1.265-1.976-1.265-3.162v-17.892c0-1.187.455-2.324 1.265-3.163.811-.839 1.909-1.31 3.055-1.31zm0 2.226c-.575 0-1.127.237-1.534.658-.407.422-.636.993-.636 1.589v17.892c0 .595.229 1.167.636 1.588s.959.658 1.534.658h21.599c.576 0 1.128-.237 1.535-.658s.635-.993.635-1.588v-6.263c0-1.046-.449-2.038-1.226-2.708l-12.589-10.352c-.612-.527-1.382-.816-2.178-.816zm.285 3.491c-.56 0-1.015-.448-1.015-1s.455-1 1.015-1h7.043c.56 0 1.014.448 1.014 1s-.454 1-1.014 1zm15.719-2.401c-.33-.269-.459-.726-.322-1.137.138-.412.513-.688.933-.688h6.013c.491 0 .962.202 1.309.561.347.36.542.847.542 1.356v4.712c0 .391-.216.748-.556.919s-.745.126-1.042-.116z" transform="matrix(8.10206 0 0 7.82482 -22.8811 -27.9099)"/><path d="m253-135c-64.707 0-120.217-22.727-166.53-68.18-46.313-45.447-69.47-100.72-69.47-165.82 0-56 17-106.167 51-150.5s78.333-71.167 133-80.5c16-66.667 50.057-120.833 102.17-162.5s111.82-62.5 179.12-62.5c77.14 0 143.043 27.5 197.71 82.5s84.667 121.5 90 199.5v24c50 4.667 91.333 24.9 124 60.7 32.667 35.807 49 79.573 49 131.3 0 53.28-18.68 98.6-56.04 135.96s-82.68 56.04-135.96 56.04zm0-94h496c26.84 0 50.217-9.833 70.13-29.5s29.87-43.167 29.87-70.5-9.957-50.833-29.87-70.5-43.29-29.5-70.13-29.5h-72v-95c0-57.62-19.217-106.36-57.65-146.22-38.427-39.853-85.387-59.78-140.88-59.78-56.98 0-104.637 21.167-142.97 63.5s-57.5 93.5-57.5 153.5h-28c-38.847 0-71.727 13.603-98.64 40.81-26.907 27.207-40.36 60.873-40.36 101 0 39.46 13.787 73.023 41.36 100.69 27.58 27.667 61.127 41.5 100.64 41.5z" fill-rule="nonzero" transform="matrix(.115917 0 0 .115917 66.86 183.655)"/></svg>