<svg fill="grey" clip-rule="evenodd" fill-rule="evenodd" stroke-linejoin="round" stroke-miterlimit="2" viewBox="0 0 245 210" xmlns="http://www.w3.org/2000/svg"><path d="m7.144 3.567h7.776c1.298 0 2.556.471 3.554 1.331l12.589 10.352c1.267 1.093 2 2.712 2 4.419v6.263c0 1.186-.455 2.324-1.265 3.162-.81.839-1.909 1.311-3.055 1.311h-21.599c-1.146 0-2.244-.472-3.055-1.311-.81-.838-1.265-1.976-1.265-3.162v-17.892c0-1.187.455-2.324 1.265-3.163.811-.839 1.909-1.31 3.055-1.31zm0 2.226c-.575 0-1.127.237-1.534.658-.407.422-.636.993-.636 1.589v17.892c0 .595.229 1.167.636 1.588s.959.658 1.534.658h21.599c.576 0 1.128-.237 1.535-.658s.635-.993.635-1.588v-6.263c0-1.046-.449-2.038-1.226-2.708l-12.589-10.352c-.612-.527-1.382-.816-2.178-.816zm.285 3.491c-.56 0-1.015-.448-1.015-1s.455-1 1.015-1h7.043c.56 0 1.014.448 1.014 1s-.454 1-1.014 1zm15.719-2.401c-.33-.269-.459-.726-.322-1.137.138-.412.513-.688.933-.688h6.013c.491 0 .962.202 1.309.561.347.36.542.847.542 1.356v4.712c0 .391-.216.748-.556.919s-.745.126-1.042-.116z" transform="matrix(8.10206 0 0 7.82482 -22.8811 -27.9099)"/><path d="m2.923 2.337h10.154c1.028 0 1.856.827 1.856 1.855v7.616c0 1.028-.828 1.855-1.856 1.855h-10.154c-1.028 0-1.856-.827-1.856-1.855v-7.616c0-1.028.828-1.855 1.856-1.855zm0 1.173c-.322 0-.59.22-.663.519h11.48c-.073-.299-.341-.519-.663-.519zm-.683 1.692v6.606c0 .378.305.682.683.682h10.154c.378 0 .683-.304.683-.682v-6.606zm2.375 4.913h6.77c.468 0 .846.378.846.847 0 .468-.378.846-.846.846h-6.77c-.468 0-.846-.378-.846-.846 0-.469.378-.847.846-.847z" transform="matrix(7.8471 0 0 7.8471 59.7232 69.4879)"/></svg>