<svg height="128" width="128" xmlns="http://www.w3.org/2000/svg"><path fill="rgb(255, 150, 0)" d="m64 13.161h.059c24.337 0 43.479 19.809 44.105 44.046l.355 13.29v16.695c0 4.059-3.144 7.465-7.104 7.874-1.086 10.99-6.619 19.405-13.35 19.743v-47.39c.1.005.197-.009.296 0 6.998.604 12.639 9.991 13.202 21.786.768-.341 1.273-1.084 1.273-2.013v-16.606l-.356-13.231c-.55-21.348-17.158-38.51-38.421-38.51-.02 0-.039 0-.059 0s-.039 0-.059 0c-21.263 0-37.871 17.162-38.421 38.51l-.356 13.231v16.606c0 .929.505 1.672 1.273 2.013.563-11.795 6.204-21.182 13.202-21.786.099-.009.196.005.296 0v47.39c-6.731-.338-12.264-8.753-13.35-19.743-3.96-.409-7.104-3.815-7.104-7.874v-16.665l.355-13.32c.626-24.237 19.768-44.046 44.105-44.046zm-17.671 54.228v20.588l3.437-10.61 7.997 23.382 6.384-31.669 5.494 31.756 8.068-23.253 3.962 9.887v-20.081h4.233v47.45h-4.233v-11.656l-3.615-13.219-7.975 23.072-6.09-23.244-5.982 23.178-7.85-23.231-3.83 12.972v12.128h-4.233v-47.45z"/></svg>