<svg height="48" width="48" xmlns="http://www.w3.org/2000/svg">
  <defs>
    <style type="text/css" id="current-color-scheme">.ColorScheme-Highlight { color:#000000; }</style>
  </defs>
  <defs>
    <style type="text/css" id="current-color-scheme">.ColorScheme-Highlight { color:#000000; } .ColorScheme-Text { color:#ffffff; }</style>
  </defs><path class="ColorScheme-Highlight" fill="currentColor" d="m24.44 16.658c1.873-.418 3.985-.651 6.283-.651 1.069 0 3.052.147 3.297.165-.273 1.855 2.703 4.165 6.771 5.256 1.815.485 3.645.668 5.164.516.007-.026.014-.053.02-.08-2.631-3.92-11.599-5.628-11.921-5.689 3.214.329 6.046 1.123 8.143 2.22 2.434 1.126 3.594 2.31 3.803 3.507 0-.001-.001-.001-.001-.002.002.013.004.026.006.039h.001c-.002-.012-.004-.025-.006-.037.003.005.006.009.009.014 1.146 6.81-28.581 14.085-32.009 14.084 0 0 1.842-.946 2.723-1.393.015-.003.031-.006.046-.009 3.971-2.023 10.75-5.527 10.18-5.594-3.209-.374-7.343-1.434-8.858-1.84-.375-.1-.589-.16-.589-.16l-.502-.001v.997h-4v-.481c-1.649-.446-2.357 1.304-4.162 1.481-.532.052-1.239-.606-1.937-.86-.805-.294-1.587-.19-1.907-.097.163-.319 1.204-.729 2.152-.823.566-.055 1.079.271 1.406.054 1.112-.792-.031-1.984-2.016-.748-.606.46-2.31.132-2.536.474-.135-.615 1.227-.516 1.699-1.063.752-.872.05-1.804-.625-2.404-.676-.599-1.074-.145-2.074-1.172.975.412 2.044-.409 2.519-.361 1.008.103 1.632 1.602 2.268.786.636-.817-.265-1.84-.497-2.056-.488-.455-1.927.27-2.29-.73 1 .521 2.165-.128 2.653.016.782.23 1.448 1.193 2.448.814-.85-.1-1.506-.625-.701-1.83-.17 1.162.917 1.102 2.388.857.53-.088.917-.203 1.212-.322v-.535h4v1c.169 0 .337.002.503.005.586-.542 1.294-1.147 2.114-1.598.148-.081.066-.422-.153-.906-.805-1.779-3.464-5.501-3.464-5.501s7.099 3.621 8.44 4.658zm9.588-.485c.005 0 .011 0 .017.001 0 0-.006 0-.017-.001zm.026.002c-.003 0-.006-.001-.009-.001.001 0 .004 0 .009.001zm-.026-.002c-.003 0-.005-.001-.008-.001.003 0 .005 0 .008.001z"/></svg>