<svg height="48" width="48" xmlns="http://www.w3.org/2000/svg">
  <defs>
    <style type="text/css" id="current-color-scheme">.ColorScheme-Highlight { color:#000000; }</style>
  </defs>
  <defs>
    <style type="text/css" id="current-color-scheme">.ColorScheme-Highlight { color:#000000; } .ColorScheme-Text { color:#ffffff; }</style>
  </defs><path class="ColorScheme-Highlight" fill="currentColor" d="m27.004 6.065h3.588v4.784h2.389v2.393h-2.389v13.163c0 2.393 2.389.597 2.389.597v2.394s-7.177 4.188-7.177-2.991v-13.163h-1.201v-2.393h1.201zm20.346 16.582v.001.003s-1.495 4.515-2.515 8.41c-1.019 3.896-1.562 7.17-3.465 9.65-3.805 4.957-10.663 3.633-10.663 3.633s-.001-.001-.002-.004c0 0-3.057-6.285.748-11.242 1.902-2.48 4.927-3.853 8.424-5.846 2.766-1.575 5.832-3.54 6.993-4.291 0-.003.001-.004.001-.006.055-.036.298-.193.416-.267.042-.028.063-.041.063-.041zm-34.7-18.975c-.001 0-.001 0-.002 0s-.001 0-.003 0zm-.002 0c4.787.001 8.375 2.395 8.375 13.76 0 9.273-2.498 12.57-5.929 13.471.432 3.711 3.535 2.682 3.535 2.682v2.393s-7.692 2.174-8.314-5.048c-3.491-.857-6.045-4.121-6.045-13.498 0-11.365 3.588-13.759 8.378-13.76zm-3.592 13.76c0 9.39 1.2 11.367 3.589 11.367 2.388 0 3.588-1.979 3.588-11.367 0-9.391-1.2-11.367-3.588-11.367-2.389 0-3.589 1.977-3.589 11.367z"/></svg>