<svg fill="rgb(50,175,230)" clip-rule="evenodd" fill-rule="evenodd" stroke-linejoin="round" stroke-miterlimit="2" viewBox="0 0 48 48" xmlns="http://www.w3.org/2000/svg"><path d="m2 4v8c0 1 .9 2 1.915 2h8.165c1.02 0 1.92-1 1.92-2v-8c0-1-.8-2-1.814-2h-8.386c-1.023 0-1.8 1-1.8 2zm1 .7c0-2 1-1.7 1.983-1.7h6.026c.991 0 1.991-.3 1.991 1.7v6.6c0 2-1 1.7-2 1.7h-6.058c-.942 0-1.942.2-1.942-1.8zm1 .3v2h2v-2zm6 0v2h2v-2zm-4 4v1h4v-1zm4 1v1h1v-1zm1 1v1h1v-1zm-5-1h-1v1h1zm-1 1h-1v1h1z" fill-rule="nonzero" transform="matrix(3.51058 0 0 3.51058 -4.08464 -4.08464)"/></svg>