<svg fill="rgb(50,175,230)" clip-rule="evenodd" fill-rule="evenodd" stroke-linejoin="round" stroke-miterlimit="2" viewBox="0 0 48 48" xmlns="http://www.w3.org/2000/svg"><path d="m565.765 398.641c3.567-2.06 7.962-2.06 11.529 0 9.54 5.507 28.502 16.455 38.041 21.963 3.567 2.059 5.765 5.865 5.765 9.984v43.927c0 4.118-2.198 7.925-5.765 9.984-9.539 5.508-28.501 16.455-38.041 21.963-3.567 2.06-7.962 2.06-11.529 0-9.54-5.508-28.502-16.455-38.041-21.963-3.567-2.059-5.765-5.866-5.765-9.984v-43.927c0-4.119 2.198-7.925 5.765-9.984 9.539-5.508 28.501-16.456 38.041-21.963z" transform="matrix(.166572 0 0 .166572 -71.2015 -52.2165)"/><path d="m614.038 493.053c3.116-1.799 6.955-1.799 10.071 0 7.313 4.222 20.928 12.083 29.446 17.001 1.558.899 2.518 2.562 2.518 4.361s-.96 3.461-2.518 4.361c-18.983 10.96-68.306 39.436-84.229 48.629-3.116 1.799-6.955 1.799-10.071 0-15.923-9.193-65.246-37.669-84.229-48.629-1.558-.9-2.518-2.562-2.518-4.361s.96-3.462 2.518-4.361c8.518-4.918 22.133-12.779 29.446-17.001 3.116-1.799 6.955-1.799 10.071 0 9.426 5.442 29.82 17.216 41.355 23.876 5.193 2.998 11.592 2.998 16.785 0 11.535-6.66 31.929-18.434 41.355-23.876zm-68.759-161.764c1.558-.899 3.478-.899 5.036 0 1.558.9 2.517 2.562 2.517 4.361v34.002c0 3.598-1.919 6.922-5.035 8.722-9.422 5.439-29.802 17.205-41.332 23.862-5.193 2.999-8.392 8.54-8.392 14.537v47.698c0 3.598-1.92 6.923-5.036 8.722-7.313 4.222-20.928 12.083-29.446 17.001-1.558.9-3.478.9-5.036 0s-2.518-2.562-2.518-4.361v-97.206c0-3.598 1.92-6.923 5.036-8.722 15.92-9.191 65.226-37.658 84.206-48.616zm122.229 48.616c3.116 1.799 5.036 5.124 5.036 8.722v97.206c0 1.799-.96 3.461-2.518 4.361s-3.478.9-5.036 0c-8.518-4.918-22.133-12.779-29.446-17.001-3.116-1.799-5.035-5.124-5.035-8.722v-47.698c0-5.997-3.2-11.538-8.393-14.537-11.53-6.657-31.91-18.423-41.332-23.862-3.116-1.8-5.035-5.124-5.035-8.722v-34.002c0-1.799.96-3.461 2.518-4.361 1.558-.899 3.477-.899 5.035 0 18.98 10.958 68.287 39.425 84.206 48.616z" transform="matrix(.190688 0 0 .190688 -83.6037 -61.7497)"/></svg>