<svg fill="black" clip-rule="evenodd" fill-rule="evenodd" stroke-linejoin="round" stroke-miterlimit="2" viewBox="0 0 48 48" xmlns="http://www.w3.org/2000/svg"><path d="m31.623 15.807c.921 1.05 1.44 2.425 1.44 3.862v7.28c0 1.909-1.494 3.456-3.338 3.456h-23.563c-.886 0-1.735-.364-2.36-1.012-.626-.648-.978-1.527-.978-2.444v-19.926c0-.917.352-1.796.978-2.444.625-.648 1.474-1.012 2.36-1.012h8.758c1.298 0 2.556.471 3.554 1.331l.194.159h9.618c1.843 0 3.337 1.548 3.337 3.456zm-2.449 1.791-12.592-10.355c-.468-.401-1.055-.621-1.662-.621h-7.301c-.489 0-.958.202-1.304.56-.346.357-.54.843-.54 1.349v16.909c0 .506.194.992.54 1.349.346.358.815.56 1.304.56h20.649c.489 0 .958-.202 1.304-.559.346-.358.54-.844.54-1.35v-5.771c0-.795-.339-1.549-.926-2.061z" transform="matrix(1.49809 0 0 1.44683 -2.88106 -.60089)"/><path d="m480-285c44 0 81.667-15.5 113-46.5s47-68.833 47-113.5c0-44-15.667-81.667-47-113s-69-47-113-47-81.667 15.667-113 47-47 69-47 113c0 44.667 15.667 82.5 47 113.5s69 46.5 113 46.5zm-39-245c6-3.333 12.333-5.833 19-7.5s13.333-2.5 20-2.5c26.8 0 49.333 9.133 67.6 27.4s27.4 40.8 27.4 67.6c0 6.573-.833 13.383-2.5 20.43s-4.167 13.237-7.5 18.57zm39 180c-26 0-48.333-9.333-67-28s-28-41-28-67c0-6.667.833-13.333 2.5-20s4.167-13 7.5-19l124 124c-6 3.333-12.357 5.833-19.07 7.5s-13.357 2.5-19.93 2.5z" fill-rule="nonzero" transform="matrix(.0430104 0 0 .0430104 3.35503 46.8291)"/></svg>