<svg fill="rgb(255,60,100)" clip-rule="evenodd" fill-rule="evenodd" stroke-linejoin="round" stroke-miterlimit="2" viewBox="0 0 245 210" xmlns="http://www.w3.org/2000/svg"><path d="m7.144 3.567h7.776c1.298 0 2.556.471 3.554 1.331l12.589 10.352c1.267 1.093 2 2.712 2 4.419v6.263c0 1.186-.455 2.324-1.265 3.162-.81.839-1.909 1.311-3.055 1.311h-21.599c-1.146 0-2.244-.472-3.055-1.311-.81-.838-1.265-1.976-1.265-3.162v-17.892c0-1.187.455-2.324 1.265-3.163.811-.839 1.909-1.31 3.055-1.31zm0 2.226c-.575 0-1.127.237-1.534.658-.407.422-.636.993-.636 1.589v17.892c0 .595.229 1.167.636 1.588s.959.658 1.534.658h21.599c.576 0 1.128-.237 1.535-.658s.635-.993.635-1.588v-6.263c0-1.046-.449-2.038-1.226-2.708l-12.589-10.352c-.612-.527-1.382-.816-2.178-.816zm.285 3.491c-.56 0-1.015-.448-1.015-1s.455-1 1.015-1h7.043c.56 0 1.014.448 1.014 1s-.454 1-1.014 1zm15.719-2.401c-.33-.269-.459-.726-.322-1.137.138-.412.513-.688.933-.688h6.013c.491 0 .962.202 1.309.561.347.36.542.847.542 1.356v4.712c0 .391-.216.748-.556.919s-.745.126-1.042-.116z" transform="matrix(8.10206 0 0 7.82482 -22.8811 -27.9099)"/><path d="m242.011 216.212c-42.438 0-77.397 34.958-77.397 77.397v412.782c0 42.749 34.648 77.397 77.397 77.397h515.978c42.749 0 77.397-34.648 77.397-77.397v-412.782c0-42.439-34.959-77.397-77.397-77.397zm0 51.598h515.978c14.577 0 25.799 11.222 25.799 25.799v30.636c-8.124-2.93-16.722-4.837-25.799-4.837h-515.978c-9.077 0-17.675 1.907-25.799 4.837v-30.636c0-14.577 11.222-25.799 25.799-25.799zm0 103.196h515.978c14.577 0 25.799 11.221 25.799 25.798v30.637c-8.124-2.93-16.722-4.838-25.799-4.838h-515.978c-9.077 0-17.675 1.908-25.799 4.838v-30.637c0-14.577 11.222-25.798 25.799-25.798zm0 103.195h515.978c14.577 0 25.799 11.222 25.799 25.799v25.799h-128.995c-31.629 0-60.538 17.88-74.675 46.156l-5.442 10.884c-14.164 28.275-43.047 46.155-74.676 46.155s-60.538-17.88-74.676-46.155l-5.442-10.884c-14.163-28.276-43.046-46.156-74.675-46.156h-128.995v-25.799c0-14.577 11.222-25.799 25.799-25.799z" transform="matrix(.162875 0 0 .162875 41.0626 50.086)"/></svg>