<svg fill="rgb(255,60,100)" width="100%" height="100%" viewBox="0 0 48 48" version="1.1" xmlns="http://www.w3.org/2000/svg" xmlns:xlink="http://www.w3.org/1999/xlink" xml:space="preserve" xmlns:serif="http://www.serif.com/" style="fill-rule:evenodd;clip-rule:evenodd;stroke-linejoin:round;stroke-miterlimit:2;">
    <g transform="matrix(0.0420314,0,0,0.0420314,3.80391,50.0643)">
        <path d="M843.135,-841.239C843.144,-829.516 849.326,-818.665 859.406,-812.68C866.181,-808.974 872.399,-804.061 878.23,-798.23C896.743,-779.717 906,-757.307 906,-731L906,-229C906,-202.967 896.743,-180.793 878.23,-162.48C859.717,-144.16 837.307,-135 811,-135L149,-135C122.967,-135 100.79,-144.16 82.47,-162.48C64.157,-180.793 55,-202.967 55,-229L55,-731C55,-757.307 64.157,-779.717 82.47,-798.23C88.369,-804.191 94.668,-809.193 101.367,-813.235C111.362,-819.152 117.492,-829.905 117.492,-841.52C117.865,-900.994 117.865,-1069.09 117.865,-1069.09C117.865,-1089.05 134.043,-1105.23 154,-1105.23L807,-1105.23C826.957,-1105.23 843.135,-1089.05 843.135,-1069.09L843.135,-841.239ZM149,-653L149,-229L811,-229L811,-653L506.1,-448.03C501.493,-445.343 497.157,-443.333 493.09,-442C489.03,-440.667 484.667,-440 480,-440C475.333,-440 470.97,-440.667 466.91,-442C462.843,-443.333 458.507,-445.343 453.9,-448.03L149,-653ZM190.135,-706.836L480,-513L770.865,-706.91L770.865,-999.786C770.865,-1018.11 756.013,-1032.96 737.692,-1032.96C635.399,-1032.96 325.601,-1032.96 223.308,-1032.96C204.987,-1032.96 190.135,-1018.11 190.135,-999.786C190.135,-916.801 190.135,-706.836 190.135,-706.836ZM274.247,-820.549C266.223,-820.549 259.444,-823.328 253.911,-828.886C248.373,-834.44 245.605,-841.245 245.605,-849.301C245.605,-857.354 248.373,-864.122 253.911,-869.607C259.444,-875.091 266.223,-877.834 274.247,-877.834L686.208,-877.834C694.232,-877.834 701.114,-875.055 706.855,-869.497C712.592,-863.943 715.46,-857.138 715.46,-849.082C715.46,-841.029 712.592,-834.261 706.855,-828.776C701.114,-823.292 694.232,-820.549 686.208,-820.549L274.247,-820.549ZM274.247,-925.58C266.223,-925.58 259.444,-928.359 253.911,-933.917C248.373,-939.47 245.605,-946.479 245.605,-954.941C245.605,-962.994 248.373,-969.762 253.911,-975.247C259.444,-980.731 266.223,-983.474 274.247,-983.474L686.208,-983.474C694.232,-983.474 701.114,-980.695 706.855,-975.137C712.592,-969.583 715.46,-962.778 715.46,-954.722C715.46,-946.263 712.592,-939.292 706.855,-933.807C701.114,-928.322 694.232,-925.58 686.208,-925.58L274.247,-925.58ZM274.247,-712.187C266.223,-712.187 259.444,-714.965 253.911,-720.523C248.373,-726.077 245.605,-733.085 245.605,-741.548C245.605,-749.6 248.373,-756.369 253.911,-761.853C259.444,-767.338 266.223,-770.081 274.247,-770.081L539.95,-770.081C547.974,-770.081 554.856,-767.302 560.597,-761.744C566.333,-756.19 569.201,-749.385 569.201,-741.329C569.201,-732.87 566.333,-725.898 560.597,-720.414C554.856,-714.929 547.974,-712.187 539.95,-712.187L274.247,-712.187Z"/>
    </g>
</svg>
