<svg clip-rule="evenodd" fill-rule="evenodd" stroke-linejoin="round" stroke-miterlimit="2" viewBox="0 0 245 210" xmlns="http://www.w3.org/2000/svg"><path d="m7.144 3.567h7.776c1.298 0 2.556.471 3.554 1.331l12.589 10.352c1.267 1.093 2 2.712 2 4.419v6.263c0 1.186-.455 2.324-1.265 3.162-.81.839-1.909 1.311-3.055 1.311h-21.599c-1.146 0-2.244-.472-3.055-1.311-.81-.838-1.265-1.976-1.265-3.162v-17.892c0-1.187.455-2.324 1.265-3.163.811-.839 1.909-1.31 3.055-1.31zm0 2.226c-.575 0-1.127.237-1.534.658-.407.422-.636.993-.636 1.589v17.892c0 .595.229 1.167.636 1.588s.959.658 1.534.658h21.599c.576 0 1.128-.237 1.535-.658s.635-.993.635-1.588v-6.263c0-1.046-.449-2.038-1.226-2.708l-12.589-10.352c-.612-.527-1.382-.816-2.178-.816zm.285 3.491c-.56 0-1.015-.448-1.015-1s.455-1 1.015-1h7.043c.56 0 1.014.448 1.014 1s-.454 1-1.014 1zm15.719-2.401c-.33-.269-.459-.726-.322-1.137.138-.412.513-.688.933-.688h6.013c.491 0 .962.202 1.309.561.347.36.542.847.542 1.356v4.712c0 .391-.216.748-.556.919s-.745.126-1.042-.116z" transform="matrix(8.10206 0 0 7.82482 -22.8811 -27.9099)"/><path d="m836.241 659.291h-672.484c-14.501 0-26.257 11.758-26.257 26.258 0 14.499 11.756 26.257 26.257 26.257h672.484c14.5 0 26.258-11.756 26.258-26.257 0-14.5-11.756-26.258-26.258-26.258zm0-88.86h-162.639c-14.5 0-26.257 11.756-26.257 26.258s11.755 26.257 26.257 26.257h162.641c14.499 0 26.257-11.755 26.257-26.257s-11.757-26.258-26.259-26.258zm-254.921 0h-162.641c-14.5 0-26.257 11.756-26.257 26.258s11.755 26.257 26.257 26.257h162.641c14.499 0 26.257-11.755 26.257-26.257s-11.758-26.258-26.257-26.258zm-254.923 0h-162.64c-14.501 0-26.257 11.756-26.257 26.258s11.756 26.257 26.257 26.257h162.641c14.5 0 26.257-11.755 26.257-26.257s-11.757-26.258-26.258-26.258zm509.844-88.861h-162.639c-14.5 0-26.257 11.756-26.257 26.258 0 14.501 11.755 26.257 26.257 26.257h162.641c14.499 0 26.257-11.756 26.257-26.257 0-14.502-11.757-26.258-26.259-26.258zm-254.921 0h-162.641c-14.5 0-26.257 11.756-26.257 26.258 0 14.501 11.755 26.257 26.257 26.257h162.641c14.499 0 26.257-11.756 26.257-26.257 0-14.502-11.758-26.258-26.257-26.258zm-254.923-.253h-162.64c-14.501 0-26.257 11.755-26.257 26.257s11.756 26.257 26.257 26.257h162.641c14.5 0 26.257-11.755 26.257-26.257s-11.757-26.257-26.258-26.257zm509.844-88.605h-162.639c-14.5 0-26.257 11.755-26.257 26.257s11.755 26.257 26.257 26.257h162.641c14.499 0 26.257-11.755 26.257-26.257s-11.757-26.257-26.259-26.257zm-254.921 0h-162.641c-14.5 0-26.257 11.755-26.257 26.257s11.755 26.257 26.257 26.257h162.641c14.499 0 26.257-11.755 26.257-26.257s-11.758-26.257-26.257-26.257zm0-88.86h-162.641c-14.5 0-26.257 11.755-26.257 26.257s11.755 26.257 26.257 26.257h162.641c14.499 0 26.257-11.755 26.257-26.257s-11.758-26.257-26.257-26.257zm0-88.861h-162.641c-14.5 0-26.257 11.755-26.257 26.257 0 14.499 11.755 26.257 26.257 26.257h162.641c14.499 0 26.257-11.755 26.257-26.257 0-14.5-11.758-26.257-26.257-26.257z" fill-rule="nonzero" transform="matrix(.151009 0 0 .168789 46.9954 54.7419)"/></svg>