<svg clip-rule="evenodd" fill-rule="evenodd" stroke-linejoin="round" stroke-miterlimit="2" viewBox="0 0 48 48" xmlns="http://www.w3.org/2000/svg"><path d="m242.011 216.212c-42.438 0-77.397 34.958-77.397 77.397v412.782c0 42.749 34.648 77.397 77.397 77.397h515.978c42.749 0 77.397-34.648 77.397-77.397v-412.782c0-42.439-34.959-77.397-77.397-77.397zm0 51.598h515.978c14.577 0 25.799 11.222 25.799 25.799v30.636c-8.124-2.93-16.722-4.837-25.799-4.837h-515.978c-9.077 0-17.675 1.907-25.799 4.837v-30.636c0-14.577 11.222-25.799 25.799-25.799zm0 103.196h515.978c14.577 0 25.799 11.221 25.799 25.798v30.637c-8.124-2.93-16.722-4.838-25.799-4.838h-515.978c-9.077 0-17.675 1.908-25.799 4.838v-30.637c0-14.577 11.222-25.798 25.799-25.798zm0 103.195h515.978c14.577 0 25.799 11.222 25.799 25.799v25.799h-128.995c-31.629 0-60.538 17.88-74.675 46.156l-5.442 10.884c-14.164 28.275-43.047 46.155-74.676 46.155s-60.538-17.88-74.676-46.155l-5.442-10.884c-14.163-28.276-43.046-46.156-74.675-46.156h-128.995v-25.799c0-14.577 11.222-25.799 25.799-25.799z" transform="matrix(.0648144 0 0 .0648144 -8.40718 -9.24113)"/></svg>