<svg height="48" width="48" xmlns="http://www.w3.org/2000/svg"><path fill="rgb(50, 175, 230)" d="m44.5 24c0 5.625-2.322 10.814-6.004 14.496s-8.871 6.004-14.496 6.004-10.814-2.322-14.496-6.004-6.004-8.871-6.004-14.496 2.322-10.814 6.004-14.496 8.871-6.004 14.496-6.004 10.814 2.322 14.496 6.004 6.004 8.871 6.004 14.496zm-8.126-12.374c-3.195-3.195-7.506-5.126-12.374-5.126s-9.18 1.932-12.374 5.126c-3.195 3.195-5.126 7.506-5.126 12.374s1.932 9.18 5.126 12.374c3.195 3.195 7.506 5.126 12.374 5.126s9.18-1.932 12.374-5.126c3.195-3.195 5.126-7.506 5.126-12.374s-1.932-9.18-5.126-12.374zm-11.374.874h2c.276 0 .5.224.5.5v5.26c1.075-.484 2.004-.75 3.5-.76 2.023.017 3.945.737 5.275 1.878 1.337 1.146 2.225 2.849 2.225 4.622s-.888 3.476-2.225 4.622c-1.33 1.141-3.253 1.861-5.276 1.878-1.497-.012-2.425-.279-3.499-.765v1.265c0 .276-.224.5-.5.5h-2c-.276 0-.5-.224-.5-.5v-18c0-.276.224-.5.5-.5zm-4 4h2c.276 0 .5.224.5.5v18c0 .276-.224.5-.5.5h-2c-.276 0-.5-.224-.5-.5v-5.26c-1.075.484-2.004.75-3.5.76-2.023-.017-3.945-.737-5.275-1.878-1.337-1.146-2.225-2.849-2.225-4.622s.888-3.476 2.225-4.622c1.33-1.141 3.253-1.861 5.276-1.878 1.497.012 2.425.279 3.499.765v-1.265c0-.276.224-.5.5-.5zm-4 4c-1.296-.015-2.382.389-3.223 1.062-.831.665-1.277 1.456-1.277 2.438s.446 1.773 1.277 2.438c.841.673 1.926 1.077 3.223 1.062 1.482.016 2.648-.45 3.5-1.308v-4.385c-.852-.858-2.018-1.323-3.5-1.307zm17.223 1.062c-.841-.673-1.926-1.077-3.223-1.062-1.482-.016-2.648.45-3.5 1.309v4.385c.851.858 2.018 1.322 3.5 1.306 1.296.015 2.382-.389 3.223-1.062.831-.665 1.277-1.456 1.277-2.438s-.446-1.773-1.277-2.438z"/></svg>