<svg fill="rgb(255,150,0)" clip-rule="evenodd" fill-rule="evenodd" stroke-linejoin="round" stroke-miterlimit="2" viewBox="0 0 48 48" xmlns="http://www.w3.org/2000/svg"><path d="m31.623 15.807c.921 1.05 1.44 2.425 1.44 3.862v7.28c0 1.909-1.494 3.456-3.338 3.456h-23.563c-.886 0-1.735-.364-2.36-1.012-.626-.648-.978-1.527-.978-2.444v-19.926c0-.917.352-1.796.978-2.444.625-.648 1.474-1.012 2.36-1.012h8.758c1.298 0 2.556.471 3.554 1.331l.194.159h9.618c1.843 0 3.337 1.548 3.337 3.456zm-2.449 1.791-12.592-10.355c-.468-.401-1.055-.621-1.662-.621h-7.301c-.489 0-.958.202-1.304.56-.346.357-.54.843-.54 1.349v16.909c0 .506.194.992.54 1.349.346.358.815.56 1.304.56h20.649c.489 0 .958-.202 1.304-.559.346-.358.54-.844.54-1.35v-5.771c0-.795-.339-1.549-.926-2.061zm-11.219-2.721c.335 0 .619.116.851.348.232.233.348.524.348.874v4.387l.787-.815c.222-.23.479-.345.772-.345.292 0 .57.146.832.439.242.23.363.51.363.842 0 .331-.121.625-.363.881l-2.572 2.664c-.298.292-.644.439-1.04.439-.397 0-.736-.147-1.018-.439l-2.573-2.664c-.242-.256-.363-.55-.363-.881 0-.332.141-.644.424-.936.232-.23.492-.345.779-.345.288 0 .542.115.764.345l.787.815v-4.387c0-.35.12-.641.359-.874.24-.232.527-.348.863-.348z" transform="matrix(1.49809 0 0 1.44683 -2.88106 -.60089)"/></svg>