<svg fill="rgb(255,150,0)" clip-rule="evenodd" fill-rule="evenodd" stroke-linejoin="round" stroke-miterlimit="2" viewBox="0 0 245 210" xmlns="http://www.w3.org/2000/svg"><path d="m7.144 3.567h7.776c1.298 0 2.556.471 3.554 1.331l12.589 10.352c1.267 1.093 2 2.712 2 4.419v6.263c0 1.186-.455 2.324-1.265 3.162-.81.839-1.909 1.311-3.055 1.311h-21.599c-1.146 0-2.244-.472-3.055-1.311-.81-.838-1.265-1.976-1.265-3.162v-17.892c0-1.187.455-2.324 1.265-3.163.811-.839 1.909-1.31 3.055-1.31zm0 2.226c-.575 0-1.127.237-1.534.658-.407.422-.636.993-.636 1.589v17.892c0 .595.229 1.167.636 1.588s.959.658 1.534.658h21.599c.576 0 1.128-.237 1.535-.658s.635-.993.635-1.588v-6.263c0-1.046-.449-2.038-1.226-2.708l-12.589-10.352c-.612-.527-1.382-.816-2.178-.816zm.285 3.491c-.56 0-1.015-.448-1.015-1s.455-1 1.015-1h7.043c.56 0 1.014.448 1.014 1s-.454 1-1.014 1zm15.719-2.401c-.33-.269-.459-.726-.322-1.137.138-.412.513-.688.933-.688h6.013c.491 0 .962.202 1.309.561.347.36.542.847.542 1.356v4.712c0 .391-.216.748-.556.919s-.745.126-1.042-.116z" transform="matrix(8.10206 0 0 7.82482 -22.8811 -27.9099)"/><path d="m229-57c-25.853 0-47.983-9.203-66.39-27.61s-27.61-40.537-27.61-66.39v-416c0-26.127 9.203-48.49 27.61-67.09 18.407-18.607 40.537-27.91 66.39-27.91h358v-73.77c0-31.153-10.25-57.147-30.75-77.98s-45.917-31.25-76.25-31.25c-23.747 0-44.527 6.883-62.34 20.65-17.807 13.767-30.027 31.217-36.66 52.35-5.447 10.793-12.977 19.493-22.59 26.1-9.607 6.6-20.493 9.9-32.66 9.9-13.787 0-24.523-5.833-32.21-17.5-7.693-11.667-9.54-24.5-5.54-38.5 11.333-43.333 34.567-78.833 69.7-106.5s75.9-41.5 122.3-41.5c56.127 0 103.657 19.803 142.59 59.41 38.94 39.6 58.41 87.797 58.41 144.59v74h50c26.127 0 48.49 9.303 67.09 27.91 18.607 18.6 27.91 40.963 27.91 67.09v416c0 25.853-9.303 47.983-27.91 66.39-18.6 18.407-40.963 27.61-67.09 27.61zm0-94h502v-416h-502zm251.17-131c21.22 0 39.33-7.343 54.33-22.03s22.5-32.343 22.5-52.97c0-20-7.557-38.167-22.67-54.5s-33.28-24.5-54.5-24.5-39.33 8.167-54.33 24.5-22.5 34.667-22.5 55 7.557 37.833 22.67 52.5 33.28 22 54.5 22zm-251.17 131v-416z" fill-rule="nonzero" transform="matrix(.118954 0 0 .118954 65.3424 187.314)"/></svg>