<svg fill="rgb(255,150,0)" width="100%" height="100%" viewBox="0 0 48 48" version="1.1" xmlns="http://www.w3.org/2000/svg" xmlns:xlink="http://www.w3.org/1999/xlink" xml:space="preserve" xmlns:serif="http://www.serif.com/" style="fill-rule:evenodd;clip-rule:evenodd;stroke-linejoin:round;stroke-miterlimit:2;">
    <g transform="matrix(1.93656,0,0,1.93656,0.991145,0.588848)">
        <path d="M17.789,9.586C17.502,9.618 17.219,9.679 16.946,9.769C16.748,9.834 16.531,9.772 16.396,9.614C15.518,8.58 14.226,7.969 12.83,7.969C10.526,7.969 8.606,9.64 8.216,11.834C8.18,12.04 8.022,12.203 7.817,12.245C6.054,12.614 4.725,14.181 4.725,16.052C4.725,16.568 4.826,17.06 5.01,17.511C5.075,17.669 5.056,17.848 4.961,17.989C4.866,18.131 4.707,18.216 4.537,18.216L3.279,18.216C1.48,18.216 0.022,16.758 0.022,14.959C0.022,13.24 1.354,11.833 3.043,11.712C3.049,11.711 3.055,11.708 3.059,11.703C3.063,11.698 3.064,11.691 3.063,11.685C3.006,11.429 2.976,11.164 2.976,10.892C2.976,8.865 4.619,7.222 6.645,7.222C7.405,7.222 8.111,7.453 8.696,7.848C8.702,7.852 8.708,7.853 8.714,7.851C8.721,7.849 8.726,7.845 8.729,7.839C9.562,6.17 11.286,5.022 13.278,5.022C15.693,5.022 17.714,6.706 18.232,8.963C18.265,9.105 18.235,9.255 18.15,9.374C18.066,9.493 17.934,9.57 17.789,9.586ZM21.528,14.141C22.782,14.336 23.74,15.42 23.74,16.728C23.74,17.75 23.155,18.635 22.301,19.067C22.238,19.099 22.172,19.129 22.105,19.156L8.973,19.156C7.305,19.145 5.957,17.791 5.957,16.121C5.957,14.445 7.316,13.086 8.992,13.086C9.076,13.086 9.159,13.09 9.242,13.097C9.237,13.02 9.234,12.942 9.234,12.864C9.234,10.766 10.935,9.065 13.033,9.065C14.507,9.065 15.784,9.905 16.414,11.132C16.935,10.791 17.557,10.591 18.227,10.591C20.056,10.591 21.538,12.073 21.538,13.902C21.538,13.982 21.534,14.062 21.528,14.141ZM8.985,17.109L21.548,17.11C21.639,17.008 21.694,16.875 21.694,16.728C21.694,16.443 21.486,16.205 21.213,16.163C20.162,15.999 19.412,15.057 19.487,13.997C19.489,13.966 19.492,13.934 19.492,13.902C19.492,13.204 18.925,12.638 18.227,12.638C17.972,12.638 17.735,12.713 17.536,12.843C17.051,13.162 16.453,13.259 15.892,13.111C15.33,12.963 14.858,12.583 14.593,12.067C14.303,11.5 13.714,11.112 13.033,11.112C12.065,11.112 11.281,11.896 11.281,12.864C11.281,12.901 11.283,12.938 11.285,12.974C11.32,13.566 11.097,14.144 10.674,14.559C10.25,14.974 9.667,15.184 9.076,15.136C9.048,15.134 9.02,15.132 8.992,15.132C8.446,15.132 8.003,15.575 8.003,16.121C8.003,16.665 8.442,17.106 8.985,17.109Z"/>
    </g>
</svg>
