<svg fill="rgb(175,85,225)" clip-rule="evenodd" fill-rule="evenodd" stroke-linejoin="round" stroke-miterlimit="2" viewBox="0 0 245 210" xmlns="http://www.w3.org/2000/svg"><path d="m7.144 3.567h7.776c1.298 0 2.556.471 3.554 1.331l12.589 10.352c1.267 1.093 2 2.712 2 4.419v6.263c0 1.186-.455 2.324-1.265 3.162-.81.839-1.909 1.311-3.055 1.311h-21.599c-1.146 0-2.244-.472-3.055-1.311-.81-.838-1.265-1.976-1.265-3.162v-17.892c0-1.187.455-2.324 1.265-3.163.811-.839 1.909-1.31 3.055-1.31zm0 2.226c-.575 0-1.127.237-1.534.658-.407.422-.636.993-.636 1.589v17.892c0 .595.229 1.167.636 1.588s.959.658 1.534.658h21.599c.576 0 1.128-.237 1.535-.658s.635-.993.635-1.588v-6.263c0-1.046-.449-2.038-1.226-2.708l-12.589-10.352c-.612-.527-1.382-.816-2.178-.816zm.285 3.491c-.56 0-1.015-.448-1.015-1s.455-1 1.015-1h7.043c.56 0 1.014.448 1.014 1s-.454 1-1.014 1zm15.719-2.401c-.33-.269-.459-.726-.322-1.137.138-.412.513-.688.933-.688h6.013c.491 0 .962.202 1.309.561.347.36.542.847.542 1.356v4.712c0 .391-.216.748-.556.919s-.745.126-1.042-.116z" transform="matrix(8.10206 0 0 7.82482 -22.8811 -27.9099)"/><path d="m750-209-105-207 104-104-90.21-90.21v-128.58h-128.58l-90.21-90.21-90.21 90.21h-127.58v128.58l-91.21 90.21 91.21 90.21v127.58h127.58l90.21 91.21 104-104zm126 124c-7.333 7.333-16 12-26 14s-20 0-30-6l-259-132-87 88c-9.333 9.333-20.667 14-34 14s-24.667-4.667-34-14l-92.06-94h-131.94c-13.167 0-24.29-4.543-33.37-13.63-9.087-9.08-13.63-20.203-13.63-33.37v-131.94l-94-92.06c-9.333-9.333-14-20.667-14-34s4.667-24.667 14-34l94-93.06v-130.94c0-13.167 4.543-24.46 13.63-33.88 9.08-9.413 20.203-14.12 33.37-14.12h131.94l92.06-93c9.333-9.333 20.667-14 34-14s24.667 4.667 34 14l93.06 93h130.94c13.167 0 24.46 4.707 33.88 14.12 9.413 9.42 14.12 20.713 14.12 33.88v130.94l93 93.06c9.333 9.333 14 20.667 14 34s-4.667 24.667-14 34l-87 87 132 258c5.333 10.667 7 21 5 31s-6.333 18.333-13 25z" fill-rule="nonzero" transform="matrix(.121746 0 0 .121746 66.6903 189.086)"/></svg>