<?xml version="1.0" encoding="utf-8"?>
<svg viewBox="0 0 22 22" xmlns="http://www.w3.org/2000/svg">
  <defs>
    <style type="text/css" id="current-color-scheme">.ColorScheme-Highlight { color:#000000; }</style>
  </defs>
  <path class="ColorScheme-Highlight" fill="currentColor" d="M 19.5 3 L 19.5 19 C 19.5 19.276 19.276 19.5 19 19.5 L 3 19.5 C 2.724 19.5 2.5 19.276 2.5 19 L 2.5 3 C 2.5 2.724 2.724 2.5 3 2.5 L 19 2.5 C 19.276 2.5 19.5 2.724 19.5 3 Z M 4.5 5.5 L 7.5 5.5 L 7.5 4.5 L 4.5 4.5 Z M 9.5 5.5 L 12.5 5.5 L 12.5 4.5 L 9.5 4.5 Z M 14.5 5.5 L 17.5 5.5 L 17.5 4.5 L 14.5 4.5 Z M 4.5 17.5 L 7.5 17.5 L 7.5 16.5 L 4.5 16.5 Z M 9.5 17.5 L 12.5 17.5 L 12.5 16.5 L 9.5 16.5 Z M 14.5 17.5 L 17.5 17.5 L 17.5 16.5 L 14.5 16.5 Z M 7.086 12.5 L 4.5 9.914 L 4.5 12.5 Z M 14.914 9.5 L 17.5 12.086 L 17.5 9.5 Z M 9.914 12.5 L 11.086 12.5 L 8.086 9.5 L 6.914 9.5 Z M 13.914 12.5 L 15.086 12.5 L 12.086 9.5 L 10.914 9.5 Z"/>
</svg>