<svg viewBox="0 0 16 16" xmlns="http://www.w3.org/2000/svg">
  <defs>
    <style type="text/css" id="current-color-scheme">.ColorScheme-Highlight { color:#000000; }</style>
  </defs><path class="ColorScheme-Highlight" fill="currentColor" d="m14.636 8.799c0 .215-.175.39-.391.39h-.78c-.216 0-.391-.175-.391-.39v-1.19h-1.171c-.215 0-.39-.175-.39-.39v-.781c0-.215.175-.39.39-.39h1.171v-3.123h-3.122v1.171c0 .216-.175.39-.391.39h-.78c-.216 0-.391-.174-.391-.39v-1.171h-.78v1.171c0 .216-.175.39-.391.39h-.78c-.216 0-.391-.174-.391-.39v-1.171h-3.122v3.123h1.171c.215 0 .39.175.39.39v.781c0 .215-.175.39-.39.39h-1.171v.781h1.171c.215 0 .39.175.39.39v.781c0 .215-.175.39-.39.39h-1.171v3.123h3.122v-1.171c0-.216.175-.391.391-.391h.78c.216 0 .391.175.391.391v1.171h1.171c.215 0 .39.175.39.39v.781c0 .215-.175.39-.39.39h-7.026c-.216 0-.391-.175-.391-.39v-12.491c0-.215.175-.39.391-.39h12.49c.216 0 .391.175.391.39zm-.439 1.45c.242 0 .439.196.439.438v3.509c0 .242-.197.439-.439.439h-3.509c-.242 0-.438-.197-.438-.439v-3.509c0-.242.196-.438.438-.438zm-7.254-.412-1.561-1.561c-.153-.153-.153-.4 0-.553l1.561-1.561c.112-.112.28-.145.425-.085.146.061.242.203.242.361v3.123c0 .157-.096.3-.242.36-.145.061-.313.028-.425-.084zm1.689.084c-.146-.06-.242-.203-.242-.36v-3.123c0-.158.096-.3.242-.361.048-.02.099-.029.149-.029.102 0 .201.039.276.114l1.561 1.561c.153.153.153.4 0 .553l-1.561 1.561c-.112.112-.28.145-.425.084z"/></svg>