<svg viewBox="0 0 22 22" xmlns="http://www.w3.org/2000/svg">
  <defs>
    <style type="text/css" id="current-color-scheme">.ColorScheme-Highlight { color:#000000; }</style>
  </defs><path class="ColorScheme-Highlight" fill="currentColor" d="m19.5 11c0 2.318-.975 4.506-2.484 6.016-1.51 1.509-3.698 2.484-6.016 2.484s-4.506-.975-6.016-2.484c-1.509-1.51-2.484-3.698-2.484-6.016s.975-4.506 2.484-6.016c1.51-1.509 3.698-2.484 6.016-2.484s4.506.975 6.016 2.484c1.509 1.51 2.484 3.698 2.484 6.016zm-13.101-4.601c-1.202 1.202-1.899 2.764-1.899 4.601s.697 3.399 1.899 4.601 2.764 1.899 4.601 1.899 3.399-.697 4.601-1.899 1.899-2.764 1.899-4.601-.697-3.399-1.899-4.601-2.764-1.899-4.601-1.899-3.399.697-4.601 1.899zm6.101-.399v2c0 .276-.224.5-.5.5h-2c-.276 0-.5-.224-.5-.5v-2c0-.276.224-.5.5-.5h2c.276 0 .5.224.5.5zm0 4v6c0 .276-.224.5-.5.5h-2c-.276 0-.5-.224-.5-.5v-6c0-.276.224-.5.5-.5h2c.276 0 .5.224.5.5z"/></svg>