<?xml version="1.0" encoding="utf-8"?>
<svg viewBox="0 0 22 22" xmlns="http://www.w3.org/2000/svg">
  <defs>
    <style type="text/css" id="current-color-scheme">.ColorScheme-Highlight { color:#000000; }</style>
  </defs>
  <path class="ColorScheme-Highlight" fill="currentColor" d="M 18 3.551 C 18 3.827 17.776 4.051 17.5 4.051 L 15.594 4.051 L 12.272 5.343 L 17.5 5.343 C 17.776 5.343 18 5.567 18 5.843 L 18 6.989 C 18 7.265 17.776 7.489 17.5 7.489 L 15.725 7.489 L 10.938 9.928 L 17.5 9.928 C 17.776 9.928 18 10.152 18 10.428 L 18 11.574 C 18 11.85 17.776 12.074 17.5 12.074 L 15.725 12.074 L 10.938 14.512 L 17.5 14.512 C 17.776 14.512 18 14.736 18 15.012 L 18 16.158 C 18 16.434 17.776 16.658 17.5 16.658 L 15.594 16.658 L 12.272 17.95 L 17.5 17.95 C 17.776 17.95 18 18.174 18 18.45 L 18 19.596 C 18 19.872 17.776 20.096 17.5 20.096 L 4.5 20.096 C 4.224 20.096 4 19.872 4 19.596 L 4 18.45 C 4 18.174 4.224 17.95 4.5 17.95 L 6.406 17.95 L 9.728 16.658 L 4.5 16.658 C 4.224 16.658 4 16.434 4 16.158 L 4 15.012 C 4 14.736 4.224 14.512 4.5 14.512 L 6.275 14.512 L 11.062 12.074 L 4.5 12.074 C 4.224 12.074 4 11.85 4 11.574 L 4 10.428 C 4 10.152 4.224 9.928 4.5 9.928 L 6.275 9.928 L 11.062 7.489 L 4.5 7.489 C 4.224 7.489 4 7.265 4 6.989 L 4 5.843 C 4 5.567 4.224 5.343 4.5 5.343 L 6.406 5.343 L 9.728 4.051 L 4.5 4.051 C 4.224 4.051 4 3.827 4 3.551 L 4 2.405 C 4 2.129 4.224 1.905 4.5 1.905 L 17.5 1.905 C 17.776 1.905 18 2.129 18 2.405 Z"/>
</svg>