<?xml version="1.0" encoding="utf-8"?>
<svg height="48" viewBox="0 -960 960 960" width="48" xmlns="http://www.w3.org/2000/svg">
  <defs>
    <style type="text/css" id="current-color-scheme">.ColorScheme-Highlight { color:#000000; }</style>
  </defs>
  <path class="ColorScheme-Highlight" fill="currentColor" d="M 141.44 -771 C 128.48 -771 117.5 -775.687 108.5 -785.06 C 99.5 -794.433 95 -805.6 95 -818.56 C 95 -831.52 99.62 -842.667 108.86 -852 C 118.1 -861.333 129.1 -866 141.86 -866 C 154.62 -866 165.667 -861.253 175 -851.76 C 184.333 -842.267 189 -830.953 189 -817.82 C 189 -804.973 184.313 -793.96 174.94 -784.78 C 165.567 -775.593 154.4 -771 141.44 -771 Z M 310.82 -771 C 297.973 -771 286.957 -775.687 277.77 -785.06 C 268.59 -794.433 264 -805.6 264 -818.56 C 264 -831.52 268.687 -842.667 278.06 -852 C 287.433 -861.333 298.6 -866 311.56 -866 C 324.52 -866 335.667 -861.253 345 -851.76 C 354.333 -842.267 359 -830.953 359 -817.82 C 359 -804.973 354.253 -793.96 344.76 -784.78 C 335.267 -775.593 323.953 -771 310.82 -771 Z M 817.82 -264 C 804.973 -264 793.96 -268.687 784.78 -278.06 C 775.593 -287.433 771 -298.6 771 -311.56 C 771 -324.52 775.687 -335.667 785.06 -345 C 794.433 -354.333 805.6 -359 818.56 -359 C 831.52 -359 842.667 -354.253 852 -344.76 C 861.333 -335.267 866 -323.953 866 -310.82 C 866 -297.973 861.253 -286.957 851.76 -277.77 C 842.267 -268.59 830.953 -264 817.82 -264 Z M 817.82 -95 C 804.973 -95 793.96 -99.62 784.78 -108.86 C 775.593 -118.1 771 -129.1 771 -141.86 C 771 -154.62 775.687 -165.667 785.06 -175 C 794.433 -184.333 805.6 -189 818.56 -189 C 831.52 -189 842.667 -184.313 852 -174.94 C 861.333 -165.567 866 -154.4 866 -141.44 C 866 -128.48 861.253 -117.5 851.76 -108.5 C 842.267 -99.5 830.953 -95 817.82 -95 Z M 771 -481 L 771 -641 C 771 -677 758.333 -707.667 733 -733 C 707.667 -758.333 677 -771 641 -771 L 481 -771 C 467.833 -771 456.71 -775.56 447.63 -784.68 C 438.543 -793.793 434 -804.93 434 -818.09 C 434 -831.243 438.543 -842.517 447.63 -851.91 C 456.71 -861.303 467.833 -866 481 -866 L 653 -866 C 712.28 -866 762.6 -845.32 803.96 -803.96 C 845.32 -762.6 866 -712.28 866 -653 L 866 -481 C 866 -467.833 861.247 -456.71 851.74 -447.63 C 842.227 -438.543 830.893 -434 817.74 -434 C 804.58 -434 793.5 -438.543 784.5 -447.63 C 775.5 -456.71 771 -467.833 771 -481 Z M 171.356 -171.38 L 590.918 -171.38 L 590.918 -590.91 L 171.356 -590.91 Z M 132.776 -95 C 122.199 -95 113.26 -98.72 105.963 -105.93 C 98.649 -113.18 95 -122.18 95 -132.79 L 95 -628.7 C 95 -639.29 98.649 -648.14 105.963 -655.54 C 113.26 -662.77 122.199 -666.48 132.776 -666.48 L 628.692 -666.48 C 639.269 -666.48 648.224 -662.77 655.521 -655.54 C 662.819 -648.14 666.468 -639.29 666.468 -628.7 L 666.468 -132.79 C 666.468 -122.18 662.819 -113.18 655.521 -105.93 C 648.224 -98.72 639.269 -95 628.692 -95 Z"/>
</svg>