<?xml version="1.0" encoding="utf-8"?>
<svg height="800" viewBox="0 0 24 24" width="800" xmlns="http://www.w3.org/2000/svg">
  <defs>
    <style type="text/css" id="current-color-scheme">.ColorScheme-Highlight { color:#000000; }</style>
  </defs>
  <path class="ColorScheme-Highlight" fill="currentColor" d="M 16.971 12 C 16.971 12.89 16.675 13.894 16.145 14.731 L 19.02 17.605 C 20.353 15.96 20.971 14.058 20.971 12 C 20.971 9.942 20.353 8.04 19.02 6.395 L 16.145 9.269 C 16.675 10.106 16.971 11.11 16.971 12 Z M 11.971 17.001 C 11.08 17 10.076 16.704 9.24 16.175 L 6.365 19.049 C 8.011 20.382 9.913 21 11.971 21 C 14.041 21 15.955 20.374 17.608 19.022 L 14.737 16.151 C 13.893 16.696 12.874 17 11.971 17.001 Z M 6.97 12 C 6.971 11.097 7.275 10.077 7.819 9.233 L 4.948 6.362 C 3.596 8.015 2.971 9.93 2.971 12 C 2.971 14.07 3.596 15.985 4.948 17.638 L 7.819 14.767 C 7.275 13.923 6.971 12.903 6.97 12 Z M 11.971 3 C 9.913 3 8.011 3.618 6.365 4.951 L 9.24 7.825 C 10.076 7.296 11.08 7 11.971 6.999 C 12.874 7 13.893 7.304 14.737 7.849 L 17.608 4.978 C 15.955 3.626 14.041 3 11.971 3 Z M 11.971 9 C 11.125 9 10.486 9.242 9.849 9.879 C 9.213 10.515 8.971 11.154 8.971 12 C 8.971 12.846 9.213 13.485 9.849 14.121 C 10.486 14.758 11.125 15 11.971 15 C 12.816 15 13.455 14.758 14.092 14.121 C 14.728 13.485 14.97 12.846 14.97 12 C 14.97 11.154 14.728 10.515 14.092 9.879 C 13.455 9.242 12.816 9 11.971 9 Z M 19.749 4.222 C 21.846 6.319 22.971 9.263 22.97 12 C 22.971 14.737 21.846 17.681 19.749 19.778 C 17.651 21.875 14.708 23 11.971 23 C 9.233 23 6.29 21.875 4.192 19.778 C 2.095 17.681 0.97 14.737 0.971 12 C 0.97 9.263 2.095 6.319 4.192 4.222 C 6.29 2.125 9.233 1 11.971 1 C 14.708 1 17.651 2.125 19.749 4.222 Z"/>
</svg>