<svg height="800" viewBox="0 0 192 192" width="800" xmlns="http://www.w3.org/2000/svg"><path fill="rgb(255, 205, 0)" d="m67.57 145.479-2.156 14.521h12.984l6.681-39.838c.474-2.167 1.811-4.683 3.364-6.015 1.553-1.333 4.297-2.272 6.511-2.411h31c7.009.267 12.645-3.283 17.457-8.951 4.833-5.693 7.543-12.514 7.543-19.785 0-6.922-1.736-10.599-4.672-13.704-2.856-3.022-3.426-3.041-5.431-4.071-1.873 9.465-5.402 17.044-13.25 24.469-7.846 7.424-19.22 12.143-30.921 12.306h-22.421zm46.788-70.801c4.744-4.744 7.322-10.487 7.322-17.678 0-1.918-.173-3.57-.574-5.361-1.156-5.871-4.144-10.363-8.647-14.031-4.508-3.673-9.555-5.74-15.779-5.608h-40.263l-15.143 102h7.827l6.696-43.52c.474-2.168 1.819-4.737 3.372-6.069 1.553-1.333 4.297-2.272 6.511-2.411h31c7.191.175 12.934-2.578 17.678-7.322zm24.693-32.797c7.17 2.951 14.452 6.197 20.827 12.435 6.351 6.214 11.076 15.738 11.076 28.684 0 12.081-5.159 24.668-13.018 33.516-7.875 8.866-19.711 14.981-31.982 15.22h-22.474l-5.599 33.001c-.774 4.119-3.109 8.384-6.07 10.925-2.961 2.54-7.531 4.199-11.72 4.338h-16.996c-5.174-.213-10.58-2.707-13.63-6.244-3.05-3.536-4.723-9.25-4.175-14.399l.795-5.357h-7.133c-5.176-.214-10.582-2.708-13.631-6.246-3.049-3.537-4.719-9.25-4.171-14.397l15.955-107.47c.695-3.717 2.809-7.64 5.47-9.936 2.662-2.295 6.853-3.81 10.632-3.951h43.473c9.893.117 19.652 3.487 26.972 8.976 7.326 5.494 12.354 12.669 15.399 20.905z"/></svg>