<svg clip-rule="evenodd" fill-rule="evenodd" stroke-linejoin="round" stroke-miterlimit="2" viewBox="0 0 800 800" xmlns="http://www.w3.org/2000/svg"><path fill="rgb(255, 205, 0)" d="m19.999 48.223c.008-1.288.205-2.619.568-3.823.362-1.202.944-2.389 1.61-3.404.659-1.002 1.505-1.926 2.391-2.688.88-.756 1.885-1.395 2.926-1.884 1.04-.488 2.174-.854 3.318-1.048 1.152-.195 2.404-.256 3.596-.122 1.207.135 2.492.446 3.649.935 1.158.49 2.306 1.191 3.304 2.006 9.268 7.574 52.302 43.436 52.302 43.436 1.355 1.124 3.317 1.124 4.672 0 0 0 43.034-35.862 52.302-43.436.998-.815 2.145-1.516 3.304-2.006 1.157-.489 2.442-.8 3.649-.935 1.192-.134 2.444-.073 3.596.122 1.144.194 2.278.56 3.318 1.048 1.041.489 2.046 1.128 2.926 1.884.886.762 1.732 1.686 2.391 2.688.666 1.015 1.248 2.202 1.61 3.404.363 1.204.56 2.535.568 3.823.095 15.491 0 89.122 0 89.122 0 13.065-10.59 23.655-23.655 23.655h-104.69c-13.064 0-23.654-10.591-23.654-23.655 0 0-.095-73.631-.001-89.122zm98.78 92.777v-50.183l-33.293 30.797c-.056.052-.113.103-.17.153-8.159 7.208-20.343 7.41-28.728.499l-16.588-13.271v28.35c0 2.018 1.636 3.655 3.654 3.655zm33.22-77.938-13.22 10.978v66.96h9.565c2.019 0 3.655-1.636 3.655-3.655zm-112 0v20.319l29.146 23.319c.05.039.099.079.147.119.793.659 1.939.658 2.731.004l9.801-9.066c-.317-.238-.63-.484-.937-.74z" transform="scale(4.16667)"/></svg>