<svg clip-rule="evenodd" fill-rule="evenodd" stroke-linejoin="round" stroke-miterlimit="2" viewBox="0 0 245 210" xmlns="http://www.w3.org/2000/svg">
  <defs>
    <style type="text/css" id="current-color-scheme">.ColorScheme-Highlight { color:#ffffff; }</style>
  </defs><path class="ColorScheme-Highlight" fill="currentColor" d="m7.144 3.567h7.776c1.298 0 2.556.471 3.554 1.331l12.589 10.352c1.267 1.093 2 2.712 2 4.419v6.263c0 1.186-.455 2.324-1.265 3.162-.81.839-1.909 1.311-3.055 1.311h-21.599c-1.146 0-2.244-.472-3.055-1.311-.81-.838-1.265-1.976-1.265-3.162v-17.892c0-1.187.455-2.324 1.265-3.163.811-.839 1.909-1.31 3.055-1.31zm0 2.226c-.575 0-1.127.237-1.534.658-.407.422-.636.993-.636 1.589v17.892c0 .595.229 1.167.636 1.588s.959.658 1.534.658h21.599c.576 0 1.128-.237 1.535-.658s.635-.993.635-1.588v-6.263c0-1.046-.449-2.038-1.226-2.708l-12.589-10.352c-.612-.527-1.382-.816-2.178-.816zm.285 3.491c-.56 0-1.015-.448-1.015-1s.455-1 1.015-1h7.043c.56 0 1.014.448 1.014 1s-.454 1-1.014 1zm15.719-2.401c-.33-.269-.459-.726-.322-1.137.138-.412.513-.688.933-.688h6.013c.491 0 .962.202 1.309.561.347.36.542.847.542 1.356v4.712c0 .391-.216.748-.556.919s-.745.126-1.042-.116z" transform="matrix(8.10206 0 0 7.82482 -22.8811 -27.9099)"/><path class="ColorScheme-Highlight" fill="currentColor" d="m7.164 3.036c-.22-.448-.738-.663-1.21-.503-.062.024-.125.046-.187.069-.366.138-.597.499-.569.889.014.232.036.463.068.695-.199.127-.407.235-.592.384-.189.145-.382.284-.553.453-.116-.076-.234-.151-.354-.224-.417-.256-.961-.157-1.261.23-.05.066-.1.133-.149.2-.25.345-.253.811-.007 1.159.119.174.239.338.355.481v2.416c0 .453.352.827.803.855.548.053 1.174.114 1.174.114.102.01.182.092.189.195 0 0 .012.176.026.369.02.284.245.51.529.53.215.016.467.034.685.049.299.022.563-.19.607-.486.022-.15.04-.274.04-.274.015-.104.104-.18.209-.18h2.066c.105 0 .194.076.209.18 0 0 .018.124.04.274.044.296.308.508.607.486.218-.015.47-.033.685-.049.284-.02.509-.246.529-.53.014-.193.026-.369.026-.369.007-.103.087-.185.189-.195 0 0 .626-.061 1.174-.114.451-.028.802-.403.802-.855.001-.945.001-2.416.001-2.416.104-.131.206-.267.304-.404.283-.393.279-.926-.011-1.315-.025-.029-.048-.06-.072-.09-.311-.405-.879-.509-1.314-.241-.11.066-.217.135-.323.204-.171-.169-.364-.308-.553-.453-.185-.149-.394-.257-.592-.384.028-.204.049-.406.064-.61.036-.444-.231-.857-.651-1.008-.032-.008-.064-.019-.095-.03-.475-.161-.995.055-1.216.504-.073.144-.141.289-.205.433-.208-.035-.418-.049-.627-.051h-.008c-.209.002-.419.016-.627.051-.065-.146-.134-.293-.205-.439zm-1.941 3.95c.652 0 1.181.528 1.181 1.18s-.529 1.18-1.181 1.18-1.18-.528-1.18-1.18.528-1.18 1.18-1.18zm5.554 0c.652 0 1.18.528 1.18 1.18s-.528 1.18-1.18 1.18-1.181-.528-1.181-1.18.529-1.18 1.181-1.18zm-7.637 3.543c-.111-.011-.222.026-.305.101s-.13.182-.13.294c0 1.86 2.359 2.753 5.291 2.764h.008c2.932-.011 5.291-.904 5.291-2.764 0-.112-.047-.219-.13-.294s-.194-.112-.305-.101c-.256.024-.579.055-.842.081-.277.027-.495.25-.514.529-.014.2-.027.386-.027.386-.008.105-.091.188-.196.196 0 0-2.096.148-2.101.148-.104 0-.194-.075-.209-.18 0 0-.022-.15-.048-.322-.041-.28-.281-.488-.565-.488h-.716c-.284 0-.524.208-.565.488-.026.172-.048.322-.048.322-.016.11-.114.188-.224.18l-2.086-.148c-.105-.008-.188-.091-.196-.196 0 0-.013-.186-.027-.386-.019-.279-.237-.502-.514-.529-.263-.026-.586-.057-.842-.081z" fill-rule="nonzero" transform="matrix(9.37187 0 0 9.37187 47.638 52.2514)"/></svg>