<svg clip-rule="evenodd" fill-rule="evenodd" stroke-linejoin="round" stroke-miterlimit="2" viewBox="0 0 245 210" xmlns="http://www.w3.org/2000/svg">
  <defs>
    <style type="text/css" id="current-color-scheme">.ColorScheme-Highlight { color:#ffffff; }</style>
  </defs><path class="ColorScheme-Highlight" fill="currentColor" d="m7.144 3.567h7.776c1.298 0 2.556.471 3.554 1.331l12.589 10.352c1.267 1.093 2 2.712 2 4.419v6.263c0 1.186-.455 2.324-1.265 3.162-.81.839-1.909 1.311-3.055 1.311h-21.599c-1.146 0-2.244-.472-3.055-1.311-.81-.838-1.265-1.976-1.265-3.162v-17.892c0-1.187.455-2.324 1.265-3.163.811-.839 1.909-1.31 3.055-1.31zm0 2.226c-.575 0-1.127.237-1.534.658-.407.422-.636.993-.636 1.589v17.892c0 .595.229 1.167.636 1.588s.959.658 1.534.658h21.599c.576 0 1.128-.237 1.535-.658s.635-.993.635-1.588v-6.263c0-1.046-.449-2.038-1.226-2.708l-12.589-10.352c-.612-.527-1.382-.816-2.178-.816zm.285 3.491c-.56 0-1.015-.448-1.015-1s.455-1 1.015-1h7.043c.56 0 1.014.448 1.014 1s-.454 1-1.014 1zm15.719-2.401c-.33-.269-.459-.726-.322-1.137.138-.412.513-.688.933-.688h6.013c.491 0 .962.202 1.309.561.347.36.542.847.542 1.356v4.712c0 .391-.216.748-.556.919s-.745.126-1.042-.116z" transform="matrix(8.10206 0 0 7.82482 -22.8811 -27.9099)"/><path class="ColorScheme-Highlight" fill="currentColor" d="m715-419c10.2 0 18.75-3.327 25.65-9.98 6.9-6.647 10.35-15.213 10.35-25.7 0-10.48-3.307-19.153-9.92-26.02-6.62-6.867-15.313-10.3-26.08-10.3h-90c-10.2 0-18.75 3.467-25.65 10.4s-10.35 15.527-10.35 25.78c0 10.813 3.307 19.487 9.92 26.02 6.62 6.533 15.313 9.8 26.08 9.8zm0-132c10.2 0 18.75-3.327 25.65-9.98 6.9-6.647 10.35-15.213 10.35-25.7 0-10.48-3.307-19.153-9.92-26.02-6.62-6.867-15.313-10.3-26.08-10.3h-90c-10.2 0-18.75 3.467-25.65 10.4s-10.35 15.527-10.35 25.78c0 10.813 3.307 19.487 9.92 26.02 6.62 6.533 15.313 9.8 26.08 9.8zm-346 124c-24.667 0-46.62 2.333-65.86 7-19.247 4.667-36.293 11.333-51.14 20-11.333 6.667-19.667 13.733-25 21.2s-8 14.937-8 22.41c0 8.833 3.097 15.773 9.29 20.82s13.763 7.57 22.71 7.57h236c8.667 0 16-2.673 22-8.02 6-5.34 9-12 9-19.98 0-7.867-2.667-15.5-8-22.9s-13-14.433-23-21.1c-15.033-8.667-32.29-15.333-51.77-20-19.487-4.667-41.563-7-66.23-7zm-.08-60c20.053 0 37.247-6.973 51.58-20.92s21.5-31.28 21.5-52c0-20.053-7.14-37.247-21.42-51.58s-31.447-21.5-51.5-21.5-37.247 7.14-51.58 21.42-21.5 31.447-21.5 51.5c0 20.72 7.14 38.08 21.42 52.08s31.447 21 51.5 21zm-219.92 352c-26.033 0-48.21-9.16-66.53-27.48-18.313-18.313-27.47-40.487-27.47-66.52v-502c0-26.307 9.157-48.717 27.47-67.23 18.32-18.513 40.497-27.77 66.53-27.77h662c26.307 0 48.717 9.257 67.23 27.77s27.77 40.923 27.77 67.23v502c0 26.033-9.257 48.207-27.77 66.52-18.513 18.32-40.923 27.48-67.23 27.48zm0-94h662v-502h-662zm0 0v-502z" fill-rule="nonzero" transform="matrix(.126884 0 0 .126884 61.5323 192.817)"/></svg>