<svg clip-rule="evenodd" fill-rule="evenodd" stroke-linejoin="round" stroke-miterlimit="2" viewBox="0 0 245 210" xmlns="http://www.w3.org/2000/svg">
  <defs>
    <style type="text/css" id="current-color-scheme">.ColorScheme-Highlight { color:#ffffff; }</style>
  </defs><path class="ColorScheme-Highlight" fill="currentColor" d="m7.144 3.567h7.776c1.298 0 2.556.471 3.554 1.331l12.589 10.352c1.267 1.093 2 2.712 2 4.419v6.263c0 1.186-.455 2.324-1.265 3.162-.81.839-1.909 1.311-3.055 1.311h-21.599c-1.146 0-2.244-.472-3.055-1.311-.81-.838-1.265-1.976-1.265-3.162v-17.892c0-1.187.455-2.324 1.265-3.163.811-.839 1.909-1.31 3.055-1.31zm0 2.226c-.575 0-1.127.237-1.534.658-.407.422-.636.993-.636 1.589v17.892c0 .595.229 1.167.636 1.588s.959.658 1.534.658h21.599c.576 0 1.128-.237 1.535-.658s.635-.993.635-1.588v-6.263c0-1.046-.449-2.038-1.226-2.708l-12.589-10.352c-.612-.527-1.382-.816-2.178-.816zm.285 3.491c-.56 0-1.015-.448-1.015-1s.455-1 1.015-1h7.043c.56 0 1.014.448 1.014 1s-.454 1-1.014 1zm15.719-2.401c-.33-.269-.459-.726-.322-1.137.138-.412.513-.688.933-.688h6.013c.491 0 .962.202 1.309.561.347.36.542.847.542 1.356v4.712c0 .391-.216.748-.556.919s-.745.126-1.042-.116z" transform="matrix(8.10206 0 0 7.82482 -22.8811 -27.9099)"/><path class="ColorScheme-Highlight" fill="currentColor" d="m319-321v63c0 7.22 2.373 13.193 7.12 17.92 4.74 4.72 10.74 7.08 18 7.08 6.587 0 12.38-2.36 17.38-7.08 5-4.727 7.5-10.7 7.5-17.92v-63h63c6.553 0 12.36-2.373 17.42-7.12 5.053-4.74 7.58-10.74 7.58-18 0-6.587-2.527-12.38-7.58-17.38-5.06-5-10.867-7.5-17.42-7.5h-63v-63c0-6.553-2.54-12.36-7.62-17.42-5.073-5.053-11.073-7.58-18-7.58-6.92 0-12.713 2.527-17.38 7.58-4.667 5.06-7 10.867-7 17.42v63h-63c-7.22 0-13.193 2.54-17.92 7.62-4.72 5.073-7.08 11.073-7.08 18 0 6.92 2.36 12.713 7.08 17.38 4.727 4.667 10.7 7 17.92 7zm231 53h152c6.267 0 11.833-2.373 16.7-7.12 4.867-4.74 7.3-10.74 7.3-18 0-6.587-2.333-12.213-7-16.88s-10.333-7-17-7h-153c-6.933 0-12.667 2.333-17.2 7s-6.8 10.46-6.8 17.38c0 6.927 2.36 12.76 7.08 17.5 4.727 4.747 10.7 7.12 17.92 7.12zm0-107h151c6.553 0 12.36-2.373 17.42-7.12 5.053-4.74 7.58-10.74 7.58-18 0-6.587-2.527-12.38-7.58-17.38-5.06-5-10.867-7.5-17.42-7.5h-151c-7.22 0-13.193 2.54-17.92 7.62-4.72 5.073-7.08 11.073-7.08 18 0 6.92 2.36 12.713 7.08 17.38 4.727 4.667 10.7 7 17.92 7zm73-215 43 43c4.427 5.333 10.153 8 17.18 8 7.033 0 13.307-2.667 18.82-8 4.667-4.667 7-10.457 7-17.37s-2.333-13.123-7-18.63l-43-43 43-43c4.667-4.427 7-10.153 7-17.18 0-7.033-2.333-13.307-7-18.82-5.513-4.667-11.787-7-18.82-7-7.027 0-12.753 2.333-17.18 7l-43 43-43-43c-5.093-4.667-11.2-7-18.32-7s-13.013 2.333-17.68 7c-5.333 5.513-8 11.787-8 18.82 0 7.027 2.667 12.753 8 17.18l43 43-43 43c-5.333 5.14-8 11.307-8 18.5s2.667 13.027 8 17.5c4.427 5.333 10.153 8 17.18 8 7.033 0 13.307-2.667 18.82-8zm-352-15h146c6.553 0 12.36-2.373 17.42-7.12 5.053-4.74 7.58-10.74 7.58-18 0-7.253-2.527-13.213-7.58-17.88-5.06-4.667-10.867-7-17.42-7h-146c-7.22 0-13.193 2.373-17.92 7.12-4.72 4.74-7.08 10.74-7.08 18 0 7.253 2.36 13.213 7.08 17.88 4.727 4.667 10.7 7 17.92 7zm-82 510c-26.033 0-48.21-9.157-66.53-27.47-18.313-18.32-27.47-40.497-27.47-66.53v-582c0-26.307 9.157-48.717 27.47-67.23 18.32-18.513 40.497-27.77 66.53-27.77h582c26.307 0 48.717 9.257 67.23 27.77s27.77 40.923 27.77 67.23v582c0 26.033-9.257 48.21-27.77 66.53-18.513 18.313-40.923 27.47-67.23 27.47zm0-94h582v-582h-582zm0-582v582z" fill-rule="nonzero" transform="matrix(.133726 0 0 .133726 58.2445 193.91)"/></svg>