<svg clip-rule="evenodd" fill-rule="evenodd" stroke-linejoin="round" stroke-miterlimit="2" viewBox="0 0 245 210" xmlns="http://www.w3.org/2000/svg">
  <defs>
    <style type="text/css" id="current-color-scheme">.ColorScheme-Highlight { color:#ffffff; }</style>
  </defs><path class="ColorScheme-Highlight" fill="currentColor" d="m7.144 3.567h7.776c1.298 0 2.556.471 3.554 1.331l12.589 10.352c1.267 1.093 2 2.712 2 4.419v6.263c0 1.186-.455 2.324-1.265 3.162-.81.839-1.909 1.311-3.055 1.311h-21.599c-1.146 0-2.244-.472-3.055-1.311-.81-.838-1.265-1.976-1.265-3.162v-17.892c0-1.187.455-2.324 1.265-3.163.811-.839 1.909-1.31 3.055-1.31zm0 2.226c-.575 0-1.127.237-1.534.658-.407.422-.636.993-.636 1.589v17.892c0 .595.229 1.167.636 1.588s.959.658 1.534.658h21.599c.576 0 1.128-.237 1.535-.658s.635-.993.635-1.588v-6.263c0-1.046-.449-2.038-1.226-2.708l-12.589-10.352c-.612-.527-1.382-.816-2.178-.816zm.285 3.491c-.56 0-1.015-.448-1.015-1s.455-1 1.015-1h7.043c.56 0 1.014.448 1.014 1s-.454 1-1.014 1zm15.719-2.401c-.33-.269-.459-.726-.322-1.137.138-.412.513-.688.933-.688h6.013c.491 0 .962.202 1.309.561.347.36.542.847.542 1.356v4.712c0 .391-.216.748-.556.919s-.745.126-1.042-.116z" transform="matrix(8.10206 0 0 7.82482 -22.8811 -27.9099)"/><path class="ColorScheme-Highlight" fill="currentColor" d="m38.003 47.528h-32.006c-3.049 0-5.525-2.476-5.525-5.525v-31.297c0-3.049 2.476-5.525 5.525-5.525h32.006c3.05 0 5.525 2.476 5.525 5.525v31.298c0 3.049-2.475 5.524-5.525 5.524zm-10.663-37.297 5.044 6.635c.491.645.675 1.471.506 2.263s-.674 1.471-1.385 1.859l-.182.1c-1.078.589-2.425.311-3.18-.659l-6.546-8.398c-.295-.375-.632-.67-.948-1.006l-.215-.23c-.293-.311-.876-.564-1.303-.564h-11.134c-1.366 0-2.475 1.109-2.475 2.475v27.297c0 1.366 1.109 2.475 2.475 2.475l28.006.001c1.366 0 2.475-1.109 2.475-2.475v-27.298c0-1.366-1.109-2.475-2.475-2.475zm-16.693 27.251c-.317-.312-.512-.746-.512-1.227l.014-3.735v-14.33c0-.172.021-.32.055-.444l.125-.307.198-.251.3-.194.35-.077.319.036.307.128c.111.064.231.154.353.276l18.615 18.616c.122.122.212.242.276.353l.128.307.036.319-.077.35-.194.3-.251.198-.307.125c-.124.034-.272.055-.444.055h-14.329l-3.735.014c-.481 0-.915-.196-1.227-.512zm11.236-4.015-7.221-7.221v7.221z" transform="matrix(2.41128 0 0 2.41128 69.4519 65.9302)"/></svg>