<svg clip-rule="evenodd" fill-rule="evenodd" stroke-linejoin="round" stroke-miterlimit="2" viewBox="0 0 245 210" xmlns="http://www.w3.org/2000/svg">
  <defs>
    <style type="text/css" id="current-color-scheme">.ColorScheme-Highlight { color:#ffffff; }</style>
  </defs><path class="ColorScheme-Highlight" fill="currentColor" d="m7.144 3.567h7.776c1.298 0 2.556.471 3.554 1.331l12.589 10.352c1.267 1.093 2 2.712 2 4.419v6.263c0 1.186-.455 2.324-1.265 3.162-.81.839-1.909 1.311-3.055 1.311h-21.599c-1.146 0-2.244-.472-3.055-1.311-.81-.838-1.265-1.976-1.265-3.162v-17.892c0-1.187.455-2.324 1.265-3.163.811-.839 1.909-1.31 3.055-1.31zm0 2.226c-.575 0-1.127.237-1.534.658-.407.422-.636.993-.636 1.589v17.892c0 .595.229 1.167.636 1.588s.959.658 1.534.658h21.599c.576 0 1.128-.237 1.535-.658s.635-.993.635-1.588v-6.263c0-1.046-.449-2.038-1.226-2.708l-12.589-10.352c-.612-.527-1.382-.816-2.178-.816zm.285 3.491c-.56 0-1.015-.448-1.015-1s.455-1 1.015-1h7.043c.56 0 1.014.448 1.014 1s-.454 1-1.014 1zm15.719-2.401c-.33-.269-.459-.726-.322-1.137.138-.412.513-.688.933-.688h6.013c.491 0 .962.202 1.309.561.347.36.542.847.542 1.356v4.712c0 .391-.216.748-.556.919s-.745.126-1.042-.116z" transform="matrix(8.10206 0 0 7.82482 -22.8811 -27.9099)"/><path class="ColorScheme-Highlight" fill="currentColor" d="m213.333 960c0-114.108 26.033-222.167 72.215-318.902 15.509-31.231 45.105-53.086 79.518-58.719 34.412-5.633 69.432 5.646 94.089 30.303 200.345 197.645 650.515 647.818 849.515 846.818 25.11 25.08 36.6 60.73 30.87 95.76s-27.98 65.15-59.77 80.94c-97.6 44.43-205.66 70.47-319.77 70.47-411.627 0-746.667-335.04-746.667-746.67m1493.337 0c0 114.11-26.04 222.17-72.22 318.9-15.51 31.23-45.1 53.09-79.52 58.72-34.41 5.63-69.43-5.64-94.08-30.3-200.35-197.65-650.523-647.82-849.518-846.815-25.109-25.089-36.599-60.734-30.87-95.764 5.73-35.029 27.977-65.156 59.77-80.939 97.601-44.436 205.66-70.469 319.768-70.469 411.63 0 746.67 335.04 746.67 746.667m-746.67-960c-530.24 0-960 429.76-960 960s429.76 960 960 960 960-429.76 960-960-429.76-960-960-960" transform="matrix(.0547067 0 0 .0547067 69.9816 75.4967)"/></svg>