<svg clip-rule="evenodd" fill-rule="evenodd" stroke-linejoin="round" stroke-miterlimit="2" viewBox="0 0 245 210" xmlns="http://www.w3.org/2000/svg">
  <defs>
    <style type="text/css" id="current-color-scheme">.ColorScheme-Highlight { color:#ffffff; }</style>
  </defs><path class="ColorScheme-Highlight" fill="currentColor" d="m7.144 3.567h7.776c1.298 0 2.556.471 3.554 1.331l12.589 10.352c1.267 1.093 2 2.712 2 4.419v6.263c0 1.186-.455 2.324-1.265 3.162-.81.839-1.909 1.311-3.055 1.311h-21.599c-1.146 0-2.244-.472-3.055-1.311-.81-.838-1.265-1.976-1.265-3.162v-17.892c0-1.187.455-2.324 1.265-3.163.811-.839 1.909-1.31 3.055-1.31zm0 2.226c-.575 0-1.127.237-1.534.658-.407.422-.636.993-.636 1.589v17.892c0 .595.229 1.167.636 1.588s.959.658 1.534.658h21.599c.576 0 1.128-.237 1.535-.658s.635-.993.635-1.588v-6.263c0-1.046-.449-2.038-1.226-2.708l-12.589-10.352c-.612-.527-1.382-.816-2.178-.816zm.285 3.491c-.56 0-1.015-.448-1.015-1s.455-1 1.015-1h7.043c.56 0 1.014.448 1.014 1s-.454 1-1.014 1zm15.719-2.401c-.33-.269-.459-.726-.322-1.137.138-.412.513-.688.933-.688h6.013c.491 0 .962.202 1.309.561.347.36.542.847.542 1.356v4.712c0 .391-.216.748-.556.919s-.745.126-1.042-.116z" transform="matrix(8.10206 0 0 7.82482 -22.8811 -27.9099)"/><path class="ColorScheme-Highlight" fill="currentColor" d="m139-62c-26.307 0-48.717-9.157-67.23-27.47-18.513-18.32-27.77-40.497-27.77-66.53v-647c0-26.307 9.257-48.883 27.77-67.73s40.923-28.27 67.23-28.27h684c25.56 0 47.45 9.423 65.67 28.27s27.33 41.423 27.33 67.73v647c0 26.033-9.11 48.21-27.33 66.53-18.22 18.313-40.11 27.47-65.67 27.47zm186-156.152c0 34.325 27.827 62.152 62.152 62.152h188.696c34.325 0 62.152-27.827 62.152-62.152v-522.696c0-34.325-27.827-62.152-62.152-62.152h-188.696c-34.325 0-62.152 27.827-62.152 62.152zm0-584.848h313zm-186 612.977c0 9.024 3.584 17.678 9.965 24.058 6.38 6.381 15.034 9.965 24.058 9.965h22.954c9.024 0 17.678-3.584 24.058-9.965 6.381-6.38 9.965-15.034 9.965-24.058v-22.954c0-9.024-3.584-17.678-9.965-24.058-6.38-6.381-15.034-9.965-24.058-9.965h-22.954c-9.024 0-17.678 3.584-24.058 9.965-6.381 6.38-9.965 15.034-9.965 24.058zm592 0c0 9.024 3.584 17.678 9.965 24.058 6.38 6.381 15.034 9.965 24.058 9.965h23.954c9.024 0 17.678-3.584 24.058-9.965 6.381-6.38 9.965-15.034 9.965-24.058v-22.954c0-9.024-3.584-17.678-9.965-24.058-6.38-6.381-15.034-9.965-24.058-9.965h-23.954c-9.024 0-17.678 3.584-24.058 9.965-6.381 6.38-9.965 15.034-9.965 24.058zm-592-184c0 9.024 3.584 17.678 9.965 24.058 6.38 6.381 15.034 9.965 24.058 9.965h22.954c9.024 0 17.678-3.584 24.058-9.965 6.381-6.38 9.965-15.034 9.965-24.058v-23.954c0-9.024-3.584-17.678-9.965-24.058-6.38-6.381-15.034-9.965-24.058-9.965h-22.954c-9.024 0-17.678 3.584-24.058 9.965-6.381 6.38-9.965 15.034-9.965 24.058zm592 0c0 9.024 3.584 17.678 9.965 24.058 6.38 6.381 15.034 9.965 24.058 9.965h23.954c9.024 0 17.678-3.584 24.058-9.965 6.381-6.38 9.965-15.034 9.965-24.058v-23.954c0-9.024-3.584-17.678-9.965-24.058-6.38-6.381-15.034-9.965-24.058-9.965h-23.954c-9.024 0-17.678 3.584-24.058 9.965-6.381 6.38-9.965 15.034-9.965 24.058zm-592-186c0 9.024 3.584 17.678 9.965 24.058 6.38 6.381 15.034 9.965 24.058 9.965h22.954c9.024 0 17.678-3.584 24.058-9.965 6.381-6.38 9.965-15.034 9.965-24.058v-23.954c0-9.024-3.584-17.678-9.965-24.058-6.38-6.381-15.034-9.965-24.058-9.965h-22.954c-9.024 0-17.678 3.584-24.058 9.965-6.381 6.38-9.965 15.034-9.965 24.058zm592 0c0 9.024 3.584 17.678 9.965 24.058 6.38 6.381 15.034 9.965 24.058 9.965h23.954c9.024 0 17.678-3.584 24.058-9.965 6.381-6.38 9.965-15.034 9.965-24.058v-23.954c0-9.024-3.584-17.678-9.965-24.058-6.38-6.381-15.034-9.965-24.058-9.965h-23.954c-9.024 0-17.678 3.584-24.058 9.965-6.381 6.38-9.965 15.034-9.965 24.058zm-592-186c0 9.024 3.584 17.678 9.965 24.058 6.38 6.381 15.034 9.965 24.058 9.965h22.954c9.024 0 17.678-3.584 24.058-9.965 6.381-6.38 9.965-15.034 9.965-24.058v-22.954c0-9.024-3.584-17.678-9.965-24.058-6.38-6.381-15.034-9.965-24.058-9.965h-22.954c-9.024 0-17.678 3.584-24.058 9.965-6.381 6.38-9.965 15.034-9.965 24.058zm592 0c0 9.024 3.584 17.678 9.965 24.058 6.38 6.381 15.034 9.965 24.058 9.965h23.954c9.024 0 17.678-3.584 24.058-9.965 6.381-6.38 9.965-15.034 9.965-24.058v-22.954c0-9.024-3.584-17.678-9.965-24.058-6.38-6.381-15.034-9.965-24.058-9.965h-23.954c-9.024 0-17.678 3.584-24.058 9.965-6.381 6.38-9.965 15.034-9.965 24.058z" fill-rule="nonzero" transform="matrix(.118283 0 0 .118283 65.724 187.867)"/></svg>