<svg clip-rule="evenodd" fill-rule="evenodd" stroke-linejoin="round" stroke-miterlimit="2" viewBox="0 0 245 210" xmlns="http://www.w3.org/2000/svg">
  <defs>
    <style type="text/css" id="current-color-scheme">.ColorScheme-Highlight { color:#ffffff; }</style>
  </defs><path class="ColorScheme-Highlight" fill="currentColor" d="m7.144 3.567h7.776c1.298 0 2.556.471 3.554 1.331l12.589 10.352c1.267 1.093 2 2.712 2 4.419v6.263c0 1.186-.455 2.324-1.265 3.162-.81.839-1.909 1.311-3.055 1.311h-21.599c-1.146 0-2.244-.472-3.055-1.311-.81-.838-1.265-1.976-1.265-3.162v-17.892c0-1.187.455-2.324 1.265-3.163.811-.839 1.909-1.31 3.055-1.31zm0 2.226c-.575 0-1.127.237-1.534.658-.407.422-.636.993-.636 1.589v17.892c0 .595.229 1.167.636 1.588s.959.658 1.534.658h21.599c.576 0 1.128-.237 1.535-.658s.635-.993.635-1.588v-6.263c0-1.046-.449-2.038-1.226-2.708l-12.589-10.352c-.612-.527-1.382-.816-2.178-.816zm.285 3.491c-.56 0-1.015-.448-1.015-1s.455-1 1.015-1h7.043c.56 0 1.014.448 1.014 1s-.454 1-1.014 1zm15.719-2.401c-.33-.269-.459-.726-.322-1.137.138-.412.513-.688.933-.688h6.013c.491 0 .962.202 1.309.561.347.36.542.847.542 1.356v4.712c0 .391-.216.748-.556.919s-.745.126-1.042-.116z" transform="matrix(8.10206 0 0 7.82482 -22.8811 -27.9099)"/><path class="ColorScheme-Highlight" fill="currentColor" d="m800-481c0-61.333-17.333-116.833-52-166.5s-80-86.5-136-110.5c-9.333-3.613-15.667-9.683-19-18.21s-2.667-17.297 2-26.31c4-9.653 10.667-16.313 20-19.98s19-3.547 29 .36c68.667 29.427 123.667 74.747 165 135.96 41.333 61.22 62 129.553 62 205 0 75.453-20.667 143.847-62 205.18s-96.333 106.713-165 136.14c-10 3.907-19.667 4.027-29 .36s-16-10.26-20-19.78c-4.667-8.887-5.333-17.78-2-26.68s9.667-15.247 19-19.04c56-23.333 101.333-59.833 136-109.5s52-105.167 52-166.5zm-536.48 146h-126.52c-14 0-25.5-4.5-34.5-13.5s-13.5-20.167-13.5-33.5v-196c0-13.253 4.5-24.567 13.5-33.94s20.5-14.06 34.5-14.06h126.52l155.48-154c14.667-15.333 31.833-19 51.5-11s29.5 22.333 29.5 43v535c0 21.46-9.833 36.157-29.5 44.09-19.667 7.94-36.833 4.243-51.5-11.09zm427.48-145c0 35.333-9.167 67.5-27.5 96.5s-44.167 51.5-77.5 67.5c-6.667 3.333-12.667 3-18-1s-8-9.637-8-16.91v-293.18c0-7.273 2.667-12.743 8-16.41s11.333-3.833 18-.5c33.333 16 59.167 38.667 77.5 68s27.5 61.333 27.5 96zm-286-146-100 95h-121v102h121l100 96z" fill-rule="nonzero" transform="matrix(.139295 0 0 .139295 55.6386 195.016)"/></svg>