<svg clip-rule="evenodd" fill-rule="evenodd" stroke-linejoin="round" stroke-miterlimit="2" viewBox="0 0 245 210" xmlns="http://www.w3.org/2000/svg">
  <defs>
    <style type="text/css" id="current-color-scheme">.ColorScheme-Highlight { color:#ffffff; }</style>
  </defs><path class="ColorScheme-Highlight" fill="currentColor" d="m7.144 3.567h7.776c1.298 0 2.556.471 3.554 1.331l12.589 10.352c1.267 1.093 2 2.712 2 4.419v6.263c0 1.186-.455 2.324-1.265 3.162-.81.839-1.909 1.311-3.055 1.311h-21.599c-1.146 0-2.244-.472-3.055-1.311-.81-.838-1.265-1.976-1.265-3.162v-17.892c0-1.187.455-2.324 1.265-3.163.811-.839 1.909-1.31 3.055-1.31zm0 2.226c-.575 0-1.127.237-1.534.658-.407.422-.636.993-.636 1.589v17.892c0 .595.229 1.167.636 1.588s.959.658 1.534.658h21.599c.576 0 1.128-.237 1.535-.658s.635-.993.635-1.588v-6.263c0-1.046-.449-2.038-1.226-2.708l-12.589-10.352c-.612-.527-1.382-.816-2.178-.816zm.285 3.491c-.56 0-1.015-.448-1.015-1s.455-1 1.015-1h7.043c.56 0 1.014.448 1.014 1s-.454 1-1.014 1zm15.719-2.401c-.33-.269-.459-.726-.322-1.137.138-.412.513-.688.933-.688h6.013c.491 0 .962.202 1.309.561.347.36.542.847.542 1.356v4.712c0 .391-.216.748-.556.919s-.745.126-1.042-.116z" transform="matrix(8.10206 0 0 7.82482 -22.8811 -27.9099)"/><path class="ColorScheme-Highlight" fill="currentColor" d="m480-55c-58.027 0-112.867-11.167-164.52-33.5s-96.813-52.833-135.48-91.5-69.167-83.82-91.5-135.46-33.5-106.463-33.5-164.47c0-60.047 11.15-115.83 33.45-167.35 22.293-51.513 53.127-96.513 92.5-135 39.367-38.48 85.307-68.72 137.82-90.72s108.717-33 168.61-33c55.747 0 108.883 9.487 159.41 28.46 50.527 18.967 95.027 45.3 133.5 79 38.473 33.693 69.043 73.607 91.71 119.74s34 96.067 34 149.8c0 76-21.333 138.333-64 187s-102 73-178 73h-58c-10.667 0-20 4.333-28 13s-12 18.333-12 29c0 16.667 3.333 28.333 10 35s10 17 10 31c0 29.333-9.933 54.333-29.8 75s-45.267 31-76.2 31zm-224-399c13.333 0 25-5 35-15s15-21.667 15-35-5-25-15-35-21.667-15-35-15-25 5-35 15-15 21.667-15 35 5 25 15 35 21.667 15 35 15zm121.5-163c13.667 0 25.5-5 35.5-15s15-21.667 15-35c0-14-5-25.833-15-35.5s-21.667-14.5-35-14.5c-14 0-25.833 4.833-35.5 14.5s-14.5 21.333-14.5 35 4.833 25.5 14.5 35.5 21.333 15 35 15zm205 0c13.667 0 25.5-5 35.5-15s15-21.667 15-35c0-14-5-25.833-15-35.5s-21.667-14.5-35-14.5c-14 0-25.833 4.833-35.5 14.5s-14.5 21.333-14.5 35 4.833 25.5 14.5 35.5 21.333 15 35 15zm124.5 163c13.333 0 25-5 35-15s15-21.667 15-35-5-25-15-35-21.667-15-35-15c-14 0-25.833 5-35.5 15s-14.5 21.667-14.5 35 4.833 25 14.5 35 21.5 15 35.5 15zm-231 305c5.167 0 9.127-1.183 11.88-3.55 2.747-2.36 4.12-6.363 4.12-12.01 0-9.627-5-17.523-15-23.69s-15-22.083-15-47.75c0-32.78 10.993-62.143 32.98-88.09 21.987-25.94 49.243-38.91 81.77-38.91h87.25c49.333 0 86.167-14.667 110.5-44s36.5-68 36.5-116c0-88-32.863-158-98.59-210-65.733-52-140.677-78-224.83-78-94.453 0-174.497 32.123-240.13 96.37s-98.45 142.617-98.45 235.11c0 91.68 31.987 169.687 95.96 234.02s140.987 96.5 231.04 96.5z" fill-rule="nonzero" transform="matrix(.123427 0 0 .123427 63.1931 187.322)"/></svg>