<svg clip-rule="evenodd" fill-rule="evenodd" stroke-linejoin="round" stroke-miterlimit="2" viewBox="0 0 245 210" xmlns="http://www.w3.org/2000/svg">
  <defs>
    <style type="text/css" id="current-color-scheme">.ColorScheme-Highlight { color:#ffffff; }</style>
  </defs><path class="ColorScheme-Highlight" fill="currentColor" d="m7.144 3.567h7.776c1.298 0 2.556.471 3.554 1.331l12.589 10.352c1.267 1.093 2 2.712 2 4.419v6.263c0 1.186-.455 2.324-1.265 3.162-.81.839-1.909 1.311-3.055 1.311h-21.599c-1.146 0-2.244-.472-3.055-1.311-.81-.838-1.265-1.976-1.265-3.162v-17.892c0-1.187.455-2.324 1.265-3.163.811-.839 1.909-1.31 3.055-1.31zm0 2.226c-.575 0-1.127.237-1.534.658-.407.422-.636.993-.636 1.589v17.892c0 .595.229 1.167.636 1.588s.959.658 1.534.658h21.599c.576 0 1.128-.237 1.535-.658s.635-.993.635-1.588v-6.263c0-1.046-.449-2.038-1.226-2.708l-12.589-10.352c-.612-.527-1.382-.816-2.178-.816zm.285 3.491c-.56 0-1.015-.448-1.015-1s.455-1 1.015-1h7.043c.56 0 1.014.448 1.014 1s-.454 1-1.014 1zm15.719-2.401c-.33-.269-.459-.726-.322-1.137.138-.412.513-.688.933-.688h6.013c.491 0 .962.202 1.309.561.347.36.542.847.542 1.356v4.712c0 .391-.216.748-.556.919s-.745.126-1.042-.116z" transform="matrix(8.10206 0 0 7.82482 -22.8811 -27.9099)"/><path class="ColorScheme-Highlight" fill="currentColor" d="m12.742 2.243 1.483 1.453 2.011-.517c.559-.144 1.13.186 1.285.742l.558 2 2 .558c.556.155.886.726.742 1.285l-.517 2.011 1.453 1.483c.404.412.404 1.072 0 1.484l-1.453 1.483.517 2.011c.144.559-.186 1.13-.742 1.285l-2 .558-.558 2c-.155.556-.726.886-1.285.742l-2.011-.517-1.483 1.453c-.412.404-1.072.404-1.484 0l-1.483-1.453-2.011.517c-.559.144-1.13-.186-1.285-.742l-.558-2-2-.558c-.556-.155-.886-.726-.742-1.285l.517-2.011-1.453-1.483c-.404-.412-.404-1.072 0-1.484l1.453-1.483-.517-2.011c-.144-.559.186-1.13.742-1.285l2-.558.558-2c.155-.556.726-.886 1.285-.742l2.011.517 1.483-1.453c.412-.404 1.072-.404 1.484 0zm-.742 2.241-1.168 1.145c-.265.26-.647.362-1.006.269l-1.584-.407-.439 1.575c-.1.358-.379.637-.737.737l-1.575.439.407 1.584c.093.359-.009.741-.269 1.006l-1.145 1.168 1.145 1.168c.26.265.362.647.269 1.006l-.407 1.584 1.575.439c.358.1.637.379.737.737l.439 1.575 1.584-.407c.359-.093.741.009 1.006.269l1.168 1.145 1.168-1.145c.265-.26.647-.362 1.006-.269l1.584.407.439-1.575c.1-.358.379-.637.737-.737l1.575-.439-.407-1.584c-.093-.359.009-.741.269-1.006l1.145-1.168-1.145-1.168c-.26-.265-.362-.647-.269-1.006l.407-1.584-1.575-.439c-.358-.1-.637-.379-.737-.737l-.439-1.575-1.584.407c-.359.093-.741-.009-1.006-.269zm-3.75 8.266c-.414-.414-.414-1.086 0-1.5s1.086-.414 1.5 0l1.25 1.251 3.25-3.251c.414-.414 1.086-.414 1.5 0s.414 1.086 0 1.5l-4 4c-.414.414-1.086.414-1.5 0zm6.654 9.43c.275-.024.548.069.752.256.204.188.32.452.32.728v4.394c0 1.519-1.751 2.371-2.946 1.434l-1.03-.772-1.03.772c-1.195.937-2.946.085-2.946-1.434v-4.394c0-.276.116-.54.32-.728.203-.187.476-.28.752-.256l.054.004c.478.041.845.44.845.92v4.152l1.549-1.188c.269-.206.643-.206.912 0l1.549 1.188v-4.099c0-.509.391-.934.899-.977z" transform="matrix(3.82742 0 0 3.82742 76.5709 68.0715)"/></svg>