<svg clip-rule="evenodd" fill-rule="evenodd" stroke-linejoin="round" stroke-miterlimit="2" viewBox="0 0 245 210" xmlns="http://www.w3.org/2000/svg">
  <defs>
    <style type="text/css" id="current-color-scheme">.ColorScheme-Highlight { color:#ffffff; }</style>
  </defs><path class="ColorScheme-Highlight" fill="currentColor" d="m7.144 3.567h7.776c1.298 0 2.556.471 3.554 1.331l12.589 10.352c1.267 1.093 2 2.712 2 4.419v6.263c0 1.186-.455 2.324-1.265 3.162-.81.839-1.909 1.311-3.055 1.311h-21.599c-1.146 0-2.244-.472-3.055-1.311-.81-.838-1.265-1.976-1.265-3.162v-17.892c0-1.187.455-2.324 1.265-3.163.811-.839 1.909-1.31 3.055-1.31zm0 2.226c-.575 0-1.127.237-1.534.658-.407.422-.636.993-.636 1.589v17.892c0 .595.229 1.167.636 1.588s.959.658 1.534.658h21.599c.576 0 1.128-.237 1.535-.658s.635-.993.635-1.588v-6.263c0-1.046-.449-2.038-1.226-2.708l-12.589-10.352c-.612-.527-1.382-.816-2.178-.816zm.285 3.491c-.56 0-1.015-.448-1.015-1s.455-1 1.015-1h7.043c.56 0 1.014.448 1.014 1s-.454 1-1.014 1zm15.719-2.401c-.33-.269-.459-.726-.322-1.137.138-.412.513-.688.933-.688h6.013c.491 0 .962.202 1.309.561.347.36.542.847.542 1.356v4.712c0 .391-.216.748-.556.919s-.745.126-1.042-.116z" transform="matrix(8.10206 0 0 7.82482 -22.8811 -27.9099)"/><path class="ColorScheme-Highlight" fill="currentColor" d="m189-95c-26.033 0-48.21-9.157-66.53-27.47-18.313-18.32-27.47-40.497-27.47-66.53v-582c0-26.307 9.157-48.717 27.47-67.23 18.32-18.513 40.497-27.77 66.53-27.77h465c13.04 0 25.467 2.667 37.28 8s22.053 12.333 30.72 21l115 115c8.667 8.667 15.667 18.907 21 30.72s8 24.24 8 37.28v465c0 26.033-9.257 48.21-27.77 66.53-18.513 18.313-40.923 27.47-67.23 27.47zm582-557-119-119h-463v582h582zm-291.24 398c28.827 0 53.407-10.087 73.74-30.26 20.333-20.18 30.5-44.68 30.5-73.5 0-28.827-10.087-53.407-30.26-73.74-20.18-20.333-44.68-30.5-73.5-30.5-28.827 0-53.407 10.087-73.74 30.26-20.333 20.18-30.5 44.68-30.5 73.5 0 28.827 10.087 53.407 30.26 73.74 20.18 20.333 44.68 30.5 73.5 30.5zm-190.76-321h264c13.167 0 24.293-4.543 33.38-13.63 9.08-9.08 13.62-20.203 13.62-33.37v-49c0-13.167-4.54-24.293-13.62-33.38-9.087-9.08-20.213-13.62-33.38-13.62h-264c-13.167 0-24.29 4.54-33.37 13.62-9.087 9.087-13.63 20.213-13.63 33.38v49c0 13.167 4.543 24.29 13.63 33.37 9.08 9.087 20.203 13.63 33.37 13.63zm-100-196v582z" fill-rule="nonzero" transform="matrix(.136234 0 0 .136234 57.0577 193.476)"/></svg>