<svg clip-rule="evenodd" fill-rule="evenodd" stroke-linejoin="round" stroke-miterlimit="2" viewBox="0 0 245 210" xmlns="http://www.w3.org/2000/svg">
  <defs>
    <style type="text/css" id="current-color-scheme">.ColorScheme-Highlight { color:#ffffff; }</style>
  </defs><path class="ColorScheme-Highlight" fill="currentColor" d="m7.144 3.567h7.776c1.298 0 2.556.471 3.554 1.331l12.589 10.352c1.267 1.093 2 2.712 2 4.419v6.263c0 1.186-.455 2.324-1.265 3.162-.81.839-1.909 1.311-3.055 1.311h-21.599c-1.146 0-2.244-.472-3.055-1.311-.81-.838-1.265-1.976-1.265-3.162v-17.892c0-1.187.455-2.324 1.265-3.163.811-.839 1.909-1.31 3.055-1.31zm0 2.226c-.575 0-1.127.237-1.534.658-.407.422-.636.993-.636 1.589v17.892c0 .595.229 1.167.636 1.588s.959.658 1.534.658h21.599c.576 0 1.128-.237 1.535-.658s.635-.993.635-1.588v-6.263c0-1.046-.449-2.038-1.226-2.708l-12.589-10.352c-.612-.527-1.382-.816-2.178-.816zm.285 3.491c-.56 0-1.015-.448-1.015-1s.455-1 1.015-1h7.043c.56 0 1.014.448 1.014 1s-.454 1-1.014 1zm15.719-2.401c-.33-.269-.459-.726-.322-1.137.138-.412.513-.688.933-.688h6.013c.491 0 .962.202 1.309.561.347.36.542.847.542 1.356v4.712c0 .391-.216.748-.556.919s-.745.126-1.042-.116z" transform="matrix(8.10206 0 0 7.82482 -22.8811 -27.9099)"/><path class="ColorScheme-Highlight" fill="currentColor" d="m724-263h-110c-13.167 0-24.29-4.56-33.37-13.68-9.087-9.113-13.63-20.28-13.63-33.5 0-13.213 4.543-24.32 13.63-33.32 9.08-9 20.203-13.5 33.37-13.5h110l-25-26c-8.667-9.333-13-19.833-13-31.5s5-22.5 15-32.5c9.333-9.333 20.333-14 33-14s23.667 4.667 33 14l103 103c5.333 5.333 9.167 10.74 11.5 16.22 2.333 5.473 3.5 11.4 3.5 17.78s-1.167 12.307-3.5 17.78c-2.333 5.48-6.167 10.887-11.5 16.22l-103 103c-9.333 9.333-20.5 13.833-33.5 13.5s-24.833-5.833-35.5-16.5c-8.667-8.667-12.833-18.667-12.5-30s4.5-21.667 12.5-31zm-567 0c-25.833 0-47.957-9.21-66.37-27.63-18.42-18.413-27.63-40.537-27.63-66.37v-406c0-25.833 9.21-47.96 27.63-66.38 18.413-18.413 40.537-27.62 66.37-27.62h526c25.833 0 47.96 9.207 66.38 27.62 18.413 18.42 27.62 40.547 27.62 66.38v154c0 12.667-4.683 23.667-14.05 33-9.373 9.333-20.417 14-33.13 14-13.213 0-24.32-4.543-33.32-13.63-9-9.08-13.5-20.203-13.5-33.37v-91l-267 189-259-188v342h273c13.167 0 24.293 4.56 33.38 13.68 9.08 9.113 13.62 20.28 13.62 33.5 0 13.213-4.54 24.32-13.62 33.32-9.087 9-20.213 13.5-33.38 13.5zm72-500 187 136 191-136zm-72 406v-406z" fill-rule="nonzero" transform="matrix(.132972 0 0 .132972 59.4714 197.876)"/></svg>