<svg fill="rgb(255,205,0)" clip-rule="evenodd" fill-rule="evenodd" stroke-linejoin="round" stroke-miterlimit="2" viewBox="0 0 245 210" xmlns="http://www.w3.org/2000/svg"><path d="m7.144 3.567h7.776c1.298 0 2.556.471 3.554 1.331l12.589 10.352c1.267 1.093 2 2.712 2 4.419v6.263c0 1.186-.455 2.324-1.265 3.162-.81.839-1.909 1.311-3.055 1.311h-21.599c-1.146 0-2.244-.472-3.055-1.311-.81-.838-1.265-1.976-1.265-3.162v-17.892c0-1.187.455-2.324 1.265-3.163.811-.839 1.909-1.31 3.055-1.31zm0 2.226c-.575 0-1.127.237-1.534.658-.407.422-.636.993-.636 1.589v17.892c0 .595.229 1.167.636 1.588s.959.658 1.534.658h21.599c.576 0 1.128-.237 1.535-.658s.635-.993.635-1.588v-6.263c0-1.046-.449-2.038-1.226-2.708l-12.589-10.352c-.612-.527-1.382-.816-2.178-.816zm.285 3.491c-.56 0-1.015-.448-1.015-1s.455-1 1.015-1h7.043c.56 0 1.014.448 1.014 1s-.454 1-1.014 1zm15.719-2.401c-.33-.269-.459-.726-.322-1.137.138-.412.513-.688.933-.688h6.013c.491 0 .962.202 1.309.561.347.36.542.847.542 1.356v4.712c0 .391-.216.748-.556.919s-.745.126-1.042-.116z" transform="matrix(8.10206 0 0 7.82482 -22.8811 -27.9099)"/><path d="m367.028 4965.84c.56 0 1.014-.45 1.014-1v-3c0-.55-.454-1-1.014-1s-1.014.45-1.014 1v3c0 .55.454 1 1.014 1zm12.169 3.16h-2.028v3h2.028c2.366 0 2.366-3 0-3zm-4.056 0h-7.099c-.56 0-1.014.45-1.014 1v1.83c0 2.09 1.549 3.95 3.658 4.15 2.42.23 4.455-1.64 4.455-3.98zm4.056 5h-2.382c-.912 2.54-3.498 4.3-6.456 3.96-3.1-.35-5.359-3.09-5.359-6.17v-2.79c0-1.1.908-2 2.028-2h12.169c5.071 0 5.071 7 0 7zm-4.056-8.16c.56 0 1.014-.45 1.014-1v-3c0-.55-.454-1-1.014-1s-1.014.45-1.014 1v3c0 .55.454 1 1.014 1zm-5.071-2.26v-3c0-.55.455-1 1.015-1 .559 0 1.014.45 1.014 1v3c0 .55-.455 1-1.014 1-.56 0-1.015-.45-1.015-1z" transform="matrix(5.7017 0 0 5.7017 -2009.94 -28202.5)"/></svg>