<?xml version="1.0" encoding="utf-8"?>
<svg height="48" viewBox="0 -960 960 960" width="48" xmlns="http://www.w3.org/2000/svg">
  <path d="M 189 -55 C 162.967 -55 140.79 -64.157 122.47 -82.47 C 104.157 -100.79 95 -122.967 95 -149 L 95 -811 C 95 -837.307 104.157 -859.717 122.47 -878.23 C 140.79 -896.743 162.967 -906 189 -906 L 512 -906 C 525.04 -906 537.467 -903.333 549.28 -898 C 561.093 -892.667 571.333 -885.667 580 -877 L 757 -700 C 765.667 -691.333 772.667 -681.093 778 -669.28 C 783.333 -657.467 786 -645.04 786 -632 L 786 -547 C 786 -534.947 781.08 -525.1 771.24 -517.46 C 761.393 -509.82 750.227 -506 737.74 -506 C 726.58 -506 716.333 -509.377 707 -516.13 C 697.667 -522.877 691.333 -531.833 688 -543 L 688 -625 L 549 -625 C 535.833 -625 524.71 -629.543 515.63 -638.63 C 506.543 -647.71 502 -658.833 502 -672 L 502 -811 L 189 -811 L 189 -149 L 467 -149 C 480.4 -149 491.417 -144.44 500.05 -135.32 C 508.683 -126.207 513 -115.04 513 -101.82 C 513 -88.607 508.683 -77.5 500.05 -68.5 C 491.417 -59.5 480.4 -55 467 -55 Z M 610.868 -43.5 C 598.079 -43.942 584.957 -49.395 575.575 -58.164 C 566.808 -67.538 561.36 -80.602 560.915 -93.459 L 560.915 -263.63 C 561.346 -276.445 566.773 -289.65 575.529 -299.126 C 584.899 -307.987 598.045 -313.534 610.868 -313.99 L 745.816 -313.99 L 745.816 -361.17 C 746.217 -371.82 743.672 -378.427 736.542 -384.998 C 730.032 -392.24 723.73 -394.43 713.546 -394.43 C 705.665 -394.43 700.677 -393.059 695.08 -388.314 C 688.977 -383.918 685.945 -379.616 684.014 -372.609 L 683.778 -371.753 L 683.315 -370.892 C 680.319 -365.316 675.365 -359.567 670.313 -355.861 C 664.737 -352.38 657.024 -349.84 650.441 -349.84 C 642.075 -349.84 632.843 -355.543 627.638 -362.167 C 623.612 -369.321 622.15 -379.267 623.943 -387.382 C 629.347 -406.648 640.764 -424.128 656.393 -436.788 C 672.49 -449.11 692.726 -456.28 713.546 -456.28 C 738.712 -456.28 762.25 -446.029 780.071 -428.533 C 797.231 -410.474 806.851 -386.724 807.27 -361.34 L 807.27 -313.99 L 816.223 -313.99 C 829.134 -313.542 842.352 -308.013 851.801 -299.166 C 860.649 -289.693 866.143 -276.47 866.585 -263.63 L 866.585 -93.459 C 866.129 -80.576 860.61 -67.491 851.751 -58.12 C 842.29 -49.366 829.099 -43.934 816.223 -43.5 Z"/>
</svg>