<svg height="48" viewBox="0 -960 960 960" width="48" xmlns="http://www.w3.org/2000/svg"><path d="m189-55c-26.033 0-48.21-9.157-66.53-27.47-18.313-18.32-27.47-40.497-27.47-66.53v-662c0-26.307 9.157-48.717 27.47-67.23 18.32-18.513 40.497-27.77 66.53-27.77h323c13.04 0 25.467 2.667 37.28 8s22.053 12.333 30.72 21l177 177c8.667 8.667 15.667 18.907 21 30.72s8 24.24 8 37.28v85c0 12.053-4.92 21.9-14.76 29.54-9.847 7.64-21.013 11.46-33.5 11.46-11.16 0-21.407-3.377-30.74-10.13-9.333-6.747-15.667-15.703-19-26.87v-82h-139c-13.167 0-24.29-4.543-33.37-13.63-9.087-9.08-13.63-20.203-13.63-33.37v-139h-313v662h278c13.4 0 24.417 4.56 33.05 13.68 8.633 9.113 12.95 20.28 12.95 33.5 0 13.213-4.317 24.32-12.95 33.32s-19.65 13.5-33.05 13.5z"/><path d="m610.868-55c-10.579 0-19.636-3.77-27.162-11.296-7.528-7.526-11.291-16.524-11.291-27.163v-170.171c0-10.63 3.763-19.79 11.291-27.41 7.526-7.61 16.583-11.45 27.162-11.45h146.448v-58.68c0-12.76-4.197-23.4-12.583-31.9-8.386-8.51-18.784-12.86-31.187-12.86-9.72 0-18.22 2.87-25.502 8.52-7.291 5.64-12.289 12.76-14.997 21.34-2.234 4.43-5.31 8.03-9.245 10.73-3.928 2.7-8.387 4-13.361 4-5.636 0-10.029-2.37-13.171-7.11-3.151-4.83-3.903-10.07-2.266-15.79 4.63-17.67 14.137-32.24 28.512-43.52 14.367-11.39 31.049-17.02 50.03-17.02 22.957 0 42.397 8.09 58.325 24.31 15.93 16.18 23.899 35.9 23.899 59.13v58.85h20.453c10.685 0 19.833 3.84 27.44 11.45 7.609 7.62 11.422 16.78 11.422 27.41v170.171c0 10.639-3.813 19.637-11.422 27.163-7.607 7.526-16.755 11.296-27.44 11.296z" stroke="#000" stroke-width="23"/></svg>