<svg viewBox="0 0 22 22" xmlns="http://www.w3.org/2000/svg"><path d="m14.2 4.02 5.334 5.335.714.713c.177.224.386.645.386.932 0 .286-.209.708-.386.932l-.714.712-5.338 5.339c-.222.175-.641.348-.928.382h-10.585c-.3-.039-.741-.196-.931-.385-.19-.191-.347-.632-.386-.932v-12.097c.039-.3.196-.741.386-.931s.631-.347.931-.386h10.585c.154.019.818.271.932.386zm-2.133 4.643-.999-.998c-.172-.172-.449-.172-.621 0l-1.715 1.716-1.716-1.716c-.172-.172-.449-.172-.621 0l-.998.998c-.172.172-.172.449 0 .621l1.716 1.716-1.716 1.715c-.172.172-.172.449 0 .622l.998.998c.172.171.449.171.621 0l1.716-1.717 1.715 1.717c.172.171.449.171.621 0l.999-.998c.171-.173.171-.45 0-.622l-1.717-1.715 1.717-1.716c.171-.172.171-.449 0-.621z"/></svg>