<svg viewBox="0 0 22 22" xmlns="http://www.w3.org/2000/svg"><path d="m8.732 3.634h10.585c.3.039.741.196.931.386s.347.631.386.931v12.097c-.039.3-.196.741-.386.932-.19.189-.631.346-.931.385h-10.585c-.287-.034-.706-.207-.928-.382l-5.338-5.339-.714-.712c-.177-.224-.386-.646-.386-.932 0-.287.209-.708.386-.932l.714-.713 5.334-5.335c.114-.115.778-.367.932-.386zm1.201 5.65 1.717 1.716-1.717 1.715c-.171.172-.171.449 0 .622l.999.998c.172.171.449.171.621 0l1.715-1.717 1.716 1.717c.172.171.449.171.621 0l.998-.998c.172-.173.172-.45 0-.622l-1.716-1.715 1.716-1.716c.172-.172.172-.449 0-.621l-.998-.998c-.172-.172-.449-.172-.621 0l-1.716 1.716-1.715-1.716c-.172-.172-.449-.172-.621 0l-.999.998c-.171.172-.171.449 0 .621z"/></svg>