<svg viewBox="0 0 22 22" xmlns="http://www.w3.org/2000/svg"><path d="m10.5 2.5v8c-.022.452.14.764.438 1.062s.61.438 1.062.438.764-.14 1.062-.438.46-.61.438-1.062v-8c0-.276.224-.5.5-.5h2c.276 0 .5.224.5.5v7c-.022 1.487-.641 2.925-1.608 3.892s-2.405 1.608-3.892 1.608-2.925-.641-3.892-1.608-1.586-2.405-1.608-3.892v-7c0-.276.224-.5.5-.5h4c.276 0 .5.224.5.5zm-3.52 13.509.185.029c1.065.338 1.662 1.261 2.251 1.794.177.178.189.387.154.168.717-.461 1.263-1.555 2.449-1.96.534-.08 1.089.062 1.468.305.375.239.702.584.953.872.36.379.512.714.811.792.095-.043.117-.166.366-.412.545-.57 1.257-1.458 2.368-1.597.135-.004.266.047.363.141s.152.224.152.359v.542c0 .236-.002.39-.016.481-.013.091-.096.279-.191.36-.131.11-.13.078-.195.097-.327.074-.508.428-.852.799-.249.281-.57.624-.938.865-.372.243-.94.388-1.472.317-1.066-.337-1.663-1.259-2.252-1.793-.177-.178-.189-.386-.155-.167-.718.46-1.262 1.554-2.448 1.959-.534.08-1.09-.063-1.468-.305-.375-.24-.701-.584-.952-.871-.362-.379-.512-.714-.809-.793-.104.043-.131.178-.388.432-.537.568-1.25 1.44-2.349 1.577-.135.004-.266-.047-.363-.141s-.152-.224-.152-.359v-1c0-.25.184-.461.432-.495.219.063.324-.261.621-.558.508-.557 1.268-1.355 2.328-1.446z"/></svg>