<svg viewBox="0 0 22 22" xmlns="http://www.w3.org/2000/svg"><path d="m19.5 3v2c0 .276-.224.5-.5.5h-2.561l-.852 10.227c-.012.333.016.519.072.673.043.118.009.082.052.1.127.051.254-.016.634-.288.809-.579 1.736-1.73 2.208-2.686.117-.234.396-.338.638-.238.243.1.366.371.283.62l-1 3c-.289.825-.811 1.518-1.383 1.934-.58.422-1.328.658-1.966.658-.646 0-1.366-.255-1.831-.702-.458-.44-.771-1.238-.792-2.089l.933-11.209h-2.981l-.938 11.225c-.146 1.277-.926 2.246-1.833 2.586-.906.341-2.118.149-2.987-.477-.124-.095-.196-.242-.196-.397.091-1.064.829-1.796 1.531-3.465.731-1.74 1.416-4.391 1.457-9.474-2.41.042-3.089.793-4.041 2.726-.103.207-.336.316-.562.263-.226-.054-.385-.255-.385-.487.073-2.677 1.456-4.162 2.776-4.822 1.35-.675 2.724-.678 2.724-.678h11c.276 0 .5.224.5.5z"/></svg>