<svg viewBox="0 0 32 32" xmlns="http://www.w3.org/2000/svg"><path d="m17.5 1v3.5h3.5c.194 0 .371.112.453.288s.055.383-.069.532l-5 6c-.095.114-.236.18-.384.18s-.289-.066-.384-.18l-5-6c-.124-.149-.151-.356-.069-.532.083-.176.259-.288.453-.288h3.5v-3.5c0-.276.224-.5.5-.5h2c.276 0 .5.224.5.5zm11 12v1c0 .276-.224.5-.5.5h-24c-.276 0-.5-.224-.5-.5v-1c0-.276.224-.5.5-.5h24c.276 0 .5.224.5.5zm0 4v1c0 .276-.224.5-.5.5h-24c-.276 0-.5-.224-.5-.5v-1c0-.276.224-.5.5-.5h24c.276 0 .5.224.5.5zm-7.5 9.5h-3.5v4.5c0 .276-.224.5-.5.5h-2c-.276 0-.5-.224-.5-.5v-4.5h-3.5c-.194 0-.37-.112-.453-.288-.082-.176-.055-.383.069-.532l5-6c.095-.114.236-.18.384-.18s.289.066.384.18l5 6c.124.149.151.356.069.532s-.259.288-.453.288z"/></svg>