<svg height="48" viewBox="0 -960 960 960" width="48" xmlns="http://www.w3.org/2000/svg"><path d="m153-731 325 193 325-193zm-4 584c-26.533 0-48.833-9.033-66.9-27.1s-27.1-40.367-27.1-66.9v-490c0-26.807 9.033-49.343 27.1-67.61 18.067-18.26 40.367-27.39 66.9-27.39h659c26.807 0 49.343 9.13 67.61 27.39 18.26 18.267 27.39 40.803 27.39 67.61l.717 195.01c0 13.167-5.227 24.29-15.68 33.37-10.447 9.087-25.28 13.63-44.5 13.63-9.6 0-17.803-3.35-24.61-10.05s-10.21-14.683-10.21-23.95l-.717-129.01-306.76 183.79c-3.947 2.36-11.603 4.097-22.97 5.21-4.973 0-9.093-.333-12.36-1-3.273-.667-6.91-2-10.91-4l-306-184v411h367.009c13.167 0 24.293 4.56 33.38 13.68 9.08 9.113 13.62 20.28 13.62 33.5 0 13.213-4.54 24.32-13.62 33.32-9.087 9-20.213 13.5-33.38 13.5zm455.261-102.83c-27.502-27.58-41.252-60.55-41.252-99.02 0-38.37 13.787-71.35 41.36-98.9 27.574-27.47 60.577-41.24 99.012-41.24 38.434 0 71.403 13.77 98.904 41.36 27.502 27.56 41.252 60.66 41.252 99.02 0 38.47-13.786 71.45-41.359 98.91-27.574 27.56-60.578 41.22-99.013 41.22-38.423 0-71.391-13.77-98.904-41.35zm143.968-74.33c6.966 0 12.804-2.27 17.516-7.08 4.711-4.67 7.06-10.55 7.06-17.5 0-6.96-2.349-12.83-7.06-17.5-4.712-4.66-10.55-7.08-17.516-7.08h-94.109c-6.952 0-12.791 2.42-17.502 7.08-4.712 4.8-7.074 10.54-7.074 17.5 0 6.95 2.362 12.83 7.074 17.5 4.711 4.81 10.55 7.08 17.502 7.08z"/></svg>