<?xml version="1.0" encoding="utf-8"?>
<svg height="48" viewBox="0 -960 960 960" width="48" xmlns="http://www.w3.org/2000/svg">
  <path d="M 15 -243 C 15 -271.2 22.233 -296.567 36.7 -319.1 C 51.16 -341.633 71.26 -358.933 97 -371 C 147 -392.333 192.49 -408 233.47 -418 C 274.457 -428 316.64 -433 360.02 -433 C 404.673 -433 447.167 -428.167 487.5 -418.5 C 527.833 -408.833 573 -393 623 -371 C 648.56 -359.78 668.783 -342.88 683.67 -320.3 C 698.557 -297.72 706 -271.953 706 -243 L 706 -216 C 706 -190.167 696.87 -168.043 678.61 -149.63 C 660.343 -131.21 637.807 -122 611 -122 L 109 -122 C 83.167 -122 61.043 -131.21 42.63 -149.63 C 24.21 -168.043 15 -190.167 15 -216 Z M 109 -216 L 611 -216 L 611 -239 C 611 -249.233 607.833 -259.173 601.5 -268.82 C 595.167 -278.467 587.333 -285.193 578 -289 C 532.667 -308.333 494.667 -321.333 464 -328 C 433.333 -334.667 398.667 -338 360 -338 C 322.667 -338 288 -334.667 256 -328 C 224 -321.333 185.667 -308.333 141 -289 C 132.333 -285.293 124.833 -278.6 118.5 -268.92 C 112.167 -259.247 109 -249.273 109 -239 Z M 711.55 -539.5 C 681.257 -509.167 641.99 -494 593.75 -494 C 585.71 -494 577.577 -494.667 569.35 -496 C 561.117 -497.333 552.333 -499.667 543 -503 C 560.333 -521 573.167 -542.95 581.5 -568.85 C 582.694 -572.562 583.803 -576.341 584.826 -580.187 C 589.949 -579.27 595.318 -578.81 600.933 -578.81 C 623.865 -578.81 642.803 -586.13 657.749 -600.96 C 672.695 -615.58 680.169 -634.35 680.169 -657.3 C 680.169 -680.03 672.795 -698.82 658.046 -713.63 C 643.298 -728.47 624.516 -735.99 601.702 -735.99 C 595.472 -735.99 589.54 -735.444 583.906 -734.353 C 583.102 -737.104 582.25 -739.813 581.35 -742.48 C 572.91 -767.473 560.127 -790.023 543 -810.13 C 551 -812.71 559.413 -814.833 568.24 -816.5 C 577.067 -818.167 585.57 -819 593.75 -819 C 641.743 -819 680.95 -803.827 711.37 -773.48 C 741.79 -743.133 757 -704.31 757 -657.01 C 757 -609.003 741.85 -569.833 711.55 -539.5 Z M 360.25 -494 C 312.083 -494 273 -509 243 -539 C 213 -569 198 -608.167 198 -656.5 C 198 -704.833 213.013 -744 243.04 -774 C 273.073 -804 312.073 -819 360.04 -819 C 408.013 -819 447.167 -803.99 477.5 -773.97 C 507.833 -743.95 523 -704.96 523 -657 C 523 -608.333 507.917 -569 477.75 -539 C 447.583 -509 408.417 -494 360.25 -494 Z M 440 -656.38 C 440 -679.46 432.54 -698.5 417.62 -713.5 C 402.7 -728.5 383.7 -736 360.62 -736 C 337.54 -736 318.5 -728.593 303.5 -713.78 C 288.5 -698.967 281 -680.093 281 -657.16 C 281 -633.953 288.407 -614.79 303.22 -599.67 C 318.033 -584.557 336.907 -577 359.84 -577 C 383.047 -577 402.21 -584.46 417.33 -599.38 C 432.443 -614.3 440 -633.3 440 -656.38 Z M 851 -122 L 736 -122 C 744.667 -136.667 751.833 -151.667 757.5 -167 C 763.167 -182.333 766 -198.667 766 -216 L 862 -216 L 862 -239.01 C 862 -249.21 858.82 -259.21 852.5 -268.81 C 846.16 -278.4 838.32 -285.19 828.999 -289.01 C 801.056 -300.961 775.899 -310.488 753.529 -317.583 C 749.165 -330.178 743.655 -341.984 737 -353 C 717.667 -385 685 -412.333 639 -435 C 681.667 -429 723.833 -420.667 765.5 -410 C 807.167 -399.333 840.667 -387.667 866 -375 C 890 -362.333 909.167 -344.063 923.5 -320.19 C 937.833 -296.317 945 -268.92 945 -238 L 945 -216 C 945 -190.167 935.793 -168.043 917.38 -149.63 C 898.96 -131.21 876.833 -122 851 -122 Z"/>
</svg>