<svg height="48" viewBox="0 -960 960 960" width="48" xmlns="http://www.w3.org/2000/svg"><path d="m480.11-346.68c-.04 0-.079 0-.122 0-.04 0-.079 0-.119 0-37.103 0-68.66-12.95-94.635-38.64-17.821-17.81-29.535-38.03-35.119-61.1-2.568-10.32-3.864-21.63-3.864-32.96v-.42c0-20.525 4.003-39.382 12.008-56.524l-137.745-137.746c-18.109 6.19-36.604 7.22-55.585 3.17-4.461-.95-8.804-2.19-13.026-3.7-15.121-5.03-28.779-13.56-40.882-25.67-20.764-20.76-31.187-45.49-31.293-74.21-.085-28.72 10.31-53.54 31.056-74.29 20.895-20.89 45.715-31.29 74.43-31.2 28.871-.05 53.747 10.23 74.512 31 11.353 11.35 19.644 24 24.74 38.04 2.012 5.06 3.6 10.3 4.759 15.73 4.072 19.06 2.896 37.75-3.38 55.94l137.836 137.838c17.08-7.915 35.85-11.908 56.307-11.908 37.143 0 68.741 12.95 94.757 38.85 25.995 25.9 39.003 57.47 39.003 94.48v.4.22c0 15.37-2.329 29.93-6.92 43.28-1.466 4.346-3.162 8.593-5.088 12.739l137.519 137.521c18.194-6.28 36.887-7.46 55.937-3.38 13.972 2.98 26.709 8.79 38.264 17.38 6.445 4.17 12.546 9.15 18.318 14.92 20.768 20.77 31.047 45.64 30.985 74.5.101 28.73-10.307 53.53-31.202 74.43-20.747 20.744-45.553 31.152-74.285 31.058-28.703-.094-53.434-10.513-74.202-31.278-5.73-5.73-10.657-11.81-14.791-18.22-8.61-11.62-14.389-24.47-17.382-38.5-4.048-18.98-3.023-37.47 3.171-55.58l-137.847-137.848c-17.028 7.774-35.732 11.678-56.115 11.678zm-38.538-94.68c10.62 10.73 24.519 15.98 38.416 15.98 7.467 0 14.89-1.42 21.83-4.45 6.068-2.63 11.751-6.69 16.708-11.53 1.315-1.2 2.53-2.63 3.681-4.02 17.378-21.48 16.104-52.83-3.781-72.64-8.397-8.71-18.833-13.77-29.699-15.39-14.948-2.43-30.706 1.41-43.048 11.53-1.456 1.24-2.872 2.42-4.205 3.86-.709.62-1.357 1.4-2.005 2.01-19.118 21.46-18.43 54.21 2.103 74.65z" stroke-width=".003"/><g stroke-width=".05" transform="matrix(.70710701 .70710701 -.70710701 .70710701 -227.420071 -550.160883)"><path d="m549.593-791.42c-15.584 0-28.671-5.42-39.281-16.04-10.611-10.84-15.915-24.04-15.915-39.6 0-15.55 5.376-28.54 16.128-39.14 10.727-10.61 23.907-16.03 39.492-16.03 15.562 0 28.671 5.42 39.282 16.26 10.609 10.61 15.915 23.82 15.915 39.38 0 15.57-5.376 28.76-16.128 39.38-10.751 10.6-23.907 15.79-39.493 15.79z"/><path d="m892.867-451.85c0-15.1 5.519-28 16.579-38.9 11.03-10.8 24.21-16.3 39.49-16.3s28.41 5.7 39.43 16.8c10.98 10.8 16.494 24 16.494 39.4 0 .5-.01 1-.02 1.49.01.57.02 1.13.02 1.71 0 15.32-5.607 28.29-16.783 38.9-11.201 10.61-24.545 15.79-40.012 15.79-15.161 0-28.129-5.42-38.952-16.27-10.846-10.84-16.246-23.81-16.246-38.9 0-.61.009-1.22.027-1.82-.018-.63-.027-1.26-.027-1.9z"/><path d="m95.926-451.85c0-15.1 5.445-28 16.339-38.9 10.894-10.8 23.862-16.3 38.905-16.3s28.057 5.7 39.068 16.8c10.987 10.8 16.505 24 16.505 39.4 0 .53-.007 1.06-.02 1.59.013.54.02 1.07.02 1.61 0 15.32-5.542 28.29-16.576 38.9-11.058 10.61-24.213 15.79-39.493 15.79-15.279 0-28.223-5.42-38.833-16.27-10.61-10.84-15.915-23.81-15.915-38.9 0-.61.009-1.21.027-1.82-.018-.63-.027-1.26-.027-1.9z"/><path d="m494.397-650.35c0-15.09 5.376-28.29 16.128-39.39 10.727-11.1 23.907-16.5 39.492-16.5 15.562 0 28.671 5.7 39.282 16.8 10.609 11.3 15.915 24.5 15.915 39.99 0 .34-.003.69-.008 1.03.005.36.008.71.008 1.07 0 15.09-5.376 28.05-16.128 38.9-10.751 10.85-23.907 16.27-39.493 16.27-15.584 0-28.671-5.42-39.281-16.5-10.611-11.09-15.915-24.28-15.915-39.62 0-.34.003-.68.008-1.01-.005-.35-.008-.69-.008-1.04z"/><path d="m549.593 3.469c-15.584 0-28.671-5.42-39.281-16.5-10.611-11.08-15.915-24.28-15.915-39.62 0-15.08 5.376-28.29 16.128-39.37 10.727-11.069 23.907-16.519 39.492-16.519 15.562 0 28.671 5.68 39.282 16.759 10.609 11.32 15.915 24.53 15.915 40.08 0 15.1-5.376 28.05-16.128 38.9-10.751 10.85-23.907 16.27-39.493 16.27z"/><path d="m549.593-195.77c-15.584 0-28.671-5.42-39.281-16.04-10.611-10.84-15.915-24.03-15.915-39.6 0-15.54 5.376-28.54 16.128-39.14 10.727-10.61 23.907-16.03 39.492-16.03 15.562 0 28.671 5.42 39.282 16.26 10.609 10.62 15.915 23.83 15.915 39.38 0 15.58-5.376 28.76-16.128 39.38-10.751 10.61-23.907 15.79-39.493 15.79z"/></g></svg>