<svg viewBox="0 0 22 22" xmlns="http://www.w3.org/2000/svg"><path d="m4.5 2.405v1.146h7.893l-5.893 2.292h-2v1.146h8.645l-6.75 3.439h-1.895v1.146h8.645l-6.75 3.438h-1.895v1.146h7.893l-5.893 2.292h-2v1.146h13v-1.146h-7.893l5.893-2.292h2v-1.146h-8.645l6.75-3.438h1.895v-1.146h-8.645l6.75-3.439h1.895v-1.146h-7.893l5.893-2.292h2v-1.146z"/><path d="m18 2.405v1.146c0 .276-.224.5-.5.5h-1.906l-3.322 1.292h5.228c.276 0 .5.224.5.5v1.146c0 .276-.224.5-.5.5h-1.775l-4.787 2.439h6.562c.276 0 .5.224.5.5v1.146c0 .276-.224.5-.5.5h-1.775l-4.787 2.438h6.562c.276 0 .5.224.5.5v1.146c0 .276-.224.5-.5.5h-1.906l-3.322 1.292h5.228c.276 0 .5.224.5.5v1.146c0 .276-.224.5-.5.5h-13c-.276 0-.5-.224-.5-.5v-1.146c0-.276.224-.5.5-.5h1.906l3.322-1.292h-5.228c-.276 0-.5-.224-.5-.5v-1.146c0-.276.224-.5.5-.5h1.775l4.787-2.438h-6.562c-.276 0-.5-.224-.5-.5v-1.146c0-.276.224-.5.5-.5h1.775l4.787-2.439h-6.562c-.276 0-.5-.224-.5-.5v-1.146c0-.276.224-.5.5-.5h1.906l3.322-1.292h-5.228c-.276 0-.5-.224-.5-.5v-1.146c0-.276.224-.5.5-.5h13c.276 0 .5.224.5.5zm-13 .5v.146h7.393c.241 0 .447.171.491.408.045.236-.086.471-.31.558l-5.893 2.292c-.058.022-.119.034-.181.034h-1.5v.146h8.145c.231 0 .432.159.486.383.054.225-.053.458-.259.563l-6.75 3.439c-.07.035-.148.054-.227.054h-1.395v.146h8.145c.231 0 .432.159.486.383.054.225-.053.458-.259.563l-6.75 3.438c-.07.035-.148.054-.227.054h-1.395v.146h7.393c.241 0 .447.171.491.408.045.236-.086.471-.31.558l-5.893 2.292c-.058.022-.119.034-.181.034h-1.5v.146h12v-.146h-7.393c-.241 0-.447-.171-.491-.408-.045-.236.086-.471.31-.558l5.893-2.292c.058-.022.119-.034.181-.034h1.5v-.146h-8.145c-.231 0-.432-.158-.486-.383s.053-.458.259-.563l6.75-3.438c.07-.035.148-.054.227-.054h1.395v-.146h-8.145c-.231 0-.432-.158-.486-.383s.053-.458.259-.563l6.75-3.439c.07-.035.148-.054.227-.054h1.395v-.146h-7.393c-.241 0-.447-.171-.491-.408-.045-.236.086-.471.31-.558l5.893-2.292c.058-.022.119-.034.181-.034h1.5v-.146z"/></svg>