<svg clip-rule="evenodd" fill-rule="evenodd" stroke-linejoin="round" stroke-miterlimit="2" viewBox="0 0 250 250" xmlns="http://www.w3.org/2000/svg"><path d="m3.875 123.096.003-.712c.196-29.874 12.717-57.302 33.042-76.948 6.933-6.706 14.789-12.516 23.402-17.208 7.074-3.856 14.643-6.949 22.607-9.163 9.56-2.668 19.648-4.053 30.065-3.957.781.007 1.56.024 2.339.047 37.167 1.141 70.815 21.28 89.535 52.721 1.982 3.37 2.406 7.433 1.167 11.141-1.241 3.708-4.026 6.697-7.638 8.196-.201.194-.442.294-.683.393-5.884 2.444-12.669.145-15.858-5.372-1.085-1.865-2.24-3.678-3.46-5.437-.217-.258-.425-.528-.624-.81-.872-1.223-1.776-2.421-2.71-3.588-.123-.138-.244-.282-.362-.43-15.165-18.697-37.93-29.616-61.955-29.837l-.15-.002h-.211c-4.023-.019-8.081.26-12.144.857-5.208.761-10.228 2.005-15.021 3.677-17.435 6.108-32.173 18.016-41.875 33.421-2.232 3.548-4.193 7.274-5.859 11.142-4.124 9.591-6.452 20.14-6.553 31.226-.266 28.887 14.641 54.404 37.281 68.973 5.846 3.755 12.182 6.769 18.857 8.933 7.627 2.465 15.749 3.83 24.183 3.908 2.484.022 4.963-.069 7.43-.273 6.959-.578 13.797-2.05 20.349-4.369.121-.044.243-.086.365-.126 1.47-.529 2.926-1.1 4.364-1.712 6.179-2.683 13.389-.402 16.898 5.348l.092-.055c2.052 3.361 2.549 7.444 1.365 11.201-1.185 3.754-3.936 6.814-7.545 8.388-1.74.722-3.497 1.402-5.27 2.04-.337.155-.683.297-1.035.425-2.684.921-5.4 1.746-8.144 2.47-.441.167-.893.311-1.354.432-5.808 1.414-11.72 2.387-17.684 2.881-9.996.853-19.827.301-29.285-1.5-8.453-1.604-16.588-4.202-24.266-7.676-1.922-.869-3.814-1.794-5.675-2.77-8.123-4.264-15.66-9.537-22.431-15.666-8.803-7.962-16.327-17.388-22.158-27.968-7.134-12.93-11.718-27.535-13.018-43.193-.252-3.036-.376-6.054-.376-9.048zm80.102 1.896c-.044-.746-.06-1.498-.048-2.257.161-16.092 12.976-29.35 29.217-29.898 16.563-.558 30.461 12.307 31.229 28.811.1 1.769.046 3.571-.175 5.391-2.013 16.58-17.085 28.389-33.665 26.377-14.811-1.798-25.815-14.018-26.558-28.424zm20.123-1.426c.274 5.485 4.899 9.755 10.408 9.568 5.363-.181 9.607-4.52 9.736-9.817.004-.281-.005-.56-.024-.835-.416-4.635-4.019-8.51-8.826-9.093-5.527-.671-10.55 3.265-11.221 8.791-.057.466-.081.929-.073 1.386zm11.95-65.865c5.56.16 9.946 4.805 9.785 10.366-.16 5.563-4.804 9.947-10.366 9.787-25.042-.721-45.925 18.995-46.646 44.037-.161 5.561-4.804 9.945-10.366 9.787-5.561-.16-9.946-4.806-9.786-10.366 1.04-36.173 31.206-64.651 67.379-63.611z"/><path d="m174.809 172.24h-11.114c-2.034-.093-4.234-1-5.722-2.354-1.348-1.491-2.342-3.694-2.342-5.731s.93-4.31 2.354-5.72c1.418-1.406 3.681-2.231 5.71-2.322h11.114v-14.178h-11.114c-2.035-.094-4.235-1.001-5.722-2.355-1.348-1.491-2.342-3.696-2.342-5.73 0-2.031.915-4.304 2.322-5.749 1.417-1.455 3.698-2.316 5.742-2.413h11.114v-10.996c.093-2.032 1.001-4.235 2.356-5.723 1.489-1.346 3.694-2.341 5.729-2.341 2.037 0 4.242 1.002 5.722 2.353 1.335 1.487 2.23 3.684 2.321 5.711v10.996h14.178v-10.996c.093-2.032 1.002-4.236 2.356-5.724 1.49-1.346 3.694-2.34 5.729-2.34 2.033 0 4.239.984 5.748 2.321 1.386 1.489 2.316 3.702 2.413 5.743v10.996h10.997c2.046.1 4.267 1.045 5.755 2.447 1.332 1.519 2.308 3.727 2.308 5.757 0 2.037-1.002 4.241-2.353 5.72-1.487 1.337-3.684 2.232-5.71 2.323h-10.997v14.178h10.997c2.03.093 4.235 1.001 5.723 2.355 1.346 1.49 2.34 3.693 2.34 5.73s-1.002 4.241-2.353 5.72c-1.487 1.337-3.685 2.231-5.71 2.322h-10.997v11.114c-.099 2.047-1.042 4.266-2.447 5.754-1.519 1.334-3.726 2.311-5.756 2.311-2.037 0-4.24-1.001-5.721-2.354-1.336-1.486-2.231-3.683-2.322-5.711v-11.114h-14.178v11.114c-.093 2.033-1.001 4.236-2.355 5.722-1.49 1.348-3.694 2.343-5.73 2.343-2.037 0-4.241-1.001-5.721-2.355-1.336-1.485-2.231-3.682-2.322-5.71zm16.128-16.127h14.178v-14.178h-14.178z"/></svg>