<svg viewBox="0 0 22 22" xmlns="http://www.w3.org/2000/svg"><path d="m13.354 2.354-2 2c-.196.195-.512.195-.708 0l-2-2c-.143-.143-.185-.359-.108-.545.077-.187.26-.309.462-.309h4c.202 0 .385.122.462.309.077.186.035.402-.108.545zm3.146 3.646v10c0 .276-.224.5-.5.5h-10c-.276 0-.5-.224-.5-.5v-10c0-.276.224-.5.5-.5h10c.276 0 .5.224.5.5zm-12.146 5.354-2 2c-.143.143-.359.185-.545.108-.187-.077-.309-.26-.309-.462v-4c0-.202.122-.385.309-.462.186-.077.402-.035.545.108l2 2c.195.196.195.512 0 .708zm3.146 3.146h7v-5h-7zm12.146-1.146-2-2c-.195-.196-.195-.512 0-.708l2-2c.143-.143.359-.185.545-.108.187.077.309.26.309.462v4c0 .202-.122.385-.309.462-.186.077-.402.035-.545-.108zm-6.646 7.146h-4c-.202 0-.385-.122-.462-.309-.077-.186-.035-.402.108-.545l2-2c.196-.195.512-.195.708 0l2 2c.143.143.185.359.108.545-.077.187-.26.309-.462.309z"/></svg>