<?xml version="1.0" encoding="utf-8"?>
<svg xmlns="http://www.w3.org/2000/svg" height="48" viewBox="0 -960 960 960" width="48">
  <path fill="rgb(90, 90, 215)" d="M 322.394 -264.772 C 313.804 -258.149 302.5 -253.962 293.224 -253.962 C 283.711 -253.962 273.026 -258.966 266.618 -266.226 C 261.215 -274.102 258.968 -285.457 261.187 -294.47 C 263.351 -303.261 269.572 -312.676 277.761 -319.263 L 278.727 -320.071 L 409.149 -420.109 L 350.819 -420.04 C 341.913 -420.373 332.482 -423.894 327.42 -429.066 C 322.177 -434.423 319.689 -444.281 320.949 -452.495 C 323.103 -460.014 328.803 -468.022 335.316 -472.502 C 341.725 -476.91 351.195 -479.836 359.517 -480.12 L 359.737 -480.12 L 501.938 -480.205 L 466.614 -508.949 C 466.051 -509.408 465.555 -509.924 465.129 -510.485 C 460.34 -515.786 457.086 -523.343 457.626 -529.325 C 458.208 -535.78 463.239 -543.472 469.333 -548.192 C 475.467 -552.171 484.032 -554.81 491.128 -554.825 C 498.268 -554.84 507.28 -551.712 513.099 -547.681 L 513.234 -547.563 L 644.787 -446.6 C 644.998 -446.438 645.2 -446.269 645.393 -446.092 C 658.624 -435.623 670.488 -422.509 679.446 -408.324 C 689.163 -392.609 695.893 -374.165 698.588 -355.969 C 701.197 -336.862 699.534 -316.353 693.858 -297.973 C 687.764 -279.077 677.255 -260.819 663.957 -246.082 C 649.587 -230.394 631.397 -217.256 611.981 -208.502 C 590.876 -199.32 567.169 -194.281 544.099 -194.18 C 521.03 -194.177 497.285 -199.108 476.121 -208.294 C 456.709 -216.95 438.5 -229.969 424.11 -245.671 C 410.799 -260.407 400.27 -278.593 394.178 -297.492 C 392.018 -304.506 390.349 -313.258 389.635 -319.718 Z M 610.774 -294.11 C 618.815 -302.31 625.016 -312.01 628.97 -322.74 C 632.662 -332.95 634.098 -343.78 633.168 -354.6 C 632.258 -365.12 629.132 -375.33 623.994 -384.54 C 619.038 -393.54 612.18 -401.73 603.745 -408.61 C 587.177 -422.06 566.098 -429.24 544.028 -429.24 C 521.968 -429.24 500.899 -421.86 484.342 -408.41 C 476.098 -401.73 469.22 -393.54 464.072 -384.33 C 453.614 -365.42 451.803 -342.76 459.116 -322.43 C 463.071 -311.71 469.271 -302 477.322 -293.91 C 494.375 -276.61 518.226 -266.8 544.058 -266.9 C 569.881 -266.9 593.711 -276.82 610.764 -294.11 Z M 229 -55 C 202.967 -55 180.793 -64.157 162.48 -82.47 C 144.16 -100.79 135 -122.967 135 -149 L 135 -811 C 135 -837.307 144.16 -859.717 162.48 -878.23 C 180.793 -896.743 202.967 -906 229 -906 L 552 -906 C 565.04 -906 577.467 -903.333 589.28 -898 C 601.093 -892.667 611.333 -885.667 620 -877 L 797 -700 C 805.667 -691.333 812.667 -681.093 818 -669.28 C 823.333 -657.467 826 -645.04 826 -632 L 826 -149 C 826 -122.967 816.743 -100.79 798.23 -82.47 C 779.717 -64.157 757.307 -55 731 -55 Z M 542 -672 L 542 -811 L 229 -811 L 229 -149 L 731 -149 L 731 -625 L 589 -625 C 575.833 -625 564.71 -629.543 555.63 -638.63 C 546.543 -647.71 542 -658.833 542 -672 Z M 488.964 -353.18 C 489.773 -367.24 496.661 -379.68 507.059 -388.48 C 517.983 -397.48 531.759 -402.44 545.94 -402.34 C 560.879 -402.34 574.604 -397.08 584.8 -388.48 C 595.208 -379.68 602.076 -367.24 602.865 -353.18 C 603.664 -338.72 597.858 -325.37 587.662 -315.35 C 576.435 -304.63 561.466 -298.66 545.94 -298.87 C 530.404 -298.66 515.414 -304.63 504.176 -315.35 C 493.991 -325.37 488.185 -338.72 488.974 -353.18 Z" fill-rule="nonzero"/>
</svg>