<?xml version="1.0" encoding="utf-8"?>
<svg xmlns="http://www.w3.org/2000/svg" height="48" viewBox="0 -960 960 960" width="48">
  <path fill="rgb(90, 90, 215)" d="M 229 -55 C 202.967 -55 180.793 -64.157 162.48 -82.47 C 144.16 -100.79 135 -122.967 135 -149 L 135 -811 C 135 -837.307 144.16 -859.717 162.48 -878.23 C 180.793 -896.743 202.967 -906 229 -906 L 552 -906 C 565.04 -906 577.467 -903.333 589.28 -898 C 601.093 -892.667 611.333 -885.667 620 -877 L 797 -700 C 805.667 -691.333 812.667 -681.093 818 -669.28 C 823.333 -657.467 826 -645.04 826 -632 L 826 -149 C 826 -122.967 816.743 -100.79 798.23 -82.47 C 779.717 -64.157 757.307 -55 731 -55 Z M 542 -672 L 542 -811 L 229 -811 L 229 -149 L 731 -149 L 731 -625 L 589 -625 C 575.833 -625 564.71 -629.543 555.63 -638.63 C 546.543 -647.71 542 -658.833 542 -672 Z M 488.76 -361.981 L 491.019 -353.241 C 493.639 -352.257 494.328 -351.96 496.168 -351.097 L 503.923 -355.7 C 506.121 -356.851 509.204 -357.673 511.553 -357.553 C 513.904 -357.433 516.933 -356.263 519 -354.887 C 526.011 -349.587 532.498 -343.099 537.755 -336.107 C 539.144 -334.036 540.3 -331.061 540.429 -328.707 C 540.557 -326.351 539.721 -323.255 538.556 -321.044 L 533.99 -313.285 C 535.142 -310.743 535.427 -310.048 536.125 -308.164 L 544.856 -305.904 C 547.231 -305.157 549.995 -303.546 551.568 -301.795 C 553.142 -300.041 554.442 -297.108 554.92 -294.677 C 556.164 -286.023 556.164 -276.828 554.922 -268.189 C 553.773 -263.314 549.287 -258.499 544.79 -256.819 L 536.123 -254.653 C 535.149 -252.029 534.868 -251.34 534.013 -249.507 L 538.558 -241.782 C 539.726 -239.566 540.556 -236.452 540.429 -234.092 C 540.301 -231.723 539.172 -228.782 537.757 -226.726 C 532.488 -219.618 526.077 -213.203 519.049 -207.99 C 516.969 -206.541 513.956 -205.34 511.591 -205.201 C 509.224 -205.062 506.092 -205.906 503.894 -207.058 L 496.142 -211.647 C 493.627 -210.517 492.922 -210.241 491.024 -209.521 L 488.764 -200.863 C 488.033 -198.466 486.435 -195.672 484.679 -194.084 C 482.919 -192.494 479.958 -191.189 477.499 -190.719 C 468.833 -189.524 459.678 -189.525 451.023 -190.72 C 448.559 -191.19 445.604 -192.492 443.842 -194.082 C 442.084 -195.67 440.488 -198.449 439.758 -200.846 L 437.508 -209.529 C 434.946 -210.509 434.242 -210.784 432.371 -211.639 L 424.6 -207.043 C 422.404 -205.891 419.301 -205.062 416.934 -205.201 C 414.569 -205.34 411.636 -206.479 409.554 -207.926 C 402.537 -213.136 396.078 -219.554 390.808 -226.663 C 389.398 -228.721 388.226 -231.731 388.1 -234.095 C 387.974 -236.451 388.81 -239.579 389.964 -241.789 L 394.522 -249.522 C 393.365 -252.044 393.085 -252.735 392.387 -254.657 L 383.541 -256.87 C 379.042 -258.553 374.752 -263.317 373.605 -268.188 C 372.371 -276.826 372.373 -286.036 373.609 -294.687 C 374.086 -297.115 375.38 -300.036 376.952 -301.791 C 378.521 -303.543 381.311 -305.163 383.687 -305.91 L 392.412 -308.169 C 393.376 -310.721 393.661 -311.425 394.526 -313.301 L 389.944 -321.074 C 388.795 -323.278 387.974 -326.353 388.1 -328.703 C 388.226 -331.054 389.399 -334.06 390.782 -336.132 C 396.04 -343.126 402.568 -349.626 409.567 -354.923 C 411.636 -356.298 414.621 -357.434 416.971 -357.554 C 419.321 -357.673 422.434 -356.832 424.63 -355.68 L 432.366 -351.088 C 434.885 -352.25 435.578 -352.55 437.504 -353.258 L 439.762 -361.998 C 440.497 -364.349 442.104 -367.116 443.863 -368.686 C 445.619 -370.254 448.502 -371.538 450.97 -372.003 C 459.654 -373.301 468.798 -373.311 477.493 -372.012 C 479.956 -371.547 482.904 -370.252 484.658 -368.684 C 486.414 -367.114 488.025 -364.332 488.76 -361.981 Z M 487.603 -304.709 C 481.351 -310.963 473.731 -314.39 464.264 -314.39 C 454.797 -314.39 447.177 -310.963 440.926 -304.709 C 434.675 -298.455 431.251 -290.833 431.251 -281.37 C 431.251 -271.907 434.675 -264.285 440.926 -258.031 C 447.177 -251.777 454.797 -248.35 464.264 -248.35 C 473.731 -248.35 481.351 -251.777 487.603 -258.031 C 493.854 -264.285 497.278 -271.907 497.278 -281.37 C 497.278 -290.833 493.854 -298.455 487.603 -304.709 Z M 464.323 -390.93 C 461.805 -390.93 458.739 -391.579 456.403 -392.331 C 453.835 -393.414 451.046 -395.353 448.897 -397.489 L 448.721 -397.665 L 448.532 -397.906 L 373.045 -494.22 C 368.426 -500.349 367.305 -508.331 370.034 -515.356 C 371.658 -518.759 374.3 -522.078 377.21 -523.906 C 380.102 -525.723 384.234 -526.711 388.089 -526.79 L 409.999 -526.79 L 409.999 -581.66 C 410.18 -586.785 412.33 -592.115 415.752 -595.933 C 419.472 -599.534 424.833 -601.852 430.053 -602.06 L 498.593 -602.06 C 503.758 -601.858 509.141 -599.574 512.952 -596.004 C 516.52 -592.181 518.763 -586.818 518.958 -581.66 L 518.958 -526.79 L 540.867 -526.79 C 544.722 -526.711 548.854 -525.723 551.747 -523.906 C 554.656 -522.078 557.298 -518.759 558.922 -515.356 C 561.658 -508.38 560.685 -500.446 556.315 -494.319 L 479.908 -397.658 L 479.739 -397.49 C 477.59 -395.353 474.561 -393.327 471.992 -392.244 C 469.655 -391.492 466.831 -390.93 464.323 -390.93 Z M 464.322 -443.816 L 494.787 -481.21 L 478.539 -481.21 L 478.539 -561.64 L 450.106 -561.64 L 450.106 -481.21 L 433.849 -481.21 Z"/>
</svg>