<?xml version="1.0" encoding="utf-8"?>
<svg xmlns="http://www.w3.org/2000/svg" height="48" viewBox="0 -960 960 960" width="48">
  <path fill="rgb(255, 205, 0)" d="M 229 -55 C 202.967 -55 180.793 -64.157 162.48 -82.47 C 144.16 -100.79 135 -122.967 135 -149 L 135 -811 C 135 -837.307 144.16 -859.717 162.48 -878.23 C 180.793 -896.743 202.967 -906 229 -906 L 552 -906 C 565.04 -906 577.467 -903.333 589.28 -898 C 601.093 -892.667 611.333 -885.667 620 -877 L 797 -700 C 805.667 -691.333 812.667 -681.093 818 -669.28 C 823.333 -657.467 826 -645.04 826 -632 L 826 -149 C 826 -122.967 816.743 -100.79 798.23 -82.47 C 779.717 -64.157 757.307 -55 731 -55 Z M 542 -672 L 542 -811 L 229 -811 L 229 -149 L 731 -149 L 731 -625 L 589 -625 C 575.833 -625 564.71 -629.543 555.63 -638.63 C 546.543 -647.71 542 -658.833 542 -672 Z M 503.96 -437.54 C 493.987 -437.54 487.138 -434.449 480.487 -427.805 C 473.837 -421.162 470.241 -414.33 470.746 -404.371 C 470.247 -390.088 475.591 -379.345 485.061 -369.876 C 494.53 -360.406 505.269 -355.57 519.538 -355.57 C 539.171 -355.57 554.774 -362.586 567.765 -375.58 C 580.757 -388.574 587.779 -404.187 587.779 -423.85 C 587.779 -449.414 579.062 -471.559 560.668 -489.251 C 542.873 -507.674 520.801 -516.39 495.211 -516.39 C 460.482 -516.39 431.19 -503.238 408.285 -480.342 C 385.379 -457.446 372.22 -428.166 372.22 -393.44 C 372.22 -352.394 390.096 -311.282 419.277 -276.577 C 448.458 -241.873 485.09 -216.83 525.781 -210.385 C 529.688 -209.489 535.208 -206.878 537.511 -204.143 C 539.808 -201.415 541.451 -195.586 541.693 -191.629 C 541.028 -187.72 538.771 -182.106 536.197 -179.638 C 533.614 -177.162 528.079 -175.236 524.112 -174.711 C 523.941 -174.642 527.124 -176.174 523.061 -174.512 C 469.27 -177.386 416.732 -200.58 378.265 -238.431 C 337.803 -279.534 314.083 -335.729 314.083 -393.44 C 314.083 -442.524 335.029 -489.247 367.19 -521.4 C 399.351 -553.553 446.089 -574.5 495.211 -574.5 C 534.59 -574.5 573.921 -558.273 601.777 -530.423 C 629.631 -502.574 645.916 -463.176 645.916 -423.85 C 645.916 -389.796 631.108 -356.743 608.857 -334.502 C 586.606 -312.26 553.553 -297.47 519.53 -297.47 C 490.87 -297.47 462.683 -310.103 443.959 -328.829 C 425.234 -347.554 412.609 -375.736 412.609 -404.37 C 412.609 -428.733 423.484 -453.031 439.389 -468.942 C 455.293 -484.854 479.588 -495.74 503.96 -495.74 C 524.773 -495.74 542.794 -488.128 553.149 -476.735 C 563.542 -465.299 568.705 -447.488 568.954 -429.969 C 568.693 -423.197 566.681 -415.896 563.983 -411.429 C 561.107 -406.665 555.89 -402.039 551.817 -400.083 C 547.272 -397.901 538.977 -397.377 534.332 -399.735 C 531.811 -401.016 528.328 -404.411 526.912 -407.158 C 525.678 -409.551 524.866 -413.719 524.72 -416.786 C 525.228 -423.344 523.03 -427.071 518.636 -431.46 C 514.242 -435.848 510.505 -437.54 503.96 -437.54 Z"/>
</svg>