<?xml version="1.0" encoding="utf-8"?>
<svg xmlns="http://www.w3.org/2000/svg" height="48" viewBox="0 -960 960 960" width="48">
  <path fill="rgb(255, 205, 0)" d="M 229 -55 C 202.967 -55 180.793 -64.157 162.48 -82.47 C 144.16 -100.79 135 -122.967 135 -149 L 135 -811 C 135 -837.307 144.16 -859.717 162.48 -878.23 C 180.793 -896.743 202.967 -906 229 -906 L 552 -906 C 565.04 -906 577.467 -903.333 589.28 -898 C 601.093 -892.667 611.333 -885.667 620 -877 L 797 -700 C 805.667 -691.333 812.667 -681.093 818 -669.28 C 823.333 -657.467 826 -645.04 826 -632 L 826 -149 C 826 -122.967 816.743 -100.79 798.23 -82.47 C 779.717 -64.157 757.307 -55 731 -55 Z M 542 -672 L 542 -811 L 229 -811 L 229 -149 L 731 -149 L 731 -625 L 589 -625 C 575.833 -625 564.71 -629.543 555.63 -638.63 C 546.543 -647.71 542 -658.833 542 -672 Z M 336.636 -185.3 C 323.075 -185.447 310.755 -190.464 301.083 -199.952 C 291.648 -209.565 286.556 -221.887 286.405 -235.54 L 286.405 -521.77 C 286.554 -535.407 291.652 -547.849 301.078 -557.654 C 310.723 -567.123 323.048 -572.332 336.636 -572.49 L 622.872 -572.49 C 636.579 -572.335 649.033 -567.116 658.768 -557.65 C 668.307 -547.844 673.442 -535.414 673.594 -521.77 L 673.594 -235.54 C 673.44 -221.88 668.291 -209.551 658.745 -199.936 C 648.982 -190.453 636.552 -185.444 622.872 -185.3 Z M 340.636 -239.54 L 618.872 -239.54 L 618.872 -517.77 L 340.636 -517.77 Z M 362.04 -278.861 C 359.894 -284.086 360.616 -290.321 363.915 -295.451 L 404.786 -350.608 C 407.799 -354.15 412.377 -356.394 417.019 -356.785 C 421.861 -356.784 426.972 -354.274 430.372 -350.503 L 463.152 -305.152 L 515.341 -372.11 C 518.355 -375.975 523.176 -378.397 528.075 -378.415 C 532.713 -378.034 537.427 -375.657 540.526 -372.16 L 596.764 -295.177 C 599.673 -290.065 600.113 -284.011 597.958 -278.859 C 595.211 -273.873 589.963 -270.674 584.019 -270.39 L 375.981 -270.39 C 370.036 -270.674 364.787 -273.875 362.04 -278.861 Z"/>
</svg>