<svg clip-rule="evenodd" fill-rule="evenodd" stroke-linejoin="round" stroke-miterlimit="2" viewBox="0 0 250 250" xmlns="http://www.w3.org/2000/svg"><path d="m2.923 2.217h10.154c1.094 0 1.976.881 1.976 1.975v7.616c0 1.094-.882 1.975-1.976 1.975h-10.154c-1.094 0-1.976-.881-1.976-1.975v-7.616c0-1.094.882-1.975 1.976-1.975zm-.543 1.827-.02 7.764c0 .312.251.562.563.562h10.154c.312 0 .563-.25.563-.562l-.02-7.764c-.065-.239-.282-.414-.543-.414h-10.154c-.261 0-.478.175-.543.414zm2.998 6.762h5.244c.261 0 .472.211.472.472 0 .262-.211.472-.472.472h-5.244c-.261 0-.472-.21-.472-.472 0-.261.211-.472.472-.472zm1.854-2.052c-.635 0-1.173-.221-1.613-.662-.441-.441-.662-.973-.662-1.597 0-.623.221-1.155.662-1.597.442-.441.975-.662 1.601-.662.627 0 1.159.221 1.598.663.438.441.657.973.657 1.597 0 .248-.034.478-.103.691-.059.181-.143.353-.252.517l1.777 1.762.002.002c.096.1.144.217.144.352s-.048.252-.145.348c-.099.103-.218.153-.355.153-.139 0-.255-.051-.35-.154l-1.766-1.759c-.142.098-.305.178-.487.238-.218.072-.454.108-.708.108zm-.005-.976c.357 0 .659-.124.904-.374.246-.249.368-.553.368-.909s-.123-.659-.369-.909c-.246-.249-.547-.373-.903-.373-.361 0-.667.124-.917.374-.251.25-.376.552-.376.908s.125.659.375.909c.25.249.556.374.918.374z" transform="matrix(17.3743 0 0 17.3743 -13.9941 -13.9941)"/></svg>