<svg clip-rule="evenodd" fill-rule="evenodd" stroke-linejoin="round" stroke-miterlimit="2" viewBox="0 0 250 250" xmlns="http://www.w3.org/2000/svg"><path d="m705.856-105.068c-5.241-2.107-10.527-4.619-15.856-7.541-7.905-4.335-14.742-9.173-20.542-14.467l-22.617 4.653c-9.24 2.447-18.305 1.937-27.197-1.517-9.078-3.524-16.188-9.495-21.305-17.945l-.072-.119-.268-.475-6.027-11.202c-5.034-8.487-6.97-17.802-5.699-27.97 1.303-10.412 5.847-19.098 13.617-26.062l20.679-19.295c-.577-3.951-.832-8.704-.64-14.273.166-4.81.506-8.884.961-12.229l-21.839-21.247c-6.774-5.888-11.089-13.699-12.601-23.61l-.131-.921-.008-.053c-1.29-9.804.573-18.988 5.607-27.533l5.868-11.866c.168-.339.35-.671.545-.995 5.108-8.455 11.966-14.204 20.396-17.446 7.945-3.054 16.463-3.84 25.567-2.184l.039.007.122.025 25.258 4.913c5.645-4.848 12.305-9.525 20-13.994 7.367-4.278 14.663-7.537 21.869-9.81l3.976-25.844c1.712-11.186 6.756-20.439 15.075-27.79 8.455-7.48 18.321-11.217 29.595-11.217h10.863c10.394 0 19.845 3.515 28.273 10.766 8.07 6.935 13.304 15.777 15.606 26.579l.027.132.079.423-.018.022.012.158.032-.036 4.274 26.927c6.625 2.277 13.624 5.461 20.978 9.597 7.973 4.487 14.788 9.186 20.473 14.054l24.43-4.868c8.339-1.668 16.961-.917 25.834 2.495 9.251 3.559 16.37 9.616 21.333 18.122l6.102 10.383.049.085.139.247-.005.009.038.081.008-.014c5.195 9.583 6.798 19.274 5.102 29.016-1.698 9.763-6.297 18.078-13.876 24.9l-20.231 19.554c.801 3.996 1.189 8.783.992 14.388-.181 5.12-.655 9.521-1.34 13.216l20.174 18.822c7.865 7.052 12.606 15.672 14.297 25.822 1.709 10.255-.007 19.659-5.005 28.228l-6.007 12.014c-.155.31-.322.614-.501.912-5.447 9.075-12.84 14.813-21.917 17.537-7.923 2.376-16.238 2.822-24.953 1.238l-24.258-4.851c-5.901 5.344-12.943 10.227-21.164 14.594-5.342 2.837-10.515 5.282-15.515 7.339v449.17c0 17.727-5.698 32.294-17.095 43.701-11.397 11.397-25.481 17.095-42.253 17.095-16.763 0-30.847-5.698-42.254-17.095-11.396-11.407-17.095-25.974-17.095-43.701zm59.479-94.403c11.406 0 21.073-4.044 28.995-12.153 7.986-8.176 11.973-18.005 11.973-29.484 0-11.113-4.082-20.716-12.152-28.845-8.062-8.126-17.752-12.206-29.081-12.206-11.333 0-21.053 4.135-29.185 12.345-8.148 8.226-12.27 17.928-12.27 29.146 0 11.189 4.113 20.828 12.254 28.955 8.174 8.155 17.993 12.242 29.466 12.242zm-403.99 382.781c-11.581 11.581-26.297 16.888-44.15 15.923s-32.087-8.202-42.702-21.713c-49.216-55.971-87.334-119.339-114.355-190.103-27.02-70.775-40.53-146.852-40.53-228.232 0-88.483 16.887-172.121 50.663-250.914 33.776-78.804 79.855-147.397 138.239-205.781 58.384-58.383 127.011-104.463 205.882-138.239 78.871-33.775 162.586-50.663 251.146-50.663 88.559 0 172.164 16.888 250.812 50.663 78.65 33.776 147.17 79.856 205.55 138.239 58.38 58.384 104.46 126.977 138.24 205.781 33.77 78.793 50.66 162.431 50.66 250.914 0 81.38-13.51 157.457-40.53 228.232-27.02 70.764-65.14 134.132-114.35 190.103-10.62 13.511-25.09 20.748-43.43 21.713s-33.4-4.448-45.19-16.241c-11.37-11.368-16.81-25.496-16.33-42.384.48-16.887 6.52-32.569 18.1-47.044 37.63-45.356 67.31-96.261 89.02-152.714 21.71-56.454 32.57-117.009 32.57-181.665 0-145.718-51.15-269.723-153.44-372.015-102.29-102.291-226.297-153.437-372.015-153.437s-269.723 51.146-372.015 153.437c-102.292 102.292-153.438 226.297-153.438 372.015 0 64.656 10.616 125.452 31.846 182.388 21.23 56.937 51.146 108.082 89.747 153.438 11.58 14.476 17.37 29.916 17.37 46.321 0 16.406-5.79 30.398-17.37 41.978zm176.916-176.916c-12.757 12.757-27.339 18.895-43.744 18.412-16.405-.482-29.915-6.996-40.531-19.541-27.02-33.776-48.009-71.373-62.967-112.792-14.958-41.418-22.437-85.848-22.437-133.288 0-111.141 38.302-205.269 114.905-282.384 76.603-77.124 170.451-115.686 281.544-115.686s205.24 38.562 282.439 115.686c77.2 77.115 115.81 171.243 115.81 282.384 0 47.035-7.72 91.122-23.17 132.261-15.44 41.138-36.67 79.078-63.69 113.819-10.61 13.51-23.88 20.265-39.8 20.265-15.93 0-29.78-5.896-41.577-17.689-12.333-12.333-18.499-26.702-18.499-43.107s4.342-31.363 13.028-44.873c16.538-22.196 29.358-46.804 38.458-73.824 9.1-27.021 13.65-55.971 13.65-86.852 0-77.385-26.71-142.808-80.147-196.27-53.423-53.472-118.803-80.208-196.14-80.208-77.327 0-142.77 26.736-196.328 80.208-53.559 53.462-80.338 118.885-80.338 196.27 0 30.881 4.55 59.754 13.65 86.62 9.1 26.876 21.921 51.561 38.461 74.056 8.685 13.51 13.269 28.468 13.752 44.873.482 16.405-4.961 30.292-16.329 41.66z" transform="matrix(.179599 0 0 .179599 -12.4298 166.609)"/></svg>