<svg clip-rule="evenodd" fill-rule="evenodd" stroke-linejoin="round" stroke-miterlimit="2" viewBox="0 0 250 250" xmlns="http://www.w3.org/2000/svg"><path d="m577.674-141.994c0 25.954-21.04 46.994-46.994 46.994h-341.68c-26.033 0-48.21-9.157-66.53-27.47-18.313-18.32-27.47-40.497-27.47-66.53v-582c0-26.307 9.157-48.717 27.47-67.23 18.32-18.513 40.497-27.77 66.53-27.77h582c26.307 0 48.717 9.257 67.23 27.77s27.77 40.923 27.77 67.23v343.497c0 12.598-5.004 24.68-13.912 33.588-8.908 8.907-20.99 13.912-33.588 13.912-26.233 0-47.5-21.266-47.5-47.5v-314.022c0-16.279-13.197-29.475-29.475-29.475h-28.82c-16.278 0-29.475 13.196-29.475 29.475v284.985c0 17.334-7.333 30.667-22 40-14.666 9.334-30 10-46 2l-103.097-38.119c-20.736-7.667-43.53-7.667-64.266 0l-103.097 38.119c-16 8-31.334 7.334-46-2-14.667-9.333-22-22.666-22-40v-284.985c0-16.279-13.197-29.475-29.475-29.475h-28.82c-16.278 0-29.475 13.196-29.475 29.475v508.451c0 11.689 4.644 22.899 12.909 31.165 8.266 8.265 19.476 12.909 31.165 12.909h297.606c12.463 0 24.416 4.951 33.229 13.764 8.814 8.813 13.765 20.767 13.765 33.23zm-213.904-404.737c0 6.146 2.913 11.928 7.853 15.586 4.939 3.657 11.32 4.757 17.198 2.963l60.179-18.358c9.933-4.666 20.25-7 30.95-7s21.05 2.334 31.05 7l60.179 18.358c5.878 1.794 12.259.694 17.198-2.963 4.94-3.658 7.853-9.44 7.853-15.586v-194.522c0-7.889-3.134-15.456-8.712-21.034-5.579-5.579-13.145-8.713-21.035-8.713h-172.966c-7.89 0-15.456 3.134-21.035 8.713-5.578 5.578-8.712 13.145-8.712 21.034zm84.679-82.439h-12.728c-5.957 0-10.321-2.607-13.121-7.766-2.837-5.23-2.562-10.362.976-15.383l62.324-89.84.055-.077c2.065-2.892 4.69-4.745 7.788-5.674 3.119-.936 6.239-.824 9.291.359 3.122 1.074 5.668 3.091 7.552 6.161 1.881 3.066 2.544 6.252 2.128 9.512l-5.818 46.257h18.511c6.356 0 10.794 2.872 13.374 8.525 2.535 5.556 1.916 10.697-1.788 15.43l-.125.154-67.959 81.882c-2.172 2.662-4.866 4.326-8.035 5.062-3.218.747-6.413.409-9.468-1.062-2.914-1.316-5.154-3.37-6.721-6.163-1.529-2.726-2.155-5.785-1.747-9.2l.022-.169zm-142.095 383.462c-15.333 0-28.167-5.167-38.5-15.5s-15.5-23-15.5-38 5.167-27.667 15.5-38 23.167-15.5 38.5-15.5c14.587 0 27.067 5.187 37.44 15.56s15.56 22.853 15.56 37.44c0 15.333-5.187 28.167-15.56 38.5s-22.853 15.5-37.44 15.5zm378.161 36.021v-139.862c0-7.67 2.636-14.215 7.876-19.647 5.262-5.458 11.955-8.269 20.145-8.269 8.218 0 14.886 2.832 20.081 8.313 5.138 5.42 7.73 11.948 7.73 19.603v140.009l36.553-36.994.029-.029c5.699-5.699 12.221-8.442 19.474-8.442s13.775 2.743 19.474 8.442 8.442 12.221 8.442 19.474-2.743 13.775-8.424 19.455l-78.724 79.307-.081.08c-6.934 6.761-15.192 10.13-24.764 10.13-9.618 0-17.823-3.398-24.617-10.191l-.018-.019-78.706-79.289c-5.699-5.698-8.442-12.22-8.442-19.473s2.743-13.775 8.442-19.474l.112-.11c5.91-5.647 12.454-8.332 19.513-8.332 6.984 0 13.589 2.643 19.688 8.234.095.086.187.176.276.267z" transform="matrix(.300931 0 0 .300931 -19.5973 269.597)"/></svg>