<svg clip-rule="evenodd" fill-rule="evenodd" stroke-linejoin="round" stroke-miterlimit="2" viewBox="0 0 250 250" xmlns="http://www.w3.org/2000/svg"><path d="m-313.17 273.711c-62.288 0-115.351-21.917-159.184-65.75-43.817-43.817-65.727-96.872-65.727-159.161v-1076.7c0-62.95 21.91-116.56 65.727-160.86 43.833-44.3 96.896-66.44 159.184-66.44h1583.95c62.94 0 116.56 22.14 160.86 66.44 44.29 44.3 66.44 97.91 66.44 160.86v1076.7c0 62.289-22.15 115.344-66.44 159.161-44.3 43.833-97.92 65.75-160.86 65.75h-296.62c-14.042 0-26.702 8.458-32.076 21.431-5.374 12.976-2.402 27.908 7.525 37.836l50.801 50.796c11.16 11.628 19.14 24.142 23.92 37.541 4.79 13.399 7.18 27.205 7.18 41.417v31.105c0 27.116-9.17 49.846-27.51 68.191-18.35 18.344-41.08 27.515-68.196 27.515h-914c-27.116 0-49.847-9.171-68.191-27.515-18.345-18.345-27.516-41.075-27.516-68.191v-33.498c0-13.669 2.393-26.941 7.178-39.814 4.785-12.872 12.76-25.123 23.927-36.751l49.956-51.067c9.772-9.987 12.602-24.86 7.185-37.739-5.419-12.88-18.031-21.257-32.002-21.257zm0-290.372c0 36.153 29.308 65.461 65.461 65.461h1453.029c36.15 0 65.46-29.308 65.46-65.461v-945.779c0-36.153-29.31-65.46-65.46-65.46h-1453.029c-36.153 0-65.461 29.307-65.461 65.46zm391.6-134.339v-111c0-30.94 11.008-57.45 33.069-79.511 22.054-22.054 48.56-33.059 79.501-33.059h13.43v-52.43c0-30.94 11.008-57.45 33.069-79.511 22.054-22.054 48.56-33.059 79.501-33.059h103.43v-45.86h-13.43c-30.94 0-57.447-11.008-79.501-33.069-22.014-22.008-33.069-48.829-33.069-80.501v-110c0-30.94 11.008-57.45 33.069-79.511 22.054-22.054 48.56-33.059 79.501-33.059h146c30.939 0 57.45 11.007 79.511 33.059 22.052 22.061 33.059 48.572 33.059 79.511v110c0 31.673-11.052 58.493-33.059 80.501-22.061 22.061-48.571 33.069-79.511 33.069h-13.43v45.86h103.43c30.939 0 57.45 11.007 79.511 33.059 22.052 22.061 33.059 48.572 33.059 79.511v52.43h13.43c30.939 0 57.45 11.007 79.511 33.059 22.052 22.061 33.059 48.572 33.059 79.511v111c0 30.941-11.005 57.447-33.059 79.501-22.061 22.061-48.571 33.069-79.511 33.069h-140c-31.672 0-58.493-11.055-80.501-33.069-22.061-22.054-33.069-48.561-33.069-79.501v-115c0-29.565 10.646-55.087 32.069-76.511 21.416-21.416 46.935-32.059 76.501-32.059h11.43v-45.86h-310.86v45.86h11.43c29.564 0 55.088 10.644 76.511 32.059 21.415 21.423 32.059 46.947 32.059 76.511v115c0 30.941-11.005 57.447-33.059 79.501-22.061 22.061-48.571 33.069-79.511 33.069h-141c-30.94 0-57.447-11.008-79.501-33.069-22.061-22.054-33.069-48.561-33.069-79.501zm557.14-33.399c0 6.85 2.721 13.42 7.565 18.264s11.414 7.565 18.265 7.565h74.2c6.851 0 13.421-2.721 18.265-7.565s7.565-11.414 7.565-18.265v-44.2c0-6.851-2.721-13.421-7.565-18.265s-11.414-7.565-18.265-7.565h-74.2c-6.851 0-13.421 2.721-18.265 7.565s-7.565 11.414-7.565 18.265zm-221-547c0 14.265 11.564 25.829 25.83 25.829h79.201c14.265 0 25.829-11.564 25.829-25.83v-44.2c0-14.266-11.564-25.83-25.829-25.83h-79.202c-14.265 0-25.829 11.564-25.829 25.83zm-216 547c0 6.85 2.721 13.42 7.565 18.264s11.414 7.565 18.265 7.565h74.2c6.851 0 13.421-2.721 18.265-7.565s7.565-11.414 7.565-18.265v-44.2c0-6.851-2.721-13.421-7.565-18.265s-11.414-7.565-18.265-7.565h-74.2c-6.851 0-13.421 2.721-18.265 7.565s-7.565 11.414-7.565 18.265z" transform="matrix(.112189 0 0 .112189 71.1494 162.34)"/></svg>