<svg clip-rule="evenodd" fill-rule="evenodd" stroke-linejoin="round" stroke-miterlimit="2" viewBox="0 0 250 250" xmlns="http://www.w3.org/2000/svg"><path d="m771-121.522h-361c-13.167 0-24.29-4.56-33.37-13.68-9.087-9.113-13.63-20.28-13.63-33.5 0-13.213 4.543-24.32 13.63-33.32 9.08-9 20.203-13.5 33.37-13.5h361v-555.478h-582v188c0 13.167-4.56 24.29-13.68 33.37-9.113 9.087-20.28 13.63-33.5 13.63-13.213 0-24.32-4.543-33.32-13.63-9-9.08-13.5-20.203-13.5-33.37v-188c0-26.307 9.157-48.717 27.47-67.23 18.32-18.513 40.497-27.77 66.53-27.77h582c26.307 0 48.717 9.257 67.23 27.77s27.77 40.923 27.77 67.23v555.478c0 26.034-9.257 48.21-27.77 66.53-18.513 18.314-40.923 27.47-67.23 27.47zm-523.017 7.417c-44.35 0-82.151-15.296-113.416-45.858-31.327-30.622-46.984-67.73-46.984-111.321 0-26.946 6.492-52.009 19.463-75.193 9.127-16.313 20.628-30.377 34.506-42.192h-10.319c-10.886 0-20.227-3.908-28.006-11.753-7.748-7.821-11.618-17.212-11.618-28.169 0-11.019 3.909-20.334 11.701-27.954 7.758-7.58 17.066-11.372 27.923-11.372h128.828c12.712 0 23.453 4.571 32.226 13.704 8.69 9.048 13.034 19.836 13.034 32.361v128.828c0 11.165-3.99 20.44-11.902 27.852-7.783 7.297-17.117 10.967-28.02 10.967-11.054 0-20.209-3.766-27.521-11.164-7.284-7.364-11-16.563-11-27.655v-54.582c-15.943 3.984-29.477 12.195-40.593 24.649-12.979 14.541-19.454 31.71-19.454 51.496 0 21.767 7.868 40.345 23.581 55.743 15.773 15.463 34.97 23.17 57.571 23.17 10.894 0 20.234 3.908 28.007 11.755 7.748 7.82 11.617 17.211 11.617 28.167 0 11.107-3.965 20.318-11.819 27.664-7.722 7.223-16.984 10.857-27.805 10.857zm131.271-160.489v-223.112h-45.72c-13.129 0-22.715-5.97-28.671-18.044-5.981-12.124-4.607-23.59 4.373-34.367l.145-.169 137.275-164.315c6.276-8.013 14.399-11.966 24.316-11.966 9.782 0 18.055 3.873 24.719 11.823l136.94 164.47.134.157c8.98 10.777 10.355 22.243 4.374 34.367-5.957 12.074-15.542 18.044-28.672 18.044h-45.719v223.112c0 8.873-3.095 16.355-9.215 22.474-6.123 6.123-13.606 9.219-22.479 9.219h-120.107c-8.873 0-16.355-3.096-22.474-9.219-6.123-6.119-9.219-13.601-9.219-22.474zm63.855-59.685c0 7.299 2.9 14.3 8.062 19.461 5.161 5.162 12.161 8.061 19.461 8.061h1.207c15.2 0 27.522-12.322 27.522-27.522v-214.081c0-5.325 4.317-9.642 9.642-9.642h16.045c2.567 0 4.894-1.507 5.944-3.849 1.051-2.343.628-5.083-1.08-7 0 0-28.791-37.537-46.118-60.129-3.052-3.978-7.78-6.31-12.793-6.31-5.014 0-9.742 2.332-12.793 6.31-17.328 22.592-46.119 60.129-46.119 60.129-1.708 1.917-2.13 4.657-1.08 7 1.05 2.342 3.378 3.849 5.944 3.849h16.514c5.325 0 9.642 4.317 9.642 9.642z" transform="matrix(.280879 0 0 .280879 -3.78313 254.345)"/></svg>