<svg clip-rule="evenodd" fill-rule="evenodd" stroke-linejoin="round" stroke-miterlimit="2" viewBox="0 0 250 250" xmlns="http://www.w3.org/2000/svg"><path d="m256-122.639c208.977 0 378.639 169.662 378.639 378.639s-169.662 378.639-378.639 378.639-378.639-169.662-378.639-378.639 169.662-378.639 378.639-378.639zm0 73.936c-168.17 0-304.703 136.533-304.703 304.703s136.533 304.703 304.703 304.703 304.703-136.533 304.703-304.703-136.533-304.703-304.703-304.703zm85.684 539.127c-23.355 0-43.37-8.337-60.026-25.051-16.65-16.708-24.945-36.689-24.945-59.92 0-2.935.287-6.639.915-11.106.102-.727.212-1.448.332-2.163l-121.637-70.88c-5.633 4.781-11.938 8.831-18.924 12.138-10.683 5.059-21.693 7.56-33.017 7.56-23.683 0-43.808-8.349-60.386-25.018-16.577-16.668-24.852-36.677-24.852-60.015 0-23.344 8.278-43.344 24.859-59.991 16.577-16.643 36.698-24.98 60.379-24.98 11.215 0 21.903 2.199 32.066 6.583 6.948 2.996 13.473 6.921 19.563 11.791l121.794-70.053-.17-1.116c-.623-4.312-.922-8.256-.922-11.828 0-23.193 8.31-43.142 24.995-59.819 16.674-16.666 36.693-24.98 60.039-24.98 23.353 0 43.363 8.321 60.017 25 16.648 16.673 24.954 36.689 24.954 60.034 0 23.343-8.278 43.344-24.859 59.991-16.576 16.643-36.698 24.98-60.378 24.98-10.915 0-21.335-1.613-31.263-4.81-7.451-2.401-14.104-6.024-19.954-10.875l-121.972 66.239c.112.923.208 1.869.288 2.836.387 4.654.569 8.373.569 11.154 0 2.964-.197 6.254-.609 9.869-.053.471-.114.947-.18 1.426l122.565 68.4c5.364-4.025 11.334-7.305 17.917-9.826 9.568-3.665 20.439-5.575 32.639-5.575 23.682 0 43.807 8.349 60.385 25.019 16.578 16.668 24.852 36.677 24.852 60.015 0 23.352-8.321 43.363-24.999 60.017-16.673 16.648-36.69 24.954-60.035 24.954zm.053-355.633c7.997 0 14.694-2.706 20.093-8.119 5.399-5.409 8.098-12.114 8.098-20.114 0-7.997-2.706-14.695-8.119-20.094-5.409-5.399-12.114-8.098-20.114-8.098-7.997 0-14.695 2.706-20.094 8.119-5.398 5.409-8.098 12.114-8.098 20.114 0 7.997 2.707 14.695 8.119 20.094 5.409 5.399 12.114 8.098 20.115 8.098zm-257.57 149.421c7.997 0 14.695-2.706 20.094-8.118 5.399-5.41 8.098-12.114 8.098-20.115 0-7.997-2.706-14.695-8.119-20.093-5.409-5.399-12.114-8.098-20.114-8.098-7.997 0-14.695 2.706-20.094 8.118-5.399 5.41-8.098 12.114-8.098 20.115 0 7.997 2.706 14.695 8.119 20.093 5.409 5.399 12.114 8.098 20.114 8.098zm257.57 149.422c7.997 0 14.694-2.706 20.093-8.119 5.399-5.409 8.098-12.114 8.098-20.114 0-7.997-2.706-14.695-8.119-20.094-5.409-5.399-12.114-8.098-20.114-8.098-7.997 0-14.695 2.706-20.094 8.119-5.398 5.409-8.098 12.114-8.098 20.114 0 7.997 2.707 14.695 8.119 20.094 5.409 5.399 12.114 8.098 20.115 8.098z" transform="matrix(.310333 0 0 .310333 45.5548 45.5548)"/></svg>