<svg clip-rule="evenodd" fill-rule="evenodd" stroke-linejoin="round" stroke-miterlimit="2" viewBox="0 0 250 250" xmlns="http://www.w3.org/2000/svg"><path d="m2.923 2.217h10.154c1.094 0 1.976.881 1.976 1.975v7.616c0 1.094-.882 1.975-1.976 1.975h-10.154c-1.094 0-1.976-.881-1.976-1.975v-7.616c0-1.094.882-1.975 1.976-1.975zm-.543 1.827-.02 7.764c0 .312.251.562.563.562h10.154c.312 0 .563-.25.563-.562l-.02-7.764c-.065-.239-.282-.414-.543-.414h-10.154c-.261 0-.478.175-.543.414zm6.836 6.25c-.142 0-.261-.05-.359-.148s-.147-.217-.147-.359v-1.818c0-.142.049-.262.147-.36.098-.097.217-.147.359-.147h1.975c.14 0 .261.049.362.146.102.098.153.218.153.361v1.818c0 .142-.051.263-.153.361-.101.097-.222.146-.362.146zm.507-1.172c0 .092.075.167.167.167h.635c.093 0 .167-.075.167-.167v-.48c0-.092-.074-.167-.167-.167h-.635c-.092 0-.167.075-.167.167zm-4.922-2.084c-.142 0-.262-.049-.359-.147-.098-.098-.148-.217-.148-.359v-1.818c0-.141.049-.262.146-.362.098-.102.219-.153.361-.153h1.983c.142 0 .262.051.361.153.097.1.145.221.145.362v1.818c0 .142-.049.261-.147.359s-.217.147-.359.147zm.498-1.18c0 .092.075.167.167.167h.644c.092 0 .167-.075.167-.167v-.479c0-.092-.075-.167-.167-.167h-.644c-.092 0-.167.075-.167.167zm.079 4.948h5.244c.261 0 .472.211.472.472 0 .262-.211.472-.472.472h-5.244c-.261 0-.472-.21-.472-.472 0-.261.211-.472.472-.472zm2.843-3.768c-.142 0-.262-.049-.36-.147-.097-.098-.147-.217-.147-.359v-1.818c0-.141.049-.262.146-.362.098-.102.218-.153.361-.153h2.97c.141 0 .262.05.363.151s.152.222.152.364v1.818c0 .142-.051.262-.153.361-.101.097-.222.145-.362.145zm.506-1.18c0 .092.075.167.167.167h1.631c.093 0 .167-.075.167-.167v-.479c0-.092-.074-.167-.167-.167h-1.631c-.092 0-.167.075-.167.167zm-3.926 4.436c-.142 0-.262-.05-.359-.148-.098-.098-.148-.217-.148-.359v-1.818c0-.142.05-.262.148-.36.097-.097.217-.147.359-.147h2.978c.142 0 .262.05.36.147.097.098.147.218.147.36v1.818c0 .142-.05.261-.147.359-.098.098-.218.148-.36.148zm.498-1.172c0 .092.075.167.167.167h1.64c.092 0 .167-.075.167-.167v-.48c0-.044-.018-.086-.049-.118-.032-.031-.074-.049-.118-.049h-1.64c-.092 0-.167.075-.167.167z" transform="matrix(17.3743 0 0 17.3743 -13.9941 -13.9941)"/></svg>