<svg clip-rule="evenodd" fill-rule="evenodd" stroke-linejoin="round" stroke-miterlimit="2" viewBox="0 0 250 250" xmlns="http://www.w3.org/2000/svg"><path d="m149-175c-26.033 0-48.21-9.16-66.53-27.48-18.313-18.313-27.47-40.487-27.47-66.52v-502c0-26.307 9.157-48.717 27.47-67.23 18.32-18.513 40.497-27.77 66.53-27.77h662c26.307 0 48.717 9.257 67.23 27.77s27.77 40.923 27.77 67.23v502c0 26.033-9.257 48.207-27.77 66.52-18.513 18.32-40.923 27.48-67.23 27.48h-167v33c0 13.167-4.73 24.29-14.19 33.37-9.453 9.087-20.723 13.63-33.81 13.63h-232c-13.167 0-24.29-4.543-33.37-13.63-9.087-9.08-13.63-20.203-13.63-33.37v-33zm0-131.254c0 20.575 16.679 37.254 37.254 37.254h587.492c20.575 0 37.254-16.679 37.254-37.254v-427.492c0-20.575-16.679-37.254-37.254-37.254h-587.492c-20.575 0-37.254 16.679-37.254 37.254z" transform="matrix(.268431 0 0 .268431 -3.98086 253.981)"/><g transform="matrix(.118328 0 0 .118328 68.1434 171.254)"><path d="m480-55c-58.027 0-112.867-11.167-164.52-33.5s-96.813-52.833-135.48-91.5-69.167-83.82-91.5-135.46-33.5-106.463-33.5-164.47c0-60.047 11.15-115.83 33.45-167.35 22.293-51.513 53.127-96.513 92.5-135 39.367-38.48 85.307-68.72 137.82-90.72s108.717-33 168.61-33c55.747 0 108.883 9.487 159.41 28.46 50.527 18.967 95.027 45.3 133.5 79 38.473 33.693 69.043 73.607 91.71 119.74s34 96.067 34 149.8c0 76-21.333 138.333-64 187s-102 73-178 73h-58c-10.667 0-20 4.333-28 13s-12 18.333-12 29c0 16.667 3.333 28.333 10 35s10 17 10 31c0 29.333-9.933 54.333-29.8 75s-45.267 31-76.2 31zm-205.533-389.767c13.333 0 25-5 35-15s15-21.666 15-35c0-13.333-5-25-15-35s-21.667-15-35-15-25 5-35 15-15 21.667-15 35c0 13.334 5 25 15 35s21.667 15 35 15zm103.033-163c13.667 0 25.5-5 35.5-15s15-21.666 15-35c0-14-5-25.833-15-35.5-10-9.666-21.667-14.5-35-14.5-14 0-25.833 4.834-35.5 14.5-9.667 9.667-14.5 21.334-14.5 35 0 13.667 4.833 25.5 14.5 35.5s21.333 15 35 15zm205 0c13.667 0 25.5-5 35.5-15s15-21.666 15-35c0-14-5-25.833-15-35.5-10-9.666-21.667-14.5-35-14.5-14 0-25.833 4.834-35.5 14.5-9.667 9.667-14.5 21.334-14.5 35 0 13.667 4.833 25.5 14.5 35.5s21.333 15 35 15zm96.8 163c13.333 0 25-5 35-15s15-21.666 15-35c0-13.333-5-25-15-35s-21.667-15-35-15c-14 0-25.834 5-35.5 15-9.667 10-14.5 21.667-14.5 35 0 13.334 4.833 25 14.5 35 9.666 10 21.5 15 35.5 15zm-203.3 295.767c5.167 0 9.127-1.183 11.88-3.55 2.747-2.36 4.12-6.363 4.12-12.01 0-9.627-5-17.523-15-23.69s-15-22.083-15-47.75c0-32.78 10.993-62.143 32.98-88.09 21.987-25.94 49.243-38.91 81.77-38.91h87.25c49.333 0 86.167-14.667 110.5-44s36.5-68 36.5-116c0-88-32.863-158-98.59-210-65.733-52-140.677-78-224.83-78-94.453 0-174.497 32.123-240.13 96.37s-98.45 142.617-98.45 235.11c0 91.68 31.987 169.687 95.96 234.02s140.987 96.5 231.04 96.5z" fill-rule="nonzero"/><path d="m480-35.764c-60.721 0-118.102-11.709-172.154-35.079-53.933-23.319-101.075-55.182-141.448-95.555s-72.235-87.507-95.554-141.426c-23.371-54.039-35.08-111.405-35.08-172.106 0-62.792 11.713-121.115 35.032-174.991 23.305-53.85 55.548-100.883 96.708-141.115 41.088-40.163 89.024-71.744 143.833-94.706 54.831-22.971 113.507-34.494 176.043-34.494 58.112 0 113.501 9.909 166.171 29.687 52.771 19.809 99.231 47.341 139.413 82.538 40.398 35.379 72.5 77.287 96.301 125.728 23.952 48.749 35.971 101.503 35.971 158.283 0 81.208-23.181 147.68-68.771 199.681-46.187 52.682-110.195 79.555-192.465 79.555h-58c-5.338 0-9.862 2.475-13.865 6.812-4.43 4.799-6.899 10.045-6.899 15.952 0 9.999.367 17.398 4.366 21.398 9.673 9.673 15.634 24.288 15.634 44.602 0 34.557-11.764 63.984-35.168 88.331-23.506 24.453-53.468 36.905-90.068 36.905zm0-38.472c25.266 0 46.105-8.215 62.332-25.095 16.329-16.987 24.432-37.559 24.432-61.669 0-7.709-.695-13.727-4.366-17.398-9.351-9.35-15.634-25.226-15.634-48.602 0-15.427 5.53-29.513 17.101-42.048 11.998-12.998 26.138-19.188 42.135-19.188h58c69.731 0 124.388-21.793 163.535-66.445 39.744-45.332 59.229-103.526 59.229-174.319 0-50.687-10.647-97.799-32.029-141.317-21.533-43.825-50.571-81.745-87.119-113.752-36.764-32.203-79.306-57.338-127.587-75.462-48.383-18.168-99.268-27.233-152.649-27.233-57.25 0-110.981 10.477-161.177 31.506-50.217 21.038-94.161 49.937-131.807 86.734-37.587 36.741-67.01 79.708-88.292 128.885-21.28 49.164-31.868 102.408-31.868 159.709 0 55.312 10.624 107.593 31.92 156.834 21.348 49.361 50.486 92.533 87.446 129.494 36.96 36.96 80.138 66.098 129.512 87.445 49.255 21.297 101.554 31.921 156.886 31.921zm-4-55.528c-95.367 0-176.933-34.043-244.68-102.172-67.685-68.065-101.556-150.585-101.556-247.584 0-97.905 34.757-180.851 104.23-248.857 69.319-67.855 153.828-101.859 253.586-101.859 88.622 0 167.541 27.389 236.765 82.15 70.475 55.756 105.891 130.729 105.891 225.086 0 53.15-13.987 95.801-40.931 128.282-27.674 33.361-69.198 50.954-125.305 50.954h-87.25c-26.718 0-49.035 10.804-67.095 32.111-18.89 22.293-28.419 47.489-28.419 75.653 0 10.452.83 18.941 2.866 25.422.832 2.65 1.331 4.928 2.995 5.955 16.681 10.286 24.139 24.004 24.139 40.063 0 6.588-1.244 11.973-3.167 16.261l-3.156 5.46-4.495 4.878-5.837 3.969-6.228 2.536c-3.577 1.068-7.687 1.692-12.353 1.692zm-4.587-38.502c-1.058-1.333-2.657-2.468-4.51-3.611-13.689-8.441-24.139-28.987-24.139-64.123 0-37.396 12.458-70.927 37.541-100.527 25.913-30.573 58.11-45.709 96.445-45.709h87.25c42.563 0 74.701-11.738 95.695-37.046 21.723-26.187 32.069-60.867 32.069-103.718 0-81.643-30.311-146.67-91.289-194.914-62.243-49.239-133.21-73.85-212.895-73.85-89.148 0-164.727 30.242-226.674 90.881-61.793 60.488-92.67 134.281-92.67 221.363 0 86.361 30.102 159.855 90.364 220.456 59.11 59.442 130.042 89.722 212.813 90.798zm111.087-420.264c-19.059 0-35.35-6.921-48.831-20.867-13.302-13.76-19.905-30.063-19.905-48.87 0-18.977 6.71-35.178 20.134-48.602 13.378-13.378 29.727-20.134 49.102-20.134 18.409 0 34.563 6.559 48.37 19.906 13.898 13.435 20.866 29.873 20.866 49.33 0 18.489-6.768 34.736-20.634 48.603-13.82 13.82-30.214 20.634-49.102 20.634zm0-38.473c8.446 0 15.718-3.186 21.898-9.366 6.134-6.134 9.366-13.219 9.366-21.398 0-8.542-3.032-15.77-9.134-21.669-6.193-5.987-13.372-9.094-21.63-9.094-8.625 0-15.942 2.91-21.898 8.866-5.91 5.91-8.866 13.042-8.866 21.397 0 8.528 3.063 15.891 9.095 22.131 5.853 6.054 12.894 9.133 21.169 9.133zm-308.033 201.473c-18.488 0-34.736-6.768-48.602-20.634-13.866-13.867-20.634-30.114-20.634-48.603 0-18.488 6.768-34.736 20.634-48.602s30.114-20.634 48.602-20.634 34.736 6.768 48.602 20.634 20.634 30.114 20.634 48.602c0 18.489-6.768 34.736-20.634 48.603-13.866 13.866-30.114 20.634-48.602 20.634zm0-38.473c8.179 0 15.264-3.232 21.398-9.366s9.366-13.219 9.366-21.398c0-8.178-3.232-15.263-9.366-21.397s-13.219-9.366-21.398-9.366-15.264 3.232-21.398 9.366-9.366 13.219-9.366 21.397c0 8.179 3.232 15.264 9.366 21.398s13.219 9.366 21.398 9.366zm103.033-124.527c-19.059 0-35.35-6.921-48.831-20.867-13.302-13.76-19.905-30.063-19.905-48.87 0-18.977 6.71-35.178 20.134-48.602 13.378-13.378 29.727-20.134 49.102-20.134 18.409 0 34.563 6.559 48.37 19.906 13.898 13.435 20.866 29.873 20.866 49.33 0 18.489-6.768 34.736-20.634 48.603-13.82 13.82-30.214 20.634-49.102 20.634zm0-38.473c8.446 0 15.718-3.186 21.898-9.366 6.134-6.134 9.366-13.219 9.366-21.398 0-8.542-3.032-15.77-9.134-21.669-6.193-5.987-13.372-9.094-21.63-9.094-8.625 0-15.942 2.91-21.898 8.866-5.91 5.91-8.866 13.042-8.866 21.397 0 8.528 3.063 15.891 9.095 22.131 5.853 6.054 12.894 9.133 21.169 9.133zm301.8 201.473c-19.458 0-35.896-6.968-49.331-20.867-13.346-13.806-19.906-29.961-19.906-48.37 0-18.408 6.56-34.563 19.906-48.369 13.435-13.899 29.873-20.867 49.331-20.867 18.488 0 34.736 6.768 48.602 20.634s20.634 30.114 20.634 48.602c0 18.489-6.768 34.736-20.634 48.603-13.866 13.866-30.114 20.634-48.602 20.634zm0-38.473c8.178 0 15.263-3.232 21.397-9.366s9.366-13.219 9.366-21.398c0-8.178-3.232-15.263-9.366-21.397s-13.219-9.366-21.397-9.366c-8.543 0-15.771 3.031-21.67 9.133-5.987 6.194-9.094 13.372-9.094 21.63 0 8.259 3.107 15.437 9.094 21.631 5.899 6.101 13.127 9.133 21.67 9.133z"/></g></svg>