<svg clip-rule="evenodd" fill-rule="evenodd" stroke-linejoin="round" stroke-miterlimit="2" viewBox="0 0 250 250" xmlns="http://www.w3.org/2000/svg"><path d="m2.923 2.217h10.154c1.094 0 1.976.881 1.976 1.975v7.616c0 1.094-.882 1.975-1.976 1.975h-10.154c-1.094 0-1.976-.881-1.976-1.975v-7.616c0-1.094.882-1.975 1.976-1.975zm-.543 1.827-.02 7.764c0 .312.251.562.563.562h10.154c.312 0 .563-.25.563-.562l-.02-7.764c-.065-.239-.282-.414-.543-.414h-10.154c-.261 0-.478.175-.543.414zm2.998 6.762h5.244c.261 0 .472.211.472.472 0 .262-.211.472-.472.472h-5.244c-.261 0-.472-.21-.472-.472 0-.261.211-.472.472-.472zm2.816-4.31c-.09 0-.167-.032-.229-.096-.063-.065-.094-.141-.094-.231 0-.031.015-.086.045-.164.035-.061.063-.126.083-.197.02-.07.03-.145.03-.223 0-.229-.08-.425-.242-.586s-.359-.242-.59-.242-.428.081-.589.243-.242.358-.242.589c0 .075.01.149.031.219.02.071.047.136.083.197.015.025.026.05.034.076.007.025.011.055.011.088 0 .091-.033.168-.099.232-.065.063-.143.095-.233.095-.066 0-.125-.015-.178-.045-.053-.031-.093-.073-.119-.128-.059-.116-.106-.236-.138-.358-.033-.122-.049-.249-.049-.381 0-.41.145-.76.435-1.05.29-.289.641-.434 1.053-.434s.763.144 1.054.434.436.641.436 1.055c0 .134-.017.262-.05.381-.034.12-.08.238-.139.352-.025.056-.065.098-.121.129-.056.03-.117.045-.183.045zm-.377 3.755c-.2 0-.388-.04-.564-.122-.178-.082-.327-.201-.446-.356l-1.251-1.605-.003-.004c-.074-.102-.104-.214-.092-.334.012-.123.066-.224.164-.305l.044-.038.004-.003c.113-.089.241-.14.386-.152.143-.012.28.015.412.081l.33.165v-1.953c0-.109.039-.203.117-.281.079-.078.173-.117.282-.117.11 0 .203.04.28.118s.115.171.115.28v2.566c0 .168-.071.29-.209.368-.137.078-.276.079-.418.002l-.156-.081.66.822c.039.048.088.084.144.109.059.027.122.04.188.04h1.56c.104 0 .193-.036.267-.108.073-.072.11-.16.11-.265v-.932c0-.119-.041-.219-.125-.3s-.185-.122-.303-.122h-1.045c-.108 0-.202-.039-.28-.117s-.117-.172-.117-.285c0-.112.04-.207.118-.284s.171-.115.279-.115h1.045c.337 0 .627.12.867.359.241.24.362.527.362.864v.935c0 .325-.115.602-.345.829-.23.228-.507.341-.83.341z" transform="matrix(17.3743 0 0 17.3743 -13.9941 -13.9941)"/></svg>