<svg clip-rule="evenodd" fill-rule="evenodd" stroke-linejoin="round" stroke-miterlimit="2" viewBox="0 0 250 250" xmlns="http://www.w3.org/2000/svg"><path d="m309.901 347.402c-8.491 2.524-15.06 9.278-17.349 17.835s.033 17.689 6.129 24.115c-.004.101.045.153.094.204 3.802 3.81 6.86 8.34 9.054 13.335h114.915c4.891 0 9.581 1.943 13.039 5.401 3.459 3.458 5.401 8.149 5.401 13.039v.003c0 4.89-1.942 9.581-5.401 13.039-3.458 3.458-8.148 5.401-13.039 5.401h-114.915c-7.109 16.183-23.284 27.496-42.08 27.496s-34.971-11.313-42.081-27.496h-114.914c-4.891 0-9.581-1.943-13.04-5.401-3.458-3.458-5.401-8.149-5.401-13.039v-.003c0-4.89 1.943-9.581 5.401-13.039 3.459-3.458 8.149-5.401 13.04-5.401h114.914c2.194-4.994 5.252-9.524 8.983-13.402.003-.003.006-.007.009-.01 6.155-6.43 8.519-15.6 6.241-24.205-2.278-8.604-8.87-15.403-17.4-17.946-5.343-1.508-10.575-3.387-15.718-5.564-18.778-7.949-35.136-18.896-49.075-32.835-13.938-13.938-24.94-30.319-33.003-49.147-8.065-18.834-12.101-38.825-12.101-59.973 0-21.38 4.037-41.403 12.104-60.07 8.06-18.655 19.043-35.01 32.945-49.066 13.905-14.059 30.28-25.121 49.127-33.181 18.85-8.058 38.856-12.09 60.02-12.09 21.166 0 41.163 4.032 59.993 12.091 18.827 8.059 35.185 19.121 49.076 33.181 13.885 14.056 24.86 30.437 32.921 49.145 8.066 18.72 12.103 38.768 12.103 60.147 0 21.149-4.036 41.114-12.102 59.896-8.063 18.775-19.065 35.13-33.002 49.067-13.939 13.94-30.324 24.886-49.155 32.835-5.158 2.177-10.402 4.057-15.733 5.638zm-44.152-25.774c33.942 0 62.777-11.803 86.501-35.415 23.722-23.613 35.58-52.389 35.58-86.325 0-34.167-11.858-63.115-35.583-86.84-23.724-23.724-52.557-35.583-86.498-35.583-33.939 0-62.773 11.859-86.499 35.583-23.725 23.725-35.583 52.673-35.583 86.84 0 33.936 11.858 62.712 35.58 86.325 23.727 23.612 52.562 35.415 86.502 35.415zm-.062-217.498c5.034 0 9.282 1.736 12.752 5.193 3.475 3.463 5.219 7.7 5.219 12.716v61.46c0 5.254-1.731 9.597-5.149 13.045-3.431 3.464-7.662 5.206-12.699 5.206-5.034 0-9.282-1.738-12.752-5.197-3.466-3.451-5.219-7.797-5.219-13.054v-61.46c0-5.013 1.722-9.247 5.149-12.707 3.431-3.462 7.662-5.202 12.699-5.202zm.021 191.174c-26.727 0-49.302-9.283-67.731-27.837-18.428-18.551-27.645-41.076-27.645-67.579 0-9.74 1.276-19.041 3.825-27.905 2.557-8.899 6.401-17.022 11.53-24.371 3.333-4.868 7.299-7.41 11.785-7.795 4.384-.375 8.204.345 11.468 2.109l.094.054c3.325 2.054 5.697 5.044 7.093 8.987 1.442 4.076.884 8.098-1.753 12.054l-.076.106c-4.037 5.221-7.03 10.868-8.977 16.941-1.954 6.105-2.926 12.712-2.926 19.82 0 17.733 6.131 32.727 18.404 44.978 12.273 12.254 27.273 18.375 44.994 18.375 17.722 0 32.706-6.12 44.948-18.373 12.245-12.252 18.361-27.247 18.361-44.98 0-7.006-1.047-13.619-3.146-19.84-2.103-6.231-5.035-12.003-8.797-17.316-2.891-3.951-3.58-8.069-2.139-12.341 1.406-4.159 3.92-7.228 7.517-9.226l.045-.024c3.272-1.703 7.101-2.333 11.495-1.831 4.475.512 8.44 3.233 11.764 8.347l.006.01c4.86 7.577 8.684 15.73 11.47 24.459 2.791 8.749 4.189 18.002 4.189 27.762 0 26.505-9.289 49.032-27.861 67.584-18.57 18.551-41.215 27.832-67.937 27.832zm-18.401 121.792v8.472c1.926 8.405 9.456 14.683 18.442 14.683 8.985 0 16.516-6.278 18.442-14.683v-8.472c-1.926-8.405-9.457-14.682-18.442-14.682-8.986 0-16.516 6.277-18.442 14.682z" transform="matrix(.559536 0 0 .559536 -23.6958 -18.4292)"/></svg>