<svg clip-rule="evenodd" fill-rule="evenodd" stroke-linejoin="round" stroke-miterlimit="2" viewBox="0 0 250 250" xmlns="http://www.w3.org/2000/svg"><path d="m2.923 2.217h10.154c1.094 0 1.976.881 1.976 1.975v7.616c0 1.094-.882 1.975-1.976 1.975h-10.154c-1.094 0-1.976-.881-1.976-1.975v-7.616c0-1.094.882-1.975 1.976-1.975zm-.543 1.827-.02 7.764c0 .312.251.562.563.562h10.154c.312 0 .563-.25.563-.562l-.02-7.764c-.065-.239-.282-.414-.543-.414h-10.154c-.261 0-.478.175-.543.414zm2.998 6.762h5.244c.261 0 .472.211.472.472 0 .262-.211.472-.472.472h-5.244c-.261 0-.472-.21-.472-.472 0-.261.211-.472.472-.472zm2.619-.502c-.414 0-.805-.08-1.173-.239-.367-.159-.688-.376-.963-.651s-.492-.596-.651-.963c-.159-.368-.239-.759-.239-1.173 0-.427.08-.824.239-1.191.158-.367.378-.687.658-.961s.607-.489.98-.645c.373-.157.773-.235 1.199-.235.396 0 .773.067 1.132.202s.675.322.949.562c.275.241.494.526.656.856.163.332.245.692.245 1.078 0 .553-.158 1.006-.468 1.36-.315.359-.751.542-1.311.542h-.395c-.037 0-.067.017-.095.046-.03.033-.047.069-.047.109 0 .068.003.119.03.146.066.066.107.165.107.304 0 .235-.081.435-.24.601-.16.167-.364.252-.613.252zm-.059-.903c-.007-.009-.018-.017-.031-.024-.093-.058-.164-.198-.164-.437 0-.255.085-.483.256-.685.176-.208.395-.311.657-.311h.594c.29 0 .508-.08.651-.252.148-.179.219-.415.219-.707 0-.556-.207-.999-.622-1.327-.424-.336-.907-.503-1.45-.503-.607 0-1.122.206-1.544.619-.42.412-.631.914-.631 1.507 0 .588.205 1.089.616 1.502.402.405.885.611 1.449.618zm-.639-2.862c-.13 0-.241-.047-.333-.142-.091-.094-.136-.205-.136-.333 0-.129.046-.24.138-.331.091-.091.202-.137.334-.137.125 0 .235.044.329.135.095.092.142.204.142.336 0 .126-.046.237-.14.331s-.206.141-.334.141zm2.055 1.11c-.133 0-.245-.047-.336-.142-.091-.094-.136-.204-.136-.33 0-.125.045-.235.136-.329.091-.095.203-.142.336-.142.126 0 .237.046.331.14.094.095.14.206.14.331 0 .126-.046.237-.14.331-.094.095-.205.141-.331.141zm-2.757 0c-.126 0-.237-.046-.331-.141-.095-.094-.141-.205-.141-.331 0-.125.046-.236.141-.331.094-.094.205-.14.331-.14s.236.046.331.14c.094.095.14.206.14.331 0 .126-.046.237-.14.331-.095.095-.205.141-.331.141zm2.098-1.11c-.13 0-.241-.047-.333-.142-.09-.094-.135-.205-.135-.333 0-.129.045-.24.137-.331.091-.091.202-.137.334-.137.125 0 .235.044.33.135.094.092.142.204.142.336 0 .126-.046.237-.141.331-.094.094-.206.141-.334.141z" transform="matrix(17.3743 0 0 17.3743 -13.9941 -13.9941)"/></svg>