<svg height="48" width="48" xmlns="http://www.w3.org/2000/svg"><path fill="rgb(127, 127, 127)" d="m39.909 22.447c-1.086 2.334-3.623 3.796-5.633 5.075.493-1.477.804-3.166.679-5.075-.34-2.482-1.499-4.697-3.2-6.37l-1.616 4.185c0-5.415-.984-8.862-4.923-12.262 7.761.591 13.968 6.725 14.693 14.447zm-12.386-8.723c-1.477-.492-3.167-.804-5.075-.679-2.482.341-4.698 1.5-6.37 3.201l4.185 1.615c-5.416 0-8.862.985-12.263 4.923.591-7.761 6.725-13.968 14.448-14.693 2.334 1.086 3.795 3.624 5.075 5.633zm-14.477 11.829c.34 2.482 1.499 4.697 3.2 6.369l1.616-4.185c0 5.416.984 8.863 4.923 12.263-7.761-.591-13.968-6.725-14.693-14.447 1.086-2.334 3.623-3.796 5.633-5.075-.493 1.477-.804 3.166-.679 5.075zm12.507 14.356c-2.334-1.086-3.796-3.624-5.075-5.633 1.477.492 3.167.804 5.075.679 2.482-.341 4.698-1.5 6.37-3.201l-4.185-1.615c5.416 0 8.862-.985 12.262-4.924-.59 7.761-6.724 13.969-14.447 14.694zm-21.554-15.907c0 11.046 8.954 20 20 20s20-8.954 20-20-8.954-20-20-20-20 8.954-20 20z" fill-rule="evenodd"/></svg>