<svg height="48" width="48" xmlns="http://www.w3.org/2000/svg"><path fill="rgb(127, 127, 127)" d="m42.015 6.244v34.031c0 .552-.448 1-1 1h-34.03c-.552 0-1-.448-1-1v-34.031c0-.552.448-1 1-1h34.03c.552 0 1 .448 1 1zm-32.967 22.396h29.904v-20.333h-29.904zm20.057-17.143v2.128c0 .552-.448 1-1 1h-16.162c-.552 0-1-.448-1-1v-2.128c0-.552.448-1 1-1h16.162c.552 0 1 .448 1 1zm-20.057 26.714h29.904v-6.508h-29.904zm5.19-3.859v1.064c0 .552-.448 1-1 1h-1.064c-.552 0-1-.448-1-1v-1.064c0-.552.448-1 1-1h1.064c.552 0 1 .448 1 1zm4.127 0v1.064c0 .552-.448 1-1 1h-1.063c-.552 0-1-.448-1-1v-1.064c0-.552.448-1 1-1h1.063c.552 0 1 .448 1 1zm4.127 0v1.064c0 .552-.448 1-1 1h-1.063c-.552 0-1-.448-1-1v-1.064c0-.552.448-1 1-1h1.063c.552 0 1 .448 1 1zm6.016 0v1.064c0 .552-.448 1-1 1h-1.064c-.552 0-1-.448-1-1v-1.064c0-.552.448-1 1-1h1.064c.552 0 1 .448 1 1zm4.127 0v1.064c0 .552-.448 1-1 1h-1.064c-.552 0-1-.448-1-1v-1.064c0-.552.448-1 1-1h1.064c.552 0 1 .448 1 1zm4.127 0v1.064c0 .552-.448 1-1 1h-1.064c-.552 0-1-.448-1-1v-1.064c0-.552.448-1 1-1h1.064c.552 0 1 .448 1 1z"/></svg>