<svg height="48" width="48" xmlns="http://www.w3.org/2000/svg"><path fill="rgb(127, 127, 127)" d="m408.57 503.46c-11.009 0-19.934 8.925-19.934 19.934s8.925 19.934 19.934 19.934 19.934-8.925 19.934-19.934-8.925-19.934-19.934-19.934m0 2.215c8.5.005 15.799 6.047 17.393 14.397h-4.104c-.613 0-1.107.494-1.107 1.107 0 .614.494 1.108 1.107 1.108h4.39c.024.369.038.737.04 1.107-.007.37-.025.739-.056 1.108h-4.374c-.613 0-1.107.494-1.107 1.107 0 .614.494 1.107 1.107 1.107h4.108c-1.594 8.351-8.895 14.394-17.397 14.397-8.5-.005-15.799-6.047-17.393-14.397h4.104c.613 0 1.107-.493 1.107-1.107 0-.613-.494-1.107-1.107-1.107h-4.387c-.025-.369-.04-.738-.043-1.108.007-.37.025-.738.056-1.107h4.374c.613 0 1.107-.494 1.107-1.108 0-.613-.494-1.107-1.107-1.107h-4.108c1.594-8.351 8.895-14.394 17.397-14.397m0 4.43c-.738 0-1.43.208-1.96.594-.521.386-.855.898-1.108 1.402-.503 1.007-.758 2.071-1.24 3.046-.183.356-.24.35-.36.387-.12.036-.411.043-.847-.02-.886-.126-2.336-.506-3.84.25-.851.421-1.411 1.226-1.643 2.073-.239.847-.218 1.754-.065 2.693.316 1.878 1.206 3.914 2.392 5.694 1.062 1.59 2.452 4.091 3.873 6.229.711 1.063 1.427 2.038 2.17 2.805.743.763 1.521 1.426 2.628 1.426s1.883-.663 2.626-1.426c.741-.767 1.461-1.742 2.172-2.805 1.421-2.138 2.816-4.639 3.876-6.229 1.186-1.78 2.073-3.816 2.385-5.694.16-.939.17-1.846-.059-2.693-.236-.847-.79-1.652-1.645-2.073-1.503-.756-2.956-.376-3.837-.25-.44.063-.733.056-.855.02-.112-.037-.167-.031-.35-.387-.487-.975-.747-2.039-1.245-3.046-.253-.504-.587-1.016-1.114-1.402-.525-.386-1.216-.594-1.954-.594m0 11.074c.614 0 1.107.494 1.107 1.108v6.644c0 .614-.493 1.108-1.107 1.108s-1.107-.494-1.107-1.108v-6.644c0-.614.493-1.108 1.107-1.108" stroke-linejoin="round" stroke-width=".5" transform="matrix(1.029186 0 0 1.029186 -396.494659 -514.494141)"/></svg>