<svg clip-rule="evenodd" fill-rule="evenodd" stroke-linejoin="round" stroke-miterlimit="2" viewBox="0 0 245 210" xmlns="http://www.w3.org/2000/svg">
  <defs>
    <style type="text/css" id="current-color-scheme">.ColorScheme-Highlight { color:#aaaaaa; }</style>
  </defs><path class="ColorScheme-Highlight" fill="currentColor" d="m7.144 3.567h7.776c1.298 0 2.556.471 3.554 1.331l12.589 10.352c1.267 1.093 2 2.712 2 4.419v6.263c0 1.186-.455 2.324-1.265 3.162-.81.839-1.909 1.311-3.055 1.311h-21.599c-1.146 0-2.244-.472-3.055-1.311-.81-.838-1.265-1.976-1.265-3.162v-17.892c0-1.187.455-2.324 1.265-3.163.811-.839 1.909-1.31 3.055-1.31zm0 2.226c-.575 0-1.127.237-1.534.658-.407.422-.636.993-.636 1.589v17.892c0 .595.229 1.167.636 1.588s.959.658 1.534.658h21.599c.576 0 1.128-.237 1.535-.658s.635-.993.635-1.588v-6.263c0-1.046-.449-2.038-1.226-2.708l-12.589-10.352c-.612-.527-1.382-.816-2.178-.816zm.285 3.491c-.56 0-1.015-.448-1.015-1s.455-1 1.015-1h7.043c.56 0 1.014.448 1.014 1s-.454 1-1.014 1zm15.719-2.401c-.33-.269-.459-.726-.322-1.137.138-.412.513-.688.933-.688h6.013c.491 0 .962.202 1.309.561.347.36.542.847.542 1.356v4.712c0 .391-.216.748-.556.919s-.745.126-1.042-.116z" transform="matrix(8.10206 0 0 7.82482 -22.8811 -27.9099)"/><path class="ColorScheme-Highlight" fill="currentColor" d="m388 522.214c2.643 0 4.786 2.143 4.786 4.786v16c0 2.643-2.143 4.786-4.786 4.786h-24c-2.643 0-4.786-2.143-4.786-4.786v-16c0-2.643 2.143-4.786 4.786-4.786h6.726l-6.69-4.602c-.796-.549-1.036-1.678-.52-2.525.54-.888 1.663-1.128 2.496-.554l10.008 6.83c2.036-1.352 9.965-6.828 9.965-6.828l.001-.001c.838-.575 1.958-.335 2.498.553.516.847.276 1.976-.52 2.525l-6.69 4.602zm1.214 20.786v-16c0-.67-.544-1.214-1.214-1.214h-24c-.67 0-1.214.544-1.214 1.214v16c0 .67.544 1.214 1.214 1.214h24c.67 0 1.214-.544 1.214-1.214zm-5.333-14.979c1.31 0 2.373 1.063 2.373 2.373v9.518c0 1.31-1.063 2.372-2.373 2.372h-15.762c-1.31 0-2.373-1.062-2.373-2.372v-9.518c0-1.31 1.063-2.373 2.373-2.373zm-.785 11.098v-7.932c0-.004-.004-.008-.008-.008h-14.176c-.004 0-.008.004-.008.008v7.932c0 .004.004.007.008.007h14.176c.004 0 .007-.003.008-.007z" transform="matrix(3.12942 0 0 3.12942 -1054.16 -1533.72)"/></svg>