<svg clip-rule="evenodd" fill-rule="evenodd" stroke-linejoin="round" stroke-miterlimit="2" viewBox="0 0 245 210" xmlns="http://www.w3.org/2000/svg">
  <defs>
    <style type="text/css" id="current-color-scheme">.ColorScheme-Highlight { color:#aaaaaa; }</style>
  </defs><path class="ColorScheme-Highlight" fill="currentColor" d="m7.144 3.567h7.776c1.298 0 2.556.471 3.554 1.331l12.589 10.352c1.267 1.093 2 2.712 2 4.419v6.263c0 1.186-.455 2.324-1.265 3.162-.81.839-1.909 1.311-3.055 1.311h-21.599c-1.146 0-2.244-.472-3.055-1.311-.81-.838-1.265-1.976-1.265-3.162v-17.892c0-1.187.455-2.324 1.265-3.163.811-.839 1.909-1.31 3.055-1.31zm0 2.226c-.575 0-1.127.237-1.534.658-.407.422-.636.993-.636 1.589v17.892c0 .595.229 1.167.636 1.588s.959.658 1.534.658h21.599c.576 0 1.128-.237 1.535-.658s.635-.993.635-1.588v-6.263c0-1.046-.449-2.038-1.226-2.708l-12.589-10.352c-.612-.527-1.382-.816-2.178-.816zm.285 3.491c-.56 0-1.015-.448-1.015-1s.455-1 1.015-1h7.043c.56 0 1.014.448 1.014 1s-.454 1-1.014 1zm15.719-2.401c-.33-.269-.459-.726-.322-1.137.138-.412.513-.688.933-.688h6.013c.491 0 .962.202 1.309.561.347.36.542.847.542 1.356v4.712c0 .391-.216.748-.556.919s-.745.126-1.042-.116z" transform="matrix(8.10206 0 0 7.82482 -22.8811 -27.9099)"/><path class="ColorScheme-Highlight" fill="currentColor" d="m17.789 9.586c-.287.032-.57.093-.843.183-.198.065-.415.003-.55-.155-.878-1.034-2.17-1.645-3.566-1.645-2.304 0-4.224 1.671-4.614 3.865-.036.206-.194.369-.399.411-1.763.369-3.092 1.936-3.092 3.807 0 .516.101 1.008.285 1.459.065.158.046.337-.049.478-.095.142-.254.227-.424.227h-1.258c-1.799 0-3.257-1.458-3.257-3.257 0-1.719 1.332-3.126 3.021-3.247.006-.001.012-.004.016-.009s.005-.012.004-.018c-.057-.256-.087-.521-.087-.793 0-2.027 1.643-3.67 3.669-3.67.76 0 1.466.231 2.051.626.006.004.012.005.018.003.007-.002.012-.006.015-.012.833-1.669 2.557-2.817 4.549-2.817 2.415 0 4.436 1.684 4.954 3.941.033.142.003.292-.082.411-.084.119-.216.196-.361.212zm3.739 4.555c1.254.195 2.212 1.279 2.212 2.587 0 1.022-.585 1.907-1.439 2.339-.049.025-.099.048-.15.07-.03.013-.061.019-.093.019-.855 0-13.085 0-13.085 0-1.668-.011-3.016-1.365-3.016-3.035 0-1.676 1.359-3.035 3.035-3.035.084 0 .167.004.25.011-.005-.077-.008-.155-.008-.233 0-2.098 1.701-3.799 3.799-3.799 1.474 0 2.751.84 3.381 2.067.521-.341 1.143-.541 1.813-.541 1.829 0 3.311 1.482 3.311 3.311 0 .08-.004.16-.01.239zm-12.543 2.968 12.563.001c.091-.102.146-.235.146-.382 0-.285-.208-.523-.481-.565-1.051-.164-1.801-1.106-1.726-2.166.002-.031.005-.063.005-.095 0-.698-.567-1.264-1.265-1.264-.255 0-.492.075-.691.205-.485.319-1.083.416-1.644.268-.562-.148-1.034-.528-1.299-1.044-.29-.567-.879-.955-1.56-.955-.968 0-1.752.784-1.752 1.752 0 .037.002.074.004.11.035.592-.188 1.17-.611 1.585-.424.415-1.007.625-1.598.577-.028-.002-.056-.004-.084-.004-.546 0-.989.443-.989.989 0 .544.439.985.982.988z" transform="matrix(4.64426 0 0 4.64426 67.3215 73.1695)"/></svg>