<svg clip-rule="evenodd" fill-rule="evenodd" stroke-linejoin="round" stroke-miterlimit="2" viewBox="0 0 245 210" xmlns="http://www.w3.org/2000/svg">
  <defs>
    <style type="text/css" id="current-color-scheme">.ColorScheme-Highlight { color:#aaaaaa; }</style>
  </defs><path class="ColorScheme-Highlight" fill="currentColor" d="m7.144 3.567h7.776c1.298 0 2.556.471 3.554 1.331l12.589 10.352c1.267 1.093 2 2.712 2 4.419v6.263c0 1.186-.455 2.324-1.265 3.162-.81.839-1.909 1.311-3.055 1.311h-21.599c-1.146 0-2.244-.472-3.055-1.311-.81-.838-1.265-1.976-1.265-3.162v-17.892c0-1.187.455-2.324 1.265-3.163.811-.839 1.909-1.31 3.055-1.31zm0 2.226c-.575 0-1.127.237-1.534.658-.407.422-.636.993-.636 1.589v17.892c0 .595.229 1.167.636 1.588s.959.658 1.534.658h21.599c.576 0 1.128-.237 1.535-.658s.635-.993.635-1.588v-6.263c0-1.046-.449-2.038-1.226-2.708l-12.589-10.352c-.612-.527-1.382-.816-2.178-.816zm.285 3.491c-.56 0-1.015-.448-1.015-1s.455-1 1.015-1h7.043c.56 0 1.014.448 1.014 1s-.454 1-1.014 1zm15.719-2.401c-.33-.269-.459-.726-.322-1.137.138-.412.513-.688.933-.688h6.013c.491 0 .962.202 1.309.561.347.36.542.847.542 1.356v4.712c0 .391-.216.748-.556.919s-.745.126-1.042-.116z" transform="matrix(8.10206 0 0 7.82482 -22.8811 -27.9099)"/><path class="ColorScheme-Highlight" fill="currentColor" d="m149-826 58 119c5.153 10.933 12.513 19.167 22.08 24.7 9.573 5.533 19.88 8.3 30.92 8.3 21.667 0 38.083-8.987 49.25-26.96s12.083-36.987 2.75-57.04l-33-68h89l58 119c5.153 10.933 12.513 19.167 22.08 24.7 9.573 5.533 19.88 8.3 30.92 8.3 21.667 0 38.083-8.987 49.25-26.96s12.083-36.987 2.75-57.04l-33-68h89l58 119c5.153 10.933 12.513 19.167 22.08 24.7 9.573 5.533 19.88 8.3 30.92 8.3 21.667 0 38.083-8.987 49.25-26.96s12.083-36.987 2.75-57.04l-33-68h94c26.307 0 48.717 9.257 67.23 27.77s27.77 40.923 27.77 67.23v502c0 26.033-9.257 48.207-27.77 66.52-18.513 18.32-40.923 27.48-67.23 27.48h-662c-26.033 0-48.21-8.833-66.53-26.5-18.313-17.667-27.47-39.5-27.47-65.5v-504c0-26.307 9.157-48.717 27.47-67.23 18.32-18.513 40.497-27.77 66.53-27.77zm0 247v350h662v-350zm0 0v350z" fill-rule="nonzero" transform="matrix(.127801 0 0 .127801 61.0918 193.502)"/></svg>