<svg clip-rule="evenodd" fill-rule="evenodd" stroke-linejoin="round" stroke-miterlimit="2" viewBox="0 0 245 210" xmlns="http://www.w3.org/2000/svg">
  <defs>
    <style type="text/css" id="current-color-scheme">.ColorScheme-Highlight { color:#aaaaaa; }</style>
  </defs><path class="ColorScheme-Highlight" fill="currentColor" d="m7.144 3.567h7.776c1.298 0 2.556.471 3.554 1.331l12.589 10.352c1.267 1.093 2 2.712 2 4.419v6.263c0 1.186-.455 2.324-1.265 3.162-.81.839-1.909 1.311-3.055 1.311h-21.599c-1.146 0-2.244-.472-3.055-1.311-.81-.838-1.265-1.976-1.265-3.162v-17.892c0-1.187.455-2.324 1.265-3.163.811-.839 1.909-1.31 3.055-1.31zm0 2.226c-.575 0-1.127.237-1.534.658-.407.422-.636.993-.636 1.589v17.892c0 .595.229 1.167.636 1.588s.959.658 1.534.658h21.599c.576 0 1.128-.237 1.535-.658s.635-.993.635-1.588v-6.263c0-1.046-.449-2.038-1.226-2.708l-12.589-10.352c-.612-.527-1.382-.816-2.178-.816zm.285 3.491c-.56 0-1.015-.448-1.015-1s.455-1 1.015-1h7.043c.56 0 1.014.448 1.014 1s-.454 1-1.014 1zm15.719-2.401c-.33-.269-.459-.726-.322-1.137.138-.412.513-.688.933-.688h6.013c.491 0 .962.202 1.309.561.347.36.542.847.542 1.356v4.712c0 .391-.216.748-.556.919s-.745.126-1.042-.116z" transform="matrix(8.10206 0 0 7.82482 -22.8811 -27.9099)"/><path class="ColorScheme-Highlight" fill="currentColor" d="m12.51 13.214c.046-.8.438-1.506 1.03-2.006.621-.516 1.405-.796 2.212-.79.85 0 1.631.3 2.211.79.592.5.983 1.206 1.028 2.005.045.823-.285 1.586-.865 2.153-.639.61-1.491.947-2.374.938-.884.009-1.737-.328-2.376-.938-.58-.567-.91-1.33-.865-2.152m-5.161 1.617c.006.314.106.922.256 1.398.324 1.024.868 1.965 1.593 2.757.778.855 1.728 1.537 2.787 2.001 1.153.508 2.4.767 3.66.76 1.26.002 2.506-.261 3.657-.772 1.059-.468 2.007-1.153 2.785-2.01.724-.795 1.267-1.737 1.592-2.762.312-.993.397-2.044.25-3.074-.14-.987-.487-1.934-1.016-2.779-.49-.786-1.118-1.478-1.852-2.043h.002l-7.498-5.757-.02-.015c-.492-.378-1.319-.376-1.86.002-.547.382-.609 1.015-.123 1.415l-.001.001 3.126 2.543-9.53.01h-.013c-.788.001-1.545.518-1.695 1.172-.154.665.38 1.217 1.2 1.22v.002l4.83-.01-8.62 6.617-.034.025c-.813.622-1.075 1.658-.563 2.313.52.667 1.625.668 2.447.004l4.704-3.849s-.069.52-.063.831zm12.09 1.741c-.97.988-2.326 1.548-3.795 1.55-1.47.004-2.827-.552-3.797-1.538-.458-.46-.811-1.013-1.036-1.622-.416-1.158-.313-2.442.282-3.519.293-.527.684-.992 1.153-1.371.942-.768 2.141-1.183 3.396-1.185 1.256-.002 2.455.41 3.398 1.175.48.391.87.854 1.152 1.367.292.526.47 1.107.522 1.706.053.614-.029 1.232-.239 1.811-.225.61-.578 1.164-1.035 1.626" fill-rule="nonzero" transform="matrix(4.67427 0 0 4.67427 66.4081 71.9247)"/></svg>