<svg clip-rule="evenodd" fill-rule="evenodd" stroke-linejoin="round" stroke-miterlimit="2" viewBox="0 0 245 210" xmlns="http://www.w3.org/2000/svg">
  <defs>
    <style type="text/css" id="current-color-scheme">.ColorScheme-Highlight { color:#aaaaaa; }</style>
  </defs><path class="ColorScheme-Highlight" fill="currentColor" d="m7.144 3.567h7.776c1.298 0 2.556.471 3.554 1.331l12.589 10.352c1.267 1.093 2 2.712 2 4.419v6.263c0 1.186-.455 2.324-1.265 3.162-.81.839-1.909 1.311-3.055 1.311h-21.599c-1.146 0-2.244-.472-3.055-1.311-.81-.838-1.265-1.976-1.265-3.162v-17.892c0-1.187.455-2.324 1.265-3.163.811-.839 1.909-1.31 3.055-1.31zm0 2.226c-.575 0-1.127.237-1.534.658-.407.422-.636.993-.636 1.589v17.892c0 .595.229 1.167.636 1.588s.959.658 1.534.658h21.599c.576 0 1.128-.237 1.535-.658s.635-.993.635-1.588v-6.263c0-1.046-.449-2.038-1.226-2.708l-12.589-10.352c-.612-.527-1.382-.816-2.178-.816zm.285 3.491c-.56 0-1.015-.448-1.015-1s.455-1 1.015-1h7.043c.56 0 1.014.448 1.014 1s-.454 1-1.014 1zm15.719-2.401c-.33-.269-.459-.726-.322-1.137.138-.412.513-.688.933-.688h6.013c.491 0 .962.202 1.309.561.347.36.542.847.542 1.356v4.712c0 .391-.216.748-.556.919s-.745.126-1.042-.116z" transform="matrix(8.10206 0 0 7.82482 -22.8811 -27.9099)"/><path class="ColorScheme-Highlight" fill="currentColor" d="m4.71 3.29 16 16c.094.093.168.204.219.326s.077.252.077.384-.026.263-.077.385-.125.232-.219.325c-.093.094-.203.168-.325.219s-.253.077-.385.077-.262-.026-.384-.077-.233-.125-.326-.219l-5.63-5.63c-.662.356-1.422.49-2.167.38-.744-.109-1.433-.456-1.965-.988s-.878-1.221-.988-1.965c-.109-.744.024-1.504.38-2.167l-5.63-5.63c-.188-.188-.294-.444-.294-.71s.106-.522.294-.71c.093-.093.204-.167.326-.217.122-.051.252-.077.384-.077s.263.026.384.077c.122.05.233.124.326.217zm7.29 10.21.06-.01-1.56-1.56v.07c0 .398.158.78.44 1.061.281.281.662.439 1.06.439zm.22 3.5c.574-.02 1.144-.103 1.7-.25l1.58 1.58c-1.029.411-2.122.638-3.23.67h-.25c-5.89 0-9.26-5.41-9.89-6.5-.088-.152-.134-.324-.134-.5 0-.175.046-.348.134-.5.774-1.343 1.741-2.566 2.87-3.63l1.46 1.41c-.861.807-1.613 1.721-2.24 2.72.88 1.41 3.7 5.1 8 5zm9.65-5.5c.094.149.147.319.154.495s-.032.35-.114.505c-.787 1.347-1.767 2.57-2.91 3.63l-1.51-1.41c.878-.803 1.648-1.717 2.29-2.72-.89-1.41-3.71-5.11-8-5-.574.02-1.144.104-1.7.25l-1.58-1.58c1.029-.41 2.123-.637 3.23-.67 5.97-.18 9.5 5.39 10.14 6.5z" transform="matrix(5.47242 0 0 5.47242 56.7741 62.3406)"/></svg>