<svg clip-rule="evenodd" fill-rule="evenodd" stroke-linejoin="round" stroke-miterlimit="2" viewBox="0 0 245 210" xmlns="http://www.w3.org/2000/svg">
  <defs>
    <style type="text/css" id="current-color-scheme">.ColorScheme-Highlight { color:#aaaaaa; }</style>
  </defs><path class="ColorScheme-Highlight" fill="currentColor" d="m7.144 3.567h7.776c1.298 0 2.556.471 3.554 1.331l12.589 10.352c1.267 1.093 2 2.712 2 4.419v6.263c0 1.186-.455 2.324-1.265 3.162-.81.839-1.909 1.311-3.055 1.311h-21.599c-1.146 0-2.244-.472-3.055-1.311-.81-.838-1.265-1.976-1.265-3.162v-17.892c0-1.187.455-2.324 1.265-3.163.811-.839 1.909-1.31 3.055-1.31zm0 2.226c-.575 0-1.127.237-1.534.658-.407.422-.636.993-.636 1.589v17.892c0 .595.229 1.167.636 1.588s.959.658 1.534.658h21.599c.576 0 1.128-.237 1.535-.658s.635-.993.635-1.588v-6.263c0-1.046-.449-2.038-1.226-2.708l-12.589-10.352c-.612-.527-1.382-.816-2.178-.816zm.285 3.491c-.56 0-1.015-.448-1.015-1s.455-1 1.015-1h7.043c.56 0 1.014.448 1.014 1s-.454 1-1.014 1zm15.719-2.401c-.33-.269-.459-.726-.322-1.137.138-.412.513-.688.933-.688h6.013c.491 0 .962.202 1.309.561.347.36.542.847.542 1.356v4.712c0 .391-.216.748-.556.919s-.745.126-1.042-.116z" transform="matrix(8.10206 0 0 7.82482 -22.8811 -27.9099)"/><path class="ColorScheme-Highlight" fill="currentColor" d="m500 171.799c3.097 0 6.191 1.694 7.694 5.031 17.415 38.644 58.921 139.651 66.732 240.218 58.308-68.14 142.183-119.812 183.178-142.71 9.857-5.511 21.416 3.258 18.94 14.278-11.07 49.159-40.129 154.42-98.765 229.713-2.68 3.438-5.544 6.676-8.324 9.987 58.51-13.37 124.317-5.104 151.589-.555 6.065 1.012 8.822 8.058 5.031 12.911-19.664 25.172-74.061 88.674-139.345 113.746-6.799 2.604-13.8 4.666-20.826 6.51 36.446 17.92 69.078 48.227 84.117 63.366 4.271 4.297 2.384 11.448-3.403 13.242-18.02 5.586-54.087 14.834-94.956 14.834-40.666.001-104.803-37.929-125.805-57.188 2.982 57.273 21.769 95.994 21.972 96.399 6.268 12.485 1.252 27.651-11.207 33.92-3.64 1.82-7.529 2.7-11.32 2.7-9.251 0-18.178-5.087-22.602-13.908-1.062-2.124-24.139-49.779-27.299-118.778l-1.258-.333c-21.002 19.259-85.139 57.188-125.806 57.188-40.868.001-76.935-9.248-94.955-14.834-5.813-1.794-7.674-8.945-3.403-13.242 15.039-15.114 47.697-45.446 84.117-63.366-7.026-1.844-14.027-3.906-20.826-6.51-65.259-25.072-119.656-88.574-139.345-113.746-3.791-4.827-1.034-11.899 5.031-12.911 27.272-4.549 93.054-12.84 151.589.555-2.78-3.311-5.644-6.549-8.324-9.987-58.636-75.293-87.695-180.58-98.765-229.713-2.476-11.02 9.083-19.789 18.94-14.278 41.02 22.898 124.87 74.57 183.178 142.71 7.81-100.567 49.317-201.574 66.732-240.218 1.503-3.337 4.597-5.031 7.694-5.031z" transform="matrix(.160019 0 0 .160019 42.4905 48.0056)"/></svg>