<svg fill="rgb(255,50,50)" clip-rule="evenodd" fill-rule="evenodd" stroke-linejoin="round" stroke-miterlimit="2" viewBox="0 0 245 210" xmlns="http://www.w3.org/2000/svg"><path d="m7.144 3.567h7.776c1.298 0 2.556.471 3.554 1.331l12.589 10.352c1.267 1.093 2 2.712 2 4.419v6.263c0 1.186-.455 2.324-1.265 3.162-.81.839-1.909 1.311-3.055 1.311h-21.599c-1.146 0-2.244-.472-3.055-1.311-.81-.838-1.265-1.976-1.265-3.162v-17.892c0-1.187.455-2.324 1.265-3.163.811-.839 1.909-1.31 3.055-1.31zm0 2.226c-.575 0-1.127.237-1.534.658-.407.422-.636.993-.636 1.589v17.892c0 .595.229 1.167.636 1.588s.959.658 1.534.658h21.599c.576 0 1.128-.237 1.535-.658s.635-.993.635-1.588v-6.263c0-1.046-.449-2.038-1.226-2.708l-12.589-10.352c-.612-.527-1.382-.816-2.178-.816zm.285 3.491c-.56 0-1.015-.448-1.015-1s.455-1 1.015-1h7.043c.56 0 1.014.448 1.014 1s-.454 1-1.014 1zm15.719-2.401c-.33-.269-.459-.726-.322-1.137.138-.412.513-.688.933-.688h6.013c.491 0 .962.202 1.309.561.347.36.542.847.542 1.356v4.712c0 .391-.216.748-.556.919s-.745.126-1.042-.116z" transform="matrix(8.10206 0 0 7.82482 -22.8811 -27.9099)"/><path d="m446-487-122 334-5 9-29 27c-7.333 6.667-15.707 8.453-25.12 5.36-9.413-3.1-14.707-9.553-15.88-19.36l-5-38 1-11 127-347c10 11.333 21.5 20.167 34.5 26.5s26.167 10.833 39.5 13.5zm34-16c-37.667 0-69.917-13.417-96.75-40.25s-40.25-59.083-40.25-96.75c0-32 9-60 27-84s41-39.8 69-47.4v-49.6c0-11.533 3.93-21.25 11.79-29.15s17.527-11.85 29-11.85 21.21 3.95 29.21 11.85 12 17.617 12 29.15v49.6c28 7.6 51 23.4 69 47.4s27 52 27 84c0 37.667-13.417 69.917-40.25 96.75s-59.083 40.25-96.75 40.25zm.11-83c14.593 0 27.223-5.37 37.89-16.11 10.667-10.733 16-23.4 16-38 0-14.593-5.37-27.223-16.11-37.89-10.733-10.667-23.4-16-38-16-14.593 0-27.223 5.37-37.89 16.11-10.667 10.733-16 23.4-16 38 0 14.593 5.37 27.223 16.11 37.89 10.733 10.667 23.4 16 38 16zm31.89 100c13.333-2.667 26.667-7.167 40-13.5s25-15.167 35-26.5l128 346c1.333 2.667 1.333 6.333 0 11l-4 38c-1.173 9.807-6.467 16.26-15.88 19.36-9.413 3.093-17.787 1.307-25.12-5.36l-29-27c-3.333-3.333-5-6.333-5-9z" fill-rule="nonzero" transform="matrix(.139708 0 0 .139708 55.4401 195.925)"/></svg>