<svg fill="black" clip-rule="evenodd" fill-rule="evenodd" stroke-linejoin="round" stroke-miterlimit="2" viewBox="0 0 245 210" xmlns="http://www.w3.org/2000/svg"><path d="m7.144 3.567h7.776c1.298 0 2.556.471 3.554 1.331l12.589 10.352c1.267 1.093 2 2.712 2 4.419v6.263c0 1.186-.455 2.324-1.265 3.162-.81.839-1.909 1.311-3.055 1.311h-21.599c-1.146 0-2.244-.472-3.055-1.311-.81-.838-1.265-1.976-1.265-3.162v-17.892c0-1.187.455-2.324 1.265-3.163.811-.839 1.909-1.31 3.055-1.31zm0 2.226c-.575 0-1.127.237-1.534.658-.407.422-.636.993-.636 1.589v17.892c0 .595.229 1.167.636 1.588s.959.658 1.534.658h21.599c.576 0 1.128-.237 1.535-.658s.635-.993.635-1.588v-6.263c0-1.046-.449-2.038-1.226-2.708l-12.589-10.352c-.612-.527-1.382-.816-2.178-.816zm.285 3.491c-.56 0-1.015-.448-1.015-1s.455-1 1.015-1h7.043c.56 0 1.014.448 1.014 1s-.454 1-1.014 1zm15.719-2.401c-.33-.269-.459-.726-.322-1.137.138-.412.513-.688.933-.688h6.013c.491 0 .962.202 1.309.561.347.36.542.847.542 1.356v4.712c0 .391-.216.748-.556.919s-.745.126-1.042-.116z" transform="matrix(8.10206 0 0 7.82482 -22.8811 -27.9099)"/><path d="m385-641 71-114-62-104c-9.333-13.333-21.833-20-37.5-20s-27.5 6.667-35.5 20l-80 132c-7.333 11.333-9.167 23-5.5 35s11.167 21.667 22.5 29l63 39c11.333 6.667 23 8.333 35 5s21.667-10.667 29-22zm386 329-69-116c-6.667-11.333-8.333-23.333-5-36s10.667-22.333 22-29l64-37c11.333-6 23.333-7.667 36-5s22.333 9.667 29 21l44 74c7.333 12.667 11.167 26.333 11.5 41s-2.5 28.333-8.5 41c-7.333 14.667-17.833 26-31.5 34s-28.5 12-44.5 12zm-163 255-94-94c-9.333-9.333-14-20.667-14-34s4.667-24.667 14-34l94-94c7.333-7.333 16-9 26-5s15 11 15 21v27h201l-61 123c-8 14.667-18.667 26-32 34s-28 12-44 12h-64v28c0 10-5 17-15 21s-18.667 2.333-26-5zm-368-44c-14 0-26.833-3.5-38.5-10.5s-20.167-16.833-25.5-29.5c-6-11.333-8.833-23-8.5-35s3.833-23.667 10.5-35l36-59h134c13.333 0 24.667 4.667 34 14s14 20.667 14 34v74c0 13.333-4.667 24.5-14 33.5s-20.667 13.5-34 13.5zm-105-120-68-137c-7.333-12.667-10.667-26.167-10-40.5s5-28.167 13-41.5l17-29-23-14c-8.667-5.333-12.5-13.167-11.5-23.5s6.833-16.833 17.5-19.5l131-33c12.667-3.333 24.333-1.667 35 5s17.667 16.333 21 29l33 132c2.667 10-.167 18-8.5 24s-17.167 6.333-26.5 1l-23-14zm526-373-131-33c-10-2-15.833-8.333-17.5-19s2.167-18.667 11.5-24l24-14-133-220h150c14.667 0 28.333 3.833 41 11.5s23 17.5 31 29.5l55 92 24-14c8.667-6 17.167-5.667 25.5 1s11.5 15 9.5 25l-34 131c-4 12.667-11.167 22.333-21.5 29s-21.833 8.333-34.5 5z" fill-rule="nonzero" transform="matrix(.122977 0 0 .122977 63.7249 186.668)"/></svg>