<svg fill="rgb(165,135,95)" width="100%" height="100%" viewBox="0 0 245 210" version="1.1" xmlns="http://www.w3.org/2000/svg" xmlns:xlink="http://www.w3.org/1999/xlink" xml:space="preserve" xmlns:serif="http://www.serif.com/" style="fill-rule:evenodd;clip-rule:evenodd;stroke-linejoin:round;stroke-miterlimit:2;">
    <g transform="matrix(8.10206,0,0,7.82482,-22.8811,-27.9099)">
        <path d="M7.144,3.567L14.92,3.567C16.218,3.567 17.476,4.038 18.474,4.898L31.063,15.25C32.33,16.343 33.063,17.962 33.063,19.669L33.063,25.932C33.063,27.118 32.608,28.256 31.798,29.094C30.988,29.933 29.889,30.405 28.743,30.405L7.144,30.405C5.998,30.405 4.9,29.933 4.089,29.094C3.279,28.256 2.824,27.118 2.824,25.932L2.824,8.04C2.824,6.853 3.279,5.716 4.089,4.877C4.9,4.038 5.998,3.567 7.144,3.567ZM7.144,5.793C6.569,5.793 6.017,6.03 5.61,6.451C5.203,6.873 4.974,7.444 4.974,8.04L4.974,25.932C4.974,26.527 5.203,27.099 5.61,27.52C6.017,27.941 6.569,28.178 7.144,28.178L28.743,28.178C29.319,28.178 29.871,27.941 30.278,27.52C30.685,27.099 30.913,26.527 30.913,25.932L30.913,19.669C30.913,18.623 30.464,17.631 29.687,16.961L17.098,6.609C16.486,6.082 15.716,5.793 14.92,5.793L7.144,5.793ZM7.429,9.284C6.869,9.284 6.414,8.836 6.414,8.284C6.414,7.732 6.869,7.284 7.429,7.284L14.472,7.284C15.032,7.284 15.486,7.732 15.486,8.284C15.486,8.836 15.032,9.284 14.472,9.284L7.429,9.284ZM23.148,6.883C22.818,6.614 22.689,6.157 22.826,5.746C22.964,5.334 23.339,5.058 23.759,5.058L29.772,5.058C30.263,5.058 30.734,5.26 31.081,5.619C31.428,5.979 31.623,6.466 31.623,6.975L31.623,11.687C31.623,12.078 31.407,12.435 31.067,12.606C30.727,12.777 30.322,12.732 30.025,12.49L23.148,6.883Z"/>
    </g>
    <g transform="matrix(5.25184,0,0,5.25184,59.4779,64.993)">
        <path d="M22,12C22,17.523 17.523,22 12,22C6.477,22 2,17.523 2,12C2,6.477 6.477,2 12,2C17.523,2 22,6.477 22,12ZM20,12C20,7.582 16.418,4 12,4C7.582,4 4,7.582 4,12C4,16.418 7.582,20 12,20C16.418,20 20,16.418 20,12ZM6,11.6C6,10.795 6.061,10.4 6.218,10.092C6.41,9.716 6.716,9.41 7.092,9.218C7.4,9.061 7.795,9 8.6,9L15.4,9C16.205,9 16.6,9.061 16.908,9.218C17.284,9.41 17.59,9.716 17.782,10.092C17.939,10.4 18,10.795 18,11.6L18,12.4C18,13.205 17.939,13.6 17.782,13.908C17.59,14.284 17.284,14.59 16.908,14.782C16.6,14.939 16.205,15 15.4,15L8.6,15C7.795,15 7.4,14.939 7.092,14.782C6.716,14.59 6.41,14.284 6.218,13.908C6.061,13.6 6,13.205 6,12.4L6,11.6ZM8.968,11.013C8.435,11.029 8.011,11.466 8.011,11.999L8.012,12.003C8.012,12.535 8.434,12.971 8.966,12.987C10.499,12.989 13.498,12.989 15.032,12.987C15.565,12.971 15.989,12.534 15.989,12.001L15.988,11.997C15.988,11.465 15.565,11.029 15.034,11.013C13.501,11.011 10.502,11.011 8.968,11.013Z"/>
    </g>
</svg>
