<svg fill="rgb(50,175,230)" clip-rule="evenodd" fill-rule="evenodd" stroke-linejoin="round" stroke-miterlimit="2" viewBox="0 0 245 210" xmlns="http://www.w3.org/2000/svg"><path d="m7.144 3.567h7.776c1.298 0 2.556.471 3.554 1.331l12.589 10.352c1.267 1.093 2 2.712 2 4.419v6.263c0 1.186-.455 2.324-1.265 3.162-.81.839-1.909 1.311-3.055 1.311h-21.599c-1.146 0-2.244-.472-3.055-1.311-.81-.838-1.265-1.976-1.265-3.162v-17.892c0-1.187.455-2.324 1.265-3.163.811-.839 1.909-1.31 3.055-1.31zm0 2.226c-.575 0-1.127.237-1.534.658-.407.422-.636.993-.636 1.589v17.892c0 .595.229 1.167.636 1.588s.959.658 1.534.658h21.599c.576 0 1.128-.237 1.535-.658s.635-.993.635-1.588v-6.263c0-1.046-.449-2.038-1.226-2.708l-12.589-10.352c-.612-.527-1.382-.816-2.178-.816zm.285 3.491c-.56 0-1.015-.448-1.015-1s.455-1 1.015-1h7.043c.56 0 1.014.448 1.014 1s-.454 1-1.014 1zm15.719-2.401c-.33-.269-.459-.726-.322-1.137.138-.412.513-.688.933-.688h6.013c.491 0 .962.202 1.309.561.347.36.542.847.542 1.356v4.712c0 .391-.216.748-.556.919s-.745.126-1.042-.116z" transform="matrix(8.10206 0 0 7.82482 -22.8811 -27.9099)"/><path d="m25.318 26.563.276 1.065c.31.103.612.228.903.374l.948-.558c.284-.167.639-.148.903.048.637.475 1.201 1.039 1.675 1.676.197.263.216.619.049.902l-.558.948c.146.292.271.594.374.904l1.065.275c.318.083.556.348.604.673.115.785.115 1.584 0 2.369-.048.325-.286.59-.604.673l-1.065.275c-.103.31-.228.612-.374.904l.558.948c.167.283.148.639-.049.902-.474.637-1.038 1.201-1.675 1.675-.264.197-.619.216-.903.049l-.947-.558c-.292.146-.594.271-.904.374l-.276 1.065c-.082.318-.347.556-.672.604-.786.115-1.584.115-2.369 0-.326-.048-.591-.286-.673-.604l-.275-1.065c-.31-.103-.612-.228-.904-.374l-.948.558c-.283.167-.639.148-.903-.049-.636-.474-1.201-1.038-1.675-1.675-.196-.263-.215-.619-.049-.902l.559-.948c-.147-.292-.272-.594-.374-.904l-1.066-.275c-.318-.083-.556-.348-.603-.673-.115-.785-.115-1.584 0-2.369.047-.325.285-.59.603-.673l1.065-.275c.103-.31.228-.612.375-.904l-.559-.948c-.166-.283-.147-.639.049-.902.474-.637 1.039-1.201 1.675-1.676.264-.196.62-.215.903-.048l.948.558c.292-.146.594-.271.903-.374l.276-1.065c.082-.319.347-.556.673-.604.785-.115 1.583-.115 2.369 0 .325.048.59.285.672.604zm-1.857 3.901c-1.981 0-3.59 1.609-3.59 3.59 0 1.982 1.609 3.591 3.59 3.591 1.982 0 3.591-1.609 3.591-3.591 0-1.981-1.609-3.59-3.591-3.59zm.005-7.226c-.193 0-.385-.035-.576-.106-.191-.07-.372-.197-.543-.378l-7.139-9.106c-.384-.464-.456-.963-.216-1.497.239-.535.664-.802 1.274-.802h2.542v-5.657c0-.396.137-.737.412-1.023s.611-.429 1.009-.429h6.474c.396 0 .737.143 1.023.429s.429.627.429 1.023v5.657h2.542c.61 0 1.035.267 1.274.802.24.534.178 1.033-.185 1.497l-7.2 9.106c-.171.181-.352.308-.543.378-.191.071-.383.106-.577.106zm0-3.781 3.873-4.75h-2.058v-7.593h-3.63v7.593h-2.057z" transform="matrix(2.76439 0 0 2.76439 57.5818 63.7762)"/></svg>