<svg fill="black" clip-rule="evenodd" fill-rule="evenodd" stroke-linejoin="round" stroke-miterlimit="2" viewBox="0 0 48 48" xmlns="http://www.w3.org/2000/svg"><path d="m57.571 7282.19c.729-.84 1.22-2.02 1.086-3.19-1.051.04-2.322.67-3.075 1.52-.677.74-1.267 1.94-1.108 3.09 1.172.09 2.368-.57 3.097-1.42" transform="matrix(2.04952 0 0 2.04952 -87.7655 -14915)"/><path d="m8.777 42.568c-3.944-5.934-6.431-18.727-2.309-25.58.623-1.036 1.392-1.959 2.271-2.747.588-.571 1.21-1.039 1.837-1.422 1.417-.865 2.861-1.295 4.008-1.507.705-.131 1.298-.179 1.702-.195.302-.029.604-.04.904-.035 1.263-.021 2.496.251 3.64.608 1.643.514 3.103 1.202 4.207 1.445 1.103-.243 2.563-.931 4.207-1.445 1.143-.357 2.376-.629 3.64-.608.299-.005.601.006.904.035.404.016.996.064 1.702.195 1.512.112 2.887.654 4.007 1.507 1.793 1.365 2.932 3.526 2.932 5.998 0 1.155-.249 2.242-.696 3.211-1.186 2.57-3.771 4.317-6.832 4.317h-3.746v4.674h3.746c2.557 0 4.781 1.219 6.136 3.118.879 1.232 1.392 2.751 1.392 4.41 0 1.488-.413 2.864-1.133 4.021-.104.157-.21.309-.316.456-.138.191-.279.37-.424.538-.428.483-.917.909-1.458 1.267-1.192.789-2.632 1.245-4.197 1.245-.381 0-.756-.027-1.121-.079-.353 0-.711-.008-1.074-.021-2.987-.115-4.147-1.821-7.669-1.881-3.522.06-4.683 1.766-7.67 1.881-.363.013-.721.021-1.074.021-.037-.001-.073-.001-.109-.001h-.28c-.121.002-.241.003-.36.001-1.214.013-2.322-.143-3.331-.557-.429-.158-.843-.359-1.238-.609-.541-.358-1.03-.784-1.457-1.267-.146-.168-.287-.347-.425-.538-.106-.147-.212-.299-.316-.456zm-.437-20.54c-.363 1.658-.452 3.495-.367 5.356.104 2.279.484 4.607 1.063 6.753 1.355-1.899 3.579-3.118 6.136-3.118h3.746v-4.674h-3.746c-3.061 0-5.646-1.747-6.832-4.317zm19.572-6.055c-.785.29-1.494.544-2.1.678-.511.113-1.04.113-1.55 0-.607-.134-1.316-.388-2.101-.678.348.874.538 1.833.538 2.844v3.747h4.675v-3.747c0-1.011.19-1.97.538-2.844zm-5.54 24.815c.764-.167 1.615-.278 2.603-.295h.123c.988.017 1.839.128 2.604.295-.214-.705-.328-1.458-.328-2.241v-3.747h-4.675v3.747c0 .783-.114 1.536-.327 2.241zm8.783-21.971v3.747h3.746c2.123 0 3.747-1.624 3.747-3.747s-1.624-3.746-3.747-3.746-3.746 1.623-3.746 3.746zm-12.237 0c0-2.123-1.623-3.746-3.746-3.746s-3.747 1.623-3.747 3.746 1.624 3.747 3.747 3.747h3.746zm0 19.73v-3.747h-3.746c-2.123 0-3.747 1.624-3.747 3.747s1.624 3.746 3.747 3.746 3.746-1.623 3.746-3.746zm8.456-12.202h-4.675v4.674h4.675zm7.527 8.455h-3.746v3.747c0 2.123 1.623 3.746 3.746 3.746s3.747-1.623 3.747-3.746-1.624-3.747-3.747-3.747z" transform="matrix(.891541 0 0 .891541 2.53653 3.46149)"/></svg>