<svg fill="black" clip-rule="evenodd" fill-rule="evenodd" stroke-linejoin="round" stroke-miterlimit="2" viewBox="0 0 245 210" xmlns="http://www.w3.org/2000/svg"><path d="m7.144 3.567h7.776c1.298 0 2.556.471 3.554 1.331l12.589 10.352c1.267 1.093 2 2.712 2 4.419v6.263c0 1.186-.455 2.324-1.265 3.162-.81.839-1.909 1.311-3.055 1.311h-21.599c-1.146 0-2.244-.472-3.055-1.311-.81-.838-1.265-1.976-1.265-3.162v-17.892c0-1.187.455-2.324 1.265-3.163.811-.839 1.909-1.31 3.055-1.31zm0 2.226c-.575 0-1.127.237-1.534.658-.407.422-.636.993-.636 1.589v17.892c0 .595.229 1.167.636 1.588s.959.658 1.534.658h21.599c.576 0 1.128-.237 1.535-.658s.635-.993.635-1.588v-6.263c0-1.046-.449-2.038-1.226-2.708l-12.589-10.352c-.612-.527-1.382-.816-2.178-.816zm.285 3.491c-.56 0-1.015-.448-1.015-1s.455-1 1.015-1h7.043c.56 0 1.014.448 1.014 1s-.454 1-1.014 1zm15.719-2.401c-.33-.269-.459-.726-.322-1.137.138-.412.513-.688.933-.688h6.013c.491 0 .962.202 1.309.561.347.36.542.847.542 1.356v4.712c0 .391-.216.748-.556.919s-.745.126-1.042-.116z" transform="matrix(8.10206 0 0 7.82482 -22.8811 -27.9099)"/><path d="m53.042 31.667c2.186 0 3.958 1.772 3.958 3.958s-1.772 3.958-3.958 3.958-3.959-1.772-3.959-3.958 1.773-3.958 3.959-3.958zm-31.667-1.584c3.061 0 5.542 2.481 5.542 5.542 0 0-.003.062-.008.145-.014.266.129.515.366.638 1.873.971 9.942 5.156 11.18 5.798.098.05.215.041.303-.023.904-.64 2.008-1.016 3.2-1.016 0 0 3.066-4.292 3.802-5.322.104-.146.162-.32.167-.499.142-3.806 3.273-6.846 7.115-6.846 3.935 0 7.125 3.19 7.125 7.125 0 3.841-3.04 6.973-6.846 7.12-.178.005-.351.063-.496.166-1.033.732-5.325 3.797-5.325 3.797 0 3.061-2.481 5.542-5.542 5.542-3.06 0-5.541-2.481-5.541-5.542v-.031c0-.109-.06-.209-.157-.259-1.273-.66-9.727-5.045-11.524-5.976-.205-.107-.451-.101-.652.015-.8.453-1.724.71-2.709.71-3.061 0-5.542-2.481-5.542-5.542s2.481-5.542 5.542-5.542zm22.228 14.792c1.168.596 1.633 2.026 1.038 3.195-.596 1.168-2.026 1.633-3.195 1.038 0 0-1.154-.599-2.116-1.098-.228-.119-.506-.075-.686.109-.179.183-.217.463-.094.687.735 1.108 1.984 1.861 3.408 1.861 2.187 0 3.959-1.772 3.959-3.959 0-2.186-1.773-3.958-3.959-3.958h-.006c-.275.001-.514.19-.578.457-.065.267.061.544.306.671.911.473 1.923.997 1.923.997zm-22.228-13.208c-2.186 0-3.958 1.772-3.958 3.958s1.772 3.958 3.958 3.958h.005c.191 0 .357-.131.402-.317s-.043-.378-.212-.466c-.721-.374-1.532-.795-1.532-.795-1.169-.595-1.633-2.025-1.038-3.194.596-1.169 2.026-1.633 3.194-1.038 0 0 1.492.773 2.417 1.253.143.075.317.059.445-.04.127-.098.187-.262.151-.42-.478-1.67-2.011-2.899-3.832-2.899zm31.667-1.584c-3.061 0-5.542 2.481-5.542 5.542s2.481 5.542 5.542 5.542c3.06 0 5.541-2.481 5.541-5.542s-2.481-5.542-5.541-5.542z" fill-rule="nonzero" transform="matrix(2.63855 0 0 2.63855 22.235 21.4835)"/></svg>