<svg fill="black" clip-rule="evenodd" fill-rule="evenodd" stroke-linejoin="round" stroke-miterlimit="2" viewBox="0 0 245 210" xmlns="http://www.w3.org/2000/svg"><path d="m7.144 3.567h7.776c1.298 0 2.556.471 3.554 1.331l12.589 10.352c1.267 1.093 2 2.712 2 4.419v6.263c0 1.186-.455 2.324-1.265 3.162-.81.839-1.909 1.311-3.055 1.311h-21.599c-1.146 0-2.244-.472-3.055-1.311-.81-.838-1.265-1.976-1.265-3.162v-17.892c0-1.187.455-2.324 1.265-3.163.811-.839 1.909-1.31 3.055-1.31zm0 2.226c-.575 0-1.127.237-1.534.658-.407.422-.636.993-.636 1.589v17.892c0 .595.229 1.167.636 1.588s.959.658 1.534.658h21.599c.576 0 1.128-.237 1.535-.658s.635-.993.635-1.588v-6.263c0-1.046-.449-2.038-1.226-2.708l-12.589-10.352c-.612-.527-1.382-.816-2.178-.816zm.285 3.491c-.56 0-1.015-.448-1.015-1s.455-1 1.015-1h7.043c.56 0 1.014.448 1.014 1s-.454 1-1.014 1zm15.719-2.401c-.33-.269-.459-.726-.322-1.137.138-.412.513-.688.933-.688h6.013c.491 0 .962.202 1.309.561.347.36.542.847.542 1.356v4.712c0 .391-.216.748-.556.919s-.745.126-1.042-.116z" transform="matrix(8.10206 0 0 7.82482 -22.8811 -27.9099)"/><path d="m13.8 6.88c1.88 1.24 3.08 3.36 3 5.76v8.72c0 1.28-1.04 2.32-2.32 2.32h-1.6l.04 2.96c0 .44-.36.84-.84.84-.44 0-.84-.36-.84-.84l-.04-2.96h-2.68l.04 2.96c0 .44-.36.84-.84.84-.44 0-.84-.36-.84-.84l-.04-2.96h-1.56c-1.28 0-2.32-1.04-2.32-2.32v-8.72c0-2.4 1.24-4.52 3.08-5.76l-.68-1.08c-.24-.4-.12-.92.28-1.16s.92-.12 1.16.28l.76 1.2c.72-.28 1.52-.44 2.36-.44.8 0 1.6.16 2.36.44l.76-1.2c.24-.4.76-.52 1.16-.28s.52.76.28 1.16zm-3.88.52c-2.6 0-4.8 1.88-5.2 4.4h10.4c-.4-2.48-2.6-4.4-5.2-4.4zm1.964 1.787c.531 0 .962.431.962.962s-.431.962-.962.962-.963-.431-.963-.962.432-.962.963-.962zm-3.927 0c.531 0 .962.431.962.962s-.431.962-.962.962-.963-.431-.963-.962.432-.962.963-.962zm6.603 12.813c.32 0 .64-.28.64-.64v-7.88h-10.56v7.88c0 .36.28.64.64.64zm5.28-8.6v6.2c0 .48-.4.84-.84.84s-.84-.4-.84-.84v-6.2c0-.48.4-.84.84-.84s.84.36.84.84zm-18.12 0v6.2c0 .48-.4.84-.84.84s-.88-.36-.88-.84v-6.2c0-.48.4-.84.84-.84s.88.36.88.84z" transform="matrix(4.57415 0 0 4.57415 77.1245 54.8359)"/></svg>