<svg fill="rgb(255,205,0)" clip-rule="evenodd" fill-rule="evenodd" stroke-linejoin="round" stroke-miterlimit="2" viewBox="0 0 245 210" xmlns="http://www.w3.org/2000/svg"><path d="m7.144 3.567h7.776c1.298 0 2.556.471 3.554 1.331l12.589 10.352c1.267 1.093 2 2.712 2 4.419v6.263c0 1.186-.455 2.324-1.265 3.162-.81.839-1.909 1.311-3.055 1.311h-21.599c-1.146 0-2.244-.472-3.055-1.311-.81-.838-1.265-1.976-1.265-3.162v-17.892c0-1.187.455-2.324 1.265-3.163.811-.839 1.909-1.31 3.055-1.31zm0 2.226c-.575 0-1.127.237-1.534.658-.407.422-.636.993-.636 1.589v17.892c0 .595.229 1.167.636 1.588s.959.658 1.534.658h21.599c.576 0 1.128-.237 1.535-.658s.635-.993.635-1.588v-6.263c0-1.046-.449-2.038-1.226-2.708l-12.589-10.352c-.612-.527-1.382-.816-2.178-.816zm.285 3.491c-.56 0-1.015-.448-1.015-1s.455-1 1.015-1h7.043c.56 0 1.014.448 1.014 1s-.454 1-1.014 1zm15.719-2.401c-.33-.269-.459-.726-.322-1.137.138-.412.513-.688.933-.688h6.013c.491 0 .962.202 1.309.561.347.36.542.847.542 1.356v4.712c0 .391-.216.748-.556.919s-.745.126-1.042-.116z" transform="matrix(8.10206 0 0 7.82482 -22.8811 -27.9099)"/><path d="m4.501 1.213v-.001c1.315-.683 2.83-.961 4.299-.805 1.55.156 3.044.811 4.219 1.84 1.313 1.138 2.225 2.735 2.532 4.453.315 1.709.043 3.524-.774 5.057-.984 1.87-2.76 3.308-4.8 3.835-.414.133-.951-.05-1.047-.525-.002-.008-.003-.016-.003-.024-.054-.86.009-1.726-.031-2.588-.016-.239-.158-.438-.302-.616-.156-.175-.199-.42-.144-.642.056-.223.211-.419.433-.498.32-.115.649-.217.934-.407l.008-.005c.717-.426 1.259-1.287 1.029-2.139-.002-.008-.003-.016-.004-.024-.023-.173-.118-.318-.206-.466-.114-.193-.218-.389-.229-.617-.001-.014 0-.028.003-.042.071-.374.146-.749.182-1.129-.326.11-.656.222-.919.448-.143.135-.314.173-.492.161-.139-.01-.283-.052-.413-.081l-.003-.001c-.589-.146-1.203-.094-1.785.048-.189.055-.354.005-.508-.086-.108-.063-.21-.151-.318-.205-.248-.122-.507-.218-.77-.302.022.384.06.767.128 1.146l.001.004c.035.153.004.294-.057.428-.046.102-.112.199-.16.295l-.004.007c-.275.494-.276 1.124-.012 1.623l.001.002c.335.651.987 1.081 1.671 1.286.303.071.574.315.604.642.033.259-.087.461-.231.657-.097.131-.211.256-.219.426v.005c-.06.863.024 1.733-.009 2.599v.003c-.022.371-.378.671-.74.647-.357.005-.687-.3-.708-.661-.02-.359-.013-.719-.016-1.079-.575-.103-1.166-.205-1.663-.523-.233-.14-.343-.395-.472-.62l-.001-.002c-.282-.501-.663-.95-1.135-1.279-.065-.045-.092-.128-.068-.203.025-.075.096-.124.175-.122.299.009.64.026.947.113.34.097.637.28.814.611l.004.008c.243.514.851.64 1.381.63.017-.253.067-.501.135-.745-.917-.456-1.69-1.255-1.991-2.251-.261-.828-.159-1.753.255-2.513-.092-.744-.157-1.498-.064-2.244l.001-.004c.063-.424.538-.711.941-.572.719.187 1.443.401 2.102.756.674-.123 1.369-.123 2.041.01.647-.354 1.357-.574 2.065-.767.424-.147.925.18.953.634.076.704.009 1.418-.125 2.112.439.778.569 1.733.294 2.591-.301 1-1.08 1.789-1.992 2.256.212.691.121 1.428.129 2.146 1.189-.497 2.219-1.373 2.897-2.476v-.001c.77-1.234 1.087-2.743.879-4.184v-.001c-.199-1.47-.943-2.855-2.051-3.831l-.001-.001c-.929-.829-2.11-1.366-3.342-1.514h-.001c-1.485-.19-3.03.195-4.259 1.054-1.213.838-2.115 2.119-2.488 3.552l-.001.001c-.296 1.104-.272 2.286.041 3.379.158.408-.104.914-.538.989-.366.084-.763-.155-.856-.521-.534-1.777-.408-3.748.357-5.438.707-1.583 1.962-2.91 3.497-3.699z" transform="matrix(6.87889 0 0 6.87889 67.4683 72.9874)"/></svg>