<svg fill="rgb(255,205,0)" clip-rule="evenodd" fill-rule="evenodd" stroke-linejoin="round" stroke-miterlimit="2" viewBox="0 0 48 48" xmlns="http://www.w3.org/2000/svg"><g fill-rule="nonzero"><path d="m461.73 502.24c-2.57-1.79-8.47-2.45-13.08-1.56-.54-4.46-3-8.37-7.29-11.83l-2.47-1.79-1.72 2.57c-2.234 3.766-3.244 8.135-2.89 12.5.185 2.419.957 4.757 2.25 6.81-2.678 1.389-5.664 2.077-8.68 2h-69.898c-2.251-.001-4.399.946-5.917 2.608-1.519 1.663-2.268 3.887-2.064 6.129.631 6.363 2.72 14.616 8.159 21.273 6.65 8.15 16.51 12.27 29.48 12.27 28.09 0 48.89-13.5 58.64-37.94 3.86.11 12.11 0 16.3-8.37.11-.22.32-.67 1.07-2.34l.43-.89-2.36-1.45z" transform="matrix(.379576 0 0 .379576 -130.485 -170.32)"/><path d="m404.415 484.143c0-1.251-1.014-2.265-2.264-2.265-2.089 0-5.173 0-7.261 0-1.251 0-2.265 1.014-2.265 2.265v6.631c0 1.251 1.014 2.264 2.265 2.264h7.261c1.25 0 2.264-1.013 2.264-2.264 0-1.933 0-4.698 0-6.631zm-16.204 0c0-1.251-1.014-2.265-2.265-2.265-2.088 0-5.172 0-7.261 0-1.251 0-2.264 1.014-2.264 2.265v6.631c0 1.251 1.013 2.264 2.264 2.264h7.261c1.251 0 2.265-1.013 2.265-2.264 0-1.933 0-4.698 0-6.631zm-16.34 15.654c0-1.25-1.014-2.264-2.264-2.264-2.089 0-5.173 0-7.261 0-1.251 0-2.265 1.014-2.265 2.264v6.631c0 1.251 1.014 2.265 2.265 2.265h7.261c1.25 0 2.264-1.014 2.264-2.265 0-1.932 0-4.698 0-6.631zm16.195 0c0-1.25-1.014-2.264-2.265-2.264-2.088 0-5.172 0-7.261 0-1.25 0-2.264 1.014-2.264 2.264v6.631c0 1.251 1.014 2.265 2.264 2.265h7.261c1.251 0 2.265-1.014 2.265-2.265 0-1.932 0-4.698 0-6.631zm16.204 0c0-1.25-1.014-2.264-2.264-2.264-2.089 0-5.173 0-7.261 0-1.251 0-2.265 1.014-2.265 2.264v6.631c0 1.251 1.014 2.265 2.265 2.265h7.261c1.25 0 2.264-1.014 2.264-2.265 0-1.932 0-4.698 0-6.631zm16.205 0c0-1.25-1.014-2.264-2.265-2.264-2.088 0-5.172 0-7.261 0-1.25 0-2.264 1.014-2.264 2.264v6.631c0 1.251 1.014 2.265 2.264 2.265h7.261c1.251 0 2.265-1.014 2.265-2.265 0-1.932 0-4.698 0-6.631z" transform="matrix(.4416 0 0 .4416 -153.286 -202.945)"/></g></svg>