<svg fill="rgb(255,205,0)" clip-rule="evenodd" fill-rule="evenodd" stroke-linejoin="round" stroke-miterlimit="2" viewBox="0 0 48 48" xmlns="http://www.w3.org/2000/svg"><path d="m31.623 15.807c.921 1.05 1.44 2.425 1.44 3.862v7.28c0 1.909-1.494 3.456-3.338 3.456h-23.563c-.886 0-1.735-.364-2.36-1.012-.626-.648-.978-1.527-.978-2.444v-19.926c0-.917.352-1.796.978-2.444.625-.648 1.474-1.012 2.36-1.012h8.758c1.298 0 2.556.471 3.554 1.331l.194.159h9.618c1.843 0 3.337 1.548 3.337 3.456zm-2.449 1.791-12.592-10.355c-.468-.401-1.055-.621-1.662-.621h-7.301c-.489 0-.958.202-1.304.56-.346.357-.54.843-.54 1.349v16.909c0 .506.194.992.54 1.349.346.358.815.56 1.304.56h20.649c.489 0 .958-.202 1.304-.559.346-.358.54-.844.54-1.35v-5.771c0-.795-.339-1.549-.926-2.061z" transform="matrix(1.49809 0 0 1.44683 -2.88106 -.60089)"/><path d="m571-364v-161h49l56 56v105zm-51 75h208c6.513 0 11.977-2.197 16.39-6.59 4.407-4.387 6.61-9.827 6.61-16.32v-169.09c0-5.713-1.167-11.33-3.5-16.85-2.333-5.527-5.5-10.577-9.5-15.15l-73-73c-4.573-4.667-9.57-8.167-14.99-10.5-5.427-2.333-11.43-3.5-18.01-3.5h-112c-6.8 0-12.5 2.4-17.1 7.2s-6.9 10.4-6.9 16.8v264c0 6.513 2.4 11.977 7.2 16.39 4.8 4.407 10.4 6.61 16.8 6.61z" fill-rule="nonzero" transform="matrix(.0451914 0 0 .0451914 -4.17685 48.0379)"/></svg>