<svg clip-rule="evenodd" fill-rule="evenodd" stroke-linejoin="round" stroke-miterlimit="2" viewBox="0 0 250 250" xmlns="http://www.w3.org/2000/svg"><g transform="matrix(.295854 0 0 .295854 -17.1577 267.158)"><path d="m259-772-70 89.444v493.556l582 .326v-502.326l-71.41-81z" fill="#fff"/><path d="m189-95c-26.533 0-48.833-9.033-66.9-27.1s-27.1-40.367-27.1-66.9v-493c0-10.587 1.833-20.94 5.5-31.06s8.897-19.42 15.69-27.9l72.81-95.04c8.5-10.687 18.703-18.36 30.61-23.02 11.907-4.653 24.703-6.98 38.39-6.98h444c13 0 25.457 2.327 37.37 6.98 11.913 4.66 22.123 12.333 30.63 23.02l74.81 95.04c6.127 8.48 11.19 17.78 15.19 27.9s6 20.473 6 31.06v493c0 26.533-9.13 48.833-27.39 66.9-18.267 18.067-40.803 27.1-67.61 27.1zm48.48-649.502c-2.698 3.448-3.194 8.133-1.276 12.069s5.912 6.433 10.291 6.433h465.845c4.39 0 8.393-2.51 10.305-6.462 1.912-3.951 1.395-8.648-1.329-12.09l-12.522-15.82c-5.814-7.345-14.667-11.628-24.034-11.628h-410.826c-9.426 0-18.328 4.337-24.138 11.76zm533.52 134.016c0-7.562-3.004-14.815-8.352-20.162-5.347-5.348-12.6-8.352-20.162-8.352h-524.972c-7.562 0-14.815 3.004-20.162 8.352-5.348 5.347-8.352 12.6-8.352 20.162v392.972c0 7.562 3.004 14.815 8.352 20.162 5.347 5.348 12.6 8.352 20.162 8.352h524.972c7.562 0 14.815-3.004 20.162-8.352 5.348-5.347 8.352-12.6 8.352-20.162zm-290.054 23.249c47.632 0 88.339 17.038 122.123 51.114 33.779 34.082 50.668 74.938 50.668 122.57 0 47.631-16.889 88.335-50.668 122.114-33.784 33.784-74.64 50.676-122.569 50.676-47.334 0-88.041-16.892-122.123-50.676-34.076-33.779-51.114-74.632-51.114-122.561 0-47.333 17.038-88.041 51.114-122.123 34.082-34.076 74.938-51.114 122.569-51.114zm-24.556 190.204-36.612-36.612c-4.227-4.168-9.51-6.251-15.85-6.251-6.341 0-11.475 2.241-15.404 6.724-4.763 4.25-7.144 9.561-7.144 15.931 0 6.369 2.381 11.617 7.144 15.743l38.398 38.398c8.602 8.929 18.642 13.394 30.12 13.394 11.471 0 21.374-4.465 29.709-13.394l86.618-87.512c4.763-4.227 7.144-9.51 7.144-15.85s-2.381-11.624-7.144-15.85c-4.227-4.465-9.51-6.698-15.85-6.698s-11.475 2.084-15.404 6.251z"/></g></svg>