<svg clip-rule="evenodd" fill-rule="evenodd" stroke-linejoin="round" stroke-miterlimit="2" viewBox="0 0 250 250" xmlns="http://www.w3.org/2000/svg"><g transform="matrix(.295854 0 0 .295854 -17.1577 267.158)"><path d="m259-772-70 89.444v493.556l582 .326v-502.326l-71.41-81z" fill="#fff"/><path d="m189-95c-26.533 0-48.833-9.033-66.9-27.1s-27.1-40.367-27.1-66.9v-493c0-10.587 1.833-20.94 5.5-31.06s8.897-19.42 15.69-27.9l72.81-95.04c8.5-10.687 18.703-18.36 30.61-23.02 11.907-4.653 24.703-6.98 38.39-6.98h444c13 0 25.457 2.327 37.37 6.98 11.913 4.66 22.123 12.333 30.63 23.02l74.81 95.04c6.127 8.48 11.19 17.78 15.19 27.9s6 20.473 6 31.06v493c0 26.533-9.13 48.833-27.39 66.9-18.267 18.067-40.803 27.1-67.61 27.1zm341.843-587.495c.001 11.536-4.582 22.599-12.739 30.756s-19.22 12.739-30.755 12.739h-269.835c-7.562 0-14.815 3.004-20.162 8.352-5.348 5.347-8.352 12.6-8.352 20.162v392.972c0 7.562 3.004 14.815 8.352 20.162 5.347 5.348 12.6 8.352 20.162 8.352h524.972c7.562 0 14.815-3.004 20.162-8.352 5.348-5.347 8.352-12.6 8.352-20.162v-445.966c0-17.735-6.471-34.86-18.199-48.163l-44.027-49.939c-5.839-6.624-14.243-10.418-23.072-10.418h-411.716c-9.459 0-18.392 4.353-24.222 11.802l-12.227 15.623c-2.709 3.462-3.206 8.165-1.281 12.116 1.925 3.952 5.936 6.459 10.331 6.459h240.762c11.536 0 22.598 4.582 30.755 12.739s12.74 19.22 12.739 30.756zm90.035 87.616c-3.012-7.03-8.582-12.653-15.582-15.733l-27.336-12.028c-7.136-3.568-10.705-9.43-10.705-17.586 0-8.155 3.569-14.017 10.705-17.585l26.867-11.285c7.283-3.059 13.076-8.852 16.135-16.135l11.285-26.867c3.568-7.136 9.43-10.705 17.585-10.705 8.156 0 14.018 3.569 17.586 10.705l11.284 26.867c3.059 7.283 8.853 13.076 16.136 16.135l26.867 11.285c7.136 3.568 10.704 9.43 10.704 17.585 0 8.156-3.568 14.018-10.704 17.586l-27.336 12.028c-7 3.08-12.57 8.703-15.582 15.733l-11.369 26.526c-3.568 7.646-9.43 11.469-17.586 11.469-8.155 0-14.017-3.823-17.585-11.469zm-141.339 354.116c-47.609 0-88.308-17.047-122.095-51.142-33.788-34.094-50.681-74.485-50.681-121.174 0-48.18 16.89-89.254 50.672-123.219 33.781-33.96 74.636-50.939 122.565-50.939 47.302 0 88.001 16.979 122.095 50.939 34.095 33.965 51.142 75.039 51.142 123.219 0 46.689-17.047 87.08-51.142 121.174-34.094 34.095-74.946 51.142-122.556 51.142zm22.268-196.378c1.507 1.264 3.109 2.266 4.783 3.027l4.145 1.361 4.283.443 4.284-.443 4.145-1.361c2.357-1.072 4.57-2.62 6.587-4.717.917-.878 1.754-1.841 2.483-2.848l2.122-3.704 1.281-4.077c.266-1.329.405-2.714.405-4.157 0-5.564-1.941-10.587-6.041-14.98l-.253-.261-34.29-34.29c-1.993-1.994-4.273-3.559-6.836-4.698-1.352-.6-2.705-1.044-4.056-1.344l-4.349-.481-4.349.481c-1.351.3-2.704.744-4.056 1.344-2.563 1.139-4.843 2.704-6.836 4.698l-34.29 34.29-.253.261c-4.125 4.42-6.041 9.415-6.041 14.866 0 5.636 2.029 10.632 6.294 14.898 4.16 4.16 9.089 6.256 14.735 6.405l4.351-.347 4.234-1.314c1.715-.753 3.357-1.762 4.904-3.056v41.134c0 6.033 2.108 11.055 6.18 15.127s9.095 6.18 15.127 6.18 11.055-2.108 15.127-6.18 6.18-9.094 6.18-15.127zm-60.169 121.576h77.724c6.032 0 11.055-2.108 15.126-6.18 4.072-4.072 6.18-9.094 6.18-15.127 0-6.032-2.108-11.055-6.18-15.127-4.071-4.071-9.094-6.179-15.126-6.179h-77.724c-6.032 0-11.055 2.108-15.126 6.179-4.072 4.072-6.18 9.095-6.18 15.127 0 6.033 2.108 11.055 6.18 15.127 4.071 4.072 9.094 6.18 15.126 6.18z"/></g></svg>