<svg clip-rule="evenodd" fill-rule="evenodd" stroke-linejoin="round" stroke-miterlimit="2" viewBox="0 0 250 250" xmlns="http://www.w3.org/2000/svg"><g transform="matrix(.295854 0 0 .295854 -17.1577 267.158)"><path d="m259-772-70 89.444v493.556l582 .326v-502.326l-71.41-81z" fill="#fff"/><path d="m189-95c-26.533 0-48.833-9.033-66.9-27.1s-27.1-40.367-27.1-66.9v-493c0-10.587 1.833-20.94 5.5-31.06s8.897-19.42 15.69-27.9l72.81-95.04c8.5-10.687 18.703-18.36 30.61-23.02 11.907-4.653 24.703-6.98 38.39-6.98h444c13 0 25.457 2.327 37.37 6.98 11.913 4.66 22.123 12.333 30.63 23.02l74.81 95.04c6.127 8.48 11.19 17.78 15.19 27.9s6 20.473 6 31.06v493c0 26.533-9.13 48.833-27.39 66.9-18.267 18.067-40.803 27.1-67.61 27.1zm48.48-649.502c-2.698 3.448-3.194 8.133-1.276 12.069s5.912 6.433 10.291 6.433h465.845c4.39 0 8.393-2.51 10.305-6.462 1.912-3.951 1.395-8.648-1.329-12.09l-12.522-15.82c-5.814-7.345-14.667-11.628-24.034-11.628h-410.826c-9.426 0-18.328 4.337-24.138 11.76zm533.52 134.016c0-7.562-3.004-14.815-8.352-20.162-5.347-5.348-12.6-8.352-20.162-8.352h-524.972c-7.562 0-14.815 3.004-20.162 8.352-5.348 5.347-8.352 12.6-8.352 20.162v392.972c0 7.562 3.004 14.815 8.352 20.162 5.347 5.348 12.6 8.352 20.162 8.352h524.972c7.562 0 14.815-3.004 20.162-8.352 5.348-5.347 8.352-12.6 8.352-20.162zm-331.302 373.373c-9.418 4.069-20.399.941-26.257-7.481l-22.214-31.932c-3.041-4.371-7.592-7.462-12.776-8.679l-35.153-8.25c-10.412-2.444-17.46-12.151-16.561-22.809l3.135-37.134c.492-5.831-1.406-11.611-5.259-16.015l-23.812-27.213c-7.054-8.062-7.121-20.08-.157-28.22l24.126-28.199c3.757-4.391 5.594-10.107 5.099-15.865l-3.102-36.126c-.916-10.671 6.138-20.398 16.566-22.841l34.963-8.193c5.336-1.251 9.996-4.486 13.033-9.048l20.82-31.282c5.726-8.603 16.749-11.935 26.281-7.944l33.265 13.929c5.376 2.251 11.435 2.23 16.795-.058l32.364-13.814c9.445-4.032 20.423-.844 26.239 7.62l21.775 31.685c3.023 4.399 7.57 7.521 12.761 8.761l35.534 8.491c10.453 2.497 17.472 12.311 16.457 23.01l-3.385 35.699c-.552 5.823 1.284 11.621 5.089 16.063l24.025 28.053c6.974 8.143 6.907 20.173-.158 28.237l-23.697 27.052c-3.908 4.462-5.807 10.337-5.247 16.242l3.406 35.977c1 10.563-5.832 20.284-16.109 22.921l-36.007 9.241c-5.135 1.318-9.604 4.48-12.554 8.883l-21.095 31.48c-5.743 8.57-16.75 11.872-26.262 7.879l-33.226-13.949c-5.412-2.272-11.515-2.24-16.902.088zm16.782-152.218-37.204-39.392c-4.103-4.377-8.958-6.566-14.564-6.566-5.61 0-10.604 1.824-14.981 5.471-4.376 4.563-6.565 9.626-6.565 15.188 0 5.559 2.189 10.527 6.565 14.904l48.147 47.6c5.238 5.471 11.471 8.206 18.701 8.206 7.229 0 13.397-2.735 18.503-8.206l95.2-94.652c4.012-3.648 6.018-8.39 6.018-14.226s-2.189-10.76-6.566-14.772c-4.012-3.283-8.753-4.833-14.225-4.65-5.471.182-9.848 2.097-13.131 5.744z"/></g></svg>