<svg clip-rule="evenodd" fill-rule="evenodd" stroke-linejoin="round" stroke-miterlimit="2" viewBox="0 0 250 250" xmlns="http://www.w3.org/2000/svg"><g transform="matrix(.295854 0 0 .295854 -17.1577 267.158)"><path d="m259-772-70 89.444v493.556l582 .326v-502.326l-71.41-81z" fill="#fff"/><path d="m189-95c-26.533 0-48.833-9.033-66.9-27.1s-27.1-40.367-27.1-66.9v-493c0-10.587 1.833-20.94 5.5-31.06s8.897-19.42 15.69-27.9l72.81-95.04c8.5-10.687 18.703-18.36 30.61-23.02 11.907-4.653 24.703-6.98 38.39-6.98h444c13 0 25.457 2.327 37.37 6.98 11.913 4.66 22.123 12.333 30.63 23.02l74.81 95.04c6.127 8.48 11.19 17.78 15.19 27.9s6 20.473 6 31.06v493c0 26.533-9.13 48.833-27.39 66.9-18.267 18.067-40.803 27.1-67.61 27.1zm48.48-649.502c-2.698 3.448-3.194 8.133-1.276 12.069s5.912 6.433 10.291 6.433h465.845c4.39 0 8.393-2.51 10.305-6.462 1.912-3.951 1.395-8.648-1.329-12.09l-12.522-15.82c-5.814-7.345-14.667-11.628-24.034-11.628h-410.826c-9.426 0-18.328 4.337-24.138 11.76zm533.52 134.016c0-7.562-3.004-14.815-8.352-20.162-5.347-5.348-12.6-8.352-20.162-8.352h-524.972c-7.562 0-14.815 3.004-20.162 8.352-5.348 5.347-8.352 12.6-8.352 20.162v392.972c0 7.562 3.004 14.815 8.352 20.162 5.347 5.348 12.6 8.352 20.162 8.352h524.972c7.562 0 14.815-3.004 20.162-8.352 5.348-5.347 8.352-12.6 8.352-20.162zm-291.461 369.723c-47.609 0-88.308-17.047-122.095-51.141-33.787-34.095-50.681-74.486-50.681-121.174 0-48.181 16.891-89.254 50.672-123.22 33.781-33.959 74.636-50.939 122.565-50.939 47.302 0 88.001 16.98 122.095 50.939 34.095 33.966 51.142 75.039 51.142 123.22 0 46.688-17.047 87.079-51.142 121.174-34.094 34.094-74.946 51.141-122.556 51.141zm.461-64.917c29.789 0 55.293-10.6 76.507-31.813 21.213-21.214 31.813-46.718 31.813-76.507s-10.6-55.294-31.813-76.507c-21.214-21.214-46.718-31.813-76.507-31.813s-55.293 10.599-76.507 31.813c-21.213 21.213-31.813 46.718-31.813 76.507s10.6 55.293 31.813 76.507c21.214 21.213 46.718 31.813 76.507 31.813zm60.299-91.035c-.452 1.669-1.76 2.973-3.431 3.418s-3.452-.034-4.675-1.256l-72.029-72.029c-1.166-1.164-1.62-2.863-1.192-4.454s1.674-2.832 3.267-3.254h.01c5.792-1.532 11.709-2.297 17.751-2.297 17.528 0 32.354 6.027 44.457 18.13s18.13 26.928 18.13 44.457c0 5.885-.763 11.648-2.288 17.285zm-60.299 45.302c-17.512 0-32.32-6.145-44.411-18.463-12.124-12.353-18.176-27.274-18.176-44.757 0-5.655.844-11.191 2.53-16.606l.141-.446c.517-1.631 1.848-2.874 3.511-3.279 1.662-.405 3.415.087 4.625 1.296l71.751 71.752c1.24 1.239 1.724 3.047 1.268 4.741-.457 1.693-1.783 3.014-3.478 3.463l-.01.001c-5.792 1.532-11.709 2.298-17.751 2.298z"/></g></svg>