<?xml version="1.0" encoding="utf-8"?>
<svg clip-rule="evenodd" fill-rule="evenodd" stroke-linejoin="round" stroke-miterlimit="2" viewBox="0 0 48 48" xmlns="http://www.w3.org/2000/svg">
  <defs>
    <style type="text/css" id="current-color-scheme">.ColorScheme-Highlight { color:#000000; }</style>
  </defs>
  <path class="ColorScheme-Highlight" fill="currentColor" d="M 44.493 22.269 C 45.873 23.788 46.65 25.778 46.65 27.857 L 46.65 38.39 C 46.65 41.152 44.412 43.39 41.65 43.39 L 6.35 43.39 C 5.023 43.39 3.751 42.863 2.815 41.926 C 1.877 40.988 1.35 39.716 1.35 38.39 L 1.35 9.56 C 1.35 8.233 1.877 6.962 2.815 6.024 C 3.751 5.087 5.023 4.56 6.35 4.56 L 19.47 4.56 C 21.415 4.56 23.3 5.241 24.795 6.486 L 25.085 6.716 L 39.494 6.716 C 42.255 6.716 44.493 8.955 44.493 11.716 Z M 40.824 24.86 L 21.96 9.878 C 21.259 9.298 20.38 8.98 19.47 8.98 L 8.533 8.98 C 7.8 8.98 7.098 9.272 6.579 9.79 C 6.061 10.307 5.77 11.01 5.77 11.742 L 5.77 36.206 C 5.77 36.939 6.061 37.642 6.579 38.158 C 7.098 38.676 7.8 38.968 8.533 38.968 L 39.467 38.968 C 40.2 38.968 40.902 38.676 41.42 38.16 C 41.939 37.642 42.229 36.939 42.229 36.206 L 42.229 27.857 C 42.229 26.707 41.722 25.616 40.842 24.875 Z M 31.168 36.325 C 30.639 36.325 29.835 36.056 28.787 35.535 C 27.742 35.017 26.68 34.389 25.555 33.629 C 25.319 33.704 25.095 33.756 24.826 33.793 C 24.558 33.828 24.283 33.847 24.008 33.847 C 22.403 33.847 21.005 33.27 19.875 32.14 C 18.745 31.01 18.168 29.612 18.168 28.007 C 18.168 27.729 18.187 27.457 18.222 27.204 C 18.258 26.948 18.312 26.724 18.386 26.479 C 17.599 25.346 16.982 24.308 16.462 23.265 C 15.942 22.216 15.673 21.406 15.673 20.864 C 15.673 20.531 15.779 20.234 15.967 20.019 C 16.163 19.812 16.443 19.689 16.758 19.689 C 17.204 19.689 17.818 19.887 18.571 20.265 C 19.313 20.64 20.031 21 20.721 21.345 C 20.931 21.461 21.093 21.642 21.161 21.855 C 21.228 22.066 21.208 22.309 21.12 22.522 C 21.006 22.748 20.809 22.912 20.575 22.979 C 20.346 23.034 20.102 23.016 19.889 22.928 C 19.884 22.925 19.879 22.923 19.873 22.92 C 19.496 22.695 19.11 22.479 18.714 22.273 C 18.318 22.066 18.127 21.975 17.833 21.839 C 18.024 22.288 18.179 22.626 18.462 23.16 C 18.744 23.697 18.983 24.105 19.272 24.569 C 19.793 23.784 20.365 23.317 21.202 22.853 C 22.041 22.386 22.989 22.149 24.008 22.149 C 25.618 22.149 27.017 22.732 28.153 23.863 C 29.283 25.001 29.866 26.399 29.866 28.012 C 29.866 29.013 29.626 29.952 29.162 30.793 C 28.697 31.631 28.159 32.219 27.463 32.724 C 27.923 33.011 28.328 33.246 28.86 33.524 C 29.392 33.801 29.728 33.957 30.181 34.156 C 29.992 33.752 29.949 33.677 29.742 33.274 C 29.535 32.871 29.322 32.481 29.109 32.114 C 29.007 31.899 28.985 31.656 29.046 31.434 C 29.12 31.213 29.282 31.029 29.494 30.923 C 29.706 30.828 29.95 30.806 30.175 30.86 C 30.403 30.929 30.588 31.082 30.689 31.297 C 31.022 31.962 31.376 32.676 31.751 33.437 C 32.129 34.207 32.326 34.826 32.326 35.264 C 32.326 35.54 32.216 35.806 32.02 36.007 C 31.821 36.213 31.516 36.325 31.168 36.325 Z"/>
</svg>