<?xml version="1.0" encoding="utf-8"?>
<svg clip-rule="evenodd" fill-rule="evenodd" stroke-linejoin="round" stroke-miterlimit="2" viewBox="0 0 48 48" xmlns="http://www.w3.org/2000/svg">
  <defs>
    <style type="text/css" id="current-color-scheme">.ColorScheme-Highlight { color:#000000; }</style>
  </defs>
  <path class="ColorScheme-Highlight" fill="currentColor" d="M 38.72 29.151 C 39.711 30.242 40.269 31.672 40.269 33.165 L 40.269 40.731 C 40.269 42.714 38.661 44.322 36.678 44.322 L 11.322 44.322 C 10.369 44.322 9.456 43.943 8.783 43.27 C 8.11 42.597 7.731 41.683 7.731 40.731 L 7.731 20.023 C 7.731 19.07 8.11 18.157 8.783 17.483 C 9.456 16.81 10.369 16.431 11.322 16.431 L 13.438 16.431 L 13.438 14.701 C 13.438 11.718 14.46 9.185 16.505 7.103 C 18.55 5.022 21.046 3.982 23.994 3.982 C 26.941 3.982 29.44 5.022 31.489 7.103 C 33.539 9.185 34.563 11.718 34.563 14.701 L 34.563 17.98 L 35.129 17.98 C 37.112 17.98 38.72 19.588 38.72 21.571 Z M 20.746 16.431 C 22.143 16.431 23.497 16.92 24.571 17.815 L 24.779 17.98 L 29.624 17.98 L 29.624 14.714 C 29.624 13.077 29.087 11.711 28.013 10.617 C 26.939 9.521 25.608 8.973 24.019 8.973 C 22.43 8.973 21.093 9.521 20.006 10.617 C 18.92 11.711 18.377 13.077 18.377 14.714 L 18.377 16.431 Z M 36.084 31.012 L 22.535 20.251 C 22.031 19.835 21.4 19.606 20.746 19.606 L 12.89 19.606 C 12.364 19.606 11.86 19.816 11.487 20.188 C 11.115 20.559 10.906 21.064 10.906 21.59 L 10.906 39.162 C 10.906 39.688 11.115 40.193 11.487 40.564 C 11.86 40.936 12.364 41.146 12.89 41.146 L 35.11 41.146 C 35.636 41.146 36.14 40.936 36.512 40.565 C 36.885 40.193 37.093 39.688 37.093 39.162 L 37.093 33.165 C 37.093 32.339 36.729 31.555 36.097 31.023 Z M 21.248 35.815 C 20.483 35.072 20.1 34.186 20.1 33.156 C 20.1 32.126 20.48 31.198 21.24 30.371 C 22 29.544 22.917 29.13 23.991 29.13 C 25.066 29.13 25.985 29.544 26.751 30.371 C 27.516 31.198 27.899 32.118 27.899 33.131 C 27.899 34.175 27.519 35.069 26.76 35.813 C 26 36.557 25.083 36.929 24.009 36.929 C 22.934 36.929 22.014 36.557 21.248 35.815 Z"/>
</svg>