<?xml version="1.0" encoding="utf-8"?>
<svg clip-rule="evenodd" fill-rule="evenodd" stroke-linejoin="round" stroke-miterlimit="2" viewBox="0 0 48 48" xmlns="http://www.w3.org/2000/svg">
  <defs>
    <style type="text/css" id="current-color-scheme">.ColorScheme-Highlight { color:#000000; }</style>
  </defs>
  <path class="ColorScheme-Highlight" fill="currentColor" d="M 44.493 22.269 C 45.873 23.788 46.65 25.778 46.65 27.857 L 46.65 38.39 C 46.65 41.152 44.412 43.39 41.65 43.39 L 6.35 43.39 C 5.023 43.39 3.751 42.863 2.815 41.926 C 1.877 40.988 1.35 39.716 1.35 38.39 L 1.35 9.56 C 1.35 8.233 1.877 6.962 2.815 6.024 C 3.751 5.087 5.023 4.56 6.35 4.56 L 19.47 4.56 C 21.415 4.56 23.3 5.241 24.795 6.486 L 25.085 6.716 L 39.494 6.716 C 42.255 6.716 44.493 8.955 44.493 11.716 Z M 40.824 24.86 L 21.96 9.878 C 21.259 9.298 20.38 8.98 19.47 8.98 L 8.533 8.98 C 7.8 8.98 7.098 9.272 6.579 9.79 C 6.061 10.307 5.77 11.01 5.77 11.742 L 5.77 36.206 C 5.77 36.939 6.061 37.642 6.579 38.158 C 7.098 38.676 7.8 38.968 8.533 38.968 L 39.467 38.968 C 40.2 38.968 40.902 38.676 41.42 38.16 C 41.939 37.642 42.229 36.939 42.229 36.206 L 42.229 27.857 C 42.229 26.707 41.722 25.616 40.842 24.875 Z M 17.08 20.134 L 18.371 22.781 C 18.445 22.964 18.512 23.039 18.665 23.117 C 18.821 23.214 18.929 23.236 19.111 23.236 C 19.475 23.236 19.636 23.179 19.795 22.863 C 20.007 22.581 20.016 22.395 19.832 22.062 L 19.099 20.554 C 19.027 20.405 19.037 20.231 19.124 20.09 C 19.213 19.95 19.366 19.865 19.531 19.865 L 21.506 19.865 C 21.69 19.865 21.858 19.969 21.939 20.134 L 23.225 22.779 C 23.301 22.963 23.368 23.039 23.523 23.117 C 23.677 23.215 23.785 23.236 23.966 23.236 C 24.332 23.236 24.493 23.178 24.651 22.863 C 24.862 22.58 24.873 22.394 24.687 22.062 L 23.957 20.554 C 23.885 20.405 23.894 20.23 23.982 20.089 C 24.07 19.95 24.224 19.865 24.389 19.865 L 26.362 19.865 C 26.545 19.865 26.713 19.969 26.793 20.134 L 28.083 22.781 C 28.157 22.964 28.224 23.039 28.378 23.117 C 28.534 23.215 28.641 23.236 28.823 23.236 C 29.188 23.236 29.348 23.178 29.507 22.863 C 29.719 22.581 29.728 22.394 29.543 22.062 L 28.812 20.554 C 28.74 20.405 28.75 20.23 28.837 20.089 C 28.926 19.95 29.079 19.865 29.244 19.865 L 31.329 19.865 C 32.002 19.883 32.669 20.158 33.16 20.621 C 33.622 21.11 33.897 21.777 33.916 22.451 L 33.916 33.582 C 33.897 34.252 33.62 34.915 33.157 35.399 C 32.667 35.857 32.001 36.129 31.329 36.147 L 16.649 36.147 C 15.983 36.13 15.324 35.867 14.84 35.425 C 14.38 34.954 14.104 34.297 14.084 33.627 L 14.084 22.451 C 14.103 21.777 14.375 21.112 14.833 20.623 C 15.317 20.159 15.98 19.883 16.649 19.865 C 16.832 19.865 17 19.969 17.08 20.134 Z M 17.129 26.302 L 17.129 33.102 L 30.849 33.102 L 30.849 26.302 Z"/>
</svg>