<?xml version="1.0" encoding="utf-8"?>
<svg clip-rule="evenodd" fill-rule="evenodd" stroke-linejoin="round" stroke-miterlimit="2" viewBox="0 0 48 48" xmlns="http://www.w3.org/2000/svg">
  <defs>
    <style type="text/css" id="current-color-scheme">.ColorScheme-Highlight { color:#000000; }</style>
  </defs>
  <path class="ColorScheme-Highlight" fill="currentColor" d="M 44.493 22.269 C 45.873 23.788 46.65 25.778 46.65 27.857 L 46.65 38.39 C 46.65 41.152 44.412 43.39 41.65 43.39 L 6.35 43.39 C 5.023 43.39 3.751 42.863 2.815 41.926 C 1.877 40.988 1.35 39.716 1.35 38.39 L 1.35 9.56 C 1.35 8.233 1.877 6.962 2.815 6.024 C 3.751 5.087 5.023 4.56 6.35 4.56 L 19.47 4.56 C 21.415 4.56 23.3 5.241 24.795 6.486 L 25.085 6.716 L 39.494 6.716 C 42.255 6.716 44.493 8.955 44.493 11.716 Z M 40.824 24.86 L 21.96 9.878 C 21.259 9.298 20.38 8.98 19.47 8.98 L 8.533 8.98 C 7.8 8.98 7.098 9.272 6.579 9.79 C 6.061 10.307 5.77 11.01 5.77 11.742 L 5.77 36.206 C 5.77 36.939 6.061 37.642 6.579 38.158 C 7.098 38.676 7.8 38.968 8.533 38.968 L 39.467 38.968 C 40.2 38.968 40.902 38.676 41.42 38.16 C 41.939 37.642 42.229 36.939 42.229 36.206 L 42.229 27.857 C 42.229 26.707 41.722 25.616 40.842 24.875 Z M 21.955 26.31 L 21.949 26.305 C 21.855 26.221 21.788 26.122 21.746 26.007 C 21.71 25.906 21.691 25.794 21.691 25.67 L 21.691 23.52 C 21.691 23.307 21.766 23.132 21.912 22.991 C 22.055 22.855 22.23 22.785 22.438 22.785 C 22.648 22.785 22.822 22.857 22.962 22.995 C 23.101 23.134 23.174 23.309 23.174 23.52 L 23.174 25.411 L 24.494 26.691 L 24.496 26.694 C 24.662 26.859 24.737 27.043 24.737 27.238 C 24.737 27.435 24.664 27.613 24.506 27.768 C 24.349 27.932 24.169 28.007 23.973 28.007 C 23.777 28.007 23.598 27.932 23.439 27.769 Z M 22.681 19.389 C 22.69 19.389 22.699 19.389 22.709 19.389 C 22.889 19.389 23.073 19.398 23.25 19.413 C 23.947 19.473 24.623 19.648 25.231 19.926 C 25.889 20.223 26.512 20.652 27.051 21.191 C 27.653 21.793 28.12 22.504 28.428 23.263 C 28.728 24.021 28.882 24.828 28.879 25.625 C 28.87 26.419 28.713 27.222 28.416 27.98 C 28.253 28.388 28.119 28.635 27.93 28.94 L 32.698 33.667 C 32.927 33.93 33.064 34.285 33.067 34.628 C 33.048 34.967 32.916 35.312 32.69 35.538 C 32.437 35.791 32.078 35.947 31.74 35.947 C 31.401 35.947 31.059 35.787 30.811 35.538 L 26.104 30.833 C 25.197 31.444 24.234 31.787 23.017 31.853 C 21.487 31.919 20.091 31.48 18.894 30.539 C 18.61 30.332 18.419 29.99 18.389 29.632 C 18.389 29.307 18.516 28.963 18.733 28.706 C 18.953 28.476 19.265 28.315 19.573 28.269 C 19.866 28.243 20.178 28.303 20.45 28.454 C 20.489 28.477 20.534 28.507 20.532 28.505 C 21.243 29.062 22.004 29.299 22.914 29.25 C 23.816 29.221 24.545 28.89 25.205 28.218 C 25.949 27.489 26.294 26.657 26.28 25.616 C 26.29 24.573 25.932 23.745 25.185 22.998 C 24.463 22.277 23.661 21.94 22.644 21.973 C 21.618 21.982 20.801 22.344 20.066 23.079 C 19.707 23.438 19.458 23.819 19.288 24.284 C 19.265 24.346 19.243 24.408 19.224 24.47 C 19.247 24.468 19.269 24.467 19.292 24.467 C 19.578 24.467 19.891 24.596 20.097 24.803 C 20.311 25.017 20.43 25.331 20.442 25.615 C 20.432 25.902 20.307 26.207 20.107 26.422 L 18.601 27.93 C 18.351 28.162 18.01 28.315 17.682 28.315 C 17.354 28.315 17.012 28.162 16.764 27.929 L 15.268 26.433 C 15.067 26.216 14.943 25.914 14.933 25.635 C 14.945 25.36 15.07 25.058 15.273 24.839 C 15.492 24.635 15.796 24.51 16.07 24.498 C 16.219 24.504 16.375 24.542 16.521 24.608 C 16.588 24.199 16.692 23.792 16.833 23.403 C 17.128 22.597 17.602 21.855 18.219 21.232 C 18.643 20.811 19.121 20.45 19.623 20.174 C 20.524 19.661 21.566 19.389 22.681 19.389 Z"/>
</svg>