<?xml version="1.0" encoding="utf-8"?>
<svg clip-rule="evenodd" fill-rule="evenodd" stroke-linejoin="round" stroke-miterlimit="2" viewBox="0 0 48 48" xmlns="http://www.w3.org/2000/svg">
  <defs>
    <style type="text/css" id="current-color-scheme">.ColorScheme-Highlight { color:#000000; }</style>
  </defs>
  <path class="ColorScheme-Highlight" fill="currentColor" d="M 44.493 22.269 C 45.873 23.788 46.65 25.778 46.65 27.857 L 46.65 38.39 C 46.65 41.152 44.412 43.39 41.65 43.39 L 6.35 43.39 C 5.023 43.39 3.751 42.863 2.815 41.926 C 1.877 40.988 1.35 39.716 1.35 38.39 L 1.35 9.56 C 1.35 8.233 1.877 6.962 2.815 6.024 C 3.751 5.087 5.023 4.56 6.35 4.56 L 19.47 4.56 C 21.415 4.56 23.3 5.241 24.795 6.486 L 25.085 6.716 L 39.494 6.716 C 42.255 6.716 44.493 8.955 44.493 11.716 Z M 40.824 24.86 L 21.96 9.878 C 21.259 9.298 20.38 8.98 19.47 8.98 L 8.533 8.98 C 7.8 8.98 7.098 9.272 6.579 9.79 C 6.061 10.307 5.77 11.01 5.77 11.742 L 5.77 36.206 C 5.77 36.939 6.061 37.642 6.579 38.158 C 7.098 38.676 7.8 38.968 8.533 38.968 L 39.467 38.968 C 40.2 38.968 40.902 38.676 41.42 38.16 C 41.939 37.642 42.229 36.939 42.229 36.206 L 42.229 27.857 C 42.229 26.707 41.722 25.616 40.842 24.875 Z M 17.499 33.206 C 17.499 33.378 17.567 33.543 17.688 33.665 C 17.81 33.787 17.975 33.855 18.147 33.855 L 18.585 33.855 C 18.757 33.855 18.922 33.787 19.044 33.665 C 19.165 33.543 19.234 33.378 19.234 33.206 C 19.234 33.063 19.234 32.911 19.234 32.768 C 19.234 32.596 19.165 32.431 19.044 32.31 C 18.922 32.188 18.757 32.12 18.585 32.12 C 18.442 32.12 18.29 32.12 18.147 32.12 C 17.975 32.12 17.81 32.188 17.688 32.31 C 17.567 32.431 17.499 32.596 17.499 32.768 Z M 28.785 33.206 C 28.785 33.378 28.854 33.543 28.975 33.665 C 29.097 33.787 29.262 33.855 29.434 33.855 L 29.891 33.855 C 30.063 33.855 30.228 33.787 30.35 33.665 C 30.471 33.543 30.54 33.378 30.54 33.206 C 30.54 33.063 30.54 32.911 30.54 32.768 C 30.54 32.596 30.471 32.431 30.35 32.31 C 30.228 32.188 30.063 32.12 29.891 32.12 C 29.742 32.12 29.583 32.12 29.434 32.12 C 29.262 32.12 29.097 32.188 28.975 32.31 C 28.854 32.431 28.785 32.596 28.785 32.768 Z M 17.499 29.698 C 17.499 29.87 17.567 30.035 17.688 30.156 C 17.81 30.278 17.975 30.347 18.147 30.347 L 18.585 30.347 C 18.757 30.347 18.922 30.278 19.044 30.156 C 19.165 30.035 19.234 29.87 19.234 29.698 C 19.234 29.549 19.234 29.39 19.234 29.241 C 19.234 29.069 19.165 28.904 19.044 28.783 C 18.922 28.661 18.757 28.593 18.585 28.593 C 18.442 28.593 18.29 28.593 18.147 28.593 C 17.975 28.593 17.81 28.661 17.688 28.783 C 17.567 28.904 17.499 29.069 17.499 29.241 Z M 28.785 29.698 C 28.785 29.87 28.854 30.035 28.975 30.156 C 29.097 30.278 29.262 30.347 29.434 30.347 L 29.891 30.347 C 30.063 30.347 30.228 30.278 30.35 30.156 C 30.471 30.035 30.54 29.87 30.54 29.698 C 30.54 29.549 30.54 29.39 30.54 29.241 C 30.54 29.069 30.471 28.904 30.35 28.783 C 30.228 28.661 30.063 28.593 29.891 28.593 C 29.742 28.593 29.583 28.593 29.434 28.593 C 29.262 28.593 29.097 28.661 28.975 28.783 C 28.854 28.904 28.785 29.069 28.785 29.241 Z M 17.499 26.152 C 17.499 26.324 17.567 26.489 17.688 26.61 C 17.81 26.732 17.975 26.801 18.147 26.801 L 18.585 26.801 C 18.757 26.801 18.922 26.732 19.044 26.61 C 19.165 26.489 19.234 26.324 19.234 26.152 C 19.234 26.003 19.234 25.844 19.234 25.695 C 19.234 25.523 19.165 25.358 19.044 25.236 C 18.922 25.115 18.757 25.046 18.585 25.046 C 18.442 25.046 18.29 25.046 18.147 25.046 C 17.975 25.046 17.81 25.115 17.688 25.236 C 17.567 25.358 17.499 25.523 17.499 25.695 Z M 28.785 26.152 C 28.785 26.324 28.854 26.489 28.975 26.61 C 29.097 26.732 29.262 26.801 29.434 26.801 L 29.891 26.801 C 30.063 26.801 30.228 26.732 30.35 26.61 C 30.471 26.489 30.54 26.324 30.54 26.152 C 30.54 26.003 30.54 25.844 30.54 25.695 C 30.54 25.523 30.471 25.358 30.35 25.236 C 30.228 25.115 30.063 25.046 29.891 25.046 C 29.742 25.046 29.583 25.046 29.434 25.046 C 29.262 25.046 29.097 25.115 28.975 25.236 C 28.854 25.358 28.785 25.523 28.785 25.695 Z M 17.499 22.606 C 17.499 22.778 17.567 22.942 17.688 23.064 C 17.81 23.186 17.975 23.254 18.147 23.254 L 18.585 23.254 C 18.757 23.254 18.922 23.186 19.044 23.064 C 19.165 22.942 19.234 22.778 19.234 22.606 C 19.234 22.462 19.234 22.311 19.234 22.168 C 19.234 21.996 19.165 21.831 19.044 21.709 C 18.922 21.588 18.757 21.519 18.585 21.519 C 18.442 21.519 18.29 21.519 18.147 21.519 C 17.975 21.519 17.81 21.588 17.688 21.709 C 17.567 21.831 17.499 21.996 17.499 22.168 Z M 28.785 22.606 C 28.785 22.778 28.854 22.942 28.975 23.064 C 29.097 23.186 29.262 23.254 29.434 23.254 L 29.891 23.254 C 30.063 23.254 30.228 23.186 30.35 23.064 C 30.471 22.942 30.54 22.778 30.54 22.606 C 30.54 22.462 30.54 22.311 30.54 22.168 C 30.54 21.996 30.471 21.831 30.35 21.709 C 30.228 21.588 30.063 21.519 29.891 21.519 C 29.742 21.519 29.583 21.519 29.434 21.519 C 29.262 21.519 29.097 21.588 28.975 21.709 C 28.854 21.831 28.785 21.996 28.785 22.168 Z M 17.499 35.847 C 16.959 35.84 16.456 35.641 16.076 35.265 C 15.696 34.889 15.495 34.39 15.487 33.855 L 15.487 21.519 C 15.495 20.979 15.695 20.474 16.074 20.088 C 16.454 19.701 16.958 19.497 17.499 19.489 L 30.54 19.489 C 31.067 19.497 31.555 19.708 31.935 20.089 C 32.304 20.48 32.506 20.979 32.513 21.519 L 32.513 33.855 C 32.505 34.389 32.302 34.883 31.933 35.264 C 31.554 35.635 31.066 35.839 30.54 35.847 Z M 21.245 32.67 C 21.236 32.956 21.344 33.177 21.533 33.366 C 21.723 33.556 21.943 33.664 22.23 33.655 L 25.827 33.655 C 26.114 33.664 26.334 33.556 26.524 33.366 C 26.713 33.177 26.812 32.956 26.812 32.67 C 26.812 30.313 26.812 25.061 26.812 22.704 C 26.812 22.418 26.713 22.197 26.524 22.008 C 26.334 21.818 26.114 21.719 25.827 21.719 C 24.784 21.719 23.273 21.719 22.23 21.719 C 21.943 21.719 21.723 21.818 21.533 22.008 C 21.344 22.197 21.236 22.418 21.245 22.704 Z"/>
</svg>