<?xml version="1.0" encoding="utf-8"?>
<svg clip-rule="evenodd" fill-rule="evenodd" stroke-linejoin="round" stroke-miterlimit="2" viewBox="0 0 48 48" xmlns="http://www.w3.org/2000/svg">
  <defs>
    <style type="text/css" id="current-color-scheme">.ColorScheme-Highlight { color:#000000; }</style>
  </defs>
  <path class="ColorScheme-Highlight" fill="currentColor" d="M 38.72 29.151 C 39.711 30.242 40.269 31.672 40.269 33.165 L 40.269 40.731 C 40.269 42.714 38.661 44.322 36.678 44.322 L 11.322 44.322 C 10.369 44.322 9.456 43.943 8.783 43.27 C 8.11 42.597 7.731 41.683 7.731 40.731 L 7.731 20.023 C 7.731 19.07 8.11 18.157 8.783 17.483 C 9.456 16.81 10.369 16.431 11.322 16.431 L 20.746 16.431 C 22.143 16.431 23.497 16.92 24.571 17.815 L 24.779 17.98 L 29.136 17.98 L 29.136 14.019 C 29.136 12.441 28.617 11.125 27.578 10.07 C 26.541 9.014 25.253 8.488 23.718 8.488 C 22.515 8.488 21.463 8.837 20.561 9.533 C 19.659 10.231 19.04 11.114 18.704 12.185 C 18.428 12.731 18.047 13.172 17.561 13.506 C 17.074 13.841 16.523 14.007 15.906 14.007 C 15.208 14.007 14.665 13.713 14.275 13.121 C 13.886 12.53 13.793 11.88 13.995 11.171 C 14.568 8.978 15.746 7.18 17.525 5.779 C 19.303 4.378 21.368 3.677 23.718 3.677 C 26.56 3.677 28.966 4.68 30.938 6.686 C 32.91 8.691 33.896 11.132 33.896 14.007 L 33.896 17.98 L 35.129 17.98 C 37.112 17.98 38.72 19.588 38.72 21.571 L 38.72 29.151 Z M 36.084 31.012 L 22.535 20.251 C 22.031 19.835 21.4 19.606 20.746 19.606 L 12.89 19.606 C 12.364 19.606 11.86 19.816 11.487 20.188 C 11.115 20.559 10.906 21.064 10.906 21.59 L 10.906 39.162 C 10.906 39.688 11.115 40.193 11.487 40.564 C 11.86 40.936 12.364 41.146 12.89 41.146 L 35.11 41.146 C 35.636 41.146 36.14 40.936 36.512 40.565 C 36.885 40.193 37.093 39.688 37.093 39.162 L 37.093 33.165 C 37.093 32.339 36.729 31.555 36.097 31.023 L 36.084 31.012 Z M 21.248 35.815 C 20.483 35.072 20.1 34.186 20.1 33.156 C 20.1 32.126 20.48 31.198 21.24 30.371 C 22 29.544 22.917 29.13 23.991 29.13 C 25.066 29.13 25.985 29.544 26.751 30.371 C 27.516 31.198 27.899 32.118 27.899 33.131 C 27.899 34.175 27.519 35.069 26.76 35.813 C 26 36.557 25.083 36.929 24.009 36.929 C 22.934 36.929 22.014 36.557 21.248 35.815 Z"/>
</svg>