<?xml version="1.0" encoding="utf-8"?>
<svg xmlns="http://www.w3.org/2000/svg" height="48" viewBox="0 -960 960 960" width="48">
  <path d="M 229 -55 C 202.967 -55 180.793 -64.157 162.48 -82.47 C 144.16 -100.79 135 -122.967 135 -149 L 135 -811 C 135 -837.307 144.16 -859.717 162.48 -878.23 C 180.793 -896.743 202.967 -906 229 -906 L 552 -906 C 565.04 -906 577.467 -903.333 589.28 -898 C 601.093 -892.667 611.333 -885.667 620 -877 L 797 -700 C 805.667 -691.333 812.667 -681.093 818 -669.28 C 823.333 -657.467 826 -645.04 826 -632 L 826 -149 C 826 -122.967 816.743 -100.79 798.23 -82.47 C 779.717 -64.157 757.307 -55 731 -55 Z M 542 -672 L 542 -811 L 229 -811 L 229 -149 L 731 -149 L 731 -625 L 589 -625 C 575.833 -625 564.71 -629.543 555.63 -638.63 C 546.543 -647.71 542 -658.833 542 -672 Z M 459.179 -529.52 C 466.173 -530.77 473.242 -531.26 480.275 -531.26 L 480.543 -531.26 C 487.566 -531.26 494.636 -530.77 501.63 -529.52 C 503.781 -534.42 506.068 -539.32 508.526 -544.13 C 515.963 -559.21 533.446 -566.51 549.421 -561.13 C 550.469 -560.75 551.545 -560.37 552.62 -560.07 C 566.751 -554.98 575.724 -541.15 574.514 -526.17 C 574.014 -519.35 573.304 -512.53 572.362 -505.6 C 579.029 -501.37 586.051 -497.73 592.276 -492.73 C 598.635 -487.84 605.129 -483.22 610.875 -477.45 C 614.447 -479.86 618.04 -482.17 621.739 -484.38 C 636.37 -493.41 655.477 -489.84 665.938 -476.21 C 666.745 -475.25 667.523 -474.19 668.359 -473.24 C 678.119 -460.17 678.254 -442.2 668.734 -429.04 C 665.439 -424.43 662.009 -419.82 658.503 -415.4 C 658.503 -415.4 658.503 -365.92 658.474 -334.13 C 658.474 -318.95 646.668 -306.28 631.5 -305.41 C 613.064 -303.58 592.007 -301.57 592.007 -301.57 C 588.577 -301.18 585.887 -298.49 585.648 -295.03 C 585.648 -295.03 585.244 -289.07 584.773 -282.54 C 584.101 -273.04 576.54 -265.44 566.983 -264.77 C 559.748 -264.19 551.276 -263.62 543.946 -263.13 C 533.887 -262.37 525.002 -269.47 523.523 -279.47 C 522.782 -284.46 522.177 -288.69 522.177 -288.69 C 521.679 -292.14 518.681 -294.75 515.146 -294.75 L 445.662 -294.75 C 442.127 -294.75 439.13 -292.14 438.63 -288.69 C 438.63 -288.69 438.025 -284.46 437.285 -279.47 C 435.806 -269.47 426.92 -262.37 416.863 -263.13 C 409.532 -263.62 401.06 -264.19 393.826 -264.77 C 384.277 -265.44 376.707 -273.04 376.034 -282.54 C 375.564 -289.07 375.161 -295.03 375.161 -295.03 C 374.92 -298.49 372.23 -301.18 368.801 -301.57 C 368.801 -301.57 347.744 -303.58 329.309 -305.41 C 314.141 -306.28 302.306 -318.95 302.306 -334.13 L 302.306 -415.4 C 298.405 -420.2 294.361 -425.77 290.364 -431.54 C 282.084 -443.25 282.189 -458.92 290.595 -470.54 C 292.247 -472.85 293.928 -475.06 295.61 -477.27 C 305.696 -490.33 323.997 -493.59 338.022 -485.04 C 342.057 -482.55 346.034 -480.06 349.934 -477.45 C 355.679 -483.22 362.173 -487.84 368.532 -492.73 C 374.758 -497.73 381.75 -501.37 388.446 -505.6 C 387.37 -513.48 386.631 -521.26 386.16 -529.04 C 385.219 -542.11 392.98 -554.32 405.296 -558.92 C 407.381 -559.69 409.503 -560.46 411.588 -561.23 C 427.458 -566.6 444.884 -559.4 452.281 -544.32 C 454.673 -539.42 456.998 -534.42 459.179 -529.52 Z M 347.312 -371.79 C 347.312 -349.89 365.064 -332.11 386.996 -332.11 C 408.927 -332.11 426.718 -349.89 426.718 -371.79 C 426.718 -393.69 408.927 -411.46 386.996 -411.46 C 365.064 -411.46 347.312 -393.69 347.312 -371.79 Z M 534.089 -371.79 C 534.089 -349.89 551.881 -332.11 573.813 -332.11 C 595.744 -332.11 613.506 -349.89 613.506 -371.79 C 613.506 -393.69 595.744 -411.46 573.813 -411.46 C 551.881 -411.46 534.089 -393.69 534.089 -371.79 Z M 345.256 -289.55 C 354.574 -288.69 361.903 -281.2 362.548 -271.79 C 363.018 -265.06 363.451 -258.81 363.451 -258.81 C 363.719 -255.26 366.514 -252.48 370.05 -252.19 L 440.205 -247.19 C 443.914 -247 447.208 -249.59 447.747 -253.24 C 447.747 -253.24 448.486 -258.33 449.361 -264.1 C 450.735 -273.51 458.813 -280.52 468.363 -280.52 C 475.932 -280.52 484.876 -280.52 492.446 -280.52 C 501.995 -280.52 510.074 -273.51 511.447 -264.1 C 512.321 -258.33 513.061 -253.24 513.061 -253.24 C 513.571 -249.78 516.596 -247.19 520.093 -247.19 C 520.265 -247.19 590.768 -252.19 590.768 -252.19 C 594.293 -252.48 597.089 -255.26 597.358 -258.81 C 597.358 -258.81 597.79 -265.06 598.261 -271.79 C 598.904 -281.2 606.234 -288.69 615.552 -289.55 C 624.399 -290.42 635.265 -291.48 643.872 -292.34 C 647.609 -292.63 651.345 -291.38 654.132 -288.88 C 656.927 -286.39 658.503 -282.73 658.503 -278.99 C 658.503 -216.45 579.163 -186.38 480.543 -186 L 480.275 -186 C 381.654 -186.38 302.306 -216.45 302.306 -278.99 C 302.306 -282.73 303.881 -286.39 306.676 -288.88 C 309.471 -291.38 313.199 -292.63 316.935 -292.34 C 325.543 -291.48 336.408 -290.42 345.256 -289.55 Z"/>
</svg>