<?xml version="1.0" encoding="utf-8"?>
<svg xmlns="http://www.w3.org/2000/svg" height="48" viewBox="0 -960 960 960" width="48">
  <path fill="rgb(127, 127, 127)" d="M 229 -55 C 202.967 -55 180.793 -64.157 162.48 -82.47 C 144.16 -100.79 135 -122.967 135 -149 L 135 -811 C 135 -837.307 144.16 -859.717 162.48 -878.23 C 180.793 -896.743 202.967 -906 229 -906 L 552 -906 C 565.04 -906 577.467 -903.333 589.28 -898 C 601.093 -892.667 611.333 -885.667 620 -877 L 797 -700 C 805.667 -691.333 812.667 -681.093 818 -669.28 C 823.333 -657.467 826 -645.04 826 -632 L 826 -149 C 826 -122.967 816.743 -100.79 798.23 -82.47 C 779.717 -64.157 757.307 -55 731 -55 Z M 542 -672 L 542 -811 L 229 -811 L 229 -149 L 731 -149 L 731 -625 L 589 -625 C 575.833 -625 564.71 -629.543 555.63 -638.63 C 546.543 -647.71 542 -658.833 542 -672 Z M 432.284 -501.36 C 430.879 -494.824 430.221 -486.348 430.234 -477.21 L 430.234 -431.883 C 430.173 -421.55 428.215 -406.479 423.923 -393.575 C 420.617 -385.232 417.522 -380.574 412.516 -374.301 C 417.52 -368.033 420.732 -363.056 424.036 -354.711 C 428.334 -341.834 430.173 -327.115 430.234 -316.78 L 430.234 -271.84 C 430.216 -262.752 430.993 -254.296 432.446 -247.718 C 433.066 -244.916 433.602 -243.163 434.256 -241.79 C 439.895 -240.164 445.707 -236.817 449.118 -232.866 C 453.032 -228.331 455.695 -220.788 456.012 -214.33 L 456.012 -205.39 C 455.642 -198.253 451.998 -189.839 447.037 -184.682 C 441.571 -180.069 432.797 -176.994 425.654 -177.069 C 409.415 -178.551 394.009 -184.432 381.148 -195.111 L 380.614 -195.554 L 380.182 -196.077 C 369.502 -208.988 362.409 -229.079 361.915 -252.11 L 361.915 -306.53 C 361.915 -318.929 362.116 -330.189 359.46 -337.648 C 359.229 -338.59 359.119 -339.29 359.081 -339.795 L 358.521 -338.512 L 357.519 -340.71 L 356.336 -340.71 C 349.144 -341.103 340.907 -344.381 336.265 -349.02 C 331.622 -353.66 328.342 -361.895 327.948 -369.08 L 327.948 -379.94 C 328.341 -387.125 331.621 -395.36 336.263 -400.003 C 340.904 -404.644 349.272 -407.925 356.466 -408.319 L 358.247 -408.285 C 358.855 -408.249 359.269 -408.223 359.544 -408.203 L 359.287 -408.792 C 359.72 -407.797 358.64 -407.942 359.632 -412.011 C 362.291 -419.457 361.915 -430.101 361.915 -442.5 L 361.916 -496.83 C 362.404 -519.845 369.499 -540.049 380.187 -552.959 L 380.631 -553.496 L 381.182 -553.948 C 394.261 -564.69 409.764 -570.413 425.568 -571.925 C 432.785 -572.075 441.469 -568.995 446.957 -564.394 C 451.962 -559.231 455.639 -550.784 456.012 -543.62 L 456.012 -534.66 C 455.7 -528.233 453.069 -520.727 449.196 -516.199 C 445.858 -512.298 439.741 -508.912 434.085 -507.216 C 433.414 -505.894 432.897 -504.215 432.284 -501.36 Z M 598.086 -496.92 L 598.086 -442.5 C 598.086 -430.247 598.047 -419.118 600.812 -411.637 C 601.208 -410.112 601.295 -409.21 601.279 -408.721 C 601.281 -408.724 601.283 -408.727 601.285 -408.73 L 602.102 -409.938 L 602.879 -408.32 L 603.667 -408.32 C 610.863 -407.926 619.1 -404.644 623.741 -400.002 C 628.383 -395.359 631.66 -387.124 632.053 -379.94 L 632.053 -369.08 C 631.66 -361.895 628.381 -353.661 623.739 -349.021 C 619.097 -344.381 610.676 -341.105 603.482 -340.712 L 602.156 -340.746 C 601.578 -340.781 601.186 -340.806 600.927 -340.826 L 601.129 -340.531 C 601.18 -340.184 601.232 -339.111 600.634 -336.798 C 597.87 -329.317 598.086 -318.803 598.086 -306.53 L 598.085 -252.194 C 597.579 -229.206 590.409 -209.016 579.687 -196.134 L 579.242 -195.6 L 578.691 -195.149 C 565.613 -184.447 550.197 -178.721 534.521 -177.186 C 527.308 -177.017 518.606 -180.065 513.072 -184.692 C 508.053 -189.855 504.366 -198.3 503.991 -205.5 L 503.991 -214.47 C 504.3 -220.86 506.908 -228.335 510.752 -232.854 C 514.074 -236.76 520.204 -240.168 525.847 -241.879 C 526.539 -243.211 527.068 -244.895 527.697 -247.783 C 529.119 -254.314 529.785 -262.762 529.771 -271.84 L 529.771 -316.763 C 529.828 -327.099 531.785 -342.153 536.083 -355.031 C 539.385 -363.377 542.482 -368.032 547.486 -374.302 C 542.48 -380.574 539.263 -385.565 535.957 -393.909 C 531.667 -406.811 529.828 -421.533 529.771 -431.87 L 529.771 -477.211 C 529.791 -486.212 528.997 -494.622 527.521 -501.186 C 526.885 -504.015 526.336 -505.776 525.663 -507.159 C 520.034 -508.804 514.226 -512.179 510.826 -516.146 C 506.943 -520.676 504.304 -528.191 503.991 -534.62 L 503.991 -543.57 C 504.363 -550.741 507.765 -559.438 513.008 -564.324 C 518.239 -569.2 527.277 -571.997 534.459 -571.878 C 550.552 -570.347 565.865 -564.492 578.732 -553.838 L 579.258 -553.402 L 579.686 -552.889 C 590.405 -540.031 597.574 -519.944 598.086 -496.92 Z"/>
</svg>