<?xml version="1.0" encoding="utf-8"?>
<svg xmlns="http://www.w3.org/2000/svg" height="48" viewBox="0 -960 960 960" width="48">
  <path fill="rgb(127, 127, 127)" d="M 229 -55 C 202.967 -55 180.793 -64.157 162.48 -82.47 C 144.16 -100.79 135 -122.967 135 -149 L 135 -811 C 135 -837.307 144.16 -859.717 162.48 -878.23 C 180.793 -896.743 202.967 -906 229 -906 L 552 -906 C 565.04 -906 577.467 -903.333 589.28 -898 C 601.093 -892.667 611.333 -885.667 620 -877 L 797 -700 C 805.667 -691.333 812.667 -681.093 818 -669.28 C 823.333 -657.467 826 -645.04 826 -632 L 826 -149 C 826 -122.967 816.743 -100.79 798.23 -82.47 C 779.717 -64.157 757.307 -55 731 -55 Z M 542 -672 L 542 -811 L 229 -811 L 229 -149 L 731 -149 L 731 -625 L 589 -625 C 575.833 -625 564.71 -629.543 555.63 -638.63 C 546.543 -647.71 542 -658.833 542 -672 Z M 605.478 -567.5 C 618.252 -567.328 630.044 -562.442 639.251 -553.673 C 648.244 -544.603 653.173 -532.656 653.342 -519.54 L 653.342 -367.86 C 653.179 -360.93 650.453 -354.197 645.817 -349.29 C 640.885 -344.53 634.161 -341.67 627.242 -341.67 C 620.32 -341.67 613.579 -344.518 608.606 -349.27 C 603.908 -354.179 601.144 -360.921 600.978 -367.86 L 600.978 -515.04 L 341.484 -515.04 L 341.484 -255.65 L 488.761 -255.65 C 495.696 -255.478 502.415 -252.691 507.331 -248.063 C 512.015 -243.164 514.944 -236.488 514.944 -229.56 C 514.944 -222.626 512.064 -215.828 507.413 -210.761 C 502.447 -205.809 495.696 -202.982 488.761 -202.81 L 336.984 -202.81 C 323.775 -202.971 311.781 -207.804 302.595 -216.699 C 293.685 -225.916 288.823 -237.842 288.657 -251.15 L 288.657 -519.54 C 288.823 -532.648 293.706 -544.595 302.632 -553.667 C 311.794 -562.447 323.761 -567.333 336.984 -567.5 Z M 503.041 -368.463 C 506.008 -372.327 510.705 -375.04 515.287 -375.04 C 519.86 -375.04 524.433 -372.501 527.408 -368.64 L 572.259 -309.528 C 575.422 -304.498 575.956 -298.323 573.733 -293.207 C 570.819 -288.297 565.52 -285.217 559.806 -284.93 L 382.655 -284.93 C 376.795 -285.212 371.434 -288.321 368.582 -293.156 C 366.444 -298.279 367.21 -304.662 370.356 -309.735 L 401.121 -348.764 C 404.022 -352.486 408.703 -355.29 413.334 -355.29 C 417.956 -355.29 422.517 -352.647 425.425 -348.928 L 456.91 -308.328 Z M 558.238 -181.5 C 553.09 -181.644 547.833 -183.702 543.996 -187.366 C 540.481 -191.085 538.365 -196.325 538.2 -201.5 L 538.2 -227.33 C 538.248 -229.653 538.836 -232.409 539.754 -234.544 C 540.728 -236.766 542.34 -239.14 544.148 -241.049 L 614.115 -310.703 C 616.939 -313.467 620.438 -315.815 623.864 -317.231 C 627.235 -318.541 631.109 -319.4 634.661 -319.4 C 638.404 -319.4 642.445 -318.509 645.849 -317.093 C 649.195 -315.584 652.779 -313.095 655.665 -310.497 L 667.874 -298.253 C 670.607 -295.465 672.9 -291.904 674.216 -288.51 C 675.429 -285.16 676.151 -281.337 676.151 -277.9 C 676.151 -274.151 675.337 -270.17 674.001 -266.715 C 672.59 -263.302 670.254 -259.675 667.543 -256.826 L 598.057 -186.994 C 596.038 -185.131 593.689 -183.695 591.587 -182.849 C 589.298 -181.974 586.494 -181.523 584.026 -181.5 Z M 571.991 -215.32 L 578.188 -215.32 L 612.785 -250.086 L 606.83 -256.04 L 571.991 -221.495 Z"/>
</svg>