<?xml version="1.0" encoding="utf-8"?>
<svg xmlns="http://www.w3.org/2000/svg" height="48" viewBox="0 -960 960 960" width="48">
  <path fill="rgb(127, 127, 127)" d="M 229 -55 C 202.967 -55 180.793 -64.157 162.48 -82.47 C 144.16 -100.79 135 -122.967 135 -149 L 135 -811 C 135 -837.307 144.16 -859.717 162.48 -878.23 C 180.793 -896.743 202.967 -906 229 -906 L 552 -906 C 565.04 -906 577.467 -903.333 589.28 -898 C 601.093 -892.667 611.333 -885.667 620 -877 L 797 -700 C 805.667 -691.333 812.667 -681.093 818 -669.28 C 823.333 -657.467 826 -645.04 826 -632 L 826 -149 C 826 -122.967 816.743 -100.79 798.23 -82.47 C 779.717 -64.157 757.307 -55 731 -55 Z M 542 -672 L 542 -811 L 229 -811 L 229 -149 L 731 -149 L 731 -625 L 589 -625 C 575.833 -625 564.71 -629.543 555.63 -638.63 C 546.543 -647.71 542 -658.833 542 -672 Z M 465.901 -599.46 C 472.991 -603.21 482.684 -603.22 489.774 -599.46 L 608.46 -530.23 C 613.707 -526.93 617.985 -521.3 619.432 -515.8 C 620.879 -510.3 619.925 -503.29 616.985 -497.83 C 613.681 -492.59 608.054 -488.31 602.552 -486.86 C 597.051 -485.41 590.046 -486.36 584.587 -489.31 L 477.837 -551.57 L 345.079 -474.13 L 345.079 -318.83 L 477.837 -241.38 L 584.586 -303.65 C 590.045 -306.59 597.051 -307.54 602.552 -306.09 C 608.054 -304.65 613.681 -300.36 616.985 -295.12 C 619.925 -289.66 620.879 -282.66 619.432 -277.16 C 617.984 -271.65 613.707 -266.03 608.46 -262.73 L 489.774 -193.49 C 482.684 -189.74 472.991 -189.74 465.902 -193.49 L 309.452 -284.75 C 302.779 -289.02 298.02 -297.3 297.701 -305.22 L 297.701 -487.73 C 298.02 -495.65 302.78 -503.94 309.454 -508.2 Z M 592.027 -451.64 C 596.485 -451.64 601.444 -449.43 604.328 -446.54 C 607.212 -443.66 609.213 -438.69 609.422 -434.23 L 609.422 -413.87 L 637.57 -413.87 L 637.57 -434.23 C 637.779 -438.69 639.78 -443.66 642.663 -446.54 C 645.547 -449.43 650.507 -451.64 654.965 -451.64 C 659.424 -451.64 664.384 -449.43 667.268 -446.54 C 670.15 -443.66 672.151 -438.69 672.361 -434.23 L 672.361 -413.87 L 692.729 -413.87 C 697.185 -413.66 702.144 -411.66 705.028 -408.78 C 707.913 -405.9 710.124 -400.94 710.124 -396.48 C 710.124 -392.02 707.913 -387.06 705.028 -384.17 C 702.144 -381.29 697.185 -379.29 692.729 -379.08 L 672.361 -379.08 L 672.361 -358.72 C 672.151 -354.26 670.149 -349.3 667.265 -346.42 C 664.381 -343.53 659.423 -341.32 654.965 -341.32 C 650.508 -341.32 645.55 -343.53 642.665 -346.42 C 639.781 -349.3 637.779 -354.26 637.57 -358.72 L 637.57 -379.08 L 609.422 -379.08 L 609.422 -358.72 C 609.212 -354.26 607.211 -349.3 604.326 -346.42 C 601.442 -343.53 596.483 -341.32 592.027 -341.32 C 587.569 -341.32 582.611 -343.53 579.727 -346.42 C 576.843 -349.3 574.841 -354.26 574.631 -358.72 L 574.631 -379.08 L 554.263 -379.08 C 549.805 -379.29 544.848 -381.29 541.963 -384.17 C 539.079 -387.06 536.868 -392.02 536.868 -396.48 C 536.868 -400.94 539.079 -405.9 541.963 -408.78 C 544.848 -411.66 549.805 -413.66 554.263 -413.87 L 574.631 -413.87 L 574.631 -434.23 C 574.841 -438.69 576.842 -443.66 579.724 -446.54 C 582.608 -449.43 587.568 -451.64 592.027 -451.64 Z M 478.741 -454.61 C 462.343 -454.61 448.418 -448.37 437.633 -437.58 C 426.849 -426.8 420.606 -412.87 420.606 -396.48 C 420.606 -380.07 426.849 -366.15 437.633 -355.37 C 448.418 -344.58 462.343 -338.34 478.741 -338.34 C 495.659 -338.34 510.072 -344.84 520.828 -356.37 C 525.256 -360.71 531.721 -363.57 537.408 -363.71 C 543.096 -363.84 549.69 -361.29 554.32 -357.16 C 558.66 -352.74 561.521 -346.27 561.657 -340.59 C 561.793 -334.9 559.242 -328.3 555.118 -323.68 C 536.073 -303.94 508.43 -290.96 478.741 -290.96 C 449.949 -290.96 422.961 -303.03 404.131 -321.86 C 385.301 -340.69 373.227 -367.68 373.227 -396.48 C 373.227 -425.27 385.301 -452.25 404.131 -471.08 C 422.961 -489.91 449.949 -501.99 478.741 -501.99 C 508.304 -501.99 535.845 -489.11 554.876 -469.52 C 559.017 -464.91 561.586 -458.32 561.47 -452.63 C 561.352 -446.94 558.512 -440.47 554.187 -436.03 C 549.571 -431.89 542.987 -429.32 537.298 -429.44 C 531.61 -429.56 525.135 -432.39 520.693 -436.72 C 509.942 -448.16 495.587 -454.61 478.741 -454.61 Z"/>
</svg>