<?xml version="1.0" encoding="UTF-8" standalone="no"?>
<!DOCTYPE svg PUBLIC "-//W3C//DTD SVG 1.1//EN" "http://www.w3.org/Graphics/SVG/1.1/DTD/svg11.dtd">
<svg width="100%" height="100%" viewBox="0 0 1042 1042" version="1.1" xmlns="http://www.w3.org/2000/svg" xmlns:xlink="http://www.w3.org/1999/xlink" xml:space="preserve" xmlns:serif="http://www.serif.com/" style="fill-rule:evenodd;clip-rule:evenodd;stroke-linejoin:round;stroke-miterlimit:2;">
    <g transform="matrix(0.990986,0,0,0.990986,37.6756,974.436)">
        <path d="M797.873,-766.769C797.873,-780.871 792.271,-794.395 782.3,-804.367C772.328,-814.338 758.804,-819.94 744.702,-819.94L162.79,-819.94C133.425,-819.94 109.619,-796.134 109.619,-766.769C109.619,-670.312 109.619,-467.568 109.619,-371.111C109.619,-341.746 133.425,-317.94 162.79,-317.94C180.217,-317.94 195.199,-317.94 195.199,-317.94C208.366,-317.94 219.492,-313.38 228.579,-304.26C237.659,-295.15 242.199,-283.98 242.199,-270.76C242.199,-257.54 237.659,-246.44 228.579,-237.44C219.492,-228.44 208.366,-223.94 195.199,-223.94L109.619,-223.94C83.586,-223.94 61.409,-233.1 43.089,-251.42C24.776,-269.73 15.619,-291.91 15.619,-317.94L15.619,-819.94C15.619,-846.24 24.776,-868.65 43.089,-887.17C61.409,-905.68 83.586,-914.94 109.619,-914.94L797.873,-914.94C823.906,-914.94 846.083,-905.68 864.403,-887.17C882.716,-868.65 891.873,-846.24 891.873,-819.94L891.873,-528.843C891.873,-516.378 886.921,-504.424 878.107,-495.609C869.293,-486.795 857.339,-481.844 844.874,-481.844L844.872,-481.844C832.407,-481.844 820.453,-486.795 811.639,-495.609C802.825,-504.424 797.873,-516.378 797.873,-528.843L797.873,-766.769ZM608.765,-0.516C584.233,-0.516 561.193,-5.54 539.629,-15.445C518.062,-25.523 500.026,-39.759 485.494,-58.679L317.076,-274.843C309.557,-285.264 306.397,-296.554 307.613,-308.874C308.828,-321.055 314.299,-331.089 324.021,-339.106L330.099,-344.3C342.773,-354.389 357.218,-359.926 373.453,-361.321C389.687,-362.706 405.331,-359.583 420.383,-352.103L488.096,-318.243L488.096,-607.342C488.096,-617.591 491.794,-626.273 499.173,-633.743C506.571,-641.019 515.408,-644.679 525.687,-644.679C535.965,-644.679 544.714,-641.019 551.922,-633.743C559.144,-626.273 562.755,-617.591 562.755,-607.342L562.755,-261.836C562.755,-245.695 556.107,-233.707 542.79,-226.227C529.471,-218.757 515.876,-218.757 501.986,-226.227L412.57,-273.115L549.733,-102.09C556.696,-93.59 565.168,-87.161 575.168,-82.815C585.171,-78.297 595.777,-76.054 607.029,-76.054L817.114,-76.054C835.397,-76.054 851.095,-82.493 864.237,-95.125C877.381,-107.82 883.961,-123.618 883.961,-142.356L883.961,-267.921C883.961,-288.397 876.74,-305.751 862.292,-319.831C847.865,-333.88 830.485,-340.823 810.172,-340.823L669.534,-340.823C659.343,-340.823 650.556,-344.472 643.214,-351.963C635.867,-359.229 632.206,-368.083 632.206,-378.675C632.206,-389.257 635.867,-398.293 643.214,-405.591C650.556,-412.706 659.343,-416.355 669.534,-416.355L810.172,-416.355C851.215,-416.355 886.358,-401.76 915.614,-372.783C944.869,-343.603 959.486,-308.681 959.486,-267.921L959.486,-142.023C959.486,-102.615 945.597,-69.271 917.818,-41.85C890.039,-14.237 856.599,-0.516 817.498,-0.516L608.765,-0.516ZM639.845,-502.297C629.447,-502.297 620.658,-505.957 613.469,-513.394C606.283,-520.713 602.689,-529.567 602.689,-539.806C602.689,-543.465 604.425,-549.701 607.897,-558.737C611.944,-565.67 615.139,-573.128 617.446,-581.274C619.757,-589.463 620.92,-597.962 620.92,-607.009C620.92,-633.217 611.63,-655.615 593.035,-674.181C574.441,-692.758 551.869,-701.956 525.322,-701.956C498.775,-701.956 476.238,-692.758 457.712,-674.181C439.186,-655.615 429.931,-633.056 429.931,-606.473C429.931,-597.801 431.094,-589.463 433.405,-581.274C435.712,-573.128 438.909,-565.67 442.954,-558.737C444.691,-555.775 445.99,-552.974 446.86,-550.044C447.729,-547.103 448.162,-543.626 448.162,-539.988C448.162,-529.385 444.394,-520.52 436.843,-513.233C429.29,-505.957 420.349,-502.297 410,-502.297C402.447,-502.297 395.641,-504.025 389.565,-507.513C383.486,-510.979 378.956,-515.841 375.953,-522.108C369.114,-535.631 363.817,-549.196 360.049,-563.244C356.28,-577.314 354.406,-591.888 354.406,-607.009C354.406,-654.048 371.073,-694.325 404.392,-727.487C437.71,-760.821 478.027,-777.488 525.304,-777.488C572.583,-777.488 612.914,-760.821 646.322,-727.648C679.743,-694.325 696.447,-654.048 696.447,-606.473C696.447,-591.019 694.5,-576.445 690.629,-562.708C686.743,-548.831 681.446,-535.448 674.742,-522.28C671.844,-515.841 667.208,-510.979 660.818,-507.513C654.43,-504.025 647.433,-502.297 639.845,-502.297Z"/>
    </g>
</svg>
