<?xml version="1.0" encoding="UTF-8" standalone="no"?>
<!DOCTYPE svg PUBLIC "-//W3C//DTD SVG 1.1//EN" "http://www.w3.org/Graphics/SVG/1.1/DTD/svg11.dtd">
<svg width="100%" height="100%" viewBox="0 0 245 210" version="1.1" xmlns="http://www.w3.org/2000/svg" xmlns:xlink="http://www.w3.org/1999/xlink" xml:space="preserve" xmlns:serif="http://www.serif.com/" style="fill-rule:evenodd;clip-rule:evenodd;stroke-linejoin:round;stroke-miterlimit:2;">
    <g transform="matrix(7.35207,0,0,7.10049,-26.9024,-15.6067)">
        <path d="M4.502,26.205C4.497,26.114 4.494,26.023 4.494,25.932L4.494,8.04C4.494,6.853 4.949,5.716 5.759,4.877C6.57,4.038 7.668,3.567 8.814,3.567L16.59,3.567C17.888,3.567 19.146,4.038 20.144,4.898L20.338,5.058L31.258,5.058C31.798,5.058 32.316,5.28 32.697,5.675C33.079,6.07 33.293,6.606 33.293,7.165C33.293,7.165 33.293,11.305 33.293,13.065C33.293,13.087 33.291,13.109 33.289,13.131C34.163,13.364 34.94,13.914 35.467,14.699C36.179,15.759 36.344,17.113 35.909,18.324L32.726,27.193C32.033,29.124 30.253,30.405 28.263,30.405L8.303,30.405C7.056,30.405 5.887,29.772 5.176,28.712C4.677,27.97 4.447,27.084 4.502,26.205ZM26.548,13.007L18.768,6.609C18.156,6.082 17.386,5.793 16.59,5.793L8.814,5.793C8.239,5.793 7.687,6.03 7.28,6.451C6.873,6.873 6.644,7.444 6.644,8.04L6.644,19.762L7.917,16.218C8.61,14.287 10.389,13.007 12.379,13.007L26.548,13.007ZM8.814,28.178L28.263,28.178C29.354,28.178 30.33,27.476 30.71,26.417L33.894,17.548C34.083,17.021 34.011,16.432 33.701,15.97C33.391,15.508 32.883,15.233 32.34,15.233L12.379,15.233C11.288,15.233 10.312,15.935 9.932,16.994L6.748,25.863C6.707,25.978 6.678,26.095 6.662,26.214C6.722,26.706 6.938,27.166 7.28,27.52C7.687,27.941 8.239,28.178 8.814,28.178ZM9.099,9.284C8.539,9.284 8.084,8.836 8.084,8.284C8.084,7.732 8.539,7.284 9.099,7.284L16.142,7.284C16.702,7.284 17.156,7.732 17.156,8.284C17.156,8.836 16.702,9.284 16.142,9.284L9.099,9.284Z"/>
    </g>
</svg>
