<svg height="48" viewBox="0 -960 960 960" width="48" xmlns="http://www.w3.org/2000/svg">
  <defs>
    <style type="text/css" id="current-color-scheme">.ColorScheme-Highlight { color:#000000; }</style>
  </defs><path class="ColorScheme-Highlight" fill="currentColor" d="m480-60c-5.547 0-10.84-.5-15.88-1.5s-9.747-2.5-14.12-4.5c-96-31.333-172.5-90.533-229.5-177.6-57-87.06-85.5-180.23-85.5-279.51v-188.89c0-20.173 5.46-38.56 16.38-55.16 10.913-16.607 25.787-28.22 44.62-34.84l251-94c10.667-4 21.667-6 33-6s22.333 2 33 6l251 94c18.833 6.62 33.877 18.233 45.13 34.84 11.247 16.6 16.87 34.987 16.87 55.16v188.89c0 99.28-28.667 192.45-86 279.51-57.333 87.067-134 146.267-230 177.6-4.373 2-9.08 3.5-14.12 4.5s-10.333 1.5-15.88 1.5zm0-91c73.333-28.667 133.5-76.667 180.5-144s70.5-143.237 70.5-227.71v-189.29l-251-95-251 95.48v188.35c0 84.78 23.5 160.837 70.5 228.17s107.167 115.333 180.5 144zm.398-294.31-75.041 75.98c-9.38 8.82-19.848 13.14-31.423 13.14s-21.725-4.32-30.486-13.14c-9.381-8.83-14.07-19.13-14.07-31.52 0-12.2 4.689-22.51 14.07-31.33l75.042-75.04-75.981-75.05c-9.379-8.82-14.069-19.12-14.069-30.96 0-11.81 4.69-22.12 14.069-30.95 8.762-8.81 19.08-13.13 30.955-13.13s22.513 4.32 31.893 13.13l75.041 75.05 75.043-75.98c8.759-8.83 18.909-13.14 30.484-13.14s22.043 4.31 31.425 13.14c8.762 8.82 13.132 19.13 13.132 31.52 0 11.99-4.37 22.5-13.132 31.32l-75.042 75.05 75.981 75.04c8.759 8.82 13.131 19.13 13.131 30.94 0 11.84-4.372 22.15-13.131 30.96-9.381 8.83-20.018 13.14-31.895 13.14-11.873 0-22.194-4.31-30.953-13.14z"/></svg>