<svg height="48" viewBox="0 -960 960 960" width="48" xmlns="http://www.w3.org/2000/svg">
  <defs>
    <style type="text/css" id="current-color-scheme">.ColorScheme-Highlight { color:#000000; }</style>
  </defs><path class="ColorScheme-Highlight" fill="currentColor" d="m480-60c-5.547 0-10.84-.5-15.88-1.5s-9.747-2.5-14.12-4.5c-96-31.333-172.5-90.533-229.5-177.6-57-87.06-85.5-180.23-85.5-279.51v-188.89c0-20.173 5.46-38.56 16.38-55.16 10.913-16.607 25.787-28.22 44.62-34.84l251-94c10.667-4 21.667-6 33-6s22.333 2 33 6l251 94c18.833 6.62 33.877 18.233 45.13 34.84 11.247 16.6 16.87 34.987 16.87 55.16v188.89c0 99.28-28.667 192.45-86 279.51-57.333 87.067-134 146.267-230 177.6-4.373 2-9.08 3.5-14.12 4.5s-10.333 1.5-15.88 1.5zm0-91c73.333-28.667 133.5-76.667 180.5-144s70.5-143.237 70.5-227.71v-189.29l-251-95-251 95.48v188.35c0 84.78 23.5 160.837 70.5 228.17s107.167 115.333 180.5 144zm26.091-537.68c7.822 7.96 11.721 17.51 11.721 29.05v168.17c0 11.53-3.92 21.3-11.74 29.04-7.843 7.98-17.534 11.75-29.095 11.75-11.543 0-21.216-3.77-29.038-11.75-7.799-7.74-11.72-17.51-11.72-29.04v-168.17c0-11.54 3.921-21.09 11.762-29.05 7.821-7.77 17.532-11.76 29.074-11.76 11.563 0 21.235 3.99 29.036 11.76zm7.921 310.25c9.173 8.97 13.75 20.1 13.75 33.83 0 14.12-4.397 25.87-13.174 34.84-8.796 8.94-20.318 13.32-34.607 13.32-13.512 0-24.856-4.38-34.012-13.32-9.152-8.97-13.731-20.72-13.731-35.44 0-13.13 4.558-24.26 13.693-33.23 9.115-8.96 20.457-13.53 34.012-13.53 13.551 0 24.914 4.57 34.069 13.53z"/></svg>