<svg height="22" width="22" xmlns="http://www.w3.org/2000/svg">
  <defs>
    <style type="text/css" id="current-color-scheme">.ColorScheme-Highlight { color:#000000; }</style>
  </defs><path class="ColorScheme-Highlight" fill="currentColor" d="m3 3v16h16v-16zm1 1h14v14h-14zm6.509766.9023438c-.185885.9294255-1.5482653 2.0610777-2.9433598 2.8496093-1.3950943.7885316-2.7363281 1.2773438-2.7363281 1.2773438l.3398438.9414062s.8013817-.2932064 1.8300781-.7949219v.8242188h3.5v2h-2.5v1h2.5v3h-4.5v1h10v-1h-4.5v-3h2.5v-1h-2.5v-2h3.5v-.8691406c1.015788.5161351 1.824219.8378906 1.824219.8378906l.351562-.9375s-3.856017-1.4980606-5.732422-3.7871094c.01285-.049766.03674-.095781.04687-.1464844zm.490234 1.3300781c1.116196 1.2148236 2.543014 2.1370965 3.734375 2.7675781h-7.3964844c.2375362-.1209505.4728975-.2368891.7207032-.3769531 1.0952668-.619064 2.2738182-1.393715 2.9414062-2.390625z"/></svg>