<svg height="22" width="22" xmlns="http://www.w3.org/2000/svg">
  <defs>
    <style type="text/css" id="current-color-scheme">.ColorScheme-Highlight { color:#000000; }</style>
  </defs><path class="ColorScheme-Highlight" fill="currentColor" d="m6.811 3.406c-.508 1.367-1.348 2.598-2.52 3.692l.996.761c.195-.039.742-.722 1.641-2.05h.761c.43.625.801 1.269 1.114 1.933l1.172-.644-.938-1.289h2.051v-1.114h-3.633l.469-.937zm6.035 0c-.469 1.328-1.27 2.539-2.403 3.633l.996.762c.665-.625 1.172-1.289 1.524-1.992h.996c.43.586.801 1.211 1.113 1.875l1.055-.645c-.273-.43-.566-.84-.879-1.23h2.461v-1.114h-4.16c.156-.312.293-.625.41-.937zm-5.45 4.102-.996.586c.547.547.957 1.094 1.231 1.64l1.113-.586c-.351-.585-.801-1.132-1.348-1.64zm1.993.527v.996h6.386v6.035c0 .547-.136.821-.41.821-.39 0-.898-.02-1.523-.059l.293 1.113c.547.04 1.015.059 1.406.059.469 0 .82-.137 1.055-.41.234-.274.351-.664.351-1.172v-7.383zm-3.985 1.582v7.383h1.172v-7.383zm2.871.645v5.039h5.391v-5.039zm1.114.996h3.164v.996h-3.164zm0 1.933h3.164v1.114h-3.164zm-6.389 4.809v1h16v-1z"/></svg>