<svg height="22" width="22" xmlns="http://www.w3.org/2000/svg">
  <defs>
    <style type="text/css" id="current-color-scheme">.ColorScheme-Highlight { color:#000000; }</style>
  </defs><path class="ColorScheme-Highlight" fill="currentColor" d="m17 10.5c0 2.398-1.112 3.84-2.217 4.6-1.105.759-2.22.896-2.22.896l-.125-.992s.884-.113 1.779-.729c.487-.334.966-.808 1.306-1.502-.313.143-.658.227-1.023.227-1.375 0-2.5-1.125-2.5-2.5s1.125-2.5 2.5-2.5 2.5 1.125 2.5 2.5zm-4 0c0 .834.666 1.5 1.5 1.5s1.5-.666 1.5-1.5-.666-1.5-1.5-1.5-1.5.666-1.5 1.5zm-3 0c0 1.375-1.125 2.5-2.5 2.5s-2.5-1.125-2.5-2.5 1.125-2.5 2.5-2.5 2.5 1.125 2.5 2.5zm-4 0c0 .834.666 1.5 1.5 1.5s1.5-.666 1.5-1.5-.666-1.5-1.5-1.5-1.5.666-1.5 1.5z"/></svg>