<svg height="22" width="22" xmlns="http://www.w3.org/2000/svg">
  <defs>
    <style type="text/css" id="current-color-scheme">.ColorScheme-Highlight { color:#000000; }</style>
  </defs><path class="ColorScheme-Highlight" fill="currentColor" d="m179 15v16h16v-16zm1 1h14v14h-14zm6.58398.722656c-1.84354 2.765319-5.64648 3.28125-5.64648 3.28125l.125.992188s.83386-.123824 1.9375-.535156v4.039062c0 .833333-.45395 1.912573-.93359 2.751953-.47965.83938-.95704 1.435547-.95703 1.435547l.78124.625s.52262-.653833 1.04297-1.564453c.0223-.03907.044-.08499.0664-.125l.00001 1.376953h.5 7.5v-3h-7.27539c.107-.326656.17843-.661039.2207-1h7.05469v-4.539062c1.10364.411332 1.9375.535156 1.9375.535156l.125-.992188s-3.80294-.515931-5.64648-3.28125zm.41602.980469c.85882 1.069604 1.93347 1.798543 2.93359 2.296875h-2.43359l.27734-.416016-1.5-1-.55468.832032.875.583984h-2.53125c1.00012-.498332 2.07477-1.227271 2.93359-2.296875zm-3 3.296875h6v3h-6v-1h5v-1h-5zm0 6h6v1h-6z" transform="translate(-176 -12)"/></svg>