<svg height="22" width="22" xmlns="http://www.w3.org/2000/svg">
  <defs>
    <style type="text/css" id="current-color-scheme">.ColorScheme-Highlight { color:#000000; }</style>
  </defs><path class="ColorScheme-Highlight" fill="currentColor" d="m91 37v.5 15.5h16v-16zm1 1h14v14h-14zm1 1v1h1v3h-1v8h1 4.5.5v-8h-.5-1.5v-3h2v-1zm6 4 .400391.300781s.398251-.511169.796879-1.300781h1.80273v2h-2v1h5v-1h-2v-2h2v-1h-2v-2h-1v2h-1.38281c.21744-.611342.38281-1.291251.38281-2h-1c0 1.75-1.400391 3.699219-1.400391 3.699219zm-4-3h1v3h-1zm0 4h1v3h1v-3h1v6h-4v-1h3v-1h-3v-1h1zm5 2v.5 4.5h5v-5zm1 1h3v3h-3z" transform="translate(-88 -34)"/></svg>