<svg height="22" width="22" xmlns="http://www.w3.org/2000/svg">
  <defs>
    <style type="text/css" id="current-color-scheme">.ColorScheme-Highlight { color:#000000; }</style>
  </defs><path class="ColorScheme-Highlight" fill="currentColor" d="m113 15v16h16v-16zm1 1h14v14h-14zm6 1v6.982422c-1.81096-.08165-2.72052-.606587-3.26172-1.492188-.58985-.965209-.73828-2.511067-.73828-4.490234h-1c0 2.020833.10157 3.724975.88672 5.009766.72658 1.188957 2.06293 1.873963 4.11328 1.970703v3.019531h-5v1h11v-1h-5v-3.019531c2.05035-.09674 3.3867-.781746 4.11328-1.970703.78515-1.284791.88672-2.988933.88672-5.009766h-1c0 1.979167-.14843 3.525025-.73828 4.490234-.5412.885601-1.45076 1.410542-3.26172 1.492188v-6.982422z" transform="translate(-110 -12)"/></svg>