<svg height="22" width="22" xmlns="http://www.w3.org/2000/svg">
  <defs>
    <style type="text/css" id="current-color-scheme">.ColorScheme-Highlight { color:#000000; }</style>
  </defs><path class="ColorScheme-Highlight" fill="currentColor" d="m28 98.001953v15.998047h9v1h8v-10h-1v-6.998047zm1 .998047h14v6h-3.5-4.263672l.666016-3h4.097656v-1h-9v1h3.876953l-.666015 3h-2.210938v1h1.988281l-.888672 4h-2.099609v1h6v2h-8zm6.013672 7h1.986328v4h-2.876953zm3.986328 1h.5c.75 0 1.531712-.0168 2.220703.21289.344496.11483.676391.30519.916016.61328.239624.30809.363281.7155.363281 1.17383s-.123657.86574-.363281 1.17383c-.239625.30809-.57152.49845-.916016.61328-.533836.17794-1.133444.15946-1.720703.16406v2.04883h-1zm1 1.04297v1.91406c.528068-.0121 1.082776-.012 1.404297-.11914.218004-.0727.354859-.16356.443359-.27734.088504-.11379.152344-.26888.152344-.56055s-.06384-.44676-.152344-.56055c-.0885-.11378-.225355-.20467-.443359-.27734-.321521-.10717-.876229-.10704-1.404297-.11914z" transform="translate(-25 -95)"/></svg>