<svg viewBox="0 0 22 22" xmlns="http://www.w3.org/2000/svg">
  <defs>
    <style type="text/css" id="current-color-scheme">.ColorScheme-Highlight { color:#000000; }</style>
  </defs><path class="ColorScheme-Highlight" fill="currentColor" d="m11 1.5136719c-.255619 0-.511163.0990531-.707031.2949219l-2.1914065 2.1914062h-3.1015625c-.5540002 0-1 .4459998-1 1v3.0996094l-2.1933594 2.1933596c-.3917372.391737-.3917372 1.022325 0 1.414062l2.1933594 2.19336v3.099609c0 .554.4459998 1 1 1h3.0996094l2.1933596 2.193359c.391737.391738 1.022325.391738 1.414062 0l2.19336-2.193359h3.099609c.554 0 1-.446 1-1v-3.101562l2.191406-2.191407c.391737-.391737.391737-1.022325 0-1.414062l-2.191406-2.1914065v-3.1015625c0-.5540002-.446-1-1-1h-3.101562l-2.191407-2.1914062c-.195868-.1958688-.451412-.2949219-.707031-.2949219zm-.099609 3.1875 1.5 2-.398438.2988281h1.996094l-.398438-.2988281 1.5-2 .800782.5996093-1.275391 1.6992188h2.375v1h-2v3h2v1h-2v5h-1v-5h-2.041016c-.09614 1.118701-.477091 2.02943-.925781 2.806641-.620717 1.075-1.6914061 2.058593-1.6914061 2.058593l-.6835938-.728515s1.0124506-.968778 1.5097659-1.830078c.401316-.695121.704292-1.411609.792969-2.306641h-1.960938v-.941406l-1 .5v5.441406h-3v-1h2v-3.941406l-1.7773438.888672-.4453124-.894532 2.2226562-1.111328v-2.941406h-2v-1h2v-2h1v2h1v1h-1v2.441406l.7773438-.388672.4453124.894532-.1054687.052734h1.8828125v-3h-1v-1h1.375l-1.275391-1.6992188zm1.099609 3.2988281v3h2v-3z"/></svg>