<svg height="22" width="22" xmlns="http://www.w3.org/2000/svg">
  <defs>
    <style type="text/css" id="current-color-scheme">.ColorScheme-Highlight { color:#000000; }</style>
  </defs><path class="ColorScheme-Highlight" fill="currentColor" d="m3 3.0019531v15.9980469h16v-15.9980469zm1 .9980469h14v14h-14zm6.898438 1.5039062c-1.2941824.0240003-2.5801713.4997279-3.5976568 1.4238282-2.0349703 1.8480006-2.38844 4.9374186-.8261718 7.1992186s4.5768686 3.022838 7.0253906 1.773438c2.189334-1.117058 3.332231-3.545643 2.898438-5.900391h-2.056641c.000782.0026.0012.0052.002.0078h-3.34375v2h3.335938c-.262982.884961-.864025 1.661241-1.746094 2.111329-1.569389.8008-3.4693016.320896-4.4707034-1.128907-1.0014487-1.449788-.7770659-3.3974183.5272968-4.5820189 1.3043623-1.1845003 3.2627426-1.2201849 4.6093746-.0839843l1.291016-1.5292969c-1.050463-.8863003-2.354258-1.3145157-3.648437-1.2910157z"/></svg>