<svg height="22" width="22" xmlns="http://www.w3.org/2000/svg">
  <defs>
    <style type="text/css" id="current-color-scheme">.ColorScheme-Highlight { color:#000000; }</style>
  </defs><path class="ColorScheme-Highlight" fill="currentColor" d="m9 10.5c0 .828-.672 1.5-1.5 1.5s-1.5-.672-1.5-1.5.672-1.5 1.5-1.5 1.5.672 1.5 1.5zm7 0c0 .11-.013.22-.037.328-.195 2.146-2.162 3.572-2.162 3.572l-.602-.8s.815-.663 1.348-1.602c-.016.001-.031.002-.047.002-.828 0-1.5-.672-1.5-1.5s.672-1.5 1.5-1.5 1.5.672 1.5 1.5z"/></svg>