<svg height="22" width="22" xmlns="http://www.w3.org/2000/svg">
  <defs>
    <style type="text/css" id="current-color-scheme">.ColorScheme-Highlight { color:#000000; }</style>
  </defs><path class="ColorScheme-Highlight" fill="currentColor" d="m3 3v16h16v-16zm7.900391 1.7011719 1.5 2-.398438.2988281h1.996094l-.398438-.2988281 1.5-2 .800782.5996093-1.275391 1.6992188h2.375v1h-2v3h2v1h-2v5h-1v-5h-2.041016c-.09614 1.118701-.477091 2.02943-.925781 2.806641-.620717 1.075-1.6914061 2.058593-1.6914061 2.058593l-.6835938-.728515s1.0124506-.968778 1.5097659-1.830078c.401316-.695121.704292-1.411609.792969-2.306641h-1.960938v-.941406l-1 .5v5.441406h-3v-1h2v-3.941406l-1.7773438.888672-.4453124-.894532 2.2226562-1.111328v-2.941406h-2v-1h2v-2h1v2h1v1h-1v2.441406l.7773438-.388672.4453124.894532-.1054687.052734h1.8828125v-3h-1v-1h1.375l-1.275391-1.6992188zm1.099609 3.2988281v3h2v-3z"/></svg>