<svg height="22" width="22" xmlns="http://www.w3.org/2000/svg">
  <defs>
    <style type="text/css" id="current-color-scheme">.ColorScheme-Highlight { color:#000000; }</style>
  </defs><path class="ColorScheme-Highlight" fill="currentColor" d="m3.223 6.053-.446.894 4 2 .446-.894zm15.554 0-4 2 .446.894 4-2zm-14.777 2.947c-.552 0-1 .448-1 1s.448 1 1 1 1-.448 1-1-.448-1-1-1zm14 0c-.552 0-1 .448-1 1s.448 1 1 1 1-.448 1-1-.448-1-1-1zm-9.9 1.699c-.81 1.08-1.235 2.289-1.161 3.336.038.524.21 1.022.569 1.391.358.369.888.574 1.492.574.961 0 1.639-.681 2-1.457.361.776 1.039 1.457 2 1.457.604 0 1.134-.205 1.492-.574.359-.369.531-.867.569-1.391.074-1.047-.351-2.256-1.161-3.336l-.8.602c.69.92 1.015 1.961.964 2.664-.025.351-.133.603-.291.765-.157.163-.377.27-.773.27-.528 0-.84-.307-1.107-.895-.268-.587-.393-1.411-.393-2.105h-1c0 .694-.125 1.518-.393 2.105-.267.588-.579.895-1.107.895-.396 0-.616-.107-.773-.27-.158-.162-.266-.414-.291-.765-.051-.703.274-1.744.964-2.664z"/></svg>