<svg clip-rule="evenodd" fill-rule="evenodd" stroke-linejoin="round" stroke-miterlimit="2" viewBox="0 0 250 250" xmlns="http://www.w3.org/2000/svg">
  <defs>
    <style type="text/css" id="current-color-scheme">.ColorScheme-Highlight { color:#000000; }</style>
  </defs><path class="ColorScheme-Highlight" fill="currentColor" d="m484.16-945.939c24.94.744 46.887 8.224 65.84 22.439 20 15 33.667 34.167 41 57.5h180c26.127 0 48.49 9.303 67.09 27.91 18.607 18.6 27.91 40.963 27.91 67.09v582c0 25.853-9.303 47.983-27.91 66.39-18.6 18.407-40.963 27.61-67.09 27.61h-582c-25.853 0-47.983-9.203-66.39-27.61s-27.61-40.537-27.61-66.39v-582c0-26.127 9.203-48.49 27.61-67.09 18.407-18.607 40.537-27.91 66.39-27.91h180c7.333-23.333 21-42.5 41-57.5s43.333-22.499 70-22.499l.5-.001c1.226.003 2.446.023 3.66.061zm-89.122 174.939h-172.135c-18.724 0-33.903 15.179-33.903 33.903v514.194c0 18.724 15.179 33.903 33.903 33.903h514.194c18.724 0 33.903-15.179 33.903-33.903v-514.194c0-8.992-3.572-17.615-9.93-23.973s-14.981-9.93-23.973-9.93h-171.135c-19.841 25.408-50.758 41.755-85.462 41.755s-65.621-16.347-85.462-41.755zm84.761 538.979c-32.696 0-63.422-6.226-92.168-18.478-28.735-12.234-53.853-29.147-75.344-50.625-21.489-21.478-38.37-46.633-50.646-75.226-12.275-28.717-18.407-59.43-18.407-92.158 0-33.043 6.132-63.985 18.407-92.702 12.276-28.707 29.125-53.748 50.557-75.111 21.425-21.268 46.508-38.171 75.221-50.644 28.724-12.463 59.45-18.698 92.18-18.698h.545c32.704 0 63.456 6.192 92.257 18.573 28.801 12.382 53.956 29.319 75.465 50.81 21.514 21.491 38.469 46.637 50.865 75.437 12.393 28.805 18.59 59.579 18.59 92.324 0 32.727-6.206 63.464-18.618 92.213-12.407 28.748-29.383 53.861-50.926 75.337-21.539 21.476-46.677 38.337-75.415 50.581-28.734 12.245-59.438 18.367-92.112 18.367-.15 0-.301 0-.451 0zm.567-402.378c-.205-.001-.411-.001-.618-.001-45.854 0-84.867 16.121-117.038 48.311-32.179 32.217-48.264 71.335-48.264 117.543 0 45.814 16.065 84.837 48.195 117.037 32.141 32.216 71.253 48.225 117.359 48.225 46.014 0 85.107-16.009 117.288-48.114 32.128-32.166 48.223-71.232 48.265-117.165h-165.187zm-.366-156.601c11.647 0 21.39-3.923 29.23-11.77 7.847-7.84 11.77-17.583 11.77-29.23s-3.923-21.39-11.77-29.23c-7.84-7.847-17.583-11.77-29.23-11.77s-21.39 3.923-29.23 11.77c-7.847 7.84-11.77 17.583-11.77 29.23s3.923 21.39 11.77 29.23c7.84 7.847 17.583 11.77 29.23 11.77z" transform="matrix(.266678 0 0 .266678 -3.13892 256.17)"/></svg>