<svg height="48" width="48" xmlns="http://www.w3.org/2000/svg">
  <defs>
    <style type="text/css" id="current-color-scheme">.ColorScheme-Text { color:#000000; }</style>
  </defs><path class="ColorScheme-Text" fill="currentColor" d="m43.712 32.453c-.438-.238-.999-.409-1.45-.454h-1.177c1.86-4.506 1.07-10.426-2.116-15.448.132-.077.247-.161.334-.248.17-.17.324-.443.445-.742 3.518 5.412 4.908 11.616 3.964 16.892zm-27.075-21.499c-1.299 1.412-2.177 3.139-2.648 5.041h-6.584c.456-2.993 1.647-5.708 3.609-7.84 5.494-5.97 15.192-5.371 22.933.928-.473.124-.986.35-1.25.614-.089.089-.174.206-.251.341-5.564-3.426-11.961-3.266-15.809.916zm2.365 21.748c4.73 5.14 11.089 7.019 15.997 5.244v1.316c.065.649.389 1.524.802 1.937.387.387 1.179.696 1.812.787-6.476 4.078-16.2 1.871-23.244-5.784-1.493-1.622-2.76-3.375-3.795-5.197h3.806c.865-.064 1.92-.463 2.507-1.008.62.941 1.326 1.847 2.115 2.705zm15.382-22.204h3.232c.49-.001.887.396.886.886v3.232c.001.49-.396.887-.886.886h-3.232c-.49.001-.887-.396-.886-.886v-3.232c-.001-.49.396-.887.886-.886zm-27.764 6.997h7.76c1.174 0 2.125.951 2.125 2.125v7.76c0 1.174-.951 2.125-2.125 2.125h-7.76c-1.174 0-2.125-.951-2.125-2.125v-7.76c0-1.174.951-2.125 2.125-2.125zm31.118 16.004h4.524c.684 0 1.239.555 1.239 1.239v4.524c0 .684-.555 1.239-1.239 1.239h-4.524c-.684 0-1.239-.555-1.239-1.239v-4.524c0-.684.555-1.239 1.239-1.239z"/></svg>