<svg height="64" viewBox="0 0 64 64" width="64" xmlns="http://www.w3.org/2000/svg">
  <defs>
    <style type="text/css" id="current-color-scheme">.ColorScheme-Text { color:#000000; }</style>
  </defs><path class="ColorScheme-Text" fill="currentColor" d="m14.093 26.125-1.721-.2c-.568-.066-.994-.545-.994-1.113v-2.65c0-.568.426-1.047.994-1.114l1.633-.186c.204-.817.514-1.602.923-2.339l-1.021-1.291c-.355-.448-.319-1.087.084-1.491l1.873-1.873c.404-.399 1.043-.439 1.491-.084l1.22.967c.782-.466 1.62-.821 2.499-1.056l.177-1.522c.067-.568.546-.994 1.114-.994h2.65c.568 0 1.047.426 1.113.994l.178 1.522c.856.231 1.673.573 2.436 1.021l1.176-.932c.448-.355 1.087-.32 1.491.084l1.869 1.868c.399.404.439 1.043.084 1.492l-.959 1.211c.409.728.728 1.504.941 2.316l1.558.182c.568.067.994.546.994 1.114v2.65c0 .568-.426 1.047-.994 1.113l-1.58.182c-.222.821-.555 1.607-.981 2.344l1.025 1.3c.355.448.32 1.087-.084 1.491l-1.873 1.873c-.404.399-1.043.439-1.491.084l-1.318-1.043c-.75.422-1.549.746-2.383.963l-.195 1.691c-.067.568-.546.994-1.114.994h-2.649c-.568 0-1.048-.426-1.114-.994l-.204-1.753c-.777-.222-1.522-.537-2.224-.941l-1.362 1.078c-.448.355-1.087.32-1.491-.084l-1.873-1.873c-.399-.403-.439-1.042-.084-1.491l1.087-1.371c-.381-.674-.683-1.393-.901-2.139zm5.219-2.787c0 2.414 1.966 4.38 4.38 4.38s4.38-1.966 4.38-4.38-1.966-4.38-4.38-4.38-4.38 1.966-4.38 4.38zm30.771 4.904-.608.914c.386.568.697 1.18.928 1.828l1.113.036c.564.018 1.021.457 1.07 1.016l.155 1.824c.045.559-.337 1.07-.887 1.18l-1.11.227c-.124.683-.341 1.349-.639 1.979l.812.861c.386.408.404 1.043.04 1.473l-1.18 1.398c-.364.431-.99.519-1.46.209l-1.007-.666c-.582.395-1.212.714-1.878.95l-.039 1.224c-.018.564-.458 1.021-1.017 1.07l-1.824.155c-.559.045-1.069-.337-1.18-.887l-.253-1.252c-.648-.124-1.278-.333-1.877-.612l-.914.856c-.409.386-1.043.404-1.474.04l-1.398-1.18c-.43-.364-.519-.99-.208-1.46l.697-1.052c-.36-.528-.657-1.092-.884-1.686l-1.246-.04c-.564-.018-1.021-.457-1.07-1.016l-.155-1.824c-.045-.559.337-1.07.887-1.181l1.154-.235c.115-.679.315-1.34.595-1.97l-.808-.861c-.386-.408-.404-1.043-.04-1.473l1.181-1.407c.363-.431.989-.519 1.46-.209l.923.613c.603-.435 1.264-.781 1.966-1.034l.035-1.083c.018-.564.457-1.021 1.016-1.07l1.824-.155c.559-.044 1.07.337 1.181.888l.217 1.065c.714.128 1.407.35 2.059.665l.772-.723c.408-.386 1.043-.404 1.473-.04l1.398 1.18c.431.364.52.995.2 1.465zm-3.803 5.205c-.164-1.97-1.904-3.439-3.874-3.27-1.97.164-3.439 1.904-3.271 3.874.164 1.97 1.904 3.439 3.874 3.27 1.971-.164 3.44-1.903 3.271-3.874zm-25.805 8.783.776-.08c.142-.546.36-1.065.635-1.554l-.475-.612c-.346-.448-.302-1.078.102-1.473l.808-.79c.404-.395 1.034-.422 1.473-.067l.555.453c.524-.302 1.087-.533 1.673-.683l.089-.693c.071-.559.55-.976 1.114-.967l1.122.013c.564.005 1.034.435 1.092.994l.071.697c.568.16 1.109.395 1.615.701l.537-.413c.448-.346 1.079-.301 1.474.102l.785.804c.395.403.422 1.034.067 1.473l-.449.55c.267.488.471 1.012.608 1.553l.719.094c.559.071.977.55.968 1.113l-.014 1.123c-.004.564-.435 1.034-.994 1.092l-.736.075c-.156.546-.382 1.065-.675 1.554l.475.616c.346.449.302 1.079-.102 1.474l-.803.785c-.404.395-1.034.422-1.474.067l-.621-.502c-.506.275-1.038.484-1.598.622l-.102.807c-.071.559-.55.977-1.113.968l-1.123-.014c-.564-.004-1.034-.435-1.092-.994l-.089-.852c-.514-.151-1.007-.368-1.473-.643l-.661.51c-.448.346-1.079.302-1.473-.102l-.786-.803c-.395-.404-.422-1.034-.067-1.473l.533-.657c-.253-.453-.448-.932-.586-1.434l-.825-.106c-.559-.071-.976-.55-.968-1.114l.014-1.123c.004-.563.435-1.034.994-1.091zm4.291 1.615c-.018 1.611 1.274 2.938 2.884 2.955 1.611.018 2.938-1.273 2.956-2.884s-1.274-2.938-2.884-2.956c-1.611-.017-2.938 1.274-2.956 2.885zm-18.699-37.871h52.035v52.035h-52.035zm3.328 47.786h45.447v-43.892h-45.447z"/></svg>