<svg height="48" viewBox="0 0 48 48" width="48" xmlns="http://www.w3.org/2000/svg">
  <defs>
    <style type="text/css" id="current-color-scheme">.ColorScheme-Text { color:#000000; }</style>
  </defs><path class="ColorScheme-Text" fill="currentColor" d="m24.003 4c.124.005.239.056.321.147 1.652 1.803 3.165 3.746 4.729 5.598.004.007.017.014.017.02 2.325 3.094 4.27 6.511 5.629 9.894 1.507 3.754 2.406 7.076 3.198 11.791.134.793.279 1.836.396 2.754.115.917.201 1.658.201 2.016v.171c0 .237-.181.433-.416.453l-.293.024c-3.606.306-5.956 1.081-8.592 2.832-1.208.801-2.048 1.497-3.782 3.141-.303.287-.584.546-.796.737-.105.096-.196.175-.264.233-.035.029-.063.053-.094.076-.015.012-.03.024-.056.04-.013.009-.03.018-.059.032-.031.014-.061.047-.212.04-.124-.007-.151-.033-.178-.046-.026-.014-.04-.023-.054-.03-.024-.017-.039-.027-.052-.038-.029-.022-.056-.045-.088-.072-.063-.054-.144-.128-.243-.216-.195-.178-.451-.417-.729-.682-2.096-2.01-3.408-3.027-5.163-4.013-.183-.102-.348-.195-.47-.262-.051-.027-.088-.049-.12-.066.003.002.014 0 .016.002-.003-.003-.014-.005-.014-.007-.013-.004-.013-.006-.027-.01 0-.001 0 .004 0 .001-.005-.003-.019-.006-.019-.009.001 0 0-.001-.001-.002-.013-.006-.028-.012-.045-.018-.034-.014-.081-.034-.137-.059-.113-.049-.266-.116-.431-.189-.717-.318-1.201-.496-1.935-.711-1.088-.318-2.727-.601-3.84-.662-.141-.009-.274-.019-.381-.031-.054-.005-.101-.011-.144-.018-.022-.003-.042-.008-.071-.015-.027-.007-.041.007-.151-.06-.205-.126-.192-.228-.205-.278-.02-.052-.02-.081-.02-.11 0-.055-.001-.099 0-.153.004-.107.01-.24.024-.402.026-.325.073-.762.134-1.261.121-.996.296-2.237.469-3.26.792-4.678 1.662-7.882 3.151-11.59 1.598-3.98 3.803-7.698 6.705-11.317 0-.002-.001-.004 0-.006 1.177-1.429 2.48-2.93 3.762-4.267.089-.093.214-.143.342-.14z"/></svg>