<svg height="16" width="16" xmlns="http://www.w3.org/2000/svg">
  <defs>
    <style type="text/css" id="current-color-scheme">.ColorScheme-Text { color:#000000; }</style>
  </defs><path class="ColorScheme-Text" fill="currentColor" d="m8.903 2.965.006.324c.081.022.105.046.196.061 2.826.146 4.133 2.962 4.174 5.645h-4.405c-.032 1.044.006.696 0 1.739-.023.385.029 1.531-.118 1.74-.143.569-.67.935-1.692.869-1.218.055-1.667-.969-1.654-1.651-.029-.188-.042-.935.439-.938.444.011.443.697.459.853.017.315.052.686.359.823.388.188.838.207 1.095-.119.145-.159.253-.501.243-.707-.007-1.246.03-1.363 0-2.609h-5.218c.042-2.848 1.998-5.54 5.2-5.704l.003-.326c.015-.488.917-.494.913 0zm-.812 1.329c-2.142-.029-3.772 1.336-3.964 3.61h7.794c-.107-2.366-1.293-3.551-3.83-3.61zm-6.722 10.224 13.172.023v-13.059h-13.172zm-.369-14.518h14c.552 0 1 .448 1 1v14c0 .552-.448 1-1 1h-14c-.552 0-1-.448-1-1v-14c0-.552.448-1 1-1z"/></svg>