<svg height="48" viewBox="0 0 12.7 12.7" width="48" xmlns="http://www.w3.org/2000/svg"><path fill="rgb(90, 90, 215)" d="m2.494 11.452c-.186 0-.366-.029-.534-.08-.075-.023-.148-.051-.217-.082-.014-.006-.027-.014-.04-.019-.061-.029-.118-.06-.175-.096-.007-.004-.016-.01-.023-.015-.066-.042-.128-.087-.186-.136-.005-.003-.009-.007-.013-.01-.052-.045-.102-.093-.149-.143-.011-.013-.022-.025-.033-.037-.048-.054-.093-.11-.133-.167-.001-.003-.002-.004-.003-.006-.044-.063-.084-.129-.119-.198-.005-.01-.011-.022-.015-.034-.028-.055-.053-.114-.075-.173-.005-.017-.012-.034-.019-.053-.023-.071-.044-.144-.059-.221-.023-.116-.036-.236-.036-.359v-1.052l.675-.677c.28-.309.374-.719.291-1.102-.034-.121-.051-.246-.051-.372 0-.757.615-1.371 1.372-1.371.583.063.913-.183 1.189-.803l.079-.295.009-.038.343-1.277.005-.02.02-.071c.001-.001 0-.001 0-.002.04-.155.004-.312-.087-.43l.002-.002c-.095-.119-.133-.279-.091-.439l.095-.356c.063-.235.281-.386.515-.371.026.001.053.007.078.013l.001-.003.022.006.479.129c.002 0 .003.001.007.001l.588.159-.158.588-.163.613c1.57.423 2.96 1.397 3.893 2.775-1.177-1.005-2.658-1.574-4.2-1.631l-.019.076-1.034 3.854-.311 1.157-.102.381 4.186-1.121c-.512-1.135-1.323-2.119-2.362-2.831 1.389.479 2.564 1.385 3.381 2.559l1.803-.483h.002l.806-.216-.023.108c.042.031.075.088.102.186.119.447-.143.903-.591 1.023-2.364.958-5.623 1.596-6.932 2.903l-.566.566h-1.424c-1.014 0-1.83-.816-1.83-1.83v-.304c0 1.013.816 1.829 1.83 1.829zm.458-6.099c-.591 0-1.067.478-1.067 1.067 0 .591.476 1.068 1.067 1.068.588 0 1.067-.477 1.067-1.068 0-.589-.479-1.067-1.067-1.067zm.761.763c0 .253-.205.458-.457.458-.253 0-.458-.205-.458-.458 0-.252.205-.458.458-.458.252 0 .457.206.457.458z"/></svg>