<svg height="48" width="48" xmlns="http://www.w3.org/2000/svg"><path fill="rgb(90, 90, 215)" d="m4 24c0-11.08 8.92-20 20-20v8c6.627 0 12 5.373 12 12h8c0 11.08-8.92 20-20 20v-8c-6.627 0-12-5.373-12-12zm19-8.057v10.94l2.801-.383v-4.676l3.736 5.176 2.926-.883-3.828-4.969 3.859-4.707-2.988-.646-3.705 4.705.031-4.822zm-4.137 2.764-1.09 1.059c-.046.046-.065.122-.031.175l1.278 2c-.23.364-.399.763-.53 1.176l-2.365.471c-.066.017-.125.055-.125.119v1.469c0 .062.062.131.125.146l2.303.532c.122.479.309.934.56 1.351l-1.338 1.912c-.037.054-.017.131.032.176l1.088 1.029c.046.042.13.066.187.032l2.086-1.208c.41.224.839.411 1.307.53l.498 2.207c.014.064.057.117.125.117h1.556c.066 0 .141-.056.157-.117l.558-2.207c.482-.123.951-.325 1.371-.559l2.055 1.295c.056.034.137.016.185-.031l1.09-1.029c.047-.046.066-.123.032-.176l-.747-1.176-.25.088c-.035.017-.072.001-.093-.029 0 0-.471-.674-1.09-1.53-.74 1.368-2.247 2.293-3.984 2.293-2.469 0-4.483-1.872-4.483-4.205 0-1.716 1.091-3.192 2.647-3.853v-1.088c-.283.094-.549.19-.809.324h-.031l-2.086-1.295c-.029-.017-.062-.03-.094-.027v-.002c-.032 0-.07.018-.094.031z"/></svg>