<svg fill="rgb(90,90,215)" clip-rule="evenodd" fill-rule="evenodd" stroke-linejoin="round" stroke-miterlimit="2" viewBox="0 0 245 210" xmlns="http://www.w3.org/2000/svg"><path d="m7.144 3.567h7.776c1.298 0 2.556.471 3.554 1.331l12.589 10.352c1.267 1.093 2 2.712 2 4.419v6.263c0 1.186-.455 2.324-1.265 3.162-.81.839-1.909 1.311-3.055 1.311h-21.599c-1.146 0-2.244-.472-3.055-1.311-.81-.838-1.265-1.976-1.265-3.162v-17.892c0-1.187.455-2.324 1.265-3.163.811-.839 1.909-1.31 3.055-1.31zm0 2.226c-.575 0-1.127.237-1.534.658-.407.422-.636.993-.636 1.589v17.892c0 .595.229 1.167.636 1.588s.959.658 1.534.658h21.599c.576 0 1.128-.237 1.535-.658s.635-.993.635-1.588v-6.263c0-1.046-.449-2.038-1.226-2.708l-12.589-10.352c-.612-.527-1.382-.816-2.178-.816zm.285 3.491c-.56 0-1.015-.448-1.015-1s.455-1 1.015-1h7.043c.56 0 1.014.448 1.014 1s-.454 1-1.014 1zm15.719-2.401c-.33-.269-.459-.726-.322-1.137.138-.412.513-.688.933-.688h6.013c.491 0 .962.202 1.309.561.347.36.542.847.542 1.356v4.712c0 .391-.216.748-.556.919s-.745.126-1.042-.116z" transform="matrix(8.10206 0 0 7.82482 -22.8811 -27.9099)"/><path d="m189-510c-25.853 0-47.983-9.213-66.39-27.64s-27.61-40.88-27.61-67.36v-166c0-26.127 9.203-48.49 27.61-67.09 18.407-18.607 40.537-27.91 66.39-27.91h167c25.847 0 47.977 9.303 66.39 27.91 18.407 18.6 27.61 40.963 27.61 67.09v166c0 26.48-9.203 48.933-27.61 67.36-18.413 18.427-40.543 27.64-66.39 27.64zm0 415c-25.853 0-47.983-9.203-66.39-27.61s-27.61-40.537-27.61-66.39v-167c0-25.847 9.203-47.977 27.61-66.39 18.407-18.407 40.537-27.61 66.39-27.61h167c25.847 0 47.977 9.203 66.39 27.61 18.407 18.413 27.61 40.543 27.61 66.39v167c0 25.853-9.203 47.983-27.61 66.39-18.413 18.407-40.543 27.61-66.39 27.61zm416-415c-26.48 0-48.933-9.213-67.36-27.64s-27.64-40.88-27.64-67.36v-166c0-26.127 9.213-48.49 27.64-67.09 18.427-18.607 40.88-27.91 67.36-27.91h166c26.127 0 48.49 9.303 67.09 27.91 18.607 18.6 27.91 40.963 27.91 67.09v166c0 26.48-9.303 48.933-27.91 67.36-18.6 18.427-40.963 27.64-67.09 27.64zm0 415c-26.48 0-48.933-9.203-67.36-27.61s-27.64-40.537-27.64-66.39v-167c0-25.847 9.213-47.977 27.64-66.39 18.427-18.407 40.88-27.61 67.36-27.61h166c26.127 0 48.49 9.203 67.09 27.61 18.607 18.413 27.91 40.543 27.91 66.39v167c0 25.853-9.303 47.983-27.91 66.39-18.6 18.407-40.963 27.61-67.09 27.61zm-416-510h167v-166h-167zm416 0h166v-166h-166zm0 416h166v-167h-166zm-416 0h167v-167h-167z" fill-rule="nonzero" transform="matrix(.135255 0 0 .135255 57.5098 194.641)"/></svg>