<svg fill="rgb(90,90,215)" clip-rule="evenodd" fill-rule="evenodd" stroke-linejoin="round" stroke-miterlimit="2" viewBox="0 0 48 48" xmlns="http://www.w3.org/2000/svg"><path d="m17.48 27.349c.787 0 1.429.654 1.442 1.47 0 .023.001.045.001.068.006.401-.143.787-.414 1.072s-.642.446-1.028.446c-3.358 0-11.319 0-11.319 0-.886 0-1.735-.364-2.36-1.012-.626-.648-.978-1.527-.978-2.444v-19.926c0-.917.352-1.796.978-2.444.625-.648 1.474-1.012 2.36-1.012h8.758c1.298 0 2.556.471 3.554 1.331l.194.159h9.618c1.843 0 3.337 1.548 3.337 3.456v5.434c0 1.042-.575 1.991-1.481 2.445-.905.454-1.981.332-2.77-.314-4.448-3.642-10.79-8.835-10.79-8.835-.468-.401-1.055-.621-1.662-.621h-7.301c-.489 0-.958.202-1.304.56-.346.357-.54.843-.54 1.349v16.909c0 .506.194.992.54 1.349.346.358.815.56 1.304.56z" transform="matrix(1.53077 0 0 1.47839 -2.36519 -1.11193)"/><path d="m606.41-15c-22.513 0-41.377-7.627-56.59-22.88s-22.82-33.96-22.82-56.12c0-15.333 3.5-29.167 10.5-41.5s16.833-21.96 29.5-28.88v-184.347c-12.667-6.666-22.5-16-29.5-28s-10.5-25.043-10.5-39.13c0-22.82 7.637-42.003 22.91-57.55 15.267-15.546 34.16-23.32 56.68-23.32 22.513 0 41.377 7.864 56.59 23.59 15.213 15.734 22.82 34.644 22.82 56.73 0 14.147-3.667 27.36-11 39.64-7.333 12.274-17 21.62-29 28.04v81.494l180-45v-36.494c-12-6.42-21.667-15.766-29-28.04-7.333-12.28-11-25.34-11-39.18 0-22.48 7.637-41.563 22.91-57.25 15.267-15.686 34.16-23.53 56.68-23.53 22.513 0 41.543 7.864 57.09 23.59 15.547 15.734 23.32 34.644 23.32 56.73 0 14.147-3.667 27.36-11 39.64-7.333 12.274-17 21.62-29 28.04v26.494c0 20.453-5.727 39.4-17.18 56.84s-27.06 28.16-46.82 32.16l-196 46.81v22.423c12 6.353 21.667 15.777 29 28.27 7.333 12.487 11 26.243 11 41.27 0 22.547-7.637 41.427-22.91 56.64-15.267 15.213-34.16 22.82-56.68 22.82z" fill-rule="nonzero" transform="matrix(.037889 0 0 .037889 9.04088 44.4069)"/></svg>