<svg fill="rgb(90,90,215)" clip-rule="evenodd" fill-rule="evenodd" stroke-linejoin="round" stroke-miterlimit="2" viewBox="0 0 245 210" xmlns="http://www.w3.org/2000/svg"><path d="m7.144 3.567h7.776c1.298 0 2.556.471 3.554 1.331l12.589 10.352c1.267 1.093 2 2.712 2 4.419v6.263c0 1.186-.455 2.324-1.265 3.162-.81.839-1.909 1.311-3.055 1.311h-21.599c-1.146 0-2.244-.472-3.055-1.311-.81-.838-1.265-1.976-1.265-3.162v-17.892c0-1.187.455-2.324 1.265-3.163.811-.839 1.909-1.31 3.055-1.31zm0 2.226c-.575 0-1.127.237-1.534.658-.407.422-.636.993-.636 1.589v17.892c0 .595.229 1.167.636 1.588s.959.658 1.534.658h21.599c.576 0 1.128-.237 1.535-.658s.635-.993.635-1.588v-6.263c0-1.046-.449-2.038-1.226-2.708l-12.589-10.352c-.612-.527-1.382-.816-2.178-.816zm.285 3.491c-.56 0-1.015-.448-1.015-1s.455-1 1.015-1h7.043c.56 0 1.014.448 1.014 1s-.454 1-1.014 1zm15.719-2.401c-.33-.269-.459-.726-.322-1.137.138-.412.513-.688.933-.688h6.013c.491 0 .962.202 1.309.561.347.36.542.847.542 1.356v4.712c0 .391-.216.748-.556.919s-.745.126-1.042-.116z" transform="matrix(8.10206 0 0 7.82482 -22.8811 -27.9099)"/><path d="m1.876 2.045c-.2-.08-.428-.006-.544.175-.116.182-.087.42.07.568 2.438 2.295 6.598 6.212 6.598 6.212v-4.5s-3.658-1.466-6.124-2.455zm6.624 2.392s2.827 1.337 4.861 2.299c.193.091.424.033.551-.139.128-.171.116-.409-.027-.568-.435-.479-.861-.951-1.124-1.24-.166-.184-.402-.291-.65-.295-1.006-.016-3.611-.057-3.611-.057zm-.176.213-.05 4 2.726-2.65zm-2.074 3.1s-1.468 2.569-2.759 4.83c-.113.198-.06.449.123.584.184.134.439.111.594-.056 1.699-1.825 3.592-3.858 3.592-3.858z" fill-rule="nonzero" transform="matrix(8.87487 0 0 8.87487 54.7762 60.2831)"/></svg>