<?xml version="1.0" encoding="utf-8"?>
<svg xmlns="http://www.w3.org/2000/svg" height="48" viewBox="0 -960 960 960" width="48">
  <path d="M 314.482 -80.44 C 243.693 -80.44 186.988 -105.53 144.368 -155.71 C 101.749 -205.9 80.438 -273 80.438 -357.01 C 80.438 -510.32 128.366 -635.74 224.221 -733.26 C 320.076 -830.79 445.958 -879.56 601.867 -879.56 C 668.46 -879.56 720.071 -872.96 756.697 -859.76 C 793.323 -846.56 811.637 -829.02 811.637 -807.14 C 811.637 -798.59 809.972 -789.88 806.642 -781.01 C 803.312 -772.12 798.317 -763.97 791.658 -756.54 C 784.053 -747.13 774.537 -739.98 763.11 -735.08 C 751.696 -730.18 740.389 -729.06 729.187 -731.72 C 708.236 -738.38 684.396 -743.71 657.665 -747.7 C 630.949 -751.7 606.456 -753.7 584.186 -753.7 C 478.768 -753.7 394.094 -718.16 330.165 -647.09 C 266.235 -576.03 234.27 -482.01 234.27 -365.04 C 234.27 -332.47 240.109 -298.2 251.791 -262.24 C 263.484 -226.28 290.628 -208.3 333.221 -208.3 C 349.457 -208.3 365.326 -211.96 380.829 -219.28 C 396.332 -226.61 410.317 -237.38 422.783 -251.59 C 446.277 -278.67 469.252 -323.27 491.707 -385.4 C 514.163 -447.55 534.115 -522.79 551.562 -611.11 C 554.465 -630.25 562.224 -644.15 574.836 -652.81 C 587.448 -661.46 604.877 -665.79 627.119 -665.79 C 653.824 -665.79 674.273 -658.92 688.472 -645.18 C 702.656 -631.43 706.418 -613.67 699.759 -591.88 C 682.444 -527.95 669.792 -472.33 661.801 -425.04 C 653.81 -377.74 649.814 -334.88 649.814 -296.44 C 649.814 -266.89 653.975 -245.14 662.3 -231.19 C 670.625 -217.26 682.772 -210.29 698.74 -210.29 C 715.002 -210.29 730.899 -216.46 746.428 -228.79 C 761.957 -241.14 783.853 -263.61 812.116 -296.2 C 816.006 -301.53 827.153 -306.85 845.559 -312.18 C 856.893 -312.18 865.398 -307.19 871.071 -297.2 C 876.731 -287.21 879.562 -274.62 879.562 -259.42 C 879.562 -217.35 856.014 -177.33 808.919 -139.37 C 761.811 -101.41 712.186 -82.43 660.043 -82.43 C 621.299 -82.43 588.355 -92.76 561.211 -113.4 C 534.067 -134.04 515.321 -163.68 504.973 -202.3 C 482.677 -162.64 455.307 -132.41 422.863 -111.62 C 390.418 -90.83 354.292 -80.44 314.482 -80.44 Z" style=""/>
</svg>