<?xml version="1.0" encoding="utf-8"?>
<svg clip-rule="evenodd" fill-rule="evenodd" stroke-linejoin="round" stroke-miterlimit="2" viewBox="0 0 48 48" xmlns="http://www.w3.org/2000/svg">
  <path d="M 25.235 4.811 L 26.805 6.349 L 28.933 5.802 C 29.37 5.712 29.902 5.779 30.255 5.983 C 30.609 6.187 30.934 6.614 31.074 7.038 L 31.664 9.154 L 33.78 9.745 C 34.203 9.885 34.631 10.21 34.836 10.563 C 35.04 10.916 35.108 11.449 35.017 11.886 L 34.47 14.014 L 36.008 15.584 C 36.304 15.917 36.512 16.412 36.512 16.82 C 36.512 17.228 36.304 17.723 36.008 18.056 L 34.47 19.626 L 35.017 21.752 C 35.108 22.189 35.04 22.722 34.836 23.076 C 34.631 23.429 34.204 23.754 33.78 23.894 L 31.664 24.484 L 31.074 26.601 C 30.934 27.025 30.609 27.452 30.256 27.656 C 29.902 27.86 29.37 27.927 28.933 27.836 L 26.805 27.29 L 25.235 28.827 C 24.902 29.124 24.407 29.332 23.999 29.332 C 23.591 29.332 23.096 29.124 22.763 28.827 L 21.193 27.29 L 19.066 27.836 C 18.629 27.927 18.096 27.86 17.743 27.656 C 17.389 27.452 17.064 27.025 16.924 26.601 L 16.334 24.484 L 14.218 23.894 C 13.794 23.754 13.367 23.429 13.162 23.076 C 12.958 22.722 12.891 22.189 12.981 21.752 L 13.529 19.625 L 11.991 18.056 C 11.694 17.723 11.487 17.228 11.487 16.82 C 11.487 16.411 11.694 15.917 11.991 15.584 L 13.529 14.014 L 12.981 11.885 C 12.891 11.449 12.958 10.916 13.163 10.563 C 13.367 10.21 13.794 9.885 14.218 9.745 L 16.334 9.154 L 16.924 7.038 C 17.064 6.614 17.389 6.187 17.743 5.983 C 18.096 5.779 18.629 5.712 19.066 5.802 L 21.193 6.349 L 22.763 4.811 C 23.096 4.514 23.591 4.306 23.999 4.306 C 24.407 4.306 24.902 4.514 25.235 4.811 Z M 23.999 9.256 L 23.065 10.172 C 22.664 10.519 22.006 10.696 21.483 10.594 L 20.217 10.268 L 19.866 11.528 C 19.692 12.032 19.212 12.512 18.708 12.687 L 17.449 13.037 L 17.774 14.305 C 17.876 14.827 17.7 15.484 17.351 15.885 L 16.436 16.819 L 17.351 17.754 C 17.701 18.155 17.876 18.813 17.774 19.334 L 17.449 20.601 L 18.708 20.951 C 19.212 21.126 19.692 21.607 19.865 22.109 L 20.217 23.37 L 21.484 23.044 C 22.007 22.942 22.662 23.118 23.065 23.467 L 23.999 24.383 L 24.933 23.467 C 25.335 23.118 25.992 22.942 26.515 23.044 L 27.781 23.37 L 28.132 22.11 C 28.306 21.608 28.785 21.126 29.29 20.951 L 30.549 20.601 L 30.224 19.333 C 30.122 18.812 30.298 18.154 30.648 17.753 L 31.562 16.819 L 30.647 15.885 C 30.298 15.483 30.122 14.826 30.224 14.304 L 30.549 13.037 L 29.29 12.687 C 28.786 12.512 28.306 12.032 28.132 11.528 L 27.781 10.268 L 26.515 10.594 C 25.991 10.697 25.335 10.52 24.934 10.173 L 23.999 9.256 Z M 27.652 30.274 C 28.103 30.256 28.642 30.44 28.99 30.73 C 29.31 31.052 29.539 31.573 29.56 32.025 L 29.56 40.903 C 29.511 42.018 28.826 43.022 27.974 43.436 C 27.123 43.851 25.918 43.777 25.01 43.127 L 23.999 42.37 L 22.997 43.12 C 22.089 43.77 20.875 43.851 20.024 43.436 C 19.172 43.022 18.487 42.018 18.438 40.903 L 18.438 32.025 C 18.459 31.573 18.688 31.052 19.008 30.73 C 19.355 30.439 19.886 30.256 20.339 30.273 L 20.415 30.279 C 20.813 30.332 21.255 30.542 21.506 30.814 C 21.757 31.087 21.929 31.546 21.948 31.948 L 21.948 39.505 L 23.115 38.61 C 23.362 38.439 23.718 38.311 23.999 38.311 C 24.28 38.311 24.636 38.44 24.883 38.61 L 26.05 39.505 L 26.05 32.015 C 26.069 31.595 26.249 31.118 26.512 30.833 C 26.775 30.547 27.235 30.329 27.652 30.274 Z" style=""/>
</svg>