<?xml version="1.0" encoding="utf-8"?>
<svg height="48" viewBox="0 -960 960 960" width="48" xmlns="http://www.w3.org/2000/svg">
  <path d="M 275.27 -387.07 C 275.25 -387.1 275.21 -387.13 275.19 -387.16 C 275.173 -387.18 275.143 -387.21 275.121 -387.23 C 275.105 -387.24 275.095 -387.24 275.095 -387.25 C 272.804 -389.54 270.615 -391.87 268.526 -394.25 C 246.669 -419.02 235.702 -448.15 235.51 -481.49 C 235.5 -506.68 241.51 -529.26 253.88 -549.52 C 259.37 -558.63 266.44 -567.55 274.45 -575.56 L 274.75 -575.86 C 289.26 -590.37 305.43 -600.87 323.2 -607.33 L 323.21 -730.72 C 306.04 -739.14 292.23 -751.49 281.68 -767.78 C 279.19 -771.61 277 -775.55 275.07 -779.61 C 267.94 -793.85 264.31 -809.54 264.31 -826.66 C 264.31 -856.03 274.44 -880.88 294.67 -901.27 C 314.92 -921.63 339.81 -931.84 369.15 -931.84 C 371.597 -931.84 374.012 -931.77 376.396 -931.63 C 402.743 -930.1 425.348 -919.97 443.895 -901.25 C 464.305 -880.87 474.705 -856.01 474.705 -826.65 C 474.705 -810.59 471.705 -795.79 465.305 -782.26 C 463.095 -777.26 460.515 -772.43 457.505 -767.77 C 446.905 -751.41 432.895 -739.04 415.505 -730.62 L 415.505 -665.85 C 454.124 -696.02 498.832 -711.65 549.66 -712.65 C 551.38 -712.69 553.11 -712.71 554.83 -712.71 L 680.44 -712.71 L 680.44 -712.7 L 680.485 -712.7 L 680.485 -712.69 C 683.49 -712.62 686.38 -712.3 689.154 -711.74 C 697.681 -710.02 705.151 -705.98 711.495 -699.68 C 716.107 -695.05 719.457 -689.82 721.57 -683.97 C 723.396 -678.94 724.3 -673.45 724.3 -667.51 C 724.3 -662.99 723.76 -658.72 722.673 -654.7 C 720.725 -647.48 717.014 -641.08 711.495 -635.54 C 703.677 -627.71 694.236 -623.37 682.826 -622.63 C 681.666 -622.55 680.487 -622.52 679.29 -622.52 L 553.87 -622.52 C 550.719 -622.52 547.604 -622.42 544.528 -622.24 C 513.447 -620.4 486.181 -609.26 462.895 -588.74 C 460.895 -586.78 458.705 -584.72 456.505 -582.58 C 458.895 -580.4 461.515 -578.1 463.905 -575.7 C 490.105 -549.44 503.285 -517.94 503.285 -481.24 C 503.515 -444.54 490.305 -413.03 464.095 -386.85 C 463.905 -386.71 463.905 -386.71 463.905 -386.57 C 463.905 -386.57 463.905 -386.57 463.705 -386.43 C 460.895 -383.69 458.085 -381.09 455.305 -378.63 C 481.505 -351.9 513.354 -338.14 550.487 -337.34 C 551.61 -337.32 552.737 -337.31 553.87 -337.31 L 679.48 -337.31 C 681.832 -337.31 684.113 -337.16 686.324 -336.87 C 696.185 -335.59 704.665 -331.43 711.705 -324.39 C 718.566 -317.5 722.619 -309.29 723.974 -299.77 C 724.318 -297.36 724.49 -294.87 724.49 -292.3 C 724.49 -288.44 724.105 -284.77 723.331 -281.3 C 721.551 -273.26 717.699 -266.25 711.705 -260.23 C 706.767 -255.29 701.12 -251.76 694.785 -249.65 C 690.068 -248.08 684.967 -247.29 679.48 -247.29 L 554.83 -247.29 C 501.942 -247.29 455.504 -262.87 415.505 -294.05 L 415.505 -233.33 C 432.895 -224.91 446.905 -212.53 457.505 -196.17 C 465.305 -184.19 470.095 -171.07 472.305 -156.83 C 473.895 -149.33 474.705 -141.5 474.705 -133.33 C 474.705 -103.96 464.305 -79.114 443.895 -58.735 C 427.463 -42.15 407.845 -32.319 385.263 -29.234 C 380.052 -28.519 374.677 -28.162 369.14 -28.161 C 339.81 -28.166 314.92 -38.346 294.65 -58.726 C 274.44 -79.093 264.31 -103.95 264.31 -133.31 C 264.31 -141.42 265.13 -149.2 266.74 -156.66 C 268.87 -170.96 273.87 -184.13 281.67 -196.17 C 292.23 -212.45 306.02 -224.8 323.2 -233.23 L 323.21 -355.65 C 305.68 -362.19 289.69 -372.66 275.27 -387.07 Z M 374.83 -427.1 C 402.31 -430 423.57 -453.07 423.52 -481.14 C 423.75 -493.23 419.94 -504.19 413.4 -513.02 C 404.56 -525.31 390.69 -533.74 374.81 -535.31 C 373.989 -535.37 373.183 -535.44 372.376 -535.49 C 371.298 -535.55 370.227 -535.59 369.095 -535.54 C 368.939 -535.56 368.776 -535.57 368.609 -535.57 C 368.365 -535.57 368.118 -535.57 367.872 -535.57 C 367.375 -535.55 366.849 -535.53 366.315 -535.54 C 337.695 -533.88 314.895 -510.24 315.105 -481.28 C 314.895 -466.18 321.105 -452.64 330.905 -442.8 C 336.095 -437.53 342.515 -433.28 349.505 -430.52 C 355.705 -428.09 362.505 -426.95 369.515 -426.87 C 370.134 -426.84 370.755 -426.84 371.376 -426.85 C 372.532 -426.89 373.697 -426.99 374.83 -427.1 Z" stroke-width=".003" style=""/>
</svg>