<?xml version="1.0" encoding="utf-8"?>
<svg xmlns="http://www.w3.org/2000/svg" height="48" viewBox="0 -960 960 960" width="48">
  <path d="M 480 -156 C 466.667 -156 453.5 -158.667 440.5 -164 C 427.5 -169.333 416.333 -177.667 407 -189 L 107 -551 C 99.667 -559.667 94 -569 90 -579 C 86 -589 84 -599.667 84 -611 C 84 -618.333 85 -625.5 87 -632.5 C 89 -639.5 91.667 -646.667 95 -654 L 167 -800 C 174.333 -816 185.667 -828.5 201 -837.5 C 216.333 -846.5 233.333 -851 252 -851 L 708 -851 C 726.667 -851 743.667 -846.5 759 -837.5 C 774.333 -828.5 786 -816 794 -800 L 865 -654 C 868.333 -646.667 871 -639.5 873 -632.5 C 875 -625.5 876 -618.333 876 -611 C 876 -599.667 874 -589 870 -579 C 866 -569 860.667 -559.667 854 -551 L 553 -189 C 543.667 -177.667 532.5 -169.333 519.5 -164 C 506.5 -158.667 493.333 -156 480 -156 Z M 450 -267 L 450 -570 L 198 -570 L 450 -267 Z M 510 -267 L 762 -570 L 510 -570 L 510 -267 Z M 661 -630 L 782 -630 L 713 -769 L 591 -769 L 661 -630 Z M 178 -630 L 300 -630 L 369 -769 L 247 -769 L 178 -630 Z"/>
</svg>