<svg fill="none" height="800" viewBox="0 0 16 16" width="800" xmlns="http://www.w3.org/2000/svg"><g fill="#000"><path d="m4.84989 2.37195c-.25094.14488-.51501.54441-.54565 1.4159-.01456.41396-.36194.73774-.77589.72318-.41396-.01456-.73774-.36193-.72319-.77589.03757-1.06841.37544-2.13148 1.29473-2.66223.9219-.532257 2.01495-.290554 2.96139.21436.36546.19497.50367.64929.3087 1.01474-.19497.36546-.64929.50367-1.01474.30871-.77344-.41262-1.25366-.38409-1.50535-.23877zm4.0215 1.30089c.31897-.26426.79176-.21991 1.05602.09906.55439.66913 1.08619 1.43215 1.56889 2.26828 1.0403 1.80173 1.6817 3.64767 1.8546 5.19602.0863.7729.0599 1.5084-.1206 2.1392-.1819.6356-.5362 1.2109-1.1304 1.5539-.7189.4151-1.549.3562-2.30876.0796-.76246-.2776-1.54719-.8033-2.29528-1.4861-.30593-.2793-.32755-.7537-.0483-1.0596s.75363-.3276 1.05956-.0483c.65912.6016 1.27855.9956 1.79718 1.1845.5214.1898.8494.1442 1.0456.0309.1644-.0949.3298-.2883.4383-.6676.1099-.384.1446-.9098.072-1.5601-.145-1.2981-.7011-2.94653-1.6629-4.61242-.44238-.76622-.92649-1.45963-1.42498-2.06132-.26425-.31897-.2199-.79177.09907-1.05602z"/><path d="m14.5 8.20557c0-.28976-.214-.71822-.9534-1.1805-.3512-.21958-.4579-.68231-.2383-1.03353s.6823-.45793 1.0335-.23835c.9065.56674 1.6582 1.39088 1.6582 2.45238 0 1.06452-.7558 1.89023-1.6663 2.45743-.3516.219-.8142.1116-1.0332-.24s-.1115-.81413.24-1.03315c.7441-.4635.9595-.89365.9595-1.18428zm-3.1374 2.83223c.0694.4084-.2054.7957-.6138.8651-.85661.1455-1.78333.2245-2.7488.2245-2.08046 0-3.99982-.3674-5.42714-.9919-.71254-.3117-1.33627-.7023-1.792331-1.174-.459552-.47534-.780529-1.06984-.780529-1.75593 0-.83008.466082-1.51958 1.08548-2.03921.62164-.52151 1.46923-.93828 2.43465-1.24472.39481-.12531.81644.09315.94176.48795.12531.3948-.09315.81644-.48795.94176-.8506.26999-1.50154.60943-1.9244.96418-.42512.35664-.54954.66346-.54954.89004 0 .18979.08476.42973.35895.71334.27768.28722.71569.58014 1.31514.8424 1.19667.52349 2.9023.86609 4.82591.86609.88475 0 1.72732-.0725 2.4976-.2034.4084-.0693.7957.2055.865.6138z"/><path d="m4.87192 13.6303c.25094.1449.72898.1738 1.49903-.2354.36578-.1944.81987-.0554 1.01424.3103.19438.3658.05543.8199-.31035 1.0143-.94405.5016-2.03363.7406-2.95292.2098-.92189-.5322-1.2591-1.5997-1.29505-2.6718-.01388-.414.31046-.7608.72444-.7747s.76084.3104.77472.7244c.02938.8762.2942 1.2778.54589 1.4231zm-.88414-4.13318c-.38834-.14411-.58633-.57574-.44222-.96408.3023-.81465.69718-1.65674 1.17992-2.49286 1.04023-1.80173 2.31813-3.28022 3.57258-4.20409.62625-.46122 1.27635-.8061 1.91294-.965189.6414-.160311 1.3168-.141038 1.9109.202009.7189.41504 1.083 1.16343 1.2233 1.95966.1408.79911.078 1.74152-.1394 2.73083-.0889.40456-.4889.66048-.8934.57161-.4046-.08888-.6605-.48889-.5716-.89346.1914-.87163.2229-1.60508.1272-2.14867-.0963-.54648-.2999-.80764-.4961-.92093-.1643-.0949-.4145-.14146-.7972-.04581-.3876.09687-.86028.32974-1.38713.71774-1.05173.77458-2.20125 2.0804-3.16305 3.7463-.44238.76621-.80083 1.53217-1.07267 2.26472-.14411.38833-.57574.58632-.96407.44222z"/><path d="m9.45925 8.06618c0 .75076-.60862 1.35938-1.35938 1.35938s-1.35937-.60862-1.35937-1.35938.60861-1.35937 1.35937-1.35937 1.35938.60861 1.35938 1.35937z"/></g></svg>