<?xml version="1.0" encoding="utf-8"?>
<svg clip-rule="evenodd" fill-rule="evenodd" stroke-linejoin="round" stroke-miterlimit="2" viewBox="0 0 250 250" xmlns="http://www.w3.org/2000/svg">
  <defs>
    <style type="text/css" id="current-color-scheme">.ColorScheme-Highlight { color:#000000; } .ColorScheme-Text { color:#ffffff; }</style>
  </defs>
  <path d="M 101.401 57.606 C 98.284 57.875 96.912 66.844 96.912 75.912 L 96.912 97.559 C 96.898 102.249 96.135 108.612 94.183 114.334 C 92.791 117.952 90.37 121.788 86.997 125.096 C 90.368 128.402 92.79 132.234 94.181 135.847 C 96.135 141.564 96.898 147.901 96.912 152.592 L 96.912 174.073 C 96.912 183.141 98.531 192.108 101.326 192.394 C 105.869 193.068 109.233 196.967 109.233 201.56 L 109.233 205.829 C 109.233 208.391 108.172 210.838 106.304 212.589 C 104.437 214.341 101.927 215.241 99.37 215.075 C 92.19 214.494 86.055 212.2 80.554 207.481 C 75.847 202.002 72.976 193.82 72.861 183.501 L 72.861 157.485 C 72.861 151.588 72.936 145.842 71.563 141.586 C 71.059 139.54 70.739 138.472 69.639 137.759 C 69.175 136.767 69.073 136.728 67.027 136.85 L 65.893 136.85 C 60.775 136.85 56.626 132.702 56.626 127.585 L 56.626 122.4 C 56.626 117.283 60.775 113.134 65.893 113.134 L 66.555 113.145 C 68.602 113.27 69.18 113.214 69.641 112.221 C 70.741 111.511 71.058 110.448 71.561 108.401 C 72.936 104.143 72.861 98.398 72.861 92.501 L 72.861 66.574 C 72.976 56.255 75.847 47.983 80.554 42.505 C 86.145 37.757 92.297 35.523 99.303 34.929 C 101.869 34.743 104.396 35.634 106.279 37.388 C 108.163 39.14 109.233 41.597 109.233 44.171 L 109.233 48.451 C 109.233 53.015 105.91 56.899 101.401 57.606 Z M 177.14 66.484 L 177.14 92.498 C 177.14 98.363 177.149 104.076 178.583 108.337 C 179.119 110.391 179.474 111.481 180.586 112.214 C 181.069 113.21 181.158 113.258 183.162 113.134 L 184.109 113.134 C 189.228 113.134 193.375 117.283 193.375 122.4 L 193.375 127.585 C 193.375 132.702 189.228 136.85 184.109 136.85 L 183.643 136.837 C 181.639 136.715 181.066 136.778 180.583 137.772 C 179.473 138.505 179.119 139.592 178.583 141.647 C 177.149 145.908 177.14 151.622 177.14 157.485 L 177.14 183.407 C 177.019 193.713 174.116 201.977 169.393 207.441 C 163.794 212.178 157.677 214.406 150.733 215.018 C 148.16 215.214 145.625 214.327 143.733 212.573 C 141.843 210.821 140.769 208.358 140.769 205.779 L 140.769 201.489 C 140.769 196.947 144.061 193.074 148.543 192.344 C 151.699 192.067 153.092 183.075 153.091 174.073 L 153.091 152.613 C 153.103 147.922 153.867 141.564 155.821 135.847 C 157.211 132.234 159.633 128.402 163.005 125.096 C 159.632 121.788 157.21 117.952 155.818 114.334 C 153.867 108.612 153.103 102.271 153.091 97.58 L 153.091 75.912 C 153.092 66.91 151.434 57.924 148.62 57.627 C 144.102 56.929 140.769 53.041 140.769 48.47 L 140.769 44.189 C 140.769 41.622 141.833 39.169 143.71 37.417 C 145.587 35.665 148.105 34.769 150.667 34.945 C 157.785 35.547 163.887 37.834 169.394 42.547 C 174.117 48.009 177.019 56.178 177.14 66.484 Z" style=""/>
</svg>