<?xml version="1.0" encoding="utf-8"?>
<svg xmlns="http://www.w3.org/2000/svg" height="48" viewBox="0 -960 960 960" width="48">
  <path d="M 228.5 -38.5 C 202.647 -38.5 180.517 -47.703 162.11 -66.11 C 143.703 -84.517 134.5 -106.65 134.5 -132.5 L 134.5 -548.5 C 134.5 -574.63 143.703 -596.99 162.11 -615.59 C 180.517 -634.2 202.647 -643.5 228.5 -643.5 L 278.5 -643.5 L 278.5 -717.5 C 278.5 -774.29 297.957 -822.49 336.87 -862.09 C 375.777 -901.7 423.277 -921.5 479.37 -921.5 C 535.457 -921.5 583 -901.7 622 -862.09 C 661 -822.49 680.5 -774.29 680.5 -717.5 L 680.5 -643.5 L 730.5 -643.5 C 756.627 -643.5 778.99 -634.2 797.59 -615.59 C 816.197 -596.99 825.5 -574.63 825.5 -548.5 L 825.5 -132.5 C 825.5 -106.65 816.197 -84.517 797.59 -66.11 C 778.99 -47.703 756.627 -38.5 730.5 -38.5 L 228.5 -38.5 Z M 372.5 -643.5 L 586.5 -643.5 L 586.5 -717.27 C 586.5 -748.42 576.283 -774.42 555.85 -795.25 C 535.423 -816.08 510.09 -826.5 479.85 -826.5 C 449.617 -826.5 424.167 -816.08 403.5 -795.25 C 382.833 -774.42 372.5 -748.42 372.5 -717.27 L 372.5 -643.5 Z"/>
</svg>