<?xml version="1.0" encoding="utf-8"?>
<svg xmlns="http://www.w3.org/2000/svg" height="48" viewBox="0 -960 960 960" width="48">
  <path d="M 809.276 -189 C 809.276 -162.97 800.119 -140.79 781.806 -122.47 C 763.486 -104.16 741.306 -95 715.276 -95 L 210 -95 C 183.69 -95 161.28 -104.16 142.77 -122.47 C 124.26 -140.79 115 -162.97 115 -189 L 115 -245 L 96 -245 C 84.83 -245 75.21 -249.13 67.12 -257.39 C 59.04 -265.66 55 -275.26 55 -286.19 C 55 -297.41 59.04 -307.02 67.12 -315.01 C 75.21 -323 84.83 -327 96 -327 L 115 -327 L 115 -633 L 96 -633 C 84.83 -633 75.21 -637.13 67.12 -645.39 C 59.04 -653.66 55 -663.26 55 -674.19 C 55 -685.42 59.04 -695.02 67.12 -703.01 C 75.21 -711 84.83 -715 96 -715 L 115 -715 L 115 -771 C 115 -797.31 124.26 -819.72 142.77 -838.23 C 161.28 -856.74 183.69 -866 210 -866 L 715.276 -866 C 741.306 -866 763.486 -856.74 781.806 -838.23 C 800.119 -819.72 809.276 -797.31 809.276 -771 L 809.276 -189 Z M 715.276 -189 L 715.276 -771 L 332.08 -771 L 332.08 -189 L 715.276 -189 Z M 272.08 -189 L 272.08 -771 L 210 -771 L 210 -189 L 272.08 -189 Z M 407.276 -471.69 C 397.363 -471.69 389.049 -475.02 382.336 -481.67 C 375.629 -488.32 372.276 -496.89 372.276 -507.37 C 372.276 -517.57 375.629 -526.01 382.336 -532.68 C 389.049 -539.36 397.363 -542.69 407.276 -542.69 L 512.882 -542.69 C 522.802 -542.69 531.115 -539.32 537.822 -532.57 C 544.529 -525.83 547.882 -517.47 547.882 -507.5 C 547.882 -496.96 544.529 -488.36 537.822 -481.69 C 531.115 -475.03 522.802 -471.69 512.882 -471.69 L 407.276 -471.69 Z M 407.276 -648.69 C 397.363 -648.69 389.049 -652.15 382.336 -659.06 C 375.629 -665.98 372.276 -674.54 372.276 -684.76 C 372.276 -694.7 375.629 -703.18 382.336 -710.18 C 389.049 -717.19 397.363 -720.69 407.276 -720.69 L 633.882 -720.69 C 643.802 -720.69 652.115 -717.13 658.822 -710 C 665.529 -702.87 668.882 -694.33 668.882 -684.39 C 668.882 -674.45 665.529 -666.02 658.822 -659.08 C 652.115 -652.16 643.802 -648.69 633.882 -648.69 L 407.276 -648.69 Z" style=""/>
</svg>