<?xml version="1.0" encoding="utf-8"?>
<svg xmlns="http://www.w3.org/2000/svg" height="48" viewBox="0 -960 960 960" width="48">
  <path d="M 479.5 -191.67 L 305.5 -117.67 C 274.167 -104.34 244.5 -106.98 216.5 -125.61 C 188.5 -144.24 174.5 -170.59 174.5 -204.67 L 174.5 -755.67 C 174.5 -781.98 183.66 -804.39 201.98 -822.9 C 220.293 -841.41 242.467 -850.67 268.5 -850.67 L 690.5 -850.67 C 716.807 -850.67 739.217 -841.41 757.73 -822.9 C 776.243 -804.39 785.5 -781.98 785.5 -755.67 L 785.5 -204.67 C 785.5 -170.59 771.333 -144.24 743 -125.61 C 714.667 -106.98 684.833 -104.34 653.5 -117.67 L 479.5 -191.67 Z M 479.5 -292.83 L 690.5 -204.67 L 690.5 -755.67 L 268.5 -755.67 L 268.5 -204.67 L 479.5 -292.83 Z M 389.12 -484.67 C 381.999 -484.67 376.523 -487.99 372.693 -494.49 C 368.88 -501.12 368.8 -507.63 372.504 -513.96 L 461.917 -695.94 C 466.127 -704.33 472.995 -707.49 482.49 -705.44 C 491.985 -703.22 496.732 -696.73 496.732 -685.66 L 496.732 -563.81 L 571.111 -563.81 C 578.011 -563.81 583.17 -560.64 586.573 -554.31 C 589.976 -547.97 590.101 -541.65 586.937 -535.31 L 503.854 -354.91 C 499.106 -345.88 491.985 -342.71 482.49 -345.41 C 472.995 -347.95 468.247 -354.58 468.247 -365.2 L 468.247 -484.67 L 389.12 -484.67 Z"/>
</svg>