<?xml version="1.0" encoding="utf-8"?>
<svg height="48" viewBox="0 -960 960 960" width="48" xmlns="http://www.w3.org/2000/svg">
  <defs>
    <style type="text/css" id="current-color-scheme">.ColorScheme-Highlight { color:#000000; } .ColorScheme-Text { color:#ffffff; }</style>
  </defs>
  <path d="M 835.374 -683.36 C 835.374 -654.44 811.933 -631 783.015 -631 L 489.01 -631 L 344.166 -257.71 C 336.427 -237.76 317.332 -224.53 295.938 -224.29 C 274.546 -224.05 255.159 -236.85 246.976 -256.62 L 128.62 -542.54 C 117.56 -569.25 130.254 -599.88 156.972 -610.94 C 183.689 -622 214.316 -609.31 225.376 -582.59 L 293.781 -417.34 L 404.351 -702.29 C 412.166 -722.44 431.555 -735.71 453.163 -735.71 L 783.015 -735.71 C 811.933 -735.71 835.374 -712.27 835.374 -683.36 Z M 732.227 -254.38 C 709.142 -236.96 676.311 -241.56 658.895 -264.64 L 628.867 -304.45 L 598.839 -264.64 C 581.423 -241.56 548.592 -236.96 525.507 -254.38 C 502.424 -271.8 497.827 -304.63 515.243 -327.71 L 563.279 -391.38 L 515.243 -455.06 C 497.827 -478.14 502.424 -510.97 525.507 -528.39 C 548.592 -545.81 581.423 -541.21 598.839 -518.12 L 628.867 -478.32 L 658.895 -518.12 C 676.311 -541.21 709.142 -545.81 732.227 -528.39 C 755.31 -510.97 759.907 -478.14 742.491 -455.06 L 694.455 -391.38 L 742.491 -327.71 C 759.907 -304.63 755.31 -271.8 732.227 -254.38 Z" style=""/>
</svg>