<?xml version="1.0" encoding="utf-8"?>
<svg xmlns="http://www.w3.org/2000/svg" height="48" viewBox="0 -960 960 960" width="48">
  <path d="M 228.5 -38.5 C 202.647 -38.5 180.517 -47.703 162.11 -66.11 C 143.703 -84.517 134.5 -106.65 134.5 -132.5 L 134.5 -548.5 C 134.5 -574.63 143.703 -596.99 162.11 -615.59 C 180.517 -634.2 202.647 -643.5 228.5 -643.5 L 586.5 -643.5 L 586.5 -717.27 C 586.5 -748.42 576.25 -774.42 555.75 -795.25 C 535.25 -816.08 509.833 -826.5 479.5 -826.5 C 455.753 -826.5 434.973 -819.62 417.16 -805.85 C 399.353 -792.08 387.133 -774.63 380.5 -753.5 C 375.053 -742.71 367.523 -734.01 357.91 -727.4 C 348.303 -720.8 337.417 -717.5 325.25 -717.5 C 311.463 -717.5 300.727 -723.33 293.04 -735 C 285.347 -746.67 283.5 -759.5 287.5 -773.5 C 298.833 -816.83 322.067 -852.33 357.2 -880 C 392.333 -907.67 433.1 -921.5 479.5 -921.5 C 535.627 -921.5 583.157 -901.7 622.09 -862.09 C 661.03 -822.49 680.5 -774.29 680.5 -717.5 L 680.5 -643.5 L 730.5 -643.5 C 756.627 -643.5 778.99 -634.2 797.59 -615.59 C 816.197 -596.99 825.5 -574.63 825.5 -548.5 L 825.5 -132.5 C 825.5 -106.65 816.197 -84.517 797.59 -66.11 C 778.99 -47.703 756.627 -38.5 730.5 -38.5 L 228.5 -38.5 Z"/>
</svg>