<?xml version="1.0" encoding="utf-8"?>
<svg height="128" width="128" xmlns="http://www.w3.org/2000/svg">
  <defs>
    <style type="text/css" id="current-color-scheme">.ColorScheme-Highlight { color:#000000; } .ColorScheme-Text { color:#ffffff; }</style>
  </defs>
  <path d="M 64.059 19.89 C 76.642 19.98 88.269 25.183 96.424 33.417 C 104.577 41.648 109.746 53.345 110.161 65.825 L 110.519 70.497 L 110.519 87.192 C 110.441 89.61 109.437 92.187 107.932 93.843 C 106.427 95.5 105.04 96.152 103.23 96.701 C 102.502 101.867 101.023 106.311 98.518 110.046 C 96.004 113.795 92.19 116.367 88.359 116.787 C 88.213 116.821 88.06 116.839 87.904 116.839 L 81.671 116.839 C 80.566 116.839 79.671 115.944 79.671 114.839 L 79.671 103.452 L 77.833 96.731 L 71.971 113.689 C 71.683 114.522 70.885 115.068 70.004 115.035 C 69.124 115.001 68.37 114.395 68.146 113.543 L 64.006 97.739 L 59.946 113.47 C 59.724 114.327 58.967 114.936 58.082 114.969 C 57.198 115.001 56.398 114.449 56.114 113.61 L 50.288 96.367 L 48.329 103 L 48.329 114.839 C 48.329 115.944 47.434 116.839 46.329 116.839 L 40.096 116.839 C 39.94 116.839 39.787 116.821 39.641 116.787 C 35.81 116.367 31.996 113.795 29.482 110.046 C 26.977 106.311 25.492 101.866 24.769 96.694 C 22.418 96.376 21.573 95.5 20.068 93.843 C 18.563 92.187 17.559 89.61 17.481 87.192 L 17.487 70.373 L 17.839 65.825 C 18.254 53.345 23.423 41.648 31.576 33.417 C 39.731 25.183 51.358 19.98 63.941 19.89 Z M 88.539 65.427 C 92.57 65.943 96.55 68.884 99.087 73.081 C 99.727 74.141 100.313 75.311 100.836 76.569 L 100.836 70.665 L 100.481 66.136 C 100.292 55.843 96.245 46.938 89.614 40.229 C 82.987 33.525 74.278 29.574 64.059 29.574 C 64.039 29.574 64.02 29.574 64 29.574 C 63.98 29.574 63.961 29.574 63.941 29.574 C 53.722 29.574 45.013 33.525 38.386 40.229 C 31.755 46.938 27.703 55.949 27.514 66.242 L 27.164 70.665 L 27.164 76.569 C 27.687 75.311 28.273 74.141 28.913 73.081 C 31.45 68.884 35.43 65.943 39.461 65.427 C 39.56 65.426 39.641 65.427 39.704 65.427 C 39.831 65.402 39.962 65.389 40.096 65.389 L 46.329 65.389 C 47.434 65.389 48.329 66.284 48.329 67.389 L 48.329 75.976 C 48.694 75.599 49.201 75.372 49.75 75.367 C 50.611 75.36 51.38 75.905 51.658 76.72 L 57.263 93.107 L 62.186 68.685 C 62.377 67.741 63.212 67.067 64.175 67.08 C 65.137 67.093 65.954 67.791 66.118 68.739 L 70.291 92.861 L 75.819 76.927 C 76.093 76.139 76.827 75.603 77.662 75.584 C 78.496 75.564 79.255 76.064 79.565 76.839 L 79.671 77.102 L 79.671 67.389 C 79.671 66.284 80.566 65.389 81.671 65.389 L 87.904 65.389 C 88.038 65.389 88.169 65.402 88.296 65.427 C 88.359 65.427 88.44 65.426 88.539 65.427 Z" style="stroke-linecap: round; stroke-linejoin: round; stroke-width: 4px;"/>
</svg>