<?xml version="1.0" encoding="utf-8"?>
<svg height="48" viewBox="0 -960 960 960" width="48" xmlns="http://www.w3.org/2000/svg">
  <path style="stroke-linejoin: round; stroke-width: 19px;" d="M 170.684 -483.21 C 188.405 -465.01 211.684 -435.87 241.294 -393.44 C 271.026 -347.07 323.5 -307.27 367.927 -291.04 C 389.982 -282.5 410.483 -279.16 424.078 -285.35 C 431.21 -287.44 437.131 -292.14 439.885 -299.22 C 442.952 -304.42 443.944 -311.37 443.723 -321.14 C 443.665 -329.84 449.693 -337.4 458.189 -339.29 C 463.154 -340.3 469.943 -340.95 477.805 -341.23 C 499.077 -341.9 515.925 -340.72 537.128 -340.4 C 546.747 -340.25 554.637 -332.73 555.256 -323.13 C 557.171 -291.99 560.783 -273.59 570.848 -254.5 C 580.091 -234.8 594.218 -223.27 609.59 -214.58 C 639.296 -196.46 669.282 -192.26 697.315 -167.3 C 701.016 -163.61 702.983 -158.53 702.73 -153.32 C 702.475 -148.1 700.024 -143.24 695.983 -139.93 C 695.955 -139.91 695.869 -139.84 695.842 -139.82 C 688.85 -134.43 678.799 -129.27 666.08 -124.81 C 640.54 -116.18 604.739 -110.14 564.419 -108.45 C 483.849 -105.35 385.44 -119.34 315.616 -164.02 C 232.801 -217.08 183.201 -280.01 153.764 -335.72 C 124.803 -391.73 115.55 -440.67 114.191 -465.72 C 114.21 -477.91 115.431 -488.39 117.79 -496.09 C 119.427 -500.92 122.99 -504.86 127.634 -506.97 C 132.277 -509.08 137.587 -509.18 142.302 -507.23 C 149.113 -503.75 158.402 -495.77 170.684 -483.21 Z M 377.295 -457.56 C 398.12 -436.73 400.797 -431.89 404.184 -426.36 C 407.574 -420.82 410.782 -412.34 411.518 -406.05 C 412.319 -399.22 409.609 -388.5 406.372 -381.69 C 401.917 -375.79 393.936 -368.62 387.663 -366.01 C 381.899 -363.61 373.235 -362.12 366.74 -362.12 C 354.758 -362.13 338.429 -366.76 325.462 -373.46 C 312.772 -380.82 300.096 -392.16 293.949 -402.25 C 290.57 -407.79 287.38 -416.27 286.654 -422.56 C 286.222 -426.3 287.48 -444.82 287.998 -448.37 C 289.004 -455.03 294.353 -464.57 299.098 -470.13 L 299.14 -470.18 L 299.193 -470.22 C 304.833 -474.58 314.159 -479.32 320.744 -480.21 C 326.803 -481.01 338.66 -479.13 338.66 -479.13 C 353.476 -475.59 368.377 -466.48 377.295 -457.56 Z M 120.68 -864.07 L 120.934 -864.17 L 121.085 -864.16 C 182.589 -857.57 534.257 -510.33 534.257 -510.33 L 669.469 -368.86 C 694.389 -375.43 736.804 -375.25 759.063 -366.69 C 809.664 -345.54 824.188 -326.7 850.832 -260.28 C 861.61 -229 863.425 -172.59 840.586 -142.36 C 829.094 -127.17 813.964 -113.23 798.915 -104.99 C 783.543 -96.605 764.161 -93.461 747.878 -97.727 C 744.993 -98.649 742.533 -100.57 740.985 -102.96 C 739.437 -105.35 738.692 -108.38 739.034 -111.39 C 739.415 -114.4 740.855 -117.17 742.924 -119.12 C 744.992 -121.08 747.836 -122.36 750.857 -122.58 L 750.89 -122.58 L 750.924 -122.58 C 755.762 -122.36 759.412 -123.6 762.554 -126.03 C 765.705 -128.46 768.208 -132.03 770.562 -136.56 C 772.931 -141.11 774.436 -145.28 774.588 -149.4 C 774.742 -153.52 773.581 -157.46 770.423 -161.64 L 770.394 -161.68 L 770.37 -161.72 C 757.419 -186.34 712.958 -198.12 675.301 -219.64 C 656.336 -230.49 637.631 -245.05 628.342 -263.78 C 619.145 -282.46 619.225 -303.47 628.5 -329.53 L 483.167 -460.41 C 479.825 -463.31 381.689 -548.57 283.839 -640.33 C 234.915 -686.2 186.657 -733.22 152.565 -770.47 C 135.446 -789.17 121.421 -805.98 112.799 -818.86 C 108.348 -825.51 104.674 -832.3 102.972 -837.51 C 102.011 -840.48 101.319 -844.71 101.515 -847.67 C 101.76 -851.16 103.26 -856.95 106.616 -859.04 C 114.522 -863.66 118.503 -864.33 120.68 -864.07 Z M 117.407 -855.74 C 118.345 -854.61 119.221 -853.44 120.087 -852.26 L 120.266 -854.45 C 119.279 -854.92 118.326 -855.35 117.407 -855.74 Z" id="path4"/>
</svg>