<?xml version="1.0" encoding="utf-8"?>
<svg clip-rule="evenodd" fill-rule="evenodd" stroke-linejoin="round" stroke-miterlimit="2" viewBox="0 0 48 48" xmlns="http://www.w3.org/2000/svg">
  <path d="M 42.604 2.373 L 42.637 2.389 L 42.664 2.405 C 43.03 2.64 43.433 2.986 43.689 3.427 C 44.027 3.839 44.193 4.324 44.193 4.882 L 43.942 21.574 C 43.942 24.994 43.942 28.422 43.951 31.85 C 44.081 33.588 43.7 35.433 42.7 36.919 C 42.367 37.477 41.953 38.003 41.463 38.494 C 39.923 40.033 38.054 40.802 35.854 40.802 C 33.658 40.802 31.791 40.033 30.249 38.494 C 28.709 36.951 27.938 35.085 27.938 32.885 C 27.938 30.689 28.709 28.82 30.249 27.28 C 31.791 25.74 33.658 24.969 35.854 24.969 C 36.577 24.969 37.225 25.056 37.797 25.231 C 38.367 25.405 38.874 25.648 39.315 25.966 L 39.389 14.547 C 39.272 14.563 39.152 14.582 39.035 14.601 C 38.942 14.618 38.849 14.631 38.757 14.645 C 37.972 14.767 29.102 16.274 28.347 16.443 L 28.336 16.443 C 27.148 16.705 23.951 17.315 22.774 17.495 L 22.763 17.495 C 21.725 17.659 20.689 17.828 19.667 18.04 C 19.662 21.106 19.659 26.62 19.662 29.689 C 19.662 31.596 19.662 33.52 19.662 35.442 C 19.656 35.82 19.675 36.21 19.697 36.613 C 19.7 36.646 19.7 36.679 19.703 36.714 C 19.725 37.079 19.741 37.455 19.746 37.837 C 19.755 38.663 19.684 39.529 19.321 40.366 C 18.711 42.183 17.422 43.767 15.76 44.737 C 14.825 45.298 13.792 45.642 12.667 45.761 C 12.402 45.791 12.138 45.808 11.874 45.811 C 11.822 45.811 11.773 45.811 11.721 45.811 C 9.527 45.811 7.658 45.042 6.115 43.5 C 4.576 41.96 3.807 40.091 3.807 37.894 C 3.807 35.698 4.576 33.828 6.115 32.289 C 7.658 30.746 9.527 29.975 11.721 29.975 C 12.443 29.975 13.092 30.062 13.664 30.237 C 14.111 30.373 14.52 30.553 14.888 30.776 C 14.986 30.82 15.084 30.866 15.182 30.912 L 15.182 9.199 C 15.182 8.569 15.397 8.035 15.822 7.591 C 16.157 7.24 16.555 7.03 17.016 6.953 C 17.182 6.902 17.356 6.866 17.542 6.855 C 21.785 6.002 28.012 4.771 32.252 3.956 C 34.868 3.452 37.503 2.945 40.125 2.433 L 40.13 2.433 L 40.928 2.283 L 40.918 2.294 C 41.018 2.272 41.114 2.247 41.22 2.231 C 41.326 2.215 41.433 2.198 41.547 2.193 C 41.882 2.174 42.247 2.209 42.604 2.373 Z" fill-rule="nonzero"/>
</svg>