<?xml version="1.0" encoding="utf-8"?>
<svg clip-rule="evenodd" fill-rule="evenodd" stroke-linejoin="round" stroke-miterlimit="2" viewBox="0 0 250 250" xmlns="http://www.w3.org/2000/svg">
  <path d="M 83.163 138.706 L 110.77 138.706 C 118.294 138.706 124.378 144.823 124.378 152.346 L 124.378 172.168 C 127.158 175.7 128.728 180.084 128.728 184.663 L 128.728 205.761 C 128.728 213.285 122.612 219.369 115.089 219.369 L 44.402 219.369 C 40.771 219.369 37.304 217.963 34.752 215.411 C 32.201 212.827 30.762 209.392 30.762 205.761 L 30.762 148.028 C 30.762 144.397 32.201 140.93 34.752 138.379 C 37.304 135.828 40.771 134.389 44.402 134.389 L 70.669 134.389 C 75.215 134.389 79.599 135.926 83.163 138.706 Z M 83.163 34.95 L 110.77 34.95 C 118.294 34.95 124.378 41.034 124.378 48.557 L 124.378 68.379 C 127.158 71.912 128.728 76.328 128.728 80.907 L 128.728 102.005 C 128.728 109.529 122.612 115.613 115.089 115.613 L 44.402 115.613 C 40.771 115.613 37.304 114.174 34.752 111.623 C 32.201 109.07 30.762 105.604 30.762 102.005 L 30.762 44.239 C 30.762 40.641 32.201 37.174 34.752 34.623 C 37.304 32.072 40.771 30.631 44.402 30.631 L 70.669 30.631 C 75.215 30.631 79.599 32.137 83.163 34.95 Z M 111.196 77.702 L 111.164 77.702 L 73.416 47.707 L 73.351 47.674 C 72.598 47.052 71.649 46.692 70.669 46.692 L 48.752 46.692 C 48.262 46.692 47.771 46.888 47.411 47.249 C 47.052 47.609 46.823 48.099 46.823 48.623 L 46.823 97.621 C 46.823 98.113 47.052 98.603 47.411 98.962 C 47.771 99.323 48.262 99.552 48.752 99.552 L 110.705 99.552 C 111.229 99.552 111.719 99.323 112.079 98.962 C 112.439 98.603 112.636 98.113 112.636 97.621 L 112.636 80.907 C 112.636 79.664 112.111 78.519 111.196 77.702 Z M 111.196 77.702 C 112.374 78.682 111.817 78.225 111.196 77.702 Z M 160.915 219.369 C 157.611 219.369 154.798 218.224 152.476 215.901 C 150.153 213.579 149.009 210.766 149.009 207.462 L 149.009 146.425 C 149.009 143.088 150.153 140.276 152.476 137.92 C 154.798 135.565 157.611 134.389 160.915 134.389 L 190.715 134.389 C 192.382 134.389 193.985 134.748 195.489 135.434 C 196.962 136.089 198.205 136.973 199.284 138.018 L 215.606 154.341 C 216.686 155.42 217.537 156.696 218.19 158.135 C 218.878 159.674 219.237 161.243 219.237 162.911 L 219.237 207.462 C 219.237 210.766 218.059 213.579 215.704 215.901 C 213.35 218.224 210.536 219.369 207.2 219.369 L 160.915 219.369 Z M 164.187 149.697 L 164.187 204.192 L 203.962 204.192 L 203.962 166.836 L 194.115 166.836 C 191.99 166.836 190.19 166.085 188.719 164.611 C 187.28 163.14 186.527 161.374 186.527 159.247 L 186.527 149.697 L 164.187 149.697 Z M 160.915 115.613 C 157.611 115.613 154.798 114.435 152.476 112.113 C 150.153 109.79 149.009 106.977 149.009 103.673 L 149.009 42.637 C 149.009 39.332 150.153 36.487 152.476 34.164 C 154.798 31.809 157.611 30.631 160.915 30.631 L 190.715 30.631 C 192.382 30.631 193.985 30.959 195.489 31.646 C 196.962 32.3 198.205 33.183 199.284 34.262 L 215.606 50.585 C 216.686 51.632 217.537 52.907 218.19 54.379 C 218.878 55.883 219.237 57.487 219.237 59.155 L 219.237 103.673 C 219.237 106.977 218.059 109.823 215.704 112.145 C 213.35 114.435 210.536 115.613 207.2 115.613 L 160.915 115.613 Z" style=""/>
</svg>