<?xml version="1.0" encoding="utf-8"?>
<svg xmlns="http://www.w3.org/2000/svg" height="48" viewBox="0 -960 960 960" width="48">
  <path d="M 94.5 -87.236 L 94.5 -866.32 C 94.5 -871.82 96.833 -875.53 101.5 -877.45 C 106.167 -879.37 110.5 -878.32 114.5 -874.32 L 142.5 -847.32 C 146.927 -841.99 152.7 -839.49 159.82 -839.82 C 166.94 -840.16 172.833 -842.66 177.5 -847.32 L 205.5 -876.32 C 209.927 -881.66 215.533 -884.32 222.32 -884.32 C 229.107 -884.32 235.167 -881.99 240.5 -877.32 L 269.5 -847.32 C 273.927 -842.66 279.533 -840.32 286.32 -840.32 C 293.107 -840.32 298.833 -842.66 303.5 -847.32 L 334.5 -878.32 C 338.927 -882.99 344.533 -885.32 351.32 -885.32 C 358.107 -885.32 363.833 -882.99 368.5 -878.32 L 398.5 -847.32 C 402.927 -842.66 408.533 -840.49 415.32 -840.82 C 422.107 -841.16 427.833 -843.66 432.5 -848.32 L 462.5 -877.32 C 466.927 -881.99 472.533 -884.49 479.32 -884.82 C 486.107 -885.16 491.833 -882.99 496.5 -878.32 L 527.5 -847.32 C 531.26 -842.66 536.7 -840.32 543.82 -840.32 C 550.94 -840.32 556.833 -842.66 561.5 -847.32 L 591.5 -878.32 C 595.927 -882.99 601.533 -885.32 608.32 -885.32 C 615.107 -885.32 620.833 -882.99 625.5 -878.32 L 656.5 -847.32 C 660.26 -842.66 665.7 -840.32 672.82 -840.32 C 679.94 -840.32 685.833 -842.66 690.5 -847.32 L 721.5 -878.32 C 725.927 -882.99 731.533 -885.32 738.32 -885.32 C 745.107 -885.32 750.833 -882.99 755.5 -878.32 L 785.5 -848.32 C 789.927 -843.66 795.533 -841.32 802.32 -841.32 C 809.107 -841.32 814.833 -843.66 819.5 -848.32 L 844.5 -874.32 C 848.5 -878.32 853 -879.37 858 -877.45 C 863 -875.53 865.5 -871.82 865.5 -866.32 L 865.5 -87.236 C 865.5 -81.736 863 -78.029 858 -76.116 C 853 -74.196 106.167 -74.196 101.5 -76.116 C 96.833 -78.029 94.5 -81.736 94.5 -87.236 Z M 281.5 -269.32 L 681.5 -269.32 C 691.333 -269.32 699.793 -272.72 706.88 -279.5 C 713.96 -286.28 717.5 -294.95 717.5 -305.5 C 717.5 -316.05 714.127 -324.66 707.38 -331.32 C 700.627 -337.99 692 -341.32 681.5 -341.32 L 281.5 -341.32 C 271.667 -341.32 263.21 -337.93 256.13 -331.14 C 249.043 -324.36 245.5 -315.7 245.5 -305.14 C 245.5 -294.6 248.877 -285.99 255.63 -279.32 C 262.377 -272.66 271 -269.32 281.5 -269.32 Z M 281.5 -423.32 L 681.5 -423.32 C 691.333 -423.32 699.793 -426.72 706.88 -433.5 C 713.96 -440.28 717.5 -448.95 717.5 -459.5 C 717.5 -470.05 714.127 -478.66 707.38 -485.32 C 700.627 -491.99 692 -495.32 681.5 -495.32 L 281.5 -495.32 C 271.667 -495.32 263.21 -491.93 256.13 -485.14 C 249.043 -478.36 245.5 -469.7 245.5 -459.14 C 245.5 -448.6 248.877 -439.99 255.63 -433.32 C 262.377 -426.66 271 -423.32 281.5 -423.32 Z M 281.5 -578.32 L 681.5 -578.32 C 691.333 -578.32 699.793 -581.72 706.88 -588.5 C 713.96 -595.28 717.5 -603.95 717.5 -614.5 C 717.5 -625.05 714.127 -633.66 707.38 -640.32 C 700.627 -646.99 692 -650.32 681.5 -650.32 L 281.5 -650.32 C 271.667 -650.32 263.21 -646.93 256.13 -640.14 C 249.043 -633.36 245.5 -624.7 245.5 -614.14 C 245.5 -603.6 248.877 -594.99 255.63 -588.32 C 262.377 -581.66 271 -578.32 281.5 -578.32 Z M 188.5 -169.32 L 770.5 -169.32 L 770.5 -749.32 L 188.5 -749.32 L 188.5 -169.32 Z M 188.5 -749.32 L 188.5 -169.32 L 188.5 -749.32 Z"/>
</svg>