<?xml version="1.0" encoding="utf-8"?>
<svg clip-rule="evenodd" fill-rule="evenodd" stroke-linejoin="round" stroke-miterlimit="2" viewBox="0 0 250 250" xmlns="http://www.w3.org/2000/svg">
  <defs>
    <style type="text/css" id="current-color-scheme">.ColorScheme-Highlight { color:#000000; } .ColorScheme-Text { color:#ffffff; }</style>
  </defs>
  <path color-rendering="auto" shape-rendering="auto" color-interpolation-filters="linearRGB" image-rendering="auto" text-rendering="auto" color-interpolation="sRGB" color="#4d4d4d" d="M 180.628 28.326 C 194.067 28.326 206.481 33.881 215.274 42.674 C 224.067 51.467 229.622 63.881 229.622 77.32 C 229.622 90.756 223.945 103.047 215.274 111.961 C 206.36 120.632 194.067 126.308 180.628 126.308 C 167.2 126.308 154.908 120.632 145.993 111.961 C 137.32 103.049 131.64 90.757 131.64 77.32 C 131.64 63.88 137.2 51.465 145.993 42.673 C 154.787 33.881 167.2 28.326 180.628 28.326 Z M 180.701 46.832 C 174.515 46.897 168.421 48.755 163.358 52.22 C 163.821 52.192 164.282 52.175 164.741 52.171 C 171.75 52.265 178.101 55.115 182.523 59.538 C 186.998 64.016 189.885 70.467 189.885 77.32 C 189.885 84.178 186.878 90.509 182.524 95.106 C 177.927 99.459 171.595 102.468 164.737 102.468 C 164.29 102.468 163.841 102.453 163.389 102.427 C 168.419 105.945 174.32 107.799 180.586 107.8 C 189.164 107.824 196.76 104.565 202.188 98.873 C 207.896 93.411 211.112 85.835 211.112 77.32 C 211.112 68.81 207.896 61.234 202.187 55.768 C 196.759 50.076 189.194 46.824 180.632 46.838 C 180.641 46.837 180.671 46.834 180.701 46.832 Z M 118.36 77.32 C 118.36 90.756 112.684 103.047 104.012 111.961 C 95.098 120.632 82.807 126.308 69.368 126.308 C 55.939 126.308 43.647 120.632 34.732 111.961 C 26.058 103.049 20.378 90.757 20.378 77.32 C 20.378 63.88 26.058 51.587 34.732 42.673 C 43.648 34.003 55.939 28.326 69.368 28.326 C 82.807 28.326 95.22 33.881 104.012 42.674 C 112.806 51.467 118.36 63.881 118.36 77.32 Z M 69.441 46.832 C 63.25 46.897 57.152 48.755 52.09 52.222 C 52.563 52.193 53.034 52.175 53.503 52.171 C 60.521 52.266 66.845 55.12 71.261 59.538 C 75.737 64.016 78.623 70.467 78.623 77.32 C 78.623 84.178 75.616 90.509 71.26 95.106 C 66.663 99.461 60.332 102.468 53.471 102.468 C 53.023 102.468 52.57 102.453 52.116 102.426 C 57.135 105.954 63.017 107.825 69.326 107.8 C 77.904 107.824 85.497 104.565 90.922 98.874 C 96.63 93.41 99.847 85.835 99.847 77.32 C 99.847 68.81 96.509 61.357 90.924 55.769 C 85.365 50.208 77.932 46.824 69.372 46.838 C 69.381 46.837 69.411 46.834 69.441 46.832 Z M 188.795 157.845 C 186.696 158.996 185.733 159.526 181.937 161.243 L 181.935 188.468 C 181.854 197.618 178.016 205.993 172.246 211.98 C 166.262 217.752 157.946 221.568 148.825 221.675 C 139.894 221.573 131.239 217.84 125.001 211.471 C 118.775 217.84 110.116 221.572 101.174 221.675 C 92.06 221.569 83.744 217.752 77.757 211.98 C 71.986 205.993 68.142 197.731 68.059 188.58 L 68.059 166.992 C 61.185 164.976 57.633 163.697 52.96 161.677 C 51.435 161.015 50.315 159.67 49.942 158.05 C 49.569 156.43 49.988 154.73 51.069 153.468 L 55.878 147.859 C 57.328 146.168 59.688 145.581 61.761 146.393 C 76.527 152.234 94.999 155.495 117.043 155.5 C 142.707 155.5 163.893 151.069 178.829 143.477 C 180.845 142.465 183.282 142.859 184.877 144.454 L 189.978 149.555 C 191.144 150.72 191.692 152.364 191.459 153.995 C 191.226 155.627 190.24 157.053 188.795 157.845 Z M 115.743 174.019 C 105.701 173.923 95.898 172.911 86.571 171.322 L 86.571 188.613 C 86.544 192.883 88.041 196.398 90.845 198.923 C 93.434 201.755 97.033 203.197 101.155 203.197 C 105.287 203.197 108.767 201.633 111.475 198.923 C 114.138 196.258 115.772 192.71 115.746 188.44 L 115.743 174.019 Z M 163.423 167.711 C 154.352 170.233 144.558 172.023 134.257 172.977 L 134.257 188.613 C 134.229 192.883 135.725 196.398 138.529 198.922 C 141.116 201.753 144.719 203.197 148.841 203.197 C 152.97 203.197 156.572 201.756 159.156 198.923 C 161.959 196.4 163.452 192.71 163.426 188.44 L 163.423 167.711 Z" style="stroke-linecap: round; stroke-width: 8px;"/>
</svg>