<?xml version="1.0" encoding="utf-8"?>
<svg xmlns="http://www.w3.org/2000/svg" height="48" viewBox="0 -960 960 960" width="48">
  <path d="M 498.33 -232.28 C 483.211 -232.28 470.708 -237.22 460.823 -247.11 C 450.937 -256.99 445.995 -269.5 445.995 -284.61 C 445.995 -299.73 450.937 -312.24 460.823 -322.12 C 470.708 -332.01 483.211 -336.95 498.33 -336.95 L 777.449 -336.95 C 792.568 -336.95 805.07 -332.01 814.956 -322.12 C 824.841 -312.24 829.784 -299.73 829.784 -284.61 C 829.784 -269.5 824.841 -256.99 814.956 -247.11 C 805.07 -237.22 792.568 -232.28 777.449 -232.28 L 498.33 -232.28 Z M 289.884 -493.95 L 145.09 -638.75 C 134.623 -649.21 129.681 -661.43 130.262 -675.38 C 130.844 -689.34 136.368 -701.55 146.835 -712.02 C 157.302 -722.48 169.513 -727.72 183.469 -727.72 C 197.425 -727.72 209.637 -722.48 220.104 -712.02 L 378.853 -553.27 C 395.135 -536.57 403.276 -516.69 403.276 -493.64 C 403.276 -470.59 395.135 -450.92 378.853 -434.64 L 220.104 -275.89 C 209.637 -265.42 197.425 -260.19 183.469 -260.19 C 169.513 -260.19 157.302 -265.42 146.835 -275.89 C 136.368 -286.36 131.134 -298.57 131.134 -312.53 C 131.134 -326.48 136.368 -338.69 146.835 -349.16 L 289.884 -493.95 Z" style=""/>
</svg>