<?xml version="1.0" encoding="utf-8"?>
<svg height="22" width="22" xmlns="http://www.w3.org/2000/svg">
  <path d="M 19.354 3.354 L 11.707 11 L 19.354 18.646 C 19.497 18.789 19.539 19.005 19.462 19.191 C 19.385 19.378 19.202 19.5 19 19.5 L 3 19.5 C 2.724 19.5 2.5 19.276 2.5 19 L 2.5 3 C 2.5 2.724 2.724 2.5 3 2.5 L 19 2.5 C 19.202 2.5 19.385 2.622 19.462 2.809 C 19.539 2.996 19.497 3.211 19.354 3.354 Z M 4.5 8.793 L 8.793 4.5 L 4.5 4.5 Z M 4.5 11.621 L 4.5 15.379 L 15.379 4.5 L 11.621 4.5 Z M 5.207 17.5 L 15.379 17.5 L 10.293 12.414 Z" style="stroke-linejoin: round;"/>
</svg>