<?xml version="1.0" encoding="utf-8"?>
<svg clip-rule="evenodd" fill-rule="evenodd" stroke-linejoin="round" stroke-miterlimit="2" viewBox="0 0 250 250" xmlns="http://www.w3.org/2000/svg">
  <defs>
    <style type="text/css" id="current-color-scheme">.ColorScheme-Highlight { color:#000000; } .ColorScheme-Text { color:#ffffff; }</style>
  </defs>
  <path id="path18" d="M 130.851 171.155 C 130.828 180.227 132.178 186.127 134.779 189.586 C 137.736 192.957 142.332 194.284 149.081 194.284 C 156.178 194.284 162.193 191.841 171.463 186.563 C 174.363 184.912 178.047 185.884 179.764 188.74 L 181.013 190.815 C 182.599 193.446 181.996 196.838 179.608 198.77 C 160.686 213.989 145.502 221.675 131.933 221.675 C 118.42 221.675 107.89 218.474 99.934 212.08 C 91.978 205.162 87.951 193.393 87.973 176.611 L 87.973 82.166 L 75.499 82.166 C 72.41 82.166 69.809 79.879 69.407 76.82 L 68.157 67.437 C 67.924 65.676 68.471 63.899 69.642 62.572 C 70.813 61.234 72.487 60.476 74.272 60.476 L 87.973 60.485 L 87.973 48.614 C 87.973 46.217 89.366 44.027 91.544 43.036 L 122.117 28.888 C 124.032 28.019 126.254 28.162 128.016 29.29 C 129.781 30.417 130.851 32.369 130.851 34.477 L 130.851 61.089 L 165.783 61.234 C 167.581 61.234 169.297 62.037 170.46 63.42 C 171.629 64.804 172.121 66.633 171.819 68.397 L 169.956 79.53 C 169.456 82.51 166.866 84.676 163.856 84.664 L 130.851 84.484 L 130.851 171.155 Z" style="stroke-linecap: round; stroke-linejoin: round; stroke-width: 1; fill: rgb(0, 0, 0);"/>
</svg>