<?xml version="1.0" encoding="utf-8"?>
<svg xmlns="http://www.w3.org/2000/svg" width="22" version="1.1" height="22" id="svg2">
  <path style="opacity: 1; fill-opacity: 1; fill-rule: evenodd; stroke-linejoin: round; stroke-linecap: round; stroke-width: 1;" id="path20" d="M 16.895 17.915 C 16.427 17.283 12.711 12.676 12.718 12.465 C 12.726 12.255 12.772 12.109 12.973 12.044 C 12.973 12.044 13.792 11.782 14.629 11.046 C 15.494 10.285 16.315 9.178 16.228 7.307 C 16.253 5.656 15.41 4.793 14.523 4.207 C 13.663 3.64 13.063 3.536 12.88 3.5 L 4.228 3.5 L 4.228 18.495 L 7.452 18.494 L 7.451 12.735 C 7.451 12.602 7.504 12.475 7.597 12.381 C 7.691 12.288 7.818 12.235 7.951 12.235 L 8.566 12.235 C 8.976 12.277 9.248 12.409 9.539 12.64 C 9.927 12.969 10.421 13.778 10.508 13.918 L 13.668 18.5 L 17.317 18.498 C 17.182 18.309 17.037 18.107 16.895 17.915 Z M 11.014 5.97 C 11.155 5.972 11.525 5.992 11.88 6.154 C 12.096 6.253 12.384 6.458 12.562 6.721 C 12.73 6.968 12.865 7.373 12.865 7.804 C 12.865 8.67 12.313 9.251 11.897 9.46 C 11.451 9.683 10.981 9.687 10.981 9.687 L 7.993 9.688 C 7.861 9.688 7.733 9.635 7.639 9.542 C 7.546 9.448 7.493 9.32 7.493 9.188 L 7.494 6.468 C 7.494 6.192 7.718 5.968 7.994 5.968 L 10.98 5.969 C 10.991 5.969 11.003 5.969 11.014 5.97 Z"/>
</svg>