<?xml version="1.0" encoding="utf-8"?>
<svg xmlns="http://www.w3.org/2000/svg" height="48" viewBox="0 -960 960 960" width="48">
  <path d="M 95 -189 L 95 -771 C 95 -797.807 104.033 -820.343 122.1 -838.61 C 140.167 -856.87 162.467 -866 189 -866 L 771 -866 C 797.807 -866 820.343 -856.87 838.61 -838.61 C 856.87 -820.343 866 -797.807 866 -771 L 866 -189 C 866 -162.467 856.87 -140.167 838.61 -122.1 C 820.343 -104.033 797.807 -95 771 -95 L 189 -95 C 162.467 -95 140.167 -104.033 122.1 -122.1 C 104.033 -140.167 95 -162.467 95 -189 Z M 189 -633 L 771 -633 L 771 -771 L 189 -771 Z M 403 -573 L 403 -189 L 771 -189 L 771 -573 Z M 189 -411 L 343 -411 L 343 -573 L 189 -573 Z M 189 -189 L 343 -189 L 343 -351 L 189 -351 Z M 683.907 -402.93 L 679.501 -386.63 C 661.42 -324.13 610.618 -270.83 547.609 -248.27 C 539.532 -245.59 530.652 -248.39 525.627 -255.2 C 520.556 -262.11 520.602 -271.45 525.627 -278.28 C 537.742 -294.42 545.681 -310.94 550.844 -330.32 C 553.827 -341.43 554.034 -343.93 554.883 -350.84 C 539.692 -359.4 528.38 -367.59 518.215 -385.19 C 508.004 -402.86 503.851 -428.37 509.542 -449.64 C 515.462 -471.67 532.763 -492.28 551.372 -502.49 C 569.889 -512.54 596.575 -516.32 619.222 -510.27 C 641.824 -504.21 663.095 -487.6 674.086 -469.61 C 685.1 -451.48 688.886 -425.21 683.907 -402.93 Z"/>
</svg>