<?xml version="1.0" encoding="utf-8"?>
<svg xmlns="http://www.w3.org/2000/svg" width="64" viewBox="0 0 64 64" height="64" version="1.1">
  <path d="M 51.704 34.682 C 54.217 34.675 56.23 35.453 57.557 36.586 C 58.893 37.727 59.591 39.292 59.538 40.744 C 59.474 41.896 58.888 42.753 58.282 43.278 C 57.665 43.809 56.974 44.073 56.752 44.11 C 56.605 44.13 56.45 44.148 56.331 44.119 C 56.19 44.085 56.059 43.925 56.008 43.762 C 55.995 43.625 56.04 43.452 56.143 43.354 C 56.225 43.278 56.357 43.198 56.522 43.101 C 56.851 42.9 57.746 42.328 57.913 41.237 C 57.999 40.686 57.832 39.793 57.066 38.918 C 56.285 38.026 54.943 37.222 52.617 36.974 C 50.443 36.719 48.946 36.985 47.66 37.455 C 47.866 38.013 48.012 38.532 48.048 39.209 C 48.067 40.709 46.994 41.859 45.91 42.625 C 45.271 43.073 44.574 43.381 44.009 43.559 C 43.551 43.744 42.894 43.934 42.421 43.853 C 41.913 43.744 41.45 43.434 41.266 42.934 C 41.089 42.456 41.133 41.744 41.454 40.846 C 41.809 39.883 42.775 38.501 44.289 37.273 C 43.929 36.566 43.604 35.997 43.392 35.313 C 42.994 33.997 43.082 34.209 42.998 33.847 C 42.513 34.749 41.998 35.855 40.304 38.215 C 40.206 38.36 40.164 38.419 40.094 38.515 C 40.404 39.223 40.649 39.947 40.688 40.764 C 40.735 42.254 40.032 43.425 38.933 44.212 C 38.327 44.629 37.697 44.916 37.153 45.102 C 36.805 45.248 36.091 45.487 35.08 45.556 C 34.518 45.595 33.928 45.532 33.58 45.307 C 33.355 45.134 33.188 44.903 33.145 44.671 C 33.102 44.445 33.158 44.167 33.266 43.903 C 33.458 43.463 34.779 42.019 35.866 40.781 C 36.128 40.477 36.381 40.174 36.613 39.885 L 36.602 39.863 L 36.691 39.749 C 36.691 39.749 36.846 39.552 37.112 39.198 C 36.733 38.424 36.267 37.655 36.021 36.854 C 35.622 35.538 35.733 35.836 35.649 35.484 C 35.182 36.581 34.617 38.025 33.236 40.618 C 32.203 42.557 31.499 43.757 31.162 44.314 L 31.162 44.335 L 31.13 44.39 C 31.13 44.39 31.083 44.47 30.994 44.595 C 30.952 44.668 30.927 44.702 30.927 44.702 L 30.495 45.335 L 30.495 45.285 L 30.926 44.681 C 30.559 45.195 29.662 46.275 28.769 46.275 C 28.152 46.275 27.682 45.933 27.425 45.495 C 27.173 45.064 27.057 44.48 27.019 43.935 C 26.992 43.542 26.981 43.372 26.98 43.306 C 26.791 43.723 26.93 43.516 26.228 44.828 C 25.933 45.384 25.636 45.92 25.262 46.312 C 24.884 46.709 24.367 46.987 23.724 46.987 C 23.39 46.987 22.777 46.946 22.253 46.519 C 21.205 45.554 20.398 43.137 20.543 41.301 C 20.673 39.76 20.829 39.136 21.074 38.352 C 20.608 38.597 20.305 38.755 19.605 39.151 L 18.717 39.647 L 18.693 39.602 C 19.569 41.352 19.752 45.016 17.804 47.832 C 16.795 49.254 15.339 50.424 13.704 51.092 C 12.069 51.761 10.189 51.949 8.365 51.472 C 7.74 51.294 6.928 50.584 6.519 49.536 C 6.115 48.5 6.066 47.049 6.824 45.418 C 8.201 42.578 13.526 39.894 14.923 39.238 C 15.039 39.178 14.964 39.217 14.984 39.206 C 12.072 36.933 5.551 33.951 4.512 29.079 C 4.236 27.69 4.935 24.344 9.132 20.579 C 12.658 17.44 17.563 15.037 22.068 13.508 C 25.87 12.226 29.813 11.956 32.934 12.592 C 36.07 13.231 38.46 14.848 39.122 17.209 C 39.724 19.525 38.986 22.101 37.431 24.285 C 35.878 26.465 33.476 28.337 30.814 29.326 C 26.072 31.06 22.111 30.787 20.494 30.285 C 18.63 29.683 17.49 28.479 17.211 27.803 C 17.157 27.674 17.076 27.474 17.05 27.289 C 17.037 27.192 17.039 27.062 17.072 26.964 C 17.106 26.862 17.213 26.744 17.321 26.675 C 17.427 26.621 17.615 26.574 17.785 26.669 C 17.905 26.736 18.061 26.886 18.295 27.129 C 18.714 27.571 20.355 28.755 23.581 28.378 C 27.88 27.93 31.283 26.121 33.445 23.991 C 34.521 22.931 35.26 21.821 35.644 20.745 C 36.024 19.678 36.051 18.721 35.65 17.911 C 35.127 16.759 33.268 15.958 30.452 15.881 C 27.615 15.803 23.909 16.508 19.762 18.481 C 14.686 20.884 12.042 23.061 10.634 24.834 C 9.248 26.579 9.1 27.877 9.058 28.628 C 8.912 30.628 10.223 32.12 11.97 33.563 C 13.717 35.009 15.899 36.344 17.448 37.91 C 17.974 37.638 18.524 37.344 19.059 37.067 C 20.595 36.262 21.978 35.546 22.679 35.18 C 23.794 33.672 26.021 31.997 27.67 31.997 C 28.354 31.997 28.869 32.262 29.172 32.619 C 29.476 32.979 29.625 33.479 29.678 33.93 C 29.725 34.348 29.703 34.766 29.665 35.095 C 29.87 35.011 30.212 34.975 30.639 35.11 C 31.094 35.288 31.33 35.565 31.398 35.779 C 31.473 36.019 31.412 36.185 31.417 36.176 C 31.423 36.334 30.461 39.43 30.068 41.379 C 29.995 41.759 29.971 42.087 29.972 42.347 L 29.991 42.312 C 29.991 42.312 30.096 42.123 30.288 41.777 C 30.3 41.782 30.311 41.786 30.321 41.791 C 30.32 41.765 30.32 41.735 30.321 41.702 C 30.544 41.3 30.851 40.706 31.2 39.958 C 31.893 38.483 34.557 32.839 34.777 32.219 C 35.006 31.609 35.124 30.958 35.237 30.662 C 35.349 30.46 35.697 30.259 36.11 30.165 C 36.513 30.074 37.052 30.02 37.616 30.032 C 38.206 30.044 38.58 30.178 38.772 30.323 C 38.999 30.494 39.058 30.733 39.065 30.791 L 39.068 30.809 L 39.067 30.818 C 39.057 30.967 38.523 32.223 38.414 33.067 C 38.294 33.894 38.411 34.311 38.51 35.057 C 38.562 35.506 38.767 35.876 39.05 36.408 C 40.206 34.575 41.96 31.626 42.138 30.708 C 42.282 30.044 42.5 29.395 42.608 29.115 C 42.721 28.914 43.069 28.713 43.482 28.619 C 43.885 28.528 44.422 28.475 44.986 28.486 C 45.577 28.5 45.952 28.634 46.144 28.779 C 46.371 28.949 46.43 29.188 46.437 29.245 L 46.44 29.263 L 46.438 29.272 C 46.429 29.422 45.894 30.678 45.785 31.521 C 45.666 32.35 45.783 32.763 45.88 33.511 C 45.95 34.095 46.384 34.79 46.86 35.673 C 48.226 35.069 49.765 34.675 51.703 34.647 L 51.943 34.644 L 51.943 34.68 L 51.704 34.682 Z M 16.568 40.63 C 16.551 40.638 16.523 40.655 16.489 40.676 C 16.083 40.911 15.734 41.107 15.512 41.239 C 14.514 41.836 13.007 42.799 11.85 43.844 C 10.908 44.683 10.367 45.66 10.16 46.519 C 10.059 46.94 10.046 47.293 10.115 47.596 C 10.182 47.887 10.281 48.066 10.493 48.167 C 10.9 48.416 11.591 48.379 12.423 48.097 C 13.265 47.812 14.162 47.28 14.922 46.482 C 16.481 44.878 17.147 42.917 16.568 40.63 Z M 27.757 34.521 C 27.746 34.472 27.734 34.485 27.645 34.477 C 27.541 34.47 27.428 34.492 27.262 34.556 C 26.914 34.69 26.507 34.962 26.093 35.402 C 25.575 35.954 24.695 37.374 24.278 38.581 C 23.864 39.774 23.751 40.954 23.81 41.877 C 23.839 42.332 23.908 42.699 24.006 42.972 C 24.099 43.232 24.147 43.342 24.231 43.336 C 24.25 43.361 24.24 43.345 24.308 43.294 C 24.388 43.234 24.468 43.145 24.568 43.004 C 24.772 42.717 24.988 42.306 25.206 41.836 C 25.646 40.892 26.068 39.762 26.343 39.121 C 26.682 38.334 28.006 34.943 27.757 34.521 Z M 36.271 43.086 C 36.551 42.898 36.875 42.649 37.166 42.342 C 37.441 42.051 37.679 41.732 37.809 41.366 C 37.668 41.537 37.534 41.697 37.413 41.846 C 37.146 42.164 36.652 42.689 36.271 43.086 Z M 43.47 41.632 C 43.826 41.492 44.225 41.284 44.567 40.95 C 44.989 40.541 45.301 40.001 45.292 39.142 C 45.305 38.898 45.283 38.845 45.248 38.691 C 44.555 39.33 44.178 39.91 43.961 40.365 C 43.677 40.945 43.538 41.309 43.486 41.548 C 43.479 41.581 43.474 41.608 43.47 41.632 Z"/>
</svg>