<?xml version="1.0" encoding="utf-8"?>
<svg version="1.1" viewBox="0 0 22 22" xmlns="http://www.w3.org/2000/svg">
  <path d="M 20.459 11 C 20.459 13.579 19.406 15.932 17.716 17.622 C 16.027 19.31 13.674 20.364 11.094 20.364 C 9.766 20.364 8.437 20.074 7.227 19.526 L 7.191 19.509 C 3.994 18.031 1.676 15.208 1.541 11.682 C 1.611 10.274 1.846 9.794 1.862 9.768 C 1.895 9.613 2.033 9.5 2.195 9.5 C 2.37 9.501 2.516 9.635 2.534 9.808 C 2.536 9.831 2.536 9.855 2.534 9.878 C 2.378 11.264 2.543 12.169 2.893 12.938 C 3.016 12.348 3.327 11.91 3.706 11.687 C 3.942 11.572 4.218 11.53 4.493 11.571 C 4.571 11.588 4.693 11.628 4.758 11.686 C 4.821 11.741 4.892 11.907 4.883 11.998 C 4.877 12.072 4.822 12.176 4.79 12.211 C 4.723 12.291 4.599 12.368 4.498 12.447 C 4.301 12.588 4.178 12.777 4.088 12.973 C 3.895 13.357 3.895 13.735 3.895 13.735 C 3.875 14.699 4.419 15.557 5.078 16.249 C 5.49 16.688 5.945 17.05 6.328 17.321 C 5.88 16.718 5.686 16.103 5.711 15.506 C 5.769 14.664 6.191 14.06 6.739 13.693 C 7.302 13.345 8.016 13.207 8.66 13.276 C 9.303 13.362 9.894 13.665 10.232 14.137 C 10.315 14.269 10.386 14.432 10.389 14.546 C 10.391 14.63 10.339 14.784 10.276 14.85 C 10.216 14.915 10.083 14.972 10.009 14.981 C 9.827 15.001 9.521 14.887 9.257 14.735 C 8.864 14.478 8.372 14.488 7.923 14.77 C 7.649 14.94 7.44 15.153 7.335 15.413 C 7.21 15.668 7.186 15.948 7.301 16.251 C 7.492 16.883 8.22 17.553 9.758 18.122 C 10.955 18.573 12.75 18.502 14.517 17.521 C 13.679 17.438 12.988 17.156 12.463 16.762 C 11.88 16.304 11.487 15.691 11.306 15.039 C 11.14 14.384 11.179 13.67 11.425 13.021 C 11.686 12.381 12.162 11.783 12.857 11.355 C 13.311 11.082 13.774 10.965 14.209 10.968 C 15.161 10.989 16.063 11.628 16.506 12.37 C 16.717 12.751 16.832 13.18 16.766 13.57 C 16.703 13.953 16.458 14.322 16.01 14.599 C 15.735 14.748 15.456 14.781 15.221 14.746 C 15.116 14.717 14.968 14.638 14.916 14.572 C 14.877 14.522 14.824 14.377 14.836 14.287 C 14.85 14.185 15.008 14.04 15.099 13.986 C 15.356 13.941 15.504 13.753 15.52 13.537 C 15.578 13.328 15.506 13.09 15.267 12.932 C 15.049 12.74 14.664 12.638 14.106 12.677 C 13.511 12.777 13.196 13.053 13.09 13.449 C 12.942 13.836 13.018 14.306 13.21 14.783 C 13.488 15.495 14.099 15.812 14.733 15.886 C 15.367 15.984 16 15.811 16.312 15.561 C 17.217 15.024 17.747 14.078 17.743 13.025 C 17.748 12.196 17.424 11.463 16.874 10.929 C 16.341 10.38 15.61 10.056 14.778 10.061 C 14.383 10.061 14 10.139 13.634 10.293 C 13.62 10.299 13.605 10.303 13.591 10.307 C 13.59 10.308 13.59 10.308 13.589 10.308 L 13.561 10.323 C 13.544 10.33 13.526 10.339 13.516 10.343 L 10.629 11.733 C 9.968 12.049 9.233 12.218 8.503 12.218 C 7.156 12.218 5.919 11.663 5.038 10.782 C 4.156 9.902 3.608 8.664 3.603 7.316 C 3.628 6.088 4.18 4.749 5.112 3.81 C 6.788 2.416 8.911 1.642 11.094 1.636 C 13.673 1.64 16.027 2.689 17.717 4.378 C 19.406 6.069 20.459 8.421 20.459 11 Z" style="stroke-linejoin: round; stroke-width: 0.7px;"/>
</svg>