<?xml version="1.0" encoding="utf-8"?>
<svg clip-rule="evenodd" fill-rule="evenodd" stroke-linejoin="round" stroke-miterlimit="2" viewBox="0 0 250 250" xmlns="http://www.w3.org/2000/svg">
  <path d="M 204.436 42.61 C 208.832 42.61 212.397 46.173 212.397 50.572 L 212.397 82.662 C 212.397 87.059 208.832 90.623 204.436 90.623 L 177.739 90.623 C 173.34 90.623 169.778 87.059 169.778 82.662 L 169.778 50.572 C 169.778 46.173 173.34 42.61 177.739 42.61 L 204.436 42.61 Z M 72.801 42.61 C 77.199 42.61 80.763 46.173 80.763 50.572 L 80.763 82.662 C 80.763 87.059 77.199 90.623 72.801 90.623 L 45.564 90.623 C 41.167 90.623 37.603 87.059 37.603 82.662 L 37.603 50.572 C 37.603 46.173 41.167 42.61 45.564 42.61 L 72.801 42.61 Z M 187.096 125.151 C 188.656 125.151 190.171 125.605 191.462 126.441 C 191.933 126.745 192.375 127.1 192.778 127.503 C 193.148 127.875 193.479 128.277 193.766 128.705 C 194.65 130.021 195.133 131.58 195.133 133.189 L 195.133 159.731 C 195.133 161.863 194.285 163.908 192.778 165.415 C 191.271 166.922 189.226 167.769 187.096 167.769 L 62.906 167.769 C 60.774 167.769 58.729 166.922 57.222 165.415 C 55.715 163.908 54.867 161.863 54.867 159.731 L 54.867 133.189 C 54.867 131.057 55.715 129.012 57.222 127.503 C 58.729 125.998 60.774 125.151 62.906 125.151 L 187.096 125.151 Z M 56.052 205.035 C 54.543 206.545 52.498 207.39 50.367 207.39 L 23.825 207.39 C 22.695 207.39 21.589 207.153 20.576 206.703 C 19.676 206.307 18.848 205.743 18.139 205.035 C 17.727 204.623 17.362 204.166 17.053 203.682 C 16.232 202.399 15.786 200.899 15.786 199.351 L 15.786 172.27 C 15.786 170.139 16.634 168.094 18.139 166.586 C 19.648 165.079 21.693 164.232 23.825 164.232 L 50.367 164.232 C 51.636 164.232 52.876 164.532 53.991 165.094 C 54.745 165.477 55.442 165.977 56.052 166.586 C 57.558 168.094 58.405 170.139 58.405 172.27 L 58.405 199.351 C 58.405 201.485 57.558 203.53 56.052 205.035 Z M 231.859 166.586 C 233.368 168.094 234.214 170.139 234.214 172.27 L 234.214 199.351 C 234.214 201.485 233.368 203.53 231.859 205.035 C 230.352 206.545 228.309 207.39 226.175 207.39 L 199.633 207.39 C 198.969 207.39 198.314 207.309 197.681 207.149 C 196.747 206.916 195.86 206.514 195.064 205.966 C 194.668 205.692 194.294 205.382 193.949 205.035 C 192.44 203.528 191.595 201.483 191.595 199.351 L 191.595 172.27 C 191.595 170.139 192.44 168.094 193.949 166.586 C 195.457 165.079 197.5 164.232 199.633 164.232 L 226.175 164.232 C 227.316 164.232 228.432 164.474 229.454 164.932 C 230.343 165.328 231.159 165.886 231.859 166.586 Z" style=""/>
</svg>