<?xml version="1.0" encoding="utf-8"?>
<svg xmlns="http://www.w3.org/2000/svg" height="48" viewBox="0 -960 960 960" width="48">
  <path d="M 482.5 -351 C 469.333 -351 458.21 -355.54 449.13 -364.63 C 440.043 -373.71 435.5 -384.83 435.5 -398 L 435.5 -732 C 435.5 -745.09 440.043 -756.36 449.13 -765.81 C 458.21 -775.27 469.333 -780 482.5 -780 L 817.5 -780 C 830.667 -780 841.793 -775.27 850.88 -765.81 C 859.96 -756.36 864.5 -745.09 864.5 -732 L 864.5 -398 C 864.5 -384.83 859.96 -373.71 850.88 -364.63 C 841.793 -355.54 830.667 -351 817.5 -351 L 482.5 -351 Z M 529.5 -438 L 769.5 -438 L 769.5 -693 L 529.5 -693 L 529.5 -438 Z M 137.5 -180 C 125.753 -180 115.65 -184.25 107.19 -192.76 C 98.73 -201.27 94.5 -211.44 94.5 -223.26 C 94.5 -235.09 98.73 -245.33 107.19 -254 C 115.65 -262.67 125.753 -267 137.5 -267 L 821.5 -267 C 833.533 -267 843.877 -262.68 852.53 -254.04 C 861.177 -245.39 865.5 -235.06 865.5 -223.04 C 865.5 -211.01 861.177 -200.83 852.53 -192.5 C 843.877 -184.17 833.533 -180 821.5 -180 L 137.5 -180 Z M 137.5 -351 C 125.753 -351 115.65 -355.25 107.19 -363.76 C 98.73 -372.27 94.5 -382.44 94.5 -394.26 C 94.5 -406.09 98.73 -416.33 107.19 -425 C 115.65 -433.67 125.753 -438 137.5 -438 L 331.5 -438 C 344 -438 354.46 -433.68 362.88 -425.04 C 371.293 -416.39 375.5 -406.06 375.5 -394.04 C 375.5 -382.01 371.293 -371.83 362.88 -363.5 C 354.46 -355.17 344 -351 331.5 -351 L 137.5 -351 Z M 137.5 -522 C 125.753 -522 115.65 -526.25 107.19 -534.76 C 98.73 -543.27 94.5 -553.44 94.5 -565.26 C 94.5 -577.09 98.73 -587.33 107.19 -596 C 115.65 -604.67 125.753 -609 137.5 -609 L 331.5 -609 C 344 -609 354.46 -604.68 362.88 -596.04 C 371.293 -587.39 375.5 -577.06 375.5 -565.04 C 375.5 -553.01 371.293 -542.83 362.88 -534.5 C 354.46 -526.17 344 -522 331.5 -522 L 137.5 -522 Z M 137.5 -693 C 125.753 -693 115.65 -697.25 107.19 -705.76 C 98.73 -714.27 94.5 -724.44 94.5 -736.26 C 94.5 -748.09 98.73 -758.33 107.19 -767 C 115.65 -775.67 125.753 -780 137.5 -780 L 331.5 -780 C 344 -780 354.46 -775.68 362.88 -767.04 C 371.293 -758.39 375.5 -748.06 375.5 -736.04 C 375.5 -724.01 371.293 -713.83 362.88 -705.5 C 354.46 -697.17 344 -693 331.5 -693 L 137.5 -693 Z"/>
</svg>