<?xml version="1.0" encoding="utf-8"?>
<svg xmlns="http://www.w3.org/2000/svg" height="48" viewBox="0 -960 960 960" width="48">
  <path fill="rgb(0, 0, 0)" d="M 229 -55 C 202.967 -55 180.793 -64.157 162.48 -82.47 C 144.16 -100.79 135 -122.967 135 -149 L 135 -811 C 135 -837.307 144.16 -859.717 162.48 -878.23 C 180.793 -896.743 202.967 -906 229 -906 L 552 -906 C 565.04 -906 577.467 -903.333 589.28 -898 C 601.093 -892.667 611.333 -885.667 620 -877 L 797 -700 C 805.667 -691.333 812.667 -681.093 818 -669.28 C 823.333 -657.467 826 -645.04 826 -632 L 826 -149 C 826 -122.967 816.743 -100.79 798.23 -82.47 C 779.717 -64.157 757.307 -55 731 -55 Z M 542 -672 L 542 -811 L 229 -811 L 229 -149 L 731 -149 L 731 -625 L 589 -625 C 575.833 -625 564.71 -629.543 555.63 -638.63 C 546.543 -647.71 542 -658.833 542 -672 Z M 345.293 -384.283 L 419.613 -310.05 C 424.888 -303.988 427.982 -295.823 427.909 -288.251 C 427.238 -280.853 423.679 -273.116 418.304 -267.267 C 412.469 -261.614 404.238 -258.036 396.438 -257.915 C 388.923 -258.42 381.093 -261.819 375.412 -267.161 L 279.867 -362.133 C 277.237 -364.946 274.753 -368.615 273.132 -372.098 C 271.588 -375.709 270.507 -380.152 270.507 -383.89 C 270.507 -387.649 271.593 -391.979 273.128 -395.572 C 274.744 -399.052 277.28 -402.786 279.971 -405.563 L 376.907 -502.501 C 382.759 -507.841 390.826 -511.42 398.477 -511.42 C 406.141 -511.42 414.15 -507.811 419.895 -502.458 C 425.244 -496.753 428.888 -488.577 428.888 -480.87 C 428.888 -473.065 425.232 -464.752 419.911 -458.897 Z M 615.197 -383.301 L 541.059 -457.446 C 535.406 -463.497 532.053 -471.781 532.091 -479.44 C 532.752 -486.805 536.313 -494.635 541.696 -500.513 C 547.595 -506.194 555.852 -509.654 563.571 -509.776 C 571.075 -509.256 578.936 -505.828 584.594 -500.614 L 680.019 -405.574 C 682.708 -402.798 685.291 -398.974 686.913 -395.499 C 688.435 -391.841 689.493 -387.536 689.493 -383.78 C 689.493 -380.021 688.414 -375.683 686.873 -372.091 C 685.247 -368.613 682.657 -364.839 680.03 -362.027 L 583.102 -265.088 C 577.363 -259.832 569.408 -256.25 561.843 -256.25 C 554.163 -256.25 546.276 -260.124 540.582 -265.717 C 534.974 -271.463 531.112 -279.472 531.112 -287.21 C 531.112 -295.03 534.851 -302.998 540.574 -308.694 Z"/>
</svg>