<svg version="1.1" xmlns="http://www.w3.org/2000/svg" style="fill:rgba(0,0,0,1.0)" width="256" height="256" viewBox="0 0 36.71875 32.8125">
  <defs>
    <style type="text/css" id="current-color-scheme">.ColorScheme-Highlight { color:#000000; }</style>
  </defs><path class="ColorScheme-Highlight" fill="currentColor" d="M16.390625 32.812500 C18.661470 32.812500 20.789053 32.388025 22.773438 31.539062 C24.757822 30.690100 26.502597 29.513028 28.007812 28.007812 C29.513028 26.502597 30.690100 24.757822 31.539062 22.773438 C32.388025 20.789053 32.812500 18.666678 32.812500 16.406250 C32.812500 14.135405 32.388025 12.010427 31.539062 10.031250 C30.690100 8.052073 29.513028 6.309903 28.007812 4.804688 C26.502597 3.299472 24.757822 2.122400 22.773438 1.273438 C20.789053 0.424475 18.661470 -0.000000 16.390625 -0.000000 C14.130197 -0.000000 12.010427 0.424475 10.031250 1.273438 C8.052073 2.122400 6.309903 3.299472 4.804688 4.804688 C3.299472 6.309903 2.122400 8.052073 1.273438 10.031250 C0.424475 12.010427 0.000000 14.135405 0.000000 16.406250 C0.000000 18.666678 0.424475 20.789053 1.273438 22.773438 C2.122400 24.757822 3.299472 26.502597 4.804688 28.007812 C6.309903 29.513028 8.052073 30.690100 10.031250 31.539062 C12.010427 32.388025 14.130197 32.812500 16.390625 32.812500 Z M15.250000 32.484375 L16.406250 31.234375 L1.625000 17.468750 L0.468750 18.718750 Z M20.156250 31.937500 L21.312500 30.687500 L1.843750 12.546875 L0.687500 13.796875 Z M23.796875 30.234375 L24.984375 28.984375 L3.265625 8.718750 L2.078125 9.968750 Z M16.390625 30.937500 C14.390615 30.937500 12.513030 30.562504 10.757812 29.812500 C9.002595 29.062496 7.458340 28.020840 6.125000 26.687500 C4.791660 25.354160 3.750004 23.809905 3.000000 22.054688 C2.249996 20.299470 1.875000 18.416677 1.875000 16.406250 C1.875000 14.395823 2.249996 12.513030 3.000000 10.757812 C3.750004 9.002595 4.791660 7.458340 6.125000 6.125000 C7.458340 4.791660 9.002595 3.750004 10.757812 3.000000 C12.513030 2.249996 14.390615 1.875000 16.390625 1.875000 C18.401052 1.875000 20.286450 2.249996 22.046875 3.000000 C23.807300 3.750004 25.354160 4.791660 26.687500 6.125000 C28.020840 7.458340 29.062496 9.002595 29.812500 10.757812 C30.562504 12.513030 30.937500 14.395823 30.937500 16.406250 C30.937500 18.416677 30.562504 20.299470 29.812500 22.054688 C29.062496 23.809905 28.020840 25.354160 26.687500 26.687500 C25.354160 28.020840 23.807300 29.062496 22.046875 29.812500 C20.286450 30.562504 18.401052 30.937500 16.390625 30.937500 Z M26.843750 27.265625 L28.031250 26.015625 L5.750000 5.234375 L4.562500 6.484375 Z M29.546875 24.093750 L30.734375 22.843750 L9.015625 2.578125 L7.828125 3.828125 Z M30.968750 20.265625 L32.125000 19.015625 L12.656250 0.875000 L11.500000 2.125000 Z M31.187500 15.343750 L32.343750 14.093750 L17.562500 0.328125 L16.406250 1.578125 Z M36.718750 27.343750" /></svg>