<svg version="1.1" xmlns="http://www.w3.org/2000/svg" style="fill:rgba(0,0,0,1.0)" width="256" height="256" viewBox="0 0 37.03125 32.8125">
  <defs>
    <style type="text/css" id="current-color-scheme">.ColorScheme-Highlight { color:#000000; }</style>
  </defs><path class="ColorScheme-Highlight" fill="currentColor" d="M2.750000 32.812500 L30.703125 32.812500 C31.453129 32.812500 32.096351 32.544274 32.632812 32.007812 C33.169274 31.471351 33.437500 30.828129 33.437500 30.078125 L33.437500 2.734375 C33.437500 1.984371 33.169274 1.341149 32.632812 0.804688 C32.096351 0.268226 31.453129 -0.000000 30.703125 -0.000000 L2.734375 -0.000000 C1.984371 -0.000000 1.341149 0.268226 0.804688 0.804688 C0.268226 1.341149 0.000000 1.984371 0.000000 2.734375 L0.000000 30.093750 C0.000000 30.833337 0.270831 31.471351 0.812500 32.007812 C1.354169 32.544274 1.999996 32.812500 2.750000 32.812500 Z M4.234375 32.640625 L5.390625 31.390625 L1.218750 27.515625 L0.062500 28.765625 Z M10.062500 32.500000 L11.218750 31.250000 L1.578125 22.265625 L0.421875 23.515625 Z M15.562500 32.484375 L16.718750 31.234375 L1.531250 17.093750 L0.375000 18.343750 Z M21.031250 32.453125 L22.187500 31.203125 L1.515625 11.953125 L0.359375 13.203125 Z M26.515625 32.484375 L27.703125 31.234375 L1.531250 6.812500 L0.343750 8.062500 Z M3.062500 31.093750 C2.739582 31.093750 2.460939 30.979168 2.226562 30.750000 C1.992186 30.520832 1.875000 30.250002 1.875000 29.937500 L1.875000 2.890625 C1.875000 2.578123 1.992186 2.304689 2.226562 2.070312 C2.460939 1.835936 2.734373 1.718750 3.046875 1.718750 L30.390625 1.718750 C30.703127 1.718750 30.976561 1.835936 31.210938 2.070312 C31.445314 2.304689 31.562500 2.578123 31.562500 2.890625 L31.562500 29.921875 C31.562500 30.234377 31.445314 30.507811 31.210938 30.742188 C30.976561 30.976564 30.703127 31.093750 30.390625 31.093750 Z M31.656250 31.468750 L32.843750 30.218750 L1.750000 1.203125 L0.562500 2.453125 Z M31.906250 26.000000 L33.093750 24.750000 L6.984375 0.390625 L5.796875 1.640625 Z M31.906250 20.843750 L33.062500 19.593750 L12.375000 0.328125 L11.218750 1.578125 Z M31.890625 15.734375 L33.078125 14.484375 L17.890625 0.328125 L16.703125 1.578125 Z M31.937500 10.625000 L33.093750 9.375000 L23.343750 0.312500 L22.187500 1.562500 Z M32.218750 5.296875 L33.375000 4.046875 L29.203125 0.171875 L28.046875 1.421875 Z M37.031250 27.343750" /></svg>