<svg version="1.1" xmlns="http://www.w3.org/2000/svg" style="fill:rgba(0,0,0,1.0)" width="256" height="256" viewBox="0 0 36.71875 32.8125">
  <defs>
    <style type="text/css" id="current-color-scheme">.ColorScheme-Highlight { color:#000000; }</style>
  </defs><path class="ColorScheme-Highlight" fill="currentColor" d="M16.406250 32.812500 C17.208337 32.812500 17.911455 32.510420 18.515625 31.906250 L31.937500 18.531250 C32.520836 17.947914 32.812500 17.239588 32.812500 16.406250 C32.812500 15.572913 32.520836 14.864586 31.937500 14.281250 L18.515625 0.906250 C17.911455 0.302080 17.208337 -0.000000 16.406250 -0.000000 C15.604163 -0.000000 14.901045 0.302080 14.296875 0.906250 L0.875000 14.281250 C0.291664 14.864586 0.000000 15.572913 0.000000 16.406250 C0.000000 17.239588 0.291664 17.947914 0.875000 18.531250 L14.296875 31.906250 C14.901045 32.510420 15.604163 32.812500 16.406250 32.812500 Z M11.171875 28.390625 L21.640625 28.390625 L21.640625 26.515625 L11.171875 26.515625 Z M6.750000 23.968750 L26.062500 23.968750 L26.062500 22.093750 L6.750000 22.093750 Z M2.375000 19.546875 L30.437500 19.546875 L30.437500 17.671875 L2.375000 17.671875 Z M16.406250 30.937500 C16.104165 30.937500 15.838543 30.822918 15.609375 30.593750 L2.187500 17.218750 C2.062499 17.093749 1.979167 16.979167 1.937500 16.875000 C1.895833 16.770833 1.875000 16.614584 1.875000 16.406250 C1.875000 16.072915 1.979166 15.802084 2.187500 15.593750 L15.609375 2.218750 C15.838543 1.989582 16.104165 1.875000 16.406250 1.875000 C16.708335 1.875000 16.973957 1.989582 17.203125 2.218750 L30.625000 15.593750 C30.833334 15.802084 30.937500 16.072915 30.937500 16.406250 C30.937500 16.614584 30.916667 16.770833 30.875000 16.875000 C30.833333 16.979167 30.750001 17.093749 30.625000 17.218750 L17.203125 30.593750 C16.973957 30.822918 16.708335 30.937500 16.406250 30.937500 Z M2.375000 15.140625 L30.453125 15.140625 L30.453125 13.265625 L2.375000 13.265625 Z M6.750000 10.718750 L26.062500 10.718750 L26.062500 8.843750 L6.750000 8.843750 Z M11.171875 6.296875 L21.656250 6.296875 L21.656250 4.421875 L11.171875 4.421875 Z M36.718750 27.343750" /></svg>