<svg version="1.1" xmlns="http://www.w3.org/2000/svg" style="fill:rgba(0,0,0,1.0)" width="256" height="256" viewBox="0 0 37.03125 32.8125">
  <defs>
    <style type="text/css" id="current-color-scheme">.ColorScheme-Highlight { color:#000000; }</style>
  </defs><path class="ColorScheme-Highlight" fill="currentColor" d="M2.734375 32.812500 L30.687500 32.812500 C31.437504 32.812500 32.083331 32.544274 32.625000 32.007812 C33.166669 31.471351 33.437500 30.833337 33.437500 30.093750 L33.437500 2.734375 C33.437500 1.984371 33.169274 1.341149 32.632812 0.804688 C32.096351 0.268226 31.453129 -0.000000 30.703125 -0.000000 L2.734375 -0.000000 C1.984371 -0.000000 1.341149 0.268226 0.804688 0.804688 C0.268226 1.341149 0.000000 1.984371 0.000000 2.734375 L0.000000 30.078125 C0.000000 30.828129 0.268226 31.471351 0.804688 32.007812 C1.341149 32.544274 1.984371 32.812500 2.734375 32.812500 Z M6.921875 32.484375 L33.093750 8.062500 L31.906250 6.812500 L5.734375 31.234375 Z M12.406250 32.453125 L33.078125 13.203125 L31.921875 11.953125 L11.250000 31.203125 Z M1.218750 5.296875 L5.390625 1.421875 L4.234375 0.171875 L0.062500 4.046875 Z M17.875000 32.484375 L33.062500 18.343750 L31.906250 17.093750 L16.718750 31.234375 Z M23.375000 32.500000 L33.015625 23.515625 L31.859375 22.265625 L22.218750 31.250000 Z M3.046875 31.093750 C2.734373 31.093750 2.460939 30.976564 2.226562 30.742188 C1.992186 30.507811 1.875000 30.234377 1.875000 29.921875 L1.875000 2.890625 C1.875000 2.578123 1.992186 2.304689 2.226562 2.070312 C2.460939 1.835936 2.734373 1.718750 3.046875 1.718750 L30.390625 1.718750 C30.703127 1.718750 30.976561 1.835936 31.210938 2.070312 C31.445314 2.304689 31.562500 2.578123 31.562500 2.890625 L31.562500 29.937500 C31.562500 30.250002 31.445314 30.520832 31.210938 30.750000 C30.976561 30.979168 30.697918 31.093750 30.375000 31.093750 Z M1.781250 31.468750 L32.875000 2.453125 L31.687500 1.203125 L0.593750 30.218750 Z M29.203125 32.640625 L33.375000 28.765625 L32.218750 27.515625 L28.046875 31.390625 Z M1.500000 10.625000 L11.250000 1.562500 L10.093750 0.312500 L0.343750 9.375000 Z M1.546875 15.734375 L16.734375 1.578125 L15.546875 0.328125 L0.359375 14.484375 Z M1.531250 20.843750 L22.218750 1.578125 L21.062500 0.328125 L0.375000 19.593750 Z M1.531250 26.000000 L27.640625 1.640625 L26.453125 0.390625 L0.343750 24.750000 Z M37.031250 27.343750" /></svg>