<svg version="1.1" xmlns="http://www.w3.org/2000/svg" style="fill:rgba(0,0,0,1.0)" width="256" height="256" viewBox="0 0 36.71875 32.8125">
  <defs>
    <style type="text/css" id="current-color-scheme">.ColorScheme-Highlight { color:#000000; }</style>
  </defs><path class="ColorScheme-Highlight" fill="currentColor" d="M16.406250 32.812500 C18.677095 32.812500 20.802073 32.388025 22.781250 31.539062 C24.760427 30.690100 26.502597 29.513028 28.007812 28.007812 C29.513028 26.502597 30.690100 24.757822 31.539062 22.773438 C32.388025 20.789053 32.812500 18.661470 32.812500 16.390625 C32.812500 14.130197 32.388025 12.010427 31.539062 10.031250 C30.690100 8.052073 29.513028 6.309903 28.007812 4.804688 C26.502597 3.299472 24.760427 2.122400 22.781250 1.273438 C20.802073 0.424475 18.677095 -0.000000 16.406250 -0.000000 C14.145822 -0.000000 12.023447 0.424475 10.039062 1.273438 C8.054678 2.122400 6.309903 3.299472 4.804688 4.804688 C3.299472 6.309903 2.122400 8.052073 1.273438 10.031250 C0.424475 12.010427 0.000000 14.130197 0.000000 16.390625 C0.000000 18.661470 0.424475 20.789053 1.273438 22.773438 C2.122400 24.757822 3.299472 26.502597 4.804688 28.007812 C6.309903 29.513028 8.054678 30.690100 10.039062 31.539062 C12.023447 32.388025 14.145822 32.812500 16.406250 32.812500 Z M5.156250 27.828125 L7.031250 27.828125 L7.031250 5.062500 L5.156250 5.062500 Z M10.312500 31.328125 L12.187500 31.328125 L12.187500 1.328125 L10.312500 1.328125 Z M16.406250 30.937500 C14.395823 30.937500 12.513030 30.562504 10.757812 29.812500 C9.002595 29.062496 7.458340 28.020840 6.125000 26.687500 C4.791660 25.354160 3.750004 23.807300 3.000000 22.046875 C2.249996 20.286450 1.875000 18.401052 1.875000 16.390625 C1.875000 14.390615 2.249996 12.513030 3.000000 10.757812 C3.750004 9.002595 4.791660 7.458340 6.125000 6.125000 C7.458340 4.791660 9.002595 3.750004 10.757812 3.000000 C12.513030 2.249996 14.395823 1.875000 16.406250 1.875000 C18.416677 1.875000 20.299470 2.249996 22.054688 3.000000 C23.809905 3.750004 25.354160 4.791660 26.687500 6.125000 C28.020840 7.458340 29.062496 9.002595 29.812500 10.757812 C30.562504 12.513030 30.937500 14.390615 30.937500 16.390625 C30.937500 18.401052 30.562504 20.286450 29.812500 22.046875 C29.062496 23.807300 28.020840 25.354160 26.687500 26.687500 C25.354160 28.020840 23.809905 29.062496 22.054688 29.812500 C20.299470 30.562504 18.416677 30.937500 16.406250 30.937500 Z M15.468750 32.109375 L17.343750 32.109375 L17.343750 0.703125 L15.468750 0.703125 Z M20.625000 31.328125 L22.500000 31.328125 L22.500000 1.328125 L20.625000 1.328125 Z M25.781250 27.828125 L27.656250 27.828125 L27.656250 5.062500 L25.781250 5.062500 Z M36.718750 27.343750" /></svg>