<svg version="1.1" xmlns="http://www.w3.org/2000/svg" style="fill:rgba(0,0,0,1.0)" width="256" height="256" viewBox="0 0 25.78125 16.40625">
  <defs>
    <style type="text/css" id="current-color-scheme">.ColorScheme-Highlight { color:#000000; }</style>
  </defs><path class="ColorScheme-Highlight" fill="currentColor" d="M5.468750 16.406250 C6.020836 16.406250 6.494790 16.208335 6.890625 15.812500 L10.343750 12.359375 C10.572918 12.130207 10.729166 11.898439 10.812500 11.664062 C10.895834 11.429686 10.937500 11.192710 10.937500 10.953125 C10.937500 10.713540 10.895834 10.476564 10.812500 10.242188 C10.729166 10.007811 10.572918 9.776043 10.343750 9.546875 L6.890625 6.093750 C6.494790 5.697915 6.020836 5.500000 5.468750 5.500000 C4.916664 5.500000 4.442710 5.697915 4.046875 6.093750 L0.593750 9.546875 C0.364582 9.776043 0.208334 10.007811 0.125000 10.242188 C0.041666 10.476564 0.000000 10.713540 0.000000 10.953125 C0.000000 11.192710 0.041666 11.429686 0.125000 11.664062 C0.208334 11.898439 0.364582 12.130207 0.593750 12.359375 L4.046875 15.812500 C4.442710 16.208335 4.916664 16.406250 5.468750 16.406250 Z M3.015625 14.546875 L7.921875 14.546875 L8.234375 13.609375 L2.703125 13.609375 Z M1.406250 12.984375 L9.531250 12.984375 L9.843750 12.046875 L1.093750 12.046875 Z M5.468750 15.484375 C5.333333 15.484375 5.200521 15.458334 5.070312 15.406250 C4.940104 15.354166 4.817709 15.270834 4.703125 15.156250 L1.250000 11.703125 C1.031249 11.484374 0.921875 11.234376 0.921875 10.953125 C0.921875 10.671874 1.031249 10.421876 1.250000 10.203125 L4.703125 6.750000 C4.817709 6.635416 4.940104 6.552084 5.070312 6.500000 C5.200521 6.447916 5.333333 6.421875 5.468750 6.421875 C5.604167 6.421875 5.736979 6.447916 5.867188 6.500000 C5.997396 6.552084 6.119791 6.635416 6.234375 6.750000 L9.687500 10.203125 C9.906251 10.421876 10.015625 10.671874 10.015625 10.953125 C10.015625 11.234376 9.906251 11.484374 9.687500 11.703125 L6.234375 15.156250 C6.119791 15.270834 5.997396 15.354166 5.867188 15.406250 C5.736979 15.458334 5.604167 15.484375 5.468750 15.484375 Z M0.453125 11.421875 L10.484375 11.421875 L10.484375 10.484375 L0.453125 10.484375 Z M1.093750 9.859375 L9.843750 9.859375 L9.531250 8.921875 L1.406250 8.921875 Z M2.703125 8.296875 L8.234375 8.296875 L7.921875 7.359375 L3.015625 7.359375 Z M25.781250 21.906250" /></svg>