<svg version="1.1" xmlns="http://www.w3.org/2000/svg" style="fill:rgba(0,0,0,1.0)" width="256" height="256" viewBox="0 0 38.125 32.8125">
  <defs>
    <style type="text/css" id="current-color-scheme">.ColorScheme-Highlight { color:#000000; }</style>
  </defs><path class="ColorScheme-Highlight" fill="currentColor" d="M17.812500 32.812500 C21.916687 29.677068 25.281237 26.770847 27.906250 24.093750 C30.531263 21.416653 32.473952 18.864595 33.734375 16.437500 C34.994798 14.010405 35.625000 11.609387 35.625000 9.234375 C35.625000 7.911452 35.398440 6.687506 34.945312 5.562500 C34.492185 4.437494 33.856775 3.458337 33.039062 2.625000 C32.221350 1.791663 31.255214 1.145836 30.140625 0.687500 C29.026036 0.229164 27.812507 -0.000000 26.500000 -0.000000 C25.249994 -0.000000 24.057297 0.226560 22.921875 0.679688 C21.786453 1.132815 20.778650 1.765621 19.898438 2.578125 C19.018225 3.390629 18.322919 4.338536 17.812500 5.421875 C17.312498 4.338536 16.619796 3.390629 15.734375 2.578125 C14.848954 1.765621 13.838547 1.132815 12.703125 0.679688 C11.567703 0.226560 10.375006 -0.000000 9.125000 -0.000000 C7.374991 -0.000000 5.812507 0.401038 4.437500 1.203125 C3.062493 2.005212 1.979171 3.101556 1.187500 4.492188 C0.395829 5.882819 0.000000 7.463533 0.000000 9.234375 C0.000000 11.609387 0.630202 14.010405 1.890625 16.437500 C3.151048 18.864595 5.093737 21.416653 7.718750 24.093750 C10.343763 26.770847 13.708313 29.677068 17.812500 32.812500 Z M9.406250 23.812500 C9.645835 23.812500 9.851562 23.729168 10.023438 23.562500 C10.195313 23.395832 10.281250 23.192710 10.281250 22.953125 C10.281250 22.713540 10.195313 22.507813 10.023438 22.335938 C9.851562 22.164062 9.645835 22.078125 9.406250 22.078125 C9.177082 22.078125 8.973959 22.166666 8.796875 22.343750 C8.619791 22.520834 8.531250 22.723957 8.531250 22.953125 C8.531250 23.182293 8.619791 23.382812 8.796875 23.554688 C8.973959 23.726563 9.177082 23.812500 9.406250 23.812500 Z M7.687500 20.578125 C7.447915 20.578125 7.242188 20.494793 7.070312 20.328125 C6.898437 20.161458 6.812500 19.958335 6.812500 19.718750 C6.812500 19.479165 6.898437 19.273438 7.070312 19.101562 C7.242188 18.929687 7.447915 18.843750 7.687500 18.843750 C7.927085 18.843750 8.130208 18.929687 8.296875 19.101562 C8.463542 19.273438 8.546875 19.479165 8.546875 19.718750 C8.546875 19.947918 8.463542 20.148437 8.296875 20.320312 C8.130208 20.492188 7.927085 20.578125 7.687500 20.578125 Z M17.859375 30.062500 C17.619790 30.062500 17.414063 29.976563 17.242188 29.804688 C17.070312 29.632812 16.984375 29.427085 16.984375 29.187500 C16.984375 28.947915 17.070312 28.742188 17.242188 28.570312 C17.414063 28.398437 17.619790 28.312500 17.859375 28.312500 C18.098960 28.312500 18.304687 28.398437 18.476562 28.570312 C18.648438 28.742188 18.734375 28.947915 18.734375 29.187500 C18.734375 29.427085 18.648438 29.632812 18.476562 29.804688 C18.304687 29.976563 18.098960 30.062500 17.859375 30.062500 Z M15.062500 27.140625 C14.822915 27.140625 14.619792 27.054688 14.453125 26.882812 C14.286458 26.710937 14.203125 26.505210 14.203125 26.265625 C14.203125 26.026040 14.289062 25.822918 14.460938 25.656250 C14.632813 25.489582 14.833332 25.406250 15.062500 25.406250 C15.302085 25.406250 15.507812 25.489582 15.679688 25.656250 C15.851563 25.822918 15.937500 26.026040 15.937500 26.265625 C15.937500 26.505210 15.851563 26.710937 15.679688 26.882812 C15.507812 27.054688 15.302085 27.140625 15.062500 27.140625 Z M5.500000 17.250000 C5.260415 17.250000 5.052084 17.164063 4.875000 16.992188 C4.697916 16.820312 4.609375 16.614585 4.609375 16.375000 C4.609375 16.135415 4.697916 15.927084 4.875000 15.750000 C5.052084 15.572916 5.260415 15.484375 5.500000 15.484375 C5.739585 15.484375 5.945312 15.570312 6.117188 15.742188 C6.289063 15.914063 6.375000 16.124999 6.375000 16.375000 C6.375000 16.614585 6.289063 16.820312 6.117188 16.992188 C5.945312 17.164063 5.739585 17.250000 5.500000 17.250000 Z M12.859375 23.812500 C12.630207 23.812500 12.427084 23.726563 12.250000 23.554688 C12.072916 23.382812 11.984375 23.177085 11.984375 22.937500 C11.984375 22.708332 12.072916 22.507813 12.250000 22.335938 C12.427084 22.164062 12.630207 22.078125 12.859375 22.078125 C13.098960 22.078125 13.304687 22.164062 13.476562 22.335938 C13.648438 22.507813 13.734375 22.713540 13.734375 22.953125 C13.734375 23.182293 13.648438 23.382812 13.476562 23.554688 C13.304687 23.726563 13.098960 23.812500 12.859375 23.812500 Z M4.046875 14.109375 C3.817707 14.109375 3.617188 14.020834 3.445312 13.843750 C3.273437 13.666666 3.187500 13.463543 3.187500 13.234375 C3.187500 12.994790 3.273437 12.789063 3.445312 12.617188 C3.617188 12.445312 3.817707 12.359375 4.046875 12.359375 C4.286460 12.359375 4.492187 12.445312 4.664062 12.617188 C4.835938 12.789063 4.921875 12.994790 4.921875 13.234375 C4.921875 13.473960 4.835938 13.679687 4.664062 13.851562 C4.492187 14.023438 4.286460 14.109375 4.046875 14.109375 Z M11.046875 20.578125 C10.817707 20.578125 10.619792 20.494793 10.453125 20.328125 C10.286458 20.161458 10.203125 19.958335 10.203125 19.718750 C10.203125 19.479165 10.286458 19.273438 10.453125 19.101562 C10.619792 18.929687 10.817707 18.843750 11.046875 18.843750 C11.286460 18.843750 11.489583 18.929687 11.656250 19.101562 C11.822918 19.273438 11.906250 19.479165 11.906250 19.718750 C11.906250 19.947918 11.822918 20.148437 11.656250 20.320312 C11.489583 20.492188 11.286460 20.578125 11.046875 20.578125 Z M17.859375 27.140625 C17.619790 27.140625 17.414063 27.054688 17.242188 26.882812 C17.070312 26.710937 16.984375 26.505210 16.984375 26.265625 C16.984375 26.026040 17.070312 25.822918 17.242188 25.656250 C17.414063 25.489582 17.619790 25.406250 17.859375 25.406250 C18.098960 25.406250 18.304687 25.489582 18.476562 25.656250 C18.648438 25.822918 18.734375 26.026040 18.734375 26.265625 C18.734375 26.505210 18.648438 26.710937 18.476562 26.882812 C18.304687 27.054688 18.098960 27.140625 17.859375 27.140625 Z M1.796875 10.765625 C2.046876 10.765625 2.257812 10.679688 2.429688 10.507812 C2.601563 10.335937 2.687500 10.130210 2.687500 9.890625 C2.687500 9.651040 2.598959 9.450522 2.421875 9.289062 C2.244791 9.127603 2.036460 9.046875 1.796875 9.046875 C1.567707 9.046875 1.367188 9.127603 1.195312 9.289062 C1.023437 9.450522 0.937500 9.651040 0.937500 9.890625 C0.937500 10.130210 1.020832 10.335937 1.187500 10.507812 C1.354168 10.679688 1.557290 10.765625 1.796875 10.765625 Z M9.046875 17.250000 C8.796874 17.250000 8.585938 17.164063 8.414062 16.992188 C8.242187 16.820312 8.156250 16.614585 8.156250 16.375000 C8.156250 16.124999 8.242187 15.914063 8.414062 15.742188 C8.585938 15.570312 8.796874 15.484375 9.046875 15.484375 C9.286460 15.484375 9.489582 15.572916 9.656250 15.750000 C9.822917 15.927084 9.906250 16.135415 9.906250 16.375000 C9.906250 16.604168 9.822917 16.807291 9.656250 16.984375 C9.489582 17.161459 9.286460 17.250000 9.046875 17.250000 Z M16.296875 23.812500 C16.057290 23.812500 15.851563 23.726563 15.679688 23.554688 C15.507812 23.382812 15.421875 23.177085 15.421875 22.937500 C15.421875 22.708332 15.510416 22.507813 15.687500 22.335938 C15.864584 22.164062 16.067707 22.078125 16.296875 22.078125 C16.536460 22.078125 16.742187 22.164062 16.914062 22.335938 C17.085938 22.507813 17.171875 22.713540 17.171875 22.953125 C17.171875 23.192710 17.085938 23.395832 16.914062 23.562500 C16.742187 23.729168 16.536460 23.812500 16.296875 23.812500 Z M7.515625 14.109375 C7.286457 14.109375 7.083334 14.020834 6.906250 13.843750 C6.729166 13.666666 6.640625 13.463543 6.640625 13.234375 C6.640625 12.994790 6.726562 12.789063 6.898438 12.617188 C7.070313 12.445312 7.276040 12.359375 7.515625 12.359375 C7.755210 12.359375 7.960937 12.445312 8.132812 12.617188 C8.304688 12.789063 8.390625 12.994790 8.390625 13.234375 C8.390625 13.463543 8.304688 13.666666 8.132812 13.843750 C7.960937 14.020834 7.755210 14.109375 7.515625 14.109375 Z M20.656250 27.140625 C20.416665 27.140625 20.213542 27.054688 20.046875 26.882812 C19.880208 26.710937 19.796875 26.505210 19.796875 26.265625 C19.796875 26.026040 19.882812 25.822918 20.054688 25.656250 C20.226563 25.489582 20.432290 25.406250 20.671875 25.406250 C20.901043 25.406250 21.098958 25.489582 21.265625 25.656250 C21.432292 25.822918 21.515625 26.026040 21.515625 26.265625 C21.515625 26.505210 21.432292 26.710937 21.265625 26.882812 C21.098958 27.054688 20.895835 27.140625 20.656250 27.140625 Z M14.468750 20.578125 C14.218749 20.578125 14.007813 20.492188 13.835938 20.320312 C13.664062 20.148437 13.578125 19.942710 13.578125 19.703125 C13.578125 19.473957 13.666666 19.273438 13.843750 19.101562 C14.020834 18.929687 14.229165 18.843750 14.468750 18.843750 C14.708335 18.843750 14.914062 18.929687 15.085938 19.101562 C15.257813 19.273438 15.343750 19.479165 15.343750 19.718750 C15.343750 19.947918 15.257813 20.148437 15.085938 20.320312 C14.914062 20.492188 14.708335 20.578125 14.468750 20.578125 Z M5.359375 10.765625 C5.119790 10.765625 4.914063 10.679688 4.742188 10.507812 C4.570312 10.335937 4.484375 10.130210 4.484375 9.890625 C4.484375 9.661457 4.572916 9.463542 4.750000 9.296875 C4.927084 9.130208 5.130207 9.046875 5.359375 9.046875 C5.609376 9.046875 5.820312 9.127603 5.992188 9.289062 C6.164063 9.450522 6.250000 9.651040 6.250000 9.890625 C6.250000 10.140626 6.164063 10.348958 5.992188 10.515625 C5.820312 10.682292 5.609376 10.765625 5.359375 10.765625 Z M12.562500 17.250000 C12.333332 17.250000 12.130209 17.161459 11.953125 16.984375 C11.776041 16.807291 11.687500 16.604168 11.687500 16.375000 C11.687500 16.135415 11.776041 15.927084 11.953125 15.750000 C12.130209 15.572916 12.333332 15.484375 12.562500 15.484375 C12.802085 15.484375 13.007812 15.570312 13.179688 15.742188 C13.351563 15.914063 13.437500 16.124999 13.437500 16.375000 C13.437500 16.614585 13.351563 16.820312 13.179688 16.992188 C13.007812 17.164063 12.802085 17.250000 12.562500 17.250000 Z M3.375000 7.671875 C3.145832 7.671875 2.942709 7.583334 2.765625 7.406250 C2.588541 7.229166 2.500000 7.026043 2.500000 6.796875 C2.500000 6.546874 2.585937 6.335938 2.757812 6.164062 C2.929688 5.992187 3.135415 5.906250 3.375000 5.906250 C3.614585 5.906250 3.820312 5.992187 3.992188 6.164062 C4.164063 6.335938 4.250000 6.546874 4.250000 6.796875 C4.250000 7.026043 4.164063 7.229166 3.992188 7.406250 C3.820312 7.583334 3.614585 7.671875 3.375000 7.671875 Z M19.734375 23.812500 C19.494790 23.812500 19.289063 23.726563 19.117188 23.554688 C18.945312 23.382812 18.859375 23.177085 18.859375 22.937500 C18.859375 22.708332 18.947916 22.507813 19.125000 22.335938 C19.302084 22.164062 19.505207 22.078125 19.734375 22.078125 C19.973960 22.078125 20.179687 22.164062 20.351562 22.335938 C20.523438 22.507813 20.609375 22.713540 20.609375 22.953125 C20.609375 23.192710 20.523438 23.395832 20.351562 23.562500 C20.179687 23.729168 19.973960 23.812500 19.734375 23.812500 Z M10.968750 14.109375 C10.729165 14.109375 10.523438 14.023438 10.351562 13.851562 C10.179687 13.679687 10.093750 13.473960 10.093750 13.234375 C10.093750 12.994790 10.179687 12.789063 10.351562 12.617188 C10.523438 12.445312 10.729165 12.359375 10.968750 12.359375 C11.208335 12.359375 11.408853 12.445312 11.570312 12.617188 C11.731772 12.789063 11.812500 12.994790 11.812500 13.234375 C11.812500 13.463543 11.729168 13.666666 11.562500 13.843750 C11.395833 14.020834 11.197918 14.109375 10.968750 14.109375 Z M17.859375 20.578125 C17.619790 20.578125 17.414063 20.494793 17.242188 20.328125 C17.070312 20.161458 16.984375 19.958335 16.984375 19.718750 C16.984375 19.479165 17.070312 19.273438 17.242188 19.101562 C17.414063 18.929687 17.619790 18.843750 17.859375 18.843750 C18.098960 18.843750 18.304687 18.929687 18.476562 19.101562 C18.648438 19.273438 18.734375 19.479165 18.734375 19.718750 C18.734375 19.947918 18.648438 20.148437 18.476562 20.320312 C18.304687 20.492188 18.098960 20.578125 17.859375 20.578125 Z M8.953125 10.765625 C8.703124 10.765625 8.492188 10.682292 8.320312 10.515625 C8.148437 10.348958 8.062500 10.140626 8.062500 9.890625 C8.062500 9.651040 8.148437 9.450522 8.320312 9.289062 C8.492188 9.127603 8.703124 9.046875 8.953125 9.046875 C9.192710 9.046875 9.398437 9.130208 9.570312 9.296875 C9.742188 9.463542 9.828125 9.661457 9.828125 9.890625 C9.828125 10.130210 9.742188 10.335937 9.570312 10.507812 C9.398437 10.679688 9.192710 10.765625 8.953125 10.765625 Z M16.109375 17.250000 C15.869790 17.250000 15.664063 17.164063 15.492188 16.992188 C15.320312 16.820312 15.234375 16.614585 15.234375 16.375000 C15.234375 16.124999 15.320312 15.914063 15.492188 15.742188 C15.664063 15.570312 15.869790 15.484375 16.109375 15.484375 C16.348960 15.484375 16.552082 15.572916 16.718750 15.750000 C16.885418 15.927084 16.968750 16.135415 16.968750 16.375000 C16.968750 16.604168 16.885418 16.807291 16.718750 16.984375 C16.552082 17.161459 16.348960 17.250000 16.109375 17.250000 Z M23.187500 23.812500 C22.947915 23.812500 22.742188 23.729168 22.570312 23.562500 C22.398437 23.395832 22.312500 23.192710 22.312500 22.953125 C22.312500 22.713540 22.398437 22.507813 22.570312 22.335938 C22.742188 22.164062 22.947915 22.078125 23.187500 22.078125 C23.416668 22.078125 23.619791 22.166666 23.796875 22.343750 C23.973959 22.520834 24.062500 22.723957 24.062500 22.953125 C24.062500 23.182293 23.976563 23.382812 23.804688 23.554688 C23.632812 23.726563 23.427085 23.812500 23.187500 23.812500 Z M7.515625 7.671875 C7.286457 7.671875 7.083334 7.583334 6.906250 7.406250 C6.729166 7.229166 6.640625 7.026043 6.640625 6.796875 C6.640625 6.546874 6.726562 6.335938 6.898438 6.164062 C7.070313 5.992187 7.276040 5.906250 7.515625 5.906250 C7.755210 5.906250 7.960937 5.992187 8.132812 6.164062 C8.304688 6.335938 8.390625 6.546874 8.390625 6.796875 C8.390625 7.026043 8.304688 7.229166 8.132812 7.406250 C7.960937 7.583334 7.755210 7.671875 7.515625 7.671875 Z M14.406250 14.109375 C14.166665 14.109375 13.958334 14.023438 13.781250 13.851562 C13.604166 13.679687 13.515625 13.473960 13.515625 13.234375 C13.515625 12.994790 13.601562 12.789063 13.773438 12.617188 C13.945313 12.445312 14.156249 12.359375 14.406250 12.359375 C14.645835 12.359375 14.854166 12.445312 15.031250 12.617188 C15.208334 12.789063 15.296875 12.994790 15.296875 13.234375 C15.296875 13.463543 15.208334 13.666666 15.031250 13.843750 C14.854166 14.020834 14.645835 14.109375 14.406250 14.109375 Z M17.812500 30.468750 C14.249982 27.729153 11.289074 25.148450 8.929688 22.726562 C6.570301 20.304675 4.804693 17.981782 3.632812 15.757812 C2.460932 13.533843 1.875000 11.359386 1.875000 9.234375 C1.875000 7.817701 2.184893 6.554693 2.804688 5.445312 C3.424482 4.335932 4.281245 3.463545 5.375000 2.828125 C6.468755 2.192705 7.718743 1.875000 9.125000 1.875000 C10.562507 1.875000 11.817703 2.164060 12.890625 2.742188 C13.963547 3.320315 14.901038 4.122391 15.703125 5.148438 C16.505212 6.174484 17.208330 7.359368 17.812500 8.703125 C18.427086 7.359368 19.132809 6.174484 19.929688 5.148438 C20.726566 4.122391 21.664057 3.320315 22.742188 2.742188 C23.820318 2.164060 25.072910 1.875000 26.500000 1.875000 C27.916674 1.875000 29.169265 2.192705 30.257812 2.828125 C31.346360 3.463545 32.200518 4.335932 32.820312 5.445312 C33.440107 6.554693 33.750000 7.817701 33.750000 9.234375 C33.750000 11.359386 33.164068 13.533843 31.992188 15.757812 C30.820307 17.981782 29.054699 20.304675 26.695312 22.726562 C24.335926 25.148450 21.375018 27.729153 17.812500 30.468750 Z M21.250000 20.578125 C21.020832 20.578125 20.817709 20.492188 20.640625 20.320312 C20.463541 20.148437 20.375000 19.942710 20.375000 19.703125 C20.375000 19.473957 20.463541 19.273438 20.640625 19.101562 C20.817709 18.929687 21.020832 18.843750 21.250000 18.843750 C21.489585 18.843750 21.697916 18.929687 21.875000 19.101562 C22.052084 19.273438 22.140625 19.479165 22.140625 19.718750 C22.140625 19.947918 22.054688 20.148437 21.882812 20.320312 C21.710937 20.492188 21.500001 20.578125 21.250000 20.578125 Z M5.500000 4.546875 C5.739585 4.546875 5.945312 4.458334 6.117188 4.281250 C6.289063 4.104166 6.375000 3.901043 6.375000 3.671875 C6.375000 3.432290 6.289063 3.226563 6.117188 3.054688 C5.945312 2.882812 5.739585 2.796875 5.500000 2.796875 C5.249999 2.796875 5.039063 2.882812 4.867188 3.054688 C4.695312 3.226563 4.609375 3.432290 4.609375 3.671875 C4.609375 3.911460 4.697916 4.117187 4.875000 4.289062 C5.052084 4.460938 5.260415 4.546875 5.500000 4.546875 Z M12.515625 10.765625 C12.286457 10.765625 12.083334 10.677084 11.906250 10.500000 C11.729166 10.322916 11.640625 10.119793 11.640625 9.890625 C11.640625 9.661457 11.729166 9.463542 11.906250 9.296875 C12.083334 9.130208 12.286457 9.046875 12.515625 9.046875 C12.765626 9.046875 12.976562 9.127603 13.148438 9.289062 C13.320313 9.450522 13.406250 9.651040 13.406250 9.890625 C13.406250 10.140626 13.320313 10.348958 13.148438 10.515625 C12.976562 10.682292 12.765626 10.765625 12.515625 10.765625 Z M19.625000 17.250000 C19.395832 17.250000 19.192709 17.161459 19.015625 16.984375 C18.838541 16.807291 18.750000 16.604168 18.750000 16.375000 C18.750000 16.135415 18.835937 15.927084 19.007812 15.750000 C19.179688 15.572916 19.385415 15.484375 19.625000 15.484375 C19.864585 15.484375 20.067708 15.570312 20.234375 15.742188 C20.401042 15.914063 20.484375 16.124999 20.484375 16.375000 C20.484375 16.614585 20.401042 16.820312 20.234375 16.992188 C20.067708 17.164063 19.864585 17.250000 19.625000 17.250000 Z M26.640625 23.812500 C26.869793 23.812500 27.070312 23.726563 27.242188 23.554688 C27.414063 23.382812 27.500000 23.177085 27.500000 22.937500 C27.500000 22.708332 27.414063 22.507813 27.242188 22.335938 C27.070312 22.164062 26.869793 22.078125 26.640625 22.078125 C26.401040 22.078125 26.192709 22.164062 26.015625 22.335938 C25.838541 22.507813 25.750000 22.713540 25.750000 22.953125 C25.750000 23.182293 25.835937 23.382812 26.007812 23.554688 C26.179688 23.726563 26.390624 23.812500 26.640625 23.812500 Z M17.859375 14.109375 C17.619790 14.109375 17.414063 14.023438 17.242188 13.851562 C17.070312 13.679687 16.984375 13.473960 16.984375 13.234375 C16.984375 12.994790 17.070312 12.789063 17.242188 12.617188 C17.414063 12.445312 17.619790 12.359375 17.859375 12.359375 C18.098960 12.359375 18.304687 12.445312 18.476562 12.617188 C18.648438 12.789063 18.734375 12.994790 18.734375 13.234375 C18.734375 13.463543 18.648438 13.666666 18.476562 13.843750 C18.304687 14.020834 18.098960 14.109375 17.859375 14.109375 Z M11.656250 7.656250 C11.416665 7.656250 11.210938 7.570313 11.039062 7.398438 C10.867187 7.226562 10.781250 7.020835 10.781250 6.781250 C10.781250 6.541665 10.867187 6.335938 11.039062 6.164062 C11.210938 5.992187 11.416665 5.906250 11.656250 5.906250 C11.885418 5.906250 12.083332 5.992187 12.250000 6.164062 C12.416667 6.335938 12.500000 6.541665 12.500000 6.781250 C12.500000 7.010418 12.416667 7.213541 12.250000 7.390625 C12.083332 7.567709 11.885418 7.656250 11.656250 7.656250 Z M24.671875 20.578125 C24.442707 20.578125 24.242188 20.492188 24.070312 20.320312 C23.898437 20.148437 23.812500 19.942710 23.812500 19.703125 C23.812500 19.473957 23.898437 19.273438 24.070312 19.101562 C24.242188 18.929687 24.442707 18.843750 24.671875 18.843750 C24.911460 18.843750 25.111978 18.929687 25.273438 19.101562 C25.434897 19.273438 25.515625 19.479165 25.515625 19.718750 C25.515625 19.958335 25.434897 20.161458 25.273438 20.328125 C25.111978 20.494793 24.911460 20.578125 24.671875 20.578125 Z M9.406250 4.546875 C9.177082 4.546875 8.973959 4.458334 8.796875 4.281250 C8.619791 4.104166 8.531250 3.901043 8.531250 3.671875 C8.531250 3.432290 8.617187 3.226563 8.789062 3.054688 C8.960938 2.882812 9.166665 2.796875 9.406250 2.796875 C9.645835 2.796875 9.851562 2.882812 10.023438 3.054688 C10.195313 3.226563 10.281250 3.432290 10.281250 3.671875 C10.281250 3.911460 10.195313 4.117187 10.023438 4.289062 C9.851562 4.460938 9.645835 4.546875 9.406250 4.546875 Z M16.093750 10.765625 C15.854165 10.765625 15.648438 10.679688 15.476562 10.507812 C15.304687 10.335937 15.218750 10.130210 15.218750 9.890625 C15.218750 9.651040 15.304687 9.450522 15.476562 9.289062 C15.648438 9.127603 15.854165 9.046875 16.093750 9.046875 C16.333335 9.046875 16.536458 9.130208 16.703125 9.296875 C16.869792 9.463542 16.953125 9.661457 16.953125 9.890625 C16.953125 10.130210 16.869792 10.335937 16.703125 10.507812 C16.536458 10.679688 16.333335 10.765625 16.093750 10.765625 Z M23.156250 17.250000 C22.916665 17.250000 22.710938 17.164063 22.539062 16.992188 C22.367187 16.820312 22.281250 16.614585 22.281250 16.375000 C22.281250 16.124999 22.367187 15.914063 22.539062 15.742188 C22.710938 15.570312 22.916665 15.484375 23.156250 15.484375 C23.395835 15.484375 23.601562 15.572916 23.773438 15.750000 C23.945313 15.927084 24.031250 16.135415 24.031250 16.375000 C24.031250 16.604168 23.942709 16.807291 23.765625 16.984375 C23.588541 17.161459 23.385418 17.250000 23.156250 17.250000 Z M21.312500 14.109375 C21.072915 14.109375 20.864584 14.020834 20.687500 13.843750 C20.510416 13.666666 20.421875 13.463543 20.421875 13.234375 C20.421875 12.994790 20.510416 12.789063 20.687500 12.617188 C20.864584 12.445312 21.072915 12.359375 21.312500 12.359375 C21.562501 12.359375 21.773437 12.445312 21.945312 12.617188 C22.117188 12.789063 22.203125 12.994790 22.203125 13.234375 C22.203125 13.473960 22.114584 13.679687 21.937500 13.851562 C21.760416 14.023438 21.552085 14.109375 21.312500 14.109375 Z M28.031250 20.578125 C27.802082 20.578125 27.601563 20.492188 27.429688 20.320312 C27.257812 20.148437 27.171875 19.942710 27.171875 19.703125 C27.171875 19.473957 27.257812 19.273438 27.429688 19.101562 C27.601563 18.929687 27.802082 18.843750 28.031250 18.843750 C28.270835 18.843750 28.476562 18.929687 28.648438 19.101562 C28.820313 19.273438 28.906250 19.479165 28.906250 19.718750 C28.906250 19.958335 28.820313 20.161458 28.648438 20.328125 C28.476562 20.494793 28.270835 20.578125 28.031250 20.578125 Z M15.781250 7.656250 C15.541665 7.656250 15.333334 7.567709 15.156250 7.390625 C14.979166 7.213541 14.890625 7.010418 14.890625 6.781250 C14.890625 6.541665 14.979166 6.335938 15.156250 6.164062 C15.333334 5.992187 15.541665 5.906250 15.781250 5.906250 C16.020835 5.906250 16.226562 5.992187 16.398438 6.164062 C16.570313 6.335938 16.656250 6.541665 16.656250 6.781250 C16.656250 7.010418 16.570313 7.213541 16.398438 7.390625 C16.226562 7.567709 16.020835 7.656250 15.781250 7.656250 Z M13.312500 4.546875 C13.552085 4.546875 13.757812 4.460938 13.929688 4.289062 C14.101563 4.117187 14.187500 3.911460 14.187500 3.671875 C14.187500 3.432290 14.101563 3.226563 13.929688 3.054688 C13.757812 2.882812 13.552085 2.796875 13.312500 2.796875 C13.072915 2.796875 12.867188 2.882812 12.695312 3.054688 C12.523437 3.226563 12.437500 3.432290 12.437500 3.671875 C12.437500 3.901043 12.526041 4.104166 12.703125 4.281250 C12.880209 4.458334 13.083332 4.546875 13.312500 4.546875 Z M19.625000 10.765625 C19.395832 10.765625 19.195313 10.679688 19.023438 10.507812 C18.851562 10.335937 18.765625 10.130210 18.765625 9.890625 C18.765625 9.661457 18.851562 9.463542 19.023438 9.296875 C19.195313 9.130208 19.395832 9.046875 19.625000 9.046875 C19.864585 9.046875 20.070312 9.127603 20.242188 9.289062 C20.414063 9.450522 20.500000 9.651040 20.500000 9.890625 C20.500000 10.130210 20.414063 10.335937 20.242188 10.507812 C20.070312 10.679688 19.864585 10.765625 19.625000 10.765625 Z M26.671875 17.250000 C26.442707 17.250000 26.242188 17.161459 26.070312 16.984375 C25.898437 16.807291 25.812500 16.604168 25.812500 16.375000 C25.812500 16.135415 25.898437 15.927084 26.070312 15.750000 C26.242188 15.572916 26.442707 15.484375 26.671875 15.484375 C26.921876 15.484375 27.132812 15.570312 27.304688 15.742188 C27.476563 15.914063 27.562500 16.124999 27.562500 16.375000 C27.562500 16.614585 27.476563 16.820312 27.304688 16.992188 C27.132812 17.164063 26.921876 17.250000 26.671875 17.250000 Z M24.765625 14.109375 C24.536457 14.109375 24.338542 14.020834 24.171875 13.843750 C24.005208 13.666666 23.921875 13.463543 23.921875 13.234375 C23.921875 12.994790 24.005208 12.789063 24.171875 12.617188 C24.338542 12.445312 24.536457 12.359375 24.765625 12.359375 C25.005210 12.359375 25.210937 12.445312 25.382812 12.617188 C25.554688 12.789063 25.640625 12.994790 25.640625 13.234375 C25.640625 13.473960 25.554688 13.679687 25.382812 13.851562 C25.210937 14.023438 25.005210 14.109375 24.765625 14.109375 Z M19.953125 7.656250 C19.713540 7.656250 19.505209 7.570313 19.328125 7.398438 C19.151041 7.226562 19.062500 7.020835 19.062500 6.781250 C19.062500 6.541665 19.148437 6.335938 19.320312 6.164062 C19.492188 5.992187 19.703124 5.906250 19.953125 5.906250 C20.192710 5.906250 20.398437 5.992187 20.570312 6.164062 C20.742188 6.335938 20.828125 6.541665 20.828125 6.781250 C20.828125 7.010418 20.742188 7.213541 20.570312 7.390625 C20.398437 7.567709 20.192710 7.656250 19.953125 7.656250 Z M23.218750 10.765625 C22.979165 10.765625 22.773438 10.679688 22.601562 10.507812 C22.429687 10.335937 22.343750 10.130210 22.343750 9.890625 C22.343750 9.651040 22.429687 9.450522 22.601562 9.289062 C22.773438 9.127603 22.979165 9.046875 23.218750 9.046875 C23.458335 9.046875 23.664062 9.130208 23.835938 9.296875 C24.007813 9.463542 24.093750 9.661457 24.093750 9.890625 C24.093750 10.119793 24.007813 10.322916 23.835938 10.500000 C23.664062 10.677084 23.458335 10.765625 23.218750 10.765625 Z M30.218750 17.250000 C29.989582 17.250000 29.789063 17.164063 29.617188 16.992188 C29.445312 16.820312 29.359375 16.614585 29.359375 16.375000 C29.359375 16.124999 29.445312 15.914063 29.617188 15.742188 C29.789063 15.570312 29.989582 15.484375 30.218750 15.484375 C30.458335 15.484375 30.664062 15.570312 30.835938 15.742188 C31.007813 15.914063 31.093750 16.124999 31.093750 16.375000 C31.093750 16.614585 31.007813 16.820312 30.835938 16.992188 C30.664062 17.164063 30.458335 17.250000 30.218750 17.250000 Z M28.218750 14.109375 C27.979165 14.109375 27.770834 14.023438 27.593750 13.851562 C27.416666 13.679687 27.328125 13.473960 27.328125 13.234375 C27.328125 12.994790 27.414062 12.789063 27.585938 12.617188 C27.757813 12.445312 27.968749 12.359375 28.218750 12.359375 C28.458335 12.359375 28.661458 12.445312 28.828125 12.617188 C28.994792 12.789063 29.078125 12.994790 29.078125 13.234375 C29.078125 13.463543 28.994792 13.666666 28.828125 13.843750 C28.661458 14.020834 28.458335 14.109375 28.218750 14.109375 Z M26.765625 10.765625 C26.526040 10.765625 26.320313 10.679688 26.148438 10.507812 C25.976562 10.335937 25.890625 10.130210 25.890625 9.890625 C25.890625 9.661457 25.979166 9.463542 26.156250 9.296875 C26.333334 9.130208 26.536457 9.046875 26.765625 9.046875 C27.015626 9.046875 27.226562 9.127603 27.398438 9.289062 C27.570313 9.450522 27.656250 9.651040 27.656250 9.890625 C27.656250 10.140626 27.570313 10.348958 27.398438 10.515625 C27.226562 10.682292 27.015626 10.765625 26.765625 10.765625 Z M24.078125 7.656250 C23.848957 7.656250 23.648438 7.567709 23.476562 7.390625 C23.304687 7.213541 23.218750 7.010418 23.218750 6.781250 C23.218750 6.541665 23.304687 6.335938 23.476562 6.164062 C23.648438 5.992187 23.848957 5.906250 24.078125 5.906250 C24.317710 5.906250 24.520832 5.992187 24.687500 6.164062 C24.854168 6.335938 24.937500 6.541665 24.937500 6.781250 C24.937500 7.020835 24.854168 7.226562 24.687500 7.398438 C24.520832 7.570313 24.317710 7.656250 24.078125 7.656250 Z M31.671875 14.109375 C31.432290 14.109375 31.223959 14.023438 31.046875 13.851562 C30.869791 13.679687 30.781250 13.473960 30.781250 13.234375 C30.781250 12.994790 30.867187 12.789063 31.039062 12.617188 C31.210938 12.445312 31.421874 12.359375 31.671875 12.359375 C31.911460 12.359375 32.114582 12.445312 32.281250 12.617188 C32.447918 12.789063 32.531250 12.994790 32.531250 13.234375 C32.531250 13.473960 32.447918 13.679687 32.281250 13.851562 C32.114582 14.023438 31.911460 14.109375 31.671875 14.109375 Z M22.171875 4.546875 C22.411460 4.546875 22.617187 4.458334 22.789062 4.281250 C22.960938 4.104166 23.046875 3.901043 23.046875 3.671875 C23.046875 3.432290 22.960938 3.226563 22.789062 3.054688 C22.617187 2.882812 22.411460 2.796875 22.171875 2.796875 C21.932290 2.796875 21.729168 2.882812 21.562500 3.054688 C21.395832 3.226563 21.312500 3.432290 21.312500 3.671875 C21.312500 3.911460 21.398437 4.117187 21.570312 4.289062 C21.742188 4.460938 21.942707 4.546875 22.171875 4.546875 Z M30.359375 10.765625 C30.109374 10.765625 29.898438 10.682292 29.726562 10.515625 C29.554687 10.348958 29.468750 10.140626 29.468750 9.890625 C29.468750 9.651040 29.554687 9.450522 29.726562 9.289062 C29.898438 9.127603 30.109374 9.046875 30.359375 9.046875 C30.598960 9.046875 30.804687 9.130208 30.976562 9.296875 C31.148438 9.463542 31.234375 9.661457 31.234375 9.890625 C31.234375 10.130210 31.148438 10.335937 30.976562 10.507812 C30.804687 10.679688 30.598960 10.765625 30.359375 10.765625 Z M28.218750 7.671875 C27.979165 7.671875 27.770834 7.585938 27.593750 7.414062 C27.416666 7.242187 27.328125 7.036460 27.328125 6.796875 C27.328125 6.546874 27.414062 6.335938 27.585938 6.164062 C27.757813 5.992187 27.968749 5.906250 28.218750 5.906250 C28.458335 5.906250 28.661458 5.994791 28.828125 6.171875 C28.994792 6.348959 29.078125 6.557290 29.078125 6.796875 C29.078125 7.026043 28.994792 7.229166 28.828125 7.406250 C28.661458 7.583334 28.458335 7.671875 28.218750 7.671875 Z M26.078125 4.546875 C25.848957 4.546875 25.645834 4.458334 25.468750 4.281250 C25.291666 4.104166 25.203125 3.901043 25.203125 3.671875 C25.203125 3.432290 25.289062 3.226563 25.460938 3.054688 C25.632813 2.882812 25.838540 2.796875 26.078125 2.796875 C26.328126 2.796875 26.539062 2.880208 26.710938 3.046875 C26.882813 3.213542 26.968750 3.421874 26.968750 3.671875 C26.968750 3.911460 26.882813 4.117187 26.710938 4.289062 C26.539062 4.460938 26.328126 4.546875 26.078125 4.546875 Z M33.937500 10.765625 C34.177085 10.765625 34.380208 10.679688 34.546875 10.507812 C34.713542 10.335937 34.796875 10.130210 34.796875 9.890625 C34.796875 9.651040 34.713542 9.450522 34.546875 9.289062 C34.380208 9.127603 34.177085 9.046875 33.937500 9.046875 C33.697915 9.046875 33.489584 9.127603 33.312500 9.289062 C33.135416 9.450522 33.046875 9.651040 33.046875 9.890625 C33.046875 10.130210 33.132812 10.335937 33.304688 10.507812 C33.476563 10.679688 33.687499 10.765625 33.937500 10.765625 Z M32.359375 7.671875 C32.119790 7.671875 31.911459 7.585938 31.734375 7.414062 C31.557291 7.242187 31.468750 7.036460 31.468750 6.796875 C31.468750 6.546874 31.554687 6.335938 31.726562 6.164062 C31.898438 5.992187 32.109374 5.906250 32.359375 5.906250 C32.598960 5.906250 32.802082 5.994791 32.968750 6.171875 C33.135418 6.348959 33.218750 6.557290 33.218750 6.796875 C33.218750 7.026043 33.135418 7.229166 32.968750 7.406250 C32.802082 7.583334 32.598960 7.671875 32.359375 7.671875 Z M30.000000 4.546875 C30.239585 4.546875 30.445312 4.460938 30.617188 4.289062 C30.789063 4.117187 30.875000 3.911460 30.875000 3.671875 C30.875000 3.432290 30.789063 3.226563 30.617188 3.054688 C30.445312 2.882812 30.239585 2.796875 30.000000 2.796875 C29.749999 2.796875 29.539063 2.882812 29.367188 3.054688 C29.195312 3.226563 29.109375 3.432290 29.109375 3.671875 C29.109375 3.911460 29.197916 4.117187 29.375000 4.289062 C29.552084 4.460938 29.760415 4.546875 30.000000 4.546875 Z M38.125000 27.343750" /></svg>