<svg clip-rule="evenodd" fill-rule="evenodd" stroke-linejoin="round" stroke-miterlimit="2" viewBox="0 0 250 250" xmlns="http://www.w3.org/2000/svg">
  <defs>
    <style type="text/css" id="current-color-scheme">.ColorScheme-Highlight { color:#000000; }</style>
  </defs><path class="ColorScheme-Highlight" fill="currentColor" d="m569.992-288c-25.953 0-46.992-21.039-46.992-46.993v-290.014c0-25.954 21.039-46.993 46.992-46.993h.016c25.953 0 46.992 21.039 46.992 46.993v290.014c0 25.954-21.039 46.993-46.992 46.993zm194.502 0c-26.23 0-47.494-21.264-47.494-47.494v-289.012c0-26.23 21.264-47.494 47.494-47.494h.012c26.23 0 47.494 21.264 47.494 47.494v289.012c0 26.23-21.264 47.494-47.494 47.494zm-659.108-46.091v-291.208c0-14.388 5.009-25.673 14.256-34.175 9.145-8.407 19.736-12.526 31.707-12.526 3.617 0 7.466.424 11.542 1.331 4.449.99 8.879 2.737 13.255 5.331l.518.32 229.141 146.865.263.172c6.639 4.426 11.715 9.858 15.351 16.18 3.853 6.703 5.826 14.063 5.826 22.106 0 8.042-1.973 15.403-5.826 22.105-3.636 6.322-8.712 11.754-15.351 16.18l-.263.172-229.141 146.865-.548.338c-4.784 2.823-9.649 4.522-14.54 5.24-3.661.538-7.107.795-10.336.795-11.937 0-22.397-3.937-31.377-11.806-9.275-8.136-14.477-19.411-14.477-34.285zm92.183-83.517 97.969-62.087-97.969-62.088zm-57.644 621.929c-24.461 0-45.145-8.454-62.076-25.303-16.941-16.853-25.442-37.51-25.442-61.994 0-24.461 8.454-45.145 25.303-62.076 16.853-16.941 37.51-25.442 61.994-25.442 24.461 0 45.145 8.453 62.076 25.302 16.941 16.854 25.442 37.511 25.442 61.995 0 24.461-8.454 45.145-25.302 62.076-16.854 16.941-37.511 25.442-61.995 25.442zm-.11-64.54c6.455 0 11.902-2.158 16.306-6.562 4.403-4.403 6.561-9.85 6.561-16.306 0-6.455-2.158-11.902-6.561-16.306-4.404-4.403-9.851-6.561-16.306-6.561-6.872 0-12.454 2.022-16.613 6.404-4.217 4.444-6.255 9.95-6.255 16.463 0 6.514 2.038 12.02 6.255 16.463 4.159 4.383 9.741 6.405 16.613 6.405zm212.389 64.54c-24.506 0-45.053-8.483-61.675-25.363-16.588-16.838-24.924-37.472-24.924-61.934 0-24.439 8.288-45.1 24.784-62.015 16.545-16.973 37.065-25.503 61.595-25.503 24.461 0 45.144 8.453 62.075 25.302 16.941 16.854 25.442 37.511 25.442 61.995 0 24.461-8.453 45.145-25.302 62.076-16.854 16.941-37.511 25.442-61.995 25.442zm-.11-63.621c7.104 0 13.071-2.176 17.833-6.707 4.649-4.424 6.872-10.144 6.872-17.08 0-7.047-2.296-12.96-7.021-17.684-4.724-4.725-10.636-7.021-17.684-7.021-6.936 0-12.656 2.223-17.08 6.872-4.531 4.762-6.707 10.729-6.707 17.833 0 7.017 2.054 12.816 6.434 17.291 4.35 4.45 10.181 6.496 17.353 6.496zm213.308 63.621c-24.461 0-45.145-8.454-62.075-25.303-16.942-16.853-25.442-37.51-25.442-61.994 0-24.461 8.453-45.145 25.302-62.076 16.854-16.941 37.51-25.442 61.995-25.442 24.506 0 45.053 8.482 61.675 25.362 16.588 16.839 24.924 37.473 24.924 61.935 0 24.439-8.288 45.1-24.784 62.015-16.545 16.973-37.065 25.503-61.595 25.503zm.809-63.621c6.991 0 12.766-2.102 17.225-6.562 4.459-4.459 6.561-10.233 6.561-17.225 0-7.104-2.175-13.071-6.706-17.833-4.424-4.649-10.145-6.872-17.08-6.872s-12.656 2.223-17.08 6.872c-4.531 4.762-6.706 10.729-6.706 17.833 0 7.017 2.054 12.816 6.433 17.291 4.35 4.45 10.181 6.496 17.353 6.496zm211.47 63.621c-24.46 0-45.144-8.454-62.075-25.303-16.941-16.853-25.442-37.51-25.442-61.994 0-24.461 8.453-45.145 25.302-62.076 16.854-16.941 37.511-25.442 61.995-25.442 24.461 0 45.145 8.453 62.075 25.302 16.942 16.854 25.443 37.511 25.443 61.995 0 24.461-8.454 45.145-25.303 62.076-16.854 16.941-37.51 25.442-61.995 25.442zm-501.992-303.454h-123.311c-12.463 0-24.416-4.951-33.228-13.763-8.813-8.813-13.764-20.766-13.764-33.229v-.015c0-12.463 4.951-24.416 13.764-33.229 8.812-8.813 20.765-13.764 33.228-13.764h123.391c5.7-13.508 14.08-25.819 25.14-36.932 22.813-22.933 50.791-34.399 83.933-34.399 33.133 0 61.165 11.411 84.098 34.233 11.194 11.136 19.655 23.502 25.385 37.098h270.682c12.464 0 24.416 4.951 33.229 13.764s13.764 20.766 13.764 33.229v.015c0 12.463-4.951 24.416-13.764 33.229-8.813 8.812-20.765 13.763-33.229 13.763h-270.762c-5.7 13.509-14.08 25.82-25.14 36.933-22.813 22.933-50.791 34.399-83.933 34.399-33.133 0-61.166-11.411-84.098-34.234-11.194-11.135-19.656-23.501-25.385-37.098zm109.38-2.359c12.503 0 23.058-4.326 31.664-12.977 8.61-8.651 12.914-19.226 12.914-31.726 0-12.503-4.325-23.057-12.976-31.663-8.652-8.61-19.227-12.915-31.726-12.915-12.503 0-23.058 4.326-31.664 12.977-8.61 8.651-12.915 19.226-12.915 31.726 0 12.503 4.326 23.057 12.977 31.663 8.652 8.61 19.227 12.915 31.726 12.915z" transform="matrix(.23923 0 0 .23923 15.2671 180.941)"/></svg>