<svg clip-rule="evenodd" fill-rule="evenodd" stroke-linejoin="round" stroke-miterlimit="2" viewBox="0 0 250 250" xmlns="http://www.w3.org/2000/svg">
  <defs>
    <style type="text/css" id="current-color-scheme">.ColorScheme-Highlight { color:#000000; }</style>
  </defs><path class="ColorScheme-Highlight" fill="currentColor" d="m2.923 2.217h10.154c1.094 0 1.976.881 1.976 1.975v7.616c0 1.094-.882 1.975-1.976 1.975h-10.154c-1.094 0-1.976-.881-1.976-1.975v-7.616c0-1.094.882-1.975 1.976-1.975zm-.543 1.827-.02 7.764c0 .312.251.562.563.562h10.154c.312 0 .563-.25.563-.562l-.02-7.764c-.065-.239-.282-.414-.543-.414h-10.154c-.261 0-.478.175-.543.414zm3.915 6.207c-.21 0-.389-.073-.536-.221-.148-.148-.222-.326-.222-.536v-4.489c0-.211.074-.391.221-.54.148-.149.327-.224.537-.224h2.19c.106 0 .206.022.302.065.094.042.175.098.244.167l1.2 1.2c.069.069.125.15.167.244.043.095.065.196.065.302v3.275c0 .21-.075.389-.224.536-.149.148-.329.221-.54.221zm.119-5.126v4.249h3.165v-2.988h-.843c-.123 0-.227-.043-.311-.127-.085-.085-.128-.189-.128-.311v-.823zm.873 3.584-.206-.094c-.113-.045-.168-.127-.168-.247 0-.119.055-.202.169-.246l.205-.091.094-.204c.044-.113.127-.168.246-.168.12 0 .203.055.247.169l.09.205.204.093c.115.045.169.128.169.245 0 .116-.054.199-.168.244l-.206.094-.094.205c-.045.114-.128.169-.244.169s-.2-.054-.244-.169zm1.544-.963-.054.104c-.063.111-.148.152-.235.152-.089 0-.174-.042-.231-.157l-.054-.1-.099-.056c-.113-.058-.156-.142-.156-.231 0-.091.043-.175.157-.233l.101-.053.055-.099c.058-.113.142-.156.232-.156s.174.043.232.157l.052.099.101.053.003.002c.111.063.152.147.152.234 0 .09-.042.174-.157.232zm-3.453 3.06h5.244c.261 0 .472.211.472.472 0 .262-.211.472-.472.472h-5.244c-.261 0-.472-.21-.472-.472 0-.261.211-.472.472-.472z" transform="matrix(17.3743 0 0 17.3743 -13.9941 -13.9941)"/></svg>