<svg clip-rule="evenodd" fill-rule="evenodd" stroke-linejoin="round" stroke-miterlimit="2" viewBox="0 0 250 250" xmlns="http://www.w3.org/2000/svg">
  <defs>
    <style type="text/css" id="current-color-scheme">.ColorScheme-Highlight { color:#000000; }</style>
  </defs><path class="ColorScheme-Highlight" fill="currentColor" d="m305.871 370.43c-2.568 0-5.034 1.005-6.871 2.8-1.042 1.058-1.919 2.305-2.53 3.721-1.808 4.19-.951 9.054 2.18 12.374.012.007.022.017.031.027-.004.101.045.153.094.204 3.802 3.81 6.86 8.34 9.054 13.335h114.915c4.891 0 9.581 1.943 13.039 5.401 3.459 3.458 5.401 8.149 5.401 13.039v.003c0 4.89-1.942 9.581-5.401 13.039-3.458 3.458-8.148 5.401-13.039 5.401h-114.915c-7.109 16.183-23.284 27.496-42.08 27.496s-34.971-11.313-42.081-27.496h-114.914c-4.891 0-9.581-1.943-13.04-5.401-3.458-3.458-5.401-8.149-5.401-13.039v-.003c0-4.89 1.943-9.581 5.401-13.039 3.459-3.458 8.149-5.401 13.04-5.401h114.914c2.194-4.994 5.252-9.524 8.983-13.402l.009-.01c.196-.205.386-.421.57-.649 2.862-3.384 3.499-8.12 1.633-12.14-.665-1.434-1.605-2.684-2.741-3.698-1.799-1.622-4.135-2.52-6.557-2.52-13.007-.042-96.024-.042-96.024-.042-12.811 0-23.353-10.542-23.353-23.353v-39.259c0-12.812 10.542-23.354 23.353-23.354h97.622c8.089 0 14.646-6.557 14.646-14.645v-117.027c0-2.034-1.226-3.869-3.107-4.647-1.88-.778-4.044-.346-5.481 1.094l-.004.003c-4.626 4.634-10.904 7.238-17.451 7.241-6.548.002-12.828-2.598-17.457-7.227l-1.367-1.367c-5.207-5.207-8.054-12.319-7.88-19.68.175-7.362 3.356-14.331 8.804-19.286l57.711-52.482.003-.003c2.539-2.543 5.988-3.974 9.582-3.974s7.044 1.431 9.582 3.974l.003.003 57.711 52.482c5.448 4.955 8.629 11.924 8.804 19.286.175 7.361-2.673 14.473-7.88 19.68l-1.366 1.367c-4.63 4.629-10.91 7.229-17.458 7.227-6.547-.003-12.825-2.607-17.451-7.241l-.003-.003c-1.438-1.44-3.602-1.872-5.482-1.094s-3.107 2.613-3.107 4.647v117.027c0 8.088 6.557 14.645 14.646 14.645h97.622c12.812 0 23.354 10.542 23.354 23.354v39.259c0 12.811-10.542 23.353-23.354 23.353zm-58.564 46.666v8.472c1.926 8.405 9.456 14.683 18.442 14.683 8.985 0 16.516-6.278 18.442-14.683v-8.472c-1.926-8.405-9.457-14.682-18.442-14.682-8.986 0-16.516 6.277-18.442 14.682zm-119.553-239.717h88.334c7.427 0 13.538 6.112 13.538 13.539s-6.111 13.538-13.538 13.538h-78.342c-3.462 0-6.269 2.807-6.269 6.269v19.275c0 3.462 2.807 6.269 6.269 6.269h78.342c7.427 0 13.538 6.111 13.538 13.538s-6.111 13.538-13.538 13.538h-88.334c-12.812 0-23.354-10.542-23.354-23.353v-39.259c0-12.812 10.542-23.354 23.354-23.354zm186.483 0h88.334c12.811 0 23.353 10.542 23.353 23.354v39.259c0 12.811-10.542 23.353-23.353 23.353h-88.334c-7.427 0-13.539-6.111-13.539-13.538s6.112-13.538 13.539-13.538h78.341c3.463 0 6.269-2.807 6.269-6.269v-19.275c0-3.462-2.806-6.269-6.269-6.269h-78.341c-7.427 0-13.539-6.111-13.539-13.538s6.112-13.539 13.539-13.539z" transform="matrix(.559523 0 0 .559523 -23.6923 -20.4014)"/></svg>