<svg clip-rule="evenodd" fill-rule="evenodd" stroke-linejoin="round" stroke-miterlimit="2" viewBox="0 0 250 250" xmlns="http://www.w3.org/2000/svg">
  <defs>
    <style type="text/css" id="current-color-scheme">.ColorScheme-Highlight { color:#000000; }</style>
  </defs><path class="ColorScheme-Highlight" fill="currentColor" d="m2.923 2.217h10.154c1.094 0 1.976.881 1.976 1.975v7.616c0 1.094-.882 1.975-1.976 1.975h-10.154c-1.094 0-1.976-.881-1.976-1.975v-7.616c0-1.094.882-1.975 1.976-1.975zm-.543 1.827-.02 7.764c0 .312.251.562.563.562h10.154c.312 0 .563-.25.563-.562l-.02-7.764c-.065-.239-.282-.414-.543-.414h-10.154c-.261 0-.478.175-.543.414zm5.348 6.242c-.198 0-.366-.07-.505-.209s-.209-.307-.209-.505v-1.777l-1.931-2.463c-.18-.225-.206-.462-.082-.71.124-.247.324-.37.6-.37h4.796c.277 0 .477.123.6.37.124.247.101.483-.071.708l-.001.001-1.932 2.464v1.843c0 .19-.065.345-.191.466-.123.12-.278.182-.466.182zm.272-3.065 1.443-1.829h-2.88zm-2.622 3.585h5.244c.261 0 .472.211.472.472 0 .262-.211.472-.472.472h-5.244c-.261 0-.472-.21-.472-.472 0-.261.211-.472.472-.472z" transform="matrix(17.3743 0 0 17.3743 -13.9941 -13.9941)"/></svg>