<svg clip-rule="evenodd" fill-rule="evenodd" stroke-linejoin="round" stroke-miterlimit="2" viewBox="0 0 250 250" xmlns="http://www.w3.org/2000/svg">
  <defs>
    <style type="text/css" id="current-color-scheme">.ColorScheme-Highlight { color:#000000; }</style>
  </defs><path class="ColorScheme-Highlight" fill="currentColor" d="m2.923 2.217h10.154c1.094 0 1.976.881 1.976 1.975v7.616c0 1.094-.882 1.975-1.976 1.975h-10.154c-1.094 0-1.976-.881-1.976-1.975v-7.616c0-1.094.882-1.975 1.976-1.975zm-.543 1.827-.02 7.764c0 .312.251.562.563.562h10.154c.312 0 .563-.25.563-.562l-.02-7.764c-.065-.239-.282-.414-.543-.414h-10.154c-.261 0-.478.175-.543.414zm6.339.656h.231c.011-.073.043-.136.096-.19.066-.066.147-.099.243-.099h1.566.003l.004.001c.086.005.158.038.219.098.053.054.085.117.096.19h.23c.004-.084.035-.152.092-.205.06-.056.134-.084.222-.084s.161.029.218.086c.058.057.087.13.087.22v4.043c0 .09-.029.163-.087.22-.057.057-.13.086-.22.087-.089 0-.163-.031-.222-.091-.056-.056-.086-.124-.09-.204h-.229c-.01.076-.042.141-.097.196-.061.06-.135.093-.221.098h.001-.005-.001-.359v.563c0 .17-.061.315-.182.435-.121.119-.267.179-.439.179h-3.435c-.17 0-.315-.06-.435-.179-.12-.12-.18-.265-.18-.435v-.436c-.985-.282-1.744-1.146-1.841-2.227-.125-1.403.912-2.644 2.314-2.769.674-.06 1.309.147 1.803.534v-.014c0-.09.029-.163.086-.22.058-.057.13-.086.219-.086.088 0 .161.028.221.084.058.053.089.121.092.205zm2.401 4.085c.015 0 .028-.005.038-.013h-.025zm-.003-.016.003.003v-.047c0 .015-.001.03-.003.044zm.003.016-.004-.005c-.001.002-.001.003-.001.005zm-.012-2.93h.371v-.536h-.371zm0 2.304h.371v-.536h-.371zm-.612.288h.083v-3.417h-1.013v.962h.309c.172 0 .318.061.439.182s.182.267.182.439zm-1.576-2.592h.098v-.536h-.37v.002c.11.165.202.343.272.534zm-2.42 3.714h3.315v-2.896h-3.315zm.412-.347c-.085 0-.144-.037-.178-.109-.033-.069-.027-.139.023-.21l.001-.001.49-.661.001-.001c.038-.05.09-.076.156-.079.065-.003.121.022.167.078l.003.003.384.531.616-.791c.04-.057.095-.084.163-.081.064.003.117.029.157.078l.002.003.672.921.003.003c.043.07.048.139.015.207-.034.072-.093.109-.178.109zm.42-1.34c-.127 0-.234-.044-.323-.132-.089-.089-.133-.196-.133-.323 0-.126.044-.234.132-.323.088-.088.196-.133.323-.133.126 0 .234.044.322.132.089.089.134.196.134.323 0 .126-.044.234-.133.323-.088.088-.195.133-.322.133zm.842-1.89c-.308-.681-1.023-1.126-1.809-1.055-.995.089-1.73.968-1.641 1.963.062.69.504 1.255 1.101 1.507v-1.794c0-.172.06-.318.18-.439s.265-.182.435-.182zm-1.563-.824c.162.004.29.138.286.299-.003.161-.137.289-.299.286-.544-.013-.995.419-1.007.963-.004.161-.138.289-.299.286-.161-.004-.289-.138-.286-.299.02-.867.738-1.554 1.605-1.535zm4.497 1.836h.371v-.53h-.371zm-5.73 3.802h5.244c.261 0 .472.211.472.472 0 .262-.211.472-.472.472h-5.244c-.261 0-.472-.21-.472-.472 0-.261.211-.472.472-.472z" transform="matrix(17.3743 0 0 17.3743 -13.9941 -13.9941)"/></svg>