<svg clip-rule="evenodd" fill-rule="evenodd" stroke-linejoin="round" stroke-miterlimit="2" viewBox="0 0 250 250" xmlns="http://www.w3.org/2000/svg">
  <defs>
    <style type="text/css" id="current-color-scheme">.ColorScheme-Highlight { color:#000000; }</style>
  </defs><path class="ColorScheme-Highlight" fill="currentColor" d="m2.923 2.217h10.154c1.094 0 1.976.881 1.976 1.975v7.616c0 1.094-.882 1.975-1.976 1.975h-10.154c-1.094 0-1.976-.881-1.976-1.975v-7.616c0-1.094.882-1.975 1.976-1.975zm-.543 1.827-.02 7.764c0 .312.251.562.563.562h10.154c.312 0 .563-.25.563-.562l-.02-7.764c-.065-.239-.282-.414-.543-.414h-10.154c-.261 0-.478.175-.543.414zm3.438 6.207c-.228 0-.422-.08-.583-.24-.16-.161-.24-.355-.24-.583v-4.356c0-.23.08-.426.24-.588.161-.162.355-.243.583-.243h1.871c.133 0 .245.048.337.144.09.094.135.207.135.337 0 .132-.046.244-.137.334s-.203.136-.335.136h-1.751v4.116h4.116v-1.751c0-.132.047-.244.138-.335s.203-.137.335-.137c.131 0 .243.045.336.136.095.091.142.203.142.336v1.871c0 .228-.081.423-.243.583s-.358.24-.588.24zm-.44.555h5.244c.261 0 .472.211.472.472 0 .262-.211.472-.472.472h-5.244c-.261 0-.472-.21-.472-.472 0-.261.211-.472.472-.472zm2.752-3.704-.374-.171c-.156-.061-.233-.175-.233-.339s.077-.278.234-.339l.373-.164.17-.372c.061-.157.175-.234.339-.234s.278.077.339.234l.164.374.372.17c.158.061.234.175.234.335s-.075.273-.233.334l-.374.172-.171.373c-.061.158-.174.233-.335.233-.16 0-.273-.075-.334-.232zm2.365-1.419c-.086.154-.201.214-.321.214-.124 0-.238-.062-.317-.219l-.102-.191-.188-.106c-.156-.079-.218-.193-.218-.316 0-.124.062-.237.219-.317l.191-.101.106-.189c.079-.156.193-.217.316-.217.124 0 .238.062.317.219l.1.188.191.102.003.001c.153.087.213.202.213.322 0 .123-.062.237-.219.317l-.188.1-.101.189s-.037.065-.002.004z" transform="matrix(17.3743 0 0 17.3743 -13.9941 -13.9941)"/></svg>