<svg clip-rule="evenodd" fill-rule="evenodd" stroke-linejoin="round" stroke-miterlimit="2" viewBox="0 0 250 250" xmlns="http://www.w3.org/2000/svg">
  <defs>
    <style type="text/css" id="current-color-scheme">.ColorScheme-Highlight { color:#000000; }</style>
  </defs><path class="ColorScheme-Highlight" fill="currentColor" d="m483.115 489.655-2.312.002c-233.374 0-432.183-82.034-596.472-245.986-164.282-163.962-246.55-363.326-246.55-598.191 0-116.184 20.778-224.684 61.99-325.561 41.371-101.248 101.677-191.597 181.041-270.961 37.532-37.532 83.135-55.828 136.93-54.578 52.272 1.22 97.078 20.382 134.349 57.653 37.865 37.865 53.206 83.157 46.281 135.786-5.596 42.531-21.813 80.589-48.674 114.165-1.218 1.522-2.496 2.994-3.833 4.411-45.382 48.133-81.526 101.392-108.343 159.838-25.746 56.112-38.532 115.873-38.532 179.247 0 131.497 47.515 244.79 142.113 340.059 30.769 30.988 63.558 56.943 98.369 77.86v-1.398c72.098 43.897 152.918 66.071 242.487 66.445h2.312c131.748-.551 244.565-48.262 338.543-142.907 36.968-37.23 69.057-77.212 91.619-119.957 35.172-66.638 52.807-139.992 52.807-220.102 0-63.374-12.787-123.135-38.533-179.247-26.816-58.446-62.961-111.705-108.343-159.838-1.336-1.417-2.615-2.889-3.832-4.411-26.862-33.576-43.078-71.634-48.674-114.165-6.925-52.629 8.415-97.921 46.28-135.786 37.271-37.271 82.077-56.433 134.349-57.653 53.793-1.25 99.393 17.046 136.933 54.578 79.36 79.364 139.67 169.713 181.04 270.961 41.21 100.877 61.99 209.377 61.99 325.561 0 234.865-82.27 434.229-246.55 598.191-164.291 163.952-363.099 245.986-596.473 245.986zm-1.156-217.337c-172.457 0-320.137-61.726-442.947-185.407-122.74-123.61-183.893-270.814-183.893-441.431 0-84.601 17.27-164.337 51.639-239.244 32.837-71.567 76.839-136.937 132.182-196.167 9.192-12.159 14.792-25.83 16.79-41.018.782-5.944-1.095-11.01-5.371-15.286-9.989-9.989-21.953-15.225-35.961-15.551-12.485-.29-23.143 3.766-31.854 12.476-65.527 65.527-115.431 140.048-149.589 223.643-34.316 83.999-51.303 174.402-51.303 271.147 0 194.846 68.02 360.333 204.309 496.357 4.471 4.461 8.972 8.849 13.504 13.164h2.46c134.467 126.668 294.864 190.261 481.19 190.782 192.794-.54 357.829-68.605 495.101-204.204 82.444-81.444 140.164-173.447 173.194-275.997h.38c21.86-68.648 32.79-142.018 32.79-220.102 0-96.745-16.99-187.148-51.31-271.147-34.15-83.595-84.06-158.116-149.585-223.643-8.71-8.71-19.369-12.766-31.853-12.476-14.009.326-25.973 5.562-35.961 15.551-4.277 4.276-6.154 9.342-5.372 15.286 1.998 15.188 7.598 28.859 16.79 41.018 55.344 59.23 99.341 124.6 132.181 196.167 34.37 74.907 51.64 154.643 51.64 239.244 0 170.617-61.15 317.821-183.893 441.431-122.81 123.681-270.49 185.407-442.946 185.407zm-165.917-585.303h-103.042c-26.845 0-46.535-11.7-59.153-34.946-12.716-23.444-11.338-46.436 4.554-68.942l375.975-541.965.151-.214c9.304-13.027 21.052-21.474 35.009-25.661 14.009-4.203 28.021-3.626 41.918 1.822 13.992 4.774 25.325 13.879 33.754 27.618 8.435 13.749 11.528 28.005 9.658 42.646l-38.31 304.612h137.444c28.482 0 48.421 12.792 59.979 38.121 11.437 25.065 8.705 48.262-8.005 69.613l-.342.425-409.942 493.931c-9.762 12.016-21.84 19.582-36.107 22.897-14.385 3.342-28.655 1.743-42.587-4.972-13.045-5.884-23.072-15.076-30.081-27.58-6.923-12.342-9.642-26.212-7.796-41.674l.061-.464zm-290.425 1247.625c-104.658 0-189.801-85.14-189.801-189.799 0-104.658 85.143-189.798 189.801-189.798 104.656 0 189.799 85.14 189.799 189.798 0 104.659-85.143 189.799-189.799 189.799zm0-260.955c-39.25 0-71.156 31.93-71.156 71.156 0 39.227 31.906 71.156 71.156 71.156 39.248 0 71.154-31.908 71.154-71.156 0-39.247-31.927-71.156-71.154-71.156zm914.995-118.642c104.658 0 189.798 85.14 189.798 189.798 0 104.659-85.14 189.799-189.798 189.799-104.656 0-189.799-85.14-189.799-189.799 0-104.658 85.143-189.798 189.799-189.798zm0 260.954c39.25 0 71.158-31.929 71.158-71.156 0-39.226-31.908-71.156-71.158-71.156-39.248 0-71.154 31.909-71.154 71.156 0 39.248 31.927 71.156 71.154 71.156zm-647.296-71.156c0-104.658 85.14-189.798 189.799-189.798 104.658 0 189.798 85.14 189.798 189.798 0 104.659-85.14 189.799-189.798 189.799-104.659 0-189.799-85.14-189.799-189.799zm260.955 0c0-39.226-31.909-71.156-71.156-71.156-39.248 0-71.157 31.909-71.157 71.156 0 39.248 31.909 71.156 71.157 71.156 39.247 0 71.156-31.929 71.156-71.156z" transform="matrix(.109563 0 0 .109563 72.0686 128.879)"/></svg>