<svg clip-rule="evenodd" fill-rule="evenodd" stroke-linejoin="round" stroke-miterlimit="2" viewBox="0 0 250 250" xmlns="http://www.w3.org/2000/svg">
  <defs>
    <style type="text/css" id="current-color-scheme">.ColorScheme-Highlight { color:#000000; }</style>
  </defs><path class="ColorScheme-Highlight" fill="currentColor" d="m292.76 349.507c-6.673 13.277-4.264 29.318 6.015 40.049 3.802 3.81 6.86 8.34 9.054 13.335h114.915c4.891 0 9.581 1.943 13.039 5.401 3.459 3.458 5.401 8.149 5.401 13.039v.003c0 4.89-1.942 9.581-5.401 13.039-3.458 3.458-8.148 5.401-13.039 5.401h-114.915c-7.109 16.183-23.284 27.496-42.08 27.496s-34.971-11.313-42.081-27.496h-114.914c-4.891 0-9.581-1.943-13.04-5.401-3.458-3.458-5.401-8.149-5.401-13.039v-.003c0-4.89 1.943-9.581 5.401-13.039 3.459-3.458 8.149-5.401 13.04-5.401h114.914c2.194-4.994 5.252-9.524 8.983-13.402 10.212-10.662 12.637-26.585 6.063-39.804-.505-1.236-1.137-2.392-1.808-3.499-7.895-13.021-14.142-30.678-18.008-51.184 15.006-2.916 31.544-4.522 48.91-4.522 15.844 0 30.998 1.339 44.93 3.791-3.854 20.818-10.156 38.739-18.145 51.915-.647 1.068-1.258 2.179-1.833 3.321zm-45.453 67.589v8.472c1.926 8.405 9.456 14.683 18.442 14.683 8.985 0 16.516-6.278 18.442-14.683v-8.472c-1.926-8.405-9.457-14.682-18.442-14.682-8.986 0-16.516 6.277-18.442 14.682zm-70.569-233.082c11.043-15.765 26.169-24.53 43.842-29.183-5.071 11.607-9.202 25.323-12.088 40.508-11.915-2.947-22.639-6.781-31.754-11.325zm134.21-29.118c17.887 4.745 33.162 13.688 44.234 29.726-9.255 4.475-20.094 8.234-32.102 11.1-2.884-15.309-7.032-29.135-12.132-40.826zm49.76 38.616c8.691 15.616 13.642 33.599 13.642 52.739 0 18.784-4.769 36.455-13.162 51.867-10.462-4.895-22.74-8.987-36.335-12.032 1.804-12.557 2.782-25.941 2.782-39.835 0-14.05-1-27.578-2.844-40.257 13.501-3.182 25.643-7.427 35.917-12.482zm-4.973 113.561c-12.029 17.761-29.178 31.772-49.329 39.913 7.25-13.475 13.057-30.817 16.753-50.623 12.126 2.746 23.12 6.373 32.576 10.71zm-130.642 39.914c-19.592-7.915-36.347-21.379-48.317-38.445 9.121-4.504 19.837-8.312 31.74-11.254 3.702 19.422 9.441 36.434 16.577 49.699zm-53.906-47.289c-8.938-15.78-14.04-34.017-14.04-53.447 0-19.408 5.091-37.626 14.01-53.393 10.143 5.137 22.184 9.471 35.608 12.746-1.88 12.791-2.9 26.453-2.9 40.647 0 14.24 1.027 27.945 2.919 40.773-13.415 3.272-25.449 7.58-35.597 12.674zm62.443-147.532c10.151-1.543 20.937-2.087 32.119-2.087 11.189 0 21.983.561 32.14 2.124 6.395 12.36 11.483 27.983 14.793 45.722-14.231 2.647-29.795 4.097-46.099 4.097-16.921 0-33.046-1.561-47.708-4.4 3.314-17.632 8.387-33.161 14.755-45.456zm80.776 131.835c-14.472-2.55-30.179-3.953-46.598-3.953-17.947 0-35.044 1.679-50.609 4.7-1.739-12.119-2.675-25.06-2.675-38.497 0-13.392.93-26.29 2.658-38.374 15.218 2.943 31.901 4.576 49.401 4.576 16.881 0 33.001-1.518 47.779-4.266 1.7 11.994 2.614 24.787 2.614 38.064 0 13.161-.898 25.846-2.57 37.75zm-42.026-32.225c4.767-2.42 8.032-7.37 8.032-13.082 0-8.098-6.564-14.663-14.663-14.663s-14.664 6.565-14.664 14.663c0 5.712 3.266 10.662 8.032 13.082v11.015c0 3.66 2.972 6.631 6.632 6.631s6.631-2.971 6.631-6.631zm-91.026-89.224v-33.6c0-45.273 36.415-81.688 81.688-81.688h5.413c45.273 0 81.688 36.415 81.688 81.688v33.665c-10.537-8.989-22.988-14.819-36.814-18.434v-12.524c0-26.392-21.188-47.58-47.58-47.58s-47.58 21.188-47.58 47.58v12.471c-13.826 3.593-26.277 9.409-36.815 18.422z" transform="matrix(.559536 0 0 .559536 -23.6958 -18.9501)"/></svg>