<svg clip-rule="evenodd" fill-rule="evenodd" stroke-linejoin="round" stroke-miterlimit="2" viewBox="0 0 250 250" xmlns="http://www.w3.org/2000/svg">
  <defs>
    <style type="text/css" id="current-color-scheme">.ColorScheme-Highlight { color:#000000; }</style>
  </defs><path class="ColorScheme-Highlight" fill="currentColor" d="m189-95c-26.033 0-48.21-9.157-66.53-27.47-18.313-18.32-27.47-40.497-27.47-66.53v-582c0-26.307 9.157-48.717 27.47-67.23 18.32-18.513 40.497-27.77 66.53-27.77h582c26.307 0 48.717 9.257 67.23 27.77s27.77 40.923 27.77 67.23v582c0 26.033-9.257 48.21-27.77 66.53-18.513 18.313-40.923 27.47-67.23 27.47zm0-138.074c0 11.689 4.644 22.899 12.909 31.165 8.266 8.265 19.476 12.909 31.165 12.909h493.852c11.689 0 22.899-4.644 31.165-12.909 8.265-8.266 12.909-19.476 12.909-31.165v-508.451c0-16.279-13.197-29.475-29.475-29.475-9.284 0-19.536 0-28.82 0-16.278 0-29.475 13.196-29.475 29.475v284.985c0 17.334-7.333 30.667-22 40-14.666 9.334-30 10-46 2 0 0-63.103-23.331-103.097-38.119-20.736-7.667-43.53-7.667-64.266 0-39.994 14.788-103.097 38.119-103.097 38.119-16 8-31.334 7.334-46-2-14.667-9.333-22-22.666-22-40v-284.985c0-16.279-13.197-29.475-29.475-29.475h-28.82c-16.278 0-29.475 13.196-29.475 29.475zm117.354-12.634c-15.333 0-28.167-5.167-38.5-15.5s-15.5-23-15.5-38 5.167-27.667 15.5-38 23.167-15.5 38.5-15.5c14.587 0 27.067 5.187 37.44 15.56s15.56 22.853 15.56 37.44c0 15.333-5.187 28.167-15.56 38.5s-22.853 15.5-37.44 15.5zm57.416-301.023c0 6.146 2.913 11.928 7.853 15.586 4.939 3.657 11.32 4.757 17.198 2.963 25.146-7.67 60.179-18.358 60.179-18.358 9.933-4.666 20.25-7 30.95-7s21.05 2.334 31.05 7c0 0 35.033 10.688 60.179 18.358 5.878 1.794 12.259.694 17.198-2.963 4.94-3.658 7.853-9.44 7.853-15.586 0-46.945 0-145.117 0-194.522 0-7.889-3.134-15.456-8.712-21.034-5.579-5.579-13.145-8.713-21.035-8.713-44.611 0-128.355 0-172.966 0-7.89 0-15.456 3.134-21.035 8.713-5.578 5.578-8.712 13.145-8.712 21.034zm84.679-82.439h-12.728c-5.957 0-10.321-2.607-13.121-7.766-2.837-5.23-2.562-10.362.976-15.383l62.324-89.84.055-.077c2.065-2.892 4.69-4.745 7.788-5.674 3.119-.936 6.239-.824 9.291.359 3.122 1.074 5.668 3.091 7.552 6.161 1.881 3.066 2.544 6.252 2.128 9.512l-5.818 46.257h18.511c6.356 0 10.794 2.872 13.374 8.525 2.535 5.556 1.916 10.697-1.788 15.43l-.125.154-67.959 81.882c-2.172 2.662-4.866 4.326-8.035 5.062-3.218.747-6.413.409-9.468-1.062-2.914-1.316-5.154-3.37-6.721-6.163-1.529-2.726-2.155-5.785-1.747-9.2l.022-.169z" transform="matrix(.300931 0 0 .300931 -19.5973 269.597)"/></svg>