<svg clip-rule="evenodd" fill-rule="evenodd" stroke-linejoin="round" stroke-miterlimit="2" viewBox="0 0 250 250" xmlns="http://www.w3.org/2000/svg">
  <defs>
    <style type="text/css" id="current-color-scheme">.ColorScheme-Highlight { color:#000000; }</style>
  </defs><path class="ColorScheme-Highlight" fill="currentColor" d="m149-175c-26.033 0-48.21-9.16-66.53-27.48-18.313-18.313-27.47-40.487-27.47-66.52v-502c0-26.307 9.157-48.717 27.47-67.23 18.32-18.513 40.497-27.77 66.53-27.77h662c26.307 0 48.717 9.257 67.23 27.77s27.77 40.923 27.77 67.23v502c0 26.033-9.257 48.207-27.77 66.52-18.513 18.32-40.923 27.48-67.23 27.48h-167v33c0 13.167-4.73 24.29-14.19 33.37-9.453 9.087-20.723 13.63-33.81 13.63h-232c-13.167 0-24.29-4.543-33.37-13.63-9.087-9.08-13.63-20.203-13.63-33.37v-33zm0-131.254c0 20.575 16.679 37.254 37.254 37.254h587.492c20.575 0 37.254-16.679 37.254-37.254v-427.492c0-20.575-16.679-37.254-37.254-37.254h-587.492c-20.575 0-37.254 16.679-37.254 37.254zm156.346-97.746h61.867c20.71 0 37.499 16.79 37.499 37.5 0 9.945-3.95 19.484-10.983 26.517-7.033 7.032-16.571 10.983-26.516 10.983h-115.433c-11.346 0-22.227-4.507-30.25-12.53s-12.53-18.904-12.53-30.25v-114.117c0-20.43 16.562-36.993 36.993-36.993h.014c20.431 0 36.993 16.563 36.993 36.993v59.551c0 5.926 2.354 11.61 6.545 15.801s9.875 6.545 15.801 6.545zm348.308-233h-59.263c-9.811 0-19.22-3.897-26.158-10.835-6.937-6.937-10.835-16.347-10.835-26.158v-.014c0-20.431 16.562-36.993 36.993-36.993h113.829c11.346 0 22.227 4.507 30.25 12.53s12.53 18.904 12.53 30.25v111.485c0 20.71-16.79 37.499-37.5 37.499s-37.5-16.789-37.5-37.499v-57.919c0-5.926-2.354-11.61-6.545-15.801s-9.875-6.545-15.801-6.545z" transform="matrix(.268431 0 0 .268431 -3.98086 253.981)"/></svg>