<svg clip-rule="evenodd" fill-rule="evenodd" stroke-linejoin="round" stroke-miterlimit="2" viewBox="0 0 250 250" xmlns="http://www.w3.org/2000/svg">
  <defs>
    <style type="text/css" id="current-color-scheme">.ColorScheme-Highlight { color:#000000; }</style>
  </defs><path class="ColorScheme-Highlight" fill="currentColor" d="m2.923 2.217h10.154c1.094 0 1.976.881 1.976 1.975v7.616c0 1.094-.882 1.975-1.976 1.975h-10.154c-1.094 0-1.976-.881-1.976-1.975v-7.616c0-1.094.882-1.975 1.976-1.975zm-.543 1.827-.02 7.764c0 .312.251.562.563.562h10.154c.312 0 .563-.25.563-.562l-.02-7.764c-.065-.239-.282-.414-.543-.414h-10.154c-.261 0-.478.175-.543.414zm3.396 6.223c-.214 0-.397-.076-.549-.227-.151-.152-.227-.335-.227-.549v-4.483c0-.216.076-.4.227-.553s.334-.229.549-.229h4.483c.216 0 .401.076.553.229.153.152.229.337.229.553v4.483c0 .215-.076.398-.229.549s-.337.227-.553.227zm.163-.932h4.17v-4.171h-4.17zm1.501-1.118-.186.503c-.029.079-.077.143-.145.193-.07.05-.147.076-.233.076-.143 0-.253-.058-.331-.168-.079-.112-.096-.236-.046-.373l.002-.003 1.038-2.661c.021-.081.067-.147.139-.199.069-.049.148-.075.238-.075h.196c.083 0 .16.023.229.069.072.047.123.111.152.19l1.035 2.656.001.003c.049.133.035.259-.041.377-.08.123-.192.184-.335.184-.09 0-.169-.027-.237-.077s-.115-.114-.142-.192l-.181-.503zm.573-1.609-.309.875h.615zm-2.635 4.198h5.244c.261 0 .472.211.472.472 0 .262-.211.472-.472.472h-5.244c-.261 0-.472-.21-.472-.472 0-.261.211-.472.472-.472z" transform="matrix(17.3743 0 0 17.3743 -13.9941 -13.9941)"/></svg>