<svg clip-rule="evenodd" fill-rule="evenodd" stroke-linejoin="round" stroke-miterlimit="2" viewBox="0 0 250 250" xmlns="http://www.w3.org/2000/svg">
  <defs>
    <style type="text/css" id="current-color-scheme">.ColorScheme-Highlight { color:#000000; }</style>
  </defs><path class="ColorScheme-Highlight" fill="currentColor" d="m2.923 2.217h10.154c1.094 0 1.976.881 1.976 1.975v7.616c0 1.094-.882 1.975-1.976 1.975h-10.154c-1.094 0-1.976-.881-1.976-1.975v-7.616c0-1.094.882-1.975 1.976-1.975zm-.543 1.827-.02 7.764c0 .312.251.562.563.562h10.154c.312 0 .563-.25.563-.562l-.02-7.764c-.065-.239-.282-.414-.543-.414h-10.154c-.261 0-.478.175-.543.414zm7.965 4.158c.103-.099.223-.148.359-.148.135 0 .255.048.358.147l.003.003.45.458c.1.101.149.22.149.355 0 .134-.049.253-.149.356-.101.104-.221.155-.359.155-.137 0-.257-.052-.36-.158l-.447-.448c-.107-.101-.16-.222-.16-.36 0-.14.052-.26.156-.36zm.394-3.812c.099.102.148.222.148.359 0 .138-.05.256-.15.354l-.448.457-.003.003c-.104.099-.224.147-.359.147-.136 0-.255-.049-.356-.149-.106-.103-.158-.224-.158-.362 0-.139.052-.259.159-.357l.447-.455.003-.002c.102-.1.222-.149.359-.149.138 0 .257.051.358.154zm-5.361 6.416h5.244c.261 0 .472.211.472.472 0 .262-.211.472-.472.472h-5.244c-.261 0-.472-.21-.472-.472 0-.261.211-.472.472-.472zm.275-2.602c.1.1.149.22.149.358 0 .139-.049.258-.149.359l-.448.448c-.102.107-.222.159-.361.159s-.259-.051-.359-.153-.149-.221-.149-.355.049-.253.148-.357l.002-.002.458-.458c.101-.1.22-.149.355-.149s.254.049.354.15zm-.4-3.813c.101-.103.221-.155.36-.155s.258.05.358.15l.458.458.002.001c.099.102.148.222.148.359 0 .138-.05.257-.151.357s-.22.149-.356.149-.254-.049-.352-.149l-.465-.457c-.101-.1-.15-.218-.15-.355 0-.135.049-.255.148-.358zm2.743 5.06-1.291.785c-.097.066-.198.091-.302.078-.096-.012-.182-.044-.257-.096-.079-.054-.138-.126-.178-.217-.039-.092-.047-.195-.018-.31l.343-1.474-1.154-1.015c-.087-.073-.14-.16-.162-.259-.021-.093-.02-.183 0-.27.023-.095.076-.178.162-.245.08-.063.177-.099.289-.107l1.513-.133.583-1.401c.043-.11.111-.19.201-.241.087-.049.176-.073.269-.073.092 0 .182.024.269.073.092.051.161.13.204.239l.59 1.406 1.515.13c.106.007.2.043.281.107.086.067.139.15.162.245.02.086.022.174.005.266-.018.101-.07.189-.158.263l-1.155 1.015.343 1.483.001.003c.021.108.011.207-.028.299-.038.088-.091.16-.16.218-.002.003-.005.005-.008.007-.075.054-.162.085-.263.093-.102.008-.2-.016-.293-.074zm-.787-.704.726-.441c.038-.024.087-.024.125 0l.734.449-.195-.823c-.011-.043.004-.089.037-.118l.664-.583-.864-.074c-.044-.004-.082-.032-.1-.073l-.339-.794-.331.785c-.017.041-.055.069-.099.073l-.867.081.667.578c.034.03.048.075.038.119z" transform="matrix(17.3743 0 0 17.3743 -13.9941 -13.9941)"/></svg>