<svg clip-rule="evenodd" fill-rule="evenodd" stroke-linejoin="round" stroke-miterlimit="2" viewBox="0 0 250 250" xmlns="http://www.w3.org/2000/svg">
  <defs>
    <style type="text/css" id="current-color-scheme">.ColorScheme-Highlight { color:#000000; }</style>
  </defs><path class="ColorScheme-Highlight" fill="currentColor" d="m2.923 2.217h10.154c1.094 0 1.976.881 1.976 1.975v7.616c0 1.094-.882 1.975-1.976 1.975h-10.154c-1.094 0-1.976-.881-1.976-1.975v-7.616c0-1.094.882-1.975 1.976-1.975zm-.543 1.827-.02 7.764c0 .312.251.562.563.562h10.154c.312 0 .563-.25.563-.562l-.02-7.764c-.065-.239-.282-.414-.543-.414h-10.154c-.261 0-.478.175-.543.414zm6.056 4.992c0 .604-.491 1.095-1.095 1.095-.605 0-1.096-.491-1.096-1.095 0-.605.491-1.096 1.096-1.096.604 0 1.095.491 1.095 1.096zm-.577 0c0-.286-.232-.518-.518-.518s-.518.232-.518.518.232.518.518.518.518-.232.518-.518zm-1.839-2.812c.508 0 .92.412.92.919 0 .508-.412.92-.92.92-.507 0-.919-.412-.919-.92 0-.507.412-.919.919-.919zm.342.919c0-.189-.153-.342-.342-.342-.188 0-.342.153-.342.342s.154.342.342.342c.189 0 .342-.153.342-.342zm1.193-1.82-.012.126c-.002.011-.004.023-.007.034l-.037.118c-.003.01-.008.021-.013.031l-.058.106c-.005.01-.011.019-.018.028l-.077.092c-.007.009-.014.016-.023.023l-.092.077c-.009.007-.018.013-.028.018l-.106.058c-.01.005-.021.01-.031.013l-.119.037c-.01.003-.022.005-.033.007l-.126.012c-.012.002-.023.002-.035 0l-.126-.012c-.011-.002-.022-.004-.033-.007l-.119-.037c-.01-.003-.021-.008-.031-.013l-.106-.058c-.01-.005-.019-.011-.028-.018l-.092-.077c-.008-.007-.016-.014-.023-.023l-.077-.092c-.007-.009-.013-.018-.018-.028l-.058-.106c-.005-.01-.01-.021-.013-.031l-.037-.118c-.003-.011-.005-.023-.006-.034l-.013-.126c-.001-.012-.001-.023 0-.035l.013-.126c.001-.011.003-.022.006-.033l.037-.119c.003-.01.008-.021.013-.031l.058-.106c.005-.01.011-.019.018-.027l.077-.093c.007-.008.015-.016.023-.023l.092-.076c.009-.008.018-.014.028-.019l.106-.058c.01-.005.021-.01.031-.013l.119-.037c.011-.003.022-.005.033-.006l.126-.013c.012-.001.023-.001.035 0l.126.013c.011.001.023.003.033.006l.119.037c.01.003.021.008.031.013l.106.058c.01.005.019.011.028.019l.092.076c.009.007.016.015.023.023l.077.093c.007.008.013.017.018.027l.058.106c.005.01.01.021.013.031l.037.119c.003.011.005.022.007.033l.012.126c.001.012.001.023 0 .035zm-.576-.017c0-.122-.099-.221-.221-.221s-.221.099-.221.221.099.221.221.221.221-.099.221-.221zm-1.601 5.5h5.244c.261 0 .472.211.472.472 0 .262-.211.472-.472.472h-5.244c-.261 0-.472-.21-.472-.472 0-.261.211-.472.472-.472zm3.872-6.292 1.496 1.497c.205.204.205.536 0 .74l-1.496 1.497c-.205.204-.536.204-.741 0l-.528-.529c-.205-.204-.205-.536 0-.74l.555-.555c.011-.012.018-.027.018-.043s-.007-.032-.018-.043l-.555-.555c-.205-.205-.205-.536 0-.741l.528-.528c.205-.204.536-.204.741 0zm-.28.537c-.05-.05-.131-.05-.181 0l-.271.271c-.05.05-.05.131 0 .181l.713.713c.044.044.068.103.068.165s-.024.121-.068.165l-.713.713c-.05.05-.05.131 0 .18l.271.272c.05.049.131.049.181 0l1.224-1.225c.058-.058.058-.152 0-.21z" transform="matrix(17.3743 0 0 17.3743 -13.9941 -13.9941)"/></svg>