<svg clip-rule="evenodd" fill-rule="evenodd" stroke-linejoin="round" stroke-miterlimit="2" viewBox="0 0 250 250" xmlns="http://www.w3.org/2000/svg">
  <defs>
    <style type="text/css" id="current-color-scheme">.ColorScheme-Highlight { color:#000000; }</style>
  </defs><path class="ColorScheme-Highlight" fill="currentColor" d="m2.923 2.217h10.154c1.094 0 1.976.881 1.976 1.975v7.616c0 1.094-.882 1.975-1.976 1.975h-10.154c-1.094 0-1.976-.881-1.976-1.975v-7.616c0-1.094.882-1.975 1.976-1.975zm-.543 1.827-.02 7.764c0 .312.251.562.563.562h10.154c.312 0 .563-.25.563-.562l-.02-7.764c-.065-.239-.282-.414-.543-.414h-10.154c-.261 0-.478.175-.543.414zm5.653 4.828c-.055 0-.108-.009-.16-.028-.056-.019-.103-.049-.143-.087-.358-.322-.626-.625-.803-.908-.187-.299-.277-.579-.277-.837 0-.402.133-.738.397-1.006.264-.27.593-.406.986-.406.389 0 .715.136.977.406.262.269.393.604.393 1.006 0 .263-.089.544-.273.84-.175.282-.442.584-.802.907l-.002.001c-.043.037-.088.064-.134.083-.048.019-.101.029-.159.029zm0-1.591c.093 0 .172-.035.239-.104.066-.069.1-.152.1-.248 0-.097-.034-.179-.1-.245-.067-.067-.146-.101-.239-.101-.101 0-.185.034-.252.101-.066.066-.1.148-.1.245 0 .096.034.179.1.248.067.069.151.104.252.104zm-2.655 3.525h5.244c.261 0 .472.211.472.472 0 .262-.211.472-.472.472h-5.244c-.261 0-.472-.21-.472-.472 0-.261.211-.472.472-.472zm3.77-5.417c-.093-.053-.188-.1-.285-.142-.096-.042-.192-.076-.288-.102l-.004-.001c-.097-.03-.179-.087-.245-.172-.068-.086-.102-.183-.102-.288 0-.143.05-.257.147-.344.102-.093.223-.122.36-.083.157.033.314.079.471.139.159.06.312.139.456.235.116.071.181.177.194.318.012.137-.032.258-.136.363-.07.076-.159.121-.266.133-.102.012-.201-.005-.296-.053-.002-.001-.004-.002-.006-.003zm1.434 1.68c-.099 0-.194-.032-.283-.1-.088-.067-.147-.152-.177-.255l-.002-.005c-.026-.105-.058-.205-.095-.299-.036-.092-.084-.182-.144-.271-.004-.006-.007-.012-.01-.019-.041-.094-.054-.193-.04-.296.016-.108.061-.198.134-.272l.003-.002c.106-.1.225-.141.353-.129.133.013.236.078.308.195l.001.001c.09.153.166.303.228.45.062.148.113.308.151.48.038.136.011.259-.08.366-.088.103-.203.156-.347.156zm-3.253 3.167h-.001c-.68-.144-1.243-.494-1.688-1.05-.445-.555-.669-1.204-.669-1.946 0-.724.223-1.362.669-1.913.445-.551 1.008-.905 1.686-1.063.142-.038.267-.011.374.08.103.087.156.204.156.354 0 .095-.033.187-.103.272-.066.082-.147.137-.243.167l-.006.002c-.476.122-.868.378-1.176.769-.307.391-.461.834-.461 1.332 0 .497.154.941.461 1.331.308.391.7.647 1.176.769.003.001.005.002.008.003.089.03.169.085.238.169.072.088.106.181.106.276 0 .148-.053.267-.158.359-.11.098-.233.127-.369.089zm2.627-1.319-.001-.001c-.076-.064-.122-.152-.134-.264-.012-.104.005-.204.053-.299.003-.005.006-.01.009-.015.059-.085.108-.174.146-.267.039-.096.072-.198.098-.307v-.001c.025-.1.082-.184.172-.253.089-.067.186-.1.29-.1.138 0 .251.051.339.151.091.104.121.224.089.359-.034.174-.085.339-.152.496-.067.155-.143.301-.228.439-.072.123-.18.19-.323.2-.134.009-.254-.036-.358-.138zm-1.226 1.313h-.001c-.141.032-.264.001-.369-.088-.102-.087-.156-.206-.156-.361 0-.097.032-.186.1-.267.063-.075.143-.128.239-.158.003-.001.005-.001.007-.002.105-.026.207-.06.308-.101.099-.041.193-.092.283-.152l.005-.003c.094-.056.194-.076.3-.06.108.015.193.06.255.128.103.104.15.224.144.362-.006.146-.071.255-.194.327-.144.096-.294.174-.448.235-.153.059-.311.106-.473.14z" transform="matrix(17.3743 0 0 17.3743 -13.9941 -13.9941)"/></svg>