<svg fill="rgb(0,200,170)" clip-rule="evenodd" fill-rule="evenodd" stroke-linejoin="round" stroke-miterlimit="2" viewBox="0 0 245 210" xmlns="http://www.w3.org/2000/svg"><path d="m7.144 3.567h7.776c1.298 0 2.556.471 3.554 1.331l12.589 10.352c1.267 1.093 2 2.712 2 4.419v6.263c0 1.186-.455 2.324-1.265 3.162-.81.839-1.909 1.311-3.055 1.311h-21.599c-1.146 0-2.244-.472-3.055-1.311-.81-.838-1.265-1.976-1.265-3.162v-17.892c0-1.187.455-2.324 1.265-3.163.811-.839 1.909-1.31 3.055-1.31zm0 2.226c-.575 0-1.127.237-1.534.658-.407.422-.636.993-.636 1.589v17.892c0 .595.229 1.167.636 1.588s.959.658 1.534.658h21.599c.576 0 1.128-.237 1.535-.658s.635-.993.635-1.588v-6.263c0-1.046-.449-2.038-1.226-2.708l-12.589-10.352c-.612-.527-1.382-.816-2.178-.816zm.285 3.491c-.56 0-1.015-.448-1.015-1s.455-1 1.015-1h7.043c.56 0 1.014.448 1.014 1s-.454 1-1.014 1zm15.719-2.401c-.33-.269-.459-.726-.322-1.137.138-.412.513-.688.933-.688h6.013c.491 0 .962.202 1.309.561.347.36.542.847.542 1.356v4.712c0 .391-.216.748-.556.919s-.745.126-1.042-.116z" transform="matrix(8.10206 0 0 7.82482 -22.8811 -27.9099)"/><path d="m138-95c-11.747 0-21.85-4.253-30.31-12.76-8.46-8.513-12.69-18.68-12.69-30.5 0-11.827 4.23-22.073 12.69-30.74s18.563-13 30.31-13h750.194c12.033 0 22.377 4.32 31.03 12.96 8.647 8.647 12.97 18.98 12.97 31 0 12.027-4.323 22.207-12.97 30.54-8.653 8.333-18.997 12.5-31.03 12.5zm0-342c-11.747 0-21.85-4.253-30.31-12.76-8.46-8.513-12.69-18.68-12.69-30.5 0-11.827 4.23-22.073 12.69-30.74s18.563-13 30.31-13h750.194c12.033 0 22.377 4.32 31.03 12.96 8.647 8.647 12.97 18.98 12.97 31 0 12.027-4.323 22.207-12.97 30.54-8.653 8.333-18.997 12.5-31.03 12.5zm0-342c-11.747 0-21.85-4.253-30.31-12.76-8.46-8.513-12.69-18.68-12.69-30.5 0-11.827 4.23-22.073 12.69-30.74s18.563-13 30.31-13h750.194c12.033 0 22.377 4.32 31.03 12.96 8.647 8.647 12.97 18.98 12.97 31 0 12.027-4.323 22.207-12.97 30.54-8.653 8.333-18.997 12.5-31.03 12.5zm241.92 513c-11.747 0-21.85-4.253-30.31-12.76-8.46-8.513-12.69-18.68-12.69-30.5 0-11.827 4.23-22.073 12.69-30.74s18.563-13 30.31-13h430.193c12.033 0 22.377 4.32 31.03 12.96 8.647 8.647 12.97 18.98 12.97 31 0 12.027-4.323 22.207-12.97 30.54-8.653 8.333-18.997 12.5-31.03 12.5zm0-342c-11.747 0-21.85-4.253-30.31-12.76-8.46-8.513-12.69-18.68-12.69-30.5 0-11.827 4.23-22.073 12.69-30.74s18.563-13 30.31-13h430.193c12.033 0 22.377 4.32 31.03 12.96 8.647 8.647 12.97 18.98 12.97 31 0 12.027-4.323 22.207-12.97 30.54-8.653 8.333-18.997 12.5-31.03 12.5zm-164.339-87c24.008 0 43.5 19.492 43.5 43.5s-19.492 43.5-43.5 43.5-43.5-19.492-43.5-43.5 19.492-43.5 43.5-43.5zm0 342c24.008 0 43.5 19.492 43.5 43.5s-19.492 43.5-43.5 43.5-43.5-19.492-43.5-43.5 19.492-43.5 43.5-43.5z" transform="matrix(.125419 0 0 .125419 58.0852 192.448)"/></svg>