<svg fill="rgb(0,200,170)" width="100%" height="100%" viewBox="0 0 48 48" version="1.1" xmlns="http://www.w3.org/2000/svg" xmlns:xlink="http://www.w3.org/1999/xlink" xml:space="preserve" xmlns:serif="http://www.serif.com/" style="fill-rule:evenodd;clip-rule:evenodd;stroke-linejoin:round;stroke-miterlimit:2;">
    <g transform="matrix(0.0205299,0,0,0.0205299,3.72778,43.3418)">
        <path d="M444.87,-433.85L444.427,-434.26C437.161,-440.66 431.987,-448.292 428.823,-457.101C426.043,-464.836 424.56,-473.459 424.56,-483L424.56,-648C424.56,-664.371 430.356,-677.857 441.584,-688.587C452.557,-699.053 465.959,-704.44 481.89,-704.44C498.056,-704.44 511.405,-698.911 522.103,-688.298C532.839,-677.637 538.44,-664.264 538.44,-648L538.44,-502.812L639.728,-404.559L639.942,-404.349C652.649,-391.673 658.44,-377.597 658.44,-362.63C658.44,-347.497 652.777,-333.82 640.734,-321.92C628.582,-309.351 614.77,-303.56 599.75,-303.56C584.748,-303.56 570.945,-309.338 558.796,-321.881L444.87,-433.85ZM202.894,-540.192C213.861,-548.3 226.378,-552.309 240.391,-552.316C257.939,-552.307 273.14,-546.023 285.891,-533.272C299.187,-519.977 305.597,-504.514 305.663,-487.13C305.722,-469.491 299.451,-454.248 286.683,-441.48L171.033,-325.83C155.673,-310.47 137.556,-302.953 116.82,-302.953C96.084,-302.953 77.967,-310.47 62.607,-325.83L-52.252,-440.688C-65.135,-453.571 -71.291,-468.602 -71.231,-485.55C-71.164,-502.347 -64.925,-517.43 -51.855,-530.5C-38.786,-543.57 -23.702,-549.808 -6.905,-549.876C10.042,-549.935 25.073,-543.779 37.956,-530.896L45.776,-523.103C49.25,-566.142 58.407,-608.179 73.241,-649.214C94.771,-708.771 128.44,-761.492 174.296,-807.347C218.934,-851.986 269.454,-885.43 325.81,-907.75C381.941,-929.979 439.257,-941.411 497.749,-942.095C556.434,-942.781 613.588,-932.203 669.206,-910.329C724.902,-888.425 775.115,-855.184 819.783,-810.516C864.406,-765.893 897.903,-715.46 920.342,-659.263C942.765,-603.109 953.75,-545.557 953.343,-486.617C952.937,-427.814 941.635,-370.328 919.393,-314.167C897.073,-257.808 863.664,-207.326 819.102,-162.764C737.019,-80.681 639.028,-36.899 525.173,-31.307C411.762,-25.732 310.826,-58.122 222.47,-128.38C204.453,-140.285 194.932,-157.325 194.161,-179.643C193.445,-200.194 200.149,-218.518 214.592,-234.494C228.238,-249.643 244.928,-258.262 264.57,-260.529C283.439,-262.706 301.614,-258.862 319.032,-248.702C319.895,-248.198 320.726,-247.642 321.519,-247.035C379.755,-202.501 445.739,-181.878 519.461,-185.127C592.917,-188.37 656.583,-217.098 710.565,-271.079C770.286,-330.8 800.072,-402.836 799.916,-487.189C799.759,-571.609 769.469,-643.977 709.123,-704.323C650.489,-762.958 579.86,-791.465 497.224,-789.821C414.184,-788.164 342.959,-757.573 283.515,-698.129C254.323,-668.937 232.654,-635.378 218.545,-597.429C211.561,-578.645 206.344,-559.566 202.894,-540.192ZM1252.25,-627.674C1225.62,-604.381 1195.26,-583.168 1161.15,-564.034L1158.7,-562.662C1138.17,-551.211 1113.39,-550.297 1092.07,-560.204C1070.74,-570.111 1055.46,-589.638 1050.97,-612.716C1048.27,-628 1045.03,-642.546 1041.36,-656.374C1037,-672.833 1032.15,-688.547 1026.84,-703.514C1014.49,-738.008 1029.56,-776.316 1062.1,-793.153C1121.79,-824.297 1173.02,-867.889 1216.06,-923.409C1273.46,-997.447 1302.16,-1086.87 1302.16,-1191.69C1302.16,-1316.47 1259.32,-1422.12 1173.63,-1508.64C1087.95,-1595.16 982.715,-1638.41 857.932,-1638.41C733.149,-1638.41 627.084,-1595.16 539.736,-1508.64C452.388,-1422.12 408.714,-1316.47 408.714,-1191.69C408.714,-1163.41 411.209,-1133.88 416.201,-1103.1L416.459,-1101.52C422.906,-1062.54 397.852,-1025.3 359.319,-1016.57C346.898,-1013.83 334.252,-1010.62 321.366,-1007.01C308.656,-1003.45 296.412,-999.585 284.635,-995.405C263.991,-988.058 241.158,-990.181 222.222,-1001.21C203.287,-1012.24 190.173,-1031.05 186.376,-1052.63C185.044,-1059.75 183.892,-1067.01 182.857,-1074.4C177.034,-1115.99 174.122,-1155.09 174.122,-1191.69C174.122,-1381.36 240.673,-1542.33 373.775,-1674.6C506.876,-1806.87 668.262,-1873.01 857.932,-1873.01C1045.94,-1873.01 1206.08,-1806.45 1338.35,-1673.35C1470.62,-1540.25 1536.75,-1379.7 1536.75,-1191.69C1536.75,-1120.15 1525.52,-1049.44 1503.06,-979.561C1480.6,-909.683 1450.23,-850.619 1411.97,-802.369L2000.94,-218.386C2024.24,-193.429 2035.47,-164.313 2034.63,-131.038C2033.8,-97.763 2022.57,-70.31 2000.94,-48.681C1975.99,-23.725 1947.29,-11.247 1914.84,-11.247C1882.4,-11.247 1854.53,-23.725 1831.24,-48.681L1252.25,-627.674Z"/>
    </g>
</svg>
