<svg fill="rgb(255,150,0)" clip-rule="evenodd" fill-rule="evenodd" stroke-linejoin="round" stroke-miterlimit="2" viewBox="0 0 245 210" xmlns="http://www.w3.org/2000/svg"><path d="m7.144 3.567h7.776c1.298 0 2.556.471 3.554 1.331l12.589 10.352c1.267 1.093 2 2.712 2 4.419v6.263c0 1.186-.455 2.324-1.265 3.162-.81.839-1.909 1.311-3.055 1.311h-21.599c-1.146 0-2.244-.472-3.055-1.311-.81-.838-1.265-1.976-1.265-3.162v-17.892c0-1.187.455-2.324 1.265-3.163.811-.839 1.909-1.31 3.055-1.31zm0 2.226c-.575 0-1.127.237-1.534.658-.407.422-.636.993-.636 1.589v17.892c0 .595.229 1.167.636 1.588s.959.658 1.534.658h21.599c.576 0 1.128-.237 1.535-.658s.635-.993.635-1.588v-6.263c0-1.046-.449-2.038-1.226-2.708l-12.589-10.352c-.612-.527-1.382-.816-2.178-.816z" transform="matrix(8.10206 0 0 7.82482 -22.8811 -27.9099)"/><path d="m311-82c-26.533 0-48.833-9.21-66.9-27.63-18.067-18.413-27.1-40.537-27.1-66.37v-99h-68c-26.533 0-48.833-9.13-66.9-27.39-18.067-18.267-27.1-40.803-27.1-67.61v-172c0-36.433 12.403-67.54 37.21-93.32 24.807-25.787 55.403-38.68 91.79-38.68h592c36.833 0 67.71 12.893 92.63 38.68 24.913 25.78 37.37 56.887 37.37 93.32v172c0 26.807-9.13 49.343-27.39 67.61-18.267 18.26-40.803 27.39-67.61 27.39h-67v99c0 25.833-9.13 47.957-27.39 66.37-18.267 18.42-40.803 27.63-67.61 27.63zm-162-288h112v-16c7.333-3.833 15.21-7.127 23.63-9.88 8.413-2.747 17.203-4.12 26.37-4.12h338c9.167 0 17.96 1.373 26.38 4.12 8.413 2.753 16.287 6.047 23.62 9.88v16h112v-174.21c0-10.08-3.353-18.397-10.06-24.95-6.707-6.56-15.02-9.84-24.94-9.84h-592c-9.453 0-17.65 3.573-24.59 10.72-6.94 7.153-10.41 15.913-10.41 26.28zm500-304v-97h-338v97h-94v-97c0-26.807 9.033-49.343 27.1-67.61 18.067-18.26 40.367-27.39 66.9-27.39h338c26.807 0 49.343 9.13 67.61 27.39 18.26 18.267 27.39 40.803 27.39 67.61v97zm73.5 213c11.667 0 21.5-3.937 29.5-11.81 8-7.88 12-17.61 12-29.19 0-11.333-3.937-21.167-11.81-29.5s-17.77-12.5-29.69-12.5c-11.667 0-21.5 4.167-29.5 12.5s-12 18.167-12 29.5 4 21 12 29 17.833 12 29.5 12zm-73.5 290v-134h-338v134zm-500-408h662z" fill-rule="nonzero" transform="matrix(.133975 0 0 .133975 58.1248 191.519)"/><path d="m149.252 440.022h6.943c.552 0 1-.448 1-1s-.448-1-1-1h-6.943c-.552 0-1 .448-1 1s.448 1 1 1z" fill-rule="nonzero" transform="matrix(8.21834 0 0 7.82482 -1189.3 -3398.35)"/><path d="m23.559 6.614c-.301-.251-.419-.677-.293-1.061.125-.384.466-.642.849-.642h5.475c.447 0 .876.189 1.192.524s.494.79.494 1.264v4.395c0 .365-.197.698-.507.858-.309.159-.678.117-.948-.109-1.661-1.387-4.39-3.665-6.262-5.229z" transform="matrix(8.89795 0 0 8.38938 -44.9582 -29.5368)"/></svg>