<svg fill="rgb(255,150,0)" clip-rule="evenodd" fill-rule="evenodd" stroke-linejoin="round" stroke-miterlimit="2" viewBox="0 0 48 48" xmlns="http://www.w3.org/2000/svg"><path d="m31.623 15.807c.921 1.05 1.44 2.425 1.44 3.862v7.28c0 1.909-1.494 3.456-3.338 3.456h-23.563c-.886 0-1.735-.364-2.36-1.012-.626-.648-.978-1.527-.978-2.444v-19.926c0-.917.352-1.796.978-2.444.625-.648 1.474-1.012 2.36-1.012h8.758c1.298 0 2.556.471 3.554 1.331l.194.159h9.618c1.843 0 3.337 1.548 3.337 3.456zm-2.449 1.791-12.592-10.355c-.468-.401-1.055-.621-1.662-.621h-7.301c-.489 0-.958.202-1.304.56-.346.357-.54.843-.54 1.349v16.909c0 .506.194.992.54 1.349.346.358.815.56 1.304.56h20.649c.489 0 .958-.202 1.304-.559.346-.358.54-.844.54-1.35v-5.771c0-.795-.339-1.549-.926-2.061z" transform="matrix(1.49809 0 0 1.44683 -2.88106 -.60089)"/><path d="m442.82-429.82c3.413 3.413 8.947 3.413 12.36 0l91-91c7.612-7.612 16.695-11.44 27.27-11.44 10.578 0 19.681 3.835 27.332 11.452 7.619 7.592 11.478 16.537 11.478 26.878 0 10.318-3.832 19.213-11.411 26.721l-.029.029-125 125c-7.611 7.611-16.687 11.44-27.25 11.44-10.587 0-19.716-3.84-27.412-11.462l-61.978-61.978c-7.589-7.59-11.44-16.497-11.44-26.77 0-10.391 4.096-19.667 12.049-27.93 7.312-7.558 16.037-11.38 26.211-11.38 10.351 0 19.624 3.904 27.897 11.52z" transform="matrix(.0572087 0 0 .0572087 -3.46017 53.0914)"/></svg>