<svg fill="rgb(255,150,0)" clip-rule="evenodd" fill-rule="evenodd" stroke-linejoin="round" stroke-miterlimit="2" viewBox="0 0 48 48" xmlns="http://www.w3.org/2000/svg"><g fill-rule="nonzero"><path d="m27.077 33.266c-.121.006-.245.007-.384.009-.48.005-1.152.004-1.777.332l-.001-.002c-.005.002-.01.006-.015.008-.003.002-.006.002-.009.004l.002.001c-1.129.566-1.816 1.899-1.833 3.21h-.001c-.001.004.001.008.001.013 0 .003-.001.006-.001.009h.001c-.035.978.328 1.928.906 2.617.563.672 1.397 1.161 2.334 1.081v.001c4.047.014 8.097.011 12.144.008 1.733-.002 3.465-.003 5.196-.003.965.115 1.84-.348 2.435-1.034.608-.702.977-1.688.919-2.721h.003c-.001-.006-.002-.012-.002-.017 0-.006.001-.011 0-.016h-.002c-.021-.974-.41-1.869-1.007-2.506-.588-.628-1.414-1.037-2.309-.974v-.005c-2.863-.015-5.728-.012-8.589-.009-2.662.003-5.321.006-7.98-.006z" transform="matrix(.882117 0 0 .882117 2.82591 2.82918)"/><path d="m34 39.779c-1.591.001-3.118.633-4.242 1.758-2.327 2.327-2.327 6.157 0 8.484l13.758 13.758-13.758 13.758c-2.327 2.327-2.327 6.157 0 8.484s6.157 2.327 8.484 0l18-18c2.327-2.327 2.327-6.156 0-8.484l-18-18c-1.124-1.125-2.651-1.757-4.242-1.758z" transform="matrix(.555908 0 0 .555908 -11.8579 -12.7318)"/></g></svg>