<svg fill="rgb(255,60,100)" clip-rule="evenodd" fill-rule="evenodd" stroke-linejoin="round" stroke-miterlimit="2" viewBox="0 0 245 210" xmlns="http://www.w3.org/2000/svg"><path d="m7.144 3.567h7.776c1.298 0 2.556.471 3.554 1.331l12.589 10.352c1.267 1.093 2 2.712 2 4.419v6.263c0 1.186-.455 2.324-1.265 3.162-.81.839-1.909 1.311-3.055 1.311h-21.599c-1.146 0-2.244-.472-3.055-1.311-.81-.838-1.265-1.976-1.265-3.162v-17.892c0-1.187.455-2.324 1.265-3.163.811-.839 1.909-1.31 3.055-1.31zm0 2.226c-.575 0-1.127.237-1.534.658-.407.422-.636.993-.636 1.589v17.892c0 .595.229 1.167.636 1.588s.959.658 1.534.658h21.599c.576 0 1.128-.237 1.535-.658s.635-.993.635-1.588v-6.263c0-1.046-.449-2.038-1.226-2.708l-12.589-10.352c-.612-.527-1.382-.816-2.178-.816zm.285 3.491c-.56 0-1.015-.448-1.015-1s.455-1 1.015-1h7.043c.56 0 1.014.448 1.014 1s-.454 1-1.014 1zm15.719-2.401c-.33-.269-.459-.726-.322-1.137.138-.412.513-.688.933-.688h6.013c.491 0 .962.202 1.309.561.347.36.542.847.542 1.356v4.712c0 .391-.216.748-.556.919s-.745.126-1.042-.116z" transform="matrix(8.10206 0 0 7.82482 -22.8811 -27.9099)"/><path d="m100.298 74.498c4.355-15.094 15.775-27.128 30.621-32.266 27.894-9.452 76.122-19.67 125.207-.895 23.189 8.706 35.756 33.806 28.834 57.589-8.045 31.026-20.863 75.065-29.232 103.819-1.975 6.777-6.816 12.351-13.249 15.257-6.434 2.906-13.816 2.852-20.207-.146-19.337-10.651-47.164-21.958-70.369-19.633-20.368 2.046-43.987 7.954-62.47 13.335-6.303 1.754-13.062-.04-17.666-4.689s-6.331-11.425-4.516-17.711c9.673-33.733 24.612-85.457 33.047-114.66zm-90.12 312.394c9.678-33.671 24.283-84.485 33.193-113.213 4.369-15.202 15.991-27.248 31.027-32.16 20.121-6.786 49.125-14.289 75.097-12.432 18.859 1.349 36.146 6.344 50.844 11.232 23 9.292 35.226 34.492 28.291 58.309-9.127 31.364-22.153 76.13-31.068 104.878-1.911 6.57-6.577 11.989-12.791 14.855-6.213 2.867-13.364 2.899-19.603.089-19.465-9.667-46.993-20.57-69.318-18.707-23.354 1.956-44.861 4.86-63.154 9.53-6.339 1.859-13.188.121-17.873-4.536-4.686-4.657-6.465-11.495-4.645-17.845zm401.41 50.607c-4.355 15.094-15.775 27.128-30.621 32.266-27.894 9.452-76.122 19.67-125.207.895-23.189-8.706-35.756-33.806-28.834-57.589 8.045-31.026 20.863-75.065 29.232-103.819 1.975-6.777 6.816-12.351 13.249-15.257 6.434-2.906 13.816-2.852 20.207.146 19.337 10.651 47.164 21.958 70.369 19.633 20.368-2.046 43.987-7.954 62.47-13.335 6.303-1.754 13.062.04 17.666 4.689s6.331 11.425 4.516 17.711c-9.673 33.733-24.612 85.457-33.047 114.66zm90.12-312.394c-9.678 33.671-24.283 84.485-33.193 113.213-4.369 15.202-15.991 27.248-31.027 32.16-20.121 6.786-49.125 14.289-75.097 12.432-18.859-1.349-36.146-6.344-50.844-11.232-23-9.292-35.226-34.492-28.291-58.309 9.127-31.364 22.153-76.13 31.068-104.878 1.911-6.57 6.577-11.989 12.791-14.855 6.213-2.867 13.364-2.899 19.603-.089 19.465 9.667 46.993 20.57 69.318 18.707 23.354-1.956 44.861-4.86 63.154-9.53 6.339-1.859 13.188-.121 17.873 4.536 4.686 4.657 6.465 11.495 4.645 17.845z" transform="matrix(-.225532 0 0 -.225532 180.223 185.751)"/></svg>