<svg fill="rgb(255,60,100)" clip-rule="evenodd" fill-rule="evenodd" stroke-linejoin="round" stroke-miterlimit="2" viewBox="0 0 48 48" xmlns="http://www.w3.org/2000/svg"><g fill-rule="nonzero" transform="matrix(.934838 0 0 .934838 1.79739 3.38699)"><path d="m26.078 33.266c-.121.006-.246.007-.384.009-.481.005-1.153.004-1.778.332l-.001-.002c-.005.002-.01.006-.015.008-.002.002-.005.002-.008.004l.001.001c-1.129.566-1.816 1.899-1.833 3.21h-.001c0 .004.002.008.001.013 0 .003-.001.006-.001.009h.001c-.035.978.328 1.928.906 2.617.563.672 1.397 1.161 2.334 1.081v.001c4.048.014 8.097.011 12.145.008 1.732-.002 3.464-.003 5.195-.003.966.115 1.841-.348 2.435-1.034.609-.702.977-1.688.919-2.721h.003c0-.006-.001-.012-.001-.017-.001-.006 0-.011 0-.016h-.003c-.02-.974-.41-1.869-1.007-2.506-.587-.628-1.413-1.037-2.309-.974v-.005c-2.863-.015-5.727-.012-8.589-.009-2.661.003-5.321.006-7.979-.006z"/><path d="m2.107 35.001c-.046.113-.097.226-.154.352-.199.438-.484 1.047-.45 1.751l-.003.001c0 .005.001.011.002.017 0 .003-.001.006-.001.009l.002-.001c.035 1.262.954 2.449 2.135 3.018l-.001.001c.004.002.008.002.012.004.003.002.005.004.008.006l.001-.002c.871.445 1.886.518 2.754.285.847-.226 1.642-.775 1.966-1.658l.001.001c1.723-3.663 10.229-21.912 11.937-25.581.731-1.57 1.462-3.141 2.193-4.71.512-.826.462-1.815.092-2.643-.379-.849-1.117-1.599-2.078-1.984l.001-.002c-.005-.002-.011-.004-.016-.006s-.009-.005-.014-.007l-.001.003c-.892-.393-1.867-.418-2.697-.147-.818.267-1.537.843-1.858 1.681l-.005-.002c-1.224 2.589-2.431 5.186-3.638 7.781-1.122 2.413-9.041 19.401-10.175 21.806l-.006.014z"/></g></svg>