<svg fill="rgb(255,60,100)" clip-rule="evenodd" fill-rule="evenodd" stroke-linejoin="round" stroke-miterlimit="2" viewBox="0 0 48 48" xmlns="http://www.w3.org/2000/svg"><path d="m665.2-191.515-24.267-23.268-.063-.063-568.976-567.976c-11.573-11.572-16.878-25.083-16.352-40.337.517-14.997 6.005-27.612 16.306-37.913 11.476-11.477 24.629-16.898 39.182-16.898 14.563 0 27.699 5.415 39.133 16.849l649.846 648.133.611.637c10.202 11.13 15.256 24.131 15.256 38.964 0 15.098-5.213 28.028-15.59 38.809l-.294.3c-11.331 11.288-24.764 16.537-40.214 15.967-15.085-.556-27.74-6.08-38.044-16.384l-.072-.073z" transform="matrix(.042963 -0 0 .0422191 5.2813 45.0302)"/><path d="m12.918 6.153c-.419-.433-.544-1.084-.318-1.651.226-.566.76-.935 1.352-.935h.968c1.298 0 2.556.471 3.554 1.331l.194.159h9.618c1.843 0 3.337 1.548 3.337 3.456v7.294c.921 1.05 1.44 2.425 1.44 3.862v3.704c-.002.605-.355 1.15-.896 1.381s-1.162.103-1.576-.325c-.019-.019-.037-.038-.054-.056-.272-.281-.425-.663-.425-1.061 0-1.183 0-3.643 0-3.643 0-.795-.339-1.549-.926-2.061l-.012-.01-12.592-10.355c-.468-.401-1.055-.621-1.662-.621h-.944c-.387 0-.759-.159-1.033-.443-.008-.008-.017-.017-.025-.026zm10.093 21.688c.416.428.542 1.074.318 1.636-.223.561-.752.928-1.339.928-5.577 0-15.828 0-15.828 0-.886 0-1.735-.364-2.36-1.012-.626-.648-.978-1.527-.978-2.444 0 0 0-10.858 0-16.559.004-.571.339-1.084.849-1.301s1.096-.095 1.486.308l.009.009c.389.402.607.947.607 1.516v14.518c0 .506.194.992.54 1.349.346.358.815.56 1.304.56h14.316c.383 0 .749.157 1.021.435.018.019.036.038.055.057z" transform="matrix(1.49809 0 0 1.44683 -2.88106 -.60089)"/></svg>