<svg clip-rule="evenodd" fill-rule="evenodd" stroke-linejoin="round" stroke-miterlimit="2" viewBox="0 0 250 250" xmlns="http://www.w3.org/2000/svg"><g transform="matrix(.295854 0 0 .295854 -17.1577 267.158)"><path d="m223-726 36-46h440.59l36.41 46zm548 87v450h-582v-450z" fill="#fff"/><path d="m189-95c-26.533 0-48.833-9.033-66.9-27.1s-27.1-40.367-27.1-66.9v-493c0-10.587 1.833-20.94 5.5-31.06s8.897-19.42 15.69-27.9l72.81-95.04c8.5-10.687 18.703-18.36 30.61-23.02 11.907-4.653 24.703-6.98 38.39-6.98h444c13 0 25.457 2.327 37.37 6.98 11.913 4.66 22.123 12.333 30.63 23.02l74.81 95.04c6.127 8.48 11.19 17.78 15.19 27.9s6 20.473 6 31.06v493c0 26.533-9.13 48.833-27.39 66.9-18.267 18.067-40.803 27.1-67.61 27.1zm582-544h-582v450h582zm-330.064 83.434c-4.642 0-8.418-1.548-11.328-4.646-2.909-3.097-4.364-6.913-4.364-11.447s1.455-8.264 4.364-11.19c2.91-2.925 6.686-4.388 11.328-4.388h77.747c4.642 0 8.418 1.461 11.327 4.384 2.91 2.922 4.365 6.698 4.365 11.328 0 4.534-1.455 8.328-4.365 11.38-2.909 3.053-6.685 4.579-11.327 4.579zm-25.904 299.798c-14.744-7.303-27.834-16.654-39.269-28.054-13.311-13.269-23.782-28.789-31.413-46.559-7.632-17.771-11.448-36.849-11.448-57.237 0-20.387 3.828-39.478 11.482-57.274 7.655-17.795 18.137-33.371 31.447-46.727 12.354-12.398 26.639-22.388 42.854-29.971 3.361-1.589 6.778-3.037 10.251-4.343 15.938-6.018 32.896-9.026 50.873-9.026.23-.001.461-.001.691 0 34.305 0 64.669 10.743 91.09 32.229l11.245-11.244c3.307-3.307 7.059-4.961 11.256-4.961 4.198 0 7.95 1.717 11.257 5.152 3.307 3.434 4.96 7.25 4.96 11.447s-1.653 7.949-4.96 11.256l-10.89 10.89c22.092 26.457 33.138 57.49 33.138 93.101 0 40.48-14.581 74.988-43.742 103.524-29.161 28.532-63.612 42.798-103.354 42.798-.26.001-.52.001-.78.001-16.436 0-32.023-2.502-46.762-7.507-6.145-2.07-12.121-4.569-17.926-7.495zm65.081-35.322c6.968 0 12.774-2.193 17.419-6.58s6.968-10.194 6.968-17.42c0-7.225-2.349-13.161-7.045-17.806-4.697-4.645-10.349-6.968-16.955-6.968-7.226 0-13.032 2.323-17.419 6.968s-6.581 10.581-6.581 17.806c0 7.226 2.194 13.033 6.581 17.42s10.064 6.58 17.032 6.58zm0-82.064c4.903 0 9.161-1.755 12.774-5.264 3.613-3.51 5.419-7.949 5.419-13.316v-74.322c0-5.368-1.806-9.678-5.419-12.929-3.613-3.252-8-4.878-13.161-4.878s-9.419 1.755-12.774 5.265c-3.355 3.509-5.033 7.948-5.033 13.316v74.322c0 5.368 1.652 9.677 4.955 12.929 3.303 3.251 7.716 4.877 13.239 4.877zm-257.113-352.846h513l-36.41-46h-440.59z"/></g></svg>