<svg clip-rule="evenodd" fill-rule="evenodd" stroke-linejoin="round" stroke-miterlimit="2" viewBox="0 0 250 250" xmlns="http://www.w3.org/2000/svg"><g transform="matrix(.295854 0 0 .295854 -17.1577 267.158)"><path d="m259-772-70 89.444v493.556l582 .326v-502.326l-71.41-81z" fill="#fff"/><path d="m189-95c-26.533 0-48.833-9.033-66.9-27.1s-27.1-40.367-27.1-66.9v-493c0-10.587 1.833-20.94 5.5-31.06s8.897-19.42 15.69-27.9l72.81-95.04c8.5-10.687 18.703-18.36 30.61-23.02 11.907-4.653 24.703-6.98 38.39-6.98h444c13 0 25.457 2.327 37.37 6.98 11.913 4.66 22.123 12.333 30.63 23.02l74.81 95.04c6.127 8.48 11.19 17.78 15.19 27.9s6 20.473 6 31.06v493c0 26.533-9.13 48.833-27.39 66.9-18.267 18.067-40.803 27.1-67.61 27.1zm48.48-649.502c-2.698 3.448-3.194 8.133-1.276 12.069s5.912 6.433 10.291 6.433h465.845c4.39 0 8.393-2.51 10.305-6.462 1.912-3.951 1.395-8.648-1.329-12.09l-12.522-15.82c-5.814-7.345-14.667-11.628-24.034-11.628h-410.826c-9.426 0-18.328 4.337-24.138 11.76zm533.52 134.016c0-7.562-3.004-14.815-8.352-20.162-5.347-5.348-12.6-8.352-20.162-8.352h-524.972c-7.562 0-14.815 3.004-20.162 8.352-5.348 5.347-8.352 12.6-8.352 20.162v392.972c0 7.562 3.004 14.815 8.352 20.162 5.347 5.348 12.6 8.352 20.162 8.352h524.972c7.562 0 14.815-3.004 20.162-8.352 5.348-5.347 8.352-12.6 8.352-20.162zm-291.461 369.723c-47.609 0-88.308-17.047-122.095-51.141-33.787-34.095-50.681-74.486-50.681-121.174 0-48.181 16.891-89.254 50.672-123.22 33.781-33.959 74.636-50.939 122.565-50.939 47.302 0 88.001 16.98 122.095 50.939 34.095 33.966 51.142 75.039 51.142 123.22 0 46.688-17.047 87.079-51.142 121.174-34.094 34.094-74.946 51.141-122.556 51.141zm80.93-222.922c3.032-.748 5.708-2.284 8.034-4.588 3.438-3.407 5.192-7.598 5.192-12.6 0-4.981-1.739-9.176-5.16-12.609-3.432-3.446-7.626-5.191-12.6-5.191h-36.51c-.843-2.005-2.078-3.854-3.703-5.547-3.455-3.597-7.684-5.399-12.691-5.399h-46.29c-4.996 0-9.211 1.782-12.656 5.323-1.654 1.698-2.909 3.572-3.761 5.624l-36.259-.001c-4.963 0-9.144 1.726-12.566 5.118-3.44 3.407-5.194 7.598-5.194 12.6 0 4.98 1.739 9.176 5.162 12.609 2.333 2.344 5.019 3.901 8.064 4.657v119.595c0 8.042 2.802 14.787 8.336 20.262 5.508 5.448 12.286 8.215 20.369 8.215h103.528c8.083 0 14.861-2.767 20.369-8.215 5.534-5.475 8.336-12.22 8.336-20.262zm-100.381 101.805c-2.483 0-4.573-.856-6.271-2.568-1.699-1.712-2.549-3.744-2.549-6.097v-73.656c0-2.351.836-4.384 2.508-6.097 1.672-1.712 3.787-2.568 6.344-2.568 2.364 0 4.406.856 6.127 2.568 1.72 1.713 2.579 3.746 2.579 6.097v73.656c0 2.353-.836 4.385-2.508 6.097s-3.749 2.568-6.23 2.568zm40.063 0c-2.376 0-4.466-.856-6.271-2.568-1.804-1.712-2.706-3.744-2.706-6.097v-73.656c0-2.351.874-4.384 2.622-6.097 1.748-1.712 3.833-2.568 6.255-2.568s4.512.856 6.271 2.568c1.759 1.713 2.638 3.746 2.638 6.097v73.656c0 2.353-.874 4.385-2.622 6.097s-3.811 2.568-6.187 2.568z"/></g></svg>